%TF.GenerationSoftware,KiCad,Pcbnew,7.0.6*%
%TF.CreationDate,2024-02-29T21:08:59-05:00*%
%TF.ProjectId,Axis_Basic,41786973-5f42-4617-9369-632e6b696361,rev?*%
%TF.SameCoordinates,Original*%
%TF.FileFunction,Legend,Top*%
%TF.FilePolarity,Positive*%
%FSLAX46Y46*%
G04 Gerber Fmt 4.6, Leading zero omitted, Abs format (unit mm)*
G04 Created by KiCad (PCBNEW 7.0.6) date 2024-02-29 21:08:59*
%MOMM*%
%LPD*%
G01*
G04 APERTURE LIST*
G04 Aperture macros list*
%AMRoundRect*
0 Rectangle with rounded corners*
0 $1 Rounding radius*
0 $2 $3 $4 $5 $6 $7 $8 $9 X,Y pos of 4 corners*
0 Add a 4 corners polygon primitive as box body*
4,1,4,$2,$3,$4,$5,$6,$7,$8,$9,$2,$3,0*
0 Add four circle primitives for the rounded corners*
1,1,$1+$1,$2,$3*
1,1,$1+$1,$4,$5*
1,1,$1+$1,$6,$7*
1,1,$1+$1,$8,$9*
0 Add four rect primitives between the rounded corners*
20,1,$1+$1,$2,$3,$4,$5,0*
20,1,$1+$1,$4,$5,$6,$7,0*
20,1,$1+$1,$6,$7,$8,$9,0*
20,1,$1+$1,$8,$9,$2,$3,0*%
%AMRotRect*
0 Rectangle, with rotation*
0 The origin of the aperture is its center*
0 $1 length*
0 $2 width*
0 $3 Rotation angle, in degrees counterclockwise*
0 Add horizontal line*
21,1,$1,$2,0,0,$3*%
G04 Aperture macros list end*
%ADD10C,0.150000*%
%ADD11C,0.120000*%
%ADD12C,0.100000*%
%ADD13RoundRect,0.140000X0.170000X-0.140000X0.170000X0.140000X-0.170000X0.140000X-0.170000X-0.140000X0*%
%ADD14RoundRect,0.140000X-0.140000X-0.170000X0.140000X-0.170000X0.140000X0.170000X-0.140000X0.170000X0*%
%ADD15RoundRect,0.135000X-0.135000X-0.185000X0.135000X-0.185000X0.135000X0.185000X-0.135000X0.185000X0*%
%ADD16RoundRect,0.135000X-0.185000X0.135000X-0.185000X-0.135000X0.185000X-0.135000X0.185000X0.135000X0*%
%ADD17RoundRect,0.218750X-0.256250X0.218750X-0.256250X-0.218750X0.256250X-0.218750X0.256250X0.218750X0*%
%ADD18RoundRect,0.062500X0.220971X0.309359X-0.309359X-0.220971X-0.220971X-0.309359X0.309359X0.220971X0*%
%ADD19RoundRect,0.062500X-0.220971X0.309359X-0.309359X0.220971X0.220971X-0.309359X0.309359X-0.220971X0*%
%ADD20RotRect,5.150000X5.150000X225.000000*%
%ADD21RoundRect,0.250000X-0.350000X-0.625000X0.350000X-0.625000X0.350000X0.625000X-0.350000X0.625000X0*%
%ADD22O,1.200000X1.750000*%
%ADD23RoundRect,0.135000X0.185000X-0.135000X0.185000X0.135000X-0.185000X0.135000X-0.185000X-0.135000X0*%
%ADD24R,1.700000X1.700000*%
%ADD25O,1.700000X1.700000*%
%ADD26C,3.200000*%
%ADD27RoundRect,0.250000X0.625000X-0.312500X0.625000X0.312500X-0.625000X0.312500X-0.625000X-0.312500X0*%
%ADD28RoundRect,0.250000X0.250000X0.475000X-0.250000X0.475000X-0.250000X-0.475000X0.250000X-0.475000X0*%
%ADD29RoundRect,0.062500X0.062500X-0.337500X0.062500X0.337500X-0.062500X0.337500X-0.062500X-0.337500X0*%
%ADD30RoundRect,0.062500X0.337500X-0.062500X0.337500X0.062500X-0.337500X0.062500X-0.337500X-0.062500X0*%
%ADD31R,3.350000X3.350000*%
%ADD32RoundRect,0.135000X0.135000X0.185000X-0.135000X0.185000X-0.135000X-0.185000X0.135000X-0.185000X0*%
%ADD33RoundRect,0.140000X0.140000X0.170000X-0.140000X0.170000X-0.140000X-0.170000X0.140000X-0.170000X0*%
%ADD34RoundRect,0.140000X-0.219203X-0.021213X-0.021213X-0.219203X0.219203X0.021213X0.021213X0.219203X0*%
%ADD35RoundRect,0.250000X-0.625000X0.350000X-0.625000X-0.350000X0.625000X-0.350000X0.625000X0.350000X0*%
%ADD36O,1.750000X1.200000*%
%ADD37RotRect,1.150000X1.000000X45.000000*%
%ADD38RoundRect,0.140000X-0.021213X0.219203X-0.219203X0.021213X0.021213X-0.219203X0.219203X-0.021213X0*%
%ADD39RoundRect,0.250000X1.500000X0.550000X-1.500000X0.550000X-1.500000X-0.550000X1.500000X-0.550000X0*%
%ADD40RoundRect,0.140000X0.021213X-0.219203X0.219203X-0.021213X-0.021213X0.219203X-0.219203X0.021213X0*%
%ADD41R,1.500000X0.900000*%
%ADD42RoundRect,0.112500X0.112500X-0.187500X0.112500X0.187500X-0.112500X0.187500X-0.112500X-0.187500X0*%
%ADD43R,0.700000X0.750000*%
%ADD44R,0.750000X0.300000*%
%ADD45R,1.300000X1.500000*%
%ADD46R,1.500000X2.000000*%
%ADD47R,3.800000X2.000000*%
%ADD48RoundRect,0.135000X-0.226274X-0.035355X-0.035355X-0.226274X0.226274X0.035355X0.035355X0.226274X0*%
%ADD49RoundRect,0.250000X-0.625000X0.312500X-0.625000X-0.312500X0.625000X-0.312500X0.625000X0.312500X0*%
%ADD50R,1.000000X1.000000*%
%ADD51O,1.000000X1.000000*%
%ADD52C,0.650000*%
%ADD53R,1.240000X0.600000*%
%ADD54R,1.240000X0.300000*%
%ADD55O,2.100000X1.000000*%
%ADD56O,1.800000X1.000000*%
G04 APERTURE END LIST*
D10*
X140357142Y-113709580D02*
X140309523Y-113757200D01*
X140309523Y-113757200D02*
X140166666Y-113804819D01*
X140166666Y-113804819D02*
X140071428Y-113804819D01*
X140071428Y-113804819D02*
X139928571Y-113757200D01*
X139928571Y-113757200D02*
X139833333Y-113661961D01*
X139833333Y-113661961D02*
X139785714Y-113566723D01*
X139785714Y-113566723D02*
X139738095Y-113376247D01*
X139738095Y-113376247D02*
X139738095Y-113233390D01*
X139738095Y-113233390D02*
X139785714Y-113042914D01*
X139785714Y-113042914D02*
X139833333Y-112947676D01*
X139833333Y-112947676D02*
X139928571Y-112852438D01*
X139928571Y-112852438D02*
X140071428Y-112804819D01*
X140071428Y-112804819D02*
X140166666Y-112804819D01*
X140166666Y-112804819D02*
X140309523Y-112852438D01*
X140309523Y-112852438D02*
X140357142Y-112900057D01*
X141309523Y-113804819D02*
X140738095Y-113804819D01*
X141023809Y-113804819D02*
X141023809Y-112804819D01*
X141023809Y-112804819D02*
X140928571Y-112947676D01*
X140928571Y-112947676D02*
X140833333Y-113042914D01*
X140833333Y-113042914D02*
X140738095Y-113090533D01*
X142261904Y-113804819D02*
X141690476Y-113804819D01*
X141976190Y-113804819D02*
X141976190Y-112804819D01*
X141976190Y-112804819D02*
X141880952Y-112947676D01*
X141880952Y-112947676D02*
X141785714Y-113042914D01*
X141785714Y-113042914D02*
X141690476Y-113090533D01*
D11*
%TO.C,C6*%
X146340000Y-104707836D02*
X146340000Y-104492164D01*
X147060000Y-104707836D02*
X147060000Y-104492164D01*
%TO.C,C3*%
X161092164Y-97040000D02*
X161307836Y-97040000D01*
X161092164Y-97760000D02*
X161307836Y-97760000D01*
%TO.C,R6*%
X161046359Y-95720000D02*
X161353641Y-95720000D01*
X161046359Y-96480000D02*
X161353641Y-96480000D01*
%TO.C,R10*%
X147580000Y-109346359D02*
X147580000Y-109653641D01*
X146820000Y-109346359D02*
X146820000Y-109653641D01*
%TO.C,C1*%
X146412164Y-111140000D02*
X146627836Y-111140000D01*
X146412164Y-111860000D02*
X146627836Y-111860000D01*
%TO.C,D4*%
X159035000Y-103615000D02*
X157565000Y-103615000D01*
X157565000Y-103615000D02*
X157565000Y-105900000D01*
X159035000Y-105900000D02*
X159035000Y-103615000D01*
%TO.C,U3*%
X155062500Y-86144689D02*
X155398376Y-86480565D01*
X159831935Y-91585876D02*
X160167811Y-91250000D01*
X154726624Y-86480565D02*
X155062500Y-86144689D01*
X155398376Y-96019435D02*
X155062500Y-96355311D01*
X150293065Y-90914124D02*
X149957189Y-91250000D01*
X155062500Y-96355311D02*
X154726624Y-96019435D01*
X149957189Y-91250000D02*
X150293065Y-91585876D01*
%TO.C,J4*%
X138140000Y-114040000D02*
X138140000Y-121860000D01*
X138140000Y-115640000D02*
X139060000Y-115640000D01*
X138140000Y-121860000D02*
X144260000Y-121860000D01*
X138900000Y-118000000D02*
X138900000Y-119600000D01*
X138900000Y-119600000D02*
X139900000Y-119600000D01*
X139060000Y-114040000D02*
X138140000Y-114040000D01*
X139060000Y-115640000D02*
X139060000Y-114040000D01*
X139340000Y-115640000D02*
X139060000Y-115640000D01*
X139340000Y-115640000D02*
X139340000Y-114425000D01*
X139400000Y-119600000D02*
X139400000Y-121860000D01*
X139900000Y-118000000D02*
X138900000Y-118000000D01*
X139900000Y-119600000D02*
X139900000Y-118000000D01*
X139900000Y-119600000D02*
X139900000Y-121860000D01*
X140700000Y-117500000D02*
X141700000Y-117500000D01*
X140700000Y-121860000D02*
X140700000Y-117500000D01*
X141700000Y-117500000D02*
X141700000Y-121860000D01*
X142500000Y-118000000D02*
X143500000Y-118000000D01*
X142500000Y-119600000D02*
X142500000Y-118000000D01*
X143340000Y-114040000D02*
X143340000Y-115640000D01*
X143340000Y-115640000D02*
X143060000Y-115640000D01*
X143500000Y-118000000D02*
X143500000Y-119600000D01*
X143500000Y-119600000D02*
X142500000Y-119600000D01*
X144260000Y-114040000D02*
X143340000Y-114040000D01*
X144260000Y-115640000D02*
X143340000Y-115640000D01*
X144260000Y-121860000D02*
X144260000Y-114040000D01*
%TO.C,R11*%
X139820000Y-86753641D02*
X139820000Y-86446359D01*
X140580000Y-86753641D02*
X140580000Y-86446359D01*
%TO.C,D5*%
X149535000Y-107915000D02*
X148065000Y-107915000D01*
X148065000Y-107915000D02*
X148065000Y-110200000D01*
X149535000Y-110200000D02*
X149535000Y-107915000D01*
%TO.C,C5*%
X150392164Y-101140000D02*
X150607836Y-101140000D01*
X150392164Y-101860000D02*
X150607836Y-101860000D01*
%TO.C,J6*%
X129870000Y-93830000D02*
X142690000Y-93830000D01*
X129870000Y-93830000D02*
X129870000Y-91230000D01*
X142690000Y-93830000D02*
X142690000Y-88630000D01*
X129870000Y-91230000D02*
X132470000Y-91230000D01*
X132470000Y-91230000D02*
X132470000Y-88630000D01*
X129870000Y-89960000D02*
X129870000Y-88630000D01*
X129870000Y-88630000D02*
X131200000Y-88630000D01*
X132470000Y-88630000D02*
X142690000Y-88630000D01*
%TO.C,R15*%
X137590000Y-97327064D02*
X137590000Y-95872936D01*
X139410000Y-97327064D02*
X139410000Y-95872936D01*
%TO.C,R4*%
X161046359Y-93420000D02*
X161353641Y-93420000D01*
X161046359Y-94180000D02*
X161353641Y-94180000D01*
%TO.C,C9*%
X141661252Y-96335000D02*
X141138748Y-96335000D01*
X141661252Y-94865000D02*
X141138748Y-94865000D01*
%TO.C,C4*%
X144940000Y-104707836D02*
X144940000Y-104492164D01*
X145660000Y-104707836D02*
X145660000Y-104492164D01*
%TO.C,R5*%
X161046359Y-98220000D02*
X161353641Y-98220000D01*
X161046359Y-98980000D02*
X161353641Y-98980000D01*
%TO.C,U4*%
X148560000Y-102610000D02*
X147835000Y-102610000D01*
X143340000Y-101885000D02*
X143340000Y-102610000D01*
X148560000Y-101885000D02*
X148560000Y-102610000D01*
X143340000Y-98115000D02*
X143340000Y-97390000D01*
X148560000Y-98115000D02*
X148560000Y-97390000D01*
X143340000Y-97390000D02*
X144065000Y-97390000D01*
X148560000Y-97390000D02*
X147835000Y-97390000D01*
%TO.C,R3*%
X161353641Y-101380000D02*
X161046359Y-101380000D01*
X161353641Y-100620000D02*
X161046359Y-100620000D01*
%TO.C,C8*%
X142007836Y-103260000D02*
X141792164Y-103260000D01*
X142007836Y-102540000D02*
X141792164Y-102540000D01*
%TO.C,R12*%
X144446359Y-83320000D02*
X144753641Y-83320000D01*
X144446359Y-84080000D02*
X144753641Y-84080000D01*
%TO.C,C12*%
X159678307Y-88169190D02*
X159830810Y-88321693D01*
X159169190Y-88678307D02*
X159321693Y-88830810D01*
%TO.C,J2*%
X135910000Y-94940000D02*
X128090000Y-94940000D01*
X134310000Y-94940000D02*
X134310000Y-95860000D01*
X128090000Y-94940000D02*
X128090000Y-105060000D01*
X131950000Y-95700000D02*
X130350000Y-95700000D01*
X130350000Y-95700000D02*
X130350000Y-96700000D01*
X135910000Y-95860000D02*
X135910000Y-94940000D01*
X134310000Y-95860000D02*
X135910000Y-95860000D01*
X134310000Y-96140000D02*
X134310000Y-95860000D01*
X134310000Y-96140000D02*
X135525000Y-96140000D01*
X130350000Y-96200000D02*
X128090000Y-96200000D01*
X131950000Y-96700000D02*
X131950000Y-95700000D01*
X130350000Y-96700000D02*
X131950000Y-96700000D01*
X130350000Y-96700000D02*
X128090000Y-96700000D01*
X132450000Y-97500000D02*
X132450000Y-102500000D01*
X128090000Y-97500000D02*
X132450000Y-97500000D01*
X132450000Y-102500000D02*
X128090000Y-102500000D01*
X131950000Y-103300000D02*
X131950000Y-104300000D01*
X130350000Y-103300000D02*
X131950000Y-103300000D01*
X135910000Y-104140000D02*
X134310000Y-104140000D01*
X134310000Y-104140000D02*
X134310000Y-103860000D01*
X131950000Y-104300000D02*
X130350000Y-104300000D01*
X130350000Y-104300000D02*
X130350000Y-103300000D01*
X135910000Y-105060000D02*
X135910000Y-104140000D01*
X134310000Y-105060000D02*
X134310000Y-104140000D01*
X128090000Y-105060000D02*
X135910000Y-105060000D01*
%TO.C,D3*%
X154835000Y-103615000D02*
X153365000Y-103615000D01*
X153365000Y-103615000D02*
X153365000Y-105900000D01*
X154835000Y-105900000D02*
X154835000Y-103615000D01*
%TO.C,Y1*%
X146443324Y-88576777D02*
X148423223Y-90556676D01*
X148423223Y-90556676D02*
X150756676Y-88223223D01*
%TO.C,R8*%
X145246359Y-95320000D02*
X145553641Y-95320000D01*
X145246359Y-96080000D02*
X145553641Y-96080000D01*
%TO.C,C15*%
X152330810Y-87478307D02*
X152178307Y-87630810D01*
X151821693Y-86969190D02*
X151669190Y-87121693D01*
%TO.C,C11*%
X145437500Y-110847500D02*
X144650000Y-110847500D01*
X145043750Y-111241250D02*
X145043750Y-110453750D01*
X144410000Y-111345563D02*
X144410000Y-110060000D01*
X144410000Y-111345563D02*
X143345563Y-112410000D01*
X144410000Y-106654437D02*
X144410000Y-107940000D01*
X144410000Y-106654437D02*
X143345563Y-105590000D01*
X143345563Y-112410000D02*
X137590000Y-112410000D01*
X143345563Y-105590000D02*
X137590000Y-105590000D01*
X137590000Y-112410000D02*
X137590000Y-110060000D01*
X137590000Y-105590000D02*
X137590000Y-107940000D01*
%TO.C,C17*%
X150017718Y-86108601D02*
X150170221Y-86261104D01*
X149508601Y-86617718D02*
X149661104Y-86770221D01*
%TO.C,R1*%
X161046359Y-101820000D02*
X161353641Y-101820000D01*
X161046359Y-102580000D02*
X161353641Y-102580000D01*
%TO.C,D6*%
X156735000Y-103615000D02*
X155265000Y-103615000D01*
X155265000Y-103615000D02*
X155265000Y-105900000D01*
X156735000Y-105900000D02*
X156735000Y-103615000D01*
%TO.C,C16*%
X157669190Y-94921693D02*
X157821693Y-94769190D01*
X158178307Y-95430810D02*
X158330810Y-95278307D01*
%TO.C,D7*%
X154150000Y-107350000D02*
X161450000Y-107350000D01*
X154150000Y-112850000D02*
X161450000Y-112850000D01*
X161450000Y-112850000D02*
X161450000Y-111700000D01*
%TO.C,C10*%
X141661252Y-105135000D02*
X141138748Y-105135000D01*
X141661252Y-103665000D02*
X141138748Y-103665000D01*
%TO.C,D1*%
X159650000Y-106510000D02*
X161350000Y-106510000D01*
X159650000Y-106510000D02*
X159650000Y-103850000D01*
X161350000Y-106510000D02*
X161350000Y-103850000D01*
D12*
%TO.C,SW1*%
X135200000Y-108600000D02*
X130700000Y-108600000D01*
X130700000Y-108600000D02*
X130700000Y-105600000D01*
X130700000Y-105600000D02*
X135200000Y-105600000D01*
X135200000Y-105600000D02*
X135200000Y-108600000D01*
D10*
%TO.C,U5*%
X141425000Y-86700000D02*
X144425000Y-86700000D01*
X142925000Y-84450000D02*
X144425000Y-84450000D01*
D11*
%TO.C,C18*%
X146778307Y-89269190D02*
X146930810Y-89421693D01*
X146269190Y-89778307D02*
X146421693Y-89930810D01*
%TO.C,C14*%
X158469190Y-95721693D02*
X158621693Y-95569190D01*
X158978307Y-96230810D02*
X159130810Y-96078307D01*
D12*
%TO.C,SW2*%
X130700000Y-108700000D02*
X135200000Y-108700000D01*
X135200000Y-108700000D02*
X135200000Y-111700000D01*
X135200000Y-111700000D02*
X130700000Y-111700000D01*
X130700000Y-111700000D02*
X130700000Y-108700000D01*
D11*
%TO.C,U2*%
X151410000Y-112400000D02*
X151410000Y-118410000D01*
X144590000Y-114650000D02*
X144590000Y-118410000D01*
X151410000Y-118410000D02*
X150150000Y-118410000D01*
X144590000Y-118410000D02*
X145850000Y-118410000D01*
%TO.C,D2*%
X152535000Y-103615000D02*
X151065000Y-103615000D01*
X151065000Y-103615000D02*
X151065000Y-105900000D01*
X152535000Y-105900000D02*
X152535000Y-103615000D01*
%TO.C,R9*%
X160560060Y-87222659D02*
X160777341Y-87439940D01*
X160022659Y-87760060D02*
X160239940Y-87977341D01*
%TO.C,C2*%
X149092164Y-111140000D02*
X149307836Y-111140000D01*
X149092164Y-111860000D02*
X149307836Y-111860000D01*
%TO.C,C7*%
X142007836Y-97460000D02*
X141792164Y-97460000D01*
X142007836Y-96740000D02*
X141792164Y-96740000D01*
%TO.C,R7*%
X149560060Y-92322659D02*
X149777341Y-92539940D01*
X149022659Y-92860060D02*
X149239940Y-93077341D01*
%TO.C,C13*%
X161092164Y-94540000D02*
X161307836Y-94540000D01*
X161092164Y-95260000D02*
X161307836Y-95260000D01*
%TO.C,R13*%
X141453641Y-84080000D02*
X141146359Y-84080000D01*
X141453641Y-83320000D02*
X141146359Y-83320000D01*
%TO.C,R14*%
X139410000Y-102672936D02*
X139410000Y-104127064D01*
X137590000Y-102672936D02*
X137590000Y-104127064D01*
%TO.C,R2*%
X161353641Y-100180000D02*
X161046359Y-100180000D01*
X161353641Y-99420000D02*
X161046359Y-99420000D01*
%TO.C,J3*%
X151440000Y-114040000D02*
X151440000Y-121860000D01*
X151440000Y-115640000D02*
X152360000Y-115640000D01*
X151440000Y-121860000D02*
X161560000Y-121860000D01*
X152200000Y-118000000D02*
X152200000Y-119600000D01*
X152200000Y-119600000D02*
X153200000Y-119600000D01*
X152360000Y-114040000D02*
X151440000Y-114040000D01*
X152360000Y-115640000D02*
X152360000Y-114040000D01*
X152640000Y-115640000D02*
X152360000Y-115640000D01*
X152640000Y-115640000D02*
X152640000Y-114425000D01*
X152700000Y-119600000D02*
X152700000Y-121860000D01*
X153200000Y-118000000D02*
X152200000Y-118000000D01*
X153200000Y-119600000D02*
X153200000Y-118000000D01*
X153200000Y-119600000D02*
X153200000Y-121860000D01*
X154000000Y-117500000D02*
X159000000Y-117500000D01*
X154000000Y-121860000D02*
X154000000Y-117500000D01*
X159000000Y-117500000D02*
X159000000Y-121860000D01*
X159800000Y-118000000D02*
X160800000Y-118000000D01*
X159800000Y-119600000D02*
X159800000Y-118000000D01*
X160640000Y-114040000D02*
X160640000Y-115640000D01*
X160640000Y-115640000D02*
X160360000Y-115640000D01*
X160800000Y-118000000D02*
X160800000Y-119600000D01*
X160800000Y-119600000D02*
X159800000Y-119600000D01*
X161560000Y-114040000D02*
X160640000Y-114040000D01*
X161560000Y-115640000D02*
X160640000Y-115640000D01*
X161560000Y-121860000D02*
X161560000Y-114040000D01*
%TO.C,J5*%
X162670000Y-91340000D02*
X163430000Y-91340000D01*
X162670000Y-92100000D02*
X162670000Y-91340000D01*
X165140000Y-91405000D02*
X166260000Y-91405000D01*
X165140000Y-91480323D02*
X165140000Y-91405000D01*
X165140000Y-92719677D02*
X165140000Y-92750323D01*
X165140000Y-92735000D02*
X166260000Y-92735000D01*
X165140000Y-93989677D02*
X165140000Y-94020323D01*
X165140000Y-94005000D02*
X166260000Y-94005000D01*
X165140000Y-95259677D02*
X165140000Y-95290323D01*
X165140000Y-95275000D02*
X166260000Y-95275000D01*
X165140000Y-96529677D02*
X165140000Y-96560323D01*
X165140000Y-96545000D02*
X166260000Y-96545000D01*
X165140000Y-97875000D02*
X165140000Y-97799677D01*
X166260000Y-91405000D02*
X166260000Y-97875000D01*
X166260000Y-91840000D02*
X170260000Y-91840000D01*
X166260000Y-91900000D02*
X170260000Y-91900000D01*
X166260000Y-92020000D02*
X170260000Y-92020000D01*
X166260000Y-92140000D02*
X170260000Y-92140000D01*
X166260000Y-92260000D02*
X170260000Y-92260000D01*
X166260000Y-93110000D02*
X170260000Y-93110000D01*
X166260000Y-94380000D02*
X170260000Y-94380000D01*
X166260000Y-95650000D02*
X170260000Y-95650000D01*
X166260000Y-96920000D02*
X170260000Y-96920000D01*
X166260000Y-97875000D02*
X165140000Y-97875000D01*
X170260000Y-91840000D02*
X170260000Y-92360000D01*
X170260000Y-92360000D02*
X166260000Y-92360000D01*
X170260000Y-93110000D02*
X170260000Y-93630000D01*
X170260000Y-93630000D02*
X166260000Y-93630000D01*
X170260000Y-94380000D02*
X170260000Y-94900000D01*
X170260000Y-94900000D02*
X166260000Y-94900000D01*
X170260000Y-95650000D02*
X170260000Y-96170000D01*
X170260000Y-96170000D02*
X166260000Y-96170000D01*
X170260000Y-96920000D02*
X170260000Y-97440000D01*
X170260000Y-97440000D02*
X166260000Y-97440000D01*
D12*
X165830000Y-88350000D02*
X170830000Y-88350000D01*
X170830000Y-88350000D02*
X170830000Y-101050000D01*
X170830000Y-101050000D02*
X165830000Y-101050000D01*
X165830000Y-101050000D02*
X165830000Y-88350000D01*
D11*
%TO.C,J1*%
X166350000Y-111080000D02*
X168270000Y-111080000D01*
X171985000Y-111080000D02*
X170280000Y-111080000D01*
X168270000Y-101920000D02*
X166350000Y-101920000D01*
X170280000Y-101920000D02*
X171985000Y-101920000D01*
X171985000Y-101920000D02*
X171985000Y-111080000D01*
%TD*%
%LPC*%
D13*
%TO.C,C6*%
X146700000Y-105080000D03*
X146700000Y-104120000D03*
%TD*%
D14*
%TO.C,C3*%
X160720000Y-97400000D03*
X161680000Y-97400000D03*
%TD*%
D15*
%TO.C,R6*%
X160690000Y-96100000D03*
X161710000Y-96100000D03*
%TD*%
D16*
%TO.C,R10*%
X147200000Y-108990000D03*
X147200000Y-110010000D03*
%TD*%
D14*
%TO.C,C1*%
X146040000Y-111500000D03*
X147000000Y-111500000D03*
%TD*%
D17*
%TO.C,D4*%
X158300000Y-104312500D03*
X158300000Y-105887500D03*
%TD*%
D18*
%TO.C,U3*%
X159437723Y-90763864D03*
X159084170Y-90410311D03*
X158730616Y-90056757D03*
X158377063Y-89703204D03*
X158023510Y-89349651D03*
X157669956Y-88996097D03*
X157316403Y-88642544D03*
X156962849Y-88288990D03*
X156609296Y-87935437D03*
X156255743Y-87581884D03*
X155902189Y-87228330D03*
X155548636Y-86874777D03*
D19*
X154576364Y-86874777D03*
X154222811Y-87228330D03*
X153869257Y-87581884D03*
X153515704Y-87935437D03*
X153162151Y-88288990D03*
X152808597Y-88642544D03*
X152455044Y-88996097D03*
X152101490Y-89349651D03*
X151747937Y-89703204D03*
X151394384Y-90056757D03*
X151040830Y-90410311D03*
X150687277Y-90763864D03*
D18*
X150687277Y-91736136D03*
X151040830Y-92089689D03*
X151394384Y-92443243D03*
X151747937Y-92796796D03*
X152101490Y-93150349D03*
X152455044Y-93503903D03*
X152808597Y-93857456D03*
X153162151Y-94211010D03*
X153515704Y-94564563D03*
X153869257Y-94918116D03*
X154222811Y-95271670D03*
X154576364Y-95625223D03*
D19*
X155548636Y-95625223D03*
X155902189Y-95271670D03*
X156255743Y-94918116D03*
X156609296Y-94564563D03*
X156962849Y-94211010D03*
X157316403Y-93857456D03*
X157669956Y-93503903D03*
X158023510Y-93150349D03*
X158377063Y-92796796D03*
X158730616Y-92443243D03*
X159084170Y-92089689D03*
X159437723Y-91736136D03*
D20*
X155062500Y-91250000D03*
%TD*%
D21*
%TO.C,J4*%
X140200000Y-115500000D03*
D22*
X142200000Y-115500000D03*
%TD*%
D23*
%TO.C,R11*%
X140200000Y-87110000D03*
X140200000Y-86090000D03*
%TD*%
D17*
%TO.C,D5*%
X148800000Y-108612500D03*
X148800000Y-110187500D03*
%TD*%
D14*
%TO.C,C5*%
X150020000Y-101500000D03*
X150980000Y-101500000D03*
%TD*%
D24*
%TO.C,J6*%
X131200000Y-89960000D03*
D25*
X131200000Y-92500000D03*
X133740000Y-89960000D03*
X133740000Y-92500000D03*
X136280000Y-89960000D03*
X136280000Y-92500000D03*
X138820000Y-89960000D03*
X138820000Y-92500000D03*
X141360000Y-89960000D03*
X141360000Y-92500000D03*
%TD*%
D26*
%TO.C,H1*%
X165500000Y-115500000D03*
%TD*%
D27*
%TO.C,R15*%
X138500000Y-98062500D03*
X138500000Y-95137500D03*
%TD*%
D15*
%TO.C,R4*%
X160690000Y-93800000D03*
X161710000Y-93800000D03*
%TD*%
D28*
%TO.C,C9*%
X142350000Y-95600000D03*
X140450000Y-95600000D03*
%TD*%
D13*
%TO.C,C4*%
X145300000Y-105080000D03*
X145300000Y-104120000D03*
%TD*%
D15*
%TO.C,R5*%
X160690000Y-98600000D03*
X161710000Y-98600000D03*
%TD*%
D29*
%TO.C,U4*%
X144450000Y-102450000D03*
X144950000Y-102450000D03*
X145450000Y-102450000D03*
X145950000Y-102450000D03*
X146450000Y-102450000D03*
X146950000Y-102450000D03*
X147450000Y-102450000D03*
D30*
X148400000Y-101500000D03*
X148400000Y-101000000D03*
X148400000Y-100500000D03*
X148400000Y-100000000D03*
X148400000Y-99500000D03*
X148400000Y-99000000D03*
X148400000Y-98500000D03*
D29*
X147450000Y-97550000D03*
X146950000Y-97550000D03*
X146450000Y-97550000D03*
X145950000Y-97550000D03*
X145450000Y-97550000D03*
X144950000Y-97550000D03*
X144450000Y-97550000D03*
D30*
X143500000Y-98500000D03*
X143500000Y-99000000D03*
X143500000Y-99500000D03*
X143500000Y-100000000D03*
X143500000Y-100500000D03*
X143500000Y-101000000D03*
X143500000Y-101500000D03*
D31*
X145950000Y-100000000D03*
%TD*%
D32*
%TO.C,R3*%
X161710000Y-101000000D03*
X160690000Y-101000000D03*
%TD*%
D33*
%TO.C,C8*%
X142380000Y-102900000D03*
X141420000Y-102900000D03*
%TD*%
D15*
%TO.C,R12*%
X144090000Y-83700000D03*
X145110000Y-83700000D03*
%TD*%
D34*
%TO.C,C12*%
X159160589Y-88160589D03*
X159839411Y-88839411D03*
%TD*%
D35*
%TO.C,J2*%
X134450000Y-97000000D03*
D36*
X134450000Y-99000000D03*
X134450000Y-101000000D03*
X134450000Y-103000000D03*
%TD*%
D17*
%TO.C,D3*%
X154100000Y-104312500D03*
X154100000Y-105887500D03*
%TD*%
D37*
%TO.C,Y1*%
X148476256Y-89513693D03*
X149713693Y-88276256D03*
X148723744Y-87286307D03*
X147486307Y-88523744D03*
%TD*%
D15*
%TO.C,R8*%
X144890000Y-95700000D03*
X145910000Y-95700000D03*
%TD*%
D26*
%TO.C,H4*%
X165500000Y-84500000D03*
%TD*%
D38*
%TO.C,C15*%
X152339411Y-86960589D03*
X151660589Y-87639411D03*
%TD*%
D39*
%TO.C,C11*%
X143800000Y-109000000D03*
X138200000Y-109000000D03*
%TD*%
D34*
%TO.C,C17*%
X149500000Y-86100000D03*
X150178822Y-86778822D03*
%TD*%
D15*
%TO.C,R1*%
X160690000Y-102200000D03*
X161710000Y-102200000D03*
%TD*%
D17*
%TO.C,D6*%
X156000000Y-104312500D03*
X156000000Y-105887500D03*
%TD*%
D40*
%TO.C,C16*%
X157660589Y-95439411D03*
X158339411Y-94760589D03*
%TD*%
D41*
%TO.C,D7*%
X155350000Y-108450000D03*
X155350000Y-111750000D03*
X160250000Y-111750000D03*
X160250000Y-108450000D03*
%TD*%
D28*
%TO.C,C10*%
X142350000Y-104400000D03*
X140450000Y-104400000D03*
%TD*%
D42*
%TO.C,D1*%
X160500000Y-105950000D03*
X160500000Y-103850000D03*
%TD*%
D43*
%TO.C,SW1*%
X134600000Y-107900000D03*
X131400000Y-107900000D03*
X134600000Y-106300000D03*
X131400000Y-106300000D03*
%TD*%
D44*
%TO.C,U5*%
X141475000Y-84825000D03*
X141475000Y-85325000D03*
X141475000Y-85825000D03*
X141475000Y-86325000D03*
X144375000Y-86325000D03*
X144375000Y-85825000D03*
X144375000Y-85325000D03*
X144375000Y-84825000D03*
D45*
X142925000Y-85575000D03*
%TD*%
D34*
%TO.C,C18*%
X146260589Y-89260589D03*
X146939411Y-89939411D03*
%TD*%
D40*
%TO.C,C14*%
X158460589Y-96239411D03*
X159139411Y-95560589D03*
%TD*%
D43*
%TO.C,SW2*%
X131300000Y-109400000D03*
X134500000Y-109400000D03*
X131300000Y-111000000D03*
X134500000Y-111000000D03*
%TD*%
D46*
%TO.C,U2*%
X150300000Y-113350000D03*
X148000000Y-113350000D03*
D47*
X148000000Y-119650000D03*
D46*
X145700000Y-113350000D03*
%TD*%
D17*
%TO.C,D2*%
X151800000Y-104312500D03*
X151800000Y-105887500D03*
%TD*%
D48*
%TO.C,R9*%
X160039376Y-87239376D03*
X160760624Y-87960624D03*
%TD*%
D14*
%TO.C,C2*%
X148720000Y-111500000D03*
X149680000Y-111500000D03*
%TD*%
D33*
%TO.C,C7*%
X142380000Y-97100000D03*
X141420000Y-97100000D03*
%TD*%
D48*
%TO.C,R7*%
X149039376Y-92339376D03*
X149760624Y-93060624D03*
%TD*%
D26*
%TO.C,H3*%
X134500000Y-84500000D03*
%TD*%
D14*
%TO.C,C13*%
X160720000Y-94900000D03*
X161680000Y-94900000D03*
%TD*%
D32*
%TO.C,R13*%
X141810000Y-83700000D03*
X140790000Y-83700000D03*
%TD*%
D49*
%TO.C,R14*%
X138500000Y-101937500D03*
X138500000Y-104862500D03*
%TD*%
D32*
%TO.C,R2*%
X161710000Y-99800000D03*
X160690000Y-99800000D03*
%TD*%
D21*
%TO.C,J3*%
X153500000Y-115500000D03*
D22*
X155500000Y-115500000D03*
X157500000Y-115500000D03*
X159500000Y-115500000D03*
%TD*%
D50*
%TO.C,J5*%
X163430000Y-92100000D03*
D51*
X164700000Y-92100000D03*
X163430000Y-93370000D03*
X164700000Y-93370000D03*
X163430000Y-94640000D03*
X164700000Y-94640000D03*
X163430000Y-95910000D03*
X164700000Y-95910000D03*
X163430000Y-97180000D03*
X164700000Y-97180000D03*
%TD*%
D26*
%TO.C,H2*%
X134500000Y-115500000D03*
%TD*%
D52*
%TO.C,J1*%
X165595000Y-109390000D03*
X165595000Y-103610000D03*
D53*
X164475000Y-109700000D03*
X164475000Y-108900000D03*
D54*
X164475000Y-107750000D03*
X164475000Y-106750000D03*
X164475000Y-106250000D03*
X164475000Y-105250000D03*
D53*
X164475000Y-104100000D03*
X164475000Y-103300000D03*
X164475000Y-103300000D03*
X164475000Y-104100000D03*
D54*
X164475000Y-104750000D03*
X164475000Y-105750000D03*
X164475000Y-107250000D03*
X164475000Y-108250000D03*
D53*
X164475000Y-108900000D03*
X164475000Y-109700000D03*
D55*
X165075000Y-110820000D03*
D56*
X169275000Y-110820000D03*
D55*
X165075000Y-102180000D03*
D56*
X169275000Y-102180000D03*
%TD*%
%LPD*%
M02*
