M48
; DRILL file {KiCad 7.0.6} date Thu Feb 29 21:09:00 2024
; FORMAT={-:-/ absolute / inch / decimal}
; #@! TF.CreationDate,2024-02-29T21:09:00-05:00
; #@! TF.GenerationSoftware,Kicad,Pcbnew,7.0.6
; #@! TF.FileFunction,Plated,1,4,PTH
FMAT,2
INCH
; #@! TA.AperFunction,Plated,PTH,ViaDrill
T1C0.0059
; #@! TA.AperFunction,Plated,PTH,ComponentDrill
T2C0.0079
; #@! TA.AperFunction,Plated,PTH,ViaDrill
T3C0.0138
; #@! TA.AperFunction,Plated,PTH,ViaDrill
T4C0.0157
; #@! TA.AperFunction,Plated,PTH,ComponentDrill
T5C0.0236
; #@! TA.AperFunction,Plated,PTH,ComponentDrill
T6C0.0256
; #@! TA.AperFunction,Plated,PTH,ComponentDrill
T7C0.0295
; #@! TA.AperFunction,Plated,PTH,ComponentDrill
T8C0.0394
%
G90
G05
T1
X5.6398Y-3.8091
X5.6398Y-3.8287
X5.6398Y-4.0453
X5.6398Y-4.065
X5.6594Y-3.8189
X5.6594Y-3.8386
X5.6594Y-4.0354
X5.6594Y-4.0551
T2
X5.7067Y-3.8976
X5.7067Y-3.937
X5.7067Y-3.9764
X5.7461Y-3.8976
X5.7461Y-3.937
X5.7461Y-3.9764
X5.7854Y-3.8976
X5.7854Y-3.937
X5.7854Y-3.9764
T3
X5.2402Y-4.248
X5.3346Y-4.3701
X5.3425Y-4.2559
X5.3898Y-3.748
X5.3898Y-3.7795
X5.3905Y-4.0933
X5.3905Y-4.1248
X5.4016Y-3.8071
X5.4023Y-4.0658
X5.4213Y-4.3701
X5.4331Y-3.8071
X5.4338Y-4.0658
X5.4409Y-4.3976
X5.4606Y-4.3701
X5.4646Y-3.8071
X5.4653Y-4.0658
X5.4803Y-4.3976
X5.5Y-4.3701
X5.5197Y-4.3976
X5.5275Y-3.3346
X5.6024Y-4.1575
X5.6024Y-4.189
X5.6024Y-4.2205
X5.6102Y-3.4449
X5.6339Y-4.1575
X5.6339Y-4.189
X5.6339Y-4.2205
X5.6378Y-3.6693
X5.6378Y-3.7008
X5.6614Y-3.437
X5.6654Y-3.6535
X5.6654Y-3.685
X5.6654Y-3.7165
X5.7244Y-3.7323
X5.7244Y-3.7323
X5.7323Y-3.5433
X5.7711Y-3.4273
X5.7874Y-4.3583
X5.7913Y-3.2677
X5.7953Y-4.5433
X5.811Y-4.5709
X5.815Y-4.1142
X5.8228Y-3.6772
X5.8268Y-4.5433
X5.8268Y-4.5984
X5.8307Y-3.5945
X5.8307Y-3.8504
X5.8307Y-4.0315
X5.839Y-3.7248
X5.8425Y-4.5709
X5.8534Y-3.8232
X5.8583Y-4.5984
X5.8937Y-3.3464
X5.8976Y-4.0394
X5.8976Y-4.0394
X5.9016Y-3.7992
X5.9055Y-4.5315
X5.9213Y-4.5591
X5.937Y-4.5315
X5.937Y-4.5866
X5.9409Y-3.5039
X5.9409Y-4.1378
X5.9449Y-3.2835
X5.9528Y-4.5591
X5.9685Y-4.5866
X5.9856Y-3.3712
X5.9862Y-4.4547
X6.0029Y-3.9065
X6.0039Y-3.9764
X6.0079Y-4.0591
X6.0213Y-3.3717
X6.0394Y-3.9213
X6.0433Y-4.063
X6.0709Y-3.8228
X6.0748Y-3.3504
X6.0903Y-3.8541
X6.1024Y-4.1339
X6.1063Y-4.2165
X6.1102Y-4.0236
X6.1181Y-3.3465
X6.126Y-3.8622
X6.1299Y-4.3346
X6.1535Y-3.8268
X6.2008Y-3.2559
X6.2008Y-3.9606
X6.2087Y-3.878
X6.2396Y-3.4377
X6.2396Y-3.4022
X6.2632Y-4.1382
X6.2634Y-3.8347
X6.2795Y-3.7953
X6.2953Y-3.6969
X6.2953Y-4.3346
X6.3346Y-3.3386
X6.35Y-3.6296
X6.3504Y-4.248
X6.3622Y-3.3701
X6.3819Y-3.5
X6.3819Y-4.1457
X6.3862Y-3.5512
X6.4016Y-3.874
X6.4134Y-4.0551
X6.4252Y-4.3346
T4
X5.4803Y-3.4016
X5.6275Y-3.2961
T6
X6.4343Y-3.626
X6.4343Y-3.676
X6.4343Y-3.726
X6.4343Y-3.776
X6.4343Y-3.826
X6.4843Y-3.626
X6.4843Y-3.676
X6.4843Y-3.726
X6.4843Y-3.776
X6.4843Y-3.826
T7
X5.2933Y-3.8189
X5.2933Y-3.8976
X5.2933Y-3.9764
X5.2933Y-4.0551
X5.5197Y-4.5472
X5.5984Y-4.5472
X6.0433Y-4.5472
X6.122Y-4.5472
X6.2008Y-4.5472
X6.2795Y-4.5472
T8
X5.1654Y-3.5417
X5.1654Y-3.6417
X5.2654Y-3.5417
X5.2654Y-3.6417
X5.3654Y-3.5417
X5.3654Y-3.6417
X5.4654Y-3.5417
X5.4654Y-3.6417
X5.5654Y-3.5417
X5.5654Y-3.6417
T5
G00X6.4774Y-4.0228
M15
G01X6.5207Y-4.0228
M16
G05
G00X6.4774Y-4.363
M15
G01X6.5207Y-4.363
M16
G05
G00X6.6486Y-4.0228
M15
G01X6.6801Y-4.0228
M16
G05
G00X6.6486Y-4.363
M15
G01X6.6801Y-4.363
M16
G05
T0
M30
