M48
; DRILL file {KiCad 8.0.3} date 2024-10-19T15:47:34-0400
; FORMAT={-:-/ absolute / inch / decimal}
; #@! TF.CreationDate,2024-10-19T15:47:34-04:00
; #@! TF.GenerationSoftware,Kicad,Pcbnew,8.0.3
; #@! TF.FileFunction,Plated,1,4,PTH
FMAT,2
INCH
; #@! TA.AperFunction,Plated,PTH,ViaDrill
T1C0.0059
; #@! TA.AperFunction,Plated,PTH,ComponentDrill
T2C0.0079
; #@! TA.AperFunction,Plated,PTH,ViaDrill
T3C0.0138
; #@! TA.AperFunction,Plated,PTH,ViaDrill
T4C0.0157
; #@! TA.AperFunction,Plated,PTH,ComponentDrill
T5C0.0236
; #@! TA.AperFunction,Plated,PTH,ComponentDrill
T6C0.0295
; #@! TA.AperFunction,Plated,PTH,ComponentDrill
T7C0.1260
%
G90
G05
T1
X5.5472Y-4.0197
X5.5472Y-4.0433
X5.5472Y-3.7677
X5.5472Y-3.7913
X5.5669Y-4.0315
X5.5669Y-4.0551
X5.5669Y-3.7579
X5.5669Y-3.7795
T2
X5.5901Y-3.8661
X5.5901Y-3.9055
X5.5901Y-3.9449
X5.6294Y-3.8661
X5.6294Y-3.9055
X5.6294Y-3.9449
X5.6688Y-3.8661
X5.6688Y-3.9055
X5.6688Y-3.9449
T3
X5.1181Y-3.3071
X5.1181Y-3.3858
X5.1181Y-3.4646
X5.1181Y-3.5472
X5.1181Y-3.626
X5.1181Y-3.7795
X5.1181Y-3.8583
X5.1181Y-3.937
X5.1181Y-4.0157
X5.1181Y-4.1732
X5.1181Y-4.252
X5.1181Y-4.3307
X5.1181Y-4.4882
X5.1181Y-4.5669
X5.2756Y-3.1496
X5.2756Y-4.7244
X5.3543Y-3.1496
X5.3543Y-4.7244
X5.3898Y-4.185
X5.4016Y-3.5787
X5.4094Y-4.2126
X5.4291Y-4.185
X5.4331Y-3.1496
X5.4331Y-3.4213
X5.4331Y-4.7244
X5.437Y-4.4134
X5.4449Y-3.5787
X5.4488Y-4.2126
X5.4567Y-3.626
X5.4685Y-4.185
X5.4882Y-4.2126
X5.5118Y-3.1496
X5.5374Y-4.1654
X5.5374Y-4.1988
X5.5394Y-3.6102
X5.5394Y-3.6437
X5.5394Y-4.6535
X5.5433Y-4.5472
X5.5591Y-4.685
X5.563Y-4.5787
X5.5728Y-4.1654
X5.5728Y-4.1988
X5.5748Y-3.6102
X5.5748Y-3.6437
X5.5787Y-4.6535
X5.5827Y-4.5472
X5.5827Y-4.6102
X5.5906Y-3.1496
X5.5945Y-4.685
X5.6024Y-4.5787
X5.6048Y-4.0512
X5.622Y-4.5472
X5.6299Y-4.685
X5.6535Y-3.2402
X5.6535Y-3.2756
X5.6535Y-3.311
X5.6654Y-3.6142
X5.6654Y-3.7362
X5.6693Y-3.1496
X5.6929Y-3.4646
X5.7126Y-3.6232
X5.7165Y-4.2205
X5.7205Y-4.1527
X5.7283Y-3.811
X5.7323Y-3.4685
X5.748Y-3.1496
X5.772Y-4.1016
X5.7795Y-3.5079
X5.8143Y-3.9137
X5.815Y-3.7205
X5.8177Y-4.0764
X5.8231Y-4.3819
X5.8268Y-3.1496
X5.8898Y-4.5866
X5.9055Y-3.1496
X5.9055Y-4.7244
X5.9094Y-4.4764
X5.9409Y-3.4921
X5.9606Y-3.5748
X5.9843Y-3.1496
X5.9843Y-4.7244
X6.0079Y-3.9016
X6.0079Y-3.937
X6.0154Y-3.9917
X6.0512Y-3.9921
X6.063Y-3.1496
X6.0906Y-4.1417
X6.0945Y-4.4213
X6.1417Y-3.1496
X6.1417Y-4.5079
X6.1535Y-3.6378
X6.1654Y-3.2402
X6.1654Y-3.2756
X6.1654Y-3.311
X6.1811Y-3.7913
X6.185Y-4.2815
X6.2175Y-3.8307
X6.2205Y-3.1496
X6.2205Y-4.7244
X6.2559Y-4.2717
X6.2756Y-3.8622
X6.2981Y-3.6339
X6.2992Y-3.1496
X6.2992Y-4.2677
X6.2992Y-4.7244
X6.3346Y-3.6339
X6.3414Y-3.9538
X6.3682Y-3.726
X6.3701Y-4.3819
X6.378Y-3.1496
X6.4016Y-3.8189
X6.4016Y-3.9685
X6.4409Y-3.8819
X6.4528Y-4.3465
X6.4567Y-3.1496
X6.4587Y-3.9961
X6.4843Y-3.8819
X6.5157Y-3.6575
X6.5315Y-3.8819
X6.5354Y-3.1496
X6.5728Y-4.0
X6.6929Y-3.3465
X6.6929Y-3.4252
X6.6929Y-3.5039
X6.6929Y-3.5827
X6.6929Y-3.6614
X6.6929Y-3.7402
X6.6929Y-3.8189
X6.6929Y-3.8976
X6.6929Y-3.9764
X6.6929Y-4.1339
X6.6929Y-4.2126
X6.6929Y-4.2913
X6.6929Y-4.4488
X6.6929Y-4.5276
T4
X5.626Y-3.6811
X5.9134Y-4.2598
X6.0669Y-4.252
X6.5669Y-3.6378
T6
X5.2926Y-3.7886
X5.2926Y-3.8673
X5.2926Y-3.946
X5.2926Y-4.0248
X5.2933Y-4.2244
X5.2933Y-4.3031
T7
X5.2953Y-3.3268
X5.2953Y-4.5472
X6.5157Y-3.3268
X6.5157Y-4.5472
T5
G00X6.4939Y-4.0287
M15
G01X6.5372Y-4.0287
M16
G05
G00X6.4939Y-4.3689
M15
G01X6.5372Y-4.3689
M16
G05
G00X6.6644Y-4.0287
M15
G01X6.6959Y-4.0287
M16
G05
G00X6.6644Y-4.3689
M15
G01X6.6959Y-4.3689
M16
G05
M30
