%TF.GenerationSoftware,KiCad,Pcbnew,7.0.6*%
%TF.CreationDate,2024-02-29T21:08:59-05:00*%
%TF.ProjectId,Axis_Basic,41786973-5f42-4617-9369-632e6b696361,rev?*%
%TF.SameCoordinates,Original*%
%TF.FileFunction,Paste,Top*%
%TF.FilePolarity,Positive*%
%FSLAX46Y46*%
G04 Gerber Fmt 4.6, Leading zero omitted, Abs format (unit mm)*
G04 Created by KiCad (PCBNEW 7.0.6) date 2024-02-29 21:08:59*
%MOMM*%
%LPD*%
G01*
G04 APERTURE LIST*
G04 Aperture macros list*
%AMRoundRect*
0 Rectangle with rounded corners*
0 $1 Rounding radius*
0 $2 $3 $4 $5 $6 $7 $8 $9 X,Y pos of 4 corners*
0 Add a 4 corners polygon primitive as box body*
4,1,4,$2,$3,$4,$5,$6,$7,$8,$9,$2,$3,0*
0 Add four circle primitives for the rounded corners*
1,1,$1+$1,$2,$3*
1,1,$1+$1,$4,$5*
1,1,$1+$1,$6,$7*
1,1,$1+$1,$8,$9*
0 Add four rect primitives between the rounded corners*
20,1,$1+$1,$2,$3,$4,$5,0*
20,1,$1+$1,$4,$5,$6,$7,0*
20,1,$1+$1,$6,$7,$8,$9,0*
20,1,$1+$1,$8,$9,$2,$3,0*%
%AMRotRect*
0 Rectangle, with rotation*
0 The origin of the aperture is its center*
0 $1 length*
0 $2 width*
0 $3 Rotation angle, in degrees counterclockwise*
0 Add horizontal line*
21,1,$1,$2,0,0,$3*%
%AMFreePoly0*
4,1,48,0.180784,0.266839,0.197812,0.266839,0.211588,0.256830,0.227783,0.251568,0.237791,0.237791,0.251568,0.227783,0.256830,0.211588,0.266839,0.197812,0.266839,0.180783,0.272101,0.164589,0.272101,-0.075523,0.269420,-0.083774,0.270777,-0.092342,0.259348,-0.114772,0.251568,-0.138717,0.244549,-0.143816,0.240611,-0.151546,0.151545,-0.240611,0.143816,-0.244548,0.138717,-0.251568,
0.114771,-0.259348,0.092342,-0.270777,0.083774,-0.269420,0.075523,-0.272101,-0.164589,-0.272101,-0.180784,-0.266839,-0.197812,-0.266839,-0.211588,-0.256830,-0.227783,-0.251568,-0.237791,-0.237791,-0.251568,-0.227783,-0.256830,-0.211588,-0.266839,-0.197812,-0.266839,-0.180783,-0.272101,-0.164589,-0.272101,0.164589,-0.266839,0.180783,-0.266839,0.197812,-0.256830,0.211588,-0.251568,0.227783,
-0.237791,0.237791,-0.227783,0.251568,-0.211588,0.256830,-0.197812,0.266839,-0.180784,0.266839,-0.164589,0.272101,0.164589,0.272101,0.180784,0.266839,0.180784,0.266839,$1*%
%AMFreePoly1*
4,1,51,0.121446,0.402192,0.123663,0.402787,0.127059,0.401203,0.145390,0.397971,0.159646,0.386008,0.176512,0.378144,0.247132,0.307525,0.250167,0.303189,0.252157,0.302041,0.253439,0.298517,0.264114,0.283273,0.265735,0.264733,0.272101,0.247246,0.272101,-0.247246,0.271181,-0.252459,0.271776,-0.254677,0.270191,-0.258074,0.266960,-0.276402,0.254996,-0.290658,0.247132,-0.307525,
0.176512,-0.378144,0.172177,-0.381179,0.171029,-0.383168,0.167504,-0.384450,0.152260,-0.395125,0.133722,-0.396746,0.116234,-0.403112,-0.186855,-0.403112,-0.197928,-0.401159,-0.201658,-0.401817,-0.204937,-0.399923,-0.216011,-0.397971,-0.232977,-0.383734,-0.252157,-0.372661,-0.254787,-0.365433,-0.260680,-0.360489,-0.264525,-0.338677,-0.272101,-0.317866,-0.272101,0.317866,-0.270148,0.328939,
-0.270806,0.332669,-0.268912,0.335948,-0.266960,0.347022,-0.252723,0.363988,-0.241650,0.383168,-0.234422,0.385798,-0.229478,0.391691,-0.207666,0.395536,-0.186855,0.403112,0.116234,0.403112,0.121446,0.402192,0.121446,0.402192,$1*%
%AMFreePoly2*
4,1,48,0.083774,0.269420,0.092342,0.270777,0.114771,0.259348,0.138717,0.251568,0.143816,0.244548,0.151545,0.240611,0.240611,0.151546,0.244549,0.143816,0.251568,0.138717,0.259348,0.114772,0.270777,0.092342,0.269420,0.083774,0.272101,0.075523,0.272101,-0.164589,0.266839,-0.180783,0.266839,-0.197812,0.256830,-0.211588,0.251568,-0.227783,0.237791,-0.237791,0.227783,-0.251568,
0.211588,-0.256830,0.197812,-0.266839,0.180784,-0.266839,0.164589,-0.272101,-0.164589,-0.272101,-0.180784,-0.266839,-0.197812,-0.266839,-0.211588,-0.256830,-0.227783,-0.251568,-0.237791,-0.237791,-0.251568,-0.227783,-0.256830,-0.211588,-0.266839,-0.197812,-0.266839,-0.180783,-0.272101,-0.164589,-0.272101,0.164589,-0.266839,0.180783,-0.266839,0.197812,-0.256830,0.211588,-0.251568,0.227783,
-0.237791,0.237791,-0.227783,0.251568,-0.211588,0.256830,-0.197812,0.266839,-0.180784,0.266839,-0.164589,0.272101,0.075523,0.272101,0.083774,0.269420,0.083774,0.269420,$1*%
%AMFreePoly3*
4,1,51,0.328939,0.270148,0.332669,0.270806,0.335948,0.268912,0.347022,0.266960,0.363988,0.252723,0.383168,0.241650,0.385798,0.234422,0.391691,0.229478,0.395536,0.207666,0.403112,0.186855,0.403112,-0.116234,0.402192,-0.121446,0.402787,-0.123663,0.401203,-0.127059,0.397971,-0.145390,0.386008,-0.159646,0.378144,-0.176512,0.307524,-0.247133,0.303189,-0.250168,0.302041,-0.252157,
0.298517,-0.253439,0.283273,-0.264114,0.264733,-0.265735,0.247246,-0.272101,-0.247246,-0.272101,-0.252459,-0.271181,-0.254677,-0.271776,-0.258074,-0.270191,-0.276402,-0.266960,-0.290658,-0.254996,-0.307525,-0.247132,-0.378144,-0.176512,-0.381179,-0.172177,-0.383168,-0.171029,-0.384450,-0.167504,-0.395125,-0.152260,-0.396746,-0.133722,-0.403112,-0.116234,-0.403112,0.186855,-0.401159,0.197928,
-0.401817,0.201658,-0.399923,0.204937,-0.397971,0.216011,-0.383734,0.232977,-0.372661,0.252157,-0.365433,0.254787,-0.360489,0.260680,-0.338677,0.264525,-0.317866,0.272101,0.317866,0.272101,0.328939,0.270148,0.328939,0.270148,$1*%
%AMFreePoly4*
4,1,51,0.252458,0.271181,0.254676,0.271776,0.258073,0.270191,0.276402,0.266960,0.290658,0.254997,0.307524,0.247133,0.378144,0.176512,0.381179,0.172177,0.383168,0.171029,0.384450,0.167504,0.395125,0.152260,0.396746,0.133721,0.403112,0.116234,0.403112,-0.186855,0.401159,-0.197928,0.401817,-0.201658,0.399923,-0.204937,0.397971,-0.216011,0.383734,-0.232977,0.372661,-0.252157,
0.365433,-0.254787,0.360489,-0.260680,0.338677,-0.264525,0.317866,-0.272101,-0.317866,-0.272101,-0.328939,-0.270148,-0.332669,-0.270806,-0.335948,-0.268912,-0.347022,-0.266960,-0.363988,-0.252723,-0.383168,-0.241650,-0.385798,-0.234422,-0.391691,-0.229478,-0.395536,-0.207666,-0.403112,-0.186855,-0.403112,0.116234,-0.402192,0.121446,-0.402787,0.123663,-0.401203,0.127059,-0.397971,0.145390,
-0.386008,0.159646,-0.378144,0.176512,-0.307525,0.247132,-0.303189,0.250167,-0.302041,0.252157,-0.298517,0.253439,-0.283273,0.264114,-0.264733,0.265735,-0.247246,0.272101,0.247246,0.272101,0.252458,0.271181,0.252458,0.271181,$1*%
%AMFreePoly5*
4,1,48,0.180784,0.266839,0.197812,0.266839,0.211588,0.256830,0.227783,0.251568,0.237791,0.237791,0.251568,0.227783,0.256830,0.211588,0.266839,0.197812,0.266839,0.180783,0.272101,0.164589,0.272101,-0.164589,0.266839,-0.180783,0.266839,-0.197812,0.256830,-0.211588,0.251568,-0.227783,0.237791,-0.237791,0.227783,-0.251568,0.211588,-0.256830,0.197812,-0.266839,0.180784,-0.266839,
0.164589,-0.272101,-0.075523,-0.272101,-0.083774,-0.269420,-0.092342,-0.270777,-0.114772,-0.259348,-0.138717,-0.251568,-0.143816,-0.244549,-0.151546,-0.240611,-0.240611,-0.151545,-0.244548,-0.143816,-0.251568,-0.138717,-0.259348,-0.114771,-0.270777,-0.092342,-0.269420,-0.083774,-0.272101,-0.075523,-0.272101,0.164589,-0.266839,0.180783,-0.266839,0.197812,-0.256830,0.211588,-0.251568,0.227783,
-0.237791,0.237791,-0.227783,0.251568,-0.211588,0.256830,-0.197812,0.266839,-0.180784,0.266839,-0.164589,0.272101,0.164589,0.272101,0.180784,0.266839,0.180784,0.266839,$1*%
%AMFreePoly6*
4,1,51,0.197928,0.401159,0.201658,0.401817,0.204937,0.399923,0.216011,0.397971,0.232977,0.383734,0.252157,0.372661,0.254787,0.365433,0.260680,0.360489,0.264525,0.338677,0.272101,0.317866,0.272101,-0.317866,0.270148,-0.328939,0.270806,-0.332669,0.268912,-0.335948,0.266960,-0.347022,0.252723,-0.363988,0.241650,-0.383168,0.234422,-0.385798,0.229478,-0.391691,0.207666,-0.395536,
0.186855,-0.403112,-0.116234,-0.403112,-0.121446,-0.402192,-0.123663,-0.402787,-0.127059,-0.401203,-0.145390,-0.397971,-0.159646,-0.386008,-0.176512,-0.378144,-0.247133,-0.307524,-0.250168,-0.303189,-0.252157,-0.302041,-0.253439,-0.298517,-0.264114,-0.283273,-0.265735,-0.264733,-0.272101,-0.247246,-0.272101,0.247246,-0.271181,0.252458,-0.271776,0.254676,-0.270191,0.258073,-0.266960,0.276402,
-0.254997,0.290658,-0.247133,0.307524,-0.176512,0.378144,-0.172177,0.381179,-0.171029,0.383168,-0.167504,0.384450,-0.152260,0.395125,-0.133721,0.396746,-0.116234,0.403112,0.186855,0.403112,0.197928,0.401159,0.197928,0.401159,$1*%
%AMFreePoly7*
4,1,48,0.180784,0.266839,0.197812,0.266839,0.211588,0.256830,0.227783,0.251568,0.237791,0.237791,0.251568,0.227783,0.256830,0.211588,0.266839,0.197812,0.266839,0.180783,0.272101,0.164589,0.272101,-0.164589,0.266839,-0.180783,0.266839,-0.197812,0.256830,-0.211588,0.251568,-0.227783,0.237791,-0.237791,0.227783,-0.251568,0.211588,-0.256830,0.197812,-0.266839,0.180784,-0.266839,
0.164589,-0.272101,-0.164589,-0.272101,-0.180784,-0.266839,-0.197812,-0.266839,-0.211588,-0.256830,-0.227783,-0.251568,-0.237791,-0.237791,-0.251568,-0.227783,-0.256830,-0.211588,-0.266839,-0.197812,-0.266839,-0.180783,-0.272101,-0.164589,-0.272101,0.075523,-0.269420,0.083774,-0.270777,0.092342,-0.259348,0.114771,-0.251568,0.138717,-0.244548,0.143816,-0.240611,0.151545,-0.151546,0.240611,
-0.143816,0.244549,-0.138717,0.251568,-0.114772,0.259348,-0.092342,0.270777,-0.083774,0.269420,-0.075523,0.272101,0.164589,0.272101,0.180784,0.266839,0.180784,0.266839,$1*%
G04 Aperture macros list end*
%ADD10RoundRect,0.140000X0.170000X-0.140000X0.170000X0.140000X-0.170000X0.140000X-0.170000X-0.140000X0*%
%ADD11RoundRect,0.140000X-0.140000X-0.170000X0.140000X-0.170000X0.140000X0.170000X-0.140000X0.170000X0*%
%ADD12RoundRect,0.135000X-0.135000X-0.185000X0.135000X-0.185000X0.135000X0.185000X-0.135000X0.185000X0*%
%ADD13RoundRect,0.135000X-0.185000X0.135000X-0.185000X-0.135000X0.185000X-0.135000X0.185000X0.135000X0*%
%ADD14RoundRect,0.218750X-0.256250X0.218750X-0.256250X-0.218750X0.256250X-0.218750X0.256250X0.218750X0*%
%ADD15RoundRect,0.249999X0.000000X1.117230X-1.117230X0.000000X0.000000X-1.117230X1.117230X0.000000X0*%
%ADD16RoundRect,0.062500X0.220971X0.309359X-0.309359X-0.220971X-0.220971X-0.309359X0.309359X0.220971X0*%
%ADD17RoundRect,0.062500X-0.220971X0.309359X-0.309359X0.220971X0.220971X-0.309359X0.309359X-0.220971X0*%
%ADD18RoundRect,0.135000X0.185000X-0.135000X0.185000X0.135000X-0.185000X0.135000X-0.185000X-0.135000X0*%
%ADD19RoundRect,0.250000X0.625000X-0.312500X0.625000X0.312500X-0.625000X0.312500X-0.625000X-0.312500X0*%
%ADD20RoundRect,0.250000X0.250000X0.475000X-0.250000X0.475000X-0.250000X-0.475000X0.250000X-0.475000X0*%
%ADD21FreePoly0,90.000000*%
%ADD22FreePoly1,90.000000*%
%ADD23FreePoly2,90.000000*%
%ADD24FreePoly3,90.000000*%
%ADD25RoundRect,0.201557X0.201556X-0.201556X0.201556X0.201556X-0.201556X0.201556X-0.201556X-0.201556X0*%
%ADD26FreePoly4,90.000000*%
%ADD27FreePoly5,90.000000*%
%ADD28FreePoly6,90.000000*%
%ADD29FreePoly7,90.000000*%
%ADD30RoundRect,0.062500X0.062500X-0.337500X0.062500X0.337500X-0.062500X0.337500X-0.062500X-0.337500X0*%
%ADD31RoundRect,0.062500X0.337500X-0.062500X0.337500X0.062500X-0.337500X0.062500X-0.337500X-0.062500X0*%
%ADD32RoundRect,0.135000X0.135000X0.185000X-0.135000X0.185000X-0.135000X-0.185000X0.135000X-0.185000X0*%
%ADD33RoundRect,0.140000X0.140000X0.170000X-0.140000X0.170000X-0.140000X-0.170000X0.140000X-0.170000X0*%
%ADD34RoundRect,0.140000X-0.219203X-0.021213X-0.021213X-0.219203X0.219203X0.021213X0.021213X0.219203X0*%
%ADD35RotRect,1.150000X1.000000X45.000000*%
%ADD36RoundRect,0.140000X-0.021213X0.219203X-0.219203X0.021213X0.021213X-0.219203X0.219203X-0.021213X0*%
%ADD37RoundRect,0.250000X1.500000X0.550000X-1.500000X0.550000X-1.500000X-0.550000X1.500000X-0.550000X0*%
%ADD38RoundRect,0.140000X0.021213X-0.219203X0.219203X-0.021213X-0.021213X0.219203X-0.219203X0.021213X0*%
%ADD39R,1.500000X0.900000*%
%ADD40RoundRect,0.112500X0.112500X-0.187500X0.112500X0.187500X-0.112500X0.187500X-0.112500X-0.187500X0*%
%ADD41R,0.700000X0.750000*%
%ADD42R,0.500000X0.600000*%
%ADD43R,0.750000X0.300000*%
%ADD44R,1.500000X2.000000*%
%ADD45R,3.800000X2.000000*%
%ADD46RoundRect,0.135000X-0.226274X-0.035355X-0.035355X-0.226274X0.226274X0.035355X0.035355X0.226274X0*%
%ADD47RoundRect,0.250000X-0.625000X0.312500X-0.625000X-0.312500X0.625000X-0.312500X0.625000X0.312500X0*%
%ADD48R,1.240000X0.600000*%
%ADD49R,1.240000X0.300000*%
G04 APERTURE END LIST*
D10*
%TO.C,C6*%
X146700000Y-105080000D03*
X146700000Y-104120000D03*
%TD*%
D11*
%TO.C,C3*%
X160720000Y-97400000D03*
X161680000Y-97400000D03*
%TD*%
D12*
%TO.C,R6*%
X160690000Y-96100000D03*
X161710000Y-96100000D03*
%TD*%
D13*
%TO.C,R10*%
X147200000Y-108990000D03*
X147200000Y-110010000D03*
%TD*%
D11*
%TO.C,C1*%
X146040000Y-111500000D03*
X147000000Y-111500000D03*
%TD*%
D14*
%TO.C,D4*%
X158300000Y-104312500D03*
X158300000Y-105887500D03*
%TD*%
D15*
%TO.C,U3*%
X156886835Y-91250000D03*
X155062500Y-89425665D03*
X155062500Y-93074335D03*
X153238165Y-91250000D03*
D16*
X159437723Y-90763864D03*
X159084170Y-90410311D03*
X158730616Y-90056757D03*
X158377063Y-89703204D03*
X158023510Y-89349651D03*
X157669956Y-88996097D03*
X157316403Y-88642544D03*
X156962849Y-88288990D03*
X156609296Y-87935437D03*
X156255743Y-87581884D03*
X155902189Y-87228330D03*
X155548636Y-86874777D03*
D17*
X154576364Y-86874777D03*
X154222811Y-87228330D03*
X153869257Y-87581884D03*
X153515704Y-87935437D03*
X153162151Y-88288990D03*
X152808597Y-88642544D03*
X152455044Y-88996097D03*
X152101490Y-89349651D03*
X151747937Y-89703204D03*
X151394384Y-90056757D03*
X151040830Y-90410311D03*
X150687277Y-90763864D03*
D16*
X150687277Y-91736136D03*
X151040830Y-92089689D03*
X151394384Y-92443243D03*
X151747937Y-92796796D03*
X152101490Y-93150349D03*
X152455044Y-93503903D03*
X152808597Y-93857456D03*
X153162151Y-94211010D03*
X153515704Y-94564563D03*
X153869257Y-94918116D03*
X154222811Y-95271670D03*
X154576364Y-95625223D03*
D17*
X155548636Y-95625223D03*
X155902189Y-95271670D03*
X156255743Y-94918116D03*
X156609296Y-94564563D03*
X156962849Y-94211010D03*
X157316403Y-93857456D03*
X157669956Y-93503903D03*
X158023510Y-93150349D03*
X158377063Y-92796796D03*
X158730616Y-92443243D03*
X159084170Y-92089689D03*
X159437723Y-91736136D03*
%TD*%
D18*
%TO.C,R11*%
X140200000Y-87110000D03*
X140200000Y-86090000D03*
%TD*%
D14*
%TO.C,D5*%
X148800000Y-108612500D03*
X148800000Y-110187500D03*
%TD*%
D11*
%TO.C,C5*%
X150020000Y-101500000D03*
X150980000Y-101500000D03*
%TD*%
D19*
%TO.C,R15*%
X138500000Y-98062500D03*
X138500000Y-95137500D03*
%TD*%
D12*
%TO.C,R4*%
X160690000Y-93800000D03*
X161710000Y-93800000D03*
%TD*%
D20*
%TO.C,C9*%
X142350000Y-95600000D03*
X140450000Y-95600000D03*
%TD*%
D10*
%TO.C,C4*%
X145300000Y-105080000D03*
X145300000Y-104120000D03*
%TD*%
D12*
%TO.C,R5*%
X160690000Y-98600000D03*
X161710000Y-98600000D03*
%TD*%
D21*
%TO.C,U4*%
X144612500Y-101337500D03*
D22*
X145450000Y-101337500D03*
X146450000Y-101337500D03*
D23*
X147287500Y-101337500D03*
D24*
X144612500Y-100500000D03*
D25*
X145450000Y-100500000D03*
X146450000Y-100500000D03*
D26*
X147287500Y-100500000D03*
D24*
X144612500Y-99500000D03*
D25*
X145450000Y-99500000D03*
X146450000Y-99500000D03*
D26*
X147287500Y-99500000D03*
D27*
X144612500Y-98662500D03*
D28*
X145450000Y-98662500D03*
X146450000Y-98662500D03*
D29*
X147287500Y-98662500D03*
D30*
X144450000Y-102450000D03*
X144950000Y-102450000D03*
X145450000Y-102450000D03*
X145950000Y-102450000D03*
X146450000Y-102450000D03*
X146950000Y-102450000D03*
X147450000Y-102450000D03*
D31*
X148400000Y-101500000D03*
X148400000Y-101000000D03*
X148400000Y-100500000D03*
X148400000Y-100000000D03*
X148400000Y-99500000D03*
X148400000Y-99000000D03*
X148400000Y-98500000D03*
D30*
X147450000Y-97550000D03*
X146950000Y-97550000D03*
X146450000Y-97550000D03*
X145950000Y-97550000D03*
X145450000Y-97550000D03*
X144950000Y-97550000D03*
X144450000Y-97550000D03*
D31*
X143500000Y-98500000D03*
X143500000Y-99000000D03*
X143500000Y-99500000D03*
X143500000Y-100000000D03*
X143500000Y-100500000D03*
X143500000Y-101000000D03*
X143500000Y-101500000D03*
%TD*%
D32*
%TO.C,R3*%
X161710000Y-101000000D03*
X160690000Y-101000000D03*
%TD*%
D33*
%TO.C,C8*%
X142380000Y-102900000D03*
X141420000Y-102900000D03*
%TD*%
D12*
%TO.C,R12*%
X144090000Y-83700000D03*
X145110000Y-83700000D03*
%TD*%
D34*
%TO.C,C12*%
X159160589Y-88160589D03*
X159839411Y-88839411D03*
%TD*%
D14*
%TO.C,D3*%
X154100000Y-104312500D03*
X154100000Y-105887500D03*
%TD*%
D35*
%TO.C,Y1*%
X148476256Y-89513693D03*
X149713693Y-88276256D03*
X148723744Y-87286307D03*
X147486307Y-88523744D03*
%TD*%
D12*
%TO.C,R8*%
X144890000Y-95700000D03*
X145910000Y-95700000D03*
%TD*%
D36*
%TO.C,C15*%
X152339411Y-86960589D03*
X151660589Y-87639411D03*
%TD*%
D37*
%TO.C,C11*%
X143800000Y-109000000D03*
X138200000Y-109000000D03*
%TD*%
D34*
%TO.C,C17*%
X149500000Y-86100000D03*
X150178822Y-86778822D03*
%TD*%
D12*
%TO.C,R1*%
X160690000Y-102200000D03*
X161710000Y-102200000D03*
%TD*%
D14*
%TO.C,D6*%
X156000000Y-104312500D03*
X156000000Y-105887500D03*
%TD*%
D38*
%TO.C,C16*%
X157660589Y-95439411D03*
X158339411Y-94760589D03*
%TD*%
D39*
%TO.C,D7*%
X155350000Y-108450000D03*
X155350000Y-111750000D03*
X160250000Y-111750000D03*
X160250000Y-108450000D03*
%TD*%
D20*
%TO.C,C10*%
X142350000Y-104400000D03*
X140450000Y-104400000D03*
%TD*%
D40*
%TO.C,D1*%
X160500000Y-105950000D03*
X160500000Y-103850000D03*
%TD*%
D41*
%TO.C,SW1*%
X134600000Y-107900000D03*
X131400000Y-107900000D03*
X134600000Y-106300000D03*
X131400000Y-106300000D03*
%TD*%
D42*
%TO.C,U5*%
X142600000Y-85200000D03*
X142600000Y-85950000D03*
X143250000Y-85200000D03*
X143250000Y-85950000D03*
D43*
X141475000Y-84825000D03*
X141475000Y-85325000D03*
X141475000Y-85825000D03*
X141475000Y-86325000D03*
X144375000Y-86325000D03*
X144375000Y-85825000D03*
X144375000Y-85325000D03*
X144375000Y-84825000D03*
%TD*%
D34*
%TO.C,C18*%
X146260589Y-89260589D03*
X146939411Y-89939411D03*
%TD*%
D38*
%TO.C,C14*%
X158460589Y-96239411D03*
X159139411Y-95560589D03*
%TD*%
D41*
%TO.C,SW2*%
X131300000Y-109400000D03*
X134500000Y-109400000D03*
X131300000Y-111000000D03*
X134500000Y-111000000D03*
%TD*%
D44*
%TO.C,U2*%
X150300000Y-113350000D03*
X148000000Y-113350000D03*
D45*
X148000000Y-119650000D03*
D44*
X145700000Y-113350000D03*
%TD*%
D14*
%TO.C,D2*%
X151800000Y-104312500D03*
X151800000Y-105887500D03*
%TD*%
D46*
%TO.C,R9*%
X160039376Y-87239376D03*
X160760624Y-87960624D03*
%TD*%
D11*
%TO.C,C2*%
X148720000Y-111500000D03*
X149680000Y-111500000D03*
%TD*%
D33*
%TO.C,C7*%
X142380000Y-97100000D03*
X141420000Y-97100000D03*
%TD*%
D46*
%TO.C,R7*%
X149039376Y-92339376D03*
X149760624Y-93060624D03*
%TD*%
D11*
%TO.C,C13*%
X160720000Y-94900000D03*
X161680000Y-94900000D03*
%TD*%
D32*
%TO.C,R13*%
X141810000Y-83700000D03*
X140790000Y-83700000D03*
%TD*%
D47*
%TO.C,R14*%
X138500000Y-101937500D03*
X138500000Y-104862500D03*
%TD*%
D32*
%TO.C,R2*%
X161710000Y-99800000D03*
X160690000Y-99800000D03*
%TD*%
D48*
%TO.C,J1*%
X164475000Y-109700000D03*
X164475000Y-108900000D03*
D49*
X164475000Y-107750000D03*
X164475000Y-106750000D03*
X164475000Y-106250000D03*
X164475000Y-105250000D03*
D48*
X164475000Y-104100000D03*
X164475000Y-103300000D03*
X164475000Y-103300000D03*
X164475000Y-104100000D03*
D49*
X164475000Y-104750000D03*
X164475000Y-105750000D03*
X164475000Y-107250000D03*
X164475000Y-108250000D03*
D48*
X164475000Y-108900000D03*
X164475000Y-109700000D03*
%TD*%
M02*
