%TF.GenerationSoftware,KiCad,Pcbnew,7.0.6*%
%TF.CreationDate,2024-02-29T21:08:59-05:00*%
%TF.ProjectId,Axis_Basic,41786973-5f42-4617-9369-632e6b696361,rev?*%
%TF.SameCoordinates,Original*%
%TF.FileFunction,Soldermask,Top*%
%TF.FilePolarity,Negative*%
%FSLAX46Y46*%
G04 Gerber Fmt 4.6, Leading zero omitted, Abs format (unit mm)*
G04 Created by KiCad (PCBNEW 7.0.6) date 2024-02-29 21:08:59*
%MOMM*%
%LPD*%
G01*
G04 APERTURE LIST*
G04 Aperture macros list*
%AMRoundRect*
0 Rectangle with rounded corners*
0 $1 Rounding radius*
0 $2 $3 $4 $5 $6 $7 $8 $9 X,Y pos of 4 corners*
0 Add a 4 corners polygon primitive as box body*
4,1,4,$2,$3,$4,$5,$6,$7,$8,$9,$2,$3,0*
0 Add four circle primitives for the rounded corners*
1,1,$1+$1,$2,$3*
1,1,$1+$1,$4,$5*
1,1,$1+$1,$6,$7*
1,1,$1+$1,$8,$9*
0 Add four rect primitives between the rounded corners*
20,1,$1+$1,$2,$3,$4,$5,0*
20,1,$1+$1,$4,$5,$6,$7,0*
20,1,$1+$1,$6,$7,$8,$9,0*
20,1,$1+$1,$8,$9,$2,$3,0*%
%AMRotRect*
0 Rectangle, with rotation*
0 The origin of the aperture is its center*
0 $1 length*
0 $2 width*
0 $3 Rotation angle, in degrees counterclockwise*
0 Add horizontal line*
21,1,$1,$2,0,0,$3*%
G04 Aperture macros list end*
%ADD10RoundRect,0.140000X0.170000X-0.140000X0.170000X0.140000X-0.170000X0.140000X-0.170000X-0.140000X0*%
%ADD11RoundRect,0.140000X-0.140000X-0.170000X0.140000X-0.170000X0.140000X0.170000X-0.140000X0.170000X0*%
%ADD12RoundRect,0.135000X-0.135000X-0.185000X0.135000X-0.185000X0.135000X0.185000X-0.135000X0.185000X0*%
%ADD13RoundRect,0.135000X-0.185000X0.135000X-0.185000X-0.135000X0.185000X-0.135000X0.185000X0.135000X0*%
%ADD14RoundRect,0.218750X-0.256250X0.218750X-0.256250X-0.218750X0.256250X-0.218750X0.256250X0.218750X0*%
%ADD15RoundRect,0.062500X0.220971X0.309359X-0.309359X-0.220971X-0.220971X-0.309359X0.309359X0.220971X0*%
%ADD16RoundRect,0.062500X-0.220971X0.309359X-0.309359X0.220971X0.220971X-0.309359X0.309359X-0.220971X0*%
%ADD17RotRect,5.150000X5.150000X225.000000*%
%ADD18RoundRect,0.250000X-0.350000X-0.625000X0.350000X-0.625000X0.350000X0.625000X-0.350000X0.625000X0*%
%ADD19O,1.200000X1.750000*%
%ADD20RoundRect,0.135000X0.185000X-0.135000X0.185000X0.135000X-0.185000X0.135000X-0.185000X-0.135000X0*%
%ADD21R,1.700000X1.700000*%
%ADD22O,1.700000X1.700000*%
%ADD23C,3.200000*%
%ADD24RoundRect,0.250000X0.625000X-0.312500X0.625000X0.312500X-0.625000X0.312500X-0.625000X-0.312500X0*%
%ADD25RoundRect,0.250000X0.250000X0.475000X-0.250000X0.475000X-0.250000X-0.475000X0.250000X-0.475000X0*%
%ADD26RoundRect,0.062500X0.062500X-0.337500X0.062500X0.337500X-0.062500X0.337500X-0.062500X-0.337500X0*%
%ADD27RoundRect,0.062500X0.337500X-0.062500X0.337500X0.062500X-0.337500X0.062500X-0.337500X-0.062500X0*%
%ADD28R,3.350000X3.350000*%
%ADD29RoundRect,0.135000X0.135000X0.185000X-0.135000X0.185000X-0.135000X-0.185000X0.135000X-0.185000X0*%
%ADD30RoundRect,0.140000X0.140000X0.170000X-0.140000X0.170000X-0.140000X-0.170000X0.140000X-0.170000X0*%
%ADD31RoundRect,0.140000X-0.219203X-0.021213X-0.021213X-0.219203X0.219203X0.021213X0.021213X0.219203X0*%
%ADD32RoundRect,0.250000X-0.625000X0.350000X-0.625000X-0.350000X0.625000X-0.350000X0.625000X0.350000X0*%
%ADD33O,1.750000X1.200000*%
%ADD34RotRect,1.150000X1.000000X45.000000*%
%ADD35RoundRect,0.140000X-0.021213X0.219203X-0.219203X0.021213X0.021213X-0.219203X0.219203X-0.021213X0*%
%ADD36RoundRect,0.250000X1.500000X0.550000X-1.500000X0.550000X-1.500000X-0.550000X1.500000X-0.550000X0*%
%ADD37RoundRect,0.140000X0.021213X-0.219203X0.219203X-0.021213X-0.021213X0.219203X-0.219203X0.021213X0*%
%ADD38R,1.500000X0.900000*%
%ADD39RoundRect,0.112500X0.112500X-0.187500X0.112500X0.187500X-0.112500X0.187500X-0.112500X-0.187500X0*%
%ADD40R,0.700000X0.750000*%
%ADD41R,0.750000X0.300000*%
%ADD42R,1.300000X1.500000*%
%ADD43R,1.500000X2.000000*%
%ADD44R,3.800000X2.000000*%
%ADD45RoundRect,0.135000X-0.226274X-0.035355X-0.035355X-0.226274X0.226274X0.035355X0.035355X0.226274X0*%
%ADD46RoundRect,0.250000X-0.625000X0.312500X-0.625000X-0.312500X0.625000X-0.312500X0.625000X0.312500X0*%
%ADD47R,1.000000X1.000000*%
%ADD48O,1.000000X1.000000*%
%ADD49C,0.650000*%
%ADD50R,1.240000X0.600000*%
%ADD51R,1.240000X0.300000*%
%ADD52O,2.100000X1.000000*%
%ADD53O,1.800000X1.000000*%
G04 APERTURE END LIST*
D10*
%TO.C,C6*%
X146700000Y-105080000D03*
X146700000Y-104120000D03*
%TD*%
D11*
%TO.C,C3*%
X160720000Y-97400000D03*
X161680000Y-97400000D03*
%TD*%
D12*
%TO.C,R6*%
X160690000Y-96100000D03*
X161710000Y-96100000D03*
%TD*%
D13*
%TO.C,R10*%
X147200000Y-108990000D03*
X147200000Y-110010000D03*
%TD*%
D11*
%TO.C,C1*%
X146040000Y-111500000D03*
X147000000Y-111500000D03*
%TD*%
D14*
%TO.C,D4*%
X158300000Y-104312500D03*
X158300000Y-105887500D03*
%TD*%
D15*
%TO.C,U3*%
X159437723Y-90763864D03*
X159084170Y-90410311D03*
X158730616Y-90056757D03*
X158377063Y-89703204D03*
X158023510Y-89349651D03*
X157669956Y-88996097D03*
X157316403Y-88642544D03*
X156962849Y-88288990D03*
X156609296Y-87935437D03*
X156255743Y-87581884D03*
X155902189Y-87228330D03*
X155548636Y-86874777D03*
D16*
X154576364Y-86874777D03*
X154222811Y-87228330D03*
X153869257Y-87581884D03*
X153515704Y-87935437D03*
X153162151Y-88288990D03*
X152808597Y-88642544D03*
X152455044Y-88996097D03*
X152101490Y-89349651D03*
X151747937Y-89703204D03*
X151394384Y-90056757D03*
X151040830Y-90410311D03*
X150687277Y-90763864D03*
D15*
X150687277Y-91736136D03*
X151040830Y-92089689D03*
X151394384Y-92443243D03*
X151747937Y-92796796D03*
X152101490Y-93150349D03*
X152455044Y-93503903D03*
X152808597Y-93857456D03*
X153162151Y-94211010D03*
X153515704Y-94564563D03*
X153869257Y-94918116D03*
X154222811Y-95271670D03*
X154576364Y-95625223D03*
D16*
X155548636Y-95625223D03*
X155902189Y-95271670D03*
X156255743Y-94918116D03*
X156609296Y-94564563D03*
X156962849Y-94211010D03*
X157316403Y-93857456D03*
X157669956Y-93503903D03*
X158023510Y-93150349D03*
X158377063Y-92796796D03*
X158730616Y-92443243D03*
X159084170Y-92089689D03*
X159437723Y-91736136D03*
D17*
X155062500Y-91250000D03*
%TD*%
D18*
%TO.C,J4*%
X140200000Y-115500000D03*
D19*
X142200000Y-115500000D03*
%TD*%
D20*
%TO.C,R11*%
X140200000Y-87110000D03*
X140200000Y-86090000D03*
%TD*%
D14*
%TO.C,D5*%
X148800000Y-108612500D03*
X148800000Y-110187500D03*
%TD*%
D11*
%TO.C,C5*%
X150020000Y-101500000D03*
X150980000Y-101500000D03*
%TD*%
D21*
%TO.C,J6*%
X131200000Y-89960000D03*
D22*
X131200000Y-92500000D03*
X133740000Y-89960000D03*
X133740000Y-92500000D03*
X136280000Y-89960000D03*
X136280000Y-92500000D03*
X138820000Y-89960000D03*
X138820000Y-92500000D03*
X141360000Y-89960000D03*
X141360000Y-92500000D03*
%TD*%
D23*
%TO.C,H1*%
X165500000Y-115500000D03*
%TD*%
D24*
%TO.C,R15*%
X138500000Y-98062500D03*
X138500000Y-95137500D03*
%TD*%
D12*
%TO.C,R4*%
X160690000Y-93800000D03*
X161710000Y-93800000D03*
%TD*%
D25*
%TO.C,C9*%
X142350000Y-95600000D03*
X140450000Y-95600000D03*
%TD*%
D10*
%TO.C,C4*%
X145300000Y-105080000D03*
X145300000Y-104120000D03*
%TD*%
D12*
%TO.C,R5*%
X160690000Y-98600000D03*
X161710000Y-98600000D03*
%TD*%
D26*
%TO.C,U4*%
X144450000Y-102450000D03*
X144950000Y-102450000D03*
X145450000Y-102450000D03*
X145950000Y-102450000D03*
X146450000Y-102450000D03*
X146950000Y-102450000D03*
X147450000Y-102450000D03*
D27*
X148400000Y-101500000D03*
X148400000Y-101000000D03*
X148400000Y-100500000D03*
X148400000Y-100000000D03*
X148400000Y-99500000D03*
X148400000Y-99000000D03*
X148400000Y-98500000D03*
D26*
X147450000Y-97550000D03*
X146950000Y-97550000D03*
X146450000Y-97550000D03*
X145950000Y-97550000D03*
X145450000Y-97550000D03*
X144950000Y-97550000D03*
X144450000Y-97550000D03*
D27*
X143500000Y-98500000D03*
X143500000Y-99000000D03*
X143500000Y-99500000D03*
X143500000Y-100000000D03*
X143500000Y-100500000D03*
X143500000Y-101000000D03*
X143500000Y-101500000D03*
D28*
X145950000Y-100000000D03*
%TD*%
D29*
%TO.C,R3*%
X161710000Y-101000000D03*
X160690000Y-101000000D03*
%TD*%
D30*
%TO.C,C8*%
X142380000Y-102900000D03*
X141420000Y-102900000D03*
%TD*%
D12*
%TO.C,R12*%
X144090000Y-83700000D03*
X145110000Y-83700000D03*
%TD*%
D31*
%TO.C,C12*%
X159160589Y-88160589D03*
X159839411Y-88839411D03*
%TD*%
D32*
%TO.C,J2*%
X134450000Y-97000000D03*
D33*
X134450000Y-99000000D03*
X134450000Y-101000000D03*
X134450000Y-103000000D03*
%TD*%
D14*
%TO.C,D3*%
X154100000Y-104312500D03*
X154100000Y-105887500D03*
%TD*%
D34*
%TO.C,Y1*%
X148476256Y-89513693D03*
X149713693Y-88276256D03*
X148723744Y-87286307D03*
X147486307Y-88523744D03*
%TD*%
D12*
%TO.C,R8*%
X144890000Y-95700000D03*
X145910000Y-95700000D03*
%TD*%
D23*
%TO.C,H4*%
X165500000Y-84500000D03*
%TD*%
D35*
%TO.C,C15*%
X152339411Y-86960589D03*
X151660589Y-87639411D03*
%TD*%
D36*
%TO.C,C11*%
X143800000Y-109000000D03*
X138200000Y-109000000D03*
%TD*%
D31*
%TO.C,C17*%
X149500000Y-86100000D03*
X150178822Y-86778822D03*
%TD*%
D12*
%TO.C,R1*%
X160690000Y-102200000D03*
X161710000Y-102200000D03*
%TD*%
D14*
%TO.C,D6*%
X156000000Y-104312500D03*
X156000000Y-105887500D03*
%TD*%
D37*
%TO.C,C16*%
X157660589Y-95439411D03*
X158339411Y-94760589D03*
%TD*%
D38*
%TO.C,D7*%
X155350000Y-108450000D03*
X155350000Y-111750000D03*
X160250000Y-111750000D03*
X160250000Y-108450000D03*
%TD*%
D25*
%TO.C,C10*%
X142350000Y-104400000D03*
X140450000Y-104400000D03*
%TD*%
D39*
%TO.C,D1*%
X160500000Y-105950000D03*
X160500000Y-103850000D03*
%TD*%
D40*
%TO.C,SW1*%
X134600000Y-107900000D03*
X131400000Y-107900000D03*
X134600000Y-106300000D03*
X131400000Y-106300000D03*
%TD*%
D41*
%TO.C,U5*%
X141475000Y-84825000D03*
X141475000Y-85325000D03*
X141475000Y-85825000D03*
X141475000Y-86325000D03*
X144375000Y-86325000D03*
X144375000Y-85825000D03*
X144375000Y-85325000D03*
X144375000Y-84825000D03*
D42*
X142925000Y-85575000D03*
%TD*%
D31*
%TO.C,C18*%
X146260589Y-89260589D03*
X146939411Y-89939411D03*
%TD*%
D37*
%TO.C,C14*%
X158460589Y-96239411D03*
X159139411Y-95560589D03*
%TD*%
D40*
%TO.C,SW2*%
X131300000Y-109400000D03*
X134500000Y-109400000D03*
X131300000Y-111000000D03*
X134500000Y-111000000D03*
%TD*%
D43*
%TO.C,U2*%
X150300000Y-113350000D03*
X148000000Y-113350000D03*
D44*
X148000000Y-119650000D03*
D43*
X145700000Y-113350000D03*
%TD*%
D14*
%TO.C,D2*%
X151800000Y-104312500D03*
X151800000Y-105887500D03*
%TD*%
D45*
%TO.C,R9*%
X160039376Y-87239376D03*
X160760624Y-87960624D03*
%TD*%
D11*
%TO.C,C2*%
X148720000Y-111500000D03*
X149680000Y-111500000D03*
%TD*%
D30*
%TO.C,C7*%
X142380000Y-97100000D03*
X141420000Y-97100000D03*
%TD*%
D45*
%TO.C,R7*%
X149039376Y-92339376D03*
X149760624Y-93060624D03*
%TD*%
D23*
%TO.C,H3*%
X134500000Y-84500000D03*
%TD*%
D11*
%TO.C,C13*%
X160720000Y-94900000D03*
X161680000Y-94900000D03*
%TD*%
D29*
%TO.C,R13*%
X141810000Y-83700000D03*
X140790000Y-83700000D03*
%TD*%
D46*
%TO.C,R14*%
X138500000Y-101937500D03*
X138500000Y-104862500D03*
%TD*%
D29*
%TO.C,R2*%
X161710000Y-99800000D03*
X160690000Y-99800000D03*
%TD*%
D18*
%TO.C,J3*%
X153500000Y-115500000D03*
D19*
X155500000Y-115500000D03*
X157500000Y-115500000D03*
X159500000Y-115500000D03*
%TD*%
D47*
%TO.C,J5*%
X163430000Y-92100000D03*
D48*
X164700000Y-92100000D03*
X163430000Y-93370000D03*
X164700000Y-93370000D03*
X163430000Y-94640000D03*
X164700000Y-94640000D03*
X163430000Y-95910000D03*
X164700000Y-95910000D03*
X163430000Y-97180000D03*
X164700000Y-97180000D03*
%TD*%
D23*
%TO.C,H2*%
X134500000Y-115500000D03*
%TD*%
D49*
%TO.C,J1*%
X165595000Y-109390000D03*
X165595000Y-103610000D03*
D50*
X164475000Y-109700000D03*
X164475000Y-108900000D03*
D51*
X164475000Y-107750000D03*
X164475000Y-106750000D03*
X164475000Y-106250000D03*
X164475000Y-105250000D03*
D50*
X164475000Y-104100000D03*
X164475000Y-103300000D03*
X164475000Y-103300000D03*
X164475000Y-104100000D03*
D51*
X164475000Y-104750000D03*
X164475000Y-105750000D03*
X164475000Y-107250000D03*
X164475000Y-108250000D03*
D50*
X164475000Y-108900000D03*
X164475000Y-109700000D03*
D52*
X165075000Y-110820000D03*
D53*
X169275000Y-110820000D03*
D52*
X165075000Y-102180000D03*
D53*
X169275000Y-102180000D03*
%TD*%
M02*
