%TF.GenerationSoftware,KiCad,Pcbnew,8.0.3*%
%TF.CreationDate,2024-10-19T15:47:34-04:00*%
%TF.ProjectId,Axis_Basic,41786973-5f42-4617-9369-632e6b696361,rev?*%
%TF.SameCoordinates,Original*%
%TF.FileFunction,Legend,Top*%
%TF.FilePolarity,Positive*%
%FSLAX46Y46*%
G04 Gerber Fmt 4.6, Leading zero omitted, Abs format (unit mm)*
G04 Created by KiCad (PCBNEW 8.0.3) date 2024-10-19 15:47:34*
%MOMM*%
%LPD*%
G01*
G04 APERTURE LIST*
G04 Aperture macros list*
%AMRoundRect*
0 Rectangle with rounded corners*
0 $1 Rounding radius*
0 $2 $3 $4 $5 $6 $7 $8 $9 X,Y pos of 4 corners*
0 Add a 4 corners polygon primitive as box body*
4,1,4,$2,$3,$4,$5,$6,$7,$8,$9,$2,$3,0*
0 Add four circle primitives for the rounded corners*
1,1,$1+$1,$2,$3*
1,1,$1+$1,$4,$5*
1,1,$1+$1,$6,$7*
1,1,$1+$1,$8,$9*
0 Add four rect primitives between the rounded corners*
20,1,$1+$1,$2,$3,$4,$5,0*
20,1,$1+$1,$4,$5,$6,$7,0*
20,1,$1+$1,$6,$7,$8,$9,0*
20,1,$1+$1,$8,$9,$2,$3,0*%
%AMRotRect*
0 Rectangle, with rotation*
0 The origin of the aperture is its center*
0 $1 length*
0 $2 width*
0 $3 Rotation angle, in degrees counterclockwise*
0 Add horizontal line*
21,1,$1,$2,0,0,$3*%
G04 Aperture macros list end*
%ADD10C,0.150000*%
%ADD11C,0.120000*%
%ADD12C,0.100000*%
%ADD13RoundRect,0.140000X-0.021213X0.219203X-0.219203X0.021213X0.021213X-0.219203X0.219203X-0.021213X0*%
%ADD14RoundRect,0.135000X-0.185000X0.135000X-0.185000X-0.135000X0.185000X-0.135000X0.185000X0.135000X0*%
%ADD15RoundRect,0.250000X-0.625000X0.350000X-0.625000X-0.350000X0.625000X-0.350000X0.625000X0.350000X0*%
%ADD16O,1.750000X1.200000*%
%ADD17RoundRect,0.140000X0.170000X-0.140000X0.170000X0.140000X-0.170000X0.140000X-0.170000X-0.140000X0*%
%ADD18RoundRect,0.150000X-0.150000X-0.625000X0.150000X-0.625000X0.150000X0.625000X-0.150000X0.625000X0*%
%ADD19RoundRect,0.250000X-0.350000X-0.650000X0.350000X-0.650000X0.350000X0.650000X-0.350000X0.650000X0*%
%ADD20RoundRect,0.150000X0.200000X-0.150000X0.200000X0.150000X-0.200000X0.150000X-0.200000X-0.150000X0*%
%ADD21RoundRect,0.135000X0.185000X-0.135000X0.185000X0.135000X-0.185000X0.135000X-0.185000X-0.135000X0*%
%ADD22R,0.750000X0.700000*%
%ADD23C,5.500000*%
%ADD24RoundRect,0.250000X0.625000X-0.312500X0.625000X0.312500X-0.625000X0.312500X-0.625000X-0.312500X0*%
%ADD25RoundRect,0.250000X0.250000X0.475000X-0.250000X0.475000X-0.250000X-0.475000X0.250000X-0.475000X0*%
%ADD26RoundRect,0.062500X0.062500X-0.337500X0.062500X0.337500X-0.062500X0.337500X-0.062500X-0.337500X0*%
%ADD27RoundRect,0.062500X0.337500X-0.062500X0.337500X0.062500X-0.337500X0.062500X-0.337500X-0.062500X0*%
%ADD28R,3.350000X3.350000*%
%ADD29R,0.610000X2.000000*%
%ADD30R,2.680000X3.600000*%
%ADD31RoundRect,0.140000X-0.170000X0.140000X-0.170000X-0.140000X0.170000X-0.140000X0.170000X0.140000X0*%
%ADD32RoundRect,0.150000X0.512500X0.150000X-0.512500X0.150000X-0.512500X-0.150000X0.512500X-0.150000X0*%
%ADD33RoundRect,0.135000X0.135000X0.185000X-0.135000X0.185000X-0.135000X-0.185000X0.135000X-0.185000X0*%
%ADD34RoundRect,0.140000X0.140000X0.170000X-0.140000X0.170000X-0.140000X-0.170000X0.140000X-0.170000X0*%
%ADD35RoundRect,0.218750X-0.218750X-0.256250X0.218750X-0.256250X0.218750X0.256250X-0.218750X0.256250X0*%
%ADD36R,2.000000X1.500000*%
%ADD37R,2.000000X3.800000*%
%ADD38RoundRect,0.135000X0.035355X-0.226274X0.226274X-0.035355X-0.035355X0.226274X-0.226274X0.035355X0*%
%ADD39RoundRect,0.250000X-0.250000X-0.475000X0.250000X-0.475000X0.250000X0.475000X-0.250000X0.475000X0*%
%ADD40RoundRect,0.150000X-0.150000X-0.200000X0.150000X-0.200000X0.150000X0.200000X-0.150000X0.200000X0*%
%ADD41RoundRect,0.250000X1.500000X0.550000X-1.500000X0.550000X-1.500000X-0.550000X1.500000X-0.550000X0*%
%ADD42RoundRect,0.225000X-0.225000X-0.375000X0.225000X-0.375000X0.225000X0.375000X-0.225000X0.375000X0*%
%ADD43RoundRect,0.140000X-0.219203X-0.021213X-0.021213X-0.219203X0.219203X0.021213X0.021213X0.219203X0*%
%ADD44RoundRect,0.218750X0.256250X-0.218750X0.256250X0.218750X-0.256250X0.218750X-0.256250X-0.218750X0*%
%ADD45R,0.700000X0.750000*%
%ADD46RoundRect,0.135000X-0.135000X-0.185000X0.135000X-0.185000X0.135000X0.185000X-0.135000X0.185000X0*%
%ADD47RoundRect,0.075000X-0.521491X0.415425X0.415425X-0.521491X0.521491X-0.415425X-0.415425X0.521491X0*%
%ADD48RoundRect,0.075000X-0.521491X-0.415425X-0.415425X-0.521491X0.521491X0.415425X0.415425X0.521491X0*%
%ADD49RoundRect,0.250000X0.512652X0.159099X0.159099X0.512652X-0.512652X-0.159099X-0.159099X-0.512652X0*%
%ADD50RoundRect,0.140000X0.021213X-0.219203X0.219203X-0.021213X-0.021213X0.219203X-0.219203X0.021213X0*%
%ADD51RoundRect,0.125000X-0.125000X-0.125000X0.125000X-0.125000X0.125000X0.125000X-0.125000X0.125000X0*%
%ADD52R,1.500000X0.900000*%
%ADD53RoundRect,0.135000X-0.035355X0.226274X-0.226274X0.035355X0.035355X-0.226274X0.226274X-0.035355X0*%
%ADD54C,0.650000*%
%ADD55R,1.150000X0.600000*%
%ADD56R,1.150000X0.300000*%
%ADD57O,2.100000X1.000000*%
%ADD58O,1.800000X1.000000*%
%ADD59RoundRect,0.150000X0.150000X0.200000X-0.150000X0.200000X-0.150000X-0.200000X0.150000X-0.200000X0*%
%ADD60RoundRect,0.250000X-0.625000X0.312500X-0.625000X-0.312500X0.625000X-0.312500X0.625000X0.312500X0*%
%ADD61RotRect,1.000000X1.800000X315.000000*%
%ADD62RoundRect,0.150000X-0.200000X0.150000X-0.200000X-0.150000X0.200000X-0.150000X0.200000X0.150000X0*%
G04 APERTURE END LIST*
D10*
X163162024Y-89600048D02*
X160399975Y-89600048D01*
X162138490Y-90677081D02*
G75*
G02*
X162400031Y-88699986I-538490J1077081D01*
G01*
X163162024Y-89600048D02*
G75*
G02*
X162599992Y-88400027I-1562024J48D01*
G01*
X163479322Y-90432419D02*
X163812655Y-91432419D01*
X163812655Y-91432419D02*
X164145988Y-90432419D01*
X165003131Y-91432419D02*
X164431703Y-91432419D01*
X164717417Y-91432419D02*
X164717417Y-90432419D01*
X164717417Y-90432419D02*
X164622179Y-90575276D01*
X164622179Y-90575276D02*
X164526941Y-90670514D01*
X164526941Y-90670514D02*
X164431703Y-90718133D01*
X165431703Y-91337180D02*
X165479322Y-91384800D01*
X165479322Y-91384800D02*
X165431703Y-91432419D01*
X165431703Y-91432419D02*
X165384084Y-91384800D01*
X165384084Y-91384800D02*
X165431703Y-91337180D01*
X165431703Y-91337180D02*
X165431703Y-91432419D01*
X166431702Y-91432419D02*
X165860274Y-91432419D01*
X166145988Y-91432419D02*
X166145988Y-90432419D01*
X166145988Y-90432419D02*
X166050750Y-90575276D01*
X166050750Y-90575276D02*
X165955512Y-90670514D01*
X165955512Y-90670514D02*
X165860274Y-90718133D01*
X166860274Y-91337180D02*
X166907893Y-91384800D01*
X166907893Y-91384800D02*
X166860274Y-91432419D01*
X166860274Y-91432419D02*
X166812655Y-91384800D01*
X166812655Y-91384800D02*
X166860274Y-91337180D01*
X166860274Y-91337180D02*
X166860274Y-91432419D01*
X167526940Y-90432419D02*
X167622178Y-90432419D01*
X167622178Y-90432419D02*
X167717416Y-90480038D01*
X167717416Y-90480038D02*
X167765035Y-90527657D01*
X167765035Y-90527657D02*
X167812654Y-90622895D01*
X167812654Y-90622895D02*
X167860273Y-90813371D01*
X167860273Y-90813371D02*
X167860273Y-91051466D01*
X167860273Y-91051466D02*
X167812654Y-91241942D01*
X167812654Y-91241942D02*
X167765035Y-91337180D01*
X167765035Y-91337180D02*
X167717416Y-91384800D01*
X167717416Y-91384800D02*
X167622178Y-91432419D01*
X167622178Y-91432419D02*
X167526940Y-91432419D01*
X167526940Y-91432419D02*
X167431702Y-91384800D01*
X167431702Y-91384800D02*
X167384083Y-91337180D01*
X167384083Y-91337180D02*
X167336464Y-91241942D01*
X167336464Y-91241942D02*
X167288845Y-91051466D01*
X167288845Y-91051466D02*
X167288845Y-90813371D01*
X167288845Y-90813371D02*
X167336464Y-90622895D01*
X167336464Y-90622895D02*
X167384083Y-90527657D01*
X167384083Y-90527657D02*
X167431702Y-90480038D01*
X167431702Y-90480038D02*
X167526940Y-90432419D01*
D11*
%TO.C,C8*%
X157721693Y-107569190D02*
X157569190Y-107721693D01*
X158230810Y-108078307D02*
X158078307Y-108230810D01*
%TO.C,R11*%
X151320000Y-107746359D02*
X151320000Y-108053641D01*
X152080000Y-107746359D02*
X152080000Y-108053641D01*
%TO.C,R7*%
X166520000Y-99946359D02*
X166520000Y-100253641D01*
X167280000Y-99946359D02*
X167280000Y-100253641D01*
%TO.C,J5*%
X128090000Y-105240000D02*
X128090000Y-111360000D01*
X128090000Y-107800000D02*
X132450000Y-107800000D01*
X128090000Y-111360000D02*
X135910000Y-111360000D01*
X130350000Y-106000000D02*
X130350000Y-107000000D01*
X130350000Y-106500000D02*
X128090000Y-106500000D01*
X130350000Y-107000000D02*
X128090000Y-107000000D01*
X130350000Y-107000000D02*
X131950000Y-107000000D01*
X130350000Y-109600000D02*
X131950000Y-109600000D01*
X130350000Y-110600000D02*
X130350000Y-109600000D01*
X131950000Y-106000000D02*
X130350000Y-106000000D01*
X131950000Y-107000000D02*
X131950000Y-106000000D01*
X131950000Y-109600000D02*
X131950000Y-110600000D01*
X131950000Y-110600000D02*
X130350000Y-110600000D01*
X132450000Y-107800000D02*
X132450000Y-108800000D01*
X132450000Y-108800000D02*
X128090000Y-108800000D01*
X134310000Y-105240000D02*
X134310000Y-106160000D01*
X134310000Y-106160000D02*
X135910000Y-106160000D01*
X134310000Y-106440000D02*
X134310000Y-106160000D01*
X134310000Y-106440000D02*
X135525000Y-106440000D01*
X134310000Y-110440000D02*
X134310000Y-110160000D01*
X134310000Y-111360000D02*
X134310000Y-110440000D01*
X135910000Y-105240000D02*
X128090000Y-105240000D01*
X135910000Y-106160000D02*
X135910000Y-105240000D01*
X135910000Y-110440000D02*
X134310000Y-110440000D01*
X135910000Y-111360000D02*
X135910000Y-110440000D01*
%TO.C,C1*%
X136540000Y-112307836D02*
X136540000Y-112092164D01*
X137260000Y-112307836D02*
X137260000Y-112092164D01*
%TO.C,J3*%
X155390000Y-115240000D02*
X156440000Y-115240000D01*
X155390000Y-117740000D02*
X155390000Y-115240000D01*
X156440000Y-115240000D02*
X156440000Y-114250000D01*
X156560000Y-119710000D02*
X160440000Y-119710000D01*
X161610000Y-115240000D02*
X160560000Y-115240000D01*
X161610000Y-117740000D02*
X161610000Y-115240000D01*
%TO.C,D4*%
X151000000Y-111100000D02*
X151000000Y-109140000D01*
X152200000Y-109140000D02*
X151000000Y-109140000D01*
X152200000Y-111100000D02*
X152200000Y-109140000D01*
%TO.C,R3*%
X163220000Y-100253641D02*
X163220000Y-99946359D01*
X163980000Y-100253641D02*
X163980000Y-99946359D01*
%TO.C,SW1*%
D12*
X159500000Y-113500000D02*
X162500000Y-113500000D01*
X162500000Y-109000000D01*
X159500000Y-109000000D01*
X159500000Y-113500000D01*
D11*
%TO.C,C9*%
X160640000Y-94407836D02*
X160640000Y-94192164D01*
X161360000Y-94407836D02*
X161360000Y-94192164D01*
%TO.C,R21*%
X136627470Y-96556476D02*
X136627470Y-95102348D01*
X138447470Y-96556476D02*
X138447470Y-95102348D01*
%TO.C,C18*%
X140761252Y-93215000D02*
X140238748Y-93215000D01*
X140761252Y-94685000D02*
X140238748Y-94685000D01*
%TO.C,R6*%
X159620000Y-93853641D02*
X159620000Y-93546359D01*
X160380000Y-93853641D02*
X160380000Y-93546359D01*
%TO.C,R16*%
X142420000Y-95053641D02*
X142420000Y-94746359D01*
X143180000Y-95053641D02*
X143180000Y-94746359D01*
%TO.C,U4*%
X140377500Y-96590000D02*
X141102500Y-96590000D01*
X140377500Y-97315000D02*
X140377500Y-96590000D01*
X140377500Y-101085000D02*
X140377500Y-101810000D01*
X145597500Y-96590000D02*
X144872500Y-96590000D01*
X145597500Y-97315000D02*
X145597500Y-96590000D01*
X145597500Y-101085000D02*
X145597500Y-101810000D01*
X145597500Y-101810000D02*
X144872500Y-101810000D01*
%TO.C,J6*%
X139030000Y-79240000D02*
X161170000Y-79240000D01*
X139030000Y-80350000D02*
X139030000Y-79240000D01*
X140055000Y-80350000D02*
X139030000Y-80350000D01*
X140055000Y-80890000D02*
X140055000Y-80350000D01*
X143035000Y-84860000D02*
X142210000Y-84860000D01*
X157165000Y-84860000D02*
X157165000Y-86660000D01*
X157990000Y-84860000D02*
X157165000Y-84860000D01*
X160145000Y-80350000D02*
X160145000Y-80890000D01*
X161170000Y-79240000D02*
X161170000Y-80350000D01*
X161170000Y-80350000D02*
X160145000Y-80350000D01*
%TO.C,C14*%
X146240000Y-102892164D02*
X146240000Y-103107836D01*
X146960000Y-102892164D02*
X146960000Y-103107836D01*
%TO.C,U5*%
X141800000Y-87740000D02*
X141000000Y-87740000D01*
X141800000Y-87740000D02*
X142600000Y-87740000D01*
X141800000Y-90860000D02*
X141000000Y-90860000D01*
X141800000Y-90860000D02*
X142600000Y-90860000D01*
X143340000Y-91140000D02*
X142860000Y-91140000D01*
X143100000Y-90810000D01*
X143340000Y-91140000D01*
G36*
X143340000Y-91140000D02*
G01*
X142860000Y-91140000D01*
X143100000Y-90810000D01*
X143340000Y-91140000D01*
G37*
%TO.C,J2*%
X128072353Y-94169412D02*
X128072353Y-104289412D01*
X128072353Y-96729412D02*
X132432353Y-96729412D01*
X128072353Y-104289412D02*
X135892353Y-104289412D01*
X130332353Y-94929412D02*
X130332353Y-95929412D01*
X130332353Y-95429412D02*
X128072353Y-95429412D01*
X130332353Y-95929412D02*
X128072353Y-95929412D01*
X130332353Y-95929412D02*
X131932353Y-95929412D01*
X130332353Y-102529412D02*
X131932353Y-102529412D01*
X130332353Y-103529412D02*
X130332353Y-102529412D01*
X131932353Y-94929412D02*
X130332353Y-94929412D01*
X131932353Y-95929412D02*
X131932353Y-94929412D01*
X131932353Y-102529412D02*
X131932353Y-103529412D01*
X131932353Y-103529412D02*
X130332353Y-103529412D01*
X132432353Y-96729412D02*
X132432353Y-101729412D01*
X132432353Y-101729412D02*
X128072353Y-101729412D01*
X134292353Y-94169412D02*
X134292353Y-95089412D01*
X134292353Y-95089412D02*
X135892353Y-95089412D01*
X134292353Y-95369412D02*
X134292353Y-95089412D01*
X134292353Y-95369412D02*
X135507353Y-95369412D01*
X134292353Y-103369412D02*
X134292353Y-103089412D01*
X134292353Y-104289412D02*
X134292353Y-103369412D01*
X135892353Y-94169412D02*
X128072353Y-94169412D01*
X135892353Y-95089412D02*
X135892353Y-94169412D01*
X135892353Y-103369412D02*
X134292353Y-103369412D01*
X135892353Y-104289412D02*
X135892353Y-103369412D01*
%TO.C,C4*%
X136840000Y-118492164D02*
X136840000Y-118707836D01*
X137560000Y-118492164D02*
X137560000Y-118707836D01*
%TO.C,R19*%
X146653641Y-105920000D02*
X146346359Y-105920000D01*
X146653641Y-106680000D02*
X146346359Y-106680000D01*
%TO.C,C17*%
X139807836Y-102490000D02*
X139592164Y-102490000D01*
X139807836Y-103210000D02*
X139592164Y-103210000D01*
%TO.C,L1*%
X163249721Y-94790000D02*
X163575279Y-94790000D01*
X163249721Y-95810000D02*
X163575279Y-95810000D01*
%TO.C,R13*%
X165420000Y-97253641D02*
X165420000Y-96946359D01*
X166180000Y-97253641D02*
X166180000Y-96946359D01*
%TO.C,U2*%
X138050000Y-112740000D02*
X144060000Y-112740000D01*
X140300000Y-119560000D02*
X144060000Y-119560000D01*
X144060000Y-112740000D02*
X144060000Y-114000000D01*
X144060000Y-119560000D02*
X144060000Y-118300000D01*
%TO.C,C2*%
X155121693Y-91469190D02*
X154969190Y-91621693D01*
X155630810Y-91978307D02*
X155478307Y-92130810D01*
%TO.C,R10*%
X159222659Y-105939940D02*
X159439940Y-105722659D01*
X159760060Y-106477341D02*
X159977341Y-106260060D01*
%TO.C,C5*%
X162938748Y-92665000D02*
X163461252Y-92665000D01*
X162938748Y-94135000D02*
X163461252Y-94135000D01*
%TO.C,R12*%
X153220000Y-109346359D02*
X153220000Y-109653641D01*
X153980000Y-109346359D02*
X153980000Y-109653641D01*
%TO.C,D7*%
X161600000Y-106500000D02*
X163560000Y-106500000D01*
X161600000Y-107700000D02*
X163560000Y-107700000D01*
X163560000Y-107700000D02*
X163560000Y-106500000D01*
%TO.C,C21*%
X137690000Y-105540000D02*
X137690000Y-107890000D01*
X137690000Y-112360000D02*
X137690000Y-110010000D01*
X143445563Y-105540000D02*
X137690000Y-105540000D01*
X143445563Y-112360000D02*
X137690000Y-112360000D01*
X144510000Y-106604437D02*
X143445563Y-105540000D01*
X144510000Y-106604437D02*
X144510000Y-107890000D01*
X144510000Y-111295563D02*
X143445563Y-112360000D01*
X144510000Y-111295563D02*
X144510000Y-110010000D01*
%TO.C,D9*%
X147615000Y-105765000D02*
X147615000Y-107235000D01*
X147615000Y-107235000D02*
X149900000Y-107235000D01*
X149900000Y-105765000D02*
X147615000Y-105765000D01*
%TO.C,C12*%
X164340000Y-96992164D02*
X164340000Y-97207836D01*
X165060000Y-96992164D02*
X165060000Y-97207836D01*
%TO.C,R2*%
X161653641Y-108020000D02*
X161346359Y-108020000D01*
X161653641Y-108780000D02*
X161346359Y-108780000D01*
%TO.C,J4*%
X147490000Y-115215000D02*
X148540000Y-115215000D01*
X147490000Y-117715000D02*
X147490000Y-115215000D01*
X148540000Y-115215000D02*
X148540000Y-114225000D01*
X148660000Y-119685000D02*
X152540000Y-119685000D01*
X153710000Y-115215000D02*
X152660000Y-115215000D01*
X153710000Y-117715000D02*
X153710000Y-115215000D01*
%TO.C,D2*%
X144940000Y-110300000D02*
X144940000Y-112300000D01*
X144940000Y-110300000D02*
X148950000Y-110300000D01*
X144940000Y-112300000D02*
X148950000Y-112300000D01*
%TO.C,C11*%
X148919190Y-104178307D02*
X149071693Y-104330810D01*
X149428307Y-103669190D02*
X149580810Y-103821693D01*
%TO.C,R14*%
X163220000Y-97253641D02*
X163220000Y-96946359D01*
X163980000Y-97253641D02*
X163980000Y-96946359D01*
%TO.C,D6*%
X166165000Y-93600000D02*
X166165000Y-95885000D01*
X166165000Y-95885000D02*
X167635000Y-95885000D01*
X167635000Y-95885000D02*
X167635000Y-93600000D01*
%TO.C,SW2*%
D12*
X159300000Y-112100000D02*
X154800000Y-112100000D01*
X154800000Y-109100000D01*
X159300000Y-109100000D01*
X159300000Y-112100000D01*
D11*
%TO.C,C20*%
X140761252Y-103665000D02*
X140238748Y-103665000D01*
X140761252Y-105135000D02*
X140238748Y-105135000D01*
%TO.C,C6*%
X165140000Y-94392164D02*
X165140000Y-94607836D01*
X165860000Y-94392164D02*
X165860000Y-94607836D01*
%TO.C,C15*%
X144440000Y-103807836D02*
X144440000Y-103592164D01*
X145160000Y-103807836D02*
X145160000Y-103592164D01*
%TO.C,D3*%
X153000000Y-112700000D02*
X153000000Y-110740000D01*
X154200000Y-110740000D02*
X153000000Y-110740000D01*
X154200000Y-112700000D02*
X154200000Y-110740000D01*
%TO.C,R4*%
X145146359Y-92720000D02*
X145453641Y-92720000D01*
X145146359Y-93480000D02*
X145453641Y-93480000D01*
%TO.C,U3*%
X148173369Y-100000000D02*
X148845120Y-99328249D01*
X148845120Y-100671751D02*
X148173369Y-100000000D01*
X154728249Y-93445120D02*
X153816081Y-92532952D01*
X154728249Y-106554880D02*
X155400000Y-107226631D01*
X155400000Y-92773369D02*
X154728249Y-93445120D01*
X155400000Y-107226631D02*
X156071751Y-106554880D01*
X156071751Y-93445120D02*
X155400000Y-92773369D01*
X161954880Y-99328249D02*
X162626631Y-100000000D01*
X162626631Y-100000000D02*
X161954880Y-100671751D01*
%TO.C,C19*%
X138740000Y-89192164D02*
X138740000Y-89407836D01*
X139460000Y-89192164D02*
X139460000Y-89407836D01*
%TO.C,R18*%
X166520000Y-96946359D02*
X166520000Y-97253641D01*
X167280000Y-96946359D02*
X167280000Y-97253641D01*
%TO.C,R17*%
X155863641Y-108020000D02*
X155556359Y-108020000D01*
X155863641Y-108780000D02*
X155556359Y-108780000D01*
%TO.C,C16*%
X139807836Y-95140000D02*
X139592164Y-95140000D01*
X139807836Y-95860000D02*
X139592164Y-95860000D01*
%TO.C,C7*%
X147665010Y-93404457D02*
X147295543Y-93034990D01*
X148704457Y-92365010D02*
X148334990Y-91995543D01*
%TO.C,C3*%
X152219190Y-92128307D02*
X152371693Y-92280810D01*
X152728307Y-91619190D02*
X152880810Y-91771693D01*
%TO.C,C13*%
X143240000Y-103542164D02*
X143240000Y-103757836D01*
X143960000Y-103542164D02*
X143960000Y-103757836D01*
%TO.C,C10*%
X149369190Y-94121693D02*
X149521693Y-93969190D01*
X149878307Y-94630810D02*
X150030810Y-94478307D01*
%TO.C,D1*%
X146090000Y-108150000D02*
X146090000Y-109850000D01*
X146090000Y-108150000D02*
X148750000Y-108150000D01*
X146090000Y-109850000D02*
X148750000Y-109850000D01*
%TO.C,D10*%
X131150000Y-87750000D02*
X138450000Y-87750000D01*
X131150000Y-93250000D02*
X138450000Y-93250000D01*
X138450000Y-93250000D02*
X138450000Y-92100000D01*
%TO.C,R5*%
X145468641Y-93860000D02*
X145161359Y-93860000D01*
X145468641Y-94620000D02*
X145161359Y-94620000D01*
%TO.C,R8*%
X165420000Y-100253641D02*
X165420000Y-99946359D01*
X166180000Y-100253641D02*
X166180000Y-99946359D01*
%TO.C,R15*%
X147139940Y-97222659D02*
X146922659Y-97439940D01*
X147677341Y-97760060D02*
X147460060Y-97977341D01*
%TO.C,J1*%
X168600000Y-101980000D02*
X166800000Y-101980000D01*
X168600000Y-111320000D02*
X166800000Y-111320000D01*
X170700000Y-101980000D02*
X171850000Y-101980000D01*
X170700000Y-111320000D02*
X171850000Y-111320000D01*
%TO.C,D5*%
X149640000Y-111900000D02*
X149640000Y-113100000D01*
X151600000Y-111900000D02*
X149640000Y-111900000D01*
X151600000Y-113100000D02*
X149640000Y-113100000D01*
%TO.C,R20*%
X136627470Y-101902348D02*
X136627470Y-103356476D01*
X138447470Y-101902348D02*
X138447470Y-103356476D01*
%TO.C,R9*%
X160822659Y-104539940D02*
X161039940Y-104322659D01*
X161360060Y-105077341D02*
X161577341Y-104860060D01*
%TO.C,Y1*%
X152203984Y-90291421D02*
X153158579Y-91246016D01*
X153441421Y-89053984D02*
X154396016Y-90008579D01*
%TO.C,R1*%
X164320000Y-99946359D02*
X164320000Y-100253641D01*
X165080000Y-99946359D02*
X165080000Y-100253641D01*
%TO.C,D8*%
X162500000Y-103000000D02*
X162500000Y-104960000D01*
X162500000Y-104960000D02*
X163700000Y-104960000D01*
X163700000Y-103000000D02*
X163700000Y-104960000D01*
%TD*%
%LPC*%
D13*
%TO.C,C8*%
X158239411Y-107560589D03*
X157560589Y-108239411D03*
%TD*%
D14*
%TO.C,R11*%
X151700000Y-107390000D03*
X151700000Y-108410000D03*
%TD*%
%TO.C,R7*%
X166900000Y-99590000D03*
X166900000Y-100610000D03*
%TD*%
D15*
%TO.C,J5*%
X134450000Y-107300000D03*
D16*
X134450000Y-109300000D03*
%TD*%
D17*
%TO.C,C1*%
X136900000Y-112680000D03*
X136900000Y-111720000D03*
%TD*%
D18*
%TO.C,J3*%
X157000000Y-115025000D03*
X158000000Y-115025000D03*
X159000000Y-115025000D03*
X160000000Y-115025000D03*
D19*
X155700000Y-118900000D03*
X161300000Y-118900000D03*
%TD*%
D20*
%TO.C,D4*%
X151600000Y-109700000D03*
X151600000Y-111100000D03*
%TD*%
D21*
%TO.C,R3*%
X163600000Y-100610000D03*
X163600000Y-99590000D03*
%TD*%
D22*
%TO.C,SW1*%
X160200000Y-112900000D03*
X160200000Y-109700000D03*
X161800000Y-112900000D03*
X161800000Y-109700000D03*
%TD*%
D23*
%TO.C,H1*%
X165500000Y-115500000D03*
%TD*%
D17*
%TO.C,C9*%
X161000000Y-94780000D03*
X161000000Y-93820000D03*
%TD*%
D24*
%TO.C,R21*%
X137537470Y-97291912D03*
X137537470Y-94366912D03*
%TD*%
D25*
%TO.C,C18*%
X141450000Y-93950000D03*
X139550000Y-93950000D03*
%TD*%
D21*
%TO.C,R6*%
X160000000Y-94210000D03*
X160000000Y-93190000D03*
%TD*%
%TO.C,R16*%
X142800000Y-95410000D03*
X142800000Y-94390000D03*
%TD*%
D26*
%TO.C,U4*%
X141487500Y-101650000D03*
X141987500Y-101650000D03*
X142487500Y-101650000D03*
X142987500Y-101650000D03*
X143487500Y-101650000D03*
X143987500Y-101650000D03*
X144487500Y-101650000D03*
D27*
X145437500Y-100700000D03*
X145437500Y-100200000D03*
X145437500Y-99700000D03*
X145437500Y-99200000D03*
X145437500Y-98700000D03*
X145437500Y-98200000D03*
X145437500Y-97700000D03*
D26*
X144487500Y-96750000D03*
X143987500Y-96750000D03*
X143487500Y-96750000D03*
X142987500Y-96750000D03*
X142487500Y-96750000D03*
X141987500Y-96750000D03*
X141487500Y-96750000D03*
D27*
X140537500Y-97700000D03*
X140537500Y-98200000D03*
X140537500Y-98700000D03*
X140537500Y-99200000D03*
X140537500Y-99700000D03*
X140537500Y-100200000D03*
X140537500Y-100700000D03*
D28*
X142987500Y-99200000D03*
%TD*%
D29*
%TO.C,J6*%
X156600000Y-85750000D03*
X155600000Y-85750000D03*
X154600000Y-85750000D03*
X153600000Y-85750000D03*
X152600000Y-85750000D03*
X151600000Y-85750000D03*
X150600000Y-85750000D03*
X149600000Y-85750000D03*
X148600000Y-85750000D03*
X147600000Y-85750000D03*
X146600000Y-85750000D03*
X145600000Y-85750000D03*
X144600000Y-85750000D03*
X143600000Y-85750000D03*
D30*
X159590000Y-82950000D03*
X140610000Y-82950000D03*
%TD*%
D31*
%TO.C,C14*%
X146600000Y-102520000D03*
X146600000Y-103480000D03*
%TD*%
D32*
%TO.C,U5*%
X142937500Y-90250000D03*
X142937500Y-89300000D03*
X142937500Y-88350000D03*
X140662500Y-88350000D03*
X140662500Y-90250000D03*
%TD*%
D15*
%TO.C,J2*%
X134432353Y-96229412D03*
D16*
X134432353Y-98229412D03*
X134432353Y-100229412D03*
X134432353Y-102229412D03*
%TD*%
D31*
%TO.C,C4*%
X137200000Y-118120000D03*
X137200000Y-119080000D03*
%TD*%
D33*
%TO.C,R19*%
X147010000Y-106300000D03*
X145990000Y-106300000D03*
%TD*%
D34*
%TO.C,C17*%
X140180000Y-102850000D03*
X139220000Y-102850000D03*
%TD*%
D35*
%TO.C,L1*%
X162625000Y-95300000D03*
X164200000Y-95300000D03*
%TD*%
D21*
%TO.C,R13*%
X165800000Y-97610000D03*
X165800000Y-96590000D03*
%TD*%
D36*
%TO.C,U2*%
X139000000Y-113850000D03*
X139000000Y-116150000D03*
D37*
X145300000Y-116150000D03*
D36*
X139000000Y-118450000D03*
%TD*%
D13*
%TO.C,C2*%
X155639411Y-91460589D03*
X154960589Y-92139411D03*
%TD*%
D38*
%TO.C,R10*%
X159239376Y-106460624D03*
X159960624Y-105739376D03*
%TD*%
D39*
%TO.C,C5*%
X162250000Y-93400000D03*
X164150000Y-93400000D03*
%TD*%
D14*
%TO.C,R12*%
X153600000Y-108990000D03*
X153600000Y-110010000D03*
%TD*%
D40*
%TO.C,D7*%
X163000000Y-107100000D03*
X161600000Y-107100000D03*
%TD*%
D23*
%TO.C,H4*%
X165500000Y-84500000D03*
%TD*%
D41*
%TO.C,C21*%
X143900000Y-108950000D03*
X138300000Y-108950000D03*
%TD*%
D35*
%TO.C,D9*%
X148312500Y-106500000D03*
X149887500Y-106500000D03*
%TD*%
D31*
%TO.C,C12*%
X164700000Y-96620000D03*
X164700000Y-97580000D03*
%TD*%
D33*
%TO.C,R2*%
X162010000Y-108400000D03*
X160990000Y-108400000D03*
%TD*%
D18*
%TO.C,J4*%
X149100000Y-115000000D03*
X150100000Y-115000000D03*
X151100000Y-115000000D03*
X152100000Y-115000000D03*
D19*
X147800000Y-118875000D03*
X153400000Y-118875000D03*
%TD*%
D42*
%TO.C,D2*%
X145650000Y-111300000D03*
X148950000Y-111300000D03*
%TD*%
D43*
%TO.C,C11*%
X148910589Y-103660589D03*
X149589411Y-104339411D03*
%TD*%
D21*
%TO.C,R14*%
X163600000Y-97610000D03*
X163600000Y-96590000D03*
%TD*%
D44*
%TO.C,D6*%
X166900000Y-95187500D03*
X166900000Y-93612500D03*
%TD*%
D45*
%TO.C,SW2*%
X158700000Y-111400000D03*
X155500000Y-111400000D03*
X158700000Y-109800000D03*
X155500000Y-109800000D03*
%TD*%
D25*
%TO.C,C20*%
X141450000Y-104400000D03*
X139550000Y-104400000D03*
%TD*%
D31*
%TO.C,C6*%
X165500000Y-94020000D03*
X165500000Y-94980000D03*
%TD*%
D17*
%TO.C,C15*%
X144800000Y-104180000D03*
X144800000Y-103220000D03*
%TD*%
D20*
%TO.C,D3*%
X153600000Y-111300000D03*
X153600000Y-112700000D03*
%TD*%
D46*
%TO.C,R4*%
X144790000Y-93100000D03*
X145810000Y-93100000D03*
%TD*%
D47*
%TO.C,U3*%
X154047658Y-93344357D03*
X153694105Y-93697911D03*
X153340551Y-94051464D03*
X152986998Y-94405018D03*
X152633445Y-94758571D03*
X152279891Y-95112124D03*
X151926338Y-95465678D03*
X151572785Y-95819231D03*
X151219231Y-96172785D03*
X150865678Y-96526338D03*
X150512124Y-96879891D03*
X150158571Y-97233445D03*
X149805018Y-97586998D03*
X149451464Y-97940551D03*
X149097911Y-98294105D03*
X148744357Y-98647658D03*
D48*
X148744357Y-101352342D03*
X149097911Y-101705895D03*
X149451464Y-102059449D03*
X149805018Y-102413002D03*
X150158571Y-102766555D03*
X150512124Y-103120109D03*
X150865678Y-103473662D03*
X151219231Y-103827215D03*
X151572785Y-104180769D03*
X151926338Y-104534322D03*
X152279891Y-104887876D03*
X152633445Y-105241429D03*
X152986998Y-105594982D03*
X153340551Y-105948536D03*
X153694105Y-106302089D03*
X154047658Y-106655643D03*
D47*
X156752342Y-106655643D03*
X157105895Y-106302089D03*
X157459449Y-105948536D03*
X157813002Y-105594982D03*
X158166555Y-105241429D03*
X158520109Y-104887876D03*
X158873662Y-104534322D03*
X159227215Y-104180769D03*
X159580769Y-103827215D03*
X159934322Y-103473662D03*
X160287876Y-103120109D03*
X160641429Y-102766555D03*
X160994982Y-102413002D03*
X161348536Y-102059449D03*
X161702089Y-101705895D03*
X162055643Y-101352342D03*
D48*
X162055643Y-98647658D03*
X161702089Y-98294105D03*
X161348536Y-97940551D03*
X160994982Y-97586998D03*
X160641429Y-97233445D03*
X160287876Y-96879891D03*
X159934322Y-96526338D03*
X159580769Y-96172785D03*
X159227215Y-95819231D03*
X158873662Y-95465678D03*
X158520109Y-95112124D03*
X158166555Y-94758571D03*
X157813002Y-94405018D03*
X157459449Y-94051464D03*
X157105895Y-93697911D03*
X156752342Y-93344357D03*
%TD*%
D31*
%TO.C,C19*%
X139100000Y-88820000D03*
X139100000Y-89780000D03*
%TD*%
D14*
%TO.C,R18*%
X166900000Y-96590000D03*
X166900000Y-97610000D03*
%TD*%
D33*
%TO.C,R17*%
X156220000Y-108400000D03*
X155200000Y-108400000D03*
%TD*%
D34*
%TO.C,C16*%
X140180000Y-95500000D03*
X139220000Y-95500000D03*
%TD*%
D49*
%TO.C,C7*%
X148671751Y-93371751D03*
X147328249Y-92028249D03*
%TD*%
D43*
%TO.C,C3*%
X152210589Y-91610589D03*
X152889411Y-92289411D03*
%TD*%
D31*
%TO.C,C13*%
X143600000Y-103170000D03*
X143600000Y-104130000D03*
%TD*%
D23*
%TO.C,H3*%
X134500000Y-84500000D03*
%TD*%
D50*
%TO.C,C10*%
X149360589Y-94639411D03*
X150039411Y-93960589D03*
%TD*%
D51*
%TO.C,D1*%
X146600000Y-109000000D03*
X148800000Y-109000000D03*
%TD*%
D52*
%TO.C,D10*%
X132350000Y-88850000D03*
X132350000Y-92150000D03*
X137250000Y-92150000D03*
X137250000Y-88850000D03*
%TD*%
D33*
%TO.C,R5*%
X145825000Y-94240000D03*
X144805000Y-94240000D03*
%TD*%
D21*
%TO.C,R8*%
X165800000Y-100610000D03*
X165800000Y-99590000D03*
%TD*%
D53*
%TO.C,R15*%
X147660624Y-97239376D03*
X146939376Y-97960624D03*
%TD*%
D54*
%TO.C,J1*%
X165995000Y-109540000D03*
X165995000Y-103760000D03*
D55*
X164920000Y-109850000D03*
X164920000Y-109050000D03*
D56*
X164920000Y-107900000D03*
X164920000Y-106900000D03*
X164920000Y-106400000D03*
X164920000Y-105400000D03*
D55*
X164920000Y-104250000D03*
X164920000Y-103450000D03*
X164920000Y-103450000D03*
X164920000Y-104250000D03*
D56*
X164920000Y-104900000D03*
X164920000Y-105900000D03*
X164920000Y-107400000D03*
X164920000Y-108400000D03*
D55*
X164920000Y-109050000D03*
X164920000Y-109850000D03*
D57*
X165495000Y-110970000D03*
D58*
X169675000Y-110970000D03*
D57*
X165495000Y-102330000D03*
D58*
X169675000Y-102330000D03*
%TD*%
D59*
%TO.C,D5*%
X150200000Y-112500000D03*
X151600000Y-112500000D03*
%TD*%
D60*
%TO.C,R20*%
X137537470Y-101166912D03*
X137537470Y-104091912D03*
%TD*%
D38*
%TO.C,R9*%
X160839376Y-105060624D03*
X161560624Y-104339376D03*
%TD*%
D23*
%TO.C,H2*%
X134500000Y-115500000D03*
%TD*%
D61*
%TO.C,Y1*%
X154183883Y-91033883D03*
X152416117Y-89266117D03*
%TD*%
D14*
%TO.C,R1*%
X164700000Y-99590000D03*
X164700000Y-100610000D03*
%TD*%
D62*
%TO.C,D8*%
X163100000Y-104400000D03*
X163100000Y-103000000D03*
%TD*%
%LPD*%
M02*
