%TF.GenerationSoftware,KiCad,Pcbnew,8.0.3*%
%TF.CreationDate,2024-10-19T15:47:34-04:00*%
%TF.ProjectId,Axis_Basic,41786973-5f42-4617-9369-632e6b696361,rev?*%
%TF.SameCoordinates,Original*%
%TF.FileFunction,Copper,L3,Inr*%
%TF.FilePolarity,Positive*%
%FSLAX46Y46*%
G04 Gerber Fmt 4.6, Leading zero omitted, Abs format (unit mm)*
G04 Created by KiCad (PCBNEW 8.0.3) date 2024-10-19 15:47:34*
%MOMM*%
%LPD*%
G01*
G04 APERTURE LIST*
G04 Aperture macros list*
%AMRoundRect*
0 Rectangle with rounded corners*
0 $1 Rounding radius*
0 $2 $3 $4 $5 $6 $7 $8 $9 X,Y pos of 4 corners*
0 Add a 4 corners polygon primitive as box body*
4,1,4,$2,$3,$4,$5,$6,$7,$8,$9,$2,$3,0*
0 Add four circle primitives for the rounded corners*
1,1,$1+$1,$2,$3*
1,1,$1+$1,$4,$5*
1,1,$1+$1,$6,$7*
1,1,$1+$1,$8,$9*
0 Add four rect primitives between the rounded corners*
20,1,$1+$1,$2,$3,$4,$5,0*
20,1,$1+$1,$4,$5,$6,$7,0*
20,1,$1+$1,$6,$7,$8,$9,0*
20,1,$1+$1,$8,$9,$2,$3,0*%
G04 Aperture macros list end*
%TA.AperFunction,ComponentPad*%
%ADD10RoundRect,0.250000X-0.625000X0.350000X-0.625000X-0.350000X0.625000X-0.350000X0.625000X0.350000X0*%
%TD*%
%TA.AperFunction,ComponentPad*%
%ADD11O,1.750000X1.200000*%
%TD*%
%TA.AperFunction,ComponentPad*%
%ADD12C,5.500000*%
%TD*%
%TA.AperFunction,ComponentPad*%
%ADD13C,0.500000*%
%TD*%
%TA.AperFunction,ComponentPad*%
%ADD14O,2.100000X1.000000*%
%TD*%
%TA.AperFunction,ComponentPad*%
%ADD15O,1.800000X1.000000*%
%TD*%
%TA.AperFunction,ViaPad*%
%ADD16C,0.700000*%
%TD*%
%TA.AperFunction,ViaPad*%
%ADD17C,0.800000*%
%TD*%
%TA.AperFunction,ViaPad*%
%ADD18C,0.450000*%
%TD*%
G04 APERTURE END LIST*
D10*
%TO.N,GND*%
%TO.C,J5*%
X134450000Y-107300000D03*
D11*
%TO.N,VCC*%
X134450000Y-109300000D03*
%TD*%
D12*
%TO.N,N/C*%
%TO.C,H1*%
X165500000Y-115500000D03*
%TD*%
D13*
%TO.N,GND*%
%TO.C,U4*%
X141987500Y-100200000D03*
X142987500Y-100200000D03*
X143987500Y-100200000D03*
X141987500Y-99200000D03*
X142987500Y-99200000D03*
X143987500Y-99200000D03*
X141987500Y-98200000D03*
X142987500Y-98200000D03*
X143987500Y-98200000D03*
%TD*%
D10*
%TO.N,MOTOR_A2*%
%TO.C,J2*%
X134432353Y-96229412D03*
D11*
%TO.N,MOTOR_A1*%
X134432353Y-98229412D03*
%TO.N,MOTOR_B1*%
X134432353Y-100229412D03*
%TO.N,MOTOR_B2*%
X134432353Y-102229412D03*
%TD*%
D12*
%TO.N,N/C*%
%TO.C,H4*%
X165500000Y-84500000D03*
%TD*%
%TO.N,N/C*%
%TO.C,H3*%
X134500000Y-84500000D03*
%TD*%
D14*
%TO.N,Net-(J1-SHIELD)*%
%TO.C,J1*%
X165495000Y-110970000D03*
D15*
X169675000Y-110970000D03*
D14*
X165495000Y-102330000D03*
D15*
X169675000Y-102330000D03*
%TD*%
D12*
%TO.N,N/C*%
%TO.C,H2*%
X134500000Y-115500000D03*
%TD*%
D16*
%TO.N,+3.3V*%
X152600000Y-99100000D03*
D17*
X154100000Y-108000000D03*
D16*
X143600000Y-84100000D03*
X150900000Y-88700000D03*
X158900000Y-108500000D03*
X140700000Y-118200000D03*
X142100000Y-119000000D03*
X147700000Y-94500000D03*
X143600000Y-83200000D03*
X141200000Y-119000000D03*
X163600000Y-98600000D03*
D17*
X166800000Y-92400000D03*
D16*
X143000000Y-119000000D03*
D17*
X150200000Y-108200000D03*
D16*
X147769514Y-103541417D03*
X141700000Y-118200000D03*
X145500000Y-96800000D03*
X143600000Y-82300000D03*
X161751818Y-94639465D03*
X159971014Y-92300000D03*
%TO.N,GND*%
X154000000Y-80000000D03*
D17*
X142900000Y-93500000D03*
D16*
X138000000Y-120000000D03*
X160000000Y-120000000D03*
X130000000Y-116000000D03*
X134000000Y-80000000D03*
X152600000Y-100000000D03*
X134000000Y-120000000D03*
X144000000Y-80000000D03*
X170000000Y-97000000D03*
X170000000Y-115000000D03*
X164700000Y-98600000D03*
X170000000Y-85000000D03*
X130000000Y-88000000D03*
X150000000Y-120000000D03*
X136000000Y-80000000D03*
X158000000Y-120000000D03*
X137200000Y-90900000D03*
X162000000Y-80000000D03*
X152000000Y-80000000D03*
X138000000Y-80000000D03*
X141800000Y-117100000D03*
X156300000Y-92400000D03*
X130000000Y-92100000D03*
X145200000Y-107200000D03*
X170000000Y-87000000D03*
X159400000Y-98100000D03*
X140800000Y-115500000D03*
X142000000Y-80000000D03*
X160000000Y-108400000D03*
X130000000Y-114000000D03*
X137900000Y-106300000D03*
X130000000Y-96000000D03*
X160900000Y-92300000D03*
X164050000Y-101500000D03*
X158000000Y-80000000D03*
X130000000Y-102000000D03*
X170000000Y-101000000D03*
X170000000Y-95000000D03*
X130000000Y-84000000D03*
X139400000Y-107000000D03*
X145100000Y-92028249D03*
X138400000Y-107000000D03*
X147906974Y-111300000D03*
X150000000Y-80000000D03*
X130000000Y-90100000D03*
X136000000Y-120000000D03*
X146000000Y-80000000D03*
X170000000Y-99000000D03*
X162600000Y-100800000D03*
X130000000Y-98000000D03*
X141800000Y-115500000D03*
X146609266Y-104179912D03*
X170000000Y-93000000D03*
X138600000Y-92100000D03*
X170000000Y-105000000D03*
X130000000Y-108000000D03*
X130000000Y-106000000D03*
X164000000Y-80000000D03*
X138100000Y-112100000D03*
X156000000Y-114500000D03*
X130000000Y-86000000D03*
X166000000Y-80000000D03*
X152000000Y-120000000D03*
X156600000Y-82300000D03*
X140000000Y-80000000D03*
X141300000Y-116300000D03*
X130000000Y-110000000D03*
X156600000Y-84100000D03*
X138900000Y-106300000D03*
X157100000Y-108750000D03*
X142800000Y-115500000D03*
X156000000Y-80000000D03*
X148000000Y-80000000D03*
X170000000Y-91000000D03*
X156600000Y-83200000D03*
X136900000Y-106300000D03*
X165500000Y-92900000D03*
X170000000Y-107000000D03*
X142300000Y-116300000D03*
X147682338Y-99407146D03*
X149600000Y-116500000D03*
X137400000Y-107000000D03*
X170000000Y-109000000D03*
X151400000Y-90800000D03*
X170000000Y-113000000D03*
X170000000Y-89000000D03*
X163900000Y-110400000D03*
X154800000Y-112300000D03*
X160000000Y-80000000D03*
X130000000Y-100000000D03*
X138300000Y-90900000D03*
%TO.N,RESET*%
X162600000Y-97000000D03*
%TO.N,NEOPIX*%
X146800000Y-89100000D03*
X138000000Y-86900000D03*
D18*
%TO.N,MOTOR_A2*%
X141400000Y-95450000D03*
X140900000Y-95700000D03*
X141400000Y-96000000D03*
X140900000Y-96300000D03*
%TO.N,MOTOR_B2*%
X141399970Y-103000000D03*
X140899970Y-102100000D03*
X141399970Y-102400000D03*
X140899970Y-102700000D03*
D16*
%TO.N,SWDIO*%
X157000000Y-96300000D03*
%TO.N,SWCLK*%
X157925000Y-97300111D03*
%TO.N,VUSB_sense*%
X166950000Y-101600000D03*
X161072702Y-100427298D03*
%TO.N,Net-(R13-Pad1)*%
X165900000Y-98600000D03*
X161800000Y-111300000D03*
%TO.N,SCL1*%
X153700000Y-101400000D03*
X145600000Y-88100000D03*
%TO.N,SDA1*%
X144600000Y-88000000D03*
X152790379Y-101390382D03*
%TO.N,EN*%
X145300000Y-105479412D03*
X142363000Y-102900000D03*
%TO.N,VCC*%
X141600000Y-91700000D03*
X140700000Y-92550000D03*
X140650000Y-105800000D03*
X140650000Y-106650000D03*
X141600000Y-92550000D03*
X141550000Y-105800000D03*
X141550000Y-106650000D03*
X140700000Y-91700000D03*
%TO.N,AUX6*%
X143900000Y-91800000D03*
X143900000Y-94900000D03*
%TO.N,SYNC*%
X154700000Y-105200000D03*
X150100000Y-113700000D03*
%TD*%
%TA.AperFunction,Conductor*%
%TO.N,VCC*%
G36*
X142043039Y-91019685D02*
G01*
X142088794Y-91072489D01*
X142100000Y-91124000D01*
X142100000Y-93250700D01*
X142080315Y-93317739D01*
X142066150Y-93335841D01*
X140400000Y-95099999D01*
X140400000Y-102000000D01*
X140473989Y-102160311D01*
X140483875Y-102192873D01*
X140490251Y-102233126D01*
X140507446Y-102266874D01*
X140546594Y-102343705D01*
X140559490Y-102412374D01*
X140546594Y-102456294D01*
X140490249Y-102566876D01*
X140469166Y-102699997D01*
X140469166Y-102700002D01*
X140490249Y-102833121D01*
X140490250Y-102833124D01*
X140490251Y-102833126D01*
X140551442Y-102953220D01*
X140551443Y-102953221D01*
X140551446Y-102953225D01*
X140646744Y-103048523D01*
X140646748Y-103048526D01*
X140646750Y-103048528D01*
X140766844Y-103109719D01*
X140766846Y-103109719D01*
X140766848Y-103109720D01*
X140858209Y-103124190D01*
X140921344Y-103154119D01*
X140951399Y-103194700D01*
X142718786Y-107024037D01*
X142729007Y-107093155D01*
X142700237Y-107156826D01*
X142641611Y-107194836D01*
X142606199Y-107200000D01*
X140070314Y-107200000D01*
X140003275Y-107180315D01*
X139957520Y-107127511D01*
X139947375Y-107059814D01*
X139955250Y-107000000D01*
X139955250Y-106999999D01*
X139953048Y-106983280D01*
X139936330Y-106856291D01*
X139880861Y-106722375D01*
X139792621Y-106607379D01*
X139677625Y-106519139D01*
X139677624Y-106519138D01*
X139677622Y-106519137D01*
X139543707Y-106463669D01*
X139542479Y-106463340D01*
X139541560Y-106462779D01*
X139536201Y-106460560D01*
X139536547Y-106459723D01*
X139482822Y-106426969D01*
X139452299Y-106364119D01*
X139451645Y-106327382D01*
X139455250Y-106300000D01*
X139455250Y-106299999D01*
X139453048Y-106283280D01*
X139436330Y-106156291D01*
X139380861Y-106022375D01*
X139292621Y-105907379D01*
X139177625Y-105819139D01*
X139177624Y-105819138D01*
X139177622Y-105819137D01*
X139043712Y-105763671D01*
X139043710Y-105763670D01*
X139043709Y-105763670D01*
X138971854Y-105754210D01*
X138900001Y-105744750D01*
X138899999Y-105744750D01*
X138756291Y-105763670D01*
X138756287Y-105763671D01*
X138622377Y-105819137D01*
X138564877Y-105863259D01*
X138507379Y-105907379D01*
X138507378Y-105907380D01*
X138507377Y-105907381D01*
X138498375Y-105919113D01*
X138441947Y-105960316D01*
X138372201Y-105964470D01*
X138311281Y-105930257D01*
X138301625Y-105919113D01*
X138292621Y-105907379D01*
X138292620Y-105907378D01*
X138248513Y-105873533D01*
X138207310Y-105817105D01*
X138200000Y-105775158D01*
X138200000Y-93749998D01*
X138219685Y-93682959D01*
X138234680Y-93663986D01*
X140763419Y-91037988D01*
X140824100Y-91003353D01*
X140852739Y-91000000D01*
X141976000Y-91000000D01*
X142043039Y-91019685D01*
G37*
%TD.AperFunction*%
%TD*%
%TA.AperFunction,Conductor*%
%TO.N,+3.3V*%
G36*
X165500642Y-79000007D02*
G01*
X165735302Y-79002565D01*
X165744734Y-79003029D01*
X166212846Y-79043984D01*
X166223567Y-79045396D01*
X166685664Y-79126875D01*
X166696192Y-79129209D01*
X167149458Y-79250661D01*
X167159747Y-79253906D01*
X167600688Y-79414395D01*
X167610654Y-79418523D01*
X168035926Y-79616830D01*
X168045512Y-79621821D01*
X168451866Y-79856429D01*
X168460981Y-79862235D01*
X168657729Y-80000000D01*
X168845353Y-80131376D01*
X168853935Y-80137962D01*
X169213370Y-80439564D01*
X169221345Y-80446872D01*
X169553127Y-80778654D01*
X169560435Y-80786629D01*
X169862037Y-81146064D01*
X169868623Y-81154646D01*
X170137761Y-81539014D01*
X170143573Y-81548138D01*
X170378176Y-81954483D01*
X170383171Y-81964078D01*
X170581470Y-82389331D01*
X170585610Y-82399326D01*
X170746089Y-82840239D01*
X170749342Y-82850555D01*
X170870786Y-83303790D01*
X170873127Y-83314352D01*
X170954603Y-83776432D01*
X170956015Y-83787156D01*
X170996969Y-84255252D01*
X170997434Y-84264708D01*
X170999993Y-84499357D01*
X171000000Y-84500709D01*
X171000000Y-102130651D01*
X170980315Y-102197690D01*
X170927511Y-102243445D01*
X170858353Y-102253389D01*
X170794797Y-102224364D01*
X170757023Y-102165586D01*
X170754383Y-102154843D01*
X170748581Y-102125677D01*
X170748580Y-102125676D01*
X170748580Y-102125672D01*
X170748578Y-102125667D01*
X170695778Y-101998195D01*
X170695771Y-101998182D01*
X170619114Y-101883458D01*
X170619111Y-101883454D01*
X170521545Y-101785888D01*
X170521541Y-101785885D01*
X170406817Y-101709228D01*
X170406808Y-101709223D01*
X170328062Y-101676606D01*
X170273659Y-101632765D01*
X170251594Y-101566471D01*
X170268873Y-101498772D01*
X170300027Y-101463671D01*
X170392621Y-101392621D01*
X170480861Y-101277625D01*
X170536330Y-101143709D01*
X170555250Y-101000000D01*
X170536330Y-100856291D01*
X170480861Y-100722375D01*
X170392621Y-100607379D01*
X170277625Y-100519139D01*
X170277624Y-100519138D01*
X170277622Y-100519137D01*
X170143712Y-100463671D01*
X170143710Y-100463670D01*
X170143709Y-100463670D01*
X170071854Y-100454210D01*
X170000001Y-100444750D01*
X169999999Y-100444750D01*
X169856291Y-100463670D01*
X169856287Y-100463671D01*
X169722377Y-100519137D01*
X169607379Y-100607379D01*
X169519137Y-100722377D01*
X169463671Y-100856287D01*
X169463670Y-100856291D01*
X169449539Y-100963628D01*
X169444750Y-101000000D01*
X169455758Y-101083616D01*
X169463670Y-101143708D01*
X169463671Y-101143712D01*
X169519137Y-101277622D01*
X169519138Y-101277624D01*
X169519139Y-101277625D01*
X169607379Y-101392621D01*
X169616995Y-101400000D01*
X169626280Y-101407124D01*
X169667483Y-101463552D01*
X169671638Y-101533298D01*
X169637426Y-101594218D01*
X169575708Y-101626971D01*
X169550794Y-101629500D01*
X169206005Y-101629500D01*
X169070677Y-101656418D01*
X169070667Y-101656421D01*
X168943195Y-101709221D01*
X168943182Y-101709228D01*
X168828458Y-101785885D01*
X168828454Y-101785888D01*
X168730888Y-101883454D01*
X168730885Y-101883458D01*
X168654228Y-101998182D01*
X168654221Y-101998195D01*
X168601421Y-102125667D01*
X168601418Y-102125677D01*
X168574500Y-102261004D01*
X168574500Y-102261007D01*
X168574500Y-102398993D01*
X168574500Y-102398995D01*
X168574499Y-102398995D01*
X168601418Y-102534322D01*
X168601421Y-102534332D01*
X168654221Y-102661804D01*
X168654228Y-102661817D01*
X168730885Y-102776541D01*
X168730888Y-102776545D01*
X168828454Y-102874111D01*
X168828458Y-102874114D01*
X168943182Y-102950771D01*
X168943195Y-102950778D01*
X169059977Y-102999150D01*
X169070672Y-103003580D01*
X169070676Y-103003580D01*
X169070677Y-103003581D01*
X169206004Y-103030500D01*
X169206007Y-103030500D01*
X170143995Y-103030500D01*
X170235041Y-103012389D01*
X170279328Y-103003580D01*
X170406811Y-102950775D01*
X170521542Y-102874114D01*
X170619114Y-102776542D01*
X170695775Y-102661811D01*
X170699334Y-102653220D01*
X170739914Y-102555250D01*
X170748580Y-102534328D01*
X170754383Y-102505157D01*
X170786768Y-102443246D01*
X170847483Y-102408672D01*
X170917253Y-102412411D01*
X170973925Y-102453278D01*
X170999506Y-102518296D01*
X171000000Y-102529348D01*
X171000000Y-110770651D01*
X170980315Y-110837690D01*
X170927511Y-110883445D01*
X170858353Y-110893389D01*
X170794797Y-110864364D01*
X170757023Y-110805586D01*
X170754383Y-110794843D01*
X170748581Y-110765677D01*
X170748580Y-110765676D01*
X170748580Y-110765672D01*
X170712109Y-110677622D01*
X170695778Y-110638195D01*
X170695771Y-110638182D01*
X170619114Y-110523458D01*
X170619111Y-110523454D01*
X170521545Y-110425888D01*
X170521541Y-110425885D01*
X170406817Y-110349228D01*
X170406804Y-110349221D01*
X170279332Y-110296421D01*
X170279322Y-110296418D01*
X170143995Y-110269500D01*
X170143993Y-110269500D01*
X169206007Y-110269500D01*
X169206005Y-110269500D01*
X169070677Y-110296418D01*
X169070667Y-110296421D01*
X168943195Y-110349221D01*
X168943182Y-110349228D01*
X168828458Y-110425885D01*
X168828454Y-110425888D01*
X168730888Y-110523454D01*
X168730885Y-110523458D01*
X168654228Y-110638182D01*
X168654221Y-110638195D01*
X168601421Y-110765667D01*
X168601418Y-110765677D01*
X168574500Y-110901004D01*
X168574500Y-110901007D01*
X168574500Y-111038993D01*
X168574500Y-111038995D01*
X168574499Y-111038995D01*
X168601418Y-111174322D01*
X168601421Y-111174332D01*
X168654221Y-111301804D01*
X168654228Y-111301817D01*
X168730885Y-111416541D01*
X168730888Y-111416545D01*
X168828454Y-111514111D01*
X168828458Y-111514114D01*
X168943182Y-111590771D01*
X168943195Y-111590778D01*
X169070667Y-111643578D01*
X169070672Y-111643580D01*
X169070676Y-111643580D01*
X169070677Y-111643581D01*
X169206004Y-111670500D01*
X169206007Y-111670500D01*
X170143995Y-111670500D01*
X170235041Y-111652389D01*
X170279328Y-111643580D01*
X170406811Y-111590775D01*
X170521542Y-111514114D01*
X170619114Y-111416542D01*
X170695775Y-111301811D01*
X170748580Y-111174328D01*
X170754383Y-111145157D01*
X170786768Y-111083246D01*
X170847483Y-111048672D01*
X170917253Y-111052411D01*
X170973925Y-111093278D01*
X170999506Y-111158296D01*
X171000000Y-111169348D01*
X171000000Y-115499290D01*
X170999993Y-115500642D01*
X170997434Y-115735291D01*
X170996969Y-115744747D01*
X170956015Y-116212843D01*
X170954603Y-116223567D01*
X170873127Y-116685647D01*
X170870786Y-116696209D01*
X170749342Y-117149444D01*
X170746089Y-117159760D01*
X170585610Y-117600673D01*
X170581470Y-117610668D01*
X170383171Y-118035921D01*
X170378176Y-118045516D01*
X170143573Y-118451861D01*
X170137761Y-118460985D01*
X169868623Y-118845353D01*
X169862037Y-118853935D01*
X169560435Y-119213370D01*
X169553127Y-119221345D01*
X169221345Y-119553127D01*
X169213370Y-119560435D01*
X168853935Y-119862037D01*
X168845353Y-119868623D01*
X168460985Y-120137761D01*
X168451861Y-120143573D01*
X168045516Y-120378176D01*
X168035921Y-120383171D01*
X167610668Y-120581470D01*
X167600673Y-120585610D01*
X167159760Y-120746089D01*
X167149444Y-120749342D01*
X166696209Y-120870786D01*
X166685647Y-120873127D01*
X166223567Y-120954603D01*
X166212843Y-120956015D01*
X165744747Y-120996969D01*
X165735291Y-120997434D01*
X165500642Y-120999993D01*
X165499290Y-121000000D01*
X134500710Y-121000000D01*
X134499358Y-120999993D01*
X134264708Y-120997434D01*
X134255252Y-120996969D01*
X133787156Y-120956015D01*
X133776432Y-120954603D01*
X133314352Y-120873127D01*
X133303790Y-120870786D01*
X132850555Y-120749342D01*
X132840239Y-120746089D01*
X132399326Y-120585610D01*
X132389331Y-120581470D01*
X131964078Y-120383171D01*
X131954483Y-120378176D01*
X131548138Y-120143573D01*
X131539014Y-120137761D01*
X131342270Y-119999999D01*
X133444750Y-119999999D01*
X133444750Y-120000000D01*
X133463670Y-120143708D01*
X133463671Y-120143712D01*
X133519137Y-120277622D01*
X133519138Y-120277624D01*
X133519139Y-120277625D01*
X133607379Y-120392621D01*
X133722375Y-120480861D01*
X133856291Y-120536330D01*
X133983280Y-120553048D01*
X133999999Y-120555250D01*
X134000000Y-120555250D01*
X134000001Y-120555250D01*
X134014977Y-120553278D01*
X134143709Y-120536330D01*
X134277625Y-120480861D01*
X134392621Y-120392621D01*
X134480861Y-120277625D01*
X134536330Y-120143709D01*
X134555250Y-120000000D01*
X134555250Y-119999999D01*
X135444750Y-119999999D01*
X135444750Y-120000000D01*
X135463670Y-120143708D01*
X135463671Y-120143712D01*
X135519137Y-120277622D01*
X135519138Y-120277624D01*
X135519139Y-120277625D01*
X135607379Y-120392621D01*
X135722375Y-120480861D01*
X135856291Y-120536330D01*
X135983280Y-120553048D01*
X135999999Y-120555250D01*
X136000000Y-120555250D01*
X136000001Y-120555250D01*
X136014977Y-120553278D01*
X136143709Y-120536330D01*
X136277625Y-120480861D01*
X136392621Y-120392621D01*
X136480861Y-120277625D01*
X136536330Y-120143709D01*
X136555250Y-120000000D01*
X136555250Y-119999999D01*
X137444750Y-119999999D01*
X137444750Y-120000000D01*
X137463670Y-120143708D01*
X137463671Y-120143712D01*
X137519137Y-120277622D01*
X137519138Y-120277624D01*
X137519139Y-120277625D01*
X137607379Y-120392621D01*
X137722375Y-120480861D01*
X137856291Y-120536330D01*
X137983280Y-120553048D01*
X137999999Y-120555250D01*
X138000000Y-120555250D01*
X138000001Y-120555250D01*
X138014977Y-120553278D01*
X138143709Y-120536330D01*
X138277625Y-120480861D01*
X138392621Y-120392621D01*
X138480861Y-120277625D01*
X138536330Y-120143709D01*
X138555250Y-120000000D01*
X138555250Y-119999999D01*
X149444750Y-119999999D01*
X149444750Y-120000000D01*
X149463670Y-120143708D01*
X149463671Y-120143712D01*
X149519137Y-120277622D01*
X149519138Y-120277624D01*
X149519139Y-120277625D01*
X149607379Y-120392621D01*
X149722375Y-120480861D01*
X149856291Y-120536330D01*
X149983280Y-120553048D01*
X149999999Y-120555250D01*
X150000000Y-120555250D01*
X150000001Y-120555250D01*
X150014977Y-120553278D01*
X150143709Y-120536330D01*
X150277625Y-120480861D01*
X150392621Y-120392621D01*
X150480861Y-120277625D01*
X150536330Y-120143709D01*
X150555250Y-120000000D01*
X150555250Y-119999999D01*
X151444750Y-119999999D01*
X151444750Y-120000000D01*
X151463670Y-120143708D01*
X151463671Y-120143712D01*
X151519137Y-120277622D01*
X151519138Y-120277624D01*
X151519139Y-120277625D01*
X151607379Y-120392621D01*
X151722375Y-120480861D01*
X151856291Y-120536330D01*
X151983280Y-120553048D01*
X151999999Y-120555250D01*
X152000000Y-120555250D01*
X152000001Y-120555250D01*
X152014977Y-120553278D01*
X152143709Y-120536330D01*
X152277625Y-120480861D01*
X152392621Y-120392621D01*
X152480861Y-120277625D01*
X152536330Y-120143709D01*
X152555250Y-120000000D01*
X152555250Y-119999999D01*
X157444750Y-119999999D01*
X157444750Y-120000000D01*
X157463670Y-120143708D01*
X157463671Y-120143712D01*
X157519137Y-120277622D01*
X157519138Y-120277624D01*
X157519139Y-120277625D01*
X157607379Y-120392621D01*
X157722375Y-120480861D01*
X157856291Y-120536330D01*
X157983280Y-120553048D01*
X157999999Y-120555250D01*
X158000000Y-120555250D01*
X158000001Y-120555250D01*
X158014977Y-120553278D01*
X158143709Y-120536330D01*
X158277625Y-120480861D01*
X158392621Y-120392621D01*
X158480861Y-120277625D01*
X158536330Y-120143709D01*
X158555250Y-120000000D01*
X158555250Y-119999999D01*
X159444750Y-119999999D01*
X159444750Y-120000000D01*
X159463670Y-120143708D01*
X159463671Y-120143712D01*
X159519137Y-120277622D01*
X159519138Y-120277624D01*
X159519139Y-120277625D01*
X159607379Y-120392621D01*
X159722375Y-120480861D01*
X159856291Y-120536330D01*
X159983280Y-120553048D01*
X159999999Y-120555250D01*
X160000000Y-120555250D01*
X160000001Y-120555250D01*
X160014977Y-120553278D01*
X160143709Y-120536330D01*
X160277625Y-120480861D01*
X160392621Y-120392621D01*
X160480861Y-120277625D01*
X160536330Y-120143709D01*
X160555250Y-120000000D01*
X160536330Y-119856291D01*
X160480861Y-119722375D01*
X160392621Y-119607379D01*
X160277625Y-119519139D01*
X160277624Y-119519138D01*
X160277622Y-119519137D01*
X160143712Y-119463671D01*
X160143710Y-119463670D01*
X160143709Y-119463670D01*
X160071854Y-119454210D01*
X160000001Y-119444750D01*
X159999999Y-119444750D01*
X159856291Y-119463670D01*
X159856287Y-119463671D01*
X159722377Y-119519137D01*
X159607379Y-119607379D01*
X159519137Y-119722377D01*
X159463671Y-119856287D01*
X159463670Y-119856291D01*
X159444750Y-119999999D01*
X158555250Y-119999999D01*
X158536330Y-119856291D01*
X158480861Y-119722375D01*
X158392621Y-119607379D01*
X158277625Y-119519139D01*
X158277624Y-119519138D01*
X158277622Y-119519137D01*
X158143712Y-119463671D01*
X158143710Y-119463670D01*
X158143709Y-119463670D01*
X158071854Y-119454210D01*
X158000001Y-119444750D01*
X157999999Y-119444750D01*
X157856291Y-119463670D01*
X157856287Y-119463671D01*
X157722377Y-119519137D01*
X157607379Y-119607379D01*
X157519137Y-119722377D01*
X157463671Y-119856287D01*
X157463670Y-119856291D01*
X157444750Y-119999999D01*
X152555250Y-119999999D01*
X152536330Y-119856291D01*
X152480861Y-119722375D01*
X152392621Y-119607379D01*
X152277625Y-119519139D01*
X152277624Y-119519138D01*
X152277622Y-119519137D01*
X152143712Y-119463671D01*
X152143710Y-119463670D01*
X152143709Y-119463670D01*
X152071854Y-119454210D01*
X152000001Y-119444750D01*
X151999999Y-119444750D01*
X151856291Y-119463670D01*
X151856287Y-119463671D01*
X151722377Y-119519137D01*
X151607379Y-119607379D01*
X151519137Y-119722377D01*
X151463671Y-119856287D01*
X151463670Y-119856291D01*
X151444750Y-119999999D01*
X150555250Y-119999999D01*
X150536330Y-119856291D01*
X150480861Y-119722375D01*
X150392621Y-119607379D01*
X150277625Y-119519139D01*
X150277624Y-119519138D01*
X150277622Y-119519137D01*
X150143712Y-119463671D01*
X150143710Y-119463670D01*
X150143709Y-119463670D01*
X150071854Y-119454210D01*
X150000001Y-119444750D01*
X149999999Y-119444750D01*
X149856291Y-119463670D01*
X149856287Y-119463671D01*
X149722377Y-119519137D01*
X149607379Y-119607379D01*
X149519137Y-119722377D01*
X149463671Y-119856287D01*
X149463670Y-119856291D01*
X149444750Y-119999999D01*
X138555250Y-119999999D01*
X138536330Y-119856291D01*
X138480861Y-119722375D01*
X138392621Y-119607379D01*
X138277625Y-119519139D01*
X138277624Y-119519138D01*
X138277622Y-119519137D01*
X138143712Y-119463671D01*
X138143710Y-119463670D01*
X138143709Y-119463670D01*
X138071854Y-119454210D01*
X138000001Y-119444750D01*
X137999999Y-119444750D01*
X137856291Y-119463670D01*
X137856287Y-119463671D01*
X137722377Y-119519137D01*
X137607379Y-119607379D01*
X137519137Y-119722377D01*
X137463671Y-119856287D01*
X137463670Y-119856291D01*
X137444750Y-119999999D01*
X136555250Y-119999999D01*
X136536330Y-119856291D01*
X136480861Y-119722375D01*
X136392621Y-119607379D01*
X136277625Y-119519139D01*
X136277624Y-119519138D01*
X136277622Y-119519137D01*
X136143712Y-119463671D01*
X136143710Y-119463670D01*
X136143709Y-119463670D01*
X136071854Y-119454210D01*
X136000001Y-119444750D01*
X135999999Y-119444750D01*
X135856291Y-119463670D01*
X135856287Y-119463671D01*
X135722377Y-119519137D01*
X135607379Y-119607379D01*
X135519137Y-119722377D01*
X135463671Y-119856287D01*
X135463670Y-119856291D01*
X135444750Y-119999999D01*
X134555250Y-119999999D01*
X134536330Y-119856291D01*
X134480861Y-119722375D01*
X134392621Y-119607379D01*
X134277625Y-119519139D01*
X134277624Y-119519138D01*
X134277622Y-119519137D01*
X134143712Y-119463671D01*
X134143710Y-119463670D01*
X134143709Y-119463670D01*
X134071854Y-119454210D01*
X134000001Y-119444750D01*
X133999999Y-119444750D01*
X133856291Y-119463670D01*
X133856287Y-119463671D01*
X133722377Y-119519137D01*
X133607379Y-119607379D01*
X133519137Y-119722377D01*
X133463671Y-119856287D01*
X133463670Y-119856291D01*
X133444750Y-119999999D01*
X131342270Y-119999999D01*
X131154646Y-119868623D01*
X131146064Y-119862037D01*
X130786629Y-119560435D01*
X130778654Y-119553127D01*
X130446872Y-119221345D01*
X130439564Y-119213370D01*
X130137962Y-118853935D01*
X130131376Y-118845353D01*
X129862238Y-118460985D01*
X129856426Y-118451861D01*
X129855640Y-118450500D01*
X129621821Y-118045512D01*
X129616828Y-118035921D01*
X129539771Y-117870672D01*
X129418523Y-117610654D01*
X129414395Y-117600688D01*
X129253906Y-117159747D01*
X129250661Y-117149458D01*
X129129209Y-116696192D01*
X129126875Y-116685664D01*
X129045396Y-116223567D01*
X129043984Y-116212843D01*
X129025362Y-115999999D01*
X129444750Y-115999999D01*
X129444750Y-116000000D01*
X129463670Y-116143708D01*
X129463671Y-116143712D01*
X129519137Y-116277622D01*
X129519138Y-116277624D01*
X129519139Y-116277625D01*
X129607379Y-116392621D01*
X129722375Y-116480861D01*
X129856291Y-116536330D01*
X129983280Y-116553048D01*
X129999999Y-116555250D01*
X130000000Y-116555250D01*
X130000001Y-116555250D01*
X130014977Y-116553278D01*
X130143709Y-116536330D01*
X130277625Y-116480861D01*
X130392621Y-116392621D01*
X130480861Y-116277625D01*
X130536330Y-116143709D01*
X130555250Y-116000000D01*
X130536330Y-115856291D01*
X130480861Y-115722375D01*
X130392621Y-115607379D01*
X130277625Y-115519139D01*
X130277624Y-115519138D01*
X130277622Y-115519137D01*
X130231410Y-115499996D01*
X131544500Y-115499996D01*
X131544500Y-115500003D01*
X131564484Y-115843113D01*
X131564485Y-115843124D01*
X131624163Y-116181575D01*
X131624166Y-116181588D01*
X131722737Y-116510840D01*
X131858865Y-116826417D01*
X131858871Y-116826430D01*
X132030716Y-117124075D01*
X132235952Y-117399755D01*
X132235957Y-117399761D01*
X132357767Y-117528871D01*
X132471813Y-117649753D01*
X132471819Y-117649758D01*
X132471821Y-117649760D01*
X132735093Y-117870672D01*
X132735098Y-117870675D01*
X133022250Y-118059538D01*
X133124329Y-118110804D01*
X133329378Y-118213785D01*
X133329384Y-118213787D01*
X133329386Y-118213788D01*
X133652353Y-118331338D01*
X133986783Y-118410599D01*
X134328153Y-118450500D01*
X134328160Y-118450500D01*
X134671840Y-118450500D01*
X134671847Y-118450500D01*
X135013217Y-118410599D01*
X135347647Y-118331338D01*
X135670614Y-118213788D01*
X135670617Y-118213786D01*
X135670621Y-118213785D01*
X135774487Y-118161620D01*
X135977750Y-118059538D01*
X136264902Y-117870675D01*
X136528187Y-117649753D01*
X136764044Y-117399759D01*
X136969284Y-117124074D01*
X137141131Y-116826426D01*
X137277262Y-116510841D01*
X137375834Y-116181585D01*
X137376959Y-116175208D01*
X137435514Y-115843124D01*
X137435513Y-115843124D01*
X137435516Y-115843113D01*
X137454385Y-115519139D01*
X137455500Y-115500003D01*
X137455500Y-115499999D01*
X140244750Y-115499999D01*
X140244750Y-115500000D01*
X140263670Y-115643708D01*
X140263671Y-115643712D01*
X140319137Y-115777622D01*
X140319138Y-115777624D01*
X140319139Y-115777625D01*
X140407379Y-115892621D01*
X140522375Y-115980861D01*
X140656291Y-116036330D01*
X140656297Y-116036330D01*
X140664141Y-116038433D01*
X140663673Y-116040176D01*
X140718319Y-116064348D01*
X140756792Y-116122671D01*
X140761179Y-116175208D01*
X140744750Y-116299997D01*
X140744750Y-116300000D01*
X140752160Y-116356287D01*
X140763670Y-116443708D01*
X140763671Y-116443712D01*
X140819137Y-116577622D01*
X140819138Y-116577624D01*
X140819139Y-116577625D01*
X140907379Y-116692621D01*
X141022375Y-116780861D01*
X141156291Y-116836330D01*
X141156297Y-116836330D01*
X141164141Y-116838433D01*
X141163673Y-116840176D01*
X141218319Y-116864348D01*
X141256792Y-116922671D01*
X141261179Y-116975208D01*
X141244750Y-117099997D01*
X141244750Y-117100000D01*
X141263670Y-117243708D01*
X141263671Y-117243712D01*
X141319137Y-117377622D01*
X141319138Y-117377624D01*
X141319139Y-117377625D01*
X141407379Y-117492621D01*
X141522375Y-117580861D01*
X141656291Y-117636330D01*
X141783280Y-117653048D01*
X141799999Y-117655250D01*
X141800000Y-117655250D01*
X141800001Y-117655250D01*
X141814977Y-117653278D01*
X141943709Y-117636330D01*
X142077625Y-117580861D01*
X142192621Y-117492621D01*
X142280861Y-117377625D01*
X142336330Y-117243709D01*
X142355250Y-117100000D01*
X142338820Y-116975206D01*
X142349585Y-116906174D01*
X142395965Y-116853918D01*
X142436138Y-116839476D01*
X142435859Y-116838433D01*
X142443700Y-116836331D01*
X142443709Y-116836330D01*
X142577625Y-116780861D01*
X142692621Y-116692621D01*
X142780861Y-116577625D01*
X142813014Y-116499999D01*
X149044750Y-116499999D01*
X149044750Y-116500000D01*
X149063670Y-116643708D01*
X149063671Y-116643712D01*
X149119137Y-116777622D01*
X149119138Y-116777624D01*
X149119139Y-116777625D01*
X149207379Y-116892621D01*
X149322375Y-116980861D01*
X149456291Y-117036330D01*
X149583280Y-117053048D01*
X149599999Y-117055250D01*
X149600000Y-117055250D01*
X149600001Y-117055250D01*
X149614977Y-117053278D01*
X149743709Y-117036330D01*
X149877625Y-116980861D01*
X149992621Y-116892621D01*
X150080861Y-116777625D01*
X150136330Y-116643709D01*
X150155250Y-116500000D01*
X150136330Y-116356291D01*
X150080861Y-116222375D01*
X149992621Y-116107379D01*
X149877625Y-116019139D01*
X149877624Y-116019138D01*
X149877622Y-116019137D01*
X149743712Y-115963671D01*
X149743710Y-115963670D01*
X149743709Y-115963670D01*
X149671854Y-115954210D01*
X149600001Y-115944750D01*
X149599999Y-115944750D01*
X149456291Y-115963670D01*
X149456287Y-115963671D01*
X149322377Y-116019137D01*
X149207379Y-116107379D01*
X149119137Y-116222377D01*
X149063671Y-116356287D01*
X149063670Y-116356291D01*
X149044750Y-116499999D01*
X142813014Y-116499999D01*
X142836330Y-116443709D01*
X142855250Y-116300000D01*
X142838820Y-116175206D01*
X142849585Y-116106174D01*
X142895965Y-116053918D01*
X142936138Y-116039476D01*
X142935859Y-116038433D01*
X142943700Y-116036331D01*
X142943709Y-116036330D01*
X143077625Y-115980861D01*
X143192621Y-115892621D01*
X143280861Y-115777625D01*
X143336330Y-115643709D01*
X143355250Y-115500000D01*
X143355249Y-115499996D01*
X162544500Y-115499996D01*
X162544500Y-115500003D01*
X162564484Y-115843113D01*
X162564485Y-115843124D01*
X162624163Y-116181575D01*
X162624166Y-116181588D01*
X162722737Y-116510840D01*
X162858865Y-116826417D01*
X162858871Y-116826430D01*
X163030716Y-117124075D01*
X163235952Y-117399755D01*
X163235957Y-117399761D01*
X163357767Y-117528871D01*
X163471813Y-117649753D01*
X163471819Y-117649758D01*
X163471821Y-117649760D01*
X163735093Y-117870672D01*
X163735098Y-117870675D01*
X164022250Y-118059538D01*
X164124329Y-118110804D01*
X164329378Y-118213785D01*
X164329384Y-118213787D01*
X164329386Y-118213788D01*
X164652353Y-118331338D01*
X164986783Y-118410599D01*
X165328153Y-118450500D01*
X165328160Y-118450500D01*
X165671840Y-118450500D01*
X165671847Y-118450500D01*
X166013217Y-118410599D01*
X166347647Y-118331338D01*
X166670614Y-118213788D01*
X166670617Y-118213786D01*
X166670621Y-118213785D01*
X166774487Y-118161620D01*
X166977750Y-118059538D01*
X167264902Y-117870675D01*
X167528187Y-117649753D01*
X167764044Y-117399759D01*
X167969284Y-117124074D01*
X168141131Y-116826426D01*
X168277262Y-116510841D01*
X168375834Y-116181585D01*
X168376959Y-116175208D01*
X168435514Y-115843124D01*
X168435513Y-115843124D01*
X168435516Y-115843113D01*
X168454385Y-115519139D01*
X168455500Y-115500003D01*
X168455500Y-115499996D01*
X168447130Y-115356291D01*
X168435516Y-115156887D01*
X168433192Y-115143708D01*
X168407852Y-114999999D01*
X169444750Y-114999999D01*
X169444750Y-115000000D01*
X169463670Y-115143708D01*
X169463671Y-115143712D01*
X169519137Y-115277622D01*
X169519138Y-115277624D01*
X169519139Y-115277625D01*
X169607379Y-115392621D01*
X169722375Y-115480861D01*
X169856291Y-115536330D01*
X169983280Y-115553048D01*
X169999999Y-115555250D01*
X170000000Y-115555250D01*
X170000001Y-115555250D01*
X170014977Y-115553278D01*
X170143709Y-115536330D01*
X170277625Y-115480861D01*
X170392621Y-115392621D01*
X170480861Y-115277625D01*
X170536330Y-115143709D01*
X170555250Y-115000000D01*
X170536330Y-114856291D01*
X170480861Y-114722375D01*
X170392621Y-114607379D01*
X170277625Y-114519139D01*
X170277624Y-114519138D01*
X170277622Y-114519137D01*
X170143712Y-114463671D01*
X170143710Y-114463670D01*
X170143709Y-114463670D01*
X170071854Y-114454210D01*
X170000001Y-114444750D01*
X169999999Y-114444750D01*
X169856291Y-114463670D01*
X169856287Y-114463671D01*
X169722377Y-114519137D01*
X169607379Y-114607379D01*
X169519137Y-114722377D01*
X169463671Y-114856287D01*
X169463670Y-114856291D01*
X169444750Y-114999999D01*
X168407852Y-114999999D01*
X168375836Y-114818424D01*
X168375833Y-114818411D01*
X168277262Y-114489159D01*
X168219946Y-114356287D01*
X168141131Y-114173574D01*
X167969284Y-113875926D01*
X167969283Y-113875924D01*
X167764047Y-113600244D01*
X167764042Y-113600238D01*
X167596236Y-113422375D01*
X167528187Y-113350247D01*
X167528180Y-113350241D01*
X167528178Y-113350239D01*
X167264906Y-113129327D01*
X167068273Y-113000000D01*
X167068271Y-112999999D01*
X169444750Y-112999999D01*
X169444750Y-113000000D01*
X169463670Y-113143708D01*
X169463671Y-113143712D01*
X169519137Y-113277622D01*
X169519138Y-113277624D01*
X169519139Y-113277625D01*
X169607379Y-113392621D01*
X169722375Y-113480861D01*
X169856291Y-113536330D01*
X169983280Y-113553048D01*
X169999999Y-113555250D01*
X170000000Y-113555250D01*
X170000001Y-113555250D01*
X170014977Y-113553278D01*
X170143709Y-113536330D01*
X170277625Y-113480861D01*
X170392621Y-113392621D01*
X170480861Y-113277625D01*
X170536330Y-113143709D01*
X170555250Y-113000000D01*
X170536330Y-112856291D01*
X170480861Y-112722375D01*
X170392621Y-112607379D01*
X170277625Y-112519139D01*
X170277624Y-112519138D01*
X170277622Y-112519137D01*
X170143712Y-112463671D01*
X170143710Y-112463670D01*
X170143709Y-112463670D01*
X170071854Y-112454210D01*
X170000001Y-112444750D01*
X169999999Y-112444750D01*
X169856291Y-112463670D01*
X169856287Y-112463671D01*
X169722377Y-112519137D01*
X169607379Y-112607379D01*
X169519137Y-112722377D01*
X169463671Y-112856287D01*
X169463670Y-112856291D01*
X169444750Y-112999999D01*
X167068271Y-112999999D01*
X166977750Y-112940462D01*
X166975956Y-112939561D01*
X166670621Y-112786214D01*
X166670615Y-112786212D01*
X166347648Y-112668662D01*
X166347645Y-112668661D01*
X166013218Y-112589401D01*
X165940162Y-112580862D01*
X165671847Y-112549500D01*
X165328153Y-112549500D01*
X165059838Y-112580862D01*
X164986782Y-112589401D01*
X164986780Y-112589401D01*
X164652354Y-112668661D01*
X164652351Y-112668662D01*
X164329384Y-112786212D01*
X164329378Y-112786214D01*
X164022253Y-112940460D01*
X163735093Y-113129327D01*
X163471821Y-113350239D01*
X163471811Y-113350249D01*
X163235957Y-113600238D01*
X163235952Y-113600244D01*
X163030716Y-113875924D01*
X162858871Y-114173569D01*
X162858865Y-114173582D01*
X162722737Y-114489159D01*
X162624166Y-114818411D01*
X162624163Y-114818424D01*
X162564485Y-115156875D01*
X162564484Y-115156886D01*
X162544500Y-115499996D01*
X143355249Y-115499996D01*
X143347976Y-115444750D01*
X143336330Y-115356291D01*
X143280861Y-115222375D01*
X143192621Y-115107379D01*
X143077625Y-115019139D01*
X143077624Y-115019138D01*
X143077622Y-115019137D01*
X142943712Y-114963671D01*
X142943710Y-114963670D01*
X142943709Y-114963670D01*
X142871854Y-114954210D01*
X142800001Y-114944750D01*
X142799999Y-114944750D01*
X142656291Y-114963670D01*
X142656287Y-114963671D01*
X142522377Y-115019137D01*
X142499971Y-115036330D01*
X142407379Y-115107379D01*
X142407378Y-115107380D01*
X142407377Y-115107381D01*
X142398375Y-115119113D01*
X142341947Y-115160316D01*
X142272201Y-115164470D01*
X142211281Y-115130257D01*
X142201625Y-115119113D01*
X142199782Y-115116711D01*
X142192621Y-115107379D01*
X142077625Y-115019139D01*
X142077624Y-115019138D01*
X142077622Y-115019137D01*
X141943712Y-114963671D01*
X141943710Y-114963670D01*
X141943709Y-114963670D01*
X141871854Y-114954210D01*
X141800001Y-114944750D01*
X141799999Y-114944750D01*
X141656291Y-114963670D01*
X141656287Y-114963671D01*
X141522377Y-115019137D01*
X141499971Y-115036330D01*
X141407379Y-115107379D01*
X141407378Y-115107380D01*
X141407377Y-115107381D01*
X141398375Y-115119113D01*
X141341947Y-115160316D01*
X141272201Y-115164470D01*
X141211281Y-115130257D01*
X141201625Y-115119113D01*
X141199782Y-115116711D01*
X141192621Y-115107379D01*
X141077625Y-115019139D01*
X141077624Y-115019138D01*
X141077622Y-115019137D01*
X140943712Y-114963671D01*
X140943710Y-114963670D01*
X140943709Y-114963670D01*
X140871854Y-114954210D01*
X140800001Y-114944750D01*
X140799999Y-114944750D01*
X140656291Y-114963670D01*
X140656287Y-114963671D01*
X140522377Y-115019137D01*
X140407379Y-115107379D01*
X140319137Y-115222377D01*
X140263671Y-115356287D01*
X140263670Y-115356291D01*
X140244750Y-115499999D01*
X137455500Y-115499999D01*
X137455500Y-115499996D01*
X137447130Y-115356291D01*
X137435516Y-115156887D01*
X137433192Y-115143708D01*
X137375836Y-114818424D01*
X137375833Y-114818411D01*
X137280507Y-114499999D01*
X155444750Y-114499999D01*
X155444750Y-114500000D01*
X155463670Y-114643708D01*
X155463671Y-114643712D01*
X155519137Y-114777622D01*
X155519138Y-114777624D01*
X155519139Y-114777625D01*
X155607379Y-114892621D01*
X155722375Y-114980861D01*
X155856291Y-115036330D01*
X155983280Y-115053048D01*
X155999999Y-115055250D01*
X156000000Y-115055250D01*
X156000001Y-115055250D01*
X156014977Y-115053278D01*
X156143709Y-115036330D01*
X156277625Y-114980861D01*
X156392621Y-114892621D01*
X156480861Y-114777625D01*
X156536330Y-114643709D01*
X156555250Y-114500000D01*
X156536330Y-114356291D01*
X156486641Y-114236329D01*
X156480862Y-114222377D01*
X156480861Y-114222376D01*
X156480861Y-114222375D01*
X156392621Y-114107379D01*
X156277625Y-114019139D01*
X156277624Y-114019138D01*
X156277622Y-114019137D01*
X156143712Y-113963671D01*
X156143710Y-113963670D01*
X156143709Y-113963670D01*
X156071854Y-113954210D01*
X156000001Y-113944750D01*
X155999999Y-113944750D01*
X155856291Y-113963670D01*
X155856287Y-113963671D01*
X155722377Y-114019137D01*
X155607379Y-114107379D01*
X155519137Y-114222377D01*
X155463671Y-114356287D01*
X155463670Y-114356291D01*
X155444750Y-114499999D01*
X137280507Y-114499999D01*
X137277262Y-114489159D01*
X137219946Y-114356287D01*
X137141131Y-114173574D01*
X136969284Y-113875926D01*
X136969283Y-113875924D01*
X136838312Y-113699999D01*
X149544750Y-113699999D01*
X149544750Y-113700000D01*
X149563670Y-113843708D01*
X149563671Y-113843712D01*
X149619137Y-113977622D01*
X149619138Y-113977624D01*
X149619139Y-113977625D01*
X149707379Y-114092621D01*
X149822375Y-114180861D01*
X149956291Y-114236330D01*
X150083280Y-114253048D01*
X150099999Y-114255250D01*
X150100000Y-114255250D01*
X150100001Y-114255250D01*
X150114977Y-114253278D01*
X150243709Y-114236330D01*
X150377625Y-114180861D01*
X150492621Y-114092621D01*
X150580861Y-113977625D01*
X150636330Y-113843709D01*
X150655250Y-113700000D01*
X150636330Y-113556291D01*
X150580861Y-113422375D01*
X150492621Y-113307379D01*
X150377625Y-113219139D01*
X150377624Y-113219138D01*
X150377622Y-113219137D01*
X150243712Y-113163671D01*
X150243710Y-113163670D01*
X150243709Y-113163670D01*
X150171854Y-113154210D01*
X150100001Y-113144750D01*
X150099999Y-113144750D01*
X149956291Y-113163670D01*
X149956287Y-113163671D01*
X149822377Y-113219137D01*
X149707379Y-113307379D01*
X149619137Y-113422377D01*
X149563671Y-113556287D01*
X149563670Y-113556291D01*
X149544750Y-113699999D01*
X136838312Y-113699999D01*
X136764047Y-113600244D01*
X136764042Y-113600238D01*
X136596236Y-113422375D01*
X136528187Y-113350247D01*
X136528180Y-113350241D01*
X136528178Y-113350239D01*
X136264906Y-113129327D01*
X136068273Y-113000000D01*
X135977750Y-112940462D01*
X135975956Y-112939561D01*
X135670621Y-112786214D01*
X135670615Y-112786212D01*
X135347648Y-112668662D01*
X135347645Y-112668661D01*
X135013218Y-112589401D01*
X134940162Y-112580862D01*
X134671847Y-112549500D01*
X134328153Y-112549500D01*
X134059838Y-112580862D01*
X133986782Y-112589401D01*
X133986780Y-112589401D01*
X133652354Y-112668661D01*
X133652351Y-112668662D01*
X133329384Y-112786212D01*
X133329378Y-112786214D01*
X133022253Y-112940460D01*
X132735093Y-113129327D01*
X132471821Y-113350239D01*
X132471811Y-113350249D01*
X132235957Y-113600238D01*
X132235952Y-113600244D01*
X132030716Y-113875924D01*
X131858871Y-114173569D01*
X131858865Y-114173582D01*
X131722737Y-114489159D01*
X131624166Y-114818411D01*
X131624163Y-114818424D01*
X131564485Y-115156875D01*
X131564484Y-115156886D01*
X131544500Y-115499996D01*
X130231410Y-115499996D01*
X130143712Y-115463671D01*
X130143710Y-115463670D01*
X130143709Y-115463670D01*
X130071854Y-115454210D01*
X130000001Y-115444750D01*
X129999999Y-115444750D01*
X129856291Y-115463670D01*
X129856287Y-115463671D01*
X129722377Y-115519137D01*
X129607379Y-115607379D01*
X129519137Y-115722377D01*
X129463671Y-115856287D01*
X129463670Y-115856291D01*
X129444750Y-115999999D01*
X129025362Y-115999999D01*
X129003029Y-115744734D01*
X129002565Y-115735291D01*
X129002424Y-115722377D01*
X129000007Y-115500642D01*
X129000000Y-115499290D01*
X129000000Y-113999999D01*
X129444750Y-113999999D01*
X129444750Y-114000000D01*
X129463670Y-114143708D01*
X129463671Y-114143712D01*
X129519137Y-114277622D01*
X129519138Y-114277624D01*
X129519139Y-114277625D01*
X129607379Y-114392621D01*
X129722375Y-114480861D01*
X129856291Y-114536330D01*
X129983280Y-114553048D01*
X129999999Y-114555250D01*
X130000000Y-114555250D01*
X130000001Y-114555250D01*
X130014977Y-114553278D01*
X130143709Y-114536330D01*
X130277625Y-114480861D01*
X130392621Y-114392621D01*
X130480861Y-114277625D01*
X130536330Y-114143709D01*
X130555250Y-114000000D01*
X130536330Y-113856291D01*
X130480861Y-113722375D01*
X130392621Y-113607379D01*
X130277625Y-113519139D01*
X130277624Y-113519138D01*
X130277622Y-113519137D01*
X130143712Y-113463671D01*
X130143710Y-113463670D01*
X130143709Y-113463670D01*
X130071854Y-113454210D01*
X130000001Y-113444750D01*
X129999999Y-113444750D01*
X129856291Y-113463670D01*
X129856287Y-113463671D01*
X129722377Y-113519137D01*
X129607379Y-113607379D01*
X129519137Y-113722377D01*
X129463671Y-113856287D01*
X129463670Y-113856291D01*
X129444750Y-113999999D01*
X129000000Y-113999999D01*
X129000000Y-112100000D01*
X137544750Y-112100000D01*
X137552160Y-112156287D01*
X137563670Y-112243708D01*
X137563671Y-112243712D01*
X137619137Y-112377622D01*
X137619138Y-112377624D01*
X137619139Y-112377625D01*
X137707379Y-112492621D01*
X137822375Y-112580861D01*
X137822376Y-112580861D01*
X137822377Y-112580862D01*
X137867013Y-112599350D01*
X137956291Y-112636330D01*
X138083280Y-112653048D01*
X138099999Y-112655250D01*
X138100000Y-112655250D01*
X138100001Y-112655250D01*
X138114977Y-112653278D01*
X138243709Y-112636330D01*
X138377625Y-112580861D01*
X138492621Y-112492621D01*
X138580861Y-112377625D01*
X138613014Y-112299999D01*
X154244750Y-112299999D01*
X154244750Y-112300000D01*
X154263670Y-112443708D01*
X154263671Y-112443712D01*
X154319137Y-112577622D01*
X154319138Y-112577624D01*
X154319139Y-112577625D01*
X154407379Y-112692621D01*
X154522375Y-112780861D01*
X154522376Y-112780861D01*
X154522377Y-112780862D01*
X154535298Y-112786214D01*
X154656291Y-112836330D01*
X154783280Y-112853048D01*
X154799999Y-112855250D01*
X154800000Y-112855250D01*
X154800001Y-112855250D01*
X154814977Y-112853278D01*
X154943709Y-112836330D01*
X155077625Y-112780861D01*
X155192621Y-112692621D01*
X155280861Y-112577625D01*
X155336330Y-112443709D01*
X155355250Y-112300000D01*
X155336330Y-112156291D01*
X155280861Y-112022375D01*
X155192621Y-111907379D01*
X155077625Y-111819139D01*
X155077624Y-111819138D01*
X155077622Y-111819137D01*
X154943712Y-111763671D01*
X154943710Y-111763670D01*
X154943709Y-111763670D01*
X154871854Y-111754210D01*
X154800001Y-111744750D01*
X154799999Y-111744750D01*
X154656291Y-111763670D01*
X154656287Y-111763671D01*
X154522377Y-111819137D01*
X154407379Y-111907379D01*
X154319137Y-112022377D01*
X154263671Y-112156287D01*
X154263670Y-112156291D01*
X154244750Y-112299999D01*
X138613014Y-112299999D01*
X138636330Y-112243709D01*
X138655250Y-112100000D01*
X138636330Y-111956291D01*
X138586641Y-111836329D01*
X138580862Y-111822377D01*
X138580861Y-111822376D01*
X138580861Y-111822375D01*
X138492621Y-111707379D01*
X138377625Y-111619139D01*
X138377624Y-111619138D01*
X138377622Y-111619137D01*
X138243712Y-111563671D01*
X138243710Y-111563670D01*
X138243709Y-111563670D01*
X138171854Y-111554210D01*
X138100001Y-111544750D01*
X138099999Y-111544750D01*
X137956291Y-111563670D01*
X137956287Y-111563671D01*
X137822377Y-111619137D01*
X137707379Y-111707379D01*
X137619137Y-111822377D01*
X137563671Y-111956287D01*
X137563670Y-111956291D01*
X137544750Y-112100000D01*
X129000000Y-112100000D01*
X129000000Y-111299999D01*
X147351724Y-111299999D01*
X147351724Y-111300000D01*
X147370644Y-111443708D01*
X147370645Y-111443712D01*
X147426111Y-111577622D01*
X147426112Y-111577624D01*
X147426113Y-111577625D01*
X147514353Y-111692621D01*
X147629349Y-111780861D01*
X147763265Y-111836330D01*
X147890254Y-111853048D01*
X147906973Y-111855250D01*
X147906974Y-111855250D01*
X147906975Y-111855250D01*
X147921951Y-111853278D01*
X148050683Y-111836330D01*
X148184599Y-111780861D01*
X148299595Y-111692621D01*
X148387835Y-111577625D01*
X148443304Y-111443709D01*
X148462224Y-111300000D01*
X148462224Y-111299999D01*
X161244750Y-111299999D01*
X161244750Y-111300000D01*
X161263670Y-111443708D01*
X161263671Y-111443712D01*
X161319137Y-111577622D01*
X161319138Y-111577624D01*
X161319139Y-111577625D01*
X161407379Y-111692621D01*
X161522375Y-111780861D01*
X161656291Y-111836330D01*
X161783280Y-111853048D01*
X161799999Y-111855250D01*
X161800000Y-111855250D01*
X161800001Y-111855250D01*
X161814977Y-111853278D01*
X161943709Y-111836330D01*
X162077625Y-111780861D01*
X162192621Y-111692621D01*
X162280861Y-111577625D01*
X162336330Y-111443709D01*
X162355250Y-111300000D01*
X162336330Y-111156291D01*
X162287639Y-111038738D01*
X162280862Y-111022377D01*
X162280861Y-111022376D01*
X162280861Y-111022375D01*
X162192621Y-110907379D01*
X162077625Y-110819139D01*
X162077624Y-110819138D01*
X162077622Y-110819137D01*
X161943712Y-110763671D01*
X161943710Y-110763670D01*
X161943709Y-110763670D01*
X161871854Y-110754210D01*
X161800001Y-110744750D01*
X161799999Y-110744750D01*
X161656291Y-110763670D01*
X161656287Y-110763671D01*
X161522377Y-110819137D01*
X161407379Y-110907379D01*
X161319137Y-111022377D01*
X161263671Y-111156287D01*
X161263670Y-111156291D01*
X161244750Y-111299999D01*
X148462224Y-111299999D01*
X148443304Y-111156291D01*
X148394613Y-111038738D01*
X148387836Y-111022377D01*
X148387835Y-111022376D01*
X148387835Y-111022375D01*
X148299595Y-110907379D01*
X148184599Y-110819139D01*
X148184598Y-110819138D01*
X148184596Y-110819137D01*
X148050686Y-110763671D01*
X148050684Y-110763670D01*
X148050683Y-110763670D01*
X147978828Y-110754210D01*
X147906975Y-110744750D01*
X147906973Y-110744750D01*
X147763265Y-110763670D01*
X147763261Y-110763671D01*
X147629351Y-110819137D01*
X147514353Y-110907379D01*
X147426111Y-111022377D01*
X147370645Y-111156287D01*
X147370644Y-111156291D01*
X147351724Y-111299999D01*
X129000000Y-111299999D01*
X129000000Y-110000000D01*
X129444750Y-110000000D01*
X129455283Y-110080008D01*
X129463670Y-110143708D01*
X129463671Y-110143712D01*
X129519137Y-110277622D01*
X129519138Y-110277624D01*
X129519139Y-110277625D01*
X129607379Y-110392621D01*
X129722375Y-110480861D01*
X129856291Y-110536330D01*
X129983280Y-110553048D01*
X129999999Y-110555250D01*
X130000000Y-110555250D01*
X130000001Y-110555250D01*
X130014977Y-110553278D01*
X130143709Y-110536330D01*
X130277625Y-110480861D01*
X130383005Y-110400000D01*
X163344750Y-110400000D01*
X163362698Y-110536329D01*
X163363670Y-110543708D01*
X163363671Y-110543712D01*
X163419137Y-110677622D01*
X163419138Y-110677624D01*
X163419139Y-110677625D01*
X163507379Y-110792621D01*
X163622375Y-110880861D01*
X163756291Y-110936330D01*
X163883280Y-110953048D01*
X163899999Y-110955250D01*
X163900000Y-110955250D01*
X163900001Y-110955250D01*
X163935927Y-110950520D01*
X164043709Y-110936330D01*
X164073050Y-110924176D01*
X164142515Y-110916708D01*
X164204995Y-110947982D01*
X164240648Y-111008071D01*
X164243772Y-111032945D01*
X164243903Y-111032933D01*
X164244382Y-111037803D01*
X164244500Y-111038738D01*
X164244500Y-111038993D01*
X164244500Y-111038995D01*
X164244499Y-111038995D01*
X164271418Y-111174322D01*
X164271421Y-111174332D01*
X164324221Y-111301804D01*
X164324228Y-111301817D01*
X164400885Y-111416541D01*
X164400888Y-111416545D01*
X164498454Y-111514111D01*
X164498458Y-111514114D01*
X164613182Y-111590771D01*
X164613195Y-111590778D01*
X164740667Y-111643578D01*
X164740672Y-111643580D01*
X164740676Y-111643580D01*
X164740677Y-111643581D01*
X164876004Y-111670500D01*
X164876007Y-111670500D01*
X166113995Y-111670500D01*
X166205041Y-111652389D01*
X166249328Y-111643580D01*
X166376811Y-111590775D01*
X166491542Y-111514114D01*
X166589114Y-111416542D01*
X166665775Y-111301811D01*
X166718580Y-111174328D01*
X166734702Y-111093278D01*
X166745500Y-111038995D01*
X166745500Y-110901004D01*
X166718581Y-110765677D01*
X166718580Y-110765676D01*
X166718580Y-110765672D01*
X166682109Y-110677622D01*
X166665778Y-110638195D01*
X166665771Y-110638182D01*
X166589114Y-110523458D01*
X166589111Y-110523454D01*
X166491545Y-110425888D01*
X166491541Y-110425885D01*
X166376817Y-110349228D01*
X166376804Y-110349221D01*
X166245536Y-110294849D01*
X166191132Y-110251008D01*
X166169067Y-110184714D01*
X166186346Y-110117015D01*
X166230988Y-110072901D01*
X166246917Y-110063703D01*
X166350821Y-110003715D01*
X166458715Y-109895821D01*
X166535008Y-109763678D01*
X166574500Y-109616293D01*
X166574500Y-109463707D01*
X166535008Y-109316322D01*
X166517691Y-109286329D01*
X166458717Y-109184182D01*
X166458712Y-109184176D01*
X166350823Y-109076287D01*
X166350817Y-109076282D01*
X166218693Y-109000000D01*
X169444750Y-109000000D01*
X169453505Y-109066503D01*
X169463670Y-109143708D01*
X169463671Y-109143712D01*
X169519137Y-109277622D01*
X169519138Y-109277624D01*
X169519139Y-109277625D01*
X169607379Y-109392621D01*
X169722375Y-109480861D01*
X169856291Y-109536330D01*
X169983280Y-109553048D01*
X169999999Y-109555250D01*
X170000000Y-109555250D01*
X170000001Y-109555250D01*
X170014977Y-109553278D01*
X170143709Y-109536330D01*
X170277625Y-109480861D01*
X170392621Y-109392621D01*
X170480861Y-109277625D01*
X170536330Y-109143709D01*
X170555250Y-109000000D01*
X170536330Y-108856291D01*
X170499350Y-108767013D01*
X170480862Y-108722377D01*
X170480861Y-108722376D01*
X170480861Y-108722375D01*
X170392621Y-108607379D01*
X170277625Y-108519139D01*
X170277624Y-108519138D01*
X170277622Y-108519137D01*
X170143712Y-108463671D01*
X170143710Y-108463670D01*
X170143709Y-108463670D01*
X170071854Y-108454210D01*
X170000001Y-108444750D01*
X169999999Y-108444750D01*
X169856291Y-108463670D01*
X169856287Y-108463671D01*
X169722377Y-108519137D01*
X169607379Y-108607379D01*
X169519137Y-108722377D01*
X169463671Y-108856287D01*
X169463670Y-108856291D01*
X169450642Y-108955250D01*
X169444750Y-109000000D01*
X166218693Y-109000000D01*
X166218681Y-108999993D01*
X166218682Y-108999993D01*
X166206595Y-108996754D01*
X166071293Y-108960500D01*
X165918707Y-108960500D01*
X165783404Y-108996754D01*
X165771318Y-108999993D01*
X165639182Y-109076282D01*
X165639176Y-109076287D01*
X165531287Y-109184176D01*
X165531282Y-109184182D01*
X165454993Y-109316318D01*
X165454992Y-109316322D01*
X165415500Y-109463707D01*
X165415500Y-109616293D01*
X165454992Y-109763678D01*
X165454993Y-109763681D01*
X165531282Y-109895817D01*
X165531284Y-109895819D01*
X165531285Y-109895821D01*
X165639179Y-110003715D01*
X165698758Y-110038113D01*
X165746973Y-110088681D01*
X165760195Y-110157288D01*
X165734227Y-110222152D01*
X165677313Y-110262680D01*
X165636757Y-110269500D01*
X164876005Y-110269500D01*
X164740677Y-110296418D01*
X164740667Y-110296421D01*
X164607560Y-110351556D01*
X164606599Y-110349236D01*
X164548928Y-110361213D01*
X164483697Y-110336179D01*
X164442355Y-110279853D01*
X164438517Y-110264118D01*
X164438433Y-110264141D01*
X164436330Y-110256297D01*
X164436330Y-110256291D01*
X164380861Y-110122375D01*
X164292621Y-110007379D01*
X164177625Y-109919139D01*
X164177624Y-109919138D01*
X164177622Y-109919137D01*
X164043712Y-109863671D01*
X164043710Y-109863670D01*
X164043709Y-109863670D01*
X163971854Y-109854210D01*
X163900001Y-109844750D01*
X163899999Y-109844750D01*
X163756291Y-109863670D01*
X163756287Y-109863671D01*
X163622377Y-109919137D01*
X163507379Y-110007379D01*
X163419137Y-110122377D01*
X163363671Y-110256287D01*
X163363670Y-110256291D01*
X163345722Y-110392620D01*
X163344750Y-110400000D01*
X130383005Y-110400000D01*
X130392621Y-110392621D01*
X130480861Y-110277625D01*
X130536330Y-110143709D01*
X130555250Y-110000000D01*
X130536330Y-109856291D01*
X130480861Y-109722375D01*
X130392621Y-109607379D01*
X130277625Y-109519139D01*
X130277624Y-109519138D01*
X130277622Y-109519137D01*
X130143712Y-109463671D01*
X130143710Y-109463670D01*
X130143709Y-109463670D01*
X130071854Y-109454210D01*
X130000001Y-109444750D01*
X129999999Y-109444750D01*
X129856291Y-109463670D01*
X129856287Y-109463671D01*
X129722377Y-109519137D01*
X129607379Y-109607379D01*
X129519137Y-109722377D01*
X129463671Y-109856287D01*
X129463670Y-109856291D01*
X129444750Y-110000000D01*
X129000000Y-110000000D01*
X129000000Y-109221153D01*
X133374500Y-109221153D01*
X133374500Y-109378846D01*
X133405261Y-109533489D01*
X133405264Y-109533501D01*
X133465602Y-109679172D01*
X133465609Y-109679185D01*
X133553210Y-109810288D01*
X133553213Y-109810292D01*
X133664707Y-109921786D01*
X133664711Y-109921789D01*
X133795814Y-110009390D01*
X133795827Y-110009397D01*
X133865155Y-110038113D01*
X133941503Y-110069737D01*
X134096153Y-110100499D01*
X134096156Y-110100500D01*
X134096158Y-110100500D01*
X134803844Y-110100500D01*
X134803845Y-110100499D01*
X134958497Y-110069737D01*
X135104179Y-110009394D01*
X135235289Y-109921789D01*
X135346789Y-109810289D01*
X135434394Y-109679179D01*
X135494737Y-109533497D01*
X135525500Y-109378842D01*
X135525500Y-109221158D01*
X135525500Y-109221155D01*
X135525499Y-109221153D01*
X135496683Y-109076287D01*
X135494737Y-109066503D01*
X135494735Y-109066498D01*
X135434397Y-108920827D01*
X135434390Y-108920814D01*
X135346789Y-108789711D01*
X135346786Y-108789707D01*
X135307079Y-108750000D01*
X156544750Y-108750000D01*
X156561978Y-108880861D01*
X156563670Y-108893708D01*
X156563671Y-108893712D01*
X156619137Y-109027622D01*
X156619138Y-109027624D01*
X156619139Y-109027625D01*
X156707379Y-109142621D01*
X156822375Y-109230861D01*
X156956291Y-109286330D01*
X157083280Y-109303048D01*
X157099999Y-109305250D01*
X157100000Y-109305250D01*
X157100001Y-109305250D01*
X157114977Y-109303278D01*
X157243709Y-109286330D01*
X157377625Y-109230861D01*
X157492621Y-109142621D01*
X157580861Y-109027625D01*
X157636330Y-108893709D01*
X157655250Y-108750000D01*
X157636330Y-108606291D01*
X157592096Y-108499500D01*
X157580862Y-108472377D01*
X157580861Y-108472376D01*
X157580861Y-108472375D01*
X157525325Y-108400000D01*
X159444750Y-108400000D01*
X159462698Y-108536329D01*
X159463670Y-108543708D01*
X159463671Y-108543712D01*
X159519137Y-108677622D01*
X159519138Y-108677624D01*
X159519139Y-108677625D01*
X159607379Y-108792621D01*
X159722375Y-108880861D01*
X159722376Y-108880861D01*
X159722377Y-108880862D01*
X159767013Y-108899350D01*
X159856291Y-108936330D01*
X159983280Y-108953048D01*
X159999999Y-108955250D01*
X160000000Y-108955250D01*
X160000001Y-108955250D01*
X160014977Y-108953278D01*
X160143709Y-108936330D01*
X160277625Y-108880861D01*
X160392621Y-108792621D01*
X160480861Y-108677625D01*
X160536330Y-108543709D01*
X160555250Y-108400000D01*
X160536330Y-108256291D01*
X160480861Y-108122375D01*
X160392621Y-108007379D01*
X160277625Y-107919139D01*
X160277624Y-107919138D01*
X160277622Y-107919137D01*
X160143712Y-107863671D01*
X160143710Y-107863670D01*
X160143709Y-107863670D01*
X160071854Y-107854210D01*
X160000001Y-107844750D01*
X159999999Y-107844750D01*
X159856291Y-107863670D01*
X159856287Y-107863671D01*
X159722377Y-107919137D01*
X159607379Y-108007379D01*
X159519137Y-108122377D01*
X159463671Y-108256287D01*
X159463670Y-108256291D01*
X159445722Y-108392620D01*
X159444750Y-108400000D01*
X157525325Y-108400000D01*
X157492621Y-108357379D01*
X157377625Y-108269139D01*
X157377624Y-108269138D01*
X157377622Y-108269137D01*
X157243712Y-108213671D01*
X157243710Y-108213670D01*
X157243709Y-108213670D01*
X157171854Y-108204210D01*
X157100001Y-108194750D01*
X157099999Y-108194750D01*
X156956291Y-108213670D01*
X156956287Y-108213671D01*
X156822377Y-108269137D01*
X156707379Y-108357379D01*
X156619137Y-108472377D01*
X156563671Y-108606287D01*
X156563670Y-108606291D01*
X156554202Y-108678210D01*
X156544750Y-108750000D01*
X135307079Y-108750000D01*
X135235292Y-108678213D01*
X135235288Y-108678210D01*
X135104185Y-108590609D01*
X135104172Y-108590602D01*
X134958501Y-108530264D01*
X134958489Y-108530261D01*
X134803845Y-108499500D01*
X134803842Y-108499500D01*
X134096158Y-108499500D01*
X134096155Y-108499500D01*
X133941510Y-108530261D01*
X133941498Y-108530264D01*
X133795827Y-108590602D01*
X133795814Y-108590609D01*
X133664711Y-108678210D01*
X133664707Y-108678213D01*
X133553213Y-108789707D01*
X133553210Y-108789711D01*
X133465609Y-108920814D01*
X133465602Y-108920827D01*
X133405264Y-109066498D01*
X133405261Y-109066510D01*
X133374500Y-109221153D01*
X129000000Y-109221153D01*
X129000000Y-108000000D01*
X129444750Y-108000000D01*
X129451700Y-108052793D01*
X129463670Y-108143708D01*
X129463671Y-108143712D01*
X129519137Y-108277622D01*
X129519138Y-108277624D01*
X129519139Y-108277625D01*
X129607379Y-108392621D01*
X129722375Y-108480861D01*
X129856291Y-108536330D01*
X129983280Y-108553048D01*
X129999999Y-108555250D01*
X130000000Y-108555250D01*
X130000001Y-108555250D01*
X130014977Y-108553278D01*
X130143709Y-108536330D01*
X130277625Y-108480861D01*
X130392621Y-108392621D01*
X130480861Y-108277625D01*
X130536330Y-108143709D01*
X130555250Y-108000000D01*
X130536330Y-107856291D01*
X130486641Y-107736329D01*
X130480862Y-107722377D01*
X130480861Y-107722376D01*
X130480861Y-107722375D01*
X130392621Y-107607379D01*
X130277625Y-107519139D01*
X130277624Y-107519138D01*
X130277622Y-107519137D01*
X130143712Y-107463671D01*
X130143710Y-107463670D01*
X130143709Y-107463670D01*
X130071854Y-107454210D01*
X130000001Y-107444750D01*
X129999999Y-107444750D01*
X129856291Y-107463670D01*
X129856287Y-107463671D01*
X129722377Y-107519137D01*
X129607379Y-107607379D01*
X129519137Y-107722377D01*
X129463671Y-107856287D01*
X129463670Y-107856291D01*
X129448417Y-107972150D01*
X129444750Y-108000000D01*
X129000000Y-108000000D01*
X129000000Y-106895730D01*
X133374500Y-106895730D01*
X133374500Y-107704269D01*
X133377353Y-107734699D01*
X133377353Y-107734701D01*
X133422206Y-107862880D01*
X133422207Y-107862882D01*
X133502850Y-107972150D01*
X133612118Y-108052793D01*
X133654845Y-108067744D01*
X133740299Y-108097646D01*
X133770730Y-108100500D01*
X133770734Y-108100500D01*
X135129270Y-108100500D01*
X135159699Y-108097646D01*
X135159701Y-108097646D01*
X135223790Y-108075219D01*
X135287882Y-108052793D01*
X135397150Y-107972150D01*
X135477793Y-107862882D01*
X135515455Y-107755250D01*
X135522646Y-107734701D01*
X135522646Y-107734699D01*
X135525500Y-107704269D01*
X135525500Y-106895730D01*
X135522646Y-106865300D01*
X135522646Y-106865298D01*
X135477793Y-106737119D01*
X135477792Y-106737117D01*
X135397150Y-106627850D01*
X135287882Y-106547207D01*
X135287880Y-106547206D01*
X135159700Y-106502353D01*
X135129270Y-106499500D01*
X135129266Y-106499500D01*
X133770734Y-106499500D01*
X133770730Y-106499500D01*
X133740300Y-106502353D01*
X133740298Y-106502353D01*
X133612119Y-106547206D01*
X133612117Y-106547207D01*
X133502850Y-106627850D01*
X133422207Y-106737117D01*
X133422206Y-106737119D01*
X133377353Y-106865298D01*
X133377353Y-106865300D01*
X133374500Y-106895730D01*
X129000000Y-106895730D01*
X129000000Y-105999999D01*
X129444750Y-105999999D01*
X129444750Y-106000000D01*
X129463670Y-106143708D01*
X129463671Y-106143712D01*
X129519137Y-106277622D01*
X129519138Y-106277624D01*
X129519139Y-106277625D01*
X129607379Y-106392621D01*
X129722375Y-106480861D01*
X129856291Y-106536330D01*
X129983280Y-106553048D01*
X129999999Y-106555250D01*
X130000000Y-106555250D01*
X130000001Y-106555250D01*
X130014977Y-106553278D01*
X130143709Y-106536330D01*
X130277625Y-106480861D01*
X130392621Y-106392621D01*
X130463693Y-106299999D01*
X136344750Y-106299999D01*
X136344750Y-106300000D01*
X136363670Y-106443708D01*
X136363671Y-106443712D01*
X136419137Y-106577622D01*
X136419138Y-106577624D01*
X136419139Y-106577625D01*
X136507379Y-106692621D01*
X136622375Y-106780861D01*
X136756291Y-106836330D01*
X136756295Y-106836330D01*
X136757499Y-106836653D01*
X136758408Y-106837207D01*
X136763799Y-106839440D01*
X136763450Y-106840280D01*
X136817162Y-106873013D01*
X136847697Y-106935857D01*
X136848355Y-106972612D01*
X136845545Y-106993959D01*
X136844750Y-107000000D01*
X136852160Y-107056287D01*
X136863670Y-107143708D01*
X136863671Y-107143712D01*
X136919137Y-107277622D01*
X136919138Y-107277624D01*
X136919139Y-107277625D01*
X137007379Y-107392621D01*
X137122375Y-107480861D01*
X137256291Y-107536330D01*
X137383280Y-107553048D01*
X137399999Y-107555250D01*
X137400000Y-107555250D01*
X137400001Y-107555250D01*
X137414977Y-107553278D01*
X137543709Y-107536330D01*
X137677625Y-107480861D01*
X137792621Y-107392621D01*
X137801625Y-107380886D01*
X137858050Y-107339685D01*
X137927796Y-107335529D01*
X137988717Y-107369740D01*
X137998367Y-107380876D01*
X138007379Y-107392621D01*
X138122375Y-107480861D01*
X138256291Y-107536330D01*
X138383280Y-107553048D01*
X138399999Y-107555250D01*
X138400000Y-107555250D01*
X138400001Y-107555250D01*
X138414977Y-107553278D01*
X138543709Y-107536330D01*
X138677625Y-107480861D01*
X138792621Y-107392621D01*
X138801625Y-107380886D01*
X138858050Y-107339685D01*
X138927796Y-107335529D01*
X138988717Y-107369740D01*
X138998367Y-107380876D01*
X139007379Y-107392621D01*
X139122375Y-107480861D01*
X139256291Y-107536330D01*
X139383280Y-107553048D01*
X139399999Y-107555250D01*
X139400000Y-107555250D01*
X139400001Y-107555250D01*
X139414977Y-107553278D01*
X139543709Y-107536330D01*
X139677625Y-107480861D01*
X139778640Y-107403349D01*
X139799070Y-107387673D01*
X139800294Y-107389269D01*
X139852089Y-107360978D01*
X139921782Y-107365954D01*
X139938994Y-107373919D01*
X139945377Y-107377490D01*
X140012416Y-107397175D01*
X140070314Y-107405500D01*
X140070318Y-107405500D01*
X142606197Y-107405500D01*
X142606199Y-107405500D01*
X142635853Y-107403349D01*
X142660078Y-107399816D01*
X142671259Y-107398186D01*
X142671259Y-107398185D01*
X142671265Y-107398185D01*
X142753406Y-107367266D01*
X142812032Y-107329256D01*
X142832247Y-107314318D01*
X142887507Y-107241445D01*
X142906234Y-107200000D01*
X144644750Y-107200000D01*
X144662239Y-107332843D01*
X144663670Y-107343708D01*
X144663671Y-107343712D01*
X144719137Y-107477622D01*
X144719138Y-107477624D01*
X144719139Y-107477625D01*
X144807379Y-107592621D01*
X144922375Y-107680861D01*
X145056291Y-107736330D01*
X145183280Y-107753048D01*
X145199999Y-107755250D01*
X145200000Y-107755250D01*
X145200001Y-107755250D01*
X145214977Y-107753278D01*
X145343709Y-107736330D01*
X145477625Y-107680861D01*
X145592621Y-107592621D01*
X145680861Y-107477625D01*
X145736330Y-107343709D01*
X145755250Y-107200000D01*
X145736330Y-107056291D01*
X145713014Y-107000000D01*
X169444750Y-107000000D01*
X169452160Y-107056287D01*
X169463670Y-107143708D01*
X169463671Y-107143712D01*
X169519137Y-107277622D01*
X169519138Y-107277624D01*
X169519139Y-107277625D01*
X169607379Y-107392621D01*
X169722375Y-107480861D01*
X169856291Y-107536330D01*
X169983280Y-107553048D01*
X169999999Y-107555250D01*
X170000000Y-107555250D01*
X170000001Y-107555250D01*
X170014977Y-107553278D01*
X170143709Y-107536330D01*
X170277625Y-107480861D01*
X170392621Y-107392621D01*
X170480861Y-107277625D01*
X170536330Y-107143709D01*
X170555250Y-107000000D01*
X170536330Y-106856291D01*
X170480861Y-106722375D01*
X170392621Y-106607379D01*
X170277625Y-106519139D01*
X170277624Y-106519138D01*
X170277622Y-106519137D01*
X170143712Y-106463671D01*
X170143710Y-106463670D01*
X170143709Y-106463670D01*
X170071854Y-106454210D01*
X170000001Y-106444750D01*
X169999999Y-106444750D01*
X169856291Y-106463670D01*
X169856287Y-106463671D01*
X169722377Y-106519137D01*
X169607379Y-106607379D01*
X169519137Y-106722377D01*
X169463671Y-106856287D01*
X169463670Y-106856291D01*
X169444750Y-107000000D01*
X145713014Y-107000000D01*
X145680861Y-106922375D01*
X145592621Y-106807379D01*
X145477625Y-106719139D01*
X145477624Y-106719138D01*
X145477622Y-106719137D01*
X145343712Y-106663671D01*
X145343710Y-106663670D01*
X145343709Y-106663670D01*
X145271854Y-106654210D01*
X145200001Y-106644750D01*
X145199999Y-106644750D01*
X145056291Y-106663670D01*
X145056287Y-106663671D01*
X144922377Y-106719137D01*
X144807379Y-106807379D01*
X144719137Y-106922377D01*
X144663671Y-107056287D01*
X144663670Y-107056291D01*
X144644750Y-107200000D01*
X142906234Y-107200000D01*
X142916277Y-107177774D01*
X142925208Y-107154274D01*
X142932296Y-107063093D01*
X142922075Y-106993975D01*
X142922072Y-106993967D01*
X142922071Y-106993959D01*
X142905375Y-106937930D01*
X142905372Y-106937921D01*
X142739080Y-106577622D01*
X142232213Y-105479412D01*
X144744750Y-105479412D01*
X144761597Y-105607379D01*
X144763670Y-105623120D01*
X144763671Y-105623124D01*
X144819137Y-105757034D01*
X144819138Y-105757036D01*
X144819139Y-105757037D01*
X144907379Y-105872033D01*
X145022375Y-105960273D01*
X145022376Y-105960273D01*
X145022377Y-105960274D01*
X145067013Y-105978762D01*
X145156291Y-106015742D01*
X145283280Y-106032460D01*
X145299999Y-106034662D01*
X145300000Y-106034662D01*
X145300001Y-106034662D01*
X145314977Y-106032690D01*
X145443709Y-106015742D01*
X145577625Y-105960273D01*
X145692621Y-105872033D01*
X145780861Y-105757037D01*
X145836330Y-105623121D01*
X145855250Y-105479412D01*
X145836330Y-105335703D01*
X145780861Y-105201787D01*
X145779490Y-105200000D01*
X154144750Y-105200000D01*
X154162615Y-105335699D01*
X154163670Y-105343708D01*
X154163671Y-105343712D01*
X154219137Y-105477622D01*
X154219138Y-105477624D01*
X154219139Y-105477625D01*
X154307379Y-105592621D01*
X154422375Y-105680861D01*
X154556291Y-105736330D01*
X154683280Y-105753048D01*
X154699999Y-105755250D01*
X154700000Y-105755250D01*
X154700001Y-105755250D01*
X154714977Y-105753278D01*
X154843709Y-105736330D01*
X154977625Y-105680861D01*
X155092621Y-105592621D01*
X155180861Y-105477625D01*
X155236330Y-105343709D01*
X155255250Y-105200000D01*
X155236330Y-105056291D01*
X155213014Y-105000000D01*
X169444750Y-105000000D01*
X169456176Y-105086791D01*
X169463670Y-105143708D01*
X169463671Y-105143712D01*
X169519137Y-105277622D01*
X169519138Y-105277624D01*
X169519139Y-105277625D01*
X169607379Y-105392621D01*
X169722375Y-105480861D01*
X169856291Y-105536330D01*
X169983280Y-105553048D01*
X169999999Y-105555250D01*
X170000000Y-105555250D01*
X170000001Y-105555250D01*
X170014977Y-105553278D01*
X170143709Y-105536330D01*
X170277625Y-105480861D01*
X170392621Y-105392621D01*
X170480861Y-105277625D01*
X170536330Y-105143709D01*
X170555250Y-105000000D01*
X170536330Y-104856291D01*
X170499350Y-104767013D01*
X170480862Y-104722377D01*
X170480861Y-104722376D01*
X170480861Y-104722375D01*
X170392621Y-104607379D01*
X170277625Y-104519139D01*
X170277624Y-104519138D01*
X170277622Y-104519137D01*
X170143712Y-104463671D01*
X170143710Y-104463670D01*
X170143709Y-104463670D01*
X170071854Y-104454210D01*
X170000001Y-104444750D01*
X169999999Y-104444750D01*
X169856291Y-104463670D01*
X169856287Y-104463671D01*
X169722377Y-104519137D01*
X169607379Y-104607379D01*
X169519137Y-104722377D01*
X169463671Y-104856287D01*
X169463670Y-104856291D01*
X169452244Y-104943082D01*
X169444750Y-105000000D01*
X155213014Y-105000000D01*
X155180861Y-104922375D01*
X155092621Y-104807379D01*
X154977625Y-104719139D01*
X154977624Y-104719138D01*
X154977622Y-104719137D01*
X154843712Y-104663671D01*
X154843710Y-104663670D01*
X154843709Y-104663670D01*
X154771854Y-104654210D01*
X154700001Y-104644750D01*
X154699999Y-104644750D01*
X154556291Y-104663670D01*
X154556287Y-104663671D01*
X154422377Y-104719137D01*
X154307379Y-104807379D01*
X154219137Y-104922377D01*
X154163671Y-105056287D01*
X154163670Y-105056291D01*
X154159655Y-105086791D01*
X154144750Y-105200000D01*
X145779490Y-105200000D01*
X145692621Y-105086791D01*
X145577625Y-104998551D01*
X145577624Y-104998550D01*
X145577622Y-104998549D01*
X145443712Y-104943083D01*
X145443710Y-104943082D01*
X145443709Y-104943082D01*
X145371854Y-104933622D01*
X145300001Y-104924162D01*
X145299999Y-104924162D01*
X145156291Y-104943082D01*
X145156287Y-104943083D01*
X145022377Y-104998549D01*
X144907379Y-105086791D01*
X144819137Y-105201789D01*
X144763671Y-105335699D01*
X144763670Y-105335703D01*
X144746823Y-105463670D01*
X144744750Y-105479412D01*
X142232213Y-105479412D01*
X141632444Y-104179912D01*
X146054016Y-104179912D01*
X146059782Y-104223712D01*
X146072936Y-104323620D01*
X146072937Y-104323624D01*
X146128403Y-104457534D01*
X146128404Y-104457536D01*
X146128405Y-104457537D01*
X146216645Y-104572533D01*
X146331641Y-104660773D01*
X146465557Y-104716242D01*
X146592546Y-104732960D01*
X146609265Y-104735162D01*
X146609266Y-104735162D01*
X146609267Y-104735162D01*
X146624243Y-104733190D01*
X146752975Y-104716242D01*
X146886891Y-104660773D01*
X147001887Y-104572533D01*
X147090127Y-104457537D01*
X147145596Y-104323621D01*
X147164516Y-104179912D01*
X147145596Y-104036203D01*
X147090127Y-103902287D01*
X147001887Y-103787291D01*
X146886891Y-103699051D01*
X146886890Y-103699050D01*
X146886888Y-103699049D01*
X146752978Y-103643583D01*
X146752976Y-103643582D01*
X146752975Y-103643582D01*
X146681120Y-103634122D01*
X146609267Y-103624662D01*
X146609265Y-103624662D01*
X146465557Y-103643582D01*
X146465553Y-103643583D01*
X146331643Y-103699049D01*
X146216645Y-103787291D01*
X146128403Y-103902289D01*
X146072937Y-104036199D01*
X146072936Y-104036203D01*
X146054016Y-104179912D01*
X141632444Y-104179912D01*
X141363093Y-103596319D01*
X141352873Y-103527203D01*
X141381643Y-103463532D01*
X141440269Y-103425522D01*
X141456284Y-103421885D01*
X141533091Y-103409720D01*
X141533091Y-103409719D01*
X141533096Y-103409719D01*
X141653190Y-103348528D01*
X141653195Y-103348523D01*
X141755399Y-103246320D01*
X141757797Y-103248718D01*
X141799388Y-103216623D01*
X141868999Y-103210619D01*
X141930806Y-103243202D01*
X141942793Y-103256671D01*
X141970376Y-103292618D01*
X141970377Y-103292619D01*
X141970379Y-103292621D01*
X142085375Y-103380861D01*
X142219291Y-103436330D01*
X142346280Y-103453048D01*
X142362999Y-103455250D01*
X142363000Y-103455250D01*
X142363001Y-103455250D01*
X142377977Y-103453278D01*
X142506709Y-103436330D01*
X142640625Y-103380861D01*
X142755621Y-103292621D01*
X142843861Y-103177625D01*
X142899330Y-103043709D01*
X142918250Y-102900000D01*
X142899330Y-102756291D01*
X142843861Y-102622375D01*
X142755621Y-102507379D01*
X142640625Y-102419139D01*
X142640624Y-102419138D01*
X142640622Y-102419137D01*
X142506712Y-102363671D01*
X142506710Y-102363670D01*
X142506709Y-102363670D01*
X142434854Y-102354210D01*
X142363001Y-102344750D01*
X142362999Y-102344750D01*
X142219291Y-102363670D01*
X142219287Y-102363671D01*
X142085376Y-102419138D01*
X142085374Y-102419139D01*
X142026420Y-102464376D01*
X141961250Y-102489570D01*
X141892806Y-102475531D01*
X141842816Y-102426717D01*
X141828462Y-102385402D01*
X141809689Y-102266874D01*
X141748498Y-102146780D01*
X141748496Y-102146778D01*
X141748493Y-102146774D01*
X141653195Y-102051476D01*
X141653191Y-102051473D01*
X141653190Y-102051472D01*
X141533096Y-101990281D01*
X141533094Y-101990280D01*
X141533091Y-101990279D01*
X141399972Y-101969196D01*
X141390211Y-101969196D01*
X141390211Y-101966056D01*
X141337202Y-101959201D01*
X141283755Y-101914199D01*
X141276630Y-101901993D01*
X141248498Y-101846780D01*
X141248496Y-101846778D01*
X141248493Y-101846774D01*
X141153195Y-101751476D01*
X141153191Y-101751473D01*
X141153190Y-101751472D01*
X141033096Y-101690281D01*
X141033094Y-101690280D01*
X141033091Y-101690279D01*
X140899972Y-101669196D01*
X140899968Y-101669196D01*
X140757205Y-101691807D01*
X140756962Y-101690274D01*
X140697976Y-101691959D01*
X140638143Y-101655878D01*
X140607316Y-101593176D01*
X140605500Y-101572033D01*
X140605500Y-101390382D01*
X152235129Y-101390382D01*
X152252080Y-101519139D01*
X152254049Y-101534090D01*
X152254050Y-101534094D01*
X152309516Y-101668004D01*
X152309517Y-101668006D01*
X152309518Y-101668007D01*
X152397758Y-101783003D01*
X152512754Y-101871243D01*
X152512755Y-101871243D01*
X152512756Y-101871244D01*
X152542234Y-101883454D01*
X152646670Y-101926712D01*
X152773659Y-101943430D01*
X152790378Y-101945632D01*
X152790379Y-101945632D01*
X152790380Y-101945632D01*
X152805356Y-101943660D01*
X152934088Y-101926712D01*
X153068004Y-101871243D01*
X153163437Y-101798014D01*
X153228604Y-101772820D01*
X153297049Y-101786858D01*
X153314409Y-101798015D01*
X153422373Y-101880860D01*
X153422374Y-101880860D01*
X153422375Y-101880861D01*
X153556291Y-101936330D01*
X153683280Y-101953048D01*
X153699999Y-101955250D01*
X153700000Y-101955250D01*
X153700001Y-101955250D01*
X153714977Y-101953278D01*
X153843709Y-101936330D01*
X153977625Y-101880861D01*
X154092621Y-101792621D01*
X154180861Y-101677625D01*
X154236330Y-101543709D01*
X154242085Y-101500000D01*
X163494750Y-101500000D01*
X163508631Y-101605438D01*
X163513670Y-101643708D01*
X163513671Y-101643712D01*
X163569137Y-101777622D01*
X163569138Y-101777624D01*
X163569139Y-101777625D01*
X163657379Y-101892621D01*
X163772375Y-101980861D01*
X163772376Y-101980861D01*
X163772377Y-101980862D01*
X163808707Y-101995910D01*
X163906291Y-102036330D01*
X164033280Y-102053048D01*
X164049999Y-102055250D01*
X164050000Y-102055250D01*
X164050001Y-102055250D01*
X164069199Y-102052722D01*
X164120197Y-102046008D01*
X164189231Y-102056773D01*
X164241487Y-102103153D01*
X164260373Y-102170422D01*
X164257999Y-102193138D01*
X164244500Y-102261002D01*
X164244500Y-102261007D01*
X164244500Y-102398993D01*
X164244500Y-102398995D01*
X164244499Y-102398995D01*
X164271418Y-102534322D01*
X164271421Y-102534332D01*
X164324221Y-102661804D01*
X164324228Y-102661817D01*
X164400885Y-102776541D01*
X164400888Y-102776545D01*
X164498454Y-102874111D01*
X164498458Y-102874114D01*
X164613182Y-102950771D01*
X164613195Y-102950778D01*
X164729977Y-102999150D01*
X164740672Y-103003580D01*
X164740676Y-103003580D01*
X164740677Y-103003581D01*
X164876004Y-103030500D01*
X165636757Y-103030500D01*
X165703796Y-103050185D01*
X165749551Y-103102989D01*
X165759495Y-103172147D01*
X165730470Y-103235703D01*
X165698758Y-103261887D01*
X165639179Y-103296285D01*
X165639176Y-103296287D01*
X165531287Y-103404176D01*
X165531282Y-103404182D01*
X165454993Y-103536318D01*
X165454992Y-103536322D01*
X165415500Y-103683707D01*
X165415500Y-103836293D01*
X165433184Y-103902289D01*
X165454993Y-103983681D01*
X165531282Y-104115817D01*
X165531284Y-104115819D01*
X165531285Y-104115821D01*
X165639179Y-104223715D01*
X165639180Y-104223716D01*
X165639182Y-104223717D01*
X165771318Y-104300006D01*
X165771319Y-104300006D01*
X165771322Y-104300008D01*
X165918707Y-104339500D01*
X165918710Y-104339500D01*
X166071290Y-104339500D01*
X166071293Y-104339500D01*
X166218678Y-104300008D01*
X166350821Y-104223715D01*
X166458715Y-104115821D01*
X166535008Y-103983678D01*
X166574500Y-103836293D01*
X166574500Y-103683707D01*
X166535008Y-103536322D01*
X166477277Y-103436330D01*
X166458717Y-103404182D01*
X166458712Y-103404176D01*
X166350823Y-103296287D01*
X166350821Y-103296285D01*
X166282208Y-103256671D01*
X166230987Y-103227098D01*
X166182772Y-103176530D01*
X166169550Y-103107923D01*
X166195518Y-103043058D01*
X166245536Y-103005149D01*
X166249320Y-103003581D01*
X166249328Y-103003580D01*
X166376811Y-102950775D01*
X166491542Y-102874114D01*
X166589114Y-102776542D01*
X166665775Y-102661811D01*
X166669334Y-102653220D01*
X166709914Y-102555250D01*
X166718580Y-102534328D01*
X166730276Y-102475531D01*
X166745500Y-102398995D01*
X166745500Y-102269721D01*
X166765185Y-102202682D01*
X166817989Y-102156927D01*
X166885683Y-102146782D01*
X166950000Y-102155250D01*
X167093709Y-102136330D01*
X167227625Y-102080861D01*
X167342621Y-101992621D01*
X167430861Y-101877625D01*
X167486330Y-101743709D01*
X167505250Y-101600000D01*
X167486330Y-101456291D01*
X167436641Y-101336329D01*
X167430862Y-101322377D01*
X167430861Y-101322376D01*
X167430861Y-101322375D01*
X167342621Y-101207379D01*
X167227625Y-101119139D01*
X167227624Y-101119138D01*
X167227622Y-101119137D01*
X167093712Y-101063671D01*
X167093710Y-101063670D01*
X167093709Y-101063670D01*
X167021854Y-101054210D01*
X166950001Y-101044750D01*
X166949999Y-101044750D01*
X166806291Y-101063670D01*
X166806287Y-101063671D01*
X166672377Y-101119137D01*
X166557379Y-101207379D01*
X166469137Y-101322377D01*
X166413671Y-101456287D01*
X166413670Y-101456290D01*
X166413670Y-101456291D01*
X166413224Y-101459676D01*
X166401081Y-101551908D01*
X166372814Y-101615805D01*
X166314489Y-101654275D01*
X166253951Y-101657339D01*
X166113996Y-101629500D01*
X166113993Y-101629500D01*
X164876007Y-101629500D01*
X164876002Y-101629500D01*
X164750178Y-101654528D01*
X164680586Y-101648301D01*
X164625409Y-101605438D01*
X164602165Y-101539548D01*
X164603048Y-101516725D01*
X164605250Y-101500000D01*
X164605250Y-101499999D01*
X164599941Y-101459673D01*
X164586330Y-101356291D01*
X164530861Y-101222375D01*
X164442621Y-101107379D01*
X164327625Y-101019139D01*
X164327624Y-101019138D01*
X164327622Y-101019137D01*
X164193712Y-100963671D01*
X164193710Y-100963670D01*
X164193709Y-100963670D01*
X164121854Y-100954210D01*
X164050001Y-100944750D01*
X164049999Y-100944750D01*
X163906291Y-100963670D01*
X163906287Y-100963671D01*
X163772377Y-101019137D01*
X163657379Y-101107379D01*
X163569137Y-101222377D01*
X163513671Y-101356287D01*
X163513670Y-101356291D01*
X163499549Y-101463552D01*
X163494750Y-101500000D01*
X154242085Y-101500000D01*
X154255250Y-101400000D01*
X154236330Y-101256291D01*
X154180861Y-101122375D01*
X154092621Y-101007379D01*
X153977625Y-100919139D01*
X153977624Y-100919138D01*
X153977622Y-100919137D01*
X153843712Y-100863671D01*
X153843710Y-100863670D01*
X153843709Y-100863670D01*
X153770654Y-100854052D01*
X153700001Y-100844750D01*
X153699999Y-100844750D01*
X153556291Y-100863670D01*
X153556287Y-100863671D01*
X153422376Y-100919138D01*
X153422374Y-100919139D01*
X153326942Y-100992367D01*
X153261773Y-101017561D01*
X153193328Y-101003523D01*
X153175969Y-100992366D01*
X153068005Y-100909521D01*
X153068002Y-100909520D01*
X152934091Y-100854053D01*
X152934089Y-100854052D01*
X152934088Y-100854052D01*
X152862233Y-100844592D01*
X152790380Y-100835132D01*
X152790378Y-100835132D01*
X152646670Y-100854052D01*
X152646666Y-100854053D01*
X152512756Y-100909519D01*
X152397758Y-100997761D01*
X152309516Y-101112759D01*
X152254050Y-101246669D01*
X152254049Y-101246673D01*
X152235129Y-101390382D01*
X140605500Y-101390382D01*
X140605500Y-98200000D01*
X141532367Y-98200000D01*
X141550802Y-98328225D01*
X141588100Y-98409895D01*
X141604618Y-98446063D01*
X141689451Y-98543967D01*
X141769925Y-98595684D01*
X141815680Y-98648488D01*
X141825624Y-98717647D01*
X141796599Y-98781202D01*
X141769926Y-98804314D01*
X141741198Y-98822776D01*
X141689450Y-98856033D01*
X141604618Y-98953937D01*
X141604617Y-98953938D01*
X141550802Y-99071774D01*
X141532367Y-99200000D01*
X141550802Y-99328225D01*
X141586845Y-99407146D01*
X141604618Y-99446063D01*
X141689451Y-99543967D01*
X141769925Y-99595684D01*
X141815680Y-99648488D01*
X141825624Y-99717647D01*
X141796599Y-99781202D01*
X141769926Y-99804314D01*
X141741198Y-99822776D01*
X141689450Y-99856033D01*
X141604618Y-99953937D01*
X141604617Y-99953938D01*
X141550802Y-100071774D01*
X141532367Y-100200000D01*
X141550802Y-100328225D01*
X141586951Y-100407379D01*
X141604618Y-100446063D01*
X141689451Y-100543967D01*
X141798431Y-100614004D01*
X141922725Y-100650499D01*
X141922727Y-100650500D01*
X141922728Y-100650500D01*
X142052273Y-100650500D01*
X142052273Y-100650499D01*
X142176569Y-100614004D01*
X142285549Y-100543967D01*
X142370382Y-100446063D01*
X142374706Y-100436595D01*
X142420461Y-100383791D01*
X142487500Y-100364107D01*
X142554540Y-100383792D01*
X142600294Y-100436595D01*
X142604618Y-100446063D01*
X142689451Y-100543967D01*
X142798431Y-100614004D01*
X142922725Y-100650499D01*
X142922727Y-100650500D01*
X142922728Y-100650500D01*
X143052273Y-100650500D01*
X143052273Y-100650499D01*
X143176569Y-100614004D01*
X143285549Y-100543967D01*
X143370382Y-100446063D01*
X143374706Y-100436595D01*
X143420461Y-100383791D01*
X143487500Y-100364107D01*
X143554540Y-100383792D01*
X143600294Y-100436595D01*
X143604618Y-100446063D01*
X143689451Y-100543967D01*
X143798431Y-100614004D01*
X143922725Y-100650499D01*
X143922727Y-100650500D01*
X143922728Y-100650500D01*
X144052273Y-100650500D01*
X144052273Y-100650499D01*
X144176569Y-100614004D01*
X144285549Y-100543967D01*
X144370382Y-100446063D01*
X144424197Y-100328226D01*
X144442633Y-100200000D01*
X144424197Y-100071774D01*
X144391418Y-99999999D01*
X152044750Y-99999999D01*
X152044750Y-100000000D01*
X152063670Y-100143708D01*
X152063671Y-100143712D01*
X152119137Y-100277622D01*
X152119138Y-100277624D01*
X152119139Y-100277625D01*
X152207379Y-100392621D01*
X152322375Y-100480861D01*
X152456291Y-100536330D01*
X152583280Y-100553048D01*
X152599999Y-100555250D01*
X152600000Y-100555250D01*
X152600001Y-100555250D01*
X152614977Y-100553278D01*
X152743709Y-100536330D01*
X152877625Y-100480861D01*
X152947429Y-100427298D01*
X160517452Y-100427298D01*
X160531806Y-100536329D01*
X160536372Y-100571006D01*
X160536373Y-100571010D01*
X160591839Y-100704920D01*
X160591840Y-100704922D01*
X160591841Y-100704923D01*
X160680081Y-100819919D01*
X160795077Y-100908159D01*
X160795078Y-100908159D01*
X160795079Y-100908160D01*
X160821583Y-100919138D01*
X160928993Y-100963628D01*
X161055982Y-100980346D01*
X161072701Y-100982548D01*
X161072702Y-100982548D01*
X161072703Y-100982548D01*
X161087679Y-100980576D01*
X161216411Y-100963628D01*
X161350327Y-100908159D01*
X161465323Y-100819919D01*
X161480607Y-100800000D01*
X162044750Y-100800000D01*
X162063024Y-100938806D01*
X162063670Y-100943708D01*
X162063671Y-100943712D01*
X162119137Y-101077622D01*
X162119138Y-101077624D01*
X162119139Y-101077625D01*
X162207379Y-101192621D01*
X162322375Y-101280861D01*
X162456291Y-101336330D01*
X162583280Y-101353048D01*
X162599999Y-101355250D01*
X162600000Y-101355250D01*
X162600001Y-101355250D01*
X162614977Y-101353278D01*
X162743709Y-101336330D01*
X162877625Y-101280861D01*
X162992621Y-101192621D01*
X163080861Y-101077625D01*
X163136330Y-100943709D01*
X163155250Y-100800000D01*
X163136330Y-100656291D01*
X163086641Y-100536329D01*
X163080862Y-100522377D01*
X163080861Y-100522376D01*
X163080861Y-100522375D01*
X162992621Y-100407379D01*
X162877625Y-100319139D01*
X162877624Y-100319138D01*
X162877622Y-100319137D01*
X162743712Y-100263671D01*
X162743710Y-100263670D01*
X162743709Y-100263670D01*
X162671854Y-100254210D01*
X162600001Y-100244750D01*
X162599999Y-100244750D01*
X162456291Y-100263670D01*
X162456287Y-100263671D01*
X162322377Y-100319137D01*
X162207379Y-100407379D01*
X162119137Y-100522377D01*
X162063671Y-100656287D01*
X162063670Y-100656291D01*
X162044750Y-100800000D01*
X161480607Y-100800000D01*
X161553563Y-100704923D01*
X161609032Y-100571007D01*
X161627952Y-100427298D01*
X161609032Y-100283589D01*
X161553933Y-100150567D01*
X161553564Y-100149675D01*
X161553563Y-100149674D01*
X161553563Y-100149673D01*
X161465323Y-100034677D01*
X161350327Y-99946437D01*
X161350326Y-99946436D01*
X161350324Y-99946435D01*
X161216414Y-99890969D01*
X161216412Y-99890968D01*
X161216411Y-99890968D01*
X161144556Y-99881508D01*
X161072703Y-99872048D01*
X161072701Y-99872048D01*
X160928993Y-99890968D01*
X160928989Y-99890969D01*
X160795079Y-99946435D01*
X160680081Y-100034677D01*
X160591839Y-100149675D01*
X160536373Y-100283585D01*
X160536372Y-100283589D01*
X160522018Y-100392620D01*
X160517452Y-100427298D01*
X152947429Y-100427298D01*
X152992621Y-100392621D01*
X153080861Y-100277625D01*
X153136330Y-100143709D01*
X153155250Y-100000000D01*
X153136330Y-99856291D01*
X153080861Y-99722375D01*
X152992621Y-99607379D01*
X152877625Y-99519139D01*
X152877624Y-99519138D01*
X152877622Y-99519137D01*
X152743712Y-99463671D01*
X152743710Y-99463670D01*
X152743709Y-99463670D01*
X152671854Y-99454210D01*
X152600001Y-99444750D01*
X152599999Y-99444750D01*
X152456291Y-99463670D01*
X152456287Y-99463671D01*
X152322377Y-99519137D01*
X152207379Y-99607379D01*
X152119137Y-99722377D01*
X152063671Y-99856287D01*
X152063670Y-99856291D01*
X152044750Y-99999999D01*
X144391418Y-99999999D01*
X144370382Y-99953937D01*
X144285549Y-99856033D01*
X144205072Y-99804313D01*
X144159319Y-99751512D01*
X144149375Y-99682354D01*
X144178399Y-99618798D01*
X144205069Y-99595687D01*
X144285549Y-99543967D01*
X144370382Y-99446063D01*
X144388155Y-99407146D01*
X147127088Y-99407146D01*
X147144095Y-99536328D01*
X147146008Y-99550854D01*
X147146009Y-99550858D01*
X147201475Y-99684768D01*
X147201476Y-99684770D01*
X147201477Y-99684771D01*
X147289717Y-99799767D01*
X147404713Y-99888007D01*
X147404714Y-99888007D01*
X147404715Y-99888008D01*
X147411864Y-99890969D01*
X147538629Y-99943476D01*
X147665618Y-99960194D01*
X147682337Y-99962396D01*
X147682338Y-99962396D01*
X147682339Y-99962396D01*
X147697315Y-99960424D01*
X147826047Y-99943476D01*
X147959963Y-99888007D01*
X148074959Y-99799767D01*
X148163199Y-99684771D01*
X148218668Y-99550855D01*
X148237588Y-99407146D01*
X148218668Y-99263437D01*
X148163199Y-99129521D01*
X148074959Y-99014525D01*
X147959963Y-98926285D01*
X147959962Y-98926284D01*
X147959960Y-98926283D01*
X147826050Y-98870817D01*
X147826048Y-98870816D01*
X147826047Y-98870816D01*
X147715721Y-98856291D01*
X147682339Y-98851896D01*
X147682337Y-98851896D01*
X147538629Y-98870816D01*
X147538625Y-98870817D01*
X147404715Y-98926283D01*
X147289717Y-99014525D01*
X147201475Y-99129523D01*
X147146009Y-99263433D01*
X147146008Y-99263437D01*
X147127088Y-99407146D01*
X144388155Y-99407146D01*
X144424197Y-99328226D01*
X144442633Y-99200000D01*
X144424197Y-99071774D01*
X144370382Y-98953937D01*
X144285549Y-98856033D01*
X144205072Y-98804313D01*
X144159319Y-98751512D01*
X144149375Y-98682354D01*
X144178399Y-98618798D01*
X144205069Y-98595687D01*
X144285549Y-98543967D01*
X144370382Y-98446063D01*
X144424197Y-98328226D01*
X144442633Y-98200000D01*
X144428255Y-98100000D01*
X158844750Y-98100000D01*
X158857915Y-98200000D01*
X158863670Y-98243708D01*
X158863671Y-98243712D01*
X158919137Y-98377622D01*
X158919138Y-98377624D01*
X158919139Y-98377625D01*
X159007379Y-98492621D01*
X159122375Y-98580861D01*
X159256291Y-98636330D01*
X159383280Y-98653048D01*
X159399999Y-98655250D01*
X159400000Y-98655250D01*
X159400001Y-98655250D01*
X159414977Y-98653278D01*
X159543709Y-98636330D01*
X159631421Y-98599999D01*
X164144750Y-98599999D01*
X164144750Y-98600000D01*
X164163670Y-98743708D01*
X164163671Y-98743712D01*
X164219137Y-98877622D01*
X164219138Y-98877624D01*
X164219139Y-98877625D01*
X164307379Y-98992621D01*
X164422375Y-99080861D01*
X164556291Y-99136330D01*
X164683280Y-99153048D01*
X164699999Y-99155250D01*
X164700000Y-99155250D01*
X164700001Y-99155250D01*
X164714977Y-99153278D01*
X164843709Y-99136330D01*
X164977625Y-99080861D01*
X165092621Y-98992621D01*
X165180861Y-98877625D01*
X165185439Y-98866570D01*
X165229279Y-98812170D01*
X165295573Y-98790104D01*
X165363272Y-98807383D01*
X165410883Y-98858519D01*
X165414553Y-98866553D01*
X165419139Y-98877625D01*
X165507379Y-98992621D01*
X165622375Y-99080861D01*
X165756291Y-99136330D01*
X165883280Y-99153048D01*
X165899999Y-99155250D01*
X165900000Y-99155250D01*
X165900001Y-99155250D01*
X165914977Y-99153278D01*
X166043709Y-99136330D01*
X166177625Y-99080861D01*
X166283005Y-99000000D01*
X169444750Y-99000000D01*
X169462698Y-99136329D01*
X169463670Y-99143708D01*
X169463671Y-99143712D01*
X169519137Y-99277622D01*
X169519138Y-99277624D01*
X169519139Y-99277625D01*
X169607379Y-99392621D01*
X169722375Y-99480861D01*
X169856291Y-99536330D01*
X169983280Y-99553048D01*
X169999999Y-99555250D01*
X170000000Y-99555250D01*
X170000001Y-99555250D01*
X170014977Y-99553278D01*
X170143709Y-99536330D01*
X170277625Y-99480861D01*
X170392621Y-99392621D01*
X170480861Y-99277625D01*
X170536330Y-99143709D01*
X170555250Y-99000000D01*
X170536330Y-98856291D01*
X170480861Y-98722375D01*
X170392621Y-98607379D01*
X170277625Y-98519139D01*
X170277624Y-98519138D01*
X170277622Y-98519137D01*
X170143712Y-98463671D01*
X170143710Y-98463670D01*
X170143709Y-98463670D01*
X170071854Y-98454210D01*
X170000001Y-98444750D01*
X169999999Y-98444750D01*
X169856291Y-98463670D01*
X169856287Y-98463671D01*
X169722377Y-98519137D01*
X169607379Y-98607379D01*
X169519137Y-98722377D01*
X169463671Y-98856287D01*
X169463670Y-98856291D01*
X169445722Y-98992620D01*
X169444750Y-99000000D01*
X166283005Y-99000000D01*
X166292621Y-98992621D01*
X166380861Y-98877625D01*
X166436330Y-98743709D01*
X166455250Y-98600000D01*
X166436330Y-98456291D01*
X166380861Y-98322375D01*
X166292621Y-98207379D01*
X166177625Y-98119139D01*
X166177624Y-98119138D01*
X166177622Y-98119137D01*
X166043712Y-98063671D01*
X166043710Y-98063670D01*
X166043709Y-98063670D01*
X165971854Y-98054210D01*
X165900001Y-98044750D01*
X165899999Y-98044750D01*
X165756291Y-98063670D01*
X165756287Y-98063671D01*
X165622377Y-98119137D01*
X165516995Y-98200000D01*
X165507379Y-98207379D01*
X165419139Y-98322375D01*
X165416716Y-98328226D01*
X165414561Y-98333428D01*
X165370719Y-98387831D01*
X165304425Y-98409895D01*
X165236726Y-98392615D01*
X165189116Y-98341478D01*
X165185439Y-98333428D01*
X165180861Y-98322375D01*
X165092621Y-98207379D01*
X164977625Y-98119139D01*
X164977624Y-98119138D01*
X164977622Y-98119137D01*
X164843712Y-98063671D01*
X164843710Y-98063670D01*
X164843709Y-98063670D01*
X164771854Y-98054210D01*
X164700001Y-98044750D01*
X164699999Y-98044750D01*
X164556291Y-98063670D01*
X164556287Y-98063671D01*
X164422377Y-98119137D01*
X164307379Y-98207379D01*
X164219137Y-98322377D01*
X164163671Y-98456287D01*
X164163670Y-98456291D01*
X164144750Y-98599999D01*
X159631421Y-98599999D01*
X159677625Y-98580861D01*
X159792621Y-98492621D01*
X159880861Y-98377625D01*
X159936330Y-98243709D01*
X159955250Y-98100000D01*
X159936330Y-97956291D01*
X159894524Y-97855361D01*
X159880862Y-97822377D01*
X159880861Y-97822376D01*
X159880861Y-97822375D01*
X159792621Y-97707379D01*
X159677625Y-97619139D01*
X159677624Y-97619138D01*
X159677622Y-97619137D01*
X159543712Y-97563671D01*
X159543710Y-97563670D01*
X159543709Y-97563670D01*
X159471854Y-97554210D01*
X159400001Y-97544750D01*
X159399999Y-97544750D01*
X159256291Y-97563670D01*
X159256287Y-97563671D01*
X159122377Y-97619137D01*
X159007379Y-97707379D01*
X158919137Y-97822377D01*
X158863671Y-97956287D01*
X158863670Y-97956291D01*
X158844750Y-98100000D01*
X144428255Y-98100000D01*
X144424197Y-98071774D01*
X144370382Y-97953937D01*
X144285549Y-97856033D01*
X144176569Y-97785996D01*
X144176565Y-97785994D01*
X144176564Y-97785994D01*
X144052274Y-97749500D01*
X144052272Y-97749500D01*
X143922728Y-97749500D01*
X143922726Y-97749500D01*
X143798435Y-97785994D01*
X143798432Y-97785995D01*
X143798431Y-97785996D01*
X143747177Y-97818934D01*
X143689450Y-97856033D01*
X143604618Y-97953937D01*
X143604616Y-97953940D01*
X143600293Y-97963406D01*
X143554537Y-98016209D01*
X143487497Y-98035892D01*
X143420458Y-98016206D01*
X143374707Y-97963406D01*
X143370383Y-97953940D01*
X143370382Y-97953938D01*
X143370382Y-97953937D01*
X143285549Y-97856033D01*
X143176569Y-97785996D01*
X143176565Y-97785994D01*
X143176564Y-97785994D01*
X143052274Y-97749500D01*
X143052272Y-97749500D01*
X142922728Y-97749500D01*
X142922726Y-97749500D01*
X142798435Y-97785994D01*
X142798432Y-97785995D01*
X142798431Y-97785996D01*
X142747177Y-97818934D01*
X142689450Y-97856033D01*
X142604618Y-97953937D01*
X142604616Y-97953940D01*
X142600293Y-97963406D01*
X142554537Y-98016209D01*
X142487497Y-98035892D01*
X142420458Y-98016206D01*
X142374707Y-97963406D01*
X142370383Y-97953940D01*
X142370382Y-97953938D01*
X142370382Y-97953937D01*
X142285549Y-97856033D01*
X142176569Y-97785996D01*
X142176565Y-97785994D01*
X142176564Y-97785994D01*
X142052274Y-97749500D01*
X142052272Y-97749500D01*
X141922728Y-97749500D01*
X141922726Y-97749500D01*
X141798435Y-97785994D01*
X141798432Y-97785995D01*
X141798431Y-97785996D01*
X141747177Y-97818934D01*
X141689450Y-97856033D01*
X141604618Y-97953937D01*
X141604617Y-97953938D01*
X141550802Y-98071774D01*
X141532367Y-98200000D01*
X140605500Y-98200000D01*
X140605500Y-97300110D01*
X157369750Y-97300110D01*
X157369750Y-97300111D01*
X157388670Y-97443819D01*
X157388671Y-97443823D01*
X157444137Y-97577733D01*
X157444138Y-97577735D01*
X157444139Y-97577736D01*
X157532379Y-97692732D01*
X157647375Y-97780972D01*
X157781291Y-97836441D01*
X157908280Y-97853159D01*
X157924999Y-97855361D01*
X157925000Y-97855361D01*
X157925001Y-97855361D01*
X157939977Y-97853389D01*
X158068709Y-97836441D01*
X158202625Y-97780972D01*
X158317621Y-97692732D01*
X158405861Y-97577736D01*
X158461330Y-97443820D01*
X158480250Y-97300111D01*
X158461330Y-97156402D01*
X158405861Y-97022486D01*
X158388606Y-96999999D01*
X162044750Y-96999999D01*
X162044750Y-97000000D01*
X162063670Y-97143708D01*
X162063671Y-97143712D01*
X162119137Y-97277622D01*
X162119138Y-97277624D01*
X162119139Y-97277625D01*
X162207379Y-97392621D01*
X162322375Y-97480861D01*
X162456291Y-97536330D01*
X162583280Y-97553048D01*
X162599999Y-97555250D01*
X162600000Y-97555250D01*
X162600001Y-97555250D01*
X162614977Y-97553278D01*
X162743709Y-97536330D01*
X162877625Y-97480861D01*
X162992621Y-97392621D01*
X163080861Y-97277625D01*
X163136330Y-97143709D01*
X163155250Y-97000000D01*
X163155250Y-96999999D01*
X169444750Y-96999999D01*
X169444750Y-97000000D01*
X169463670Y-97143708D01*
X169463671Y-97143712D01*
X169519137Y-97277622D01*
X169519138Y-97277624D01*
X169519139Y-97277625D01*
X169607379Y-97392621D01*
X169722375Y-97480861D01*
X169856291Y-97536330D01*
X169983280Y-97553048D01*
X169999999Y-97555250D01*
X170000000Y-97555250D01*
X170000001Y-97555250D01*
X170014977Y-97553278D01*
X170143709Y-97536330D01*
X170277625Y-97480861D01*
X170392621Y-97392621D01*
X170480861Y-97277625D01*
X170536330Y-97143709D01*
X170555250Y-97000000D01*
X170536330Y-96856291D01*
X170480861Y-96722375D01*
X170392621Y-96607379D01*
X170277625Y-96519139D01*
X170277624Y-96519138D01*
X170277622Y-96519137D01*
X170143712Y-96463671D01*
X170143710Y-96463670D01*
X170143709Y-96463670D01*
X170071854Y-96454210D01*
X170000001Y-96444750D01*
X169999999Y-96444750D01*
X169856291Y-96463670D01*
X169856287Y-96463671D01*
X169722377Y-96519137D01*
X169607379Y-96607379D01*
X169519137Y-96722377D01*
X169463671Y-96856287D01*
X169463670Y-96856291D01*
X169444750Y-96999999D01*
X163155250Y-96999999D01*
X163136330Y-96856291D01*
X163080861Y-96722375D01*
X162992621Y-96607379D01*
X162877625Y-96519139D01*
X162877624Y-96519138D01*
X162877622Y-96519137D01*
X162743712Y-96463671D01*
X162743710Y-96463670D01*
X162743709Y-96463670D01*
X162671854Y-96454210D01*
X162600001Y-96444750D01*
X162599999Y-96444750D01*
X162456291Y-96463670D01*
X162456287Y-96463671D01*
X162322377Y-96519137D01*
X162207379Y-96607379D01*
X162119137Y-96722377D01*
X162063671Y-96856287D01*
X162063670Y-96856291D01*
X162044750Y-96999999D01*
X158388606Y-96999999D01*
X158317621Y-96907490D01*
X158202625Y-96819250D01*
X158202624Y-96819249D01*
X158202622Y-96819248D01*
X158068712Y-96763782D01*
X158068710Y-96763781D01*
X158068709Y-96763781D01*
X157996854Y-96754321D01*
X157925001Y-96744861D01*
X157924999Y-96744861D01*
X157781291Y-96763781D01*
X157781287Y-96763782D01*
X157647377Y-96819248D01*
X157532379Y-96907490D01*
X157444137Y-97022488D01*
X157388671Y-97156398D01*
X157388670Y-97156402D01*
X157369750Y-97300110D01*
X140605500Y-97300110D01*
X140605500Y-96827956D01*
X140625185Y-96760917D01*
X140677989Y-96715162D01*
X140747147Y-96705218D01*
X140765698Y-96709533D01*
X140899998Y-96730804D01*
X140900000Y-96730804D01*
X140900002Y-96730804D01*
X141033121Y-96709720D01*
X141033121Y-96709719D01*
X141033126Y-96709719D01*
X141153220Y-96648528D01*
X141248528Y-96553220D01*
X141276655Y-96498016D01*
X141324628Y-96447222D01*
X141390240Y-96430973D01*
X141390240Y-96430804D01*
X141390923Y-96430804D01*
X141392449Y-96430426D01*
X141396213Y-96430804D01*
X141400000Y-96430804D01*
X141400002Y-96430804D01*
X141533121Y-96409720D01*
X141533121Y-96409719D01*
X141533126Y-96409719D01*
X141653220Y-96348528D01*
X141701749Y-96299999D01*
X156444750Y-96299999D01*
X156444750Y-96300000D01*
X156463670Y-96443708D01*
X156463671Y-96443712D01*
X156519137Y-96577622D01*
X156519138Y-96577624D01*
X156519139Y-96577625D01*
X156607379Y-96692621D01*
X156722375Y-96780861D01*
X156856291Y-96836330D01*
X156983280Y-96853048D01*
X156999999Y-96855250D01*
X157000000Y-96855250D01*
X157000001Y-96855250D01*
X157014977Y-96853278D01*
X157143709Y-96836330D01*
X157277625Y-96780861D01*
X157392621Y-96692621D01*
X157480861Y-96577625D01*
X157536330Y-96443709D01*
X157555250Y-96300000D01*
X157536330Y-96156291D01*
X157480861Y-96022375D01*
X157392621Y-95907379D01*
X157277625Y-95819139D01*
X157277624Y-95819138D01*
X157277622Y-95819137D01*
X157143712Y-95763671D01*
X157143710Y-95763670D01*
X157143709Y-95763670D01*
X157071854Y-95754210D01*
X157000001Y-95744750D01*
X156999999Y-95744750D01*
X156856291Y-95763670D01*
X156856287Y-95763671D01*
X156722377Y-95819137D01*
X156607379Y-95907379D01*
X156519137Y-96022377D01*
X156463671Y-96156287D01*
X156463670Y-96156291D01*
X156444750Y-96299999D01*
X141701749Y-96299999D01*
X141748528Y-96253220D01*
X141809719Y-96133126D01*
X141830804Y-96000000D01*
X141816134Y-95907379D01*
X141809720Y-95866878D01*
X141809719Y-95866876D01*
X141809719Y-95866874D01*
X141766112Y-95781291D01*
X141753217Y-95712626D01*
X141766111Y-95668710D01*
X141809719Y-95583126D01*
X141809720Y-95583121D01*
X141830804Y-95450002D01*
X141830804Y-95449997D01*
X141809720Y-95316878D01*
X141809719Y-95316876D01*
X141809719Y-95316874D01*
X141748528Y-95196780D01*
X141748526Y-95196778D01*
X141748523Y-95196774D01*
X141653225Y-95101476D01*
X141653221Y-95101473D01*
X141653220Y-95101472D01*
X141533126Y-95040281D01*
X141533124Y-95040280D01*
X141533121Y-95040279D01*
X141400002Y-95019196D01*
X141399998Y-95019196D01*
X141266878Y-95040279D01*
X141146778Y-95101473D01*
X141146774Y-95101476D01*
X141051472Y-95196779D01*
X141051471Y-95196779D01*
X141046917Y-95205718D01*
X140998942Y-95256512D01*
X140931120Y-95273306D01*
X140917040Y-95271894D01*
X140900002Y-95269196D01*
X140900001Y-95269196D01*
X140900000Y-95269196D01*
X140886911Y-95271268D01*
X140815914Y-95282513D01*
X140746621Y-95273557D01*
X140693170Y-95228560D01*
X140672531Y-95161808D01*
X140691257Y-95094495D01*
X140706361Y-95074906D01*
X140871550Y-94900000D01*
X143344750Y-94900000D01*
X143363218Y-95040279D01*
X143363670Y-95043708D01*
X143363671Y-95043712D01*
X143419137Y-95177622D01*
X143419138Y-95177624D01*
X143419139Y-95177625D01*
X143507379Y-95292621D01*
X143622375Y-95380861D01*
X143622376Y-95380861D01*
X143622377Y-95380862D01*
X143651083Y-95392752D01*
X143756291Y-95436330D01*
X143883280Y-95453048D01*
X143899999Y-95455250D01*
X143900000Y-95455250D01*
X143900001Y-95455250D01*
X143914977Y-95453278D01*
X144043709Y-95436330D01*
X144177625Y-95380861D01*
X144292621Y-95292621D01*
X144380861Y-95177625D01*
X144436330Y-95043709D01*
X144442085Y-95000000D01*
X169444750Y-95000000D01*
X169458109Y-95101473D01*
X169463670Y-95143708D01*
X169463671Y-95143712D01*
X169519137Y-95277622D01*
X169519138Y-95277624D01*
X169519139Y-95277625D01*
X169607379Y-95392621D01*
X169722375Y-95480861D01*
X169856291Y-95536330D01*
X169983280Y-95553048D01*
X169999999Y-95555250D01*
X170000000Y-95555250D01*
X170000001Y-95555250D01*
X170014977Y-95553278D01*
X170143709Y-95536330D01*
X170277625Y-95480861D01*
X170392621Y-95392621D01*
X170480861Y-95277625D01*
X170536330Y-95143709D01*
X170555250Y-95000000D01*
X170536330Y-94856291D01*
X170480861Y-94722375D01*
X170392621Y-94607379D01*
X170277625Y-94519139D01*
X170277624Y-94519138D01*
X170277622Y-94519137D01*
X170143712Y-94463671D01*
X170143710Y-94463670D01*
X170143709Y-94463670D01*
X170071854Y-94454210D01*
X170000001Y-94444750D01*
X169999999Y-94444750D01*
X169856291Y-94463670D01*
X169856287Y-94463671D01*
X169722377Y-94519137D01*
X169607379Y-94607379D01*
X169519137Y-94722377D01*
X169463671Y-94856287D01*
X169463670Y-94856291D01*
X169444750Y-95000000D01*
X144442085Y-95000000D01*
X144455250Y-94900000D01*
X144436330Y-94756291D01*
X144380861Y-94622375D01*
X144292621Y-94507379D01*
X144177625Y-94419139D01*
X144177624Y-94419138D01*
X144177622Y-94419137D01*
X144043712Y-94363671D01*
X144043710Y-94363670D01*
X144043709Y-94363670D01*
X143971854Y-94354210D01*
X143900001Y-94344750D01*
X143899999Y-94344750D01*
X143756291Y-94363670D01*
X143756287Y-94363671D01*
X143622377Y-94419137D01*
X143507379Y-94507379D01*
X143419137Y-94622377D01*
X143363671Y-94756287D01*
X143363670Y-94756291D01*
X143350505Y-94856291D01*
X143344750Y-94900000D01*
X140871550Y-94900000D01*
X142102997Y-93596115D01*
X142163338Y-93560894D01*
X142233144Y-93563886D01*
X142290250Y-93604143D01*
X142312921Y-93649166D01*
X142314955Y-93656761D01*
X142353577Y-93750001D01*
X142375464Y-93802841D01*
X142471718Y-93928282D01*
X142597159Y-94024536D01*
X142743238Y-94085044D01*
X142821619Y-94095363D01*
X142899999Y-94105682D01*
X142900000Y-94105682D01*
X142900001Y-94105682D01*
X142952254Y-94098802D01*
X143056762Y-94085044D01*
X143202841Y-94024536D01*
X143328282Y-93928282D01*
X143424536Y-93802841D01*
X143485044Y-93656762D01*
X143505682Y-93500000D01*
X143503162Y-93480862D01*
X143485044Y-93343239D01*
X143485044Y-93343238D01*
X143424536Y-93197159D01*
X143328282Y-93071718D01*
X143202841Y-92975464D01*
X143108358Y-92936328D01*
X143056762Y-92914956D01*
X143056760Y-92914955D01*
X142900001Y-92894318D01*
X142899999Y-92894318D01*
X142743239Y-92914955D01*
X142743237Y-92914956D01*
X142597157Y-92975464D01*
X142504986Y-93046190D01*
X142439817Y-93071384D01*
X142371372Y-93057345D01*
X142321382Y-93008531D01*
X142305500Y-92947814D01*
X142305500Y-91800000D01*
X143344750Y-91800000D01*
X143353132Y-91863670D01*
X143363670Y-91943708D01*
X143363671Y-91943712D01*
X143419137Y-92077622D01*
X143419138Y-92077624D01*
X143419139Y-92077625D01*
X143507379Y-92192621D01*
X143622375Y-92280861D01*
X143756291Y-92336330D01*
X143883280Y-92353048D01*
X143899999Y-92355250D01*
X143900000Y-92355250D01*
X143900001Y-92355250D01*
X143914977Y-92353278D01*
X144043709Y-92336330D01*
X144177625Y-92280861D01*
X144292621Y-92192621D01*
X144344551Y-92124944D01*
X144400976Y-92083743D01*
X144470722Y-92079588D01*
X144531643Y-92113800D01*
X144560501Y-92164474D01*
X144560560Y-92164450D01*
X144560754Y-92164918D01*
X144562698Y-92168332D01*
X144563669Y-92171957D01*
X144619137Y-92305871D01*
X144619138Y-92305873D01*
X144619139Y-92305874D01*
X144707379Y-92420870D01*
X144822375Y-92509110D01*
X144822376Y-92509110D01*
X144822377Y-92509111D01*
X144867013Y-92527599D01*
X144956291Y-92564579D01*
X145083280Y-92581297D01*
X145099999Y-92583499D01*
X145100000Y-92583499D01*
X145100001Y-92583499D01*
X145114977Y-92581527D01*
X145243709Y-92564579D01*
X145377625Y-92509110D01*
X145492621Y-92420870D01*
X145508635Y-92400000D01*
X155744750Y-92400000D01*
X155753132Y-92463670D01*
X155763670Y-92543708D01*
X155763671Y-92543712D01*
X155819137Y-92677622D01*
X155819138Y-92677624D01*
X155819139Y-92677625D01*
X155907379Y-92792621D01*
X156022375Y-92880861D01*
X156022376Y-92880861D01*
X156022377Y-92880862D01*
X156067013Y-92899350D01*
X156156291Y-92936330D01*
X156283280Y-92953048D01*
X156299999Y-92955250D01*
X156300000Y-92955250D01*
X156300001Y-92955250D01*
X156314977Y-92953278D01*
X156443709Y-92936330D01*
X156531419Y-92900000D01*
X164944750Y-92900000D01*
X164957915Y-93000000D01*
X164963670Y-93043708D01*
X164963671Y-93043712D01*
X165019137Y-93177622D01*
X165019138Y-93177624D01*
X165019139Y-93177625D01*
X165107379Y-93292621D01*
X165222375Y-93380861D01*
X165222376Y-93380861D01*
X165222377Y-93380862D01*
X165267013Y-93399350D01*
X165356291Y-93436330D01*
X165483280Y-93453048D01*
X165499999Y-93455250D01*
X165500000Y-93455250D01*
X165500001Y-93455250D01*
X165514977Y-93453278D01*
X165643709Y-93436330D01*
X165777625Y-93380861D01*
X165892621Y-93292621D01*
X165980861Y-93177625D01*
X166036330Y-93043709D01*
X166042085Y-92999999D01*
X169444750Y-92999999D01*
X169444750Y-93000000D01*
X169463670Y-93143708D01*
X169463671Y-93143712D01*
X169519137Y-93277622D01*
X169519138Y-93277624D01*
X169519139Y-93277625D01*
X169607379Y-93392621D01*
X169722375Y-93480861D01*
X169856291Y-93536330D01*
X169983280Y-93553048D01*
X169999999Y-93555250D01*
X170000000Y-93555250D01*
X170000001Y-93555250D01*
X170014977Y-93553278D01*
X170143709Y-93536330D01*
X170277625Y-93480861D01*
X170392621Y-93392621D01*
X170480861Y-93277625D01*
X170536330Y-93143709D01*
X170555250Y-93000000D01*
X170536330Y-92856291D01*
X170480861Y-92722375D01*
X170392621Y-92607379D01*
X170277625Y-92519139D01*
X170277624Y-92519138D01*
X170277622Y-92519137D01*
X170143712Y-92463671D01*
X170143710Y-92463670D01*
X170143709Y-92463670D01*
X170071854Y-92454210D01*
X170000001Y-92444750D01*
X169999999Y-92444750D01*
X169856291Y-92463670D01*
X169856287Y-92463671D01*
X169722377Y-92519137D01*
X169607379Y-92607379D01*
X169519137Y-92722377D01*
X169463671Y-92856287D01*
X169463670Y-92856291D01*
X169444750Y-92999999D01*
X166042085Y-92999999D01*
X166055250Y-92900000D01*
X166036330Y-92756291D01*
X165986641Y-92636329D01*
X165980862Y-92622377D01*
X165980861Y-92622376D01*
X165980861Y-92622375D01*
X165892621Y-92507379D01*
X165777625Y-92419139D01*
X165777624Y-92419138D01*
X165777622Y-92419137D01*
X165643712Y-92363671D01*
X165643710Y-92363670D01*
X165643709Y-92363670D01*
X165571854Y-92354210D01*
X165500001Y-92344750D01*
X165499999Y-92344750D01*
X165356291Y-92363670D01*
X165356287Y-92363671D01*
X165222377Y-92419137D01*
X165107379Y-92507379D01*
X165019137Y-92622377D01*
X164963671Y-92756287D01*
X164963670Y-92756291D01*
X164947270Y-92880862D01*
X164944750Y-92900000D01*
X156531419Y-92900000D01*
X156577625Y-92880861D01*
X156692621Y-92792621D01*
X156780861Y-92677625D01*
X156836330Y-92543709D01*
X156855250Y-92400000D01*
X156842085Y-92300000D01*
X160344750Y-92300000D01*
X160357915Y-92400000D01*
X160363670Y-92443708D01*
X160363671Y-92443712D01*
X160419137Y-92577622D01*
X160419138Y-92577624D01*
X160419139Y-92577625D01*
X160507379Y-92692621D01*
X160622375Y-92780861D01*
X160622376Y-92780861D01*
X160622377Y-92780862D01*
X160667013Y-92799350D01*
X160756291Y-92836330D01*
X160883280Y-92853048D01*
X160899999Y-92855250D01*
X160900000Y-92855250D01*
X160900001Y-92855250D01*
X160914977Y-92853278D01*
X161043709Y-92836330D01*
X161177625Y-92780861D01*
X161292621Y-92692621D01*
X161380861Y-92577625D01*
X161436330Y-92443709D01*
X161455250Y-92300000D01*
X161436330Y-92156291D01*
X161380861Y-92022375D01*
X161292621Y-91907379D01*
X161177625Y-91819139D01*
X161177624Y-91819138D01*
X161177622Y-91819137D01*
X161043712Y-91763671D01*
X161043710Y-91763670D01*
X161043709Y-91763670D01*
X160929699Y-91748660D01*
X160900001Y-91744750D01*
X160899999Y-91744750D01*
X160756291Y-91763670D01*
X160756287Y-91763671D01*
X160622377Y-91819137D01*
X160507379Y-91907379D01*
X160419137Y-92022377D01*
X160363671Y-92156287D01*
X160363670Y-92156291D01*
X160347270Y-92280862D01*
X160344750Y-92300000D01*
X156842085Y-92300000D01*
X156836330Y-92256291D01*
X156780861Y-92122375D01*
X156692621Y-92007379D01*
X156577625Y-91919139D01*
X156577624Y-91919138D01*
X156577622Y-91919137D01*
X156443712Y-91863671D01*
X156443710Y-91863670D01*
X156443709Y-91863670D01*
X156371854Y-91854210D01*
X156300001Y-91844750D01*
X156299999Y-91844750D01*
X156156291Y-91863670D01*
X156156287Y-91863671D01*
X156022377Y-91919137D01*
X155907379Y-92007379D01*
X155819137Y-92122377D01*
X155763671Y-92256287D01*
X155763670Y-92256291D01*
X155750642Y-92355250D01*
X155744750Y-92400000D01*
X145508635Y-92400000D01*
X145580861Y-92305874D01*
X145636330Y-92171958D01*
X145655250Y-92028249D01*
X145636330Y-91884540D01*
X145580861Y-91750624D01*
X145492621Y-91635628D01*
X145377625Y-91547388D01*
X145377624Y-91547387D01*
X145377622Y-91547386D01*
X145243712Y-91491920D01*
X145243710Y-91491919D01*
X145243709Y-91491919D01*
X145159717Y-91480861D01*
X145100001Y-91472999D01*
X145099999Y-91472999D01*
X144956291Y-91491919D01*
X144956287Y-91491920D01*
X144822377Y-91547386D01*
X144707376Y-91635630D01*
X144655449Y-91703303D01*
X144599021Y-91744506D01*
X144529275Y-91748660D01*
X144468355Y-91714447D01*
X144439500Y-91663773D01*
X144439440Y-91663799D01*
X144439240Y-91663318D01*
X144437299Y-91659908D01*
X144436329Y-91656289D01*
X144420940Y-91619137D01*
X144386641Y-91536329D01*
X144380862Y-91522377D01*
X144380861Y-91522376D01*
X144380861Y-91522375D01*
X144292621Y-91407379D01*
X144177625Y-91319139D01*
X144177624Y-91319138D01*
X144177622Y-91319137D01*
X144043712Y-91263671D01*
X144043710Y-91263670D01*
X144043709Y-91263670D01*
X143971854Y-91254210D01*
X143900001Y-91244750D01*
X143899999Y-91244750D01*
X143756291Y-91263670D01*
X143756287Y-91263671D01*
X143622377Y-91319137D01*
X143507379Y-91407379D01*
X143419137Y-91522377D01*
X143363671Y-91656287D01*
X143363670Y-91656291D01*
X143344750Y-91800000D01*
X142305500Y-91800000D01*
X142305500Y-91124008D01*
X142305499Y-91123992D01*
X142300803Y-91080316D01*
X142292840Y-91043712D01*
X142289602Y-91028825D01*
X142289348Y-91027789D01*
X142287110Y-91018627D01*
X142244100Y-90937915D01*
X142198345Y-90885111D01*
X142198339Y-90885104D01*
X142180757Y-90867160D01*
X142180756Y-90867159D01*
X142180754Y-90867157D01*
X142180752Y-90867156D01*
X142180750Y-90867154D01*
X142100940Y-90822511D01*
X142100935Y-90822509D01*
X142033903Y-90802826D01*
X142033899Y-90802825D01*
X142033898Y-90802825D01*
X142014251Y-90800000D01*
X150844750Y-90800000D01*
X150857915Y-90900000D01*
X150863670Y-90943708D01*
X150863671Y-90943712D01*
X150919137Y-91077622D01*
X150919138Y-91077624D01*
X150919139Y-91077625D01*
X151007379Y-91192621D01*
X151122375Y-91280861D01*
X151122376Y-91280861D01*
X151122377Y-91280862D01*
X151150769Y-91292622D01*
X151256291Y-91336330D01*
X151383280Y-91353048D01*
X151399999Y-91355250D01*
X151400000Y-91355250D01*
X151400001Y-91355250D01*
X151414977Y-91353278D01*
X151543709Y-91336330D01*
X151677625Y-91280861D01*
X151792621Y-91192621D01*
X151880861Y-91077625D01*
X151913014Y-90999999D01*
X169444750Y-90999999D01*
X169444750Y-91000000D01*
X169463670Y-91143708D01*
X169463671Y-91143712D01*
X169519137Y-91277622D01*
X169519138Y-91277624D01*
X169519139Y-91277625D01*
X169607379Y-91392621D01*
X169722375Y-91480861D01*
X169856291Y-91536330D01*
X169983280Y-91553048D01*
X169999999Y-91555250D01*
X170000000Y-91555250D01*
X170000001Y-91555250D01*
X170014977Y-91553278D01*
X170143709Y-91536330D01*
X170277625Y-91480861D01*
X170392621Y-91392621D01*
X170480861Y-91277625D01*
X170536330Y-91143709D01*
X170555250Y-91000000D01*
X170536330Y-90856291D01*
X170480861Y-90722375D01*
X170392621Y-90607379D01*
X170277625Y-90519139D01*
X170277624Y-90519138D01*
X170277622Y-90519137D01*
X170143712Y-90463671D01*
X170143710Y-90463670D01*
X170143709Y-90463670D01*
X170071854Y-90454210D01*
X170000001Y-90444750D01*
X169999999Y-90444750D01*
X169856291Y-90463670D01*
X169856287Y-90463671D01*
X169722377Y-90519137D01*
X169607379Y-90607379D01*
X169519137Y-90722377D01*
X169463671Y-90856287D01*
X169463670Y-90856291D01*
X169444750Y-90999999D01*
X151913014Y-90999999D01*
X151936330Y-90943709D01*
X151955250Y-90800000D01*
X151954709Y-90795894D01*
X151949495Y-90756287D01*
X151936330Y-90656291D01*
X151880861Y-90522375D01*
X151792621Y-90407379D01*
X151677625Y-90319139D01*
X151677624Y-90319138D01*
X151677622Y-90319137D01*
X151543712Y-90263671D01*
X151543710Y-90263670D01*
X151543709Y-90263670D01*
X151471854Y-90254210D01*
X151400001Y-90244750D01*
X151399999Y-90244750D01*
X151256291Y-90263670D01*
X151256287Y-90263671D01*
X151122377Y-90319137D01*
X151007379Y-90407379D01*
X150919137Y-90522377D01*
X150863671Y-90656287D01*
X150863670Y-90656291D01*
X150845291Y-90795894D01*
X150844750Y-90800000D01*
X142014251Y-90800000D01*
X141976000Y-90794500D01*
X140852739Y-90794500D01*
X140852731Y-90794500D01*
X140852709Y-90794501D01*
X140828849Y-90795893D01*
X140800202Y-90799247D01*
X140800198Y-90799248D01*
X140722230Y-90824879D01*
X140661548Y-90859515D01*
X140615397Y-90895441D01*
X140615393Y-90895444D01*
X139826724Y-91714447D01*
X139386156Y-92171961D01*
X139368570Y-92190223D01*
X139307889Y-92224858D01*
X139238116Y-92221190D01*
X139181402Y-92180381D01*
X139155755Y-92115389D01*
X139155250Y-92104211D01*
X139155250Y-92099999D01*
X139152304Y-92077622D01*
X139136330Y-91956291D01*
X139080861Y-91822375D01*
X138992621Y-91707379D01*
X138877625Y-91619139D01*
X138877624Y-91619138D01*
X138877622Y-91619137D01*
X138743712Y-91563671D01*
X138743710Y-91563670D01*
X138743709Y-91563670D01*
X138715203Y-91559917D01*
X138695394Y-91557309D01*
X138631498Y-91529042D01*
X138593028Y-91470717D01*
X138592197Y-91400852D01*
X138629270Y-91341629D01*
X138636075Y-91336010D01*
X138692621Y-91292621D01*
X138780861Y-91177625D01*
X138836330Y-91043709D01*
X138855250Y-90900000D01*
X138836330Y-90756291D01*
X138786641Y-90636329D01*
X138780862Y-90622377D01*
X138780861Y-90622376D01*
X138780861Y-90622375D01*
X138692621Y-90507379D01*
X138577625Y-90419139D01*
X138577624Y-90419138D01*
X138577622Y-90419137D01*
X138443712Y-90363671D01*
X138443710Y-90363670D01*
X138443709Y-90363670D01*
X138371854Y-90354210D01*
X138300001Y-90344750D01*
X138299999Y-90344750D01*
X138156291Y-90363670D01*
X138156287Y-90363671D01*
X138022377Y-90419137D01*
X137988998Y-90444750D01*
X137907379Y-90507379D01*
X137907378Y-90507380D01*
X137907377Y-90507381D01*
X137848375Y-90584273D01*
X137791947Y-90625476D01*
X137722201Y-90629630D01*
X137661281Y-90595417D01*
X137651625Y-90584273D01*
X137604128Y-90522375D01*
X137592621Y-90507379D01*
X137477625Y-90419139D01*
X137477624Y-90419138D01*
X137477622Y-90419137D01*
X137343712Y-90363671D01*
X137343710Y-90363670D01*
X137343709Y-90363670D01*
X137271854Y-90354210D01*
X137200001Y-90344750D01*
X137199999Y-90344750D01*
X137056291Y-90363670D01*
X137056287Y-90363671D01*
X136922377Y-90419137D01*
X136807379Y-90507379D01*
X136719137Y-90622377D01*
X136663671Y-90756287D01*
X136663670Y-90756291D01*
X136649074Y-90867160D01*
X136644750Y-90900000D01*
X136661710Y-91028825D01*
X136663670Y-91043708D01*
X136663671Y-91043712D01*
X136719137Y-91177622D01*
X136719138Y-91177624D01*
X136719139Y-91177625D01*
X136807379Y-91292621D01*
X136922375Y-91380861D01*
X136922376Y-91380861D01*
X136922377Y-91380862D01*
X136967013Y-91399350D01*
X137056291Y-91436330D01*
X137183280Y-91453048D01*
X137199999Y-91455250D01*
X137200000Y-91455250D01*
X137200001Y-91455250D01*
X137214977Y-91453278D01*
X137343709Y-91436330D01*
X137477625Y-91380861D01*
X137592621Y-91292621D01*
X137651626Y-91215724D01*
X137708052Y-91174524D01*
X137777798Y-91170369D01*
X137838719Y-91204582D01*
X137848367Y-91215716D01*
X137907379Y-91292621D01*
X138022375Y-91380861D01*
X138022376Y-91380861D01*
X138022377Y-91380862D01*
X138067013Y-91399350D01*
X138156291Y-91436330D01*
X138204604Y-91442690D01*
X138268499Y-91470956D01*
X138306971Y-91529280D01*
X138307803Y-91599145D01*
X138270731Y-91658369D01*
X138263906Y-91664004D01*
X138207380Y-91707378D01*
X138119137Y-91822377D01*
X138063671Y-91956287D01*
X138063670Y-91956291D01*
X138054197Y-92028248D01*
X138044750Y-92100000D01*
X138054223Y-92171957D01*
X138063670Y-92243708D01*
X138063671Y-92243712D01*
X138119137Y-92377622D01*
X138119138Y-92377624D01*
X138119139Y-92377625D01*
X138207379Y-92492621D01*
X138322375Y-92580861D01*
X138322376Y-92580861D01*
X138322377Y-92580862D01*
X138367013Y-92599350D01*
X138456291Y-92636330D01*
X138583280Y-92653048D01*
X138599999Y-92655250D01*
X138600000Y-92655250D01*
X138600001Y-92655250D01*
X138602920Y-92654865D01*
X138616085Y-92653132D01*
X138685119Y-92663894D01*
X138737377Y-92710272D01*
X138756265Y-92777540D01*
X138735787Y-92844341D01*
X138721594Y-92862081D01*
X138086638Y-93521459D01*
X138073454Y-93536562D01*
X138058465Y-93555527D01*
X138058458Y-93555539D01*
X138022512Y-93625055D01*
X138022511Y-93625057D01*
X138002826Y-93692094D01*
X137994500Y-93750001D01*
X137994500Y-105623563D01*
X137974815Y-105690602D01*
X137922011Y-105736357D01*
X137886687Y-105746502D01*
X137756291Y-105763670D01*
X137756287Y-105763671D01*
X137622377Y-105819137D01*
X137573963Y-105856287D01*
X137507379Y-105907379D01*
X137507378Y-105907380D01*
X137507377Y-105907381D01*
X137498375Y-105919113D01*
X137441947Y-105960316D01*
X137372201Y-105964470D01*
X137311281Y-105930257D01*
X137301625Y-105919113D01*
X137299782Y-105916711D01*
X137292621Y-105907379D01*
X137177625Y-105819139D01*
X137177624Y-105819138D01*
X137177622Y-105819137D01*
X137043712Y-105763671D01*
X137043710Y-105763670D01*
X137043709Y-105763670D01*
X136913308Y-105746502D01*
X136900001Y-105744750D01*
X136899999Y-105744750D01*
X136756291Y-105763670D01*
X136756287Y-105763671D01*
X136622377Y-105819137D01*
X136507379Y-105907379D01*
X136419137Y-106022377D01*
X136363671Y-106156287D01*
X136363670Y-106156291D01*
X136344750Y-106299999D01*
X130463693Y-106299999D01*
X130480861Y-106277625D01*
X130536330Y-106143709D01*
X130555250Y-106000000D01*
X130536330Y-105856291D01*
X130490129Y-105744750D01*
X130480862Y-105722377D01*
X130480861Y-105722376D01*
X130480861Y-105722375D01*
X130392621Y-105607379D01*
X130277625Y-105519139D01*
X130277624Y-105519138D01*
X130277622Y-105519137D01*
X130143712Y-105463671D01*
X130143710Y-105463670D01*
X130143709Y-105463670D01*
X130071854Y-105454210D01*
X130000001Y-105444750D01*
X129999999Y-105444750D01*
X129856291Y-105463670D01*
X129856287Y-105463671D01*
X129722377Y-105519137D01*
X129607379Y-105607379D01*
X129519137Y-105722377D01*
X129463671Y-105856287D01*
X129463670Y-105856291D01*
X129444750Y-105999999D01*
X129000000Y-105999999D01*
X129000000Y-102000000D01*
X129444750Y-102000000D01*
X129462698Y-102136329D01*
X129463670Y-102143708D01*
X129463671Y-102143712D01*
X129519137Y-102277622D01*
X129519138Y-102277624D01*
X129519139Y-102277625D01*
X129607379Y-102392621D01*
X129722375Y-102480861D01*
X129722376Y-102480861D01*
X129722377Y-102480862D01*
X129767013Y-102499350D01*
X129856291Y-102536330D01*
X129983280Y-102553048D01*
X129999999Y-102555250D01*
X130000000Y-102555250D01*
X130000001Y-102555250D01*
X130014977Y-102553278D01*
X130143709Y-102536330D01*
X130277625Y-102480861D01*
X130392621Y-102392621D01*
X130480861Y-102277625D01*
X130533490Y-102150565D01*
X133356853Y-102150565D01*
X133356853Y-102308258D01*
X133387614Y-102462901D01*
X133387617Y-102462913D01*
X133447955Y-102608584D01*
X133447962Y-102608597D01*
X133535563Y-102739700D01*
X133535566Y-102739704D01*
X133647060Y-102851198D01*
X133647064Y-102851201D01*
X133778167Y-102938802D01*
X133778180Y-102938809D01*
X133923851Y-102999147D01*
X133923856Y-102999149D01*
X134078506Y-103029911D01*
X134078509Y-103029912D01*
X134078511Y-103029912D01*
X134786197Y-103029912D01*
X134786198Y-103029911D01*
X134940850Y-102999149D01*
X135086532Y-102938806D01*
X135217642Y-102851201D01*
X135329142Y-102739701D01*
X135416747Y-102608591D01*
X135477090Y-102462909D01*
X135507853Y-102308254D01*
X135507853Y-102150570D01*
X135507853Y-102150567D01*
X135507852Y-102150565D01*
X135477090Y-101995915D01*
X135470855Y-101980862D01*
X135416750Y-101850239D01*
X135416743Y-101850226D01*
X135329142Y-101719123D01*
X135329139Y-101719119D01*
X135217645Y-101607625D01*
X135217641Y-101607622D01*
X135086538Y-101520021D01*
X135086525Y-101520014D01*
X134940854Y-101459676D01*
X134940842Y-101459673D01*
X134786198Y-101428912D01*
X134786195Y-101428912D01*
X134078511Y-101428912D01*
X134078508Y-101428912D01*
X133923863Y-101459673D01*
X133923851Y-101459676D01*
X133778180Y-101520014D01*
X133778167Y-101520021D01*
X133647064Y-101607622D01*
X133647060Y-101607625D01*
X133535566Y-101719119D01*
X133535563Y-101719123D01*
X133447962Y-101850226D01*
X133447955Y-101850239D01*
X133387617Y-101995910D01*
X133387614Y-101995922D01*
X133356853Y-102150565D01*
X130533490Y-102150565D01*
X130536330Y-102143709D01*
X130555250Y-102000000D01*
X130553970Y-101990281D01*
X130552730Y-101980861D01*
X130536330Y-101856291D01*
X130480861Y-101722375D01*
X130392621Y-101607379D01*
X130277625Y-101519139D01*
X130277624Y-101519138D01*
X130277622Y-101519137D01*
X130143712Y-101463671D01*
X130143710Y-101463670D01*
X130143709Y-101463670D01*
X130071854Y-101454210D01*
X130000001Y-101444750D01*
X129999999Y-101444750D01*
X129856291Y-101463670D01*
X129856287Y-101463671D01*
X129722377Y-101519137D01*
X129607379Y-101607379D01*
X129519137Y-101722377D01*
X129463671Y-101856287D01*
X129463670Y-101856291D01*
X129445722Y-101992620D01*
X129444750Y-102000000D01*
X129000000Y-102000000D01*
X129000000Y-99999999D01*
X129444750Y-99999999D01*
X129444750Y-100000000D01*
X129463670Y-100143708D01*
X129463671Y-100143712D01*
X129519137Y-100277622D01*
X129519138Y-100277624D01*
X129519139Y-100277625D01*
X129607379Y-100392621D01*
X129722375Y-100480861D01*
X129856291Y-100536330D01*
X129983280Y-100553048D01*
X129999999Y-100555250D01*
X130000000Y-100555250D01*
X130000001Y-100555250D01*
X130014977Y-100553278D01*
X130143709Y-100536330D01*
X130277625Y-100480861D01*
X130392621Y-100392621D01*
X130480861Y-100277625D01*
X130533490Y-100150565D01*
X133356853Y-100150565D01*
X133356853Y-100308258D01*
X133387614Y-100462901D01*
X133387617Y-100462913D01*
X133447955Y-100608584D01*
X133447962Y-100608597D01*
X133535563Y-100739700D01*
X133535566Y-100739704D01*
X133647060Y-100851198D01*
X133647064Y-100851201D01*
X133778167Y-100938802D01*
X133778180Y-100938809D01*
X133920505Y-100997761D01*
X133923856Y-100999149D01*
X134078506Y-101029911D01*
X134078509Y-101029912D01*
X134078511Y-101029912D01*
X134786197Y-101029912D01*
X134786198Y-101029911D01*
X134940850Y-100999149D01*
X135074695Y-100943709D01*
X135086525Y-100938809D01*
X135086525Y-100938808D01*
X135086532Y-100938806D01*
X135217642Y-100851201D01*
X135329142Y-100739701D01*
X135416747Y-100608591D01*
X135477090Y-100462909D01*
X135507853Y-100308254D01*
X135507853Y-100150570D01*
X135507853Y-100150567D01*
X135507852Y-100150565D01*
X135484800Y-100034677D01*
X135477090Y-99995915D01*
X135477088Y-99995910D01*
X135416750Y-99850239D01*
X135416743Y-99850226D01*
X135329142Y-99719123D01*
X135329139Y-99719119D01*
X135217645Y-99607625D01*
X135217641Y-99607622D01*
X135086538Y-99520021D01*
X135086525Y-99520014D01*
X134940854Y-99459676D01*
X134940842Y-99459673D01*
X134786198Y-99428912D01*
X134786195Y-99428912D01*
X134078511Y-99428912D01*
X134078508Y-99428912D01*
X133923863Y-99459673D01*
X133923851Y-99459676D01*
X133778180Y-99520014D01*
X133778167Y-99520021D01*
X133647064Y-99607622D01*
X133647060Y-99607625D01*
X133535566Y-99719119D01*
X133535563Y-99719123D01*
X133447962Y-99850226D01*
X133447955Y-99850239D01*
X133387617Y-99995910D01*
X133387614Y-99995922D01*
X133356853Y-100150565D01*
X130533490Y-100150565D01*
X130536330Y-100143709D01*
X130555250Y-100000000D01*
X130536330Y-99856291D01*
X130480861Y-99722375D01*
X130392621Y-99607379D01*
X130277625Y-99519139D01*
X130277624Y-99519138D01*
X130277622Y-99519137D01*
X130143712Y-99463671D01*
X130143710Y-99463670D01*
X130143709Y-99463670D01*
X130071854Y-99454210D01*
X130000001Y-99444750D01*
X129999999Y-99444750D01*
X129856291Y-99463670D01*
X129856287Y-99463671D01*
X129722377Y-99519137D01*
X129607379Y-99607379D01*
X129519137Y-99722377D01*
X129463671Y-99856287D01*
X129463670Y-99856291D01*
X129444750Y-99999999D01*
X129000000Y-99999999D01*
X129000000Y-98000000D01*
X129444750Y-98000000D01*
X129457915Y-98100000D01*
X129463670Y-98143708D01*
X129463671Y-98143712D01*
X129519137Y-98277622D01*
X129519138Y-98277624D01*
X129519139Y-98277625D01*
X129607379Y-98392621D01*
X129722375Y-98480861D01*
X129722376Y-98480861D01*
X129722377Y-98480862D01*
X129767013Y-98499350D01*
X129856291Y-98536330D01*
X129983280Y-98553048D01*
X129999999Y-98555250D01*
X130000000Y-98555250D01*
X130000001Y-98555250D01*
X130014977Y-98553278D01*
X130143709Y-98536330D01*
X130277625Y-98480861D01*
X130392621Y-98392621D01*
X130480861Y-98277625D01*
X130533490Y-98150565D01*
X133356853Y-98150565D01*
X133356853Y-98308258D01*
X133387614Y-98462901D01*
X133387617Y-98462913D01*
X133447955Y-98608584D01*
X133447962Y-98608597D01*
X133535563Y-98739700D01*
X133535566Y-98739704D01*
X133647060Y-98851198D01*
X133647064Y-98851201D01*
X133778167Y-98938802D01*
X133778180Y-98938809D01*
X133908093Y-98992620D01*
X133923856Y-98999149D01*
X134078506Y-99029911D01*
X134078509Y-99029912D01*
X134078511Y-99029912D01*
X134786197Y-99029912D01*
X134786198Y-99029911D01*
X134940850Y-98999149D01*
X135086532Y-98938806D01*
X135217642Y-98851201D01*
X135329142Y-98739701D01*
X135416747Y-98608591D01*
X135420306Y-98600000D01*
X135464783Y-98492620D01*
X135477090Y-98462909D01*
X135507853Y-98308254D01*
X135507853Y-98150570D01*
X135507853Y-98150567D01*
X135507852Y-98150565D01*
X135501601Y-98119139D01*
X135477090Y-97995915D01*
X135477088Y-97995910D01*
X135416750Y-97850239D01*
X135416743Y-97850226D01*
X135329142Y-97719123D01*
X135329139Y-97719119D01*
X135217645Y-97607625D01*
X135217641Y-97607622D01*
X135086538Y-97520021D01*
X135086525Y-97520014D01*
X134940854Y-97459676D01*
X134940842Y-97459673D01*
X134786198Y-97428912D01*
X134786195Y-97428912D01*
X134078511Y-97428912D01*
X134078508Y-97428912D01*
X133923863Y-97459673D01*
X133923851Y-97459676D01*
X133778180Y-97520014D01*
X133778167Y-97520021D01*
X133647064Y-97607622D01*
X133647060Y-97607625D01*
X133535566Y-97719119D01*
X133535563Y-97719123D01*
X133447962Y-97850226D01*
X133447955Y-97850239D01*
X133387617Y-97995910D01*
X133387614Y-97995922D01*
X133356853Y-98150565D01*
X130533490Y-98150565D01*
X130536330Y-98143709D01*
X130555250Y-98000000D01*
X130536330Y-97856291D01*
X130480861Y-97722375D01*
X130392621Y-97607379D01*
X130277625Y-97519139D01*
X130277624Y-97519138D01*
X130277622Y-97519137D01*
X130143712Y-97463671D01*
X130143710Y-97463670D01*
X130143709Y-97463670D01*
X130071854Y-97454210D01*
X130000001Y-97444750D01*
X129999999Y-97444750D01*
X129856291Y-97463670D01*
X129856287Y-97463671D01*
X129722377Y-97519137D01*
X129607379Y-97607379D01*
X129519137Y-97722377D01*
X129463671Y-97856287D01*
X129463670Y-97856291D01*
X129450505Y-97956291D01*
X129444750Y-98000000D01*
X129000000Y-98000000D01*
X129000000Y-95999999D01*
X129444750Y-95999999D01*
X129444750Y-96000000D01*
X129463670Y-96143708D01*
X129463671Y-96143712D01*
X129519137Y-96277622D01*
X129519138Y-96277624D01*
X129519139Y-96277625D01*
X129607379Y-96392621D01*
X129722375Y-96480861D01*
X129856291Y-96536330D01*
X129983280Y-96553048D01*
X129999999Y-96555250D01*
X130000000Y-96555250D01*
X130000001Y-96555250D01*
X130015427Y-96553219D01*
X130143709Y-96536330D01*
X130277625Y-96480861D01*
X130392621Y-96392621D01*
X130480861Y-96277625D01*
X130536330Y-96143709D01*
X130555250Y-96000000D01*
X130536330Y-95856291D01*
X130523428Y-95825142D01*
X133356853Y-95825142D01*
X133356853Y-96633681D01*
X133359706Y-96664111D01*
X133359706Y-96664113D01*
X133404559Y-96792292D01*
X133404560Y-96792294D01*
X133485203Y-96901562D01*
X133594471Y-96982205D01*
X133637198Y-96997156D01*
X133722652Y-97027058D01*
X133753083Y-97029912D01*
X133753087Y-97029912D01*
X135111623Y-97029912D01*
X135142052Y-97027058D01*
X135142054Y-97027058D01*
X135206143Y-97004631D01*
X135270235Y-96982205D01*
X135379503Y-96901562D01*
X135460146Y-96792294D01*
X135495023Y-96692621D01*
X135504999Y-96664113D01*
X135504999Y-96664111D01*
X135507853Y-96633681D01*
X135507853Y-95825142D01*
X135504999Y-95794712D01*
X135504999Y-95794710D01*
X135460146Y-95666531D01*
X135460145Y-95666529D01*
X135379503Y-95557262D01*
X135270235Y-95476619D01*
X135270233Y-95476618D01*
X135142053Y-95431765D01*
X135111623Y-95428912D01*
X135111619Y-95428912D01*
X133753087Y-95428912D01*
X133753083Y-95428912D01*
X133722653Y-95431765D01*
X133722651Y-95431765D01*
X133594472Y-95476618D01*
X133594470Y-95476619D01*
X133485203Y-95557262D01*
X133404560Y-95666529D01*
X133404559Y-95666531D01*
X133359706Y-95794710D01*
X133359706Y-95794712D01*
X133356853Y-95825142D01*
X130523428Y-95825142D01*
X130480861Y-95722375D01*
X130392621Y-95607379D01*
X130277625Y-95519139D01*
X130277624Y-95519138D01*
X130277622Y-95519137D01*
X130143712Y-95463671D01*
X130143710Y-95463670D01*
X130143709Y-95463670D01*
X130071854Y-95454210D01*
X130000001Y-95444750D01*
X129999999Y-95444750D01*
X129856291Y-95463670D01*
X129856287Y-95463671D01*
X129722377Y-95519137D01*
X129607379Y-95607379D01*
X129519137Y-95722377D01*
X129463671Y-95856287D01*
X129463670Y-95856291D01*
X129444750Y-95999999D01*
X129000000Y-95999999D01*
X129000000Y-92100000D01*
X129444750Y-92100000D01*
X129454223Y-92171957D01*
X129463670Y-92243708D01*
X129463671Y-92243712D01*
X129519137Y-92377622D01*
X129519138Y-92377624D01*
X129519139Y-92377625D01*
X129607379Y-92492621D01*
X129722375Y-92580861D01*
X129722376Y-92580861D01*
X129722377Y-92580862D01*
X129767013Y-92599350D01*
X129856291Y-92636330D01*
X129983280Y-92653048D01*
X129999999Y-92655250D01*
X130000000Y-92655250D01*
X130000001Y-92655250D01*
X130014977Y-92653278D01*
X130143709Y-92636330D01*
X130277625Y-92580861D01*
X130392621Y-92492621D01*
X130480861Y-92377625D01*
X130536330Y-92243709D01*
X130555250Y-92100000D01*
X130536330Y-91956291D01*
X130480861Y-91822375D01*
X130392621Y-91707379D01*
X130277625Y-91619139D01*
X130277624Y-91619138D01*
X130277622Y-91619137D01*
X130143712Y-91563671D01*
X130143710Y-91563670D01*
X130143709Y-91563670D01*
X130071854Y-91554210D01*
X130000001Y-91544750D01*
X129999999Y-91544750D01*
X129856291Y-91563670D01*
X129856287Y-91563671D01*
X129722377Y-91619137D01*
X129607379Y-91707379D01*
X129519137Y-91822377D01*
X129463671Y-91956287D01*
X129463670Y-91956291D01*
X129454197Y-92028248D01*
X129444750Y-92100000D01*
X129000000Y-92100000D01*
X129000000Y-90099999D01*
X129444750Y-90099999D01*
X129444750Y-90100000D01*
X129463670Y-90243708D01*
X129463671Y-90243712D01*
X129519137Y-90377622D01*
X129519138Y-90377624D01*
X129519139Y-90377625D01*
X129607379Y-90492621D01*
X129722375Y-90580861D01*
X129856291Y-90636330D01*
X129983280Y-90653048D01*
X129999999Y-90655250D01*
X130000000Y-90655250D01*
X130000001Y-90655250D01*
X130014977Y-90653278D01*
X130143709Y-90636330D01*
X130277625Y-90580861D01*
X130392621Y-90492621D01*
X130480861Y-90377625D01*
X130536330Y-90243709D01*
X130555250Y-90100000D01*
X130536330Y-89956291D01*
X130480861Y-89822375D01*
X130392621Y-89707379D01*
X130277625Y-89619139D01*
X130277624Y-89619138D01*
X130277622Y-89619137D01*
X130143712Y-89563671D01*
X130143710Y-89563670D01*
X130143709Y-89563670D01*
X130071854Y-89554210D01*
X130000001Y-89544750D01*
X129999999Y-89544750D01*
X129856291Y-89563670D01*
X129856287Y-89563671D01*
X129722377Y-89619137D01*
X129607379Y-89707379D01*
X129519137Y-89822377D01*
X129463671Y-89956287D01*
X129463670Y-89956291D01*
X129444750Y-90099999D01*
X129000000Y-90099999D01*
X129000000Y-89099999D01*
X146244750Y-89099999D01*
X146244750Y-89100000D01*
X146263670Y-89243708D01*
X146263671Y-89243712D01*
X146319137Y-89377622D01*
X146319138Y-89377624D01*
X146319139Y-89377625D01*
X146407379Y-89492621D01*
X146522375Y-89580861D01*
X146656291Y-89636330D01*
X146783280Y-89653048D01*
X146799999Y-89655250D01*
X146800000Y-89655250D01*
X146800001Y-89655250D01*
X146814977Y-89653278D01*
X146943709Y-89636330D01*
X147077625Y-89580861D01*
X147192621Y-89492621D01*
X147280861Y-89377625D01*
X147336330Y-89243709D01*
X147355250Y-89100000D01*
X147342085Y-89000000D01*
X169444750Y-89000000D01*
X169457915Y-89100000D01*
X169463670Y-89143708D01*
X169463671Y-89143712D01*
X169519137Y-89277622D01*
X169519138Y-89277624D01*
X169519139Y-89277625D01*
X169607379Y-89392621D01*
X169722375Y-89480861D01*
X169722376Y-89480861D01*
X169722377Y-89480862D01*
X169767013Y-89499350D01*
X169856291Y-89536330D01*
X169983280Y-89553048D01*
X169999999Y-89555250D01*
X170000000Y-89555250D01*
X170000001Y-89555250D01*
X170014977Y-89553278D01*
X170143709Y-89536330D01*
X170277625Y-89480861D01*
X170392621Y-89392621D01*
X170480861Y-89277625D01*
X170536330Y-89143709D01*
X170555250Y-89000000D01*
X170536330Y-88856291D01*
X170480861Y-88722375D01*
X170392621Y-88607379D01*
X170277625Y-88519139D01*
X170277624Y-88519138D01*
X170277622Y-88519137D01*
X170143712Y-88463671D01*
X170143710Y-88463670D01*
X170143709Y-88463670D01*
X170071854Y-88454210D01*
X170000001Y-88444750D01*
X169999999Y-88444750D01*
X169856291Y-88463670D01*
X169856287Y-88463671D01*
X169722377Y-88519137D01*
X169607379Y-88607379D01*
X169519137Y-88722377D01*
X169463671Y-88856287D01*
X169463670Y-88856291D01*
X169450505Y-88956291D01*
X169444750Y-89000000D01*
X147342085Y-89000000D01*
X147336330Y-88956291D01*
X147280861Y-88822375D01*
X147192621Y-88707379D01*
X147077625Y-88619139D01*
X147077624Y-88619138D01*
X147077622Y-88619137D01*
X146943712Y-88563671D01*
X146943710Y-88563670D01*
X146943709Y-88563670D01*
X146871854Y-88554210D01*
X146800001Y-88544750D01*
X146799999Y-88544750D01*
X146656291Y-88563670D01*
X146656287Y-88563671D01*
X146522377Y-88619137D01*
X146407379Y-88707379D01*
X146319137Y-88822377D01*
X146263671Y-88956287D01*
X146263670Y-88956291D01*
X146244750Y-89099999D01*
X129000000Y-89099999D01*
X129000000Y-88000000D01*
X129444750Y-88000000D01*
X129457915Y-88100000D01*
X129463670Y-88143708D01*
X129463671Y-88143712D01*
X129519137Y-88277622D01*
X129519138Y-88277624D01*
X129519139Y-88277625D01*
X129607379Y-88392621D01*
X129722375Y-88480861D01*
X129722376Y-88480861D01*
X129722377Y-88480862D01*
X129767013Y-88499350D01*
X129856291Y-88536330D01*
X129983280Y-88553048D01*
X129999999Y-88555250D01*
X130000000Y-88555250D01*
X130000001Y-88555250D01*
X130014977Y-88553278D01*
X130143709Y-88536330D01*
X130277625Y-88480861D01*
X130392621Y-88392621D01*
X130480861Y-88277625D01*
X130536330Y-88143709D01*
X130555250Y-88000000D01*
X144044750Y-88000000D01*
X144057915Y-88100000D01*
X144063670Y-88143708D01*
X144063671Y-88143712D01*
X144119137Y-88277622D01*
X144119138Y-88277624D01*
X144119139Y-88277625D01*
X144207379Y-88392621D01*
X144322375Y-88480861D01*
X144322376Y-88480861D01*
X144322377Y-88480862D01*
X144367013Y-88499350D01*
X144456291Y-88536330D01*
X144583280Y-88553048D01*
X144599999Y-88555250D01*
X144600000Y-88555250D01*
X144600001Y-88555250D01*
X144614977Y-88553278D01*
X144743709Y-88536330D01*
X144877625Y-88480861D01*
X144981121Y-88401445D01*
X145046288Y-88376252D01*
X145114733Y-88390290D01*
X145154979Y-88424332D01*
X145207379Y-88492621D01*
X145322375Y-88580861D01*
X145456291Y-88636330D01*
X145583280Y-88653048D01*
X145599999Y-88655250D01*
X145600000Y-88655250D01*
X145600001Y-88655250D01*
X145614977Y-88653278D01*
X145743709Y-88636330D01*
X145877625Y-88580861D01*
X145992621Y-88492621D01*
X146080861Y-88377625D01*
X146136330Y-88243709D01*
X146155250Y-88100000D01*
X146136330Y-87956291D01*
X146080861Y-87822375D01*
X145992621Y-87707379D01*
X145877625Y-87619139D01*
X145877624Y-87619138D01*
X145877622Y-87619137D01*
X145743712Y-87563671D01*
X145743710Y-87563670D01*
X145743709Y-87563670D01*
X145671854Y-87554210D01*
X145600001Y-87544750D01*
X145599999Y-87544750D01*
X145456291Y-87563670D01*
X145456287Y-87563671D01*
X145322377Y-87619137D01*
X145285526Y-87647413D01*
X145218878Y-87698554D01*
X145153712Y-87723748D01*
X145085267Y-87709710D01*
X145045020Y-87675667D01*
X144992621Y-87607379D01*
X144877625Y-87519139D01*
X144877624Y-87519138D01*
X144877622Y-87519137D01*
X144743712Y-87463671D01*
X144743710Y-87463670D01*
X144743709Y-87463670D01*
X144643675Y-87450500D01*
X144600001Y-87444750D01*
X144599999Y-87444750D01*
X144456291Y-87463670D01*
X144456287Y-87463671D01*
X144322377Y-87519137D01*
X144207379Y-87607379D01*
X144119137Y-87722377D01*
X144063671Y-87856287D01*
X144063670Y-87856291D01*
X144050505Y-87956291D01*
X144044750Y-88000000D01*
X130555250Y-88000000D01*
X130536330Y-87856291D01*
X130480861Y-87722375D01*
X130392621Y-87607379D01*
X130277625Y-87519139D01*
X130277624Y-87519138D01*
X130277622Y-87519137D01*
X130143712Y-87463671D01*
X130143710Y-87463670D01*
X130143709Y-87463670D01*
X130043675Y-87450500D01*
X130000001Y-87444750D01*
X129999999Y-87444750D01*
X129856291Y-87463670D01*
X129856287Y-87463671D01*
X129722377Y-87519137D01*
X129607379Y-87607379D01*
X129519137Y-87722377D01*
X129463671Y-87856287D01*
X129463670Y-87856291D01*
X129450505Y-87956291D01*
X129444750Y-88000000D01*
X129000000Y-88000000D01*
X129000000Y-85999999D01*
X129444750Y-85999999D01*
X129444750Y-86000000D01*
X129463670Y-86143708D01*
X129463671Y-86143712D01*
X129519137Y-86277622D01*
X129519138Y-86277624D01*
X129519139Y-86277625D01*
X129607379Y-86392621D01*
X129722375Y-86480861D01*
X129856291Y-86536330D01*
X129983280Y-86553048D01*
X129999999Y-86555250D01*
X130000000Y-86555250D01*
X130000001Y-86555250D01*
X130014977Y-86553278D01*
X130143709Y-86536330D01*
X130277625Y-86480861D01*
X130392621Y-86392621D01*
X130480861Y-86277625D01*
X130536330Y-86143709D01*
X130555250Y-86000000D01*
X130536330Y-85856291D01*
X130480861Y-85722375D01*
X130392621Y-85607379D01*
X130277625Y-85519139D01*
X130277624Y-85519138D01*
X130277622Y-85519137D01*
X130143712Y-85463671D01*
X130143710Y-85463670D01*
X130143709Y-85463670D01*
X130071854Y-85454210D01*
X130000001Y-85444750D01*
X129999999Y-85444750D01*
X129856291Y-85463670D01*
X129856287Y-85463671D01*
X129722377Y-85519137D01*
X129607379Y-85607379D01*
X129519137Y-85722377D01*
X129463671Y-85856287D01*
X129463670Y-85856291D01*
X129444750Y-85999999D01*
X129000000Y-85999999D01*
X129000000Y-84500709D01*
X129000007Y-84499357D01*
X129001334Y-84377622D01*
X129002565Y-84264696D01*
X129003029Y-84255266D01*
X129025362Y-84000000D01*
X129444750Y-84000000D01*
X129457915Y-84100000D01*
X129463670Y-84143708D01*
X129463671Y-84143712D01*
X129519137Y-84277622D01*
X129519138Y-84277624D01*
X129519139Y-84277625D01*
X129607379Y-84392621D01*
X129722375Y-84480861D01*
X129722376Y-84480861D01*
X129722377Y-84480862D01*
X129767013Y-84499350D01*
X129856291Y-84536330D01*
X129983280Y-84553048D01*
X129999999Y-84555250D01*
X130000000Y-84555250D01*
X130000001Y-84555250D01*
X130014977Y-84553278D01*
X130143709Y-84536330D01*
X130231428Y-84499996D01*
X131544500Y-84499996D01*
X131544500Y-84500003D01*
X131564484Y-84843113D01*
X131564485Y-84843124D01*
X131624163Y-85181575D01*
X131624166Y-85181588D01*
X131722737Y-85510840D01*
X131858865Y-85826417D01*
X131858871Y-85826430D01*
X132030716Y-86124075D01*
X132235952Y-86399755D01*
X132235957Y-86399761D01*
X132337490Y-86507379D01*
X132471813Y-86649753D01*
X132471819Y-86649758D01*
X132471821Y-86649760D01*
X132735093Y-86870672D01*
X132735098Y-86870675D01*
X133022250Y-87059538D01*
X133124329Y-87110804D01*
X133329378Y-87213785D01*
X133329384Y-87213787D01*
X133329386Y-87213788D01*
X133652353Y-87331338D01*
X133986783Y-87410599D01*
X134328153Y-87450500D01*
X134328160Y-87450500D01*
X134671840Y-87450500D01*
X134671847Y-87450500D01*
X135013217Y-87410599D01*
X135347647Y-87331338D01*
X135670614Y-87213788D01*
X135670617Y-87213786D01*
X135670621Y-87213785D01*
X135810154Y-87143708D01*
X135977750Y-87059538D01*
X136220316Y-86900000D01*
X137444750Y-86900000D01*
X137457915Y-87000000D01*
X137463670Y-87043708D01*
X137463671Y-87043712D01*
X137519137Y-87177622D01*
X137519138Y-87177624D01*
X137519139Y-87177625D01*
X137607379Y-87292621D01*
X137722375Y-87380861D01*
X137722376Y-87380861D01*
X137722377Y-87380862D01*
X137767013Y-87399350D01*
X137856291Y-87436330D01*
X137983280Y-87453048D01*
X137999999Y-87455250D01*
X138000000Y-87455250D01*
X138000001Y-87455250D01*
X138014977Y-87453278D01*
X138143709Y-87436330D01*
X138277625Y-87380861D01*
X138392621Y-87292621D01*
X138480861Y-87177625D01*
X138536330Y-87043709D01*
X138555250Y-86900000D01*
X138536330Y-86756291D01*
X138480861Y-86622375D01*
X138392621Y-86507379D01*
X138277625Y-86419139D01*
X138277624Y-86419138D01*
X138277622Y-86419137D01*
X138143712Y-86363671D01*
X138143710Y-86363670D01*
X138143709Y-86363670D01*
X138071854Y-86354210D01*
X138000001Y-86344750D01*
X137999999Y-86344750D01*
X137856291Y-86363670D01*
X137856287Y-86363671D01*
X137722377Y-86419137D01*
X137607379Y-86507379D01*
X137519137Y-86622377D01*
X137463671Y-86756287D01*
X137463670Y-86756291D01*
X137450505Y-86856291D01*
X137444750Y-86900000D01*
X136220316Y-86900000D01*
X136264902Y-86870675D01*
X136282045Y-86856291D01*
X136401220Y-86756291D01*
X136528187Y-86649753D01*
X136764044Y-86399759D01*
X136969284Y-86124074D01*
X137141131Y-85826426D01*
X137277262Y-85510841D01*
X137375834Y-85181585D01*
X137407853Y-85000000D01*
X137435514Y-84843124D01*
X137435513Y-84843124D01*
X137435516Y-84843113D01*
X137454385Y-84519139D01*
X137455500Y-84500003D01*
X137455500Y-84499996D01*
X137442548Y-84277625D01*
X137435516Y-84156887D01*
X137425485Y-84099999D01*
X137375836Y-83818424D01*
X137375833Y-83818411D01*
X137277262Y-83489159D01*
X137214522Y-83343712D01*
X137141131Y-83173574D01*
X137068496Y-83047767D01*
X136969283Y-82875924D01*
X136764047Y-82600244D01*
X136764042Y-82600238D01*
X136649998Y-82479359D01*
X136528187Y-82350247D01*
X136528180Y-82350241D01*
X136528178Y-82350239D01*
X136468304Y-82299999D01*
X156044750Y-82299999D01*
X156044750Y-82300000D01*
X156063670Y-82443708D01*
X156063671Y-82443712D01*
X156119137Y-82577622D01*
X156119138Y-82577624D01*
X156119139Y-82577625D01*
X156193485Y-82674515D01*
X156218679Y-82739682D01*
X156204641Y-82808127D01*
X156193489Y-82825480D01*
X156174265Y-82850534D01*
X156119137Y-82922377D01*
X156063671Y-83056287D01*
X156063670Y-83056291D01*
X156044750Y-83200000D01*
X156058414Y-83303790D01*
X156063670Y-83343708D01*
X156063671Y-83343712D01*
X156119137Y-83477622D01*
X156119138Y-83477624D01*
X156119139Y-83477625D01*
X156193485Y-83574515D01*
X156218679Y-83639682D01*
X156204641Y-83708127D01*
X156193489Y-83725480D01*
X156146168Y-83787150D01*
X156119137Y-83822377D01*
X156063671Y-83956287D01*
X156063670Y-83956291D01*
X156044750Y-84100000D01*
X156052239Y-84156887D01*
X156063670Y-84243708D01*
X156063671Y-84243712D01*
X156119137Y-84377622D01*
X156119138Y-84377624D01*
X156119139Y-84377625D01*
X156207379Y-84492621D01*
X156322375Y-84580861D01*
X156456291Y-84636330D01*
X156583280Y-84653048D01*
X156599999Y-84655250D01*
X156600000Y-84655250D01*
X156600001Y-84655250D01*
X156614977Y-84653278D01*
X156743709Y-84636330D01*
X156877625Y-84580861D01*
X156983010Y-84499996D01*
X162544500Y-84499996D01*
X162544500Y-84500003D01*
X162564484Y-84843113D01*
X162564485Y-84843124D01*
X162624163Y-85181575D01*
X162624166Y-85181588D01*
X162722737Y-85510840D01*
X162858865Y-85826417D01*
X162858871Y-85826430D01*
X163030716Y-86124075D01*
X163235952Y-86399755D01*
X163235957Y-86399761D01*
X163337490Y-86507379D01*
X163471813Y-86649753D01*
X163471819Y-86649758D01*
X163471821Y-86649760D01*
X163735093Y-86870672D01*
X163735098Y-86870675D01*
X164022250Y-87059538D01*
X164124329Y-87110804D01*
X164329378Y-87213785D01*
X164329384Y-87213787D01*
X164329386Y-87213788D01*
X164652353Y-87331338D01*
X164986783Y-87410599D01*
X165328153Y-87450500D01*
X165328160Y-87450500D01*
X165671840Y-87450500D01*
X165671847Y-87450500D01*
X166013217Y-87410599D01*
X166347647Y-87331338D01*
X166670614Y-87213788D01*
X166670617Y-87213786D01*
X166670621Y-87213785D01*
X166810154Y-87143708D01*
X166977750Y-87059538D01*
X167068273Y-87000000D01*
X169444750Y-87000000D01*
X169452588Y-87059538D01*
X169463670Y-87143708D01*
X169463671Y-87143712D01*
X169519137Y-87277622D01*
X169519138Y-87277624D01*
X169519139Y-87277625D01*
X169607379Y-87392621D01*
X169722375Y-87480861D01*
X169856291Y-87536330D01*
X169983280Y-87553048D01*
X169999999Y-87555250D01*
X170000000Y-87555250D01*
X170000001Y-87555250D01*
X170014977Y-87553278D01*
X170143709Y-87536330D01*
X170277625Y-87480861D01*
X170392621Y-87392621D01*
X170480861Y-87277625D01*
X170536330Y-87143709D01*
X170555250Y-87000000D01*
X170536330Y-86856291D01*
X170480861Y-86722375D01*
X170392621Y-86607379D01*
X170277625Y-86519139D01*
X170277624Y-86519138D01*
X170277622Y-86519137D01*
X170143712Y-86463671D01*
X170143710Y-86463670D01*
X170143709Y-86463670D01*
X170071854Y-86454210D01*
X170000001Y-86444750D01*
X169999999Y-86444750D01*
X169856291Y-86463670D01*
X169856287Y-86463671D01*
X169722377Y-86519137D01*
X169607379Y-86607379D01*
X169519137Y-86722377D01*
X169463671Y-86856287D01*
X169463670Y-86856291D01*
X169444750Y-87000000D01*
X167068273Y-87000000D01*
X167264902Y-86870675D01*
X167282045Y-86856291D01*
X167401220Y-86756291D01*
X167528187Y-86649753D01*
X167764044Y-86399759D01*
X167969284Y-86124074D01*
X168141131Y-85826426D01*
X168277262Y-85510841D01*
X168375834Y-85181585D01*
X168407853Y-85000000D01*
X168407853Y-84999999D01*
X169444750Y-84999999D01*
X169444750Y-85000000D01*
X169463670Y-85143708D01*
X169463671Y-85143712D01*
X169519137Y-85277622D01*
X169519138Y-85277624D01*
X169519139Y-85277625D01*
X169607379Y-85392621D01*
X169722375Y-85480861D01*
X169856291Y-85536330D01*
X169983280Y-85553048D01*
X169999999Y-85555250D01*
X170000000Y-85555250D01*
X170000001Y-85555250D01*
X170014977Y-85553278D01*
X170143709Y-85536330D01*
X170277625Y-85480861D01*
X170392621Y-85392621D01*
X170480861Y-85277625D01*
X170536330Y-85143709D01*
X170555250Y-85000000D01*
X170536330Y-84856291D01*
X170480861Y-84722375D01*
X170392621Y-84607379D01*
X170277625Y-84519139D01*
X170277624Y-84519138D01*
X170277622Y-84519137D01*
X170143712Y-84463671D01*
X170143710Y-84463670D01*
X170143709Y-84463670D01*
X170071854Y-84454210D01*
X170000001Y-84444750D01*
X169999999Y-84444750D01*
X169856291Y-84463670D01*
X169856287Y-84463671D01*
X169722377Y-84519137D01*
X169607379Y-84607379D01*
X169519137Y-84722377D01*
X169463671Y-84856287D01*
X169463670Y-84856291D01*
X169444750Y-84999999D01*
X168407853Y-84999999D01*
X168435514Y-84843124D01*
X168435513Y-84843124D01*
X168435516Y-84843113D01*
X168454385Y-84519139D01*
X168455500Y-84500003D01*
X168455500Y-84499996D01*
X168442548Y-84277625D01*
X168435516Y-84156887D01*
X168425485Y-84099999D01*
X168375836Y-83818424D01*
X168375833Y-83818411D01*
X168277262Y-83489159D01*
X168214522Y-83343712D01*
X168141131Y-83173574D01*
X168068496Y-83047767D01*
X167969283Y-82875924D01*
X167764047Y-82600244D01*
X167764042Y-82600238D01*
X167649998Y-82479359D01*
X167528187Y-82350247D01*
X167528180Y-82350241D01*
X167528178Y-82350239D01*
X167264906Y-82129327D01*
X167121326Y-82034893D01*
X166977750Y-81940462D01*
X166911877Y-81907379D01*
X166670621Y-81786214D01*
X166670615Y-81786212D01*
X166347648Y-81668662D01*
X166347645Y-81668661D01*
X166013218Y-81589401D01*
X165970545Y-81584413D01*
X165671847Y-81549500D01*
X165328153Y-81549500D01*
X165029454Y-81584413D01*
X164986782Y-81589401D01*
X164986780Y-81589401D01*
X164652354Y-81668661D01*
X164652351Y-81668662D01*
X164329384Y-81786212D01*
X164329378Y-81786214D01*
X164022253Y-81940460D01*
X163735093Y-82129327D01*
X163471821Y-82350239D01*
X163471811Y-82350249D01*
X163235957Y-82600238D01*
X163235952Y-82600244D01*
X163030716Y-82875924D01*
X162858871Y-83173569D01*
X162858865Y-83173582D01*
X162722737Y-83489159D01*
X162624166Y-83818411D01*
X162624163Y-83818424D01*
X162564485Y-84156875D01*
X162564484Y-84156886D01*
X162544500Y-84499996D01*
X156983010Y-84499996D01*
X156992621Y-84492621D01*
X157080861Y-84377625D01*
X157136330Y-84243709D01*
X157155250Y-84100000D01*
X157136330Y-83956291D01*
X157080861Y-83822375D01*
X157006514Y-83725484D01*
X156981321Y-83660318D01*
X156995359Y-83591873D01*
X157006510Y-83574519D01*
X157080861Y-83477625D01*
X157136330Y-83343709D01*
X157155250Y-83200000D01*
X157136330Y-83056291D01*
X157080861Y-82922375D01*
X157006514Y-82825484D01*
X156981321Y-82760318D01*
X156995359Y-82691873D01*
X157006510Y-82674519D01*
X157080861Y-82577625D01*
X157136330Y-82443709D01*
X157155250Y-82300000D01*
X157136330Y-82156291D01*
X157080861Y-82022375D01*
X156992621Y-81907379D01*
X156877625Y-81819139D01*
X156877624Y-81819138D01*
X156877622Y-81819137D01*
X156743712Y-81763671D01*
X156743710Y-81763670D01*
X156743709Y-81763670D01*
X156671854Y-81754210D01*
X156600001Y-81744750D01*
X156599999Y-81744750D01*
X156456291Y-81763670D01*
X156456287Y-81763671D01*
X156322377Y-81819137D01*
X156207379Y-81907379D01*
X156119137Y-82022377D01*
X156063671Y-82156287D01*
X156063670Y-82156291D01*
X156044750Y-82299999D01*
X136468304Y-82299999D01*
X136264906Y-82129327D01*
X136121326Y-82034893D01*
X135977750Y-81940462D01*
X135911877Y-81907379D01*
X135670621Y-81786214D01*
X135670615Y-81786212D01*
X135347648Y-81668662D01*
X135347645Y-81668661D01*
X135013218Y-81589401D01*
X134970545Y-81584413D01*
X134671847Y-81549500D01*
X134328153Y-81549500D01*
X134029454Y-81584413D01*
X133986782Y-81589401D01*
X133986780Y-81589401D01*
X133652354Y-81668661D01*
X133652351Y-81668662D01*
X133329384Y-81786212D01*
X133329378Y-81786214D01*
X133022253Y-81940460D01*
X132735093Y-82129327D01*
X132471821Y-82350239D01*
X132471811Y-82350249D01*
X132235957Y-82600238D01*
X132235952Y-82600244D01*
X132030716Y-82875924D01*
X131858871Y-83173569D01*
X131858865Y-83173582D01*
X131722737Y-83489159D01*
X131624166Y-83818411D01*
X131624163Y-83818424D01*
X131564485Y-84156875D01*
X131564484Y-84156886D01*
X131544500Y-84499996D01*
X130231428Y-84499996D01*
X130277625Y-84480861D01*
X130392621Y-84392621D01*
X130480861Y-84277625D01*
X130536330Y-84143709D01*
X130555250Y-84000000D01*
X130536330Y-83856291D01*
X130480861Y-83722375D01*
X130392621Y-83607379D01*
X130277625Y-83519139D01*
X130277624Y-83519138D01*
X130277622Y-83519137D01*
X130143712Y-83463671D01*
X130143710Y-83463670D01*
X130143709Y-83463670D01*
X130071854Y-83454210D01*
X130000001Y-83444750D01*
X129999999Y-83444750D01*
X129856291Y-83463670D01*
X129856287Y-83463671D01*
X129722377Y-83519137D01*
X129607379Y-83607379D01*
X129519137Y-83722377D01*
X129463671Y-83856287D01*
X129463670Y-83856291D01*
X129450505Y-83956291D01*
X129444750Y-84000000D01*
X129025362Y-84000000D01*
X129043984Y-83787150D01*
X129045396Y-83776432D01*
X129065870Y-83660318D01*
X129126876Y-83314331D01*
X129129208Y-83303812D01*
X129250663Y-82850534D01*
X129253903Y-82840258D01*
X129414398Y-82399303D01*
X129418519Y-82389353D01*
X129616835Y-81964063D01*
X129621815Y-81954496D01*
X129856435Y-81548122D01*
X129862228Y-81539028D01*
X130131384Y-81154634D01*
X130137953Y-81146074D01*
X130439575Y-80786616D01*
X130446861Y-80778665D01*
X130778665Y-80446861D01*
X130786616Y-80439575D01*
X131146074Y-80137953D01*
X131154634Y-80131384D01*
X131342270Y-80000000D01*
X133444750Y-80000000D01*
X133462913Y-80137962D01*
X133463670Y-80143708D01*
X133463671Y-80143712D01*
X133519137Y-80277622D01*
X133519138Y-80277624D01*
X133519139Y-80277625D01*
X133607379Y-80392621D01*
X133722375Y-80480861D01*
X133856291Y-80536330D01*
X133983280Y-80553048D01*
X133999999Y-80555250D01*
X134000000Y-80555250D01*
X134000001Y-80555250D01*
X134014977Y-80553278D01*
X134143709Y-80536330D01*
X134277625Y-80480861D01*
X134392621Y-80392621D01*
X134480861Y-80277625D01*
X134536330Y-80143709D01*
X134555250Y-80000000D01*
X135444750Y-80000000D01*
X135462913Y-80137962D01*
X135463670Y-80143708D01*
X135463671Y-80143712D01*
X135519137Y-80277622D01*
X135519138Y-80277624D01*
X135519139Y-80277625D01*
X135607379Y-80392621D01*
X135722375Y-80480861D01*
X135856291Y-80536330D01*
X135983280Y-80553048D01*
X135999999Y-80555250D01*
X136000000Y-80555250D01*
X136000001Y-80555250D01*
X136014977Y-80553278D01*
X136143709Y-80536330D01*
X136277625Y-80480861D01*
X136392621Y-80392621D01*
X136480861Y-80277625D01*
X136536330Y-80143709D01*
X136555250Y-80000000D01*
X137444750Y-80000000D01*
X137462913Y-80137962D01*
X137463670Y-80143708D01*
X137463671Y-80143712D01*
X137519137Y-80277622D01*
X137519138Y-80277624D01*
X137519139Y-80277625D01*
X137607379Y-80392621D01*
X137722375Y-80480861D01*
X137856291Y-80536330D01*
X137983280Y-80553048D01*
X137999999Y-80555250D01*
X138000000Y-80555250D01*
X138000001Y-80555250D01*
X138014977Y-80553278D01*
X138143709Y-80536330D01*
X138277625Y-80480861D01*
X138392621Y-80392621D01*
X138480861Y-80277625D01*
X138536330Y-80143709D01*
X138555250Y-80000000D01*
X139444750Y-80000000D01*
X139462913Y-80137962D01*
X139463670Y-80143708D01*
X139463671Y-80143712D01*
X139519137Y-80277622D01*
X139519138Y-80277624D01*
X139519139Y-80277625D01*
X139607379Y-80392621D01*
X139722375Y-80480861D01*
X139856291Y-80536330D01*
X139983280Y-80553048D01*
X139999999Y-80555250D01*
X140000000Y-80555250D01*
X140000001Y-80555250D01*
X140014977Y-80553278D01*
X140143709Y-80536330D01*
X140277625Y-80480861D01*
X140392621Y-80392621D01*
X140480861Y-80277625D01*
X140536330Y-80143709D01*
X140555250Y-80000000D01*
X141444750Y-80000000D01*
X141462913Y-80137962D01*
X141463670Y-80143708D01*
X141463671Y-80143712D01*
X141519137Y-80277622D01*
X141519138Y-80277624D01*
X141519139Y-80277625D01*
X141607379Y-80392621D01*
X141722375Y-80480861D01*
X141856291Y-80536330D01*
X141983280Y-80553048D01*
X141999999Y-80555250D01*
X142000000Y-80555250D01*
X142000001Y-80555250D01*
X142014977Y-80553278D01*
X142143709Y-80536330D01*
X142277625Y-80480861D01*
X142392621Y-80392621D01*
X142480861Y-80277625D01*
X142536330Y-80143709D01*
X142555250Y-80000000D01*
X143444750Y-80000000D01*
X143462913Y-80137962D01*
X143463670Y-80143708D01*
X143463671Y-80143712D01*
X143519137Y-80277622D01*
X143519138Y-80277624D01*
X143519139Y-80277625D01*
X143607379Y-80392621D01*
X143722375Y-80480861D01*
X143856291Y-80536330D01*
X143983280Y-80553048D01*
X143999999Y-80555250D01*
X144000000Y-80555250D01*
X144000001Y-80555250D01*
X144014977Y-80553278D01*
X144143709Y-80536330D01*
X144277625Y-80480861D01*
X144392621Y-80392621D01*
X144480861Y-80277625D01*
X144536330Y-80143709D01*
X144555250Y-80000000D01*
X145444750Y-80000000D01*
X145462913Y-80137962D01*
X145463670Y-80143708D01*
X145463671Y-80143712D01*
X145519137Y-80277622D01*
X145519138Y-80277624D01*
X145519139Y-80277625D01*
X145607379Y-80392621D01*
X145722375Y-80480861D01*
X145856291Y-80536330D01*
X145983280Y-80553048D01*
X145999999Y-80555250D01*
X146000000Y-80555250D01*
X146000001Y-80555250D01*
X146014977Y-80553278D01*
X146143709Y-80536330D01*
X146277625Y-80480861D01*
X146392621Y-80392621D01*
X146480861Y-80277625D01*
X146536330Y-80143709D01*
X146555250Y-80000000D01*
X147444750Y-80000000D01*
X147462913Y-80137962D01*
X147463670Y-80143708D01*
X147463671Y-80143712D01*
X147519137Y-80277622D01*
X147519138Y-80277624D01*
X147519139Y-80277625D01*
X147607379Y-80392621D01*
X147722375Y-80480861D01*
X147856291Y-80536330D01*
X147983280Y-80553048D01*
X147999999Y-80555250D01*
X148000000Y-80555250D01*
X148000001Y-80555250D01*
X148014977Y-80553278D01*
X148143709Y-80536330D01*
X148277625Y-80480861D01*
X148392621Y-80392621D01*
X148480861Y-80277625D01*
X148536330Y-80143709D01*
X148555250Y-80000000D01*
X149444750Y-80000000D01*
X149462913Y-80137962D01*
X149463670Y-80143708D01*
X149463671Y-80143712D01*
X149519137Y-80277622D01*
X149519138Y-80277624D01*
X149519139Y-80277625D01*
X149607379Y-80392621D01*
X149722375Y-80480861D01*
X149856291Y-80536330D01*
X149983280Y-80553048D01*
X149999999Y-80555250D01*
X150000000Y-80555250D01*
X150000001Y-80555250D01*
X150014977Y-80553278D01*
X150143709Y-80536330D01*
X150277625Y-80480861D01*
X150392621Y-80392621D01*
X150480861Y-80277625D01*
X150536330Y-80143709D01*
X150555250Y-80000000D01*
X151444750Y-80000000D01*
X151462913Y-80137962D01*
X151463670Y-80143708D01*
X151463671Y-80143712D01*
X151519137Y-80277622D01*
X151519138Y-80277624D01*
X151519139Y-80277625D01*
X151607379Y-80392621D01*
X151722375Y-80480861D01*
X151856291Y-80536330D01*
X151983280Y-80553048D01*
X151999999Y-80555250D01*
X152000000Y-80555250D01*
X152000001Y-80555250D01*
X152014977Y-80553278D01*
X152143709Y-80536330D01*
X152277625Y-80480861D01*
X152392621Y-80392621D01*
X152480861Y-80277625D01*
X152536330Y-80143709D01*
X152555250Y-80000000D01*
X153444750Y-80000000D01*
X153462913Y-80137962D01*
X153463670Y-80143708D01*
X153463671Y-80143712D01*
X153519137Y-80277622D01*
X153519138Y-80277624D01*
X153519139Y-80277625D01*
X153607379Y-80392621D01*
X153722375Y-80480861D01*
X153856291Y-80536330D01*
X153983280Y-80553048D01*
X153999999Y-80555250D01*
X154000000Y-80555250D01*
X154000001Y-80555250D01*
X154014977Y-80553278D01*
X154143709Y-80536330D01*
X154277625Y-80480861D01*
X154392621Y-80392621D01*
X154480861Y-80277625D01*
X154536330Y-80143709D01*
X154555250Y-80000000D01*
X155444750Y-80000000D01*
X155462913Y-80137962D01*
X155463670Y-80143708D01*
X155463671Y-80143712D01*
X155519137Y-80277622D01*
X155519138Y-80277624D01*
X155519139Y-80277625D01*
X155607379Y-80392621D01*
X155722375Y-80480861D01*
X155856291Y-80536330D01*
X155983280Y-80553048D01*
X155999999Y-80555250D01*
X156000000Y-80555250D01*
X156000001Y-80555250D01*
X156014977Y-80553278D01*
X156143709Y-80536330D01*
X156277625Y-80480861D01*
X156392621Y-80392621D01*
X156480861Y-80277625D01*
X156536330Y-80143709D01*
X156555250Y-80000000D01*
X157444750Y-80000000D01*
X157462913Y-80137962D01*
X157463670Y-80143708D01*
X157463671Y-80143712D01*
X157519137Y-80277622D01*
X157519138Y-80277624D01*
X157519139Y-80277625D01*
X157607379Y-80392621D01*
X157722375Y-80480861D01*
X157856291Y-80536330D01*
X157983280Y-80553048D01*
X157999999Y-80555250D01*
X158000000Y-80555250D01*
X158000001Y-80555250D01*
X158014977Y-80553278D01*
X158143709Y-80536330D01*
X158277625Y-80480861D01*
X158392621Y-80392621D01*
X158480861Y-80277625D01*
X158536330Y-80143709D01*
X158555250Y-80000000D01*
X159444750Y-80000000D01*
X159462913Y-80137962D01*
X159463670Y-80143708D01*
X159463671Y-80143712D01*
X159519137Y-80277622D01*
X159519138Y-80277624D01*
X159519139Y-80277625D01*
X159607379Y-80392621D01*
X159722375Y-80480861D01*
X159856291Y-80536330D01*
X159983280Y-80553048D01*
X159999999Y-80555250D01*
X160000000Y-80555250D01*
X160000001Y-80555250D01*
X160014977Y-80553278D01*
X160143709Y-80536330D01*
X160277625Y-80480861D01*
X160392621Y-80392621D01*
X160480861Y-80277625D01*
X160536330Y-80143709D01*
X160555250Y-80000000D01*
X161444750Y-80000000D01*
X161462913Y-80137962D01*
X161463670Y-80143708D01*
X161463671Y-80143712D01*
X161519137Y-80277622D01*
X161519138Y-80277624D01*
X161519139Y-80277625D01*
X161607379Y-80392621D01*
X161722375Y-80480861D01*
X161856291Y-80536330D01*
X161983280Y-80553048D01*
X161999999Y-80555250D01*
X162000000Y-80555250D01*
X162000001Y-80555250D01*
X162014977Y-80553278D01*
X162143709Y-80536330D01*
X162277625Y-80480861D01*
X162392621Y-80392621D01*
X162480861Y-80277625D01*
X162536330Y-80143709D01*
X162555250Y-80000000D01*
X163444750Y-80000000D01*
X163462913Y-80137962D01*
X163463670Y-80143708D01*
X163463671Y-80143712D01*
X163519137Y-80277622D01*
X163519138Y-80277624D01*
X163519139Y-80277625D01*
X163607379Y-80392621D01*
X163722375Y-80480861D01*
X163856291Y-80536330D01*
X163983280Y-80553048D01*
X163999999Y-80555250D01*
X164000000Y-80555250D01*
X164000001Y-80555250D01*
X164014977Y-80553278D01*
X164143709Y-80536330D01*
X164277625Y-80480861D01*
X164392621Y-80392621D01*
X164480861Y-80277625D01*
X164536330Y-80143709D01*
X164555250Y-80000000D01*
X165444750Y-80000000D01*
X165462913Y-80137962D01*
X165463670Y-80143708D01*
X165463671Y-80143712D01*
X165519137Y-80277622D01*
X165519138Y-80277624D01*
X165519139Y-80277625D01*
X165607379Y-80392621D01*
X165722375Y-80480861D01*
X165856291Y-80536330D01*
X165983280Y-80553048D01*
X165999999Y-80555250D01*
X166000000Y-80555250D01*
X166000001Y-80555250D01*
X166014977Y-80553278D01*
X166143709Y-80536330D01*
X166277625Y-80480861D01*
X166392621Y-80392621D01*
X166480861Y-80277625D01*
X166536330Y-80143709D01*
X166555250Y-80000000D01*
X166536330Y-79856291D01*
X166480861Y-79722375D01*
X166392621Y-79607379D01*
X166277625Y-79519139D01*
X166277624Y-79519138D01*
X166277622Y-79519137D01*
X166143712Y-79463671D01*
X166143710Y-79463670D01*
X166143709Y-79463670D01*
X166071854Y-79454210D01*
X166000001Y-79444750D01*
X165999999Y-79444750D01*
X165856291Y-79463670D01*
X165856287Y-79463671D01*
X165722377Y-79519137D01*
X165607379Y-79607379D01*
X165519137Y-79722377D01*
X165463671Y-79856287D01*
X165463670Y-79856291D01*
X165444750Y-80000000D01*
X164555250Y-80000000D01*
X164536330Y-79856291D01*
X164480861Y-79722375D01*
X164392621Y-79607379D01*
X164277625Y-79519139D01*
X164277624Y-79519138D01*
X164277622Y-79519137D01*
X164143712Y-79463671D01*
X164143710Y-79463670D01*
X164143709Y-79463670D01*
X164071854Y-79454210D01*
X164000001Y-79444750D01*
X163999999Y-79444750D01*
X163856291Y-79463670D01*
X163856287Y-79463671D01*
X163722377Y-79519137D01*
X163607379Y-79607379D01*
X163519137Y-79722377D01*
X163463671Y-79856287D01*
X163463670Y-79856291D01*
X163444750Y-80000000D01*
X162555250Y-80000000D01*
X162536330Y-79856291D01*
X162480861Y-79722375D01*
X162392621Y-79607379D01*
X162277625Y-79519139D01*
X162277624Y-79519138D01*
X162277622Y-79519137D01*
X162143712Y-79463671D01*
X162143710Y-79463670D01*
X162143709Y-79463670D01*
X162071854Y-79454210D01*
X162000001Y-79444750D01*
X161999999Y-79444750D01*
X161856291Y-79463670D01*
X161856287Y-79463671D01*
X161722377Y-79519137D01*
X161607379Y-79607379D01*
X161519137Y-79722377D01*
X161463671Y-79856287D01*
X161463670Y-79856291D01*
X161444750Y-80000000D01*
X160555250Y-80000000D01*
X160536330Y-79856291D01*
X160480861Y-79722375D01*
X160392621Y-79607379D01*
X160277625Y-79519139D01*
X160277624Y-79519138D01*
X160277622Y-79519137D01*
X160143712Y-79463671D01*
X160143710Y-79463670D01*
X160143709Y-79463670D01*
X160071854Y-79454210D01*
X160000001Y-79444750D01*
X159999999Y-79444750D01*
X159856291Y-79463670D01*
X159856287Y-79463671D01*
X159722377Y-79519137D01*
X159607379Y-79607379D01*
X159519137Y-79722377D01*
X159463671Y-79856287D01*
X159463670Y-79856291D01*
X159444750Y-80000000D01*
X158555250Y-80000000D01*
X158536330Y-79856291D01*
X158480861Y-79722375D01*
X158392621Y-79607379D01*
X158277625Y-79519139D01*
X158277624Y-79519138D01*
X158277622Y-79519137D01*
X158143712Y-79463671D01*
X158143710Y-79463670D01*
X158143709Y-79463670D01*
X158071854Y-79454210D01*
X158000001Y-79444750D01*
X157999999Y-79444750D01*
X157856291Y-79463670D01*
X157856287Y-79463671D01*
X157722377Y-79519137D01*
X157607379Y-79607379D01*
X157519137Y-79722377D01*
X157463671Y-79856287D01*
X157463670Y-79856291D01*
X157444750Y-80000000D01*
X156555250Y-80000000D01*
X156536330Y-79856291D01*
X156480861Y-79722375D01*
X156392621Y-79607379D01*
X156277625Y-79519139D01*
X156277624Y-79519138D01*
X156277622Y-79519137D01*
X156143712Y-79463671D01*
X156143710Y-79463670D01*
X156143709Y-79463670D01*
X156071854Y-79454210D01*
X156000001Y-79444750D01*
X155999999Y-79444750D01*
X155856291Y-79463670D01*
X155856287Y-79463671D01*
X155722377Y-79519137D01*
X155607379Y-79607379D01*
X155519137Y-79722377D01*
X155463671Y-79856287D01*
X155463670Y-79856291D01*
X155444750Y-80000000D01*
X154555250Y-80000000D01*
X154536330Y-79856291D01*
X154480861Y-79722375D01*
X154392621Y-79607379D01*
X154277625Y-79519139D01*
X154277624Y-79519138D01*
X154277622Y-79519137D01*
X154143712Y-79463671D01*
X154143710Y-79463670D01*
X154143709Y-79463670D01*
X154071854Y-79454210D01*
X154000001Y-79444750D01*
X153999999Y-79444750D01*
X153856291Y-79463670D01*
X153856287Y-79463671D01*
X153722377Y-79519137D01*
X153607379Y-79607379D01*
X153519137Y-79722377D01*
X153463671Y-79856287D01*
X153463670Y-79856291D01*
X153444750Y-80000000D01*
X152555250Y-80000000D01*
X152536330Y-79856291D01*
X152480861Y-79722375D01*
X152392621Y-79607379D01*
X152277625Y-79519139D01*
X152277624Y-79519138D01*
X152277622Y-79519137D01*
X152143712Y-79463671D01*
X152143710Y-79463670D01*
X152143709Y-79463670D01*
X152071854Y-79454210D01*
X152000001Y-79444750D01*
X151999999Y-79444750D01*
X151856291Y-79463670D01*
X151856287Y-79463671D01*
X151722377Y-79519137D01*
X151607379Y-79607379D01*
X151519137Y-79722377D01*
X151463671Y-79856287D01*
X151463670Y-79856291D01*
X151444750Y-80000000D01*
X150555250Y-80000000D01*
X150536330Y-79856291D01*
X150480861Y-79722375D01*
X150392621Y-79607379D01*
X150277625Y-79519139D01*
X150277624Y-79519138D01*
X150277622Y-79519137D01*
X150143712Y-79463671D01*
X150143710Y-79463670D01*
X150143709Y-79463670D01*
X150071854Y-79454210D01*
X150000001Y-79444750D01*
X149999999Y-79444750D01*
X149856291Y-79463670D01*
X149856287Y-79463671D01*
X149722377Y-79519137D01*
X149607379Y-79607379D01*
X149519137Y-79722377D01*
X149463671Y-79856287D01*
X149463670Y-79856291D01*
X149444750Y-80000000D01*
X148555250Y-80000000D01*
X148536330Y-79856291D01*
X148480861Y-79722375D01*
X148392621Y-79607379D01*
X148277625Y-79519139D01*
X148277624Y-79519138D01*
X148277622Y-79519137D01*
X148143712Y-79463671D01*
X148143710Y-79463670D01*
X148143709Y-79463670D01*
X148071854Y-79454210D01*
X148000001Y-79444750D01*
X147999999Y-79444750D01*
X147856291Y-79463670D01*
X147856287Y-79463671D01*
X147722377Y-79519137D01*
X147607379Y-79607379D01*
X147519137Y-79722377D01*
X147463671Y-79856287D01*
X147463670Y-79856291D01*
X147444750Y-80000000D01*
X146555250Y-80000000D01*
X146536330Y-79856291D01*
X146480861Y-79722375D01*
X146392621Y-79607379D01*
X146277625Y-79519139D01*
X146277624Y-79519138D01*
X146277622Y-79519137D01*
X146143712Y-79463671D01*
X146143710Y-79463670D01*
X146143709Y-79463670D01*
X146071854Y-79454210D01*
X146000001Y-79444750D01*
X145999999Y-79444750D01*
X145856291Y-79463670D01*
X145856287Y-79463671D01*
X145722377Y-79519137D01*
X145607379Y-79607379D01*
X145519137Y-79722377D01*
X145463671Y-79856287D01*
X145463670Y-79856291D01*
X145444750Y-80000000D01*
X144555250Y-80000000D01*
X144536330Y-79856291D01*
X144480861Y-79722375D01*
X144392621Y-79607379D01*
X144277625Y-79519139D01*
X144277624Y-79519138D01*
X144277622Y-79519137D01*
X144143712Y-79463671D01*
X144143710Y-79463670D01*
X144143709Y-79463670D01*
X144071854Y-79454210D01*
X144000001Y-79444750D01*
X143999999Y-79444750D01*
X143856291Y-79463670D01*
X143856287Y-79463671D01*
X143722377Y-79519137D01*
X143607379Y-79607379D01*
X143519137Y-79722377D01*
X143463671Y-79856287D01*
X143463670Y-79856291D01*
X143444750Y-80000000D01*
X142555250Y-80000000D01*
X142536330Y-79856291D01*
X142480861Y-79722375D01*
X142392621Y-79607379D01*
X142277625Y-79519139D01*
X142277624Y-79519138D01*
X142277622Y-79519137D01*
X142143712Y-79463671D01*
X142143710Y-79463670D01*
X142143709Y-79463670D01*
X142071854Y-79454210D01*
X142000001Y-79444750D01*
X141999999Y-79444750D01*
X141856291Y-79463670D01*
X141856287Y-79463671D01*
X141722377Y-79519137D01*
X141607379Y-79607379D01*
X141519137Y-79722377D01*
X141463671Y-79856287D01*
X141463670Y-79856291D01*
X141444750Y-80000000D01*
X140555250Y-80000000D01*
X140536330Y-79856291D01*
X140480861Y-79722375D01*
X140392621Y-79607379D01*
X140277625Y-79519139D01*
X140277624Y-79519138D01*
X140277622Y-79519137D01*
X140143712Y-79463671D01*
X140143710Y-79463670D01*
X140143709Y-79463670D01*
X140071854Y-79454210D01*
X140000001Y-79444750D01*
X139999999Y-79444750D01*
X139856291Y-79463670D01*
X139856287Y-79463671D01*
X139722377Y-79519137D01*
X139607379Y-79607379D01*
X139519137Y-79722377D01*
X139463671Y-79856287D01*
X139463670Y-79856291D01*
X139444750Y-80000000D01*
X138555250Y-80000000D01*
X138536330Y-79856291D01*
X138480861Y-79722375D01*
X138392621Y-79607379D01*
X138277625Y-79519139D01*
X138277624Y-79519138D01*
X138277622Y-79519137D01*
X138143712Y-79463671D01*
X138143710Y-79463670D01*
X138143709Y-79463670D01*
X138071854Y-79454210D01*
X138000001Y-79444750D01*
X137999999Y-79444750D01*
X137856291Y-79463670D01*
X137856287Y-79463671D01*
X137722377Y-79519137D01*
X137607379Y-79607379D01*
X137519137Y-79722377D01*
X137463671Y-79856287D01*
X137463670Y-79856291D01*
X137444750Y-80000000D01*
X136555250Y-80000000D01*
X136536330Y-79856291D01*
X136480861Y-79722375D01*
X136392621Y-79607379D01*
X136277625Y-79519139D01*
X136277624Y-79519138D01*
X136277622Y-79519137D01*
X136143712Y-79463671D01*
X136143710Y-79463670D01*
X136143709Y-79463670D01*
X136071854Y-79454210D01*
X136000001Y-79444750D01*
X135999999Y-79444750D01*
X135856291Y-79463670D01*
X135856287Y-79463671D01*
X135722377Y-79519137D01*
X135607379Y-79607379D01*
X135519137Y-79722377D01*
X135463671Y-79856287D01*
X135463670Y-79856291D01*
X135444750Y-80000000D01*
X134555250Y-80000000D01*
X134536330Y-79856291D01*
X134480861Y-79722375D01*
X134392621Y-79607379D01*
X134277625Y-79519139D01*
X134277624Y-79519138D01*
X134277622Y-79519137D01*
X134143712Y-79463671D01*
X134143710Y-79463670D01*
X134143709Y-79463670D01*
X134071854Y-79454210D01*
X134000001Y-79444750D01*
X133999999Y-79444750D01*
X133856291Y-79463670D01*
X133856287Y-79463671D01*
X133722377Y-79519137D01*
X133607379Y-79607379D01*
X133519137Y-79722377D01*
X133463671Y-79856287D01*
X133463670Y-79856291D01*
X133444750Y-80000000D01*
X131342270Y-80000000D01*
X131539028Y-79862228D01*
X131548122Y-79856435D01*
X131954496Y-79621815D01*
X131964063Y-79616835D01*
X132389353Y-79418519D01*
X132399303Y-79414398D01*
X132840258Y-79253903D01*
X132850534Y-79250663D01*
X133303812Y-79129208D01*
X133314331Y-79126876D01*
X133776435Y-79045395D01*
X133787150Y-79043984D01*
X134255266Y-79003029D01*
X134264696Y-79002565D01*
X134499358Y-79000007D01*
X134500710Y-79000000D01*
X165499290Y-79000000D01*
X165500642Y-79000007D01*
G37*
%TD.AperFunction*%
%TD*%
M02*
