%TF.GenerationSoftware,KiCad,Pcbnew,7.0.6*%
%TF.CreationDate,2024-06-11T21:52:17-04:00*%
%TF.ProjectId,Axis_Basic,41786973-5f42-4617-9369-632e6b696361,rev?*%
%TF.SameCoordinates,Original*%
%TF.FileFunction,Copper,L4,Bot*%
%TF.FilePolarity,Positive*%
%FSLAX46Y46*%
G04 Gerber Fmt 4.6, Leading zero omitted, Abs format (unit mm)*
G04 Created by KiCad (PCBNEW 7.0.6) date 2024-06-11 21:52:17*
%MOMM*%
%LPD*%
G01*
G04 APERTURE LIST*
G04 Aperture macros list*
%AMRoundRect*
0 Rectangle with rounded corners*
0 $1 Rounding radius*
0 $2 $3 $4 $5 $6 $7 $8 $9 X,Y pos of 4 corners*
0 Add a 4 corners polygon primitive as box body*
4,1,4,$2,$3,$4,$5,$6,$7,$8,$9,$2,$3,0*
0 Add four circle primitives for the rounded corners*
1,1,$1+$1,$2,$3*
1,1,$1+$1,$4,$5*
1,1,$1+$1,$6,$7*
1,1,$1+$1,$8,$9*
0 Add four rect primitives between the rounded corners*
20,1,$1+$1,$2,$3,$4,$5,0*
20,1,$1+$1,$4,$5,$6,$7,0*
20,1,$1+$1,$6,$7,$8,$9,0*
20,1,$1+$1,$8,$9,$2,$3,0*%
G04 Aperture macros list end*
%TA.AperFunction,ComponentPad*%
%ADD10R,1.000000X1.000000*%
%TD*%
%TA.AperFunction,ComponentPad*%
%ADD11O,1.000000X1.000000*%
%TD*%
%TA.AperFunction,ComponentPad*%
%ADD12RoundRect,0.250000X-0.625000X0.350000X-0.625000X-0.350000X0.625000X-0.350000X0.625000X0.350000X0*%
%TD*%
%TA.AperFunction,ComponentPad*%
%ADD13O,1.750000X1.200000*%
%TD*%
%TA.AperFunction,ComponentPad*%
%ADD14C,0.500000*%
%TD*%
%TA.AperFunction,SMDPad,CuDef*%
%ADD15R,2.500000X2.500000*%
%TD*%
%TA.AperFunction,ComponentPad*%
%ADD16RoundRect,0.250000X0.350000X0.625000X-0.350000X0.625000X-0.350000X-0.625000X0.350000X-0.625000X0*%
%TD*%
%TA.AperFunction,ComponentPad*%
%ADD17O,1.200000X1.750000*%
%TD*%
%TA.AperFunction,ComponentPad*%
%ADD18O,1.000000X2.100000*%
%TD*%
%TA.AperFunction,ComponentPad*%
%ADD19O,1.000000X1.800000*%
%TD*%
%TA.AperFunction,SMDPad,CuDef*%
%ADD20RoundRect,0.150000X0.512500X0.150000X-0.512500X0.150000X-0.512500X-0.150000X0.512500X-0.150000X0*%
%TD*%
%TA.AperFunction,ViaPad*%
%ADD21C,0.700000*%
%TD*%
%TA.AperFunction,ViaPad*%
%ADD22C,0.800000*%
%TD*%
%TA.AperFunction,ViaPad*%
%ADD23C,0.450000*%
%TD*%
%TA.AperFunction,Conductor*%
%ADD24C,0.200000*%
%TD*%
%TA.AperFunction,Conductor*%
%ADD25C,0.400000*%
%TD*%
%TA.AperFunction,Conductor*%
%ADD26C,1.000000*%
%TD*%
G04 APERTURE END LIST*
D10*
%TO.P,J5,1,VTref*%
%TO.N,+3.3V*%
X158740000Y-113330000D03*
D11*
%TO.P,J5,2,SWDIO/TMS*%
%TO.N,SWDIO*%
X158740000Y-114600000D03*
%TO.P,J5,3,GND*%
%TO.N,GND*%
X157470000Y-113330000D03*
%TO.P,J5,4,SWDCLK/TCK*%
%TO.N,SWCLK*%
X157470000Y-114600000D03*
%TO.P,J5,5,GND*%
%TO.N,GND*%
X156200000Y-113330000D03*
%TO.P,J5,6,SWO/TDO*%
%TO.N,unconnected-(J5-SWO{slash}TDO-Pad6)*%
X156200000Y-114600000D03*
%TO.P,J5,7,KEY*%
%TO.N,unconnected-(J5-KEY-Pad7)*%
X154930000Y-113330000D03*
%TO.P,J5,8,NC/TDI*%
%TO.N,unconnected-(J5-NC{slash}TDI-Pad8)*%
X154930000Y-114600000D03*
%TO.P,J5,9,GNDDetect*%
%TO.N,GND*%
X153660000Y-113330000D03*
%TO.P,J5,10,~{RESET}*%
%TO.N,RESET*%
X153660000Y-114600000D03*
%TD*%
D12*
%TO.P,J4,1,Pin_1*%
%TO.N,GND*%
X134450000Y-107300000D03*
D13*
%TO.P,J4,2,Pin_2*%
%TO.N,VCC*%
X134450000Y-109300000D03*
%TD*%
D14*
%TO.P,U4,29,EXP*%
%TO.N,GND*%
X144832353Y-100229412D03*
X145832353Y-100229412D03*
X146832353Y-100229412D03*
X144832353Y-99229412D03*
X145832353Y-99229412D03*
D15*
X145832353Y-99229412D03*
D14*
X146832353Y-99229412D03*
X144832353Y-98229412D03*
X145832353Y-98229412D03*
X146832353Y-98229412D03*
%TD*%
D16*
%TO.P,J3,1*%
%TO.N,SCL2*%
X159500000Y-84300000D03*
D17*
%TO.P,J3,2*%
%TO.N,SDA2*%
X157500000Y-84300000D03*
%TO.P,J3,3*%
%TO.N,unconnected-(J3-Pad3)*%
X155500000Y-84300000D03*
%TO.P,J3,4*%
%TO.N,GND*%
X153500000Y-84300000D03*
%TD*%
D12*
%TO.P,J2,1*%
%TO.N,MOTOR_A1*%
X134432353Y-96229412D03*
D13*
%TO.P,J2,2*%
%TO.N,MOTOR_B1*%
X134432353Y-98229412D03*
%TO.P,J2,3*%
%TO.N,MOTOR_A2*%
X134432353Y-100229412D03*
%TO.P,J2,4*%
%TO.N,MOTOR_B2*%
X134432353Y-102229412D03*
%TD*%
D18*
%TO.P,J1,S1,SHIELD*%
%TO.N,Net-(J1-SHIELD)*%
X147820000Y-86425000D03*
D19*
X147820000Y-82225000D03*
D18*
X139180000Y-86425000D03*
D19*
X139180000Y-82225000D03*
%TD*%
D20*
%TO.P,U1,1,SCL/INT*%
%TO.N,SCL1*%
X151137500Y-99050000D03*
%TO.P,U1,2,GND*%
%TO.N,GND*%
X151137500Y-100000000D03*
%TO.P,U1,3,GND*%
X151137500Y-100950000D03*
%TO.P,U1,4,VDD*%
%TO.N,+3.3V*%
X148862500Y-100950000D03*
%TO.P,U1,5,GND*%
%TO.N,GND*%
X148862500Y-100000000D03*
%TO.P,U1,6,SDA/ADDR*%
%TO.N,SDA1*%
X148862500Y-99050000D03*
%TD*%
D21*
%TO.N,GND*%
X145400000Y-93800000D03*
%TO.N,+3.3V*%
X150800000Y-116200000D03*
%TO.N,RESET*%
X149800000Y-115100000D03*
%TO.N,GND*%
X152000500Y-110500000D03*
%TO.N,AUX2*%
X151800000Y-88600000D03*
X164800000Y-101400000D03*
D22*
%TO.N,AUX1*%
X164000000Y-102500000D03*
X159600000Y-92900000D03*
D21*
%TO.N,+3.3V*%
X140900000Y-115100000D03*
X149300000Y-104000000D03*
X161200000Y-109000000D03*
D22*
X164300000Y-93100000D03*
D21*
X160500000Y-101000000D03*
D22*
X151600000Y-108600000D03*
D21*
X151900000Y-104900000D03*
X155300000Y-111700000D03*
X161200000Y-91000000D03*
D22*
X146600000Y-106700000D03*
D21*
X147400000Y-93900000D03*
X141900000Y-115100000D03*
D22*
X130400000Y-90700000D03*
D21*
X141400000Y-115800000D03*
X140400000Y-115800000D03*
X147982353Y-97029412D03*
%TO.N,GND*%
X148900000Y-105100000D03*
X137900000Y-102500000D03*
X160000000Y-105500000D03*
X150400000Y-83800000D03*
X141700000Y-90400000D03*
X143700000Y-116000000D03*
X137900000Y-106300000D03*
X152000000Y-102100000D03*
X139400000Y-107000000D03*
X138400000Y-107000000D03*
X137100000Y-102500000D03*
X138700000Y-102500000D03*
X158400000Y-108400000D03*
X139100000Y-90000000D03*
X144800000Y-116000000D03*
X137082353Y-95929412D03*
D22*
X160100000Y-87500000D03*
D21*
X137882353Y-95929412D03*
X139100000Y-90800000D03*
X148400000Y-92900000D03*
X136782353Y-94429412D03*
X136800000Y-104000000D03*
X136782353Y-95229412D03*
X138682353Y-95929412D03*
X138900000Y-106300000D03*
X136800000Y-103200000D03*
X136900000Y-106300000D03*
X159800000Y-101700000D03*
X137400000Y-107000000D03*
X146200000Y-119000000D03*
X144200000Y-115300000D03*
%TO.N,VCC*%
X142200000Y-106600000D03*
X142200000Y-105700000D03*
X143200000Y-94100000D03*
X143900000Y-92900000D03*
X143100000Y-106600000D03*
X143000000Y-105700000D03*
X143200000Y-93300000D03*
X142182353Y-104829412D03*
X143200000Y-92500000D03*
X142982353Y-104829412D03*
X143900000Y-93700000D03*
X147300000Y-105100000D03*
%TO.N,RESET*%
X150595925Y-98073707D03*
D22*
%TO.N,V_USB*%
X146400000Y-88700000D03*
D21*
X140400000Y-88700000D03*
%TO.N,NEOPIX*%
X136900000Y-90700000D03*
X152100000Y-89949500D03*
D23*
%TO.N,MOTOR_A1*%
X143132353Y-95979412D03*
X143632353Y-96229412D03*
X143632353Y-96729412D03*
X143132353Y-96479412D03*
%TO.N,MOTOR_B2*%
X143132353Y-102479412D03*
X143132353Y-101979412D03*
X143632353Y-102229412D03*
X143632353Y-101729412D03*
D21*
%TO.N,UART_RX*%
X153000000Y-90300000D03*
X149246657Y-97649500D03*
D22*
%TO.N,User_Input*%
X157400000Y-91899500D03*
X150700000Y-108100000D03*
D21*
%TO.N,SCL1*%
X158900000Y-98600000D03*
%TO.N,SDA1*%
X160500000Y-99500000D03*
D22*
%TO.N,EEPROM_CS*%
X158980252Y-91480252D03*
D21*
X166900000Y-100900000D03*
%TO.N,EN*%
X159000000Y-105700000D03*
X151800000Y-105900000D03*
%TO.N,DIAG*%
X148600000Y-90300000D03*
X150700500Y-102200000D03*
%TO.N,MISO*%
X165700000Y-95700000D03*
X159137932Y-110225597D03*
%TO.N,SCK*%
X155050000Y-108450000D03*
X165500000Y-97100000D03*
%TO.N,MOSI*%
X165700000Y-94400000D03*
X156300000Y-108775498D03*
%TO.N,Spread*%
X151600000Y-91900000D03*
X147900000Y-102490500D03*
%TO.N,MOT_M1*%
X150700500Y-103194625D03*
X153699500Y-102400000D03*
%TO.N,MOT_M0*%
X153900000Y-104300000D03*
X150700000Y-104300000D03*
%TD*%
D24*
%TO.N,RESET*%
X150000000Y-114900000D02*
X150000000Y-112600000D01*
X150000000Y-112600000D02*
X150000000Y-112700000D01*
X150000000Y-98700000D02*
X150000000Y-112600000D01*
X149800000Y-115100000D02*
X150000000Y-114900000D01*
%TO.N,NEOPIX*%
X147400000Y-92500000D02*
X150100000Y-89800000D01*
X151950500Y-89800000D02*
X152100000Y-89949500D01*
X144800000Y-91700000D02*
X145600000Y-92500000D01*
X150100000Y-89800000D02*
X151950500Y-89800000D01*
X137900000Y-91700000D02*
X144800000Y-91700000D01*
X136900000Y-90700000D02*
X137900000Y-91700000D01*
X145600000Y-92500000D02*
X147400000Y-92500000D01*
%TO.N,AUX2*%
X155090450Y-88600000D02*
X151800000Y-88600000D01*
X158100000Y-91609550D02*
X155090450Y-88600000D01*
X158100000Y-93134314D02*
X158100000Y-91609550D01*
X164800000Y-99834314D02*
X158100000Y-93134314D01*
X164800000Y-101400000D02*
X164800000Y-99834314D01*
%TO.N,EEPROM_CS*%
X166900000Y-100300000D02*
X166900000Y-100800000D01*
X160380252Y-91480252D02*
X164850000Y-95950000D01*
X164850000Y-95950000D02*
X164850000Y-98250000D01*
X158980252Y-91480252D02*
X160380252Y-91480252D01*
X164850000Y-98250000D02*
X166900000Y-100300000D01*
%TO.N,User_Input*%
X152000000Y-106800000D02*
X150700000Y-108100000D01*
X159689950Y-106800000D02*
X152000000Y-106800000D01*
X161550000Y-104939950D02*
X159689950Y-106800000D01*
X161550000Y-97150000D02*
X161550000Y-104939950D01*
X157400000Y-93000000D02*
X161550000Y-97150000D01*
X157400000Y-91899500D02*
X157400000Y-93000000D01*
%TO.N,DIAG*%
X149600000Y-89300000D02*
X148600000Y-90300000D01*
X160850000Y-100150000D02*
X161150000Y-99850000D01*
X161150000Y-99850000D02*
X161150000Y-97530761D01*
X161150000Y-97530761D02*
X152919239Y-89300000D01*
X154950000Y-100150000D02*
X160850000Y-100150000D01*
X152350000Y-102750000D02*
X154950000Y-100150000D01*
X151250500Y-102750000D02*
X152350000Y-102750000D01*
X152919239Y-89300000D02*
X149600000Y-89300000D01*
X150700500Y-102200000D02*
X151250500Y-102750000D01*
%TO.N,AUX1*%
X165900000Y-100365686D02*
X164300000Y-98765686D01*
X164300000Y-97600000D02*
X159600000Y-92900000D01*
X165900000Y-102000000D02*
X165900000Y-100365686D01*
X164300000Y-98765686D02*
X164300000Y-97600000D01*
X165400000Y-102500000D02*
X165900000Y-102000000D01*
X164000000Y-102500000D02*
X165400000Y-102500000D01*
%TO.N,+3.3V*%
X149300000Y-101387500D02*
X148862500Y-100950000D01*
X149300000Y-104000000D02*
X149300000Y-101387500D01*
X149300000Y-103900000D02*
X149300000Y-104000000D01*
%TO.N,GND*%
X151137500Y-101237500D02*
X152000000Y-102100000D01*
X151137500Y-100950000D02*
X151137500Y-101237500D01*
X148500000Y-100000000D02*
X147900000Y-100600000D01*
X148862500Y-100000000D02*
X148500000Y-100000000D01*
X147900000Y-100600000D02*
X147900000Y-101571261D01*
X151137500Y-100000000D02*
X151137500Y-100950000D01*
X148600000Y-104800000D02*
X148900000Y-105100000D01*
X148600000Y-102271261D02*
X148600000Y-104800000D01*
X147900000Y-101571261D02*
X148600000Y-102271261D01*
%TO.N,RESET*%
X150595925Y-98073707D02*
X150595925Y-98104075D01*
X150000000Y-112700000D02*
X151900000Y-114600000D01*
X151900000Y-114600000D02*
X153660000Y-114600000D01*
X150595925Y-98104075D02*
X150000000Y-98700000D01*
D25*
%TO.N,V_USB*%
X140500000Y-88700000D02*
X140400000Y-88800000D01*
X146400000Y-88700000D02*
X140500000Y-88700000D01*
D26*
%TO.N,MOTOR_A1*%
X135129412Y-96129412D02*
X137229412Y-98229412D01*
X141482353Y-98229412D02*
X143382353Y-96329412D01*
X134432353Y-96129412D02*
X135129412Y-96129412D01*
X137229412Y-98229412D02*
X141482353Y-98229412D01*
%TO.N,MOTOR_B2*%
X137070588Y-100229412D02*
X141482353Y-100229412D01*
X135070588Y-102229412D02*
X137070588Y-100229412D01*
X141482353Y-100229412D02*
X143382353Y-102129412D01*
X134332353Y-102229412D02*
X135070588Y-102229412D01*
D24*
%TO.N,UART_RX*%
X149350500Y-97649500D02*
X153000000Y-94000000D01*
X149246657Y-97649500D02*
X149350500Y-97649500D01*
X153000000Y-94000000D02*
X153000000Y-90300000D01*
%TO.N,SCL1*%
X158900000Y-98600000D02*
X158300000Y-98000000D01*
X150561747Y-99050000D02*
X151137500Y-99050000D01*
X158300000Y-98000000D02*
X152187500Y-98000000D01*
X152187500Y-98000000D02*
X151137500Y-99050000D01*
%TO.N,SDA1*%
X158419239Y-97200000D02*
X150500000Y-97200000D01*
X160500000Y-99280761D02*
X158419239Y-97200000D01*
X149896657Y-98015843D02*
X148862500Y-99050000D01*
X150500000Y-97200000D02*
X149896657Y-97803343D01*
X149896657Y-97803343D02*
X149896657Y-98015843D01*
X160500000Y-99500000D02*
X160500000Y-99280761D01*
%TO.N,EN*%
X158800000Y-105900000D02*
X159000000Y-105700000D01*
X151800000Y-105900000D02*
X158800000Y-105900000D01*
%TO.N,MISO*%
X160893642Y-110225597D02*
X168600000Y-102519239D01*
X168600000Y-102519239D02*
X168600000Y-98600000D01*
X159137932Y-110225597D02*
X160893642Y-110225597D01*
X168600000Y-98600000D02*
X165700000Y-95700000D01*
%TO.N,SCK*%
X155050000Y-108450000D02*
X155800000Y-107700000D01*
X167700000Y-102250000D02*
X167700000Y-99300000D01*
X162250000Y-107700000D02*
X167700000Y-102250000D01*
X167700000Y-99300000D02*
X165500000Y-97100000D01*
X155800000Y-107700000D02*
X162250000Y-107700000D01*
%TO.N,MOSI*%
X166100000Y-94400000D02*
X165700000Y-94400000D01*
X169400000Y-102900000D02*
X169400000Y-97700000D01*
X156300000Y-108775498D02*
X156768594Y-108775498D01*
X169400000Y-97700000D02*
X166100000Y-94400000D01*
X161424403Y-110875597D02*
X169400000Y-102900000D01*
X156768594Y-108775498D02*
X158868693Y-110875597D01*
X158868693Y-110875597D02*
X161424403Y-110875597D01*
%TO.N,Spread*%
X147900000Y-102490500D02*
X147500000Y-102090500D01*
X148651810Y-93648190D02*
X149851810Y-93648190D01*
X147332353Y-97298651D02*
X147332353Y-94967647D01*
X147500000Y-97466298D02*
X147332353Y-97298651D01*
X149851810Y-93648190D02*
X151600000Y-91900000D01*
X147332353Y-94967647D02*
X148651810Y-93648190D01*
X147500000Y-102090500D02*
X147500000Y-97466298D01*
%TO.N,MOT_M1*%
X153699500Y-102400000D02*
X152904875Y-103194625D01*
X152904875Y-103194625D02*
X150700500Y-103194625D01*
%TO.N,MOT_M0*%
X151100000Y-103900000D02*
X153500000Y-103900000D01*
X153500000Y-103900000D02*
X153900000Y-104300000D01*
X150700000Y-104300000D02*
X151100000Y-103900000D01*
%TD*%
M02*
