M48
; DRILL file {KiCad 8.0.3} date 2024-10-17T21:46:55-0400
; FORMAT={-:-/ absolute / metric / decimal}
; #@! TF.CreationDate,2024-10-17T21:46:55-04:00
; #@! TF.GenerationSoftware,Kicad,Pcbnew,8.0.3
; #@! TF.FileFunction,Plated,1,4,PTH
FMAT,2
METRIC
; #@! TA.AperFunction,Plated,PTH,ViaDrill
T1C0.150
; #@! TA.AperFunction,Plated,PTH,ComponentDrill
T2C0.200
; #@! TA.AperFunction,Plated,PTH,ViaDrill
T3C0.350
; #@! TA.AperFunction,Plated,PTH,ViaDrill
T4C0.400
; #@! TA.AperFunction,Plated,PTH,ComponentDrill
T5C0.600
; #@! TA.AperFunction,Plated,PTH,ComponentDrill
T6C0.750
; #@! TA.AperFunction,Plated,PTH,ComponentDrill
T7C3.200
%
G90
G05
T1
X140.9Y-102.1
X140.9Y-102.7
X140.9Y-95.7
X140.9Y-96.3
X141.4Y-102.4
X141.4Y-103.0
X141.4Y-95.45
X141.4Y-96.0
T2
X141.987Y-98.2
X141.987Y-99.2
X141.987Y-100.2
X142.987Y-98.2
X142.987Y-99.2
X142.987Y-100.2
X143.987Y-98.2
X143.987Y-99.2
X143.987Y-100.2
T3
X130.0Y-84.0
X130.0Y-86.0
X130.0Y-88.0
X130.0Y-90.1
X130.0Y-92.1
X130.0Y-96.0
X130.0Y-98.0
X130.0Y-100.0
X130.0Y-102.0
X130.0Y-106.0
X130.0Y-108.0
X130.0Y-110.0
X130.0Y-114.0
X130.0Y-116.0
X134.0Y-80.0
X134.0Y-120.0
X136.0Y-80.0
X136.0Y-120.0
X136.9Y-106.3
X137.2Y-90.9
X137.4Y-107.0
X137.9Y-106.3
X138.0Y-80.0
X138.0Y-86.9
X138.0Y-120.0
X138.1Y-112.1
X138.3Y-90.9
X138.4Y-107.0
X138.6Y-92.1
X138.9Y-106.3
X139.4Y-107.0
X140.0Y-80.0
X140.65Y-105.8
X140.65Y-106.65
X140.7Y-91.7
X140.7Y-92.55
X140.7Y-118.2
X140.8Y-115.5
X141.2Y-119.0
X141.3Y-116.3
X141.55Y-105.8
X141.55Y-106.65
X141.6Y-91.7
X141.6Y-92.55
X141.7Y-118.2
X141.8Y-115.5
X141.8Y-117.1
X142.0Y-80.0
X142.1Y-119.0
X142.3Y-116.3
X142.363Y-102.9
X142.8Y-115.5
X143.0Y-119.0
X143.6Y-82.3
X143.6Y-83.2
X143.6Y-84.1
X143.9Y-91.8
X143.9Y-94.9
X144.0Y-80.0
X144.6Y-88.0
X145.1Y-92.028
X145.2Y-107.2
X145.3Y-105.479
X145.5Y-96.8
X145.6Y-88.1
X146.0Y-80.0
X146.609Y-104.18
X146.8Y-89.1
X147.682Y-99.407
X147.7Y-94.5
X147.77Y-103.541
X147.907Y-111.3
X148.0Y-80.0
X149.6Y-116.5
X150.0Y-80.0
X150.0Y-120.0
X150.1Y-113.7
X150.9Y-88.7
X151.4Y-90.8
X152.0Y-80.0
X152.0Y-120.0
X152.6Y-99.1
X152.6Y-100.0
X152.79Y-101.39
X153.7Y-101.4
X154.0Y-80.0
X154.7Y-105.2
X154.8Y-112.3
X156.0Y-80.0
X156.0Y-114.5
X156.3Y-92.4
X156.6Y-82.3
X156.6Y-83.2
X156.6Y-84.1
X157.0Y-96.3
X157.1Y-108.75
X157.925Y-97.3
X158.0Y-80.0
X158.0Y-120.0
X158.9Y-108.5
X159.4Y-98.1
X159.971Y-92.3
X160.0Y-80.0
X160.0Y-108.4
X160.0Y-120.0
X160.9Y-92.3
X161.073Y-100.427
X161.752Y-94.639
X161.8Y-111.3
X162.0Y-80.0
X162.6Y-97.0
X162.6Y-100.8
X163.6Y-98.6
X163.9Y-110.4
X164.0Y-80.0
X164.05Y-101.5
X164.7Y-98.6
X165.5Y-92.9
X165.9Y-98.6
X166.0Y-80.0
X166.95Y-101.6
X170.0Y-85.0
X170.0Y-87.0
X170.0Y-89.0
X170.0Y-91.0
X170.0Y-93.0
X170.0Y-95.0
X170.0Y-97.0
X170.0Y-99.0
X170.0Y-101.0
X170.0Y-105.0
X170.0Y-107.0
X170.0Y-109.0
X170.0Y-113.0
X170.0Y-115.0
T4
X142.9Y-93.5
X150.2Y-108.2
X154.1Y-108.0
X166.8Y-92.4
T6
X134.432Y-96.229
X134.432Y-98.229
X134.432Y-100.229
X134.432Y-102.229
X134.45Y-107.3
X134.45Y-109.3
T7
X134.5Y-84.5
X134.5Y-115.5
X165.5Y-84.5
X165.5Y-115.5
T5
G00X164.945Y-102.33
M15
G01X166.045Y-102.33
M16
G05
G00X164.945Y-110.97
M15
G01X166.045Y-110.97
M16
G05
G00X169.275Y-102.33
M15
G01X170.075Y-102.33
M16
G05
G00X169.275Y-110.97
M15
G01X170.075Y-110.97
M16
G05
M30
