%TF.GenerationSoftware,KiCad,Pcbnew,7.0.6*%
%TF.CreationDate,2024-06-11T21:52:17-04:00*%
%TF.ProjectId,Axis_Basic,41786973-5f42-4617-9369-632e6b696361,rev?*%
%TF.SameCoordinates,Original*%
%TF.FileFunction,Copper,L1,Top*%
%TF.FilePolarity,Positive*%
%FSLAX46Y46*%
G04 Gerber Fmt 4.6, Leading zero omitted, Abs format (unit mm)*
G04 Created by KiCad (PCBNEW 7.0.6) date 2024-06-11 21:52:17*
%MOMM*%
%LPD*%
G01*
G04 APERTURE LIST*
G04 Aperture macros list*
%AMRoundRect*
0 Rectangle with rounded corners*
0 $1 Rounding radius*
0 $2 $3 $4 $5 $6 $7 $8 $9 X,Y pos of 4 corners*
0 Add a 4 corners polygon primitive as box body*
4,1,4,$2,$3,$4,$5,$6,$7,$8,$9,$2,$3,0*
0 Add four circle primitives for the rounded corners*
1,1,$1+$1,$2,$3*
1,1,$1+$1,$4,$5*
1,1,$1+$1,$6,$7*
1,1,$1+$1,$8,$9*
0 Add four rect primitives between the rounded corners*
20,1,$1+$1,$2,$3,$4,$5,0*
20,1,$1+$1,$4,$5,$6,$7,0*
20,1,$1+$1,$6,$7,$8,$9,0*
20,1,$1+$1,$8,$9,$2,$3,0*%
%AMRotRect*
0 Rectangle, with rotation*
0 The origin of the aperture is its center*
0 $1 length*
0 $2 width*
0 $3 Rotation angle, in degrees counterclockwise*
0 Add horizontal line*
21,1,$1,$2,0,0,$3*%
G04 Aperture macros list end*
%TA.AperFunction,SMDPad,CuDef*%
%ADD10RoundRect,0.140000X0.170000X-0.140000X0.170000X0.140000X-0.170000X0.140000X-0.170000X-0.140000X0*%
%TD*%
%TA.AperFunction,ComponentPad*%
%ADD11R,1.000000X1.000000*%
%TD*%
%TA.AperFunction,ComponentPad*%
%ADD12O,1.000000X1.000000*%
%TD*%
%TA.AperFunction,SMDPad,CuDef*%
%ADD13RoundRect,0.218750X0.218750X0.256250X-0.218750X0.256250X-0.218750X-0.256250X0.218750X-0.256250X0*%
%TD*%
%TA.AperFunction,ComponentPad*%
%ADD14RoundRect,0.250000X-0.625000X0.350000X-0.625000X-0.350000X0.625000X-0.350000X0.625000X0.350000X0*%
%TD*%
%TA.AperFunction,ComponentPad*%
%ADD15O,1.750000X1.200000*%
%TD*%
%TA.AperFunction,SMDPad,CuDef*%
%ADD16R,1.150000X1.000000*%
%TD*%
%TA.AperFunction,SMDPad,CuDef*%
%ADD17RoundRect,0.135000X0.135000X0.185000X-0.135000X0.185000X-0.135000X-0.185000X0.135000X-0.185000X0*%
%TD*%
%TA.AperFunction,SMDPad,CuDef*%
%ADD18R,1.500000X2.000000*%
%TD*%
%TA.AperFunction,SMDPad,CuDef*%
%ADD19R,3.800000X2.000000*%
%TD*%
%TA.AperFunction,SMDPad,CuDef*%
%ADD20RoundRect,0.062500X0.309359X-0.220971X-0.220971X0.309359X-0.309359X0.220971X0.220971X-0.309359X0*%
%TD*%
%TA.AperFunction,SMDPad,CuDef*%
%ADD21RoundRect,0.062500X0.309359X0.220971X0.220971X0.309359X-0.309359X-0.220971X-0.220971X-0.309359X0*%
%TD*%
%TA.AperFunction,SMDPad,CuDef*%
%ADD22RotRect,5.150000X5.150000X135.000000*%
%TD*%
%TA.AperFunction,SMDPad,CuDef*%
%ADD23RoundRect,0.250000X0.625000X-0.312500X0.625000X0.312500X-0.625000X0.312500X-0.625000X-0.312500X0*%
%TD*%
%TA.AperFunction,SMDPad,CuDef*%
%ADD24RoundRect,0.250000X0.250000X0.475000X-0.250000X0.475000X-0.250000X-0.475000X0.250000X-0.475000X0*%
%TD*%
%TA.AperFunction,SMDPad,CuDef*%
%ADD25RoundRect,0.062500X0.062500X-0.337500X0.062500X0.337500X-0.062500X0.337500X-0.062500X-0.337500X0*%
%TD*%
%TA.AperFunction,SMDPad,CuDef*%
%ADD26RoundRect,0.062500X0.337500X-0.062500X0.337500X0.062500X-0.337500X0.062500X-0.337500X-0.062500X0*%
%TD*%
%TA.AperFunction,ComponentPad*%
%ADD27C,0.500000*%
%TD*%
%TA.AperFunction,SMDPad,CuDef*%
%ADD28R,3.350000X3.350000*%
%TD*%
%TA.AperFunction,SMDPad,CuDef*%
%ADD29R,2.000000X0.610000*%
%TD*%
%TA.AperFunction,SMDPad,CuDef*%
%ADD30R,3.600000X2.680000*%
%TD*%
%TA.AperFunction,SMDPad,CuDef*%
%ADD31R,0.750000X0.700000*%
%TD*%
%TA.AperFunction,SMDPad,CuDef*%
%ADD32RoundRect,0.135000X0.185000X-0.135000X0.185000X0.135000X-0.185000X0.135000X-0.185000X-0.135000X0*%
%TD*%
%TA.AperFunction,ComponentPad*%
%ADD33RoundRect,0.250000X0.350000X0.625000X-0.350000X0.625000X-0.350000X-0.625000X0.350000X-0.625000X0*%
%TD*%
%TA.AperFunction,ComponentPad*%
%ADD34O,1.200000X1.750000*%
%TD*%
%TA.AperFunction,SMDPad,CuDef*%
%ADD35RoundRect,0.140000X-0.170000X0.140000X-0.170000X-0.140000X0.170000X-0.140000X0.170000X0.140000X0*%
%TD*%
%TA.AperFunction,SMDPad,CuDef*%
%ADD36RoundRect,0.140000X0.140000X0.170000X-0.140000X0.170000X-0.140000X-0.170000X0.140000X-0.170000X0*%
%TD*%
%TA.AperFunction,SMDPad,CuDef*%
%ADD37RoundRect,0.135000X-0.135000X-0.185000X0.135000X-0.185000X0.135000X0.185000X-0.135000X0.185000X0*%
%TD*%
%TA.AperFunction,SMDPad,CuDef*%
%ADD38RoundRect,0.135000X-0.185000X0.135000X-0.185000X-0.135000X0.185000X-0.135000X0.185000X0.135000X0*%
%TD*%
%TA.AperFunction,SMDPad,CuDef*%
%ADD39RoundRect,0.112500X0.187500X0.112500X-0.187500X0.112500X-0.187500X-0.112500X0.187500X-0.112500X0*%
%TD*%
%TA.AperFunction,SMDPad,CuDef*%
%ADD40RoundRect,0.250000X1.500000X0.550000X-1.500000X0.550000X-1.500000X-0.550000X1.500000X-0.550000X0*%
%TD*%
%TA.AperFunction,SMDPad,CuDef*%
%ADD41RoundRect,0.140000X-0.140000X-0.170000X0.140000X-0.170000X0.140000X0.170000X-0.140000X0.170000X0*%
%TD*%
%TA.AperFunction,SMDPad,CuDef*%
%ADD42R,0.600000X1.240000*%
%TD*%
%TA.AperFunction,SMDPad,CuDef*%
%ADD43R,0.300000X1.240000*%
%TD*%
%TA.AperFunction,ComponentPad*%
%ADD44O,1.000000X2.100000*%
%TD*%
%TA.AperFunction,ComponentPad*%
%ADD45O,1.000000X1.800000*%
%TD*%
%TA.AperFunction,SMDPad,CuDef*%
%ADD46RoundRect,0.218750X-0.218750X-0.256250X0.218750X-0.256250X0.218750X0.256250X-0.218750X0.256250X0*%
%TD*%
%TA.AperFunction,SMDPad,CuDef*%
%ADD47RoundRect,0.218750X0.256250X-0.218750X0.256250X0.218750X-0.256250X0.218750X-0.256250X-0.218750X0*%
%TD*%
%TA.AperFunction,SMDPad,CuDef*%
%ADD48R,0.750000X0.300000*%
%TD*%
%TA.AperFunction,SMDPad,CuDef*%
%ADD49R,1.300000X1.500000*%
%TD*%
%TA.AperFunction,SMDPad,CuDef*%
%ADD50R,1.500000X0.900000*%
%TD*%
%TA.AperFunction,SMDPad,CuDef*%
%ADD51RoundRect,0.250000X-0.625000X0.312500X-0.625000X-0.312500X0.625000X-0.312500X0.625000X0.312500X0*%
%TD*%
%TA.AperFunction,ViaPad*%
%ADD52C,0.700000*%
%TD*%
%TA.AperFunction,ViaPad*%
%ADD53C,0.800000*%
%TD*%
%TA.AperFunction,ViaPad*%
%ADD54C,0.450000*%
%TD*%
%TA.AperFunction,Conductor*%
%ADD55C,0.200000*%
%TD*%
%TA.AperFunction,Conductor*%
%ADD56C,0.250000*%
%TD*%
%TA.AperFunction,Conductor*%
%ADD57C,0.400000*%
%TD*%
%TA.AperFunction,Conductor*%
%ADD58C,1.000000*%
%TD*%
G04 APERTURE END LIST*
D10*
%TO.P,C6,1*%
%TO.N,VCC*%
X146582353Y-104309412D03*
%TO.P,C6,2*%
%TO.N,Net-(U4-VCP)*%
X146582353Y-103349412D03*
%TD*%
D11*
%TO.P,J5,1,VTref*%
%TO.N,+3.3V*%
X158740000Y-113330000D03*
D12*
%TO.P,J5,2,SWDIO/TMS*%
%TO.N,SWDIO*%
X158740000Y-114600000D03*
%TO.P,J5,3,GND*%
%TO.N,GND*%
X157470000Y-113330000D03*
%TO.P,J5,4,SWDCLK/TCK*%
%TO.N,SWCLK*%
X157470000Y-114600000D03*
%TO.P,J5,5,GND*%
%TO.N,GND*%
X156200000Y-113330000D03*
%TO.P,J5,6,SWO/TDO*%
%TO.N,unconnected-(J5-SWO{slash}TDO-Pad6)*%
X156200000Y-114600000D03*
%TO.P,J5,7,KEY*%
%TO.N,unconnected-(J5-KEY-Pad7)*%
X154930000Y-113330000D03*
%TO.P,J5,8,NC/TDI*%
%TO.N,unconnected-(J5-NC{slash}TDI-Pad8)*%
X154930000Y-114600000D03*
%TO.P,J5,9,GNDDetect*%
%TO.N,GND*%
X153660000Y-113330000D03*
%TO.P,J5,10,~{RESET}*%
%TO.N,RESET*%
X153660000Y-114600000D03*
%TD*%
D13*
%TO.P,D6,1,A1*%
%TO.N,GND*%
X149487500Y-89000000D03*
%TO.P,D6,2,A2*%
%TO.N,D-*%
X147912500Y-89000000D03*
%TD*%
D14*
%TO.P,J4,1,Pin_1*%
%TO.N,GND*%
X134450000Y-107300000D03*
D15*
%TO.P,J4,2,Pin_2*%
%TO.N,VCC*%
X134450000Y-109300000D03*
%TD*%
D16*
%TO.P,Y1,1,1*%
%TO.N,Net-(U3-PA15{slash}SERCOM2_3{slash}SERCOM4_3)*%
X156925000Y-90200000D03*
%TO.P,Y1,2,2*%
%TO.N,Net-(U3-PA14{slash}SERCOM2_2{slash}SERCOM4_2)*%
X158675000Y-90200000D03*
%TO.P,Y1,3*%
%TO.N,N/C*%
X158675000Y-88800000D03*
%TO.P,Y1,4*%
X156925000Y-88800000D03*
%TD*%
D17*
%TO.P,R6,1*%
%TO.N,+3.3V*%
X151710000Y-115000000D03*
%TO.P,R6,2*%
%TO.N,RESET*%
X150690000Y-115000000D03*
%TD*%
D18*
%TO.P,U2,1,GND*%
%TO.N,GND*%
X144000000Y-113350000D03*
%TO.P,U2,2,VO*%
%TO.N,+3.3V*%
X141700000Y-113350000D03*
D19*
X141700000Y-119650000D03*
D18*
%TO.P,U2,3,VI*%
%TO.N,VCC*%
X139400000Y-113350000D03*
%TD*%
D10*
%TO.P,C2,1*%
%TO.N,+3.3V*%
X146000000Y-117180000D03*
%TO.P,C2,2*%
%TO.N,GND*%
X146000000Y-116220000D03*
%TD*%
D20*
%TO.P,U3,1,PA00/SERCOM1_0*%
%TO.N,EN*%
X155100000Y-100150446D03*
%TO.P,U3,2,PA01/SERCOM1_1*%
%TO.N,PA01*%
X155453553Y-99796893D03*
%TO.P,U3,3,PA02*%
%TO.N,PA02*%
X155807107Y-99443339D03*
%TO.P,U3,4,PA03*%
%TO.N,PA03*%
X156160660Y-99089786D03*
%TO.P,U3,5,GNDANA*%
%TO.N,GND*%
X156514213Y-98736233D03*
%TO.P,U3,6,VDDANA*%
%TO.N,+3.3V*%
X156867767Y-98382679D03*
%TO.P,U3,7,PB08/SERCOM4_0*%
%TO.N,SDA1*%
X157221320Y-98029126D03*
%TO.P,U3,8,PB09/SERCOM4_1*%
%TO.N,SCL1*%
X157574874Y-97675572D03*
%TO.P,U3,9,PA04/SERCOM0_0*%
%TO.N,ETH_CS*%
X157928427Y-97322019D03*
%TO.P,U3,10,PA05/SERCOM0_1*%
%TO.N,SCK*%
X158281980Y-96968466D03*
%TO.P,U3,11,PA06/SERCOM0_2*%
%TO.N,MISO*%
X158635534Y-96614912D03*
%TO.P,U3,12,PA07/SERCOM0_3*%
%TO.N,MOSI*%
X158989087Y-96261359D03*
D21*
%TO.P,U3,13,PA08/SERCOM0_0/SERCOM2_1*%
%TO.N,SCL2*%
X158989087Y-95289087D03*
%TO.P,U3,14,PA09/SEROM0_1/SERCOM2_0*%
%TO.N,SDA2*%
X158635534Y-94935534D03*
%TO.P,U3,15,PA10/SERCOM0_2/SERCOM2_2*%
%TO.N,AUX1*%
X158281980Y-94581980D03*
%TO.P,U3,16,PA11/SERCOM0_3/SERCOM2_3*%
%TO.N,unconnected-(U3-PA11{slash}SERCOM0_3{slash}SERCOM2_3-Pad16)*%
X157928427Y-94228427D03*
%TO.P,U3,17,VDDIO*%
%TO.N,+3.3V*%
X157574874Y-93874874D03*
%TO.P,U3,18,GND*%
%TO.N,GND*%
X157221320Y-93521320D03*
%TO.P,U3,19,PB10/SEROM4_2*%
%TO.N,EEPROM_CS*%
X156867767Y-93167767D03*
%TO.P,U3,20,PB11/SERCOM4_3*%
%TO.N,unconnected-(U3-PB11{slash}SERCOM4_3-Pad20)*%
X156514213Y-92814213D03*
%TO.P,U3,21,PA12/SERCOM2_0/SERCOM4_1*%
%TO.N,unconnected-(U3-PA12{slash}SERCOM2_0{slash}SERCOM4_1-Pad21)*%
X156160660Y-92460660D03*
%TO.P,U3,22,PA13/SERCOM2_1/SERCOM4_0*%
%TO.N,User_Input*%
X155807107Y-92107107D03*
%TO.P,U3,23,PA14/SERCOM2_2/SERCOM4_2*%
%TO.N,Net-(U3-PA14{slash}SERCOM2_2{slash}SERCOM4_2)*%
X155453553Y-91753553D03*
%TO.P,U3,24,PA15/SERCOM2_3/SERCOM4_3*%
%TO.N,Net-(U3-PA15{slash}SERCOM2_3{slash}SERCOM4_3)*%
X155100000Y-91400000D03*
D20*
%TO.P,U3,25,PA16/SERCOM1_0/SERCOM3_1*%
%TO.N,UART_TX*%
X154127728Y-91400000D03*
%TO.P,U3,26,PA14/SERCOM1_1/SERCOM3_0*%
%TO.N,UART_RX*%
X153774175Y-91753553D03*
%TO.P,U3,27,PA18/SERCOM1_2/SERCOM3_2*%
%TO.N,NEOPIX*%
X153420621Y-92107107D03*
%TO.P,U3,28,PA19/SERCOM1_3/SERCOM3_3*%
%TO.N,AUX2*%
X153067068Y-92460660D03*
%TO.P,U3,29,PA20/SERCOM5_2/SERCOM3_2*%
%TO.N,Spread*%
X152713515Y-92814213D03*
%TO.P,U3,30,PA21/SERCOM5_3/SERCOM3_3*%
%TO.N,unconnected-(U3-PA21{slash}SERCOM5_3{slash}SERCOM3_3-Pad30)*%
X152359961Y-93167767D03*
%TO.P,U3,31,PA22/SERCOM3_0/SERCOM5_1*%
%TO.N,DIAG*%
X152006408Y-93521320D03*
%TO.P,U3,32,PA23/SERCOM3_1/SERCOM5_0*%
%TO.N,unconnected-(U3-PA23{slash}SERCOM3_1{slash}SERCOM5_0-Pad32)*%
X151652854Y-93874874D03*
%TO.P,U3,33,PA24/SERCOM3_2/SERCOM5_2*%
%TO.N,D-*%
X151299301Y-94228427D03*
%TO.P,U3,34,PA25/SERCOM3_3/SERCOM5_3*%
%TO.N,D+*%
X150945748Y-94581980D03*
%TO.P,U3,35,GND*%
%TO.N,GND*%
X150592194Y-94935534D03*
%TO.P,U3,36,VDDIO*%
%TO.N,+3.3V*%
X150238641Y-95289087D03*
D21*
%TO.P,U3,37,PB22/SERCOM1_2/SERCOM5_2*%
%TO.N,DIR*%
X150238641Y-96261359D03*
%TO.P,U3,38,PB23/SERCOM1_3/SERCOM5_3*%
%TO.N,STEP*%
X150592194Y-96614912D03*
%TO.P,U3,39,PA27*%
%TO.N,INDEX*%
X150945748Y-96968466D03*
%TO.P,U3,40,nRESET*%
%TO.N,RESET*%
X151299301Y-97322019D03*
%TO.P,U3,41,VDDCORE*%
%TO.N,+3.3V*%
X151652854Y-97675572D03*
%TO.P,U3,42,GND*%
%TO.N,GND*%
X152006408Y-98029126D03*
%TO.P,U3,43,VSW*%
%TO.N,unconnected-(U3-VSW-Pad43)*%
X152359961Y-98382679D03*
%TO.P,U3,44,VDDIO*%
%TO.N,+3.3V*%
X152713515Y-98736233D03*
%TO.P,U3,45,PA30/SWCLK*%
%TO.N,SWCLK*%
X153067068Y-99089786D03*
%TO.P,U3,46,PA31/SWDIO*%
%TO.N,SWDIO*%
X153420621Y-99443339D03*
%TO.P,U3,47,PB02/SERCOM5_0*%
%TO.N,MOT_M1*%
X153774175Y-99796893D03*
%TO.P,U3,48,PB03/SERCOM5_1*%
%TO.N,MOT_M0*%
X154127728Y-100150446D03*
D22*
%TO.P,U3,49,PAD*%
%TO.N,GND*%
X154613864Y-95775223D03*
%TD*%
D23*
%TO.P,R15,1*%
%TO.N,/BRA*%
X138382353Y-97291912D03*
%TO.P,R15,2*%
%TO.N,GND*%
X138382353Y-94366912D03*
%TD*%
D24*
%TO.P,C9,1*%
%TO.N,VCC*%
X142232353Y-94829412D03*
%TO.P,C9,2*%
%TO.N,GND*%
X140332353Y-94829412D03*
%TD*%
D10*
%TO.P,C4,1*%
%TO.N,Net-(U4-CPI)*%
X145182353Y-104309412D03*
%TO.P,C4,2*%
%TO.N,Net-(U4-CPO)*%
X145182353Y-103349412D03*
%TD*%
D25*
%TO.P,U4,1,OB2*%
%TO.N,MOTOR_B2*%
X144332353Y-101679412D03*
%TO.P,U4,2,~{EN}*%
%TO.N,EN*%
X144832353Y-101679412D03*
%TO.P,U4,3,GND*%
%TO.N,GND*%
X145332353Y-101679412D03*
%TO.P,U4,4,CPO*%
%TO.N,Net-(U4-CPO)*%
X145832353Y-101679412D03*
%TO.P,U4,5,CPI*%
%TO.N,Net-(U4-CPI)*%
X146332353Y-101679412D03*
%TO.P,U4,6,VCP*%
%TO.N,Net-(U4-VCP)*%
X146832353Y-101679412D03*
%TO.P,U4,7,SPREAD*%
%TO.N,Spread*%
X147332353Y-101679412D03*
D26*
%TO.P,U4,8,5VOUT*%
%TO.N,Net-(U4-5VOUT)*%
X148282353Y-100729412D03*
%TO.P,U4,9,MS1_AD0*%
%TO.N,MOT_M0*%
X148282353Y-100229412D03*
%TO.P,U4,10,MS2_AD1*%
%TO.N,MOT_M1*%
X148282353Y-99729412D03*
%TO.P,U4,11,DIAG*%
%TO.N,DIAG*%
X148282353Y-99229412D03*
%TO.P,U4,12,INDEX*%
%TO.N,INDEX*%
X148282353Y-98729412D03*
%TO.P,U4,13,CLK*%
%TO.N,GND*%
X148282353Y-98229412D03*
%TO.P,U4,14,~{PD}_UART*%
%TO.N,UART_RX*%
X148282353Y-97729412D03*
D25*
%TO.P,U4,15,VCC_IO*%
%TO.N,+3.3V*%
X147332353Y-96779412D03*
%TO.P,U4,16,STEP*%
%TO.N,STEP*%
X146832353Y-96779412D03*
%TO.P,U4,17,VREF*%
%TO.N,unconnected-(U4-VREF-Pad17)*%
X146332353Y-96779412D03*
%TO.P,U4,18,GND*%
%TO.N,GND*%
X145832353Y-96779412D03*
%TO.P,U4,19,DIR*%
%TO.N,DIR*%
X145332353Y-96779412D03*
%TO.P,U4,20,STDBY*%
%TO.N,Net-(U4-STDBY)*%
X144832353Y-96779412D03*
%TO.P,U4,21,OA2*%
%TO.N,MOTOR_A1*%
X144332353Y-96779412D03*
D26*
%TO.P,U4,22,VS*%
%TO.N,VCC*%
X143382353Y-97729412D03*
%TO.P,U4,23,BRA*%
%TO.N,/BRA*%
X143382353Y-98229412D03*
%TO.P,U4,24,OA1*%
%TO.N,MOTOR_B1*%
X143382353Y-98729412D03*
%TO.P,U4,25,NC*%
%TO.N,unconnected-(U4-NC-Pad25)*%
X143382353Y-99229412D03*
%TO.P,U4,26,OB1*%
%TO.N,MOTOR_A2*%
X143382353Y-99729412D03*
%TO.P,U4,27,BRB*%
%TO.N,/BRB*%
X143382353Y-100229412D03*
%TO.P,U4,28,VS*%
%TO.N,VCC*%
X143382353Y-100729412D03*
D27*
%TO.P,U4,29,EXP*%
%TO.N,GND*%
X144832353Y-100229412D03*
X145832353Y-100229412D03*
X146832353Y-100229412D03*
X144832353Y-99229412D03*
X145832353Y-99229412D03*
D28*
X145832353Y-99229412D03*
D27*
X146832353Y-99229412D03*
X144832353Y-98229412D03*
X145832353Y-98229412D03*
X146832353Y-98229412D03*
%TD*%
D29*
%TO.P,J6,1,Pin_1*%
%TO.N,GND*%
X162150000Y-106500000D03*
%TO.P,J6,2,Pin_2*%
%TO.N,PA01*%
X162150000Y-105500000D03*
%TO.P,J6,3,Pin_3*%
%TO.N,PA02*%
X162150000Y-104500000D03*
%TO.P,J6,4,Pin_4*%
%TO.N,PA03*%
X162150000Y-103500000D03*
%TO.P,J6,5,Pin_5*%
%TO.N,AUX1*%
X162150000Y-102500000D03*
%TO.P,J6,6,Pin_6*%
%TO.N,AUX2*%
X162150000Y-101500000D03*
%TO.P,J6,7,Pin_7*%
%TO.N,unconnected-(J6-Pin_7-Pad7)*%
X162150000Y-100500000D03*
%TO.P,J6,8,Pin_8*%
%TO.N,SDA1*%
X162150000Y-99500000D03*
%TO.P,J6,9,Pin_9*%
%TO.N,SCL1*%
X162150000Y-98500000D03*
%TO.P,J6,10,Pin_10*%
%TO.N,ETH_CS*%
X162150000Y-97500000D03*
%TO.P,J6,11,Pin_11*%
%TO.N,SCK*%
X162150000Y-96500000D03*
%TO.P,J6,12,Pin_12*%
%TO.N,MISO*%
X162150000Y-95500000D03*
%TO.P,J6,13,Pin_13*%
%TO.N,MOSI*%
X162150000Y-94500000D03*
%TO.P,J6,14,Pin_14*%
%TO.N,+3.3V*%
X162150000Y-93500000D03*
D30*
%TO.P,J6,MP*%
%TO.N,N/C*%
X164950000Y-109490000D03*
X164950000Y-90510000D03*
%TD*%
D31*
%TO.P,SW2,1,1*%
%TO.N,GND*%
X147400000Y-113900000D03*
X147400000Y-110700000D03*
%TO.P,SW2,2,2*%
%TO.N,User_Input*%
X149000000Y-113900000D03*
X149000000Y-110700000D03*
%TD*%
D32*
%TO.P,R12,1*%
%TO.N,+3.3V*%
X153850000Y-111010000D03*
%TO.P,R12,2*%
%TO.N,Net-(U5-~{HOLD})*%
X153850000Y-109990000D03*
%TD*%
D33*
%TO.P,J3,1*%
%TO.N,SCL2*%
X159500000Y-84300000D03*
D34*
%TO.P,J3,2*%
%TO.N,SDA2*%
X157500000Y-84300000D03*
%TO.P,J3,3*%
%TO.N,unconnected-(J3-Pad3)*%
X155500000Y-84300000D03*
%TO.P,J3,4*%
%TO.N,GND*%
X153500000Y-84300000D03*
%TD*%
D14*
%TO.P,J2,1*%
%TO.N,MOTOR_A1*%
X134432353Y-96229412D03*
D15*
%TO.P,J2,2*%
%TO.N,MOTOR_B1*%
X134432353Y-98229412D03*
%TO.P,J2,3*%
%TO.N,MOTOR_A2*%
X134432353Y-100229412D03*
%TO.P,J2,4*%
%TO.N,MOTOR_B2*%
X134432353Y-102229412D03*
%TD*%
D35*
%TO.P,C5,1*%
%TO.N,Net-(U4-5VOUT)*%
X148000000Y-103320000D03*
%TO.P,C5,2*%
%TO.N,GND*%
X148000000Y-104280000D03*
%TD*%
D36*
%TO.P,C8,1*%
%TO.N,VCC*%
X142262353Y-102129412D03*
%TO.P,C8,2*%
%TO.N,GND*%
X141302353Y-102129412D03*
%TD*%
D37*
%TO.P,R3,1*%
%TO.N,Net-(J1-CC2)*%
X149390000Y-84900000D03*
%TO.P,R3,2*%
%TO.N,GND*%
X150410000Y-84900000D03*
%TD*%
D38*
%TO.P,R11,1*%
%TO.N,+3.3V*%
X160000000Y-107990000D03*
%TO.P,R11,2*%
%TO.N,Net-(U5-~{WP})*%
X160000000Y-109010000D03*
%TD*%
D37*
%TO.P,R8,1*%
%TO.N,Net-(U4-STDBY)*%
X144772353Y-94929412D03*
%TO.P,R8,2*%
%TO.N,GND*%
X145792353Y-94929412D03*
%TD*%
D17*
%TO.P,R1,1*%
%TO.N,GND*%
X139110000Y-88800000D03*
%TO.P,R1,2*%
%TO.N,Net-(J1-SHIELD)*%
X138090000Y-88800000D03*
%TD*%
D31*
%TO.P,SW1,1,1*%
%TO.N,GND*%
X147400000Y-119700000D03*
X147400000Y-116500000D03*
%TO.P,SW1,2,2*%
%TO.N,Net-(R5-Pad1)*%
X149000000Y-119700000D03*
X149000000Y-116500000D03*
%TD*%
D39*
%TO.P,D1,1,K*%
%TO.N,VCC*%
X140650000Y-92200000D03*
%TO.P,D1,2,A*%
%TO.N,V_USB*%
X138550000Y-92200000D03*
%TD*%
D40*
%TO.P,C11,1*%
%TO.N,VCC*%
X143900000Y-108500000D03*
%TO.P,C11,2*%
%TO.N,GND*%
X138300000Y-108500000D03*
%TD*%
D37*
%TO.P,R2,1*%
%TO.N,Net-(J1-CC1)*%
X149390000Y-86000000D03*
%TO.P,R2,2*%
%TO.N,GND*%
X150410000Y-86000000D03*
%TD*%
D10*
%TO.P,C16,1*%
%TO.N,+3.3V*%
X152000000Y-103880000D03*
%TO.P,C16,2*%
%TO.N,GND*%
X152000000Y-102920000D03*
%TD*%
D17*
%TO.P,R4,1*%
%TO.N,SWCLK*%
X152310000Y-107000000D03*
%TO.P,R4,2*%
%TO.N,+3.3V*%
X151290000Y-107000000D03*
%TD*%
D35*
%TO.P,C12,1*%
%TO.N,+3.3V*%
X152000000Y-100320000D03*
%TO.P,C12,2*%
%TO.N,GND*%
X152000000Y-101280000D03*
%TD*%
D41*
%TO.P,C13,1*%
%TO.N,+3.3V*%
X148220000Y-93900000D03*
%TO.P,C13,2*%
%TO.N,GND*%
X149180000Y-93900000D03*
%TD*%
D38*
%TO.P,R13,1*%
%TO.N,+3.3V*%
X160000000Y-109990000D03*
%TO.P,R13,2*%
%TO.N,EEPROM_CS*%
X160000000Y-111010000D03*
%TD*%
D37*
%TO.P,R9,1*%
%TO.N,+3.3V*%
X147690000Y-106600000D03*
%TO.P,R9,2*%
%TO.N,User_Input*%
X148710000Y-106600000D03*
%TD*%
D42*
%TO.P,J1,A1,GND*%
%TO.N,GND*%
X146700000Y-87025000D03*
%TO.P,J1,A4,VBUS*%
%TO.N,V_USB*%
X145900000Y-87025000D03*
D43*
%TO.P,J1,A5,CC1*%
%TO.N,Net-(J1-CC1)*%
X144750000Y-87025000D03*
%TO.P,J1,A6,D+*%
%TO.N,D+*%
X143750000Y-87025000D03*
%TO.P,J1,A7,D-*%
%TO.N,D-*%
X143250000Y-87025000D03*
%TO.P,J1,A8,SBU1*%
%TO.N,unconnected-(J1-SBU1-PadA8)*%
X142250000Y-87025000D03*
D42*
%TO.P,J1,A9,VBUS*%
%TO.N,V_USB*%
X141100000Y-87025000D03*
%TO.P,J1,A12,GND*%
%TO.N,GND*%
X140300000Y-87025000D03*
%TO.P,J1,B1,GND*%
X140300000Y-87025000D03*
%TO.P,J1,B4,VBUS*%
%TO.N,V_USB*%
X141100000Y-87025000D03*
D43*
%TO.P,J1,B5,CC2*%
%TO.N,Net-(J1-CC2)*%
X141750000Y-87025000D03*
%TO.P,J1,B6,D+*%
%TO.N,D+*%
X142750000Y-87025000D03*
%TO.P,J1,B7,D-*%
%TO.N,D-*%
X144250000Y-87025000D03*
%TO.P,J1,B8,SBU2*%
%TO.N,unconnected-(J1-SBU2-PadB8)*%
X145250000Y-87025000D03*
D42*
%TO.P,J1,B9,VBUS*%
%TO.N,V_USB*%
X145900000Y-87025000D03*
%TO.P,J1,B12,GND*%
%TO.N,GND*%
X146700000Y-87025000D03*
D44*
%TO.P,J1,S1,SHIELD*%
%TO.N,Net-(J1-SHIELD)*%
X147820000Y-86425000D03*
D45*
X147820000Y-82225000D03*
D44*
X139180000Y-86425000D03*
D45*
X139180000Y-82225000D03*
%TD*%
D24*
%TO.P,C10,1*%
%TO.N,VCC*%
X142232353Y-103629412D03*
%TO.P,C10,2*%
%TO.N,GND*%
X140332353Y-103629412D03*
%TD*%
D35*
%TO.P,C17,1*%
%TO.N,GND*%
X160100000Y-88820000D03*
%TO.P,C17,2*%
%TO.N,Net-(U3-PA14{slash}SERCOM2_2{slash}SERCOM4_2)*%
X160100000Y-89780000D03*
%TD*%
D36*
%TO.P,C3,1*%
%TO.N,RESET*%
X148380000Y-115100000D03*
%TO.P,C3,2*%
%TO.N,GND*%
X147420000Y-115100000D03*
%TD*%
D46*
%TO.P,D2,1,A1*%
%TO.N,GND*%
X153112500Y-87100000D03*
%TO.P,D2,2,A2*%
%TO.N,SCL2*%
X154687500Y-87100000D03*
%TD*%
D17*
%TO.P,R7,1*%
%TO.N,UART_TX*%
X154410000Y-88800000D03*
%TO.P,R7,2*%
%TO.N,UART_RX*%
X153390000Y-88800000D03*
%TD*%
D47*
%TO.P,D5,1,K*%
%TO.N,Net-(D5-K)*%
X151200000Y-111287500D03*
%TO.P,D5,2,A*%
%TO.N,+3.3V*%
X151200000Y-109712500D03*
%TD*%
D17*
%TO.P,R5,1*%
%TO.N,Net-(R5-Pad1)*%
X151710000Y-113900000D03*
%TO.P,R5,2*%
%TO.N,RESET*%
X150690000Y-113900000D03*
%TD*%
D36*
%TO.P,C7,1*%
%TO.N,VCC*%
X142262353Y-96329412D03*
%TO.P,C7,2*%
%TO.N,GND*%
X141302353Y-96329412D03*
%TD*%
D48*
%TO.P,U5,1,~{CS}*%
%TO.N,EEPROM_CS*%
X158125000Y-110825000D03*
%TO.P,U5,2,MISO*%
%TO.N,MISO*%
X158125000Y-110325000D03*
%TO.P,U5,3,~{WP}*%
%TO.N,Net-(U5-~{WP})*%
X158125000Y-109825000D03*
%TO.P,U5,4,GND*%
%TO.N,GND*%
X158125000Y-109325000D03*
%TO.P,U5,5,MOSI*%
%TO.N,MOSI*%
X155225000Y-109325000D03*
%TO.P,U5,6,SCK*%
%TO.N,SCK*%
X155225000Y-109825000D03*
%TO.P,U5,7,~{HOLD}*%
%TO.N,Net-(U5-~{HOLD})*%
X155225000Y-110325000D03*
%TO.P,U5,8,VCC*%
%TO.N,+3.3V*%
X155225000Y-110825000D03*
D49*
%TO.P,U5,9,GND*%
%TO.N,GND*%
X156675000Y-110075000D03*
%TD*%
D10*
%TO.P,C15,1*%
%TO.N,+3.3V*%
X160100000Y-91780000D03*
%TO.P,C15,2*%
%TO.N,GND*%
X160100000Y-90820000D03*
%TD*%
D35*
%TO.P,C1,1*%
%TO.N,VCC*%
X146000000Y-110420000D03*
%TO.P,C1,2*%
%TO.N,GND*%
X146000000Y-111380000D03*
%TD*%
D46*
%TO.P,D4,1,A1*%
%TO.N,GND*%
X141612500Y-89000000D03*
%TO.P,D4,2,A2*%
%TO.N,D+*%
X143187500Y-89000000D03*
%TD*%
D35*
%TO.P,C18,1*%
%TO.N,GND*%
X155500000Y-88720000D03*
%TO.P,C18,2*%
%TO.N,Net-(U3-PA15{slash}SERCOM2_3{slash}SERCOM4_3)*%
X155500000Y-89680000D03*
%TD*%
D46*
%TO.P,D3,2,A2*%
%TO.N,SDA2*%
X158687500Y-87100000D03*
%TO.P,D3,1,A1*%
%TO.N,GND*%
X157112500Y-87100000D03*
%TD*%
D50*
%TO.P,D7,1,VDD*%
%TO.N,+3.3V*%
X130350000Y-89250000D03*
%TO.P,D7,2,DOUT*%
%TO.N,unconnected-(D7-DOUT-Pad2)*%
X130350000Y-92550000D03*
%TO.P,D7,3,VSS*%
%TO.N,GND*%
X135250000Y-92550000D03*
%TO.P,D7,4,DIN*%
%TO.N,NEOPIX*%
X135250000Y-89250000D03*
%TD*%
D51*
%TO.P,R14,1*%
%TO.N,/BRB*%
X138382353Y-101166912D03*
%TO.P,R14,2*%
%TO.N,GND*%
X138382353Y-104091912D03*
%TD*%
D37*
%TO.P,R10,1*%
%TO.N,Net-(D5-K)*%
X150690000Y-112800000D03*
%TO.P,R10,2*%
%TO.N,GND*%
X151710000Y-112800000D03*
%TD*%
D36*
%TO.P,C14,1*%
%TO.N,+3.3V*%
X159480000Y-100500000D03*
%TO.P,C14,2*%
%TO.N,GND*%
X158520000Y-100500000D03*
%TD*%
D52*
%TO.N,GND*%
X145400000Y-93800000D03*
%TO.N,+3.3V*%
X150800000Y-116200000D03*
%TO.N,RESET*%
X149800000Y-115100000D03*
%TO.N,GND*%
X152000500Y-110500000D03*
%TO.N,AUX2*%
X151800000Y-88600000D03*
X164800000Y-101400000D03*
D53*
%TO.N,AUX1*%
X164000000Y-102500000D03*
X159600000Y-92900000D03*
D52*
%TO.N,+3.3V*%
X140900000Y-115100000D03*
X149300000Y-104000000D03*
X161200000Y-109000000D03*
D53*
X164300000Y-93100000D03*
D52*
X160500000Y-101000000D03*
D53*
X151600000Y-108600000D03*
D52*
X151900000Y-104900000D03*
X155300000Y-111700000D03*
X161200000Y-91000000D03*
D53*
X146600000Y-106700000D03*
D52*
X147400000Y-93900000D03*
X141900000Y-115100000D03*
D53*
X130400000Y-90700000D03*
D52*
X141400000Y-115800000D03*
X140400000Y-115800000D03*
X147982353Y-97029412D03*
%TO.N,GND*%
X148900000Y-105100000D03*
X137900000Y-102500000D03*
X160000000Y-105500000D03*
X150400000Y-83800000D03*
X141700000Y-90400000D03*
X143700000Y-116000000D03*
X137900000Y-106300000D03*
X152000000Y-102100000D03*
X139400000Y-107000000D03*
X138400000Y-107000000D03*
X137100000Y-102500000D03*
X138700000Y-102500000D03*
X158400000Y-108400000D03*
X139100000Y-90000000D03*
X144800000Y-116000000D03*
X137082353Y-95929412D03*
D53*
X160100000Y-87500000D03*
D52*
X137882353Y-95929412D03*
X139100000Y-90800000D03*
X148400000Y-92900000D03*
X136782353Y-94429412D03*
X136800000Y-104000000D03*
X136782353Y-95229412D03*
X138682353Y-95929412D03*
X138900000Y-106300000D03*
X136800000Y-103200000D03*
X136900000Y-106300000D03*
X159800000Y-101700000D03*
X137400000Y-107000000D03*
X146200000Y-119000000D03*
X144200000Y-115300000D03*
%TO.N,VCC*%
X142200000Y-106600000D03*
X142200000Y-105700000D03*
X143200000Y-94100000D03*
X143900000Y-92900000D03*
X143100000Y-106600000D03*
X143000000Y-105700000D03*
X143200000Y-93300000D03*
X142182353Y-104829412D03*
X143200000Y-92500000D03*
X142982353Y-104829412D03*
X143900000Y-93700000D03*
X147300000Y-105100000D03*
%TO.N,RESET*%
X150595925Y-98073707D03*
D53*
%TO.N,V_USB*%
X146400000Y-88700000D03*
D52*
X140400000Y-88700000D03*
%TO.N,NEOPIX*%
X136900000Y-90700000D03*
X152100000Y-89949500D03*
D54*
%TO.N,MOTOR_A1*%
X143132353Y-95979412D03*
X143632353Y-96229412D03*
X143632353Y-96729412D03*
X143132353Y-96479412D03*
%TO.N,MOTOR_B2*%
X143132353Y-102479412D03*
X143132353Y-101979412D03*
X143632353Y-102229412D03*
X143632353Y-101729412D03*
D52*
%TO.N,UART_RX*%
X153000000Y-90300000D03*
X149246657Y-97649500D03*
D53*
%TO.N,User_Input*%
X157400000Y-91899500D03*
X150700000Y-108100000D03*
D52*
%TO.N,SCL1*%
X158900000Y-98600000D03*
%TO.N,SDA1*%
X160500000Y-99500000D03*
D53*
%TO.N,EEPROM_CS*%
X158980252Y-91480252D03*
D52*
X166900000Y-100900000D03*
%TO.N,EN*%
X159000000Y-105700000D03*
X151800000Y-105900000D03*
%TO.N,DIAG*%
X148600000Y-90300000D03*
X150700500Y-102200000D03*
%TO.N,MISO*%
X165700000Y-95700000D03*
X159137932Y-110225597D03*
%TO.N,SCK*%
X155050000Y-108450000D03*
X165500000Y-97100000D03*
%TO.N,MOSI*%
X165700000Y-94400000D03*
X156300000Y-108775498D03*
%TO.N,Spread*%
X151600000Y-91900000D03*
X147900000Y-102490500D03*
%TO.N,MOT_M1*%
X150700500Y-103194625D03*
X153699500Y-102400000D03*
%TO.N,MOT_M0*%
X153900000Y-104300000D03*
X150700000Y-104300000D03*
%TD*%
D55*
%TO.N,GND*%
X145792353Y-94192353D02*
X145400000Y-93800000D01*
X145792353Y-94929412D02*
X145792353Y-94192353D01*
%TO.N,+3.3V*%
X151710000Y-115290000D02*
X150800000Y-116200000D01*
X151710000Y-115000000D02*
X151710000Y-115290000D01*
%TO.N,Net-(R5-Pad1)*%
X152280000Y-116120000D02*
X152280000Y-114470000D01*
X149500000Y-117000000D02*
X151400000Y-117000000D01*
X152280000Y-114470000D02*
X151710000Y-113900000D01*
X149000000Y-116500000D02*
X149500000Y-117000000D01*
X151400000Y-117000000D02*
X152280000Y-116120000D01*
%TO.N,SWCLK*%
X156370000Y-115700000D02*
X157470000Y-114600000D01*
X152800000Y-115200000D02*
X153300000Y-115700000D01*
X152800000Y-112165685D02*
X152800000Y-115200000D01*
X152650000Y-112015685D02*
X152800000Y-112165685D01*
X153300000Y-115700000D02*
X156370000Y-115700000D01*
X152650000Y-99506854D02*
X152650000Y-112015685D01*
X153067068Y-99089786D02*
X152650000Y-99506854D01*
%TO.N,RESET*%
X149800000Y-115100000D02*
X150590000Y-115100000D01*
X150690000Y-113900000D02*
X150690000Y-115000000D01*
X150590000Y-115100000D02*
X150690000Y-115000000D01*
X148380000Y-115100000D02*
X149800000Y-115100000D01*
%TO.N,GND*%
X152000500Y-112509500D02*
X152000500Y-110500000D01*
X151710000Y-112800000D02*
X152000500Y-112509500D01*
D56*
%TO.N,Net-(D5-K)*%
X151200000Y-112290000D02*
X150690000Y-112800000D01*
X151200000Y-111287500D02*
X151200000Y-112290000D01*
D55*
%TO.N,GND*%
X154967417Y-95775223D02*
X154613864Y-95775223D01*
X157221320Y-93521320D02*
X154967417Y-95775223D01*
%TO.N,+3.3V*%
X146600000Y-106700000D02*
X147590000Y-106700000D01*
X147590000Y-106700000D02*
X147690000Y-106600000D01*
%TO.N,User_Input*%
X148710000Y-106600000D02*
X150210000Y-108100000D01*
D57*
X149000000Y-106890000D02*
X149000000Y-110700000D01*
X148710000Y-106600000D02*
X149000000Y-106890000D01*
D55*
X150210000Y-108100000D02*
X150700000Y-108100000D01*
%TO.N,DIAG*%
X150839576Y-93203016D02*
X151688104Y-93203016D01*
X151688104Y-93203016D02*
X152006408Y-93521320D01*
X148600000Y-90963440D02*
X150839576Y-93203016D01*
X148600000Y-90300000D02*
X148600000Y-90963440D01*
%TO.N,NEOPIX*%
X152100000Y-89949500D02*
X152100000Y-90786486D01*
X152100000Y-90786486D02*
X153420621Y-92107107D01*
%TO.N,AUX2*%
X150950000Y-89450000D02*
X151800000Y-88600000D01*
X150950000Y-90769239D02*
X150950000Y-89450000D01*
X151330761Y-91150000D02*
X150950000Y-90769239D01*
X153067068Y-92447829D02*
X151769239Y-91150000D01*
X151769239Y-91150000D02*
X151330761Y-91150000D01*
X153067068Y-92460660D02*
X153067068Y-92447829D01*
%TO.N,EEPROM_CS*%
X157861004Y-92599500D02*
X157436034Y-92599500D01*
X157436034Y-92599500D02*
X156867767Y-93167767D01*
X158980252Y-91480252D02*
X157861004Y-92599500D01*
%TO.N,AUX2*%
X164700000Y-101500000D02*
X164800000Y-101400000D01*
X162150000Y-101500000D02*
X164700000Y-101500000D01*
%TO.N,AUX1*%
X164000000Y-102500000D02*
X162150000Y-102500000D01*
X158281980Y-94581980D02*
X159600000Y-93263960D01*
X159600000Y-93263960D02*
X159600000Y-92900000D01*
D56*
%TO.N,+3.3V*%
X159480000Y-100380000D02*
X159480000Y-100500000D01*
D55*
X153960000Y-110900000D02*
X155200000Y-110900000D01*
X159669748Y-91780000D02*
X157574874Y-93874874D01*
X151350000Y-100970000D02*
X152000000Y-100320000D01*
X151600000Y-107310000D02*
X151600000Y-108600000D01*
X155100000Y-111700000D02*
X155300000Y-111700000D01*
X154000000Y-111700000D02*
X155100000Y-111700000D01*
X160100000Y-91780000D02*
X159669748Y-91780000D01*
X152000000Y-99449748D02*
X152274874Y-99174874D01*
X152000000Y-103880000D02*
X151350000Y-103230000D01*
D56*
X151200000Y-109712500D02*
X151200000Y-109000000D01*
D55*
X153850000Y-111010000D02*
X153850000Y-111550000D01*
X151334550Y-98400250D02*
X152109174Y-99174874D01*
X151652854Y-97675572D02*
X151334550Y-97993876D01*
X151350000Y-103230000D02*
X151350000Y-100970000D01*
D56*
X160500000Y-101000000D02*
X160355378Y-100849500D01*
D55*
X161000000Y-108800000D02*
X161000000Y-108695000D01*
X151800000Y-105000000D02*
X151900000Y-104900000D01*
X149120000Y-94800000D02*
X149749554Y-94800000D01*
D57*
X141700000Y-119650000D02*
X141700000Y-118260000D01*
D55*
X160295000Y-107990000D02*
X160000000Y-107990000D01*
X148220000Y-93900000D02*
X149120000Y-94800000D01*
X160420000Y-91780000D02*
X161200000Y-91000000D01*
D57*
X162150000Y-93500000D02*
X163900000Y-93500000D01*
D55*
X161000000Y-108695000D02*
X160295000Y-107990000D01*
X151800000Y-104900000D02*
X151800000Y-105000000D01*
X152109174Y-99174874D02*
X152274874Y-99174874D01*
X161000000Y-109300000D02*
X161000000Y-109200000D01*
X161200000Y-109000000D02*
X161000000Y-108800000D01*
D57*
X163900000Y-93500000D02*
X164300000Y-93100000D01*
D55*
X153850000Y-111010000D02*
X153960000Y-110900000D01*
D56*
X159480000Y-100500000D02*
X160005878Y-100500000D01*
X158350088Y-99865000D02*
X158965000Y-99865000D01*
D55*
X160000000Y-109990000D02*
X160310000Y-109990000D01*
X149749554Y-94800000D02*
X150238641Y-95289087D01*
X155100000Y-111700000D02*
X155100000Y-111700000D01*
D56*
X151200000Y-109000000D02*
X151600000Y-108600000D01*
D55*
X152000000Y-103880000D02*
X152000000Y-104800000D01*
X155300000Y-111700000D02*
X155300000Y-111500000D01*
X152000000Y-104800000D02*
X151900000Y-104900000D01*
X155300000Y-111500000D02*
X155200000Y-111600000D01*
D56*
X156867767Y-98382679D02*
X158350088Y-99865000D01*
D55*
X151290000Y-107000000D02*
X151600000Y-107310000D01*
X151334550Y-97993876D02*
X151334550Y-98400250D01*
D57*
X142780000Y-117180000D02*
X141400000Y-115800000D01*
D56*
X158965000Y-99865000D02*
X159480000Y-100380000D01*
D57*
X146000000Y-117180000D02*
X142780000Y-117180000D01*
D55*
X160310000Y-109990000D02*
X161000000Y-109300000D01*
X153850000Y-111550000D02*
X154000000Y-111700000D01*
X155200000Y-110900000D02*
X155225000Y-110875000D01*
D57*
X147982353Y-97029412D02*
X147732353Y-96779412D01*
D55*
X147400000Y-93900000D02*
X148220000Y-93900000D01*
D56*
X160005878Y-100500000D02*
X160500000Y-101000000D01*
D57*
X141700000Y-118260000D02*
X142780000Y-117180000D01*
D55*
X151900000Y-104900000D02*
X151800000Y-104900000D01*
X152274874Y-99174874D02*
X152713515Y-98736233D01*
X130350000Y-90650000D02*
X130400000Y-90700000D01*
D57*
X147732353Y-96779412D02*
X147357353Y-96779412D01*
D55*
X152000000Y-100320000D02*
X152000000Y-99449748D01*
X160100000Y-91780000D02*
X160420000Y-91780000D01*
X130350000Y-89250000D02*
X130350000Y-90650000D01*
X161000000Y-109200000D02*
X161200000Y-109000000D01*
D56*
%TO.N,GND*%
X161000000Y-106500000D02*
X160000000Y-105500000D01*
D55*
X149180000Y-93900000D02*
X149556660Y-93900000D01*
X150410000Y-88077500D02*
X149487500Y-89000000D01*
D57*
X155500000Y-88720000D02*
X155500000Y-88350000D01*
X147120000Y-116220000D02*
X147400000Y-115940000D01*
X146700000Y-87025000D02*
X146700000Y-87700000D01*
D55*
X149180000Y-93900000D02*
X149180000Y-93680000D01*
D56*
X158520000Y-100507609D02*
X159632332Y-101619941D01*
D55*
X150410000Y-86000000D02*
X150410000Y-88077500D01*
D57*
X145970000Y-111380000D02*
X144000000Y-113350000D01*
D55*
X154600000Y-95900000D02*
X154613864Y-95775223D01*
D56*
X159600000Y-101619941D02*
X159800000Y-101700000D01*
D57*
X139100000Y-89700000D02*
X139100000Y-90000000D01*
X139100000Y-90000000D02*
X139100000Y-90800000D01*
X139110000Y-88800000D02*
X139100000Y-88810000D01*
D55*
X152006408Y-98029126D02*
X154260311Y-95775223D01*
D56*
X159760118Y-101619941D02*
X159680059Y-101619941D01*
D55*
X160900000Y-90200000D02*
X160900000Y-89400000D01*
X138000000Y-108800000D02*
X138200000Y-109000000D01*
D57*
X160100000Y-88820000D02*
X160100000Y-87500000D01*
D55*
X145332353Y-100729412D02*
X145832353Y-100229412D01*
D57*
X146900000Y-119700000D02*
X146200000Y-119000000D01*
X146000000Y-116220000D02*
X147120000Y-116220000D01*
X153112500Y-87100000D02*
X153987500Y-87975000D01*
X140300000Y-87610000D02*
X140300000Y-87025000D01*
D55*
X149556660Y-93900000D02*
X150592194Y-94935534D01*
X148282353Y-98229412D02*
X146832353Y-98229412D01*
D57*
X147400000Y-115940000D02*
X147400000Y-113900000D01*
X148612500Y-88125000D02*
X149487500Y-89000000D01*
D55*
X160280000Y-90820000D02*
X160900000Y-90200000D01*
D57*
X141612500Y-89000000D02*
X141612500Y-90312500D01*
D55*
X150410000Y-83810000D02*
X150410000Y-86000000D01*
X135250000Y-92550000D02*
X136782353Y-94082353D01*
D57*
X147120000Y-116220000D02*
X147400000Y-116500000D01*
D55*
X160900000Y-89400000D02*
X160320000Y-88820000D01*
D57*
X156675000Y-110075000D02*
X156675000Y-109950000D01*
X146700000Y-87700000D02*
X147125000Y-88125000D01*
X154755000Y-87975000D02*
X155500000Y-88720000D01*
X157425000Y-109200000D02*
X158400000Y-109200000D01*
X158400000Y-109200000D02*
X158400000Y-108400000D01*
D55*
X151431883Y-95775223D02*
X154613864Y-95775223D01*
X148000000Y-104280000D02*
X148080000Y-104280000D01*
X160320000Y-88820000D02*
X160100000Y-88820000D01*
X152000000Y-102100000D02*
X152000000Y-101280000D01*
D56*
X158520000Y-100500000D02*
X158277980Y-100500000D01*
D55*
X154260311Y-95775223D02*
X154600000Y-95900000D01*
D57*
X153112500Y-84687500D02*
X153500000Y-84300000D01*
X147400000Y-119700000D02*
X146900000Y-119700000D01*
D56*
X159632332Y-101619941D02*
X159600000Y-101619941D01*
D57*
X153112500Y-87100000D02*
X153112500Y-84687500D01*
D55*
X152000000Y-103020000D02*
X152000000Y-102100000D01*
D57*
X156750000Y-87100000D02*
X157112500Y-87100000D01*
D55*
X145832353Y-96779412D02*
X145832353Y-98229412D01*
X145332353Y-101679412D02*
X145332353Y-100729412D01*
X150592194Y-94935534D02*
X151431883Y-95775223D01*
D57*
X147125000Y-88125000D02*
X148612500Y-88125000D01*
D56*
X158277980Y-100500000D02*
X156514213Y-98736233D01*
D57*
X155500000Y-88350000D02*
X156750000Y-87100000D01*
D55*
X149180000Y-93680000D02*
X148400000Y-92900000D01*
D57*
X153987500Y-87975000D02*
X154755000Y-87975000D01*
D56*
X159800000Y-101700000D02*
X159760118Y-101619941D01*
D57*
X141612500Y-90312500D02*
X141700000Y-90400000D01*
D55*
X160100000Y-90820000D02*
X160280000Y-90820000D01*
X148080000Y-104280000D02*
X148900000Y-105100000D01*
D57*
X146720000Y-111380000D02*
X147400000Y-110700000D01*
D55*
X136782353Y-94082353D02*
X136782353Y-94429412D01*
D57*
X158400000Y-108400000D02*
X158400000Y-108399500D01*
X139100000Y-88810000D02*
X139100000Y-89700000D01*
D56*
X162150000Y-106500000D02*
X161000000Y-106500000D01*
D57*
X139110000Y-88800000D02*
X140300000Y-87610000D01*
X156675000Y-109950000D02*
X157425000Y-109200000D01*
X146000000Y-111380000D02*
X145970000Y-111380000D01*
D56*
X158520000Y-100500000D02*
X158520000Y-100507609D01*
D57*
X146000000Y-111380000D02*
X146720000Y-111380000D01*
%TO.N,VCC*%
X144900000Y-108500000D02*
X146000000Y-109600000D01*
X143900000Y-108500000D02*
X144900000Y-108500000D01*
X142900000Y-92500000D02*
X143200000Y-92500000D01*
D55*
X147300000Y-105027059D02*
X146582353Y-104309412D01*
D57*
X140650000Y-92200000D02*
X142600000Y-92200000D01*
X143200000Y-92500000D02*
X143200000Y-92800000D01*
D55*
X147300000Y-105100000D02*
X147300000Y-105027059D01*
D57*
X143200000Y-92800000D02*
X143200000Y-92800000D01*
X146000000Y-109600000D02*
X146000000Y-110420000D01*
X142600000Y-92200000D02*
X142900000Y-92500000D01*
X143200000Y-92800000D02*
X143200000Y-93300000D01*
X143200000Y-93300000D02*
X143200000Y-93200000D01*
D55*
%TO.N,Net-(U4-CPI)*%
X145182353Y-104281666D02*
X145792353Y-103671666D01*
X145792353Y-103671666D02*
X145792353Y-102719412D01*
X145182353Y-104309412D02*
X145182353Y-104281666D01*
X146332353Y-102179412D02*
X146332353Y-101679412D01*
X145792353Y-102719412D02*
X146332353Y-102179412D01*
%TO.N,Net-(U4-CPO)*%
X145545005Y-102379412D02*
X145532353Y-102379412D01*
X145182353Y-103349412D02*
X145282353Y-103449412D01*
X145832353Y-102092064D02*
X145545005Y-102379412D01*
X145182353Y-102729412D02*
X145182353Y-103349412D01*
X145532353Y-102379412D02*
X145182353Y-102729412D01*
X145832353Y-101679412D02*
X145832353Y-102092064D01*
%TO.N,Net-(U4-5VOUT)*%
X148700000Y-101147059D02*
X148700000Y-102620000D01*
X148282353Y-100729412D02*
X148700000Y-101147059D01*
X148700000Y-102620000D02*
X148000000Y-103320000D01*
%TO.N,RESET*%
X150595925Y-98073707D02*
X150595925Y-98025395D01*
X150595925Y-98025395D02*
X151299301Y-97322019D01*
%TO.N,Net-(U4-VCP)*%
X146582353Y-102495098D02*
X146582353Y-103349412D01*
X146832353Y-102245098D02*
X146582353Y-102495098D01*
X146832353Y-101679412D02*
X146832353Y-102245098D01*
%TO.N,SCL2*%
X158989087Y-95289087D02*
X160700000Y-93578174D01*
D56*
X158200000Y-83000000D02*
X159500000Y-84300000D01*
X154687500Y-87100000D02*
X156500000Y-85287500D01*
X157000000Y-83000000D02*
X158200000Y-83000000D01*
D55*
X162400000Y-91345000D02*
X162400000Y-87200000D01*
X160700000Y-93578174D02*
X160700000Y-93045000D01*
D56*
X156500000Y-85287500D02*
X156500000Y-83500000D01*
D55*
X160700000Y-93045000D02*
X162400000Y-91345000D01*
D56*
X156500000Y-83500000D02*
X157000000Y-83000000D01*
D55*
X162400000Y-87200000D02*
X159500000Y-84300000D01*
D56*
%TO.N,SDA2*%
X158687500Y-87100000D02*
X158687500Y-85487500D01*
D55*
X158800000Y-85600000D02*
X158200000Y-85000000D01*
X160300000Y-92879314D02*
X162000000Y-91179314D01*
X162000000Y-91179314D02*
X162000000Y-87400000D01*
D56*
X158687500Y-85487500D02*
X158200000Y-85000000D01*
D55*
X160300000Y-93271068D02*
X160300000Y-92879314D01*
X158200000Y-85000000D02*
X157500000Y-84300000D01*
X158635534Y-94935534D02*
X160300000Y-93271068D01*
X160200000Y-85600000D02*
X158800000Y-85600000D01*
X162000000Y-87400000D02*
X160200000Y-85600000D01*
D57*
%TO.N,V_USB*%
X141100000Y-87800000D02*
X140400000Y-88500000D01*
X145900000Y-87025000D02*
X145900000Y-88200000D01*
X140400000Y-88500000D02*
X140400000Y-88700000D01*
X140400000Y-88800000D02*
X140400000Y-90900000D01*
X140400000Y-88700000D02*
X140400000Y-88800000D01*
X141100000Y-87025000D02*
X141100000Y-87800000D01*
X139100000Y-92200000D02*
X138550000Y-92200000D01*
X145900000Y-88200000D02*
X146400000Y-88700000D01*
X140400000Y-90900000D02*
X139100000Y-92200000D01*
D55*
%TO.N,Net-(U3-PA14{slash}SERCOM2_2{slash}SERCOM4_2)*%
X155453553Y-91753553D02*
X156007106Y-91200000D01*
X159000000Y-89800000D02*
X160080000Y-89800000D01*
X157600000Y-91200000D02*
X159000000Y-89800000D01*
X160080000Y-89800000D02*
X160100000Y-89780000D01*
X156007106Y-91200000D02*
X157600000Y-91200000D01*
%TO.N,Net-(U3-PA15{slash}SERCOM2_3{slash}SERCOM4_3)*%
X155500000Y-89680000D02*
X156020000Y-90200000D01*
X156525000Y-90200000D02*
X156925000Y-89800000D01*
X155500000Y-91000000D02*
X155500000Y-89680000D01*
X155100000Y-91400000D02*
X155500000Y-91000000D01*
X156020000Y-90200000D02*
X156525000Y-90200000D01*
%TO.N,D+*%
X142900000Y-87960685D02*
X143750000Y-87960685D01*
X150945748Y-94475914D02*
X146369834Y-89900000D01*
X150945748Y-94581980D02*
X150945748Y-94475914D01*
X142815685Y-87960685D02*
X142900000Y-87960685D01*
X145689315Y-89900000D02*
X143750000Y-87960685D01*
X142750000Y-87895000D02*
X142815685Y-87960685D01*
X143087500Y-88148185D02*
X142900000Y-87960685D01*
X146369834Y-89900000D02*
X145689315Y-89900000D01*
X143087500Y-89000000D02*
X143087500Y-88148185D01*
X142750000Y-87025000D02*
X142750000Y-87895000D01*
X143750000Y-87960685D02*
X143750000Y-87025000D01*
%TO.N,D-*%
X147912500Y-89000000D02*
X147412500Y-89500000D01*
X146200000Y-89500000D02*
X145855001Y-89500000D01*
X143405000Y-86000000D02*
X143250000Y-86155000D01*
X144250000Y-87025000D02*
X144250000Y-86155000D01*
X144250000Y-86155000D02*
X144095000Y-86000000D01*
X147412500Y-89500000D02*
X146200000Y-89500000D01*
X143250000Y-86155000D02*
X143250000Y-87025000D01*
X145855001Y-89500000D02*
X144250000Y-87895000D01*
X144250000Y-87895000D02*
X144250000Y-87025000D01*
X146200000Y-89500000D02*
X146570874Y-89500000D01*
X146570874Y-89500000D02*
X151299301Y-94228427D01*
X144095000Y-86000000D02*
X143405000Y-86000000D01*
%TO.N,NEOPIX*%
X136700000Y-90700000D02*
X136900000Y-90700000D01*
X135250000Y-89250000D02*
X136700000Y-90700000D01*
%TO.N,Net-(J1-CC1)*%
X144750000Y-84650000D02*
X144750000Y-87025000D01*
X149390000Y-86000000D02*
X147290000Y-83900000D01*
X147290000Y-83900000D02*
X145500000Y-83900000D01*
X145500000Y-83900000D02*
X144750000Y-84650000D01*
%TO.N,Net-(J1-CC2)*%
X147990000Y-83500000D02*
X143900000Y-83500000D01*
X149390000Y-84900000D02*
X147990000Y-83500000D01*
X143900000Y-83500000D02*
X141750000Y-85650000D01*
X141750000Y-85650000D02*
X141750000Y-87025000D01*
D57*
%TO.N,Net-(J1-SHIELD)*%
X138090000Y-87515000D02*
X138090000Y-88800000D01*
X139180000Y-86425000D02*
X138090000Y-87515000D01*
D58*
%TO.N,MOTOR_B1*%
X135732353Y-98629412D02*
X141582353Y-98629412D01*
X134332353Y-98229412D02*
X135332353Y-98229412D01*
X135332353Y-98229412D02*
X135732353Y-98629412D01*
%TO.N,MOTOR_A2*%
X135732353Y-99829412D02*
X141582353Y-99829412D01*
X135332353Y-100229412D02*
X135732353Y-99829412D01*
X135332353Y-100229412D02*
X134332353Y-100229412D01*
D55*
%TO.N,SWDIO*%
X153600000Y-112400000D02*
X159500000Y-112400000D01*
X153050000Y-99813960D02*
X153050000Y-111850000D01*
X153420621Y-99443339D02*
X153050000Y-99813960D01*
X160000000Y-114047106D02*
X159447106Y-114600000D01*
X159447106Y-114600000D02*
X158740000Y-114600000D01*
X160000000Y-112900000D02*
X160000000Y-114047106D01*
X159500000Y-112400000D02*
X160000000Y-112900000D01*
X153050000Y-111850000D02*
X153600000Y-112400000D01*
%TO.N,SWCLK*%
X157905000Y-114795000D02*
X157250000Y-114795000D01*
%TO.N,Net-(U4-STDBY)*%
X144832353Y-94989412D02*
X144772353Y-94929412D01*
X144832353Y-96779412D02*
X144832353Y-94989412D01*
%TO.N,Net-(U5-~{WP})*%
X159434290Y-109010000D02*
X160000000Y-109010000D01*
X158125000Y-109825000D02*
X158619290Y-109825000D01*
X158619290Y-109825000D02*
X159434290Y-109010000D01*
%TO.N,Net-(R5-Pad1)*%
X149000000Y-116500000D02*
X149000000Y-119700000D01*
%TO.N,UART_TX*%
X153800000Y-89410000D02*
X153800000Y-91072272D01*
X154410000Y-88800000D02*
X153800000Y-89410000D01*
X153800000Y-91072272D02*
X154127728Y-91400000D01*
%TO.N,UART_RX*%
X149246657Y-97649500D02*
X149166745Y-97729412D01*
X148382353Y-97729412D02*
X148282353Y-97729412D01*
X153000000Y-89190000D02*
X153390000Y-88800000D01*
X149166745Y-97729412D02*
X148282353Y-97729412D01*
X153000000Y-90300000D02*
X153000000Y-89190000D01*
X153000000Y-90979378D02*
X153000000Y-90300000D01*
X153774175Y-91753553D02*
X153000000Y-90979378D01*
%TO.N,Net-(U5-~{HOLD})*%
X154235000Y-110375000D02*
X155225000Y-110375000D01*
X153850000Y-109990000D02*
X154235000Y-110375000D01*
%TO.N,User_Input*%
X155807107Y-92107107D02*
X156125412Y-91788802D01*
X156125412Y-91788802D02*
X157289302Y-91788802D01*
X157289302Y-91788802D02*
X157400000Y-91899500D01*
D57*
X149000000Y-110700000D02*
X149000000Y-113900000D01*
D55*
%TO.N,SCL1*%
X158900000Y-98600000D02*
X158499302Y-98600000D01*
X159000000Y-98500000D02*
X162150000Y-98500000D01*
X158900000Y-98600000D02*
X159000000Y-98500000D01*
X158499302Y-98600000D02*
X157574874Y-97675572D01*
%TO.N,SDA1*%
X159300000Y-99500000D02*
X159100000Y-99300000D01*
X158492194Y-99300000D02*
X157221320Y-98029126D01*
X159100000Y-99300000D02*
X158492194Y-99300000D01*
X160500000Y-99500000D02*
X159300000Y-99500000D01*
X160500000Y-99500000D02*
X162150000Y-99500000D01*
%TO.N,EEPROM_CS*%
X166900000Y-100800000D02*
X166900000Y-100900000D01*
X158350000Y-111100000D02*
X159910000Y-111100000D01*
X167300000Y-111600000D02*
X160590000Y-111600000D01*
X159910000Y-111100000D02*
X160000000Y-111010000D01*
X166900000Y-103800000D02*
X168400000Y-105300000D01*
X160590000Y-111600000D02*
X160000000Y-111010000D01*
X158125000Y-110875000D02*
X158350000Y-111100000D01*
X168400000Y-105300000D02*
X168400000Y-110500000D01*
X168400000Y-110500000D02*
X167300000Y-111600000D01*
X166900000Y-100900000D02*
X166900000Y-103800000D01*
%TO.N,EN*%
X159000000Y-105700000D02*
X159000000Y-104050446D01*
X159000000Y-104050446D02*
X155100000Y-100150446D01*
X144782353Y-101729412D02*
X144782353Y-102617647D01*
X144572353Y-104631666D02*
X145840687Y-105900000D01*
X144832353Y-101679412D02*
X144782353Y-101729412D01*
X144782353Y-102617647D02*
X144572353Y-102827647D01*
X145840687Y-105900000D02*
X151800000Y-105900000D01*
X144572353Y-102827647D02*
X144572353Y-104631666D01*
%TO.N,DIAG*%
X148282353Y-99229412D02*
X148929412Y-99229412D01*
X150900000Y-101200000D02*
X150900000Y-102000500D01*
X148929412Y-99229412D02*
X150900000Y-101200000D01*
X150900000Y-102000500D02*
X150700500Y-102200000D01*
%TO.N,INDEX*%
X150000000Y-97815396D02*
X149085984Y-98729412D01*
X150472792Y-97300000D02*
X150372792Y-97400000D01*
X149085984Y-98729412D02*
X148282353Y-98729412D01*
X150000000Y-97700000D02*
X150000000Y-97815396D01*
X150945748Y-96968466D02*
X150614214Y-97300000D01*
X150372792Y-97400000D02*
X150300000Y-97400000D01*
X150300000Y-97400000D02*
X150000000Y-97700000D01*
X150614214Y-97300000D02*
X150472792Y-97300000D01*
%TO.N,STEP*%
X146832353Y-96366760D02*
X146832353Y-96779412D01*
X149059620Y-97000000D02*
X148059620Y-96000000D01*
X148059620Y-96000000D02*
X147199113Y-96000000D01*
X147199113Y-96000000D02*
X146832353Y-96366760D01*
X150207106Y-97000000D02*
X149059620Y-97000000D01*
X150592194Y-96614912D02*
X150207106Y-97000000D01*
%TO.N,DIR*%
X150238641Y-96261359D02*
X150238641Y-96238641D01*
X146199113Y-95500000D02*
X145332353Y-96366760D01*
X145332353Y-96366760D02*
X145332353Y-96779412D01*
X149500000Y-95500000D02*
X146199113Y-95500000D01*
X150238641Y-96238641D02*
X149500000Y-95500000D01*
%TO.N,MISO*%
X159516783Y-96933217D02*
X158953839Y-96933217D01*
X159137932Y-110225597D02*
X158988529Y-110375000D01*
X158988529Y-110375000D02*
X158125000Y-110375000D01*
X162150000Y-95500000D02*
X160950000Y-95500000D01*
X160950000Y-95500000D02*
X159516783Y-96933217D01*
X165500000Y-95500000D02*
X162150000Y-95500000D01*
X165700000Y-95700000D02*
X165500000Y-95500000D01*
X158953839Y-96933217D02*
X158635534Y-96614912D01*
%TO.N,SCK*%
X154600000Y-109825000D02*
X155225000Y-109825000D01*
X164900000Y-96500000D02*
X162150000Y-96500000D01*
X165500000Y-97100000D02*
X164900000Y-96500000D01*
X154550000Y-108950000D02*
X154550000Y-109775000D01*
X158646731Y-97333217D02*
X159682469Y-97333217D01*
X155050000Y-108450000D02*
X154550000Y-108950000D01*
X158281980Y-96968466D02*
X158646731Y-97333217D01*
X160515686Y-96500000D02*
X162150000Y-96500000D01*
X159682469Y-97333217D02*
X160515686Y-96500000D01*
X154550000Y-109775000D02*
X154600000Y-109825000D01*
%TO.N,MOSI*%
X165700000Y-94400000D02*
X165600000Y-94500000D01*
X155774502Y-108775498D02*
X155225000Y-109325000D01*
X158989087Y-96261359D02*
X160750446Y-94500000D01*
X165600000Y-94500000D02*
X162150000Y-94500000D01*
X160750446Y-94500000D02*
X162150000Y-94500000D01*
X156300000Y-108775498D02*
X155774502Y-108775498D01*
%TO.N,ETH_CS*%
X160081371Y-97500000D02*
X159848154Y-97733217D01*
X158339625Y-97733217D02*
X157928427Y-97322019D01*
X162150000Y-97500000D02*
X160081371Y-97500000D01*
X159848154Y-97733217D02*
X158339625Y-97733217D01*
%TO.N,Spread*%
X151600000Y-91900000D02*
X151799302Y-91900000D01*
X147332353Y-101922853D02*
X147332353Y-101679412D01*
X147900000Y-102490500D02*
X147332353Y-101922853D01*
X151799302Y-91900000D02*
X152713515Y-92814213D01*
%TO.N,MOT_M1*%
X153455870Y-102156370D02*
X153699500Y-102400000D01*
X150700500Y-103194625D02*
X150050500Y-102544625D01*
X148829412Y-99729412D02*
X148282353Y-99729412D01*
X150050500Y-102544625D02*
X150050500Y-100950500D01*
X153455870Y-100115198D02*
X153455870Y-102156370D01*
X153774175Y-99796893D02*
X153455870Y-100115198D01*
X150050500Y-100950500D02*
X148829412Y-99729412D01*
%TO.N,MOT_M0*%
X149650500Y-103250500D02*
X150700000Y-104300000D01*
X148695005Y-100229412D02*
X149650500Y-101184907D01*
X148282353Y-100229412D02*
X148695005Y-100229412D01*
X154349500Y-100372218D02*
X154127728Y-100150446D01*
X153900000Y-104300000D02*
X154349500Y-103850500D01*
X154349500Y-103850500D02*
X154349500Y-100372218D01*
X149650500Y-101184907D02*
X149650500Y-103250500D01*
%TO.N,PA01*%
X155453553Y-99796893D02*
X161156660Y-105500000D01*
X161156660Y-105500000D02*
X162150000Y-105500000D01*
%TO.N,PA02*%
X155807107Y-99443339D02*
X160863768Y-104500000D01*
X160863768Y-104500000D02*
X162150000Y-104500000D01*
%TO.N,PA03*%
X156160660Y-99089786D02*
X160570874Y-103500000D01*
X160570874Y-103500000D02*
X162150000Y-103500000D01*
%TD*%
%TA.AperFunction,Conductor*%
%TO.N,GND*%
G36*
X144643039Y-112419685D02*
G01*
X144688794Y-112472489D01*
X144700000Y-112524000D01*
X144700000Y-115200000D01*
X146206075Y-115576518D01*
X146266338Y-115611875D01*
X146297920Y-115674199D01*
X146300000Y-115696816D01*
X146300000Y-116276000D01*
X146280315Y-116343039D01*
X146227511Y-116388794D01*
X146176000Y-116400000D01*
X143424000Y-116400000D01*
X143356961Y-116380315D01*
X143311206Y-116327511D01*
X143300000Y-116276000D01*
X143300000Y-112524000D01*
X143319685Y-112456961D01*
X143372489Y-112411206D01*
X143424000Y-112400000D01*
X144576000Y-112400000D01*
X144643039Y-112419685D01*
G37*
%TD.AperFunction*%
%TD*%
%TA.AperFunction,Conductor*%
%TO.N,+3.3V*%
G36*
X142343039Y-112419685D02*
G01*
X142388794Y-112472489D01*
X142400000Y-112524000D01*
X142400000Y-116276000D01*
X142380315Y-116343039D01*
X142327511Y-116388794D01*
X142276000Y-116400000D01*
X140024000Y-116400000D01*
X139956961Y-116380315D01*
X139911206Y-116327511D01*
X139900000Y-116276000D01*
X139900000Y-114786852D01*
X139919685Y-114719813D01*
X139972489Y-114674058D01*
X139981612Y-114670322D01*
X141000000Y-114300000D01*
X141000000Y-112524000D01*
X141019685Y-112456961D01*
X141072489Y-112411206D01*
X141124000Y-112400000D01*
X142276000Y-112400000D01*
X142343039Y-112419685D01*
G37*
%TD.AperFunction*%
%TD*%
%TA.AperFunction,Conductor*%
%TO.N,MOTOR_B2*%
G36*
X144378203Y-101235304D02*
G01*
X144428551Y-101283748D01*
X144444883Y-101345260D01*
X144444883Y-102032327D01*
X144425198Y-102099366D01*
X144375674Y-102143565D01*
X143279961Y-102683267D01*
X143226943Y-102696016D01*
X143165564Y-102696893D01*
X143165559Y-102696894D01*
X143151743Y-102699082D01*
X143112952Y-102699081D01*
X143082923Y-102694325D01*
X143046027Y-102682338D01*
X143029309Y-102673820D01*
X143018924Y-102668528D01*
X142987538Y-102645724D01*
X142976788Y-102634974D01*
X142966038Y-102624224D01*
X142943238Y-102592843D01*
X142929429Y-102565743D01*
X142917439Y-102528843D01*
X142912681Y-102498805D01*
X142912681Y-102460016D01*
X142917438Y-102429979D01*
X142929428Y-102393079D01*
X142936603Y-102379000D01*
X142950677Y-102343600D01*
X142963572Y-102299683D01*
X142964820Y-102295248D01*
X142968366Y-102203861D01*
X142955471Y-102135192D01*
X142936604Y-102079825D01*
X142929426Y-102065737D01*
X142917438Y-102028846D01*
X142912680Y-101998801D01*
X142912680Y-101960021D01*
X142920454Y-101910933D01*
X142922393Y-101902529D01*
X142936453Y-101856473D01*
X142936932Y-101854905D01*
X142937619Y-101852607D01*
X142938591Y-101836484D01*
X142962273Y-101770751D01*
X143004015Y-101734535D01*
X143872750Y-101271278D01*
X143919860Y-101257205D01*
X144309657Y-101221769D01*
X144378203Y-101235304D01*
G37*
%TD.AperFunction*%
%TD*%
%TA.AperFunction,Conductor*%
%TO.N,GND*%
G36*
X141543039Y-101819685D02*
G01*
X141588794Y-101872489D01*
X141600000Y-101924000D01*
X141600000Y-102374548D01*
X141589974Y-102423394D01*
X140732209Y-104424846D01*
X140687708Y-104478711D01*
X140621150Y-104499966D01*
X140618235Y-104500000D01*
X139200000Y-104500000D01*
X136524000Y-104500000D01*
X136456961Y-104480315D01*
X136411206Y-104427511D01*
X136400000Y-104376000D01*
X136400000Y-102224000D01*
X136419685Y-102156961D01*
X136472489Y-102111206D01*
X136524000Y-102100000D01*
X139900000Y-102100000D01*
X141085192Y-101803702D01*
X141115266Y-101800000D01*
X141476000Y-101800000D01*
X141543039Y-101819685D01*
G37*
%TD.AperFunction*%
%TD*%
%TA.AperFunction,Conductor*%
%TO.N,/BRA*%
G36*
X140249863Y-96633113D02*
G01*
X141023811Y-96826601D01*
X141023822Y-96826603D01*
X141023826Y-96826604D01*
X141023823Y-96826604D01*
X141030633Y-96827868D01*
X141036190Y-96828901D01*
X141076671Y-96833884D01*
X141122452Y-96839912D01*
X141160558Y-96839911D01*
X141227595Y-96859594D01*
X141229341Y-96860737D01*
X142472350Y-97689410D01*
X142495320Y-97709173D01*
X142697912Y-97932025D01*
X142697919Y-97932032D01*
X142697922Y-97932035D01*
X142707605Y-97941379D01*
X142707610Y-97941383D01*
X142707608Y-97941382D01*
X142710407Y-97943749D01*
X142737456Y-97966627D01*
X142812264Y-98006899D01*
X142812266Y-98006899D01*
X142812270Y-98006902D01*
X142879309Y-98026587D01*
X142879314Y-98026587D01*
X142879315Y-98026588D01*
X142911962Y-98031282D01*
X142941769Y-98039459D01*
X142942237Y-98039653D01*
X143003357Y-98051810D01*
X143018952Y-98054912D01*
X143658353Y-98054911D01*
X143725392Y-98074595D01*
X143771147Y-98127399D01*
X143782353Y-98178911D01*
X143782353Y-98225411D01*
X143762668Y-98292450D01*
X143709864Y-98338205D01*
X143658353Y-98349411D01*
X143051407Y-98349411D01*
X143027216Y-98347028D01*
X142987369Y-98339102D01*
X142981482Y-98337629D01*
X142980411Y-98337304D01*
X142980393Y-98337299D01*
X142934447Y-98328160D01*
X142916264Y-98323077D01*
X142656341Y-98228560D01*
X141873112Y-97943750D01*
X141873107Y-97943748D01*
X141838542Y-97934495D01*
X141838543Y-97934495D01*
X141820418Y-97931302D01*
X141796165Y-97927029D01*
X141760508Y-97923912D01*
X141206353Y-97923912D01*
X141206345Y-97923912D01*
X141163162Y-97928556D01*
X141156529Y-97928912D01*
X138506353Y-97928912D01*
X138439314Y-97909227D01*
X138393559Y-97856423D01*
X138382353Y-97804912D01*
X138382353Y-96753412D01*
X138402038Y-96686373D01*
X138454842Y-96640618D01*
X138506353Y-96629412D01*
X140219790Y-96629412D01*
X140249863Y-96633113D01*
G37*
%TD.AperFunction*%
%TD*%
%TA.AperFunction,Conductor*%
%TO.N,MOTOR_B1*%
G36*
X141802884Y-98136878D02*
G01*
X141938996Y-98186373D01*
X142882353Y-98529412D01*
X142892849Y-98529412D01*
X142940304Y-98538852D01*
X142942238Y-98539653D01*
X142999512Y-98551045D01*
X143018952Y-98554912D01*
X143745753Y-98554911D01*
X143745760Y-98554909D01*
X143746182Y-98554868D01*
X143746408Y-98554911D01*
X143751844Y-98554911D01*
X143751844Y-98555940D01*
X143814830Y-98567877D01*
X143865547Y-98615935D01*
X143882353Y-98678269D01*
X143882353Y-98780552D01*
X143862668Y-98847591D01*
X143809864Y-98893346D01*
X143751846Y-98903018D01*
X143751846Y-98903912D01*
X143746484Y-98903912D01*
X143746215Y-98903957D01*
X143745757Y-98903912D01*
X143018955Y-98903912D01*
X142942234Y-98919172D01*
X142940305Y-98919972D01*
X142892850Y-98929412D01*
X142882353Y-98929412D01*
X141818686Y-99122805D01*
X141786295Y-99124384D01*
X141784821Y-99124262D01*
X141776333Y-99123912D01*
X141629498Y-99123912D01*
X141628258Y-99123949D01*
X141623298Y-99124099D01*
X141621405Y-99124213D01*
X141619969Y-99124300D01*
X141616244Y-99124412D01*
X141206353Y-99124412D01*
X141139314Y-99104727D01*
X141093559Y-99051923D01*
X141082353Y-99000412D01*
X141082353Y-98253412D01*
X141102038Y-98186373D01*
X141154842Y-98140618D01*
X141206353Y-98129412D01*
X141760508Y-98129412D01*
X141802884Y-98136878D01*
G37*
%TD.AperFunction*%
%TD*%
%TA.AperFunction,Conductor*%
%TO.N,MOTOR_A1*%
G36*
X143159427Y-95743001D02*
G01*
X144384978Y-96317478D01*
X144437325Y-96363756D01*
X144456348Y-96429755D01*
X144456348Y-97115148D01*
X144436663Y-97182187D01*
X144383859Y-97227942D01*
X144321122Y-97238639D01*
X143930857Y-97203161D01*
X143884546Y-97189513D01*
X143682664Y-97083765D01*
X143659553Y-97068113D01*
X143466849Y-96903117D01*
X143325541Y-96782127D01*
X143313664Y-96774509D01*
X143278040Y-96751658D01*
X143278034Y-96751655D01*
X143216783Y-96723373D01*
X143198783Y-96717906D01*
X143162791Y-96706976D01*
X143162785Y-96706974D01*
X143162783Y-96706974D01*
X143162779Y-96706973D01*
X143162773Y-96706972D01*
X143082922Y-96694325D01*
X143046027Y-96682338D01*
X143032083Y-96675233D01*
X143018924Y-96668528D01*
X142987538Y-96645724D01*
X142976788Y-96634974D01*
X142966038Y-96624224D01*
X142943238Y-96592843D01*
X142929429Y-96565743D01*
X142917440Y-96528847D01*
X142912682Y-96498806D01*
X142912682Y-96460013D01*
X142917440Y-96429974D01*
X142929428Y-96393079D01*
X142936605Y-96378994D01*
X142950677Y-96343598D01*
X142963572Y-96299681D01*
X142964821Y-96295244D01*
X142968365Y-96203856D01*
X142966546Y-96194172D01*
X142955471Y-96135198D01*
X142955468Y-96135184D01*
X142954848Y-96133367D01*
X142936601Y-96079821D01*
X142929428Y-96065743D01*
X142917440Y-96028848D01*
X142912682Y-95998809D01*
X142912681Y-95960019D01*
X142917438Y-95929975D01*
X142929425Y-95893084D01*
X142943236Y-95865979D01*
X142966046Y-95834590D01*
X142969234Y-95831402D01*
X142969229Y-95831408D01*
X142971489Y-95828891D01*
X142976591Y-95823212D01*
X142996677Y-95798285D01*
X142996923Y-95797813D01*
X142997118Y-95797610D01*
X143000016Y-95793190D01*
X143000854Y-95793739D01*
X143045433Y-95747531D01*
X143113429Y-95731457D01*
X143159427Y-95743001D01*
G37*
%TD.AperFunction*%
%TD*%
%TA.AperFunction,Conductor*%
%TO.N,VCC*%
G36*
X143725392Y-100649097D02*
G01*
X143771147Y-100701901D01*
X143782353Y-100753412D01*
X143782353Y-100861342D01*
X143762668Y-100928381D01*
X143724926Y-100965956D01*
X142682352Y-101629412D01*
X142728968Y-101725972D01*
X142740387Y-101794902D01*
X142727788Y-101836171D01*
X142722632Y-101846289D01*
X142701549Y-101979409D01*
X142701549Y-101979414D01*
X142722632Y-102112534D01*
X142753501Y-102173119D01*
X142766396Y-102241788D01*
X142753501Y-102285705D01*
X142722632Y-102346289D01*
X142701549Y-102479409D01*
X142701549Y-102479414D01*
X142722632Y-102612533D01*
X142722633Y-102612536D01*
X142722634Y-102612538D01*
X142769321Y-102704166D01*
X142783826Y-102732633D01*
X142783829Y-102732637D01*
X142879127Y-102827935D01*
X142879131Y-102827938D01*
X142879133Y-102827940D01*
X142999227Y-102889131D01*
X142999229Y-102889131D01*
X142999231Y-102889132D01*
X143132351Y-102910216D01*
X143132352Y-102910216D01*
X143132352Y-102910215D01*
X143132353Y-102910216D01*
X143197709Y-102899864D01*
X143267000Y-102908818D01*
X143320453Y-102953813D01*
X143328774Y-102968428D01*
X145470263Y-107404368D01*
X145482590Y-107457220D01*
X145499361Y-109425125D01*
X145480249Y-109492330D01*
X145434034Y-109535425D01*
X140099999Y-112399999D01*
X140099999Y-112400000D01*
X140006023Y-114091571D01*
X139982650Y-114157416D01*
X139927389Y-114200171D01*
X139891724Y-114208328D01*
X138833510Y-114289730D01*
X138765159Y-114275245D01*
X138715489Y-114226106D01*
X138700000Y-114166095D01*
X138700000Y-112399999D01*
X135379201Y-112212029D01*
X135353036Y-112207707D01*
X135232094Y-112174128D01*
X135232068Y-112174122D01*
X134868213Y-112114470D01*
X134868200Y-112114469D01*
X134868199Y-112114469D01*
X134592110Y-112099500D01*
X134407890Y-112099500D01*
X134131801Y-112114469D01*
X134131797Y-112114469D01*
X134023040Y-112132298D01*
X133995974Y-112133733D01*
X133516993Y-112106622D01*
X133451173Y-112083180D01*
X133408475Y-112027875D01*
X133400000Y-111982820D01*
X133400000Y-110336600D01*
X133419685Y-110269561D01*
X133472489Y-110223806D01*
X133541647Y-110213862D01*
X133591039Y-110232285D01*
X133668653Y-110282164D01*
X133863686Y-110360244D01*
X133949999Y-110376878D01*
X133950000Y-110376878D01*
X133950000Y-109800000D01*
X134950000Y-109800000D01*
X134950000Y-110380372D01*
X135135686Y-110325850D01*
X135322414Y-110229586D01*
X135487537Y-110099731D01*
X135487540Y-110099728D01*
X135625105Y-109940969D01*
X135625114Y-109940958D01*
X135706496Y-109800000D01*
X134950000Y-109800000D01*
X133950000Y-109800000D01*
X133950000Y-109331395D01*
X134071114Y-109331395D01*
X134101837Y-109452719D01*
X134170289Y-109557492D01*
X134269052Y-109634363D01*
X134387424Y-109675000D01*
X134481073Y-109675000D01*
X134573446Y-109659586D01*
X134683514Y-109600019D01*
X134768278Y-109507941D01*
X134818551Y-109393330D01*
X134828886Y-109268605D01*
X134798163Y-109147281D01*
X134729711Y-109042508D01*
X134630948Y-108965637D01*
X134512576Y-108925000D01*
X134418927Y-108925000D01*
X134326554Y-108940414D01*
X134216486Y-108999981D01*
X134131722Y-109092059D01*
X134081449Y-109206670D01*
X134071114Y-109331395D01*
X133950000Y-109331395D01*
X133950000Y-108924000D01*
X133969685Y-108856961D01*
X134022489Y-108811206D01*
X134074000Y-108800000D01*
X135705939Y-108800000D01*
X135681960Y-108747495D01*
X135645239Y-108695928D01*
X135622386Y-108629901D01*
X135638858Y-108562001D01*
X135689425Y-108513785D01*
X135746246Y-108500000D01*
X136225500Y-108500000D01*
X136292539Y-108519685D01*
X136338294Y-108572489D01*
X136349500Y-108624000D01*
X136349500Y-109104269D01*
X136352353Y-109134699D01*
X136352353Y-109134701D01*
X136397206Y-109262880D01*
X136397207Y-109262882D01*
X136477850Y-109372150D01*
X136587118Y-109452793D01*
X136629845Y-109467743D01*
X136715299Y-109497646D01*
X136745730Y-109500500D01*
X136745734Y-109500500D01*
X139854270Y-109500500D01*
X139884699Y-109497646D01*
X139884701Y-109497646D01*
X139948790Y-109475219D01*
X140012882Y-109452793D01*
X140122150Y-109372150D01*
X140202793Y-109262882D01*
X140225219Y-109198790D01*
X140247646Y-109134701D01*
X140247646Y-109134699D01*
X140250500Y-109104269D01*
X140250500Y-108624000D01*
X140270185Y-108556961D01*
X140322989Y-108511206D01*
X140374500Y-108500000D01*
X141800000Y-108500000D01*
X141782353Y-102629412D01*
X141782353Y-102512164D01*
X141788028Y-102475080D01*
X141791273Y-102464726D01*
X141791273Y-102464725D01*
X141791277Y-102464713D01*
X141801303Y-102415867D01*
X141805500Y-102374548D01*
X141805500Y-101924000D01*
X141800803Y-101880316D01*
X141793400Y-101846286D01*
X141789598Y-101828807D01*
X141785898Y-101813668D01*
X141782353Y-101784230D01*
X141782353Y-101687490D01*
X141802038Y-101620451D01*
X141826970Y-101592231D01*
X142947864Y-100658153D01*
X143011967Y-100630357D01*
X143027247Y-100629412D01*
X143658353Y-100629412D01*
X143725392Y-100649097D01*
G37*
%TD.AperFunction*%
%TD*%
%TA.AperFunction,Conductor*%
%TO.N,MOTOR_A2*%
G36*
X141792474Y-99331099D02*
G01*
X142882167Y-99512714D01*
X142930670Y-99531924D01*
X142942236Y-99539652D01*
X142942237Y-99539653D01*
X143003357Y-99551810D01*
X143018952Y-99554912D01*
X143745753Y-99554911D01*
X143745760Y-99554909D01*
X143746182Y-99554868D01*
X143746408Y-99554911D01*
X143751844Y-99554911D01*
X143751844Y-99555940D01*
X143814830Y-99567877D01*
X143865547Y-99615935D01*
X143882353Y-99678269D01*
X143882353Y-99780552D01*
X143862668Y-99847591D01*
X143809864Y-99893346D01*
X143751846Y-99903018D01*
X143751846Y-99903912D01*
X143746484Y-99903912D01*
X143746215Y-99903957D01*
X143745757Y-99903912D01*
X143018955Y-99903912D01*
X142973005Y-99913051D01*
X142942236Y-99919172D01*
X142942235Y-99919172D01*
X142942233Y-99919173D01*
X142885578Y-99957028D01*
X142855901Y-99971562D01*
X141801442Y-100323049D01*
X141762230Y-100329412D01*
X141206353Y-100329412D01*
X141139314Y-100309727D01*
X141093559Y-100256923D01*
X141082353Y-100205412D01*
X141082353Y-99453912D01*
X141102038Y-99386873D01*
X141154842Y-99341118D01*
X141206353Y-99329912D01*
X141624725Y-99329912D01*
X141625113Y-99329864D01*
X141632597Y-99329412D01*
X141772090Y-99329412D01*
X141792474Y-99331099D01*
G37*
%TD.AperFunction*%
%TD*%
%TA.AperFunction,Conductor*%
%TO.N,GND*%
G36*
X140667627Y-93949097D02*
G01*
X140713382Y-94001901D01*
X140714562Y-94004566D01*
X141572327Y-96006017D01*
X141582353Y-96054863D01*
X141582353Y-96505412D01*
X141562668Y-96572451D01*
X141509864Y-96618206D01*
X141458353Y-96629412D01*
X141097619Y-96629412D01*
X141067545Y-96625710D01*
X139882353Y-96329412D01*
X136506353Y-96329412D01*
X136439314Y-96309727D01*
X136393559Y-96256923D01*
X136382353Y-96205412D01*
X136382353Y-94053412D01*
X136402038Y-93986373D01*
X136454842Y-93940618D01*
X136506353Y-93929412D01*
X140600588Y-93929412D01*
X140667627Y-93949097D01*
G37*
%TD.AperFunction*%
%TD*%
%TA.AperFunction,Conductor*%
%TO.N,/BRB*%
G36*
X143725392Y-100129097D02*
G01*
X143771147Y-100181901D01*
X143782353Y-100233412D01*
X143782353Y-100279912D01*
X143762668Y-100346951D01*
X143709864Y-100392706D01*
X143658353Y-100403912D01*
X143018953Y-100403912D01*
X143018952Y-100403913D01*
X142946817Y-100418260D01*
X142943980Y-100418006D01*
X142871798Y-100466235D01*
X142866431Y-100469417D01*
X142816306Y-100500283D01*
X142816305Y-100500283D01*
X142579890Y-100697295D01*
X142574587Y-100701255D01*
X141265960Y-101573674D01*
X141199261Y-101594482D01*
X141197177Y-101594500D01*
X141108969Y-101594500D01*
X141096411Y-101595269D01*
X141096412Y-101595269D01*
X141078773Y-101597440D01*
X141053837Y-101600511D01*
X141050855Y-101601064D01*
X141041471Y-101602808D01*
X141041469Y-101602808D01*
X141041458Y-101602811D01*
X140213795Y-101809727D01*
X140149863Y-101825710D01*
X140119789Y-101829412D01*
X138506353Y-101829412D01*
X138439314Y-101809727D01*
X138393559Y-101756923D01*
X138382353Y-101705412D01*
X138382353Y-100653912D01*
X138402038Y-100586873D01*
X138454842Y-100541118D01*
X138506353Y-100529912D01*
X141162709Y-100529912D01*
X141180355Y-100531173D01*
X141206353Y-100534912D01*
X141206354Y-100534912D01*
X141762236Y-100534912D01*
X141795138Y-100532260D01*
X141795142Y-100532259D01*
X141795146Y-100532259D01*
X141834358Y-100525896D01*
X141866427Y-100518003D01*
X142843090Y-100192447D01*
X142859897Y-100191840D01*
X142865157Y-100186765D01*
X142883419Y-100179005D01*
X142927402Y-100164344D01*
X142927400Y-100164345D01*
X142932446Y-100162278D01*
X142940116Y-100159139D01*
X142982130Y-100138563D01*
X142982130Y-100138562D01*
X142982134Y-100138561D01*
X142982133Y-100138562D01*
X142994042Y-100131709D01*
X142994040Y-100131710D01*
X142996131Y-100130313D01*
X143062808Y-100109432D01*
X143065026Y-100109412D01*
X143658353Y-100109412D01*
X143725392Y-100129097D01*
G37*
%TD.AperFunction*%
%TD*%
%TA.AperFunction,Conductor*%
%TO.N,VCC*%
G36*
X144125392Y-91649097D02*
G01*
X144171147Y-91701901D01*
X144182353Y-91753412D01*
X144182353Y-93984087D01*
X144162668Y-94051126D01*
X144153124Y-94064052D01*
X142856348Y-95600931D01*
X142856348Y-95602305D01*
X142836663Y-95669344D01*
X142820031Y-95689984D01*
X142783826Y-95726189D01*
X142722632Y-95846290D01*
X142701549Y-95979409D01*
X142701549Y-95979414D01*
X142722632Y-96112535D01*
X142722633Y-96112538D01*
X142753500Y-96173117D01*
X142766396Y-96241786D01*
X142753501Y-96285703D01*
X142722633Y-96346288D01*
X142701549Y-96479409D01*
X142701549Y-96479414D01*
X142722632Y-96612533D01*
X142722633Y-96612536D01*
X142722634Y-96612538D01*
X142783825Y-96732632D01*
X142783826Y-96732633D01*
X142783829Y-96732637D01*
X142879127Y-96827935D01*
X142879131Y-96827938D01*
X142879133Y-96827940D01*
X142999227Y-96889131D01*
X142999229Y-96889131D01*
X142999231Y-96889132D01*
X143130636Y-96909944D01*
X143191887Y-96938226D01*
X143839001Y-97492294D01*
X143877122Y-97550847D01*
X143882353Y-97586484D01*
X143882353Y-97705412D01*
X143862668Y-97772451D01*
X143809864Y-97818206D01*
X143758353Y-97829412D01*
X142937207Y-97829412D01*
X142870168Y-97809727D01*
X142845454Y-97788823D01*
X141914600Y-96764883D01*
X141884070Y-96702037D01*
X141882353Y-96681472D01*
X141882353Y-95829412D01*
X141659891Y-95651442D01*
X141623379Y-95603460D01*
X141622295Y-95600931D01*
X141392379Y-95064458D01*
X141382353Y-95015612D01*
X141382353Y-94263757D01*
X141400024Y-94199960D01*
X141481569Y-94064052D01*
X141680711Y-93732147D01*
X141684271Y-93726854D01*
X142282353Y-92929412D01*
X142915584Y-91753412D01*
X142947239Y-91694624D01*
X142996354Y-91644930D01*
X143056417Y-91629412D01*
X144058353Y-91629412D01*
X144125392Y-91649097D01*
G37*
%TD.AperFunction*%
%TD*%
%TA.AperFunction,Conductor*%
%TO.N,GND*%
G36*
X139943039Y-105819685D02*
G01*
X139988794Y-105872489D01*
X140000000Y-105924000D01*
X140000000Y-109144294D01*
X139980315Y-109211333D01*
X139949632Y-109244065D01*
X139930811Y-109257955D01*
X139898138Y-109275224D01*
X139861516Y-109288040D01*
X139820557Y-109295000D01*
X136779441Y-109295000D01*
X136738486Y-109288041D01*
X136701861Y-109275225D01*
X136669188Y-109257956D01*
X136639840Y-109236297D01*
X136613701Y-109210158D01*
X136601300Y-109193355D01*
X136577502Y-109130024D01*
X136555214Y-108862568D01*
X136555000Y-108857417D01*
X136555000Y-108624008D01*
X136554999Y-108623992D01*
X136550425Y-108581454D01*
X136550303Y-108580316D01*
X136546035Y-108560701D01*
X136539098Y-108528807D01*
X136536609Y-108518624D01*
X136533842Y-108511374D01*
X136534449Y-108511142D01*
X136522566Y-108470793D01*
X136500000Y-108200000D01*
X136466107Y-108197881D01*
X135856066Y-108159753D01*
X135790385Y-108135924D01*
X135748013Y-108080369D01*
X135742403Y-108010725D01*
X135756353Y-107975693D01*
X135756304Y-107975670D01*
X135756707Y-107974804D01*
X135758266Y-107970891D01*
X135759356Y-107969122D01*
X135759358Y-107969119D01*
X135814504Y-107802701D01*
X135814505Y-107802694D01*
X135814781Y-107800000D01*
X134074000Y-107800000D01*
X134006961Y-107780315D01*
X133961206Y-107727511D01*
X133950000Y-107676000D01*
X133950000Y-107331395D01*
X134071114Y-107331395D01*
X134101837Y-107452719D01*
X134170289Y-107557492D01*
X134269052Y-107634363D01*
X134387424Y-107675000D01*
X134481073Y-107675000D01*
X134573446Y-107659586D01*
X134683514Y-107600019D01*
X134768278Y-107507941D01*
X134818551Y-107393330D01*
X134828886Y-107268605D01*
X134798163Y-107147281D01*
X134729711Y-107042508D01*
X134630948Y-106965637D01*
X134512576Y-106925000D01*
X134418927Y-106925000D01*
X134326554Y-106940414D01*
X134216486Y-106999981D01*
X134131722Y-107092059D01*
X134081449Y-107206670D01*
X134071114Y-107331395D01*
X133950000Y-107331395D01*
X133949999Y-106200000D01*
X134950000Y-106200000D01*
X134950000Y-106800000D01*
X135814780Y-106800000D01*
X135814505Y-106797305D01*
X135814504Y-106797298D01*
X135759358Y-106630880D01*
X135759356Y-106630875D01*
X135667315Y-106481654D01*
X135543345Y-106357684D01*
X135394124Y-106265643D01*
X135394119Y-106265641D01*
X135227697Y-106210494D01*
X135227690Y-106210493D01*
X135124986Y-106200000D01*
X134950000Y-106200000D01*
X133949999Y-106200000D01*
X133775029Y-106200000D01*
X133775012Y-106200001D01*
X133672302Y-106210494D01*
X133505880Y-106265641D01*
X133505871Y-106265645D01*
X133489096Y-106275993D01*
X133421704Y-106294433D01*
X133355040Y-106273510D01*
X133310271Y-106219868D01*
X133300000Y-106170454D01*
X133300000Y-105924000D01*
X133319685Y-105856961D01*
X133372489Y-105811206D01*
X133424000Y-105800000D01*
X139876000Y-105800000D01*
X139943039Y-105819685D01*
G37*
%TD.AperFunction*%
%TD*%
M02*
