%TF.GenerationSoftware,KiCad,Pcbnew,8.0.3*%
%TF.CreationDate,2024-10-17T21:46:58-04:00*%
%TF.ProjectId,Axis_Basic,41786973-5f42-4617-9369-632e6b696361,rev?*%
%TF.SameCoordinates,Original*%
%TF.FileFunction,Legend,Bot*%
%TF.FilePolarity,Positive*%
%FSLAX46Y46*%
G04 Gerber Fmt 4.6, Leading zero omitted, Abs format (unit mm)*
G04 Created by KiCad (PCBNEW 8.0.3) date 2024-10-17 21:46:58*
%MOMM*%
%LPD*%
G01*
G04 APERTURE LIST*
%ADD10C,0.150000*%
%ADD11C,0.300000*%
%ADD12C,0.120000*%
G04 APERTURE END LIST*
D10*
X153672744Y-82902485D02*
X153101316Y-82902485D01*
X153787030Y-83245342D02*
X153387030Y-82045342D01*
X153387030Y-82045342D02*
X152987030Y-83245342D01*
X152072745Y-82445342D02*
X152072745Y-83245342D01*
X152587030Y-82445342D02*
X152587030Y-83073914D01*
X152587030Y-83073914D02*
X152529887Y-83188200D01*
X152529887Y-83188200D02*
X152415602Y-83245342D01*
X152415602Y-83245342D02*
X152244173Y-83245342D01*
X152244173Y-83245342D02*
X152129887Y-83188200D01*
X152129887Y-83188200D02*
X152072745Y-83131057D01*
X151615602Y-83245342D02*
X150987031Y-82445342D01*
X151615602Y-82445342D02*
X150987031Y-83245342D01*
X149615601Y-83245342D02*
X149615601Y-82045342D01*
X149615601Y-82045342D02*
X149158458Y-82045342D01*
X149158458Y-82045342D02*
X149044173Y-82102485D01*
X149044173Y-82102485D02*
X148987030Y-82159628D01*
X148987030Y-82159628D02*
X148929887Y-82273914D01*
X148929887Y-82273914D02*
X148929887Y-82445342D01*
X148929887Y-82445342D02*
X148987030Y-82559628D01*
X148987030Y-82559628D02*
X149044173Y-82616771D01*
X149044173Y-82616771D02*
X149158458Y-82673914D01*
X149158458Y-82673914D02*
X149615601Y-82673914D01*
X148244173Y-83245342D02*
X148358458Y-83188200D01*
X148358458Y-83188200D02*
X148415601Y-83131057D01*
X148415601Y-83131057D02*
X148472744Y-83016771D01*
X148472744Y-83016771D02*
X148472744Y-82673914D01*
X148472744Y-82673914D02*
X148415601Y-82559628D01*
X148415601Y-82559628D02*
X148358458Y-82502485D01*
X148358458Y-82502485D02*
X148244173Y-82445342D01*
X148244173Y-82445342D02*
X148072744Y-82445342D01*
X148072744Y-82445342D02*
X147958458Y-82502485D01*
X147958458Y-82502485D02*
X147901316Y-82559628D01*
X147901316Y-82559628D02*
X147844173Y-82673914D01*
X147844173Y-82673914D02*
X147844173Y-83016771D01*
X147844173Y-83016771D02*
X147901316Y-83131057D01*
X147901316Y-83131057D02*
X147958458Y-83188200D01*
X147958458Y-83188200D02*
X148072744Y-83245342D01*
X148072744Y-83245342D02*
X148244173Y-83245342D01*
X147329887Y-83245342D02*
X147329887Y-82445342D01*
X147329887Y-82673914D02*
X147272744Y-82559628D01*
X147272744Y-82559628D02*
X147215602Y-82502485D01*
X147215602Y-82502485D02*
X147101316Y-82445342D01*
X147101316Y-82445342D02*
X146987030Y-82445342D01*
X146758459Y-82445342D02*
X146301316Y-82445342D01*
X146587030Y-82045342D02*
X146587030Y-83073914D01*
X146587030Y-83073914D02*
X146529887Y-83188200D01*
X146529887Y-83188200D02*
X146415602Y-83245342D01*
X146415602Y-83245342D02*
X146301316Y-83245342D01*
X139114215Y-84800000D02*
X139100000Y-79000000D01*
X161099999Y-84900000D02*
X161100000Y-79000000D01*
X159085786Y-86985786D02*
X141114214Y-86985786D01*
X161099999Y-84900000D02*
G75*
G02*
X159085786Y-87001825I-2014213J-85786D01*
G01*
X141114214Y-86994396D02*
G75*
G02*
X139114215Y-84800000I0J2008610D01*
G01*
X134000000Y-111600000D02*
X129000000Y-111600000D01*
X134000000Y-105000000D02*
X129000000Y-105000000D01*
X136000000Y-107000000D02*
X136000000Y-109585786D01*
X136000000Y-109585786D02*
G75*
G02*
X134000000Y-111585786I-2000000J0D01*
G01*
X134000000Y-105000000D02*
G75*
G02*
X136000000Y-107000000I0J-2000000D01*
G01*
X134000000Y-94000000D02*
X129000000Y-94000000D01*
X134000000Y-104400000D02*
X129000000Y-104400000D01*
X136000000Y-96000000D02*
X136000050Y-102385786D01*
X134000000Y-94000000D02*
G75*
G02*
X136000000Y-96000000I0J-2000000D01*
G01*
X136000050Y-102385786D02*
G75*
G02*
X134000000Y-104400000I-2014264J0D01*
G01*
X132545342Y-97084398D02*
X131345342Y-97084398D01*
X131345342Y-97084398D02*
X132202485Y-97484398D01*
X132202485Y-97484398D02*
X131345342Y-97884398D01*
X131345342Y-97884398D02*
X132545342Y-97884398D01*
X132545342Y-98627255D02*
X132488200Y-98512970D01*
X132488200Y-98512970D02*
X132431057Y-98455827D01*
X132431057Y-98455827D02*
X132316771Y-98398684D01*
X132316771Y-98398684D02*
X131973914Y-98398684D01*
X131973914Y-98398684D02*
X131859628Y-98455827D01*
X131859628Y-98455827D02*
X131802485Y-98512970D01*
X131802485Y-98512970D02*
X131745342Y-98627255D01*
X131745342Y-98627255D02*
X131745342Y-98798684D01*
X131745342Y-98798684D02*
X131802485Y-98912970D01*
X131802485Y-98912970D02*
X131859628Y-98970113D01*
X131859628Y-98970113D02*
X131973914Y-99027255D01*
X131973914Y-99027255D02*
X132316771Y-99027255D01*
X132316771Y-99027255D02*
X132431057Y-98970113D01*
X132431057Y-98970113D02*
X132488200Y-98912970D01*
X132488200Y-98912970D02*
X132545342Y-98798684D01*
X132545342Y-98798684D02*
X132545342Y-98627255D01*
X131745342Y-99370112D02*
X131745342Y-99827255D01*
X131345342Y-99541541D02*
X132373914Y-99541541D01*
X132373914Y-99541541D02*
X132488200Y-99598684D01*
X132488200Y-99598684D02*
X132545342Y-99712969D01*
X132545342Y-99712969D02*
X132545342Y-99827255D01*
X132545342Y-100398683D02*
X132488200Y-100284398D01*
X132488200Y-100284398D02*
X132431057Y-100227255D01*
X132431057Y-100227255D02*
X132316771Y-100170112D01*
X132316771Y-100170112D02*
X131973914Y-100170112D01*
X131973914Y-100170112D02*
X131859628Y-100227255D01*
X131859628Y-100227255D02*
X131802485Y-100284398D01*
X131802485Y-100284398D02*
X131745342Y-100398683D01*
X131745342Y-100398683D02*
X131745342Y-100570112D01*
X131745342Y-100570112D02*
X131802485Y-100684398D01*
X131802485Y-100684398D02*
X131859628Y-100741541D01*
X131859628Y-100741541D02*
X131973914Y-100798683D01*
X131973914Y-100798683D02*
X132316771Y-100798683D01*
X132316771Y-100798683D02*
X132431057Y-100741541D01*
X132431057Y-100741541D02*
X132488200Y-100684398D01*
X132488200Y-100684398D02*
X132545342Y-100570112D01*
X132545342Y-100570112D02*
X132545342Y-100398683D01*
X132545342Y-101312969D02*
X131745342Y-101312969D01*
X131973914Y-101312969D02*
X131859628Y-101370112D01*
X131859628Y-101370112D02*
X131802485Y-101427255D01*
X131802485Y-101427255D02*
X131745342Y-101541540D01*
X131745342Y-101541540D02*
X131745342Y-101655826D01*
X147000000Y-116000000D02*
X147000000Y-121000000D01*
X160100000Y-114000000D02*
X149000000Y-114000000D01*
X162100000Y-116000000D02*
X162100000Y-121000000D01*
X160100000Y-114000000D02*
G75*
G02*
X162100000Y-116000000I0J-2000000D01*
G01*
X147000000Y-116000000D02*
G75*
G02*
X149000000Y-114000000I2000000J0D01*
G01*
D11*
X133226441Y-110122266D02*
X131702632Y-110122266D01*
X132464536Y-109360361D02*
X132464536Y-110884171D01*
D10*
X154677506Y-110469819D02*
X154677506Y-111184104D01*
X154677506Y-111184104D02*
X154725125Y-111326961D01*
X154725125Y-111326961D02*
X154820363Y-111422200D01*
X154820363Y-111422200D02*
X154963220Y-111469819D01*
X154963220Y-111469819D02*
X155058458Y-111469819D01*
X153725125Y-111469819D02*
X154201315Y-111469819D01*
X154201315Y-111469819D02*
X154201315Y-110469819D01*
X152820363Y-111374580D02*
X152867982Y-111422200D01*
X152867982Y-111422200D02*
X153010839Y-111469819D01*
X153010839Y-111469819D02*
X153106077Y-111469819D01*
X153106077Y-111469819D02*
X153248934Y-111422200D01*
X153248934Y-111422200D02*
X153344172Y-111326961D01*
X153344172Y-111326961D02*
X153391791Y-111231723D01*
X153391791Y-111231723D02*
X153439410Y-111041247D01*
X153439410Y-111041247D02*
X153439410Y-110898390D01*
X153439410Y-110898390D02*
X153391791Y-110707914D01*
X153391791Y-110707914D02*
X153344172Y-110612676D01*
X153344172Y-110612676D02*
X153248934Y-110517438D01*
X153248934Y-110517438D02*
X153106077Y-110469819D01*
X153106077Y-110469819D02*
X153010839Y-110469819D01*
X153010839Y-110469819D02*
X152867982Y-110517438D01*
X152867982Y-110517438D02*
X152820363Y-110565057D01*
X152106077Y-110469819D02*
X152106077Y-111184104D01*
X152106077Y-111184104D02*
X152153696Y-111326961D01*
X152153696Y-111326961D02*
X152248934Y-111422200D01*
X152248934Y-111422200D02*
X152391791Y-111469819D01*
X152391791Y-111469819D02*
X152487029Y-111469819D01*
X151153696Y-111469819D02*
X151629886Y-111469819D01*
X151629886Y-111469819D02*
X151629886Y-110469819D01*
X150248934Y-111374580D02*
X150296553Y-111422200D01*
X150296553Y-111422200D02*
X150439410Y-111469819D01*
X150439410Y-111469819D02*
X150534648Y-111469819D01*
X150534648Y-111469819D02*
X150677505Y-111422200D01*
X150677505Y-111422200D02*
X150772743Y-111326961D01*
X150772743Y-111326961D02*
X150820362Y-111231723D01*
X150820362Y-111231723D02*
X150867981Y-111041247D01*
X150867981Y-111041247D02*
X150867981Y-110898390D01*
X150867981Y-110898390D02*
X150820362Y-110707914D01*
X150820362Y-110707914D02*
X150772743Y-110612676D01*
X150772743Y-110612676D02*
X150677505Y-110517438D01*
X150677505Y-110517438D02*
X150534648Y-110469819D01*
X150534648Y-110469819D02*
X150439410Y-110469819D01*
X150439410Y-110469819D02*
X150296553Y-110517438D01*
X150296553Y-110517438D02*
X150248934Y-110565057D01*
X149534648Y-110469819D02*
X149534648Y-111184104D01*
X149534648Y-111184104D02*
X149582267Y-111326961D01*
X149582267Y-111326961D02*
X149677505Y-111422200D01*
X149677505Y-111422200D02*
X149820362Y-111469819D01*
X149820362Y-111469819D02*
X149915600Y-111469819D01*
X148582267Y-111469819D02*
X149058457Y-111469819D01*
X149058457Y-111469819D02*
X149058457Y-110469819D01*
X147677505Y-111374580D02*
X147725124Y-111422200D01*
X147725124Y-111422200D02*
X147867981Y-111469819D01*
X147867981Y-111469819D02*
X147963219Y-111469819D01*
X147963219Y-111469819D02*
X148106076Y-111422200D01*
X148106076Y-111422200D02*
X148201314Y-111326961D01*
X148201314Y-111326961D02*
X148248933Y-111231723D01*
X148248933Y-111231723D02*
X148296552Y-111041247D01*
X148296552Y-111041247D02*
X148296552Y-110898390D01*
X148296552Y-110898390D02*
X148248933Y-110707914D01*
X148248933Y-110707914D02*
X148201314Y-110612676D01*
X148201314Y-110612676D02*
X148106076Y-110517438D01*
X148106076Y-110517438D02*
X147963219Y-110469819D01*
X147963219Y-110469819D02*
X147867981Y-110469819D01*
X147867981Y-110469819D02*
X147725124Y-110517438D01*
X147725124Y-110517438D02*
X147677505Y-110565057D01*
X146963219Y-110469819D02*
X146963219Y-111184104D01*
X146963219Y-111184104D02*
X147010838Y-111326961D01*
X147010838Y-111326961D02*
X147106076Y-111422200D01*
X147106076Y-111422200D02*
X147248933Y-111469819D01*
X147248933Y-111469819D02*
X147344171Y-111469819D01*
X146010838Y-111469819D02*
X146487028Y-111469819D01*
X146487028Y-111469819D02*
X146487028Y-110469819D01*
X145106076Y-111374580D02*
X145153695Y-111422200D01*
X145153695Y-111422200D02*
X145296552Y-111469819D01*
X145296552Y-111469819D02*
X145391790Y-111469819D01*
X145391790Y-111469819D02*
X145534647Y-111422200D01*
X145534647Y-111422200D02*
X145629885Y-111326961D01*
X145629885Y-111326961D02*
X145677504Y-111231723D01*
X145677504Y-111231723D02*
X145725123Y-111041247D01*
X145725123Y-111041247D02*
X145725123Y-110898390D01*
X145725123Y-110898390D02*
X145677504Y-110707914D01*
X145677504Y-110707914D02*
X145629885Y-110612676D01*
X145629885Y-110612676D02*
X145534647Y-110517438D01*
X145534647Y-110517438D02*
X145391790Y-110469819D01*
X145391790Y-110469819D02*
X145296552Y-110469819D01*
X145296552Y-110469819D02*
X145153695Y-110517438D01*
X145153695Y-110517438D02*
X145106076Y-110565057D01*
X148158458Y-90969819D02*
X147539411Y-90969819D01*
X147539411Y-90969819D02*
X147872744Y-91350771D01*
X147872744Y-91350771D02*
X147729887Y-91350771D01*
X147729887Y-91350771D02*
X147634649Y-91398390D01*
X147634649Y-91398390D02*
X147587030Y-91446009D01*
X147587030Y-91446009D02*
X147539411Y-91541247D01*
X147539411Y-91541247D02*
X147539411Y-91779342D01*
X147539411Y-91779342D02*
X147587030Y-91874580D01*
X147587030Y-91874580D02*
X147634649Y-91922200D01*
X147634649Y-91922200D02*
X147729887Y-91969819D01*
X147729887Y-91969819D02*
X148015601Y-91969819D01*
X148015601Y-91969819D02*
X148110839Y-91922200D01*
X148110839Y-91922200D02*
X148158458Y-91874580D01*
X147110839Y-91874580D02*
X147063220Y-91922200D01*
X147063220Y-91922200D02*
X147110839Y-91969819D01*
X147110839Y-91969819D02*
X147158458Y-91922200D01*
X147158458Y-91922200D02*
X147110839Y-91874580D01*
X147110839Y-91874580D02*
X147110839Y-91969819D01*
X146729887Y-90969819D02*
X146110840Y-90969819D01*
X146110840Y-90969819D02*
X146444173Y-91350771D01*
X146444173Y-91350771D02*
X146301316Y-91350771D01*
X146301316Y-91350771D02*
X146206078Y-91398390D01*
X146206078Y-91398390D02*
X146158459Y-91446009D01*
X146158459Y-91446009D02*
X146110840Y-91541247D01*
X146110840Y-91541247D02*
X146110840Y-91779342D01*
X146110840Y-91779342D02*
X146158459Y-91874580D01*
X146158459Y-91874580D02*
X146206078Y-91922200D01*
X146206078Y-91922200D02*
X146301316Y-91969819D01*
X146301316Y-91969819D02*
X146587030Y-91969819D01*
X146587030Y-91969819D02*
X146682268Y-91922200D01*
X146682268Y-91922200D02*
X146729887Y-91874580D01*
X145825125Y-90969819D02*
X145491792Y-91969819D01*
X145491792Y-91969819D02*
X145158459Y-90969819D01*
X155091792Y-99474580D02*
X155139411Y-99522200D01*
X155139411Y-99522200D02*
X155282268Y-99569819D01*
X155282268Y-99569819D02*
X155377506Y-99569819D01*
X155377506Y-99569819D02*
X155520363Y-99522200D01*
X155520363Y-99522200D02*
X155615601Y-99426961D01*
X155615601Y-99426961D02*
X155663220Y-99331723D01*
X155663220Y-99331723D02*
X155710839Y-99141247D01*
X155710839Y-99141247D02*
X155710839Y-98998390D01*
X155710839Y-98998390D02*
X155663220Y-98807914D01*
X155663220Y-98807914D02*
X155615601Y-98712676D01*
X155615601Y-98712676D02*
X155520363Y-98617438D01*
X155520363Y-98617438D02*
X155377506Y-98569819D01*
X155377506Y-98569819D02*
X155282268Y-98569819D01*
X155282268Y-98569819D02*
X155139411Y-98617438D01*
X155139411Y-98617438D02*
X155091792Y-98665057D01*
X154187030Y-99569819D02*
X154663220Y-99569819D01*
X154663220Y-99569819D02*
X154663220Y-98569819D01*
X153853696Y-99569819D02*
X153853696Y-98569819D01*
X153282268Y-99569819D02*
X153710839Y-98998390D01*
X153282268Y-98569819D02*
X153853696Y-99141247D01*
X155615601Y-118145342D02*
X155615601Y-116945342D01*
X155101315Y-117059628D02*
X155044172Y-117002485D01*
X155044172Y-117002485D02*
X154929887Y-116945342D01*
X154929887Y-116945342D02*
X154644172Y-116945342D01*
X154644172Y-116945342D02*
X154529887Y-117002485D01*
X154529887Y-117002485D02*
X154472744Y-117059628D01*
X154472744Y-117059628D02*
X154415601Y-117173914D01*
X154415601Y-117173914D02*
X154415601Y-117288200D01*
X154415601Y-117288200D02*
X154472744Y-117459628D01*
X154472744Y-117459628D02*
X155158458Y-118145342D01*
X155158458Y-118145342D02*
X154415601Y-118145342D01*
X153215601Y-118031057D02*
X153272744Y-118088200D01*
X153272744Y-118088200D02*
X153444172Y-118145342D01*
X153444172Y-118145342D02*
X153558458Y-118145342D01*
X153558458Y-118145342D02*
X153729887Y-118088200D01*
X153729887Y-118088200D02*
X153844172Y-117973914D01*
X153844172Y-117973914D02*
X153901315Y-117859628D01*
X153901315Y-117859628D02*
X153958458Y-117631057D01*
X153958458Y-117631057D02*
X153958458Y-117459628D01*
X153958458Y-117459628D02*
X153901315Y-117231057D01*
X153901315Y-117231057D02*
X153844172Y-117116771D01*
X153844172Y-117116771D02*
X153729887Y-117002485D01*
X153729887Y-117002485D02*
X153558458Y-116945342D01*
X153558458Y-116945342D02*
X153444172Y-116945342D01*
X153444172Y-116945342D02*
X153272744Y-117002485D01*
X153272744Y-117002485D02*
X153215601Y-117059628D01*
X150139411Y-93617438D02*
X150234649Y-93569819D01*
X150234649Y-93569819D02*
X150377506Y-93569819D01*
X150377506Y-93569819D02*
X150520363Y-93617438D01*
X150520363Y-93617438D02*
X150615601Y-93712676D01*
X150615601Y-93712676D02*
X150663220Y-93807914D01*
X150663220Y-93807914D02*
X150710839Y-93998390D01*
X150710839Y-93998390D02*
X150710839Y-94141247D01*
X150710839Y-94141247D02*
X150663220Y-94331723D01*
X150663220Y-94331723D02*
X150615601Y-94426961D01*
X150615601Y-94426961D02*
X150520363Y-94522200D01*
X150520363Y-94522200D02*
X150377506Y-94569819D01*
X150377506Y-94569819D02*
X150282268Y-94569819D01*
X150282268Y-94569819D02*
X150139411Y-94522200D01*
X150139411Y-94522200D02*
X150091792Y-94474580D01*
X150091792Y-94474580D02*
X150091792Y-94141247D01*
X150091792Y-94141247D02*
X150282268Y-94141247D01*
X149663220Y-94569819D02*
X149663220Y-93569819D01*
X149663220Y-93569819D02*
X149091792Y-94569819D01*
X149091792Y-94569819D02*
X149091792Y-93569819D01*
X148615601Y-94569819D02*
X148615601Y-93569819D01*
X148615601Y-93569819D02*
X148377506Y-93569819D01*
X148377506Y-93569819D02*
X148234649Y-93617438D01*
X148234649Y-93617438D02*
X148139411Y-93712676D01*
X148139411Y-93712676D02*
X148091792Y-93807914D01*
X148091792Y-93807914D02*
X148044173Y-93998390D01*
X148044173Y-93998390D02*
X148044173Y-94141247D01*
X148044173Y-94141247D02*
X148091792Y-94331723D01*
X148091792Y-94331723D02*
X148139411Y-94426961D01*
X148139411Y-94426961D02*
X148234649Y-94522200D01*
X148234649Y-94522200D02*
X148377506Y-94569819D01*
X148377506Y-94569819D02*
X148615601Y-94569819D01*
D11*
X132377733Y-107126441D02*
X132377733Y-105602632D01*
D10*
X157691792Y-102169819D02*
X158025125Y-101693628D01*
X158263220Y-102169819D02*
X158263220Y-101169819D01*
X158263220Y-101169819D02*
X157882268Y-101169819D01*
X157882268Y-101169819D02*
X157787030Y-101217438D01*
X157787030Y-101217438D02*
X157739411Y-101265057D01*
X157739411Y-101265057D02*
X157691792Y-101360295D01*
X157691792Y-101360295D02*
X157691792Y-101503152D01*
X157691792Y-101503152D02*
X157739411Y-101598390D01*
X157739411Y-101598390D02*
X157787030Y-101646009D01*
X157787030Y-101646009D02*
X157882268Y-101693628D01*
X157882268Y-101693628D02*
X158263220Y-101693628D01*
X157310839Y-102122200D02*
X157167982Y-102169819D01*
X157167982Y-102169819D02*
X156929887Y-102169819D01*
X156929887Y-102169819D02*
X156834649Y-102122200D01*
X156834649Y-102122200D02*
X156787030Y-102074580D01*
X156787030Y-102074580D02*
X156739411Y-101979342D01*
X156739411Y-101979342D02*
X156739411Y-101884104D01*
X156739411Y-101884104D02*
X156787030Y-101788866D01*
X156787030Y-101788866D02*
X156834649Y-101741247D01*
X156834649Y-101741247D02*
X156929887Y-101693628D01*
X156929887Y-101693628D02*
X157120363Y-101646009D01*
X157120363Y-101646009D02*
X157215601Y-101598390D01*
X157215601Y-101598390D02*
X157263220Y-101550771D01*
X157263220Y-101550771D02*
X157310839Y-101455533D01*
X157310839Y-101455533D02*
X157310839Y-101360295D01*
X157310839Y-101360295D02*
X157263220Y-101265057D01*
X157263220Y-101265057D02*
X157215601Y-101217438D01*
X157215601Y-101217438D02*
X157120363Y-101169819D01*
X157120363Y-101169819D02*
X156882268Y-101169819D01*
X156882268Y-101169819D02*
X156739411Y-101217438D01*
X156453696Y-101169819D02*
X155882268Y-101169819D01*
X156167982Y-102169819D02*
X156167982Y-101169819D01*
X153063220Y-97169819D02*
X153063220Y-96169819D01*
X153063220Y-96169819D02*
X152825125Y-96169819D01*
X152825125Y-96169819D02*
X152682268Y-96217438D01*
X152682268Y-96217438D02*
X152587030Y-96312676D01*
X152587030Y-96312676D02*
X152539411Y-96407914D01*
X152539411Y-96407914D02*
X152491792Y-96598390D01*
X152491792Y-96598390D02*
X152491792Y-96741247D01*
X152491792Y-96741247D02*
X152539411Y-96931723D01*
X152539411Y-96931723D02*
X152587030Y-97026961D01*
X152587030Y-97026961D02*
X152682268Y-97122200D01*
X152682268Y-97122200D02*
X152825125Y-97169819D01*
X152825125Y-97169819D02*
X153063220Y-97169819D01*
X152063220Y-97169819D02*
X152063220Y-96169819D01*
X151396554Y-96169819D02*
X151206078Y-96169819D01*
X151206078Y-96169819D02*
X151110840Y-96217438D01*
X151110840Y-96217438D02*
X151015602Y-96312676D01*
X151015602Y-96312676D02*
X150967983Y-96503152D01*
X150967983Y-96503152D02*
X150967983Y-96836485D01*
X150967983Y-96836485D02*
X151015602Y-97026961D01*
X151015602Y-97026961D02*
X151110840Y-97122200D01*
X151110840Y-97122200D02*
X151206078Y-97169819D01*
X151206078Y-97169819D02*
X151396554Y-97169819D01*
X151396554Y-97169819D02*
X151491792Y-97122200D01*
X151491792Y-97122200D02*
X151587030Y-97026961D01*
X151587030Y-97026961D02*
X151634649Y-96836485D01*
X151634649Y-96836485D02*
X151634649Y-96503152D01*
X151634649Y-96503152D02*
X151587030Y-96312676D01*
X151587030Y-96312676D02*
X151491792Y-96217438D01*
X151491792Y-96217438D02*
X151396554Y-96169819D01*
D12*
%TO.C,GND1*%
X153600000Y-93980000D02*
G75*
G02*
X151200000Y-93980000I-1200000J0D01*
G01*
X151200000Y-93980000D02*
G75*
G02*
X153600000Y-93980000I1200000J0D01*
G01*
%TO.C,CLK1*%
X158680000Y-99060000D02*
G75*
G02*
X156280000Y-99060000I-1200000J0D01*
G01*
X156280000Y-99060000D02*
G75*
G02*
X158680000Y-99060000I1200000J0D01*
G01*
%TO.C,U1*%
X150000000Y-98440000D02*
X149200000Y-98440000D01*
X150000000Y-98440000D02*
X150800000Y-98440000D01*
X150000000Y-101560000D02*
X148200000Y-101560000D01*
X150000000Y-101560000D02*
X150800000Y-101560000D01*
%TO.C,3.3V1*%
X151060000Y-91440000D02*
G75*
G02*
X148660000Y-91440000I-1200000J0D01*
G01*
X148660000Y-91440000D02*
G75*
G02*
X151060000Y-91440000I1200000J0D01*
G01*
%TO.C,RST1*%
X161220000Y-101600000D02*
G75*
G02*
X158820000Y-101600000I-1200000J0D01*
G01*
X158820000Y-101600000D02*
G75*
G02*
X161220000Y-101600000I1200000J0D01*
G01*
%TO.C,SIO1*%
X156140000Y-96520000D02*
G75*
G02*
X153740000Y-96520000I-1200000J0D01*
G01*
X153740000Y-96520000D02*
G75*
G02*
X156140000Y-96520000I1200000J0D01*
G01*
%TD*%
M02*
