%TF.GenerationSoftware,KiCad,Pcbnew,7.0.6*%
%TF.CreationDate,2024-06-25T21:47:37-04:00*%
%TF.ProjectId,Axis_Basic,41786973-5f42-4617-9369-632e6b696361,rev?*%
%TF.SameCoordinates,Original*%
%TF.FileFunction,Copper,L4,Bot*%
%TF.FilePolarity,Positive*%
%FSLAX46Y46*%
G04 Gerber Fmt 4.6, Leading zero omitted, Abs format (unit mm)*
G04 Created by KiCad (PCBNEW 7.0.6) date 2024-06-25 21:47:37*
%MOMM*%
%LPD*%
G01*
G04 APERTURE LIST*
G04 Aperture macros list*
%AMRoundRect*
0 Rectangle with rounded corners*
0 $1 Rounding radius*
0 $2 $3 $4 $5 $6 $7 $8 $9 X,Y pos of 4 corners*
0 Add a 4 corners polygon primitive as box body*
4,1,4,$2,$3,$4,$5,$6,$7,$8,$9,$2,$3,0*
0 Add four circle primitives for the rounded corners*
1,1,$1+$1,$2,$3*
1,1,$1+$1,$4,$5*
1,1,$1+$1,$6,$7*
1,1,$1+$1,$8,$9*
0 Add four rect primitives between the rounded corners*
20,1,$1+$1,$2,$3,$4,$5,0*
20,1,$1+$1,$4,$5,$6,$7,0*
20,1,$1+$1,$6,$7,$8,$9,0*
20,1,$1+$1,$8,$9,$2,$3,0*%
G04 Aperture macros list end*
%TA.AperFunction,ComponentPad*%
%ADD10R,1.000000X1.000000*%
%TD*%
%TA.AperFunction,ComponentPad*%
%ADD11O,1.000000X1.000000*%
%TD*%
%TA.AperFunction,ComponentPad*%
%ADD12RoundRect,0.250000X-0.625000X0.350000X-0.625000X-0.350000X0.625000X-0.350000X0.625000X0.350000X0*%
%TD*%
%TA.AperFunction,ComponentPad*%
%ADD13O,1.750000X1.200000*%
%TD*%
%TA.AperFunction,ComponentPad*%
%ADD14RoundRect,0.250000X-0.350000X-0.625000X0.350000X-0.625000X0.350000X0.625000X-0.350000X0.625000X0*%
%TD*%
%TA.AperFunction,ComponentPad*%
%ADD15O,1.200000X1.750000*%
%TD*%
%TA.AperFunction,ComponentPad*%
%ADD16C,0.500000*%
%TD*%
%TA.AperFunction,SMDPad,CuDef*%
%ADD17R,2.500000X2.500000*%
%TD*%
%TA.AperFunction,ComponentPad*%
%ADD18O,2.100000X1.000000*%
%TD*%
%TA.AperFunction,ComponentPad*%
%ADD19O,1.800000X1.000000*%
%TD*%
%TA.AperFunction,SMDPad,CuDef*%
%ADD20RoundRect,0.150000X-0.512500X-0.150000X0.512500X-0.150000X0.512500X0.150000X-0.512500X0.150000X0*%
%TD*%
%TA.AperFunction,ViaPad*%
%ADD21C,0.700000*%
%TD*%
%TA.AperFunction,ViaPad*%
%ADD22C,0.800000*%
%TD*%
%TA.AperFunction,ViaPad*%
%ADD23C,0.450000*%
%TD*%
%TA.AperFunction,Conductor*%
%ADD24C,0.200000*%
%TD*%
%TA.AperFunction,Conductor*%
%ADD25C,0.250000*%
%TD*%
%TA.AperFunction,Conductor*%
%ADD26C,1.000000*%
%TD*%
G04 APERTURE END LIST*
D10*
%TO.P,J5,1,VTref*%
%TO.N,+3.3V*%
X165000000Y-91525000D03*
D11*
%TO.P,J5,2,SWDIO/TMS*%
%TO.N,SWDIO*%
X166270000Y-91525000D03*
%TO.P,J5,3,GND*%
%TO.N,GND*%
X165000000Y-92795000D03*
%TO.P,J5,4,SWDCLK/TCK*%
%TO.N,SWCLK*%
X166270000Y-92795000D03*
%TO.P,J5,5,GND*%
%TO.N,GND*%
X165000000Y-94065000D03*
%TO.P,J5,6,SWO/TDO*%
%TO.N,unconnected-(J5-SWO{slash}TDO-Pad6)*%
X166270000Y-94065000D03*
%TO.P,J5,7,KEY*%
%TO.N,unconnected-(J5-KEY-Pad7)*%
X165000000Y-95335000D03*
%TO.P,J5,8,NC/TDI*%
%TO.N,unconnected-(J5-NC{slash}TDI-Pad8)*%
X166270000Y-95335000D03*
%TO.P,J5,9,GNDDetect*%
%TO.N,GND*%
X165000000Y-96605000D03*
%TO.P,J5,10,~{RESET}*%
%TO.N,RESET*%
X166270000Y-96605000D03*
%TD*%
D12*
%TO.P,J4,1,Pin_1*%
%TO.N,GND*%
X134450000Y-107300000D03*
D13*
%TO.P,J4,2,Pin_2*%
%TO.N,VCC*%
X134450000Y-109300000D03*
%TD*%
D14*
%TO.P,J3,1*%
%TO.N,SCL2*%
X151950000Y-115550000D03*
D15*
%TO.P,J3,2*%
%TO.N,SDA2*%
X153950000Y-115550000D03*
%TO.P,J3,3*%
%TO.N,SYNC*%
X155950000Y-115550000D03*
%TO.P,J3,4*%
%TO.N,GND*%
X157950000Y-115550000D03*
%TD*%
D16*
%TO.P,U4,29,EXP*%
%TO.N,GND*%
X141987500Y-100200000D03*
X142987500Y-100200000D03*
X143987500Y-100200000D03*
X141987500Y-99200000D03*
X142987500Y-99200000D03*
D17*
X142987500Y-99200000D03*
D16*
X143987500Y-99200000D03*
X141987500Y-98200000D03*
X142987500Y-98200000D03*
X143987500Y-98200000D03*
%TD*%
D12*
%TO.P,J2,1*%
%TO.N,MOTOR_A1*%
X134432353Y-96229412D03*
D13*
%TO.P,J2,2*%
%TO.N,MOTOR_B1*%
X134432353Y-98229412D03*
%TO.P,J2,3*%
%TO.N,MOTOR_A2*%
X134432353Y-100229412D03*
%TO.P,J2,4*%
%TO.N,MOTOR_B2*%
X134432353Y-102229412D03*
%TD*%
D18*
%TO.P,J1,S1,SHIELD*%
%TO.N,Net-(J1-SHIELD)*%
X165495000Y-110970000D03*
D19*
X169675000Y-110970000D03*
D18*
X165495000Y-102330000D03*
D19*
X169675000Y-102330000D03*
%TD*%
D20*
%TO.P,U1,1,SCL/INT*%
%TO.N,SCL1*%
X148862500Y-100950000D03*
%TO.P,U1,2,GND*%
%TO.N,GND*%
X148862500Y-100000000D03*
%TO.P,U1,3,GND*%
X148862500Y-99050000D03*
%TO.P,U1,4,VDD*%
%TO.N,+3.3V*%
X151137500Y-99050000D03*
%TO.P,U1,5,GND*%
%TO.N,GND*%
X151137500Y-100000000D03*
%TO.P,U1,6,SDA/ADDR*%
%TO.N,SDA1*%
X151137500Y-100950000D03*
%TD*%
D21*
%TO.N,GND*%
X146000000Y-90000000D03*
X166000000Y-80000000D03*
X164000000Y-80000000D03*
X162000000Y-80000000D03*
X160000000Y-80000000D03*
X158000000Y-80000000D03*
X156000000Y-80000000D03*
X154000000Y-80000000D03*
X152000000Y-80000000D03*
X150000000Y-80000000D03*
X148000000Y-80000000D03*
X146000000Y-80000000D03*
X144000000Y-80000000D03*
X142000000Y-80000000D03*
X140000000Y-80000000D03*
X138000000Y-80000000D03*
X136000000Y-80000000D03*
X134000000Y-80000000D03*
X130000000Y-84000000D03*
X130000000Y-86000000D03*
X130000000Y-88000000D03*
X130000000Y-94000000D03*
X130000000Y-96000000D03*
X130000000Y-98000000D03*
X130000000Y-100000000D03*
X130000000Y-102000000D03*
X130000000Y-104000000D03*
X130000000Y-106000000D03*
X130000000Y-108000000D03*
X130000000Y-110000000D03*
X130000000Y-112000000D03*
X130000000Y-114000000D03*
X130000000Y-116000000D03*
X138000000Y-120000000D03*
X136000000Y-120000000D03*
X134000000Y-120000000D03*
X148000000Y-120000000D03*
X150000000Y-120000000D03*
X152000000Y-120000000D03*
X154000000Y-120000000D03*
X156000000Y-120000000D03*
X158000000Y-120000000D03*
X160000000Y-120000000D03*
X162000000Y-120000000D03*
X164000000Y-120000000D03*
X166000000Y-120000000D03*
X170000000Y-115000000D03*
X170000000Y-113000000D03*
X170000000Y-109000000D03*
X170000000Y-107000000D03*
X170000000Y-105000000D03*
X170000000Y-101000000D03*
X170000000Y-99000000D03*
X170000000Y-97000000D03*
X170000000Y-95000000D03*
X170000000Y-93000000D03*
X170000000Y-91000000D03*
X170000000Y-89000000D03*
X170000000Y-87000000D03*
X170000000Y-85000000D03*
X153400000Y-101700000D03*
X155100000Y-101700000D03*
X154100000Y-96000000D03*
X154100000Y-97500000D03*
X156000000Y-99300000D03*
X157900000Y-101200000D03*
X137800000Y-93000000D03*
X137100000Y-92300000D03*
X138500000Y-92300000D03*
X156300000Y-92400000D03*
%TO.N,+3.3V*%
X145500000Y-92900000D03*
%TO.N,GND*%
X147300000Y-91300000D03*
%TO.N,+3.3V*%
X167000000Y-88100000D03*
X152600000Y-99100000D03*
X143300000Y-116800000D03*
X143600000Y-84100000D03*
X162000000Y-91600000D03*
X146600000Y-106800000D03*
X143300000Y-115400000D03*
X142100000Y-116100000D03*
X143600000Y-83200000D03*
X142500000Y-116800000D03*
X158900000Y-108200000D03*
X141700000Y-116800000D03*
X160800000Y-86500000D03*
X143700000Y-116100000D03*
X162700000Y-93600000D03*
X147769514Y-103541417D03*
X152100000Y-110900000D03*
X161556479Y-105263787D03*
X141300000Y-116100000D03*
D22*
X130400000Y-90700000D03*
D21*
X145500000Y-96800000D03*
X142900000Y-116100000D03*
X143600000Y-82300000D03*
X142500000Y-115400000D03*
X141700000Y-115400000D03*
X150350500Y-111100000D03*
X155600000Y-110800000D03*
%TO.N,GND*%
X152600000Y-100000000D03*
X162763337Y-91124162D03*
X159400000Y-98100000D03*
X163200000Y-102600000D03*
X143700000Y-119800000D03*
X157100000Y-108500000D03*
X137900000Y-106300000D03*
X139400000Y-107000000D03*
X138400000Y-107000000D03*
X144500000Y-119800000D03*
X141300000Y-119800000D03*
X146609266Y-104179912D03*
X146100000Y-119800000D03*
X142900000Y-119800000D03*
X140500000Y-119800000D03*
X156600000Y-82300000D03*
X139700000Y-119800000D03*
X156600000Y-84100000D03*
X138900000Y-106300000D03*
X156600000Y-83200000D03*
X161700000Y-93474500D03*
X136900000Y-106300000D03*
X145300000Y-119800000D03*
X142100000Y-119800000D03*
X147682338Y-99407146D03*
X137400000Y-107000000D03*
X151400000Y-90800000D03*
X142900000Y-93300000D03*
X148400000Y-111900000D03*
X163900000Y-110400000D03*
X160564830Y-106364830D03*
%TO.N,VCC*%
X141600000Y-91700000D03*
X140700000Y-92550000D03*
X140650000Y-105800000D03*
X140650000Y-106650000D03*
X141600000Y-92550000D03*
X141550000Y-105800000D03*
X141550000Y-106650000D03*
X140700000Y-91700000D03*
%TO.N,RESET*%
X162900000Y-100600000D03*
X163400000Y-108300000D03*
D23*
%TO.N,MOTOR_A1*%
X141400000Y-95450000D03*
X140900000Y-95700000D03*
X141400000Y-96000000D03*
X140900000Y-96300000D03*
%TO.N,MOTOR_B2*%
X141399970Y-103000000D03*
X140899970Y-102100000D03*
X141399970Y-102400000D03*
X140899970Y-102700000D03*
D22*
%TO.N,SWCLK*%
X166736837Y-90058563D03*
X163900000Y-92300000D03*
D21*
%TO.N,SCL1*%
X158128936Y-102871064D03*
X145600000Y-88100000D03*
%TO.N,SDA1*%
X144600000Y-88000000D03*
X156700000Y-102500000D03*
%TO.N,EEPROM_CS*%
X159100000Y-102200000D03*
X159300000Y-86500000D03*
%TO.N,EN*%
X149771064Y-105725500D03*
X142363000Y-102900000D03*
%TO.N,MISO*%
X156459409Y-89771856D03*
X158600000Y-88100000D03*
%TO.N,SCK*%
X155602894Y-89497106D03*
X164740574Y-88500000D03*
%TO.N,MOSI*%
X164769104Y-89413664D03*
X157427846Y-90190687D03*
%TD*%
D24*
%TO.N,RESET*%
X167600000Y-97935000D02*
X167600000Y-104100000D01*
X167600000Y-104100000D02*
X163400000Y-108300000D01*
X166270000Y-96605000D02*
X167600000Y-97935000D01*
X162900000Y-99975000D02*
X166270000Y-96605000D01*
X162900000Y-100600000D02*
X162900000Y-99975000D01*
%TO.N,MOSI*%
X158100000Y-89000000D02*
X157427846Y-89672154D01*
X163178909Y-89000000D02*
X158100000Y-89000000D01*
X163592573Y-89413664D02*
X163178909Y-89000000D01*
X164769104Y-89413664D02*
X163592573Y-89413664D01*
X157427846Y-89672154D02*
X157427846Y-90190687D01*
D25*
%TO.N,SWCLK*%
X164900000Y-90075000D02*
X163900000Y-91075000D01*
X165096032Y-90058563D02*
X165079595Y-90075000D01*
X163900000Y-91075000D02*
X163900000Y-92300000D01*
X166736837Y-90058563D02*
X165096032Y-90058563D01*
X165079595Y-90075000D02*
X164900000Y-90075000D01*
D24*
%TO.N,SCK*%
X163244595Y-88500000D02*
X162194595Y-87450000D01*
X162194595Y-87450000D02*
X157650000Y-87450000D01*
X157650000Y-87450000D02*
X155602894Y-89497106D01*
X164740574Y-88500000D02*
X163244595Y-88500000D01*
%TO.N,EEPROM_CS*%
X157680761Y-86500000D02*
X159300000Y-86500000D01*
X154952894Y-89227867D02*
X157680761Y-86500000D01*
X154952894Y-95152894D02*
X154952894Y-89227867D01*
X159100000Y-99300000D02*
X154952894Y-95152894D01*
X159100000Y-102200000D02*
X159100000Y-99300000D01*
%TO.N,+3.3V*%
X151137500Y-99050000D02*
X152550000Y-99050000D01*
X150561747Y-99050000D02*
X151137500Y-99050000D01*
X152550000Y-99050000D02*
X152600000Y-99100000D01*
%TO.N,GND*%
X148862500Y-100000000D02*
X148275192Y-100000000D01*
X151137500Y-100000000D02*
X152600000Y-100000000D01*
X148275192Y-100000000D02*
X147682338Y-99407146D01*
X148862500Y-99050000D02*
X148862500Y-100000000D01*
X151137500Y-100000000D02*
X148862500Y-100000000D01*
D26*
%TO.N,MOTOR_A1*%
X134432353Y-96229412D02*
X140820588Y-96229412D01*
X140820588Y-96229412D02*
X141350000Y-95700000D01*
%TO.N,MOTOR_B2*%
X134432353Y-102229412D02*
X140779412Y-102229412D01*
X140779412Y-102229412D02*
X141250000Y-102700000D01*
D24*
%TO.N,SCL1*%
X158128936Y-102871064D02*
X148850000Y-93592128D01*
X148950000Y-100950000D02*
X151150000Y-103150000D01*
X148862500Y-100950000D02*
X148950000Y-100950000D01*
X157850000Y-103150000D02*
X158128936Y-102871064D01*
X151150000Y-103150000D02*
X157850000Y-103150000D01*
X148850000Y-93592128D02*
X148850000Y-91350000D01*
X148850000Y-91350000D02*
X145600000Y-88100000D01*
%TO.N,SDA1*%
X144600000Y-88000000D02*
X144600000Y-90180761D01*
X144600000Y-90180761D02*
X156700000Y-102280761D01*
X156700000Y-102280761D02*
X156700000Y-102500000D01*
X156700000Y-102500000D02*
X152687500Y-102500000D01*
X152687500Y-102500000D02*
X151137500Y-100950000D01*
%TO.N,EN*%
X145063000Y-105600000D02*
X142363000Y-102900000D01*
X149645564Y-105600000D02*
X145063000Y-105600000D01*
X149771064Y-105725500D02*
X149645564Y-105600000D01*
%TO.N,MISO*%
X156459409Y-89540591D02*
X157900000Y-88100000D01*
X156459409Y-89771856D02*
X156459409Y-89540591D01*
X157900000Y-88100000D02*
X158600000Y-88100000D01*
%TD*%
%TA.AperFunction,Conductor*%
%TO.N,GND*%
G36*
X145114733Y-88390290D02*
G01*
X145154979Y-88424332D01*
X145207379Y-88492621D01*
X145322375Y-88580861D01*
X145456291Y-88636330D01*
X145600000Y-88655250D01*
X145654495Y-88648075D01*
X145723530Y-88658840D01*
X145758362Y-88683333D01*
X148513181Y-91438152D01*
X148546666Y-91499475D01*
X148549500Y-91525833D01*
X148549500Y-93405928D01*
X148529815Y-93472967D01*
X148477011Y-93518722D01*
X148407853Y-93528666D01*
X148344297Y-93499641D01*
X148337819Y-93493609D01*
X144936819Y-90092609D01*
X144903334Y-90031286D01*
X144900500Y-90004928D01*
X144900500Y-88524458D01*
X144920185Y-88457419D01*
X144949011Y-88426084D01*
X144981121Y-88401445D01*
X145046288Y-88376252D01*
X145114733Y-88390290D01*
G37*
%TD.AperFunction*%
%TA.AperFunction,Conductor*%
G36*
X165717445Y-79009493D02*
G01*
X165958385Y-79020013D01*
X165963320Y-79020427D01*
X166193261Y-79049089D01*
X166421921Y-79079193D01*
X166426490Y-79079972D01*
X166655391Y-79127968D01*
X166793210Y-79158522D01*
X166878677Y-79177470D01*
X166882939Y-79178575D01*
X167107969Y-79245569D01*
X167325459Y-79314144D01*
X167329305Y-79315498D01*
X167548675Y-79401097D01*
X167758977Y-79488208D01*
X167762437Y-79489768D01*
X167974350Y-79593365D01*
X168176129Y-79698405D01*
X168179238Y-79700139D01*
X168285211Y-79763284D01*
X168382116Y-79821027D01*
X168573954Y-79943242D01*
X168576669Y-79945074D01*
X168769063Y-80082440D01*
X168949600Y-80220971D01*
X168951872Y-80222805D01*
X169132397Y-80375701D01*
X169132415Y-80375716D01*
X169301239Y-80530416D01*
X169469583Y-80698760D01*
X169624281Y-80867582D01*
X169777186Y-81048117D01*
X169779044Y-81050421D01*
X169917559Y-81230937D01*
X169947426Y-81272768D01*
X170054924Y-81423329D01*
X170056755Y-81426043D01*
X170142495Y-81560627D01*
X170156098Y-81581979D01*
X170178973Y-81617884D01*
X170299859Y-81820760D01*
X170301593Y-81823868D01*
X170404930Y-82022377D01*
X170406634Y-82025649D01*
X170407601Y-82027627D01*
X170510220Y-82237539D01*
X170511800Y-82241043D01*
X170598915Y-82451357D01*
X170684487Y-82670659D01*
X170685859Y-82674553D01*
X170754426Y-82892017D01*
X170821420Y-83117049D01*
X170822528Y-83121321D01*
X170872038Y-83344640D01*
X170920022Y-83573488D01*
X170920811Y-83578120D01*
X170950917Y-83806795D01*
X170979569Y-84036662D01*
X170979986Y-84041629D01*
X170990505Y-84282545D01*
X170999500Y-84500001D01*
X170999500Y-102132514D01*
X170979815Y-102199553D01*
X170927011Y-102245308D01*
X170857853Y-102255252D01*
X170794297Y-102226227D01*
X170756523Y-102167449D01*
X170755103Y-102162189D01*
X170751305Y-102146779D01*
X170734790Y-102079775D01*
X170722465Y-102056291D01*
X170655736Y-101929150D01*
X170612095Y-101879890D01*
X170542929Y-101801817D01*
X170457110Y-101742580D01*
X170402931Y-101705182D01*
X170243874Y-101644860D01*
X170243868Y-101644859D01*
X170117374Y-101629500D01*
X170117372Y-101629500D01*
X169232628Y-101629500D01*
X169232626Y-101629500D01*
X169106131Y-101644859D01*
X169106125Y-101644860D01*
X168947068Y-101705182D01*
X168807072Y-101801816D01*
X168694263Y-101929150D01*
X168615210Y-102079773D01*
X168574499Y-102244944D01*
X168574500Y-102244944D01*
X168574500Y-102415056D01*
X168584574Y-102455928D01*
X168615210Y-102580226D01*
X168694263Y-102730849D01*
X168694266Y-102730852D01*
X168807071Y-102858183D01*
X168867652Y-102899999D01*
X168947068Y-102954817D01*
X168947069Y-102954817D01*
X168947070Y-102954818D01*
X168977164Y-102966231D01*
X169106080Y-103015122D01*
X169106128Y-103015140D01*
X169182028Y-103024356D01*
X169232626Y-103030500D01*
X169232628Y-103030500D01*
X170117374Y-103030500D01*
X170159538Y-103025380D01*
X170243872Y-103015140D01*
X170402930Y-102954818D01*
X170542929Y-102858183D01*
X170655734Y-102730852D01*
X170657570Y-102727355D01*
X170734790Y-102580225D01*
X170755103Y-102497811D01*
X170790259Y-102437430D01*
X170852478Y-102405641D01*
X170922007Y-102412537D01*
X170976770Y-102455928D01*
X170999380Y-102522038D01*
X170999500Y-102527485D01*
X170999500Y-110772514D01*
X170979815Y-110839553D01*
X170927011Y-110885308D01*
X170857853Y-110895252D01*
X170794297Y-110866227D01*
X170756523Y-110807449D01*
X170755103Y-110802189D01*
X170743789Y-110756287D01*
X170734790Y-110719775D01*
X170701469Y-110656287D01*
X170655736Y-110569150D01*
X170634119Y-110544750D01*
X170542929Y-110441817D01*
X170429716Y-110363671D01*
X170402931Y-110345182D01*
X170243874Y-110284860D01*
X170243868Y-110284859D01*
X170117374Y-110269500D01*
X170117372Y-110269500D01*
X169232628Y-110269500D01*
X169232626Y-110269500D01*
X169106131Y-110284859D01*
X169106125Y-110284860D01*
X168947068Y-110345182D01*
X168807072Y-110441816D01*
X168694263Y-110569150D01*
X168615210Y-110719773D01*
X168574500Y-110884944D01*
X168574500Y-111055055D01*
X168615210Y-111220226D01*
X168694263Y-111370849D01*
X168700266Y-111377625D01*
X168807071Y-111498183D01*
X168897318Y-111560476D01*
X168947068Y-111594817D01*
X168947069Y-111594817D01*
X168947070Y-111594818D01*
X169106128Y-111655140D01*
X169182028Y-111664356D01*
X169232626Y-111670500D01*
X169232628Y-111670500D01*
X170117374Y-111670500D01*
X170159538Y-111665380D01*
X170243872Y-111655140D01*
X170402930Y-111594818D01*
X170542929Y-111498183D01*
X170655734Y-111370852D01*
X170673854Y-111336329D01*
X170734790Y-111220225D01*
X170755103Y-111137811D01*
X170790259Y-111077430D01*
X170852478Y-111045641D01*
X170922007Y-111052537D01*
X170976770Y-111095928D01*
X170999380Y-111162038D01*
X170999500Y-111167485D01*
X170999500Y-115499999D01*
X170990505Y-115717454D01*
X170979986Y-115958369D01*
X170979569Y-115963336D01*
X170950917Y-116193204D01*
X170920811Y-116421878D01*
X170920022Y-116426510D01*
X170872038Y-116655359D01*
X170822528Y-116878677D01*
X170821420Y-116882949D01*
X170754426Y-117107982D01*
X170685859Y-117325445D01*
X170684487Y-117329339D01*
X170598915Y-117548642D01*
X170511800Y-117758955D01*
X170510220Y-117762459D01*
X170406638Y-117974342D01*
X170301592Y-118176130D01*
X170299859Y-118179238D01*
X170178973Y-118382115D01*
X170056755Y-118573955D01*
X170054924Y-118576668D01*
X169917565Y-118769055D01*
X169779044Y-118949577D01*
X169777168Y-118951904D01*
X169624283Y-119132414D01*
X169469583Y-119301239D01*
X169301239Y-119469583D01*
X169132414Y-119624283D01*
X168951904Y-119777168D01*
X168949577Y-119779044D01*
X168769055Y-119917565D01*
X168576668Y-120054924D01*
X168573955Y-120056755D01*
X168382115Y-120178973D01*
X168179238Y-120299859D01*
X168176130Y-120301592D01*
X167974342Y-120406638D01*
X167762459Y-120510220D01*
X167758955Y-120511800D01*
X167548642Y-120598915D01*
X167329339Y-120684487D01*
X167325445Y-120685859D01*
X167107982Y-120754426D01*
X166882949Y-120821420D01*
X166878677Y-120822528D01*
X166655359Y-120872038D01*
X166426510Y-120920022D01*
X166421878Y-120920811D01*
X166193204Y-120950917D01*
X165963336Y-120979569D01*
X165958369Y-120979986D01*
X165717454Y-120990505D01*
X165499999Y-120999500D01*
X134500001Y-120999500D01*
X134282545Y-120990505D01*
X134041629Y-120979986D01*
X134036662Y-120979569D01*
X133806795Y-120950917D01*
X133578120Y-120920811D01*
X133573488Y-120920022D01*
X133344640Y-120872038D01*
X133121321Y-120822528D01*
X133117049Y-120821420D01*
X132892017Y-120754426D01*
X132674553Y-120685859D01*
X132670659Y-120684487D01*
X132451357Y-120598915D01*
X132241043Y-120511800D01*
X132237539Y-120510220D01*
X132105816Y-120445825D01*
X132025654Y-120406636D01*
X131823866Y-120301592D01*
X131820760Y-120299859D01*
X131657629Y-120202655D01*
X131617883Y-120178972D01*
X131560627Y-120142495D01*
X131426043Y-120056755D01*
X131423329Y-120054924D01*
X131293067Y-119961919D01*
X131230944Y-119917564D01*
X131154486Y-119858897D01*
X131050421Y-119779044D01*
X131048117Y-119777186D01*
X130867582Y-119624281D01*
X130698760Y-119469583D01*
X130530416Y-119301239D01*
X130375716Y-119132415D01*
X130375715Y-119132414D01*
X130222805Y-118951872D01*
X130220971Y-118949600D01*
X130082440Y-118769063D01*
X129955123Y-118590744D01*
X129945074Y-118576669D01*
X129943242Y-118573954D01*
X129821027Y-118382115D01*
X129719118Y-118211090D01*
X129700139Y-118179238D01*
X129698405Y-118176129D01*
X129593365Y-117974350D01*
X129489768Y-117762437D01*
X129488208Y-117758977D01*
X129401097Y-117548675D01*
X129315498Y-117329305D01*
X129314144Y-117325459D01*
X129245564Y-117107951D01*
X129178578Y-116882949D01*
X129177470Y-116878677D01*
X129145527Y-116734594D01*
X129127961Y-116655359D01*
X129079972Y-116426490D01*
X129079193Y-116421921D01*
X129049082Y-116193204D01*
X129020427Y-115963320D01*
X129020013Y-115958385D01*
X129009491Y-115717381D01*
X129008125Y-115684371D01*
X131099500Y-115684371D01*
X131139367Y-116050946D01*
X131218635Y-116411065D01*
X131274813Y-116577793D01*
X131336375Y-116760503D01*
X131336377Y-116760508D01*
X131336379Y-116760513D01*
X131491200Y-117095153D01*
X131491202Y-117095157D01*
X131491204Y-117095161D01*
X131491205Y-117095162D01*
X131681310Y-117411119D01*
X131869261Y-117658364D01*
X131904461Y-117704669D01*
X131955904Y-117758977D01*
X132158044Y-117972373D01*
X132439083Y-118211090D01*
X132744284Y-118418022D01*
X132744288Y-118418024D01*
X132744291Y-118418026D01*
X132913889Y-118507941D01*
X133070070Y-118590743D01*
X133412621Y-118727227D01*
X133412627Y-118727228D01*
X133412628Y-118727229D01*
X133412634Y-118727231D01*
X133688226Y-118803748D01*
X133767919Y-118825875D01*
X133767930Y-118825876D01*
X133767931Y-118825877D01*
X134131786Y-118885529D01*
X134131790Y-118885529D01*
X134131801Y-118885531D01*
X134407890Y-118900500D01*
X134407892Y-118900500D01*
X134592108Y-118900500D01*
X134592110Y-118900500D01*
X134868199Y-118885531D01*
X134868210Y-118885529D01*
X134868213Y-118885529D01*
X135120077Y-118844237D01*
X135232081Y-118825875D01*
X135587379Y-118727227D01*
X135929930Y-118590743D01*
X136255716Y-118418022D01*
X136560917Y-118211090D01*
X136841956Y-117972373D01*
X137095538Y-117704670D01*
X137318690Y-117411119D01*
X137508795Y-117095162D01*
X137663625Y-116760503D01*
X137781364Y-116411066D01*
X137849835Y-116100000D01*
X140744750Y-116100000D01*
X140756141Y-116186525D01*
X140763670Y-116243708D01*
X140763671Y-116243712D01*
X140819137Y-116377622D01*
X140819138Y-116377624D01*
X140819139Y-116377625D01*
X140907379Y-116492621D01*
X141022375Y-116580861D01*
X141022376Y-116580861D01*
X141022377Y-116580862D01*
X141077873Y-116603849D01*
X141132277Y-116647690D01*
X141154342Y-116713984D01*
X141153360Y-116734594D01*
X141144750Y-116799996D01*
X141144750Y-116800000D01*
X141163670Y-116943708D01*
X141163671Y-116943712D01*
X141219137Y-117077622D01*
X141219138Y-117077624D01*
X141219139Y-117077625D01*
X141307379Y-117192621D01*
X141422375Y-117280861D01*
X141556291Y-117336330D01*
X141683280Y-117353048D01*
X141699999Y-117355250D01*
X141700000Y-117355250D01*
X141700001Y-117355250D01*
X141714977Y-117353278D01*
X141843709Y-117336330D01*
X141977625Y-117280861D01*
X142024514Y-117244881D01*
X142089682Y-117219687D01*
X142158127Y-117233725D01*
X142175483Y-117244880D01*
X142222375Y-117280861D01*
X142356291Y-117336330D01*
X142483280Y-117353048D01*
X142499999Y-117355250D01*
X142500000Y-117355250D01*
X142500001Y-117355250D01*
X142514977Y-117353278D01*
X142643709Y-117336330D01*
X142777625Y-117280861D01*
X142824514Y-117244881D01*
X142889682Y-117219687D01*
X142958127Y-117233725D01*
X142975483Y-117244880D01*
X143022375Y-117280861D01*
X143156291Y-117336330D01*
X143283280Y-117353048D01*
X143299999Y-117355250D01*
X143300000Y-117355250D01*
X143300001Y-117355250D01*
X143314977Y-117353278D01*
X143443709Y-117336330D01*
X143577625Y-117280861D01*
X143692621Y-117192621D01*
X143780861Y-117077625D01*
X143836330Y-116943709D01*
X143855250Y-116800000D01*
X143855249Y-116799996D01*
X143846639Y-116734596D01*
X143857404Y-116665561D01*
X143903784Y-116613305D01*
X143922115Y-116603853D01*
X143977625Y-116580861D01*
X144092621Y-116492621D01*
X144180861Y-116377625D01*
X144236330Y-116243709D01*
X144238231Y-116229269D01*
X151149500Y-116229269D01*
X151152353Y-116259699D01*
X151152353Y-116259701D01*
X151193618Y-116377625D01*
X151197207Y-116387882D01*
X151277850Y-116497150D01*
X151387118Y-116577793D01*
X151429845Y-116592744D01*
X151515299Y-116622646D01*
X151545730Y-116625500D01*
X151545734Y-116625500D01*
X152354270Y-116625500D01*
X152384699Y-116622646D01*
X152384701Y-116622646D01*
X152448790Y-116600219D01*
X152512882Y-116577793D01*
X152622150Y-116497150D01*
X152702793Y-116387882D01*
X152725219Y-116323790D01*
X152747646Y-116259701D01*
X152747646Y-116259699D01*
X152750500Y-116229269D01*
X152750500Y-115869960D01*
X153149500Y-115869960D01*
X153164630Y-116004249D01*
X153164631Y-116004254D01*
X153224211Y-116174523D01*
X153320184Y-116327261D01*
X153320184Y-116327262D01*
X153447738Y-116454816D01*
X153600478Y-116550789D01*
X153752112Y-116603848D01*
X153770745Y-116610368D01*
X153770750Y-116610369D01*
X153949996Y-116630565D01*
X153950000Y-116630565D01*
X153950004Y-116630565D01*
X154129249Y-116610369D01*
X154129252Y-116610368D01*
X154129255Y-116610368D01*
X154299522Y-116550789D01*
X154452262Y-116454816D01*
X154579816Y-116327262D01*
X154675789Y-116174522D01*
X154735368Y-116004255D01*
X154739979Y-115963336D01*
X154744298Y-115925000D01*
X154750499Y-115869960D01*
X155149500Y-115869960D01*
X155164630Y-116004249D01*
X155164631Y-116004254D01*
X155224211Y-116174523D01*
X155320184Y-116327261D01*
X155320184Y-116327262D01*
X155447738Y-116454816D01*
X155600478Y-116550789D01*
X155752112Y-116603848D01*
X155770745Y-116610368D01*
X155770750Y-116610369D01*
X155949996Y-116630565D01*
X155950000Y-116630565D01*
X155950004Y-116630565D01*
X156129249Y-116610369D01*
X156129252Y-116610368D01*
X156129255Y-116610368D01*
X156299522Y-116550789D01*
X156452262Y-116454816D01*
X156579816Y-116327262D01*
X156675789Y-116174522D01*
X156675789Y-116174519D01*
X156675792Y-116174516D01*
X156678812Y-116168247D01*
X156681557Y-116169569D01*
X156714351Y-116123781D01*
X156779286Y-116097990D01*
X156847857Y-116111399D01*
X156898292Y-116159752D01*
X156909714Y-116186525D01*
X156924149Y-116235686D01*
X157020413Y-116422414D01*
X157150268Y-116587537D01*
X157150271Y-116587540D01*
X157309030Y-116725105D01*
X157309041Y-116725114D01*
X157490960Y-116830144D01*
X157490967Y-116830147D01*
X157689487Y-116898856D01*
X157700000Y-116900367D01*
X157699999Y-115830616D01*
X157769052Y-115884363D01*
X157887424Y-115925000D01*
X157981073Y-115925000D01*
X158073446Y-115909586D01*
X158183514Y-115850019D01*
X158200000Y-115832110D01*
X158200000Y-116896257D01*
X158311409Y-116869229D01*
X158502507Y-116781959D01*
X158673619Y-116660110D01*
X158673625Y-116660104D01*
X158818592Y-116508067D01*
X158932166Y-116331342D01*
X159010244Y-116136314D01*
X159050000Y-115930037D01*
X159050000Y-115800000D01*
X158229560Y-115800000D01*
X158268278Y-115757941D01*
X158300549Y-115684371D01*
X162099500Y-115684371D01*
X162139367Y-116050946D01*
X162218635Y-116411065D01*
X162274813Y-116577793D01*
X162336375Y-116760503D01*
X162336377Y-116760508D01*
X162336379Y-116760513D01*
X162491200Y-117095153D01*
X162491202Y-117095157D01*
X162491204Y-117095161D01*
X162491205Y-117095162D01*
X162681310Y-117411119D01*
X162869261Y-117658364D01*
X162904461Y-117704669D01*
X162955904Y-117758977D01*
X163158044Y-117972373D01*
X163439083Y-118211090D01*
X163744284Y-118418022D01*
X163744288Y-118418024D01*
X163744291Y-118418026D01*
X163913889Y-118507941D01*
X164070070Y-118590743D01*
X164412621Y-118727227D01*
X164412627Y-118727228D01*
X164412628Y-118727229D01*
X164412634Y-118727231D01*
X164688226Y-118803748D01*
X164767919Y-118825875D01*
X164767930Y-118825876D01*
X164767931Y-118825877D01*
X165131786Y-118885529D01*
X165131790Y-118885529D01*
X165131801Y-118885531D01*
X165407890Y-118900500D01*
X165407892Y-118900500D01*
X165592108Y-118900500D01*
X165592110Y-118900500D01*
X165868199Y-118885531D01*
X165868210Y-118885529D01*
X165868213Y-118885529D01*
X166120077Y-118844237D01*
X166232081Y-118825875D01*
X166587379Y-118727227D01*
X166929930Y-118590743D01*
X167255716Y-118418022D01*
X167560917Y-118211090D01*
X167841956Y-117972373D01*
X168095538Y-117704670D01*
X168318690Y-117411119D01*
X168508795Y-117095162D01*
X168663625Y-116760503D01*
X168781364Y-116411066D01*
X168860632Y-116050948D01*
X168900500Y-115684370D01*
X168900500Y-115315630D01*
X168860632Y-114949052D01*
X168781364Y-114588934D01*
X168663625Y-114239497D01*
X168645881Y-114201144D01*
X168508799Y-113904846D01*
X168508797Y-113904842D01*
X168508795Y-113904838D01*
X168318690Y-113588881D01*
X168095538Y-113295330D01*
X167841956Y-113027627D01*
X167560917Y-112788910D01*
X167255716Y-112581978D01*
X167255713Y-112581976D01*
X167255708Y-112581973D01*
X166929938Y-112409261D01*
X166929926Y-112409255D01*
X166587371Y-112272770D01*
X166587365Y-112272768D01*
X166232094Y-112174128D01*
X166232068Y-112174122D01*
X165868213Y-112114470D01*
X165868200Y-112114469D01*
X165868199Y-112114469D01*
X165592110Y-112099500D01*
X165407890Y-112099500D01*
X165131801Y-112114469D01*
X165131799Y-112114469D01*
X165131786Y-112114470D01*
X164767931Y-112174122D01*
X164767905Y-112174128D01*
X164412634Y-112272768D01*
X164412628Y-112272770D01*
X164070073Y-112409255D01*
X164070061Y-112409261D01*
X163744291Y-112581973D01*
X163744282Y-112581979D01*
X163439083Y-112788909D01*
X163158044Y-113027626D01*
X162904462Y-113295330D01*
X162904461Y-113295330D01*
X162757685Y-113488410D01*
X162681310Y-113588881D01*
X162681309Y-113588883D01*
X162491202Y-113904842D01*
X162491200Y-113904846D01*
X162336379Y-114239486D01*
X162218635Y-114588934D01*
X162139367Y-114949053D01*
X162099500Y-115315628D01*
X162099500Y-115684371D01*
X158300549Y-115684371D01*
X158318551Y-115643330D01*
X158328886Y-115518605D01*
X158298163Y-115397281D01*
X158234606Y-115300000D01*
X159050000Y-115300000D01*
X159049999Y-115222601D01*
X159035034Y-115065877D01*
X159035033Y-115065873D01*
X158975850Y-114864313D01*
X158879586Y-114677585D01*
X158749731Y-114512462D01*
X158749728Y-114512459D01*
X158590969Y-114374894D01*
X158590958Y-114374885D01*
X158409039Y-114269855D01*
X158409032Y-114269852D01*
X158210516Y-114201144D01*
X158200000Y-114199632D01*
X158200000Y-115269382D01*
X158130948Y-115215637D01*
X158012576Y-115175000D01*
X157918927Y-115175000D01*
X157826554Y-115190414D01*
X157716486Y-115249981D01*
X157699999Y-115267890D01*
X157699999Y-114203740D01*
X157588594Y-114230768D01*
X157588582Y-114230772D01*
X157397497Y-114318037D01*
X157397496Y-114318038D01*
X157226380Y-114439889D01*
X157226374Y-114439895D01*
X157081407Y-114591932D01*
X156967832Y-114768659D01*
X156905637Y-114924014D01*
X156862447Y-114978935D01*
X156796420Y-115001787D01*
X156728520Y-114985314D01*
X156680304Y-114934747D01*
X156678801Y-114931731D01*
X156675790Y-114925480D01*
X156675789Y-114925478D01*
X156579816Y-114772738D01*
X156452262Y-114645184D01*
X156384888Y-114602850D01*
X156299523Y-114549211D01*
X156129254Y-114489631D01*
X156129249Y-114489630D01*
X155950004Y-114469435D01*
X155949996Y-114469435D01*
X155770750Y-114489630D01*
X155770745Y-114489631D01*
X155600476Y-114549211D01*
X155447737Y-114645184D01*
X155320184Y-114772737D01*
X155224211Y-114925476D01*
X155164631Y-115095745D01*
X155164630Y-115095750D01*
X155149500Y-115230039D01*
X155149500Y-115869960D01*
X154750499Y-115869960D01*
X154750500Y-115869954D01*
X154750500Y-115230046D01*
X154738369Y-115122377D01*
X154735369Y-115095750D01*
X154735368Y-115095745D01*
X154702491Y-115001787D01*
X154675789Y-114925478D01*
X154671805Y-114919138D01*
X154579815Y-114772737D01*
X154452262Y-114645184D01*
X154299523Y-114549211D01*
X154129254Y-114489631D01*
X154129249Y-114489630D01*
X153950004Y-114469435D01*
X153949996Y-114469435D01*
X153770750Y-114489630D01*
X153770745Y-114489631D01*
X153600476Y-114549211D01*
X153447737Y-114645184D01*
X153320184Y-114772737D01*
X153224211Y-114925476D01*
X153164631Y-115095745D01*
X153164630Y-115095750D01*
X153149500Y-115230039D01*
X153149500Y-115869960D01*
X152750500Y-115869960D01*
X152750500Y-114870730D01*
X152747646Y-114840300D01*
X152747646Y-114840298D01*
X152702793Y-114712119D01*
X152702792Y-114712117D01*
X152622150Y-114602850D01*
X152512882Y-114522207D01*
X152512880Y-114522206D01*
X152384700Y-114477353D01*
X152354270Y-114474500D01*
X152354266Y-114474500D01*
X151545734Y-114474500D01*
X151545730Y-114474500D01*
X151515300Y-114477353D01*
X151515298Y-114477353D01*
X151387119Y-114522206D01*
X151387117Y-114522207D01*
X151277850Y-114602850D01*
X151197207Y-114712117D01*
X151197206Y-114712119D01*
X151152353Y-114840298D01*
X151152353Y-114840300D01*
X151149500Y-114870730D01*
X151149500Y-116229269D01*
X144238231Y-116229269D01*
X144255250Y-116100000D01*
X144236330Y-115956291D01*
X144180861Y-115822375D01*
X144092621Y-115707379D01*
X143977625Y-115619139D01*
X143959206Y-115611509D01*
X143922125Y-115596150D01*
X143867722Y-115552309D01*
X143845657Y-115486014D01*
X143846639Y-115465403D01*
X143855250Y-115400000D01*
X143855250Y-115399999D01*
X143853048Y-115383280D01*
X143836330Y-115256291D01*
X143780861Y-115122375D01*
X143692621Y-115007379D01*
X143577625Y-114919139D01*
X143577624Y-114919138D01*
X143577622Y-114919137D01*
X143443712Y-114863671D01*
X143443710Y-114863670D01*
X143443709Y-114863670D01*
X143371854Y-114854210D01*
X143300001Y-114844750D01*
X143299999Y-114844750D01*
X143156291Y-114863670D01*
X143156287Y-114863671D01*
X143022376Y-114919138D01*
X143022374Y-114919139D01*
X142975486Y-114955118D01*
X142910317Y-114980312D01*
X142841872Y-114966274D01*
X142824514Y-114955118D01*
X142777625Y-114919139D01*
X142777623Y-114919138D01*
X142643712Y-114863671D01*
X142643710Y-114863670D01*
X142643709Y-114863670D01*
X142571854Y-114854210D01*
X142500001Y-114844750D01*
X142499999Y-114844750D01*
X142356291Y-114863670D01*
X142356287Y-114863671D01*
X142222376Y-114919138D01*
X142222374Y-114919139D01*
X142175486Y-114955118D01*
X142110317Y-114980312D01*
X142041872Y-114966274D01*
X142024514Y-114955118D01*
X141977625Y-114919139D01*
X141977623Y-114919138D01*
X141843712Y-114863671D01*
X141843710Y-114863670D01*
X141843709Y-114863670D01*
X141771854Y-114854210D01*
X141700001Y-114844750D01*
X141699999Y-114844750D01*
X141556291Y-114863670D01*
X141556287Y-114863671D01*
X141422377Y-114919137D01*
X141307379Y-115007379D01*
X141219137Y-115122377D01*
X141163671Y-115256287D01*
X141163670Y-115256291D01*
X141144750Y-115399999D01*
X141144750Y-115400002D01*
X141153360Y-115465404D01*
X141142594Y-115534440D01*
X141096214Y-115586695D01*
X141077875Y-115596150D01*
X141022375Y-115619139D01*
X140907379Y-115707379D01*
X140819137Y-115822377D01*
X140763671Y-115956287D01*
X140763670Y-115956291D01*
X140745015Y-116097990D01*
X140744750Y-116100000D01*
X137849835Y-116100000D01*
X137860632Y-116050948D01*
X137900500Y-115684370D01*
X137900500Y-115315630D01*
X137860632Y-114949052D01*
X137781364Y-114588934D01*
X137663625Y-114239497D01*
X137645881Y-114201144D01*
X137508799Y-113904846D01*
X137508797Y-113904842D01*
X137508795Y-113904838D01*
X137318690Y-113588881D01*
X137095538Y-113295330D01*
X136841956Y-113027627D01*
X136560917Y-112788910D01*
X136255716Y-112581978D01*
X136255713Y-112581976D01*
X136255708Y-112581973D01*
X135929938Y-112409261D01*
X135929926Y-112409255D01*
X135587371Y-112272770D01*
X135587365Y-112272768D01*
X135232094Y-112174128D01*
X135232068Y-112174122D01*
X134868213Y-112114470D01*
X134868200Y-112114469D01*
X134868199Y-112114469D01*
X134592110Y-112099500D01*
X134407890Y-112099500D01*
X134131801Y-112114469D01*
X134131799Y-112114469D01*
X134131786Y-112114470D01*
X133767931Y-112174122D01*
X133767905Y-112174128D01*
X133412634Y-112272768D01*
X133412628Y-112272770D01*
X133070073Y-112409255D01*
X133070061Y-112409261D01*
X132744291Y-112581973D01*
X132744282Y-112581979D01*
X132439083Y-112788909D01*
X132158044Y-113027626D01*
X131904462Y-113295330D01*
X131904461Y-113295330D01*
X131757685Y-113488410D01*
X131681310Y-113588881D01*
X131681309Y-113588883D01*
X131491202Y-113904842D01*
X131491200Y-113904846D01*
X131336379Y-114239486D01*
X131218635Y-114588934D01*
X131139367Y-114949053D01*
X131099500Y-115315628D01*
X131099500Y-115684371D01*
X129008125Y-115684371D01*
X129008125Y-115684364D01*
X129000500Y-115500000D01*
X129000500Y-115499500D01*
X129000500Y-111100000D01*
X149795250Y-111100000D01*
X149814170Y-111243708D01*
X149814171Y-111243712D01*
X149869637Y-111377622D01*
X149869638Y-111377624D01*
X149869639Y-111377625D01*
X149957879Y-111492621D01*
X150072875Y-111580861D01*
X150206791Y-111636330D01*
X150333780Y-111653048D01*
X150350499Y-111655250D01*
X150350500Y-111655250D01*
X150350501Y-111655250D01*
X150365477Y-111653278D01*
X150494209Y-111636330D01*
X150628125Y-111580861D01*
X150743121Y-111492621D01*
X150831361Y-111377625D01*
X150886830Y-111243709D01*
X150905750Y-111100000D01*
X150886830Y-110956291D01*
X150863514Y-110900000D01*
X151544750Y-110900000D01*
X151552160Y-110956287D01*
X151563670Y-111043708D01*
X151563671Y-111043712D01*
X151619137Y-111177622D01*
X151619138Y-111177624D01*
X151619139Y-111177625D01*
X151707379Y-111292621D01*
X151822375Y-111380861D01*
X151956291Y-111436330D01*
X152083280Y-111453048D01*
X152099999Y-111455250D01*
X152100000Y-111455250D01*
X152100001Y-111455250D01*
X152114977Y-111453278D01*
X152243709Y-111436330D01*
X152377625Y-111380861D01*
X152492621Y-111292621D01*
X152580861Y-111177625D01*
X152636330Y-111043709D01*
X152655250Y-110900000D01*
X152642085Y-110800000D01*
X155044750Y-110800000D01*
X155057915Y-110900000D01*
X155063670Y-110943708D01*
X155063671Y-110943712D01*
X155119137Y-111077622D01*
X155119138Y-111077624D01*
X155119139Y-111077625D01*
X155207379Y-111192621D01*
X155322375Y-111280861D01*
X155322376Y-111280861D01*
X155322377Y-111280862D01*
X155367013Y-111299350D01*
X155456291Y-111336330D01*
X155583280Y-111353048D01*
X155599999Y-111355250D01*
X155600000Y-111355250D01*
X155600001Y-111355250D01*
X155614977Y-111353278D01*
X155743709Y-111336330D01*
X155877625Y-111280861D01*
X155992621Y-111192621D01*
X156080861Y-111077625D01*
X156090210Y-111055055D01*
X164244500Y-111055055D01*
X164285210Y-111220226D01*
X164364263Y-111370849D01*
X164370266Y-111377625D01*
X164477071Y-111498183D01*
X164567318Y-111560476D01*
X164617068Y-111594817D01*
X164617069Y-111594817D01*
X164617070Y-111594818D01*
X164776128Y-111655140D01*
X164852028Y-111664356D01*
X164902626Y-111670500D01*
X164902628Y-111670500D01*
X166087374Y-111670500D01*
X166129538Y-111665380D01*
X166213872Y-111655140D01*
X166372930Y-111594818D01*
X166512929Y-111498183D01*
X166625734Y-111370852D01*
X166704790Y-111220225D01*
X166745500Y-111055056D01*
X166745500Y-110884944D01*
X166704790Y-110719775D01*
X166671469Y-110656287D01*
X166625736Y-110569150D01*
X166604119Y-110544750D01*
X166512929Y-110441817D01*
X166399716Y-110363671D01*
X166372931Y-110345182D01*
X166243705Y-110296174D01*
X166188002Y-110253996D01*
X166163945Y-110188399D01*
X166179172Y-110120208D01*
X166228848Y-110071075D01*
X166240224Y-110065671D01*
X166287245Y-110046194D01*
X166287246Y-110046194D01*
X166287246Y-110046193D01*
X166287250Y-110046192D01*
X166408304Y-109953304D01*
X166501192Y-109832250D01*
X166559584Y-109691280D01*
X166579500Y-109540000D01*
X166559584Y-109388720D01*
X166501192Y-109247750D01*
X166408304Y-109126696D01*
X166287250Y-109033808D01*
X166287249Y-109033807D01*
X166287247Y-109033806D01*
X166146280Y-108975416D01*
X166146278Y-108975415D01*
X166032981Y-108960500D01*
X166032980Y-108960500D01*
X165957020Y-108960500D01*
X165957019Y-108960500D01*
X165843721Y-108975415D01*
X165843719Y-108975416D01*
X165702752Y-109033806D01*
X165581696Y-109126696D01*
X165488806Y-109247752D01*
X165430416Y-109388719D01*
X165430415Y-109388721D01*
X165410500Y-109539998D01*
X165410500Y-109540001D01*
X165430415Y-109691278D01*
X165430416Y-109691280D01*
X165488806Y-109832247D01*
X165488807Y-109832249D01*
X165488808Y-109832250D01*
X165581696Y-109953304D01*
X165676160Y-110025789D01*
X165703965Y-110047124D01*
X165745168Y-110103552D01*
X165749323Y-110173298D01*
X165715111Y-110234218D01*
X165653393Y-110266971D01*
X165628479Y-110269500D01*
X164902626Y-110269500D01*
X164776131Y-110284859D01*
X164776125Y-110284860D01*
X164617068Y-110345182D01*
X164477072Y-110441816D01*
X164364263Y-110569150D01*
X164285210Y-110719773D01*
X164244500Y-110884944D01*
X164244500Y-111055055D01*
X156090210Y-111055055D01*
X156136330Y-110943709D01*
X156155250Y-110800000D01*
X156136330Y-110656291D01*
X156080861Y-110522375D01*
X155992621Y-110407379D01*
X155877625Y-110319139D01*
X155877624Y-110319138D01*
X155877622Y-110319137D01*
X155743712Y-110263671D01*
X155743710Y-110263670D01*
X155743709Y-110263670D01*
X155670229Y-110253996D01*
X155600001Y-110244750D01*
X155599999Y-110244750D01*
X155456291Y-110263670D01*
X155456287Y-110263671D01*
X155322377Y-110319137D01*
X155207379Y-110407379D01*
X155119137Y-110522377D01*
X155063671Y-110656287D01*
X155063670Y-110656291D01*
X155050505Y-110756291D01*
X155044750Y-110800000D01*
X152642085Y-110800000D01*
X152636330Y-110756291D01*
X152580861Y-110622375D01*
X152492621Y-110507379D01*
X152377625Y-110419139D01*
X152377624Y-110419138D01*
X152377622Y-110419137D01*
X152243712Y-110363671D01*
X152243710Y-110363670D01*
X152243709Y-110363670D01*
X152171854Y-110354210D01*
X152100001Y-110344750D01*
X152099999Y-110344750D01*
X151956291Y-110363670D01*
X151956287Y-110363671D01*
X151822377Y-110419137D01*
X151707379Y-110507379D01*
X151619137Y-110622377D01*
X151563671Y-110756287D01*
X151563670Y-110756291D01*
X151544750Y-110900000D01*
X150863514Y-110900000D01*
X150831361Y-110822375D01*
X150743121Y-110707379D01*
X150628125Y-110619139D01*
X150628124Y-110619138D01*
X150628122Y-110619137D01*
X150494212Y-110563671D01*
X150494210Y-110563670D01*
X150494209Y-110563670D01*
X150422354Y-110554210D01*
X150350501Y-110544750D01*
X150350499Y-110544750D01*
X150206791Y-110563670D01*
X150206787Y-110563671D01*
X150072877Y-110619137D01*
X149957879Y-110707379D01*
X149869637Y-110822377D01*
X149814171Y-110956287D01*
X149814170Y-110956291D01*
X149795250Y-111099999D01*
X149795250Y-111100000D01*
X129000500Y-111100000D01*
X129000500Y-107050000D01*
X133075000Y-107050000D01*
X134170440Y-107050000D01*
X134131722Y-107092059D01*
X134081449Y-107206670D01*
X134071114Y-107331395D01*
X134101837Y-107452719D01*
X134165394Y-107550000D01*
X133075001Y-107550000D01*
X133075001Y-107699986D01*
X133085494Y-107802697D01*
X133140641Y-107969119D01*
X133140643Y-107969124D01*
X133232684Y-108118345D01*
X133356654Y-108242315D01*
X133505875Y-108334356D01*
X133505880Y-108334358D01*
X133672302Y-108389505D01*
X133672310Y-108389506D01*
X133698400Y-108392172D01*
X133763092Y-108418568D01*
X133803243Y-108475748D01*
X133806107Y-108545559D01*
X133770773Y-108605836D01*
X133751771Y-108620523D01*
X133672740Y-108670182D01*
X133672737Y-108670184D01*
X133545184Y-108797737D01*
X133449211Y-108950476D01*
X133389631Y-109120745D01*
X133389630Y-109120750D01*
X133369435Y-109299996D01*
X133369435Y-109300003D01*
X133389630Y-109479249D01*
X133389631Y-109479254D01*
X133449211Y-109649523D01*
X133475448Y-109691278D01*
X133545184Y-109802262D01*
X133672738Y-109929816D01*
X133825478Y-110025789D01*
X133886450Y-110047124D01*
X133995745Y-110085368D01*
X133995750Y-110085369D01*
X134086246Y-110095565D01*
X134130040Y-110100499D01*
X134130043Y-110100500D01*
X134130046Y-110100500D01*
X134769957Y-110100500D01*
X134769958Y-110100499D01*
X134837104Y-110092934D01*
X134904249Y-110085369D01*
X134904252Y-110085368D01*
X134904255Y-110085368D01*
X135074522Y-110025789D01*
X135227262Y-109929816D01*
X135354816Y-109802262D01*
X135450789Y-109649522D01*
X135510368Y-109479255D01*
X135530565Y-109300000D01*
X135524678Y-109247752D01*
X135510369Y-109120750D01*
X135510368Y-109120745D01*
X135450788Y-108950476D01*
X135354815Y-108797737D01*
X135227260Y-108670182D01*
X135148227Y-108620522D01*
X135101936Y-108568187D01*
X135091289Y-108499134D01*
X135119664Y-108435286D01*
X135178054Y-108396914D01*
X135201602Y-108392171D01*
X135227696Y-108389506D01*
X135394119Y-108334358D01*
X135394124Y-108334356D01*
X135543345Y-108242315D01*
X135585660Y-108200000D01*
X158344750Y-108200000D01*
X158357915Y-108300000D01*
X158363670Y-108343708D01*
X158363671Y-108343712D01*
X158419137Y-108477622D01*
X158419138Y-108477624D01*
X158419139Y-108477625D01*
X158507379Y-108592621D01*
X158622375Y-108680861D01*
X158622376Y-108680861D01*
X158622377Y-108680862D01*
X158667013Y-108699350D01*
X158756291Y-108736330D01*
X158883280Y-108753048D01*
X158899999Y-108755250D01*
X158900000Y-108755250D01*
X158900001Y-108755250D01*
X158914977Y-108753278D01*
X159043709Y-108736330D01*
X159177625Y-108680861D01*
X159292621Y-108592621D01*
X159380861Y-108477625D01*
X159436330Y-108343709D01*
X159455250Y-108200000D01*
X159436330Y-108056291D01*
X159380861Y-107922375D01*
X159292621Y-107807379D01*
X159177625Y-107719139D01*
X159177624Y-107719138D01*
X159177622Y-107719137D01*
X159043712Y-107663671D01*
X159043710Y-107663670D01*
X159043709Y-107663670D01*
X158971854Y-107654210D01*
X158900001Y-107644750D01*
X158899999Y-107644750D01*
X158756291Y-107663670D01*
X158756287Y-107663671D01*
X158622377Y-107719137D01*
X158507379Y-107807379D01*
X158419137Y-107922377D01*
X158363671Y-108056287D01*
X158363670Y-108056291D01*
X158350505Y-108156291D01*
X158344750Y-108200000D01*
X135585660Y-108200000D01*
X135667315Y-108118345D01*
X135759356Y-107969124D01*
X135759358Y-107969119D01*
X135814505Y-107802697D01*
X135814506Y-107802690D01*
X135824999Y-107699986D01*
X135825000Y-107699973D01*
X135825000Y-107550000D01*
X134729560Y-107550000D01*
X134768278Y-107507941D01*
X134818551Y-107393330D01*
X134828886Y-107268605D01*
X134798163Y-107147281D01*
X134734606Y-107050000D01*
X135824999Y-107050000D01*
X135824999Y-106900028D01*
X135824998Y-106900013D01*
X135814505Y-106797302D01*
X135765694Y-106650000D01*
X140094750Y-106650000D01*
X140113670Y-106793708D01*
X140113671Y-106793712D01*
X140169137Y-106927622D01*
X140169138Y-106927624D01*
X140169139Y-106927625D01*
X140257379Y-107042621D01*
X140372375Y-107130861D01*
X140506291Y-107186330D01*
X140633280Y-107203048D01*
X140649999Y-107205250D01*
X140650000Y-107205250D01*
X140650001Y-107205250D01*
X140664977Y-107203278D01*
X140793709Y-107186330D01*
X140927625Y-107130861D01*
X141024515Y-107056514D01*
X141089682Y-107031321D01*
X141158127Y-107045359D01*
X141175480Y-107056510D01*
X141272375Y-107130861D01*
X141406291Y-107186330D01*
X141533280Y-107203048D01*
X141549999Y-107205250D01*
X141550000Y-107205250D01*
X141550001Y-107205250D01*
X141564977Y-107203278D01*
X141693709Y-107186330D01*
X141827625Y-107130861D01*
X141942621Y-107042621D01*
X142030861Y-106927625D01*
X142083724Y-106800000D01*
X146044750Y-106800000D01*
X146061552Y-106927625D01*
X146063670Y-106943708D01*
X146063671Y-106943712D01*
X146119137Y-107077622D01*
X146119138Y-107077624D01*
X146119139Y-107077625D01*
X146207379Y-107192621D01*
X146322375Y-107280861D01*
X146456291Y-107336330D01*
X146583280Y-107353048D01*
X146599999Y-107355250D01*
X146600000Y-107355250D01*
X146600001Y-107355250D01*
X146614977Y-107353278D01*
X146743709Y-107336330D01*
X146877625Y-107280861D01*
X146992621Y-107192621D01*
X147080861Y-107077625D01*
X147136330Y-106943709D01*
X147155250Y-106800000D01*
X147136330Y-106656291D01*
X147080861Y-106522375D01*
X146992621Y-106407379D01*
X146877625Y-106319139D01*
X146877624Y-106319138D01*
X146877622Y-106319137D01*
X146743712Y-106263671D01*
X146743710Y-106263670D01*
X146743709Y-106263670D01*
X146671854Y-106254210D01*
X146600001Y-106244750D01*
X146599999Y-106244750D01*
X146456291Y-106263670D01*
X146456287Y-106263671D01*
X146322377Y-106319137D01*
X146207379Y-106407379D01*
X146119137Y-106522377D01*
X146063671Y-106656287D01*
X146063670Y-106656291D01*
X146044750Y-106800000D01*
X142083724Y-106800000D01*
X142086330Y-106793709D01*
X142105250Y-106650000D01*
X142086330Y-106506291D01*
X142030861Y-106372375D01*
X142000000Y-106332156D01*
X141975698Y-106300485D01*
X141950504Y-106235316D01*
X141964542Y-106166871D01*
X141975690Y-106149524D01*
X142030861Y-106077625D01*
X142086330Y-105943709D01*
X142105250Y-105800000D01*
X142086330Y-105656291D01*
X142030861Y-105522375D01*
X141942621Y-105407379D01*
X141827625Y-105319139D01*
X141827624Y-105319138D01*
X141827622Y-105319137D01*
X141693712Y-105263671D01*
X141693710Y-105263670D01*
X141693709Y-105263670D01*
X141621854Y-105254210D01*
X141550001Y-105244750D01*
X141549999Y-105244750D01*
X141406291Y-105263670D01*
X141406287Y-105263671D01*
X141272377Y-105319137D01*
X141237581Y-105345836D01*
X141175484Y-105393485D01*
X141110318Y-105418679D01*
X141041873Y-105404641D01*
X141024519Y-105393489D01*
X140927625Y-105319139D01*
X140927624Y-105319138D01*
X140927622Y-105319137D01*
X140793712Y-105263671D01*
X140793710Y-105263670D01*
X140793709Y-105263670D01*
X140721854Y-105254210D01*
X140650001Y-105244750D01*
X140649999Y-105244750D01*
X140506291Y-105263670D01*
X140506287Y-105263671D01*
X140372377Y-105319137D01*
X140257379Y-105407379D01*
X140169137Y-105522377D01*
X140113671Y-105656287D01*
X140113670Y-105656291D01*
X140094750Y-105799999D01*
X140094750Y-105800000D01*
X140113670Y-105943708D01*
X140113671Y-105943712D01*
X140169137Y-106077622D01*
X140169138Y-106077624D01*
X140169139Y-106077625D01*
X140224301Y-106149514D01*
X140249495Y-106214681D01*
X140235457Y-106283126D01*
X140224301Y-106300485D01*
X140169139Y-106372374D01*
X140169138Y-106372376D01*
X140113671Y-106506287D01*
X140113670Y-106506291D01*
X140094750Y-106649999D01*
X140094750Y-106650000D01*
X135765694Y-106650000D01*
X135759358Y-106630880D01*
X135759356Y-106630875D01*
X135667315Y-106481654D01*
X135543345Y-106357684D01*
X135394124Y-106265643D01*
X135394119Y-106265641D01*
X135227697Y-106210494D01*
X135227690Y-106210493D01*
X135124986Y-106200000D01*
X134700000Y-106200000D01*
X134700000Y-107019382D01*
X134630948Y-106965637D01*
X134512576Y-106925000D01*
X134418927Y-106925000D01*
X134326554Y-106940414D01*
X134216486Y-106999981D01*
X134200000Y-107017889D01*
X134200000Y-106200000D01*
X133775028Y-106200000D01*
X133775012Y-106200001D01*
X133672302Y-106210494D01*
X133505880Y-106265641D01*
X133505875Y-106265643D01*
X133356654Y-106357684D01*
X133232684Y-106481654D01*
X133140643Y-106630875D01*
X133140641Y-106630880D01*
X133085494Y-106797302D01*
X133085493Y-106797309D01*
X133075000Y-106900013D01*
X133075000Y-107050000D01*
X129000500Y-107050000D01*
X129000500Y-102229415D01*
X133351788Y-102229415D01*
X133371983Y-102408661D01*
X133371984Y-102408666D01*
X133431564Y-102578935D01*
X133527536Y-102731674D01*
X133527537Y-102731674D01*
X133655091Y-102859228D01*
X133673928Y-102871064D01*
X133807827Y-102955199D01*
X133807831Y-102955201D01*
X133950397Y-103005087D01*
X133978098Y-103014780D01*
X133978103Y-103014781D01*
X134068599Y-103024977D01*
X134112393Y-103029911D01*
X134112396Y-103029912D01*
X134112399Y-103029912D01*
X134752310Y-103029912D01*
X134752311Y-103029911D01*
X134819457Y-103022345D01*
X134886602Y-103014781D01*
X134886605Y-103014780D01*
X134886608Y-103014780D01*
X135056875Y-102955201D01*
X135058000Y-102954494D01*
X135066876Y-102948918D01*
X135132847Y-102929912D01*
X140437893Y-102929912D01*
X140504932Y-102949597D01*
X140525574Y-102966231D01*
X140784629Y-103225287D01*
X140784633Y-103225290D01*
X140884943Y-103303878D01*
X140980076Y-103346694D01*
X141040064Y-103373693D01*
X141040069Y-103373695D01*
X141207394Y-103404358D01*
X141207398Y-103404357D01*
X141207400Y-103404358D01*
X141220141Y-103403587D01*
X141257187Y-103408311D01*
X141257206Y-103408193D01*
X141261120Y-103408812D01*
X141265951Y-103409429D01*
X141266840Y-103409717D01*
X141266844Y-103409719D01*
X141333406Y-103420261D01*
X141399968Y-103430804D01*
X141399970Y-103430804D01*
X141399972Y-103430804D01*
X141533091Y-103409720D01*
X141533091Y-103409719D01*
X141533096Y-103409719D01*
X141653190Y-103348528D01*
X141697840Y-103303878D01*
X141755399Y-103246320D01*
X141757797Y-103248718D01*
X141799388Y-103216623D01*
X141868999Y-103210619D01*
X141930806Y-103243202D01*
X141942793Y-103256671D01*
X141970376Y-103292618D01*
X141970377Y-103292619D01*
X141970379Y-103292621D01*
X142085375Y-103380861D01*
X142085376Y-103380861D01*
X142085377Y-103380862D01*
X142098076Y-103386122D01*
X142219291Y-103436330D01*
X142363000Y-103455250D01*
X142417495Y-103448075D01*
X142486530Y-103458840D01*
X142521362Y-103483333D01*
X144806081Y-105768053D01*
X144811723Y-105774537D01*
X144819039Y-105784224D01*
X144819040Y-105784225D01*
X144819042Y-105784228D01*
X144844727Y-105807644D01*
X144854364Y-105816429D01*
X144856412Y-105818384D01*
X144870203Y-105832175D01*
X144871663Y-105833175D01*
X144872419Y-105833693D01*
X144879158Y-105839031D01*
X144902063Y-105859913D01*
X144902064Y-105859914D01*
X144902067Y-105859916D01*
X144902070Y-105859917D01*
X144908521Y-105862416D01*
X144933806Y-105875743D01*
X144939520Y-105879657D01*
X144969703Y-105886756D01*
X144977911Y-105889298D01*
X145006825Y-105900500D01*
X145006827Y-105900500D01*
X145013752Y-105900500D01*
X145042140Y-105903793D01*
X145048881Y-105905379D01*
X145079591Y-105901094D01*
X145088166Y-105900500D01*
X149164841Y-105900500D01*
X149231880Y-105920185D01*
X149277635Y-105972989D01*
X149279393Y-105977028D01*
X149290203Y-106003125D01*
X149378443Y-106118121D01*
X149493439Y-106206361D01*
X149493440Y-106206361D01*
X149493441Y-106206362D01*
X149538077Y-106224850D01*
X149627355Y-106261830D01*
X149754344Y-106278548D01*
X149771063Y-106280750D01*
X149771064Y-106280750D01*
X149771065Y-106280750D01*
X149786041Y-106278778D01*
X149914773Y-106261830D01*
X150048689Y-106206361D01*
X150163685Y-106118121D01*
X150251925Y-106003125D01*
X150307394Y-105869209D01*
X150326314Y-105725500D01*
X150307394Y-105581791D01*
X150251925Y-105447875D01*
X150163685Y-105332879D01*
X150073643Y-105263787D01*
X161001229Y-105263787D01*
X161018304Y-105393485D01*
X161020149Y-105407495D01*
X161020150Y-105407499D01*
X161075616Y-105541409D01*
X161075617Y-105541411D01*
X161075618Y-105541412D01*
X161163858Y-105656408D01*
X161278854Y-105744648D01*
X161412770Y-105800117D01*
X161536670Y-105816429D01*
X161556478Y-105819037D01*
X161556479Y-105819037D01*
X161556480Y-105819037D01*
X161576288Y-105816429D01*
X161700188Y-105800117D01*
X161834104Y-105744648D01*
X161949100Y-105656408D01*
X162037340Y-105541412D01*
X162092809Y-105407496D01*
X162111729Y-105263787D01*
X162092809Y-105120078D01*
X162037340Y-104986162D01*
X161949100Y-104871166D01*
X161834104Y-104782926D01*
X161834103Y-104782925D01*
X161834101Y-104782924D01*
X161700191Y-104727458D01*
X161700189Y-104727457D01*
X161700188Y-104727457D01*
X161628333Y-104717996D01*
X161556480Y-104708537D01*
X161556478Y-104708537D01*
X161412770Y-104727457D01*
X161412766Y-104727458D01*
X161278856Y-104782924D01*
X161163858Y-104871166D01*
X161075616Y-104986164D01*
X161020150Y-105120074D01*
X161020149Y-105120078D01*
X161001229Y-105263787D01*
X150073643Y-105263787D01*
X150048689Y-105244639D01*
X150048688Y-105244638D01*
X150048686Y-105244637D01*
X149914776Y-105189171D01*
X149914774Y-105189170D01*
X149914773Y-105189170D01*
X149842918Y-105179709D01*
X149771065Y-105170250D01*
X149771063Y-105170250D01*
X149627355Y-105189170D01*
X149627351Y-105189171D01*
X149493440Y-105244638D01*
X149493438Y-105244639D01*
X149455336Y-105273876D01*
X149390167Y-105299070D01*
X149379850Y-105299500D01*
X145238833Y-105299500D01*
X145171794Y-105279815D01*
X145151152Y-105263181D01*
X143429388Y-103541417D01*
X147214264Y-103541417D01*
X147233184Y-103685125D01*
X147233185Y-103685129D01*
X147288651Y-103819039D01*
X147288652Y-103819041D01*
X147288653Y-103819042D01*
X147376893Y-103934038D01*
X147491889Y-104022278D01*
X147625805Y-104077747D01*
X147752794Y-104094465D01*
X147769513Y-104096667D01*
X147769514Y-104096667D01*
X147769515Y-104096667D01*
X147784491Y-104094695D01*
X147913223Y-104077747D01*
X148047139Y-104022278D01*
X148162135Y-103934038D01*
X148250375Y-103819042D01*
X148305844Y-103685126D01*
X148324764Y-103541417D01*
X148305844Y-103397708D01*
X148250375Y-103263792D01*
X148162135Y-103148796D01*
X148047139Y-103060556D01*
X148047138Y-103060555D01*
X148047136Y-103060554D01*
X147913226Y-103005088D01*
X147913224Y-103005087D01*
X147913223Y-103005087D01*
X147841368Y-102995627D01*
X147769515Y-102986167D01*
X147769513Y-102986167D01*
X147625805Y-103005087D01*
X147625801Y-103005088D01*
X147491891Y-103060554D01*
X147376893Y-103148796D01*
X147288651Y-103263794D01*
X147233185Y-103397704D01*
X147233184Y-103397708D01*
X147214264Y-103541416D01*
X147214264Y-103541417D01*
X143429388Y-103541417D01*
X142946333Y-103058362D01*
X142912848Y-102997039D01*
X142911075Y-102954494D01*
X142911809Y-102948918D01*
X142918250Y-102900000D01*
X142899330Y-102756291D01*
X142843861Y-102622375D01*
X142755621Y-102507379D01*
X142640625Y-102419139D01*
X142640624Y-102419138D01*
X142640622Y-102419137D01*
X142506712Y-102363671D01*
X142506710Y-102363670D01*
X142506709Y-102363670D01*
X142434854Y-102354210D01*
X142363001Y-102344750D01*
X142362999Y-102344750D01*
X142219291Y-102363670D01*
X142219287Y-102363671D01*
X142085376Y-102419138D01*
X142085370Y-102419141D01*
X142065740Y-102434204D01*
X142000571Y-102459397D01*
X141932126Y-102445357D01*
X141882137Y-102396542D01*
X141877180Y-102386718D01*
X141866807Y-102363671D01*
X141853878Y-102334943D01*
X141853877Y-102334942D01*
X141853877Y-102334941D01*
X141829704Y-102304088D01*
X141814432Y-102275411D01*
X141814120Y-102275571D01*
X141800469Y-102248779D01*
X141748498Y-102146780D01*
X141748494Y-102146776D01*
X141748493Y-102146774D01*
X141653195Y-102051476D01*
X141653191Y-102051473D01*
X141653190Y-102051472D01*
X141546191Y-101996953D01*
X141514809Y-101974152D01*
X141420545Y-101879888D01*
X141291010Y-101750353D01*
X141288476Y-101747662D01*
X141247341Y-101701229D01*
X141247340Y-101701228D01*
X141247336Y-101701224D01*
X141196308Y-101666003D01*
X141193299Y-101663789D01*
X141165918Y-101642338D01*
X141144472Y-101625536D01*
X141144467Y-101625532D01*
X141135225Y-101621373D01*
X141115678Y-101610348D01*
X141107343Y-101604595D01*
X141107344Y-101604595D01*
X141107342Y-101604594D01*
X141049353Y-101582601D01*
X141045902Y-101581171D01*
X140989342Y-101555716D01*
X140979358Y-101553886D01*
X140957755Y-101547863D01*
X140948286Y-101544272D01*
X140948282Y-101544271D01*
X140886725Y-101536796D01*
X140883024Y-101536233D01*
X140822020Y-101525054D01*
X140822015Y-101525054D01*
X140760109Y-101528799D01*
X140756364Y-101528912D01*
X135132847Y-101528912D01*
X135066876Y-101509906D01*
X135056878Y-101503624D01*
X134886607Y-101444043D01*
X134886602Y-101444042D01*
X134752313Y-101428912D01*
X134752307Y-101428912D01*
X134112399Y-101428912D01*
X134112392Y-101428912D01*
X133978103Y-101444042D01*
X133978098Y-101444043D01*
X133807829Y-101503623D01*
X133655090Y-101599596D01*
X133527537Y-101727149D01*
X133431564Y-101879888D01*
X133371984Y-102050157D01*
X133371983Y-102050162D01*
X133351788Y-102229408D01*
X133351788Y-102229415D01*
X129000500Y-102229415D01*
X129000500Y-100229415D01*
X133351788Y-100229415D01*
X133371983Y-100408661D01*
X133371984Y-100408666D01*
X133431564Y-100578935D01*
X133508259Y-100700993D01*
X133527537Y-100731674D01*
X133655091Y-100859228D01*
X133807831Y-100955201D01*
X133978098Y-101014780D01*
X133978103Y-101014781D01*
X134068599Y-101024977D01*
X134112393Y-101029911D01*
X134112396Y-101029912D01*
X134112399Y-101029912D01*
X134752310Y-101029912D01*
X134752311Y-101029911D01*
X134819457Y-101022345D01*
X134886602Y-101014781D01*
X134886605Y-101014780D01*
X134886608Y-101014780D01*
X135056875Y-100955201D01*
X135209615Y-100859228D01*
X135337169Y-100731674D01*
X135433142Y-100578934D01*
X135492721Y-100408667D01*
X135492722Y-100408661D01*
X135512918Y-100229415D01*
X135512918Y-100229408D01*
X135492722Y-100050162D01*
X135492721Y-100050157D01*
X135473720Y-99995856D01*
X135433142Y-99879890D01*
X135351525Y-99749998D01*
X147702704Y-99749998D01*
X147702705Y-99750000D01*
X148612500Y-99750000D01*
X148612500Y-99300000D01*
X147702705Y-99300000D01*
X147702704Y-99300001D01*
X147702899Y-99302488D01*
X147702900Y-99302494D01*
X147748716Y-99460193D01*
X147748722Y-99460208D01*
X147749716Y-99461888D01*
X147750093Y-99463375D01*
X147751817Y-99467359D01*
X147751174Y-99467637D01*
X147766893Y-99529613D01*
X147751378Y-99582451D01*
X147751817Y-99582641D01*
X147750278Y-99586196D01*
X147749716Y-99588112D01*
X147748722Y-99589791D01*
X147748716Y-99589806D01*
X147702900Y-99747505D01*
X147702899Y-99747511D01*
X147702704Y-99749998D01*
X135351525Y-99749998D01*
X135337169Y-99727150D01*
X135209615Y-99599596D01*
X135194034Y-99589806D01*
X135056876Y-99503623D01*
X134886607Y-99444043D01*
X134886602Y-99444042D01*
X134752313Y-99428912D01*
X134752307Y-99428912D01*
X134112399Y-99428912D01*
X134112392Y-99428912D01*
X133978103Y-99444042D01*
X133978098Y-99444043D01*
X133807829Y-99503623D01*
X133655090Y-99599596D01*
X133527537Y-99727149D01*
X133431564Y-99879888D01*
X133371984Y-100050157D01*
X133371983Y-100050162D01*
X133351788Y-100229408D01*
X133351788Y-100229415D01*
X129000500Y-100229415D01*
X129000500Y-98229415D01*
X133351788Y-98229415D01*
X133371983Y-98408661D01*
X133371984Y-98408666D01*
X133431564Y-98578935D01*
X133514303Y-98710612D01*
X133527537Y-98731674D01*
X133655091Y-98859228D01*
X133745433Y-98915993D01*
X133790332Y-98944206D01*
X133807831Y-98955201D01*
X133873390Y-98978141D01*
X133978098Y-99014780D01*
X133978103Y-99014781D01*
X134068599Y-99024977D01*
X134112393Y-99029911D01*
X134112396Y-99029912D01*
X134112399Y-99029912D01*
X134752310Y-99029912D01*
X134752311Y-99029911D01*
X134824366Y-99021793D01*
X134886602Y-99014781D01*
X134886605Y-99014780D01*
X134886608Y-99014780D01*
X135056875Y-98955201D01*
X135209615Y-98859228D01*
X135268845Y-98799998D01*
X147702704Y-98799998D01*
X147702705Y-98800000D01*
X148612500Y-98800000D01*
X148612500Y-98250000D01*
X149112500Y-98250000D01*
X149112500Y-98800000D01*
X150022295Y-98800000D01*
X150022295Y-98799998D01*
X150022100Y-98797513D01*
X149976281Y-98639801D01*
X149892685Y-98498447D01*
X149892678Y-98498438D01*
X149776561Y-98382321D01*
X149776552Y-98382314D01*
X149635196Y-98298717D01*
X149635193Y-98298716D01*
X149477495Y-98252900D01*
X149477489Y-98252899D01*
X149440644Y-98250000D01*
X149112500Y-98250000D01*
X148612500Y-98250000D01*
X148284356Y-98250000D01*
X148247510Y-98252899D01*
X148247504Y-98252900D01*
X148089806Y-98298716D01*
X148089803Y-98298717D01*
X147948447Y-98382314D01*
X147948438Y-98382321D01*
X147832321Y-98498438D01*
X147832314Y-98498447D01*
X147748718Y-98639801D01*
X147702899Y-98797513D01*
X147702704Y-98799998D01*
X135268845Y-98799998D01*
X135337169Y-98731674D01*
X135433142Y-98578934D01*
X135492721Y-98408667D01*
X135492722Y-98408661D01*
X135512918Y-98229415D01*
X135512918Y-98229408D01*
X135492722Y-98050162D01*
X135492721Y-98050157D01*
X135442683Y-97907156D01*
X135433142Y-97879890D01*
X135423790Y-97865007D01*
X135377038Y-97790601D01*
X135337169Y-97727150D01*
X135209615Y-97599596D01*
X135120180Y-97543400D01*
X135056876Y-97503623D01*
X134886607Y-97444043D01*
X134886602Y-97444042D01*
X134752313Y-97428912D01*
X134752307Y-97428912D01*
X134112399Y-97428912D01*
X134112392Y-97428912D01*
X133978103Y-97444042D01*
X133978098Y-97444043D01*
X133807829Y-97503623D01*
X133655090Y-97599596D01*
X133527537Y-97727149D01*
X133431564Y-97879888D01*
X133371984Y-98050157D01*
X133371983Y-98050162D01*
X133351788Y-98229408D01*
X133351788Y-98229415D01*
X129000500Y-98229415D01*
X129000500Y-96633681D01*
X133356853Y-96633681D01*
X133359706Y-96664111D01*
X133359706Y-96664113D01*
X133399979Y-96779203D01*
X133404560Y-96792294D01*
X133485203Y-96901562D01*
X133594471Y-96982205D01*
X133637198Y-96997156D01*
X133722652Y-97027058D01*
X133753083Y-97029912D01*
X133753087Y-97029912D01*
X135111623Y-97029912D01*
X135142052Y-97027058D01*
X135142054Y-97027058D01*
X135206143Y-97004631D01*
X135270235Y-96982205D01*
X135273396Y-96979871D01*
X135308260Y-96954142D01*
X135373889Y-96930171D01*
X135381893Y-96929912D01*
X140797540Y-96929912D01*
X140801285Y-96930025D01*
X140808630Y-96930469D01*
X140863194Y-96933770D01*
X140900902Y-96926859D01*
X140924209Y-96922589D01*
X140927913Y-96922025D01*
X140945758Y-96919858D01*
X140989460Y-96914552D01*
X140998923Y-96910962D01*
X141020549Y-96904934D01*
X141021481Y-96904763D01*
X141030520Y-96903107D01*
X141087100Y-96877641D01*
X141090530Y-96876221D01*
X141148518Y-96854230D01*
X141156854Y-96848474D01*
X141176409Y-96837446D01*
X141185645Y-96833290D01*
X141228134Y-96800000D01*
X144944750Y-96800000D01*
X144962361Y-96933770D01*
X144963670Y-96943708D01*
X144963671Y-96943712D01*
X145019137Y-97077622D01*
X145019138Y-97077624D01*
X145019139Y-97077625D01*
X145107379Y-97192621D01*
X145222375Y-97280861D01*
X145222376Y-97280861D01*
X145222377Y-97280862D01*
X145267013Y-97299350D01*
X145356291Y-97336330D01*
X145483280Y-97353048D01*
X145499999Y-97355250D01*
X145500000Y-97355250D01*
X145500001Y-97355250D01*
X145514977Y-97353278D01*
X145643709Y-97336330D01*
X145777625Y-97280861D01*
X145892621Y-97192621D01*
X145980861Y-97077625D01*
X146036330Y-96943709D01*
X146055250Y-96800000D01*
X146054235Y-96792294D01*
X146049667Y-96757593D01*
X146036330Y-96656291D01*
X145980861Y-96522375D01*
X145892621Y-96407379D01*
X145777625Y-96319139D01*
X145777624Y-96319138D01*
X145777622Y-96319137D01*
X145643712Y-96263671D01*
X145643710Y-96263670D01*
X145643709Y-96263670D01*
X145571854Y-96254210D01*
X145500001Y-96244750D01*
X145499999Y-96244750D01*
X145356291Y-96263670D01*
X145356287Y-96263671D01*
X145222377Y-96319137D01*
X145107379Y-96407379D01*
X145019137Y-96522377D01*
X144963671Y-96656287D01*
X144963670Y-96656291D01*
X144945765Y-96792294D01*
X144944750Y-96800000D01*
X141228134Y-96800000D01*
X141234484Y-96795025D01*
X141237464Y-96792833D01*
X141288517Y-96757595D01*
X141329653Y-96711160D01*
X141332187Y-96708468D01*
X141875290Y-96165367D01*
X141953878Y-96065056D01*
X142023695Y-95909931D01*
X142054358Y-95742606D01*
X142044086Y-95572804D01*
X141993478Y-95410394D01*
X141905472Y-95264815D01*
X141905470Y-95264813D01*
X141905469Y-95264811D01*
X141785188Y-95144530D01*
X141639606Y-95056522D01*
X141639605Y-95056522D01*
X141477196Y-95005914D01*
X141392295Y-95000778D01*
X141307396Y-94995642D01*
X141307392Y-94995642D01*
X141140069Y-95026304D01*
X141140065Y-95026306D01*
X140984944Y-95096121D01*
X140984941Y-95096123D01*
X140884634Y-95174709D01*
X140785217Y-95274124D01*
X140753833Y-95296925D01*
X140646781Y-95351471D01*
X140646774Y-95351476D01*
X140551476Y-95446774D01*
X140551471Y-95446780D01*
X140544122Y-95461206D01*
X140496148Y-95512002D01*
X140433637Y-95528912D01*
X135381893Y-95528912D01*
X135314854Y-95509227D01*
X135308260Y-95504682D01*
X135270239Y-95476621D01*
X135270233Y-95476618D01*
X135142053Y-95431765D01*
X135111623Y-95428912D01*
X135111619Y-95428912D01*
X133753087Y-95428912D01*
X133753083Y-95428912D01*
X133722653Y-95431765D01*
X133722651Y-95431765D01*
X133594472Y-95476618D01*
X133594470Y-95476619D01*
X133485203Y-95557262D01*
X133404560Y-95666529D01*
X133404559Y-95666531D01*
X133359706Y-95794710D01*
X133359706Y-95794712D01*
X133356853Y-95825142D01*
X133356853Y-96633681D01*
X129000500Y-96633681D01*
X129000500Y-92550000D01*
X140144750Y-92550000D01*
X140155281Y-92629993D01*
X140163670Y-92693708D01*
X140163671Y-92693712D01*
X140219137Y-92827622D01*
X140219138Y-92827624D01*
X140219139Y-92827625D01*
X140307379Y-92942621D01*
X140422375Y-93030861D01*
X140422376Y-93030861D01*
X140422377Y-93030862D01*
X140463282Y-93047805D01*
X140556291Y-93086330D01*
X140683280Y-93103048D01*
X140699999Y-93105250D01*
X140700000Y-93105250D01*
X140700001Y-93105250D01*
X140714977Y-93103278D01*
X140843709Y-93086330D01*
X140977625Y-93030861D01*
X141074515Y-92956514D01*
X141139682Y-92931321D01*
X141208127Y-92945359D01*
X141225480Y-92956510D01*
X141322375Y-93030861D01*
X141322376Y-93030861D01*
X141322377Y-93030862D01*
X141363282Y-93047805D01*
X141456291Y-93086330D01*
X141583280Y-93103048D01*
X141599999Y-93105250D01*
X141600000Y-93105250D01*
X141600001Y-93105250D01*
X141614977Y-93103278D01*
X141743709Y-93086330D01*
X141877625Y-93030861D01*
X141992621Y-92942621D01*
X142025325Y-92900000D01*
X144944750Y-92900000D01*
X144961978Y-93030861D01*
X144963670Y-93043708D01*
X144963671Y-93043712D01*
X145019137Y-93177622D01*
X145019138Y-93177624D01*
X145019139Y-93177625D01*
X145107379Y-93292621D01*
X145222375Y-93380861D01*
X145356291Y-93436330D01*
X145483280Y-93453048D01*
X145499999Y-93455250D01*
X145500000Y-93455250D01*
X145500001Y-93455250D01*
X145514977Y-93453278D01*
X145643709Y-93436330D01*
X145777625Y-93380861D01*
X145892621Y-93292621D01*
X145980861Y-93177625D01*
X146036330Y-93043709D01*
X146055250Y-92900000D01*
X146036330Y-92756291D01*
X145999350Y-92667013D01*
X145980862Y-92622377D01*
X145980861Y-92622376D01*
X145980861Y-92622375D01*
X145892621Y-92507379D01*
X145777625Y-92419139D01*
X145777624Y-92419138D01*
X145777622Y-92419137D01*
X145643712Y-92363671D01*
X145643710Y-92363670D01*
X145643709Y-92363670D01*
X145571854Y-92354210D01*
X145500001Y-92344750D01*
X145499999Y-92344750D01*
X145356291Y-92363670D01*
X145356287Y-92363671D01*
X145222377Y-92419137D01*
X145107379Y-92507379D01*
X145019137Y-92622377D01*
X144963671Y-92756287D01*
X144963670Y-92756291D01*
X144954279Y-92827625D01*
X144944750Y-92900000D01*
X142025325Y-92900000D01*
X142080861Y-92827625D01*
X142136330Y-92693709D01*
X142155250Y-92550000D01*
X142154222Y-92542195D01*
X142149639Y-92507379D01*
X142136330Y-92406291D01*
X142080861Y-92272375D01*
X142080860Y-92272374D01*
X142080860Y-92272373D01*
X142025699Y-92200487D01*
X142000504Y-92135318D01*
X142014542Y-92066873D01*
X142025699Y-92049513D01*
X142080860Y-91977626D01*
X142080859Y-91977626D01*
X142080861Y-91977625D01*
X142136330Y-91843709D01*
X142155250Y-91700000D01*
X142154443Y-91693874D01*
X142153048Y-91683280D01*
X142136330Y-91556291D01*
X142080861Y-91422375D01*
X141992621Y-91307379D01*
X141877625Y-91219139D01*
X141877624Y-91219138D01*
X141877622Y-91219137D01*
X141743712Y-91163671D01*
X141743710Y-91163670D01*
X141743709Y-91163670D01*
X141639376Y-91149934D01*
X141600001Y-91144750D01*
X141599999Y-91144750D01*
X141456291Y-91163670D01*
X141456287Y-91163671D01*
X141322377Y-91219137D01*
X141295754Y-91239566D01*
X141225484Y-91293485D01*
X141160318Y-91318679D01*
X141091873Y-91304641D01*
X141074519Y-91293489D01*
X140977625Y-91219139D01*
X140977624Y-91219138D01*
X140977622Y-91219137D01*
X140843712Y-91163671D01*
X140843710Y-91163670D01*
X140843709Y-91163670D01*
X140739376Y-91149934D01*
X140700001Y-91144750D01*
X140699999Y-91144750D01*
X140556291Y-91163670D01*
X140556287Y-91163671D01*
X140422377Y-91219137D01*
X140307379Y-91307379D01*
X140219137Y-91422377D01*
X140163671Y-91556287D01*
X140163670Y-91556291D01*
X140144750Y-91699999D01*
X140144750Y-91700000D01*
X140163670Y-91843708D01*
X140163671Y-91843712D01*
X140219138Y-91977623D01*
X140219139Y-91977625D01*
X140274301Y-92049514D01*
X140299495Y-92114683D01*
X140285456Y-92183128D01*
X140274301Y-92200486D01*
X140219139Y-92272374D01*
X140219138Y-92272376D01*
X140163671Y-92406287D01*
X140163670Y-92406291D01*
X140145778Y-92542195D01*
X140144750Y-92550000D01*
X129000500Y-92550000D01*
X129000500Y-90700001D01*
X129794318Y-90700001D01*
X129814955Y-90856760D01*
X129814956Y-90856762D01*
X129851200Y-90944264D01*
X129875464Y-91002841D01*
X129971718Y-91128282D01*
X130097159Y-91224536D01*
X130243238Y-91285044D01*
X130307354Y-91293485D01*
X130399999Y-91305682D01*
X130400000Y-91305682D01*
X130400001Y-91305682D01*
X130452253Y-91298802D01*
X130556762Y-91285044D01*
X130702841Y-91224536D01*
X130828282Y-91128282D01*
X130924536Y-91002841D01*
X130985044Y-90856762D01*
X131005682Y-90700000D01*
X131001936Y-90671549D01*
X130985044Y-90543239D01*
X130985044Y-90543238D01*
X130924536Y-90397159D01*
X130828282Y-90271718D01*
X130702841Y-90175464D01*
X130556762Y-90114956D01*
X130556760Y-90114955D01*
X130400001Y-90094318D01*
X130399999Y-90094318D01*
X130243239Y-90114955D01*
X130243237Y-90114956D01*
X130097160Y-90175463D01*
X129971718Y-90271718D01*
X129875463Y-90397160D01*
X129814956Y-90543237D01*
X129814955Y-90543239D01*
X129794318Y-90699998D01*
X129794318Y-90700001D01*
X129000500Y-90700001D01*
X129000500Y-88000000D01*
X144044750Y-88000000D01*
X144057915Y-88100000D01*
X144063670Y-88143708D01*
X144063671Y-88143712D01*
X144119137Y-88277622D01*
X144119138Y-88277624D01*
X144119139Y-88277625D01*
X144207379Y-88392621D01*
X144250987Y-88426082D01*
X144292189Y-88482508D01*
X144299500Y-88524457D01*
X144299500Y-90117919D01*
X144298905Y-90126493D01*
X144297227Y-90138524D01*
X144299434Y-90186270D01*
X144299500Y-90189133D01*
X144299500Y-90208606D01*
X144299993Y-90211243D01*
X144300982Y-90219776D01*
X144302344Y-90249218D01*
X144302376Y-90249920D01*
X144302415Y-90250752D01*
X144302416Y-90250758D01*
X144305214Y-90257095D01*
X144313664Y-90284381D01*
X144314937Y-90291190D01*
X144314937Y-90291191D01*
X144331260Y-90317554D01*
X144335263Y-90325147D01*
X144347794Y-90353526D01*
X144347795Y-90353527D01*
X144347796Y-90353529D01*
X144352689Y-90358422D01*
X144370435Y-90380826D01*
X144374077Y-90386709D01*
X144374080Y-90386712D01*
X144398826Y-90405400D01*
X144405311Y-90411043D01*
X152396941Y-98402673D01*
X152430426Y-98463996D01*
X152425442Y-98533688D01*
X152383570Y-98589621D01*
X152356715Y-98604914D01*
X152322377Y-98619137D01*
X152207372Y-98707384D01*
X152201628Y-98713129D01*
X152199111Y-98710612D01*
X152155817Y-98742203D01*
X152113908Y-98749500D01*
X152042997Y-98749500D01*
X151975958Y-98729815D01*
X151942077Y-98697550D01*
X151939194Y-98693512D01*
X151856485Y-98610803D01*
X151751391Y-98559426D01*
X151683261Y-98549500D01*
X151683260Y-98549500D01*
X150591740Y-98549500D01*
X150591739Y-98549500D01*
X150523608Y-98559426D01*
X150418514Y-98610803D01*
X150335803Y-98693514D01*
X150284426Y-98798608D01*
X150274500Y-98866739D01*
X150274500Y-98944206D01*
X150269766Y-98978141D01*
X150257346Y-99021791D01*
X150267711Y-99133660D01*
X150269766Y-99140880D01*
X150274500Y-99174815D01*
X150274500Y-99231967D01*
X150254815Y-99299006D01*
X150226504Y-99329944D01*
X150217283Y-99337097D01*
X150215971Y-99335405D01*
X150164294Y-99363614D01*
X150094603Y-99358619D01*
X150046898Y-99326615D01*
X150022295Y-99300000D01*
X149112500Y-99300000D01*
X149112500Y-99750000D01*
X152297295Y-99750000D01*
X152303002Y-99743825D01*
X152312862Y-99696896D01*
X152361914Y-99647140D01*
X152430079Y-99631802D01*
X152454214Y-99635773D01*
X152456284Y-99636327D01*
X152456291Y-99636330D01*
X152583280Y-99653048D01*
X152599999Y-99655250D01*
X152600000Y-99655250D01*
X152600001Y-99655250D01*
X152614977Y-99653278D01*
X152743709Y-99636330D01*
X152877625Y-99580861D01*
X152992621Y-99492621D01*
X153080861Y-99377625D01*
X153095084Y-99343286D01*
X153138924Y-99288884D01*
X153205218Y-99266818D01*
X153272917Y-99284096D01*
X153297326Y-99303058D01*
X155982087Y-101987819D01*
X156015572Y-102049142D01*
X156010588Y-102118834D01*
X155968716Y-102174767D01*
X155903252Y-102199184D01*
X155894406Y-102199500D01*
X152863333Y-102199500D01*
X152796294Y-102179815D01*
X152775652Y-102163181D01*
X151995154Y-101382682D01*
X151961669Y-101321359D01*
X151966653Y-101251667D01*
X151971435Y-101240540D01*
X151990573Y-101201393D01*
X152000500Y-101133260D01*
X152000500Y-100768032D01*
X152020185Y-100700993D01*
X152048510Y-100670045D01*
X152051561Y-100667678D01*
X152167678Y-100551561D01*
X152167685Y-100551552D01*
X152251281Y-100410198D01*
X152297100Y-100252486D01*
X152297295Y-100250001D01*
X152297295Y-100250000D01*
X147702705Y-100250000D01*
X147702704Y-100250001D01*
X147702899Y-100252486D01*
X147748718Y-100410198D01*
X147832314Y-100551552D01*
X147832321Y-100551561D01*
X147948439Y-100667679D01*
X147951497Y-100670051D01*
X147953280Y-100672520D01*
X147953960Y-100673200D01*
X147953850Y-100673309D01*
X147992406Y-100726692D01*
X147999500Y-100768033D01*
X147999500Y-101133260D01*
X148009426Y-101201391D01*
X148060803Y-101306485D01*
X148143514Y-101389196D01*
X148143515Y-101389196D01*
X148143517Y-101389198D01*
X148248607Y-101440573D01*
X148272416Y-101444042D01*
X148316739Y-101450500D01*
X148316740Y-101450500D01*
X148974167Y-101450500D01*
X149041206Y-101470185D01*
X149061848Y-101486819D01*
X150893078Y-103318049D01*
X150898721Y-103324533D01*
X150906041Y-103334226D01*
X150906042Y-103334228D01*
X150925455Y-103351925D01*
X150941375Y-103366439D01*
X150943423Y-103368394D01*
X150957203Y-103382174D01*
X150959413Y-103383688D01*
X150966143Y-103389018D01*
X150975671Y-103397704D01*
X150989065Y-103409915D01*
X150989066Y-103409915D01*
X150989067Y-103409916D01*
X150995521Y-103412416D01*
X151020806Y-103425744D01*
X151024619Y-103428355D01*
X151026519Y-103429657D01*
X151056710Y-103436757D01*
X151064905Y-103439295D01*
X151093827Y-103450500D01*
X151100752Y-103450500D01*
X151129140Y-103453793D01*
X151135881Y-103455379D01*
X151166591Y-103451094D01*
X151175166Y-103450500D01*
X157787159Y-103450500D01*
X157795733Y-103451095D01*
X157807761Y-103452772D01*
X157807761Y-103452771D01*
X157807765Y-103452773D01*
X157850920Y-103450778D01*
X157855510Y-103450566D01*
X157858373Y-103450500D01*
X157877843Y-103450500D01*
X157877844Y-103450500D01*
X157880468Y-103450009D01*
X157889021Y-103449016D01*
X157890245Y-103448959D01*
X157919992Y-103447585D01*
X157926322Y-103444789D01*
X157953629Y-103436332D01*
X157960433Y-103435061D01*
X157964022Y-103432838D01*
X158031382Y-103414283D01*
X158045484Y-103415326D01*
X158066456Y-103418088D01*
X158128935Y-103426314D01*
X158128936Y-103426314D01*
X158272645Y-103407394D01*
X158406561Y-103351925D01*
X158521557Y-103263685D01*
X158609797Y-103148689D01*
X158665266Y-103014773D01*
X158684186Y-102871064D01*
X158677764Y-102822285D01*
X158688529Y-102753251D01*
X158734909Y-102700995D01*
X158802178Y-102682109D01*
X158848153Y-102691538D01*
X158956291Y-102736330D01*
X159083280Y-102753048D01*
X159099999Y-102755250D01*
X159100000Y-102755250D01*
X159100001Y-102755250D01*
X159115184Y-102753251D01*
X159243709Y-102736330D01*
X159377625Y-102680861D01*
X159492621Y-102592621D01*
X159580861Y-102477625D01*
X159606778Y-102415056D01*
X164244500Y-102415056D01*
X164254574Y-102455928D01*
X164285210Y-102580226D01*
X164364263Y-102730849D01*
X164364266Y-102730852D01*
X164477071Y-102858183D01*
X164537652Y-102899999D01*
X164617068Y-102954817D01*
X164617069Y-102954817D01*
X164617070Y-102954818D01*
X164647164Y-102966231D01*
X164776080Y-103015122D01*
X164776128Y-103015140D01*
X164852028Y-103024356D01*
X164902626Y-103030500D01*
X165628479Y-103030500D01*
X165695518Y-103050185D01*
X165741273Y-103102989D01*
X165751217Y-103172147D01*
X165722192Y-103235703D01*
X165703965Y-103252876D01*
X165702750Y-103253807D01*
X165702750Y-103253808D01*
X165689878Y-103263685D01*
X165581697Y-103346694D01*
X165488806Y-103467752D01*
X165430416Y-103608719D01*
X165430415Y-103608721D01*
X165410500Y-103759998D01*
X165410500Y-103760001D01*
X165430415Y-103911278D01*
X165430416Y-103911280D01*
X165488806Y-104052247D01*
X165488807Y-104052249D01*
X165488808Y-104052250D01*
X165581696Y-104173304D01*
X165702750Y-104266192D01*
X165843720Y-104324584D01*
X165900369Y-104332042D01*
X165957019Y-104339500D01*
X165957020Y-104339500D01*
X166032981Y-104339500D01*
X166070746Y-104334528D01*
X166146280Y-104324584D01*
X166287250Y-104266192D01*
X166408304Y-104173304D01*
X166501192Y-104052250D01*
X166559584Y-103911280D01*
X166579500Y-103760000D01*
X166559584Y-103608720D01*
X166501192Y-103467750D01*
X166408304Y-103346696D01*
X166287250Y-103253808D01*
X166243541Y-103235703D01*
X166240222Y-103234328D01*
X166185819Y-103190486D01*
X166163755Y-103124192D01*
X166181035Y-103056493D01*
X166232172Y-103008883D01*
X166243695Y-103003829D01*
X166372930Y-102954818D01*
X166512929Y-102858183D01*
X166625734Y-102730852D01*
X166627570Y-102727355D01*
X166674562Y-102637819D01*
X166704790Y-102580225D01*
X166745500Y-102415056D01*
X166745500Y-102244944D01*
X166704790Y-102079775D01*
X166692465Y-102056291D01*
X166625736Y-101929150D01*
X166582095Y-101879890D01*
X166512929Y-101801817D01*
X166427110Y-101742580D01*
X166372931Y-101705182D01*
X166213874Y-101644860D01*
X166213868Y-101644859D01*
X166087374Y-101629500D01*
X166087372Y-101629500D01*
X164902628Y-101629500D01*
X164902626Y-101629500D01*
X164776131Y-101644859D01*
X164776125Y-101644860D01*
X164617068Y-101705182D01*
X164477072Y-101801816D01*
X164364263Y-101929150D01*
X164285210Y-102079773D01*
X164244500Y-102244944D01*
X164244500Y-102415056D01*
X159606778Y-102415056D01*
X159636330Y-102343709D01*
X159655250Y-102200000D01*
X159636330Y-102056291D01*
X159583667Y-101929150D01*
X159580862Y-101922377D01*
X159580861Y-101922376D01*
X159580861Y-101922375D01*
X159492621Y-101807379D01*
X159492618Y-101807377D01*
X159492617Y-101807375D01*
X159449013Y-101773916D01*
X159407810Y-101717488D01*
X159400500Y-101675541D01*
X159400500Y-99362846D01*
X159401095Y-99354270D01*
X159402772Y-99342240D01*
X159402774Y-99342236D01*
X159400566Y-99294468D01*
X159400500Y-99291606D01*
X159400500Y-99272159D01*
X159400500Y-99272156D01*
X159400009Y-99269532D01*
X159399018Y-99260995D01*
X159398219Y-99243709D01*
X159397586Y-99230009D01*
X159394787Y-99223672D01*
X159386331Y-99196367D01*
X159385061Y-99189567D01*
X159368736Y-99163202D01*
X159364730Y-99155600D01*
X159352207Y-99127237D01*
X159352206Y-99127236D01*
X159352206Y-99127235D01*
X159347309Y-99122338D01*
X159329563Y-99099934D01*
X159325918Y-99094047D01*
X159301172Y-99075360D01*
X159294694Y-99069723D01*
X155289713Y-95064741D01*
X155256228Y-95003419D01*
X155253394Y-94977061D01*
X155253394Y-93600000D01*
X162144750Y-93600000D01*
X162163670Y-93743708D01*
X162163670Y-93743709D01*
X162219137Y-93877622D01*
X162219138Y-93877624D01*
X162219139Y-93877625D01*
X162307379Y-93992621D01*
X162422375Y-94080861D01*
X162556291Y-94136330D01*
X162683280Y-94153048D01*
X162699999Y-94155250D01*
X162700000Y-94155250D01*
X162700001Y-94155250D01*
X162714977Y-94153278D01*
X162843709Y-94136330D01*
X162977625Y-94080861D01*
X163092621Y-93992621D01*
X163180861Y-93877625D01*
X163236330Y-93743709D01*
X163255250Y-93600000D01*
X163236330Y-93456291D01*
X163195748Y-93358315D01*
X163180862Y-93322377D01*
X163180861Y-93322376D01*
X163180861Y-93322375D01*
X163092621Y-93207379D01*
X162977625Y-93119139D01*
X162977624Y-93119138D01*
X162977622Y-93119137D01*
X162843712Y-93063671D01*
X162843710Y-93063670D01*
X162843709Y-93063670D01*
X162723205Y-93047805D01*
X162700001Y-93044750D01*
X162699999Y-93044750D01*
X162556291Y-93063670D01*
X162556287Y-93063671D01*
X162422377Y-93119137D01*
X162307379Y-93207379D01*
X162219137Y-93322377D01*
X162163671Y-93456287D01*
X162163670Y-93456291D01*
X162144750Y-93599999D01*
X162144750Y-93600000D01*
X155253394Y-93600000D01*
X155253394Y-91600000D01*
X161444750Y-91600000D01*
X161457915Y-91700000D01*
X161463670Y-91743708D01*
X161463671Y-91743712D01*
X161519137Y-91877622D01*
X161519138Y-91877624D01*
X161519139Y-91877625D01*
X161607379Y-91992621D01*
X161722375Y-92080861D01*
X161722376Y-92080861D01*
X161722377Y-92080862D01*
X161767013Y-92099350D01*
X161856291Y-92136330D01*
X161983280Y-92153048D01*
X161999999Y-92155250D01*
X162000000Y-92155250D01*
X162000001Y-92155250D01*
X162014977Y-92153278D01*
X162143709Y-92136330D01*
X162277625Y-92080861D01*
X162392621Y-91992621D01*
X162480861Y-91877625D01*
X162536330Y-91743709D01*
X162555250Y-91600000D01*
X162536330Y-91456291D01*
X162480861Y-91322375D01*
X162392621Y-91207379D01*
X162277625Y-91119139D01*
X162277624Y-91119138D01*
X162277622Y-91119137D01*
X162143712Y-91063671D01*
X162143710Y-91063670D01*
X162143709Y-91063670D01*
X162071854Y-91054210D01*
X162000001Y-91044750D01*
X161999999Y-91044750D01*
X161856291Y-91063670D01*
X161856287Y-91063671D01*
X161722377Y-91119137D01*
X161607379Y-91207379D01*
X161519137Y-91322377D01*
X161463671Y-91456287D01*
X161463670Y-91456291D01*
X161450505Y-91556291D01*
X161444750Y-91600000D01*
X155253394Y-91600000D01*
X155253394Y-90133773D01*
X155273079Y-90066734D01*
X155325883Y-90020979D01*
X155395041Y-90011035D01*
X155424838Y-90019209D01*
X155459185Y-90033436D01*
X155535673Y-90043506D01*
X155602893Y-90052356D01*
X155602894Y-90052356D01*
X155602895Y-90052356D01*
X155624731Y-90049481D01*
X155746603Y-90033436D01*
X155800685Y-90011035D01*
X155825842Y-90000615D01*
X155895312Y-89993146D01*
X155957791Y-90024422D01*
X155972984Y-90043506D01*
X155973601Y-90043033D01*
X155978547Y-90049478D01*
X155978548Y-90049481D01*
X156066788Y-90164477D01*
X156181784Y-90252717D01*
X156181785Y-90252717D01*
X156181786Y-90252718D01*
X156193063Y-90257389D01*
X156315700Y-90308186D01*
X156442689Y-90324904D01*
X156459408Y-90327106D01*
X156459409Y-90327106D01*
X156459410Y-90327106D01*
X156474386Y-90325134D01*
X156603118Y-90308186D01*
X156725755Y-90257388D01*
X156795220Y-90249920D01*
X156857700Y-90281195D01*
X156885828Y-90327955D01*
X156888406Y-90326888D01*
X156946983Y-90468309D01*
X156946984Y-90468311D01*
X156946985Y-90468312D01*
X157035225Y-90583308D01*
X157150221Y-90671548D01*
X157284137Y-90727017D01*
X157411126Y-90743735D01*
X157427845Y-90745937D01*
X157427846Y-90745937D01*
X157427847Y-90745937D01*
X157442823Y-90743965D01*
X157571555Y-90727017D01*
X157705471Y-90671548D01*
X157820467Y-90583308D01*
X157908707Y-90468312D01*
X157964176Y-90334396D01*
X157983096Y-90190687D01*
X157982891Y-90189133D01*
X157979645Y-90164476D01*
X157964176Y-90046978D01*
X157908707Y-89913062D01*
X157908706Y-89913061D01*
X157908706Y-89913060D01*
X157871300Y-89864313D01*
X157846043Y-89831397D01*
X157820849Y-89766230D01*
X157834887Y-89697785D01*
X157856731Y-89668238D01*
X158188154Y-89336816D01*
X158249475Y-89303334D01*
X158275833Y-89300500D01*
X163003076Y-89300500D01*
X163070115Y-89320185D01*
X163090757Y-89336819D01*
X163335651Y-89581713D01*
X163341294Y-89588197D01*
X163348614Y-89597890D01*
X163348615Y-89597892D01*
X163368458Y-89615981D01*
X163383948Y-89630103D01*
X163385996Y-89632058D01*
X163399776Y-89645838D01*
X163401986Y-89647352D01*
X163408716Y-89652682D01*
X163414588Y-89658035D01*
X163431637Y-89673578D01*
X163431638Y-89673578D01*
X163431640Y-89673580D01*
X163438103Y-89676083D01*
X163463380Y-89689407D01*
X163469092Y-89693320D01*
X163499275Y-89700418D01*
X163507476Y-89702958D01*
X163536400Y-89714164D01*
X163543324Y-89714164D01*
X163571714Y-89717457D01*
X163578454Y-89719043D01*
X163609163Y-89714759D01*
X163617739Y-89714164D01*
X164244646Y-89714164D01*
X164311685Y-89733849D01*
X164343021Y-89762677D01*
X164370176Y-89798066D01*
X164376483Y-89806285D01*
X164452108Y-89864314D01*
X164493310Y-89920741D01*
X164497465Y-89990487D01*
X164464302Y-90050370D01*
X163681803Y-90832870D01*
X163677814Y-90836525D01*
X163646805Y-90862545D01*
X163626562Y-90897606D01*
X163623656Y-90902166D01*
X163600446Y-90935313D01*
X163598206Y-90940117D01*
X163591229Y-90956961D01*
X163589410Y-90961959D01*
X163582383Y-91001811D01*
X163581212Y-91007091D01*
X163570735Y-91046191D01*
X163574264Y-91086513D01*
X163574500Y-91091920D01*
X163574500Y-91731699D01*
X163554815Y-91798738D01*
X163525988Y-91830074D01*
X163471720Y-91871715D01*
X163375463Y-91997160D01*
X163314956Y-92143237D01*
X163314955Y-92143239D01*
X163294318Y-92299998D01*
X163294318Y-92300001D01*
X163314955Y-92456760D01*
X163314956Y-92456762D01*
X163353576Y-92550000D01*
X163375464Y-92602841D01*
X163471718Y-92728282D01*
X163597159Y-92824536D01*
X163743238Y-92885044D01*
X163820343Y-92895195D01*
X163908058Y-92906743D01*
X163907766Y-92908957D01*
X163963652Y-92925367D01*
X164009407Y-92978171D01*
X164015274Y-92993687D01*
X164071651Y-93179539D01*
X164164502Y-93353252D01*
X164167886Y-93358315D01*
X164166332Y-93359353D01*
X164190241Y-93415638D01*
X164178453Y-93484506D01*
X164167561Y-93501459D01*
X164167890Y-93501679D01*
X164164503Y-93506747D01*
X164071652Y-93680458D01*
X164030839Y-93814999D01*
X164030840Y-93815000D01*
X164750000Y-93815000D01*
X164750000Y-93002672D01*
X164787871Y-93047805D01*
X164887129Y-93105112D01*
X164971564Y-93120000D01*
X165028436Y-93120000D01*
X165112871Y-93105112D01*
X165212129Y-93047805D01*
X165249999Y-93002672D01*
X165249999Y-93857327D01*
X165212129Y-93812195D01*
X165112871Y-93754888D01*
X165028436Y-93740000D01*
X164971564Y-93740000D01*
X164887129Y-93754888D01*
X164787871Y-93812195D01*
X164714199Y-93899993D01*
X164675000Y-94007694D01*
X164675000Y-94122306D01*
X164714199Y-94230007D01*
X164785517Y-94315000D01*
X164030840Y-94315000D01*
X164071652Y-94449541D01*
X164164503Y-94623253D01*
X164164507Y-94623260D01*
X164289471Y-94775528D01*
X164358009Y-94831776D01*
X164397343Y-94889522D01*
X164399214Y-94959367D01*
X164381397Y-94998065D01*
X164375183Y-95007067D01*
X164375182Y-95007068D01*
X164314860Y-95166125D01*
X164314859Y-95166130D01*
X164294355Y-95335000D01*
X164314859Y-95503869D01*
X164314860Y-95503874D01*
X164375182Y-95662930D01*
X164381395Y-95671931D01*
X164403277Y-95738285D01*
X164385811Y-95805937D01*
X164358010Y-95838222D01*
X164289472Y-95894470D01*
X164164507Y-96046739D01*
X164164503Y-96046746D01*
X164071652Y-96220458D01*
X164030839Y-96354999D01*
X164030840Y-96355000D01*
X164785517Y-96355000D01*
X164714199Y-96439993D01*
X164675000Y-96547694D01*
X164675000Y-96662306D01*
X164714199Y-96770007D01*
X164785517Y-96855000D01*
X164030840Y-96855000D01*
X164071652Y-96989541D01*
X164164503Y-97163253D01*
X164164507Y-97163260D01*
X164289471Y-97315528D01*
X164441739Y-97440492D01*
X164441746Y-97440496D01*
X164615461Y-97533348D01*
X164648597Y-97543400D01*
X164707036Y-97581697D01*
X164735493Y-97645509D01*
X164724934Y-97714576D01*
X164700284Y-97749742D01*
X162731948Y-99718080D01*
X162725464Y-99723722D01*
X162715768Y-99731044D01*
X162683559Y-99766374D01*
X162681585Y-99768442D01*
X162667827Y-99782200D01*
X162667822Y-99782206D01*
X162666306Y-99784420D01*
X162660976Y-99791148D01*
X162640083Y-99814066D01*
X162640083Y-99814067D01*
X162637578Y-99820533D01*
X162624259Y-99845802D01*
X162620345Y-99851515D01*
X162620343Y-99851521D01*
X162613244Y-99881699D01*
X162610702Y-99889907D01*
X162599500Y-99918826D01*
X162599500Y-99925751D01*
X162596206Y-99954141D01*
X162594621Y-99960877D01*
X162594621Y-99960881D01*
X162598905Y-99991590D01*
X162599500Y-100000166D01*
X162599500Y-100075541D01*
X162579815Y-100142580D01*
X162550987Y-100173916D01*
X162507382Y-100207375D01*
X162419137Y-100322377D01*
X162363671Y-100456287D01*
X162363670Y-100456291D01*
X162345604Y-100593517D01*
X162344750Y-100600000D01*
X162354401Y-100673309D01*
X162363670Y-100743708D01*
X162363671Y-100743712D01*
X162419137Y-100877622D01*
X162419138Y-100877624D01*
X162419139Y-100877625D01*
X162507379Y-100992621D01*
X162622375Y-101080861D01*
X162756291Y-101136330D01*
X162883280Y-101153048D01*
X162899999Y-101155250D01*
X162900000Y-101155250D01*
X162900001Y-101155250D01*
X162914977Y-101153278D01*
X163043709Y-101136330D01*
X163177625Y-101080861D01*
X163292621Y-100992621D01*
X163380861Y-100877625D01*
X163436330Y-100743709D01*
X163455250Y-100600000D01*
X163454396Y-100593517D01*
X163448872Y-100551555D01*
X163436330Y-100456291D01*
X163380861Y-100322375D01*
X163292621Y-100207379D01*
X163292618Y-100207376D01*
X163292616Y-100207374D01*
X163291610Y-100206602D01*
X163290975Y-100205732D01*
X163286871Y-100201628D01*
X163287511Y-100200987D01*
X163250410Y-100150172D01*
X163246258Y-100080426D01*
X163279418Y-100020551D01*
X165982683Y-97317286D01*
X166044004Y-97283803D01*
X166100035Y-97284571D01*
X166184944Y-97305500D01*
X166355054Y-97305500D01*
X166355056Y-97305500D01*
X166439963Y-97284572D01*
X166509762Y-97287641D01*
X166557317Y-97317288D01*
X167263182Y-98023153D01*
X167296666Y-98084474D01*
X167299500Y-98110832D01*
X167299500Y-103924166D01*
X167279815Y-103991205D01*
X167263181Y-104011847D01*
X163558361Y-107716666D01*
X163497038Y-107750151D01*
X163454495Y-107751924D01*
X163400001Y-107744750D01*
X163399999Y-107744750D01*
X163256291Y-107763670D01*
X163256287Y-107763671D01*
X163122377Y-107819137D01*
X163007379Y-107907379D01*
X162919137Y-108022377D01*
X162863671Y-108156287D01*
X162863670Y-108156291D01*
X162844750Y-108299999D01*
X162844750Y-108300000D01*
X162863670Y-108443708D01*
X162863671Y-108443712D01*
X162919137Y-108577622D01*
X162919138Y-108577624D01*
X162919139Y-108577625D01*
X163007379Y-108692621D01*
X163122375Y-108780861D01*
X163256291Y-108836330D01*
X163383280Y-108853048D01*
X163399999Y-108855250D01*
X163400000Y-108855250D01*
X163400001Y-108855250D01*
X163414977Y-108853278D01*
X163543709Y-108836330D01*
X163677625Y-108780861D01*
X163792621Y-108692621D01*
X163880861Y-108577625D01*
X163936330Y-108443709D01*
X163955250Y-108300000D01*
X163948074Y-108245503D01*
X163958840Y-108176468D01*
X163983330Y-108141639D01*
X167768059Y-104356910D01*
X167774532Y-104351279D01*
X167784224Y-104343959D01*
X167784228Y-104343958D01*
X167816459Y-104308600D01*
X167818367Y-104306602D01*
X167832174Y-104292797D01*
X167833684Y-104290592D01*
X167839023Y-104283851D01*
X167841368Y-104281278D01*
X167859916Y-104260933D01*
X167862417Y-104254476D01*
X167875750Y-104229184D01*
X167879657Y-104223481D01*
X167886757Y-104193294D01*
X167889296Y-104185092D01*
X167900500Y-104156173D01*
X167900500Y-104149248D01*
X167903794Y-104120856D01*
X167905379Y-104114119D01*
X167901095Y-104083408D01*
X167900500Y-104074833D01*
X167900500Y-97997838D01*
X167901095Y-97989262D01*
X167902771Y-97977239D01*
X167902773Y-97977235D01*
X167900566Y-97929490D01*
X167900500Y-97926627D01*
X167900500Y-97907159D01*
X167900499Y-97907153D01*
X167900009Y-97904533D01*
X167899016Y-97895980D01*
X167897585Y-97865008D01*
X167894788Y-97858675D01*
X167886332Y-97831368D01*
X167885061Y-97824567D01*
X167868736Y-97798202D01*
X167864735Y-97790612D01*
X167852206Y-97762235D01*
X167847308Y-97757338D01*
X167829563Y-97734934D01*
X167825918Y-97729047D01*
X167801172Y-97710360D01*
X167794694Y-97704723D01*
X166986538Y-96896567D01*
X166953054Y-96835245D01*
X166953825Y-96779203D01*
X166955135Y-96773883D01*
X166955140Y-96773872D01*
X166975645Y-96605000D01*
X166955140Y-96436128D01*
X166894818Y-96277070D01*
X166885569Y-96263671D01*
X166817714Y-96165367D01*
X166798183Y-96137071D01*
X166714363Y-96062813D01*
X166677238Y-96003626D01*
X166678006Y-95933761D01*
X166714363Y-95877186D01*
X166798183Y-95802929D01*
X166894818Y-95662930D01*
X166955140Y-95503872D01*
X166975645Y-95335000D01*
X166955140Y-95166128D01*
X166894818Y-95007070D01*
X166888602Y-94998065D01*
X166860476Y-94957318D01*
X166798183Y-94867071D01*
X166714363Y-94792813D01*
X166677238Y-94733626D01*
X166678006Y-94663761D01*
X166714363Y-94607186D01*
X166798183Y-94532929D01*
X166894818Y-94392930D01*
X166955140Y-94233872D01*
X166975645Y-94065000D01*
X166955140Y-93896128D01*
X166894818Y-93737070D01*
X166798183Y-93597071D01*
X166714363Y-93522813D01*
X166677238Y-93463626D01*
X166678006Y-93393761D01*
X166714363Y-93337186D01*
X166798183Y-93262929D01*
X166894818Y-93122930D01*
X166955140Y-92963872D01*
X166975645Y-92795000D01*
X166955140Y-92626128D01*
X166953717Y-92622377D01*
X166894817Y-92467068D01*
X166823446Y-92363671D01*
X166798183Y-92327071D01*
X166714363Y-92252813D01*
X166677238Y-92193626D01*
X166678006Y-92123761D01*
X166714363Y-92067186D01*
X166798183Y-91992929D01*
X166894818Y-91852930D01*
X166955140Y-91693872D01*
X166975645Y-91525000D01*
X166955140Y-91356128D01*
X166894818Y-91197070D01*
X166871763Y-91163670D01*
X166843529Y-91122766D01*
X166798183Y-91057071D01*
X166670852Y-90944266D01*
X166638637Y-90927358D01*
X166553211Y-90882522D01*
X166502999Y-90833937D01*
X166497817Y-90811874D01*
X166483122Y-90825557D01*
X166414363Y-90837963D01*
X166397943Y-90835070D01*
X166355057Y-90824500D01*
X166355056Y-90824500D01*
X166184944Y-90824500D01*
X166019773Y-90865210D01*
X165869149Y-90944264D01*
X165869147Y-90944266D01*
X165861223Y-90951286D01*
X165797989Y-90981005D01*
X165728726Y-90971820D01*
X165675897Y-90927358D01*
X165644553Y-90880448D01*
X165578230Y-90836132D01*
X165578229Y-90836131D01*
X165519752Y-90824500D01*
X165519748Y-90824500D01*
X164910188Y-90824500D01*
X164843149Y-90804815D01*
X164797394Y-90752011D01*
X164787450Y-90682853D01*
X164816475Y-90619297D01*
X164822507Y-90612819D01*
X164892089Y-90543237D01*
X164996399Y-90438926D01*
X165057720Y-90405443D01*
X165094884Y-90403081D01*
X165108402Y-90404264D01*
X165147535Y-90393777D01*
X165152757Y-90392619D01*
X165190613Y-90385945D01*
X165212135Y-90384063D01*
X166168538Y-90384063D01*
X166235577Y-90403748D01*
X166266913Y-90432576D01*
X166308555Y-90486845D01*
X166433996Y-90583099D01*
X166433997Y-90583099D01*
X166433998Y-90583100D01*
X166475069Y-90600112D01*
X166529473Y-90643952D01*
X166540402Y-90676789D01*
X166565597Y-90657274D01*
X166627020Y-90649787D01*
X166736837Y-90664245D01*
X166736838Y-90664245D01*
X166789787Y-90657274D01*
X166893599Y-90643607D01*
X167039678Y-90583099D01*
X167165119Y-90486845D01*
X167261373Y-90361404D01*
X167321881Y-90215325D01*
X167342519Y-90058563D01*
X167341440Y-90050370D01*
X167326664Y-89938135D01*
X167321881Y-89901801D01*
X167261373Y-89755722D01*
X167165119Y-89630281D01*
X167039678Y-89534027D01*
X166893599Y-89473519D01*
X166893597Y-89473518D01*
X166736838Y-89452881D01*
X166736836Y-89452881D01*
X166580076Y-89473518D01*
X166580074Y-89473519D01*
X166433997Y-89534026D01*
X166308553Y-89630282D01*
X166266914Y-89684549D01*
X166210486Y-89725752D01*
X166168538Y-89733063D01*
X165418240Y-89733063D01*
X165351201Y-89713378D01*
X165305446Y-89660574D01*
X165295502Y-89591416D01*
X165303678Y-89561613D01*
X165304099Y-89560595D01*
X165305434Y-89557373D01*
X165324354Y-89413664D01*
X165305434Y-89269955D01*
X165249965Y-89136039D01*
X165161725Y-89021043D01*
X165161722Y-89021041D01*
X165156777Y-89014596D01*
X165159380Y-89012598D01*
X165133233Y-88964713D01*
X165138217Y-88895021D01*
X165156018Y-88862877D01*
X165221435Y-88777625D01*
X165276904Y-88643709D01*
X165295824Y-88500000D01*
X165276904Y-88356291D01*
X165221435Y-88222375D01*
X165133195Y-88107379D01*
X165133192Y-88107376D01*
X165133190Y-88107374D01*
X165127743Y-88101927D01*
X165094258Y-88040604D01*
X165099242Y-87970912D01*
X165141114Y-87914979D01*
X165206578Y-87890562D01*
X165222123Y-87890428D01*
X165407890Y-87900500D01*
X165407892Y-87900500D01*
X165592108Y-87900500D01*
X165592110Y-87900500D01*
X165868199Y-87885531D01*
X165868210Y-87885529D01*
X165868213Y-87885529D01*
X166185412Y-87833526D01*
X166232081Y-87825875D01*
X166310918Y-87803986D01*
X166380779Y-87805018D01*
X166438993Y-87843656D01*
X166467076Y-87907633D01*
X166464361Y-87948185D01*
X166464731Y-87948234D01*
X166463972Y-87953998D01*
X166463868Y-87955553D01*
X166463670Y-87956291D01*
X166444750Y-88099999D01*
X166444750Y-88100000D01*
X166463670Y-88243708D01*
X166463671Y-88243712D01*
X166519137Y-88377622D01*
X166519138Y-88377624D01*
X166519139Y-88377625D01*
X166607379Y-88492621D01*
X166722375Y-88580861D01*
X166856291Y-88636330D01*
X166983280Y-88653048D01*
X166999999Y-88655250D01*
X167000000Y-88655250D01*
X167000001Y-88655250D01*
X167014977Y-88653278D01*
X167143709Y-88636330D01*
X167277625Y-88580861D01*
X167392621Y-88492621D01*
X167480861Y-88377625D01*
X167536330Y-88243709D01*
X167555250Y-88100000D01*
X167536330Y-87956291D01*
X167480861Y-87822375D01*
X167392621Y-87707379D01*
X167277625Y-87619139D01*
X167277622Y-87619138D01*
X167277620Y-87619136D01*
X167276979Y-87618766D01*
X167276545Y-87618311D01*
X167271177Y-87614192D01*
X167271819Y-87613354D01*
X167228764Y-87568198D01*
X167215543Y-87499590D01*
X167241512Y-87434726D01*
X167269385Y-87408753D01*
X167560917Y-87211090D01*
X167841956Y-86972373D01*
X168095538Y-86704670D01*
X168318690Y-86411119D01*
X168508795Y-86095162D01*
X168663625Y-85760503D01*
X168781364Y-85411066D01*
X168860632Y-85050948D01*
X168900500Y-84684370D01*
X168900500Y-84315630D01*
X168860632Y-83949052D01*
X168781364Y-83588934D01*
X168663625Y-83239497D01*
X168645351Y-83199999D01*
X168508799Y-82904846D01*
X168508797Y-82904842D01*
X168501109Y-82892064D01*
X168318690Y-82588881D01*
X168095538Y-82295330D01*
X167841956Y-82027627D01*
X167560917Y-81788910D01*
X167523692Y-81763671D01*
X167255717Y-81581979D01*
X167255716Y-81581978D01*
X167255713Y-81581976D01*
X167255708Y-81581973D01*
X166929938Y-81409261D01*
X166929926Y-81409255D01*
X166587371Y-81272770D01*
X166587365Y-81272768D01*
X166232094Y-81174128D01*
X166232068Y-81174122D01*
X165868213Y-81114470D01*
X165868200Y-81114469D01*
X165868199Y-81114469D01*
X165592110Y-81099500D01*
X165407890Y-81099500D01*
X165131801Y-81114469D01*
X165131799Y-81114469D01*
X165131786Y-81114470D01*
X164767931Y-81174122D01*
X164767905Y-81174128D01*
X164412634Y-81272768D01*
X164412628Y-81272770D01*
X164070073Y-81409255D01*
X164070061Y-81409261D01*
X163744291Y-81581973D01*
X163744282Y-81581979D01*
X163439083Y-81788909D01*
X163158044Y-82027626D01*
X162904462Y-82295330D01*
X162904461Y-82295330D01*
X162791668Y-82443708D01*
X162681310Y-82588881D01*
X162681309Y-82588883D01*
X162491202Y-82904842D01*
X162491200Y-82904846D01*
X162336379Y-83239486D01*
X162218635Y-83588934D01*
X162139367Y-83949053D01*
X162099500Y-84315628D01*
X162099500Y-84684371D01*
X162139367Y-85050946D01*
X162218635Y-85411065D01*
X162278983Y-85590172D01*
X162336375Y-85760503D01*
X162336377Y-85760508D01*
X162336379Y-85760513D01*
X162491200Y-86095153D01*
X162491202Y-86095157D01*
X162491204Y-86095161D01*
X162491205Y-86095162D01*
X162681310Y-86411119D01*
X162904462Y-86704670D01*
X163158044Y-86972373D01*
X163439083Y-87211090D01*
X163744284Y-87418022D01*
X163744288Y-87418024D01*
X163744291Y-87418026D01*
X163775791Y-87434726D01*
X164070070Y-87590743D01*
X164412621Y-87727227D01*
X164412627Y-87727228D01*
X164412628Y-87727229D01*
X164412634Y-87727231D01*
X164517847Y-87756443D01*
X164577177Y-87793344D01*
X164607138Y-87856464D01*
X164598217Y-87925762D01*
X164553248Y-87979236D01*
X164532128Y-87990484D01*
X164462949Y-88019138D01*
X164462949Y-88019139D01*
X164347953Y-88107379D01*
X164347952Y-88107380D01*
X164347951Y-88107381D01*
X164314491Y-88150987D01*
X164258063Y-88192189D01*
X164216116Y-88199500D01*
X163420428Y-88199500D01*
X163353389Y-88179815D01*
X163332747Y-88163181D01*
X162451517Y-87281951D01*
X162445873Y-87275465D01*
X162438551Y-87265770D01*
X162403219Y-87233560D01*
X162401168Y-87231602D01*
X162387392Y-87217826D01*
X162385181Y-87216311D01*
X162378448Y-87210978D01*
X162355528Y-87190084D01*
X162349065Y-87187580D01*
X162323787Y-87174256D01*
X162318076Y-87170344D01*
X162318073Y-87170343D01*
X162318074Y-87170343D01*
X162287897Y-87163244D01*
X162279689Y-87160703D01*
X162250768Y-87149500D01*
X162243844Y-87149500D01*
X162215453Y-87146206D01*
X162208714Y-87144621D01*
X162178004Y-87148905D01*
X162169429Y-87149500D01*
X161223142Y-87149500D01*
X161156103Y-87129815D01*
X161110348Y-87077011D01*
X161100404Y-87007853D01*
X161129429Y-86944297D01*
X161147655Y-86927125D01*
X161153448Y-86922679D01*
X161192621Y-86892621D01*
X161280861Y-86777625D01*
X161336330Y-86643709D01*
X161355250Y-86500000D01*
X161336330Y-86356291D01*
X161280861Y-86222375D01*
X161192621Y-86107379D01*
X161077625Y-86019139D01*
X161077624Y-86019138D01*
X161077622Y-86019137D01*
X160943712Y-85963671D01*
X160943710Y-85963670D01*
X160943709Y-85963670D01*
X160871854Y-85954210D01*
X160800001Y-85944750D01*
X160799999Y-85944750D01*
X160656291Y-85963670D01*
X160656287Y-85963671D01*
X160522377Y-86019137D01*
X160407379Y-86107379D01*
X160319137Y-86222377D01*
X160263671Y-86356287D01*
X160263670Y-86356291D01*
X160244750Y-86499999D01*
X160244750Y-86500000D01*
X160263670Y-86643708D01*
X160263671Y-86643712D01*
X160319137Y-86777622D01*
X160319138Y-86777624D01*
X160319139Y-86777625D01*
X160407379Y-86892621D01*
X160440438Y-86917988D01*
X160452345Y-86927125D01*
X160493547Y-86983553D01*
X160497702Y-87053299D01*
X160463489Y-87114219D01*
X160401772Y-87146971D01*
X160376858Y-87149500D01*
X159723142Y-87149500D01*
X159656103Y-87129815D01*
X159610348Y-87077011D01*
X159600404Y-87007853D01*
X159629429Y-86944297D01*
X159647655Y-86927125D01*
X159653448Y-86922679D01*
X159692621Y-86892621D01*
X159780861Y-86777625D01*
X159836330Y-86643709D01*
X159855250Y-86500000D01*
X159836330Y-86356291D01*
X159780861Y-86222375D01*
X159692621Y-86107379D01*
X159577625Y-86019139D01*
X159577624Y-86019138D01*
X159577622Y-86019137D01*
X159443712Y-85963671D01*
X159443710Y-85963670D01*
X159443709Y-85963670D01*
X159371854Y-85954210D01*
X159300001Y-85944750D01*
X159299999Y-85944750D01*
X159156291Y-85963670D01*
X159156287Y-85963671D01*
X159022377Y-86019137D01*
X158964876Y-86063259D01*
X158907379Y-86107379D01*
X158907378Y-86107380D01*
X158907377Y-86107381D01*
X158873917Y-86150987D01*
X158817489Y-86192189D01*
X158775542Y-86199500D01*
X157743610Y-86199500D01*
X157735035Y-86198905D01*
X157722999Y-86197226D01*
X157722997Y-86197226D01*
X157702702Y-86198164D01*
X157675231Y-86199434D01*
X157672368Y-86199500D01*
X157652911Y-86199500D01*
X157650275Y-86199992D01*
X157641751Y-86200980D01*
X157610770Y-86202413D01*
X157604421Y-86205217D01*
X157577131Y-86213667D01*
X157570328Y-86214938D01*
X157570327Y-86214939D01*
X157543967Y-86231260D01*
X157536365Y-86235267D01*
X157507997Y-86247793D01*
X157503097Y-86252693D01*
X157480703Y-86270431D01*
X157474809Y-86274080D01*
X157456120Y-86298827D01*
X157450479Y-86305310D01*
X154784842Y-88970947D01*
X154778358Y-88976589D01*
X154768662Y-88983911D01*
X154736453Y-89019241D01*
X154734479Y-89021309D01*
X154720721Y-89035067D01*
X154720716Y-89035073D01*
X154719200Y-89037287D01*
X154713870Y-89044015D01*
X154692977Y-89066933D01*
X154692977Y-89066934D01*
X154690472Y-89073400D01*
X154677153Y-89098669D01*
X154673239Y-89104382D01*
X154673237Y-89104388D01*
X154666138Y-89134566D01*
X154663596Y-89142774D01*
X154652394Y-89171693D01*
X154652394Y-89178618D01*
X154649100Y-89207008D01*
X154647515Y-89213744D01*
X154647515Y-89213748D01*
X154651799Y-89244457D01*
X154652394Y-89253033D01*
X154652394Y-95090052D01*
X154651799Y-95098626D01*
X154650121Y-95110657D01*
X154652328Y-95158403D01*
X154652394Y-95161266D01*
X154652394Y-95180739D01*
X154652887Y-95183376D01*
X154653876Y-95191909D01*
X154655309Y-95222885D01*
X154655310Y-95222891D01*
X154658108Y-95229228D01*
X154666558Y-95256514D01*
X154667831Y-95263323D01*
X154667831Y-95263324D01*
X154684154Y-95289687D01*
X154688157Y-95297280D01*
X154700688Y-95325659D01*
X154700689Y-95325660D01*
X154700690Y-95325662D01*
X154705583Y-95330555D01*
X154723329Y-95352959D01*
X154726971Y-95358842D01*
X154726974Y-95358845D01*
X154751720Y-95377533D01*
X154758205Y-95383176D01*
X158763181Y-99388152D01*
X158796666Y-99449475D01*
X158799500Y-99475833D01*
X158799500Y-101675541D01*
X158779815Y-101742580D01*
X158750987Y-101773916D01*
X158707382Y-101807375D01*
X158619137Y-101922377D01*
X158563671Y-102056287D01*
X158563670Y-102056291D01*
X158544750Y-102199999D01*
X158544750Y-102200003D01*
X158551171Y-102248779D01*
X158540405Y-102317814D01*
X158494025Y-102370069D01*
X158426755Y-102388954D01*
X158380780Y-102379524D01*
X158272648Y-102334735D01*
X158272646Y-102334734D01*
X158272645Y-102334734D01*
X158183427Y-102322988D01*
X158128937Y-102315814D01*
X158128933Y-102315814D01*
X158074438Y-102322988D01*
X158005403Y-102312222D01*
X157970573Y-102287730D01*
X149186819Y-93503976D01*
X149153334Y-93442653D01*
X149150500Y-93416295D01*
X149150500Y-91412838D01*
X149151095Y-91404262D01*
X149152771Y-91392239D01*
X149152773Y-91392235D01*
X149150566Y-91344490D01*
X149150500Y-91341627D01*
X149150500Y-91322159D01*
X149150499Y-91322153D01*
X149150009Y-91319533D01*
X149149016Y-91310980D01*
X149148723Y-91304641D01*
X149147585Y-91280008D01*
X149144788Y-91273675D01*
X149136332Y-91246368D01*
X149135061Y-91239567D01*
X149118736Y-91213202D01*
X149114735Y-91205612D01*
X149102206Y-91177235D01*
X149097309Y-91172338D01*
X149079563Y-91149934D01*
X149076353Y-91144750D01*
X149075919Y-91144048D01*
X149051171Y-91125359D01*
X149044694Y-91119723D01*
X146183333Y-88258361D01*
X146149848Y-88197039D01*
X146148075Y-88154494D01*
X146148537Y-88150987D01*
X146155250Y-88100000D01*
X146136330Y-87956291D01*
X146080861Y-87822375D01*
X145992621Y-87707379D01*
X145877625Y-87619139D01*
X145877624Y-87619138D01*
X145877622Y-87619137D01*
X145743712Y-87563671D01*
X145743710Y-87563670D01*
X145743709Y-87563670D01*
X145613361Y-87546509D01*
X145600001Y-87544750D01*
X145599999Y-87544750D01*
X145456291Y-87563670D01*
X145456287Y-87563671D01*
X145322377Y-87619137D01*
X145285526Y-87647413D01*
X145218878Y-87698554D01*
X145153712Y-87723748D01*
X145085267Y-87709710D01*
X145045020Y-87675667D01*
X144992621Y-87607379D01*
X144877625Y-87519139D01*
X144877624Y-87519138D01*
X144877622Y-87519137D01*
X144743712Y-87463671D01*
X144743710Y-87463670D01*
X144743709Y-87463670D01*
X144671854Y-87454210D01*
X144600001Y-87444750D01*
X144599999Y-87444750D01*
X144456291Y-87463670D01*
X144456287Y-87463671D01*
X144322377Y-87519137D01*
X144207379Y-87607379D01*
X144119137Y-87722377D01*
X144063671Y-87856287D01*
X144063670Y-87856291D01*
X144048580Y-87970912D01*
X144044750Y-88000000D01*
X129000500Y-88000000D01*
X129000500Y-84684371D01*
X131099500Y-84684371D01*
X131139367Y-85050946D01*
X131218635Y-85411065D01*
X131278983Y-85590172D01*
X131336375Y-85760503D01*
X131336377Y-85760508D01*
X131336379Y-85760513D01*
X131491200Y-86095153D01*
X131491202Y-86095157D01*
X131491204Y-86095161D01*
X131491205Y-86095162D01*
X131681310Y-86411119D01*
X131904462Y-86704670D01*
X132158044Y-86972373D01*
X132439083Y-87211090D01*
X132744284Y-87418022D01*
X132744288Y-87418024D01*
X132744291Y-87418026D01*
X132775791Y-87434726D01*
X133070070Y-87590743D01*
X133412621Y-87727227D01*
X133412627Y-87727228D01*
X133412628Y-87727229D01*
X133412634Y-87727231D01*
X133650753Y-87793344D01*
X133767919Y-87825875D01*
X133767930Y-87825876D01*
X133767931Y-87825877D01*
X134131786Y-87885529D01*
X134131790Y-87885529D01*
X134131801Y-87885531D01*
X134407890Y-87900500D01*
X134407892Y-87900500D01*
X134592108Y-87900500D01*
X134592110Y-87900500D01*
X134868199Y-87885531D01*
X134868210Y-87885529D01*
X134868213Y-87885529D01*
X135185412Y-87833526D01*
X135232081Y-87825875D01*
X135587379Y-87727227D01*
X135929930Y-87590743D01*
X136255716Y-87418022D01*
X136560917Y-87211090D01*
X136841956Y-86972373D01*
X137095538Y-86704670D01*
X137318690Y-86411119D01*
X137508795Y-86095162D01*
X137663625Y-85760503D01*
X137781364Y-85411066D01*
X137860632Y-85050948D01*
X137900500Y-84684370D01*
X137900500Y-84315630D01*
X137877049Y-84100000D01*
X143044750Y-84100000D01*
X143063670Y-84243708D01*
X143063671Y-84243712D01*
X143119137Y-84377622D01*
X143119138Y-84377624D01*
X143119139Y-84377625D01*
X143207379Y-84492621D01*
X143322375Y-84580861D01*
X143456291Y-84636330D01*
X143583280Y-84653048D01*
X143599999Y-84655250D01*
X143600000Y-84655250D01*
X143600001Y-84655250D01*
X143614977Y-84653278D01*
X143743709Y-84636330D01*
X143877625Y-84580861D01*
X143992621Y-84492621D01*
X144080861Y-84377625D01*
X144136330Y-84243709D01*
X144155250Y-84100000D01*
X144136330Y-83956291D01*
X144080861Y-83822375D01*
X144006514Y-83725484D01*
X143981321Y-83660318D01*
X143995359Y-83591873D01*
X144006510Y-83574519D01*
X144080861Y-83477625D01*
X144136330Y-83343709D01*
X144155250Y-83200000D01*
X144136330Y-83056291D01*
X144080861Y-82922375D01*
X144006514Y-82825484D01*
X143981321Y-82760318D01*
X143995359Y-82691873D01*
X144006510Y-82674519D01*
X144080861Y-82577625D01*
X144136330Y-82443709D01*
X144155250Y-82300000D01*
X144136330Y-82156291D01*
X144099350Y-82067013D01*
X144080862Y-82022377D01*
X144080861Y-82022376D01*
X144080861Y-82022375D01*
X143992621Y-81907379D01*
X143877625Y-81819139D01*
X143877624Y-81819138D01*
X143877622Y-81819137D01*
X143743712Y-81763671D01*
X143743710Y-81763670D01*
X143743709Y-81763670D01*
X143671854Y-81754210D01*
X143600001Y-81744750D01*
X143599999Y-81744750D01*
X143456291Y-81763670D01*
X143456287Y-81763671D01*
X143322377Y-81819137D01*
X143207379Y-81907379D01*
X143119137Y-82022377D01*
X143063671Y-82156287D01*
X143063670Y-82156291D01*
X143044750Y-82299999D01*
X143044750Y-82300000D01*
X143063670Y-82443708D01*
X143063671Y-82443712D01*
X143119138Y-82577623D01*
X143119139Y-82577626D01*
X143160929Y-82632086D01*
X143193484Y-82674513D01*
X143218679Y-82739681D01*
X143204641Y-82808126D01*
X143193485Y-82825485D01*
X143119139Y-82922374D01*
X143119138Y-82922376D01*
X143063671Y-83056287D01*
X143063670Y-83056291D01*
X143044750Y-83199999D01*
X143044750Y-83200000D01*
X143063670Y-83343708D01*
X143063671Y-83343712D01*
X143119137Y-83477622D01*
X143119138Y-83477624D01*
X143119139Y-83477625D01*
X143193485Y-83574515D01*
X143218679Y-83639682D01*
X143204641Y-83708127D01*
X143193489Y-83725480D01*
X143145836Y-83787581D01*
X143119137Y-83822377D01*
X143063671Y-83956287D01*
X143063670Y-83956291D01*
X143044750Y-84099999D01*
X143044750Y-84100000D01*
X137877049Y-84100000D01*
X137860632Y-83949052D01*
X137781364Y-83588934D01*
X137663625Y-83239497D01*
X137645351Y-83199999D01*
X137508799Y-82904846D01*
X137508797Y-82904842D01*
X137501109Y-82892064D01*
X137318690Y-82588881D01*
X137095538Y-82295330D01*
X136841956Y-82027627D01*
X136560917Y-81788910D01*
X136523692Y-81763671D01*
X136255717Y-81581979D01*
X136255716Y-81581978D01*
X136255713Y-81581976D01*
X136255708Y-81581973D01*
X135929938Y-81409261D01*
X135929926Y-81409255D01*
X135587371Y-81272770D01*
X135587365Y-81272768D01*
X135232094Y-81174128D01*
X135232068Y-81174122D01*
X134868213Y-81114470D01*
X134868200Y-81114469D01*
X134868199Y-81114469D01*
X134592110Y-81099500D01*
X134407890Y-81099500D01*
X134131801Y-81114469D01*
X134131799Y-81114469D01*
X134131786Y-81114470D01*
X133767931Y-81174122D01*
X133767905Y-81174128D01*
X133412634Y-81272768D01*
X133412628Y-81272770D01*
X133070073Y-81409255D01*
X133070061Y-81409261D01*
X132744291Y-81581973D01*
X132744282Y-81581979D01*
X132439083Y-81788909D01*
X132158044Y-82027626D01*
X131904462Y-82295330D01*
X131904461Y-82295330D01*
X131791668Y-82443708D01*
X131681310Y-82588881D01*
X131681309Y-82588883D01*
X131491202Y-82904842D01*
X131491200Y-82904846D01*
X131336379Y-83239486D01*
X131218635Y-83588934D01*
X131139367Y-83949053D01*
X131099500Y-84315628D01*
X131099500Y-84684371D01*
X129000500Y-84684371D01*
X129000500Y-84499999D01*
X129009500Y-84282397D01*
X129020013Y-84041610D01*
X129020427Y-84036684D01*
X129049085Y-83806772D01*
X129079194Y-83578069D01*
X129079970Y-83573517D01*
X129127969Y-83344599D01*
X129151274Y-83239486D01*
X129177470Y-83121320D01*
X129178571Y-83117073D01*
X129245591Y-82891958D01*
X129314153Y-82674512D01*
X129315491Y-82670712D01*
X129401094Y-82451333D01*
X129488229Y-82240970D01*
X129489750Y-82237598D01*
X129593376Y-82025627D01*
X129698424Y-81823834D01*
X129700139Y-81820760D01*
X129701106Y-81819137D01*
X129821037Y-81617866D01*
X129943266Y-81426008D01*
X129945052Y-81423360D01*
X130082440Y-81230936D01*
X130221003Y-81050358D01*
X130222770Y-81048167D01*
X130375734Y-80867563D01*
X130530404Y-80698771D01*
X130698760Y-80530416D01*
X130700275Y-80529027D01*
X130867563Y-80375734D01*
X131048167Y-80222770D01*
X131050358Y-80221003D01*
X131230936Y-80082440D01*
X131423360Y-79945052D01*
X131426008Y-79943266D01*
X131617866Y-79821037D01*
X131820766Y-79700135D01*
X131823834Y-79698424D01*
X132025627Y-79593376D01*
X132237598Y-79489750D01*
X132240970Y-79488229D01*
X132451333Y-79401094D01*
X132670712Y-79315491D01*
X132674521Y-79314150D01*
X132891958Y-79245591D01*
X133117073Y-79178571D01*
X133121322Y-79177470D01*
X133344588Y-79127972D01*
X133573517Y-79079970D01*
X133578069Y-79079194D01*
X133806772Y-79049085D01*
X134036684Y-79020427D01*
X134041610Y-79020013D01*
X134282423Y-79009499D01*
X134500000Y-79000500D01*
X134500500Y-79000500D01*
X165499500Y-79000500D01*
X165500000Y-79000500D01*
X165717445Y-79009493D01*
G37*
%TD.AperFunction*%
%TD*%
M02*
