%TF.GenerationSoftware,KiCad,Pcbnew,8.0.3*%
%TF.CreationDate,2024-08-22T22:40:52-04:00*%
%TF.ProjectId,Axis_Basic,41786973-5f42-4617-9369-632e6b696361,rev?*%
%TF.SameCoordinates,Original*%
%TF.FileFunction,Legend,Bot*%
%TF.FilePolarity,Positive*%
%FSLAX46Y46*%
G04 Gerber Fmt 4.6, Leading zero omitted, Abs format (unit mm)*
G04 Created by KiCad (PCBNEW 8.0.3) date 2024-08-22 22:40:52*
%MOMM*%
%LPD*%
G01*
G04 APERTURE LIST*
%ADD10C,0.150000*%
%ADD11C,0.120000*%
G04 APERTURE END LIST*
D10*
X154777506Y-80969819D02*
X154777506Y-81684104D01*
X154777506Y-81684104D02*
X154825125Y-81826961D01*
X154825125Y-81826961D02*
X154920363Y-81922200D01*
X154920363Y-81922200D02*
X155063220Y-81969819D01*
X155063220Y-81969819D02*
X155158458Y-81969819D01*
X153825125Y-81969819D02*
X154301315Y-81969819D01*
X154301315Y-81969819D02*
X154301315Y-80969819D01*
X152920363Y-81874580D02*
X152967982Y-81922200D01*
X152967982Y-81922200D02*
X153110839Y-81969819D01*
X153110839Y-81969819D02*
X153206077Y-81969819D01*
X153206077Y-81969819D02*
X153348934Y-81922200D01*
X153348934Y-81922200D02*
X153444172Y-81826961D01*
X153444172Y-81826961D02*
X153491791Y-81731723D01*
X153491791Y-81731723D02*
X153539410Y-81541247D01*
X153539410Y-81541247D02*
X153539410Y-81398390D01*
X153539410Y-81398390D02*
X153491791Y-81207914D01*
X153491791Y-81207914D02*
X153444172Y-81112676D01*
X153444172Y-81112676D02*
X153348934Y-81017438D01*
X153348934Y-81017438D02*
X153206077Y-80969819D01*
X153206077Y-80969819D02*
X153110839Y-80969819D01*
X153110839Y-80969819D02*
X152967982Y-81017438D01*
X152967982Y-81017438D02*
X152920363Y-81065057D01*
X152206077Y-80969819D02*
X152206077Y-81684104D01*
X152206077Y-81684104D02*
X152253696Y-81826961D01*
X152253696Y-81826961D02*
X152348934Y-81922200D01*
X152348934Y-81922200D02*
X152491791Y-81969819D01*
X152491791Y-81969819D02*
X152587029Y-81969819D01*
X151253696Y-81969819D02*
X151729886Y-81969819D01*
X151729886Y-81969819D02*
X151729886Y-80969819D01*
X150348934Y-81874580D02*
X150396553Y-81922200D01*
X150396553Y-81922200D02*
X150539410Y-81969819D01*
X150539410Y-81969819D02*
X150634648Y-81969819D01*
X150634648Y-81969819D02*
X150777505Y-81922200D01*
X150777505Y-81922200D02*
X150872743Y-81826961D01*
X150872743Y-81826961D02*
X150920362Y-81731723D01*
X150920362Y-81731723D02*
X150967981Y-81541247D01*
X150967981Y-81541247D02*
X150967981Y-81398390D01*
X150967981Y-81398390D02*
X150920362Y-81207914D01*
X150920362Y-81207914D02*
X150872743Y-81112676D01*
X150872743Y-81112676D02*
X150777505Y-81017438D01*
X150777505Y-81017438D02*
X150634648Y-80969819D01*
X150634648Y-80969819D02*
X150539410Y-80969819D01*
X150539410Y-80969819D02*
X150396553Y-81017438D01*
X150396553Y-81017438D02*
X150348934Y-81065057D01*
X149634648Y-80969819D02*
X149634648Y-81684104D01*
X149634648Y-81684104D02*
X149682267Y-81826961D01*
X149682267Y-81826961D02*
X149777505Y-81922200D01*
X149777505Y-81922200D02*
X149920362Y-81969819D01*
X149920362Y-81969819D02*
X150015600Y-81969819D01*
X148682267Y-81969819D02*
X149158457Y-81969819D01*
X149158457Y-81969819D02*
X149158457Y-80969819D01*
X147777505Y-81874580D02*
X147825124Y-81922200D01*
X147825124Y-81922200D02*
X147967981Y-81969819D01*
X147967981Y-81969819D02*
X148063219Y-81969819D01*
X148063219Y-81969819D02*
X148206076Y-81922200D01*
X148206076Y-81922200D02*
X148301314Y-81826961D01*
X148301314Y-81826961D02*
X148348933Y-81731723D01*
X148348933Y-81731723D02*
X148396552Y-81541247D01*
X148396552Y-81541247D02*
X148396552Y-81398390D01*
X148396552Y-81398390D02*
X148348933Y-81207914D01*
X148348933Y-81207914D02*
X148301314Y-81112676D01*
X148301314Y-81112676D02*
X148206076Y-81017438D01*
X148206076Y-81017438D02*
X148063219Y-80969819D01*
X148063219Y-80969819D02*
X147967981Y-80969819D01*
X147967981Y-80969819D02*
X147825124Y-81017438D01*
X147825124Y-81017438D02*
X147777505Y-81065057D01*
X147063219Y-80969819D02*
X147063219Y-81684104D01*
X147063219Y-81684104D02*
X147110838Y-81826961D01*
X147110838Y-81826961D02*
X147206076Y-81922200D01*
X147206076Y-81922200D02*
X147348933Y-81969819D01*
X147348933Y-81969819D02*
X147444171Y-81969819D01*
X146110838Y-81969819D02*
X146587028Y-81969819D01*
X146587028Y-81969819D02*
X146587028Y-80969819D01*
X145206076Y-81874580D02*
X145253695Y-81922200D01*
X145253695Y-81922200D02*
X145396552Y-81969819D01*
X145396552Y-81969819D02*
X145491790Y-81969819D01*
X145491790Y-81969819D02*
X145634647Y-81922200D01*
X145634647Y-81922200D02*
X145729885Y-81826961D01*
X145729885Y-81826961D02*
X145777504Y-81731723D01*
X145777504Y-81731723D02*
X145825123Y-81541247D01*
X145825123Y-81541247D02*
X145825123Y-81398390D01*
X145825123Y-81398390D02*
X145777504Y-81207914D01*
X145777504Y-81207914D02*
X145729885Y-81112676D01*
X145729885Y-81112676D02*
X145634647Y-81017438D01*
X145634647Y-81017438D02*
X145491790Y-80969819D01*
X145491790Y-80969819D02*
X145396552Y-80969819D01*
X145396552Y-80969819D02*
X145253695Y-81017438D01*
X145253695Y-81017438D02*
X145206076Y-81065057D01*
X160574819Y-98272380D02*
X160098628Y-97939047D01*
X160574819Y-97700952D02*
X159574819Y-97700952D01*
X159574819Y-97700952D02*
X159574819Y-98081904D01*
X159574819Y-98081904D02*
X159622438Y-98177142D01*
X159622438Y-98177142D02*
X159670057Y-98224761D01*
X159670057Y-98224761D02*
X159765295Y-98272380D01*
X159765295Y-98272380D02*
X159908152Y-98272380D01*
X159908152Y-98272380D02*
X160003390Y-98224761D01*
X160003390Y-98224761D02*
X160051009Y-98177142D01*
X160051009Y-98177142D02*
X160098628Y-98081904D01*
X160098628Y-98081904D02*
X160098628Y-97700952D01*
X160527200Y-98653333D02*
X160574819Y-98796190D01*
X160574819Y-98796190D02*
X160574819Y-99034285D01*
X160574819Y-99034285D02*
X160527200Y-99129523D01*
X160527200Y-99129523D02*
X160479580Y-99177142D01*
X160479580Y-99177142D02*
X160384342Y-99224761D01*
X160384342Y-99224761D02*
X160289104Y-99224761D01*
X160289104Y-99224761D02*
X160193866Y-99177142D01*
X160193866Y-99177142D02*
X160146247Y-99129523D01*
X160146247Y-99129523D02*
X160098628Y-99034285D01*
X160098628Y-99034285D02*
X160051009Y-98843809D01*
X160051009Y-98843809D02*
X160003390Y-98748571D01*
X160003390Y-98748571D02*
X159955771Y-98700952D01*
X159955771Y-98700952D02*
X159860533Y-98653333D01*
X159860533Y-98653333D02*
X159765295Y-98653333D01*
X159765295Y-98653333D02*
X159670057Y-98700952D01*
X159670057Y-98700952D02*
X159622438Y-98748571D01*
X159622438Y-98748571D02*
X159574819Y-98843809D01*
X159574819Y-98843809D02*
X159574819Y-99081904D01*
X159574819Y-99081904D02*
X159622438Y-99224761D01*
X159574819Y-99510476D02*
X159574819Y-100081904D01*
X160574819Y-99796190D02*
X159574819Y-99796190D01*
X157819580Y-95484761D02*
X157867200Y-95437142D01*
X157867200Y-95437142D02*
X157914819Y-95294285D01*
X157914819Y-95294285D02*
X157914819Y-95199047D01*
X157914819Y-95199047D02*
X157867200Y-95056190D01*
X157867200Y-95056190D02*
X157771961Y-94960952D01*
X157771961Y-94960952D02*
X157676723Y-94913333D01*
X157676723Y-94913333D02*
X157486247Y-94865714D01*
X157486247Y-94865714D02*
X157343390Y-94865714D01*
X157343390Y-94865714D02*
X157152914Y-94913333D01*
X157152914Y-94913333D02*
X157057676Y-94960952D01*
X157057676Y-94960952D02*
X156962438Y-95056190D01*
X156962438Y-95056190D02*
X156914819Y-95199047D01*
X156914819Y-95199047D02*
X156914819Y-95294285D01*
X156914819Y-95294285D02*
X156962438Y-95437142D01*
X156962438Y-95437142D02*
X157010057Y-95484761D01*
X157914819Y-96389523D02*
X157914819Y-95913333D01*
X157914819Y-95913333D02*
X156914819Y-95913333D01*
X157914819Y-96722857D02*
X156914819Y-96722857D01*
X157914819Y-97294285D02*
X157343390Y-96865714D01*
X156914819Y-97294285D02*
X157486247Y-96722857D01*
X155394819Y-92316191D02*
X154394819Y-92316191D01*
X154394819Y-92316191D02*
X154394819Y-92554286D01*
X154394819Y-92554286D02*
X154442438Y-92697143D01*
X154442438Y-92697143D02*
X154537676Y-92792381D01*
X154537676Y-92792381D02*
X154632914Y-92840000D01*
X154632914Y-92840000D02*
X154823390Y-92887619D01*
X154823390Y-92887619D02*
X154966247Y-92887619D01*
X154966247Y-92887619D02*
X155156723Y-92840000D01*
X155156723Y-92840000D02*
X155251961Y-92792381D01*
X155251961Y-92792381D02*
X155347200Y-92697143D01*
X155347200Y-92697143D02*
X155394819Y-92554286D01*
X155394819Y-92554286D02*
X155394819Y-92316191D01*
X155394819Y-93316191D02*
X154394819Y-93316191D01*
X154394819Y-93982857D02*
X154394819Y-94173333D01*
X154394819Y-94173333D02*
X154442438Y-94268571D01*
X154442438Y-94268571D02*
X154537676Y-94363809D01*
X154537676Y-94363809D02*
X154728152Y-94411428D01*
X154728152Y-94411428D02*
X155061485Y-94411428D01*
X155061485Y-94411428D02*
X155251961Y-94363809D01*
X155251961Y-94363809D02*
X155347200Y-94268571D01*
X155347200Y-94268571D02*
X155394819Y-94173333D01*
X155394819Y-94173333D02*
X155394819Y-93982857D01*
X155394819Y-93982857D02*
X155347200Y-93887619D01*
X155347200Y-93887619D02*
X155251961Y-93792381D01*
X155251961Y-93792381D02*
X155061485Y-93744762D01*
X155061485Y-93744762D02*
X154728152Y-93744762D01*
X154728152Y-93744762D02*
X154537676Y-93792381D01*
X154537676Y-93792381D02*
X154442438Y-93887619D01*
X154442438Y-93887619D02*
X154394819Y-93982857D01*
X151902438Y-89978095D02*
X151854819Y-89882857D01*
X151854819Y-89882857D02*
X151854819Y-89740000D01*
X151854819Y-89740000D02*
X151902438Y-89597143D01*
X151902438Y-89597143D02*
X151997676Y-89501905D01*
X151997676Y-89501905D02*
X152092914Y-89454286D01*
X152092914Y-89454286D02*
X152283390Y-89406667D01*
X152283390Y-89406667D02*
X152426247Y-89406667D01*
X152426247Y-89406667D02*
X152616723Y-89454286D01*
X152616723Y-89454286D02*
X152711961Y-89501905D01*
X152711961Y-89501905D02*
X152807200Y-89597143D01*
X152807200Y-89597143D02*
X152854819Y-89740000D01*
X152854819Y-89740000D02*
X152854819Y-89835238D01*
X152854819Y-89835238D02*
X152807200Y-89978095D01*
X152807200Y-89978095D02*
X152759580Y-90025714D01*
X152759580Y-90025714D02*
X152426247Y-90025714D01*
X152426247Y-90025714D02*
X152426247Y-89835238D01*
X152854819Y-90454286D02*
X151854819Y-90454286D01*
X151854819Y-90454286D02*
X152854819Y-91025714D01*
X152854819Y-91025714D02*
X151854819Y-91025714D01*
X152854819Y-91501905D02*
X151854819Y-91501905D01*
X151854819Y-91501905D02*
X151854819Y-91740000D01*
X151854819Y-91740000D02*
X151902438Y-91882857D01*
X151902438Y-91882857D02*
X151997676Y-91978095D01*
X151997676Y-91978095D02*
X152092914Y-92025714D01*
X152092914Y-92025714D02*
X152283390Y-92073333D01*
X152283390Y-92073333D02*
X152426247Y-92073333D01*
X152426247Y-92073333D02*
X152616723Y-92025714D01*
X152616723Y-92025714D02*
X152711961Y-91978095D01*
X152711961Y-91978095D02*
X152807200Y-91882857D01*
X152807200Y-91882857D02*
X152854819Y-91740000D01*
X152854819Y-91740000D02*
X152854819Y-91501905D01*
X149314819Y-86723810D02*
X149314819Y-87342857D01*
X149314819Y-87342857D02*
X149695771Y-87009524D01*
X149695771Y-87009524D02*
X149695771Y-87152381D01*
X149695771Y-87152381D02*
X149743390Y-87247619D01*
X149743390Y-87247619D02*
X149791009Y-87295238D01*
X149791009Y-87295238D02*
X149886247Y-87342857D01*
X149886247Y-87342857D02*
X150124342Y-87342857D01*
X150124342Y-87342857D02*
X150219580Y-87295238D01*
X150219580Y-87295238D02*
X150267200Y-87247619D01*
X150267200Y-87247619D02*
X150314819Y-87152381D01*
X150314819Y-87152381D02*
X150314819Y-86866667D01*
X150314819Y-86866667D02*
X150267200Y-86771429D01*
X150267200Y-86771429D02*
X150219580Y-86723810D01*
X150219580Y-87771429D02*
X150267200Y-87819048D01*
X150267200Y-87819048D02*
X150314819Y-87771429D01*
X150314819Y-87771429D02*
X150267200Y-87723810D01*
X150267200Y-87723810D02*
X150219580Y-87771429D01*
X150219580Y-87771429D02*
X150314819Y-87771429D01*
X149314819Y-88152381D02*
X149314819Y-88771428D01*
X149314819Y-88771428D02*
X149695771Y-88438095D01*
X149695771Y-88438095D02*
X149695771Y-88580952D01*
X149695771Y-88580952D02*
X149743390Y-88676190D01*
X149743390Y-88676190D02*
X149791009Y-88723809D01*
X149791009Y-88723809D02*
X149886247Y-88771428D01*
X149886247Y-88771428D02*
X150124342Y-88771428D01*
X150124342Y-88771428D02*
X150219580Y-88723809D01*
X150219580Y-88723809D02*
X150267200Y-88676190D01*
X150267200Y-88676190D02*
X150314819Y-88580952D01*
X150314819Y-88580952D02*
X150314819Y-88295238D01*
X150314819Y-88295238D02*
X150267200Y-88200000D01*
X150267200Y-88200000D02*
X150219580Y-88152381D01*
X149314819Y-89057143D02*
X150314819Y-89390476D01*
X150314819Y-89390476D02*
X149314819Y-89723809D01*
D11*
%TO.C,RST*%
X161220000Y-101600000D02*
G75*
G02*
X158820000Y-101600000I-1200000J0D01*
G01*
X158820000Y-101600000D02*
G75*
G02*
X161220000Y-101600000I1200000J0D01*
G01*
%TO.C,CLK*%
X158680000Y-99060000D02*
G75*
G02*
X156280000Y-99060000I-1200000J0D01*
G01*
X156280000Y-99060000D02*
G75*
G02*
X158680000Y-99060000I1200000J0D01*
G01*
%TO.C,DIO*%
X156140000Y-96520000D02*
G75*
G02*
X153740000Y-96520000I-1200000J0D01*
G01*
X153740000Y-96520000D02*
G75*
G02*
X156140000Y-96520000I1200000J0D01*
G01*
%TO.C,GND*%
X153600000Y-93980000D02*
G75*
G02*
X151200000Y-93980000I-1200000J0D01*
G01*
X151200000Y-93980000D02*
G75*
G02*
X153600000Y-93980000I1200000J0D01*
G01*
%TO.C,3.3V*%
X151060000Y-91440000D02*
G75*
G02*
X148660000Y-91440000I-1200000J0D01*
G01*
X148660000Y-91440000D02*
G75*
G02*
X151060000Y-91440000I1200000J0D01*
G01*
%TO.C,U1*%
X150000000Y-98440000D02*
X149200000Y-98440000D01*
X150000000Y-98440000D02*
X150800000Y-98440000D01*
X150000000Y-101560000D02*
X148200000Y-101560000D01*
X150000000Y-101560000D02*
X150800000Y-101560000D01*
%TD*%
M02*
