%TF.GenerationSoftware,KiCad,Pcbnew,8.0.3*%
%TF.CreationDate,2024-10-17T21:46:56-04:00*%
%TF.ProjectId,Axis_Basic,41786973-5f42-4617-9369-632e6b696361,rev?*%
%TF.SameCoordinates,Original*%
%TF.FileFunction,Drillmap*%
%TF.FilePolarity,Positive*%
%FSLAX45Y45*%
G04 Gerber Fmt 4.5, Leading zero omitted, Abs format (unit mm)*
G04 Created by KiCad (PCBNEW 8.0.3) date 2024-10-17 21:46:56*
%MOMM*%
%LPD*%
G01*
G04 APERTURE LIST*
%ADD10C,0.100000*%
%ADD11C,0.200000*%
G04 APERTURE END LIST*
D10*
X13450000Y-12100000D02*
G75*
G02*
X12900000Y-11550000I0J550000D01*
G01*
X16550000Y-7900000D02*
G75*
G02*
X17100000Y-8450000I0J-550000D01*
G01*
X12900000Y-8450000D02*
G75*
G02*
X13450000Y-7900000I550000J0D01*
G01*
X13450000Y-7900000D02*
X16550000Y-7900000D01*
X17100000Y-11550000D02*
G75*
G02*
X16550000Y-12100000I-550000J0D01*
G01*
X17100000Y-8450000D02*
X17100000Y-11550000D01*
X16550000Y-12100000D02*
X13450000Y-12100000D01*
X12900000Y-11550000D02*
X12900000Y-8450000D01*
D11*
D10*
X16567000Y-10343500D02*
X16632000Y-10408500D01*
X16632000Y-10343500D02*
X16567000Y-10408500D01*
X16567000Y-10921500D02*
X16632000Y-10986500D01*
X16632000Y-10921500D02*
X16567000Y-10986500D01*
D11*
X13155777Y-12416484D02*
X13155777Y-12216484D01*
X13155777Y-12216484D02*
X13203396Y-12216484D01*
X13203396Y-12216484D02*
X13231967Y-12226008D01*
X13231967Y-12226008D02*
X13251015Y-12245055D01*
X13251015Y-12245055D02*
X13260539Y-12264103D01*
X13260539Y-12264103D02*
X13270062Y-12302198D01*
X13270062Y-12302198D02*
X13270062Y-12330769D01*
X13270062Y-12330769D02*
X13260539Y-12368865D01*
X13260539Y-12368865D02*
X13251015Y-12387912D01*
X13251015Y-12387912D02*
X13231967Y-12406960D01*
X13231967Y-12406960D02*
X13203396Y-12416484D01*
X13203396Y-12416484D02*
X13155777Y-12416484D01*
X13355777Y-12416484D02*
X13355777Y-12283150D01*
X13355777Y-12321246D02*
X13365301Y-12302198D01*
X13365301Y-12302198D02*
X13374824Y-12292674D01*
X13374824Y-12292674D02*
X13393872Y-12283150D01*
X13393872Y-12283150D02*
X13412920Y-12283150D01*
X13479586Y-12416484D02*
X13479586Y-12283150D01*
X13479586Y-12216484D02*
X13470062Y-12226008D01*
X13470062Y-12226008D02*
X13479586Y-12235531D01*
X13479586Y-12235531D02*
X13489110Y-12226008D01*
X13489110Y-12226008D02*
X13479586Y-12216484D01*
X13479586Y-12216484D02*
X13479586Y-12235531D01*
X13603396Y-12416484D02*
X13584348Y-12406960D01*
X13584348Y-12406960D02*
X13574824Y-12387912D01*
X13574824Y-12387912D02*
X13574824Y-12216484D01*
X13708158Y-12416484D02*
X13689110Y-12406960D01*
X13689110Y-12406960D02*
X13679586Y-12387912D01*
X13679586Y-12387912D02*
X13679586Y-12216484D01*
X13936729Y-12416484D02*
X13936729Y-12216484D01*
X13936729Y-12216484D02*
X14003396Y-12359341D01*
X14003396Y-12359341D02*
X14070062Y-12216484D01*
X14070062Y-12216484D02*
X14070062Y-12416484D01*
X14251015Y-12416484D02*
X14251015Y-12311722D01*
X14251015Y-12311722D02*
X14241491Y-12292674D01*
X14241491Y-12292674D02*
X14222443Y-12283150D01*
X14222443Y-12283150D02*
X14184348Y-12283150D01*
X14184348Y-12283150D02*
X14165301Y-12292674D01*
X14251015Y-12406960D02*
X14231967Y-12416484D01*
X14231967Y-12416484D02*
X14184348Y-12416484D01*
X14184348Y-12416484D02*
X14165301Y-12406960D01*
X14165301Y-12406960D02*
X14155777Y-12387912D01*
X14155777Y-12387912D02*
X14155777Y-12368865D01*
X14155777Y-12368865D02*
X14165301Y-12349817D01*
X14165301Y-12349817D02*
X14184348Y-12340293D01*
X14184348Y-12340293D02*
X14231967Y-12340293D01*
X14231967Y-12340293D02*
X14251015Y-12330769D01*
X14346253Y-12283150D02*
X14346253Y-12483150D01*
X14346253Y-12292674D02*
X14365301Y-12283150D01*
X14365301Y-12283150D02*
X14403396Y-12283150D01*
X14403396Y-12283150D02*
X14422443Y-12292674D01*
X14422443Y-12292674D02*
X14431967Y-12302198D01*
X14431967Y-12302198D02*
X14441491Y-12321246D01*
X14441491Y-12321246D02*
X14441491Y-12378388D01*
X14441491Y-12378388D02*
X14431967Y-12397436D01*
X14431967Y-12397436D02*
X14422443Y-12406960D01*
X14422443Y-12406960D02*
X14403396Y-12416484D01*
X14403396Y-12416484D02*
X14365301Y-12416484D01*
X14365301Y-12416484D02*
X14346253Y-12406960D01*
X14527205Y-12397436D02*
X14536729Y-12406960D01*
X14536729Y-12406960D02*
X14527205Y-12416484D01*
X14527205Y-12416484D02*
X14517682Y-12406960D01*
X14517682Y-12406960D02*
X14527205Y-12397436D01*
X14527205Y-12397436D02*
X14527205Y-12416484D01*
X14527205Y-12292674D02*
X14536729Y-12302198D01*
X14536729Y-12302198D02*
X14527205Y-12311722D01*
X14527205Y-12311722D02*
X14517682Y-12302198D01*
X14517682Y-12302198D02*
X14527205Y-12292674D01*
X14527205Y-12292674D02*
X14527205Y-12311722D01*
D10*
X12830000Y-12712500D02*
X12895000Y-12777500D01*
X12895000Y-12712500D02*
X12830000Y-12777500D01*
D11*
X13193872Y-12636484D02*
X13212920Y-12636484D01*
X13212920Y-12636484D02*
X13231967Y-12646008D01*
X13231967Y-12646008D02*
X13241491Y-12655531D01*
X13241491Y-12655531D02*
X13251015Y-12674579D01*
X13251015Y-12674579D02*
X13260539Y-12712674D01*
X13260539Y-12712674D02*
X13260539Y-12760293D01*
X13260539Y-12760293D02*
X13251015Y-12798388D01*
X13251015Y-12798388D02*
X13241491Y-12817436D01*
X13241491Y-12817436D02*
X13231967Y-12826960D01*
X13231967Y-12826960D02*
X13212920Y-12836484D01*
X13212920Y-12836484D02*
X13193872Y-12836484D01*
X13193872Y-12836484D02*
X13174824Y-12826960D01*
X13174824Y-12826960D02*
X13165301Y-12817436D01*
X13165301Y-12817436D02*
X13155777Y-12798388D01*
X13155777Y-12798388D02*
X13146253Y-12760293D01*
X13146253Y-12760293D02*
X13146253Y-12712674D01*
X13146253Y-12712674D02*
X13155777Y-12674579D01*
X13155777Y-12674579D02*
X13165301Y-12655531D01*
X13165301Y-12655531D02*
X13174824Y-12646008D01*
X13174824Y-12646008D02*
X13193872Y-12636484D01*
X13346253Y-12817436D02*
X13355777Y-12826960D01*
X13355777Y-12826960D02*
X13346253Y-12836484D01*
X13346253Y-12836484D02*
X13336729Y-12826960D01*
X13336729Y-12826960D02*
X13346253Y-12817436D01*
X13346253Y-12817436D02*
X13346253Y-12836484D01*
X13527205Y-12636484D02*
X13489110Y-12636484D01*
X13489110Y-12636484D02*
X13470062Y-12646008D01*
X13470062Y-12646008D02*
X13460539Y-12655531D01*
X13460539Y-12655531D02*
X13441491Y-12684103D01*
X13441491Y-12684103D02*
X13431967Y-12722198D01*
X13431967Y-12722198D02*
X13431967Y-12798388D01*
X13431967Y-12798388D02*
X13441491Y-12817436D01*
X13441491Y-12817436D02*
X13451015Y-12826960D01*
X13451015Y-12826960D02*
X13470062Y-12836484D01*
X13470062Y-12836484D02*
X13508158Y-12836484D01*
X13508158Y-12836484D02*
X13527205Y-12826960D01*
X13527205Y-12826960D02*
X13536729Y-12817436D01*
X13536729Y-12817436D02*
X13546253Y-12798388D01*
X13546253Y-12798388D02*
X13546253Y-12750769D01*
X13546253Y-12750769D02*
X13536729Y-12731722D01*
X13536729Y-12731722D02*
X13527205Y-12722198D01*
X13527205Y-12722198D02*
X13508158Y-12712674D01*
X13508158Y-12712674D02*
X13470062Y-12712674D01*
X13470062Y-12712674D02*
X13451015Y-12722198D01*
X13451015Y-12722198D02*
X13441491Y-12731722D01*
X13441491Y-12731722D02*
X13431967Y-12750769D01*
X13727205Y-12636484D02*
X13631967Y-12636484D01*
X13631967Y-12636484D02*
X13622443Y-12731722D01*
X13622443Y-12731722D02*
X13631967Y-12722198D01*
X13631967Y-12722198D02*
X13651015Y-12712674D01*
X13651015Y-12712674D02*
X13698634Y-12712674D01*
X13698634Y-12712674D02*
X13717682Y-12722198D01*
X13717682Y-12722198D02*
X13727205Y-12731722D01*
X13727205Y-12731722D02*
X13736729Y-12750769D01*
X13736729Y-12750769D02*
X13736729Y-12798388D01*
X13736729Y-12798388D02*
X13727205Y-12817436D01*
X13727205Y-12817436D02*
X13717682Y-12826960D01*
X13717682Y-12826960D02*
X13698634Y-12836484D01*
X13698634Y-12836484D02*
X13651015Y-12836484D01*
X13651015Y-12836484D02*
X13631967Y-12826960D01*
X13631967Y-12826960D02*
X13622443Y-12817436D01*
X13860539Y-12636484D02*
X13879586Y-12636484D01*
X13879586Y-12636484D02*
X13898634Y-12646008D01*
X13898634Y-12646008D02*
X13908158Y-12655531D01*
X13908158Y-12655531D02*
X13917682Y-12674579D01*
X13917682Y-12674579D02*
X13927205Y-12712674D01*
X13927205Y-12712674D02*
X13927205Y-12760293D01*
X13927205Y-12760293D02*
X13917682Y-12798388D01*
X13917682Y-12798388D02*
X13908158Y-12817436D01*
X13908158Y-12817436D02*
X13898634Y-12826960D01*
X13898634Y-12826960D02*
X13879586Y-12836484D01*
X13879586Y-12836484D02*
X13860539Y-12836484D01*
X13860539Y-12836484D02*
X13841491Y-12826960D01*
X13841491Y-12826960D02*
X13831967Y-12817436D01*
X13831967Y-12817436D02*
X13822443Y-12798388D01*
X13822443Y-12798388D02*
X13812920Y-12760293D01*
X13812920Y-12760293D02*
X13812920Y-12712674D01*
X13812920Y-12712674D02*
X13822443Y-12674579D01*
X13822443Y-12674579D02*
X13831967Y-12655531D01*
X13831967Y-12655531D02*
X13841491Y-12646008D01*
X13841491Y-12646008D02*
X13860539Y-12636484D01*
X14012920Y-12836484D02*
X14012920Y-12703150D01*
X14012920Y-12722198D02*
X14022443Y-12712674D01*
X14022443Y-12712674D02*
X14041491Y-12703150D01*
X14041491Y-12703150D02*
X14070063Y-12703150D01*
X14070063Y-12703150D02*
X14089110Y-12712674D01*
X14089110Y-12712674D02*
X14098634Y-12731722D01*
X14098634Y-12731722D02*
X14098634Y-12836484D01*
X14098634Y-12731722D02*
X14108158Y-12712674D01*
X14108158Y-12712674D02*
X14127205Y-12703150D01*
X14127205Y-12703150D02*
X14155777Y-12703150D01*
X14155777Y-12703150D02*
X14174824Y-12712674D01*
X14174824Y-12712674D02*
X14184348Y-12731722D01*
X14184348Y-12731722D02*
X14184348Y-12836484D01*
X14279586Y-12836484D02*
X14279586Y-12703150D01*
X14279586Y-12722198D02*
X14289110Y-12712674D01*
X14289110Y-12712674D02*
X14308158Y-12703150D01*
X14308158Y-12703150D02*
X14336729Y-12703150D01*
X14336729Y-12703150D02*
X14355777Y-12712674D01*
X14355777Y-12712674D02*
X14365301Y-12731722D01*
X14365301Y-12731722D02*
X14365301Y-12836484D01*
X14365301Y-12731722D02*
X14374824Y-12712674D01*
X14374824Y-12712674D02*
X14393872Y-12703150D01*
X14393872Y-12703150D02*
X14422443Y-12703150D01*
X14422443Y-12703150D02*
X14441491Y-12712674D01*
X14441491Y-12712674D02*
X14451015Y-12731722D01*
X14451015Y-12731722D02*
X14451015Y-12836484D01*
X14841491Y-12626960D02*
X14670063Y-12884103D01*
X15098634Y-12636484D02*
X15117682Y-12636484D01*
X15117682Y-12636484D02*
X15136729Y-12646008D01*
X15136729Y-12646008D02*
X15146253Y-12655531D01*
X15146253Y-12655531D02*
X15155777Y-12674579D01*
X15155777Y-12674579D02*
X15165301Y-12712674D01*
X15165301Y-12712674D02*
X15165301Y-12760293D01*
X15165301Y-12760293D02*
X15155777Y-12798388D01*
X15155777Y-12798388D02*
X15146253Y-12817436D01*
X15146253Y-12817436D02*
X15136729Y-12826960D01*
X15136729Y-12826960D02*
X15117682Y-12836484D01*
X15117682Y-12836484D02*
X15098634Y-12836484D01*
X15098634Y-12836484D02*
X15079586Y-12826960D01*
X15079586Y-12826960D02*
X15070063Y-12817436D01*
X15070063Y-12817436D02*
X15060539Y-12798388D01*
X15060539Y-12798388D02*
X15051015Y-12760293D01*
X15051015Y-12760293D02*
X15051015Y-12712674D01*
X15051015Y-12712674D02*
X15060539Y-12674579D01*
X15060539Y-12674579D02*
X15070063Y-12655531D01*
X15070063Y-12655531D02*
X15079586Y-12646008D01*
X15079586Y-12646008D02*
X15098634Y-12636484D01*
X15251015Y-12817436D02*
X15260539Y-12826960D01*
X15260539Y-12826960D02*
X15251015Y-12836484D01*
X15251015Y-12836484D02*
X15241491Y-12826960D01*
X15241491Y-12826960D02*
X15251015Y-12817436D01*
X15251015Y-12817436D02*
X15251015Y-12836484D01*
X15384348Y-12636484D02*
X15403396Y-12636484D01*
X15403396Y-12636484D02*
X15422444Y-12646008D01*
X15422444Y-12646008D02*
X15431967Y-12655531D01*
X15431967Y-12655531D02*
X15441491Y-12674579D01*
X15441491Y-12674579D02*
X15451015Y-12712674D01*
X15451015Y-12712674D02*
X15451015Y-12760293D01*
X15451015Y-12760293D02*
X15441491Y-12798388D01*
X15441491Y-12798388D02*
X15431967Y-12817436D01*
X15431967Y-12817436D02*
X15422444Y-12826960D01*
X15422444Y-12826960D02*
X15403396Y-12836484D01*
X15403396Y-12836484D02*
X15384348Y-12836484D01*
X15384348Y-12836484D02*
X15365301Y-12826960D01*
X15365301Y-12826960D02*
X15355777Y-12817436D01*
X15355777Y-12817436D02*
X15346253Y-12798388D01*
X15346253Y-12798388D02*
X15336729Y-12760293D01*
X15336729Y-12760293D02*
X15336729Y-12712674D01*
X15336729Y-12712674D02*
X15346253Y-12674579D01*
X15346253Y-12674579D02*
X15355777Y-12655531D01*
X15355777Y-12655531D02*
X15365301Y-12646008D01*
X15365301Y-12646008D02*
X15384348Y-12636484D01*
X15527206Y-12655531D02*
X15536729Y-12646008D01*
X15536729Y-12646008D02*
X15555777Y-12636484D01*
X15555777Y-12636484D02*
X15603396Y-12636484D01*
X15603396Y-12636484D02*
X15622444Y-12646008D01*
X15622444Y-12646008D02*
X15631967Y-12655531D01*
X15631967Y-12655531D02*
X15641491Y-12674579D01*
X15641491Y-12674579D02*
X15641491Y-12693627D01*
X15641491Y-12693627D02*
X15631967Y-12722198D01*
X15631967Y-12722198D02*
X15517682Y-12836484D01*
X15517682Y-12836484D02*
X15641491Y-12836484D01*
X15822444Y-12636484D02*
X15727206Y-12636484D01*
X15727206Y-12636484D02*
X15717682Y-12731722D01*
X15717682Y-12731722D02*
X15727206Y-12722198D01*
X15727206Y-12722198D02*
X15746253Y-12712674D01*
X15746253Y-12712674D02*
X15793872Y-12712674D01*
X15793872Y-12712674D02*
X15812920Y-12722198D01*
X15812920Y-12722198D02*
X15822444Y-12731722D01*
X15822444Y-12731722D02*
X15831967Y-12750769D01*
X15831967Y-12750769D02*
X15831967Y-12798388D01*
X15831967Y-12798388D02*
X15822444Y-12817436D01*
X15822444Y-12817436D02*
X15812920Y-12826960D01*
X15812920Y-12826960D02*
X15793872Y-12836484D01*
X15793872Y-12836484D02*
X15746253Y-12836484D01*
X15746253Y-12836484D02*
X15727206Y-12826960D01*
X15727206Y-12826960D02*
X15717682Y-12817436D01*
X16003396Y-12636484D02*
X15965301Y-12636484D01*
X15965301Y-12636484D02*
X15946253Y-12646008D01*
X15946253Y-12646008D02*
X15936729Y-12655531D01*
X15936729Y-12655531D02*
X15917682Y-12684103D01*
X15917682Y-12684103D02*
X15908158Y-12722198D01*
X15908158Y-12722198D02*
X15908158Y-12798388D01*
X15908158Y-12798388D02*
X15917682Y-12817436D01*
X15917682Y-12817436D02*
X15927206Y-12826960D01*
X15927206Y-12826960D02*
X15946253Y-12836484D01*
X15946253Y-12836484D02*
X15984348Y-12836484D01*
X15984348Y-12836484D02*
X16003396Y-12826960D01*
X16003396Y-12826960D02*
X16012920Y-12817436D01*
X16012920Y-12817436D02*
X16022444Y-12798388D01*
X16022444Y-12798388D02*
X16022444Y-12750769D01*
X16022444Y-12750769D02*
X16012920Y-12731722D01*
X16012920Y-12731722D02*
X16003396Y-12722198D01*
X16003396Y-12722198D02*
X15984348Y-12712674D01*
X15984348Y-12712674D02*
X15946253Y-12712674D01*
X15946253Y-12712674D02*
X15927206Y-12722198D01*
X15927206Y-12722198D02*
X15917682Y-12731722D01*
X15917682Y-12731722D02*
X15908158Y-12750769D01*
X16098634Y-12636484D02*
X16098634Y-12674579D01*
X16174825Y-12636484D02*
X16174825Y-12674579D01*
X16470063Y-12912674D02*
X16460539Y-12903150D01*
X16460539Y-12903150D02*
X16441491Y-12874579D01*
X16441491Y-12874579D02*
X16431968Y-12855531D01*
X16431968Y-12855531D02*
X16422444Y-12826960D01*
X16422444Y-12826960D02*
X16412920Y-12779341D01*
X16412920Y-12779341D02*
X16412920Y-12741246D01*
X16412920Y-12741246D02*
X16422444Y-12693627D01*
X16422444Y-12693627D02*
X16431968Y-12665055D01*
X16431968Y-12665055D02*
X16441491Y-12646008D01*
X16441491Y-12646008D02*
X16460539Y-12617436D01*
X16460539Y-12617436D02*
X16470063Y-12607912D01*
X16536729Y-12655531D02*
X16546253Y-12646008D01*
X16546253Y-12646008D02*
X16565301Y-12636484D01*
X16565301Y-12636484D02*
X16612920Y-12636484D01*
X16612920Y-12636484D02*
X16631968Y-12646008D01*
X16631968Y-12646008D02*
X16641491Y-12655531D01*
X16641491Y-12655531D02*
X16651015Y-12674579D01*
X16651015Y-12674579D02*
X16651015Y-12693627D01*
X16651015Y-12693627D02*
X16641491Y-12722198D01*
X16641491Y-12722198D02*
X16527206Y-12836484D01*
X16527206Y-12836484D02*
X16651015Y-12836484D01*
X16889111Y-12836484D02*
X16889111Y-12636484D01*
X16974825Y-12836484D02*
X16974825Y-12731722D01*
X16974825Y-12731722D02*
X16965301Y-12712674D01*
X16965301Y-12712674D02*
X16946253Y-12703150D01*
X16946253Y-12703150D02*
X16917682Y-12703150D01*
X16917682Y-12703150D02*
X16898634Y-12712674D01*
X16898634Y-12712674D02*
X16889111Y-12722198D01*
X17098634Y-12836484D02*
X17079587Y-12826960D01*
X17079587Y-12826960D02*
X17070063Y-12817436D01*
X17070063Y-12817436D02*
X17060539Y-12798388D01*
X17060539Y-12798388D02*
X17060539Y-12741246D01*
X17060539Y-12741246D02*
X17070063Y-12722198D01*
X17070063Y-12722198D02*
X17079587Y-12712674D01*
X17079587Y-12712674D02*
X17098634Y-12703150D01*
X17098634Y-12703150D02*
X17127206Y-12703150D01*
X17127206Y-12703150D02*
X17146253Y-12712674D01*
X17146253Y-12712674D02*
X17155777Y-12722198D01*
X17155777Y-12722198D02*
X17165301Y-12741246D01*
X17165301Y-12741246D02*
X17165301Y-12798388D01*
X17165301Y-12798388D02*
X17155777Y-12817436D01*
X17155777Y-12817436D02*
X17146253Y-12826960D01*
X17146253Y-12826960D02*
X17127206Y-12836484D01*
X17127206Y-12836484D02*
X17098634Y-12836484D01*
X17279587Y-12836484D02*
X17260539Y-12826960D01*
X17260539Y-12826960D02*
X17251015Y-12807912D01*
X17251015Y-12807912D02*
X17251015Y-12636484D01*
X17431968Y-12826960D02*
X17412920Y-12836484D01*
X17412920Y-12836484D02*
X17374825Y-12836484D01*
X17374825Y-12836484D02*
X17355777Y-12826960D01*
X17355777Y-12826960D02*
X17346253Y-12807912D01*
X17346253Y-12807912D02*
X17346253Y-12731722D01*
X17346253Y-12731722D02*
X17355777Y-12712674D01*
X17355777Y-12712674D02*
X17374825Y-12703150D01*
X17374825Y-12703150D02*
X17412920Y-12703150D01*
X17412920Y-12703150D02*
X17431968Y-12712674D01*
X17431968Y-12712674D02*
X17441492Y-12731722D01*
X17441492Y-12731722D02*
X17441492Y-12750769D01*
X17441492Y-12750769D02*
X17346253Y-12769817D01*
X17517682Y-12826960D02*
X17536730Y-12836484D01*
X17536730Y-12836484D02*
X17574825Y-12836484D01*
X17574825Y-12836484D02*
X17593873Y-12826960D01*
X17593873Y-12826960D02*
X17603396Y-12807912D01*
X17603396Y-12807912D02*
X17603396Y-12798388D01*
X17603396Y-12798388D02*
X17593873Y-12779341D01*
X17593873Y-12779341D02*
X17574825Y-12769817D01*
X17574825Y-12769817D02*
X17546253Y-12769817D01*
X17546253Y-12769817D02*
X17527206Y-12760293D01*
X17527206Y-12760293D02*
X17517682Y-12741246D01*
X17517682Y-12741246D02*
X17517682Y-12731722D01*
X17517682Y-12731722D02*
X17527206Y-12712674D01*
X17527206Y-12712674D02*
X17546253Y-12703150D01*
X17546253Y-12703150D02*
X17574825Y-12703150D01*
X17574825Y-12703150D02*
X17593873Y-12712674D01*
X17670063Y-12912674D02*
X17679587Y-12903150D01*
X17679587Y-12903150D02*
X17698634Y-12874579D01*
X17698634Y-12874579D02*
X17708158Y-12855531D01*
X17708158Y-12855531D02*
X17717682Y-12826960D01*
X17717682Y-12826960D02*
X17727206Y-12779341D01*
X17727206Y-12779341D02*
X17727206Y-12741246D01*
X17727206Y-12741246D02*
X17717682Y-12693627D01*
X17717682Y-12693627D02*
X17708158Y-12665055D01*
X17708158Y-12665055D02*
X17698634Y-12646008D01*
X17698634Y-12646008D02*
X17679587Y-12617436D01*
X17679587Y-12617436D02*
X17670063Y-12607912D01*
X18031968Y-12912674D02*
X18022444Y-12903150D01*
X18022444Y-12903150D02*
X18003396Y-12874579D01*
X18003396Y-12874579D02*
X17993873Y-12855531D01*
X17993873Y-12855531D02*
X17984349Y-12826960D01*
X17984349Y-12826960D02*
X17974825Y-12779341D01*
X17974825Y-12779341D02*
X17974825Y-12741246D01*
X17974825Y-12741246D02*
X17984349Y-12693627D01*
X17984349Y-12693627D02*
X17993873Y-12665055D01*
X17993873Y-12665055D02*
X18003396Y-12646008D01*
X18003396Y-12646008D02*
X18022444Y-12617436D01*
X18022444Y-12617436D02*
X18031968Y-12607912D01*
X18108158Y-12703150D02*
X18108158Y-12836484D01*
X18108158Y-12722198D02*
X18117682Y-12712674D01*
X18117682Y-12712674D02*
X18136730Y-12703150D01*
X18136730Y-12703150D02*
X18165301Y-12703150D01*
X18165301Y-12703150D02*
X18184349Y-12712674D01*
X18184349Y-12712674D02*
X18193873Y-12731722D01*
X18193873Y-12731722D02*
X18193873Y-12836484D01*
X18317682Y-12836484D02*
X18298634Y-12826960D01*
X18298634Y-12826960D02*
X18289111Y-12817436D01*
X18289111Y-12817436D02*
X18279587Y-12798388D01*
X18279587Y-12798388D02*
X18279587Y-12741246D01*
X18279587Y-12741246D02*
X18289111Y-12722198D01*
X18289111Y-12722198D02*
X18298634Y-12712674D01*
X18298634Y-12712674D02*
X18317682Y-12703150D01*
X18317682Y-12703150D02*
X18346254Y-12703150D01*
X18346254Y-12703150D02*
X18365301Y-12712674D01*
X18365301Y-12712674D02*
X18374825Y-12722198D01*
X18374825Y-12722198D02*
X18384349Y-12741246D01*
X18384349Y-12741246D02*
X18384349Y-12798388D01*
X18384349Y-12798388D02*
X18374825Y-12817436D01*
X18374825Y-12817436D02*
X18365301Y-12826960D01*
X18365301Y-12826960D02*
X18346254Y-12836484D01*
X18346254Y-12836484D02*
X18317682Y-12836484D01*
X18441492Y-12703150D02*
X18517682Y-12703150D01*
X18470063Y-12636484D02*
X18470063Y-12807912D01*
X18470063Y-12807912D02*
X18479587Y-12826960D01*
X18479587Y-12826960D02*
X18498634Y-12836484D01*
X18498634Y-12836484D02*
X18517682Y-12836484D01*
X18736730Y-12703150D02*
X18736730Y-12903150D01*
X18736730Y-12712674D02*
X18755777Y-12703150D01*
X18755777Y-12703150D02*
X18793873Y-12703150D01*
X18793873Y-12703150D02*
X18812920Y-12712674D01*
X18812920Y-12712674D02*
X18822444Y-12722198D01*
X18822444Y-12722198D02*
X18831968Y-12741246D01*
X18831968Y-12741246D02*
X18831968Y-12798388D01*
X18831968Y-12798388D02*
X18822444Y-12817436D01*
X18822444Y-12817436D02*
X18812920Y-12826960D01*
X18812920Y-12826960D02*
X18793873Y-12836484D01*
X18793873Y-12836484D02*
X18755777Y-12836484D01*
X18755777Y-12836484D02*
X18736730Y-12826960D01*
X18946254Y-12836484D02*
X18927206Y-12826960D01*
X18927206Y-12826960D02*
X18917682Y-12807912D01*
X18917682Y-12807912D02*
X18917682Y-12636484D01*
X19108158Y-12836484D02*
X19108158Y-12731722D01*
X19108158Y-12731722D02*
X19098635Y-12712674D01*
X19098635Y-12712674D02*
X19079587Y-12703150D01*
X19079587Y-12703150D02*
X19041492Y-12703150D01*
X19041492Y-12703150D02*
X19022444Y-12712674D01*
X19108158Y-12826960D02*
X19089111Y-12836484D01*
X19089111Y-12836484D02*
X19041492Y-12836484D01*
X19041492Y-12836484D02*
X19022444Y-12826960D01*
X19022444Y-12826960D02*
X19012920Y-12807912D01*
X19012920Y-12807912D02*
X19012920Y-12788865D01*
X19012920Y-12788865D02*
X19022444Y-12769817D01*
X19022444Y-12769817D02*
X19041492Y-12760293D01*
X19041492Y-12760293D02*
X19089111Y-12760293D01*
X19089111Y-12760293D02*
X19108158Y-12750769D01*
X19174825Y-12703150D02*
X19251015Y-12703150D01*
X19203396Y-12636484D02*
X19203396Y-12807912D01*
X19203396Y-12807912D02*
X19212920Y-12826960D01*
X19212920Y-12826960D02*
X19231968Y-12836484D01*
X19231968Y-12836484D02*
X19251015Y-12836484D01*
X19393873Y-12826960D02*
X19374825Y-12836484D01*
X19374825Y-12836484D02*
X19336730Y-12836484D01*
X19336730Y-12836484D02*
X19317682Y-12826960D01*
X19317682Y-12826960D02*
X19308158Y-12807912D01*
X19308158Y-12807912D02*
X19308158Y-12731722D01*
X19308158Y-12731722D02*
X19317682Y-12712674D01*
X19317682Y-12712674D02*
X19336730Y-12703150D01*
X19336730Y-12703150D02*
X19374825Y-12703150D01*
X19374825Y-12703150D02*
X19393873Y-12712674D01*
X19393873Y-12712674D02*
X19403396Y-12731722D01*
X19403396Y-12731722D02*
X19403396Y-12750769D01*
X19403396Y-12750769D02*
X19308158Y-12769817D01*
X19574825Y-12836484D02*
X19574825Y-12636484D01*
X19574825Y-12826960D02*
X19555777Y-12836484D01*
X19555777Y-12836484D02*
X19517682Y-12836484D01*
X19517682Y-12836484D02*
X19498635Y-12826960D01*
X19498635Y-12826960D02*
X19489111Y-12817436D01*
X19489111Y-12817436D02*
X19479587Y-12798388D01*
X19479587Y-12798388D02*
X19479587Y-12741246D01*
X19479587Y-12741246D02*
X19489111Y-12722198D01*
X19489111Y-12722198D02*
X19498635Y-12712674D01*
X19498635Y-12712674D02*
X19517682Y-12703150D01*
X19517682Y-12703150D02*
X19555777Y-12703150D01*
X19555777Y-12703150D02*
X19574825Y-12712674D01*
X19651016Y-12912674D02*
X19660539Y-12903150D01*
X19660539Y-12903150D02*
X19679587Y-12874579D01*
X19679587Y-12874579D02*
X19689111Y-12855531D01*
X19689111Y-12855531D02*
X19698635Y-12826960D01*
X19698635Y-12826960D02*
X19708158Y-12779341D01*
X19708158Y-12779341D02*
X19708158Y-12741246D01*
X19708158Y-12741246D02*
X19698635Y-12693627D01*
X19698635Y-12693627D02*
X19689111Y-12665055D01*
X19689111Y-12665055D02*
X19679587Y-12646008D01*
X19679587Y-12646008D02*
X19660539Y-12617436D01*
X19660539Y-12617436D02*
X19651016Y-12607912D01*
M02*
