M48
; DRILL file {KiCad 7.0.6} date Thu Feb 29 20:21:01 2024
; FORMAT={-:-/ absolute / metric / decimal}
; #@! TF.CreationDate,2024-02-29T20:21:01-05:00
; #@! TF.GenerationSoftware,Kicad,Pcbnew,7.0.6
; #@! TF.FileFunction,Plated,1,4,PTH
FMAT,2
METRIC
; #@! TA.AperFunction,Plated,PTH,ViaDrill
T1C0.150
; #@! TA.AperFunction,Plated,PTH,ComponentDrill
T2C0.200
; #@! TA.AperFunction,Plated,PTH,ViaDrill
T3C0.350
; #@! TA.AperFunction,Plated,PTH,ViaDrill
T4C0.400
; #@! TA.AperFunction,Plated,PTH,ComponentDrill
T5C0.600
; #@! TA.AperFunction,Plated,PTH,ComponentDrill
T6C0.650
; #@! TA.AperFunction,Plated,PTH,ComponentDrill
T7C0.750
; #@! TA.AperFunction,Plated,PTH,ComponentDrill
T8C1.000
%
G90
G05
T1
X143.25Y-96.75
X143.25Y-97.25
X143.25Y-102.75
X143.25Y-103.25
X143.75Y-97.0
X143.75Y-97.5
X143.75Y-102.5
X143.75Y-103.0
T2
X144.95Y-99.0
X144.95Y-100.0
X144.95Y-101.0
X145.95Y-99.0
X145.95Y-100.0
X145.95Y-101.0
X146.95Y-99.0
X146.95Y-100.0
X146.95Y-101.0
T3
X133.1Y-107.9
X135.5Y-111.0
X135.7Y-108.1
X136.9Y-95.2
X136.9Y-96.0
X136.918Y-103.971
X136.918Y-104.771
X137.2Y-96.7
X137.218Y-103.271
X137.7Y-111.0
X138.0Y-96.7
X138.018Y-103.271
X138.2Y-111.7
X138.7Y-111.0
X138.8Y-96.7
X138.818Y-103.271
X139.2Y-111.7
X139.7Y-111.0
X140.2Y-111.7
X140.399Y-84.7
X142.3Y-105.6
X142.3Y-106.4
X142.3Y-107.2
X142.5Y-87.5
X143.1Y-105.6
X143.1Y-106.4
X143.1Y-107.2
X143.2Y-93.2
X143.2Y-94.0
X143.8Y-87.3
X143.9Y-92.8
X143.9Y-93.6
X143.9Y-94.4
X145.4Y-94.8
X145.4Y-94.8
X145.6Y-90.0
X146.585Y-87.054
X147.0Y-110.7
X147.1Y-83.0
X147.2Y-115.4
X147.6Y-116.1
X147.7Y-104.5
X147.9Y-93.4
X148.0Y-115.4
X148.0Y-116.8
X148.1Y-91.3
X148.1Y-97.8
X148.1Y-102.4
X148.31Y-94.61
X148.4Y-116.1
X148.676Y-97.109
X148.8Y-116.8
X149.7Y-84.999
X149.8Y-102.6
X149.8Y-102.6
X149.9Y-96.5
X150.0Y-115.1
X150.4Y-115.8
X150.8Y-115.1
X150.8Y-116.5
X150.9Y-89.0
X150.9Y-105.1
X151.0Y-83.4
X151.2Y-115.8
X151.6Y-116.5
X152.035Y-85.628
X152.05Y-113.149
X152.475Y-99.224
X152.5Y-101.0
X152.6Y-103.1
X152.941Y-85.641
X153.4Y-99.6
X153.5Y-103.2
X154.2Y-97.1
X154.3Y-85.1
X154.694Y-97.894
X155.0Y-105.0
X155.1Y-107.1
X155.2Y-102.2
X155.4Y-85.0
X155.6Y-98.1
X155.7Y-110.1
X156.3Y-97.2
X157.5Y-82.7
X157.5Y-100.6
X157.7Y-98.5
X158.485Y-87.316
X158.487Y-86.417
X159.084Y-105.111
X159.091Y-97.4
X159.5Y-96.4
X159.9Y-93.9
X159.9Y-110.1
X160.9Y-84.8
X161.291Y-92.191
X161.3Y-107.899
X161.6Y-85.6
X162.1Y-88.9
X162.1Y-105.3
X162.21Y-90.2
X162.6Y-98.4
X162.9Y-103.0
X163.2Y-110.1
T4
X139.2Y-86.4
X142.938Y-83.72
T6
X163.43Y-92.1
X163.43Y-93.37
X163.43Y-94.64
X163.43Y-95.91
X163.43Y-97.18
X164.7Y-92.1
X164.7Y-93.37
X164.7Y-94.64
X164.7Y-95.91
X164.7Y-97.18
T7
X134.45Y-97.0
X134.45Y-99.0
X134.45Y-101.0
X134.45Y-103.0
X140.2Y-115.5
X142.2Y-115.5
X153.5Y-115.5
X155.5Y-115.5
X157.5Y-115.5
X159.5Y-115.5
T8
X131.2Y-89.96
X131.2Y-92.5
X133.74Y-89.96
X133.74Y-92.5
X136.28Y-89.96
X136.28Y-92.5
X138.82Y-89.96
X138.82Y-92.5
X141.36Y-89.96
X141.36Y-92.5
T5
G00X164.525Y-102.18
M15
G01X165.625Y-102.18
M16
G05
G00X164.525Y-110.82
M15
G01X165.625Y-110.82
M16
G05
G00X168.875Y-102.18
M15
G01X169.675Y-102.18
M16
G05
G00X168.875Y-110.82
M15
G01X169.675Y-110.82
M16
G05
T0
M30
