%TF.GenerationSoftware,KiCad,Pcbnew,7.0.6*%
%TF.CreationDate,2024-02-24T16:47:06-05:00*%
%TF.ProjectId,Axis_Basic,41786973-5f42-4617-9369-632e6b696361,rev?*%
%TF.SameCoordinates,Original*%
%TF.FileFunction,Copper,L3,Inr*%
%TF.FilePolarity,Positive*%
%FSLAX46Y46*%
G04 Gerber Fmt 4.6, Leading zero omitted, Abs format (unit mm)*
G04 Created by KiCad (PCBNEW 7.0.6) date 2024-02-24 16:47:06*
%MOMM*%
%LPD*%
G01*
G04 APERTURE LIST*
G04 Aperture macros list*
%AMRoundRect*
0 Rectangle with rounded corners*
0 $1 Rounding radius*
0 $2 $3 $4 $5 $6 $7 $8 $9 X,Y pos of 4 corners*
0 Add a 4 corners polygon primitive as box body*
4,1,4,$2,$3,$4,$5,$6,$7,$8,$9,$2,$3,0*
0 Add four circle primitives for the rounded corners*
1,1,$1+$1,$2,$3*
1,1,$1+$1,$4,$5*
1,1,$1+$1,$6,$7*
1,1,$1+$1,$8,$9*
0 Add four rect primitives between the rounded corners*
20,1,$1+$1,$2,$3,$4,$5,0*
20,1,$1+$1,$4,$5,$6,$7,0*
20,1,$1+$1,$6,$7,$8,$9,0*
20,1,$1+$1,$8,$9,$2,$3,0*%
G04 Aperture macros list end*
%TA.AperFunction,ComponentPad*%
%ADD10O,1.000000X1.000000*%
%TD*%
%TA.AperFunction,ComponentPad*%
%ADD11R,1.000000X1.000000*%
%TD*%
%TA.AperFunction,ComponentPad*%
%ADD12RoundRect,0.250000X-0.625000X0.350000X-0.625000X-0.350000X0.625000X-0.350000X0.625000X0.350000X0*%
%TD*%
%TA.AperFunction,ComponentPad*%
%ADD13O,1.750000X1.200000*%
%TD*%
%TA.AperFunction,ComponentPad*%
%ADD14O,1.200000X1.750000*%
%TD*%
%TA.AperFunction,ComponentPad*%
%ADD15RoundRect,0.250000X-0.350000X-0.625000X0.350000X-0.625000X0.350000X0.625000X-0.350000X0.625000X0*%
%TD*%
%TA.AperFunction,ComponentPad*%
%ADD16C,0.500000*%
%TD*%
%TA.AperFunction,ComponentPad*%
%ADD17O,2.100000X1.000000*%
%TD*%
%TA.AperFunction,ComponentPad*%
%ADD18O,1.800000X1.000000*%
%TD*%
%TA.AperFunction,ViaPad*%
%ADD19C,0.700000*%
%TD*%
%TA.AperFunction,ViaPad*%
%ADD20C,0.450000*%
%TD*%
%TA.AperFunction,Conductor*%
%ADD21C,0.200000*%
%TD*%
G04 APERTURE END LIST*
D10*
%TO.N,RESET*%
%TO.C,J5*%
X164700000Y-97180000D03*
%TO.N,GND*%
X163430000Y-97180000D03*
%TO.N,unconnected-(J5-NC{slash}TDI-Pad8)*%
X164700000Y-95910000D03*
%TO.N,unconnected-(J5-KEY-Pad7)*%
X163430000Y-95910000D03*
%TO.N,unconnected-(J5-SWO{slash}TDO-Pad6)*%
X164700000Y-94640000D03*
%TO.N,GND*%
X163430000Y-94640000D03*
%TO.N,SWCLK*%
X164700000Y-93370000D03*
%TO.N,GND*%
X163430000Y-93370000D03*
%TO.N,SWDIO*%
X164700000Y-92100000D03*
D11*
%TO.N,+3.3V*%
X163430000Y-92100000D03*
%TD*%
D12*
%TO.N,MOTOR_A1*%
%TO.C,J2*%
X134450000Y-97000000D03*
D13*
%TO.N,MOTOR_B1*%
X134450000Y-99000000D03*
%TO.N,MOTOR_A2*%
X134450000Y-101000000D03*
%TO.N,MOTOR_B2*%
X134450000Y-103000000D03*
%TD*%
D14*
%TO.N,VCC*%
%TO.C,J4*%
X142200000Y-115500000D03*
D15*
%TO.N,GND*%
X140200000Y-115500000D03*
%TD*%
D16*
%TO.N,GND*%
%TO.C,U4*%
X144950000Y-101000000D03*
X145950000Y-101000000D03*
X146950000Y-101000000D03*
X144950000Y-100000000D03*
X145950000Y-100000000D03*
X146950000Y-100000000D03*
X144950000Y-99000000D03*
X145950000Y-99000000D03*
X146950000Y-99000000D03*
%TD*%
D14*
%TO.N,GND*%
%TO.C,J3*%
X159500000Y-115500000D03*
%TO.N,unconnected-(J3-Pad3)*%
X157500000Y-115500000D03*
%TO.N,SDA2*%
X155500000Y-115500000D03*
D15*
%TO.N,SCL2*%
X153500000Y-115500000D03*
%TD*%
D17*
%TO.N,Net-(J1-SHIELD)*%
%TO.C,J1*%
X165075000Y-110820000D03*
D18*
X169275000Y-110820000D03*
D17*
X165075000Y-102180000D03*
D18*
X169275000Y-102180000D03*
%TD*%
D19*
%TO.N,+3.3V*%
X138000000Y-91500000D03*
%TO.N,GND*%
X138017647Y-103270588D03*
X136917647Y-104770588D03*
X136917647Y-103970588D03*
X138817647Y-103270588D03*
X137217647Y-103270588D03*
X136900000Y-95200000D03*
X136900000Y-96000000D03*
X137200000Y-96700000D03*
X138800000Y-96700000D03*
X138000000Y-96700000D03*
%TO.N,SCK*%
X147800000Y-84600000D03*
X149500000Y-83150500D03*
%TO.N,GND*%
X145600000Y-90000000D03*
X141000000Y-88900000D03*
%TO.N,EEPROM_CS*%
X139400000Y-85500000D03*
X151500000Y-88600000D03*
%TO.N,+3.3V*%
X139500000Y-88800000D03*
X142000000Y-84200000D03*
X154200000Y-97100000D03*
%TO.N,GND*%
X161600000Y-88400000D03*
%TO.N,+3.3V*%
X160800000Y-84900000D03*
%TO.N,EN*%
X152500000Y-101000000D03*
%TO.N,VCC*%
X147700000Y-104500000D03*
%TO.N,GND*%
X133000000Y-108900000D03*
X133300000Y-93000000D03*
X147000000Y-110700000D03*
%TO.N,Net-(R5-Pad1)*%
X135700000Y-108100000D03*
X152050500Y-113149500D03*
X155200000Y-102200000D03*
X157500000Y-100600000D03*
%TO.N,EN*%
X155600000Y-98100000D03*
%TO.N,GND*%
X153400000Y-99600000D03*
%TO.N,SDA1*%
X158100000Y-87000000D03*
%TO.N,SCL1*%
X158150500Y-86057795D03*
%TO.N,+3.3V*%
X149800000Y-102600000D03*
X149800000Y-102600000D03*
%TO.N,NEOPIX*%
X161300000Y-107899500D03*
X161600000Y-90800000D03*
%TO.N,GND*%
X152034715Y-85628221D03*
%TO.N,+3.3V*%
X152940734Y-85640734D03*
%TO.N,SWCLK*%
X159900000Y-93900000D03*
X161290734Y-92190734D03*
%TO.N,GND*%
X162600000Y-98400000D03*
X159500000Y-96400000D03*
%TO.N,+3.3V*%
X159090734Y-97400500D03*
%TO.N,SDA2*%
X154300000Y-85100000D03*
%TO.N,SCL2*%
X155400000Y-85000000D03*
%TO.N,GND*%
X150900000Y-105100000D03*
X159084404Y-105110841D03*
X157700000Y-98500000D03*
X156300000Y-97200000D03*
%TO.N,SDA2*%
X153500000Y-103200000D03*
%TO.N,SCL2*%
X152600000Y-103100000D03*
%TO.N,MOT_M0*%
X154693649Y-97893649D03*
X152474508Y-99224301D03*
%TO.N,UART_RX*%
X148309547Y-94609548D03*
X149800000Y-96700000D03*
%TO.N,Spread*%
X148100000Y-102400000D03*
X148700000Y-97000000D03*
%TO.N,GND*%
X145400000Y-94800000D03*
X145400000Y-94800000D03*
%TO.N,+3.3V*%
X148100000Y-97800000D03*
%TO.N,VCC*%
X162100000Y-105300000D03*
X141800000Y-92900000D03*
X141100000Y-93400000D03*
X142500000Y-93400000D03*
X142500000Y-94200000D03*
X141100000Y-94200000D03*
X143100000Y-107200000D03*
X143100000Y-106400000D03*
X143100000Y-105600000D03*
X142300000Y-105600000D03*
X142300000Y-106400000D03*
X142300000Y-107200000D03*
%TO.N,+3.3V*%
X148800000Y-116800000D03*
X148000000Y-116800000D03*
X148400000Y-116100000D03*
X147600000Y-116100000D03*
X148000000Y-115400000D03*
X147200000Y-115400000D03*
%TO.N,GND*%
X151600000Y-116500000D03*
X150800000Y-116500000D03*
X151200000Y-115800000D03*
X150400000Y-115800000D03*
X150800000Y-115100000D03*
X150000000Y-115100000D03*
X140200000Y-111700000D03*
X139700000Y-111000000D03*
X139200000Y-111700000D03*
X138200000Y-111700000D03*
X138700000Y-111000000D03*
X137700000Y-111000000D03*
%TO.N,+3.3V*%
X155100000Y-107100000D03*
%TO.N,GND*%
X155000000Y-105000000D03*
X163200000Y-110100000D03*
X162900000Y-103000000D03*
D20*
%TO.N,MOTOR_A1*%
X143250000Y-96750000D03*
X143250000Y-97250000D03*
X143750000Y-97000000D03*
X143750000Y-97500000D03*
%TO.N,MOTOR_B2*%
X143750000Y-102500000D03*
X143750000Y-103000000D03*
X143250000Y-103250000D03*
X143250000Y-102750000D03*
%TD*%
D21*
%TO.N,VCC*%
X146600000Y-105600000D02*
X143100000Y-105600000D01*
X147700000Y-104500000D02*
X146600000Y-105600000D01*
%TD*%
%TA.AperFunction,Conductor*%
%TO.N,+3.3V*%
G36*
X165717445Y-79009493D02*
G01*
X165958385Y-79020013D01*
X165963320Y-79020427D01*
X166193261Y-79049089D01*
X166421921Y-79079193D01*
X166426490Y-79079972D01*
X166655391Y-79127968D01*
X166793210Y-79158522D01*
X166878677Y-79177470D01*
X166882939Y-79178575D01*
X167107969Y-79245569D01*
X167325459Y-79314144D01*
X167329305Y-79315498D01*
X167548675Y-79401097D01*
X167758977Y-79488208D01*
X167762437Y-79489768D01*
X167974350Y-79593365D01*
X168176129Y-79698405D01*
X168179238Y-79700139D01*
X168285211Y-79763284D01*
X168382116Y-79821027D01*
X168573954Y-79943242D01*
X168576669Y-79945074D01*
X168769063Y-80082440D01*
X168949600Y-80220971D01*
X168951872Y-80222805D01*
X169132397Y-80375701D01*
X169132415Y-80375716D01*
X169301239Y-80530416D01*
X169469583Y-80698760D01*
X169624281Y-80867582D01*
X169777186Y-81048117D01*
X169779044Y-81050421D01*
X169917559Y-81230937D01*
X169947426Y-81272768D01*
X170054924Y-81423329D01*
X170056755Y-81426043D01*
X170142495Y-81560627D01*
X170156098Y-81581979D01*
X170178973Y-81617884D01*
X170299859Y-81820760D01*
X170301593Y-81823868D01*
X170406634Y-82025649D01*
X170407601Y-82027627D01*
X170510220Y-82237539D01*
X170511800Y-82241043D01*
X170598915Y-82451357D01*
X170684487Y-82670659D01*
X170685859Y-82674553D01*
X170754426Y-82892017D01*
X170821420Y-83117049D01*
X170822528Y-83121321D01*
X170872038Y-83344640D01*
X170920022Y-83573488D01*
X170920811Y-83578120D01*
X170950917Y-83806795D01*
X170979569Y-84036662D01*
X170979986Y-84041629D01*
X170990505Y-84282545D01*
X170999500Y-84500001D01*
X170999500Y-115499999D01*
X170990505Y-115717454D01*
X170979986Y-115958369D01*
X170979569Y-115963336D01*
X170950917Y-116193204D01*
X170920811Y-116421878D01*
X170920022Y-116426510D01*
X170872038Y-116655359D01*
X170822528Y-116878677D01*
X170821420Y-116882949D01*
X170754426Y-117107982D01*
X170685859Y-117325445D01*
X170684487Y-117329339D01*
X170598915Y-117548642D01*
X170511800Y-117758955D01*
X170510220Y-117762459D01*
X170406638Y-117974342D01*
X170301592Y-118176130D01*
X170299859Y-118179238D01*
X170178973Y-118382115D01*
X170056755Y-118573955D01*
X170054924Y-118576668D01*
X169917565Y-118769055D01*
X169779044Y-118949577D01*
X169777168Y-118951904D01*
X169624283Y-119132414D01*
X169469583Y-119301239D01*
X169301239Y-119469583D01*
X169132414Y-119624283D01*
X168951904Y-119777168D01*
X168949577Y-119779044D01*
X168769055Y-119917565D01*
X168576668Y-120054924D01*
X168573955Y-120056755D01*
X168382115Y-120178973D01*
X168179238Y-120299859D01*
X168176130Y-120301592D01*
X167974342Y-120406638D01*
X167762459Y-120510220D01*
X167758955Y-120511800D01*
X167548642Y-120598915D01*
X167329339Y-120684487D01*
X167325445Y-120685859D01*
X167107982Y-120754426D01*
X166882949Y-120821420D01*
X166878677Y-120822528D01*
X166655359Y-120872038D01*
X166426510Y-120920022D01*
X166421878Y-120920811D01*
X166193204Y-120950917D01*
X165963336Y-120979569D01*
X165958369Y-120979986D01*
X165717454Y-120990505D01*
X165499999Y-120999500D01*
X134500001Y-120999500D01*
X134282545Y-120990505D01*
X134041629Y-120979986D01*
X134036662Y-120979569D01*
X133806795Y-120950917D01*
X133578120Y-120920811D01*
X133573488Y-120920022D01*
X133344640Y-120872038D01*
X133121321Y-120822528D01*
X133117049Y-120821420D01*
X132892017Y-120754426D01*
X132674553Y-120685859D01*
X132670659Y-120684487D01*
X132451357Y-120598915D01*
X132241043Y-120511800D01*
X132237539Y-120510220D01*
X132105816Y-120445825D01*
X132025654Y-120406636D01*
X131823866Y-120301592D01*
X131820760Y-120299859D01*
X131657629Y-120202655D01*
X131617883Y-120178972D01*
X131560627Y-120142495D01*
X131426043Y-120056755D01*
X131423329Y-120054924D01*
X131293067Y-119961919D01*
X131230944Y-119917564D01*
X131154486Y-119858897D01*
X131050421Y-119779044D01*
X131048117Y-119777186D01*
X130867582Y-119624281D01*
X130698760Y-119469583D01*
X130530416Y-119301239D01*
X130375716Y-119132415D01*
X130375715Y-119132414D01*
X130222805Y-118951872D01*
X130220971Y-118949600D01*
X130082440Y-118769063D01*
X129955123Y-118590744D01*
X129945074Y-118576669D01*
X129943242Y-118573954D01*
X129821027Y-118382115D01*
X129719118Y-118211090D01*
X129700139Y-118179238D01*
X129698405Y-118176129D01*
X129593365Y-117974350D01*
X129489768Y-117762437D01*
X129488208Y-117758977D01*
X129401097Y-117548675D01*
X129315498Y-117329305D01*
X129314144Y-117325459D01*
X129245564Y-117107951D01*
X129234514Y-117070834D01*
X129178575Y-116882939D01*
X129177470Y-116878677D01*
X129127961Y-116655359D01*
X129125519Y-116643712D01*
X129079972Y-116426490D01*
X129079193Y-116421921D01*
X129049082Y-116193204D01*
X129020427Y-115963320D01*
X129020013Y-115958385D01*
X129009491Y-115717381D01*
X129009350Y-115713984D01*
X129008125Y-115684371D01*
X131099500Y-115684371D01*
X131139367Y-116050946D01*
X131218635Y-116411065D01*
X131257966Y-116527793D01*
X131336375Y-116760503D01*
X131336377Y-116760508D01*
X131336379Y-116760513D01*
X131491200Y-117095153D01*
X131491202Y-117095157D01*
X131491204Y-117095161D01*
X131491205Y-117095162D01*
X131681310Y-117411119D01*
X131869261Y-117658364D01*
X131904461Y-117704669D01*
X131955904Y-117758977D01*
X132158044Y-117972373D01*
X132439083Y-118211090D01*
X132744284Y-118418022D01*
X132744288Y-118418024D01*
X132744291Y-118418026D01*
X132913889Y-118507941D01*
X133070070Y-118590743D01*
X133412621Y-118727227D01*
X133412627Y-118727228D01*
X133412628Y-118727229D01*
X133412634Y-118727231D01*
X133688226Y-118803748D01*
X133767919Y-118825875D01*
X133767930Y-118825876D01*
X133767931Y-118825877D01*
X134131786Y-118885529D01*
X134131790Y-118885529D01*
X134131801Y-118885531D01*
X134407890Y-118900500D01*
X134407892Y-118900500D01*
X134592108Y-118900500D01*
X134592110Y-118900500D01*
X134868199Y-118885531D01*
X134868210Y-118885529D01*
X134868213Y-118885529D01*
X135120077Y-118844237D01*
X135232081Y-118825875D01*
X135587379Y-118727227D01*
X135929930Y-118590743D01*
X136255716Y-118418022D01*
X136560917Y-118211090D01*
X136841956Y-117972373D01*
X137095538Y-117704670D01*
X137318690Y-117411119D01*
X137508795Y-117095162D01*
X137663625Y-116760503D01*
X137781364Y-116411066D01*
X137832386Y-116179269D01*
X139399500Y-116179269D01*
X139402353Y-116209699D01*
X139402353Y-116209701D01*
X139435298Y-116303849D01*
X139447207Y-116337882D01*
X139527850Y-116447150D01*
X139637118Y-116527793D01*
X139679845Y-116542744D01*
X139765299Y-116572646D01*
X139795730Y-116575500D01*
X139795734Y-116575500D01*
X140604270Y-116575500D01*
X140634699Y-116572646D01*
X140634701Y-116572646D01*
X140698790Y-116550219D01*
X140762882Y-116527793D01*
X140872150Y-116447150D01*
X140952793Y-116337882D01*
X140993210Y-116222377D01*
X140997646Y-116209701D01*
X140997646Y-116209699D01*
X141000500Y-116179269D01*
X141000500Y-115819960D01*
X141399500Y-115819960D01*
X141414630Y-115954249D01*
X141414631Y-115954254D01*
X141474211Y-116124523D01*
X141535696Y-116222375D01*
X141570184Y-116277262D01*
X141697738Y-116404816D01*
X141765111Y-116447149D01*
X141849220Y-116499999D01*
X141850478Y-116500789D01*
X141927651Y-116527793D01*
X142020745Y-116560368D01*
X142020750Y-116560369D01*
X142199996Y-116580565D01*
X142200000Y-116580565D01*
X142200004Y-116580565D01*
X142379249Y-116560369D01*
X142379252Y-116560368D01*
X142379255Y-116560368D01*
X142549522Y-116500789D01*
X142702262Y-116404816D01*
X142829816Y-116277262D01*
X142925789Y-116124522D01*
X142985368Y-115954255D01*
X142985381Y-115954145D01*
X143000499Y-115819960D01*
X143000500Y-115819956D01*
X143000500Y-115180043D01*
X143000499Y-115180039D01*
X142991481Y-115100000D01*
X149444750Y-115100000D01*
X149455288Y-115180046D01*
X149463670Y-115243708D01*
X149463671Y-115243712D01*
X149519137Y-115377622D01*
X149519138Y-115377624D01*
X149519139Y-115377625D01*
X149607379Y-115492621D01*
X149722375Y-115580861D01*
X149722376Y-115580861D01*
X149722377Y-115580862D01*
X149777873Y-115603849D01*
X149832277Y-115647690D01*
X149854342Y-115713984D01*
X149853360Y-115734594D01*
X149844750Y-115799996D01*
X149844750Y-115800000D01*
X149863670Y-115943708D01*
X149863671Y-115943712D01*
X149919137Y-116077622D01*
X149919138Y-116077624D01*
X149919139Y-116077625D01*
X150007379Y-116192621D01*
X150122375Y-116280861D01*
X150122376Y-116280861D01*
X150122377Y-116280862D01*
X150177873Y-116303849D01*
X150232277Y-116347690D01*
X150254342Y-116413984D01*
X150253360Y-116434594D01*
X150244750Y-116499996D01*
X150244750Y-116499999D01*
X150244750Y-116500000D01*
X150261832Y-116629752D01*
X150263670Y-116643708D01*
X150263671Y-116643712D01*
X150319137Y-116777622D01*
X150319138Y-116777624D01*
X150319139Y-116777625D01*
X150407379Y-116892621D01*
X150522375Y-116980861D01*
X150656291Y-117036330D01*
X150783280Y-117053048D01*
X150799999Y-117055250D01*
X150800000Y-117055250D01*
X150800001Y-117055250D01*
X150814977Y-117053278D01*
X150943709Y-117036330D01*
X151077625Y-116980861D01*
X151124514Y-116944881D01*
X151189682Y-116919687D01*
X151258127Y-116933725D01*
X151275483Y-116944880D01*
X151322375Y-116980861D01*
X151456291Y-117036330D01*
X151583280Y-117053048D01*
X151599999Y-117055250D01*
X151600000Y-117055250D01*
X151600001Y-117055250D01*
X151614977Y-117053278D01*
X151743709Y-117036330D01*
X151877625Y-116980861D01*
X151992621Y-116892621D01*
X152080861Y-116777625D01*
X152136330Y-116643709D01*
X152155250Y-116500000D01*
X152155249Y-116499996D01*
X152146639Y-116434594D01*
X152136330Y-116356291D01*
X152080861Y-116222375D01*
X152047784Y-116179269D01*
X152699500Y-116179269D01*
X152702353Y-116209699D01*
X152702353Y-116209701D01*
X152735298Y-116303849D01*
X152747207Y-116337882D01*
X152827850Y-116447150D01*
X152937118Y-116527793D01*
X152979845Y-116542744D01*
X153065299Y-116572646D01*
X153095730Y-116575500D01*
X153095734Y-116575500D01*
X153904270Y-116575500D01*
X153934699Y-116572646D01*
X153934701Y-116572646D01*
X153998790Y-116550219D01*
X154062882Y-116527793D01*
X154172150Y-116447150D01*
X154252793Y-116337882D01*
X154293210Y-116222377D01*
X154297646Y-116209701D01*
X154297646Y-116209699D01*
X154300500Y-116179269D01*
X154300500Y-115819960D01*
X154699500Y-115819960D01*
X154714630Y-115954249D01*
X154714631Y-115954254D01*
X154774211Y-116124523D01*
X154835696Y-116222375D01*
X154870184Y-116277262D01*
X154997738Y-116404816D01*
X155065111Y-116447149D01*
X155149220Y-116499999D01*
X155150478Y-116500789D01*
X155227651Y-116527793D01*
X155320745Y-116560368D01*
X155320750Y-116560369D01*
X155499996Y-116580565D01*
X155500000Y-116580565D01*
X155500004Y-116580565D01*
X155679249Y-116560369D01*
X155679252Y-116560368D01*
X155679255Y-116560368D01*
X155849522Y-116500789D01*
X156002262Y-116404816D01*
X156129816Y-116277262D01*
X156225789Y-116124522D01*
X156285368Y-115954255D01*
X156285381Y-115954145D01*
X156300499Y-115819960D01*
X156699500Y-115819960D01*
X156714630Y-115954249D01*
X156714631Y-115954254D01*
X156774211Y-116124523D01*
X156835696Y-116222375D01*
X156870184Y-116277262D01*
X156997738Y-116404816D01*
X157065111Y-116447149D01*
X157149220Y-116499999D01*
X157150478Y-116500789D01*
X157227651Y-116527793D01*
X157320745Y-116560368D01*
X157320750Y-116560369D01*
X157499996Y-116580565D01*
X157500000Y-116580565D01*
X157500004Y-116580565D01*
X157679249Y-116560369D01*
X157679252Y-116560368D01*
X157679255Y-116560368D01*
X157849522Y-116500789D01*
X158002262Y-116404816D01*
X158129816Y-116277262D01*
X158225789Y-116124522D01*
X158285368Y-115954255D01*
X158285381Y-115954145D01*
X158300499Y-115819960D01*
X158699500Y-115819960D01*
X158714630Y-115954249D01*
X158714631Y-115954254D01*
X158774211Y-116124523D01*
X158835696Y-116222375D01*
X158870184Y-116277262D01*
X158997738Y-116404816D01*
X159065111Y-116447149D01*
X159149220Y-116499999D01*
X159150478Y-116500789D01*
X159227651Y-116527793D01*
X159320745Y-116560368D01*
X159320750Y-116560369D01*
X159499996Y-116580565D01*
X159500000Y-116580565D01*
X159500004Y-116580565D01*
X159679249Y-116560369D01*
X159679252Y-116560368D01*
X159679255Y-116560368D01*
X159849522Y-116500789D01*
X160002262Y-116404816D01*
X160129816Y-116277262D01*
X160225789Y-116124522D01*
X160285368Y-115954255D01*
X160285381Y-115954145D01*
X160300499Y-115819960D01*
X160300500Y-115819956D01*
X160300500Y-115684371D01*
X162099500Y-115684371D01*
X162139367Y-116050946D01*
X162218635Y-116411065D01*
X162257966Y-116527793D01*
X162336375Y-116760503D01*
X162336377Y-116760508D01*
X162336379Y-116760513D01*
X162491200Y-117095153D01*
X162491202Y-117095157D01*
X162491204Y-117095161D01*
X162491205Y-117095162D01*
X162681310Y-117411119D01*
X162869261Y-117658364D01*
X162904461Y-117704669D01*
X162955904Y-117758977D01*
X163158044Y-117972373D01*
X163439083Y-118211090D01*
X163744284Y-118418022D01*
X163744288Y-118418024D01*
X163744291Y-118418026D01*
X163913889Y-118507941D01*
X164070070Y-118590743D01*
X164412621Y-118727227D01*
X164412627Y-118727228D01*
X164412628Y-118727229D01*
X164412634Y-118727231D01*
X164688226Y-118803748D01*
X164767919Y-118825875D01*
X164767930Y-118825876D01*
X164767931Y-118825877D01*
X165131786Y-118885529D01*
X165131790Y-118885529D01*
X165131801Y-118885531D01*
X165407890Y-118900500D01*
X165407892Y-118900500D01*
X165592108Y-118900500D01*
X165592110Y-118900500D01*
X165868199Y-118885531D01*
X165868210Y-118885529D01*
X165868213Y-118885529D01*
X166120077Y-118844237D01*
X166232081Y-118825875D01*
X166587379Y-118727227D01*
X166929930Y-118590743D01*
X167255716Y-118418022D01*
X167560917Y-118211090D01*
X167841956Y-117972373D01*
X168095538Y-117704670D01*
X168318690Y-117411119D01*
X168508795Y-117095162D01*
X168663625Y-116760503D01*
X168781364Y-116411066D01*
X168860632Y-116050948D01*
X168900500Y-115684370D01*
X168900500Y-115315630D01*
X168860632Y-114949052D01*
X168781364Y-114588934D01*
X168663625Y-114239497D01*
X168508795Y-113904838D01*
X168318690Y-113588881D01*
X168095538Y-113295330D01*
X167841956Y-113027627D01*
X167560917Y-112788910D01*
X167255716Y-112581978D01*
X167255713Y-112581976D01*
X167255708Y-112581973D01*
X166929938Y-112409261D01*
X166929926Y-112409255D01*
X166587371Y-112272770D01*
X166587365Y-112272768D01*
X166232094Y-112174128D01*
X166232068Y-112174122D01*
X165868213Y-112114470D01*
X165868200Y-112114469D01*
X165868199Y-112114469D01*
X165592110Y-112099500D01*
X165407890Y-112099500D01*
X165131801Y-112114469D01*
X165131799Y-112114469D01*
X165131786Y-112114470D01*
X164767931Y-112174122D01*
X164767905Y-112174128D01*
X164412634Y-112272768D01*
X164412628Y-112272770D01*
X164070073Y-112409255D01*
X164070061Y-112409261D01*
X163744291Y-112581973D01*
X163744282Y-112581979D01*
X163439083Y-112788909D01*
X163158044Y-113027626D01*
X162904462Y-113295330D01*
X162904461Y-113295330D01*
X162804276Y-113427122D01*
X162681310Y-113588881D01*
X162681309Y-113588883D01*
X162491202Y-113904842D01*
X162491200Y-113904846D01*
X162336379Y-114239486D01*
X162218635Y-114588934D01*
X162139367Y-114949053D01*
X162099500Y-115315628D01*
X162099500Y-115684371D01*
X160300500Y-115684371D01*
X160300500Y-115180043D01*
X160300499Y-115180039D01*
X160285369Y-115045750D01*
X160285368Y-115045745D01*
X160251534Y-114949053D01*
X160225789Y-114875478D01*
X160129816Y-114722738D01*
X160002262Y-114595184D01*
X159992315Y-114588934D01*
X159849523Y-114499211D01*
X159679254Y-114439631D01*
X159679249Y-114439630D01*
X159500004Y-114419435D01*
X159499996Y-114419435D01*
X159320750Y-114439630D01*
X159320745Y-114439631D01*
X159150476Y-114499211D01*
X158997737Y-114595184D01*
X158870184Y-114722737D01*
X158774211Y-114875476D01*
X158714631Y-115045745D01*
X158714630Y-115045750D01*
X158699500Y-115180039D01*
X158699500Y-115819960D01*
X158300499Y-115819960D01*
X158300500Y-115819956D01*
X158300500Y-115180043D01*
X158300499Y-115180039D01*
X158285369Y-115045750D01*
X158285368Y-115045745D01*
X158251534Y-114949053D01*
X158225789Y-114875478D01*
X158129816Y-114722738D01*
X158002262Y-114595184D01*
X157992315Y-114588934D01*
X157849523Y-114499211D01*
X157679254Y-114439631D01*
X157679249Y-114439630D01*
X157500004Y-114419435D01*
X157499996Y-114419435D01*
X157320750Y-114439630D01*
X157320745Y-114439631D01*
X157150476Y-114499211D01*
X156997737Y-114595184D01*
X156870184Y-114722737D01*
X156774211Y-114875476D01*
X156714631Y-115045745D01*
X156714630Y-115045750D01*
X156699500Y-115180039D01*
X156699500Y-115819960D01*
X156300499Y-115819960D01*
X156300500Y-115819956D01*
X156300500Y-115180043D01*
X156300499Y-115180039D01*
X156285369Y-115045750D01*
X156285368Y-115045745D01*
X156251534Y-114949053D01*
X156225789Y-114875478D01*
X156129816Y-114722738D01*
X156002262Y-114595184D01*
X155992315Y-114588934D01*
X155849523Y-114499211D01*
X155679254Y-114439631D01*
X155679249Y-114439630D01*
X155500004Y-114419435D01*
X155499996Y-114419435D01*
X155320750Y-114439630D01*
X155320745Y-114439631D01*
X155150476Y-114499211D01*
X154997737Y-114595184D01*
X154870184Y-114722737D01*
X154774211Y-114875476D01*
X154714631Y-115045745D01*
X154714630Y-115045750D01*
X154699500Y-115180039D01*
X154699500Y-115819960D01*
X154300500Y-115819960D01*
X154300500Y-114820730D01*
X154297646Y-114790300D01*
X154297646Y-114790298D01*
X154252793Y-114662119D01*
X154252792Y-114662117D01*
X154172150Y-114552850D01*
X154062882Y-114472207D01*
X154062880Y-114472206D01*
X153934700Y-114427353D01*
X153904270Y-114424500D01*
X153904266Y-114424500D01*
X153095734Y-114424500D01*
X153095730Y-114424500D01*
X153065300Y-114427353D01*
X153065298Y-114427353D01*
X152937119Y-114472206D01*
X152937117Y-114472207D01*
X152827850Y-114552850D01*
X152747207Y-114662117D01*
X152747206Y-114662119D01*
X152702353Y-114790298D01*
X152702353Y-114790300D01*
X152699500Y-114820730D01*
X152699500Y-116179269D01*
X152047784Y-116179269D01*
X151992621Y-116107379D01*
X151877625Y-116019139D01*
X151859206Y-116011509D01*
X151822125Y-115996150D01*
X151767722Y-115952309D01*
X151745657Y-115886014D01*
X151746639Y-115865403D01*
X151755250Y-115800000D01*
X151755250Y-115799999D01*
X151744382Y-115717454D01*
X151736330Y-115656291D01*
X151680861Y-115522375D01*
X151592621Y-115407379D01*
X151477625Y-115319139D01*
X151459206Y-115311509D01*
X151422125Y-115296150D01*
X151367722Y-115252309D01*
X151345657Y-115186014D01*
X151346639Y-115165403D01*
X151355250Y-115100000D01*
X151355250Y-115099999D01*
X151353048Y-115083280D01*
X151336330Y-114956291D01*
X151280861Y-114822375D01*
X151192621Y-114707379D01*
X151077625Y-114619139D01*
X151077624Y-114619138D01*
X151077622Y-114619137D01*
X150943712Y-114563671D01*
X150943710Y-114563670D01*
X150943709Y-114563670D01*
X150871854Y-114554210D01*
X150800001Y-114544750D01*
X150799999Y-114544750D01*
X150656291Y-114563670D01*
X150656287Y-114563671D01*
X150522376Y-114619138D01*
X150522374Y-114619139D01*
X150475486Y-114655118D01*
X150410317Y-114680312D01*
X150341872Y-114666274D01*
X150324514Y-114655118D01*
X150277625Y-114619139D01*
X150277623Y-114619138D01*
X150143712Y-114563671D01*
X150143710Y-114563670D01*
X150143709Y-114563670D01*
X150071854Y-114554210D01*
X150000001Y-114544750D01*
X149999999Y-114544750D01*
X149856291Y-114563670D01*
X149856287Y-114563671D01*
X149722377Y-114619137D01*
X149607379Y-114707379D01*
X149519137Y-114822377D01*
X149463671Y-114956287D01*
X149463670Y-114956291D01*
X149444750Y-115100000D01*
X142991481Y-115100000D01*
X142985369Y-115045750D01*
X142985368Y-115045745D01*
X142951534Y-114949053D01*
X142925789Y-114875478D01*
X142829816Y-114722738D01*
X142702262Y-114595184D01*
X142692315Y-114588934D01*
X142549523Y-114499211D01*
X142379254Y-114439631D01*
X142379249Y-114439630D01*
X142200004Y-114419435D01*
X142199996Y-114419435D01*
X142020750Y-114439630D01*
X142020745Y-114439631D01*
X141850476Y-114499211D01*
X141697737Y-114595184D01*
X141570184Y-114722737D01*
X141474211Y-114875476D01*
X141414631Y-115045745D01*
X141414630Y-115045750D01*
X141399500Y-115180039D01*
X141399500Y-115819960D01*
X141000500Y-115819960D01*
X141000500Y-114820730D01*
X140997646Y-114790300D01*
X140997646Y-114790298D01*
X140952793Y-114662119D01*
X140952792Y-114662117D01*
X140872150Y-114552850D01*
X140762882Y-114472207D01*
X140762880Y-114472206D01*
X140634700Y-114427353D01*
X140604270Y-114424500D01*
X140604266Y-114424500D01*
X139795734Y-114424500D01*
X139795730Y-114424500D01*
X139765300Y-114427353D01*
X139765298Y-114427353D01*
X139637119Y-114472206D01*
X139637117Y-114472207D01*
X139527850Y-114552850D01*
X139447207Y-114662117D01*
X139447206Y-114662119D01*
X139402353Y-114790298D01*
X139402353Y-114790300D01*
X139399500Y-114820730D01*
X139399500Y-116179269D01*
X137832386Y-116179269D01*
X137860632Y-116050948D01*
X137900500Y-115684370D01*
X137900500Y-115315630D01*
X137860632Y-114949052D01*
X137781364Y-114588934D01*
X137663625Y-114239497D01*
X137508795Y-113904838D01*
X137318690Y-113588881D01*
X137095538Y-113295330D01*
X136957400Y-113149500D01*
X151495250Y-113149500D01*
X151514170Y-113293208D01*
X151514171Y-113293212D01*
X151569637Y-113427122D01*
X151569638Y-113427124D01*
X151569639Y-113427125D01*
X151657879Y-113542121D01*
X151772875Y-113630361D01*
X151906791Y-113685830D01*
X152033780Y-113702548D01*
X152050499Y-113704750D01*
X152050500Y-113704750D01*
X152050501Y-113704750D01*
X152065477Y-113702778D01*
X152194209Y-113685830D01*
X152328125Y-113630361D01*
X152443121Y-113542121D01*
X152531361Y-113427125D01*
X152586830Y-113293209D01*
X152605750Y-113149500D01*
X152586830Y-113005791D01*
X152531361Y-112871875D01*
X152443121Y-112756879D01*
X152328125Y-112668639D01*
X152328124Y-112668638D01*
X152328122Y-112668637D01*
X152194212Y-112613171D01*
X152194210Y-112613170D01*
X152194209Y-112613170D01*
X152122354Y-112603709D01*
X152050501Y-112594250D01*
X152050499Y-112594250D01*
X151906791Y-112613170D01*
X151906787Y-112613171D01*
X151772877Y-112668637D01*
X151657879Y-112756879D01*
X151569637Y-112871877D01*
X151514171Y-113005787D01*
X151514170Y-113005791D01*
X151495250Y-113149499D01*
X151495250Y-113149500D01*
X136957400Y-113149500D01*
X136841956Y-113027627D01*
X136560917Y-112788910D01*
X136255716Y-112581978D01*
X136255713Y-112581976D01*
X136255708Y-112581973D01*
X135929938Y-112409261D01*
X135929926Y-112409255D01*
X135587371Y-112272770D01*
X135587365Y-112272768D01*
X135232094Y-112174128D01*
X135232068Y-112174122D01*
X134868213Y-112114470D01*
X134868200Y-112114469D01*
X134868199Y-112114469D01*
X134592110Y-112099500D01*
X134407890Y-112099500D01*
X134131801Y-112114469D01*
X134131799Y-112114469D01*
X134131786Y-112114470D01*
X133767931Y-112174122D01*
X133767905Y-112174128D01*
X133412634Y-112272768D01*
X133412628Y-112272770D01*
X133070073Y-112409255D01*
X133070061Y-112409261D01*
X132744291Y-112581973D01*
X132744282Y-112581979D01*
X132439083Y-112788909D01*
X132158044Y-113027626D01*
X131904462Y-113295330D01*
X131904461Y-113295330D01*
X131804276Y-113427122D01*
X131681310Y-113588881D01*
X131681309Y-113588883D01*
X131491202Y-113904842D01*
X131491200Y-113904846D01*
X131336379Y-114239486D01*
X131218635Y-114588934D01*
X131139367Y-114949053D01*
X131099500Y-115315628D01*
X131099500Y-115684371D01*
X129008125Y-115684371D01*
X129000500Y-115500000D01*
X129000500Y-115499500D01*
X129000500Y-111000000D01*
X137144750Y-111000000D01*
X137153995Y-111070225D01*
X137163670Y-111143708D01*
X137163671Y-111143712D01*
X137219137Y-111277622D01*
X137219138Y-111277624D01*
X137219139Y-111277625D01*
X137307379Y-111392621D01*
X137422375Y-111480861D01*
X137422376Y-111480861D01*
X137422377Y-111480862D01*
X137518073Y-111520500D01*
X137556291Y-111536330D01*
X137556295Y-111536330D01*
X137557499Y-111536653D01*
X137558408Y-111537207D01*
X137563799Y-111539440D01*
X137563450Y-111540280D01*
X137617162Y-111573013D01*
X137647697Y-111635857D01*
X137648355Y-111672612D01*
X137644750Y-111700000D01*
X137663670Y-111843708D01*
X137663671Y-111843712D01*
X137719137Y-111977622D01*
X137719138Y-111977624D01*
X137719139Y-111977625D01*
X137807379Y-112092621D01*
X137922375Y-112180861D01*
X138056291Y-112236330D01*
X138183280Y-112253048D01*
X138199999Y-112255250D01*
X138200000Y-112255250D01*
X138200001Y-112255250D01*
X138214977Y-112253278D01*
X138343709Y-112236330D01*
X138477625Y-112180861D01*
X138592621Y-112092621D01*
X138601625Y-112080886D01*
X138658050Y-112039685D01*
X138727796Y-112035529D01*
X138788717Y-112069740D01*
X138798367Y-112080876D01*
X138807379Y-112092621D01*
X138922375Y-112180861D01*
X139056291Y-112236330D01*
X139183280Y-112253048D01*
X139199999Y-112255250D01*
X139200000Y-112255250D01*
X139200001Y-112255250D01*
X139214977Y-112253278D01*
X139343709Y-112236330D01*
X139477625Y-112180861D01*
X139592621Y-112092621D01*
X139601625Y-112080886D01*
X139658050Y-112039685D01*
X139727796Y-112035529D01*
X139788717Y-112069740D01*
X139798367Y-112080876D01*
X139807379Y-112092621D01*
X139922375Y-112180861D01*
X140056291Y-112236330D01*
X140183280Y-112253048D01*
X140199999Y-112255250D01*
X140200000Y-112255250D01*
X140200001Y-112255250D01*
X140214977Y-112253278D01*
X140343709Y-112236330D01*
X140477625Y-112180861D01*
X140592621Y-112092621D01*
X140680861Y-111977625D01*
X140736330Y-111843709D01*
X140755250Y-111700000D01*
X140736330Y-111556291D01*
X140680861Y-111422375D01*
X140592621Y-111307379D01*
X140477625Y-111219139D01*
X140477624Y-111219138D01*
X140477622Y-111219137D01*
X140343707Y-111163669D01*
X140342479Y-111163340D01*
X140341560Y-111162779D01*
X140336201Y-111160560D01*
X140336547Y-111159723D01*
X140282822Y-111126969D01*
X140252299Y-111064119D01*
X140251645Y-111027382D01*
X140255250Y-111000000D01*
X140255250Y-110999999D01*
X140242750Y-110905056D01*
X140236330Y-110856291D01*
X140180861Y-110722375D01*
X140163692Y-110700000D01*
X146444750Y-110700000D01*
X146463670Y-110843708D01*
X146463671Y-110843712D01*
X146519137Y-110977622D01*
X146519138Y-110977624D01*
X146519139Y-110977625D01*
X146607379Y-111092621D01*
X146722375Y-111180861D01*
X146856291Y-111236330D01*
X146983280Y-111253048D01*
X146999999Y-111255250D01*
X147000000Y-111255250D01*
X147000001Y-111255250D01*
X147014977Y-111253278D01*
X147143709Y-111236330D01*
X147277625Y-111180861D01*
X147392621Y-111092621D01*
X147480861Y-110977625D01*
X147510920Y-110905055D01*
X163824500Y-110905055D01*
X163865210Y-111070226D01*
X163944263Y-111220849D01*
X163944266Y-111220852D01*
X164057071Y-111348183D01*
X164121449Y-111392620D01*
X164197068Y-111444817D01*
X164197069Y-111444817D01*
X164197070Y-111444818D01*
X164356128Y-111505140D01*
X164432028Y-111514356D01*
X164482626Y-111520500D01*
X164482628Y-111520500D01*
X165667374Y-111520500D01*
X165709538Y-111515380D01*
X165793872Y-111505140D01*
X165952930Y-111444818D01*
X166092929Y-111348183D01*
X166205734Y-111220852D01*
X166206635Y-111219137D01*
X166255008Y-111126969D01*
X166284790Y-111070225D01*
X166325500Y-110905056D01*
X166325500Y-110905055D01*
X168174500Y-110905055D01*
X168215210Y-111070226D01*
X168294263Y-111220849D01*
X168294266Y-111220852D01*
X168407071Y-111348183D01*
X168471449Y-111392620D01*
X168547068Y-111444817D01*
X168547069Y-111444817D01*
X168547070Y-111444818D01*
X168706128Y-111505140D01*
X168782028Y-111514356D01*
X168832626Y-111520500D01*
X168832628Y-111520500D01*
X169717374Y-111520500D01*
X169759538Y-111515380D01*
X169843872Y-111505140D01*
X170002930Y-111444818D01*
X170142929Y-111348183D01*
X170255734Y-111220852D01*
X170256635Y-111219137D01*
X170305008Y-111126969D01*
X170334790Y-111070225D01*
X170375500Y-110905056D01*
X170375500Y-110734944D01*
X170334790Y-110569775D01*
X170308213Y-110519137D01*
X170255736Y-110419150D01*
X170218945Y-110377622D01*
X170142929Y-110291817D01*
X170093177Y-110257475D01*
X170002931Y-110195182D01*
X169843874Y-110134860D01*
X169843868Y-110134859D01*
X169717374Y-110119500D01*
X169717372Y-110119500D01*
X168832628Y-110119500D01*
X168832626Y-110119500D01*
X168706131Y-110134859D01*
X168706125Y-110134860D01*
X168547068Y-110195182D01*
X168407072Y-110291816D01*
X168294263Y-110419150D01*
X168215210Y-110569773D01*
X168174500Y-110734944D01*
X168174500Y-110905055D01*
X166325500Y-110905055D01*
X166325500Y-110734944D01*
X166284790Y-110569775D01*
X166258213Y-110519137D01*
X166205736Y-110419150D01*
X166168945Y-110377622D01*
X166092929Y-110291817D01*
X166043177Y-110257475D01*
X165952931Y-110195182D01*
X165834146Y-110150133D01*
X165778443Y-110107955D01*
X165754386Y-110042357D01*
X165769613Y-109974167D01*
X165819289Y-109925034D01*
X165830649Y-109919636D01*
X165887250Y-109896192D01*
X166008304Y-109803304D01*
X166101192Y-109682250D01*
X166159584Y-109541280D01*
X166179500Y-109390000D01*
X166159584Y-109238720D01*
X166101192Y-109097750D01*
X166008304Y-108976696D01*
X165887250Y-108883808D01*
X165887249Y-108883807D01*
X165887247Y-108883806D01*
X165746280Y-108825416D01*
X165746278Y-108825415D01*
X165632981Y-108810500D01*
X165632980Y-108810500D01*
X165557020Y-108810500D01*
X165557019Y-108810500D01*
X165443721Y-108825415D01*
X165443719Y-108825416D01*
X165302752Y-108883806D01*
X165181696Y-108976696D01*
X165088806Y-109097752D01*
X165030416Y-109238719D01*
X165030415Y-109238721D01*
X165010500Y-109389998D01*
X165010500Y-109390001D01*
X165030415Y-109541278D01*
X165030416Y-109541280D01*
X165088806Y-109682247D01*
X165181697Y-109803305D01*
X165303965Y-109897124D01*
X165345168Y-109953552D01*
X165349323Y-110023298D01*
X165315111Y-110084218D01*
X165253393Y-110116971D01*
X165228479Y-110119500D01*
X164482626Y-110119500D01*
X164356131Y-110134859D01*
X164356125Y-110134860D01*
X164197068Y-110195182D01*
X164057072Y-110291816D01*
X163944263Y-110419150D01*
X163865210Y-110569773D01*
X163824500Y-110734944D01*
X163824500Y-110905055D01*
X147510920Y-110905055D01*
X147536330Y-110843709D01*
X147555250Y-110700000D01*
X147536330Y-110556291D01*
X147480861Y-110422375D01*
X147392621Y-110307379D01*
X147277625Y-110219139D01*
X147277624Y-110219138D01*
X147277622Y-110219137D01*
X147143712Y-110163671D01*
X147143710Y-110163670D01*
X147143709Y-110163670D01*
X147071854Y-110154210D01*
X147000001Y-110144750D01*
X146999999Y-110144750D01*
X146856291Y-110163670D01*
X146856287Y-110163671D01*
X146722377Y-110219137D01*
X146607379Y-110307379D01*
X146519137Y-110422377D01*
X146463671Y-110556287D01*
X146463670Y-110556291D01*
X146444750Y-110699999D01*
X146444750Y-110700000D01*
X140163692Y-110700000D01*
X140092621Y-110607379D01*
X139977625Y-110519139D01*
X139977624Y-110519138D01*
X139977622Y-110519137D01*
X139843712Y-110463671D01*
X139843710Y-110463670D01*
X139843709Y-110463670D01*
X139771854Y-110454210D01*
X139700001Y-110444750D01*
X139699999Y-110444750D01*
X139556291Y-110463670D01*
X139556287Y-110463671D01*
X139422377Y-110519137D01*
X139373963Y-110556287D01*
X139307379Y-110607379D01*
X139307378Y-110607380D01*
X139307377Y-110607381D01*
X139298375Y-110619113D01*
X139241947Y-110660316D01*
X139172201Y-110664470D01*
X139111281Y-110630257D01*
X139101625Y-110619113D01*
X139099782Y-110616711D01*
X139092621Y-110607379D01*
X138977625Y-110519139D01*
X138977624Y-110519138D01*
X138977622Y-110519137D01*
X138843712Y-110463671D01*
X138843710Y-110463670D01*
X138843709Y-110463670D01*
X138771854Y-110454210D01*
X138700001Y-110444750D01*
X138699999Y-110444750D01*
X138556291Y-110463670D01*
X138556287Y-110463671D01*
X138422377Y-110519137D01*
X138373963Y-110556287D01*
X138307379Y-110607379D01*
X138307378Y-110607380D01*
X138307377Y-110607381D01*
X138298375Y-110619113D01*
X138241947Y-110660316D01*
X138172201Y-110664470D01*
X138111281Y-110630257D01*
X138101625Y-110619113D01*
X138099782Y-110616711D01*
X138092621Y-110607379D01*
X137977625Y-110519139D01*
X137977624Y-110519138D01*
X137977622Y-110519137D01*
X137843712Y-110463671D01*
X137843710Y-110463670D01*
X137843709Y-110463670D01*
X137771854Y-110454210D01*
X137700001Y-110444750D01*
X137699999Y-110444750D01*
X137556291Y-110463670D01*
X137556287Y-110463671D01*
X137422377Y-110519137D01*
X137307379Y-110607379D01*
X137219137Y-110722377D01*
X137163671Y-110856287D01*
X137163670Y-110856291D01*
X137144750Y-111000000D01*
X129000500Y-111000000D01*
X129000500Y-110100000D01*
X162644750Y-110100000D01*
X162653132Y-110163670D01*
X162663670Y-110243708D01*
X162663671Y-110243712D01*
X162719137Y-110377622D01*
X162719138Y-110377624D01*
X162719139Y-110377625D01*
X162807379Y-110492621D01*
X162922375Y-110580861D01*
X163056291Y-110636330D01*
X163183280Y-110653048D01*
X163199999Y-110655250D01*
X163200000Y-110655250D01*
X163200001Y-110655250D01*
X163214977Y-110653278D01*
X163343709Y-110636330D01*
X163477625Y-110580861D01*
X163592621Y-110492621D01*
X163680861Y-110377625D01*
X163736330Y-110243709D01*
X163755250Y-110100000D01*
X163736330Y-109956291D01*
X163680861Y-109822375D01*
X163592621Y-109707379D01*
X163477625Y-109619139D01*
X163477624Y-109619138D01*
X163477622Y-109619137D01*
X163343712Y-109563671D01*
X163343710Y-109563670D01*
X163343709Y-109563670D01*
X163271854Y-109554210D01*
X163200001Y-109544750D01*
X163199999Y-109544750D01*
X163056291Y-109563670D01*
X163056287Y-109563671D01*
X162922377Y-109619137D01*
X162807379Y-109707379D01*
X162719137Y-109822377D01*
X162663671Y-109956287D01*
X162663670Y-109956291D01*
X162644750Y-110100000D01*
X129000500Y-110100000D01*
X129000500Y-108900000D01*
X132444750Y-108900000D01*
X132463670Y-109043708D01*
X132463671Y-109043712D01*
X132519137Y-109177622D01*
X132519138Y-109177624D01*
X132519139Y-109177625D01*
X132607379Y-109292621D01*
X132722375Y-109380861D01*
X132856291Y-109436330D01*
X132983280Y-109453048D01*
X132999999Y-109455250D01*
X133000000Y-109455250D01*
X133000001Y-109455250D01*
X133014977Y-109453278D01*
X133143709Y-109436330D01*
X133277625Y-109380861D01*
X133392621Y-109292621D01*
X133480861Y-109177625D01*
X133536330Y-109043709D01*
X133555250Y-108900000D01*
X133536330Y-108756291D01*
X133486641Y-108636329D01*
X133480862Y-108622377D01*
X133480861Y-108622376D01*
X133480861Y-108622375D01*
X133392621Y-108507379D01*
X133277625Y-108419139D01*
X133277624Y-108419138D01*
X133277622Y-108419137D01*
X133143712Y-108363671D01*
X133143710Y-108363670D01*
X133143709Y-108363670D01*
X133071854Y-108354210D01*
X133000001Y-108344750D01*
X132999999Y-108344750D01*
X132856291Y-108363670D01*
X132856287Y-108363671D01*
X132722377Y-108419137D01*
X132607379Y-108507379D01*
X132519137Y-108622377D01*
X132463671Y-108756287D01*
X132463670Y-108756291D01*
X132444750Y-108899999D01*
X132444750Y-108900000D01*
X129000500Y-108900000D01*
X129000500Y-108100000D01*
X135144750Y-108100000D01*
X135154903Y-108177122D01*
X135163670Y-108243708D01*
X135163671Y-108243712D01*
X135219137Y-108377622D01*
X135219138Y-108377624D01*
X135219139Y-108377625D01*
X135307379Y-108492621D01*
X135422375Y-108580861D01*
X135556291Y-108636330D01*
X135683280Y-108653048D01*
X135699999Y-108655250D01*
X135700000Y-108655250D01*
X135700001Y-108655250D01*
X135714977Y-108653278D01*
X135843709Y-108636330D01*
X135977625Y-108580861D01*
X136092621Y-108492621D01*
X136180861Y-108377625D01*
X136236330Y-108243709D01*
X136255250Y-108100000D01*
X136236330Y-107956291D01*
X136195118Y-107856794D01*
X136180862Y-107822377D01*
X136180861Y-107822376D01*
X136180861Y-107822375D01*
X136145281Y-107776007D01*
X140494500Y-107776007D01*
X140499197Y-107819686D01*
X140510402Y-107871193D01*
X140512889Y-107881370D01*
X140512890Y-107881373D01*
X140555900Y-107962085D01*
X140601655Y-108014889D01*
X140619246Y-108032843D01*
X140619247Y-108032844D01*
X140619249Y-108032845D01*
X140699059Y-108077488D01*
X140699063Y-108077490D01*
X140766102Y-108097175D01*
X140824000Y-108105500D01*
X140824004Y-108105500D01*
X145091119Y-108105500D01*
X145127560Y-108102243D01*
X145170841Y-108094444D01*
X145173883Y-108093872D01*
X145257474Y-108056768D01*
X145313427Y-108014922D01*
X145332601Y-107998663D01*
X145382862Y-107922256D01*
X145391361Y-107899500D01*
X160744750Y-107899500D01*
X160763670Y-108043208D01*
X160763671Y-108043212D01*
X160819137Y-108177122D01*
X160819138Y-108177124D01*
X160819139Y-108177125D01*
X160907379Y-108292121D01*
X161022375Y-108380361D01*
X161156291Y-108435830D01*
X161283280Y-108452548D01*
X161299999Y-108454750D01*
X161300000Y-108454750D01*
X161300001Y-108454750D01*
X161314977Y-108452778D01*
X161443709Y-108435830D01*
X161577625Y-108380361D01*
X161692621Y-108292121D01*
X161780861Y-108177125D01*
X161836330Y-108043209D01*
X161855250Y-107899500D01*
X161836330Y-107755791D01*
X161780861Y-107621875D01*
X161692621Y-107506879D01*
X161577625Y-107418639D01*
X161577624Y-107418638D01*
X161577622Y-107418637D01*
X161443712Y-107363171D01*
X161443710Y-107363170D01*
X161443709Y-107363170D01*
X161371854Y-107353709D01*
X161300001Y-107344250D01*
X161299999Y-107344250D01*
X161156291Y-107363170D01*
X161156287Y-107363171D01*
X161022377Y-107418637D01*
X160907379Y-107506879D01*
X160819137Y-107621877D01*
X160763671Y-107755787D01*
X160763670Y-107755791D01*
X160744750Y-107899499D01*
X160744750Y-107899500D01*
X145391361Y-107899500D01*
X145407308Y-107856803D01*
X145407309Y-107856797D01*
X145407311Y-107856794D01*
X145407311Y-107856795D01*
X145409507Y-107849595D01*
X145414646Y-107832762D01*
X145415620Y-107741311D01*
X145400799Y-107673031D01*
X145380384Y-107618218D01*
X144543469Y-106083876D01*
X144528649Y-106015598D01*
X144553095Y-105950145D01*
X144609048Y-105908299D01*
X144652329Y-105900500D01*
X146537159Y-105900500D01*
X146545733Y-105901095D01*
X146557761Y-105902772D01*
X146557761Y-105902771D01*
X146557765Y-105902773D01*
X146600920Y-105900778D01*
X146605510Y-105900566D01*
X146608373Y-105900500D01*
X146627843Y-105900500D01*
X146627844Y-105900500D01*
X146630468Y-105900009D01*
X146639021Y-105899016D01*
X146640245Y-105898959D01*
X146669992Y-105897585D01*
X146676322Y-105894789D01*
X146703629Y-105886332D01*
X146710433Y-105885061D01*
X146736797Y-105868736D01*
X146744392Y-105864733D01*
X146772765Y-105852206D01*
X146777661Y-105847309D01*
X146800069Y-105829561D01*
X146805952Y-105825919D01*
X146824649Y-105801158D01*
X146830266Y-105794703D01*
X147524969Y-105100000D01*
X150344750Y-105100000D01*
X150352160Y-105156287D01*
X150363670Y-105243708D01*
X150363671Y-105243712D01*
X150419137Y-105377622D01*
X150419138Y-105377624D01*
X150419139Y-105377625D01*
X150507379Y-105492621D01*
X150622375Y-105580861D01*
X150756291Y-105636330D01*
X150883280Y-105653048D01*
X150899999Y-105655250D01*
X150900000Y-105655250D01*
X150900001Y-105655250D01*
X150914977Y-105653278D01*
X151043709Y-105636330D01*
X151177625Y-105580861D01*
X151292621Y-105492621D01*
X151380861Y-105377625D01*
X151436330Y-105243709D01*
X151455250Y-105100000D01*
X151442085Y-105000000D01*
X154444750Y-105000000D01*
X154457915Y-105100000D01*
X154463670Y-105143708D01*
X154463671Y-105143712D01*
X154519137Y-105277622D01*
X154519138Y-105277624D01*
X154519139Y-105277625D01*
X154607379Y-105392621D01*
X154722375Y-105480861D01*
X154722376Y-105480861D01*
X154722377Y-105480862D01*
X154767013Y-105499350D01*
X154856291Y-105536330D01*
X154983280Y-105553048D01*
X154999999Y-105555250D01*
X155000000Y-105555250D01*
X155000001Y-105555250D01*
X155014977Y-105553278D01*
X155143709Y-105536330D01*
X155277625Y-105480861D01*
X155392621Y-105392621D01*
X155480861Y-105277625D01*
X155536330Y-105143709D01*
X155540657Y-105110841D01*
X158529154Y-105110841D01*
X158548074Y-105254549D01*
X158548075Y-105254553D01*
X158603541Y-105388463D01*
X158603542Y-105388465D01*
X158603543Y-105388466D01*
X158691783Y-105503462D01*
X158806779Y-105591702D01*
X158940695Y-105647171D01*
X159067684Y-105663889D01*
X159084403Y-105666091D01*
X159084404Y-105666091D01*
X159084405Y-105666091D01*
X159099381Y-105664119D01*
X159228113Y-105647171D01*
X159362029Y-105591702D01*
X159477025Y-105503462D01*
X159565265Y-105388466D01*
X159601908Y-105300000D01*
X161544750Y-105300000D01*
X161563670Y-105443708D01*
X161563671Y-105443712D01*
X161619137Y-105577622D01*
X161619138Y-105577624D01*
X161619139Y-105577625D01*
X161707379Y-105692621D01*
X161822375Y-105780861D01*
X161956291Y-105836330D01*
X162076879Y-105852206D01*
X162099999Y-105855250D01*
X162100000Y-105855250D01*
X162100001Y-105855250D01*
X162123121Y-105852206D01*
X162243709Y-105836330D01*
X162377625Y-105780861D01*
X162492621Y-105692621D01*
X162580861Y-105577625D01*
X162636330Y-105443709D01*
X162655250Y-105300000D01*
X162636330Y-105156291D01*
X162586641Y-105036329D01*
X162580862Y-105022377D01*
X162580861Y-105022376D01*
X162580861Y-105022375D01*
X162492621Y-104907379D01*
X162377625Y-104819139D01*
X162377624Y-104819138D01*
X162377622Y-104819137D01*
X162243712Y-104763671D01*
X162243710Y-104763670D01*
X162243709Y-104763670D01*
X162171854Y-104754210D01*
X162100001Y-104744750D01*
X162099999Y-104744750D01*
X161956291Y-104763670D01*
X161956287Y-104763671D01*
X161822377Y-104819137D01*
X161707379Y-104907379D01*
X161619137Y-105022377D01*
X161563671Y-105156287D01*
X161563670Y-105156291D01*
X161544750Y-105299999D01*
X161544750Y-105300000D01*
X159601908Y-105300000D01*
X159620734Y-105254550D01*
X159639654Y-105110841D01*
X159620734Y-104967132D01*
X159565265Y-104833216D01*
X159477025Y-104718220D01*
X159362029Y-104629980D01*
X159362028Y-104629979D01*
X159362026Y-104629978D01*
X159228116Y-104574512D01*
X159228114Y-104574511D01*
X159228113Y-104574511D01*
X159145769Y-104563670D01*
X159084405Y-104555591D01*
X159084403Y-104555591D01*
X158940695Y-104574511D01*
X158940691Y-104574512D01*
X158806781Y-104629978D01*
X158691783Y-104718220D01*
X158603541Y-104833218D01*
X158548075Y-104967128D01*
X158548074Y-104967132D01*
X158529154Y-105110840D01*
X158529154Y-105110841D01*
X155540657Y-105110841D01*
X155555250Y-105000000D01*
X155536330Y-104856291D01*
X155480861Y-104722375D01*
X155392621Y-104607379D01*
X155277625Y-104519139D01*
X155277624Y-104519138D01*
X155277622Y-104519137D01*
X155143712Y-104463671D01*
X155143710Y-104463670D01*
X155143709Y-104463670D01*
X155071854Y-104454210D01*
X155000001Y-104444750D01*
X154999999Y-104444750D01*
X154856291Y-104463670D01*
X154856287Y-104463671D01*
X154722377Y-104519137D01*
X154607379Y-104607379D01*
X154519137Y-104722377D01*
X154463671Y-104856287D01*
X154463670Y-104856291D01*
X154447270Y-104980862D01*
X154444750Y-105000000D01*
X151442085Y-105000000D01*
X151436330Y-104956291D01*
X151385352Y-104833218D01*
X151380862Y-104822377D01*
X151380861Y-104822376D01*
X151380861Y-104822375D01*
X151292621Y-104707379D01*
X151177625Y-104619139D01*
X151177624Y-104619138D01*
X151177622Y-104619137D01*
X151043712Y-104563671D01*
X151043710Y-104563670D01*
X151043709Y-104563670D01*
X150971854Y-104554210D01*
X150900001Y-104544750D01*
X150899999Y-104544750D01*
X150756291Y-104563670D01*
X150756287Y-104563671D01*
X150622377Y-104619137D01*
X150507379Y-104707379D01*
X150419137Y-104822377D01*
X150363671Y-104956287D01*
X150363670Y-104956291D01*
X150350642Y-105055250D01*
X150344750Y-105100000D01*
X147524969Y-105100000D01*
X147541638Y-105083331D01*
X147602959Y-105049848D01*
X147645503Y-105048075D01*
X147699999Y-105055250D01*
X147700000Y-105055250D01*
X147843709Y-105036330D01*
X147977625Y-104980861D01*
X148092621Y-104892621D01*
X148180861Y-104777625D01*
X148236330Y-104643709D01*
X148255250Y-104500000D01*
X148236330Y-104356291D01*
X148191563Y-104248213D01*
X148180862Y-104222377D01*
X148180861Y-104222376D01*
X148180861Y-104222375D01*
X148092621Y-104107379D01*
X147977625Y-104019139D01*
X147977624Y-104019138D01*
X147977622Y-104019137D01*
X147843712Y-103963671D01*
X147843710Y-103963670D01*
X147843709Y-103963670D01*
X147771854Y-103954210D01*
X147700001Y-103944750D01*
X147699999Y-103944750D01*
X147556291Y-103963670D01*
X147556287Y-103963671D01*
X147422377Y-104019137D01*
X147307379Y-104107379D01*
X147219137Y-104222377D01*
X147163671Y-104356287D01*
X147163670Y-104356291D01*
X147144750Y-104499999D01*
X147144750Y-104500001D01*
X147151924Y-104554495D01*
X147141158Y-104623530D01*
X147116666Y-104658361D01*
X146511848Y-105263181D01*
X146450525Y-105296666D01*
X146424167Y-105299500D01*
X144189239Y-105299500D01*
X144122200Y-105279815D01*
X144080380Y-105234878D01*
X143386993Y-103963671D01*
X143317111Y-103835555D01*
X143302291Y-103767276D01*
X143326737Y-103701823D01*
X143375169Y-103665601D01*
X143374430Y-103664149D01*
X143383123Y-103659719D01*
X143383126Y-103659719D01*
X143503220Y-103598528D01*
X143598528Y-103503220D01*
X143603079Y-103494287D01*
X143651051Y-103443490D01*
X143718871Y-103426692D01*
X143732942Y-103428102D01*
X143750000Y-103430804D01*
X143856021Y-103414012D01*
X143883121Y-103409720D01*
X143883121Y-103409719D01*
X143883126Y-103409719D01*
X144003220Y-103348528D01*
X144098528Y-103253220D01*
X144159719Y-103133126D01*
X144159720Y-103133121D01*
X144164966Y-103100000D01*
X152044750Y-103100000D01*
X152057915Y-103200000D01*
X152063670Y-103243708D01*
X152063671Y-103243712D01*
X152119137Y-103377622D01*
X152119138Y-103377624D01*
X152119139Y-103377625D01*
X152207379Y-103492621D01*
X152322375Y-103580861D01*
X152322376Y-103580861D01*
X152322377Y-103580862D01*
X152365023Y-103598526D01*
X152456291Y-103636330D01*
X152583280Y-103653048D01*
X152599999Y-103655250D01*
X152600000Y-103655250D01*
X152600001Y-103655250D01*
X152614977Y-103653278D01*
X152743709Y-103636330D01*
X152877625Y-103580861D01*
X152918180Y-103549741D01*
X152983346Y-103524548D01*
X153051791Y-103538586D01*
X153092040Y-103572631D01*
X153107379Y-103592621D01*
X153222375Y-103680861D01*
X153356291Y-103736330D01*
X153471137Y-103751450D01*
X153499999Y-103755250D01*
X153500000Y-103755250D01*
X153500001Y-103755250D01*
X153514977Y-103753278D01*
X153643709Y-103736330D01*
X153777625Y-103680861D01*
X153892621Y-103592621D01*
X153980861Y-103477625D01*
X154036330Y-103343709D01*
X154055250Y-103200000D01*
X154036330Y-103056291D01*
X154013014Y-103000000D01*
X162344750Y-103000000D01*
X162357915Y-103100000D01*
X162363670Y-103143708D01*
X162363671Y-103143712D01*
X162419137Y-103277622D01*
X162419138Y-103277624D01*
X162419139Y-103277625D01*
X162507379Y-103392621D01*
X162622375Y-103480861D01*
X162622376Y-103480861D01*
X162622377Y-103480862D01*
X162654791Y-103494288D01*
X162756291Y-103536330D01*
X162883280Y-103553048D01*
X162899999Y-103555250D01*
X162900000Y-103555250D01*
X162900001Y-103555250D01*
X162914977Y-103553278D01*
X163043709Y-103536330D01*
X163177625Y-103480861D01*
X163292621Y-103392621D01*
X163380861Y-103277625D01*
X163436330Y-103143709D01*
X163455250Y-103000000D01*
X163455249Y-102999996D01*
X163449061Y-102952989D01*
X163436330Y-102856291D01*
X163386641Y-102736329D01*
X163380862Y-102722377D01*
X163380861Y-102722376D01*
X163380861Y-102722375D01*
X163292621Y-102607379D01*
X163177625Y-102519139D01*
X163177624Y-102519138D01*
X163177622Y-102519137D01*
X163043712Y-102463671D01*
X163043710Y-102463670D01*
X163043709Y-102463670D01*
X162971854Y-102454210D01*
X162900001Y-102444750D01*
X162899999Y-102444750D01*
X162756291Y-102463670D01*
X162756287Y-102463671D01*
X162622377Y-102519137D01*
X162507379Y-102607379D01*
X162419137Y-102722377D01*
X162363671Y-102856287D01*
X162363670Y-102856291D01*
X162344751Y-102999996D01*
X162344750Y-103000000D01*
X154013014Y-103000000D01*
X153986641Y-102936329D01*
X153980862Y-102922377D01*
X153980861Y-102922376D01*
X153980861Y-102922375D01*
X153892621Y-102807379D01*
X153777625Y-102719139D01*
X153777624Y-102719138D01*
X153777622Y-102719137D01*
X153643712Y-102663671D01*
X153643710Y-102663670D01*
X153643709Y-102663670D01*
X153543508Y-102650478D01*
X153500001Y-102644750D01*
X153499999Y-102644750D01*
X153356291Y-102663670D01*
X153356287Y-102663671D01*
X153222376Y-102719138D01*
X153222375Y-102719138D01*
X153181819Y-102750258D01*
X153116650Y-102775451D01*
X153048205Y-102761412D01*
X153007958Y-102727367D01*
X152992622Y-102707380D01*
X152974797Y-102693702D01*
X152877625Y-102619139D01*
X152877624Y-102619138D01*
X152877622Y-102619137D01*
X152743712Y-102563671D01*
X152743710Y-102563670D01*
X152743709Y-102563670D01*
X152671854Y-102554210D01*
X152600001Y-102544750D01*
X152599999Y-102544750D01*
X152456291Y-102563670D01*
X152456287Y-102563671D01*
X152322377Y-102619137D01*
X152207379Y-102707379D01*
X152119137Y-102822377D01*
X152063671Y-102956287D01*
X152063670Y-102956291D01*
X152047335Y-103080369D01*
X152044750Y-103100000D01*
X144164966Y-103100000D01*
X144180804Y-103000002D01*
X144180804Y-102999997D01*
X144159720Y-102866876D01*
X144159719Y-102866874D01*
X144144427Y-102836862D01*
X144128851Y-102806293D01*
X144115955Y-102737626D01*
X144128850Y-102693708D01*
X144159719Y-102633126D01*
X144161935Y-102619139D01*
X144180804Y-102500002D01*
X144180804Y-102499997D01*
X144164966Y-102400000D01*
X147544750Y-102400000D01*
X147557915Y-102500000D01*
X147563670Y-102543708D01*
X147563671Y-102543712D01*
X147619137Y-102677622D01*
X147619138Y-102677624D01*
X147619139Y-102677625D01*
X147707379Y-102792621D01*
X147822375Y-102880861D01*
X147822376Y-102880861D01*
X147822377Y-102880862D01*
X147867013Y-102899350D01*
X147956291Y-102936330D01*
X148082826Y-102952989D01*
X148099999Y-102955250D01*
X148100000Y-102955250D01*
X148100001Y-102955250D01*
X148117174Y-102952989D01*
X148243709Y-102936330D01*
X148377625Y-102880861D01*
X148492621Y-102792621D01*
X148580861Y-102677625D01*
X148636330Y-102543709D01*
X148655250Y-102400000D01*
X148636330Y-102256291D01*
X148613014Y-102200000D01*
X154644750Y-102200000D01*
X154660318Y-102318252D01*
X154663670Y-102343708D01*
X154663671Y-102343712D01*
X154719137Y-102477622D01*
X154719138Y-102477624D01*
X154719139Y-102477625D01*
X154807379Y-102592621D01*
X154922375Y-102680861D01*
X155056291Y-102736330D01*
X155183280Y-102753048D01*
X155199999Y-102755250D01*
X155200000Y-102755250D01*
X155200001Y-102755250D01*
X155214977Y-102753278D01*
X155343709Y-102736330D01*
X155477625Y-102680861D01*
X155592621Y-102592621D01*
X155680861Y-102477625D01*
X155736330Y-102343709D01*
X155746685Y-102265056D01*
X163824500Y-102265056D01*
X163837844Y-102319196D01*
X163865210Y-102430226D01*
X163944263Y-102580849D01*
X163944266Y-102580852D01*
X164057071Y-102708183D01*
X164117652Y-102749999D01*
X164197068Y-102804817D01*
X164197069Y-102804817D01*
X164197070Y-102804818D01*
X164356128Y-102865140D01*
X164432028Y-102874356D01*
X164482626Y-102880500D01*
X165228479Y-102880500D01*
X165295518Y-102900185D01*
X165341273Y-102952989D01*
X165351217Y-103022147D01*
X165322192Y-103085703D01*
X165303965Y-103102876D01*
X165181697Y-103196694D01*
X165088806Y-103317752D01*
X165030416Y-103458719D01*
X165030415Y-103458721D01*
X165010500Y-103609998D01*
X165010500Y-103610001D01*
X165030415Y-103761278D01*
X165030416Y-103761280D01*
X165088806Y-103902247D01*
X165088807Y-103902249D01*
X165088808Y-103902250D01*
X165181696Y-104023304D01*
X165302750Y-104116192D01*
X165443720Y-104174584D01*
X165500369Y-104182042D01*
X165557019Y-104189500D01*
X165557020Y-104189500D01*
X165632981Y-104189500D01*
X165670746Y-104184528D01*
X165746280Y-104174584D01*
X165887250Y-104116192D01*
X166008304Y-104023304D01*
X166101192Y-103902250D01*
X166159584Y-103761280D01*
X166179500Y-103610000D01*
X166177989Y-103598526D01*
X166164704Y-103497608D01*
X166159584Y-103458720D01*
X166101192Y-103317750D01*
X166008304Y-103196696D01*
X165887250Y-103103808D01*
X165887246Y-103103806D01*
X165830664Y-103080369D01*
X165776261Y-103036528D01*
X165754196Y-102970234D01*
X165771475Y-102902535D01*
X165822612Y-102854924D01*
X165834141Y-102849868D01*
X165952930Y-102804818D01*
X166092929Y-102708183D01*
X166205734Y-102580852D01*
X166214752Y-102563671D01*
X166267236Y-102463671D01*
X166284790Y-102430225D01*
X166325500Y-102265056D01*
X168174500Y-102265056D01*
X168187844Y-102319196D01*
X168215210Y-102430226D01*
X168294263Y-102580849D01*
X168294266Y-102580852D01*
X168407071Y-102708183D01*
X168467652Y-102749999D01*
X168547068Y-102804817D01*
X168547069Y-102804817D01*
X168547070Y-102804818D01*
X168706128Y-102865140D01*
X168782028Y-102874356D01*
X168832626Y-102880500D01*
X168832628Y-102880500D01*
X169717374Y-102880500D01*
X169759538Y-102875380D01*
X169843872Y-102865140D01*
X170002930Y-102804818D01*
X170142929Y-102708183D01*
X170255734Y-102580852D01*
X170264752Y-102563671D01*
X170317236Y-102463671D01*
X170334790Y-102430225D01*
X170375500Y-102265056D01*
X170375500Y-102094944D01*
X170334790Y-101929775D01*
X170300095Y-101863670D01*
X170255736Y-101779150D01*
X170208461Y-101725788D01*
X170142929Y-101651817D01*
X170093177Y-101617475D01*
X170002931Y-101555182D01*
X169843874Y-101494860D01*
X169843868Y-101494859D01*
X169717374Y-101479500D01*
X169717372Y-101479500D01*
X168832628Y-101479500D01*
X168832626Y-101479500D01*
X168706131Y-101494859D01*
X168706125Y-101494860D01*
X168547068Y-101555182D01*
X168407072Y-101651816D01*
X168294263Y-101779150D01*
X168215210Y-101929773D01*
X168184028Y-102056287D01*
X168174500Y-102094944D01*
X168174500Y-102265056D01*
X166325500Y-102265056D01*
X166325500Y-102094944D01*
X166284790Y-101929775D01*
X166250095Y-101863670D01*
X166205736Y-101779150D01*
X166158461Y-101725788D01*
X166092929Y-101651817D01*
X166043177Y-101617475D01*
X165952931Y-101555182D01*
X165793874Y-101494860D01*
X165793868Y-101494859D01*
X165667374Y-101479500D01*
X165667372Y-101479500D01*
X164482628Y-101479500D01*
X164482626Y-101479500D01*
X164356131Y-101494859D01*
X164356125Y-101494860D01*
X164197068Y-101555182D01*
X164057072Y-101651816D01*
X163944263Y-101779150D01*
X163865210Y-101929773D01*
X163834028Y-102056287D01*
X163824500Y-102094944D01*
X163824500Y-102265056D01*
X155746685Y-102265056D01*
X155755250Y-102200000D01*
X155754841Y-102196897D01*
X155753048Y-102183280D01*
X155736330Y-102056291D01*
X155680861Y-101922375D01*
X155592621Y-101807379D01*
X155477625Y-101719139D01*
X155477624Y-101719138D01*
X155477622Y-101719137D01*
X155343712Y-101663671D01*
X155343710Y-101663670D01*
X155343709Y-101663670D01*
X155253671Y-101651816D01*
X155200001Y-101644750D01*
X155199999Y-101644750D01*
X155056291Y-101663670D01*
X155056287Y-101663671D01*
X154922377Y-101719137D01*
X154807379Y-101807379D01*
X154719137Y-101922377D01*
X154663671Y-102056287D01*
X154663670Y-102056291D01*
X154645159Y-102196897D01*
X154644750Y-102200000D01*
X148613014Y-102200000D01*
X148580861Y-102122375D01*
X148492621Y-102007379D01*
X148377625Y-101919139D01*
X148377624Y-101919138D01*
X148377622Y-101919137D01*
X148243712Y-101863671D01*
X148243710Y-101863670D01*
X148243709Y-101863670D01*
X148171854Y-101854210D01*
X148100001Y-101844750D01*
X148099999Y-101844750D01*
X147956291Y-101863670D01*
X147956287Y-101863671D01*
X147822377Y-101919137D01*
X147707379Y-102007379D01*
X147619137Y-102122377D01*
X147563671Y-102256287D01*
X147563670Y-102256291D01*
X147555513Y-102318252D01*
X147544750Y-102400000D01*
X144164966Y-102400000D01*
X144159720Y-102366878D01*
X144159719Y-102366876D01*
X144159719Y-102366874D01*
X144098528Y-102246780D01*
X144098526Y-102246778D01*
X144098523Y-102246774D01*
X144003225Y-102151476D01*
X144003221Y-102151473D01*
X144003221Y-102151472D01*
X144003220Y-102151472D01*
X143883126Y-102090281D01*
X143883124Y-102090280D01*
X143883121Y-102090279D01*
X143750002Y-102069196D01*
X143749998Y-102069196D01*
X143616878Y-102090279D01*
X143496778Y-102151473D01*
X143496774Y-102151476D01*
X143401472Y-102246779D01*
X143401471Y-102246779D01*
X143396917Y-102255718D01*
X143348942Y-102306512D01*
X143281120Y-102323306D01*
X143267040Y-102321894D01*
X143250002Y-102319196D01*
X143250001Y-102319196D01*
X143250000Y-102319196D01*
X143248895Y-102319370D01*
X143247542Y-102319196D01*
X143240241Y-102319196D01*
X143240241Y-102318252D01*
X143179602Y-102310414D01*
X143126151Y-102265417D01*
X143105513Y-102198665D01*
X143105500Y-102196897D01*
X143105500Y-101000000D01*
X144494867Y-101000000D01*
X144513302Y-101128225D01*
X144536607Y-101179254D01*
X144567118Y-101246063D01*
X144651951Y-101343967D01*
X144760931Y-101414004D01*
X144885225Y-101450499D01*
X144885227Y-101450500D01*
X144885228Y-101450500D01*
X145014773Y-101450500D01*
X145014773Y-101450499D01*
X145139069Y-101414004D01*
X145248049Y-101343967D01*
X145332882Y-101246063D01*
X145337205Y-101236595D01*
X145382961Y-101183791D01*
X145450000Y-101164107D01*
X145517040Y-101183792D01*
X145562794Y-101236595D01*
X145567118Y-101246063D01*
X145651951Y-101343967D01*
X145760931Y-101414004D01*
X145885225Y-101450499D01*
X145885227Y-101450500D01*
X145885228Y-101450500D01*
X146014773Y-101450500D01*
X146014773Y-101450499D01*
X146139069Y-101414004D01*
X146248049Y-101343967D01*
X146332882Y-101246063D01*
X146337205Y-101236595D01*
X146382961Y-101183791D01*
X146450000Y-101164107D01*
X146517040Y-101183792D01*
X146562794Y-101236595D01*
X146567118Y-101246063D01*
X146651951Y-101343967D01*
X146760931Y-101414004D01*
X146885225Y-101450499D01*
X146885227Y-101450500D01*
X146885228Y-101450500D01*
X147014773Y-101450500D01*
X147014773Y-101450499D01*
X147139069Y-101414004D01*
X147248049Y-101343967D01*
X147332882Y-101246063D01*
X147386697Y-101128226D01*
X147405133Y-101000000D01*
X151944750Y-101000000D01*
X151962698Y-101136329D01*
X151963670Y-101143708D01*
X151963671Y-101143712D01*
X152019137Y-101277622D01*
X152019138Y-101277624D01*
X152019139Y-101277625D01*
X152107379Y-101392621D01*
X152222375Y-101480861D01*
X152356291Y-101536330D01*
X152483280Y-101553048D01*
X152499999Y-101555250D01*
X152500000Y-101555250D01*
X152500001Y-101555250D01*
X152514977Y-101553278D01*
X152643709Y-101536330D01*
X152777625Y-101480861D01*
X152892621Y-101392621D01*
X152980861Y-101277625D01*
X153036330Y-101143709D01*
X153055250Y-101000000D01*
X153055249Y-100999996D01*
X153053048Y-100983280D01*
X153036330Y-100856291D01*
X152997856Y-100763406D01*
X152980862Y-100722377D01*
X152980861Y-100722376D01*
X152980861Y-100722375D01*
X152892621Y-100607379D01*
X152883005Y-100600000D01*
X156944750Y-100600000D01*
X156963670Y-100743708D01*
X156963671Y-100743712D01*
X157019137Y-100877622D01*
X157019138Y-100877624D01*
X157019139Y-100877625D01*
X157107379Y-100992621D01*
X157222375Y-101080861D01*
X157356291Y-101136330D01*
X157483280Y-101153048D01*
X157499999Y-101155250D01*
X157500000Y-101155250D01*
X157500001Y-101155250D01*
X157514977Y-101153278D01*
X157643709Y-101136330D01*
X157777625Y-101080861D01*
X157892621Y-100992621D01*
X157980861Y-100877625D01*
X158036330Y-100743709D01*
X158055250Y-100600000D01*
X158036330Y-100456291D01*
X157980861Y-100322375D01*
X157892621Y-100207379D01*
X157777625Y-100119139D01*
X157777624Y-100119138D01*
X157777622Y-100119137D01*
X157643712Y-100063671D01*
X157643710Y-100063670D01*
X157643709Y-100063670D01*
X157571854Y-100054210D01*
X157500001Y-100044750D01*
X157499999Y-100044750D01*
X157356291Y-100063670D01*
X157356287Y-100063671D01*
X157222377Y-100119137D01*
X157107379Y-100207379D01*
X157019137Y-100322377D01*
X156963671Y-100456287D01*
X156963670Y-100456291D01*
X156944750Y-100599999D01*
X156944750Y-100600000D01*
X152883005Y-100600000D01*
X152777625Y-100519139D01*
X152777624Y-100519138D01*
X152777622Y-100519137D01*
X152643712Y-100463671D01*
X152643710Y-100463670D01*
X152643709Y-100463670D01*
X152543675Y-100450500D01*
X152500001Y-100444750D01*
X152499999Y-100444750D01*
X152356291Y-100463670D01*
X152356287Y-100463671D01*
X152222377Y-100519137D01*
X152107379Y-100607379D01*
X152019137Y-100722377D01*
X151963671Y-100856287D01*
X151963670Y-100856291D01*
X151944751Y-100999996D01*
X151944750Y-101000000D01*
X147405133Y-101000000D01*
X147386697Y-100871774D01*
X147332882Y-100753937D01*
X147248049Y-100656033D01*
X147167572Y-100604313D01*
X147121819Y-100551512D01*
X147111875Y-100482354D01*
X147140899Y-100418798D01*
X147167569Y-100395687D01*
X147248049Y-100343967D01*
X147332882Y-100246063D01*
X147386697Y-100128226D01*
X147405133Y-100000000D01*
X147386697Y-99871774D01*
X147332882Y-99753937D01*
X147248049Y-99656033D01*
X147167572Y-99604313D01*
X147121819Y-99551512D01*
X147111875Y-99482354D01*
X147140899Y-99418798D01*
X147167569Y-99395687D01*
X147248049Y-99343967D01*
X147332882Y-99246063D01*
X147342820Y-99224301D01*
X151919258Y-99224301D01*
X151935012Y-99343966D01*
X151938178Y-99368009D01*
X151938179Y-99368013D01*
X151993645Y-99501923D01*
X151993646Y-99501925D01*
X151993647Y-99501926D01*
X152081887Y-99616922D01*
X152196883Y-99705162D01*
X152330799Y-99760631D01*
X152457788Y-99777349D01*
X152474507Y-99779551D01*
X152474508Y-99779551D01*
X152474509Y-99779551D01*
X152489485Y-99777579D01*
X152618217Y-99760631D01*
X152719147Y-99718824D01*
X152788615Y-99711356D01*
X152851094Y-99742631D01*
X152881159Y-99785933D01*
X152893700Y-99816209D01*
X152919139Y-99877625D01*
X153007379Y-99992621D01*
X153122375Y-100080861D01*
X153256291Y-100136330D01*
X153383280Y-100153048D01*
X153399999Y-100155250D01*
X153400000Y-100155250D01*
X153400001Y-100155250D01*
X153414977Y-100153278D01*
X153543709Y-100136330D01*
X153677625Y-100080861D01*
X153792621Y-99992621D01*
X153880861Y-99877625D01*
X153936330Y-99743709D01*
X153955250Y-99600000D01*
X153936330Y-99456291D01*
X153892106Y-99349523D01*
X153880862Y-99322377D01*
X153880861Y-99322376D01*
X153880861Y-99322375D01*
X153792621Y-99207379D01*
X153677625Y-99119139D01*
X153677624Y-99119138D01*
X153677622Y-99119137D01*
X153543712Y-99063671D01*
X153543710Y-99063670D01*
X153543709Y-99063670D01*
X153471854Y-99054210D01*
X153400001Y-99044750D01*
X153399999Y-99044750D01*
X153256291Y-99063670D01*
X153155360Y-99105476D01*
X153085891Y-99112944D01*
X153023412Y-99081668D01*
X152993348Y-99038366D01*
X152955370Y-98946678D01*
X152955369Y-98946677D01*
X152955369Y-98946676D01*
X152867129Y-98831680D01*
X152752133Y-98743440D01*
X152752132Y-98743439D01*
X152752130Y-98743438D01*
X152618220Y-98687972D01*
X152618218Y-98687971D01*
X152618217Y-98687971D01*
X152539610Y-98677622D01*
X152474509Y-98669051D01*
X152474507Y-98669051D01*
X152330799Y-98687971D01*
X152330795Y-98687972D01*
X152196885Y-98743438D01*
X152081887Y-98831680D01*
X151993645Y-98946678D01*
X151938179Y-99080588D01*
X151938178Y-99080592D01*
X151925189Y-99179255D01*
X151919258Y-99224301D01*
X147342820Y-99224301D01*
X147386697Y-99128226D01*
X147405133Y-99000000D01*
X147386697Y-98871774D01*
X147332882Y-98753937D01*
X147248049Y-98656033D01*
X147139069Y-98585996D01*
X147139065Y-98585994D01*
X147139064Y-98585994D01*
X147014774Y-98549500D01*
X147014772Y-98549500D01*
X146885228Y-98549500D01*
X146885226Y-98549500D01*
X146760935Y-98585994D01*
X146760932Y-98585995D01*
X146760931Y-98585996D01*
X146709677Y-98618934D01*
X146651950Y-98656033D01*
X146567118Y-98753937D01*
X146567116Y-98753940D01*
X146562793Y-98763406D01*
X146517037Y-98816209D01*
X146449997Y-98835892D01*
X146382958Y-98816206D01*
X146337207Y-98763406D01*
X146332883Y-98753940D01*
X146332882Y-98753938D01*
X146332882Y-98753937D01*
X146248049Y-98656033D01*
X146139069Y-98585996D01*
X146139065Y-98585994D01*
X146139064Y-98585994D01*
X146014774Y-98549500D01*
X146014772Y-98549500D01*
X145885228Y-98549500D01*
X145885226Y-98549500D01*
X145760935Y-98585994D01*
X145760932Y-98585995D01*
X145760931Y-98585996D01*
X145709677Y-98618934D01*
X145651950Y-98656033D01*
X145567118Y-98753937D01*
X145567116Y-98753940D01*
X145562793Y-98763406D01*
X145517037Y-98816209D01*
X145449997Y-98835892D01*
X145382958Y-98816206D01*
X145337207Y-98763406D01*
X145332883Y-98753940D01*
X145332882Y-98753938D01*
X145332882Y-98753937D01*
X145248049Y-98656033D01*
X145139069Y-98585996D01*
X145139065Y-98585994D01*
X145139064Y-98585994D01*
X145014774Y-98549500D01*
X145014772Y-98549500D01*
X144885228Y-98549500D01*
X144885226Y-98549500D01*
X144760935Y-98585994D01*
X144760932Y-98585995D01*
X144760931Y-98585996D01*
X144709677Y-98618934D01*
X144651950Y-98656033D01*
X144567118Y-98753937D01*
X144567117Y-98753938D01*
X144513302Y-98871774D01*
X144494867Y-99000000D01*
X144513302Y-99128225D01*
X144562794Y-99236595D01*
X144567118Y-99246063D01*
X144651951Y-99343967D01*
X144732425Y-99395684D01*
X144778180Y-99448488D01*
X144788124Y-99517647D01*
X144759099Y-99581202D01*
X144732426Y-99604314D01*
X144712811Y-99616921D01*
X144651950Y-99656033D01*
X144567118Y-99753937D01*
X144567117Y-99753938D01*
X144513302Y-99871774D01*
X144494867Y-100000000D01*
X144513302Y-100128225D01*
X144538679Y-100183791D01*
X144567118Y-100246063D01*
X144651951Y-100343967D01*
X144732425Y-100395684D01*
X144778180Y-100448488D01*
X144788124Y-100517647D01*
X144759099Y-100581202D01*
X144732426Y-100604314D01*
X144703698Y-100622776D01*
X144651950Y-100656033D01*
X144567118Y-100753937D01*
X144567117Y-100753938D01*
X144513302Y-100871774D01*
X144494867Y-101000000D01*
X143105500Y-101000000D01*
X143105500Y-97803102D01*
X143125185Y-97736063D01*
X143177989Y-97690308D01*
X143240241Y-97681356D01*
X143240241Y-97680804D01*
X143244087Y-97680804D01*
X143247147Y-97680364D01*
X143248784Y-97680611D01*
X143250000Y-97680804D01*
X143267036Y-97678105D01*
X143336325Y-97687058D01*
X143389779Y-97732052D01*
X143396913Y-97744274D01*
X143401472Y-97753220D01*
X143401474Y-97753222D01*
X143401476Y-97753225D01*
X143496774Y-97848523D01*
X143496778Y-97848526D01*
X143496780Y-97848528D01*
X143616874Y-97909719D01*
X143616876Y-97909719D01*
X143616878Y-97909720D01*
X143749998Y-97930804D01*
X143750000Y-97930804D01*
X143750002Y-97930804D01*
X143883121Y-97909720D01*
X143883121Y-97909719D01*
X143883126Y-97909719D01*
X143914665Y-97893649D01*
X154138399Y-97893649D01*
X154157319Y-98037357D01*
X154157320Y-98037361D01*
X154212786Y-98171271D01*
X154212787Y-98171273D01*
X154212788Y-98171274D01*
X154301028Y-98286270D01*
X154416024Y-98374510D01*
X154416025Y-98374510D01*
X154416026Y-98374511D01*
X154422173Y-98377057D01*
X154549940Y-98429979D01*
X154676929Y-98446697D01*
X154693648Y-98448899D01*
X154693649Y-98448899D01*
X154693650Y-98448899D01*
X154708626Y-98446927D01*
X154837358Y-98429979D01*
X154971274Y-98374510D01*
X154971281Y-98374504D01*
X154977910Y-98370678D01*
X155045810Y-98354205D01*
X155111837Y-98377057D01*
X155138283Y-98402575D01*
X155207379Y-98492621D01*
X155322375Y-98580861D01*
X155456291Y-98636330D01*
X155583280Y-98653048D01*
X155599999Y-98655250D01*
X155600000Y-98655250D01*
X155600001Y-98655250D01*
X155614977Y-98653278D01*
X155743709Y-98636330D01*
X155877625Y-98580861D01*
X155983005Y-98500000D01*
X157144750Y-98500000D01*
X157162698Y-98636329D01*
X157163670Y-98643708D01*
X157163671Y-98643712D01*
X157219137Y-98777622D01*
X157219138Y-98777624D01*
X157219139Y-98777625D01*
X157307379Y-98892621D01*
X157422375Y-98980861D01*
X157556291Y-99036330D01*
X157683280Y-99053048D01*
X157699999Y-99055250D01*
X157700000Y-99055250D01*
X157700001Y-99055250D01*
X157714977Y-99053278D01*
X157843709Y-99036330D01*
X157977625Y-98980861D01*
X158092621Y-98892621D01*
X158180861Y-98777625D01*
X158236330Y-98643709D01*
X158255250Y-98500000D01*
X158242085Y-98400000D01*
X162044750Y-98400000D01*
X162057915Y-98500000D01*
X162063670Y-98543708D01*
X162063671Y-98543712D01*
X162119137Y-98677622D01*
X162119138Y-98677624D01*
X162119139Y-98677625D01*
X162207379Y-98792621D01*
X162322375Y-98880861D01*
X162322376Y-98880861D01*
X162322377Y-98880862D01*
X162367013Y-98899350D01*
X162456291Y-98936330D01*
X162583280Y-98953048D01*
X162599999Y-98955250D01*
X162600000Y-98955250D01*
X162600001Y-98955250D01*
X162614977Y-98953278D01*
X162743709Y-98936330D01*
X162877625Y-98880861D01*
X162992621Y-98792621D01*
X163080861Y-98677625D01*
X163136330Y-98543709D01*
X163155250Y-98400000D01*
X163136330Y-98256291D01*
X163080861Y-98122375D01*
X163080860Y-98122374D01*
X163080860Y-98122373D01*
X163015624Y-98037357D01*
X162994346Y-98009627D01*
X162969152Y-97944460D01*
X162983190Y-97876015D01*
X163032004Y-97826025D01*
X163100095Y-97810361D01*
X163150348Y-97824346D01*
X163179773Y-97839789D01*
X163179775Y-97839790D01*
X163344944Y-97880500D01*
X163515056Y-97880500D01*
X163680225Y-97839790D01*
X163780159Y-97787340D01*
X163830849Y-97760736D01*
X163830850Y-97760734D01*
X163830852Y-97760734D01*
X163958183Y-97647929D01*
X163962950Y-97641021D01*
X164017230Y-97597033D01*
X164086678Y-97589372D01*
X164149244Y-97620473D01*
X164167046Y-97641017D01*
X164171817Y-97647929D01*
X164266773Y-97732052D01*
X164299150Y-97760736D01*
X164420349Y-97824346D01*
X164449775Y-97839790D01*
X164614944Y-97880500D01*
X164785056Y-97880500D01*
X164950225Y-97839790D01*
X165050159Y-97787340D01*
X165100849Y-97760736D01*
X165100850Y-97760734D01*
X165100852Y-97760734D01*
X165228183Y-97647929D01*
X165324818Y-97507930D01*
X165385140Y-97348872D01*
X165405645Y-97180000D01*
X165385140Y-97011128D01*
X165324818Y-96852070D01*
X165228183Y-96712071D01*
X165144363Y-96637813D01*
X165107238Y-96578626D01*
X165108006Y-96508761D01*
X165144363Y-96452186D01*
X165228183Y-96377929D01*
X165324818Y-96237930D01*
X165385140Y-96078872D01*
X165405645Y-95910000D01*
X165385140Y-95741128D01*
X165324818Y-95582070D01*
X165228183Y-95442071D01*
X165144363Y-95367813D01*
X165107238Y-95308626D01*
X165108006Y-95238761D01*
X165144363Y-95182186D01*
X165228183Y-95107929D01*
X165324818Y-94967930D01*
X165385140Y-94808872D01*
X165405645Y-94640000D01*
X165385140Y-94471128D01*
X165324818Y-94312070D01*
X165228183Y-94172071D01*
X165144363Y-94097813D01*
X165107238Y-94038626D01*
X165108006Y-93968761D01*
X165144363Y-93912186D01*
X165228183Y-93837929D01*
X165324818Y-93697930D01*
X165385140Y-93538872D01*
X165405645Y-93370000D01*
X165385140Y-93201128D01*
X165324818Y-93042070D01*
X165228183Y-92902071D01*
X165144363Y-92827813D01*
X165107238Y-92768626D01*
X165108006Y-92698761D01*
X165144363Y-92642186D01*
X165228183Y-92567929D01*
X165324818Y-92427930D01*
X165385140Y-92268872D01*
X165405645Y-92100000D01*
X165385140Y-91931128D01*
X165324818Y-91772070D01*
X165228183Y-91632071D01*
X165100852Y-91519266D01*
X165100849Y-91519263D01*
X164950226Y-91440210D01*
X164785056Y-91399500D01*
X164614944Y-91399500D01*
X164614942Y-91399500D01*
X164514759Y-91424192D01*
X164444957Y-91421122D01*
X164387895Y-91380802D01*
X164376251Y-91363219D01*
X164373349Y-91357905D01*
X164287190Y-91242812D01*
X164287187Y-91242809D01*
X164172093Y-91156649D01*
X164172086Y-91156645D01*
X164037379Y-91106403D01*
X164037372Y-91106401D01*
X163977844Y-91100000D01*
X163680000Y-91100000D01*
X163680000Y-91892327D01*
X163642129Y-91847195D01*
X163542871Y-91789888D01*
X163458436Y-91775000D01*
X163401564Y-91775000D01*
X163317129Y-91789888D01*
X163217871Y-91847195D01*
X163144199Y-91934993D01*
X163105000Y-92042694D01*
X163105000Y-92157306D01*
X163144199Y-92265007D01*
X163215517Y-92350000D01*
X162430000Y-92350000D01*
X162430000Y-92647844D01*
X162436401Y-92707372D01*
X162436403Y-92707379D01*
X162486645Y-92842086D01*
X162486649Y-92842093D01*
X162572809Y-92957187D01*
X162572812Y-92957190D01*
X162687905Y-93043349D01*
X162689829Y-93044400D01*
X162691379Y-93045950D01*
X162695011Y-93048669D01*
X162694620Y-93049190D01*
X162739236Y-93093804D01*
X162754089Y-93162077D01*
X162746350Y-93197197D01*
X162744862Y-93201121D01*
X162744859Y-93201130D01*
X162724355Y-93369999D01*
X162744859Y-93538869D01*
X162744860Y-93538874D01*
X162805182Y-93697931D01*
X162901818Y-93837930D01*
X162985634Y-93912185D01*
X163022761Y-93971374D01*
X163021993Y-94041240D01*
X162985634Y-94097815D01*
X162901818Y-94172069D01*
X162805182Y-94312068D01*
X162744860Y-94471125D01*
X162744859Y-94471130D01*
X162724355Y-94639999D01*
X162744859Y-94808869D01*
X162744860Y-94808874D01*
X162805182Y-94967931D01*
X162861398Y-95049372D01*
X162889724Y-95090410D01*
X162901818Y-95107930D01*
X162985634Y-95182185D01*
X163022761Y-95241374D01*
X163021993Y-95311240D01*
X162985634Y-95367815D01*
X162901818Y-95442069D01*
X162805182Y-95582068D01*
X162744860Y-95741125D01*
X162744859Y-95741130D01*
X162724355Y-95910000D01*
X162744859Y-96078869D01*
X162744860Y-96078874D01*
X162805182Y-96237931D01*
X162901818Y-96377930D01*
X162985634Y-96452185D01*
X163022761Y-96511374D01*
X163021993Y-96581240D01*
X162985634Y-96637815D01*
X162901818Y-96712069D01*
X162805182Y-96852068D01*
X162744860Y-97011125D01*
X162744859Y-97011130D01*
X162728761Y-97143712D01*
X162724355Y-97180000D01*
X162724460Y-97180861D01*
X162744859Y-97348869D01*
X162744860Y-97348874D01*
X162805182Y-97507931D01*
X162882865Y-97620473D01*
X162901817Y-97647929D01*
X162939548Y-97681356D01*
X162944511Y-97685752D01*
X162981638Y-97744941D01*
X162980872Y-97814806D01*
X162942455Y-97873166D01*
X162878584Y-97901492D01*
X162814834Y-97893130D01*
X162773513Y-97876015D01*
X162743709Y-97863670D01*
X162671854Y-97854210D01*
X162600001Y-97844750D01*
X162599999Y-97844750D01*
X162456291Y-97863670D01*
X162456287Y-97863671D01*
X162322377Y-97919137D01*
X162207379Y-98007379D01*
X162119137Y-98122377D01*
X162063671Y-98256287D01*
X162063670Y-98256291D01*
X162047771Y-98377057D01*
X162044750Y-98400000D01*
X158242085Y-98400000D01*
X158236330Y-98356291D01*
X158180861Y-98222375D01*
X158092621Y-98107379D01*
X157977625Y-98019139D01*
X157977624Y-98019138D01*
X157977622Y-98019137D01*
X157843712Y-97963671D01*
X157843710Y-97963670D01*
X157843709Y-97963670D01*
X157771854Y-97954210D01*
X157700001Y-97944750D01*
X157699999Y-97944750D01*
X157556291Y-97963670D01*
X157556287Y-97963671D01*
X157422377Y-98019137D01*
X157307379Y-98107379D01*
X157219137Y-98222377D01*
X157163671Y-98356287D01*
X157163670Y-98356291D01*
X157145722Y-98492620D01*
X157144750Y-98500000D01*
X155983005Y-98500000D01*
X155992621Y-98492621D01*
X156080861Y-98377625D01*
X156136330Y-98243709D01*
X156155250Y-98100000D01*
X156136330Y-97956291D01*
X156121002Y-97919287D01*
X156113534Y-97849819D01*
X156144809Y-97787340D01*
X156204898Y-97751688D01*
X156251746Y-97748897D01*
X156300000Y-97755250D01*
X156443709Y-97736330D01*
X156577625Y-97680861D01*
X156692621Y-97592621D01*
X156780861Y-97477625D01*
X156836330Y-97343709D01*
X156855250Y-97200000D01*
X156836330Y-97056291D01*
X156786641Y-96936329D01*
X156780862Y-96922377D01*
X156780861Y-96922376D01*
X156780861Y-96922375D01*
X156692621Y-96807379D01*
X156577625Y-96719139D01*
X156577624Y-96719138D01*
X156577622Y-96719137D01*
X156443712Y-96663671D01*
X156443710Y-96663670D01*
X156443709Y-96663670D01*
X156351088Y-96651476D01*
X156300001Y-96644750D01*
X156299999Y-96644750D01*
X156156291Y-96663670D01*
X156156287Y-96663671D01*
X156022377Y-96719137D01*
X155907379Y-96807379D01*
X155819137Y-96922377D01*
X155763671Y-97056287D01*
X155763670Y-97056291D01*
X155747270Y-97180862D01*
X155744750Y-97200000D01*
X155763670Y-97343709D01*
X155769308Y-97357320D01*
X155778997Y-97380712D01*
X155786465Y-97450181D01*
X155755189Y-97512660D01*
X155695100Y-97548312D01*
X155648250Y-97551102D01*
X155600002Y-97544750D01*
X155599999Y-97544750D01*
X155456291Y-97563670D01*
X155456287Y-97563671D01*
X155322374Y-97619138D01*
X155315729Y-97622975D01*
X155247827Y-97639442D01*
X155181802Y-97616585D01*
X155155364Y-97591073D01*
X155086270Y-97501028D01*
X154971274Y-97412788D01*
X154971273Y-97412787D01*
X154971271Y-97412786D01*
X154837361Y-97357320D01*
X154837359Y-97357319D01*
X154837358Y-97357319D01*
X154765503Y-97347859D01*
X154693650Y-97338399D01*
X154693648Y-97338399D01*
X154549940Y-97357319D01*
X154549936Y-97357320D01*
X154416026Y-97412786D01*
X154301028Y-97501028D01*
X154212786Y-97616026D01*
X154157320Y-97749936D01*
X154157319Y-97749940D01*
X154138399Y-97893648D01*
X154138399Y-97893649D01*
X143914665Y-97893649D01*
X144003220Y-97848528D01*
X144098528Y-97753220D01*
X144159719Y-97633126D01*
X144161723Y-97620473D01*
X144180804Y-97500002D01*
X144180804Y-97499997D01*
X144159720Y-97366876D01*
X144159719Y-97366874D01*
X144147917Y-97343712D01*
X144128851Y-97306294D01*
X144115955Y-97237627D01*
X144128851Y-97193706D01*
X144159719Y-97133126D01*
X144159719Y-97133124D01*
X144159720Y-97133123D01*
X144180804Y-97000002D01*
X144180804Y-97000000D01*
X148144750Y-97000000D01*
X148157947Y-97100243D01*
X148163670Y-97143708D01*
X148163671Y-97143712D01*
X148219137Y-97277622D01*
X148219138Y-97277623D01*
X148219139Y-97277625D01*
X148307379Y-97392621D01*
X148422375Y-97480861D01*
X148556291Y-97536330D01*
X148683280Y-97553048D01*
X148699999Y-97555250D01*
X148700000Y-97555250D01*
X148700001Y-97555250D01*
X148714977Y-97553278D01*
X148843709Y-97536330D01*
X148977625Y-97480861D01*
X149092621Y-97392621D01*
X149180861Y-97277625D01*
X149231800Y-97154643D01*
X149275639Y-97100243D01*
X149341933Y-97078177D01*
X149409632Y-97095455D01*
X149421838Y-97103716D01*
X149522375Y-97180861D01*
X149656291Y-97236330D01*
X149783280Y-97253048D01*
X149799999Y-97255250D01*
X149800000Y-97255250D01*
X149800001Y-97255250D01*
X149814977Y-97253278D01*
X149943709Y-97236330D01*
X150077625Y-97180861D01*
X150192621Y-97092621D01*
X150280861Y-96977625D01*
X150336330Y-96843709D01*
X150355250Y-96700000D01*
X150336330Y-96556291D01*
X150280861Y-96422375D01*
X150263692Y-96400000D01*
X158944750Y-96400000D01*
X158953132Y-96463670D01*
X158963670Y-96543708D01*
X158963671Y-96543712D01*
X159019137Y-96677622D01*
X159019138Y-96677624D01*
X159019139Y-96677625D01*
X159107379Y-96792621D01*
X159222375Y-96880861D01*
X159356291Y-96936330D01*
X159483280Y-96953048D01*
X159499999Y-96955250D01*
X159500000Y-96955250D01*
X159500001Y-96955250D01*
X159514977Y-96953278D01*
X159643709Y-96936330D01*
X159777625Y-96880861D01*
X159892621Y-96792621D01*
X159980861Y-96677625D01*
X160036330Y-96543709D01*
X160055250Y-96400000D01*
X160036330Y-96256291D01*
X159980861Y-96122375D01*
X159892621Y-96007379D01*
X159777625Y-95919139D01*
X159777624Y-95919138D01*
X159777622Y-95919137D01*
X159643712Y-95863671D01*
X159643710Y-95863670D01*
X159643709Y-95863670D01*
X159571854Y-95854210D01*
X159500001Y-95844750D01*
X159499999Y-95844750D01*
X159356291Y-95863670D01*
X159356287Y-95863671D01*
X159222377Y-95919137D01*
X159107379Y-96007379D01*
X159019137Y-96122377D01*
X158963671Y-96256287D01*
X158963670Y-96256291D01*
X158945722Y-96392620D01*
X158944750Y-96400000D01*
X150263692Y-96400000D01*
X150192621Y-96307379D01*
X150077625Y-96219139D01*
X150077624Y-96219138D01*
X150077622Y-96219137D01*
X149943712Y-96163671D01*
X149943710Y-96163670D01*
X149943709Y-96163670D01*
X149871854Y-96154210D01*
X149800001Y-96144750D01*
X149799999Y-96144750D01*
X149656291Y-96163670D01*
X149656287Y-96163671D01*
X149522377Y-96219137D01*
X149460948Y-96266274D01*
X149407379Y-96307379D01*
X149335176Y-96401476D01*
X149319137Y-96422378D01*
X149268200Y-96545353D01*
X149224359Y-96599757D01*
X149158065Y-96621822D01*
X149090366Y-96604543D01*
X149078157Y-96596280D01*
X148977625Y-96519139D01*
X148977624Y-96519138D01*
X148977622Y-96519137D01*
X148843712Y-96463671D01*
X148843710Y-96463670D01*
X148843709Y-96463670D01*
X148771854Y-96454210D01*
X148700001Y-96444750D01*
X148699999Y-96444750D01*
X148556291Y-96463670D01*
X148556287Y-96463671D01*
X148422377Y-96519137D01*
X148307379Y-96607379D01*
X148219137Y-96722377D01*
X148163671Y-96856287D01*
X148163670Y-96856291D01*
X148150642Y-96955250D01*
X148144750Y-97000000D01*
X144180804Y-97000000D01*
X144180804Y-96999997D01*
X144159720Y-96866878D01*
X144159719Y-96866876D01*
X144159719Y-96866874D01*
X144098528Y-96746780D01*
X144098526Y-96746778D01*
X144098523Y-96746774D01*
X144003225Y-96651476D01*
X144003221Y-96651473D01*
X144003220Y-96651472D01*
X143883126Y-96590281D01*
X143883124Y-96590280D01*
X143883121Y-96590279D01*
X143750002Y-96569196D01*
X143750001Y-96569196D01*
X143750000Y-96569196D01*
X143732960Y-96571894D01*
X143663669Y-96562939D01*
X143610217Y-96517942D01*
X143603087Y-96505728D01*
X143598528Y-96496780D01*
X143598526Y-96496778D01*
X143598523Y-96496774D01*
X143503225Y-96401476D01*
X143503221Y-96401473D01*
X143503220Y-96401472D01*
X143383126Y-96340281D01*
X143383124Y-96340280D01*
X143383121Y-96340279D01*
X143250002Y-96319196D01*
X143250001Y-96319196D01*
X143250000Y-96319196D01*
X143248895Y-96319370D01*
X143247542Y-96319196D01*
X143240241Y-96319196D01*
X143240241Y-96318252D01*
X143179602Y-96310414D01*
X143126151Y-96265417D01*
X143105513Y-96198665D01*
X143105500Y-96196897D01*
X143105500Y-94800000D01*
X144844750Y-94800000D01*
X144863670Y-94943708D01*
X144863671Y-94943712D01*
X144919137Y-95077622D01*
X144919138Y-95077624D01*
X144919139Y-95077625D01*
X145007379Y-95192621D01*
X145122375Y-95280861D01*
X145256291Y-95336330D01*
X145383280Y-95353048D01*
X145399999Y-95355250D01*
X145400000Y-95355250D01*
X145400001Y-95355250D01*
X145414977Y-95353278D01*
X145543709Y-95336330D01*
X145677625Y-95280861D01*
X145792621Y-95192621D01*
X145880861Y-95077625D01*
X145936330Y-94943709D01*
X145955250Y-94800000D01*
X145936330Y-94656291D01*
X145916969Y-94609548D01*
X147754297Y-94609548D01*
X147773217Y-94753256D01*
X147773218Y-94753260D01*
X147828684Y-94887170D01*
X147828685Y-94887172D01*
X147828686Y-94887173D01*
X147916926Y-95002169D01*
X148031922Y-95090409D01*
X148165838Y-95145878D01*
X148292827Y-95162596D01*
X148309546Y-95164798D01*
X148309547Y-95164798D01*
X148309548Y-95164798D01*
X148324524Y-95162826D01*
X148453256Y-95145878D01*
X148587172Y-95090409D01*
X148702168Y-95002169D01*
X148790408Y-94887173D01*
X148845877Y-94753257D01*
X148864797Y-94609548D01*
X148845877Y-94465839D01*
X148808897Y-94376561D01*
X148790409Y-94331925D01*
X148790408Y-94331924D01*
X148790408Y-94331923D01*
X148702168Y-94216927D01*
X148587172Y-94128687D01*
X148587171Y-94128686D01*
X148587169Y-94128685D01*
X148453259Y-94073219D01*
X148453257Y-94073218D01*
X148453256Y-94073218D01*
X148347282Y-94059266D01*
X148309548Y-94054298D01*
X148309546Y-94054298D01*
X148165838Y-94073218D01*
X148165834Y-94073219D01*
X148031924Y-94128685D01*
X147916926Y-94216927D01*
X147828684Y-94331925D01*
X147773218Y-94465835D01*
X147773217Y-94465839D01*
X147754297Y-94609547D01*
X147754297Y-94609548D01*
X145916969Y-94609548D01*
X145880861Y-94522375D01*
X145792621Y-94407379D01*
X145677625Y-94319139D01*
X145677624Y-94319138D01*
X145677622Y-94319137D01*
X145543712Y-94263671D01*
X145543710Y-94263670D01*
X145543709Y-94263670D01*
X145471854Y-94254210D01*
X145400001Y-94244750D01*
X145399999Y-94244750D01*
X145256291Y-94263670D01*
X145256287Y-94263671D01*
X145122377Y-94319137D01*
X145007379Y-94407379D01*
X144919137Y-94522377D01*
X144863671Y-94656287D01*
X144863670Y-94656291D01*
X144844750Y-94799999D01*
X144844750Y-94800000D01*
X143105500Y-94800000D01*
X143105500Y-93900000D01*
X159344750Y-93900000D01*
X159363670Y-94043708D01*
X159363671Y-94043712D01*
X159419137Y-94177622D01*
X159419138Y-94177624D01*
X159419139Y-94177625D01*
X159507379Y-94292621D01*
X159622375Y-94380861D01*
X159756291Y-94436330D01*
X159883280Y-94453048D01*
X159899999Y-94455250D01*
X159900000Y-94455250D01*
X159900001Y-94455250D01*
X159914977Y-94453278D01*
X160043709Y-94436330D01*
X160177625Y-94380861D01*
X160292621Y-94292621D01*
X160380861Y-94177625D01*
X160436330Y-94043709D01*
X160455250Y-93900000D01*
X160436330Y-93756291D01*
X160380861Y-93622375D01*
X160292621Y-93507379D01*
X160177625Y-93419139D01*
X160177624Y-93419138D01*
X160177622Y-93419137D01*
X160043712Y-93363671D01*
X160043710Y-93363670D01*
X160043709Y-93363670D01*
X159971854Y-93354210D01*
X159900001Y-93344750D01*
X159899999Y-93344750D01*
X159756291Y-93363670D01*
X159756287Y-93363671D01*
X159622377Y-93419137D01*
X159507379Y-93507379D01*
X159419137Y-93622377D01*
X159363671Y-93756287D01*
X159363670Y-93756291D01*
X159344750Y-93899999D01*
X159344750Y-93900000D01*
X143105500Y-93900000D01*
X143105500Y-92624008D01*
X143105499Y-92623992D01*
X143103713Y-92607379D01*
X143100803Y-92580316D01*
X143096535Y-92560701D01*
X143089598Y-92528807D01*
X143087235Y-92519139D01*
X143087110Y-92518627D01*
X143044100Y-92437915D01*
X142998345Y-92385111D01*
X142980756Y-92367159D01*
X142980750Y-92367154D01*
X142900940Y-92322511D01*
X142900935Y-92322509D01*
X142833903Y-92302826D01*
X142833899Y-92302825D01*
X142833898Y-92302825D01*
X142776000Y-92294500D01*
X140824000Y-92294500D01*
X140823992Y-92294500D01*
X140780313Y-92299197D01*
X140728807Y-92310402D01*
X140718629Y-92312889D01*
X140718624Y-92312891D01*
X140637916Y-92355899D01*
X140637913Y-92355901D01*
X140624921Y-92367159D01*
X140585111Y-92401655D01*
X140567159Y-92419243D01*
X140567154Y-92419249D01*
X140522511Y-92499059D01*
X140522509Y-92499064D01*
X140502826Y-92566096D01*
X140502825Y-92566101D01*
X140502825Y-92566102D01*
X140494502Y-92623992D01*
X140494500Y-92624003D01*
X140494500Y-107776007D01*
X136145281Y-107776007D01*
X136092621Y-107707379D01*
X135977625Y-107619139D01*
X135977624Y-107619138D01*
X135977622Y-107619137D01*
X135843712Y-107563671D01*
X135843710Y-107563670D01*
X135843709Y-107563670D01*
X135771854Y-107554210D01*
X135700001Y-107544750D01*
X135699999Y-107544750D01*
X135556291Y-107563670D01*
X135556287Y-107563671D01*
X135422377Y-107619137D01*
X135307379Y-107707379D01*
X135219137Y-107822377D01*
X135163671Y-107956287D01*
X135163670Y-107956291D01*
X135147714Y-108077490D01*
X135144750Y-108100000D01*
X129000500Y-108100000D01*
X129000500Y-104770588D01*
X136362397Y-104770588D01*
X136368789Y-104819137D01*
X136381317Y-104914296D01*
X136381318Y-104914300D01*
X136436784Y-105048210D01*
X136436785Y-105048212D01*
X136436786Y-105048213D01*
X136525026Y-105163209D01*
X136640022Y-105251449D01*
X136640023Y-105251449D01*
X136640024Y-105251450D01*
X136668346Y-105263181D01*
X136773938Y-105306918D01*
X136900927Y-105323636D01*
X136917646Y-105325838D01*
X136917647Y-105325838D01*
X136917648Y-105325838D01*
X136932624Y-105323866D01*
X137061356Y-105306918D01*
X137195272Y-105251449D01*
X137310268Y-105163209D01*
X137398508Y-105048213D01*
X137453977Y-104914297D01*
X137472897Y-104770588D01*
X137471986Y-104763671D01*
X137466550Y-104722377D01*
X137453977Y-104626879D01*
X137398508Y-104492963D01*
X137362528Y-104446073D01*
X137337334Y-104380906D01*
X137351372Y-104312461D01*
X137362527Y-104295104D01*
X137398508Y-104248213D01*
X137453977Y-104114297D01*
X137472897Y-103970588D01*
X137458091Y-103858128D01*
X137468856Y-103789094D01*
X137505540Y-103743569D01*
X137542162Y-103715468D01*
X137607328Y-103690275D01*
X137675773Y-103704313D01*
X137693130Y-103715468D01*
X137740022Y-103751449D01*
X137873938Y-103806918D01*
X138000927Y-103823636D01*
X138017646Y-103825838D01*
X138017647Y-103825838D01*
X138017648Y-103825838D01*
X138032624Y-103823866D01*
X138161356Y-103806918D01*
X138295272Y-103751449D01*
X138342161Y-103715469D01*
X138407329Y-103690275D01*
X138475774Y-103704313D01*
X138493130Y-103715468D01*
X138540022Y-103751449D01*
X138673938Y-103806918D01*
X138800927Y-103823636D01*
X138817646Y-103825838D01*
X138817647Y-103825838D01*
X138817648Y-103825838D01*
X138832624Y-103823866D01*
X138961356Y-103806918D01*
X139095272Y-103751449D01*
X139210268Y-103663209D01*
X139298508Y-103548213D01*
X139353977Y-103414297D01*
X139372897Y-103270588D01*
X139370610Y-103253220D01*
X139368953Y-103240633D01*
X139353977Y-103126879D01*
X139301423Y-103000000D01*
X139298509Y-102992965D01*
X139298508Y-102992964D01*
X139298508Y-102992963D01*
X139210268Y-102877967D01*
X139095272Y-102789727D01*
X139095271Y-102789726D01*
X139095269Y-102789725D01*
X138961359Y-102734259D01*
X138961357Y-102734258D01*
X138961356Y-102734258D01*
X138871113Y-102722377D01*
X138817648Y-102715338D01*
X138817646Y-102715338D01*
X138673938Y-102734258D01*
X138673934Y-102734259D01*
X138540023Y-102789726D01*
X138540021Y-102789727D01*
X138493133Y-102825706D01*
X138427964Y-102850900D01*
X138359519Y-102836862D01*
X138342161Y-102825706D01*
X138295272Y-102789727D01*
X138295270Y-102789726D01*
X138161359Y-102734259D01*
X138161357Y-102734258D01*
X138161356Y-102734258D01*
X138071113Y-102722377D01*
X138017648Y-102715338D01*
X138017646Y-102715338D01*
X137873938Y-102734258D01*
X137873934Y-102734259D01*
X137740023Y-102789726D01*
X137740021Y-102789727D01*
X137693133Y-102825706D01*
X137627964Y-102850900D01*
X137559519Y-102836862D01*
X137542161Y-102825706D01*
X137495272Y-102789727D01*
X137495270Y-102789726D01*
X137361359Y-102734259D01*
X137361357Y-102734258D01*
X137361356Y-102734258D01*
X137271113Y-102722377D01*
X137217648Y-102715338D01*
X137217646Y-102715338D01*
X137073938Y-102734258D01*
X137073934Y-102734259D01*
X136940024Y-102789725D01*
X136825026Y-102877967D01*
X136736784Y-102992965D01*
X136681318Y-103126875D01*
X136681317Y-103126879D01*
X136662397Y-103270586D01*
X136662397Y-103270590D01*
X136677202Y-103383048D01*
X136666436Y-103452083D01*
X136629750Y-103497608D01*
X136525028Y-103577965D01*
X136525027Y-103577966D01*
X136525026Y-103577967D01*
X136485241Y-103629815D01*
X136436784Y-103692965D01*
X136381318Y-103826875D01*
X136381317Y-103826879D01*
X136362397Y-103970587D01*
X136362397Y-103970588D01*
X136381317Y-104114296D01*
X136381318Y-104114300D01*
X136436785Y-104248211D01*
X136436786Y-104248213D01*
X136472765Y-104295102D01*
X136497959Y-104360271D01*
X136483921Y-104428716D01*
X136472765Y-104446074D01*
X136436786Y-104492962D01*
X136436785Y-104492964D01*
X136381318Y-104626875D01*
X136381317Y-104626879D01*
X136363308Y-104763671D01*
X136362397Y-104770588D01*
X129000500Y-104770588D01*
X129000500Y-103000002D01*
X133369435Y-103000002D01*
X133389630Y-103179249D01*
X133389631Y-103179254D01*
X133449211Y-103349523D01*
X133539126Y-103492621D01*
X133545184Y-103502262D01*
X133672738Y-103629816D01*
X133825478Y-103725789D01*
X133944041Y-103767276D01*
X133995745Y-103785368D01*
X133995750Y-103785369D01*
X134086246Y-103795565D01*
X134130040Y-103800499D01*
X134130043Y-103800500D01*
X134130046Y-103800500D01*
X134769957Y-103800500D01*
X134769958Y-103800499D01*
X134837104Y-103792934D01*
X134904249Y-103785369D01*
X134904252Y-103785368D01*
X134904255Y-103785368D01*
X135074522Y-103725789D01*
X135227262Y-103629816D01*
X135354816Y-103502262D01*
X135450789Y-103349522D01*
X135510368Y-103179255D01*
X135515566Y-103133126D01*
X135530565Y-103000002D01*
X135530565Y-102999996D01*
X135510369Y-102820750D01*
X135510368Y-102820745D01*
X135487450Y-102755250D01*
X135450789Y-102650478D01*
X135439883Y-102633122D01*
X135396244Y-102563670D01*
X135354816Y-102497738D01*
X135227262Y-102370184D01*
X135221994Y-102366874D01*
X135074523Y-102274211D01*
X134904254Y-102214631D01*
X134904249Y-102214630D01*
X134769960Y-102199500D01*
X134769954Y-102199500D01*
X134130046Y-102199500D01*
X134130039Y-102199500D01*
X133995750Y-102214630D01*
X133995745Y-102214631D01*
X133825476Y-102274211D01*
X133672737Y-102370184D01*
X133545184Y-102497737D01*
X133449211Y-102650476D01*
X133389631Y-102820745D01*
X133389630Y-102820750D01*
X133369435Y-102999996D01*
X133369435Y-103000002D01*
X129000500Y-103000002D01*
X129000500Y-101000003D01*
X133369435Y-101000003D01*
X133389630Y-101179249D01*
X133389631Y-101179254D01*
X133449211Y-101349523D01*
X133489728Y-101414005D01*
X133545184Y-101502262D01*
X133672738Y-101629816D01*
X133726618Y-101663671D01*
X133814894Y-101719139D01*
X133825478Y-101725789D01*
X133977969Y-101779148D01*
X133995745Y-101785368D01*
X133995750Y-101785369D01*
X134086246Y-101795565D01*
X134130040Y-101800499D01*
X134130043Y-101800500D01*
X134130046Y-101800500D01*
X134769957Y-101800500D01*
X134769958Y-101800499D01*
X134837104Y-101792934D01*
X134904249Y-101785369D01*
X134904252Y-101785368D01*
X134904255Y-101785368D01*
X135074522Y-101725789D01*
X135227262Y-101629816D01*
X135354816Y-101502262D01*
X135450789Y-101349522D01*
X135510368Y-101179255D01*
X135514373Y-101143708D01*
X135530565Y-101000003D01*
X135530565Y-100999996D01*
X135510369Y-100820750D01*
X135510368Y-100820745D01*
X135483412Y-100743709D01*
X135450789Y-100650478D01*
X135421783Y-100604316D01*
X135368262Y-100519137D01*
X135354816Y-100497738D01*
X135227262Y-100370184D01*
X135185538Y-100343967D01*
X135074523Y-100274211D01*
X134904254Y-100214631D01*
X134904249Y-100214630D01*
X134769960Y-100199500D01*
X134769954Y-100199500D01*
X134130046Y-100199500D01*
X134130039Y-100199500D01*
X133995750Y-100214630D01*
X133995745Y-100214631D01*
X133825476Y-100274211D01*
X133672737Y-100370184D01*
X133545184Y-100497737D01*
X133449211Y-100650476D01*
X133389631Y-100820745D01*
X133389630Y-100820750D01*
X133369435Y-100999996D01*
X133369435Y-101000003D01*
X129000500Y-101000003D01*
X129000500Y-99000003D01*
X133369435Y-99000003D01*
X133389630Y-99179249D01*
X133389631Y-99179254D01*
X133449211Y-99349523D01*
X133512660Y-99450500D01*
X133545184Y-99502262D01*
X133672738Y-99629816D01*
X133825478Y-99725789D01*
X133979121Y-99779551D01*
X133995745Y-99785368D01*
X133995750Y-99785369D01*
X134086246Y-99795565D01*
X134130040Y-99800499D01*
X134130043Y-99800500D01*
X134130046Y-99800500D01*
X134769957Y-99800500D01*
X134769958Y-99800499D01*
X134837104Y-99792934D01*
X134904249Y-99785369D01*
X134904252Y-99785368D01*
X134904255Y-99785368D01*
X135074522Y-99725789D01*
X135227262Y-99629816D01*
X135354816Y-99502262D01*
X135450789Y-99349522D01*
X135510368Y-99179255D01*
X135516118Y-99128225D01*
X135530565Y-99000003D01*
X135530565Y-98999996D01*
X135510369Y-98820750D01*
X135510368Y-98820745D01*
X135483317Y-98743438D01*
X135450789Y-98650478D01*
X135354816Y-98497738D01*
X135227262Y-98370184D01*
X135074523Y-98274211D01*
X134904254Y-98214631D01*
X134904249Y-98214630D01*
X134769960Y-98199500D01*
X134769954Y-98199500D01*
X134130046Y-98199500D01*
X134130039Y-98199500D01*
X133995750Y-98214630D01*
X133995745Y-98214631D01*
X133825476Y-98274211D01*
X133672737Y-98370184D01*
X133545184Y-98497737D01*
X133449211Y-98650476D01*
X133389631Y-98820745D01*
X133389630Y-98820750D01*
X133369435Y-98999996D01*
X133369435Y-99000003D01*
X129000500Y-99000003D01*
X129000500Y-97404269D01*
X133374500Y-97404269D01*
X133377353Y-97434699D01*
X133377353Y-97434701D01*
X133418085Y-97551102D01*
X133422207Y-97562882D01*
X133502850Y-97672150D01*
X133612118Y-97752793D01*
X133634818Y-97760736D01*
X133740299Y-97797646D01*
X133770730Y-97800500D01*
X133770734Y-97800500D01*
X135129270Y-97800500D01*
X135159699Y-97797646D01*
X135159701Y-97797646D01*
X135223790Y-97775219D01*
X135287882Y-97752793D01*
X135397150Y-97672150D01*
X135477793Y-97562882D01*
X135517229Y-97450181D01*
X135522646Y-97434701D01*
X135522646Y-97434699D01*
X135525500Y-97404269D01*
X135525500Y-96595730D01*
X135522646Y-96565300D01*
X135522646Y-96565298D01*
X135483065Y-96452184D01*
X135477793Y-96437118D01*
X135397150Y-96327850D01*
X135287882Y-96247207D01*
X135287880Y-96247206D01*
X135159700Y-96202353D01*
X135129270Y-96199500D01*
X135129266Y-96199500D01*
X133770734Y-96199500D01*
X133770730Y-96199500D01*
X133740300Y-96202353D01*
X133740298Y-96202353D01*
X133612119Y-96247206D01*
X133612117Y-96247207D01*
X133502850Y-96327850D01*
X133422207Y-96437117D01*
X133422206Y-96437119D01*
X133377353Y-96565298D01*
X133377353Y-96565300D01*
X133374500Y-96595730D01*
X133374500Y-97404269D01*
X129000500Y-97404269D01*
X129000500Y-96000000D01*
X136344750Y-96000000D01*
X136355133Y-96078869D01*
X136363670Y-96143708D01*
X136363671Y-96143712D01*
X136419137Y-96277622D01*
X136419138Y-96277624D01*
X136419139Y-96277625D01*
X136507379Y-96392621D01*
X136612104Y-96472980D01*
X136653305Y-96529406D01*
X136659555Y-96587539D01*
X136644750Y-96699997D01*
X136644750Y-96700000D01*
X136663670Y-96843708D01*
X136663671Y-96843712D01*
X136719137Y-96977622D01*
X136719138Y-96977624D01*
X136719139Y-96977625D01*
X136807379Y-97092621D01*
X136922375Y-97180861D01*
X137056291Y-97236330D01*
X137183280Y-97253048D01*
X137199999Y-97255250D01*
X137200000Y-97255250D01*
X137200001Y-97255250D01*
X137214977Y-97253278D01*
X137343709Y-97236330D01*
X137477625Y-97180861D01*
X137524514Y-97144881D01*
X137589682Y-97119687D01*
X137658127Y-97133725D01*
X137675483Y-97144880D01*
X137722375Y-97180861D01*
X137856291Y-97236330D01*
X137983280Y-97253048D01*
X137999999Y-97255250D01*
X138000000Y-97255250D01*
X138000001Y-97255250D01*
X138014977Y-97253278D01*
X138143709Y-97236330D01*
X138277625Y-97180861D01*
X138324514Y-97144881D01*
X138389682Y-97119687D01*
X138458127Y-97133725D01*
X138475483Y-97144880D01*
X138522375Y-97180861D01*
X138656291Y-97236330D01*
X138783280Y-97253048D01*
X138799999Y-97255250D01*
X138800000Y-97255250D01*
X138800001Y-97255250D01*
X138814977Y-97253278D01*
X138943709Y-97236330D01*
X139077625Y-97180861D01*
X139192621Y-97092621D01*
X139280861Y-96977625D01*
X139336330Y-96843709D01*
X139355250Y-96700000D01*
X139336330Y-96556291D01*
X139280861Y-96422375D01*
X139192621Y-96307379D01*
X139077625Y-96219139D01*
X139077624Y-96219138D01*
X139077622Y-96219137D01*
X138943712Y-96163671D01*
X138943710Y-96163670D01*
X138943709Y-96163670D01*
X138871854Y-96154210D01*
X138800001Y-96144750D01*
X138799999Y-96144750D01*
X138656291Y-96163670D01*
X138656287Y-96163671D01*
X138522376Y-96219138D01*
X138522374Y-96219139D01*
X138475486Y-96255118D01*
X138410317Y-96280312D01*
X138341872Y-96266274D01*
X138324514Y-96255118D01*
X138277625Y-96219139D01*
X138277623Y-96219138D01*
X138143712Y-96163671D01*
X138143710Y-96163670D01*
X138143709Y-96163670D01*
X138071854Y-96154210D01*
X138000001Y-96144750D01*
X137999999Y-96144750D01*
X137856291Y-96163670D01*
X137856287Y-96163671D01*
X137722376Y-96219138D01*
X137722374Y-96219139D01*
X137675486Y-96255118D01*
X137610317Y-96280312D01*
X137541872Y-96266274D01*
X137524514Y-96255118D01*
X137487897Y-96227021D01*
X137446694Y-96170593D01*
X137440444Y-96112459D01*
X137444867Y-96078869D01*
X137455250Y-96000000D01*
X137436330Y-95856291D01*
X137380861Y-95722375D01*
X137344881Y-95675485D01*
X137319687Y-95610318D01*
X137333725Y-95541873D01*
X137344880Y-95524516D01*
X137380861Y-95477625D01*
X137436330Y-95343709D01*
X137455250Y-95200000D01*
X137436330Y-95056291D01*
X137380861Y-94922375D01*
X137292621Y-94807379D01*
X137177625Y-94719139D01*
X137177624Y-94719138D01*
X137177622Y-94719137D01*
X137043712Y-94663671D01*
X137043710Y-94663670D01*
X137043709Y-94663670D01*
X136971854Y-94654210D01*
X136900001Y-94644750D01*
X136899999Y-94644750D01*
X136756291Y-94663670D01*
X136756287Y-94663671D01*
X136622377Y-94719137D01*
X136507379Y-94807379D01*
X136419137Y-94922377D01*
X136363671Y-95056287D01*
X136363670Y-95056291D01*
X136345722Y-95192620D01*
X136344750Y-95200000D01*
X136362698Y-95336329D01*
X136363670Y-95343708D01*
X136363671Y-95343712D01*
X136419138Y-95477623D01*
X136419139Y-95477625D01*
X136455118Y-95524514D01*
X136480312Y-95589683D01*
X136466274Y-95658128D01*
X136455118Y-95675486D01*
X136419139Y-95722374D01*
X136419138Y-95722376D01*
X136363671Y-95856287D01*
X136363670Y-95856291D01*
X136344750Y-96000000D01*
X129000500Y-96000000D01*
X129000500Y-93000000D01*
X132744750Y-93000000D01*
X132750595Y-93044400D01*
X132763670Y-93143708D01*
X132763671Y-93143712D01*
X132819137Y-93277622D01*
X132819138Y-93277624D01*
X132819139Y-93277625D01*
X132907379Y-93392621D01*
X133022375Y-93480861D01*
X133156291Y-93536330D01*
X133283280Y-93553048D01*
X133299999Y-93555250D01*
X133300000Y-93555250D01*
X133300001Y-93555250D01*
X133314977Y-93553278D01*
X133443709Y-93536330D01*
X133577625Y-93480861D01*
X133692621Y-93392621D01*
X133780861Y-93277625D01*
X133836330Y-93143709D01*
X133855250Y-93000000D01*
X133836330Y-92856291D01*
X133782803Y-92727063D01*
X133780862Y-92722377D01*
X133780861Y-92722376D01*
X133780861Y-92722375D01*
X133692621Y-92607379D01*
X133577625Y-92519139D01*
X133577624Y-92519138D01*
X133577622Y-92519137D01*
X133443712Y-92463671D01*
X133443710Y-92463670D01*
X133443709Y-92463670D01*
X133371854Y-92454210D01*
X133300001Y-92444750D01*
X133299999Y-92444750D01*
X133156291Y-92463670D01*
X133156287Y-92463671D01*
X133022377Y-92519137D01*
X132907379Y-92607379D01*
X132819137Y-92722377D01*
X132763671Y-92856287D01*
X132763670Y-92856291D01*
X132750387Y-92957187D01*
X132744750Y-93000000D01*
X129000500Y-93000000D01*
X129000500Y-92190734D01*
X160735484Y-92190734D01*
X160751566Y-92312890D01*
X160754404Y-92334442D01*
X160754405Y-92334446D01*
X160809871Y-92468356D01*
X160809872Y-92468358D01*
X160809873Y-92468359D01*
X160898113Y-92583355D01*
X161013109Y-92671595D01*
X161147025Y-92727064D01*
X161274014Y-92743782D01*
X161290733Y-92745984D01*
X161290734Y-92745984D01*
X161290735Y-92745984D01*
X161305711Y-92744012D01*
X161434443Y-92727064D01*
X161568359Y-92671595D01*
X161683355Y-92583355D01*
X161771595Y-92468359D01*
X161827064Y-92334443D01*
X161845984Y-92190734D01*
X161827064Y-92047025D01*
X161780660Y-91934993D01*
X161771596Y-91913111D01*
X161771595Y-91913110D01*
X161771595Y-91913109D01*
X161723170Y-91850000D01*
X162430000Y-91850000D01*
X163180000Y-91850000D01*
X163180000Y-91100000D01*
X162882155Y-91100000D01*
X162822627Y-91106401D01*
X162822620Y-91106403D01*
X162687913Y-91156645D01*
X162687906Y-91156649D01*
X162572812Y-91242809D01*
X162572809Y-91242812D01*
X162486649Y-91357906D01*
X162486645Y-91357913D01*
X162436403Y-91492620D01*
X162436401Y-91492627D01*
X162430000Y-91552155D01*
X162430000Y-91850000D01*
X161723170Y-91850000D01*
X161683355Y-91798113D01*
X161568359Y-91709873D01*
X161568358Y-91709872D01*
X161568356Y-91709871D01*
X161434446Y-91654405D01*
X161434444Y-91654404D01*
X161434443Y-91654404D01*
X161362588Y-91644944D01*
X161290735Y-91635484D01*
X161290733Y-91635484D01*
X161147025Y-91654404D01*
X161147021Y-91654405D01*
X161013111Y-91709871D01*
X160898113Y-91798113D01*
X160809871Y-91913111D01*
X160754405Y-92047021D01*
X160754404Y-92047025D01*
X160735484Y-92190734D01*
X129000500Y-92190734D01*
X129000500Y-90800000D01*
X161044750Y-90800000D01*
X161063670Y-90943708D01*
X161063671Y-90943712D01*
X161119137Y-91077622D01*
X161119138Y-91077624D01*
X161119139Y-91077625D01*
X161207379Y-91192621D01*
X161322375Y-91280861D01*
X161456291Y-91336330D01*
X161583280Y-91353048D01*
X161599999Y-91355250D01*
X161600000Y-91355250D01*
X161600001Y-91355250D01*
X161614977Y-91353278D01*
X161743709Y-91336330D01*
X161877625Y-91280861D01*
X161992621Y-91192621D01*
X162080861Y-91077625D01*
X162136330Y-90943709D01*
X162155250Y-90800000D01*
X162136330Y-90656291D01*
X162086641Y-90536329D01*
X162080862Y-90522377D01*
X162080861Y-90522376D01*
X162080861Y-90522375D01*
X161992621Y-90407379D01*
X161877625Y-90319139D01*
X161877624Y-90319138D01*
X161877622Y-90319137D01*
X161743712Y-90263671D01*
X161743710Y-90263670D01*
X161743709Y-90263670D01*
X161671854Y-90254210D01*
X161600001Y-90244750D01*
X161599999Y-90244750D01*
X161456291Y-90263670D01*
X161456287Y-90263671D01*
X161322377Y-90319137D01*
X161207379Y-90407379D01*
X161119137Y-90522377D01*
X161063671Y-90656287D01*
X161063670Y-90656291D01*
X161044750Y-90799999D01*
X161044750Y-90800000D01*
X129000500Y-90800000D01*
X129000500Y-90000000D01*
X145044750Y-90000000D01*
X145063670Y-90143708D01*
X145063671Y-90143712D01*
X145119137Y-90277622D01*
X145119138Y-90277624D01*
X145119139Y-90277625D01*
X145207379Y-90392621D01*
X145322375Y-90480861D01*
X145456291Y-90536330D01*
X145583280Y-90553048D01*
X145599999Y-90555250D01*
X145600000Y-90555250D01*
X145600001Y-90555250D01*
X145614977Y-90553278D01*
X145743709Y-90536330D01*
X145877625Y-90480861D01*
X145992621Y-90392621D01*
X146080861Y-90277625D01*
X146136330Y-90143709D01*
X146155250Y-90000000D01*
X146136330Y-89856291D01*
X146080861Y-89722375D01*
X145992621Y-89607379D01*
X145877625Y-89519139D01*
X145877624Y-89519138D01*
X145877622Y-89519137D01*
X145743712Y-89463671D01*
X145743710Y-89463670D01*
X145743709Y-89463670D01*
X145671854Y-89454210D01*
X145600001Y-89444750D01*
X145599999Y-89444750D01*
X145456291Y-89463670D01*
X145456287Y-89463671D01*
X145322377Y-89519137D01*
X145207379Y-89607379D01*
X145119137Y-89722377D01*
X145063671Y-89856287D01*
X145063670Y-89856291D01*
X145044750Y-89999999D01*
X145044750Y-90000000D01*
X129000500Y-90000000D01*
X129000500Y-88900000D01*
X140444750Y-88900000D01*
X140463670Y-89043708D01*
X140463671Y-89043712D01*
X140519137Y-89177622D01*
X140519138Y-89177624D01*
X140519139Y-89177625D01*
X140607379Y-89292621D01*
X140722375Y-89380861D01*
X140856291Y-89436330D01*
X140983280Y-89453048D01*
X140999999Y-89455250D01*
X141000000Y-89455250D01*
X141000001Y-89455250D01*
X141014977Y-89453278D01*
X141143709Y-89436330D01*
X141277625Y-89380861D01*
X141392621Y-89292621D01*
X141480861Y-89177625D01*
X141536330Y-89043709D01*
X141555250Y-88900000D01*
X141536330Y-88756291D01*
X141480861Y-88622375D01*
X141463692Y-88600000D01*
X150944750Y-88600000D01*
X150963670Y-88743708D01*
X150963671Y-88743712D01*
X151019137Y-88877622D01*
X151019138Y-88877624D01*
X151019139Y-88877625D01*
X151107379Y-88992621D01*
X151222375Y-89080861D01*
X151356291Y-89136330D01*
X151483280Y-89153048D01*
X151499999Y-89155250D01*
X151500000Y-89155250D01*
X151500001Y-89155250D01*
X151514977Y-89153278D01*
X151643709Y-89136330D01*
X151777625Y-89080861D01*
X151892621Y-88992621D01*
X151980861Y-88877625D01*
X152036330Y-88743709D01*
X152055250Y-88600000D01*
X152036330Y-88456291D01*
X152013014Y-88400000D01*
X161044750Y-88400000D01*
X161052160Y-88456287D01*
X161063670Y-88543708D01*
X161063671Y-88543712D01*
X161119137Y-88677622D01*
X161119138Y-88677624D01*
X161119139Y-88677625D01*
X161207379Y-88792621D01*
X161322375Y-88880861D01*
X161456291Y-88936330D01*
X161583280Y-88953048D01*
X161599999Y-88955250D01*
X161600000Y-88955250D01*
X161600001Y-88955250D01*
X161614977Y-88953278D01*
X161743709Y-88936330D01*
X161877625Y-88880861D01*
X161992621Y-88792621D01*
X162080861Y-88677625D01*
X162136330Y-88543709D01*
X162155250Y-88400000D01*
X162136330Y-88256291D01*
X162080861Y-88122375D01*
X161992621Y-88007379D01*
X161877625Y-87919139D01*
X161877624Y-87919138D01*
X161877622Y-87919137D01*
X161743712Y-87863671D01*
X161743710Y-87863670D01*
X161743709Y-87863670D01*
X161671854Y-87854210D01*
X161600001Y-87844750D01*
X161599999Y-87844750D01*
X161456291Y-87863670D01*
X161456287Y-87863671D01*
X161322377Y-87919137D01*
X161207379Y-88007379D01*
X161119137Y-88122377D01*
X161063671Y-88256287D01*
X161063670Y-88256291D01*
X161044750Y-88400000D01*
X152013014Y-88400000D01*
X151980861Y-88322375D01*
X151892621Y-88207379D01*
X151777625Y-88119139D01*
X151777624Y-88119138D01*
X151777622Y-88119137D01*
X151643712Y-88063671D01*
X151643710Y-88063670D01*
X151643709Y-88063670D01*
X151571854Y-88054210D01*
X151500001Y-88044750D01*
X151499999Y-88044750D01*
X151356291Y-88063670D01*
X151356287Y-88063671D01*
X151222377Y-88119137D01*
X151107379Y-88207379D01*
X151019137Y-88322377D01*
X150963671Y-88456287D01*
X150963670Y-88456291D01*
X150944750Y-88599999D01*
X150944750Y-88600000D01*
X141463692Y-88600000D01*
X141392621Y-88507379D01*
X141277625Y-88419139D01*
X141277624Y-88419138D01*
X141277622Y-88419137D01*
X141143712Y-88363671D01*
X141143710Y-88363670D01*
X141143709Y-88363670D01*
X141071854Y-88354210D01*
X141000001Y-88344750D01*
X140999999Y-88344750D01*
X140856291Y-88363670D01*
X140856287Y-88363671D01*
X140722377Y-88419137D01*
X140607379Y-88507379D01*
X140519137Y-88622377D01*
X140463671Y-88756287D01*
X140463670Y-88756291D01*
X140444750Y-88899999D01*
X140444750Y-88900000D01*
X129000500Y-88900000D01*
X129000500Y-84684371D01*
X131099500Y-84684371D01*
X131139367Y-85050946D01*
X131218635Y-85411065D01*
X131260842Y-85536329D01*
X131336375Y-85760503D01*
X131336377Y-85760508D01*
X131336379Y-85760513D01*
X131491200Y-86095153D01*
X131491202Y-86095157D01*
X131491204Y-86095161D01*
X131491205Y-86095162D01*
X131681310Y-86411119D01*
X131904462Y-86704670D01*
X132158044Y-86972373D01*
X132439083Y-87211090D01*
X132744284Y-87418022D01*
X132744288Y-87418024D01*
X132744291Y-87418026D01*
X132926172Y-87514453D01*
X133070070Y-87590743D01*
X133412621Y-87727227D01*
X133412627Y-87727228D01*
X133412628Y-87727229D01*
X133412634Y-87727231D01*
X133688226Y-87803748D01*
X133767919Y-87825875D01*
X133767930Y-87825876D01*
X133767931Y-87825877D01*
X134131786Y-87885529D01*
X134131790Y-87885529D01*
X134131801Y-87885531D01*
X134407890Y-87900500D01*
X134407892Y-87900500D01*
X134592108Y-87900500D01*
X134592110Y-87900500D01*
X134868199Y-87885531D01*
X134868210Y-87885529D01*
X134868213Y-87885529D01*
X135120077Y-87844237D01*
X135232081Y-87825875D01*
X135587379Y-87727227D01*
X135929930Y-87590743D01*
X136255716Y-87418022D01*
X136560917Y-87211090D01*
X136809431Y-87000000D01*
X157544750Y-87000000D01*
X157563670Y-87143708D01*
X157563671Y-87143712D01*
X157619137Y-87277622D01*
X157619138Y-87277624D01*
X157619139Y-87277625D01*
X157707379Y-87392621D01*
X157822375Y-87480861D01*
X157956291Y-87536330D01*
X158083280Y-87553048D01*
X158099999Y-87555250D01*
X158100000Y-87555250D01*
X158100001Y-87555250D01*
X158114977Y-87553278D01*
X158243709Y-87536330D01*
X158377625Y-87480861D01*
X158492621Y-87392621D01*
X158580861Y-87277625D01*
X158636330Y-87143709D01*
X158655250Y-87000000D01*
X158636330Y-86856291D01*
X158580861Y-86722375D01*
X158511013Y-86631348D01*
X158485820Y-86566181D01*
X158499858Y-86497736D01*
X158533904Y-86457488D01*
X158543121Y-86450416D01*
X158631361Y-86335420D01*
X158686830Y-86201504D01*
X158705750Y-86057795D01*
X158686830Y-85914086D01*
X158631361Y-85780170D01*
X158543121Y-85665174D01*
X158428125Y-85576934D01*
X158428124Y-85576933D01*
X158428122Y-85576932D01*
X158294212Y-85521466D01*
X158294210Y-85521465D01*
X158294209Y-85521465D01*
X158222354Y-85512004D01*
X158150501Y-85502545D01*
X158150499Y-85502545D01*
X158006791Y-85521465D01*
X158006787Y-85521466D01*
X157872877Y-85576932D01*
X157757879Y-85665174D01*
X157669637Y-85780172D01*
X157614171Y-85914082D01*
X157614170Y-85914086D01*
X157595250Y-86057794D01*
X157595250Y-86057795D01*
X157614170Y-86201503D01*
X157614171Y-86201507D01*
X157669638Y-86335418D01*
X157669639Y-86335420D01*
X157739485Y-86426445D01*
X157764679Y-86491614D01*
X157750641Y-86560059D01*
X157716598Y-86600305D01*
X157707380Y-86607377D01*
X157619137Y-86722377D01*
X157563671Y-86856287D01*
X157563670Y-86856291D01*
X157544750Y-86999999D01*
X157544750Y-87000000D01*
X136809431Y-87000000D01*
X136841956Y-86972373D01*
X137095538Y-86704670D01*
X137318690Y-86411119D01*
X137508795Y-86095162D01*
X137663625Y-85760503D01*
X137751399Y-85500000D01*
X138844750Y-85500000D01*
X138862698Y-85636329D01*
X138863670Y-85643708D01*
X138863671Y-85643712D01*
X138919137Y-85777622D01*
X138919138Y-85777624D01*
X138919139Y-85777625D01*
X139007379Y-85892621D01*
X139122375Y-85980861D01*
X139256291Y-86036330D01*
X139383280Y-86053048D01*
X139399999Y-86055250D01*
X139400000Y-86055250D01*
X139400001Y-86055250D01*
X139414977Y-86053278D01*
X139543709Y-86036330D01*
X139677625Y-85980861D01*
X139792621Y-85892621D01*
X139880861Y-85777625D01*
X139936330Y-85643709D01*
X139938369Y-85628221D01*
X151479465Y-85628221D01*
X151498385Y-85771929D01*
X151498386Y-85771933D01*
X151553852Y-85905843D01*
X151553853Y-85905845D01*
X151553854Y-85905846D01*
X151642094Y-86020842D01*
X151757090Y-86109082D01*
X151891006Y-86164551D01*
X152017995Y-86181269D01*
X152034714Y-86183471D01*
X152034715Y-86183471D01*
X152034716Y-86183471D01*
X152049692Y-86181499D01*
X152178424Y-86164551D01*
X152312340Y-86109082D01*
X152427336Y-86020842D01*
X152515576Y-85905846D01*
X152571045Y-85771930D01*
X152589965Y-85628221D01*
X152571045Y-85484512D01*
X152515576Y-85350596D01*
X152427336Y-85235600D01*
X152312340Y-85147360D01*
X152312339Y-85147359D01*
X152312337Y-85147358D01*
X152198002Y-85100000D01*
X153744750Y-85100000D01*
X153762602Y-85235600D01*
X153763670Y-85243708D01*
X153763671Y-85243712D01*
X153819137Y-85377622D01*
X153819138Y-85377624D01*
X153819139Y-85377625D01*
X153907379Y-85492621D01*
X154022375Y-85580861D01*
X154156291Y-85636330D01*
X154283280Y-85653048D01*
X154299999Y-85655250D01*
X154300000Y-85655250D01*
X154300001Y-85655250D01*
X154314977Y-85653278D01*
X154443709Y-85636330D01*
X154577625Y-85580861D01*
X154692621Y-85492621D01*
X154780861Y-85377625D01*
X154780861Y-85377622D01*
X154785808Y-85371177D01*
X154787029Y-85372114D01*
X154830938Y-85330235D01*
X154899543Y-85317002D01*
X154964412Y-85342960D01*
X154986146Y-85364950D01*
X155007379Y-85392621D01*
X155122375Y-85480861D01*
X155122376Y-85480861D01*
X155122377Y-85480862D01*
X155167013Y-85499350D01*
X155256291Y-85536330D01*
X155383280Y-85553048D01*
X155399999Y-85555250D01*
X155400000Y-85555250D01*
X155400001Y-85555250D01*
X155414977Y-85553278D01*
X155543709Y-85536330D01*
X155677625Y-85480861D01*
X155792621Y-85392621D01*
X155880861Y-85277625D01*
X155936330Y-85143709D01*
X155955250Y-85000000D01*
X155936330Y-84856291D01*
X155880861Y-84722375D01*
X155851699Y-84684371D01*
X162099500Y-84684371D01*
X162139367Y-85050946D01*
X162218635Y-85411065D01*
X162260842Y-85536329D01*
X162336375Y-85760503D01*
X162336377Y-85760508D01*
X162336379Y-85760513D01*
X162491200Y-86095153D01*
X162491202Y-86095157D01*
X162491204Y-86095161D01*
X162491205Y-86095162D01*
X162681310Y-86411119D01*
X162904462Y-86704670D01*
X163158044Y-86972373D01*
X163439083Y-87211090D01*
X163744284Y-87418022D01*
X163744288Y-87418024D01*
X163744291Y-87418026D01*
X163926172Y-87514453D01*
X164070070Y-87590743D01*
X164412621Y-87727227D01*
X164412627Y-87727228D01*
X164412628Y-87727229D01*
X164412634Y-87727231D01*
X164688226Y-87803748D01*
X164767919Y-87825875D01*
X164767930Y-87825876D01*
X164767931Y-87825877D01*
X165131786Y-87885529D01*
X165131790Y-87885529D01*
X165131801Y-87885531D01*
X165407890Y-87900500D01*
X165407892Y-87900500D01*
X165592108Y-87900500D01*
X165592110Y-87900500D01*
X165868199Y-87885531D01*
X165868210Y-87885529D01*
X165868213Y-87885529D01*
X166120077Y-87844237D01*
X166232081Y-87825875D01*
X166587379Y-87727227D01*
X166929930Y-87590743D01*
X167255716Y-87418022D01*
X167560917Y-87211090D01*
X167841956Y-86972373D01*
X168095538Y-86704670D01*
X168318690Y-86411119D01*
X168508795Y-86095162D01*
X168663625Y-85760503D01*
X168781364Y-85411066D01*
X168860632Y-85050948D01*
X168900500Y-84684370D01*
X168900500Y-84315630D01*
X168860632Y-83949052D01*
X168781364Y-83588934D01*
X168663625Y-83239497D01*
X168622450Y-83150499D01*
X168508799Y-82904846D01*
X168508797Y-82904842D01*
X168501109Y-82892064D01*
X168318690Y-82588881D01*
X168095538Y-82295330D01*
X167841956Y-82027627D01*
X167560917Y-81788910D01*
X167255716Y-81581978D01*
X167255713Y-81581976D01*
X167255708Y-81581973D01*
X166929938Y-81409261D01*
X166929926Y-81409255D01*
X166587371Y-81272770D01*
X166587365Y-81272768D01*
X166232094Y-81174128D01*
X166232068Y-81174122D01*
X165868213Y-81114470D01*
X165868200Y-81114469D01*
X165868199Y-81114469D01*
X165592110Y-81099500D01*
X165407890Y-81099500D01*
X165131801Y-81114469D01*
X165131799Y-81114469D01*
X165131786Y-81114470D01*
X164767931Y-81174122D01*
X164767905Y-81174128D01*
X164412634Y-81272768D01*
X164412628Y-81272770D01*
X164070073Y-81409255D01*
X164070061Y-81409261D01*
X163744291Y-81581973D01*
X163744282Y-81581979D01*
X163439083Y-81788909D01*
X163158044Y-82027626D01*
X162904462Y-82295330D01*
X162904461Y-82295330D01*
X162785853Y-82451357D01*
X162681310Y-82588881D01*
X162681309Y-82588883D01*
X162491202Y-82904842D01*
X162491200Y-82904846D01*
X162336379Y-83239486D01*
X162218635Y-83588934D01*
X162139367Y-83949053D01*
X162099500Y-84315628D01*
X162099500Y-84684371D01*
X155851699Y-84684371D01*
X155792621Y-84607379D01*
X155677625Y-84519139D01*
X155677624Y-84519138D01*
X155677622Y-84519137D01*
X155543712Y-84463671D01*
X155543710Y-84463670D01*
X155543709Y-84463670D01*
X155471854Y-84454210D01*
X155400001Y-84444750D01*
X155399999Y-84444750D01*
X155256291Y-84463670D01*
X155256287Y-84463671D01*
X155122377Y-84519137D01*
X155088998Y-84544750D01*
X155007379Y-84607379D01*
X154919139Y-84722375D01*
X154919138Y-84722377D01*
X154914192Y-84728823D01*
X154912973Y-84727887D01*
X154869040Y-84769775D01*
X154800433Y-84782995D01*
X154735569Y-84757025D01*
X154713848Y-84735043D01*
X154709075Y-84728823D01*
X154692621Y-84707379D01*
X154577625Y-84619139D01*
X154577624Y-84619138D01*
X154577622Y-84619137D01*
X154443712Y-84563671D01*
X154443710Y-84563670D01*
X154443709Y-84563670D01*
X154371854Y-84554210D01*
X154300001Y-84544750D01*
X154299999Y-84544750D01*
X154156291Y-84563670D01*
X154156287Y-84563671D01*
X154022377Y-84619137D01*
X153907379Y-84707379D01*
X153819137Y-84822377D01*
X153763671Y-84956287D01*
X153763670Y-84956291D01*
X153745818Y-85091891D01*
X153744750Y-85100000D01*
X152198002Y-85100000D01*
X152178427Y-85091892D01*
X152178425Y-85091891D01*
X152178424Y-85091891D01*
X152094652Y-85080862D01*
X152034716Y-85072971D01*
X152034714Y-85072971D01*
X151891006Y-85091891D01*
X151891002Y-85091892D01*
X151757092Y-85147358D01*
X151642094Y-85235600D01*
X151553852Y-85350598D01*
X151498386Y-85484508D01*
X151498385Y-85484512D01*
X151479465Y-85628220D01*
X151479465Y-85628221D01*
X139938369Y-85628221D01*
X139955250Y-85500000D01*
X139936330Y-85356291D01*
X139880861Y-85222375D01*
X139792621Y-85107379D01*
X139677625Y-85019139D01*
X139677624Y-85019138D01*
X139677622Y-85019137D01*
X139543712Y-84963671D01*
X139543710Y-84963670D01*
X139543709Y-84963670D01*
X139471854Y-84954210D01*
X139400001Y-84944750D01*
X139399999Y-84944750D01*
X139256291Y-84963670D01*
X139256287Y-84963671D01*
X139122377Y-85019137D01*
X139007379Y-85107379D01*
X138919137Y-85222377D01*
X138863671Y-85356287D01*
X138863670Y-85356291D01*
X138845722Y-85492620D01*
X138844750Y-85500000D01*
X137751399Y-85500000D01*
X137781364Y-85411066D01*
X137860632Y-85050948D01*
X137900500Y-84684370D01*
X137900500Y-84600000D01*
X147244750Y-84600000D01*
X147263670Y-84743708D01*
X147263671Y-84743712D01*
X147319137Y-84877622D01*
X147319138Y-84877624D01*
X147319139Y-84877625D01*
X147407379Y-84992621D01*
X147522375Y-85080861D01*
X147522376Y-85080861D01*
X147522377Y-85080862D01*
X147567013Y-85099350D01*
X147656291Y-85136330D01*
X147783280Y-85153048D01*
X147799999Y-85155250D01*
X147800000Y-85155250D01*
X147800001Y-85155250D01*
X147814977Y-85153278D01*
X147943709Y-85136330D01*
X148077625Y-85080861D01*
X148192621Y-84992621D01*
X148280861Y-84877625D01*
X148336330Y-84743709D01*
X148355250Y-84600000D01*
X148336330Y-84456291D01*
X148280861Y-84322375D01*
X148192621Y-84207379D01*
X148077625Y-84119139D01*
X148077624Y-84119138D01*
X148077622Y-84119137D01*
X147943712Y-84063671D01*
X147943710Y-84063670D01*
X147943709Y-84063670D01*
X147871854Y-84054210D01*
X147800001Y-84044750D01*
X147799999Y-84044750D01*
X147656291Y-84063670D01*
X147656287Y-84063671D01*
X147522377Y-84119137D01*
X147407379Y-84207379D01*
X147319137Y-84322377D01*
X147263671Y-84456287D01*
X147263670Y-84456291D01*
X147244750Y-84599999D01*
X147244750Y-84600000D01*
X137900500Y-84600000D01*
X137900500Y-84315630D01*
X137860632Y-83949052D01*
X137781364Y-83588934D01*
X137663625Y-83239497D01*
X137622450Y-83150500D01*
X148944750Y-83150500D01*
X148956465Y-83239486D01*
X148963670Y-83294208D01*
X148963671Y-83294212D01*
X149019137Y-83428122D01*
X149019138Y-83428124D01*
X149019139Y-83428125D01*
X149107379Y-83543121D01*
X149222375Y-83631361D01*
X149356291Y-83686830D01*
X149483280Y-83703548D01*
X149499999Y-83705750D01*
X149500000Y-83705750D01*
X149500001Y-83705750D01*
X149514977Y-83703778D01*
X149643709Y-83686830D01*
X149777625Y-83631361D01*
X149892621Y-83543121D01*
X149980861Y-83428125D01*
X150036330Y-83294209D01*
X150055250Y-83150500D01*
X150036330Y-83006791D01*
X149980861Y-82872875D01*
X149892621Y-82757879D01*
X149777625Y-82669639D01*
X149777624Y-82669638D01*
X149777622Y-82669637D01*
X149643712Y-82614171D01*
X149643710Y-82614170D01*
X149643709Y-82614170D01*
X149571854Y-82604709D01*
X149500001Y-82595250D01*
X149499999Y-82595250D01*
X149356291Y-82614170D01*
X149356287Y-82614171D01*
X149222377Y-82669637D01*
X149107379Y-82757879D01*
X149019137Y-82872877D01*
X148963671Y-83006787D01*
X148963670Y-83006791D01*
X148948592Y-83121321D01*
X148944750Y-83150500D01*
X137622450Y-83150500D01*
X137622450Y-83150499D01*
X137508799Y-82904846D01*
X137508797Y-82904842D01*
X137501109Y-82892064D01*
X137318690Y-82588881D01*
X137095538Y-82295330D01*
X136841956Y-82027627D01*
X136560917Y-81788910D01*
X136255716Y-81581978D01*
X136255713Y-81581976D01*
X136255708Y-81581973D01*
X135929938Y-81409261D01*
X135929926Y-81409255D01*
X135587371Y-81272770D01*
X135587365Y-81272768D01*
X135232094Y-81174128D01*
X135232068Y-81174122D01*
X134868213Y-81114470D01*
X134868200Y-81114469D01*
X134868199Y-81114469D01*
X134592110Y-81099500D01*
X134407890Y-81099500D01*
X134131801Y-81114469D01*
X134131799Y-81114469D01*
X134131786Y-81114470D01*
X133767931Y-81174122D01*
X133767905Y-81174128D01*
X133412634Y-81272768D01*
X133412628Y-81272770D01*
X133070073Y-81409255D01*
X133070061Y-81409261D01*
X132744291Y-81581973D01*
X132744282Y-81581979D01*
X132439083Y-81788909D01*
X132158044Y-82027626D01*
X131904462Y-82295330D01*
X131904461Y-82295330D01*
X131785853Y-82451357D01*
X131681310Y-82588881D01*
X131681309Y-82588883D01*
X131491202Y-82904842D01*
X131491200Y-82904846D01*
X131336379Y-83239486D01*
X131218635Y-83588934D01*
X131139367Y-83949053D01*
X131099500Y-84315628D01*
X131099500Y-84684371D01*
X129000500Y-84684371D01*
X129000500Y-84499999D01*
X129009500Y-84282397D01*
X129020013Y-84041610D01*
X129020427Y-84036684D01*
X129049085Y-83806772D01*
X129079194Y-83578069D01*
X129079970Y-83573517D01*
X129127969Y-83344599D01*
X129151274Y-83239486D01*
X129177470Y-83121320D01*
X129178571Y-83117073D01*
X129245591Y-82891958D01*
X129314150Y-82674521D01*
X129315491Y-82670712D01*
X129401094Y-82451333D01*
X129488229Y-82240970D01*
X129489750Y-82237598D01*
X129593376Y-82025627D01*
X129698424Y-81823834D01*
X129700139Y-81820760D01*
X129821037Y-81617866D01*
X129943266Y-81426008D01*
X129945052Y-81423360D01*
X130082440Y-81230936D01*
X130221003Y-81050358D01*
X130222770Y-81048167D01*
X130375734Y-80867563D01*
X130530404Y-80698771D01*
X130698760Y-80530416D01*
X130700275Y-80529027D01*
X130867563Y-80375734D01*
X131048167Y-80222770D01*
X131050358Y-80221003D01*
X131230936Y-80082440D01*
X131423360Y-79945052D01*
X131426008Y-79943266D01*
X131617866Y-79821037D01*
X131820766Y-79700135D01*
X131823834Y-79698424D01*
X132025627Y-79593376D01*
X132237598Y-79489750D01*
X132240970Y-79488229D01*
X132451333Y-79401094D01*
X132670712Y-79315491D01*
X132674521Y-79314150D01*
X132891958Y-79245591D01*
X133117073Y-79178571D01*
X133121322Y-79177470D01*
X133344588Y-79127972D01*
X133573517Y-79079970D01*
X133578069Y-79079194D01*
X133806772Y-79049085D01*
X134036684Y-79020427D01*
X134041610Y-79020013D01*
X134282423Y-79009499D01*
X134500000Y-79000500D01*
X134500500Y-79000500D01*
X165499500Y-79000500D01*
X165500000Y-79000500D01*
X165717445Y-79009493D01*
G37*
%TD.AperFunction*%
%TD*%
%TA.AperFunction,Conductor*%
%TO.N,VCC*%
G36*
X142843039Y-92519685D02*
G01*
X142888794Y-92572489D01*
X142900000Y-92624000D01*
X142900000Y-96469898D01*
X142886485Y-96526192D01*
X142840279Y-96616876D01*
X142819196Y-96749997D01*
X142819196Y-96750002D01*
X142840279Y-96883123D01*
X142840280Y-96883126D01*
X142871147Y-96943705D01*
X142884043Y-97012374D01*
X142871148Y-97056291D01*
X142840280Y-97116876D01*
X142819196Y-97249997D01*
X142819196Y-97250002D01*
X142840279Y-97383123D01*
X142886485Y-97473806D01*
X142900000Y-97530101D01*
X142900000Y-102469898D01*
X142886485Y-102526192D01*
X142840279Y-102616876D01*
X142819196Y-102749997D01*
X142819196Y-102750002D01*
X142840279Y-102883122D01*
X142871148Y-102943707D01*
X142884043Y-103012376D01*
X142871148Y-103056293D01*
X142840279Y-103116877D01*
X142819196Y-103249997D01*
X142819196Y-103250002D01*
X142840279Y-103383121D01*
X142840280Y-103383124D01*
X142840281Y-103383126D01*
X142901472Y-103503220D01*
X142902130Y-103504511D01*
X142904530Y-103508306D01*
X145199976Y-107716622D01*
X145214797Y-107784902D01*
X145190351Y-107850355D01*
X145134398Y-107892201D01*
X145091117Y-107900000D01*
X140824000Y-107900000D01*
X140756961Y-107880315D01*
X140711206Y-107827511D01*
X140700000Y-107776000D01*
X140700000Y-92624000D01*
X140719685Y-92556961D01*
X140772489Y-92511206D01*
X140824000Y-92500000D01*
X142776000Y-92500000D01*
X142843039Y-92519685D01*
G37*
%TD.AperFunction*%
%TD*%
M02*
