%TF.GenerationSoftware,KiCad,Pcbnew,7.0.6*%
%TF.CreationDate,2024-02-24T16:47:05-05:00*%
%TF.ProjectId,Axis_Basic,41786973-5f42-4617-9369-632e6b696361,rev?*%
%TF.SameCoordinates,Original*%
%TF.FileFunction,Copper,L2,Inr*%
%TF.FilePolarity,Positive*%
%FSLAX46Y46*%
G04 Gerber Fmt 4.6, Leading zero omitted, Abs format (unit mm)*
G04 Created by KiCad (PCBNEW 7.0.6) date 2024-02-24 16:47:05*
%MOMM*%
%LPD*%
G01*
G04 APERTURE LIST*
G04 Aperture macros list*
%AMRoundRect*
0 Rectangle with rounded corners*
0 $1 Rounding radius*
0 $2 $3 $4 $5 $6 $7 $8 $9 X,Y pos of 4 corners*
0 Add a 4 corners polygon primitive as box body*
4,1,4,$2,$3,$4,$5,$6,$7,$8,$9,$2,$3,0*
0 Add four circle primitives for the rounded corners*
1,1,$1+$1,$2,$3*
1,1,$1+$1,$4,$5*
1,1,$1+$1,$6,$7*
1,1,$1+$1,$8,$9*
0 Add four rect primitives between the rounded corners*
20,1,$1+$1,$2,$3,$4,$5,0*
20,1,$1+$1,$4,$5,$6,$7,0*
20,1,$1+$1,$6,$7,$8,$9,0*
20,1,$1+$1,$8,$9,$2,$3,0*%
G04 Aperture macros list end*
%TA.AperFunction,ComponentPad*%
%ADD10O,1.000000X1.000000*%
%TD*%
%TA.AperFunction,ComponentPad*%
%ADD11R,1.000000X1.000000*%
%TD*%
%TA.AperFunction,ComponentPad*%
%ADD12RoundRect,0.250000X-0.625000X0.350000X-0.625000X-0.350000X0.625000X-0.350000X0.625000X0.350000X0*%
%TD*%
%TA.AperFunction,ComponentPad*%
%ADD13O,1.750000X1.200000*%
%TD*%
%TA.AperFunction,ComponentPad*%
%ADD14O,1.200000X1.750000*%
%TD*%
%TA.AperFunction,ComponentPad*%
%ADD15RoundRect,0.250000X-0.350000X-0.625000X0.350000X-0.625000X0.350000X0.625000X-0.350000X0.625000X0*%
%TD*%
%TA.AperFunction,ComponentPad*%
%ADD16C,0.500000*%
%TD*%
%TA.AperFunction,ComponentPad*%
%ADD17O,2.100000X1.000000*%
%TD*%
%TA.AperFunction,ComponentPad*%
%ADD18O,1.800000X1.000000*%
%TD*%
%TA.AperFunction,ViaPad*%
%ADD19C,0.700000*%
%TD*%
%TA.AperFunction,ViaPad*%
%ADD20C,0.450000*%
%TD*%
G04 APERTURE END LIST*
D10*
%TO.N,RESET*%
%TO.C,J5*%
X164700000Y-97180000D03*
%TO.N,GND*%
X163430000Y-97180000D03*
%TO.N,unconnected-(J5-NC{slash}TDI-Pad8)*%
X164700000Y-95910000D03*
%TO.N,unconnected-(J5-KEY-Pad7)*%
X163430000Y-95910000D03*
%TO.N,unconnected-(J5-SWO{slash}TDO-Pad6)*%
X164700000Y-94640000D03*
%TO.N,GND*%
X163430000Y-94640000D03*
%TO.N,SWCLK*%
X164700000Y-93370000D03*
%TO.N,GND*%
X163430000Y-93370000D03*
%TO.N,SWDIO*%
X164700000Y-92100000D03*
D11*
%TO.N,+3.3V*%
X163430000Y-92100000D03*
%TD*%
D12*
%TO.N,MOTOR_A1*%
%TO.C,J2*%
X134450000Y-97000000D03*
D13*
%TO.N,MOTOR_B1*%
X134450000Y-99000000D03*
%TO.N,MOTOR_A2*%
X134450000Y-101000000D03*
%TO.N,MOTOR_B2*%
X134450000Y-103000000D03*
%TD*%
D14*
%TO.N,VCC*%
%TO.C,J4*%
X142200000Y-115500000D03*
D15*
%TO.N,GND*%
X140200000Y-115500000D03*
%TD*%
D16*
%TO.N,GND*%
%TO.C,U4*%
X144950000Y-101000000D03*
X145950000Y-101000000D03*
X146950000Y-101000000D03*
X144950000Y-100000000D03*
X145950000Y-100000000D03*
X146950000Y-100000000D03*
X144950000Y-99000000D03*
X145950000Y-99000000D03*
X146950000Y-99000000D03*
%TD*%
D14*
%TO.N,GND*%
%TO.C,J3*%
X159500000Y-115500000D03*
%TO.N,unconnected-(J3-Pad3)*%
X157500000Y-115500000D03*
%TO.N,SDA2*%
X155500000Y-115500000D03*
D15*
%TO.N,SCL2*%
X153500000Y-115500000D03*
%TD*%
D17*
%TO.N,Net-(J1-SHIELD)*%
%TO.C,J1*%
X165075000Y-110820000D03*
D18*
X169275000Y-110820000D03*
D17*
X165075000Y-102180000D03*
D18*
X169275000Y-102180000D03*
%TD*%
D19*
%TO.N,+3.3V*%
X138000000Y-91500000D03*
%TO.N,GND*%
X138017647Y-103270588D03*
X136917647Y-104770588D03*
X136917647Y-103970588D03*
X138817647Y-103270588D03*
X137217647Y-103270588D03*
X136900000Y-95200000D03*
X136900000Y-96000000D03*
X137200000Y-96700000D03*
X138800000Y-96700000D03*
X138000000Y-96700000D03*
%TO.N,SCK*%
X147800000Y-84600000D03*
X149500000Y-83150500D03*
%TO.N,GND*%
X145600000Y-90000000D03*
X141000000Y-88900000D03*
%TO.N,EEPROM_CS*%
X139400000Y-85500000D03*
X151500000Y-88600000D03*
%TO.N,+3.3V*%
X139500000Y-88800000D03*
X142000000Y-84200000D03*
X154200000Y-97100000D03*
%TO.N,GND*%
X161600000Y-88400000D03*
%TO.N,+3.3V*%
X160800000Y-84900000D03*
%TO.N,EN*%
X152500000Y-101000000D03*
%TO.N,VCC*%
X147700000Y-104500000D03*
%TO.N,GND*%
X133000000Y-108900000D03*
X133300000Y-93000000D03*
X147000000Y-110700000D03*
%TO.N,Net-(R5-Pad1)*%
X135700000Y-108100000D03*
X152050500Y-113149500D03*
X155200000Y-102200000D03*
X157500000Y-100600000D03*
%TO.N,EN*%
X155600000Y-98100000D03*
%TO.N,GND*%
X153400000Y-99600000D03*
%TO.N,SDA1*%
X158100000Y-87000000D03*
%TO.N,SCL1*%
X158150500Y-86057795D03*
%TO.N,+3.3V*%
X149800000Y-102600000D03*
X149800000Y-102600000D03*
%TO.N,NEOPIX*%
X161300000Y-107899500D03*
X161600000Y-90800000D03*
%TO.N,GND*%
X152034715Y-85628221D03*
%TO.N,+3.3V*%
X152940734Y-85640734D03*
%TO.N,SWCLK*%
X159900000Y-93900000D03*
X161290734Y-92190734D03*
%TO.N,GND*%
X162600000Y-98400000D03*
X159500000Y-96400000D03*
%TO.N,+3.3V*%
X159090734Y-97400500D03*
%TO.N,SDA2*%
X154300000Y-85100000D03*
%TO.N,SCL2*%
X155400000Y-85000000D03*
%TO.N,GND*%
X150900000Y-105100000D03*
X159084404Y-105110841D03*
X157700000Y-98500000D03*
X156300000Y-97200000D03*
%TO.N,SDA2*%
X153500000Y-103200000D03*
%TO.N,SCL2*%
X152600000Y-103100000D03*
%TO.N,MOT_M0*%
X154693649Y-97893649D03*
X152474508Y-99224301D03*
%TO.N,UART_RX*%
X148309547Y-94609548D03*
X149800000Y-96700000D03*
%TO.N,Spread*%
X148100000Y-102400000D03*
X148700000Y-97000000D03*
%TO.N,GND*%
X145400000Y-94800000D03*
X145400000Y-94800000D03*
%TO.N,+3.3V*%
X148100000Y-97800000D03*
%TO.N,VCC*%
X162100000Y-105300000D03*
X141800000Y-92900000D03*
X141100000Y-93400000D03*
X142500000Y-93400000D03*
X142500000Y-94200000D03*
X141100000Y-94200000D03*
X143100000Y-107200000D03*
X143100000Y-106400000D03*
X143100000Y-105600000D03*
X142300000Y-105600000D03*
X142300000Y-106400000D03*
X142300000Y-107200000D03*
%TO.N,+3.3V*%
X148800000Y-116800000D03*
X148000000Y-116800000D03*
X148400000Y-116100000D03*
X147600000Y-116100000D03*
X148000000Y-115400000D03*
X147200000Y-115400000D03*
%TO.N,GND*%
X151600000Y-116500000D03*
X150800000Y-116500000D03*
X151200000Y-115800000D03*
X150400000Y-115800000D03*
X150800000Y-115100000D03*
X150000000Y-115100000D03*
X140200000Y-111700000D03*
X139700000Y-111000000D03*
X139200000Y-111700000D03*
X138200000Y-111700000D03*
X138700000Y-111000000D03*
X137700000Y-111000000D03*
%TO.N,+3.3V*%
X155100000Y-107100000D03*
%TO.N,GND*%
X155000000Y-105000000D03*
X163200000Y-110100000D03*
X162900000Y-103000000D03*
D20*
%TO.N,MOTOR_A1*%
X143250000Y-96750000D03*
X143250000Y-97250000D03*
X143750000Y-97000000D03*
X143750000Y-97500000D03*
%TO.N,MOTOR_B2*%
X143750000Y-102500000D03*
X143750000Y-103000000D03*
X143250000Y-103250000D03*
X143250000Y-102750000D03*
%TD*%
%TA.AperFunction,Conductor*%
%TO.N,GND*%
G36*
X165717445Y-79009493D02*
G01*
X165958385Y-79020013D01*
X165963320Y-79020427D01*
X166193261Y-79049089D01*
X166421921Y-79079193D01*
X166426490Y-79079972D01*
X166655391Y-79127968D01*
X166793210Y-79158522D01*
X166878677Y-79177470D01*
X166882939Y-79178575D01*
X167107969Y-79245569D01*
X167325459Y-79314144D01*
X167329305Y-79315498D01*
X167548675Y-79401097D01*
X167758977Y-79488208D01*
X167762437Y-79489768D01*
X167974350Y-79593365D01*
X168176129Y-79698405D01*
X168179238Y-79700139D01*
X168285211Y-79763284D01*
X168382116Y-79821027D01*
X168573954Y-79943242D01*
X168576669Y-79945074D01*
X168769063Y-80082440D01*
X168949600Y-80220971D01*
X168951872Y-80222805D01*
X169132397Y-80375701D01*
X169132415Y-80375716D01*
X169301239Y-80530416D01*
X169469583Y-80698760D01*
X169624281Y-80867582D01*
X169777186Y-81048117D01*
X169779044Y-81050421D01*
X169917559Y-81230937D01*
X169947426Y-81272768D01*
X170054924Y-81423329D01*
X170056755Y-81426043D01*
X170142495Y-81560627D01*
X170156098Y-81581979D01*
X170178973Y-81617884D01*
X170299859Y-81820760D01*
X170301593Y-81823868D01*
X170406634Y-82025649D01*
X170407601Y-82027627D01*
X170510220Y-82237539D01*
X170511800Y-82241043D01*
X170598915Y-82451357D01*
X170684487Y-82670659D01*
X170685859Y-82674553D01*
X170754426Y-82892017D01*
X170821420Y-83117049D01*
X170822528Y-83121321D01*
X170872038Y-83344640D01*
X170920022Y-83573488D01*
X170920811Y-83578120D01*
X170950917Y-83806795D01*
X170979569Y-84036662D01*
X170979986Y-84041629D01*
X170990505Y-84282545D01*
X170999500Y-84500001D01*
X170999500Y-115499999D01*
X170990505Y-115717454D01*
X170979986Y-115958369D01*
X170979569Y-115963336D01*
X170950917Y-116193204D01*
X170920811Y-116421878D01*
X170920022Y-116426510D01*
X170872038Y-116655359D01*
X170822528Y-116878677D01*
X170821420Y-116882949D01*
X170754426Y-117107982D01*
X170685859Y-117325445D01*
X170684487Y-117329339D01*
X170598915Y-117548642D01*
X170511800Y-117758955D01*
X170510220Y-117762459D01*
X170406638Y-117974342D01*
X170301592Y-118176130D01*
X170299859Y-118179238D01*
X170178973Y-118382115D01*
X170056755Y-118573955D01*
X170054924Y-118576668D01*
X169917565Y-118769055D01*
X169779044Y-118949577D01*
X169777168Y-118951904D01*
X169624283Y-119132414D01*
X169469583Y-119301239D01*
X169301239Y-119469583D01*
X169132414Y-119624283D01*
X168951904Y-119777168D01*
X168949577Y-119779044D01*
X168769055Y-119917565D01*
X168576668Y-120054924D01*
X168573955Y-120056755D01*
X168382115Y-120178973D01*
X168179238Y-120299859D01*
X168176130Y-120301592D01*
X167974342Y-120406638D01*
X167762459Y-120510220D01*
X167758955Y-120511800D01*
X167548642Y-120598915D01*
X167329339Y-120684487D01*
X167325445Y-120685859D01*
X167107982Y-120754426D01*
X166882949Y-120821420D01*
X166878677Y-120822528D01*
X166655359Y-120872038D01*
X166426510Y-120920022D01*
X166421878Y-120920811D01*
X166193204Y-120950917D01*
X165963336Y-120979569D01*
X165958369Y-120979986D01*
X165717454Y-120990505D01*
X165499999Y-120999500D01*
X134500001Y-120999500D01*
X134282545Y-120990505D01*
X134041629Y-120979986D01*
X134036662Y-120979569D01*
X133806795Y-120950917D01*
X133578120Y-120920811D01*
X133573488Y-120920022D01*
X133344640Y-120872038D01*
X133121321Y-120822528D01*
X133117049Y-120821420D01*
X132892017Y-120754426D01*
X132674553Y-120685859D01*
X132670659Y-120684487D01*
X132451357Y-120598915D01*
X132241043Y-120511800D01*
X132237539Y-120510220D01*
X132105816Y-120445825D01*
X132025654Y-120406636D01*
X131823866Y-120301592D01*
X131820760Y-120299859D01*
X131657629Y-120202655D01*
X131617883Y-120178972D01*
X131560627Y-120142495D01*
X131426043Y-120056755D01*
X131423329Y-120054924D01*
X131293067Y-119961919D01*
X131230944Y-119917564D01*
X131154486Y-119858897D01*
X131050421Y-119779044D01*
X131048117Y-119777186D01*
X130867582Y-119624281D01*
X130698760Y-119469583D01*
X130530416Y-119301239D01*
X130375716Y-119132415D01*
X130375715Y-119132414D01*
X130222805Y-118951872D01*
X130220971Y-118949600D01*
X130082440Y-118769063D01*
X129955123Y-118590744D01*
X129945074Y-118576669D01*
X129943242Y-118573954D01*
X129821027Y-118382115D01*
X129719118Y-118211090D01*
X129700139Y-118179238D01*
X129698405Y-118176129D01*
X129593365Y-117974350D01*
X129489768Y-117762437D01*
X129488208Y-117758977D01*
X129401097Y-117548675D01*
X129315498Y-117329305D01*
X129314144Y-117325459D01*
X129245564Y-117107951D01*
X129178578Y-116882949D01*
X129177470Y-116878677D01*
X129155626Y-116780147D01*
X129127961Y-116655359D01*
X129079972Y-116426490D01*
X129079193Y-116421921D01*
X129049082Y-116193204D01*
X129020427Y-115963320D01*
X129020013Y-115958385D01*
X129009491Y-115717381D01*
X129008125Y-115684371D01*
X131099500Y-115684371D01*
X131139367Y-116050946D01*
X131218635Y-116411065D01*
X131257966Y-116527793D01*
X131336375Y-116760503D01*
X131336377Y-116760508D01*
X131336379Y-116760513D01*
X131491200Y-117095153D01*
X131491202Y-117095157D01*
X131491204Y-117095161D01*
X131491205Y-117095162D01*
X131681310Y-117411119D01*
X131869261Y-117658364D01*
X131904461Y-117704669D01*
X131955904Y-117758977D01*
X132158044Y-117972373D01*
X132439083Y-118211090D01*
X132744284Y-118418022D01*
X132744288Y-118418024D01*
X132744291Y-118418026D01*
X132913889Y-118507941D01*
X133070070Y-118590743D01*
X133412621Y-118727227D01*
X133412627Y-118727228D01*
X133412628Y-118727229D01*
X133412634Y-118727231D01*
X133688226Y-118803748D01*
X133767919Y-118825875D01*
X133767930Y-118825876D01*
X133767931Y-118825877D01*
X134131786Y-118885529D01*
X134131790Y-118885529D01*
X134131801Y-118885531D01*
X134407890Y-118900500D01*
X134407892Y-118900500D01*
X134592108Y-118900500D01*
X134592110Y-118900500D01*
X134868199Y-118885531D01*
X134868210Y-118885529D01*
X134868213Y-118885529D01*
X135120077Y-118844237D01*
X135232081Y-118825875D01*
X135587379Y-118727227D01*
X135929930Y-118590743D01*
X136255716Y-118418022D01*
X136560917Y-118211090D01*
X136841956Y-117972373D01*
X137095538Y-117704670D01*
X137318690Y-117411119D01*
X137508795Y-117095162D01*
X137663625Y-116760503D01*
X137781364Y-116411066D01*
X137860632Y-116050948D01*
X137900500Y-115684370D01*
X137900500Y-115315630D01*
X137893362Y-115250000D01*
X139100000Y-115250000D01*
X139920440Y-115250000D01*
X139881722Y-115292059D01*
X139831449Y-115406670D01*
X139821114Y-115531395D01*
X139851837Y-115652719D01*
X139915394Y-115750000D01*
X139100001Y-115750000D01*
X139100001Y-116174986D01*
X139110494Y-116277697D01*
X139165641Y-116444119D01*
X139165643Y-116444124D01*
X139257684Y-116593345D01*
X139381654Y-116717315D01*
X139530875Y-116809356D01*
X139530880Y-116809358D01*
X139697302Y-116864505D01*
X139697309Y-116864506D01*
X139800019Y-116874999D01*
X139949999Y-116874999D01*
X139950000Y-116874998D01*
X139950000Y-115780617D01*
X140019052Y-115834363D01*
X140137424Y-115875000D01*
X140231073Y-115875000D01*
X140323446Y-115859586D01*
X140433514Y-115800019D01*
X140450000Y-115782110D01*
X140450000Y-116874999D01*
X140599972Y-116874999D01*
X140599986Y-116874998D01*
X140702697Y-116864505D01*
X140869119Y-116809358D01*
X140869124Y-116809356D01*
X141018345Y-116717315D01*
X141142315Y-116593345D01*
X141234356Y-116444124D01*
X141234358Y-116444119D01*
X141289505Y-116277697D01*
X141289506Y-116277689D01*
X141292172Y-116251600D01*
X141318567Y-116186908D01*
X141375748Y-116146756D01*
X141445559Y-116143892D01*
X141505836Y-116179225D01*
X141520523Y-116198229D01*
X141570179Y-116277256D01*
X141570184Y-116277262D01*
X141697738Y-116404816D01*
X141732264Y-116426510D01*
X141837478Y-116492621D01*
X141850478Y-116500789D01*
X142020744Y-116560368D01*
X142020745Y-116560368D01*
X142020750Y-116560369D01*
X142199996Y-116580565D01*
X142200000Y-116580565D01*
X142200004Y-116580565D01*
X142379249Y-116560369D01*
X142379252Y-116560368D01*
X142379255Y-116560368D01*
X142549522Y-116500789D01*
X142702262Y-116404816D01*
X142829816Y-116277262D01*
X142925789Y-116124522D01*
X142985368Y-115954255D01*
X142985381Y-115954145D01*
X142994298Y-115875000D01*
X143000500Y-115819954D01*
X143000500Y-115400000D01*
X146644750Y-115400000D01*
X146657915Y-115500000D01*
X146663670Y-115543708D01*
X146663671Y-115543712D01*
X146719137Y-115677622D01*
X146719138Y-115677624D01*
X146719139Y-115677625D01*
X146807379Y-115792621D01*
X146922375Y-115880861D01*
X146922376Y-115880861D01*
X146922377Y-115880862D01*
X146977873Y-115903849D01*
X147032277Y-115947690D01*
X147054342Y-116013984D01*
X147053360Y-116034594D01*
X147044750Y-116099996D01*
X147044750Y-116099999D01*
X147044750Y-116100000D01*
X147059192Y-116209699D01*
X147063670Y-116243708D01*
X147063671Y-116243712D01*
X147119137Y-116377622D01*
X147119138Y-116377624D01*
X147119139Y-116377625D01*
X147207379Y-116492621D01*
X147322375Y-116580861D01*
X147322376Y-116580861D01*
X147322377Y-116580862D01*
X147377873Y-116603849D01*
X147432277Y-116647690D01*
X147454342Y-116713984D01*
X147453360Y-116734594D01*
X147444750Y-116799996D01*
X147444750Y-116800000D01*
X147463670Y-116943708D01*
X147463671Y-116943712D01*
X147519137Y-117077622D01*
X147519138Y-117077624D01*
X147519139Y-117077625D01*
X147607379Y-117192621D01*
X147722375Y-117280861D01*
X147856291Y-117336330D01*
X147983280Y-117353048D01*
X147999999Y-117355250D01*
X148000000Y-117355250D01*
X148000001Y-117355250D01*
X148014977Y-117353278D01*
X148143709Y-117336330D01*
X148277625Y-117280861D01*
X148324514Y-117244881D01*
X148389682Y-117219687D01*
X148458127Y-117233725D01*
X148475483Y-117244880D01*
X148522375Y-117280861D01*
X148656291Y-117336330D01*
X148783280Y-117353048D01*
X148799999Y-117355250D01*
X148800000Y-117355250D01*
X148800001Y-117355250D01*
X148814977Y-117353278D01*
X148943709Y-117336330D01*
X149077625Y-117280861D01*
X149192621Y-117192621D01*
X149280861Y-117077625D01*
X149336330Y-116943709D01*
X149355250Y-116800000D01*
X149355249Y-116799996D01*
X149344364Y-116717315D01*
X149336330Y-116656291D01*
X149296598Y-116560368D01*
X149280862Y-116522377D01*
X149280861Y-116522376D01*
X149280861Y-116522375D01*
X149192621Y-116407379D01*
X149077625Y-116319139D01*
X149059206Y-116311509D01*
X149022125Y-116296150D01*
X148967722Y-116252309D01*
X148945657Y-116186014D01*
X148945978Y-116179269D01*
X152699500Y-116179269D01*
X152702353Y-116209699D01*
X152702353Y-116209701D01*
X152747206Y-116337880D01*
X152747207Y-116337882D01*
X152827850Y-116447150D01*
X152937118Y-116527793D01*
X152979845Y-116542744D01*
X153065299Y-116572646D01*
X153095730Y-116575500D01*
X153095734Y-116575500D01*
X153904270Y-116575500D01*
X153934699Y-116572646D01*
X153934701Y-116572646D01*
X153998790Y-116550219D01*
X154062882Y-116527793D01*
X154172150Y-116447150D01*
X154252793Y-116337882D01*
X154282736Y-116252309D01*
X154297646Y-116209701D01*
X154297646Y-116209699D01*
X154300500Y-116179269D01*
X154300500Y-115819960D01*
X154699500Y-115819960D01*
X154714630Y-115954249D01*
X154714631Y-115954254D01*
X154774211Y-116124523D01*
X154849101Y-116243709D01*
X154870184Y-116277262D01*
X154997738Y-116404816D01*
X155032264Y-116426510D01*
X155137478Y-116492621D01*
X155150478Y-116500789D01*
X155320745Y-116560368D01*
X155320750Y-116560369D01*
X155499996Y-116580565D01*
X155500000Y-116580565D01*
X155500004Y-116580565D01*
X155679249Y-116560369D01*
X155679252Y-116560368D01*
X155679255Y-116560368D01*
X155849522Y-116500789D01*
X156002262Y-116404816D01*
X156129816Y-116277262D01*
X156225789Y-116124522D01*
X156285368Y-115954255D01*
X156285381Y-115954145D01*
X156294298Y-115875000D01*
X156300499Y-115819960D01*
X156699500Y-115819960D01*
X156714630Y-115954249D01*
X156714631Y-115954254D01*
X156774211Y-116124523D01*
X156849101Y-116243709D01*
X156870184Y-116277262D01*
X156997738Y-116404816D01*
X157032264Y-116426510D01*
X157137478Y-116492621D01*
X157150478Y-116500789D01*
X157320745Y-116560368D01*
X157320750Y-116560369D01*
X157499996Y-116580565D01*
X157500000Y-116580565D01*
X157500004Y-116580565D01*
X157679249Y-116560369D01*
X157679252Y-116560368D01*
X157679255Y-116560368D01*
X157849522Y-116500789D01*
X158002262Y-116404816D01*
X158129816Y-116277262D01*
X158225789Y-116124522D01*
X158225789Y-116124519D01*
X158225792Y-116124516D01*
X158228812Y-116118247D01*
X158231557Y-116119569D01*
X158264351Y-116073781D01*
X158329286Y-116047990D01*
X158397857Y-116061399D01*
X158448292Y-116109752D01*
X158459714Y-116136525D01*
X158474149Y-116185686D01*
X158570413Y-116372414D01*
X158700268Y-116537537D01*
X158700271Y-116537540D01*
X158859030Y-116675105D01*
X158859041Y-116675114D01*
X159040960Y-116780144D01*
X159040967Y-116780147D01*
X159239487Y-116848856D01*
X159250000Y-116850367D01*
X159250000Y-115780617D01*
X159319052Y-115834363D01*
X159437424Y-115875000D01*
X159531073Y-115875000D01*
X159623446Y-115859586D01*
X159733514Y-115800019D01*
X159750000Y-115782110D01*
X159750000Y-116846257D01*
X159861409Y-116819229D01*
X160052507Y-116731959D01*
X160223619Y-116610110D01*
X160223625Y-116610104D01*
X160368592Y-116458067D01*
X160482166Y-116281342D01*
X160560244Y-116086314D01*
X160600000Y-115880037D01*
X160600000Y-115750000D01*
X159779560Y-115750000D01*
X159818278Y-115707941D01*
X159828617Y-115684371D01*
X162099500Y-115684371D01*
X162139367Y-116050946D01*
X162218635Y-116411065D01*
X162257966Y-116527793D01*
X162336375Y-116760503D01*
X162336377Y-116760508D01*
X162336379Y-116760513D01*
X162491200Y-117095153D01*
X162491202Y-117095157D01*
X162491204Y-117095161D01*
X162491205Y-117095162D01*
X162681310Y-117411119D01*
X162869261Y-117658364D01*
X162904461Y-117704669D01*
X162955904Y-117758977D01*
X163158044Y-117972373D01*
X163439083Y-118211090D01*
X163744284Y-118418022D01*
X163744288Y-118418024D01*
X163744291Y-118418026D01*
X163913889Y-118507941D01*
X164070070Y-118590743D01*
X164412621Y-118727227D01*
X164412627Y-118727228D01*
X164412628Y-118727229D01*
X164412634Y-118727231D01*
X164688226Y-118803748D01*
X164767919Y-118825875D01*
X164767930Y-118825876D01*
X164767931Y-118825877D01*
X165131786Y-118885529D01*
X165131790Y-118885529D01*
X165131801Y-118885531D01*
X165407890Y-118900500D01*
X165407892Y-118900500D01*
X165592108Y-118900500D01*
X165592110Y-118900500D01*
X165868199Y-118885531D01*
X165868210Y-118885529D01*
X165868213Y-118885529D01*
X166120077Y-118844237D01*
X166232081Y-118825875D01*
X166587379Y-118727227D01*
X166929930Y-118590743D01*
X167255716Y-118418022D01*
X167560917Y-118211090D01*
X167841956Y-117972373D01*
X168095538Y-117704670D01*
X168318690Y-117411119D01*
X168508795Y-117095162D01*
X168663625Y-116760503D01*
X168781364Y-116411066D01*
X168860632Y-116050948D01*
X168900500Y-115684370D01*
X168900500Y-115315630D01*
X168860632Y-114949052D01*
X168781364Y-114588934D01*
X168663625Y-114239497D01*
X168623950Y-114153740D01*
X168508799Y-113904846D01*
X168508797Y-113904842D01*
X168508795Y-113904838D01*
X168318690Y-113588881D01*
X168095538Y-113295330D01*
X167841956Y-113027627D01*
X167560917Y-112788910D01*
X167255716Y-112581978D01*
X167255713Y-112581976D01*
X167255708Y-112581973D01*
X166929938Y-112409261D01*
X166929926Y-112409255D01*
X166587371Y-112272770D01*
X166587365Y-112272768D01*
X166232094Y-112174128D01*
X166232068Y-112174122D01*
X165868213Y-112114470D01*
X165868200Y-112114469D01*
X165868199Y-112114469D01*
X165592110Y-112099500D01*
X165407890Y-112099500D01*
X165131801Y-112114469D01*
X165131799Y-112114469D01*
X165131786Y-112114470D01*
X164767931Y-112174122D01*
X164767905Y-112174128D01*
X164412634Y-112272768D01*
X164412628Y-112272770D01*
X164070073Y-112409255D01*
X164070061Y-112409261D01*
X163744291Y-112581973D01*
X163744282Y-112581979D01*
X163439083Y-112788909D01*
X163158044Y-113027626D01*
X162904462Y-113295330D01*
X162904461Y-113295330D01*
X162804276Y-113427122D01*
X162681310Y-113588881D01*
X162681309Y-113588883D01*
X162491202Y-113904842D01*
X162491200Y-113904846D01*
X162336379Y-114239486D01*
X162336376Y-114239494D01*
X162336375Y-114239497D01*
X162321824Y-114282684D01*
X162218635Y-114588934D01*
X162139367Y-114949053D01*
X162099500Y-115315628D01*
X162099500Y-115684371D01*
X159828617Y-115684371D01*
X159868551Y-115593330D01*
X159878886Y-115468605D01*
X159848163Y-115347281D01*
X159784606Y-115250000D01*
X160600000Y-115250000D01*
X160600000Y-115172601D01*
X160585034Y-115015877D01*
X160585033Y-115015873D01*
X160525850Y-114814313D01*
X160429586Y-114627585D01*
X160299731Y-114462462D01*
X160299728Y-114462459D01*
X160140969Y-114324894D01*
X160140958Y-114324885D01*
X159959039Y-114219855D01*
X159959032Y-114219852D01*
X159760516Y-114151144D01*
X159750000Y-114149632D01*
X159750000Y-115219382D01*
X159680948Y-115165637D01*
X159562576Y-115125000D01*
X159468927Y-115125000D01*
X159376554Y-115140414D01*
X159266486Y-115199981D01*
X159250000Y-115217889D01*
X159250000Y-114153740D01*
X159249999Y-114153740D01*
X159138594Y-114180768D01*
X159138582Y-114180772D01*
X158947497Y-114268037D01*
X158947496Y-114268038D01*
X158776380Y-114389889D01*
X158776374Y-114389895D01*
X158631407Y-114541932D01*
X158517832Y-114718659D01*
X158455637Y-114874014D01*
X158412447Y-114928935D01*
X158346420Y-114951787D01*
X158278520Y-114935314D01*
X158230304Y-114884747D01*
X158228801Y-114881731D01*
X158225790Y-114875480D01*
X158225789Y-114875478D01*
X158129816Y-114722738D01*
X158002262Y-114595184D01*
X157992315Y-114588934D01*
X157849523Y-114499211D01*
X157679254Y-114439631D01*
X157679249Y-114439630D01*
X157500004Y-114419435D01*
X157499996Y-114419435D01*
X157320750Y-114439630D01*
X157320745Y-114439631D01*
X157150476Y-114499211D01*
X156997737Y-114595184D01*
X156870184Y-114722737D01*
X156774211Y-114875476D01*
X156714631Y-115045745D01*
X156714630Y-115045750D01*
X156699500Y-115180039D01*
X156699500Y-115819960D01*
X156300499Y-115819960D01*
X156300500Y-115819954D01*
X156300500Y-115180046D01*
X156285368Y-115045745D01*
X156225789Y-114875478D01*
X156129816Y-114722738D01*
X156002262Y-114595184D01*
X155992315Y-114588934D01*
X155849523Y-114499211D01*
X155679254Y-114439631D01*
X155679249Y-114439630D01*
X155500004Y-114419435D01*
X155499996Y-114419435D01*
X155320750Y-114439630D01*
X155320745Y-114439631D01*
X155150476Y-114499211D01*
X154997737Y-114595184D01*
X154870184Y-114722737D01*
X154774211Y-114875476D01*
X154714631Y-115045745D01*
X154714630Y-115045750D01*
X154699500Y-115180039D01*
X154699500Y-115819960D01*
X154300500Y-115819960D01*
X154300500Y-114820730D01*
X154297646Y-114790300D01*
X154297646Y-114790298D01*
X154252793Y-114662119D01*
X154252792Y-114662117D01*
X154172150Y-114552850D01*
X154062882Y-114472207D01*
X154062880Y-114472206D01*
X153934700Y-114427353D01*
X153904270Y-114424500D01*
X153904266Y-114424500D01*
X153095734Y-114424500D01*
X153095730Y-114424500D01*
X153065300Y-114427353D01*
X153065298Y-114427353D01*
X152937119Y-114472206D01*
X152937117Y-114472207D01*
X152827850Y-114552850D01*
X152747207Y-114662117D01*
X152747206Y-114662119D01*
X152702353Y-114790298D01*
X152702353Y-114790300D01*
X152699500Y-114820730D01*
X152699500Y-116179269D01*
X148945978Y-116179269D01*
X148946639Y-116165403D01*
X148952022Y-116124522D01*
X148955250Y-116100000D01*
X148955249Y-116099996D01*
X148948792Y-116050946D01*
X148936330Y-115956291D01*
X148880861Y-115822375D01*
X148792621Y-115707379D01*
X148677625Y-115619139D01*
X148659206Y-115611509D01*
X148622125Y-115596150D01*
X148567722Y-115552309D01*
X148545657Y-115486014D01*
X148546639Y-115465403D01*
X148555250Y-115400000D01*
X148555250Y-115399999D01*
X148548309Y-115347281D01*
X148536330Y-115256291D01*
X148480861Y-115122375D01*
X148392621Y-115007379D01*
X148277625Y-114919139D01*
X148277624Y-114919138D01*
X148277622Y-114919137D01*
X148143712Y-114863671D01*
X148143710Y-114863670D01*
X148143709Y-114863670D01*
X148071854Y-114854210D01*
X148000001Y-114844750D01*
X147999999Y-114844750D01*
X147856291Y-114863670D01*
X147856287Y-114863671D01*
X147722376Y-114919138D01*
X147722374Y-114919139D01*
X147675486Y-114955118D01*
X147610317Y-114980312D01*
X147541872Y-114966274D01*
X147524514Y-114955118D01*
X147477625Y-114919139D01*
X147477623Y-114919138D01*
X147343712Y-114863671D01*
X147343710Y-114863670D01*
X147343709Y-114863670D01*
X147271854Y-114854210D01*
X147200001Y-114844750D01*
X147199999Y-114844750D01*
X147056291Y-114863670D01*
X147056287Y-114863671D01*
X146922377Y-114919137D01*
X146807379Y-115007379D01*
X146719137Y-115122377D01*
X146663671Y-115256287D01*
X146663670Y-115256291D01*
X146644750Y-115400000D01*
X143000500Y-115400000D01*
X143000500Y-115180046D01*
X142985368Y-115045745D01*
X142925789Y-114875478D01*
X142829816Y-114722738D01*
X142702262Y-114595184D01*
X142692315Y-114588934D01*
X142549523Y-114499211D01*
X142379254Y-114439631D01*
X142379249Y-114439630D01*
X142200004Y-114419435D01*
X142199996Y-114419435D01*
X142020750Y-114439630D01*
X142020745Y-114439631D01*
X141850476Y-114499211D01*
X141697737Y-114595184D01*
X141570184Y-114722737D01*
X141570182Y-114722740D01*
X141520522Y-114801772D01*
X141468187Y-114848063D01*
X141399133Y-114858710D01*
X141335285Y-114830334D01*
X141296914Y-114771944D01*
X141292171Y-114748397D01*
X141289506Y-114722303D01*
X141234358Y-114555880D01*
X141234356Y-114555875D01*
X141142315Y-114406654D01*
X141018345Y-114282684D01*
X140869124Y-114190643D01*
X140869119Y-114190641D01*
X140702697Y-114135494D01*
X140702690Y-114135493D01*
X140599986Y-114125000D01*
X140450000Y-114125000D01*
X140450000Y-115219382D01*
X140380948Y-115165637D01*
X140262576Y-115125000D01*
X140168927Y-115125000D01*
X140076554Y-115140414D01*
X139966486Y-115199981D01*
X139950000Y-115217889D01*
X139950000Y-114125000D01*
X139800027Y-114125000D01*
X139800012Y-114125001D01*
X139697302Y-114135494D01*
X139530880Y-114190641D01*
X139530875Y-114190643D01*
X139381654Y-114282684D01*
X139257684Y-114406654D01*
X139165643Y-114555875D01*
X139165641Y-114555880D01*
X139110494Y-114722302D01*
X139110493Y-114722309D01*
X139100000Y-114825013D01*
X139100000Y-115250000D01*
X137893362Y-115250000D01*
X137860632Y-114949052D01*
X137781364Y-114588934D01*
X137663625Y-114239497D01*
X137623950Y-114153740D01*
X137508799Y-113904846D01*
X137508797Y-113904842D01*
X137508795Y-113904838D01*
X137318690Y-113588881D01*
X137095538Y-113295330D01*
X136957400Y-113149500D01*
X151495250Y-113149500D01*
X151514170Y-113293208D01*
X151514171Y-113293212D01*
X151569637Y-113427122D01*
X151569638Y-113427124D01*
X151569639Y-113427125D01*
X151657879Y-113542121D01*
X151772875Y-113630361D01*
X151906791Y-113685830D01*
X152033780Y-113702548D01*
X152050499Y-113704750D01*
X152050500Y-113704750D01*
X152050501Y-113704750D01*
X152065477Y-113702778D01*
X152194209Y-113685830D01*
X152328125Y-113630361D01*
X152443121Y-113542121D01*
X152531361Y-113427125D01*
X152586830Y-113293209D01*
X152605750Y-113149500D01*
X152586830Y-113005791D01*
X152531361Y-112871875D01*
X152443121Y-112756879D01*
X152328125Y-112668639D01*
X152328124Y-112668638D01*
X152328122Y-112668637D01*
X152194212Y-112613171D01*
X152194210Y-112613170D01*
X152194209Y-112613170D01*
X152122354Y-112603709D01*
X152050501Y-112594250D01*
X152050499Y-112594250D01*
X151906791Y-112613170D01*
X151906787Y-112613171D01*
X151772877Y-112668637D01*
X151657879Y-112756879D01*
X151569637Y-112871877D01*
X151514171Y-113005787D01*
X151514170Y-113005791D01*
X151495250Y-113149499D01*
X151495250Y-113149500D01*
X136957400Y-113149500D01*
X136841956Y-113027627D01*
X136560917Y-112788910D01*
X136255716Y-112581978D01*
X136255713Y-112581976D01*
X136255708Y-112581973D01*
X135929938Y-112409261D01*
X135929926Y-112409255D01*
X135587371Y-112272770D01*
X135587365Y-112272768D01*
X135232094Y-112174128D01*
X135232068Y-112174122D01*
X134868213Y-112114470D01*
X134868200Y-112114469D01*
X134868199Y-112114469D01*
X134592110Y-112099500D01*
X134407890Y-112099500D01*
X134131801Y-112114469D01*
X134131799Y-112114469D01*
X134131786Y-112114470D01*
X133767931Y-112174122D01*
X133767905Y-112174128D01*
X133412634Y-112272768D01*
X133412628Y-112272770D01*
X133070073Y-112409255D01*
X133070061Y-112409261D01*
X132744291Y-112581973D01*
X132744282Y-112581979D01*
X132439083Y-112788909D01*
X132158044Y-113027626D01*
X131904462Y-113295330D01*
X131904461Y-113295330D01*
X131804276Y-113427122D01*
X131681310Y-113588881D01*
X131681309Y-113588883D01*
X131491202Y-113904842D01*
X131491200Y-113904846D01*
X131336379Y-114239486D01*
X131336376Y-114239494D01*
X131336375Y-114239497D01*
X131321824Y-114282684D01*
X131218635Y-114588934D01*
X131139367Y-114949053D01*
X131099500Y-115315628D01*
X131099500Y-115684371D01*
X129008125Y-115684371D01*
X129008125Y-115684364D01*
X129000500Y-115500000D01*
X129000500Y-115499500D01*
X129000500Y-110905055D01*
X163824500Y-110905055D01*
X163865210Y-111070226D01*
X163944263Y-111220849D01*
X163944266Y-111220852D01*
X164057071Y-111348183D01*
X164147318Y-111410476D01*
X164197068Y-111444817D01*
X164197069Y-111444817D01*
X164197070Y-111444818D01*
X164356128Y-111505140D01*
X164432028Y-111514356D01*
X164482626Y-111520500D01*
X164482628Y-111520500D01*
X165667374Y-111520500D01*
X165709538Y-111515380D01*
X165793872Y-111505140D01*
X165952930Y-111444818D01*
X166092929Y-111348183D01*
X166205734Y-111220852D01*
X166284790Y-111070225D01*
X166325500Y-110905056D01*
X166325500Y-110905055D01*
X168174500Y-110905055D01*
X168215210Y-111070226D01*
X168294263Y-111220849D01*
X168294266Y-111220852D01*
X168407071Y-111348183D01*
X168497318Y-111410476D01*
X168547068Y-111444817D01*
X168547069Y-111444817D01*
X168547070Y-111444818D01*
X168706128Y-111505140D01*
X168782028Y-111514356D01*
X168832626Y-111520500D01*
X168832628Y-111520500D01*
X169717374Y-111520500D01*
X169759538Y-111515380D01*
X169843872Y-111505140D01*
X170002930Y-111444818D01*
X170142929Y-111348183D01*
X170255734Y-111220852D01*
X170334790Y-111070225D01*
X170375500Y-110905056D01*
X170375500Y-110734944D01*
X170334790Y-110569775D01*
X170334789Y-110569773D01*
X170255736Y-110419150D01*
X170236560Y-110397505D01*
X170142929Y-110291817D01*
X170093177Y-110257475D01*
X170002931Y-110195182D01*
X169843874Y-110134860D01*
X169843868Y-110134859D01*
X169717374Y-110119500D01*
X169717372Y-110119500D01*
X168832628Y-110119500D01*
X168832626Y-110119500D01*
X168706131Y-110134859D01*
X168706125Y-110134860D01*
X168547068Y-110195182D01*
X168407072Y-110291816D01*
X168294263Y-110419150D01*
X168215210Y-110569773D01*
X168174500Y-110734944D01*
X168174500Y-110905055D01*
X166325500Y-110905055D01*
X166325500Y-110734944D01*
X166284790Y-110569775D01*
X166284789Y-110569773D01*
X166205736Y-110419150D01*
X166186560Y-110397505D01*
X166092929Y-110291817D01*
X166043177Y-110257475D01*
X165952931Y-110195182D01*
X165834146Y-110150133D01*
X165778443Y-110107955D01*
X165754386Y-110042357D01*
X165769613Y-109974167D01*
X165819289Y-109925034D01*
X165830649Y-109919636D01*
X165887250Y-109896192D01*
X166008304Y-109803304D01*
X166101192Y-109682250D01*
X166159584Y-109541280D01*
X166179500Y-109390000D01*
X166159584Y-109238720D01*
X166101192Y-109097750D01*
X166008304Y-108976696D01*
X165887250Y-108883808D01*
X165887249Y-108883807D01*
X165887247Y-108883806D01*
X165746280Y-108825416D01*
X165746278Y-108825415D01*
X165632981Y-108810500D01*
X165632980Y-108810500D01*
X165557020Y-108810500D01*
X165557019Y-108810500D01*
X165443721Y-108825415D01*
X165443719Y-108825416D01*
X165302752Y-108883806D01*
X165181696Y-108976696D01*
X165088806Y-109097752D01*
X165030416Y-109238719D01*
X165030415Y-109238721D01*
X165010500Y-109389998D01*
X165010500Y-109390001D01*
X165030415Y-109541278D01*
X165030416Y-109541280D01*
X165088806Y-109682247D01*
X165181697Y-109803305D01*
X165303965Y-109897124D01*
X165345168Y-109953552D01*
X165349323Y-110023298D01*
X165315111Y-110084218D01*
X165253393Y-110116971D01*
X165228479Y-110119500D01*
X164482626Y-110119500D01*
X164356131Y-110134859D01*
X164356125Y-110134860D01*
X164197068Y-110195182D01*
X164057072Y-110291816D01*
X163944263Y-110419150D01*
X163865210Y-110569773D01*
X163824500Y-110734944D01*
X163824500Y-110905055D01*
X129000500Y-110905055D01*
X129000500Y-108100000D01*
X135144750Y-108100000D01*
X135154903Y-108177122D01*
X135163670Y-108243708D01*
X135163671Y-108243712D01*
X135219137Y-108377622D01*
X135219138Y-108377624D01*
X135219139Y-108377625D01*
X135307379Y-108492621D01*
X135422375Y-108580861D01*
X135556291Y-108636330D01*
X135683280Y-108653048D01*
X135699999Y-108655250D01*
X135700000Y-108655250D01*
X135700001Y-108655250D01*
X135714977Y-108653278D01*
X135843709Y-108636330D01*
X135977625Y-108580861D01*
X136092621Y-108492621D01*
X136180861Y-108377625D01*
X136236330Y-108243709D01*
X136255250Y-108100000D01*
X136236330Y-107956291D01*
X136212807Y-107899500D01*
X160744750Y-107899500D01*
X160763670Y-108043208D01*
X160763671Y-108043212D01*
X160819137Y-108177122D01*
X160819138Y-108177124D01*
X160819139Y-108177125D01*
X160907379Y-108292121D01*
X161022375Y-108380361D01*
X161156291Y-108435830D01*
X161283280Y-108452548D01*
X161299999Y-108454750D01*
X161300000Y-108454750D01*
X161300001Y-108454750D01*
X161314977Y-108452778D01*
X161443709Y-108435830D01*
X161577625Y-108380361D01*
X161692621Y-108292121D01*
X161780861Y-108177125D01*
X161836330Y-108043209D01*
X161855250Y-107899500D01*
X161836330Y-107755791D01*
X161780861Y-107621875D01*
X161692621Y-107506879D01*
X161577625Y-107418639D01*
X161577624Y-107418638D01*
X161577622Y-107418637D01*
X161443712Y-107363171D01*
X161443710Y-107363170D01*
X161443709Y-107363170D01*
X161371854Y-107353709D01*
X161300001Y-107344250D01*
X161299999Y-107344250D01*
X161156291Y-107363170D01*
X161156287Y-107363171D01*
X161022377Y-107418637D01*
X160907379Y-107506879D01*
X160819137Y-107621877D01*
X160763671Y-107755787D01*
X160763670Y-107755791D01*
X160744750Y-107899499D01*
X160744750Y-107899500D01*
X136212807Y-107899500D01*
X136180861Y-107822375D01*
X136092621Y-107707379D01*
X135977625Y-107619139D01*
X135977624Y-107619138D01*
X135977622Y-107619137D01*
X135843712Y-107563671D01*
X135843710Y-107563670D01*
X135843709Y-107563670D01*
X135771854Y-107554210D01*
X135700001Y-107544750D01*
X135699999Y-107544750D01*
X135556291Y-107563670D01*
X135556287Y-107563671D01*
X135422377Y-107619137D01*
X135307379Y-107707379D01*
X135219137Y-107822377D01*
X135163671Y-107956287D01*
X135163670Y-107956291D01*
X135144750Y-108100000D01*
X129000500Y-108100000D01*
X129000500Y-107200000D01*
X141744750Y-107200000D01*
X141763670Y-107343708D01*
X141763671Y-107343712D01*
X141819137Y-107477622D01*
X141819138Y-107477624D01*
X141819139Y-107477625D01*
X141907379Y-107592621D01*
X142022375Y-107680861D01*
X142156291Y-107736330D01*
X142283280Y-107753048D01*
X142299999Y-107755250D01*
X142300000Y-107755250D01*
X142300001Y-107755250D01*
X142314977Y-107753278D01*
X142443709Y-107736330D01*
X142577625Y-107680861D01*
X142624514Y-107644881D01*
X142689682Y-107619687D01*
X142758127Y-107633725D01*
X142775483Y-107644880D01*
X142822375Y-107680861D01*
X142956291Y-107736330D01*
X143083280Y-107753048D01*
X143099999Y-107755250D01*
X143100000Y-107755250D01*
X143100001Y-107755250D01*
X143114977Y-107753278D01*
X143243709Y-107736330D01*
X143377625Y-107680861D01*
X143492621Y-107592621D01*
X143580861Y-107477625D01*
X143636330Y-107343709D01*
X143655250Y-107200000D01*
X143642085Y-107100000D01*
X154544750Y-107100000D01*
X154557915Y-107200000D01*
X154563670Y-107243708D01*
X154563671Y-107243712D01*
X154619137Y-107377622D01*
X154619138Y-107377624D01*
X154619139Y-107377625D01*
X154707379Y-107492621D01*
X154822375Y-107580861D01*
X154822376Y-107580861D01*
X154822377Y-107580862D01*
X154867013Y-107599350D01*
X154956291Y-107636330D01*
X155083280Y-107653048D01*
X155099999Y-107655250D01*
X155100000Y-107655250D01*
X155100001Y-107655250D01*
X155114977Y-107653278D01*
X155243709Y-107636330D01*
X155377625Y-107580861D01*
X155492621Y-107492621D01*
X155580861Y-107377625D01*
X155636330Y-107243709D01*
X155655250Y-107100000D01*
X155636330Y-106956291D01*
X155580861Y-106822375D01*
X155492621Y-106707379D01*
X155377625Y-106619139D01*
X155377624Y-106619138D01*
X155377622Y-106619137D01*
X155243712Y-106563671D01*
X155243710Y-106563670D01*
X155243709Y-106563670D01*
X155171854Y-106554210D01*
X155100001Y-106544750D01*
X155099999Y-106544750D01*
X154956291Y-106563670D01*
X154956287Y-106563671D01*
X154822377Y-106619137D01*
X154707379Y-106707379D01*
X154619137Y-106822377D01*
X154563671Y-106956287D01*
X154563670Y-106956291D01*
X154550505Y-107056291D01*
X154544750Y-107100000D01*
X143642085Y-107100000D01*
X143636330Y-107056291D01*
X143580861Y-106922375D01*
X143544881Y-106875485D01*
X143519687Y-106810318D01*
X143533725Y-106741873D01*
X143544880Y-106724516D01*
X143580861Y-106677625D01*
X143636330Y-106543709D01*
X143655250Y-106400000D01*
X143636330Y-106256291D01*
X143580861Y-106122375D01*
X143544881Y-106075485D01*
X143519687Y-106010318D01*
X143533725Y-105941873D01*
X143544882Y-105924513D01*
X143544883Y-105924512D01*
X143580861Y-105877625D01*
X143636330Y-105743709D01*
X143655250Y-105600000D01*
X143636330Y-105456291D01*
X143580861Y-105322375D01*
X143563692Y-105300000D01*
X161544750Y-105300000D01*
X161563670Y-105443708D01*
X161563671Y-105443712D01*
X161619137Y-105577622D01*
X161619138Y-105577624D01*
X161619139Y-105577625D01*
X161707379Y-105692621D01*
X161822375Y-105780861D01*
X161956291Y-105836330D01*
X162083280Y-105853048D01*
X162099999Y-105855250D01*
X162100000Y-105855250D01*
X162100001Y-105855250D01*
X162114977Y-105853278D01*
X162243709Y-105836330D01*
X162377625Y-105780861D01*
X162492621Y-105692621D01*
X162580861Y-105577625D01*
X162636330Y-105443709D01*
X162655250Y-105300000D01*
X162636330Y-105156291D01*
X162586641Y-105036329D01*
X162580862Y-105022377D01*
X162580861Y-105022376D01*
X162580861Y-105022375D01*
X162492621Y-104907379D01*
X162377625Y-104819139D01*
X162377624Y-104819138D01*
X162377622Y-104819137D01*
X162243712Y-104763671D01*
X162243710Y-104763670D01*
X162243709Y-104763670D01*
X162171854Y-104754210D01*
X162100001Y-104744750D01*
X162099999Y-104744750D01*
X161956291Y-104763670D01*
X161956287Y-104763671D01*
X161822377Y-104819137D01*
X161707379Y-104907379D01*
X161619137Y-105022377D01*
X161563671Y-105156287D01*
X161563670Y-105156291D01*
X161544750Y-105299999D01*
X161544750Y-105300000D01*
X143563692Y-105300000D01*
X143492621Y-105207379D01*
X143377625Y-105119139D01*
X143377624Y-105119138D01*
X143377622Y-105119137D01*
X143243712Y-105063671D01*
X143243710Y-105063670D01*
X143243709Y-105063670D01*
X143171854Y-105054210D01*
X143100001Y-105044750D01*
X143099999Y-105044750D01*
X142956291Y-105063670D01*
X142956287Y-105063671D01*
X142822376Y-105119138D01*
X142822374Y-105119139D01*
X142775486Y-105155118D01*
X142710317Y-105180312D01*
X142641872Y-105166274D01*
X142624514Y-105155118D01*
X142577625Y-105119139D01*
X142577623Y-105119138D01*
X142443712Y-105063671D01*
X142443710Y-105063670D01*
X142443709Y-105063670D01*
X142371854Y-105054210D01*
X142300001Y-105044750D01*
X142299999Y-105044750D01*
X142156291Y-105063670D01*
X142156287Y-105063671D01*
X142022377Y-105119137D01*
X141907379Y-105207379D01*
X141819137Y-105322377D01*
X141763671Y-105456287D01*
X141763670Y-105456291D01*
X141744750Y-105599999D01*
X141744750Y-105600000D01*
X141763670Y-105743708D01*
X141763671Y-105743712D01*
X141819138Y-105877623D01*
X141819139Y-105877626D01*
X141855117Y-105924512D01*
X141880312Y-105989681D01*
X141866274Y-106058126D01*
X141855119Y-106075484D01*
X141819138Y-106122375D01*
X141819138Y-106122376D01*
X141763671Y-106256287D01*
X141763670Y-106256291D01*
X141744750Y-106399999D01*
X141744750Y-106400000D01*
X141763670Y-106543708D01*
X141763671Y-106543712D01*
X141819138Y-106677623D01*
X141819139Y-106677625D01*
X141855118Y-106724514D01*
X141880312Y-106789683D01*
X141866274Y-106858128D01*
X141855118Y-106875486D01*
X141819139Y-106922374D01*
X141819138Y-106922376D01*
X141763671Y-107056287D01*
X141763670Y-107056291D01*
X141744750Y-107199999D01*
X141744750Y-107200000D01*
X129000500Y-107200000D01*
X129000500Y-104500000D01*
X147144750Y-104500000D01*
X147163670Y-104643708D01*
X147163671Y-104643712D01*
X147219137Y-104777622D01*
X147219138Y-104777624D01*
X147219139Y-104777625D01*
X147307379Y-104892621D01*
X147422375Y-104980861D01*
X147556291Y-105036330D01*
X147683280Y-105053048D01*
X147699999Y-105055250D01*
X147700000Y-105055250D01*
X147700001Y-105055250D01*
X147714977Y-105053278D01*
X147843709Y-105036330D01*
X147977625Y-104980861D01*
X148092621Y-104892621D01*
X148180861Y-104777625D01*
X148236330Y-104643709D01*
X148255250Y-104500000D01*
X148236330Y-104356291D01*
X148180861Y-104222375D01*
X148092621Y-104107379D01*
X147977625Y-104019139D01*
X147977624Y-104019138D01*
X147977622Y-104019137D01*
X147843712Y-103963671D01*
X147843710Y-103963670D01*
X147843709Y-103963670D01*
X147771854Y-103954210D01*
X147700001Y-103944750D01*
X147699999Y-103944750D01*
X147556291Y-103963670D01*
X147556287Y-103963671D01*
X147422377Y-104019137D01*
X147307379Y-104107379D01*
X147219137Y-104222377D01*
X147163671Y-104356287D01*
X147163670Y-104356291D01*
X147144750Y-104499999D01*
X147144750Y-104500000D01*
X129000500Y-104500000D01*
X129000500Y-103000003D01*
X133369435Y-103000003D01*
X133389630Y-103179249D01*
X133389631Y-103179254D01*
X133449211Y-103349523D01*
X133539126Y-103492621D01*
X133545184Y-103502262D01*
X133672738Y-103629816D01*
X133825478Y-103725789D01*
X133995744Y-103785368D01*
X133995745Y-103785368D01*
X133995750Y-103785369D01*
X134086246Y-103795565D01*
X134130040Y-103800499D01*
X134130043Y-103800500D01*
X134130046Y-103800500D01*
X134769957Y-103800500D01*
X134769958Y-103800499D01*
X134837104Y-103792934D01*
X134904249Y-103785369D01*
X134904252Y-103785368D01*
X134904255Y-103785368D01*
X135074522Y-103725789D01*
X135227262Y-103629816D01*
X135354816Y-103502262D01*
X135450789Y-103349522D01*
X135485613Y-103250002D01*
X142819196Y-103250002D01*
X142840279Y-103383121D01*
X142840280Y-103383124D01*
X142840281Y-103383126D01*
X142901472Y-103503220D01*
X142901473Y-103503221D01*
X142901476Y-103503225D01*
X142996774Y-103598523D01*
X142996778Y-103598526D01*
X142996780Y-103598528D01*
X143116874Y-103659719D01*
X143116876Y-103659719D01*
X143116878Y-103659720D01*
X143249998Y-103680804D01*
X143250000Y-103680804D01*
X143250002Y-103680804D01*
X143383121Y-103659720D01*
X143383121Y-103659719D01*
X143383126Y-103659719D01*
X143503220Y-103598528D01*
X143598528Y-103503220D01*
X143603079Y-103494287D01*
X143651051Y-103443490D01*
X143718871Y-103426692D01*
X143732942Y-103428102D01*
X143750000Y-103430804D01*
X143856021Y-103414012D01*
X143883121Y-103409720D01*
X143883121Y-103409719D01*
X143883126Y-103409719D01*
X144003220Y-103348528D01*
X144098528Y-103253220D01*
X144159719Y-103133126D01*
X144162293Y-103116874D01*
X144180804Y-103000002D01*
X144180804Y-102999997D01*
X144159720Y-102866876D01*
X144159719Y-102866874D01*
X144151053Y-102849866D01*
X144128851Y-102806293D01*
X144115955Y-102737626D01*
X144128850Y-102693708D01*
X144159719Y-102633126D01*
X144161935Y-102619139D01*
X144180804Y-102500002D01*
X144180804Y-102499997D01*
X144164966Y-102400000D01*
X147544750Y-102400000D01*
X147557915Y-102500000D01*
X147563670Y-102543708D01*
X147563671Y-102543712D01*
X147619137Y-102677622D01*
X147619138Y-102677624D01*
X147619139Y-102677625D01*
X147707379Y-102792621D01*
X147822375Y-102880861D01*
X147822376Y-102880861D01*
X147822377Y-102880862D01*
X147827843Y-102883126D01*
X147956291Y-102936330D01*
X148082826Y-102952989D01*
X148099999Y-102955250D01*
X148100000Y-102955250D01*
X148100001Y-102955250D01*
X148117174Y-102952989D01*
X148243709Y-102936330D01*
X148377625Y-102880861D01*
X148492621Y-102792621D01*
X148580861Y-102677625D01*
X148613014Y-102600000D01*
X149244750Y-102600000D01*
X149262698Y-102736329D01*
X149263670Y-102743708D01*
X149263671Y-102743712D01*
X149319137Y-102877622D01*
X149319138Y-102877624D01*
X149319139Y-102877625D01*
X149407379Y-102992621D01*
X149522375Y-103080861D01*
X149522376Y-103080861D01*
X149522377Y-103080862D01*
X149567013Y-103099350D01*
X149656291Y-103136330D01*
X149783280Y-103153048D01*
X149799999Y-103155250D01*
X149800000Y-103155250D01*
X149800001Y-103155250D01*
X149814977Y-103153278D01*
X149943709Y-103136330D01*
X150031419Y-103100000D01*
X152044750Y-103100000D01*
X152057915Y-103200000D01*
X152063670Y-103243708D01*
X152063671Y-103243712D01*
X152119137Y-103377622D01*
X152119138Y-103377624D01*
X152119139Y-103377625D01*
X152207379Y-103492621D01*
X152322375Y-103580861D01*
X152322376Y-103580861D01*
X152322377Y-103580862D01*
X152365015Y-103598523D01*
X152456291Y-103636330D01*
X152583280Y-103653048D01*
X152599999Y-103655250D01*
X152600000Y-103655250D01*
X152600001Y-103655250D01*
X152614977Y-103653278D01*
X152743709Y-103636330D01*
X152877625Y-103580861D01*
X152918180Y-103549741D01*
X152983346Y-103524548D01*
X153051791Y-103538586D01*
X153092040Y-103572631D01*
X153107379Y-103592621D01*
X153222375Y-103680861D01*
X153356291Y-103736330D01*
X153483280Y-103753048D01*
X153499999Y-103755250D01*
X153500000Y-103755250D01*
X153500001Y-103755250D01*
X153514977Y-103753278D01*
X153643709Y-103736330D01*
X153777625Y-103680861D01*
X153892621Y-103592621D01*
X153980861Y-103477625D01*
X154036330Y-103343709D01*
X154055250Y-103200000D01*
X154036330Y-103056291D01*
X153986641Y-102936329D01*
X153980862Y-102922377D01*
X153980861Y-102922376D01*
X153980861Y-102922375D01*
X153892621Y-102807379D01*
X153777625Y-102719139D01*
X153777624Y-102719138D01*
X153777622Y-102719137D01*
X153643712Y-102663671D01*
X153643710Y-102663670D01*
X153643709Y-102663670D01*
X153543508Y-102650478D01*
X153500001Y-102644750D01*
X153499999Y-102644750D01*
X153356291Y-102663670D01*
X153356287Y-102663671D01*
X153222376Y-102719138D01*
X153222375Y-102719138D01*
X153181819Y-102750258D01*
X153116650Y-102775451D01*
X153048205Y-102761412D01*
X153007958Y-102727367D01*
X152992622Y-102707380D01*
X152974797Y-102693702D01*
X152877625Y-102619139D01*
X152877624Y-102619138D01*
X152877622Y-102619137D01*
X152743712Y-102563671D01*
X152743710Y-102563670D01*
X152743709Y-102563670D01*
X152671854Y-102554210D01*
X152600001Y-102544750D01*
X152599999Y-102544750D01*
X152456291Y-102563670D01*
X152456287Y-102563671D01*
X152322377Y-102619137D01*
X152207379Y-102707379D01*
X152119137Y-102822377D01*
X152063671Y-102956287D01*
X152063670Y-102956291D01*
X152047270Y-103080862D01*
X152044750Y-103100000D01*
X150031419Y-103100000D01*
X150077625Y-103080861D01*
X150192621Y-102992621D01*
X150280861Y-102877625D01*
X150336330Y-102743709D01*
X150355250Y-102600000D01*
X150336330Y-102456291D01*
X150280861Y-102322375D01*
X150192621Y-102207379D01*
X150183005Y-102200000D01*
X154644750Y-102200000D01*
X154663218Y-102340279D01*
X154663670Y-102343708D01*
X154663671Y-102343712D01*
X154719137Y-102477622D01*
X154719138Y-102477624D01*
X154719139Y-102477625D01*
X154807379Y-102592621D01*
X154922375Y-102680861D01*
X155056291Y-102736330D01*
X155183280Y-102753048D01*
X155199999Y-102755250D01*
X155200000Y-102755250D01*
X155200001Y-102755250D01*
X155214977Y-102753278D01*
X155343709Y-102736330D01*
X155477625Y-102680861D01*
X155592621Y-102592621D01*
X155680861Y-102477625D01*
X155736330Y-102343709D01*
X155746685Y-102265056D01*
X163824500Y-102265056D01*
X163834718Y-102306512D01*
X163865210Y-102430226D01*
X163944263Y-102580849D01*
X163973026Y-102613316D01*
X164057071Y-102708183D01*
X164117649Y-102749997D01*
X164197068Y-102804817D01*
X164197069Y-102804817D01*
X164197070Y-102804818D01*
X164356128Y-102865140D01*
X164432028Y-102874356D01*
X164482626Y-102880500D01*
X165228479Y-102880500D01*
X165295518Y-102900185D01*
X165341273Y-102952989D01*
X165351217Y-103022147D01*
X165322192Y-103085703D01*
X165303965Y-103102876D01*
X165181697Y-103196694D01*
X165088806Y-103317752D01*
X165030416Y-103458719D01*
X165030415Y-103458721D01*
X165010500Y-103609998D01*
X165010500Y-103610001D01*
X165030415Y-103761278D01*
X165030416Y-103761280D01*
X165088806Y-103902247D01*
X165088807Y-103902249D01*
X165088808Y-103902250D01*
X165181696Y-104023304D01*
X165302750Y-104116192D01*
X165443720Y-104174584D01*
X165500369Y-104182042D01*
X165557019Y-104189500D01*
X165557020Y-104189500D01*
X165632981Y-104189500D01*
X165670746Y-104184528D01*
X165746280Y-104174584D01*
X165887250Y-104116192D01*
X166008304Y-104023304D01*
X166101192Y-103902250D01*
X166159584Y-103761280D01*
X166179500Y-103610000D01*
X166177989Y-103598526D01*
X166165316Y-103502262D01*
X166159584Y-103458720D01*
X166101192Y-103317750D01*
X166008304Y-103196696D01*
X165887250Y-103103808D01*
X165887246Y-103103806D01*
X165830664Y-103080369D01*
X165776261Y-103036528D01*
X165754196Y-102970234D01*
X165771475Y-102902535D01*
X165822612Y-102854924D01*
X165834141Y-102849868D01*
X165952930Y-102804818D01*
X166092929Y-102708183D01*
X166205734Y-102580852D01*
X166214752Y-102563671D01*
X166284789Y-102430226D01*
X166284790Y-102430225D01*
X166325500Y-102265056D01*
X168174500Y-102265056D01*
X168184718Y-102306512D01*
X168215210Y-102430226D01*
X168294263Y-102580849D01*
X168323026Y-102613316D01*
X168407071Y-102708183D01*
X168467649Y-102749997D01*
X168547068Y-102804817D01*
X168547069Y-102804817D01*
X168547070Y-102804818D01*
X168706128Y-102865140D01*
X168782028Y-102874356D01*
X168832626Y-102880500D01*
X168832628Y-102880500D01*
X169717374Y-102880500D01*
X169759538Y-102875380D01*
X169843872Y-102865140D01*
X170002930Y-102804818D01*
X170142929Y-102708183D01*
X170255734Y-102580852D01*
X170264752Y-102563671D01*
X170334789Y-102430226D01*
X170334790Y-102430225D01*
X170375500Y-102265056D01*
X170375500Y-102094944D01*
X170334790Y-101929775D01*
X170300095Y-101863670D01*
X170255736Y-101779150D01*
X170208461Y-101725788D01*
X170142929Y-101651817D01*
X170093177Y-101617475D01*
X170002931Y-101555182D01*
X169843874Y-101494860D01*
X169843868Y-101494859D01*
X169717374Y-101479500D01*
X169717372Y-101479500D01*
X168832628Y-101479500D01*
X168832626Y-101479500D01*
X168706131Y-101494859D01*
X168706125Y-101494860D01*
X168547068Y-101555182D01*
X168407072Y-101651816D01*
X168294263Y-101779150D01*
X168215210Y-101929773D01*
X168184028Y-102056287D01*
X168174500Y-102094944D01*
X168174500Y-102265056D01*
X166325500Y-102265056D01*
X166325500Y-102094944D01*
X166284790Y-101929775D01*
X166250095Y-101863670D01*
X166205736Y-101779150D01*
X166158461Y-101725788D01*
X166092929Y-101651817D01*
X166043177Y-101617475D01*
X165952931Y-101555182D01*
X165793874Y-101494860D01*
X165793868Y-101494859D01*
X165667374Y-101479500D01*
X165667372Y-101479500D01*
X164482628Y-101479500D01*
X164482626Y-101479500D01*
X164356131Y-101494859D01*
X164356125Y-101494860D01*
X164197068Y-101555182D01*
X164057072Y-101651816D01*
X163944263Y-101779150D01*
X163865210Y-101929773D01*
X163834028Y-102056287D01*
X163824500Y-102094944D01*
X163824500Y-102265056D01*
X155746685Y-102265056D01*
X155755250Y-102200000D01*
X155736330Y-102056291D01*
X155680861Y-101922375D01*
X155592621Y-101807379D01*
X155477625Y-101719139D01*
X155477624Y-101719138D01*
X155477622Y-101719137D01*
X155343712Y-101663671D01*
X155343710Y-101663670D01*
X155343709Y-101663670D01*
X155253671Y-101651816D01*
X155200001Y-101644750D01*
X155199999Y-101644750D01*
X155056291Y-101663670D01*
X155056287Y-101663671D01*
X154922377Y-101719137D01*
X154807379Y-101807379D01*
X154719137Y-101922377D01*
X154663671Y-102056287D01*
X154663670Y-102056291D01*
X154644750Y-102200000D01*
X150183005Y-102200000D01*
X150077625Y-102119139D01*
X150077624Y-102119138D01*
X150077622Y-102119137D01*
X149943712Y-102063671D01*
X149943710Y-102063670D01*
X149943709Y-102063670D01*
X149871854Y-102054210D01*
X149800001Y-102044750D01*
X149799999Y-102044750D01*
X149656291Y-102063670D01*
X149656287Y-102063671D01*
X149522377Y-102119137D01*
X149407379Y-102207379D01*
X149319137Y-102322377D01*
X149263671Y-102456287D01*
X149263670Y-102456291D01*
X149245722Y-102592620D01*
X149244750Y-102600000D01*
X148613014Y-102600000D01*
X148636330Y-102543709D01*
X148655250Y-102400000D01*
X148636330Y-102256291D01*
X148580861Y-102122375D01*
X148492621Y-102007379D01*
X148377625Y-101919139D01*
X148377624Y-101919138D01*
X148377622Y-101919137D01*
X148243712Y-101863671D01*
X148243710Y-101863670D01*
X148243709Y-101863670D01*
X148171854Y-101854210D01*
X148100001Y-101844750D01*
X148099999Y-101844750D01*
X147956291Y-101863670D01*
X147956287Y-101863671D01*
X147822377Y-101919137D01*
X147707379Y-102007379D01*
X147619137Y-102122377D01*
X147563671Y-102256287D01*
X147563670Y-102256291D01*
X147552613Y-102340279D01*
X147544750Y-102400000D01*
X144164966Y-102400000D01*
X144159720Y-102366878D01*
X144159719Y-102366876D01*
X144159719Y-102366874D01*
X144098528Y-102246780D01*
X144098526Y-102246778D01*
X144098523Y-102246774D01*
X144003225Y-102151476D01*
X144003221Y-102151473D01*
X144003221Y-102151472D01*
X144003220Y-102151472D01*
X143883126Y-102090281D01*
X143883124Y-102090280D01*
X143883121Y-102090279D01*
X143750002Y-102069196D01*
X143749998Y-102069196D01*
X143616878Y-102090279D01*
X143496778Y-102151473D01*
X143496774Y-102151476D01*
X143401472Y-102246779D01*
X143401471Y-102246779D01*
X143396917Y-102255718D01*
X143348942Y-102306512D01*
X143281120Y-102323306D01*
X143267040Y-102321894D01*
X143250002Y-102319196D01*
X143249998Y-102319196D01*
X143116878Y-102340279D01*
X143116874Y-102340280D01*
X143116874Y-102340281D01*
X143058186Y-102370184D01*
X142996778Y-102401473D01*
X142996774Y-102401476D01*
X142901476Y-102496774D01*
X142901473Y-102496778D01*
X142840279Y-102616878D01*
X142819196Y-102749997D01*
X142819196Y-102750002D01*
X142840279Y-102883122D01*
X142871148Y-102943707D01*
X142884043Y-103012376D01*
X142871148Y-103056293D01*
X142840279Y-103116877D01*
X142819196Y-103249997D01*
X142819196Y-103250002D01*
X135485613Y-103250002D01*
X135510368Y-103179255D01*
X135513073Y-103155250D01*
X135530565Y-103000003D01*
X135530565Y-102999996D01*
X135510369Y-102820750D01*
X135510368Y-102820745D01*
X135487450Y-102755250D01*
X135450789Y-102650478D01*
X135439883Y-102633122D01*
X135396244Y-102563670D01*
X135354816Y-102497738D01*
X135227262Y-102370184D01*
X135185132Y-102343712D01*
X135074523Y-102274211D01*
X134904254Y-102214631D01*
X134904249Y-102214630D01*
X134769960Y-102199500D01*
X134769954Y-102199500D01*
X134130046Y-102199500D01*
X134130039Y-102199500D01*
X133995750Y-102214630D01*
X133995745Y-102214631D01*
X133825476Y-102274211D01*
X133672737Y-102370184D01*
X133545184Y-102497737D01*
X133449211Y-102650476D01*
X133389631Y-102820745D01*
X133389630Y-102820750D01*
X133369435Y-102999996D01*
X133369435Y-103000003D01*
X129000500Y-103000003D01*
X129000500Y-101000003D01*
X133369435Y-101000003D01*
X133389630Y-101179249D01*
X133389631Y-101179254D01*
X133449211Y-101349523D01*
X133530882Y-101479500D01*
X133545184Y-101502262D01*
X133672738Y-101629816D01*
X133726618Y-101663671D01*
X133814894Y-101719139D01*
X133825478Y-101725789D01*
X133977969Y-101779148D01*
X133995745Y-101785368D01*
X133995750Y-101785369D01*
X134086246Y-101795565D01*
X134130040Y-101800499D01*
X134130043Y-101800500D01*
X134130046Y-101800500D01*
X134769957Y-101800500D01*
X134769958Y-101800499D01*
X134837104Y-101792934D01*
X134904249Y-101785369D01*
X134904252Y-101785368D01*
X134904255Y-101785368D01*
X135074522Y-101725789D01*
X135227262Y-101629816D01*
X135354816Y-101502262D01*
X135450789Y-101349522D01*
X135510368Y-101179255D01*
X135514373Y-101143708D01*
X135530565Y-101000003D01*
X135530565Y-101000000D01*
X151944750Y-101000000D01*
X151962698Y-101136329D01*
X151963670Y-101143708D01*
X151963671Y-101143712D01*
X152019137Y-101277622D01*
X152019138Y-101277624D01*
X152019139Y-101277625D01*
X152107379Y-101392621D01*
X152222375Y-101480861D01*
X152356291Y-101536330D01*
X152483280Y-101553048D01*
X152499999Y-101555250D01*
X152500000Y-101555250D01*
X152500001Y-101555250D01*
X152514977Y-101553278D01*
X152643709Y-101536330D01*
X152777625Y-101480861D01*
X152892621Y-101392621D01*
X152980861Y-101277625D01*
X153036330Y-101143709D01*
X153055250Y-101000000D01*
X153055249Y-100999996D01*
X153053048Y-100983280D01*
X153036330Y-100856291D01*
X152980861Y-100722375D01*
X152892621Y-100607379D01*
X152883005Y-100600000D01*
X156944750Y-100600000D01*
X156963670Y-100743708D01*
X156963671Y-100743712D01*
X157019137Y-100877622D01*
X157019138Y-100877624D01*
X157019139Y-100877625D01*
X157107379Y-100992621D01*
X157222375Y-101080861D01*
X157356291Y-101136330D01*
X157483280Y-101153048D01*
X157499999Y-101155250D01*
X157500000Y-101155250D01*
X157500001Y-101155250D01*
X157514977Y-101153278D01*
X157643709Y-101136330D01*
X157777625Y-101080861D01*
X157892621Y-100992621D01*
X157980861Y-100877625D01*
X158036330Y-100743709D01*
X158055250Y-100600000D01*
X158036330Y-100456291D01*
X157980861Y-100322375D01*
X157892621Y-100207379D01*
X157777625Y-100119139D01*
X157777624Y-100119138D01*
X157777622Y-100119137D01*
X157643712Y-100063671D01*
X157643710Y-100063670D01*
X157643709Y-100063670D01*
X157571854Y-100054210D01*
X157500001Y-100044750D01*
X157499999Y-100044750D01*
X157356291Y-100063670D01*
X157356287Y-100063671D01*
X157222377Y-100119137D01*
X157107379Y-100207379D01*
X157019137Y-100322377D01*
X156963671Y-100456287D01*
X156963670Y-100456291D01*
X156944750Y-100599999D01*
X156944750Y-100600000D01*
X152883005Y-100600000D01*
X152777625Y-100519139D01*
X152777624Y-100519138D01*
X152777622Y-100519137D01*
X152643712Y-100463671D01*
X152643710Y-100463670D01*
X152643709Y-100463670D01*
X152571854Y-100454210D01*
X152500001Y-100444750D01*
X152499999Y-100444750D01*
X152356291Y-100463670D01*
X152356287Y-100463671D01*
X152222377Y-100519137D01*
X152107379Y-100607379D01*
X152019137Y-100722377D01*
X151963671Y-100856287D01*
X151963670Y-100856291D01*
X151944751Y-100999996D01*
X151944750Y-101000000D01*
X135530565Y-101000000D01*
X135530565Y-100999996D01*
X135510369Y-100820750D01*
X135510368Y-100820745D01*
X135483412Y-100743709D01*
X135450789Y-100650478D01*
X135354816Y-100497738D01*
X135227262Y-100370184D01*
X135151178Y-100322377D01*
X135074523Y-100274211D01*
X134904254Y-100214631D01*
X134904249Y-100214630D01*
X134769960Y-100199500D01*
X134769954Y-100199500D01*
X134130046Y-100199500D01*
X134130039Y-100199500D01*
X133995750Y-100214630D01*
X133995745Y-100214631D01*
X133825476Y-100274211D01*
X133672737Y-100370184D01*
X133545184Y-100497737D01*
X133449211Y-100650476D01*
X133389631Y-100820745D01*
X133389630Y-100820750D01*
X133369435Y-100999996D01*
X133369435Y-101000003D01*
X129000500Y-101000003D01*
X129000500Y-99000003D01*
X133369435Y-99000003D01*
X133389630Y-99179249D01*
X133389631Y-99179254D01*
X133449211Y-99349523D01*
X133544971Y-99501923D01*
X133545184Y-99502262D01*
X133672738Y-99629816D01*
X133825478Y-99725789D01*
X133925045Y-99760629D01*
X133995745Y-99785368D01*
X133995750Y-99785369D01*
X134086246Y-99795565D01*
X134130040Y-99800499D01*
X134130043Y-99800500D01*
X134130046Y-99800500D01*
X134769957Y-99800500D01*
X134769958Y-99800499D01*
X134837104Y-99792934D01*
X134904249Y-99785369D01*
X134904252Y-99785368D01*
X134904255Y-99785368D01*
X135074522Y-99725789D01*
X135227262Y-99629816D01*
X135354816Y-99502262D01*
X135450789Y-99349522D01*
X135494606Y-99224301D01*
X151919258Y-99224301D01*
X151938178Y-99368009D01*
X151938179Y-99368013D01*
X151993645Y-99501923D01*
X151993646Y-99501925D01*
X151993647Y-99501926D01*
X152081887Y-99616922D01*
X152196883Y-99705162D01*
X152330799Y-99760631D01*
X152457788Y-99777349D01*
X152474507Y-99779551D01*
X152474508Y-99779551D01*
X152474509Y-99779551D01*
X152489485Y-99777579D01*
X152618217Y-99760631D01*
X152752133Y-99705162D01*
X152867129Y-99616922D01*
X152955369Y-99501926D01*
X153010838Y-99368010D01*
X153029758Y-99224301D01*
X153010838Y-99080592D01*
X152955369Y-98946676D01*
X152867129Y-98831680D01*
X152752133Y-98743440D01*
X152752132Y-98743439D01*
X152752130Y-98743438D01*
X152618220Y-98687972D01*
X152618218Y-98687971D01*
X152618217Y-98687971D01*
X152546362Y-98678511D01*
X152474509Y-98669051D01*
X152474507Y-98669051D01*
X152330799Y-98687971D01*
X152330795Y-98687972D01*
X152196885Y-98743438D01*
X152081887Y-98831680D01*
X151993645Y-98946678D01*
X151938179Y-99080588D01*
X151938178Y-99080592D01*
X151919258Y-99224300D01*
X151919258Y-99224301D01*
X135494606Y-99224301D01*
X135510368Y-99179255D01*
X135530565Y-99000000D01*
X135524557Y-98946678D01*
X135510369Y-98820750D01*
X135510368Y-98820745D01*
X135483317Y-98743438D01*
X135450789Y-98650478D01*
X135354816Y-98497738D01*
X135227262Y-98370184D01*
X135098320Y-98289164D01*
X135074523Y-98274211D01*
X134904254Y-98214631D01*
X134904249Y-98214630D01*
X134769960Y-98199500D01*
X134769954Y-98199500D01*
X134130046Y-98199500D01*
X134130039Y-98199500D01*
X133995750Y-98214630D01*
X133995745Y-98214631D01*
X133825476Y-98274211D01*
X133672737Y-98370184D01*
X133545184Y-98497737D01*
X133449211Y-98650476D01*
X133389631Y-98820745D01*
X133389630Y-98820750D01*
X133369435Y-98999996D01*
X133369435Y-99000003D01*
X129000500Y-99000003D01*
X129000500Y-97404269D01*
X133374500Y-97404269D01*
X133377353Y-97434699D01*
X133377353Y-97434701D01*
X133415673Y-97544209D01*
X133422207Y-97562882D01*
X133502850Y-97672150D01*
X133612118Y-97752793D01*
X133634818Y-97760736D01*
X133740299Y-97797646D01*
X133770730Y-97800500D01*
X133770734Y-97800500D01*
X135129270Y-97800500D01*
X135159699Y-97797646D01*
X135159701Y-97797646D01*
X135226810Y-97774163D01*
X135287882Y-97752793D01*
X135397150Y-97672150D01*
X135477793Y-97562882D01*
X135506493Y-97480861D01*
X135522646Y-97434701D01*
X135522646Y-97434699D01*
X135525500Y-97404269D01*
X135525500Y-97250002D01*
X142819196Y-97250002D01*
X142840279Y-97383121D01*
X142840280Y-97383124D01*
X142840281Y-97383126D01*
X142901472Y-97503220D01*
X142901473Y-97503221D01*
X142901476Y-97503225D01*
X142996774Y-97598523D01*
X142996778Y-97598526D01*
X142996780Y-97598528D01*
X143116874Y-97659719D01*
X143116876Y-97659719D01*
X143116878Y-97659720D01*
X143183437Y-97670261D01*
X143250000Y-97680804D01*
X143267036Y-97678105D01*
X143336325Y-97687058D01*
X143389779Y-97732052D01*
X143396913Y-97744274D01*
X143401472Y-97753220D01*
X143401474Y-97753222D01*
X143401476Y-97753225D01*
X143496774Y-97848523D01*
X143496778Y-97848526D01*
X143496780Y-97848528D01*
X143616874Y-97909719D01*
X143616876Y-97909719D01*
X143616878Y-97909720D01*
X143749998Y-97930804D01*
X143750000Y-97930804D01*
X143750002Y-97930804D01*
X143883121Y-97909720D01*
X143883121Y-97909719D01*
X143883126Y-97909719D01*
X144003220Y-97848528D01*
X144051748Y-97800000D01*
X147544750Y-97800000D01*
X147556668Y-97890528D01*
X147563670Y-97943708D01*
X147563671Y-97943712D01*
X147619137Y-98077622D01*
X147619138Y-98077624D01*
X147619139Y-98077625D01*
X147707379Y-98192621D01*
X147822375Y-98280861D01*
X147822376Y-98280861D01*
X147822377Y-98280862D01*
X147867013Y-98299350D01*
X147956291Y-98336330D01*
X148083280Y-98353048D01*
X148099999Y-98355250D01*
X148100000Y-98355250D01*
X148100001Y-98355250D01*
X148114977Y-98353278D01*
X148243709Y-98336330D01*
X148377625Y-98280861D01*
X148492621Y-98192621D01*
X148580861Y-98077625D01*
X148636330Y-97943709D01*
X148655250Y-97800000D01*
X148640524Y-97688148D01*
X148651289Y-97619115D01*
X148697669Y-97566859D01*
X148747275Y-97549025D01*
X148843709Y-97536330D01*
X148977625Y-97480861D01*
X149092621Y-97392621D01*
X149180861Y-97277625D01*
X149231800Y-97154643D01*
X149275639Y-97100243D01*
X149341933Y-97078177D01*
X149409632Y-97095455D01*
X149421838Y-97103716D01*
X149522375Y-97180861D01*
X149656291Y-97236330D01*
X149783280Y-97253048D01*
X149799999Y-97255250D01*
X149800000Y-97255250D01*
X149800001Y-97255250D01*
X149814977Y-97253278D01*
X149943709Y-97236330D01*
X150077625Y-97180861D01*
X150183005Y-97100000D01*
X153644750Y-97100000D01*
X153662698Y-97236329D01*
X153663670Y-97243708D01*
X153663671Y-97243712D01*
X153719137Y-97377622D01*
X153719138Y-97377624D01*
X153719139Y-97377625D01*
X153807379Y-97492621D01*
X153922375Y-97580861D01*
X153922376Y-97580861D01*
X153922377Y-97580862D01*
X153989333Y-97608595D01*
X154056291Y-97636330D01*
X154056294Y-97636330D01*
X154063282Y-97638203D01*
X154122943Y-97674567D01*
X154153473Y-97737414D01*
X154154129Y-97774163D01*
X154138399Y-97893646D01*
X154138399Y-97893649D01*
X154157319Y-98037357D01*
X154157320Y-98037361D01*
X154212786Y-98171271D01*
X154212787Y-98171273D01*
X154212788Y-98171274D01*
X154301028Y-98286270D01*
X154416024Y-98374510D01*
X154416025Y-98374510D01*
X154416026Y-98374511D01*
X154422173Y-98377057D01*
X154549940Y-98429979D01*
X154676929Y-98446697D01*
X154693648Y-98448899D01*
X154693649Y-98448899D01*
X154693650Y-98448899D01*
X154708626Y-98446927D01*
X154837358Y-98429979D01*
X154971274Y-98374510D01*
X154971281Y-98374504D01*
X154977910Y-98370678D01*
X155045810Y-98354205D01*
X155111837Y-98377057D01*
X155138283Y-98402575D01*
X155207379Y-98492621D01*
X155322375Y-98580861D01*
X155456291Y-98636330D01*
X155583280Y-98653048D01*
X155599999Y-98655250D01*
X155600000Y-98655250D01*
X155600001Y-98655250D01*
X155614977Y-98653278D01*
X155743709Y-98636330D01*
X155877625Y-98580861D01*
X155992621Y-98492621D01*
X156080861Y-98377625D01*
X156136330Y-98243709D01*
X156155250Y-98100000D01*
X156136330Y-97956291D01*
X156091692Y-97848523D01*
X156080862Y-97822377D01*
X156080861Y-97822376D01*
X156080861Y-97822375D01*
X155992621Y-97707379D01*
X155877625Y-97619139D01*
X155877624Y-97619138D01*
X155877622Y-97619137D01*
X155743712Y-97563671D01*
X155743710Y-97563670D01*
X155743709Y-97563670D01*
X155671854Y-97554210D01*
X155600001Y-97544750D01*
X155599999Y-97544750D01*
X155456291Y-97563670D01*
X155456287Y-97563671D01*
X155322374Y-97619138D01*
X155315729Y-97622975D01*
X155247827Y-97639442D01*
X155181802Y-97616585D01*
X155155364Y-97591073D01*
X155086270Y-97501028D01*
X154971274Y-97412788D01*
X154971273Y-97412787D01*
X154971271Y-97412786D01*
X154941609Y-97400500D01*
X158535484Y-97400500D01*
X158553366Y-97536328D01*
X158554404Y-97544208D01*
X158554405Y-97544212D01*
X158609871Y-97678122D01*
X158609872Y-97678124D01*
X158609873Y-97678125D01*
X158698113Y-97793121D01*
X158813109Y-97881361D01*
X158947025Y-97936830D01*
X159074014Y-97953548D01*
X159090733Y-97955750D01*
X159090734Y-97955750D01*
X159090735Y-97955750D01*
X159105711Y-97953778D01*
X159234443Y-97936830D01*
X159368359Y-97881361D01*
X159483355Y-97793121D01*
X159571595Y-97678125D01*
X159627064Y-97544209D01*
X159642100Y-97430000D01*
X162460840Y-97430000D01*
X162501652Y-97564541D01*
X162594503Y-97738253D01*
X162594507Y-97738260D01*
X162719471Y-97890528D01*
X162871739Y-98015491D01*
X163045465Y-98108349D01*
X163180000Y-98149159D01*
X163180000Y-97430000D01*
X162460840Y-97430000D01*
X159642100Y-97430000D01*
X159645984Y-97400500D01*
X159627064Y-97256791D01*
X159571595Y-97122875D01*
X159483355Y-97007879D01*
X159381860Y-96929999D01*
X162460839Y-96929999D01*
X162460840Y-96930000D01*
X163215517Y-96930000D01*
X163144199Y-97014993D01*
X163105000Y-97122694D01*
X163105000Y-97237306D01*
X163144199Y-97345007D01*
X163217871Y-97432805D01*
X163317129Y-97490112D01*
X163401564Y-97505000D01*
X163458436Y-97505000D01*
X163542871Y-97490112D01*
X163642129Y-97432805D01*
X163680000Y-97387672D01*
X163680000Y-98149159D01*
X163814534Y-98108349D01*
X163988260Y-98015491D01*
X164140527Y-97890529D01*
X164198668Y-97819683D01*
X164256413Y-97780348D01*
X164326258Y-97778477D01*
X164352148Y-97788551D01*
X164449773Y-97839789D01*
X164449775Y-97839790D01*
X164614944Y-97880500D01*
X164785056Y-97880500D01*
X164950225Y-97839790D01*
X165067046Y-97778477D01*
X165100849Y-97760736D01*
X165100850Y-97760734D01*
X165100852Y-97760734D01*
X165228183Y-97647929D01*
X165324818Y-97507930D01*
X165385140Y-97348872D01*
X165405645Y-97180000D01*
X165385140Y-97011128D01*
X165324818Y-96852070D01*
X165320110Y-96845250D01*
X165254365Y-96750002D01*
X165228183Y-96712071D01*
X165144363Y-96637813D01*
X165107238Y-96578626D01*
X165108006Y-96508761D01*
X165144363Y-96452186D01*
X165228183Y-96377929D01*
X165324818Y-96237930D01*
X165385140Y-96078872D01*
X165405645Y-95910000D01*
X165385140Y-95741128D01*
X165324818Y-95582070D01*
X165318602Y-95573065D01*
X165290476Y-95532318D01*
X165228183Y-95442071D01*
X165144363Y-95367813D01*
X165107238Y-95308626D01*
X165108006Y-95238761D01*
X165144363Y-95182186D01*
X165228183Y-95107929D01*
X165324818Y-94967930D01*
X165385140Y-94808872D01*
X165405645Y-94640000D01*
X165385140Y-94471128D01*
X165324818Y-94312070D01*
X165228183Y-94172071D01*
X165144363Y-94097813D01*
X165107238Y-94038626D01*
X165108006Y-93968761D01*
X165144363Y-93912186D01*
X165228183Y-93837929D01*
X165324818Y-93697930D01*
X165385140Y-93538872D01*
X165405645Y-93370000D01*
X165385140Y-93201128D01*
X165324818Y-93042070D01*
X165228183Y-92902071D01*
X165144363Y-92827813D01*
X165107238Y-92768626D01*
X165108006Y-92698761D01*
X165144363Y-92642186D01*
X165228183Y-92567929D01*
X165324818Y-92427930D01*
X165385140Y-92268872D01*
X165405645Y-92100000D01*
X165385140Y-91931128D01*
X165324818Y-91772070D01*
X165228183Y-91632071D01*
X165108776Y-91526286D01*
X165100849Y-91519263D01*
X164950226Y-91440210D01*
X164785056Y-91399500D01*
X164614944Y-91399500D01*
X164449773Y-91440210D01*
X164299149Y-91519264D01*
X164299147Y-91519266D01*
X164291223Y-91526286D01*
X164227989Y-91556005D01*
X164158726Y-91546820D01*
X164105897Y-91502358D01*
X164074553Y-91455448D01*
X164008230Y-91411132D01*
X164008229Y-91411131D01*
X163949752Y-91399500D01*
X163949748Y-91399500D01*
X162910252Y-91399500D01*
X162910247Y-91399500D01*
X162851770Y-91411131D01*
X162851769Y-91411132D01*
X162785447Y-91455447D01*
X162741132Y-91521769D01*
X162741131Y-91521770D01*
X162729500Y-91580247D01*
X162729500Y-92602885D01*
X162709815Y-92669924D01*
X162701353Y-92681550D01*
X162594507Y-92811739D01*
X162594503Y-92811746D01*
X162501652Y-92985458D01*
X162460839Y-93119999D01*
X162460840Y-93120000D01*
X163215517Y-93120000D01*
X163144199Y-93204993D01*
X163105000Y-93312694D01*
X163105000Y-93427306D01*
X163144199Y-93535007D01*
X163217871Y-93622805D01*
X163317129Y-93680112D01*
X163401564Y-93695000D01*
X163458436Y-93695000D01*
X163542871Y-93680112D01*
X163642129Y-93622805D01*
X163680000Y-93577672D01*
X163680000Y-94432327D01*
X163642129Y-94387195D01*
X163542871Y-94329888D01*
X163458436Y-94315000D01*
X163401564Y-94315000D01*
X163317129Y-94329888D01*
X163217871Y-94387195D01*
X163144199Y-94474993D01*
X163105000Y-94582694D01*
X163105000Y-94697306D01*
X163144199Y-94805007D01*
X163215517Y-94890000D01*
X162460840Y-94890000D01*
X162501652Y-95024541D01*
X162594503Y-95198253D01*
X162594507Y-95198260D01*
X162719471Y-95350528D01*
X162788009Y-95406776D01*
X162827343Y-95464522D01*
X162829214Y-95534367D01*
X162811397Y-95573065D01*
X162805183Y-95582067D01*
X162805182Y-95582068D01*
X162744860Y-95741125D01*
X162744859Y-95741130D01*
X162724355Y-95910000D01*
X162744859Y-96078869D01*
X162744860Y-96078874D01*
X162805182Y-96237930D01*
X162811395Y-96246931D01*
X162833277Y-96313285D01*
X162815811Y-96380937D01*
X162788010Y-96413222D01*
X162719472Y-96469470D01*
X162594507Y-96621739D01*
X162594503Y-96621746D01*
X162501652Y-96795458D01*
X162460839Y-96929999D01*
X159381860Y-96929999D01*
X159368359Y-96919639D01*
X159368358Y-96919638D01*
X159368356Y-96919637D01*
X159234446Y-96864171D01*
X159234444Y-96864170D01*
X159234443Y-96864170D01*
X159142521Y-96852068D01*
X159090735Y-96845250D01*
X159090733Y-96845250D01*
X158947025Y-96864170D01*
X158947021Y-96864171D01*
X158813111Y-96919637D01*
X158698113Y-97007879D01*
X158609871Y-97122877D01*
X158554405Y-97256787D01*
X158554404Y-97256791D01*
X158538496Y-97377625D01*
X158535484Y-97400500D01*
X154941609Y-97400500D01*
X154837361Y-97357320D01*
X154837359Y-97357319D01*
X154837358Y-97357319D01*
X154837356Y-97357318D01*
X154830360Y-97355444D01*
X154770701Y-97319077D01*
X154740174Y-97256229D01*
X154739519Y-97219484D01*
X154744718Y-97180000D01*
X154755250Y-97100000D01*
X154736330Y-96956291D01*
X154680861Y-96822375D01*
X154592621Y-96707379D01*
X154477625Y-96619139D01*
X154477624Y-96619138D01*
X154477622Y-96619137D01*
X154343712Y-96563671D01*
X154343710Y-96563670D01*
X154343709Y-96563670D01*
X154271854Y-96554210D01*
X154200001Y-96544750D01*
X154199999Y-96544750D01*
X154056291Y-96563670D01*
X154056287Y-96563671D01*
X153922377Y-96619137D01*
X153807379Y-96707379D01*
X153719137Y-96822377D01*
X153663671Y-96956287D01*
X153663670Y-96956291D01*
X153645722Y-97092620D01*
X153644750Y-97100000D01*
X150183005Y-97100000D01*
X150192621Y-97092621D01*
X150280861Y-96977625D01*
X150336330Y-96843709D01*
X150355250Y-96700000D01*
X150336330Y-96556291D01*
X150280861Y-96422375D01*
X150192621Y-96307379D01*
X150077625Y-96219139D01*
X150077624Y-96219138D01*
X150077622Y-96219137D01*
X149943712Y-96163671D01*
X149943710Y-96163670D01*
X149943709Y-96163670D01*
X149871854Y-96154210D01*
X149800001Y-96144750D01*
X149799999Y-96144750D01*
X149656291Y-96163670D01*
X149656287Y-96163671D01*
X149522377Y-96219137D01*
X149485796Y-96247207D01*
X149407379Y-96307379D01*
X149326163Y-96413222D01*
X149319137Y-96422378D01*
X149268200Y-96545353D01*
X149224359Y-96599757D01*
X149158065Y-96621822D01*
X149090366Y-96604543D01*
X149078157Y-96596280D01*
X148977625Y-96519139D01*
X148977624Y-96519138D01*
X148977622Y-96519137D01*
X148843712Y-96463671D01*
X148843710Y-96463670D01*
X148843709Y-96463670D01*
X148756466Y-96452184D01*
X148700001Y-96444750D01*
X148699999Y-96444750D01*
X148556291Y-96463670D01*
X148556287Y-96463671D01*
X148422377Y-96519137D01*
X148307379Y-96607379D01*
X148219137Y-96722377D01*
X148163671Y-96856287D01*
X148163670Y-96856291D01*
X148144750Y-96999999D01*
X148144750Y-97000002D01*
X148159475Y-97111850D01*
X148148709Y-97180885D01*
X148102329Y-97233141D01*
X148052722Y-97250974D01*
X147980992Y-97260417D01*
X147956291Y-97263670D01*
X147956290Y-97263670D01*
X147956287Y-97263671D01*
X147822377Y-97319137D01*
X147707379Y-97407379D01*
X147619137Y-97522377D01*
X147563671Y-97656287D01*
X147563670Y-97656291D01*
X147547584Y-97778477D01*
X147544750Y-97800000D01*
X144051748Y-97800000D01*
X144098528Y-97753220D01*
X144159719Y-97633126D01*
X144161327Y-97622975D01*
X144180804Y-97500002D01*
X144180804Y-97499997D01*
X144159720Y-97366876D01*
X144159719Y-97366874D01*
X144148577Y-97345007D01*
X144128851Y-97306294D01*
X144115955Y-97237627D01*
X144128851Y-97193706D01*
X144159719Y-97133126D01*
X144159719Y-97133124D01*
X144159720Y-97133123D01*
X144180804Y-97000002D01*
X144180804Y-96999997D01*
X144159720Y-96866878D01*
X144159719Y-96866876D01*
X144159719Y-96866874D01*
X144098528Y-96746780D01*
X144098526Y-96746778D01*
X144098523Y-96746774D01*
X144003225Y-96651476D01*
X144003221Y-96651473D01*
X144003220Y-96651472D01*
X143883126Y-96590281D01*
X143883124Y-96590280D01*
X143883121Y-96590279D01*
X143750002Y-96569196D01*
X143750001Y-96569196D01*
X143750000Y-96569196D01*
X143732960Y-96571894D01*
X143663669Y-96562939D01*
X143610217Y-96517942D01*
X143603087Y-96505728D01*
X143598528Y-96496780D01*
X143598526Y-96496778D01*
X143598523Y-96496774D01*
X143503225Y-96401476D01*
X143503221Y-96401473D01*
X143503220Y-96401472D01*
X143383126Y-96340281D01*
X143383124Y-96340280D01*
X143383121Y-96340279D01*
X143250002Y-96319196D01*
X143249998Y-96319196D01*
X143116878Y-96340279D01*
X142996778Y-96401473D01*
X142996774Y-96401476D01*
X142901476Y-96496774D01*
X142901473Y-96496778D01*
X142840279Y-96616878D01*
X142819196Y-96749997D01*
X142819196Y-96750002D01*
X142840279Y-96883123D01*
X142840280Y-96883126D01*
X142871147Y-96943705D01*
X142884043Y-97012374D01*
X142871148Y-97056291D01*
X142840280Y-97116876D01*
X142819196Y-97249997D01*
X142819196Y-97250002D01*
X135525500Y-97250002D01*
X135525500Y-96595730D01*
X135522646Y-96565300D01*
X135522646Y-96565298D01*
X135483065Y-96452184D01*
X135477793Y-96437118D01*
X135397150Y-96327850D01*
X135287882Y-96247207D01*
X135287880Y-96247206D01*
X135159700Y-96202353D01*
X135129270Y-96199500D01*
X135129266Y-96199500D01*
X133770734Y-96199500D01*
X133770730Y-96199500D01*
X133740300Y-96202353D01*
X133740298Y-96202353D01*
X133612119Y-96247206D01*
X133612117Y-96247207D01*
X133502850Y-96327850D01*
X133422207Y-96437117D01*
X133422206Y-96437119D01*
X133377353Y-96565298D01*
X133377353Y-96565300D01*
X133374500Y-96595730D01*
X133374500Y-97404269D01*
X129000500Y-97404269D01*
X129000500Y-94200000D01*
X140544750Y-94200000D01*
X140561850Y-94329888D01*
X140563670Y-94343708D01*
X140563671Y-94343712D01*
X140619137Y-94477622D01*
X140619138Y-94477624D01*
X140619139Y-94477625D01*
X140707379Y-94592621D01*
X140822375Y-94680861D01*
X140956291Y-94736330D01*
X141083280Y-94753048D01*
X141099999Y-94755250D01*
X141100000Y-94755250D01*
X141100001Y-94755250D01*
X141115146Y-94753256D01*
X141243709Y-94736330D01*
X141377625Y-94680861D01*
X141492621Y-94592621D01*
X141580861Y-94477625D01*
X141636330Y-94343709D01*
X141655250Y-94200000D01*
X141636330Y-94056291D01*
X141580861Y-93922375D01*
X141544881Y-93875485D01*
X141519687Y-93810318D01*
X141533725Y-93741873D01*
X141544880Y-93724516D01*
X141580861Y-93677625D01*
X141636330Y-93543709D01*
X141636332Y-93543692D01*
X141636651Y-93542505D01*
X141637206Y-93541593D01*
X141639440Y-93536201D01*
X141640280Y-93536549D01*
X141673008Y-93482840D01*
X141735851Y-93452303D01*
X141772611Y-93451644D01*
X141800000Y-93455250D01*
X141827382Y-93451645D01*
X141896417Y-93462410D01*
X141948673Y-93508790D01*
X141963340Y-93542479D01*
X141963669Y-93543707D01*
X142019138Y-93677623D01*
X142019139Y-93677625D01*
X142055118Y-93724514D01*
X142080312Y-93789683D01*
X142066274Y-93858128D01*
X142055118Y-93875486D01*
X142019139Y-93922374D01*
X142019138Y-93922376D01*
X141963671Y-94056287D01*
X141963670Y-94056291D01*
X141944750Y-94200000D01*
X141961850Y-94329888D01*
X141963670Y-94343708D01*
X141963671Y-94343712D01*
X142019137Y-94477622D01*
X142019138Y-94477624D01*
X142019139Y-94477625D01*
X142107379Y-94592621D01*
X142222375Y-94680861D01*
X142356291Y-94736330D01*
X142483280Y-94753048D01*
X142499999Y-94755250D01*
X142500000Y-94755250D01*
X142500001Y-94755250D01*
X142515146Y-94753256D01*
X142643709Y-94736330D01*
X142777625Y-94680861D01*
X142870561Y-94609548D01*
X147754297Y-94609548D01*
X147770988Y-94736330D01*
X147773217Y-94753256D01*
X147773218Y-94753260D01*
X147828684Y-94887170D01*
X147828685Y-94887172D01*
X147828686Y-94887173D01*
X147916926Y-95002169D01*
X148031922Y-95090409D01*
X148165838Y-95145878D01*
X148292827Y-95162596D01*
X148309546Y-95164798D01*
X148309547Y-95164798D01*
X148309548Y-95164798D01*
X148324524Y-95162826D01*
X148453256Y-95145878D01*
X148587172Y-95090409D01*
X148702168Y-95002169D01*
X148790408Y-94887173D01*
X148845877Y-94753257D01*
X148864797Y-94609548D01*
X148845877Y-94465839D01*
X148795290Y-94343709D01*
X148790409Y-94331925D01*
X148790408Y-94331924D01*
X148790408Y-94331923D01*
X148702168Y-94216927D01*
X148587172Y-94128687D01*
X148587171Y-94128686D01*
X148587169Y-94128685D01*
X148453259Y-94073219D01*
X148453257Y-94073218D01*
X148453256Y-94073218D01*
X148381401Y-94063757D01*
X148309548Y-94054298D01*
X148309546Y-94054298D01*
X148165838Y-94073218D01*
X148165834Y-94073219D01*
X148031924Y-94128685D01*
X147916926Y-94216927D01*
X147828684Y-94331925D01*
X147773218Y-94465835D01*
X147773217Y-94465839D01*
X147756526Y-94592621D01*
X147754297Y-94609548D01*
X142870561Y-94609548D01*
X142892621Y-94592621D01*
X142980861Y-94477625D01*
X143036330Y-94343709D01*
X143055250Y-94200000D01*
X143036330Y-94056291D01*
X142980861Y-93922375D01*
X142963692Y-93900000D01*
X159344750Y-93900000D01*
X159363670Y-94043708D01*
X159363671Y-94043712D01*
X159419137Y-94177622D01*
X159419138Y-94177624D01*
X159419139Y-94177625D01*
X159507379Y-94292621D01*
X159622375Y-94380861D01*
X159756291Y-94436330D01*
X159883280Y-94453048D01*
X159899999Y-94455250D01*
X159900000Y-94455250D01*
X159900001Y-94455250D01*
X159914977Y-94453278D01*
X160043709Y-94436330D01*
X160155564Y-94389999D01*
X162460839Y-94389999D01*
X162460840Y-94390000D01*
X163180000Y-94390000D01*
X163180000Y-93620000D01*
X162460840Y-93620000D01*
X162501652Y-93754541D01*
X162594503Y-93928253D01*
X162597890Y-93933322D01*
X162596338Y-93934358D01*
X162620242Y-93990661D01*
X162608442Y-94059527D01*
X162597560Y-94076458D01*
X162597890Y-94076678D01*
X162594503Y-94081746D01*
X162501652Y-94255458D01*
X162460839Y-94389999D01*
X160155564Y-94389999D01*
X160177625Y-94380861D01*
X160292621Y-94292621D01*
X160380861Y-94177625D01*
X160436330Y-94043709D01*
X160455250Y-93900000D01*
X160436330Y-93756291D01*
X160380861Y-93622375D01*
X160292621Y-93507379D01*
X160177625Y-93419139D01*
X160177624Y-93419138D01*
X160177622Y-93419137D01*
X160043712Y-93363671D01*
X160043710Y-93363670D01*
X160043709Y-93363670D01*
X159971854Y-93354210D01*
X159900001Y-93344750D01*
X159899999Y-93344750D01*
X159756291Y-93363670D01*
X159756287Y-93363671D01*
X159622377Y-93419137D01*
X159507379Y-93507379D01*
X159419137Y-93622377D01*
X159363671Y-93756287D01*
X159363670Y-93756291D01*
X159344750Y-93899999D01*
X159344750Y-93900000D01*
X142963692Y-93900000D01*
X142944881Y-93875485D01*
X142919687Y-93810318D01*
X142933725Y-93741873D01*
X142944880Y-93724516D01*
X142980861Y-93677625D01*
X143036330Y-93543709D01*
X143055250Y-93400000D01*
X143036330Y-93256291D01*
X142980861Y-93122375D01*
X142892621Y-93007379D01*
X142777625Y-92919139D01*
X142777624Y-92919138D01*
X142777622Y-92919137D01*
X142643712Y-92863671D01*
X142643710Y-92863670D01*
X142643709Y-92863670D01*
X142571854Y-92854210D01*
X142500001Y-92844750D01*
X142500000Y-92844750D01*
X142495981Y-92845278D01*
X142472612Y-92848355D01*
X142403577Y-92837587D01*
X142351322Y-92791205D01*
X142336653Y-92757499D01*
X142336330Y-92756292D01*
X142336330Y-92756291D01*
X142280861Y-92622375D01*
X142192621Y-92507379D01*
X142077625Y-92419139D01*
X142077624Y-92419138D01*
X142077622Y-92419137D01*
X141943712Y-92363671D01*
X141943710Y-92363670D01*
X141943709Y-92363670D01*
X141871854Y-92354210D01*
X141800001Y-92344750D01*
X141799999Y-92344750D01*
X141656291Y-92363670D01*
X141656287Y-92363671D01*
X141522377Y-92419137D01*
X141407379Y-92507379D01*
X141319137Y-92622377D01*
X141263669Y-92756292D01*
X141263340Y-92757521D01*
X141262779Y-92758439D01*
X141260560Y-92763799D01*
X141259723Y-92763452D01*
X141226969Y-92817178D01*
X141164119Y-92847701D01*
X141127382Y-92848355D01*
X141100001Y-92844750D01*
X141099999Y-92844750D01*
X140956291Y-92863670D01*
X140956287Y-92863671D01*
X140822377Y-92919137D01*
X140707379Y-93007379D01*
X140619137Y-93122377D01*
X140563671Y-93256287D01*
X140563670Y-93256291D01*
X140544750Y-93400000D01*
X140563511Y-93542505D01*
X140563670Y-93543708D01*
X140563671Y-93543712D01*
X140619138Y-93677623D01*
X140619139Y-93677625D01*
X140655118Y-93724514D01*
X140680312Y-93789683D01*
X140666274Y-93858128D01*
X140655118Y-93875486D01*
X140619139Y-93922374D01*
X140619138Y-93922376D01*
X140563671Y-94056287D01*
X140563670Y-94056291D01*
X140544750Y-94200000D01*
X129000500Y-94200000D01*
X129000500Y-92190734D01*
X160735484Y-92190734D01*
X160754404Y-92334442D01*
X160754405Y-92334446D01*
X160809871Y-92468356D01*
X160809872Y-92468358D01*
X160809873Y-92468359D01*
X160898113Y-92583355D01*
X161013109Y-92671595D01*
X161147025Y-92727064D01*
X161274014Y-92743782D01*
X161290733Y-92745984D01*
X161290734Y-92745984D01*
X161290735Y-92745984D01*
X161305711Y-92744012D01*
X161434443Y-92727064D01*
X161568359Y-92671595D01*
X161683355Y-92583355D01*
X161771595Y-92468359D01*
X161827064Y-92334443D01*
X161845984Y-92190734D01*
X161827064Y-92047025D01*
X161790084Y-91957747D01*
X161771596Y-91913111D01*
X161771595Y-91913110D01*
X161771595Y-91913109D01*
X161683355Y-91798113D01*
X161568359Y-91709873D01*
X161568358Y-91709872D01*
X161568356Y-91709871D01*
X161434446Y-91654405D01*
X161434444Y-91654404D01*
X161434443Y-91654404D01*
X161353200Y-91643708D01*
X161290735Y-91635484D01*
X161290733Y-91635484D01*
X161147025Y-91654404D01*
X161147021Y-91654405D01*
X161013111Y-91709871D01*
X160898113Y-91798113D01*
X160809871Y-91913111D01*
X160754405Y-92047021D01*
X160754404Y-92047025D01*
X160735484Y-92190733D01*
X160735484Y-92190734D01*
X129000500Y-92190734D01*
X129000500Y-91500000D01*
X137444750Y-91500000D01*
X137463670Y-91643708D01*
X137463671Y-91643712D01*
X137519137Y-91777622D01*
X137519138Y-91777624D01*
X137519139Y-91777625D01*
X137607379Y-91892621D01*
X137722375Y-91980861D01*
X137856291Y-92036330D01*
X137983280Y-92053048D01*
X137999999Y-92055250D01*
X138000000Y-92055250D01*
X138000001Y-92055250D01*
X138014977Y-92053278D01*
X138143709Y-92036330D01*
X138277625Y-91980861D01*
X138392621Y-91892621D01*
X138480861Y-91777625D01*
X138536330Y-91643709D01*
X138555250Y-91500000D01*
X138536330Y-91356291D01*
X138480861Y-91222375D01*
X138392621Y-91107379D01*
X138277625Y-91019139D01*
X138277624Y-91019138D01*
X138277622Y-91019137D01*
X138143712Y-90963671D01*
X138143710Y-90963670D01*
X138143709Y-90963670D01*
X138071854Y-90954210D01*
X138000001Y-90944750D01*
X137999999Y-90944750D01*
X137856291Y-90963670D01*
X137856287Y-90963671D01*
X137722377Y-91019137D01*
X137607379Y-91107379D01*
X137519137Y-91222377D01*
X137463671Y-91356287D01*
X137463670Y-91356291D01*
X137444750Y-91499999D01*
X137444750Y-91500000D01*
X129000500Y-91500000D01*
X129000500Y-90800000D01*
X161044750Y-90800000D01*
X161063670Y-90943708D01*
X161063671Y-90943712D01*
X161119137Y-91077622D01*
X161119138Y-91077624D01*
X161119139Y-91077625D01*
X161207379Y-91192621D01*
X161322375Y-91280861D01*
X161456291Y-91336330D01*
X161583280Y-91353048D01*
X161599999Y-91355250D01*
X161600000Y-91355250D01*
X161600001Y-91355250D01*
X161614977Y-91353278D01*
X161743709Y-91336330D01*
X161877625Y-91280861D01*
X161992621Y-91192621D01*
X162080861Y-91077625D01*
X162136330Y-90943709D01*
X162155250Y-90800000D01*
X162136330Y-90656291D01*
X162080861Y-90522375D01*
X161992621Y-90407379D01*
X161877625Y-90319139D01*
X161877624Y-90319138D01*
X161877622Y-90319137D01*
X161743712Y-90263671D01*
X161743710Y-90263670D01*
X161743709Y-90263670D01*
X161671854Y-90254210D01*
X161600001Y-90244750D01*
X161599999Y-90244750D01*
X161456291Y-90263670D01*
X161456287Y-90263671D01*
X161322377Y-90319137D01*
X161207379Y-90407379D01*
X161119137Y-90522377D01*
X161063671Y-90656287D01*
X161063670Y-90656291D01*
X161044750Y-90799999D01*
X161044750Y-90800000D01*
X129000500Y-90800000D01*
X129000500Y-88800000D01*
X138944750Y-88800000D01*
X138963670Y-88943708D01*
X138963671Y-88943712D01*
X139019137Y-89077622D01*
X139019138Y-89077624D01*
X139019139Y-89077625D01*
X139107379Y-89192621D01*
X139222375Y-89280861D01*
X139356291Y-89336330D01*
X139483280Y-89353048D01*
X139499999Y-89355250D01*
X139500000Y-89355250D01*
X139500001Y-89355250D01*
X139514977Y-89353278D01*
X139643709Y-89336330D01*
X139777625Y-89280861D01*
X139892621Y-89192621D01*
X139980861Y-89077625D01*
X140036330Y-88943709D01*
X140055250Y-88800000D01*
X140036330Y-88656291D01*
X140013014Y-88600000D01*
X150944750Y-88600000D01*
X150952160Y-88656287D01*
X150963670Y-88743708D01*
X150963671Y-88743712D01*
X151019137Y-88877622D01*
X151019138Y-88877624D01*
X151019139Y-88877625D01*
X151107379Y-88992621D01*
X151222375Y-89080861D01*
X151356291Y-89136330D01*
X151483280Y-89153048D01*
X151499999Y-89155250D01*
X151500000Y-89155250D01*
X151500001Y-89155250D01*
X151514977Y-89153278D01*
X151643709Y-89136330D01*
X151777625Y-89080861D01*
X151892621Y-88992621D01*
X151980861Y-88877625D01*
X152036330Y-88743709D01*
X152055250Y-88600000D01*
X152036330Y-88456291D01*
X151980861Y-88322375D01*
X151892621Y-88207379D01*
X151777625Y-88119139D01*
X151777624Y-88119138D01*
X151777622Y-88119137D01*
X151643712Y-88063671D01*
X151643710Y-88063670D01*
X151643709Y-88063670D01*
X151571854Y-88054210D01*
X151500001Y-88044750D01*
X151499999Y-88044750D01*
X151356291Y-88063670D01*
X151356287Y-88063671D01*
X151222377Y-88119137D01*
X151107379Y-88207379D01*
X151019137Y-88322377D01*
X150963671Y-88456287D01*
X150963670Y-88456291D01*
X150944750Y-88600000D01*
X140013014Y-88600000D01*
X139980861Y-88522375D01*
X139892621Y-88407379D01*
X139777625Y-88319139D01*
X139777624Y-88319138D01*
X139777622Y-88319137D01*
X139643712Y-88263671D01*
X139643710Y-88263670D01*
X139643709Y-88263670D01*
X139571854Y-88254210D01*
X139500001Y-88244750D01*
X139499999Y-88244750D01*
X139356291Y-88263670D01*
X139356287Y-88263671D01*
X139222377Y-88319137D01*
X139107379Y-88407379D01*
X139019137Y-88522377D01*
X138963671Y-88656287D01*
X138963670Y-88656291D01*
X138944750Y-88799999D01*
X138944750Y-88800000D01*
X129000500Y-88800000D01*
X129000500Y-84684371D01*
X131099500Y-84684371D01*
X131139367Y-85050946D01*
X131218635Y-85411065D01*
X131260842Y-85536329D01*
X131336375Y-85760503D01*
X131336377Y-85760508D01*
X131336379Y-85760513D01*
X131491200Y-86095153D01*
X131491202Y-86095157D01*
X131491204Y-86095161D01*
X131491205Y-86095162D01*
X131681310Y-86411119D01*
X131904462Y-86704670D01*
X132158044Y-86972373D01*
X132439083Y-87211090D01*
X132744284Y-87418022D01*
X132744288Y-87418024D01*
X132744291Y-87418026D01*
X132926172Y-87514453D01*
X133070070Y-87590743D01*
X133412621Y-87727227D01*
X133412627Y-87727228D01*
X133412628Y-87727229D01*
X133412634Y-87727231D01*
X133688226Y-87803748D01*
X133767919Y-87825875D01*
X133767930Y-87825876D01*
X133767931Y-87825877D01*
X134131786Y-87885529D01*
X134131790Y-87885529D01*
X134131801Y-87885531D01*
X134407890Y-87900500D01*
X134407892Y-87900500D01*
X134592108Y-87900500D01*
X134592110Y-87900500D01*
X134868199Y-87885531D01*
X134868210Y-87885529D01*
X134868213Y-87885529D01*
X135120077Y-87844237D01*
X135232081Y-87825875D01*
X135587379Y-87727227D01*
X135929930Y-87590743D01*
X136255716Y-87418022D01*
X136560917Y-87211090D01*
X136809431Y-87000000D01*
X157544750Y-87000000D01*
X157563670Y-87143708D01*
X157563671Y-87143712D01*
X157619137Y-87277622D01*
X157619138Y-87277624D01*
X157619139Y-87277625D01*
X157707379Y-87392621D01*
X157822375Y-87480861D01*
X157956291Y-87536330D01*
X158083280Y-87553048D01*
X158099999Y-87555250D01*
X158100000Y-87555250D01*
X158100001Y-87555250D01*
X158114977Y-87553278D01*
X158243709Y-87536330D01*
X158377625Y-87480861D01*
X158492621Y-87392621D01*
X158580861Y-87277625D01*
X158636330Y-87143709D01*
X158655250Y-87000000D01*
X158636330Y-86856291D01*
X158580861Y-86722375D01*
X158511013Y-86631348D01*
X158485820Y-86566181D01*
X158499858Y-86497736D01*
X158533904Y-86457488D01*
X158543121Y-86450416D01*
X158631361Y-86335420D01*
X158686830Y-86201504D01*
X158705750Y-86057795D01*
X158686830Y-85914086D01*
X158633131Y-85784443D01*
X158631362Y-85780172D01*
X158631361Y-85780171D01*
X158631361Y-85780170D01*
X158543121Y-85665174D01*
X158428125Y-85576934D01*
X158428124Y-85576933D01*
X158428122Y-85576932D01*
X158294212Y-85521466D01*
X158294210Y-85521465D01*
X158294209Y-85521465D01*
X158222354Y-85512004D01*
X158150501Y-85502545D01*
X158150499Y-85502545D01*
X158006791Y-85521465D01*
X158006787Y-85521466D01*
X157872877Y-85576932D01*
X157757879Y-85665174D01*
X157669637Y-85780172D01*
X157614171Y-85914082D01*
X157614170Y-85914086D01*
X157595250Y-86057794D01*
X157595250Y-86057795D01*
X157614170Y-86201503D01*
X157614171Y-86201507D01*
X157669638Y-86335418D01*
X157669639Y-86335420D01*
X157739485Y-86426445D01*
X157764679Y-86491614D01*
X157750641Y-86560059D01*
X157716598Y-86600305D01*
X157707380Y-86607377D01*
X157619137Y-86722377D01*
X157563671Y-86856287D01*
X157563670Y-86856291D01*
X157544750Y-86999999D01*
X157544750Y-87000000D01*
X136809431Y-87000000D01*
X136841956Y-86972373D01*
X137095538Y-86704670D01*
X137318690Y-86411119D01*
X137508795Y-86095162D01*
X137663625Y-85760503D01*
X137751399Y-85500000D01*
X138844750Y-85500000D01*
X138862698Y-85636329D01*
X138863670Y-85643708D01*
X138863671Y-85643712D01*
X138919137Y-85777622D01*
X138919138Y-85777624D01*
X138919139Y-85777625D01*
X139007379Y-85892621D01*
X139122375Y-85980861D01*
X139256291Y-86036330D01*
X139383280Y-86053048D01*
X139399999Y-86055250D01*
X139400000Y-86055250D01*
X139400001Y-86055250D01*
X139414977Y-86053278D01*
X139543709Y-86036330D01*
X139677625Y-85980861D01*
X139792621Y-85892621D01*
X139880861Y-85777625D01*
X139936330Y-85643709D01*
X139936722Y-85640734D01*
X152385484Y-85640734D01*
X152403841Y-85780170D01*
X152404404Y-85784442D01*
X152404405Y-85784446D01*
X152459871Y-85918356D01*
X152459872Y-85918358D01*
X152459873Y-85918359D01*
X152548113Y-86033355D01*
X152663109Y-86121595D01*
X152797025Y-86177064D01*
X152924014Y-86193782D01*
X152940733Y-86195984D01*
X152940734Y-86195984D01*
X152940735Y-86195984D01*
X152955711Y-86194012D01*
X153084443Y-86177064D01*
X153218359Y-86121595D01*
X153333355Y-86033355D01*
X153421595Y-85918359D01*
X153477064Y-85784443D01*
X153495984Y-85640734D01*
X153477064Y-85497025D01*
X153433819Y-85392620D01*
X153421596Y-85363111D01*
X153421595Y-85363110D01*
X153421595Y-85363109D01*
X153333355Y-85248113D01*
X153218359Y-85159873D01*
X153218358Y-85159872D01*
X153218356Y-85159871D01*
X153084446Y-85104405D01*
X153084444Y-85104404D01*
X153084443Y-85104404D01*
X153050992Y-85100000D01*
X153744750Y-85100000D01*
X153763670Y-85243708D01*
X153763671Y-85243712D01*
X153819137Y-85377622D01*
X153819138Y-85377624D01*
X153819139Y-85377625D01*
X153907379Y-85492621D01*
X154022375Y-85580861D01*
X154156291Y-85636330D01*
X154283280Y-85653048D01*
X154299999Y-85655250D01*
X154300000Y-85655250D01*
X154300001Y-85655250D01*
X154314977Y-85653278D01*
X154443709Y-85636330D01*
X154577625Y-85580861D01*
X154692621Y-85492621D01*
X154780861Y-85377625D01*
X154780861Y-85377622D01*
X154785808Y-85371177D01*
X154787029Y-85372114D01*
X154830938Y-85330235D01*
X154899543Y-85317002D01*
X154964412Y-85342960D01*
X154986146Y-85364950D01*
X155007379Y-85392621D01*
X155122375Y-85480861D01*
X155122376Y-85480861D01*
X155122377Y-85480862D01*
X155161389Y-85497021D01*
X155256291Y-85536330D01*
X155383280Y-85553048D01*
X155399999Y-85555250D01*
X155400000Y-85555250D01*
X155400001Y-85555250D01*
X155414977Y-85553278D01*
X155543709Y-85536330D01*
X155677625Y-85480861D01*
X155792621Y-85392621D01*
X155880861Y-85277625D01*
X155936330Y-85143709D01*
X155955250Y-85000000D01*
X155942085Y-84900000D01*
X160244750Y-84900000D01*
X160257915Y-85000000D01*
X160263670Y-85043708D01*
X160263671Y-85043712D01*
X160319137Y-85177622D01*
X160319138Y-85177624D01*
X160319139Y-85177625D01*
X160407379Y-85292621D01*
X160522375Y-85380861D01*
X160522376Y-85380861D01*
X160522377Y-85380862D01*
X160567013Y-85399350D01*
X160656291Y-85436330D01*
X160783280Y-85453048D01*
X160799999Y-85455250D01*
X160800000Y-85455250D01*
X160800001Y-85455250D01*
X160814977Y-85453278D01*
X160943709Y-85436330D01*
X161077625Y-85380861D01*
X161192621Y-85292621D01*
X161280861Y-85177625D01*
X161336330Y-85043709D01*
X161355250Y-84900000D01*
X161336330Y-84756291D01*
X161306540Y-84684371D01*
X162099500Y-84684371D01*
X162139367Y-85050946D01*
X162218635Y-85411065D01*
X162260842Y-85536329D01*
X162336375Y-85760503D01*
X162336377Y-85760508D01*
X162336379Y-85760513D01*
X162491200Y-86095153D01*
X162491202Y-86095157D01*
X162491204Y-86095161D01*
X162491205Y-86095162D01*
X162681310Y-86411119D01*
X162904462Y-86704670D01*
X163158044Y-86972373D01*
X163439083Y-87211090D01*
X163744284Y-87418022D01*
X163744288Y-87418024D01*
X163744291Y-87418026D01*
X163926172Y-87514453D01*
X164070070Y-87590743D01*
X164412621Y-87727227D01*
X164412627Y-87727228D01*
X164412628Y-87727229D01*
X164412634Y-87727231D01*
X164688226Y-87803748D01*
X164767919Y-87825875D01*
X164767930Y-87825876D01*
X164767931Y-87825877D01*
X165131786Y-87885529D01*
X165131790Y-87885529D01*
X165131801Y-87885531D01*
X165407890Y-87900500D01*
X165407892Y-87900500D01*
X165592108Y-87900500D01*
X165592110Y-87900500D01*
X165868199Y-87885531D01*
X165868210Y-87885529D01*
X165868213Y-87885529D01*
X166120077Y-87844237D01*
X166232081Y-87825875D01*
X166587379Y-87727227D01*
X166929930Y-87590743D01*
X167255716Y-87418022D01*
X167560917Y-87211090D01*
X167841956Y-86972373D01*
X168095538Y-86704670D01*
X168318690Y-86411119D01*
X168508795Y-86095162D01*
X168663625Y-85760503D01*
X168781364Y-85411066D01*
X168860632Y-85050948D01*
X168900500Y-84684370D01*
X168900500Y-84315630D01*
X168860632Y-83949052D01*
X168781364Y-83588934D01*
X168663625Y-83239497D01*
X168622450Y-83150499D01*
X168508799Y-82904846D01*
X168508797Y-82904842D01*
X168501109Y-82892064D01*
X168318690Y-82588881D01*
X168095538Y-82295330D01*
X167841956Y-82027627D01*
X167560917Y-81788910D01*
X167255716Y-81581978D01*
X167255713Y-81581976D01*
X167255708Y-81581973D01*
X166929938Y-81409261D01*
X166929926Y-81409255D01*
X166587371Y-81272770D01*
X166587365Y-81272768D01*
X166232094Y-81174128D01*
X166232068Y-81174122D01*
X165868213Y-81114470D01*
X165868200Y-81114469D01*
X165868199Y-81114469D01*
X165592110Y-81099500D01*
X165407890Y-81099500D01*
X165131801Y-81114469D01*
X165131799Y-81114469D01*
X165131786Y-81114470D01*
X164767931Y-81174122D01*
X164767905Y-81174128D01*
X164412634Y-81272768D01*
X164412628Y-81272770D01*
X164070073Y-81409255D01*
X164070061Y-81409261D01*
X163744291Y-81581973D01*
X163744282Y-81581979D01*
X163439083Y-81788909D01*
X163158044Y-82027626D01*
X162904462Y-82295330D01*
X162904461Y-82295330D01*
X162785853Y-82451357D01*
X162681310Y-82588881D01*
X162681309Y-82588883D01*
X162491202Y-82904842D01*
X162491200Y-82904846D01*
X162336379Y-83239486D01*
X162218635Y-83588934D01*
X162139367Y-83949053D01*
X162099500Y-84315628D01*
X162099500Y-84684371D01*
X161306540Y-84684371D01*
X161280861Y-84622375D01*
X161192621Y-84507379D01*
X161077625Y-84419139D01*
X161077624Y-84419138D01*
X161077622Y-84419137D01*
X160943712Y-84363671D01*
X160943710Y-84363670D01*
X160943709Y-84363670D01*
X160871854Y-84354210D01*
X160800001Y-84344750D01*
X160799999Y-84344750D01*
X160656291Y-84363670D01*
X160656287Y-84363671D01*
X160522377Y-84419137D01*
X160407379Y-84507379D01*
X160319137Y-84622377D01*
X160263671Y-84756287D01*
X160263670Y-84756291D01*
X160250505Y-84856291D01*
X160244750Y-84900000D01*
X155942085Y-84900000D01*
X155936330Y-84856291D01*
X155886641Y-84736329D01*
X155880862Y-84722377D01*
X155880861Y-84722376D01*
X155880861Y-84722375D01*
X155792621Y-84607379D01*
X155677625Y-84519139D01*
X155677624Y-84519138D01*
X155677622Y-84519137D01*
X155543712Y-84463671D01*
X155543710Y-84463670D01*
X155543709Y-84463670D01*
X155471854Y-84454210D01*
X155400001Y-84444750D01*
X155399999Y-84444750D01*
X155256291Y-84463670D01*
X155256287Y-84463671D01*
X155122377Y-84519137D01*
X155088998Y-84544750D01*
X155007379Y-84607379D01*
X154919139Y-84722375D01*
X154919138Y-84722377D01*
X154914192Y-84728823D01*
X154912973Y-84727887D01*
X154869040Y-84769775D01*
X154800433Y-84782995D01*
X154735569Y-84757025D01*
X154713848Y-84735043D01*
X154709075Y-84728823D01*
X154692621Y-84707379D01*
X154577625Y-84619139D01*
X154577624Y-84619138D01*
X154577622Y-84619137D01*
X154443712Y-84563671D01*
X154443710Y-84563670D01*
X154443709Y-84563670D01*
X154371854Y-84554210D01*
X154300001Y-84544750D01*
X154299999Y-84544750D01*
X154156291Y-84563670D01*
X154156287Y-84563671D01*
X154022377Y-84619137D01*
X153907379Y-84707379D01*
X153819137Y-84822377D01*
X153763671Y-84956287D01*
X153763670Y-84956291D01*
X153744750Y-85099999D01*
X153744750Y-85100000D01*
X153050992Y-85100000D01*
X153012588Y-85094944D01*
X152940735Y-85085484D01*
X152940733Y-85085484D01*
X152797025Y-85104404D01*
X152797021Y-85104405D01*
X152663111Y-85159871D01*
X152548113Y-85248113D01*
X152459871Y-85363111D01*
X152404405Y-85497021D01*
X152404404Y-85497025D01*
X152393367Y-85580861D01*
X152385484Y-85640734D01*
X139936722Y-85640734D01*
X139955250Y-85500000D01*
X139936330Y-85356291D01*
X139880861Y-85222375D01*
X139792621Y-85107379D01*
X139677625Y-85019139D01*
X139677624Y-85019138D01*
X139677622Y-85019137D01*
X139543712Y-84963671D01*
X139543710Y-84963670D01*
X139543709Y-84963670D01*
X139471854Y-84954210D01*
X139400001Y-84944750D01*
X139399999Y-84944750D01*
X139256291Y-84963670D01*
X139256287Y-84963671D01*
X139122377Y-85019137D01*
X139007379Y-85107379D01*
X138919137Y-85222377D01*
X138863671Y-85356287D01*
X138863670Y-85356291D01*
X138845722Y-85492620D01*
X138844750Y-85500000D01*
X137751399Y-85500000D01*
X137781364Y-85411066D01*
X137860632Y-85050948D01*
X137900500Y-84684370D01*
X137900500Y-84315630D01*
X137887924Y-84200000D01*
X141444750Y-84200000D01*
X141455617Y-84282545D01*
X141463670Y-84343708D01*
X141463671Y-84343712D01*
X141519137Y-84477622D01*
X141519138Y-84477624D01*
X141519139Y-84477625D01*
X141607379Y-84592621D01*
X141722375Y-84680861D01*
X141722376Y-84680861D01*
X141722377Y-84680862D01*
X141730849Y-84684371D01*
X141856291Y-84736330D01*
X141983280Y-84753048D01*
X141999999Y-84755250D01*
X142000000Y-84755250D01*
X142000001Y-84755250D01*
X142014977Y-84753278D01*
X142143709Y-84736330D01*
X142277625Y-84680861D01*
X142383005Y-84600000D01*
X147244750Y-84600000D01*
X147262698Y-84736329D01*
X147263670Y-84743708D01*
X147263671Y-84743712D01*
X147319137Y-84877622D01*
X147319138Y-84877624D01*
X147319139Y-84877625D01*
X147407379Y-84992621D01*
X147522375Y-85080861D01*
X147656291Y-85136330D01*
X147783280Y-85153048D01*
X147799999Y-85155250D01*
X147800000Y-85155250D01*
X147800001Y-85155250D01*
X147814977Y-85153278D01*
X147943709Y-85136330D01*
X148077625Y-85080861D01*
X148192621Y-84992621D01*
X148280861Y-84877625D01*
X148336330Y-84743709D01*
X148355250Y-84600000D01*
X148336330Y-84456291D01*
X148280861Y-84322375D01*
X148192621Y-84207379D01*
X148077625Y-84119139D01*
X148077624Y-84119138D01*
X148077622Y-84119137D01*
X147943712Y-84063671D01*
X147943710Y-84063670D01*
X147943709Y-84063670D01*
X147871854Y-84054210D01*
X147800001Y-84044750D01*
X147799999Y-84044750D01*
X147656291Y-84063670D01*
X147656287Y-84063671D01*
X147522377Y-84119137D01*
X147407379Y-84207379D01*
X147319137Y-84322377D01*
X147263671Y-84456287D01*
X147263670Y-84456291D01*
X147245722Y-84592620D01*
X147244750Y-84600000D01*
X142383005Y-84600000D01*
X142392621Y-84592621D01*
X142480861Y-84477625D01*
X142536330Y-84343709D01*
X142555250Y-84200000D01*
X142536330Y-84056291D01*
X142480861Y-83922375D01*
X142392621Y-83807379D01*
X142277625Y-83719139D01*
X142277624Y-83719138D01*
X142277622Y-83719137D01*
X142143712Y-83663671D01*
X142143710Y-83663670D01*
X142143709Y-83663670D01*
X142071854Y-83654210D01*
X142000001Y-83644750D01*
X141999999Y-83644750D01*
X141856291Y-83663670D01*
X141856287Y-83663671D01*
X141722377Y-83719137D01*
X141607379Y-83807379D01*
X141519137Y-83922377D01*
X141463671Y-84056287D01*
X141463670Y-84056291D01*
X141444750Y-84200000D01*
X137887924Y-84200000D01*
X137860632Y-83949052D01*
X137781364Y-83588934D01*
X137663625Y-83239497D01*
X137622450Y-83150500D01*
X148944750Y-83150500D01*
X148956465Y-83239486D01*
X148963670Y-83294208D01*
X148963671Y-83294212D01*
X149019137Y-83428122D01*
X149019138Y-83428124D01*
X149019139Y-83428125D01*
X149107379Y-83543121D01*
X149222375Y-83631361D01*
X149356291Y-83686830D01*
X149483280Y-83703548D01*
X149499999Y-83705750D01*
X149500000Y-83705750D01*
X149500001Y-83705750D01*
X149514977Y-83703778D01*
X149643709Y-83686830D01*
X149777625Y-83631361D01*
X149892621Y-83543121D01*
X149980861Y-83428125D01*
X150036330Y-83294209D01*
X150055250Y-83150500D01*
X150036330Y-83006791D01*
X149980861Y-82872875D01*
X149892621Y-82757879D01*
X149777625Y-82669639D01*
X149777624Y-82669638D01*
X149777622Y-82669637D01*
X149643712Y-82614171D01*
X149643710Y-82614170D01*
X149643709Y-82614170D01*
X149571854Y-82604709D01*
X149500001Y-82595250D01*
X149499999Y-82595250D01*
X149356291Y-82614170D01*
X149356287Y-82614171D01*
X149222377Y-82669637D01*
X149107379Y-82757879D01*
X149019137Y-82872877D01*
X148963671Y-83006787D01*
X148963670Y-83006791D01*
X148948592Y-83121321D01*
X148944750Y-83150500D01*
X137622450Y-83150500D01*
X137622450Y-83150499D01*
X137508799Y-82904846D01*
X137508797Y-82904842D01*
X137501109Y-82892064D01*
X137318690Y-82588881D01*
X137095538Y-82295330D01*
X136841956Y-82027627D01*
X136560917Y-81788910D01*
X136255716Y-81581978D01*
X136255713Y-81581976D01*
X136255708Y-81581973D01*
X135929938Y-81409261D01*
X135929926Y-81409255D01*
X135587371Y-81272770D01*
X135587365Y-81272768D01*
X135232094Y-81174128D01*
X135232068Y-81174122D01*
X134868213Y-81114470D01*
X134868200Y-81114469D01*
X134868199Y-81114469D01*
X134592110Y-81099500D01*
X134407890Y-81099500D01*
X134131801Y-81114469D01*
X134131799Y-81114469D01*
X134131786Y-81114470D01*
X133767931Y-81174122D01*
X133767905Y-81174128D01*
X133412634Y-81272768D01*
X133412628Y-81272770D01*
X133070073Y-81409255D01*
X133070061Y-81409261D01*
X132744291Y-81581973D01*
X132744282Y-81581979D01*
X132439083Y-81788909D01*
X132158044Y-82027626D01*
X131904462Y-82295330D01*
X131904461Y-82295330D01*
X131785853Y-82451357D01*
X131681310Y-82588881D01*
X131681309Y-82588883D01*
X131491202Y-82904842D01*
X131491200Y-82904846D01*
X131336379Y-83239486D01*
X131218635Y-83588934D01*
X131139367Y-83949053D01*
X131099500Y-84315628D01*
X131099500Y-84684371D01*
X129000500Y-84684371D01*
X129000500Y-84499999D01*
X129009500Y-84282397D01*
X129020013Y-84041610D01*
X129020427Y-84036684D01*
X129049085Y-83806772D01*
X129079194Y-83578069D01*
X129079970Y-83573517D01*
X129127969Y-83344599D01*
X129151274Y-83239486D01*
X129177470Y-83121320D01*
X129178571Y-83117073D01*
X129245591Y-82891958D01*
X129314150Y-82674521D01*
X129315491Y-82670712D01*
X129401094Y-82451333D01*
X129488229Y-82240970D01*
X129489750Y-82237598D01*
X129593376Y-82025627D01*
X129698424Y-81823834D01*
X129700139Y-81820760D01*
X129821037Y-81617866D01*
X129943266Y-81426008D01*
X129945052Y-81423360D01*
X130082440Y-81230936D01*
X130221003Y-81050358D01*
X130222770Y-81048167D01*
X130375734Y-80867563D01*
X130530404Y-80698771D01*
X130698760Y-80530416D01*
X130700275Y-80529027D01*
X130867563Y-80375734D01*
X131048167Y-80222770D01*
X131050358Y-80221003D01*
X131230936Y-80082440D01*
X131423360Y-79945052D01*
X131426008Y-79943266D01*
X131617866Y-79821037D01*
X131820766Y-79700135D01*
X131823834Y-79698424D01*
X132025627Y-79593376D01*
X132237598Y-79489750D01*
X132240970Y-79488229D01*
X132451333Y-79401094D01*
X132670712Y-79315491D01*
X132674521Y-79314150D01*
X132891958Y-79245591D01*
X133117073Y-79178571D01*
X133121322Y-79177470D01*
X133344588Y-79127972D01*
X133573517Y-79079970D01*
X133578069Y-79079194D01*
X133806772Y-79049085D01*
X134036684Y-79020427D01*
X134041610Y-79020013D01*
X134282423Y-79009499D01*
X134500000Y-79000500D01*
X134500500Y-79000500D01*
X165499500Y-79000500D01*
X165500000Y-79000500D01*
X165717445Y-79009493D01*
G37*
%TD.AperFunction*%
%TD*%
M02*
