%TF.GenerationSoftware,KiCad,Pcbnew,7.0.6*%
%TF.CreationDate,2024-06-11T21:52:14-04:00*%
%TF.ProjectId,Axis_Basic,41786973-5f42-4617-9369-632e6b696361,rev?*%
%TF.SameCoordinates,Original*%
%TF.FileFunction,Drillmap*%
%TF.FilePolarity,Positive*%
%FSLAX45Y45*%
G04 Gerber Fmt 4.5, Leading zero omitted, Abs format (unit mm)*
G04 Created by KiCad (PCBNEW 7.0.6) date 2024-06-11 21:52:14*
%MOMM*%
%LPD*%
G01*
G04 APERTURE LIST*
%ADD10C,0.100000*%
%ADD11C,0.200000*%
%ADD12C,0.015000*%
%ADD13C,0.020000*%
%ADD14C,0.035000*%
%ADD15C,0.040000*%
%ADD16C,0.060000*%
%ADD17C,0.065000*%
%ADD18C,0.075000*%
G04 APERTURE END LIST*
D10*
X12900000Y-11550000D02*
G75*
G03*
X13450000Y-12100000I550000J0D01*
G01*
X17100000Y-8450000D02*
G75*
G03*
X16550000Y-7900000I-550000J0D01*
G01*
X13450000Y-7900000D02*
G75*
G03*
X12900000Y-8450000I0J-550000D01*
G01*
X13450000Y-7900000D02*
X16550000Y-7900000D01*
X16550000Y-12100000D02*
G75*
G03*
X17100000Y-11550000I0J550000D01*
G01*
X17100000Y-8450000D02*
X17100000Y-11550000D01*
X16550000Y-12100000D02*
X13450000Y-12100000D01*
X12900000Y-11550000D02*
X12900000Y-8450000D01*
D11*
D12*
X14305735Y-9590441D02*
X14320735Y-9605441D01*
X14320735Y-9590441D02*
X14305735Y-9605441D01*
X14305735Y-9640441D02*
X14320735Y-9655441D01*
X14320735Y-9640441D02*
X14305735Y-9655441D01*
X14305735Y-10190441D02*
X14320735Y-10205441D01*
X14320735Y-10190441D02*
X14305735Y-10205441D01*
X14305735Y-10240441D02*
X14320735Y-10255441D01*
X14320735Y-10240441D02*
X14305735Y-10255441D01*
X14355735Y-9615441D02*
X14370735Y-9630441D01*
X14370735Y-9615441D02*
X14355735Y-9630441D01*
X14355735Y-9665441D02*
X14370735Y-9680441D01*
X14370735Y-9665441D02*
X14355735Y-9680441D01*
X14355735Y-10165441D02*
X14370735Y-10180441D01*
X14370735Y-10165441D02*
X14355735Y-10180441D01*
X14355735Y-10215441D02*
X14370735Y-10230441D01*
X14370735Y-10215441D02*
X14355735Y-10230441D01*
D13*
X14493235Y-9822941D02*
G75*
G03*
X14493235Y-9822941I-10000J0D01*
G01*
X14493235Y-9922941D02*
G75*
G03*
X14493235Y-9922941I-10000J0D01*
G01*
X14493235Y-10022941D02*
G75*
G03*
X14493235Y-10022941I-10000J0D01*
G01*
X14593235Y-9822941D02*
G75*
G03*
X14593235Y-9822941I-10000J0D01*
G01*
X14593235Y-9922941D02*
G75*
G03*
X14593235Y-9922941I-10000J0D01*
G01*
X14593235Y-10022941D02*
G75*
G03*
X14593235Y-10022941I-10000J0D01*
G01*
X14693235Y-9822941D02*
G75*
G03*
X14693235Y-9822941I-10000J0D01*
G01*
X14693235Y-9922941D02*
G75*
G03*
X14693235Y-9922941I-10000J0D01*
G01*
X14693235Y-10022941D02*
G75*
G03*
X14693235Y-10022941I-10000J0D01*
G01*
D14*
X13678235Y-9425441D02*
X13678235Y-9460441D01*
X13660735Y-9442941D02*
X13695735Y-9442941D01*
X13678235Y-9505441D02*
X13678235Y-9540441D01*
X13660735Y-9522941D02*
X13695735Y-9522941D01*
X13680000Y-10302500D02*
X13680000Y-10337500D01*
X13662500Y-10320000D02*
X13697500Y-10320000D01*
X13680000Y-10382500D02*
X13680000Y-10417500D01*
X13662500Y-10400000D02*
X13697500Y-10400000D01*
X13690000Y-9052500D02*
X13690000Y-9087500D01*
X13672500Y-9070000D02*
X13707500Y-9070000D01*
X13690000Y-10612500D02*
X13690000Y-10647500D01*
X13672500Y-10630000D02*
X13707500Y-10630000D01*
X13708235Y-9575441D02*
X13708235Y-9610441D01*
X13690735Y-9592941D02*
X13725735Y-9592941D01*
X13710000Y-10232500D02*
X13710000Y-10267500D01*
X13692500Y-10250000D02*
X13727500Y-10250000D01*
X13740000Y-10682500D02*
X13740000Y-10717500D01*
X13722500Y-10700000D02*
X13757500Y-10700000D01*
X13788235Y-9575441D02*
X13788235Y-9610441D01*
X13770735Y-9592941D02*
X13805735Y-9592941D01*
X13790000Y-10232500D02*
X13790000Y-10267500D01*
X13772500Y-10250000D02*
X13807500Y-10250000D01*
X13790000Y-10612500D02*
X13790000Y-10647500D01*
X13772500Y-10630000D02*
X13807500Y-10630000D01*
X13840000Y-10682500D02*
X13840000Y-10717500D01*
X13822500Y-10700000D02*
X13857500Y-10700000D01*
X13868235Y-9575441D02*
X13868235Y-9610441D01*
X13850735Y-9592941D02*
X13885735Y-9592941D01*
X13870000Y-10232500D02*
X13870000Y-10267500D01*
X13852500Y-10250000D02*
X13887500Y-10250000D01*
X13890000Y-10612500D02*
X13890000Y-10647500D01*
X13872500Y-10630000D02*
X13907500Y-10630000D01*
X13910000Y-8982500D02*
X13910000Y-9017500D01*
X13892500Y-9000000D02*
X13927500Y-9000000D01*
X13910000Y-9062500D02*
X13910000Y-9097500D01*
X13892500Y-9080000D02*
X13927500Y-9080000D01*
X13940000Y-10682500D02*
X13940000Y-10717500D01*
X13922500Y-10700000D02*
X13957500Y-10700000D01*
X14040000Y-8852500D02*
X14040000Y-8887500D01*
X14022500Y-8870000D02*
X14057500Y-8870000D01*
X14040000Y-11562500D02*
X14040000Y-11597500D01*
X14022500Y-11580000D02*
X14057500Y-11580000D01*
X14090000Y-11492500D02*
X14090000Y-11527500D01*
X14072500Y-11510000D02*
X14107500Y-11510000D01*
X14140000Y-11562500D02*
X14140000Y-11597500D01*
X14122500Y-11580000D02*
X14157500Y-11580000D01*
X14170000Y-9022500D02*
X14170000Y-9057500D01*
X14152500Y-9040000D02*
X14187500Y-9040000D01*
X14190000Y-11492500D02*
X14190000Y-11527500D01*
X14172500Y-11510000D02*
X14207500Y-11510000D01*
X14218235Y-10465441D02*
X14218235Y-10500441D01*
X14200735Y-10482941D02*
X14235735Y-10482941D01*
X14220000Y-10552500D02*
X14220000Y-10587500D01*
X14202500Y-10570000D02*
X14237500Y-10570000D01*
X14220000Y-10642500D02*
X14220000Y-10677500D01*
X14202500Y-10660000D02*
X14237500Y-10660000D01*
X14298235Y-10465441D02*
X14298235Y-10500441D01*
X14280735Y-10482941D02*
X14315735Y-10482941D01*
X14300000Y-10552500D02*
X14300000Y-10587500D01*
X14282500Y-10570000D02*
X14317500Y-10570000D01*
X14310000Y-10642500D02*
X14310000Y-10677500D01*
X14292500Y-10660000D02*
X14327500Y-10660000D01*
X14320000Y-9232500D02*
X14320000Y-9267500D01*
X14302500Y-9250000D02*
X14337500Y-9250000D01*
X14320000Y-9312500D02*
X14320000Y-9347500D01*
X14302500Y-9330000D02*
X14337500Y-9330000D01*
X14320000Y-9392500D02*
X14320000Y-9427500D01*
X14302500Y-9410000D02*
X14337500Y-9410000D01*
X14370000Y-11582500D02*
X14370000Y-11617500D01*
X14352500Y-11600000D02*
X14387500Y-11600000D01*
X14390000Y-9272500D02*
X14390000Y-9307500D01*
X14372500Y-9290000D02*
X14407500Y-9290000D01*
X14390000Y-9352500D02*
X14390000Y-9387500D01*
X14372500Y-9370000D02*
X14407500Y-9370000D01*
X14420000Y-11512500D02*
X14420000Y-11547500D01*
X14402500Y-11530000D02*
X14437500Y-11530000D01*
X14480000Y-11582500D02*
X14480000Y-11617500D01*
X14462500Y-11600000D02*
X14497500Y-11600000D01*
X14540000Y-9362500D02*
X14540000Y-9397500D01*
X14522500Y-9380000D02*
X14557500Y-9380000D01*
X14620000Y-11882500D02*
X14620000Y-11917500D01*
X14602500Y-11900000D02*
X14637500Y-11900000D01*
X14730000Y-10492500D02*
X14730000Y-10527500D01*
X14712500Y-10510000D02*
X14747500Y-10510000D01*
X14740000Y-9372500D02*
X14740000Y-9407500D01*
X14722500Y-9390000D02*
X14757500Y-9390000D01*
X14790000Y-10231550D02*
X14790000Y-10266550D01*
X14772500Y-10249050D02*
X14807500Y-10249050D01*
X14798235Y-9685441D02*
X14798235Y-9720441D01*
X14780735Y-9702941D02*
X14815735Y-9702941D01*
X14840000Y-9272500D02*
X14840000Y-9307500D01*
X14822500Y-9290000D02*
X14857500Y-9290000D01*
X14860000Y-9012500D02*
X14860000Y-9047500D01*
X14842500Y-9030000D02*
X14877500Y-9030000D01*
X14890000Y-10492500D02*
X14890000Y-10527500D01*
X14872500Y-10510000D02*
X14907500Y-10510000D01*
X14924666Y-9747450D02*
X14924666Y-9782450D01*
X14907166Y-9764950D02*
X14942166Y-9764950D01*
X14930000Y-10382500D02*
X14930000Y-10417500D01*
X14912500Y-10400000D02*
X14947500Y-10400000D01*
X14980000Y-11492500D02*
X14980000Y-11527500D01*
X14962500Y-11510000D02*
X14997500Y-11510000D01*
X15040000Y-8362500D02*
X15040000Y-8397500D01*
X15022500Y-8380000D02*
X15057500Y-8380000D01*
X15059592Y-9789871D02*
X15059592Y-9824871D01*
X15042092Y-9807371D02*
X15077092Y-9807371D01*
X15070000Y-10412500D02*
X15070000Y-10447500D01*
X15052500Y-10430000D02*
X15087500Y-10430000D01*
X15070050Y-10202500D02*
X15070050Y-10237500D01*
X15052550Y-10220000D02*
X15087550Y-10220000D01*
X15070050Y-10301963D02*
X15070050Y-10336963D01*
X15052550Y-10319463D02*
X15087550Y-10319463D01*
X15080000Y-11602500D02*
X15080000Y-11637500D01*
X15062500Y-11620000D02*
X15097500Y-11620000D01*
X15160000Y-9172500D02*
X15160000Y-9207500D01*
X15142500Y-9190000D02*
X15177500Y-9190000D01*
X15180000Y-8842500D02*
X15180000Y-8877500D01*
X15162500Y-8860000D02*
X15197500Y-8860000D01*
X15180000Y-10572500D02*
X15180000Y-10607500D01*
X15162500Y-10590000D02*
X15197500Y-10590000D01*
X15190000Y-10472500D02*
X15190000Y-10507500D01*
X15172500Y-10490000D02*
X15207500Y-10490000D01*
X15200000Y-10192500D02*
X15200000Y-10227500D01*
X15182500Y-10210000D02*
X15217500Y-10210000D01*
X15200050Y-11032500D02*
X15200050Y-11067500D01*
X15182550Y-11050000D02*
X15217550Y-11050000D01*
X15210000Y-8977450D02*
X15210000Y-9012450D01*
X15192500Y-8994950D02*
X15227500Y-8994950D01*
X15300000Y-9012500D02*
X15300000Y-9047500D01*
X15282500Y-9030000D02*
X15317500Y-9030000D01*
X15369950Y-10222500D02*
X15369950Y-10257500D01*
X15352450Y-10240000D02*
X15387450Y-10240000D01*
X15390000Y-10412500D02*
X15390000Y-10447500D01*
X15372500Y-10430000D02*
X15407500Y-10430000D01*
X15505000Y-10827500D02*
X15505000Y-10862500D01*
X15487500Y-10845000D02*
X15522500Y-10845000D01*
X15530000Y-11152500D02*
X15530000Y-11187500D01*
X15512500Y-11170000D02*
X15547500Y-11170000D01*
X15630000Y-10860050D02*
X15630000Y-10895050D01*
X15612500Y-10877550D02*
X15647500Y-10877550D01*
X15840000Y-10822500D02*
X15840000Y-10857500D01*
X15822500Y-10840000D02*
X15857500Y-10840000D01*
X15890000Y-9842500D02*
X15890000Y-9877500D01*
X15872500Y-9860000D02*
X15907500Y-9860000D01*
X15900000Y-10552500D02*
X15900000Y-10587500D01*
X15882500Y-10570000D02*
X15917500Y-10570000D01*
X15913793Y-11005060D02*
X15913793Y-11040060D01*
X15896293Y-11022560D02*
X15931293Y-11022560D01*
X15980000Y-10152500D02*
X15980000Y-10187500D01*
X15962500Y-10170000D02*
X15997500Y-10170000D01*
X16000000Y-10532500D02*
X16000000Y-10567500D01*
X15982500Y-10550000D02*
X16017500Y-10550000D01*
X16050000Y-9932500D02*
X16050000Y-9967500D01*
X16032500Y-9950000D02*
X16067500Y-9950000D01*
X16050000Y-10082500D02*
X16050000Y-10117500D01*
X16032500Y-10100000D02*
X16067500Y-10100000D01*
X16120000Y-9082500D02*
X16120000Y-9117500D01*
X16102500Y-9100000D02*
X16137500Y-9100000D01*
X16120000Y-10882500D02*
X16120000Y-10917500D01*
X16102500Y-10900000D02*
X16137500Y-10900000D01*
X16480000Y-10122500D02*
X16480000Y-10157500D01*
X16462500Y-10140000D02*
X16497500Y-10140000D01*
X16550000Y-9692500D02*
X16550000Y-9727500D01*
X16532500Y-9710000D02*
X16567500Y-9710000D01*
X16570000Y-9422500D02*
X16570000Y-9457500D01*
X16552500Y-9440000D02*
X16587500Y-9440000D01*
X16570000Y-9552500D02*
X16570000Y-9587500D01*
X16552500Y-9570000D02*
X16587500Y-9570000D01*
X16690000Y-10072500D02*
X16690000Y-10107500D01*
X16672500Y-10090000D02*
X16707500Y-10090000D01*
D15*
X13054142Y-9084142D02*
X13054142Y-9055858D01*
X13025858Y-9055858D01*
X13025858Y-9084142D01*
X13054142Y-9084142D01*
X14654142Y-8884142D02*
X14654142Y-8855858D01*
X14625858Y-8855858D01*
X14625858Y-8884142D01*
X14654142Y-8884142D01*
X14674142Y-10684142D02*
X14674142Y-10655858D01*
X14645858Y-10655858D01*
X14645858Y-10684142D01*
X14674142Y-10684142D01*
X15084142Y-10824142D02*
X15084142Y-10795858D01*
X15055858Y-10795858D01*
X15055858Y-10824142D01*
X15084142Y-10824142D01*
X15174142Y-10874142D02*
X15174142Y-10845858D01*
X15145858Y-10845858D01*
X15145858Y-10874142D01*
X15174142Y-10874142D01*
X15754142Y-9204092D02*
X15754142Y-9175808D01*
X15725858Y-9175808D01*
X15725858Y-9204092D01*
X15754142Y-9204092D01*
X15912167Y-9162168D02*
X15912167Y-9133883D01*
X15883883Y-9133883D01*
X15883883Y-9162168D01*
X15912167Y-9162168D01*
X15974142Y-9304142D02*
X15974142Y-9275858D01*
X15945858Y-9275858D01*
X15945858Y-9304142D01*
X15974142Y-9304142D01*
X16024142Y-8764142D02*
X16024142Y-8735858D01*
X15995858Y-8735858D01*
X15995858Y-8764142D01*
X16024142Y-8764142D01*
X16414142Y-10264142D02*
X16414142Y-10235858D01*
X16385858Y-10235858D01*
X16385858Y-10264142D01*
X16414142Y-10264142D01*
X16444142Y-9324142D02*
X16444142Y-9295858D01*
X16415858Y-9295858D01*
X16415858Y-9324142D01*
X16444142Y-9324142D01*
D16*
X13918000Y-8252500D02*
X13948000Y-8222500D01*
X13918000Y-8192500D01*
X13888000Y-8222500D01*
X13918000Y-8252500D01*
D11*
X13948000Y-8262500D02*
X13948000Y-8182500D01*
X13948000Y-8182500D02*
G75*
G03*
X13888000Y-8182500I-30000J0D01*
G01*
X13888000Y-8182500D02*
X13888000Y-8262500D01*
X13888000Y-8262500D02*
G75*
G03*
X13948000Y-8262500I30000J0D01*
G01*
D16*
X13918000Y-8672500D02*
X13948000Y-8642500D01*
X13918000Y-8612500D01*
X13888000Y-8642500D01*
X13918000Y-8672500D01*
D11*
X13948000Y-8697500D02*
X13948000Y-8587500D01*
X13948000Y-8587500D02*
G75*
G03*
X13888000Y-8587500I-30000J0D01*
G01*
X13888000Y-8587500D02*
X13888000Y-8697500D01*
X13888000Y-8697500D02*
G75*
G03*
X13948000Y-8697500I30000J0D01*
G01*
D16*
X14782000Y-8252500D02*
X14812000Y-8222500D01*
X14782000Y-8192500D01*
X14752000Y-8222500D01*
X14782000Y-8252500D01*
D11*
X14812000Y-8262500D02*
X14812000Y-8182500D01*
X14812000Y-8182500D02*
G75*
G03*
X14752000Y-8182500I-30000J0D01*
G01*
X14752000Y-8182500D02*
X14752000Y-8262500D01*
X14752000Y-8262500D02*
G75*
G03*
X14812000Y-8262500I30000J0D01*
G01*
D16*
X14782000Y-8672500D02*
X14812000Y-8642500D01*
X14782000Y-8612500D01*
X14752000Y-8642500D01*
X14782000Y-8672500D01*
D11*
X14812000Y-8697500D02*
X14812000Y-8587500D01*
X14812000Y-8587500D02*
G75*
G03*
X14752000Y-8587500I-30000J0D01*
G01*
X14752000Y-8587500D02*
X14752000Y-8697500D01*
X14752000Y-8697500D02*
G75*
G03*
X14812000Y-8697500I30000J0D01*
G01*
D17*
X15333500Y-11300500D02*
X15398500Y-11365500D01*
X15398500Y-11300500D02*
X15333500Y-11365500D01*
X15398500Y-11333000D02*
G75*
G03*
X15398500Y-11333000I-32500J0D01*
G01*
X15333500Y-11427500D02*
X15398500Y-11492500D01*
X15398500Y-11427500D02*
X15333500Y-11492500D01*
X15398500Y-11460000D02*
G75*
G03*
X15398500Y-11460000I-32500J0D01*
G01*
X15460500Y-11300500D02*
X15525500Y-11365500D01*
X15525500Y-11300500D02*
X15460500Y-11365500D01*
X15525500Y-11333000D02*
G75*
G03*
X15525500Y-11333000I-32500J0D01*
G01*
X15460500Y-11427500D02*
X15525500Y-11492500D01*
X15525500Y-11427500D02*
X15460500Y-11492500D01*
X15525500Y-11460000D02*
G75*
G03*
X15525500Y-11460000I-32500J0D01*
G01*
X15587500Y-11300500D02*
X15652500Y-11365500D01*
X15652500Y-11300500D02*
X15587500Y-11365500D01*
X15652500Y-11333000D02*
G75*
G03*
X15652500Y-11333000I-32500J0D01*
G01*
X15587500Y-11427500D02*
X15652500Y-11492500D01*
X15652500Y-11427500D02*
X15587500Y-11492500D01*
X15652500Y-11460000D02*
G75*
G03*
X15652500Y-11460000I-32500J0D01*
G01*
X15714500Y-11300500D02*
X15779500Y-11365500D01*
X15779500Y-11300500D02*
X15714500Y-11365500D01*
X15779500Y-11333000D02*
G75*
G03*
X15779500Y-11333000I-32500J0D01*
G01*
X15714500Y-11427500D02*
X15779500Y-11492500D01*
X15779500Y-11427500D02*
X15714500Y-11492500D01*
X15779500Y-11460000D02*
G75*
G03*
X15779500Y-11460000I-32500J0D01*
G01*
X15841500Y-11300500D02*
X15906500Y-11365500D01*
X15906500Y-11300500D02*
X15841500Y-11365500D01*
X15906500Y-11333000D02*
G75*
G03*
X15906500Y-11333000I-32500J0D01*
G01*
X15841500Y-11427500D02*
X15906500Y-11492500D01*
X15906500Y-11427500D02*
X15841500Y-11492500D01*
X15906500Y-11460000D02*
G75*
G03*
X15906500Y-11460000I-32500J0D01*
G01*
D18*
X13405735Y-9585441D02*
X13480735Y-9660441D01*
X13480735Y-9585441D02*
X13405735Y-9660441D01*
X13443235Y-9585441D02*
X13443235Y-9660441D01*
X13405735Y-9622941D02*
X13480735Y-9622941D01*
X13405735Y-9785441D02*
X13480735Y-9860441D01*
X13480735Y-9785441D02*
X13405735Y-9860441D01*
X13443235Y-9785441D02*
X13443235Y-9860441D01*
X13405735Y-9822941D02*
X13480735Y-9822941D01*
X13405735Y-9985441D02*
X13480735Y-10060441D01*
X13480735Y-9985441D02*
X13405735Y-10060441D01*
X13443235Y-9985441D02*
X13443235Y-10060441D01*
X13405735Y-10022941D02*
X13480735Y-10022941D01*
X13405735Y-10185441D02*
X13480735Y-10260441D01*
X13480735Y-10185441D02*
X13405735Y-10260441D01*
X13443235Y-10185441D02*
X13443235Y-10260441D01*
X13405735Y-10222941D02*
X13480735Y-10222941D01*
X13407500Y-10692500D02*
X13482500Y-10767500D01*
X13482500Y-10692500D02*
X13407500Y-10767500D01*
X13445000Y-10692500D02*
X13445000Y-10767500D01*
X13407500Y-10730000D02*
X13482500Y-10730000D01*
X13407500Y-10892500D02*
X13482500Y-10967500D01*
X13482500Y-10892500D02*
X13407500Y-10967500D01*
X13445000Y-10892500D02*
X13445000Y-10967500D01*
X13407500Y-10930000D02*
X13482500Y-10930000D01*
X15312500Y-8392500D02*
X15387500Y-8467500D01*
X15387500Y-8392500D02*
X15312500Y-8467500D01*
X15350000Y-8392500D02*
X15350000Y-8467500D01*
X15312500Y-8430000D02*
X15387500Y-8430000D01*
X15512500Y-8392500D02*
X15587500Y-8467500D01*
X15587500Y-8392500D02*
X15512500Y-8467500D01*
X15550000Y-8392500D02*
X15550000Y-8467500D01*
X15512500Y-8430000D02*
X15587500Y-8430000D01*
X15712500Y-8392500D02*
X15787500Y-8467500D01*
X15787500Y-8392500D02*
X15712500Y-8467500D01*
X15750000Y-8392500D02*
X15750000Y-8467500D01*
X15712500Y-8430000D02*
X15787500Y-8430000D01*
X15912500Y-8392500D02*
X15987500Y-8467500D01*
X15987500Y-8392500D02*
X15912500Y-8467500D01*
X15950000Y-8392500D02*
X15950000Y-8467500D01*
X15912500Y-8430000D02*
X15987500Y-8430000D01*
D11*
X13155777Y-12416484D02*
X13155777Y-12216484D01*
X13155777Y-12216484D02*
X13203396Y-12216484D01*
X13203396Y-12216484D02*
X13231967Y-12226008D01*
X13231967Y-12226008D02*
X13251015Y-12245055D01*
X13251015Y-12245055D02*
X13260539Y-12264103D01*
X13260539Y-12264103D02*
X13270062Y-12302198D01*
X13270062Y-12302198D02*
X13270062Y-12330769D01*
X13270062Y-12330769D02*
X13260539Y-12368865D01*
X13260539Y-12368865D02*
X13251015Y-12387912D01*
X13251015Y-12387912D02*
X13231967Y-12406960D01*
X13231967Y-12406960D02*
X13203396Y-12416484D01*
X13203396Y-12416484D02*
X13155777Y-12416484D01*
X13355777Y-12416484D02*
X13355777Y-12283150D01*
X13355777Y-12321246D02*
X13365301Y-12302198D01*
X13365301Y-12302198D02*
X13374824Y-12292674D01*
X13374824Y-12292674D02*
X13393872Y-12283150D01*
X13393872Y-12283150D02*
X13412920Y-12283150D01*
X13479586Y-12416484D02*
X13479586Y-12283150D01*
X13479586Y-12216484D02*
X13470062Y-12226008D01*
X13470062Y-12226008D02*
X13479586Y-12235531D01*
X13479586Y-12235531D02*
X13489110Y-12226008D01*
X13489110Y-12226008D02*
X13479586Y-12216484D01*
X13479586Y-12216484D02*
X13479586Y-12235531D01*
X13603396Y-12416484D02*
X13584348Y-12406960D01*
X13584348Y-12406960D02*
X13574824Y-12387912D01*
X13574824Y-12387912D02*
X13574824Y-12216484D01*
X13708158Y-12416484D02*
X13689110Y-12406960D01*
X13689110Y-12406960D02*
X13679586Y-12387912D01*
X13679586Y-12387912D02*
X13679586Y-12216484D01*
X13936729Y-12416484D02*
X13936729Y-12216484D01*
X13936729Y-12216484D02*
X14003396Y-12359341D01*
X14003396Y-12359341D02*
X14070062Y-12216484D01*
X14070062Y-12216484D02*
X14070062Y-12416484D01*
X14251015Y-12416484D02*
X14251015Y-12311722D01*
X14251015Y-12311722D02*
X14241491Y-12292674D01*
X14241491Y-12292674D02*
X14222443Y-12283150D01*
X14222443Y-12283150D02*
X14184348Y-12283150D01*
X14184348Y-12283150D02*
X14165301Y-12292674D01*
X14251015Y-12406960D02*
X14231967Y-12416484D01*
X14231967Y-12416484D02*
X14184348Y-12416484D01*
X14184348Y-12416484D02*
X14165301Y-12406960D01*
X14165301Y-12406960D02*
X14155777Y-12387912D01*
X14155777Y-12387912D02*
X14155777Y-12368865D01*
X14155777Y-12368865D02*
X14165301Y-12349817D01*
X14165301Y-12349817D02*
X14184348Y-12340293D01*
X14184348Y-12340293D02*
X14231967Y-12340293D01*
X14231967Y-12340293D02*
X14251015Y-12330769D01*
X14346253Y-12283150D02*
X14346253Y-12483150D01*
X14346253Y-12292674D02*
X14365301Y-12283150D01*
X14365301Y-12283150D02*
X14403396Y-12283150D01*
X14403396Y-12283150D02*
X14422443Y-12292674D01*
X14422443Y-12292674D02*
X14431967Y-12302198D01*
X14431967Y-12302198D02*
X14441491Y-12321246D01*
X14441491Y-12321246D02*
X14441491Y-12378388D01*
X14441491Y-12378388D02*
X14431967Y-12397436D01*
X14431967Y-12397436D02*
X14422443Y-12406960D01*
X14422443Y-12406960D02*
X14403396Y-12416484D01*
X14403396Y-12416484D02*
X14365301Y-12416484D01*
X14365301Y-12416484D02*
X14346253Y-12406960D01*
X14527205Y-12397436D02*
X14536729Y-12406960D01*
X14536729Y-12406960D02*
X14527205Y-12416484D01*
X14527205Y-12416484D02*
X14517682Y-12406960D01*
X14517682Y-12406960D02*
X14527205Y-12397436D01*
X14527205Y-12397436D02*
X14527205Y-12416484D01*
X14527205Y-12292674D02*
X14536729Y-12302198D01*
X14536729Y-12302198D02*
X14527205Y-12311722D01*
X14527205Y-12311722D02*
X14517682Y-12302198D01*
X14517682Y-12302198D02*
X14527205Y-12292674D01*
X14527205Y-12292674D02*
X14527205Y-12311722D01*
D12*
X12880000Y-12737500D02*
X12895000Y-12752500D01*
X12895000Y-12737500D02*
X12880000Y-12752500D01*
D11*
X13193872Y-12636484D02*
X13212920Y-12636484D01*
X13212920Y-12636484D02*
X13231967Y-12646008D01*
X13231967Y-12646008D02*
X13241491Y-12655531D01*
X13241491Y-12655531D02*
X13251015Y-12674579D01*
X13251015Y-12674579D02*
X13260539Y-12712674D01*
X13260539Y-12712674D02*
X13260539Y-12760293D01*
X13260539Y-12760293D02*
X13251015Y-12798388D01*
X13251015Y-12798388D02*
X13241491Y-12817436D01*
X13241491Y-12817436D02*
X13231967Y-12826960D01*
X13231967Y-12826960D02*
X13212920Y-12836484D01*
X13212920Y-12836484D02*
X13193872Y-12836484D01*
X13193872Y-12836484D02*
X13174824Y-12826960D01*
X13174824Y-12826960D02*
X13165301Y-12817436D01*
X13165301Y-12817436D02*
X13155777Y-12798388D01*
X13155777Y-12798388D02*
X13146253Y-12760293D01*
X13146253Y-12760293D02*
X13146253Y-12712674D01*
X13146253Y-12712674D02*
X13155777Y-12674579D01*
X13155777Y-12674579D02*
X13165301Y-12655531D01*
X13165301Y-12655531D02*
X13174824Y-12646008D01*
X13174824Y-12646008D02*
X13193872Y-12636484D01*
X13346253Y-12817436D02*
X13355777Y-12826960D01*
X13355777Y-12826960D02*
X13346253Y-12836484D01*
X13346253Y-12836484D02*
X13336729Y-12826960D01*
X13336729Y-12826960D02*
X13346253Y-12817436D01*
X13346253Y-12817436D02*
X13346253Y-12836484D01*
X13546253Y-12836484D02*
X13431967Y-12836484D01*
X13489110Y-12836484D02*
X13489110Y-12636484D01*
X13489110Y-12636484D02*
X13470062Y-12665055D01*
X13470062Y-12665055D02*
X13451015Y-12684103D01*
X13451015Y-12684103D02*
X13431967Y-12693627D01*
X13727205Y-12636484D02*
X13631967Y-12636484D01*
X13631967Y-12636484D02*
X13622443Y-12731722D01*
X13622443Y-12731722D02*
X13631967Y-12722198D01*
X13631967Y-12722198D02*
X13651015Y-12712674D01*
X13651015Y-12712674D02*
X13698634Y-12712674D01*
X13698634Y-12712674D02*
X13717682Y-12722198D01*
X13717682Y-12722198D02*
X13727205Y-12731722D01*
X13727205Y-12731722D02*
X13736729Y-12750769D01*
X13736729Y-12750769D02*
X13736729Y-12798388D01*
X13736729Y-12798388D02*
X13727205Y-12817436D01*
X13727205Y-12817436D02*
X13717682Y-12826960D01*
X13717682Y-12826960D02*
X13698634Y-12836484D01*
X13698634Y-12836484D02*
X13651015Y-12836484D01*
X13651015Y-12836484D02*
X13631967Y-12826960D01*
X13631967Y-12826960D02*
X13622443Y-12817436D01*
X13860539Y-12636484D02*
X13879586Y-12636484D01*
X13879586Y-12636484D02*
X13898634Y-12646008D01*
X13898634Y-12646008D02*
X13908158Y-12655531D01*
X13908158Y-12655531D02*
X13917682Y-12674579D01*
X13917682Y-12674579D02*
X13927205Y-12712674D01*
X13927205Y-12712674D02*
X13927205Y-12760293D01*
X13927205Y-12760293D02*
X13917682Y-12798388D01*
X13917682Y-12798388D02*
X13908158Y-12817436D01*
X13908158Y-12817436D02*
X13898634Y-12826960D01*
X13898634Y-12826960D02*
X13879586Y-12836484D01*
X13879586Y-12836484D02*
X13860539Y-12836484D01*
X13860539Y-12836484D02*
X13841491Y-12826960D01*
X13841491Y-12826960D02*
X13831967Y-12817436D01*
X13831967Y-12817436D02*
X13822443Y-12798388D01*
X13822443Y-12798388D02*
X13812920Y-12760293D01*
X13812920Y-12760293D02*
X13812920Y-12712674D01*
X13812920Y-12712674D02*
X13822443Y-12674579D01*
X13822443Y-12674579D02*
X13831967Y-12655531D01*
X13831967Y-12655531D02*
X13841491Y-12646008D01*
X13841491Y-12646008D02*
X13860539Y-12636484D01*
X14012920Y-12836484D02*
X14012920Y-12703150D01*
X14012920Y-12722198D02*
X14022443Y-12712674D01*
X14022443Y-12712674D02*
X14041491Y-12703150D01*
X14041491Y-12703150D02*
X14070063Y-12703150D01*
X14070063Y-12703150D02*
X14089110Y-12712674D01*
X14089110Y-12712674D02*
X14098634Y-12731722D01*
X14098634Y-12731722D02*
X14098634Y-12836484D01*
X14098634Y-12731722D02*
X14108158Y-12712674D01*
X14108158Y-12712674D02*
X14127205Y-12703150D01*
X14127205Y-12703150D02*
X14155777Y-12703150D01*
X14155777Y-12703150D02*
X14174824Y-12712674D01*
X14174824Y-12712674D02*
X14184348Y-12731722D01*
X14184348Y-12731722D02*
X14184348Y-12836484D01*
X14279586Y-12836484D02*
X14279586Y-12703150D01*
X14279586Y-12722198D02*
X14289110Y-12712674D01*
X14289110Y-12712674D02*
X14308158Y-12703150D01*
X14308158Y-12703150D02*
X14336729Y-12703150D01*
X14336729Y-12703150D02*
X14355777Y-12712674D01*
X14355777Y-12712674D02*
X14365301Y-12731722D01*
X14365301Y-12731722D02*
X14365301Y-12836484D01*
X14365301Y-12731722D02*
X14374824Y-12712674D01*
X14374824Y-12712674D02*
X14393872Y-12703150D01*
X14393872Y-12703150D02*
X14422443Y-12703150D01*
X14422443Y-12703150D02*
X14441491Y-12712674D01*
X14441491Y-12712674D02*
X14451015Y-12731722D01*
X14451015Y-12731722D02*
X14451015Y-12836484D01*
X14841491Y-12626960D02*
X14670063Y-12884103D01*
X15098634Y-12636484D02*
X15117682Y-12636484D01*
X15117682Y-12636484D02*
X15136729Y-12646008D01*
X15136729Y-12646008D02*
X15146253Y-12655531D01*
X15146253Y-12655531D02*
X15155777Y-12674579D01*
X15155777Y-12674579D02*
X15165301Y-12712674D01*
X15165301Y-12712674D02*
X15165301Y-12760293D01*
X15165301Y-12760293D02*
X15155777Y-12798388D01*
X15155777Y-12798388D02*
X15146253Y-12817436D01*
X15146253Y-12817436D02*
X15136729Y-12826960D01*
X15136729Y-12826960D02*
X15117682Y-12836484D01*
X15117682Y-12836484D02*
X15098634Y-12836484D01*
X15098634Y-12836484D02*
X15079586Y-12826960D01*
X15079586Y-12826960D02*
X15070063Y-12817436D01*
X15070063Y-12817436D02*
X15060539Y-12798388D01*
X15060539Y-12798388D02*
X15051015Y-12760293D01*
X15051015Y-12760293D02*
X15051015Y-12712674D01*
X15051015Y-12712674D02*
X15060539Y-12674579D01*
X15060539Y-12674579D02*
X15070063Y-12655531D01*
X15070063Y-12655531D02*
X15079586Y-12646008D01*
X15079586Y-12646008D02*
X15098634Y-12636484D01*
X15251015Y-12817436D02*
X15260539Y-12826960D01*
X15260539Y-12826960D02*
X15251015Y-12836484D01*
X15251015Y-12836484D02*
X15241491Y-12826960D01*
X15241491Y-12826960D02*
X15251015Y-12817436D01*
X15251015Y-12817436D02*
X15251015Y-12836484D01*
X15384348Y-12636484D02*
X15403396Y-12636484D01*
X15403396Y-12636484D02*
X15422444Y-12646008D01*
X15422444Y-12646008D02*
X15431967Y-12655531D01*
X15431967Y-12655531D02*
X15441491Y-12674579D01*
X15441491Y-12674579D02*
X15451015Y-12712674D01*
X15451015Y-12712674D02*
X15451015Y-12760293D01*
X15451015Y-12760293D02*
X15441491Y-12798388D01*
X15441491Y-12798388D02*
X15431967Y-12817436D01*
X15431967Y-12817436D02*
X15422444Y-12826960D01*
X15422444Y-12826960D02*
X15403396Y-12836484D01*
X15403396Y-12836484D02*
X15384348Y-12836484D01*
X15384348Y-12836484D02*
X15365301Y-12826960D01*
X15365301Y-12826960D02*
X15355777Y-12817436D01*
X15355777Y-12817436D02*
X15346253Y-12798388D01*
X15346253Y-12798388D02*
X15336729Y-12760293D01*
X15336729Y-12760293D02*
X15336729Y-12712674D01*
X15336729Y-12712674D02*
X15346253Y-12674579D01*
X15346253Y-12674579D02*
X15355777Y-12655531D01*
X15355777Y-12655531D02*
X15365301Y-12646008D01*
X15365301Y-12646008D02*
X15384348Y-12636484D01*
X15574825Y-12636484D02*
X15593872Y-12636484D01*
X15593872Y-12636484D02*
X15612920Y-12646008D01*
X15612920Y-12646008D02*
X15622444Y-12655531D01*
X15622444Y-12655531D02*
X15631967Y-12674579D01*
X15631967Y-12674579D02*
X15641491Y-12712674D01*
X15641491Y-12712674D02*
X15641491Y-12760293D01*
X15641491Y-12760293D02*
X15631967Y-12798388D01*
X15631967Y-12798388D02*
X15622444Y-12817436D01*
X15622444Y-12817436D02*
X15612920Y-12826960D01*
X15612920Y-12826960D02*
X15593872Y-12836484D01*
X15593872Y-12836484D02*
X15574825Y-12836484D01*
X15574825Y-12836484D02*
X15555777Y-12826960D01*
X15555777Y-12826960D02*
X15546253Y-12817436D01*
X15546253Y-12817436D02*
X15536729Y-12798388D01*
X15536729Y-12798388D02*
X15527206Y-12760293D01*
X15527206Y-12760293D02*
X15527206Y-12712674D01*
X15527206Y-12712674D02*
X15536729Y-12674579D01*
X15536729Y-12674579D02*
X15546253Y-12655531D01*
X15546253Y-12655531D02*
X15555777Y-12646008D01*
X15555777Y-12646008D02*
X15574825Y-12636484D01*
X15822444Y-12636484D02*
X15727206Y-12636484D01*
X15727206Y-12636484D02*
X15717682Y-12731722D01*
X15717682Y-12731722D02*
X15727206Y-12722198D01*
X15727206Y-12722198D02*
X15746253Y-12712674D01*
X15746253Y-12712674D02*
X15793872Y-12712674D01*
X15793872Y-12712674D02*
X15812920Y-12722198D01*
X15812920Y-12722198D02*
X15822444Y-12731722D01*
X15822444Y-12731722D02*
X15831967Y-12750769D01*
X15831967Y-12750769D02*
X15831967Y-12798388D01*
X15831967Y-12798388D02*
X15822444Y-12817436D01*
X15822444Y-12817436D02*
X15812920Y-12826960D01*
X15812920Y-12826960D02*
X15793872Y-12836484D01*
X15793872Y-12836484D02*
X15746253Y-12836484D01*
X15746253Y-12836484D02*
X15727206Y-12826960D01*
X15727206Y-12826960D02*
X15717682Y-12817436D01*
X15927206Y-12836484D02*
X15965301Y-12836484D01*
X15965301Y-12836484D02*
X15984348Y-12826960D01*
X15984348Y-12826960D02*
X15993872Y-12817436D01*
X15993872Y-12817436D02*
X16012920Y-12788865D01*
X16012920Y-12788865D02*
X16022444Y-12750769D01*
X16022444Y-12750769D02*
X16022444Y-12674579D01*
X16022444Y-12674579D02*
X16012920Y-12655531D01*
X16012920Y-12655531D02*
X16003396Y-12646008D01*
X16003396Y-12646008D02*
X15984348Y-12636484D01*
X15984348Y-12636484D02*
X15946253Y-12636484D01*
X15946253Y-12636484D02*
X15927206Y-12646008D01*
X15927206Y-12646008D02*
X15917682Y-12655531D01*
X15917682Y-12655531D02*
X15908158Y-12674579D01*
X15908158Y-12674579D02*
X15908158Y-12722198D01*
X15908158Y-12722198D02*
X15917682Y-12741246D01*
X15917682Y-12741246D02*
X15927206Y-12750769D01*
X15927206Y-12750769D02*
X15946253Y-12760293D01*
X15946253Y-12760293D02*
X15984348Y-12760293D01*
X15984348Y-12760293D02*
X16003396Y-12750769D01*
X16003396Y-12750769D02*
X16012920Y-12741246D01*
X16012920Y-12741246D02*
X16022444Y-12722198D01*
X16098634Y-12636484D02*
X16098634Y-12674579D01*
X16174825Y-12636484D02*
X16174825Y-12674579D01*
X16470063Y-12912674D02*
X16460539Y-12903150D01*
X16460539Y-12903150D02*
X16441491Y-12874579D01*
X16441491Y-12874579D02*
X16431968Y-12855531D01*
X16431968Y-12855531D02*
X16422444Y-12826960D01*
X16422444Y-12826960D02*
X16412920Y-12779341D01*
X16412920Y-12779341D02*
X16412920Y-12741246D01*
X16412920Y-12741246D02*
X16422444Y-12693627D01*
X16422444Y-12693627D02*
X16431968Y-12665055D01*
X16431968Y-12665055D02*
X16441491Y-12646008D01*
X16441491Y-12646008D02*
X16460539Y-12617436D01*
X16460539Y-12617436D02*
X16470063Y-12607912D01*
X16574825Y-12722198D02*
X16555777Y-12712674D01*
X16555777Y-12712674D02*
X16546253Y-12703150D01*
X16546253Y-12703150D02*
X16536729Y-12684103D01*
X16536729Y-12684103D02*
X16536729Y-12674579D01*
X16536729Y-12674579D02*
X16546253Y-12655531D01*
X16546253Y-12655531D02*
X16555777Y-12646008D01*
X16555777Y-12646008D02*
X16574825Y-12636484D01*
X16574825Y-12636484D02*
X16612920Y-12636484D01*
X16612920Y-12636484D02*
X16631968Y-12646008D01*
X16631968Y-12646008D02*
X16641491Y-12655531D01*
X16641491Y-12655531D02*
X16651015Y-12674579D01*
X16651015Y-12674579D02*
X16651015Y-12684103D01*
X16651015Y-12684103D02*
X16641491Y-12703150D01*
X16641491Y-12703150D02*
X16631968Y-12712674D01*
X16631968Y-12712674D02*
X16612920Y-12722198D01*
X16612920Y-12722198D02*
X16574825Y-12722198D01*
X16574825Y-12722198D02*
X16555777Y-12731722D01*
X16555777Y-12731722D02*
X16546253Y-12741246D01*
X16546253Y-12741246D02*
X16536729Y-12760293D01*
X16536729Y-12760293D02*
X16536729Y-12798388D01*
X16536729Y-12798388D02*
X16546253Y-12817436D01*
X16546253Y-12817436D02*
X16555777Y-12826960D01*
X16555777Y-12826960D02*
X16574825Y-12836484D01*
X16574825Y-12836484D02*
X16612920Y-12836484D01*
X16612920Y-12836484D02*
X16631968Y-12826960D01*
X16631968Y-12826960D02*
X16641491Y-12817436D01*
X16641491Y-12817436D02*
X16651015Y-12798388D01*
X16651015Y-12798388D02*
X16651015Y-12760293D01*
X16651015Y-12760293D02*
X16641491Y-12741246D01*
X16641491Y-12741246D02*
X16631968Y-12731722D01*
X16631968Y-12731722D02*
X16612920Y-12722198D01*
X16889111Y-12836484D02*
X16889111Y-12636484D01*
X16974825Y-12836484D02*
X16974825Y-12731722D01*
X16974825Y-12731722D02*
X16965301Y-12712674D01*
X16965301Y-12712674D02*
X16946253Y-12703150D01*
X16946253Y-12703150D02*
X16917682Y-12703150D01*
X16917682Y-12703150D02*
X16898634Y-12712674D01*
X16898634Y-12712674D02*
X16889111Y-12722198D01*
X17098634Y-12836484D02*
X17079587Y-12826960D01*
X17079587Y-12826960D02*
X17070063Y-12817436D01*
X17070063Y-12817436D02*
X17060539Y-12798388D01*
X17060539Y-12798388D02*
X17060539Y-12741246D01*
X17060539Y-12741246D02*
X17070063Y-12722198D01*
X17070063Y-12722198D02*
X17079587Y-12712674D01*
X17079587Y-12712674D02*
X17098634Y-12703150D01*
X17098634Y-12703150D02*
X17127206Y-12703150D01*
X17127206Y-12703150D02*
X17146253Y-12712674D01*
X17146253Y-12712674D02*
X17155777Y-12722198D01*
X17155777Y-12722198D02*
X17165301Y-12741246D01*
X17165301Y-12741246D02*
X17165301Y-12798388D01*
X17165301Y-12798388D02*
X17155777Y-12817436D01*
X17155777Y-12817436D02*
X17146253Y-12826960D01*
X17146253Y-12826960D02*
X17127206Y-12836484D01*
X17127206Y-12836484D02*
X17098634Y-12836484D01*
X17279587Y-12836484D02*
X17260539Y-12826960D01*
X17260539Y-12826960D02*
X17251015Y-12807912D01*
X17251015Y-12807912D02*
X17251015Y-12636484D01*
X17431968Y-12826960D02*
X17412920Y-12836484D01*
X17412920Y-12836484D02*
X17374825Y-12836484D01*
X17374825Y-12836484D02*
X17355777Y-12826960D01*
X17355777Y-12826960D02*
X17346253Y-12807912D01*
X17346253Y-12807912D02*
X17346253Y-12731722D01*
X17346253Y-12731722D02*
X17355777Y-12712674D01*
X17355777Y-12712674D02*
X17374825Y-12703150D01*
X17374825Y-12703150D02*
X17412920Y-12703150D01*
X17412920Y-12703150D02*
X17431968Y-12712674D01*
X17431968Y-12712674D02*
X17441492Y-12731722D01*
X17441492Y-12731722D02*
X17441492Y-12750769D01*
X17441492Y-12750769D02*
X17346253Y-12769817D01*
X17517682Y-12826960D02*
X17536730Y-12836484D01*
X17536730Y-12836484D02*
X17574825Y-12836484D01*
X17574825Y-12836484D02*
X17593873Y-12826960D01*
X17593873Y-12826960D02*
X17603396Y-12807912D01*
X17603396Y-12807912D02*
X17603396Y-12798388D01*
X17603396Y-12798388D02*
X17593873Y-12779341D01*
X17593873Y-12779341D02*
X17574825Y-12769817D01*
X17574825Y-12769817D02*
X17546253Y-12769817D01*
X17546253Y-12769817D02*
X17527206Y-12760293D01*
X17527206Y-12760293D02*
X17517682Y-12741246D01*
X17517682Y-12741246D02*
X17517682Y-12731722D01*
X17517682Y-12731722D02*
X17527206Y-12712674D01*
X17527206Y-12712674D02*
X17546253Y-12703150D01*
X17546253Y-12703150D02*
X17574825Y-12703150D01*
X17574825Y-12703150D02*
X17593873Y-12712674D01*
X17670063Y-12912674D02*
X17679587Y-12903150D01*
X17679587Y-12903150D02*
X17698634Y-12874579D01*
X17698634Y-12874579D02*
X17708158Y-12855531D01*
X17708158Y-12855531D02*
X17717682Y-12826960D01*
X17717682Y-12826960D02*
X17727206Y-12779341D01*
X17727206Y-12779341D02*
X17727206Y-12741246D01*
X17727206Y-12741246D02*
X17717682Y-12693627D01*
X17717682Y-12693627D02*
X17708158Y-12665055D01*
X17708158Y-12665055D02*
X17698634Y-12646008D01*
X17698634Y-12646008D02*
X17679587Y-12617436D01*
X17679587Y-12617436D02*
X17670063Y-12607912D01*
D13*
X12895000Y-13009000D02*
G75*
G03*
X12895000Y-13009000I-10000J0D01*
G01*
D11*
X13193872Y-12900484D02*
X13212920Y-12900484D01*
X13212920Y-12900484D02*
X13231967Y-12910008D01*
X13231967Y-12910008D02*
X13241491Y-12919531D01*
X13241491Y-12919531D02*
X13251015Y-12938579D01*
X13251015Y-12938579D02*
X13260539Y-12976674D01*
X13260539Y-12976674D02*
X13260539Y-13024293D01*
X13260539Y-13024293D02*
X13251015Y-13062388D01*
X13251015Y-13062388D02*
X13241491Y-13081436D01*
X13241491Y-13081436D02*
X13231967Y-13090960D01*
X13231967Y-13090960D02*
X13212920Y-13100484D01*
X13212920Y-13100484D02*
X13193872Y-13100484D01*
X13193872Y-13100484D02*
X13174824Y-13090960D01*
X13174824Y-13090960D02*
X13165301Y-13081436D01*
X13165301Y-13081436D02*
X13155777Y-13062388D01*
X13155777Y-13062388D02*
X13146253Y-13024293D01*
X13146253Y-13024293D02*
X13146253Y-12976674D01*
X13146253Y-12976674D02*
X13155777Y-12938579D01*
X13155777Y-12938579D02*
X13165301Y-12919531D01*
X13165301Y-12919531D02*
X13174824Y-12910008D01*
X13174824Y-12910008D02*
X13193872Y-12900484D01*
X13346253Y-13081436D02*
X13355777Y-13090960D01*
X13355777Y-13090960D02*
X13346253Y-13100484D01*
X13346253Y-13100484D02*
X13336729Y-13090960D01*
X13336729Y-13090960D02*
X13346253Y-13081436D01*
X13346253Y-13081436D02*
X13346253Y-13100484D01*
X13431967Y-12919531D02*
X13441491Y-12910008D01*
X13441491Y-12910008D02*
X13460539Y-12900484D01*
X13460539Y-12900484D02*
X13508158Y-12900484D01*
X13508158Y-12900484D02*
X13527205Y-12910008D01*
X13527205Y-12910008D02*
X13536729Y-12919531D01*
X13536729Y-12919531D02*
X13546253Y-12938579D01*
X13546253Y-12938579D02*
X13546253Y-12957627D01*
X13546253Y-12957627D02*
X13536729Y-12986198D01*
X13536729Y-12986198D02*
X13422443Y-13100484D01*
X13422443Y-13100484D02*
X13546253Y-13100484D01*
X13670062Y-12900484D02*
X13689110Y-12900484D01*
X13689110Y-12900484D02*
X13708158Y-12910008D01*
X13708158Y-12910008D02*
X13717682Y-12919531D01*
X13717682Y-12919531D02*
X13727205Y-12938579D01*
X13727205Y-12938579D02*
X13736729Y-12976674D01*
X13736729Y-12976674D02*
X13736729Y-13024293D01*
X13736729Y-13024293D02*
X13727205Y-13062388D01*
X13727205Y-13062388D02*
X13717682Y-13081436D01*
X13717682Y-13081436D02*
X13708158Y-13090960D01*
X13708158Y-13090960D02*
X13689110Y-13100484D01*
X13689110Y-13100484D02*
X13670062Y-13100484D01*
X13670062Y-13100484D02*
X13651015Y-13090960D01*
X13651015Y-13090960D02*
X13641491Y-13081436D01*
X13641491Y-13081436D02*
X13631967Y-13062388D01*
X13631967Y-13062388D02*
X13622443Y-13024293D01*
X13622443Y-13024293D02*
X13622443Y-12976674D01*
X13622443Y-12976674D02*
X13631967Y-12938579D01*
X13631967Y-12938579D02*
X13641491Y-12919531D01*
X13641491Y-12919531D02*
X13651015Y-12910008D01*
X13651015Y-12910008D02*
X13670062Y-12900484D01*
X13860539Y-12900484D02*
X13879586Y-12900484D01*
X13879586Y-12900484D02*
X13898634Y-12910008D01*
X13898634Y-12910008D02*
X13908158Y-12919531D01*
X13908158Y-12919531D02*
X13917682Y-12938579D01*
X13917682Y-12938579D02*
X13927205Y-12976674D01*
X13927205Y-12976674D02*
X13927205Y-13024293D01*
X13927205Y-13024293D02*
X13917682Y-13062388D01*
X13917682Y-13062388D02*
X13908158Y-13081436D01*
X13908158Y-13081436D02*
X13898634Y-13090960D01*
X13898634Y-13090960D02*
X13879586Y-13100484D01*
X13879586Y-13100484D02*
X13860539Y-13100484D01*
X13860539Y-13100484D02*
X13841491Y-13090960D01*
X13841491Y-13090960D02*
X13831967Y-13081436D01*
X13831967Y-13081436D02*
X13822443Y-13062388D01*
X13822443Y-13062388D02*
X13812920Y-13024293D01*
X13812920Y-13024293D02*
X13812920Y-12976674D01*
X13812920Y-12976674D02*
X13822443Y-12938579D01*
X13822443Y-12938579D02*
X13831967Y-12919531D01*
X13831967Y-12919531D02*
X13841491Y-12910008D01*
X13841491Y-12910008D02*
X13860539Y-12900484D01*
X14012920Y-13100484D02*
X14012920Y-12967150D01*
X14012920Y-12986198D02*
X14022443Y-12976674D01*
X14022443Y-12976674D02*
X14041491Y-12967150D01*
X14041491Y-12967150D02*
X14070063Y-12967150D01*
X14070063Y-12967150D02*
X14089110Y-12976674D01*
X14089110Y-12976674D02*
X14098634Y-12995722D01*
X14098634Y-12995722D02*
X14098634Y-13100484D01*
X14098634Y-12995722D02*
X14108158Y-12976674D01*
X14108158Y-12976674D02*
X14127205Y-12967150D01*
X14127205Y-12967150D02*
X14155777Y-12967150D01*
X14155777Y-12967150D02*
X14174824Y-12976674D01*
X14174824Y-12976674D02*
X14184348Y-12995722D01*
X14184348Y-12995722D02*
X14184348Y-13100484D01*
X14279586Y-13100484D02*
X14279586Y-12967150D01*
X14279586Y-12986198D02*
X14289110Y-12976674D01*
X14289110Y-12976674D02*
X14308158Y-12967150D01*
X14308158Y-12967150D02*
X14336729Y-12967150D01*
X14336729Y-12967150D02*
X14355777Y-12976674D01*
X14355777Y-12976674D02*
X14365301Y-12995722D01*
X14365301Y-12995722D02*
X14365301Y-13100484D01*
X14365301Y-12995722D02*
X14374824Y-12976674D01*
X14374824Y-12976674D02*
X14393872Y-12967150D01*
X14393872Y-12967150D02*
X14422443Y-12967150D01*
X14422443Y-12967150D02*
X14441491Y-12976674D01*
X14441491Y-12976674D02*
X14451015Y-12995722D01*
X14451015Y-12995722D02*
X14451015Y-13100484D01*
X14841491Y-12890960D02*
X14670063Y-13148103D01*
X15098634Y-12900484D02*
X15117682Y-12900484D01*
X15117682Y-12900484D02*
X15136729Y-12910008D01*
X15136729Y-12910008D02*
X15146253Y-12919531D01*
X15146253Y-12919531D02*
X15155777Y-12938579D01*
X15155777Y-12938579D02*
X15165301Y-12976674D01*
X15165301Y-12976674D02*
X15165301Y-13024293D01*
X15165301Y-13024293D02*
X15155777Y-13062388D01*
X15155777Y-13062388D02*
X15146253Y-13081436D01*
X15146253Y-13081436D02*
X15136729Y-13090960D01*
X15136729Y-13090960D02*
X15117682Y-13100484D01*
X15117682Y-13100484D02*
X15098634Y-13100484D01*
X15098634Y-13100484D02*
X15079586Y-13090960D01*
X15079586Y-13090960D02*
X15070063Y-13081436D01*
X15070063Y-13081436D02*
X15060539Y-13062388D01*
X15060539Y-13062388D02*
X15051015Y-13024293D01*
X15051015Y-13024293D02*
X15051015Y-12976674D01*
X15051015Y-12976674D02*
X15060539Y-12938579D01*
X15060539Y-12938579D02*
X15070063Y-12919531D01*
X15070063Y-12919531D02*
X15079586Y-12910008D01*
X15079586Y-12910008D02*
X15098634Y-12900484D01*
X15251015Y-13081436D02*
X15260539Y-13090960D01*
X15260539Y-13090960D02*
X15251015Y-13100484D01*
X15251015Y-13100484D02*
X15241491Y-13090960D01*
X15241491Y-13090960D02*
X15251015Y-13081436D01*
X15251015Y-13081436D02*
X15251015Y-13100484D01*
X15384348Y-12900484D02*
X15403396Y-12900484D01*
X15403396Y-12900484D02*
X15422444Y-12910008D01*
X15422444Y-12910008D02*
X15431967Y-12919531D01*
X15431967Y-12919531D02*
X15441491Y-12938579D01*
X15441491Y-12938579D02*
X15451015Y-12976674D01*
X15451015Y-12976674D02*
X15451015Y-13024293D01*
X15451015Y-13024293D02*
X15441491Y-13062388D01*
X15441491Y-13062388D02*
X15431967Y-13081436D01*
X15431967Y-13081436D02*
X15422444Y-13090960D01*
X15422444Y-13090960D02*
X15403396Y-13100484D01*
X15403396Y-13100484D02*
X15384348Y-13100484D01*
X15384348Y-13100484D02*
X15365301Y-13090960D01*
X15365301Y-13090960D02*
X15355777Y-13081436D01*
X15355777Y-13081436D02*
X15346253Y-13062388D01*
X15346253Y-13062388D02*
X15336729Y-13024293D01*
X15336729Y-13024293D02*
X15336729Y-12976674D01*
X15336729Y-12976674D02*
X15346253Y-12938579D01*
X15346253Y-12938579D02*
X15355777Y-12919531D01*
X15355777Y-12919531D02*
X15365301Y-12910008D01*
X15365301Y-12910008D02*
X15384348Y-12900484D01*
X15574825Y-12900484D02*
X15593872Y-12900484D01*
X15593872Y-12900484D02*
X15612920Y-12910008D01*
X15612920Y-12910008D02*
X15622444Y-12919531D01*
X15622444Y-12919531D02*
X15631967Y-12938579D01*
X15631967Y-12938579D02*
X15641491Y-12976674D01*
X15641491Y-12976674D02*
X15641491Y-13024293D01*
X15641491Y-13024293D02*
X15631967Y-13062388D01*
X15631967Y-13062388D02*
X15622444Y-13081436D01*
X15622444Y-13081436D02*
X15612920Y-13090960D01*
X15612920Y-13090960D02*
X15593872Y-13100484D01*
X15593872Y-13100484D02*
X15574825Y-13100484D01*
X15574825Y-13100484D02*
X15555777Y-13090960D01*
X15555777Y-13090960D02*
X15546253Y-13081436D01*
X15546253Y-13081436D02*
X15536729Y-13062388D01*
X15536729Y-13062388D02*
X15527206Y-13024293D01*
X15527206Y-13024293D02*
X15527206Y-12976674D01*
X15527206Y-12976674D02*
X15536729Y-12938579D01*
X15536729Y-12938579D02*
X15546253Y-12919531D01*
X15546253Y-12919531D02*
X15555777Y-12910008D01*
X15555777Y-12910008D02*
X15574825Y-12900484D01*
X15708158Y-12900484D02*
X15841491Y-12900484D01*
X15841491Y-12900484D02*
X15755777Y-13100484D01*
X15927206Y-13100484D02*
X15965301Y-13100484D01*
X15965301Y-13100484D02*
X15984348Y-13090960D01*
X15984348Y-13090960D02*
X15993872Y-13081436D01*
X15993872Y-13081436D02*
X16012920Y-13052865D01*
X16012920Y-13052865D02*
X16022444Y-13014769D01*
X16022444Y-13014769D02*
X16022444Y-12938579D01*
X16022444Y-12938579D02*
X16012920Y-12919531D01*
X16012920Y-12919531D02*
X16003396Y-12910008D01*
X16003396Y-12910008D02*
X15984348Y-12900484D01*
X15984348Y-12900484D02*
X15946253Y-12900484D01*
X15946253Y-12900484D02*
X15927206Y-12910008D01*
X15927206Y-12910008D02*
X15917682Y-12919531D01*
X15917682Y-12919531D02*
X15908158Y-12938579D01*
X15908158Y-12938579D02*
X15908158Y-12986198D01*
X15908158Y-12986198D02*
X15917682Y-13005246D01*
X15917682Y-13005246D02*
X15927206Y-13014769D01*
X15927206Y-13014769D02*
X15946253Y-13024293D01*
X15946253Y-13024293D02*
X15984348Y-13024293D01*
X15984348Y-13024293D02*
X16003396Y-13014769D01*
X16003396Y-13014769D02*
X16012920Y-13005246D01*
X16012920Y-13005246D02*
X16022444Y-12986198D01*
X16098634Y-12900484D02*
X16098634Y-12938579D01*
X16174825Y-12900484D02*
X16174825Y-12938579D01*
X16470063Y-13176674D02*
X16460539Y-13167150D01*
X16460539Y-13167150D02*
X16441491Y-13138579D01*
X16441491Y-13138579D02*
X16431968Y-13119531D01*
X16431968Y-13119531D02*
X16422444Y-13090960D01*
X16422444Y-13090960D02*
X16412920Y-13043341D01*
X16412920Y-13043341D02*
X16412920Y-13005246D01*
X16412920Y-13005246D02*
X16422444Y-12957627D01*
X16422444Y-12957627D02*
X16431968Y-12929055D01*
X16431968Y-12929055D02*
X16441491Y-12910008D01*
X16441491Y-12910008D02*
X16460539Y-12881436D01*
X16460539Y-12881436D02*
X16470063Y-12871912D01*
X16555777Y-13100484D02*
X16593872Y-13100484D01*
X16593872Y-13100484D02*
X16612920Y-13090960D01*
X16612920Y-13090960D02*
X16622444Y-13081436D01*
X16622444Y-13081436D02*
X16641491Y-13052865D01*
X16641491Y-13052865D02*
X16651015Y-13014769D01*
X16651015Y-13014769D02*
X16651015Y-12938579D01*
X16651015Y-12938579D02*
X16641491Y-12919531D01*
X16641491Y-12919531D02*
X16631968Y-12910008D01*
X16631968Y-12910008D02*
X16612920Y-12900484D01*
X16612920Y-12900484D02*
X16574825Y-12900484D01*
X16574825Y-12900484D02*
X16555777Y-12910008D01*
X16555777Y-12910008D02*
X16546253Y-12919531D01*
X16546253Y-12919531D02*
X16536729Y-12938579D01*
X16536729Y-12938579D02*
X16536729Y-12986198D01*
X16536729Y-12986198D02*
X16546253Y-13005246D01*
X16546253Y-13005246D02*
X16555777Y-13014769D01*
X16555777Y-13014769D02*
X16574825Y-13024293D01*
X16574825Y-13024293D02*
X16612920Y-13024293D01*
X16612920Y-13024293D02*
X16631968Y-13014769D01*
X16631968Y-13014769D02*
X16641491Y-13005246D01*
X16641491Y-13005246D02*
X16651015Y-12986198D01*
X16889111Y-13100484D02*
X16889111Y-12900484D01*
X16974825Y-13100484D02*
X16974825Y-12995722D01*
X16974825Y-12995722D02*
X16965301Y-12976674D01*
X16965301Y-12976674D02*
X16946253Y-12967150D01*
X16946253Y-12967150D02*
X16917682Y-12967150D01*
X16917682Y-12967150D02*
X16898634Y-12976674D01*
X16898634Y-12976674D02*
X16889111Y-12986198D01*
X17098634Y-13100484D02*
X17079587Y-13090960D01*
X17079587Y-13090960D02*
X17070063Y-13081436D01*
X17070063Y-13081436D02*
X17060539Y-13062388D01*
X17060539Y-13062388D02*
X17060539Y-13005246D01*
X17060539Y-13005246D02*
X17070063Y-12986198D01*
X17070063Y-12986198D02*
X17079587Y-12976674D01*
X17079587Y-12976674D02*
X17098634Y-12967150D01*
X17098634Y-12967150D02*
X17127206Y-12967150D01*
X17127206Y-12967150D02*
X17146253Y-12976674D01*
X17146253Y-12976674D02*
X17155777Y-12986198D01*
X17155777Y-12986198D02*
X17165301Y-13005246D01*
X17165301Y-13005246D02*
X17165301Y-13062388D01*
X17165301Y-13062388D02*
X17155777Y-13081436D01*
X17155777Y-13081436D02*
X17146253Y-13090960D01*
X17146253Y-13090960D02*
X17127206Y-13100484D01*
X17127206Y-13100484D02*
X17098634Y-13100484D01*
X17279587Y-13100484D02*
X17260539Y-13090960D01*
X17260539Y-13090960D02*
X17251015Y-13071912D01*
X17251015Y-13071912D02*
X17251015Y-12900484D01*
X17431968Y-13090960D02*
X17412920Y-13100484D01*
X17412920Y-13100484D02*
X17374825Y-13100484D01*
X17374825Y-13100484D02*
X17355777Y-13090960D01*
X17355777Y-13090960D02*
X17346253Y-13071912D01*
X17346253Y-13071912D02*
X17346253Y-12995722D01*
X17346253Y-12995722D02*
X17355777Y-12976674D01*
X17355777Y-12976674D02*
X17374825Y-12967150D01*
X17374825Y-12967150D02*
X17412920Y-12967150D01*
X17412920Y-12967150D02*
X17431968Y-12976674D01*
X17431968Y-12976674D02*
X17441492Y-12995722D01*
X17441492Y-12995722D02*
X17441492Y-13014769D01*
X17441492Y-13014769D02*
X17346253Y-13033817D01*
X17517682Y-13090960D02*
X17536730Y-13100484D01*
X17536730Y-13100484D02*
X17574825Y-13100484D01*
X17574825Y-13100484D02*
X17593873Y-13090960D01*
X17593873Y-13090960D02*
X17603396Y-13071912D01*
X17603396Y-13071912D02*
X17603396Y-13062388D01*
X17603396Y-13062388D02*
X17593873Y-13043341D01*
X17593873Y-13043341D02*
X17574825Y-13033817D01*
X17574825Y-13033817D02*
X17546253Y-13033817D01*
X17546253Y-13033817D02*
X17527206Y-13024293D01*
X17527206Y-13024293D02*
X17517682Y-13005246D01*
X17517682Y-13005246D02*
X17517682Y-12995722D01*
X17517682Y-12995722D02*
X17527206Y-12976674D01*
X17527206Y-12976674D02*
X17546253Y-12967150D01*
X17546253Y-12967150D02*
X17574825Y-12967150D01*
X17574825Y-12967150D02*
X17593873Y-12976674D01*
X17670063Y-13176674D02*
X17679587Y-13167150D01*
X17679587Y-13167150D02*
X17698634Y-13138579D01*
X17698634Y-13138579D02*
X17708158Y-13119531D01*
X17708158Y-13119531D02*
X17717682Y-13090960D01*
X17717682Y-13090960D02*
X17727206Y-13043341D01*
X17727206Y-13043341D02*
X17727206Y-13005246D01*
X17727206Y-13005246D02*
X17717682Y-12957627D01*
X17717682Y-12957627D02*
X17708158Y-12929055D01*
X17708158Y-12929055D02*
X17698634Y-12910008D01*
X17698634Y-12910008D02*
X17679587Y-12881436D01*
X17679587Y-12881436D02*
X17670063Y-12871912D01*
D14*
X12877500Y-13255500D02*
X12877500Y-13290500D01*
X12860000Y-13273000D02*
X12895000Y-13273000D01*
D11*
X13193872Y-13164484D02*
X13212920Y-13164484D01*
X13212920Y-13164484D02*
X13231967Y-13174008D01*
X13231967Y-13174008D02*
X13241491Y-13183531D01*
X13241491Y-13183531D02*
X13251015Y-13202579D01*
X13251015Y-13202579D02*
X13260539Y-13240674D01*
X13260539Y-13240674D02*
X13260539Y-13288293D01*
X13260539Y-13288293D02*
X13251015Y-13326388D01*
X13251015Y-13326388D02*
X13241491Y-13345436D01*
X13241491Y-13345436D02*
X13231967Y-13354960D01*
X13231967Y-13354960D02*
X13212920Y-13364484D01*
X13212920Y-13364484D02*
X13193872Y-13364484D01*
X13193872Y-13364484D02*
X13174824Y-13354960D01*
X13174824Y-13354960D02*
X13165301Y-13345436D01*
X13165301Y-13345436D02*
X13155777Y-13326388D01*
X13155777Y-13326388D02*
X13146253Y-13288293D01*
X13146253Y-13288293D02*
X13146253Y-13240674D01*
X13146253Y-13240674D02*
X13155777Y-13202579D01*
X13155777Y-13202579D02*
X13165301Y-13183531D01*
X13165301Y-13183531D02*
X13174824Y-13174008D01*
X13174824Y-13174008D02*
X13193872Y-13164484D01*
X13346253Y-13345436D02*
X13355777Y-13354960D01*
X13355777Y-13354960D02*
X13346253Y-13364484D01*
X13346253Y-13364484D02*
X13336729Y-13354960D01*
X13336729Y-13354960D02*
X13346253Y-13345436D01*
X13346253Y-13345436D02*
X13346253Y-13364484D01*
X13422443Y-13164484D02*
X13546253Y-13164484D01*
X13546253Y-13164484D02*
X13479586Y-13240674D01*
X13479586Y-13240674D02*
X13508158Y-13240674D01*
X13508158Y-13240674D02*
X13527205Y-13250198D01*
X13527205Y-13250198D02*
X13536729Y-13259722D01*
X13536729Y-13259722D02*
X13546253Y-13278769D01*
X13546253Y-13278769D02*
X13546253Y-13326388D01*
X13546253Y-13326388D02*
X13536729Y-13345436D01*
X13536729Y-13345436D02*
X13527205Y-13354960D01*
X13527205Y-13354960D02*
X13508158Y-13364484D01*
X13508158Y-13364484D02*
X13451015Y-13364484D01*
X13451015Y-13364484D02*
X13431967Y-13354960D01*
X13431967Y-13354960D02*
X13422443Y-13345436D01*
X13727205Y-13164484D02*
X13631967Y-13164484D01*
X13631967Y-13164484D02*
X13622443Y-13259722D01*
X13622443Y-13259722D02*
X13631967Y-13250198D01*
X13631967Y-13250198D02*
X13651015Y-13240674D01*
X13651015Y-13240674D02*
X13698634Y-13240674D01*
X13698634Y-13240674D02*
X13717682Y-13250198D01*
X13717682Y-13250198D02*
X13727205Y-13259722D01*
X13727205Y-13259722D02*
X13736729Y-13278769D01*
X13736729Y-13278769D02*
X13736729Y-13326388D01*
X13736729Y-13326388D02*
X13727205Y-13345436D01*
X13727205Y-13345436D02*
X13717682Y-13354960D01*
X13717682Y-13354960D02*
X13698634Y-13364484D01*
X13698634Y-13364484D02*
X13651015Y-13364484D01*
X13651015Y-13364484D02*
X13631967Y-13354960D01*
X13631967Y-13354960D02*
X13622443Y-13345436D01*
X13860539Y-13164484D02*
X13879586Y-13164484D01*
X13879586Y-13164484D02*
X13898634Y-13174008D01*
X13898634Y-13174008D02*
X13908158Y-13183531D01*
X13908158Y-13183531D02*
X13917682Y-13202579D01*
X13917682Y-13202579D02*
X13927205Y-13240674D01*
X13927205Y-13240674D02*
X13927205Y-13288293D01*
X13927205Y-13288293D02*
X13917682Y-13326388D01*
X13917682Y-13326388D02*
X13908158Y-13345436D01*
X13908158Y-13345436D02*
X13898634Y-13354960D01*
X13898634Y-13354960D02*
X13879586Y-13364484D01*
X13879586Y-13364484D02*
X13860539Y-13364484D01*
X13860539Y-13364484D02*
X13841491Y-13354960D01*
X13841491Y-13354960D02*
X13831967Y-13345436D01*
X13831967Y-13345436D02*
X13822443Y-13326388D01*
X13822443Y-13326388D02*
X13812920Y-13288293D01*
X13812920Y-13288293D02*
X13812920Y-13240674D01*
X13812920Y-13240674D02*
X13822443Y-13202579D01*
X13822443Y-13202579D02*
X13831967Y-13183531D01*
X13831967Y-13183531D02*
X13841491Y-13174008D01*
X13841491Y-13174008D02*
X13860539Y-13164484D01*
X14012920Y-13364484D02*
X14012920Y-13231150D01*
X14012920Y-13250198D02*
X14022443Y-13240674D01*
X14022443Y-13240674D02*
X14041491Y-13231150D01*
X14041491Y-13231150D02*
X14070063Y-13231150D01*
X14070063Y-13231150D02*
X14089110Y-13240674D01*
X14089110Y-13240674D02*
X14098634Y-13259722D01*
X14098634Y-13259722D02*
X14098634Y-13364484D01*
X14098634Y-13259722D02*
X14108158Y-13240674D01*
X14108158Y-13240674D02*
X14127205Y-13231150D01*
X14127205Y-13231150D02*
X14155777Y-13231150D01*
X14155777Y-13231150D02*
X14174824Y-13240674D01*
X14174824Y-13240674D02*
X14184348Y-13259722D01*
X14184348Y-13259722D02*
X14184348Y-13364484D01*
X14279586Y-13364484D02*
X14279586Y-13231150D01*
X14279586Y-13250198D02*
X14289110Y-13240674D01*
X14289110Y-13240674D02*
X14308158Y-13231150D01*
X14308158Y-13231150D02*
X14336729Y-13231150D01*
X14336729Y-13231150D02*
X14355777Y-13240674D01*
X14355777Y-13240674D02*
X14365301Y-13259722D01*
X14365301Y-13259722D02*
X14365301Y-13364484D01*
X14365301Y-13259722D02*
X14374824Y-13240674D01*
X14374824Y-13240674D02*
X14393872Y-13231150D01*
X14393872Y-13231150D02*
X14422443Y-13231150D01*
X14422443Y-13231150D02*
X14441491Y-13240674D01*
X14441491Y-13240674D02*
X14451015Y-13259722D01*
X14451015Y-13259722D02*
X14451015Y-13364484D01*
X14841491Y-13154960D02*
X14670063Y-13412103D01*
X15098634Y-13164484D02*
X15117682Y-13164484D01*
X15117682Y-13164484D02*
X15136729Y-13174008D01*
X15136729Y-13174008D02*
X15146253Y-13183531D01*
X15146253Y-13183531D02*
X15155777Y-13202579D01*
X15155777Y-13202579D02*
X15165301Y-13240674D01*
X15165301Y-13240674D02*
X15165301Y-13288293D01*
X15165301Y-13288293D02*
X15155777Y-13326388D01*
X15155777Y-13326388D02*
X15146253Y-13345436D01*
X15146253Y-13345436D02*
X15136729Y-13354960D01*
X15136729Y-13354960D02*
X15117682Y-13364484D01*
X15117682Y-13364484D02*
X15098634Y-13364484D01*
X15098634Y-13364484D02*
X15079586Y-13354960D01*
X15079586Y-13354960D02*
X15070063Y-13345436D01*
X15070063Y-13345436D02*
X15060539Y-13326388D01*
X15060539Y-13326388D02*
X15051015Y-13288293D01*
X15051015Y-13288293D02*
X15051015Y-13240674D01*
X15051015Y-13240674D02*
X15060539Y-13202579D01*
X15060539Y-13202579D02*
X15070063Y-13183531D01*
X15070063Y-13183531D02*
X15079586Y-13174008D01*
X15079586Y-13174008D02*
X15098634Y-13164484D01*
X15251015Y-13345436D02*
X15260539Y-13354960D01*
X15260539Y-13354960D02*
X15251015Y-13364484D01*
X15251015Y-13364484D02*
X15241491Y-13354960D01*
X15241491Y-13354960D02*
X15251015Y-13345436D01*
X15251015Y-13345436D02*
X15251015Y-13364484D01*
X15384348Y-13164484D02*
X15403396Y-13164484D01*
X15403396Y-13164484D02*
X15422444Y-13174008D01*
X15422444Y-13174008D02*
X15431967Y-13183531D01*
X15431967Y-13183531D02*
X15441491Y-13202579D01*
X15441491Y-13202579D02*
X15451015Y-13240674D01*
X15451015Y-13240674D02*
X15451015Y-13288293D01*
X15451015Y-13288293D02*
X15441491Y-13326388D01*
X15441491Y-13326388D02*
X15431967Y-13345436D01*
X15431967Y-13345436D02*
X15422444Y-13354960D01*
X15422444Y-13354960D02*
X15403396Y-13364484D01*
X15403396Y-13364484D02*
X15384348Y-13364484D01*
X15384348Y-13364484D02*
X15365301Y-13354960D01*
X15365301Y-13354960D02*
X15355777Y-13345436D01*
X15355777Y-13345436D02*
X15346253Y-13326388D01*
X15346253Y-13326388D02*
X15336729Y-13288293D01*
X15336729Y-13288293D02*
X15336729Y-13240674D01*
X15336729Y-13240674D02*
X15346253Y-13202579D01*
X15346253Y-13202579D02*
X15355777Y-13183531D01*
X15355777Y-13183531D02*
X15365301Y-13174008D01*
X15365301Y-13174008D02*
X15384348Y-13164484D01*
X15641491Y-13364484D02*
X15527206Y-13364484D01*
X15584348Y-13364484D02*
X15584348Y-13164484D01*
X15584348Y-13164484D02*
X15565301Y-13193055D01*
X15565301Y-13193055D02*
X15546253Y-13212103D01*
X15546253Y-13212103D02*
X15527206Y-13221627D01*
X15708158Y-13164484D02*
X15831967Y-13164484D01*
X15831967Y-13164484D02*
X15765301Y-13240674D01*
X15765301Y-13240674D02*
X15793872Y-13240674D01*
X15793872Y-13240674D02*
X15812920Y-13250198D01*
X15812920Y-13250198D02*
X15822444Y-13259722D01*
X15822444Y-13259722D02*
X15831967Y-13278769D01*
X15831967Y-13278769D02*
X15831967Y-13326388D01*
X15831967Y-13326388D02*
X15822444Y-13345436D01*
X15822444Y-13345436D02*
X15812920Y-13354960D01*
X15812920Y-13354960D02*
X15793872Y-13364484D01*
X15793872Y-13364484D02*
X15736729Y-13364484D01*
X15736729Y-13364484D02*
X15717682Y-13354960D01*
X15717682Y-13354960D02*
X15708158Y-13345436D01*
X15946253Y-13250198D02*
X15927206Y-13240674D01*
X15927206Y-13240674D02*
X15917682Y-13231150D01*
X15917682Y-13231150D02*
X15908158Y-13212103D01*
X15908158Y-13212103D02*
X15908158Y-13202579D01*
X15908158Y-13202579D02*
X15917682Y-13183531D01*
X15917682Y-13183531D02*
X15927206Y-13174008D01*
X15927206Y-13174008D02*
X15946253Y-13164484D01*
X15946253Y-13164484D02*
X15984348Y-13164484D01*
X15984348Y-13164484D02*
X16003396Y-13174008D01*
X16003396Y-13174008D02*
X16012920Y-13183531D01*
X16012920Y-13183531D02*
X16022444Y-13202579D01*
X16022444Y-13202579D02*
X16022444Y-13212103D01*
X16022444Y-13212103D02*
X16012920Y-13231150D01*
X16012920Y-13231150D02*
X16003396Y-13240674D01*
X16003396Y-13240674D02*
X15984348Y-13250198D01*
X15984348Y-13250198D02*
X15946253Y-13250198D01*
X15946253Y-13250198D02*
X15927206Y-13259722D01*
X15927206Y-13259722D02*
X15917682Y-13269246D01*
X15917682Y-13269246D02*
X15908158Y-13288293D01*
X15908158Y-13288293D02*
X15908158Y-13326388D01*
X15908158Y-13326388D02*
X15917682Y-13345436D01*
X15917682Y-13345436D02*
X15927206Y-13354960D01*
X15927206Y-13354960D02*
X15946253Y-13364484D01*
X15946253Y-13364484D02*
X15984348Y-13364484D01*
X15984348Y-13364484D02*
X16003396Y-13354960D01*
X16003396Y-13354960D02*
X16012920Y-13345436D01*
X16012920Y-13345436D02*
X16022444Y-13326388D01*
X16022444Y-13326388D02*
X16022444Y-13288293D01*
X16022444Y-13288293D02*
X16012920Y-13269246D01*
X16012920Y-13269246D02*
X16003396Y-13259722D01*
X16003396Y-13259722D02*
X15984348Y-13250198D01*
X16098634Y-13164484D02*
X16098634Y-13202579D01*
X16174825Y-13164484D02*
X16174825Y-13202579D01*
X16470063Y-13440674D02*
X16460539Y-13431150D01*
X16460539Y-13431150D02*
X16441491Y-13402579D01*
X16441491Y-13402579D02*
X16431968Y-13383531D01*
X16431968Y-13383531D02*
X16422444Y-13354960D01*
X16422444Y-13354960D02*
X16412920Y-13307341D01*
X16412920Y-13307341D02*
X16412920Y-13269246D01*
X16412920Y-13269246D02*
X16422444Y-13221627D01*
X16422444Y-13221627D02*
X16431968Y-13193055D01*
X16431968Y-13193055D02*
X16441491Y-13174008D01*
X16441491Y-13174008D02*
X16460539Y-13145436D01*
X16460539Y-13145436D02*
X16470063Y-13135912D01*
X16574825Y-13250198D02*
X16555777Y-13240674D01*
X16555777Y-13240674D02*
X16546253Y-13231150D01*
X16546253Y-13231150D02*
X16536729Y-13212103D01*
X16536729Y-13212103D02*
X16536729Y-13202579D01*
X16536729Y-13202579D02*
X16546253Y-13183531D01*
X16546253Y-13183531D02*
X16555777Y-13174008D01*
X16555777Y-13174008D02*
X16574825Y-13164484D01*
X16574825Y-13164484D02*
X16612920Y-13164484D01*
X16612920Y-13164484D02*
X16631968Y-13174008D01*
X16631968Y-13174008D02*
X16641491Y-13183531D01*
X16641491Y-13183531D02*
X16651015Y-13202579D01*
X16651015Y-13202579D02*
X16651015Y-13212103D01*
X16651015Y-13212103D02*
X16641491Y-13231150D01*
X16641491Y-13231150D02*
X16631968Y-13240674D01*
X16631968Y-13240674D02*
X16612920Y-13250198D01*
X16612920Y-13250198D02*
X16574825Y-13250198D01*
X16574825Y-13250198D02*
X16555777Y-13259722D01*
X16555777Y-13259722D02*
X16546253Y-13269246D01*
X16546253Y-13269246D02*
X16536729Y-13288293D01*
X16536729Y-13288293D02*
X16536729Y-13326388D01*
X16536729Y-13326388D02*
X16546253Y-13345436D01*
X16546253Y-13345436D02*
X16555777Y-13354960D01*
X16555777Y-13354960D02*
X16574825Y-13364484D01*
X16574825Y-13364484D02*
X16612920Y-13364484D01*
X16612920Y-13364484D02*
X16631968Y-13354960D01*
X16631968Y-13354960D02*
X16641491Y-13345436D01*
X16641491Y-13345436D02*
X16651015Y-13326388D01*
X16651015Y-13326388D02*
X16651015Y-13288293D01*
X16651015Y-13288293D02*
X16641491Y-13269246D01*
X16641491Y-13269246D02*
X16631968Y-13259722D01*
X16631968Y-13259722D02*
X16612920Y-13250198D01*
X16831968Y-13164484D02*
X16736729Y-13164484D01*
X16736729Y-13164484D02*
X16727206Y-13259722D01*
X16727206Y-13259722D02*
X16736729Y-13250198D01*
X16736729Y-13250198D02*
X16755777Y-13240674D01*
X16755777Y-13240674D02*
X16803396Y-13240674D01*
X16803396Y-13240674D02*
X16822444Y-13250198D01*
X16822444Y-13250198D02*
X16831968Y-13259722D01*
X16831968Y-13259722D02*
X16841491Y-13278769D01*
X16841491Y-13278769D02*
X16841491Y-13326388D01*
X16841491Y-13326388D02*
X16831968Y-13345436D01*
X16831968Y-13345436D02*
X16822444Y-13354960D01*
X16822444Y-13354960D02*
X16803396Y-13364484D01*
X16803396Y-13364484D02*
X16755777Y-13364484D01*
X16755777Y-13364484D02*
X16736729Y-13354960D01*
X16736729Y-13354960D02*
X16727206Y-13345436D01*
X17079587Y-13364484D02*
X17079587Y-13164484D01*
X17165301Y-13364484D02*
X17165301Y-13259722D01*
X17165301Y-13259722D02*
X17155777Y-13240674D01*
X17155777Y-13240674D02*
X17136730Y-13231150D01*
X17136730Y-13231150D02*
X17108158Y-13231150D01*
X17108158Y-13231150D02*
X17089111Y-13240674D01*
X17089111Y-13240674D02*
X17079587Y-13250198D01*
X17289111Y-13364484D02*
X17270063Y-13354960D01*
X17270063Y-13354960D02*
X17260539Y-13345436D01*
X17260539Y-13345436D02*
X17251015Y-13326388D01*
X17251015Y-13326388D02*
X17251015Y-13269246D01*
X17251015Y-13269246D02*
X17260539Y-13250198D01*
X17260539Y-13250198D02*
X17270063Y-13240674D01*
X17270063Y-13240674D02*
X17289111Y-13231150D01*
X17289111Y-13231150D02*
X17317682Y-13231150D01*
X17317682Y-13231150D02*
X17336730Y-13240674D01*
X17336730Y-13240674D02*
X17346253Y-13250198D01*
X17346253Y-13250198D02*
X17355777Y-13269246D01*
X17355777Y-13269246D02*
X17355777Y-13326388D01*
X17355777Y-13326388D02*
X17346253Y-13345436D01*
X17346253Y-13345436D02*
X17336730Y-13354960D01*
X17336730Y-13354960D02*
X17317682Y-13364484D01*
X17317682Y-13364484D02*
X17289111Y-13364484D01*
X17470063Y-13364484D02*
X17451015Y-13354960D01*
X17451015Y-13354960D02*
X17441492Y-13335912D01*
X17441492Y-13335912D02*
X17441492Y-13164484D01*
X17622444Y-13354960D02*
X17603396Y-13364484D01*
X17603396Y-13364484D02*
X17565301Y-13364484D01*
X17565301Y-13364484D02*
X17546253Y-13354960D01*
X17546253Y-13354960D02*
X17536730Y-13335912D01*
X17536730Y-13335912D02*
X17536730Y-13259722D01*
X17536730Y-13259722D02*
X17546253Y-13240674D01*
X17546253Y-13240674D02*
X17565301Y-13231150D01*
X17565301Y-13231150D02*
X17603396Y-13231150D01*
X17603396Y-13231150D02*
X17622444Y-13240674D01*
X17622444Y-13240674D02*
X17631968Y-13259722D01*
X17631968Y-13259722D02*
X17631968Y-13278769D01*
X17631968Y-13278769D02*
X17536730Y-13297817D01*
X17708158Y-13354960D02*
X17727206Y-13364484D01*
X17727206Y-13364484D02*
X17765301Y-13364484D01*
X17765301Y-13364484D02*
X17784349Y-13354960D01*
X17784349Y-13354960D02*
X17793873Y-13335912D01*
X17793873Y-13335912D02*
X17793873Y-13326388D01*
X17793873Y-13326388D02*
X17784349Y-13307341D01*
X17784349Y-13307341D02*
X17765301Y-13297817D01*
X17765301Y-13297817D02*
X17736730Y-13297817D01*
X17736730Y-13297817D02*
X17717682Y-13288293D01*
X17717682Y-13288293D02*
X17708158Y-13269246D01*
X17708158Y-13269246D02*
X17708158Y-13259722D01*
X17708158Y-13259722D02*
X17717682Y-13240674D01*
X17717682Y-13240674D02*
X17736730Y-13231150D01*
X17736730Y-13231150D02*
X17765301Y-13231150D01*
X17765301Y-13231150D02*
X17784349Y-13240674D01*
X17860539Y-13440674D02*
X17870063Y-13431150D01*
X17870063Y-13431150D02*
X17889111Y-13402579D01*
X17889111Y-13402579D02*
X17898634Y-13383531D01*
X17898634Y-13383531D02*
X17908158Y-13354960D01*
X17908158Y-13354960D02*
X17917682Y-13307341D01*
X17917682Y-13307341D02*
X17917682Y-13269246D01*
X17917682Y-13269246D02*
X17908158Y-13221627D01*
X17908158Y-13221627D02*
X17898634Y-13193055D01*
X17898634Y-13193055D02*
X17889111Y-13174008D01*
X17889111Y-13174008D02*
X17870063Y-13145436D01*
X17870063Y-13145436D02*
X17860539Y-13135912D01*
D15*
X12889142Y-13551142D02*
X12889142Y-13522858D01*
X12860858Y-13522858D01*
X12860858Y-13551142D01*
X12889142Y-13551142D01*
D11*
X13193872Y-13428484D02*
X13212920Y-13428484D01*
X13212920Y-13428484D02*
X13231967Y-13438008D01*
X13231967Y-13438008D02*
X13241491Y-13447531D01*
X13241491Y-13447531D02*
X13251015Y-13466579D01*
X13251015Y-13466579D02*
X13260539Y-13504674D01*
X13260539Y-13504674D02*
X13260539Y-13552293D01*
X13260539Y-13552293D02*
X13251015Y-13590388D01*
X13251015Y-13590388D02*
X13241491Y-13609436D01*
X13241491Y-13609436D02*
X13231967Y-13618960D01*
X13231967Y-13618960D02*
X13212920Y-13628484D01*
X13212920Y-13628484D02*
X13193872Y-13628484D01*
X13193872Y-13628484D02*
X13174824Y-13618960D01*
X13174824Y-13618960D02*
X13165301Y-13609436D01*
X13165301Y-13609436D02*
X13155777Y-13590388D01*
X13155777Y-13590388D02*
X13146253Y-13552293D01*
X13146253Y-13552293D02*
X13146253Y-13504674D01*
X13146253Y-13504674D02*
X13155777Y-13466579D01*
X13155777Y-13466579D02*
X13165301Y-13447531D01*
X13165301Y-13447531D02*
X13174824Y-13438008D01*
X13174824Y-13438008D02*
X13193872Y-13428484D01*
X13346253Y-13609436D02*
X13355777Y-13618960D01*
X13355777Y-13618960D02*
X13346253Y-13628484D01*
X13346253Y-13628484D02*
X13336729Y-13618960D01*
X13336729Y-13618960D02*
X13346253Y-13609436D01*
X13346253Y-13609436D02*
X13346253Y-13628484D01*
X13527205Y-13495150D02*
X13527205Y-13628484D01*
X13479586Y-13418960D02*
X13431967Y-13561817D01*
X13431967Y-13561817D02*
X13555777Y-13561817D01*
X13670062Y-13428484D02*
X13689110Y-13428484D01*
X13689110Y-13428484D02*
X13708158Y-13438008D01*
X13708158Y-13438008D02*
X13717682Y-13447531D01*
X13717682Y-13447531D02*
X13727205Y-13466579D01*
X13727205Y-13466579D02*
X13736729Y-13504674D01*
X13736729Y-13504674D02*
X13736729Y-13552293D01*
X13736729Y-13552293D02*
X13727205Y-13590388D01*
X13727205Y-13590388D02*
X13717682Y-13609436D01*
X13717682Y-13609436D02*
X13708158Y-13618960D01*
X13708158Y-13618960D02*
X13689110Y-13628484D01*
X13689110Y-13628484D02*
X13670062Y-13628484D01*
X13670062Y-13628484D02*
X13651015Y-13618960D01*
X13651015Y-13618960D02*
X13641491Y-13609436D01*
X13641491Y-13609436D02*
X13631967Y-13590388D01*
X13631967Y-13590388D02*
X13622443Y-13552293D01*
X13622443Y-13552293D02*
X13622443Y-13504674D01*
X13622443Y-13504674D02*
X13631967Y-13466579D01*
X13631967Y-13466579D02*
X13641491Y-13447531D01*
X13641491Y-13447531D02*
X13651015Y-13438008D01*
X13651015Y-13438008D02*
X13670062Y-13428484D01*
X13860539Y-13428484D02*
X13879586Y-13428484D01*
X13879586Y-13428484D02*
X13898634Y-13438008D01*
X13898634Y-13438008D02*
X13908158Y-13447531D01*
X13908158Y-13447531D02*
X13917682Y-13466579D01*
X13917682Y-13466579D02*
X13927205Y-13504674D01*
X13927205Y-13504674D02*
X13927205Y-13552293D01*
X13927205Y-13552293D02*
X13917682Y-13590388D01*
X13917682Y-13590388D02*
X13908158Y-13609436D01*
X13908158Y-13609436D02*
X13898634Y-13618960D01*
X13898634Y-13618960D02*
X13879586Y-13628484D01*
X13879586Y-13628484D02*
X13860539Y-13628484D01*
X13860539Y-13628484D02*
X13841491Y-13618960D01*
X13841491Y-13618960D02*
X13831967Y-13609436D01*
X13831967Y-13609436D02*
X13822443Y-13590388D01*
X13822443Y-13590388D02*
X13812920Y-13552293D01*
X13812920Y-13552293D02*
X13812920Y-13504674D01*
X13812920Y-13504674D02*
X13822443Y-13466579D01*
X13822443Y-13466579D02*
X13831967Y-13447531D01*
X13831967Y-13447531D02*
X13841491Y-13438008D01*
X13841491Y-13438008D02*
X13860539Y-13428484D01*
X14012920Y-13628484D02*
X14012920Y-13495150D01*
X14012920Y-13514198D02*
X14022443Y-13504674D01*
X14022443Y-13504674D02*
X14041491Y-13495150D01*
X14041491Y-13495150D02*
X14070063Y-13495150D01*
X14070063Y-13495150D02*
X14089110Y-13504674D01*
X14089110Y-13504674D02*
X14098634Y-13523722D01*
X14098634Y-13523722D02*
X14098634Y-13628484D01*
X14098634Y-13523722D02*
X14108158Y-13504674D01*
X14108158Y-13504674D02*
X14127205Y-13495150D01*
X14127205Y-13495150D02*
X14155777Y-13495150D01*
X14155777Y-13495150D02*
X14174824Y-13504674D01*
X14174824Y-13504674D02*
X14184348Y-13523722D01*
X14184348Y-13523722D02*
X14184348Y-13628484D01*
X14279586Y-13628484D02*
X14279586Y-13495150D01*
X14279586Y-13514198D02*
X14289110Y-13504674D01*
X14289110Y-13504674D02*
X14308158Y-13495150D01*
X14308158Y-13495150D02*
X14336729Y-13495150D01*
X14336729Y-13495150D02*
X14355777Y-13504674D01*
X14355777Y-13504674D02*
X14365301Y-13523722D01*
X14365301Y-13523722D02*
X14365301Y-13628484D01*
X14365301Y-13523722D02*
X14374824Y-13504674D01*
X14374824Y-13504674D02*
X14393872Y-13495150D01*
X14393872Y-13495150D02*
X14422443Y-13495150D01*
X14422443Y-13495150D02*
X14441491Y-13504674D01*
X14441491Y-13504674D02*
X14451015Y-13523722D01*
X14451015Y-13523722D02*
X14451015Y-13628484D01*
X14841491Y-13418960D02*
X14670063Y-13676103D01*
X15098634Y-13428484D02*
X15117682Y-13428484D01*
X15117682Y-13428484D02*
X15136729Y-13438008D01*
X15136729Y-13438008D02*
X15146253Y-13447531D01*
X15146253Y-13447531D02*
X15155777Y-13466579D01*
X15155777Y-13466579D02*
X15165301Y-13504674D01*
X15165301Y-13504674D02*
X15165301Y-13552293D01*
X15165301Y-13552293D02*
X15155777Y-13590388D01*
X15155777Y-13590388D02*
X15146253Y-13609436D01*
X15146253Y-13609436D02*
X15136729Y-13618960D01*
X15136729Y-13618960D02*
X15117682Y-13628484D01*
X15117682Y-13628484D02*
X15098634Y-13628484D01*
X15098634Y-13628484D02*
X15079586Y-13618960D01*
X15079586Y-13618960D02*
X15070063Y-13609436D01*
X15070063Y-13609436D02*
X15060539Y-13590388D01*
X15060539Y-13590388D02*
X15051015Y-13552293D01*
X15051015Y-13552293D02*
X15051015Y-13504674D01*
X15051015Y-13504674D02*
X15060539Y-13466579D01*
X15060539Y-13466579D02*
X15070063Y-13447531D01*
X15070063Y-13447531D02*
X15079586Y-13438008D01*
X15079586Y-13438008D02*
X15098634Y-13428484D01*
X15251015Y-13609436D02*
X15260539Y-13618960D01*
X15260539Y-13618960D02*
X15251015Y-13628484D01*
X15251015Y-13628484D02*
X15241491Y-13618960D01*
X15241491Y-13618960D02*
X15251015Y-13609436D01*
X15251015Y-13609436D02*
X15251015Y-13628484D01*
X15384348Y-13428484D02*
X15403396Y-13428484D01*
X15403396Y-13428484D02*
X15422444Y-13438008D01*
X15422444Y-13438008D02*
X15431967Y-13447531D01*
X15431967Y-13447531D02*
X15441491Y-13466579D01*
X15441491Y-13466579D02*
X15451015Y-13504674D01*
X15451015Y-13504674D02*
X15451015Y-13552293D01*
X15451015Y-13552293D02*
X15441491Y-13590388D01*
X15441491Y-13590388D02*
X15431967Y-13609436D01*
X15431967Y-13609436D02*
X15422444Y-13618960D01*
X15422444Y-13618960D02*
X15403396Y-13628484D01*
X15403396Y-13628484D02*
X15384348Y-13628484D01*
X15384348Y-13628484D02*
X15365301Y-13618960D01*
X15365301Y-13618960D02*
X15355777Y-13609436D01*
X15355777Y-13609436D02*
X15346253Y-13590388D01*
X15346253Y-13590388D02*
X15336729Y-13552293D01*
X15336729Y-13552293D02*
X15336729Y-13504674D01*
X15336729Y-13504674D02*
X15346253Y-13466579D01*
X15346253Y-13466579D02*
X15355777Y-13447531D01*
X15355777Y-13447531D02*
X15365301Y-13438008D01*
X15365301Y-13438008D02*
X15384348Y-13428484D01*
X15641491Y-13628484D02*
X15527206Y-13628484D01*
X15584348Y-13628484D02*
X15584348Y-13428484D01*
X15584348Y-13428484D02*
X15565301Y-13457055D01*
X15565301Y-13457055D02*
X15546253Y-13476103D01*
X15546253Y-13476103D02*
X15527206Y-13485627D01*
X15822444Y-13428484D02*
X15727206Y-13428484D01*
X15727206Y-13428484D02*
X15717682Y-13523722D01*
X15717682Y-13523722D02*
X15727206Y-13514198D01*
X15727206Y-13514198D02*
X15746253Y-13504674D01*
X15746253Y-13504674D02*
X15793872Y-13504674D01*
X15793872Y-13504674D02*
X15812920Y-13514198D01*
X15812920Y-13514198D02*
X15822444Y-13523722D01*
X15822444Y-13523722D02*
X15831967Y-13542769D01*
X15831967Y-13542769D02*
X15831967Y-13590388D01*
X15831967Y-13590388D02*
X15822444Y-13609436D01*
X15822444Y-13609436D02*
X15812920Y-13618960D01*
X15812920Y-13618960D02*
X15793872Y-13628484D01*
X15793872Y-13628484D02*
X15746253Y-13628484D01*
X15746253Y-13628484D02*
X15727206Y-13618960D01*
X15727206Y-13618960D02*
X15717682Y-13609436D01*
X15898634Y-13428484D02*
X16031967Y-13428484D01*
X16031967Y-13428484D02*
X15946253Y-13628484D01*
X16098634Y-13428484D02*
X16098634Y-13466579D01*
X16174825Y-13428484D02*
X16174825Y-13466579D01*
X16470063Y-13704674D02*
X16460539Y-13695150D01*
X16460539Y-13695150D02*
X16441491Y-13666579D01*
X16441491Y-13666579D02*
X16431968Y-13647531D01*
X16431968Y-13647531D02*
X16422444Y-13618960D01*
X16422444Y-13618960D02*
X16412920Y-13571341D01*
X16412920Y-13571341D02*
X16412920Y-13533246D01*
X16412920Y-13533246D02*
X16422444Y-13485627D01*
X16422444Y-13485627D02*
X16431968Y-13457055D01*
X16431968Y-13457055D02*
X16441491Y-13438008D01*
X16441491Y-13438008D02*
X16460539Y-13409436D01*
X16460539Y-13409436D02*
X16470063Y-13399912D01*
X16651015Y-13628484D02*
X16536729Y-13628484D01*
X16593872Y-13628484D02*
X16593872Y-13428484D01*
X16593872Y-13428484D02*
X16574825Y-13457055D01*
X16574825Y-13457055D02*
X16555777Y-13476103D01*
X16555777Y-13476103D02*
X16536729Y-13485627D01*
X16841491Y-13628484D02*
X16727206Y-13628484D01*
X16784349Y-13628484D02*
X16784349Y-13428484D01*
X16784349Y-13428484D02*
X16765301Y-13457055D01*
X16765301Y-13457055D02*
X16746253Y-13476103D01*
X16746253Y-13476103D02*
X16727206Y-13485627D01*
X17079587Y-13628484D02*
X17079587Y-13428484D01*
X17165301Y-13628484D02*
X17165301Y-13523722D01*
X17165301Y-13523722D02*
X17155777Y-13504674D01*
X17155777Y-13504674D02*
X17136730Y-13495150D01*
X17136730Y-13495150D02*
X17108158Y-13495150D01*
X17108158Y-13495150D02*
X17089111Y-13504674D01*
X17089111Y-13504674D02*
X17079587Y-13514198D01*
X17289111Y-13628484D02*
X17270063Y-13618960D01*
X17270063Y-13618960D02*
X17260539Y-13609436D01*
X17260539Y-13609436D02*
X17251015Y-13590388D01*
X17251015Y-13590388D02*
X17251015Y-13533246D01*
X17251015Y-13533246D02*
X17260539Y-13514198D01*
X17260539Y-13514198D02*
X17270063Y-13504674D01*
X17270063Y-13504674D02*
X17289111Y-13495150D01*
X17289111Y-13495150D02*
X17317682Y-13495150D01*
X17317682Y-13495150D02*
X17336730Y-13504674D01*
X17336730Y-13504674D02*
X17346253Y-13514198D01*
X17346253Y-13514198D02*
X17355777Y-13533246D01*
X17355777Y-13533246D02*
X17355777Y-13590388D01*
X17355777Y-13590388D02*
X17346253Y-13609436D01*
X17346253Y-13609436D02*
X17336730Y-13618960D01*
X17336730Y-13618960D02*
X17317682Y-13628484D01*
X17317682Y-13628484D02*
X17289111Y-13628484D01*
X17470063Y-13628484D02*
X17451015Y-13618960D01*
X17451015Y-13618960D02*
X17441492Y-13599912D01*
X17441492Y-13599912D02*
X17441492Y-13428484D01*
X17622444Y-13618960D02*
X17603396Y-13628484D01*
X17603396Y-13628484D02*
X17565301Y-13628484D01*
X17565301Y-13628484D02*
X17546253Y-13618960D01*
X17546253Y-13618960D02*
X17536730Y-13599912D01*
X17536730Y-13599912D02*
X17536730Y-13523722D01*
X17536730Y-13523722D02*
X17546253Y-13504674D01*
X17546253Y-13504674D02*
X17565301Y-13495150D01*
X17565301Y-13495150D02*
X17603396Y-13495150D01*
X17603396Y-13495150D02*
X17622444Y-13504674D01*
X17622444Y-13504674D02*
X17631968Y-13523722D01*
X17631968Y-13523722D02*
X17631968Y-13542769D01*
X17631968Y-13542769D02*
X17536730Y-13561817D01*
X17708158Y-13618960D02*
X17727206Y-13628484D01*
X17727206Y-13628484D02*
X17765301Y-13628484D01*
X17765301Y-13628484D02*
X17784349Y-13618960D01*
X17784349Y-13618960D02*
X17793873Y-13599912D01*
X17793873Y-13599912D02*
X17793873Y-13590388D01*
X17793873Y-13590388D02*
X17784349Y-13571341D01*
X17784349Y-13571341D02*
X17765301Y-13561817D01*
X17765301Y-13561817D02*
X17736730Y-13561817D01*
X17736730Y-13561817D02*
X17717682Y-13552293D01*
X17717682Y-13552293D02*
X17708158Y-13533246D01*
X17708158Y-13533246D02*
X17708158Y-13523722D01*
X17708158Y-13523722D02*
X17717682Y-13504674D01*
X17717682Y-13504674D02*
X17736730Y-13495150D01*
X17736730Y-13495150D02*
X17765301Y-13495150D01*
X17765301Y-13495150D02*
X17784349Y-13504674D01*
X17860539Y-13704674D02*
X17870063Y-13695150D01*
X17870063Y-13695150D02*
X17889111Y-13666579D01*
X17889111Y-13666579D02*
X17898634Y-13647531D01*
X17898634Y-13647531D02*
X17908158Y-13618960D01*
X17908158Y-13618960D02*
X17917682Y-13571341D01*
X17917682Y-13571341D02*
X17917682Y-13533246D01*
X17917682Y-13533246D02*
X17908158Y-13485627D01*
X17908158Y-13485627D02*
X17898634Y-13457055D01*
X17898634Y-13457055D02*
X17889111Y-13438008D01*
X17889111Y-13438008D02*
X17870063Y-13409436D01*
X17870063Y-13409436D02*
X17860539Y-13399912D01*
D16*
X12865000Y-13831000D02*
X12895000Y-13801000D01*
X12865000Y-13771000D01*
X12835000Y-13801000D01*
X12865000Y-13831000D01*
D11*
X13193872Y-13692484D02*
X13212920Y-13692484D01*
X13212920Y-13692484D02*
X13231967Y-13702008D01*
X13231967Y-13702008D02*
X13241491Y-13711531D01*
X13241491Y-13711531D02*
X13251015Y-13730579D01*
X13251015Y-13730579D02*
X13260539Y-13768674D01*
X13260539Y-13768674D02*
X13260539Y-13816293D01*
X13260539Y-13816293D02*
X13251015Y-13854388D01*
X13251015Y-13854388D02*
X13241491Y-13873436D01*
X13241491Y-13873436D02*
X13231967Y-13882960D01*
X13231967Y-13882960D02*
X13212920Y-13892484D01*
X13212920Y-13892484D02*
X13193872Y-13892484D01*
X13193872Y-13892484D02*
X13174824Y-13882960D01*
X13174824Y-13882960D02*
X13165301Y-13873436D01*
X13165301Y-13873436D02*
X13155777Y-13854388D01*
X13155777Y-13854388D02*
X13146253Y-13816293D01*
X13146253Y-13816293D02*
X13146253Y-13768674D01*
X13146253Y-13768674D02*
X13155777Y-13730579D01*
X13155777Y-13730579D02*
X13165301Y-13711531D01*
X13165301Y-13711531D02*
X13174824Y-13702008D01*
X13174824Y-13702008D02*
X13193872Y-13692484D01*
X13346253Y-13873436D02*
X13355777Y-13882960D01*
X13355777Y-13882960D02*
X13346253Y-13892484D01*
X13346253Y-13892484D02*
X13336729Y-13882960D01*
X13336729Y-13882960D02*
X13346253Y-13873436D01*
X13346253Y-13873436D02*
X13346253Y-13892484D01*
X13527205Y-13692484D02*
X13489110Y-13692484D01*
X13489110Y-13692484D02*
X13470062Y-13702008D01*
X13470062Y-13702008D02*
X13460539Y-13711531D01*
X13460539Y-13711531D02*
X13441491Y-13740103D01*
X13441491Y-13740103D02*
X13431967Y-13778198D01*
X13431967Y-13778198D02*
X13431967Y-13854388D01*
X13431967Y-13854388D02*
X13441491Y-13873436D01*
X13441491Y-13873436D02*
X13451015Y-13882960D01*
X13451015Y-13882960D02*
X13470062Y-13892484D01*
X13470062Y-13892484D02*
X13508158Y-13892484D01*
X13508158Y-13892484D02*
X13527205Y-13882960D01*
X13527205Y-13882960D02*
X13536729Y-13873436D01*
X13536729Y-13873436D02*
X13546253Y-13854388D01*
X13546253Y-13854388D02*
X13546253Y-13806769D01*
X13546253Y-13806769D02*
X13536729Y-13787722D01*
X13536729Y-13787722D02*
X13527205Y-13778198D01*
X13527205Y-13778198D02*
X13508158Y-13768674D01*
X13508158Y-13768674D02*
X13470062Y-13768674D01*
X13470062Y-13768674D02*
X13451015Y-13778198D01*
X13451015Y-13778198D02*
X13441491Y-13787722D01*
X13441491Y-13787722D02*
X13431967Y-13806769D01*
X13670062Y-13692484D02*
X13689110Y-13692484D01*
X13689110Y-13692484D02*
X13708158Y-13702008D01*
X13708158Y-13702008D02*
X13717682Y-13711531D01*
X13717682Y-13711531D02*
X13727205Y-13730579D01*
X13727205Y-13730579D02*
X13736729Y-13768674D01*
X13736729Y-13768674D02*
X13736729Y-13816293D01*
X13736729Y-13816293D02*
X13727205Y-13854388D01*
X13727205Y-13854388D02*
X13717682Y-13873436D01*
X13717682Y-13873436D02*
X13708158Y-13882960D01*
X13708158Y-13882960D02*
X13689110Y-13892484D01*
X13689110Y-13892484D02*
X13670062Y-13892484D01*
X13670062Y-13892484D02*
X13651015Y-13882960D01*
X13651015Y-13882960D02*
X13641491Y-13873436D01*
X13641491Y-13873436D02*
X13631967Y-13854388D01*
X13631967Y-13854388D02*
X13622443Y-13816293D01*
X13622443Y-13816293D02*
X13622443Y-13768674D01*
X13622443Y-13768674D02*
X13631967Y-13730579D01*
X13631967Y-13730579D02*
X13641491Y-13711531D01*
X13641491Y-13711531D02*
X13651015Y-13702008D01*
X13651015Y-13702008D02*
X13670062Y-13692484D01*
X13860539Y-13692484D02*
X13879586Y-13692484D01*
X13879586Y-13692484D02*
X13898634Y-13702008D01*
X13898634Y-13702008D02*
X13908158Y-13711531D01*
X13908158Y-13711531D02*
X13917682Y-13730579D01*
X13917682Y-13730579D02*
X13927205Y-13768674D01*
X13927205Y-13768674D02*
X13927205Y-13816293D01*
X13927205Y-13816293D02*
X13917682Y-13854388D01*
X13917682Y-13854388D02*
X13908158Y-13873436D01*
X13908158Y-13873436D02*
X13898634Y-13882960D01*
X13898634Y-13882960D02*
X13879586Y-13892484D01*
X13879586Y-13892484D02*
X13860539Y-13892484D01*
X13860539Y-13892484D02*
X13841491Y-13882960D01*
X13841491Y-13882960D02*
X13831967Y-13873436D01*
X13831967Y-13873436D02*
X13822443Y-13854388D01*
X13822443Y-13854388D02*
X13812920Y-13816293D01*
X13812920Y-13816293D02*
X13812920Y-13768674D01*
X13812920Y-13768674D02*
X13822443Y-13730579D01*
X13822443Y-13730579D02*
X13831967Y-13711531D01*
X13831967Y-13711531D02*
X13841491Y-13702008D01*
X13841491Y-13702008D02*
X13860539Y-13692484D01*
X14012920Y-13892484D02*
X14012920Y-13759150D01*
X14012920Y-13778198D02*
X14022443Y-13768674D01*
X14022443Y-13768674D02*
X14041491Y-13759150D01*
X14041491Y-13759150D02*
X14070063Y-13759150D01*
X14070063Y-13759150D02*
X14089110Y-13768674D01*
X14089110Y-13768674D02*
X14098634Y-13787722D01*
X14098634Y-13787722D02*
X14098634Y-13892484D01*
X14098634Y-13787722D02*
X14108158Y-13768674D01*
X14108158Y-13768674D02*
X14127205Y-13759150D01*
X14127205Y-13759150D02*
X14155777Y-13759150D01*
X14155777Y-13759150D02*
X14174824Y-13768674D01*
X14174824Y-13768674D02*
X14184348Y-13787722D01*
X14184348Y-13787722D02*
X14184348Y-13892484D01*
X14279586Y-13892484D02*
X14279586Y-13759150D01*
X14279586Y-13778198D02*
X14289110Y-13768674D01*
X14289110Y-13768674D02*
X14308158Y-13759150D01*
X14308158Y-13759150D02*
X14336729Y-13759150D01*
X14336729Y-13759150D02*
X14355777Y-13768674D01*
X14355777Y-13768674D02*
X14365301Y-13787722D01*
X14365301Y-13787722D02*
X14365301Y-13892484D01*
X14365301Y-13787722D02*
X14374824Y-13768674D01*
X14374824Y-13768674D02*
X14393872Y-13759150D01*
X14393872Y-13759150D02*
X14422443Y-13759150D01*
X14422443Y-13759150D02*
X14441491Y-13768674D01*
X14441491Y-13768674D02*
X14451015Y-13787722D01*
X14451015Y-13787722D02*
X14451015Y-13892484D01*
X14841491Y-13682960D02*
X14670063Y-13940103D01*
X15098634Y-13692484D02*
X15117682Y-13692484D01*
X15117682Y-13692484D02*
X15136729Y-13702008D01*
X15136729Y-13702008D02*
X15146253Y-13711531D01*
X15146253Y-13711531D02*
X15155777Y-13730579D01*
X15155777Y-13730579D02*
X15165301Y-13768674D01*
X15165301Y-13768674D02*
X15165301Y-13816293D01*
X15165301Y-13816293D02*
X15155777Y-13854388D01*
X15155777Y-13854388D02*
X15146253Y-13873436D01*
X15146253Y-13873436D02*
X15136729Y-13882960D01*
X15136729Y-13882960D02*
X15117682Y-13892484D01*
X15117682Y-13892484D02*
X15098634Y-13892484D01*
X15098634Y-13892484D02*
X15079586Y-13882960D01*
X15079586Y-13882960D02*
X15070063Y-13873436D01*
X15070063Y-13873436D02*
X15060539Y-13854388D01*
X15060539Y-13854388D02*
X15051015Y-13816293D01*
X15051015Y-13816293D02*
X15051015Y-13768674D01*
X15051015Y-13768674D02*
X15060539Y-13730579D01*
X15060539Y-13730579D02*
X15070063Y-13711531D01*
X15070063Y-13711531D02*
X15079586Y-13702008D01*
X15079586Y-13702008D02*
X15098634Y-13692484D01*
X15251015Y-13873436D02*
X15260539Y-13882960D01*
X15260539Y-13882960D02*
X15251015Y-13892484D01*
X15251015Y-13892484D02*
X15241491Y-13882960D01*
X15241491Y-13882960D02*
X15251015Y-13873436D01*
X15251015Y-13873436D02*
X15251015Y-13892484D01*
X15384348Y-13692484D02*
X15403396Y-13692484D01*
X15403396Y-13692484D02*
X15422444Y-13702008D01*
X15422444Y-13702008D02*
X15431967Y-13711531D01*
X15431967Y-13711531D02*
X15441491Y-13730579D01*
X15441491Y-13730579D02*
X15451015Y-13768674D01*
X15451015Y-13768674D02*
X15451015Y-13816293D01*
X15451015Y-13816293D02*
X15441491Y-13854388D01*
X15441491Y-13854388D02*
X15431967Y-13873436D01*
X15431967Y-13873436D02*
X15422444Y-13882960D01*
X15422444Y-13882960D02*
X15403396Y-13892484D01*
X15403396Y-13892484D02*
X15384348Y-13892484D01*
X15384348Y-13892484D02*
X15365301Y-13882960D01*
X15365301Y-13882960D02*
X15355777Y-13873436D01*
X15355777Y-13873436D02*
X15346253Y-13854388D01*
X15346253Y-13854388D02*
X15336729Y-13816293D01*
X15336729Y-13816293D02*
X15336729Y-13768674D01*
X15336729Y-13768674D02*
X15346253Y-13730579D01*
X15346253Y-13730579D02*
X15355777Y-13711531D01*
X15355777Y-13711531D02*
X15365301Y-13702008D01*
X15365301Y-13702008D02*
X15384348Y-13692484D01*
X15527206Y-13711531D02*
X15536729Y-13702008D01*
X15536729Y-13702008D02*
X15555777Y-13692484D01*
X15555777Y-13692484D02*
X15603396Y-13692484D01*
X15603396Y-13692484D02*
X15622444Y-13702008D01*
X15622444Y-13702008D02*
X15631967Y-13711531D01*
X15631967Y-13711531D02*
X15641491Y-13730579D01*
X15641491Y-13730579D02*
X15641491Y-13749627D01*
X15641491Y-13749627D02*
X15631967Y-13778198D01*
X15631967Y-13778198D02*
X15517682Y-13892484D01*
X15517682Y-13892484D02*
X15641491Y-13892484D01*
X15708158Y-13692484D02*
X15831967Y-13692484D01*
X15831967Y-13692484D02*
X15765301Y-13768674D01*
X15765301Y-13768674D02*
X15793872Y-13768674D01*
X15793872Y-13768674D02*
X15812920Y-13778198D01*
X15812920Y-13778198D02*
X15822444Y-13787722D01*
X15822444Y-13787722D02*
X15831967Y-13806769D01*
X15831967Y-13806769D02*
X15831967Y-13854388D01*
X15831967Y-13854388D02*
X15822444Y-13873436D01*
X15822444Y-13873436D02*
X15812920Y-13882960D01*
X15812920Y-13882960D02*
X15793872Y-13892484D01*
X15793872Y-13892484D02*
X15736729Y-13892484D01*
X15736729Y-13892484D02*
X15717682Y-13882960D01*
X15717682Y-13882960D02*
X15708158Y-13873436D01*
X16003396Y-13692484D02*
X15965301Y-13692484D01*
X15965301Y-13692484D02*
X15946253Y-13702008D01*
X15946253Y-13702008D02*
X15936729Y-13711531D01*
X15936729Y-13711531D02*
X15917682Y-13740103D01*
X15917682Y-13740103D02*
X15908158Y-13778198D01*
X15908158Y-13778198D02*
X15908158Y-13854388D01*
X15908158Y-13854388D02*
X15917682Y-13873436D01*
X15917682Y-13873436D02*
X15927206Y-13882960D01*
X15927206Y-13882960D02*
X15946253Y-13892484D01*
X15946253Y-13892484D02*
X15984348Y-13892484D01*
X15984348Y-13892484D02*
X16003396Y-13882960D01*
X16003396Y-13882960D02*
X16012920Y-13873436D01*
X16012920Y-13873436D02*
X16022444Y-13854388D01*
X16022444Y-13854388D02*
X16022444Y-13806769D01*
X16022444Y-13806769D02*
X16012920Y-13787722D01*
X16012920Y-13787722D02*
X16003396Y-13778198D01*
X16003396Y-13778198D02*
X15984348Y-13768674D01*
X15984348Y-13768674D02*
X15946253Y-13768674D01*
X15946253Y-13768674D02*
X15927206Y-13778198D01*
X15927206Y-13778198D02*
X15917682Y-13787722D01*
X15917682Y-13787722D02*
X15908158Y-13806769D01*
X16098634Y-13692484D02*
X16098634Y-13730579D01*
X16174825Y-13692484D02*
X16174825Y-13730579D01*
X16470063Y-13968674D02*
X16460539Y-13959150D01*
X16460539Y-13959150D02*
X16441491Y-13930579D01*
X16441491Y-13930579D02*
X16431968Y-13911531D01*
X16431968Y-13911531D02*
X16422444Y-13882960D01*
X16422444Y-13882960D02*
X16412920Y-13835341D01*
X16412920Y-13835341D02*
X16412920Y-13797246D01*
X16412920Y-13797246D02*
X16422444Y-13749627D01*
X16422444Y-13749627D02*
X16431968Y-13721055D01*
X16431968Y-13721055D02*
X16441491Y-13702008D01*
X16441491Y-13702008D02*
X16460539Y-13673436D01*
X16460539Y-13673436D02*
X16470063Y-13663912D01*
X16584348Y-13692484D02*
X16603396Y-13692484D01*
X16603396Y-13692484D02*
X16622444Y-13702008D01*
X16622444Y-13702008D02*
X16631968Y-13711531D01*
X16631968Y-13711531D02*
X16641491Y-13730579D01*
X16641491Y-13730579D02*
X16651015Y-13768674D01*
X16651015Y-13768674D02*
X16651015Y-13816293D01*
X16651015Y-13816293D02*
X16641491Y-13854388D01*
X16641491Y-13854388D02*
X16631968Y-13873436D01*
X16631968Y-13873436D02*
X16622444Y-13882960D01*
X16622444Y-13882960D02*
X16603396Y-13892484D01*
X16603396Y-13892484D02*
X16584348Y-13892484D01*
X16584348Y-13892484D02*
X16565301Y-13882960D01*
X16565301Y-13882960D02*
X16555777Y-13873436D01*
X16555777Y-13873436D02*
X16546253Y-13854388D01*
X16546253Y-13854388D02*
X16536729Y-13816293D01*
X16536729Y-13816293D02*
X16536729Y-13768674D01*
X16536729Y-13768674D02*
X16546253Y-13730579D01*
X16546253Y-13730579D02*
X16555777Y-13711531D01*
X16555777Y-13711531D02*
X16565301Y-13702008D01*
X16565301Y-13702008D02*
X16584348Y-13692484D01*
X16889111Y-13892484D02*
X16889111Y-13692484D01*
X16974825Y-13892484D02*
X16974825Y-13787722D01*
X16974825Y-13787722D02*
X16965301Y-13768674D01*
X16965301Y-13768674D02*
X16946253Y-13759150D01*
X16946253Y-13759150D02*
X16917682Y-13759150D01*
X16917682Y-13759150D02*
X16898634Y-13768674D01*
X16898634Y-13768674D02*
X16889111Y-13778198D01*
X17098634Y-13892484D02*
X17079587Y-13882960D01*
X17079587Y-13882960D02*
X17070063Y-13873436D01*
X17070063Y-13873436D02*
X17060539Y-13854388D01*
X17060539Y-13854388D02*
X17060539Y-13797246D01*
X17060539Y-13797246D02*
X17070063Y-13778198D01*
X17070063Y-13778198D02*
X17079587Y-13768674D01*
X17079587Y-13768674D02*
X17098634Y-13759150D01*
X17098634Y-13759150D02*
X17127206Y-13759150D01*
X17127206Y-13759150D02*
X17146253Y-13768674D01*
X17146253Y-13768674D02*
X17155777Y-13778198D01*
X17155777Y-13778198D02*
X17165301Y-13797246D01*
X17165301Y-13797246D02*
X17165301Y-13854388D01*
X17165301Y-13854388D02*
X17155777Y-13873436D01*
X17155777Y-13873436D02*
X17146253Y-13882960D01*
X17146253Y-13882960D02*
X17127206Y-13892484D01*
X17127206Y-13892484D02*
X17098634Y-13892484D01*
X17279587Y-13892484D02*
X17260539Y-13882960D01*
X17260539Y-13882960D02*
X17251015Y-13863912D01*
X17251015Y-13863912D02*
X17251015Y-13692484D01*
X17431968Y-13882960D02*
X17412920Y-13892484D01*
X17412920Y-13892484D02*
X17374825Y-13892484D01*
X17374825Y-13892484D02*
X17355777Y-13882960D01*
X17355777Y-13882960D02*
X17346253Y-13863912D01*
X17346253Y-13863912D02*
X17346253Y-13787722D01*
X17346253Y-13787722D02*
X17355777Y-13768674D01*
X17355777Y-13768674D02*
X17374825Y-13759150D01*
X17374825Y-13759150D02*
X17412920Y-13759150D01*
X17412920Y-13759150D02*
X17431968Y-13768674D01*
X17431968Y-13768674D02*
X17441492Y-13787722D01*
X17441492Y-13787722D02*
X17441492Y-13806769D01*
X17441492Y-13806769D02*
X17346253Y-13825817D01*
X17517682Y-13882960D02*
X17536730Y-13892484D01*
X17536730Y-13892484D02*
X17574825Y-13892484D01*
X17574825Y-13892484D02*
X17593873Y-13882960D01*
X17593873Y-13882960D02*
X17603396Y-13863912D01*
X17603396Y-13863912D02*
X17603396Y-13854388D01*
X17603396Y-13854388D02*
X17593873Y-13835341D01*
X17593873Y-13835341D02*
X17574825Y-13825817D01*
X17574825Y-13825817D02*
X17546253Y-13825817D01*
X17546253Y-13825817D02*
X17527206Y-13816293D01*
X17527206Y-13816293D02*
X17517682Y-13797246D01*
X17517682Y-13797246D02*
X17517682Y-13787722D01*
X17517682Y-13787722D02*
X17527206Y-13768674D01*
X17527206Y-13768674D02*
X17546253Y-13759150D01*
X17546253Y-13759150D02*
X17574825Y-13759150D01*
X17574825Y-13759150D02*
X17593873Y-13768674D01*
X17841492Y-13816293D02*
X17993873Y-13816293D01*
X17917682Y-13892484D02*
X17917682Y-13740103D01*
X18327206Y-13759150D02*
X18327206Y-13892484D01*
X18279587Y-13682960D02*
X18231968Y-13825817D01*
X18231968Y-13825817D02*
X18355777Y-13825817D01*
X18574825Y-13882960D02*
X18593873Y-13892484D01*
X18593873Y-13892484D02*
X18631968Y-13892484D01*
X18631968Y-13892484D02*
X18651016Y-13882960D01*
X18651016Y-13882960D02*
X18660539Y-13863912D01*
X18660539Y-13863912D02*
X18660539Y-13854388D01*
X18660539Y-13854388D02*
X18651016Y-13835341D01*
X18651016Y-13835341D02*
X18631968Y-13825817D01*
X18631968Y-13825817D02*
X18603396Y-13825817D01*
X18603396Y-13825817D02*
X18584349Y-13816293D01*
X18584349Y-13816293D02*
X18574825Y-13797246D01*
X18574825Y-13797246D02*
X18574825Y-13787722D01*
X18574825Y-13787722D02*
X18584349Y-13768674D01*
X18584349Y-13768674D02*
X18603396Y-13759150D01*
X18603396Y-13759150D02*
X18631968Y-13759150D01*
X18631968Y-13759150D02*
X18651016Y-13768674D01*
X18774825Y-13892484D02*
X18755777Y-13882960D01*
X18755777Y-13882960D02*
X18746254Y-13863912D01*
X18746254Y-13863912D02*
X18746254Y-13692484D01*
X18879587Y-13892484D02*
X18860539Y-13882960D01*
X18860539Y-13882960D02*
X18851016Y-13873436D01*
X18851016Y-13873436D02*
X18841492Y-13854388D01*
X18841492Y-13854388D02*
X18841492Y-13797246D01*
X18841492Y-13797246D02*
X18851016Y-13778198D01*
X18851016Y-13778198D02*
X18860539Y-13768674D01*
X18860539Y-13768674D02*
X18879587Y-13759150D01*
X18879587Y-13759150D02*
X18908158Y-13759150D01*
X18908158Y-13759150D02*
X18927206Y-13768674D01*
X18927206Y-13768674D02*
X18936730Y-13778198D01*
X18936730Y-13778198D02*
X18946254Y-13797246D01*
X18946254Y-13797246D02*
X18946254Y-13854388D01*
X18946254Y-13854388D02*
X18936730Y-13873436D01*
X18936730Y-13873436D02*
X18927206Y-13882960D01*
X18927206Y-13882960D02*
X18908158Y-13892484D01*
X18908158Y-13892484D02*
X18879587Y-13892484D01*
X19003397Y-13759150D02*
X19079587Y-13759150D01*
X19031968Y-13692484D02*
X19031968Y-13863912D01*
X19031968Y-13863912D02*
X19041492Y-13882960D01*
X19041492Y-13882960D02*
X19060539Y-13892484D01*
X19060539Y-13892484D02*
X19079587Y-13892484D01*
X19136730Y-13882960D02*
X19155777Y-13892484D01*
X19155777Y-13892484D02*
X19193873Y-13892484D01*
X19193873Y-13892484D02*
X19212920Y-13882960D01*
X19212920Y-13882960D02*
X19222444Y-13863912D01*
X19222444Y-13863912D02*
X19222444Y-13854388D01*
X19222444Y-13854388D02*
X19212920Y-13835341D01*
X19212920Y-13835341D02*
X19193873Y-13825817D01*
X19193873Y-13825817D02*
X19165301Y-13825817D01*
X19165301Y-13825817D02*
X19146254Y-13816293D01*
X19146254Y-13816293D02*
X19136730Y-13797246D01*
X19136730Y-13797246D02*
X19136730Y-13787722D01*
X19136730Y-13787722D02*
X19146254Y-13768674D01*
X19146254Y-13768674D02*
X19165301Y-13759150D01*
X19165301Y-13759150D02*
X19193873Y-13759150D01*
X19193873Y-13759150D02*
X19212920Y-13768674D01*
X19289111Y-13968674D02*
X19298635Y-13959150D01*
X19298635Y-13959150D02*
X19317682Y-13930579D01*
X19317682Y-13930579D02*
X19327206Y-13911531D01*
X19327206Y-13911531D02*
X19336730Y-13882960D01*
X19336730Y-13882960D02*
X19346254Y-13835341D01*
X19346254Y-13835341D02*
X19346254Y-13797246D01*
X19346254Y-13797246D02*
X19336730Y-13749627D01*
X19336730Y-13749627D02*
X19327206Y-13721055D01*
X19327206Y-13721055D02*
X19317682Y-13702008D01*
X19317682Y-13702008D02*
X19298635Y-13673436D01*
X19298635Y-13673436D02*
X19289111Y-13663912D01*
D17*
X12830000Y-14032500D02*
X12895000Y-14097500D01*
X12895000Y-14032500D02*
X12830000Y-14097500D01*
X12895000Y-14065000D02*
G75*
G03*
X12895000Y-14065000I-32500J0D01*
G01*
D11*
X13193872Y-13956484D02*
X13212920Y-13956484D01*
X13212920Y-13956484D02*
X13231967Y-13966008D01*
X13231967Y-13966008D02*
X13241491Y-13975531D01*
X13241491Y-13975531D02*
X13251015Y-13994579D01*
X13251015Y-13994579D02*
X13260539Y-14032674D01*
X13260539Y-14032674D02*
X13260539Y-14080293D01*
X13260539Y-14080293D02*
X13251015Y-14118388D01*
X13251015Y-14118388D02*
X13241491Y-14137436D01*
X13241491Y-14137436D02*
X13231967Y-14146960D01*
X13231967Y-14146960D02*
X13212920Y-14156484D01*
X13212920Y-14156484D02*
X13193872Y-14156484D01*
X13193872Y-14156484D02*
X13174824Y-14146960D01*
X13174824Y-14146960D02*
X13165301Y-14137436D01*
X13165301Y-14137436D02*
X13155777Y-14118388D01*
X13155777Y-14118388D02*
X13146253Y-14080293D01*
X13146253Y-14080293D02*
X13146253Y-14032674D01*
X13146253Y-14032674D02*
X13155777Y-13994579D01*
X13155777Y-13994579D02*
X13165301Y-13975531D01*
X13165301Y-13975531D02*
X13174824Y-13966008D01*
X13174824Y-13966008D02*
X13193872Y-13956484D01*
X13346253Y-14137436D02*
X13355777Y-14146960D01*
X13355777Y-14146960D02*
X13346253Y-14156484D01*
X13346253Y-14156484D02*
X13336729Y-14146960D01*
X13336729Y-14146960D02*
X13346253Y-14137436D01*
X13346253Y-14137436D02*
X13346253Y-14156484D01*
X13527205Y-13956484D02*
X13489110Y-13956484D01*
X13489110Y-13956484D02*
X13470062Y-13966008D01*
X13470062Y-13966008D02*
X13460539Y-13975531D01*
X13460539Y-13975531D02*
X13441491Y-14004103D01*
X13441491Y-14004103D02*
X13431967Y-14042198D01*
X13431967Y-14042198D02*
X13431967Y-14118388D01*
X13431967Y-14118388D02*
X13441491Y-14137436D01*
X13441491Y-14137436D02*
X13451015Y-14146960D01*
X13451015Y-14146960D02*
X13470062Y-14156484D01*
X13470062Y-14156484D02*
X13508158Y-14156484D01*
X13508158Y-14156484D02*
X13527205Y-14146960D01*
X13527205Y-14146960D02*
X13536729Y-14137436D01*
X13536729Y-14137436D02*
X13546253Y-14118388D01*
X13546253Y-14118388D02*
X13546253Y-14070769D01*
X13546253Y-14070769D02*
X13536729Y-14051722D01*
X13536729Y-14051722D02*
X13527205Y-14042198D01*
X13527205Y-14042198D02*
X13508158Y-14032674D01*
X13508158Y-14032674D02*
X13470062Y-14032674D01*
X13470062Y-14032674D02*
X13451015Y-14042198D01*
X13451015Y-14042198D02*
X13441491Y-14051722D01*
X13441491Y-14051722D02*
X13431967Y-14070769D01*
X13727205Y-13956484D02*
X13631967Y-13956484D01*
X13631967Y-13956484D02*
X13622443Y-14051722D01*
X13622443Y-14051722D02*
X13631967Y-14042198D01*
X13631967Y-14042198D02*
X13651015Y-14032674D01*
X13651015Y-14032674D02*
X13698634Y-14032674D01*
X13698634Y-14032674D02*
X13717682Y-14042198D01*
X13717682Y-14042198D02*
X13727205Y-14051722D01*
X13727205Y-14051722D02*
X13736729Y-14070769D01*
X13736729Y-14070769D02*
X13736729Y-14118388D01*
X13736729Y-14118388D02*
X13727205Y-14137436D01*
X13727205Y-14137436D02*
X13717682Y-14146960D01*
X13717682Y-14146960D02*
X13698634Y-14156484D01*
X13698634Y-14156484D02*
X13651015Y-14156484D01*
X13651015Y-14156484D02*
X13631967Y-14146960D01*
X13631967Y-14146960D02*
X13622443Y-14137436D01*
X13860539Y-13956484D02*
X13879586Y-13956484D01*
X13879586Y-13956484D02*
X13898634Y-13966008D01*
X13898634Y-13966008D02*
X13908158Y-13975531D01*
X13908158Y-13975531D02*
X13917682Y-13994579D01*
X13917682Y-13994579D02*
X13927205Y-14032674D01*
X13927205Y-14032674D02*
X13927205Y-14080293D01*
X13927205Y-14080293D02*
X13917682Y-14118388D01*
X13917682Y-14118388D02*
X13908158Y-14137436D01*
X13908158Y-14137436D02*
X13898634Y-14146960D01*
X13898634Y-14146960D02*
X13879586Y-14156484D01*
X13879586Y-14156484D02*
X13860539Y-14156484D01*
X13860539Y-14156484D02*
X13841491Y-14146960D01*
X13841491Y-14146960D02*
X13831967Y-14137436D01*
X13831967Y-14137436D02*
X13822443Y-14118388D01*
X13822443Y-14118388D02*
X13812920Y-14080293D01*
X13812920Y-14080293D02*
X13812920Y-14032674D01*
X13812920Y-14032674D02*
X13822443Y-13994579D01*
X13822443Y-13994579D02*
X13831967Y-13975531D01*
X13831967Y-13975531D02*
X13841491Y-13966008D01*
X13841491Y-13966008D02*
X13860539Y-13956484D01*
X14012920Y-14156484D02*
X14012920Y-14023150D01*
X14012920Y-14042198D02*
X14022443Y-14032674D01*
X14022443Y-14032674D02*
X14041491Y-14023150D01*
X14041491Y-14023150D02*
X14070063Y-14023150D01*
X14070063Y-14023150D02*
X14089110Y-14032674D01*
X14089110Y-14032674D02*
X14098634Y-14051722D01*
X14098634Y-14051722D02*
X14098634Y-14156484D01*
X14098634Y-14051722D02*
X14108158Y-14032674D01*
X14108158Y-14032674D02*
X14127205Y-14023150D01*
X14127205Y-14023150D02*
X14155777Y-14023150D01*
X14155777Y-14023150D02*
X14174824Y-14032674D01*
X14174824Y-14032674D02*
X14184348Y-14051722D01*
X14184348Y-14051722D02*
X14184348Y-14156484D01*
X14279586Y-14156484D02*
X14279586Y-14023150D01*
X14279586Y-14042198D02*
X14289110Y-14032674D01*
X14289110Y-14032674D02*
X14308158Y-14023150D01*
X14308158Y-14023150D02*
X14336729Y-14023150D01*
X14336729Y-14023150D02*
X14355777Y-14032674D01*
X14355777Y-14032674D02*
X14365301Y-14051722D01*
X14365301Y-14051722D02*
X14365301Y-14156484D01*
X14365301Y-14051722D02*
X14374824Y-14032674D01*
X14374824Y-14032674D02*
X14393872Y-14023150D01*
X14393872Y-14023150D02*
X14422443Y-14023150D01*
X14422443Y-14023150D02*
X14441491Y-14032674D01*
X14441491Y-14032674D02*
X14451015Y-14051722D01*
X14451015Y-14051722D02*
X14451015Y-14156484D01*
X14841491Y-13946960D02*
X14670063Y-14204103D01*
X15098634Y-13956484D02*
X15117682Y-13956484D01*
X15117682Y-13956484D02*
X15136729Y-13966008D01*
X15136729Y-13966008D02*
X15146253Y-13975531D01*
X15146253Y-13975531D02*
X15155777Y-13994579D01*
X15155777Y-13994579D02*
X15165301Y-14032674D01*
X15165301Y-14032674D02*
X15165301Y-14080293D01*
X15165301Y-14080293D02*
X15155777Y-14118388D01*
X15155777Y-14118388D02*
X15146253Y-14137436D01*
X15146253Y-14137436D02*
X15136729Y-14146960D01*
X15136729Y-14146960D02*
X15117682Y-14156484D01*
X15117682Y-14156484D02*
X15098634Y-14156484D01*
X15098634Y-14156484D02*
X15079586Y-14146960D01*
X15079586Y-14146960D02*
X15070063Y-14137436D01*
X15070063Y-14137436D02*
X15060539Y-14118388D01*
X15060539Y-14118388D02*
X15051015Y-14080293D01*
X15051015Y-14080293D02*
X15051015Y-14032674D01*
X15051015Y-14032674D02*
X15060539Y-13994579D01*
X15060539Y-13994579D02*
X15070063Y-13975531D01*
X15070063Y-13975531D02*
X15079586Y-13966008D01*
X15079586Y-13966008D02*
X15098634Y-13956484D01*
X15251015Y-14137436D02*
X15260539Y-14146960D01*
X15260539Y-14146960D02*
X15251015Y-14156484D01*
X15251015Y-14156484D02*
X15241491Y-14146960D01*
X15241491Y-14146960D02*
X15251015Y-14137436D01*
X15251015Y-14137436D02*
X15251015Y-14156484D01*
X15384348Y-13956484D02*
X15403396Y-13956484D01*
X15403396Y-13956484D02*
X15422444Y-13966008D01*
X15422444Y-13966008D02*
X15431967Y-13975531D01*
X15431967Y-13975531D02*
X15441491Y-13994579D01*
X15441491Y-13994579D02*
X15451015Y-14032674D01*
X15451015Y-14032674D02*
X15451015Y-14080293D01*
X15451015Y-14080293D02*
X15441491Y-14118388D01*
X15441491Y-14118388D02*
X15431967Y-14137436D01*
X15431967Y-14137436D02*
X15422444Y-14146960D01*
X15422444Y-14146960D02*
X15403396Y-14156484D01*
X15403396Y-14156484D02*
X15384348Y-14156484D01*
X15384348Y-14156484D02*
X15365301Y-14146960D01*
X15365301Y-14146960D02*
X15355777Y-14137436D01*
X15355777Y-14137436D02*
X15346253Y-14118388D01*
X15346253Y-14118388D02*
X15336729Y-14080293D01*
X15336729Y-14080293D02*
X15336729Y-14032674D01*
X15336729Y-14032674D02*
X15346253Y-13994579D01*
X15346253Y-13994579D02*
X15355777Y-13975531D01*
X15355777Y-13975531D02*
X15365301Y-13966008D01*
X15365301Y-13966008D02*
X15384348Y-13956484D01*
X15527206Y-13975531D02*
X15536729Y-13966008D01*
X15536729Y-13966008D02*
X15555777Y-13956484D01*
X15555777Y-13956484D02*
X15603396Y-13956484D01*
X15603396Y-13956484D02*
X15622444Y-13966008D01*
X15622444Y-13966008D02*
X15631967Y-13975531D01*
X15631967Y-13975531D02*
X15641491Y-13994579D01*
X15641491Y-13994579D02*
X15641491Y-14013627D01*
X15641491Y-14013627D02*
X15631967Y-14042198D01*
X15631967Y-14042198D02*
X15517682Y-14156484D01*
X15517682Y-14156484D02*
X15641491Y-14156484D01*
X15822444Y-13956484D02*
X15727206Y-13956484D01*
X15727206Y-13956484D02*
X15717682Y-14051722D01*
X15717682Y-14051722D02*
X15727206Y-14042198D01*
X15727206Y-14042198D02*
X15746253Y-14032674D01*
X15746253Y-14032674D02*
X15793872Y-14032674D01*
X15793872Y-14032674D02*
X15812920Y-14042198D01*
X15812920Y-14042198D02*
X15822444Y-14051722D01*
X15822444Y-14051722D02*
X15831967Y-14070769D01*
X15831967Y-14070769D02*
X15831967Y-14118388D01*
X15831967Y-14118388D02*
X15822444Y-14137436D01*
X15822444Y-14137436D02*
X15812920Y-14146960D01*
X15812920Y-14146960D02*
X15793872Y-14156484D01*
X15793872Y-14156484D02*
X15746253Y-14156484D01*
X15746253Y-14156484D02*
X15727206Y-14146960D01*
X15727206Y-14146960D02*
X15717682Y-14137436D01*
X16003396Y-13956484D02*
X15965301Y-13956484D01*
X15965301Y-13956484D02*
X15946253Y-13966008D01*
X15946253Y-13966008D02*
X15936729Y-13975531D01*
X15936729Y-13975531D02*
X15917682Y-14004103D01*
X15917682Y-14004103D02*
X15908158Y-14042198D01*
X15908158Y-14042198D02*
X15908158Y-14118388D01*
X15908158Y-14118388D02*
X15917682Y-14137436D01*
X15917682Y-14137436D02*
X15927206Y-14146960D01*
X15927206Y-14146960D02*
X15946253Y-14156484D01*
X15946253Y-14156484D02*
X15984348Y-14156484D01*
X15984348Y-14156484D02*
X16003396Y-14146960D01*
X16003396Y-14146960D02*
X16012920Y-14137436D01*
X16012920Y-14137436D02*
X16022444Y-14118388D01*
X16022444Y-14118388D02*
X16022444Y-14070769D01*
X16022444Y-14070769D02*
X16012920Y-14051722D01*
X16012920Y-14051722D02*
X16003396Y-14042198D01*
X16003396Y-14042198D02*
X15984348Y-14032674D01*
X15984348Y-14032674D02*
X15946253Y-14032674D01*
X15946253Y-14032674D02*
X15927206Y-14042198D01*
X15927206Y-14042198D02*
X15917682Y-14051722D01*
X15917682Y-14051722D02*
X15908158Y-14070769D01*
X16098634Y-13956484D02*
X16098634Y-13994579D01*
X16174825Y-13956484D02*
X16174825Y-13994579D01*
X16470063Y-14232674D02*
X16460539Y-14223150D01*
X16460539Y-14223150D02*
X16441491Y-14194579D01*
X16441491Y-14194579D02*
X16431968Y-14175531D01*
X16431968Y-14175531D02*
X16422444Y-14146960D01*
X16422444Y-14146960D02*
X16412920Y-14099341D01*
X16412920Y-14099341D02*
X16412920Y-14061246D01*
X16412920Y-14061246D02*
X16422444Y-14013627D01*
X16422444Y-14013627D02*
X16431968Y-13985055D01*
X16431968Y-13985055D02*
X16441491Y-13966008D01*
X16441491Y-13966008D02*
X16460539Y-13937436D01*
X16460539Y-13937436D02*
X16470063Y-13927912D01*
X16651015Y-14156484D02*
X16536729Y-14156484D01*
X16593872Y-14156484D02*
X16593872Y-13956484D01*
X16593872Y-13956484D02*
X16574825Y-13985055D01*
X16574825Y-13985055D02*
X16555777Y-14004103D01*
X16555777Y-14004103D02*
X16536729Y-14013627D01*
X16774825Y-13956484D02*
X16793872Y-13956484D01*
X16793872Y-13956484D02*
X16812920Y-13966008D01*
X16812920Y-13966008D02*
X16822444Y-13975531D01*
X16822444Y-13975531D02*
X16831968Y-13994579D01*
X16831968Y-13994579D02*
X16841491Y-14032674D01*
X16841491Y-14032674D02*
X16841491Y-14080293D01*
X16841491Y-14080293D02*
X16831968Y-14118388D01*
X16831968Y-14118388D02*
X16822444Y-14137436D01*
X16822444Y-14137436D02*
X16812920Y-14146960D01*
X16812920Y-14146960D02*
X16793872Y-14156484D01*
X16793872Y-14156484D02*
X16774825Y-14156484D01*
X16774825Y-14156484D02*
X16755777Y-14146960D01*
X16755777Y-14146960D02*
X16746253Y-14137436D01*
X16746253Y-14137436D02*
X16736729Y-14118388D01*
X16736729Y-14118388D02*
X16727206Y-14080293D01*
X16727206Y-14080293D02*
X16727206Y-14032674D01*
X16727206Y-14032674D02*
X16736729Y-13994579D01*
X16736729Y-13994579D02*
X16746253Y-13975531D01*
X16746253Y-13975531D02*
X16755777Y-13966008D01*
X16755777Y-13966008D02*
X16774825Y-13956484D01*
X17079587Y-14156484D02*
X17079587Y-13956484D01*
X17165301Y-14156484D02*
X17165301Y-14051722D01*
X17165301Y-14051722D02*
X17155777Y-14032674D01*
X17155777Y-14032674D02*
X17136730Y-14023150D01*
X17136730Y-14023150D02*
X17108158Y-14023150D01*
X17108158Y-14023150D02*
X17089111Y-14032674D01*
X17089111Y-14032674D02*
X17079587Y-14042198D01*
X17289111Y-14156484D02*
X17270063Y-14146960D01*
X17270063Y-14146960D02*
X17260539Y-14137436D01*
X17260539Y-14137436D02*
X17251015Y-14118388D01*
X17251015Y-14118388D02*
X17251015Y-14061246D01*
X17251015Y-14061246D02*
X17260539Y-14042198D01*
X17260539Y-14042198D02*
X17270063Y-14032674D01*
X17270063Y-14032674D02*
X17289111Y-14023150D01*
X17289111Y-14023150D02*
X17317682Y-14023150D01*
X17317682Y-14023150D02*
X17336730Y-14032674D01*
X17336730Y-14032674D02*
X17346253Y-14042198D01*
X17346253Y-14042198D02*
X17355777Y-14061246D01*
X17355777Y-14061246D02*
X17355777Y-14118388D01*
X17355777Y-14118388D02*
X17346253Y-14137436D01*
X17346253Y-14137436D02*
X17336730Y-14146960D01*
X17336730Y-14146960D02*
X17317682Y-14156484D01*
X17317682Y-14156484D02*
X17289111Y-14156484D01*
X17470063Y-14156484D02*
X17451015Y-14146960D01*
X17451015Y-14146960D02*
X17441492Y-14127912D01*
X17441492Y-14127912D02*
X17441492Y-13956484D01*
X17622444Y-14146960D02*
X17603396Y-14156484D01*
X17603396Y-14156484D02*
X17565301Y-14156484D01*
X17565301Y-14156484D02*
X17546253Y-14146960D01*
X17546253Y-14146960D02*
X17536730Y-14127912D01*
X17536730Y-14127912D02*
X17536730Y-14051722D01*
X17536730Y-14051722D02*
X17546253Y-14032674D01*
X17546253Y-14032674D02*
X17565301Y-14023150D01*
X17565301Y-14023150D02*
X17603396Y-14023150D01*
X17603396Y-14023150D02*
X17622444Y-14032674D01*
X17622444Y-14032674D02*
X17631968Y-14051722D01*
X17631968Y-14051722D02*
X17631968Y-14070769D01*
X17631968Y-14070769D02*
X17536730Y-14089817D01*
X17708158Y-14146960D02*
X17727206Y-14156484D01*
X17727206Y-14156484D02*
X17765301Y-14156484D01*
X17765301Y-14156484D02*
X17784349Y-14146960D01*
X17784349Y-14146960D02*
X17793873Y-14127912D01*
X17793873Y-14127912D02*
X17793873Y-14118388D01*
X17793873Y-14118388D02*
X17784349Y-14099341D01*
X17784349Y-14099341D02*
X17765301Y-14089817D01*
X17765301Y-14089817D02*
X17736730Y-14089817D01*
X17736730Y-14089817D02*
X17717682Y-14080293D01*
X17717682Y-14080293D02*
X17708158Y-14061246D01*
X17708158Y-14061246D02*
X17708158Y-14051722D01*
X17708158Y-14051722D02*
X17717682Y-14032674D01*
X17717682Y-14032674D02*
X17736730Y-14023150D01*
X17736730Y-14023150D02*
X17765301Y-14023150D01*
X17765301Y-14023150D02*
X17784349Y-14032674D01*
X17860539Y-14232674D02*
X17870063Y-14223150D01*
X17870063Y-14223150D02*
X17889111Y-14194579D01*
X17889111Y-14194579D02*
X17898634Y-14175531D01*
X17898634Y-14175531D02*
X17908158Y-14146960D01*
X17908158Y-14146960D02*
X17917682Y-14099341D01*
X17917682Y-14099341D02*
X17917682Y-14061246D01*
X17917682Y-14061246D02*
X17908158Y-14013627D01*
X17908158Y-14013627D02*
X17898634Y-13985055D01*
X17898634Y-13985055D02*
X17889111Y-13966008D01*
X17889111Y-13966008D02*
X17870063Y-13937436D01*
X17870063Y-13937436D02*
X17860539Y-13927912D01*
D18*
X12820000Y-14291500D02*
X12895000Y-14366500D01*
X12895000Y-14291500D02*
X12820000Y-14366500D01*
X12857500Y-14291500D02*
X12857500Y-14366500D01*
X12820000Y-14329000D02*
X12895000Y-14329000D01*
D11*
X13193872Y-14220484D02*
X13212920Y-14220484D01*
X13212920Y-14220484D02*
X13231967Y-14230008D01*
X13231967Y-14230008D02*
X13241491Y-14239531D01*
X13241491Y-14239531D02*
X13251015Y-14258579D01*
X13251015Y-14258579D02*
X13260539Y-14296674D01*
X13260539Y-14296674D02*
X13260539Y-14344293D01*
X13260539Y-14344293D02*
X13251015Y-14382388D01*
X13251015Y-14382388D02*
X13241491Y-14401436D01*
X13241491Y-14401436D02*
X13231967Y-14410960D01*
X13231967Y-14410960D02*
X13212920Y-14420484D01*
X13212920Y-14420484D02*
X13193872Y-14420484D01*
X13193872Y-14420484D02*
X13174824Y-14410960D01*
X13174824Y-14410960D02*
X13165301Y-14401436D01*
X13165301Y-14401436D02*
X13155777Y-14382388D01*
X13155777Y-14382388D02*
X13146253Y-14344293D01*
X13146253Y-14344293D02*
X13146253Y-14296674D01*
X13146253Y-14296674D02*
X13155777Y-14258579D01*
X13155777Y-14258579D02*
X13165301Y-14239531D01*
X13165301Y-14239531D02*
X13174824Y-14230008D01*
X13174824Y-14230008D02*
X13193872Y-14220484D01*
X13346253Y-14401436D02*
X13355777Y-14410960D01*
X13355777Y-14410960D02*
X13346253Y-14420484D01*
X13346253Y-14420484D02*
X13336729Y-14410960D01*
X13336729Y-14410960D02*
X13346253Y-14401436D01*
X13346253Y-14401436D02*
X13346253Y-14420484D01*
X13422443Y-14220484D02*
X13555777Y-14220484D01*
X13555777Y-14220484D02*
X13470062Y-14420484D01*
X13727205Y-14220484D02*
X13631967Y-14220484D01*
X13631967Y-14220484D02*
X13622443Y-14315722D01*
X13622443Y-14315722D02*
X13631967Y-14306198D01*
X13631967Y-14306198D02*
X13651015Y-14296674D01*
X13651015Y-14296674D02*
X13698634Y-14296674D01*
X13698634Y-14296674D02*
X13717682Y-14306198D01*
X13717682Y-14306198D02*
X13727205Y-14315722D01*
X13727205Y-14315722D02*
X13736729Y-14334769D01*
X13736729Y-14334769D02*
X13736729Y-14382388D01*
X13736729Y-14382388D02*
X13727205Y-14401436D01*
X13727205Y-14401436D02*
X13717682Y-14410960D01*
X13717682Y-14410960D02*
X13698634Y-14420484D01*
X13698634Y-14420484D02*
X13651015Y-14420484D01*
X13651015Y-14420484D02*
X13631967Y-14410960D01*
X13631967Y-14410960D02*
X13622443Y-14401436D01*
X13860539Y-14220484D02*
X13879586Y-14220484D01*
X13879586Y-14220484D02*
X13898634Y-14230008D01*
X13898634Y-14230008D02*
X13908158Y-14239531D01*
X13908158Y-14239531D02*
X13917682Y-14258579D01*
X13917682Y-14258579D02*
X13927205Y-14296674D01*
X13927205Y-14296674D02*
X13927205Y-14344293D01*
X13927205Y-14344293D02*
X13917682Y-14382388D01*
X13917682Y-14382388D02*
X13908158Y-14401436D01*
X13908158Y-14401436D02*
X13898634Y-14410960D01*
X13898634Y-14410960D02*
X13879586Y-14420484D01*
X13879586Y-14420484D02*
X13860539Y-14420484D01*
X13860539Y-14420484D02*
X13841491Y-14410960D01*
X13841491Y-14410960D02*
X13831967Y-14401436D01*
X13831967Y-14401436D02*
X13822443Y-14382388D01*
X13822443Y-14382388D02*
X13812920Y-14344293D01*
X13812920Y-14344293D02*
X13812920Y-14296674D01*
X13812920Y-14296674D02*
X13822443Y-14258579D01*
X13822443Y-14258579D02*
X13831967Y-14239531D01*
X13831967Y-14239531D02*
X13841491Y-14230008D01*
X13841491Y-14230008D02*
X13860539Y-14220484D01*
X14012920Y-14420484D02*
X14012920Y-14287150D01*
X14012920Y-14306198D02*
X14022443Y-14296674D01*
X14022443Y-14296674D02*
X14041491Y-14287150D01*
X14041491Y-14287150D02*
X14070063Y-14287150D01*
X14070063Y-14287150D02*
X14089110Y-14296674D01*
X14089110Y-14296674D02*
X14098634Y-14315722D01*
X14098634Y-14315722D02*
X14098634Y-14420484D01*
X14098634Y-14315722D02*
X14108158Y-14296674D01*
X14108158Y-14296674D02*
X14127205Y-14287150D01*
X14127205Y-14287150D02*
X14155777Y-14287150D01*
X14155777Y-14287150D02*
X14174824Y-14296674D01*
X14174824Y-14296674D02*
X14184348Y-14315722D01*
X14184348Y-14315722D02*
X14184348Y-14420484D01*
X14279586Y-14420484D02*
X14279586Y-14287150D01*
X14279586Y-14306198D02*
X14289110Y-14296674D01*
X14289110Y-14296674D02*
X14308158Y-14287150D01*
X14308158Y-14287150D02*
X14336729Y-14287150D01*
X14336729Y-14287150D02*
X14355777Y-14296674D01*
X14355777Y-14296674D02*
X14365301Y-14315722D01*
X14365301Y-14315722D02*
X14365301Y-14420484D01*
X14365301Y-14315722D02*
X14374824Y-14296674D01*
X14374824Y-14296674D02*
X14393872Y-14287150D01*
X14393872Y-14287150D02*
X14422443Y-14287150D01*
X14422443Y-14287150D02*
X14441491Y-14296674D01*
X14441491Y-14296674D02*
X14451015Y-14315722D01*
X14451015Y-14315722D02*
X14451015Y-14420484D01*
X14841491Y-14210960D02*
X14670063Y-14468103D01*
X15098634Y-14220484D02*
X15117682Y-14220484D01*
X15117682Y-14220484D02*
X15136729Y-14230008D01*
X15136729Y-14230008D02*
X15146253Y-14239531D01*
X15146253Y-14239531D02*
X15155777Y-14258579D01*
X15155777Y-14258579D02*
X15165301Y-14296674D01*
X15165301Y-14296674D02*
X15165301Y-14344293D01*
X15165301Y-14344293D02*
X15155777Y-14382388D01*
X15155777Y-14382388D02*
X15146253Y-14401436D01*
X15146253Y-14401436D02*
X15136729Y-14410960D01*
X15136729Y-14410960D02*
X15117682Y-14420484D01*
X15117682Y-14420484D02*
X15098634Y-14420484D01*
X15098634Y-14420484D02*
X15079586Y-14410960D01*
X15079586Y-14410960D02*
X15070063Y-14401436D01*
X15070063Y-14401436D02*
X15060539Y-14382388D01*
X15060539Y-14382388D02*
X15051015Y-14344293D01*
X15051015Y-14344293D02*
X15051015Y-14296674D01*
X15051015Y-14296674D02*
X15060539Y-14258579D01*
X15060539Y-14258579D02*
X15070063Y-14239531D01*
X15070063Y-14239531D02*
X15079586Y-14230008D01*
X15079586Y-14230008D02*
X15098634Y-14220484D01*
X15251015Y-14401436D02*
X15260539Y-14410960D01*
X15260539Y-14410960D02*
X15251015Y-14420484D01*
X15251015Y-14420484D02*
X15241491Y-14410960D01*
X15241491Y-14410960D02*
X15251015Y-14401436D01*
X15251015Y-14401436D02*
X15251015Y-14420484D01*
X15384348Y-14220484D02*
X15403396Y-14220484D01*
X15403396Y-14220484D02*
X15422444Y-14230008D01*
X15422444Y-14230008D02*
X15431967Y-14239531D01*
X15431967Y-14239531D02*
X15441491Y-14258579D01*
X15441491Y-14258579D02*
X15451015Y-14296674D01*
X15451015Y-14296674D02*
X15451015Y-14344293D01*
X15451015Y-14344293D02*
X15441491Y-14382388D01*
X15441491Y-14382388D02*
X15431967Y-14401436D01*
X15431967Y-14401436D02*
X15422444Y-14410960D01*
X15422444Y-14410960D02*
X15403396Y-14420484D01*
X15403396Y-14420484D02*
X15384348Y-14420484D01*
X15384348Y-14420484D02*
X15365301Y-14410960D01*
X15365301Y-14410960D02*
X15355777Y-14401436D01*
X15355777Y-14401436D02*
X15346253Y-14382388D01*
X15346253Y-14382388D02*
X15336729Y-14344293D01*
X15336729Y-14344293D02*
X15336729Y-14296674D01*
X15336729Y-14296674D02*
X15346253Y-14258579D01*
X15346253Y-14258579D02*
X15355777Y-14239531D01*
X15355777Y-14239531D02*
X15365301Y-14230008D01*
X15365301Y-14230008D02*
X15384348Y-14220484D01*
X15527206Y-14239531D02*
X15536729Y-14230008D01*
X15536729Y-14230008D02*
X15555777Y-14220484D01*
X15555777Y-14220484D02*
X15603396Y-14220484D01*
X15603396Y-14220484D02*
X15622444Y-14230008D01*
X15622444Y-14230008D02*
X15631967Y-14239531D01*
X15631967Y-14239531D02*
X15641491Y-14258579D01*
X15641491Y-14258579D02*
X15641491Y-14277627D01*
X15641491Y-14277627D02*
X15631967Y-14306198D01*
X15631967Y-14306198D02*
X15517682Y-14420484D01*
X15517682Y-14420484D02*
X15641491Y-14420484D01*
X15736729Y-14420484D02*
X15774825Y-14420484D01*
X15774825Y-14420484D02*
X15793872Y-14410960D01*
X15793872Y-14410960D02*
X15803396Y-14401436D01*
X15803396Y-14401436D02*
X15822444Y-14372865D01*
X15822444Y-14372865D02*
X15831967Y-14334769D01*
X15831967Y-14334769D02*
X15831967Y-14258579D01*
X15831967Y-14258579D02*
X15822444Y-14239531D01*
X15822444Y-14239531D02*
X15812920Y-14230008D01*
X15812920Y-14230008D02*
X15793872Y-14220484D01*
X15793872Y-14220484D02*
X15755777Y-14220484D01*
X15755777Y-14220484D02*
X15736729Y-14230008D01*
X15736729Y-14230008D02*
X15727206Y-14239531D01*
X15727206Y-14239531D02*
X15717682Y-14258579D01*
X15717682Y-14258579D02*
X15717682Y-14306198D01*
X15717682Y-14306198D02*
X15727206Y-14325246D01*
X15727206Y-14325246D02*
X15736729Y-14334769D01*
X15736729Y-14334769D02*
X15755777Y-14344293D01*
X15755777Y-14344293D02*
X15793872Y-14344293D01*
X15793872Y-14344293D02*
X15812920Y-14334769D01*
X15812920Y-14334769D02*
X15822444Y-14325246D01*
X15822444Y-14325246D02*
X15831967Y-14306198D01*
X16012920Y-14220484D02*
X15917682Y-14220484D01*
X15917682Y-14220484D02*
X15908158Y-14315722D01*
X15908158Y-14315722D02*
X15917682Y-14306198D01*
X15917682Y-14306198D02*
X15936729Y-14296674D01*
X15936729Y-14296674D02*
X15984348Y-14296674D01*
X15984348Y-14296674D02*
X16003396Y-14306198D01*
X16003396Y-14306198D02*
X16012920Y-14315722D01*
X16012920Y-14315722D02*
X16022444Y-14334769D01*
X16022444Y-14334769D02*
X16022444Y-14382388D01*
X16022444Y-14382388D02*
X16012920Y-14401436D01*
X16012920Y-14401436D02*
X16003396Y-14410960D01*
X16003396Y-14410960D02*
X15984348Y-14420484D01*
X15984348Y-14420484D02*
X15936729Y-14420484D01*
X15936729Y-14420484D02*
X15917682Y-14410960D01*
X15917682Y-14410960D02*
X15908158Y-14401436D01*
X16098634Y-14220484D02*
X16098634Y-14258579D01*
X16174825Y-14220484D02*
X16174825Y-14258579D01*
X16470063Y-14496674D02*
X16460539Y-14487150D01*
X16460539Y-14487150D02*
X16441491Y-14458579D01*
X16441491Y-14458579D02*
X16431968Y-14439531D01*
X16431968Y-14439531D02*
X16422444Y-14410960D01*
X16422444Y-14410960D02*
X16412920Y-14363341D01*
X16412920Y-14363341D02*
X16412920Y-14325246D01*
X16412920Y-14325246D02*
X16422444Y-14277627D01*
X16422444Y-14277627D02*
X16431968Y-14249055D01*
X16431968Y-14249055D02*
X16441491Y-14230008D01*
X16441491Y-14230008D02*
X16460539Y-14201436D01*
X16460539Y-14201436D02*
X16470063Y-14191912D01*
X16651015Y-14420484D02*
X16536729Y-14420484D01*
X16593872Y-14420484D02*
X16593872Y-14220484D01*
X16593872Y-14220484D02*
X16574825Y-14249055D01*
X16574825Y-14249055D02*
X16555777Y-14268103D01*
X16555777Y-14268103D02*
X16536729Y-14277627D01*
X16774825Y-14220484D02*
X16793872Y-14220484D01*
X16793872Y-14220484D02*
X16812920Y-14230008D01*
X16812920Y-14230008D02*
X16822444Y-14239531D01*
X16822444Y-14239531D02*
X16831968Y-14258579D01*
X16831968Y-14258579D02*
X16841491Y-14296674D01*
X16841491Y-14296674D02*
X16841491Y-14344293D01*
X16841491Y-14344293D02*
X16831968Y-14382388D01*
X16831968Y-14382388D02*
X16822444Y-14401436D01*
X16822444Y-14401436D02*
X16812920Y-14410960D01*
X16812920Y-14410960D02*
X16793872Y-14420484D01*
X16793872Y-14420484D02*
X16774825Y-14420484D01*
X16774825Y-14420484D02*
X16755777Y-14410960D01*
X16755777Y-14410960D02*
X16746253Y-14401436D01*
X16746253Y-14401436D02*
X16736729Y-14382388D01*
X16736729Y-14382388D02*
X16727206Y-14344293D01*
X16727206Y-14344293D02*
X16727206Y-14296674D01*
X16727206Y-14296674D02*
X16736729Y-14258579D01*
X16736729Y-14258579D02*
X16746253Y-14239531D01*
X16746253Y-14239531D02*
X16755777Y-14230008D01*
X16755777Y-14230008D02*
X16774825Y-14220484D01*
X17079587Y-14420484D02*
X17079587Y-14220484D01*
X17165301Y-14420484D02*
X17165301Y-14315722D01*
X17165301Y-14315722D02*
X17155777Y-14296674D01*
X17155777Y-14296674D02*
X17136730Y-14287150D01*
X17136730Y-14287150D02*
X17108158Y-14287150D01*
X17108158Y-14287150D02*
X17089111Y-14296674D01*
X17089111Y-14296674D02*
X17079587Y-14306198D01*
X17289111Y-14420484D02*
X17270063Y-14410960D01*
X17270063Y-14410960D02*
X17260539Y-14401436D01*
X17260539Y-14401436D02*
X17251015Y-14382388D01*
X17251015Y-14382388D02*
X17251015Y-14325246D01*
X17251015Y-14325246D02*
X17260539Y-14306198D01*
X17260539Y-14306198D02*
X17270063Y-14296674D01*
X17270063Y-14296674D02*
X17289111Y-14287150D01*
X17289111Y-14287150D02*
X17317682Y-14287150D01*
X17317682Y-14287150D02*
X17336730Y-14296674D01*
X17336730Y-14296674D02*
X17346253Y-14306198D01*
X17346253Y-14306198D02*
X17355777Y-14325246D01*
X17355777Y-14325246D02*
X17355777Y-14382388D01*
X17355777Y-14382388D02*
X17346253Y-14401436D01*
X17346253Y-14401436D02*
X17336730Y-14410960D01*
X17336730Y-14410960D02*
X17317682Y-14420484D01*
X17317682Y-14420484D02*
X17289111Y-14420484D01*
X17470063Y-14420484D02*
X17451015Y-14410960D01*
X17451015Y-14410960D02*
X17441492Y-14391912D01*
X17441492Y-14391912D02*
X17441492Y-14220484D01*
X17622444Y-14410960D02*
X17603396Y-14420484D01*
X17603396Y-14420484D02*
X17565301Y-14420484D01*
X17565301Y-14420484D02*
X17546253Y-14410960D01*
X17546253Y-14410960D02*
X17536730Y-14391912D01*
X17536730Y-14391912D02*
X17536730Y-14315722D01*
X17536730Y-14315722D02*
X17546253Y-14296674D01*
X17546253Y-14296674D02*
X17565301Y-14287150D01*
X17565301Y-14287150D02*
X17603396Y-14287150D01*
X17603396Y-14287150D02*
X17622444Y-14296674D01*
X17622444Y-14296674D02*
X17631968Y-14315722D01*
X17631968Y-14315722D02*
X17631968Y-14334769D01*
X17631968Y-14334769D02*
X17536730Y-14353817D01*
X17708158Y-14410960D02*
X17727206Y-14420484D01*
X17727206Y-14420484D02*
X17765301Y-14420484D01*
X17765301Y-14420484D02*
X17784349Y-14410960D01*
X17784349Y-14410960D02*
X17793873Y-14391912D01*
X17793873Y-14391912D02*
X17793873Y-14382388D01*
X17793873Y-14382388D02*
X17784349Y-14363341D01*
X17784349Y-14363341D02*
X17765301Y-14353817D01*
X17765301Y-14353817D02*
X17736730Y-14353817D01*
X17736730Y-14353817D02*
X17717682Y-14344293D01*
X17717682Y-14344293D02*
X17708158Y-14325246D01*
X17708158Y-14325246D02*
X17708158Y-14315722D01*
X17708158Y-14315722D02*
X17717682Y-14296674D01*
X17717682Y-14296674D02*
X17736730Y-14287150D01*
X17736730Y-14287150D02*
X17765301Y-14287150D01*
X17765301Y-14287150D02*
X17784349Y-14296674D01*
X17860539Y-14496674D02*
X17870063Y-14487150D01*
X17870063Y-14487150D02*
X17889111Y-14458579D01*
X17889111Y-14458579D02*
X17898634Y-14439531D01*
X17898634Y-14439531D02*
X17908158Y-14410960D01*
X17908158Y-14410960D02*
X17917682Y-14363341D01*
X17917682Y-14363341D02*
X17917682Y-14325246D01*
X17917682Y-14325246D02*
X17908158Y-14277627D01*
X17908158Y-14277627D02*
X17898634Y-14249055D01*
X17898634Y-14249055D02*
X17889111Y-14230008D01*
X17889111Y-14230008D02*
X17870063Y-14201436D01*
X17870063Y-14201436D02*
X17860539Y-14191912D01*
M02*
