%TF.GenerationSoftware,KiCad,Pcbnew,8.0.3*%
%TF.CreationDate,2024-10-17T21:46:56-04:00*%
%TF.ProjectId,Axis_Basic,41786973-5f42-4617-9369-632e6b696361,rev?*%
%TF.SameCoordinates,Original*%
%TF.FileFunction,Drillmap*%
%TF.FilePolarity,Positive*%
%FSLAX45Y45*%
G04 Gerber Fmt 4.5, Leading zero omitted, Abs format (unit mm)*
G04 Created by KiCad (PCBNEW 8.0.3) date 2024-10-17 21:46:56*
%MOMM*%
%LPD*%
G01*
G04 APERTURE LIST*
%ADD10C,0.100000*%
%ADD11C,0.200000*%
%ADD12C,0.320000*%
G04 APERTURE END LIST*
D10*
X13450000Y-12100000D02*
G75*
G02*
X12900000Y-11550000I0J550000D01*
G01*
X16550000Y-7900000D02*
G75*
G02*
X17100000Y-8450000I0J-550000D01*
G01*
X12900000Y-8450000D02*
G75*
G02*
X13450000Y-7900000I550000J0D01*
G01*
X13450000Y-7900000D02*
X16550000Y-7900000D01*
X17100000Y-11550000D02*
G75*
G02*
X16550000Y-12100000I-550000J0D01*
G01*
X17100000Y-8450000D02*
X17100000Y-11550000D01*
X16550000Y-12100000D02*
X13450000Y-12100000D01*
X12900000Y-11550000D02*
X12900000Y-8450000D01*
D11*
D10*
X14082497Y-10202500D02*
X14097497Y-10217500D01*
X14097497Y-10202500D02*
X14082497Y-10217500D01*
X14082497Y-10262500D02*
X14097497Y-10277500D01*
X14097497Y-10262500D02*
X14082497Y-10277500D01*
X14082500Y-9562500D02*
X14097500Y-9577500D01*
X14097500Y-9562500D02*
X14082500Y-9577500D01*
X14082500Y-9622500D02*
X14097500Y-9637500D01*
X14097500Y-9622500D02*
X14082500Y-9637500D01*
X14132497Y-10232500D02*
X14147497Y-10247500D01*
X14147497Y-10232500D02*
X14132497Y-10247500D01*
X14132497Y-10292500D02*
X14147497Y-10307500D01*
X14147497Y-10292500D02*
X14132497Y-10307500D01*
X14132500Y-9537500D02*
X14147500Y-9552500D01*
X14147500Y-9537500D02*
X14132500Y-9552500D01*
X14132500Y-9592500D02*
X14147500Y-9607500D01*
X14147500Y-9592500D02*
X14132500Y-9607500D01*
X14208750Y-9820000D02*
G75*
G02*
X14188750Y-9820000I-10000J0D01*
G01*
X14188750Y-9820000D02*
G75*
G02*
X14208750Y-9820000I10000J0D01*
G01*
X14208750Y-9920000D02*
G75*
G02*
X14188750Y-9920000I-10000J0D01*
G01*
X14188750Y-9920000D02*
G75*
G02*
X14208750Y-9920000I10000J0D01*
G01*
X14208750Y-10020000D02*
G75*
G02*
X14188750Y-10020000I-10000J0D01*
G01*
X14188750Y-10020000D02*
G75*
G02*
X14208750Y-10020000I10000J0D01*
G01*
X14308750Y-9820000D02*
G75*
G02*
X14288750Y-9820000I-10000J0D01*
G01*
X14288750Y-9820000D02*
G75*
G02*
X14308750Y-9820000I10000J0D01*
G01*
X14308750Y-9920000D02*
G75*
G02*
X14288750Y-9920000I-10000J0D01*
G01*
X14288750Y-9920000D02*
G75*
G02*
X14308750Y-9920000I10000J0D01*
G01*
X14308750Y-10020000D02*
G75*
G02*
X14288750Y-10020000I-10000J0D01*
G01*
X14288750Y-10020000D02*
G75*
G02*
X14308750Y-10020000I10000J0D01*
G01*
X14408750Y-9820000D02*
G75*
G02*
X14388750Y-9820000I-10000J0D01*
G01*
X14388750Y-9820000D02*
G75*
G02*
X14408750Y-9820000I10000J0D01*
G01*
X14408750Y-9920000D02*
G75*
G02*
X14388750Y-9920000I-10000J0D01*
G01*
X14388750Y-9920000D02*
G75*
G02*
X14408750Y-9920000I10000J0D01*
G01*
X14408750Y-10020000D02*
G75*
G02*
X14388750Y-10020000I-10000J0D01*
G01*
X14388750Y-10020000D02*
G75*
G02*
X14408750Y-10020000I10000J0D01*
G01*
X13000000Y-8382500D02*
X13000000Y-8417500D01*
X12982500Y-8400000D02*
X13017500Y-8400000D01*
X13000000Y-8582500D02*
X13000000Y-8617500D01*
X12982500Y-8600000D02*
X13017500Y-8600000D01*
X13000000Y-8782500D02*
X13000000Y-8817500D01*
X12982500Y-8800000D02*
X13017500Y-8800000D01*
X13000000Y-8992500D02*
X13000000Y-9027500D01*
X12982500Y-9010000D02*
X13017500Y-9010000D01*
X13000000Y-9192500D02*
X13000000Y-9227500D01*
X12982500Y-9210000D02*
X13017500Y-9210000D01*
X13000000Y-9582500D02*
X13000000Y-9617500D01*
X12982500Y-9600000D02*
X13017500Y-9600000D01*
X13000000Y-9782500D02*
X13000000Y-9817500D01*
X12982500Y-9800000D02*
X13017500Y-9800000D01*
X13000000Y-9982500D02*
X13000000Y-10017500D01*
X12982500Y-10000000D02*
X13017500Y-10000000D01*
X13000000Y-10182500D02*
X13000000Y-10217500D01*
X12982500Y-10200000D02*
X13017500Y-10200000D01*
X13000000Y-10582500D02*
X13000000Y-10617500D01*
X12982500Y-10600000D02*
X13017500Y-10600000D01*
X13000000Y-10782500D02*
X13000000Y-10817500D01*
X12982500Y-10800000D02*
X13017500Y-10800000D01*
X13000000Y-10982500D02*
X13000000Y-11017500D01*
X12982500Y-11000000D02*
X13017500Y-11000000D01*
X13000000Y-11382500D02*
X13000000Y-11417500D01*
X12982500Y-11400000D02*
X13017500Y-11400000D01*
X13000000Y-11582500D02*
X13000000Y-11617500D01*
X12982500Y-11600000D02*
X13017500Y-11600000D01*
X13400000Y-7982500D02*
X13400000Y-8017500D01*
X13382500Y-8000000D02*
X13417500Y-8000000D01*
X13400000Y-11982500D02*
X13400000Y-12017500D01*
X13382500Y-12000000D02*
X13417500Y-12000000D01*
X13600000Y-7982500D02*
X13600000Y-8017500D01*
X13582500Y-8000000D02*
X13617500Y-8000000D01*
X13600000Y-11982500D02*
X13600000Y-12017500D01*
X13582500Y-12000000D02*
X13617500Y-12000000D01*
X13690000Y-10612500D02*
X13690000Y-10647500D01*
X13672500Y-10630000D02*
X13707500Y-10630000D01*
X13720000Y-9072500D02*
X13720000Y-9107500D01*
X13702500Y-9090000D02*
X13737500Y-9090000D01*
X13740000Y-10682500D02*
X13740000Y-10717500D01*
X13722500Y-10700000D02*
X13757500Y-10700000D01*
X13790000Y-10612500D02*
X13790000Y-10647500D01*
X13772500Y-10630000D02*
X13807500Y-10630000D01*
X13800000Y-7982500D02*
X13800000Y-8017500D01*
X13782500Y-8000000D02*
X13817500Y-8000000D01*
X13800000Y-8672500D02*
X13800000Y-8707500D01*
X13782500Y-8690000D02*
X13817500Y-8690000D01*
X13800000Y-11982500D02*
X13800000Y-12017500D01*
X13782500Y-12000000D02*
X13817500Y-12000000D01*
X13810000Y-11192500D02*
X13810000Y-11227500D01*
X13792500Y-11210000D02*
X13827500Y-11210000D01*
X13830000Y-9072500D02*
X13830000Y-9107500D01*
X13812500Y-9090000D02*
X13847500Y-9090000D01*
X13840000Y-10682500D02*
X13840000Y-10717500D01*
X13822500Y-10700000D02*
X13857500Y-10700000D01*
X13860000Y-9192500D02*
X13860000Y-9227500D01*
X13842500Y-9210000D02*
X13877500Y-9210000D01*
X13890000Y-10612500D02*
X13890000Y-10647500D01*
X13872500Y-10630000D02*
X13907500Y-10630000D01*
X13940000Y-10682500D02*
X13940000Y-10717500D01*
X13922500Y-10700000D02*
X13957500Y-10700000D01*
X14000000Y-7982500D02*
X14000000Y-8017500D01*
X13982500Y-8000000D02*
X14017500Y-8000000D01*
X14065000Y-10562500D02*
X14065000Y-10597500D01*
X14047500Y-10580000D02*
X14082500Y-10580000D01*
X14065000Y-10647500D02*
X14065000Y-10682500D01*
X14047500Y-10665000D02*
X14082500Y-10665000D01*
X14070000Y-9152500D02*
X14070000Y-9187500D01*
X14052500Y-9170000D02*
X14087500Y-9170000D01*
X14070000Y-9237500D02*
X14070000Y-9272500D01*
X14052500Y-9255000D02*
X14087500Y-9255000D01*
X14070000Y-11802500D02*
X14070000Y-11837500D01*
X14052500Y-11820000D02*
X14087500Y-11820000D01*
X14080000Y-11532500D02*
X14080000Y-11567500D01*
X14062500Y-11550000D02*
X14097500Y-11550000D01*
X14120000Y-11882500D02*
X14120000Y-11917500D01*
X14102500Y-11900000D02*
X14137500Y-11900000D01*
X14130000Y-11612500D02*
X14130000Y-11647500D01*
X14112500Y-11630000D02*
X14147500Y-11630000D01*
X14155000Y-10562500D02*
X14155000Y-10597500D01*
X14137500Y-10580000D02*
X14172500Y-10580000D01*
X14155000Y-10647500D02*
X14155000Y-10682500D01*
X14137500Y-10665000D02*
X14172500Y-10665000D01*
X14160000Y-9152500D02*
X14160000Y-9187500D01*
X14142500Y-9170000D02*
X14177500Y-9170000D01*
X14160000Y-9237500D02*
X14160000Y-9272500D01*
X14142500Y-9255000D02*
X14177500Y-9255000D01*
X14170000Y-11802500D02*
X14170000Y-11837500D01*
X14152500Y-11820000D02*
X14187500Y-11820000D01*
X14180000Y-11532500D02*
X14180000Y-11567500D01*
X14162500Y-11550000D02*
X14197500Y-11550000D01*
X14180000Y-11692500D02*
X14180000Y-11727500D01*
X14162500Y-11710000D02*
X14197500Y-11710000D01*
X14200000Y-7982500D02*
X14200000Y-8017500D01*
X14182500Y-8000000D02*
X14217500Y-8000000D01*
X14210000Y-11882500D02*
X14210000Y-11917500D01*
X14192500Y-11900000D02*
X14227500Y-11900000D01*
X14230000Y-11612500D02*
X14230000Y-11647500D01*
X14212500Y-11630000D02*
X14247500Y-11630000D01*
X14236300Y-10272500D02*
X14236300Y-10307500D01*
X14218800Y-10290000D02*
X14253800Y-10290000D01*
X14280000Y-11532500D02*
X14280000Y-11567500D01*
X14262500Y-11550000D02*
X14297500Y-11550000D01*
X14300000Y-11882500D02*
X14300000Y-11917500D01*
X14282500Y-11900000D02*
X14317500Y-11900000D01*
X14360000Y-8212500D02*
X14360000Y-8247500D01*
X14342500Y-8230000D02*
X14377500Y-8230000D01*
X14360000Y-8302500D02*
X14360000Y-8337500D01*
X14342500Y-8320000D02*
X14377500Y-8320000D01*
X14360000Y-8392500D02*
X14360000Y-8427500D01*
X14342500Y-8410000D02*
X14377500Y-8410000D01*
X14390000Y-9162500D02*
X14390000Y-9197500D01*
X14372500Y-9180000D02*
X14407500Y-9180000D01*
X14390000Y-9472500D02*
X14390000Y-9507500D01*
X14372500Y-9490000D02*
X14407500Y-9490000D01*
X14400000Y-7982500D02*
X14400000Y-8017500D01*
X14382500Y-8000000D02*
X14417500Y-8000000D01*
X14460000Y-8782500D02*
X14460000Y-8817500D01*
X14442500Y-8800000D02*
X14477500Y-8800000D01*
X14510000Y-9185325D02*
X14510000Y-9220325D01*
X14492500Y-9202825D02*
X14527500Y-9202825D01*
X14520000Y-10702500D02*
X14520000Y-10737500D01*
X14502500Y-10720000D02*
X14537500Y-10720000D01*
X14530000Y-10530441D02*
X14530000Y-10565441D01*
X14512500Y-10547941D02*
X14547500Y-10547941D01*
X14550000Y-9662500D02*
X14550000Y-9697500D01*
X14532500Y-9680000D02*
X14567500Y-9680000D01*
X14560000Y-8792500D02*
X14560000Y-8827500D01*
X14542500Y-8810000D02*
X14577500Y-8810000D01*
X14600000Y-7982500D02*
X14600000Y-8017500D01*
X14582500Y-8000000D02*
X14617500Y-8000000D01*
X14660927Y-10400491D02*
X14660927Y-10435491D01*
X14643427Y-10417991D02*
X14678427Y-10417991D01*
X14680000Y-8892500D02*
X14680000Y-8927500D01*
X14662500Y-8910000D02*
X14697500Y-8910000D01*
X14768234Y-9923215D02*
X14768234Y-9958215D01*
X14750734Y-9940715D02*
X14785734Y-9940715D01*
X14770000Y-9432500D02*
X14770000Y-9467500D01*
X14752500Y-9450000D02*
X14787500Y-9450000D01*
X14776951Y-10336642D02*
X14776951Y-10371642D01*
X14759451Y-10354142D02*
X14794451Y-10354142D01*
X14790697Y-11112500D02*
X14790697Y-11147500D01*
X14773197Y-11130000D02*
X14808197Y-11130000D01*
X14800000Y-7982500D02*
X14800000Y-8017500D01*
X14782500Y-8000000D02*
X14817500Y-8000000D01*
X14960000Y-11632500D02*
X14960000Y-11667500D01*
X14942500Y-11650000D02*
X14977500Y-11650000D01*
X15000000Y-7982500D02*
X15000000Y-8017500D01*
X14982500Y-8000000D02*
X15017500Y-8000000D01*
X15000000Y-11982500D02*
X15000000Y-12017500D01*
X14982500Y-12000000D02*
X15017500Y-12000000D01*
X15010000Y-11352500D02*
X15010000Y-11387500D01*
X14992500Y-11370000D02*
X15027500Y-11370000D01*
X15090000Y-8852500D02*
X15090000Y-8887500D01*
X15072500Y-8870000D02*
X15107500Y-8870000D01*
X15140000Y-9062500D02*
X15140000Y-9097500D01*
X15122500Y-9080000D02*
X15157500Y-9080000D01*
X15200000Y-7982500D02*
X15200000Y-8017500D01*
X15182500Y-8000000D02*
X15217500Y-8000000D01*
X15200000Y-11982500D02*
X15200000Y-12017500D01*
X15182500Y-12000000D02*
X15217500Y-12000000D01*
X15260000Y-9892500D02*
X15260000Y-9927500D01*
X15242500Y-9910000D02*
X15277500Y-9910000D01*
X15260000Y-9982500D02*
X15260000Y-10017500D01*
X15242500Y-10000000D02*
X15277500Y-10000000D01*
X15279038Y-10121538D02*
X15279038Y-10156538D01*
X15261538Y-10139038D02*
X15296538Y-10139038D01*
X15370000Y-10122500D02*
X15370000Y-10157500D01*
X15352500Y-10140000D02*
X15387500Y-10140000D01*
X15400000Y-7982500D02*
X15400000Y-8017500D01*
X15382500Y-8000000D02*
X15417500Y-8000000D01*
X15470000Y-10502500D02*
X15470000Y-10537500D01*
X15452500Y-10520000D02*
X15487500Y-10520000D01*
X15480000Y-11212500D02*
X15480000Y-11247500D01*
X15462500Y-11230000D02*
X15497500Y-11230000D01*
X15600000Y-7982500D02*
X15600000Y-8017500D01*
X15582500Y-8000000D02*
X15617500Y-8000000D01*
X15600000Y-11432500D02*
X15600000Y-11467500D01*
X15582500Y-11450000D02*
X15617500Y-11450000D01*
X15630000Y-9222500D02*
X15630000Y-9257500D01*
X15612500Y-9240000D02*
X15647500Y-9240000D01*
X15660000Y-8212500D02*
X15660000Y-8247500D01*
X15642500Y-8230000D02*
X15677500Y-8230000D01*
X15660000Y-8302500D02*
X15660000Y-8337500D01*
X15642500Y-8320000D02*
X15677500Y-8320000D01*
X15660000Y-8392500D02*
X15660000Y-8427500D01*
X15642500Y-8410000D02*
X15677500Y-8410000D01*
X15700000Y-9612500D02*
X15700000Y-9647500D01*
X15682500Y-9630000D02*
X15717500Y-9630000D01*
X15710000Y-10857500D02*
X15710000Y-10892500D01*
X15692500Y-10875000D02*
X15727500Y-10875000D01*
X15792500Y-9712511D02*
X15792500Y-9747511D01*
X15775000Y-9730011D02*
X15810000Y-9730011D01*
X15800000Y-7982500D02*
X15800000Y-8017500D01*
X15782500Y-8000000D02*
X15817500Y-8000000D01*
X15800000Y-11982500D02*
X15800000Y-12017500D01*
X15782500Y-12000000D02*
X15817500Y-12000000D01*
X15890000Y-10832500D02*
X15890000Y-10867500D01*
X15872500Y-10850000D02*
X15907500Y-10850000D01*
X15940000Y-9792500D02*
X15940000Y-9827500D01*
X15922500Y-9810000D02*
X15957500Y-9810000D01*
X15997101Y-9212500D02*
X15997101Y-9247500D01*
X15979601Y-9230000D02*
X16014601Y-9230000D01*
X16000000Y-7982500D02*
X16000000Y-8017500D01*
X15982500Y-8000000D02*
X16017500Y-8000000D01*
X16000000Y-10822500D02*
X16000000Y-10857500D01*
X15982500Y-10840000D02*
X16017500Y-10840000D01*
X16000000Y-11982500D02*
X16000000Y-12017500D01*
X15982500Y-12000000D02*
X16017500Y-12000000D01*
X16090000Y-9212500D02*
X16090000Y-9247500D01*
X16072500Y-9230000D02*
X16107500Y-9230000D01*
X16107270Y-10025230D02*
X16107270Y-10060230D01*
X16089770Y-10042730D02*
X16124770Y-10042730D01*
X16175182Y-9446447D02*
X16175182Y-9481447D01*
X16157682Y-9463947D02*
X16192682Y-9463947D01*
X16180000Y-11112500D02*
X16180000Y-11147500D01*
X16162500Y-11130000D02*
X16197500Y-11130000D01*
X16200000Y-7982500D02*
X16200000Y-8017500D01*
X16182500Y-8000000D02*
X16217500Y-8000000D01*
X16260000Y-9682500D02*
X16260000Y-9717500D01*
X16242500Y-9700000D02*
X16277500Y-9700000D01*
X16260000Y-10062500D02*
X16260000Y-10097500D01*
X16242500Y-10080000D02*
X16277500Y-10080000D01*
X16360000Y-9842500D02*
X16360000Y-9877500D01*
X16342500Y-9860000D02*
X16377500Y-9860000D01*
X16390000Y-11022500D02*
X16390000Y-11057500D01*
X16372500Y-11040000D02*
X16407500Y-11040000D01*
X16400000Y-7982500D02*
X16400000Y-8017500D01*
X16382500Y-8000000D02*
X16417500Y-8000000D01*
X16405000Y-10132500D02*
X16405000Y-10167500D01*
X16387500Y-10150000D02*
X16422500Y-10150000D01*
X16470000Y-9842500D02*
X16470000Y-9877500D01*
X16452500Y-9860000D02*
X16487500Y-9860000D01*
X16550000Y-9272500D02*
X16550000Y-9307500D01*
X16532500Y-9290000D02*
X16567500Y-9290000D01*
X16590000Y-9842500D02*
X16590000Y-9877500D01*
X16572500Y-9860000D02*
X16607500Y-9860000D01*
X16600000Y-7982500D02*
X16600000Y-8017500D01*
X16582500Y-8000000D02*
X16617500Y-8000000D01*
X16695000Y-10142500D02*
X16695000Y-10177500D01*
X16677500Y-10160000D02*
X16712500Y-10160000D01*
X17000000Y-8482500D02*
X17000000Y-8517500D01*
X16982500Y-8500000D02*
X17017500Y-8500000D01*
X17000000Y-8682500D02*
X17000000Y-8717500D01*
X16982500Y-8700000D02*
X17017500Y-8700000D01*
X17000000Y-8882500D02*
X17000000Y-8917500D01*
X16982500Y-8900000D02*
X17017500Y-8900000D01*
X17000000Y-9082500D02*
X17000000Y-9117500D01*
X16982500Y-9100000D02*
X17017500Y-9100000D01*
X17000000Y-9282500D02*
X17000000Y-9317500D01*
X16982500Y-9300000D02*
X17017500Y-9300000D01*
X17000000Y-9482500D02*
X17000000Y-9517500D01*
X16982500Y-9500000D02*
X17017500Y-9500000D01*
X17000000Y-9682500D02*
X17000000Y-9717500D01*
X16982500Y-9700000D02*
X17017500Y-9700000D01*
X17000000Y-9882500D02*
X17000000Y-9917500D01*
X16982500Y-9900000D02*
X17017500Y-9900000D01*
X17000000Y-10082500D02*
X17000000Y-10117500D01*
X16982500Y-10100000D02*
X17017500Y-10100000D01*
X17000000Y-10482500D02*
X17000000Y-10517500D01*
X16982500Y-10500000D02*
X17017500Y-10500000D01*
X17000000Y-10682500D02*
X17000000Y-10717500D01*
X16982500Y-10700000D02*
X17017500Y-10700000D01*
X17000000Y-10882500D02*
X17000000Y-10917500D01*
X16982500Y-10900000D02*
X17017500Y-10900000D01*
X17000000Y-11282500D02*
X17000000Y-11317500D01*
X16982500Y-11300000D02*
X17017500Y-11300000D01*
X17000000Y-11482500D02*
X17000000Y-11517500D01*
X16982500Y-11500000D02*
X17017500Y-11500000D01*
X14304142Y-9364142D02*
X14304142Y-9335858D01*
X14275858Y-9335858D01*
X14275858Y-9364142D01*
X14304142Y-9364142D01*
X15034142Y-10834142D02*
X15034142Y-10805858D01*
X15005858Y-10805858D01*
X15005858Y-10834142D01*
X15034142Y-10834142D01*
X15424142Y-10814142D02*
X15424142Y-10785858D01*
X15395858Y-10785858D01*
X15395858Y-10814142D01*
X15424142Y-10814142D01*
X16694142Y-9254142D02*
X16694142Y-9225858D01*
X16665858Y-9225858D01*
X16665858Y-9254142D01*
X16694142Y-9254142D01*
X16549500Y-10263000D02*
X16579500Y-10233000D01*
X16549500Y-10203000D01*
X16519500Y-10233000D01*
X16549500Y-10263000D01*
X16494500Y-10263000D02*
X16604500Y-10263000D01*
X16604500Y-10203000D02*
G75*
G02*
X16604500Y-10263000I0J-30000D01*
G01*
X16604500Y-10203000D02*
X16494500Y-10203000D01*
X16494500Y-10203000D02*
G75*
G03*
X16494500Y-10263000I0J-30000D01*
G01*
X16549500Y-11127000D02*
X16579500Y-11097000D01*
X16549500Y-11067000D01*
X16519500Y-11097000D01*
X16549500Y-11127000D01*
X16494500Y-11127000D02*
X16604500Y-11127000D01*
X16604500Y-11067000D02*
G75*
G02*
X16604500Y-11127000I0J-30000D01*
G01*
X16604500Y-11067000D02*
X16494500Y-11067000D01*
X16494500Y-11067000D02*
G75*
G03*
X16494500Y-11127000I0J-30000D01*
G01*
X16967500Y-10263000D02*
X16997500Y-10233000D01*
X16967500Y-10203000D01*
X16937500Y-10233000D01*
X16967500Y-10263000D01*
X16927500Y-10263000D02*
X17007500Y-10263000D01*
X17007500Y-10203000D02*
G75*
G02*
X17007500Y-10263000I0J-30000D01*
G01*
X17007500Y-10203000D02*
X16927500Y-10203000D01*
X16927500Y-10203000D02*
G75*
G03*
X16927500Y-10263000I0J-30000D01*
G01*
X16967500Y-11127000D02*
X16997500Y-11097000D01*
X16967500Y-11067000D01*
X16937500Y-11097000D01*
X16967500Y-11127000D01*
X16927500Y-11127000D02*
X17007500Y-11127000D01*
X17007500Y-11067000D02*
G75*
G02*
X17007500Y-11127000I0J-30000D01*
G01*
X17007500Y-11067000D02*
X16927500Y-11067000D01*
X16927500Y-11067000D02*
G75*
G03*
X16927500Y-11127000I0J-30000D01*
G01*
X13405735Y-9585441D02*
X13480735Y-9660441D01*
X13480735Y-9585441D02*
X13405735Y-9660441D01*
X13480735Y-9622941D02*
G75*
G02*
X13405735Y-9622941I-37500J0D01*
G01*
X13405735Y-9622941D02*
G75*
G02*
X13480735Y-9622941I37500J0D01*
G01*
X13405735Y-9785441D02*
X13480735Y-9860441D01*
X13480735Y-9785441D02*
X13405735Y-9860441D01*
X13480735Y-9822941D02*
G75*
G02*
X13405735Y-9822941I-37500J0D01*
G01*
X13405735Y-9822941D02*
G75*
G02*
X13480735Y-9822941I37500J0D01*
G01*
X13405735Y-9985441D02*
X13480735Y-10060441D01*
X13480735Y-9985441D02*
X13405735Y-10060441D01*
X13480735Y-10022941D02*
G75*
G02*
X13405735Y-10022941I-37500J0D01*
G01*
X13405735Y-10022941D02*
G75*
G02*
X13480735Y-10022941I37500J0D01*
G01*
X13405735Y-10185441D02*
X13480735Y-10260441D01*
X13480735Y-10185441D02*
X13405735Y-10260441D01*
X13480735Y-10222941D02*
G75*
G02*
X13405735Y-10222941I-37500J0D01*
G01*
X13405735Y-10222941D02*
G75*
G02*
X13480735Y-10222941I37500J0D01*
G01*
X13407500Y-10692500D02*
X13482500Y-10767500D01*
X13482500Y-10692500D02*
X13407500Y-10767500D01*
X13482500Y-10730000D02*
G75*
G02*
X13407500Y-10730000I-37500J0D01*
G01*
X13407500Y-10730000D02*
G75*
G02*
X13482500Y-10730000I37500J0D01*
G01*
X13407500Y-10892500D02*
X13482500Y-10967500D01*
X13482500Y-10892500D02*
X13407500Y-10967500D01*
X13482500Y-10930000D02*
G75*
G02*
X13407500Y-10930000I-37500J0D01*
G01*
X13407500Y-10930000D02*
G75*
G02*
X13482500Y-10930000I37500J0D01*
G01*
D12*
X13290000Y-8290000D02*
X13610000Y-8610000D01*
X13610000Y-8290000D02*
X13290000Y-8610000D01*
X13450000Y-8290000D02*
X13450000Y-8610000D01*
X13290000Y-8450000D02*
X13610000Y-8450000D01*
X13290000Y-11390000D02*
X13610000Y-11710000D01*
X13610000Y-11390000D02*
X13290000Y-11710000D01*
X13450000Y-11390000D02*
X13450000Y-11710000D01*
X13290000Y-11550000D02*
X13610000Y-11550000D01*
X16390000Y-8290000D02*
X16710000Y-8610000D01*
X16710000Y-8290000D02*
X16390000Y-8610000D01*
X16550000Y-8290000D02*
X16550000Y-8610000D01*
X16390000Y-8450000D02*
X16710000Y-8450000D01*
X16390000Y-11390000D02*
X16710000Y-11710000D01*
X16710000Y-11390000D02*
X16390000Y-11710000D01*
X16550000Y-11390000D02*
X16550000Y-11710000D01*
X16390000Y-11550000D02*
X16710000Y-11550000D01*
D11*
X13155777Y-12416484D02*
X13155777Y-12216484D01*
X13155777Y-12216484D02*
X13203396Y-12216484D01*
X13203396Y-12216484D02*
X13231967Y-12226008D01*
X13231967Y-12226008D02*
X13251015Y-12245055D01*
X13251015Y-12245055D02*
X13260539Y-12264103D01*
X13260539Y-12264103D02*
X13270062Y-12302198D01*
X13270062Y-12302198D02*
X13270062Y-12330769D01*
X13270062Y-12330769D02*
X13260539Y-12368865D01*
X13260539Y-12368865D02*
X13251015Y-12387912D01*
X13251015Y-12387912D02*
X13231967Y-12406960D01*
X13231967Y-12406960D02*
X13203396Y-12416484D01*
X13203396Y-12416484D02*
X13155777Y-12416484D01*
X13355777Y-12416484D02*
X13355777Y-12283150D01*
X13355777Y-12321246D02*
X13365301Y-12302198D01*
X13365301Y-12302198D02*
X13374824Y-12292674D01*
X13374824Y-12292674D02*
X13393872Y-12283150D01*
X13393872Y-12283150D02*
X13412920Y-12283150D01*
X13479586Y-12416484D02*
X13479586Y-12283150D01*
X13479586Y-12216484D02*
X13470062Y-12226008D01*
X13470062Y-12226008D02*
X13479586Y-12235531D01*
X13479586Y-12235531D02*
X13489110Y-12226008D01*
X13489110Y-12226008D02*
X13479586Y-12216484D01*
X13479586Y-12216484D02*
X13479586Y-12235531D01*
X13603396Y-12416484D02*
X13584348Y-12406960D01*
X13584348Y-12406960D02*
X13574824Y-12387912D01*
X13574824Y-12387912D02*
X13574824Y-12216484D01*
X13708158Y-12416484D02*
X13689110Y-12406960D01*
X13689110Y-12406960D02*
X13679586Y-12387912D01*
X13679586Y-12387912D02*
X13679586Y-12216484D01*
X13936729Y-12416484D02*
X13936729Y-12216484D01*
X13936729Y-12216484D02*
X14003396Y-12359341D01*
X14003396Y-12359341D02*
X14070062Y-12216484D01*
X14070062Y-12216484D02*
X14070062Y-12416484D01*
X14251015Y-12416484D02*
X14251015Y-12311722D01*
X14251015Y-12311722D02*
X14241491Y-12292674D01*
X14241491Y-12292674D02*
X14222443Y-12283150D01*
X14222443Y-12283150D02*
X14184348Y-12283150D01*
X14184348Y-12283150D02*
X14165301Y-12292674D01*
X14251015Y-12406960D02*
X14231967Y-12416484D01*
X14231967Y-12416484D02*
X14184348Y-12416484D01*
X14184348Y-12416484D02*
X14165301Y-12406960D01*
X14165301Y-12406960D02*
X14155777Y-12387912D01*
X14155777Y-12387912D02*
X14155777Y-12368865D01*
X14155777Y-12368865D02*
X14165301Y-12349817D01*
X14165301Y-12349817D02*
X14184348Y-12340293D01*
X14184348Y-12340293D02*
X14231967Y-12340293D01*
X14231967Y-12340293D02*
X14251015Y-12330769D01*
X14346253Y-12283150D02*
X14346253Y-12483150D01*
X14346253Y-12292674D02*
X14365301Y-12283150D01*
X14365301Y-12283150D02*
X14403396Y-12283150D01*
X14403396Y-12283150D02*
X14422443Y-12292674D01*
X14422443Y-12292674D02*
X14431967Y-12302198D01*
X14431967Y-12302198D02*
X14441491Y-12321246D01*
X14441491Y-12321246D02*
X14441491Y-12378388D01*
X14441491Y-12378388D02*
X14431967Y-12397436D01*
X14431967Y-12397436D02*
X14422443Y-12406960D01*
X14422443Y-12406960D02*
X14403396Y-12416484D01*
X14403396Y-12416484D02*
X14365301Y-12416484D01*
X14365301Y-12416484D02*
X14346253Y-12406960D01*
X14527205Y-12397436D02*
X14536729Y-12406960D01*
X14536729Y-12406960D02*
X14527205Y-12416484D01*
X14527205Y-12416484D02*
X14517682Y-12406960D01*
X14517682Y-12406960D02*
X14527205Y-12397436D01*
X14527205Y-12397436D02*
X14527205Y-12416484D01*
X14527205Y-12292674D02*
X14536729Y-12302198D01*
X14536729Y-12302198D02*
X14527205Y-12311722D01*
X14527205Y-12311722D02*
X14517682Y-12302198D01*
X14517682Y-12302198D02*
X14527205Y-12292674D01*
X14527205Y-12292674D02*
X14527205Y-12311722D01*
D10*
X12880000Y-12737500D02*
X12895000Y-12752500D01*
X12895000Y-12737500D02*
X12880000Y-12752500D01*
D11*
X13193872Y-12636484D02*
X13212920Y-12636484D01*
X13212920Y-12636484D02*
X13231967Y-12646008D01*
X13231967Y-12646008D02*
X13241491Y-12655531D01*
X13241491Y-12655531D02*
X13251015Y-12674579D01*
X13251015Y-12674579D02*
X13260539Y-12712674D01*
X13260539Y-12712674D02*
X13260539Y-12760293D01*
X13260539Y-12760293D02*
X13251015Y-12798388D01*
X13251015Y-12798388D02*
X13241491Y-12817436D01*
X13241491Y-12817436D02*
X13231967Y-12826960D01*
X13231967Y-12826960D02*
X13212920Y-12836484D01*
X13212920Y-12836484D02*
X13193872Y-12836484D01*
X13193872Y-12836484D02*
X13174824Y-12826960D01*
X13174824Y-12826960D02*
X13165301Y-12817436D01*
X13165301Y-12817436D02*
X13155777Y-12798388D01*
X13155777Y-12798388D02*
X13146253Y-12760293D01*
X13146253Y-12760293D02*
X13146253Y-12712674D01*
X13146253Y-12712674D02*
X13155777Y-12674579D01*
X13155777Y-12674579D02*
X13165301Y-12655531D01*
X13165301Y-12655531D02*
X13174824Y-12646008D01*
X13174824Y-12646008D02*
X13193872Y-12636484D01*
X13346253Y-12817436D02*
X13355777Y-12826960D01*
X13355777Y-12826960D02*
X13346253Y-12836484D01*
X13346253Y-12836484D02*
X13336729Y-12826960D01*
X13336729Y-12826960D02*
X13346253Y-12817436D01*
X13346253Y-12817436D02*
X13346253Y-12836484D01*
X13546253Y-12836484D02*
X13431967Y-12836484D01*
X13489110Y-12836484D02*
X13489110Y-12636484D01*
X13489110Y-12636484D02*
X13470062Y-12665055D01*
X13470062Y-12665055D02*
X13451015Y-12684103D01*
X13451015Y-12684103D02*
X13431967Y-12693627D01*
X13727205Y-12636484D02*
X13631967Y-12636484D01*
X13631967Y-12636484D02*
X13622443Y-12731722D01*
X13622443Y-12731722D02*
X13631967Y-12722198D01*
X13631967Y-12722198D02*
X13651015Y-12712674D01*
X13651015Y-12712674D02*
X13698634Y-12712674D01*
X13698634Y-12712674D02*
X13717682Y-12722198D01*
X13717682Y-12722198D02*
X13727205Y-12731722D01*
X13727205Y-12731722D02*
X13736729Y-12750769D01*
X13736729Y-12750769D02*
X13736729Y-12798388D01*
X13736729Y-12798388D02*
X13727205Y-12817436D01*
X13727205Y-12817436D02*
X13717682Y-12826960D01*
X13717682Y-12826960D02*
X13698634Y-12836484D01*
X13698634Y-12836484D02*
X13651015Y-12836484D01*
X13651015Y-12836484D02*
X13631967Y-12826960D01*
X13631967Y-12826960D02*
X13622443Y-12817436D01*
X13860539Y-12636484D02*
X13879586Y-12636484D01*
X13879586Y-12636484D02*
X13898634Y-12646008D01*
X13898634Y-12646008D02*
X13908158Y-12655531D01*
X13908158Y-12655531D02*
X13917682Y-12674579D01*
X13917682Y-12674579D02*
X13927205Y-12712674D01*
X13927205Y-12712674D02*
X13927205Y-12760293D01*
X13927205Y-12760293D02*
X13917682Y-12798388D01*
X13917682Y-12798388D02*
X13908158Y-12817436D01*
X13908158Y-12817436D02*
X13898634Y-12826960D01*
X13898634Y-12826960D02*
X13879586Y-12836484D01*
X13879586Y-12836484D02*
X13860539Y-12836484D01*
X13860539Y-12836484D02*
X13841491Y-12826960D01*
X13841491Y-12826960D02*
X13831967Y-12817436D01*
X13831967Y-12817436D02*
X13822443Y-12798388D01*
X13822443Y-12798388D02*
X13812920Y-12760293D01*
X13812920Y-12760293D02*
X13812920Y-12712674D01*
X13812920Y-12712674D02*
X13822443Y-12674579D01*
X13822443Y-12674579D02*
X13831967Y-12655531D01*
X13831967Y-12655531D02*
X13841491Y-12646008D01*
X13841491Y-12646008D02*
X13860539Y-12636484D01*
X14012920Y-12836484D02*
X14012920Y-12703150D01*
X14012920Y-12722198D02*
X14022443Y-12712674D01*
X14022443Y-12712674D02*
X14041491Y-12703150D01*
X14041491Y-12703150D02*
X14070063Y-12703150D01*
X14070063Y-12703150D02*
X14089110Y-12712674D01*
X14089110Y-12712674D02*
X14098634Y-12731722D01*
X14098634Y-12731722D02*
X14098634Y-12836484D01*
X14098634Y-12731722D02*
X14108158Y-12712674D01*
X14108158Y-12712674D02*
X14127205Y-12703150D01*
X14127205Y-12703150D02*
X14155777Y-12703150D01*
X14155777Y-12703150D02*
X14174824Y-12712674D01*
X14174824Y-12712674D02*
X14184348Y-12731722D01*
X14184348Y-12731722D02*
X14184348Y-12836484D01*
X14279586Y-12836484D02*
X14279586Y-12703150D01*
X14279586Y-12722198D02*
X14289110Y-12712674D01*
X14289110Y-12712674D02*
X14308158Y-12703150D01*
X14308158Y-12703150D02*
X14336729Y-12703150D01*
X14336729Y-12703150D02*
X14355777Y-12712674D01*
X14355777Y-12712674D02*
X14365301Y-12731722D01*
X14365301Y-12731722D02*
X14365301Y-12836484D01*
X14365301Y-12731722D02*
X14374824Y-12712674D01*
X14374824Y-12712674D02*
X14393872Y-12703150D01*
X14393872Y-12703150D02*
X14422443Y-12703150D01*
X14422443Y-12703150D02*
X14441491Y-12712674D01*
X14441491Y-12712674D02*
X14451015Y-12731722D01*
X14451015Y-12731722D02*
X14451015Y-12836484D01*
X14841491Y-12626960D02*
X14670063Y-12884103D01*
X15098634Y-12636484D02*
X15117682Y-12636484D01*
X15117682Y-12636484D02*
X15136729Y-12646008D01*
X15136729Y-12646008D02*
X15146253Y-12655531D01*
X15146253Y-12655531D02*
X15155777Y-12674579D01*
X15155777Y-12674579D02*
X15165301Y-12712674D01*
X15165301Y-12712674D02*
X15165301Y-12760293D01*
X15165301Y-12760293D02*
X15155777Y-12798388D01*
X15155777Y-12798388D02*
X15146253Y-12817436D01*
X15146253Y-12817436D02*
X15136729Y-12826960D01*
X15136729Y-12826960D02*
X15117682Y-12836484D01*
X15117682Y-12836484D02*
X15098634Y-12836484D01*
X15098634Y-12836484D02*
X15079586Y-12826960D01*
X15079586Y-12826960D02*
X15070063Y-12817436D01*
X15070063Y-12817436D02*
X15060539Y-12798388D01*
X15060539Y-12798388D02*
X15051015Y-12760293D01*
X15051015Y-12760293D02*
X15051015Y-12712674D01*
X15051015Y-12712674D02*
X15060539Y-12674579D01*
X15060539Y-12674579D02*
X15070063Y-12655531D01*
X15070063Y-12655531D02*
X15079586Y-12646008D01*
X15079586Y-12646008D02*
X15098634Y-12636484D01*
X15251015Y-12817436D02*
X15260539Y-12826960D01*
X15260539Y-12826960D02*
X15251015Y-12836484D01*
X15251015Y-12836484D02*
X15241491Y-12826960D01*
X15241491Y-12826960D02*
X15251015Y-12817436D01*
X15251015Y-12817436D02*
X15251015Y-12836484D01*
X15384348Y-12636484D02*
X15403396Y-12636484D01*
X15403396Y-12636484D02*
X15422444Y-12646008D01*
X15422444Y-12646008D02*
X15431967Y-12655531D01*
X15431967Y-12655531D02*
X15441491Y-12674579D01*
X15441491Y-12674579D02*
X15451015Y-12712674D01*
X15451015Y-12712674D02*
X15451015Y-12760293D01*
X15451015Y-12760293D02*
X15441491Y-12798388D01*
X15441491Y-12798388D02*
X15431967Y-12817436D01*
X15431967Y-12817436D02*
X15422444Y-12826960D01*
X15422444Y-12826960D02*
X15403396Y-12836484D01*
X15403396Y-12836484D02*
X15384348Y-12836484D01*
X15384348Y-12836484D02*
X15365301Y-12826960D01*
X15365301Y-12826960D02*
X15355777Y-12817436D01*
X15355777Y-12817436D02*
X15346253Y-12798388D01*
X15346253Y-12798388D02*
X15336729Y-12760293D01*
X15336729Y-12760293D02*
X15336729Y-12712674D01*
X15336729Y-12712674D02*
X15346253Y-12674579D01*
X15346253Y-12674579D02*
X15355777Y-12655531D01*
X15355777Y-12655531D02*
X15365301Y-12646008D01*
X15365301Y-12646008D02*
X15384348Y-12636484D01*
X15574825Y-12636484D02*
X15593872Y-12636484D01*
X15593872Y-12636484D02*
X15612920Y-12646008D01*
X15612920Y-12646008D02*
X15622444Y-12655531D01*
X15622444Y-12655531D02*
X15631967Y-12674579D01*
X15631967Y-12674579D02*
X15641491Y-12712674D01*
X15641491Y-12712674D02*
X15641491Y-12760293D01*
X15641491Y-12760293D02*
X15631967Y-12798388D01*
X15631967Y-12798388D02*
X15622444Y-12817436D01*
X15622444Y-12817436D02*
X15612920Y-12826960D01*
X15612920Y-12826960D02*
X15593872Y-12836484D01*
X15593872Y-12836484D02*
X15574825Y-12836484D01*
X15574825Y-12836484D02*
X15555777Y-12826960D01*
X15555777Y-12826960D02*
X15546253Y-12817436D01*
X15546253Y-12817436D02*
X15536729Y-12798388D01*
X15536729Y-12798388D02*
X15527206Y-12760293D01*
X15527206Y-12760293D02*
X15527206Y-12712674D01*
X15527206Y-12712674D02*
X15536729Y-12674579D01*
X15536729Y-12674579D02*
X15546253Y-12655531D01*
X15546253Y-12655531D02*
X15555777Y-12646008D01*
X15555777Y-12646008D02*
X15574825Y-12636484D01*
X15822444Y-12636484D02*
X15727206Y-12636484D01*
X15727206Y-12636484D02*
X15717682Y-12731722D01*
X15717682Y-12731722D02*
X15727206Y-12722198D01*
X15727206Y-12722198D02*
X15746253Y-12712674D01*
X15746253Y-12712674D02*
X15793872Y-12712674D01*
X15793872Y-12712674D02*
X15812920Y-12722198D01*
X15812920Y-12722198D02*
X15822444Y-12731722D01*
X15822444Y-12731722D02*
X15831967Y-12750769D01*
X15831967Y-12750769D02*
X15831967Y-12798388D01*
X15831967Y-12798388D02*
X15822444Y-12817436D01*
X15822444Y-12817436D02*
X15812920Y-12826960D01*
X15812920Y-12826960D02*
X15793872Y-12836484D01*
X15793872Y-12836484D02*
X15746253Y-12836484D01*
X15746253Y-12836484D02*
X15727206Y-12826960D01*
X15727206Y-12826960D02*
X15717682Y-12817436D01*
X15927206Y-12836484D02*
X15965301Y-12836484D01*
X15965301Y-12836484D02*
X15984348Y-12826960D01*
X15984348Y-12826960D02*
X15993872Y-12817436D01*
X15993872Y-12817436D02*
X16012920Y-12788865D01*
X16012920Y-12788865D02*
X16022444Y-12750769D01*
X16022444Y-12750769D02*
X16022444Y-12674579D01*
X16022444Y-12674579D02*
X16012920Y-12655531D01*
X16012920Y-12655531D02*
X16003396Y-12646008D01*
X16003396Y-12646008D02*
X15984348Y-12636484D01*
X15984348Y-12636484D02*
X15946253Y-12636484D01*
X15946253Y-12636484D02*
X15927206Y-12646008D01*
X15927206Y-12646008D02*
X15917682Y-12655531D01*
X15917682Y-12655531D02*
X15908158Y-12674579D01*
X15908158Y-12674579D02*
X15908158Y-12722198D01*
X15908158Y-12722198D02*
X15917682Y-12741246D01*
X15917682Y-12741246D02*
X15927206Y-12750769D01*
X15927206Y-12750769D02*
X15946253Y-12760293D01*
X15946253Y-12760293D02*
X15984348Y-12760293D01*
X15984348Y-12760293D02*
X16003396Y-12750769D01*
X16003396Y-12750769D02*
X16012920Y-12741246D01*
X16012920Y-12741246D02*
X16022444Y-12722198D01*
X16098634Y-12636484D02*
X16098634Y-12674579D01*
X16174825Y-12636484D02*
X16174825Y-12674579D01*
X16470063Y-12912674D02*
X16460539Y-12903150D01*
X16460539Y-12903150D02*
X16441491Y-12874579D01*
X16441491Y-12874579D02*
X16431968Y-12855531D01*
X16431968Y-12855531D02*
X16422444Y-12826960D01*
X16422444Y-12826960D02*
X16412920Y-12779341D01*
X16412920Y-12779341D02*
X16412920Y-12741246D01*
X16412920Y-12741246D02*
X16422444Y-12693627D01*
X16422444Y-12693627D02*
X16431968Y-12665055D01*
X16431968Y-12665055D02*
X16441491Y-12646008D01*
X16441491Y-12646008D02*
X16460539Y-12617436D01*
X16460539Y-12617436D02*
X16470063Y-12607912D01*
X16574825Y-12722198D02*
X16555777Y-12712674D01*
X16555777Y-12712674D02*
X16546253Y-12703150D01*
X16546253Y-12703150D02*
X16536729Y-12684103D01*
X16536729Y-12684103D02*
X16536729Y-12674579D01*
X16536729Y-12674579D02*
X16546253Y-12655531D01*
X16546253Y-12655531D02*
X16555777Y-12646008D01*
X16555777Y-12646008D02*
X16574825Y-12636484D01*
X16574825Y-12636484D02*
X16612920Y-12636484D01*
X16612920Y-12636484D02*
X16631968Y-12646008D01*
X16631968Y-12646008D02*
X16641491Y-12655531D01*
X16641491Y-12655531D02*
X16651015Y-12674579D01*
X16651015Y-12674579D02*
X16651015Y-12684103D01*
X16651015Y-12684103D02*
X16641491Y-12703150D01*
X16641491Y-12703150D02*
X16631968Y-12712674D01*
X16631968Y-12712674D02*
X16612920Y-12722198D01*
X16612920Y-12722198D02*
X16574825Y-12722198D01*
X16574825Y-12722198D02*
X16555777Y-12731722D01*
X16555777Y-12731722D02*
X16546253Y-12741246D01*
X16546253Y-12741246D02*
X16536729Y-12760293D01*
X16536729Y-12760293D02*
X16536729Y-12798388D01*
X16536729Y-12798388D02*
X16546253Y-12817436D01*
X16546253Y-12817436D02*
X16555777Y-12826960D01*
X16555777Y-12826960D02*
X16574825Y-12836484D01*
X16574825Y-12836484D02*
X16612920Y-12836484D01*
X16612920Y-12836484D02*
X16631968Y-12826960D01*
X16631968Y-12826960D02*
X16641491Y-12817436D01*
X16641491Y-12817436D02*
X16651015Y-12798388D01*
X16651015Y-12798388D02*
X16651015Y-12760293D01*
X16651015Y-12760293D02*
X16641491Y-12741246D01*
X16641491Y-12741246D02*
X16631968Y-12731722D01*
X16631968Y-12731722D02*
X16612920Y-12722198D01*
X16889111Y-12836484D02*
X16889111Y-12636484D01*
X16974825Y-12836484D02*
X16974825Y-12731722D01*
X16974825Y-12731722D02*
X16965301Y-12712674D01*
X16965301Y-12712674D02*
X16946253Y-12703150D01*
X16946253Y-12703150D02*
X16917682Y-12703150D01*
X16917682Y-12703150D02*
X16898634Y-12712674D01*
X16898634Y-12712674D02*
X16889111Y-12722198D01*
X17098634Y-12836484D02*
X17079587Y-12826960D01*
X17079587Y-12826960D02*
X17070063Y-12817436D01*
X17070063Y-12817436D02*
X17060539Y-12798388D01*
X17060539Y-12798388D02*
X17060539Y-12741246D01*
X17060539Y-12741246D02*
X17070063Y-12722198D01*
X17070063Y-12722198D02*
X17079587Y-12712674D01*
X17079587Y-12712674D02*
X17098634Y-12703150D01*
X17098634Y-12703150D02*
X17127206Y-12703150D01*
X17127206Y-12703150D02*
X17146253Y-12712674D01*
X17146253Y-12712674D02*
X17155777Y-12722198D01*
X17155777Y-12722198D02*
X17165301Y-12741246D01*
X17165301Y-12741246D02*
X17165301Y-12798388D01*
X17165301Y-12798388D02*
X17155777Y-12817436D01*
X17155777Y-12817436D02*
X17146253Y-12826960D01*
X17146253Y-12826960D02*
X17127206Y-12836484D01*
X17127206Y-12836484D02*
X17098634Y-12836484D01*
X17279587Y-12836484D02*
X17260539Y-12826960D01*
X17260539Y-12826960D02*
X17251015Y-12807912D01*
X17251015Y-12807912D02*
X17251015Y-12636484D01*
X17431968Y-12826960D02*
X17412920Y-12836484D01*
X17412920Y-12836484D02*
X17374825Y-12836484D01*
X17374825Y-12836484D02*
X17355777Y-12826960D01*
X17355777Y-12826960D02*
X17346253Y-12807912D01*
X17346253Y-12807912D02*
X17346253Y-12731722D01*
X17346253Y-12731722D02*
X17355777Y-12712674D01*
X17355777Y-12712674D02*
X17374825Y-12703150D01*
X17374825Y-12703150D02*
X17412920Y-12703150D01*
X17412920Y-12703150D02*
X17431968Y-12712674D01*
X17431968Y-12712674D02*
X17441492Y-12731722D01*
X17441492Y-12731722D02*
X17441492Y-12750769D01*
X17441492Y-12750769D02*
X17346253Y-12769817D01*
X17517682Y-12826960D02*
X17536730Y-12836484D01*
X17536730Y-12836484D02*
X17574825Y-12836484D01*
X17574825Y-12836484D02*
X17593873Y-12826960D01*
X17593873Y-12826960D02*
X17603396Y-12807912D01*
X17603396Y-12807912D02*
X17603396Y-12798388D01*
X17603396Y-12798388D02*
X17593873Y-12779341D01*
X17593873Y-12779341D02*
X17574825Y-12769817D01*
X17574825Y-12769817D02*
X17546253Y-12769817D01*
X17546253Y-12769817D02*
X17527206Y-12760293D01*
X17527206Y-12760293D02*
X17517682Y-12741246D01*
X17517682Y-12741246D02*
X17517682Y-12731722D01*
X17517682Y-12731722D02*
X17527206Y-12712674D01*
X17527206Y-12712674D02*
X17546253Y-12703150D01*
X17546253Y-12703150D02*
X17574825Y-12703150D01*
X17574825Y-12703150D02*
X17593873Y-12712674D01*
X17670063Y-12912674D02*
X17679587Y-12903150D01*
X17679587Y-12903150D02*
X17698634Y-12874579D01*
X17698634Y-12874579D02*
X17708158Y-12855531D01*
X17708158Y-12855531D02*
X17717682Y-12826960D01*
X17717682Y-12826960D02*
X17727206Y-12779341D01*
X17727206Y-12779341D02*
X17727206Y-12741246D01*
X17727206Y-12741246D02*
X17717682Y-12693627D01*
X17717682Y-12693627D02*
X17708158Y-12665055D01*
X17708158Y-12665055D02*
X17698634Y-12646008D01*
X17698634Y-12646008D02*
X17679587Y-12617436D01*
X17679587Y-12617436D02*
X17670063Y-12607912D01*
D10*
X12895000Y-13009000D02*
G75*
G02*
X12875000Y-13009000I-10000J0D01*
G01*
X12875000Y-13009000D02*
G75*
G02*
X12895000Y-13009000I10000J0D01*
G01*
D11*
X13193872Y-12900484D02*
X13212920Y-12900484D01*
X13212920Y-12900484D02*
X13231967Y-12910008D01*
X13231967Y-12910008D02*
X13241491Y-12919531D01*
X13241491Y-12919531D02*
X13251015Y-12938579D01*
X13251015Y-12938579D02*
X13260539Y-12976674D01*
X13260539Y-12976674D02*
X13260539Y-13024293D01*
X13260539Y-13024293D02*
X13251015Y-13062388D01*
X13251015Y-13062388D02*
X13241491Y-13081436D01*
X13241491Y-13081436D02*
X13231967Y-13090960D01*
X13231967Y-13090960D02*
X13212920Y-13100484D01*
X13212920Y-13100484D02*
X13193872Y-13100484D01*
X13193872Y-13100484D02*
X13174824Y-13090960D01*
X13174824Y-13090960D02*
X13165301Y-13081436D01*
X13165301Y-13081436D02*
X13155777Y-13062388D01*
X13155777Y-13062388D02*
X13146253Y-13024293D01*
X13146253Y-13024293D02*
X13146253Y-12976674D01*
X13146253Y-12976674D02*
X13155777Y-12938579D01*
X13155777Y-12938579D02*
X13165301Y-12919531D01*
X13165301Y-12919531D02*
X13174824Y-12910008D01*
X13174824Y-12910008D02*
X13193872Y-12900484D01*
X13346253Y-13081436D02*
X13355777Y-13090960D01*
X13355777Y-13090960D02*
X13346253Y-13100484D01*
X13346253Y-13100484D02*
X13336729Y-13090960D01*
X13336729Y-13090960D02*
X13346253Y-13081436D01*
X13346253Y-13081436D02*
X13346253Y-13100484D01*
X13431967Y-12919531D02*
X13441491Y-12910008D01*
X13441491Y-12910008D02*
X13460539Y-12900484D01*
X13460539Y-12900484D02*
X13508158Y-12900484D01*
X13508158Y-12900484D02*
X13527205Y-12910008D01*
X13527205Y-12910008D02*
X13536729Y-12919531D01*
X13536729Y-12919531D02*
X13546253Y-12938579D01*
X13546253Y-12938579D02*
X13546253Y-12957627D01*
X13546253Y-12957627D02*
X13536729Y-12986198D01*
X13536729Y-12986198D02*
X13422443Y-13100484D01*
X13422443Y-13100484D02*
X13546253Y-13100484D01*
X13670062Y-12900484D02*
X13689110Y-12900484D01*
X13689110Y-12900484D02*
X13708158Y-12910008D01*
X13708158Y-12910008D02*
X13717682Y-12919531D01*
X13717682Y-12919531D02*
X13727205Y-12938579D01*
X13727205Y-12938579D02*
X13736729Y-12976674D01*
X13736729Y-12976674D02*
X13736729Y-13024293D01*
X13736729Y-13024293D02*
X13727205Y-13062388D01*
X13727205Y-13062388D02*
X13717682Y-13081436D01*
X13717682Y-13081436D02*
X13708158Y-13090960D01*
X13708158Y-13090960D02*
X13689110Y-13100484D01*
X13689110Y-13100484D02*
X13670062Y-13100484D01*
X13670062Y-13100484D02*
X13651015Y-13090960D01*
X13651015Y-13090960D02*
X13641491Y-13081436D01*
X13641491Y-13081436D02*
X13631967Y-13062388D01*
X13631967Y-13062388D02*
X13622443Y-13024293D01*
X13622443Y-13024293D02*
X13622443Y-12976674D01*
X13622443Y-12976674D02*
X13631967Y-12938579D01*
X13631967Y-12938579D02*
X13641491Y-12919531D01*
X13641491Y-12919531D02*
X13651015Y-12910008D01*
X13651015Y-12910008D02*
X13670062Y-12900484D01*
X13860539Y-12900484D02*
X13879586Y-12900484D01*
X13879586Y-12900484D02*
X13898634Y-12910008D01*
X13898634Y-12910008D02*
X13908158Y-12919531D01*
X13908158Y-12919531D02*
X13917682Y-12938579D01*
X13917682Y-12938579D02*
X13927205Y-12976674D01*
X13927205Y-12976674D02*
X13927205Y-13024293D01*
X13927205Y-13024293D02*
X13917682Y-13062388D01*
X13917682Y-13062388D02*
X13908158Y-13081436D01*
X13908158Y-13081436D02*
X13898634Y-13090960D01*
X13898634Y-13090960D02*
X13879586Y-13100484D01*
X13879586Y-13100484D02*
X13860539Y-13100484D01*
X13860539Y-13100484D02*
X13841491Y-13090960D01*
X13841491Y-13090960D02*
X13831967Y-13081436D01*
X13831967Y-13081436D02*
X13822443Y-13062388D01*
X13822443Y-13062388D02*
X13812920Y-13024293D01*
X13812920Y-13024293D02*
X13812920Y-12976674D01*
X13812920Y-12976674D02*
X13822443Y-12938579D01*
X13822443Y-12938579D02*
X13831967Y-12919531D01*
X13831967Y-12919531D02*
X13841491Y-12910008D01*
X13841491Y-12910008D02*
X13860539Y-12900484D01*
X14012920Y-13100484D02*
X14012920Y-12967150D01*
X14012920Y-12986198D02*
X14022443Y-12976674D01*
X14022443Y-12976674D02*
X14041491Y-12967150D01*
X14041491Y-12967150D02*
X14070063Y-12967150D01*
X14070063Y-12967150D02*
X14089110Y-12976674D01*
X14089110Y-12976674D02*
X14098634Y-12995722D01*
X14098634Y-12995722D02*
X14098634Y-13100484D01*
X14098634Y-12995722D02*
X14108158Y-12976674D01*
X14108158Y-12976674D02*
X14127205Y-12967150D01*
X14127205Y-12967150D02*
X14155777Y-12967150D01*
X14155777Y-12967150D02*
X14174824Y-12976674D01*
X14174824Y-12976674D02*
X14184348Y-12995722D01*
X14184348Y-12995722D02*
X14184348Y-13100484D01*
X14279586Y-13100484D02*
X14279586Y-12967150D01*
X14279586Y-12986198D02*
X14289110Y-12976674D01*
X14289110Y-12976674D02*
X14308158Y-12967150D01*
X14308158Y-12967150D02*
X14336729Y-12967150D01*
X14336729Y-12967150D02*
X14355777Y-12976674D01*
X14355777Y-12976674D02*
X14365301Y-12995722D01*
X14365301Y-12995722D02*
X14365301Y-13100484D01*
X14365301Y-12995722D02*
X14374824Y-12976674D01*
X14374824Y-12976674D02*
X14393872Y-12967150D01*
X14393872Y-12967150D02*
X14422443Y-12967150D01*
X14422443Y-12967150D02*
X14441491Y-12976674D01*
X14441491Y-12976674D02*
X14451015Y-12995722D01*
X14451015Y-12995722D02*
X14451015Y-13100484D01*
X14841491Y-12890960D02*
X14670063Y-13148103D01*
X15098634Y-12900484D02*
X15117682Y-12900484D01*
X15117682Y-12900484D02*
X15136729Y-12910008D01*
X15136729Y-12910008D02*
X15146253Y-12919531D01*
X15146253Y-12919531D02*
X15155777Y-12938579D01*
X15155777Y-12938579D02*
X15165301Y-12976674D01*
X15165301Y-12976674D02*
X15165301Y-13024293D01*
X15165301Y-13024293D02*
X15155777Y-13062388D01*
X15155777Y-13062388D02*
X15146253Y-13081436D01*
X15146253Y-13081436D02*
X15136729Y-13090960D01*
X15136729Y-13090960D02*
X15117682Y-13100484D01*
X15117682Y-13100484D02*
X15098634Y-13100484D01*
X15098634Y-13100484D02*
X15079586Y-13090960D01*
X15079586Y-13090960D02*
X15070063Y-13081436D01*
X15070063Y-13081436D02*
X15060539Y-13062388D01*
X15060539Y-13062388D02*
X15051015Y-13024293D01*
X15051015Y-13024293D02*
X15051015Y-12976674D01*
X15051015Y-12976674D02*
X15060539Y-12938579D01*
X15060539Y-12938579D02*
X15070063Y-12919531D01*
X15070063Y-12919531D02*
X15079586Y-12910008D01*
X15079586Y-12910008D02*
X15098634Y-12900484D01*
X15251015Y-13081436D02*
X15260539Y-13090960D01*
X15260539Y-13090960D02*
X15251015Y-13100484D01*
X15251015Y-13100484D02*
X15241491Y-13090960D01*
X15241491Y-13090960D02*
X15251015Y-13081436D01*
X15251015Y-13081436D02*
X15251015Y-13100484D01*
X15384348Y-12900484D02*
X15403396Y-12900484D01*
X15403396Y-12900484D02*
X15422444Y-12910008D01*
X15422444Y-12910008D02*
X15431967Y-12919531D01*
X15431967Y-12919531D02*
X15441491Y-12938579D01*
X15441491Y-12938579D02*
X15451015Y-12976674D01*
X15451015Y-12976674D02*
X15451015Y-13024293D01*
X15451015Y-13024293D02*
X15441491Y-13062388D01*
X15441491Y-13062388D02*
X15431967Y-13081436D01*
X15431967Y-13081436D02*
X15422444Y-13090960D01*
X15422444Y-13090960D02*
X15403396Y-13100484D01*
X15403396Y-13100484D02*
X15384348Y-13100484D01*
X15384348Y-13100484D02*
X15365301Y-13090960D01*
X15365301Y-13090960D02*
X15355777Y-13081436D01*
X15355777Y-13081436D02*
X15346253Y-13062388D01*
X15346253Y-13062388D02*
X15336729Y-13024293D01*
X15336729Y-13024293D02*
X15336729Y-12976674D01*
X15336729Y-12976674D02*
X15346253Y-12938579D01*
X15346253Y-12938579D02*
X15355777Y-12919531D01*
X15355777Y-12919531D02*
X15365301Y-12910008D01*
X15365301Y-12910008D02*
X15384348Y-12900484D01*
X15574825Y-12900484D02*
X15593872Y-12900484D01*
X15593872Y-12900484D02*
X15612920Y-12910008D01*
X15612920Y-12910008D02*
X15622444Y-12919531D01*
X15622444Y-12919531D02*
X15631967Y-12938579D01*
X15631967Y-12938579D02*
X15641491Y-12976674D01*
X15641491Y-12976674D02*
X15641491Y-13024293D01*
X15641491Y-13024293D02*
X15631967Y-13062388D01*
X15631967Y-13062388D02*
X15622444Y-13081436D01*
X15622444Y-13081436D02*
X15612920Y-13090960D01*
X15612920Y-13090960D02*
X15593872Y-13100484D01*
X15593872Y-13100484D02*
X15574825Y-13100484D01*
X15574825Y-13100484D02*
X15555777Y-13090960D01*
X15555777Y-13090960D02*
X15546253Y-13081436D01*
X15546253Y-13081436D02*
X15536729Y-13062388D01*
X15536729Y-13062388D02*
X15527206Y-13024293D01*
X15527206Y-13024293D02*
X15527206Y-12976674D01*
X15527206Y-12976674D02*
X15536729Y-12938579D01*
X15536729Y-12938579D02*
X15546253Y-12919531D01*
X15546253Y-12919531D02*
X15555777Y-12910008D01*
X15555777Y-12910008D02*
X15574825Y-12900484D01*
X15708158Y-12900484D02*
X15841491Y-12900484D01*
X15841491Y-12900484D02*
X15755777Y-13100484D01*
X15927206Y-13100484D02*
X15965301Y-13100484D01*
X15965301Y-13100484D02*
X15984348Y-13090960D01*
X15984348Y-13090960D02*
X15993872Y-13081436D01*
X15993872Y-13081436D02*
X16012920Y-13052865D01*
X16012920Y-13052865D02*
X16022444Y-13014769D01*
X16022444Y-13014769D02*
X16022444Y-12938579D01*
X16022444Y-12938579D02*
X16012920Y-12919531D01*
X16012920Y-12919531D02*
X16003396Y-12910008D01*
X16003396Y-12910008D02*
X15984348Y-12900484D01*
X15984348Y-12900484D02*
X15946253Y-12900484D01*
X15946253Y-12900484D02*
X15927206Y-12910008D01*
X15927206Y-12910008D02*
X15917682Y-12919531D01*
X15917682Y-12919531D02*
X15908158Y-12938579D01*
X15908158Y-12938579D02*
X15908158Y-12986198D01*
X15908158Y-12986198D02*
X15917682Y-13005246D01*
X15917682Y-13005246D02*
X15927206Y-13014769D01*
X15927206Y-13014769D02*
X15946253Y-13024293D01*
X15946253Y-13024293D02*
X15984348Y-13024293D01*
X15984348Y-13024293D02*
X16003396Y-13014769D01*
X16003396Y-13014769D02*
X16012920Y-13005246D01*
X16012920Y-13005246D02*
X16022444Y-12986198D01*
X16098634Y-12900484D02*
X16098634Y-12938579D01*
X16174825Y-12900484D02*
X16174825Y-12938579D01*
X16470063Y-13176674D02*
X16460539Y-13167150D01*
X16460539Y-13167150D02*
X16441491Y-13138579D01*
X16441491Y-13138579D02*
X16431968Y-13119531D01*
X16431968Y-13119531D02*
X16422444Y-13090960D01*
X16422444Y-13090960D02*
X16412920Y-13043341D01*
X16412920Y-13043341D02*
X16412920Y-13005246D01*
X16412920Y-13005246D02*
X16422444Y-12957627D01*
X16422444Y-12957627D02*
X16431968Y-12929055D01*
X16431968Y-12929055D02*
X16441491Y-12910008D01*
X16441491Y-12910008D02*
X16460539Y-12881436D01*
X16460539Y-12881436D02*
X16470063Y-12871912D01*
X16555777Y-13100484D02*
X16593872Y-13100484D01*
X16593872Y-13100484D02*
X16612920Y-13090960D01*
X16612920Y-13090960D02*
X16622444Y-13081436D01*
X16622444Y-13081436D02*
X16641491Y-13052865D01*
X16641491Y-13052865D02*
X16651015Y-13014769D01*
X16651015Y-13014769D02*
X16651015Y-12938579D01*
X16651015Y-12938579D02*
X16641491Y-12919531D01*
X16641491Y-12919531D02*
X16631968Y-12910008D01*
X16631968Y-12910008D02*
X16612920Y-12900484D01*
X16612920Y-12900484D02*
X16574825Y-12900484D01*
X16574825Y-12900484D02*
X16555777Y-12910008D01*
X16555777Y-12910008D02*
X16546253Y-12919531D01*
X16546253Y-12919531D02*
X16536729Y-12938579D01*
X16536729Y-12938579D02*
X16536729Y-12986198D01*
X16536729Y-12986198D02*
X16546253Y-13005246D01*
X16546253Y-13005246D02*
X16555777Y-13014769D01*
X16555777Y-13014769D02*
X16574825Y-13024293D01*
X16574825Y-13024293D02*
X16612920Y-13024293D01*
X16612920Y-13024293D02*
X16631968Y-13014769D01*
X16631968Y-13014769D02*
X16641491Y-13005246D01*
X16641491Y-13005246D02*
X16651015Y-12986198D01*
X16889111Y-13100484D02*
X16889111Y-12900484D01*
X16974825Y-13100484D02*
X16974825Y-12995722D01*
X16974825Y-12995722D02*
X16965301Y-12976674D01*
X16965301Y-12976674D02*
X16946253Y-12967150D01*
X16946253Y-12967150D02*
X16917682Y-12967150D01*
X16917682Y-12967150D02*
X16898634Y-12976674D01*
X16898634Y-12976674D02*
X16889111Y-12986198D01*
X17098634Y-13100484D02*
X17079587Y-13090960D01*
X17079587Y-13090960D02*
X17070063Y-13081436D01*
X17070063Y-13081436D02*
X17060539Y-13062388D01*
X17060539Y-13062388D02*
X17060539Y-13005246D01*
X17060539Y-13005246D02*
X17070063Y-12986198D01*
X17070063Y-12986198D02*
X17079587Y-12976674D01*
X17079587Y-12976674D02*
X17098634Y-12967150D01*
X17098634Y-12967150D02*
X17127206Y-12967150D01*
X17127206Y-12967150D02*
X17146253Y-12976674D01*
X17146253Y-12976674D02*
X17155777Y-12986198D01*
X17155777Y-12986198D02*
X17165301Y-13005246D01*
X17165301Y-13005246D02*
X17165301Y-13062388D01*
X17165301Y-13062388D02*
X17155777Y-13081436D01*
X17155777Y-13081436D02*
X17146253Y-13090960D01*
X17146253Y-13090960D02*
X17127206Y-13100484D01*
X17127206Y-13100484D02*
X17098634Y-13100484D01*
X17279587Y-13100484D02*
X17260539Y-13090960D01*
X17260539Y-13090960D02*
X17251015Y-13071912D01*
X17251015Y-13071912D02*
X17251015Y-12900484D01*
X17431968Y-13090960D02*
X17412920Y-13100484D01*
X17412920Y-13100484D02*
X17374825Y-13100484D01*
X17374825Y-13100484D02*
X17355777Y-13090960D01*
X17355777Y-13090960D02*
X17346253Y-13071912D01*
X17346253Y-13071912D02*
X17346253Y-12995722D01*
X17346253Y-12995722D02*
X17355777Y-12976674D01*
X17355777Y-12976674D02*
X17374825Y-12967150D01*
X17374825Y-12967150D02*
X17412920Y-12967150D01*
X17412920Y-12967150D02*
X17431968Y-12976674D01*
X17431968Y-12976674D02*
X17441492Y-12995722D01*
X17441492Y-12995722D02*
X17441492Y-13014769D01*
X17441492Y-13014769D02*
X17346253Y-13033817D01*
X17517682Y-13090960D02*
X17536730Y-13100484D01*
X17536730Y-13100484D02*
X17574825Y-13100484D01*
X17574825Y-13100484D02*
X17593873Y-13090960D01*
X17593873Y-13090960D02*
X17603396Y-13071912D01*
X17603396Y-13071912D02*
X17603396Y-13062388D01*
X17603396Y-13062388D02*
X17593873Y-13043341D01*
X17593873Y-13043341D02*
X17574825Y-13033817D01*
X17574825Y-13033817D02*
X17546253Y-13033817D01*
X17546253Y-13033817D02*
X17527206Y-13024293D01*
X17527206Y-13024293D02*
X17517682Y-13005246D01*
X17517682Y-13005246D02*
X17517682Y-12995722D01*
X17517682Y-12995722D02*
X17527206Y-12976674D01*
X17527206Y-12976674D02*
X17546253Y-12967150D01*
X17546253Y-12967150D02*
X17574825Y-12967150D01*
X17574825Y-12967150D02*
X17593873Y-12976674D01*
X17670063Y-13176674D02*
X17679587Y-13167150D01*
X17679587Y-13167150D02*
X17698634Y-13138579D01*
X17698634Y-13138579D02*
X17708158Y-13119531D01*
X17708158Y-13119531D02*
X17717682Y-13090960D01*
X17717682Y-13090960D02*
X17727206Y-13043341D01*
X17727206Y-13043341D02*
X17727206Y-13005246D01*
X17727206Y-13005246D02*
X17717682Y-12957627D01*
X17717682Y-12957627D02*
X17708158Y-12929055D01*
X17708158Y-12929055D02*
X17698634Y-12910008D01*
X17698634Y-12910008D02*
X17679587Y-12881436D01*
X17679587Y-12881436D02*
X17670063Y-12871912D01*
D10*
X12877500Y-13255500D02*
X12877500Y-13290500D01*
X12860000Y-13273000D02*
X12895000Y-13273000D01*
D11*
X13193872Y-13164484D02*
X13212920Y-13164484D01*
X13212920Y-13164484D02*
X13231967Y-13174008D01*
X13231967Y-13174008D02*
X13241491Y-13183531D01*
X13241491Y-13183531D02*
X13251015Y-13202579D01*
X13251015Y-13202579D02*
X13260539Y-13240674D01*
X13260539Y-13240674D02*
X13260539Y-13288293D01*
X13260539Y-13288293D02*
X13251015Y-13326388D01*
X13251015Y-13326388D02*
X13241491Y-13345436D01*
X13241491Y-13345436D02*
X13231967Y-13354960D01*
X13231967Y-13354960D02*
X13212920Y-13364484D01*
X13212920Y-13364484D02*
X13193872Y-13364484D01*
X13193872Y-13364484D02*
X13174824Y-13354960D01*
X13174824Y-13354960D02*
X13165301Y-13345436D01*
X13165301Y-13345436D02*
X13155777Y-13326388D01*
X13155777Y-13326388D02*
X13146253Y-13288293D01*
X13146253Y-13288293D02*
X13146253Y-13240674D01*
X13146253Y-13240674D02*
X13155777Y-13202579D01*
X13155777Y-13202579D02*
X13165301Y-13183531D01*
X13165301Y-13183531D02*
X13174824Y-13174008D01*
X13174824Y-13174008D02*
X13193872Y-13164484D01*
X13346253Y-13345436D02*
X13355777Y-13354960D01*
X13355777Y-13354960D02*
X13346253Y-13364484D01*
X13346253Y-13364484D02*
X13336729Y-13354960D01*
X13336729Y-13354960D02*
X13346253Y-13345436D01*
X13346253Y-13345436D02*
X13346253Y-13364484D01*
X13422443Y-13164484D02*
X13546253Y-13164484D01*
X13546253Y-13164484D02*
X13479586Y-13240674D01*
X13479586Y-13240674D02*
X13508158Y-13240674D01*
X13508158Y-13240674D02*
X13527205Y-13250198D01*
X13527205Y-13250198D02*
X13536729Y-13259722D01*
X13536729Y-13259722D02*
X13546253Y-13278769D01*
X13546253Y-13278769D02*
X13546253Y-13326388D01*
X13546253Y-13326388D02*
X13536729Y-13345436D01*
X13536729Y-13345436D02*
X13527205Y-13354960D01*
X13527205Y-13354960D02*
X13508158Y-13364484D01*
X13508158Y-13364484D02*
X13451015Y-13364484D01*
X13451015Y-13364484D02*
X13431967Y-13354960D01*
X13431967Y-13354960D02*
X13422443Y-13345436D01*
X13727205Y-13164484D02*
X13631967Y-13164484D01*
X13631967Y-13164484D02*
X13622443Y-13259722D01*
X13622443Y-13259722D02*
X13631967Y-13250198D01*
X13631967Y-13250198D02*
X13651015Y-13240674D01*
X13651015Y-13240674D02*
X13698634Y-13240674D01*
X13698634Y-13240674D02*
X13717682Y-13250198D01*
X13717682Y-13250198D02*
X13727205Y-13259722D01*
X13727205Y-13259722D02*
X13736729Y-13278769D01*
X13736729Y-13278769D02*
X13736729Y-13326388D01*
X13736729Y-13326388D02*
X13727205Y-13345436D01*
X13727205Y-13345436D02*
X13717682Y-13354960D01*
X13717682Y-13354960D02*
X13698634Y-13364484D01*
X13698634Y-13364484D02*
X13651015Y-13364484D01*
X13651015Y-13364484D02*
X13631967Y-13354960D01*
X13631967Y-13354960D02*
X13622443Y-13345436D01*
X13860539Y-13164484D02*
X13879586Y-13164484D01*
X13879586Y-13164484D02*
X13898634Y-13174008D01*
X13898634Y-13174008D02*
X13908158Y-13183531D01*
X13908158Y-13183531D02*
X13917682Y-13202579D01*
X13917682Y-13202579D02*
X13927205Y-13240674D01*
X13927205Y-13240674D02*
X13927205Y-13288293D01*
X13927205Y-13288293D02*
X13917682Y-13326388D01*
X13917682Y-13326388D02*
X13908158Y-13345436D01*
X13908158Y-13345436D02*
X13898634Y-13354960D01*
X13898634Y-13354960D02*
X13879586Y-13364484D01*
X13879586Y-13364484D02*
X13860539Y-13364484D01*
X13860539Y-13364484D02*
X13841491Y-13354960D01*
X13841491Y-13354960D02*
X13831967Y-13345436D01*
X13831967Y-13345436D02*
X13822443Y-13326388D01*
X13822443Y-13326388D02*
X13812920Y-13288293D01*
X13812920Y-13288293D02*
X13812920Y-13240674D01*
X13812920Y-13240674D02*
X13822443Y-13202579D01*
X13822443Y-13202579D02*
X13831967Y-13183531D01*
X13831967Y-13183531D02*
X13841491Y-13174008D01*
X13841491Y-13174008D02*
X13860539Y-13164484D01*
X14012920Y-13364484D02*
X14012920Y-13231150D01*
X14012920Y-13250198D02*
X14022443Y-13240674D01*
X14022443Y-13240674D02*
X14041491Y-13231150D01*
X14041491Y-13231150D02*
X14070063Y-13231150D01*
X14070063Y-13231150D02*
X14089110Y-13240674D01*
X14089110Y-13240674D02*
X14098634Y-13259722D01*
X14098634Y-13259722D02*
X14098634Y-13364484D01*
X14098634Y-13259722D02*
X14108158Y-13240674D01*
X14108158Y-13240674D02*
X14127205Y-13231150D01*
X14127205Y-13231150D02*
X14155777Y-13231150D01*
X14155777Y-13231150D02*
X14174824Y-13240674D01*
X14174824Y-13240674D02*
X14184348Y-13259722D01*
X14184348Y-13259722D02*
X14184348Y-13364484D01*
X14279586Y-13364484D02*
X14279586Y-13231150D01*
X14279586Y-13250198D02*
X14289110Y-13240674D01*
X14289110Y-13240674D02*
X14308158Y-13231150D01*
X14308158Y-13231150D02*
X14336729Y-13231150D01*
X14336729Y-13231150D02*
X14355777Y-13240674D01*
X14355777Y-13240674D02*
X14365301Y-13259722D01*
X14365301Y-13259722D02*
X14365301Y-13364484D01*
X14365301Y-13259722D02*
X14374824Y-13240674D01*
X14374824Y-13240674D02*
X14393872Y-13231150D01*
X14393872Y-13231150D02*
X14422443Y-13231150D01*
X14422443Y-13231150D02*
X14441491Y-13240674D01*
X14441491Y-13240674D02*
X14451015Y-13259722D01*
X14451015Y-13259722D02*
X14451015Y-13364484D01*
X14841491Y-13154960D02*
X14670063Y-13412103D01*
X15098634Y-13164484D02*
X15117682Y-13164484D01*
X15117682Y-13164484D02*
X15136729Y-13174008D01*
X15136729Y-13174008D02*
X15146253Y-13183531D01*
X15146253Y-13183531D02*
X15155777Y-13202579D01*
X15155777Y-13202579D02*
X15165301Y-13240674D01*
X15165301Y-13240674D02*
X15165301Y-13288293D01*
X15165301Y-13288293D02*
X15155777Y-13326388D01*
X15155777Y-13326388D02*
X15146253Y-13345436D01*
X15146253Y-13345436D02*
X15136729Y-13354960D01*
X15136729Y-13354960D02*
X15117682Y-13364484D01*
X15117682Y-13364484D02*
X15098634Y-13364484D01*
X15098634Y-13364484D02*
X15079586Y-13354960D01*
X15079586Y-13354960D02*
X15070063Y-13345436D01*
X15070063Y-13345436D02*
X15060539Y-13326388D01*
X15060539Y-13326388D02*
X15051015Y-13288293D01*
X15051015Y-13288293D02*
X15051015Y-13240674D01*
X15051015Y-13240674D02*
X15060539Y-13202579D01*
X15060539Y-13202579D02*
X15070063Y-13183531D01*
X15070063Y-13183531D02*
X15079586Y-13174008D01*
X15079586Y-13174008D02*
X15098634Y-13164484D01*
X15251015Y-13345436D02*
X15260539Y-13354960D01*
X15260539Y-13354960D02*
X15251015Y-13364484D01*
X15251015Y-13364484D02*
X15241491Y-13354960D01*
X15241491Y-13354960D02*
X15251015Y-13345436D01*
X15251015Y-13345436D02*
X15251015Y-13364484D01*
X15384348Y-13164484D02*
X15403396Y-13164484D01*
X15403396Y-13164484D02*
X15422444Y-13174008D01*
X15422444Y-13174008D02*
X15431967Y-13183531D01*
X15431967Y-13183531D02*
X15441491Y-13202579D01*
X15441491Y-13202579D02*
X15451015Y-13240674D01*
X15451015Y-13240674D02*
X15451015Y-13288293D01*
X15451015Y-13288293D02*
X15441491Y-13326388D01*
X15441491Y-13326388D02*
X15431967Y-13345436D01*
X15431967Y-13345436D02*
X15422444Y-13354960D01*
X15422444Y-13354960D02*
X15403396Y-13364484D01*
X15403396Y-13364484D02*
X15384348Y-13364484D01*
X15384348Y-13364484D02*
X15365301Y-13354960D01*
X15365301Y-13354960D02*
X15355777Y-13345436D01*
X15355777Y-13345436D02*
X15346253Y-13326388D01*
X15346253Y-13326388D02*
X15336729Y-13288293D01*
X15336729Y-13288293D02*
X15336729Y-13240674D01*
X15336729Y-13240674D02*
X15346253Y-13202579D01*
X15346253Y-13202579D02*
X15355777Y-13183531D01*
X15355777Y-13183531D02*
X15365301Y-13174008D01*
X15365301Y-13174008D02*
X15384348Y-13164484D01*
X15641491Y-13364484D02*
X15527206Y-13364484D01*
X15584348Y-13364484D02*
X15584348Y-13164484D01*
X15584348Y-13164484D02*
X15565301Y-13193055D01*
X15565301Y-13193055D02*
X15546253Y-13212103D01*
X15546253Y-13212103D02*
X15527206Y-13221627D01*
X15708158Y-13164484D02*
X15831967Y-13164484D01*
X15831967Y-13164484D02*
X15765301Y-13240674D01*
X15765301Y-13240674D02*
X15793872Y-13240674D01*
X15793872Y-13240674D02*
X15812920Y-13250198D01*
X15812920Y-13250198D02*
X15822444Y-13259722D01*
X15822444Y-13259722D02*
X15831967Y-13278769D01*
X15831967Y-13278769D02*
X15831967Y-13326388D01*
X15831967Y-13326388D02*
X15822444Y-13345436D01*
X15822444Y-13345436D02*
X15812920Y-13354960D01*
X15812920Y-13354960D02*
X15793872Y-13364484D01*
X15793872Y-13364484D02*
X15736729Y-13364484D01*
X15736729Y-13364484D02*
X15717682Y-13354960D01*
X15717682Y-13354960D02*
X15708158Y-13345436D01*
X15946253Y-13250198D02*
X15927206Y-13240674D01*
X15927206Y-13240674D02*
X15917682Y-13231150D01*
X15917682Y-13231150D02*
X15908158Y-13212103D01*
X15908158Y-13212103D02*
X15908158Y-13202579D01*
X15908158Y-13202579D02*
X15917682Y-13183531D01*
X15917682Y-13183531D02*
X15927206Y-13174008D01*
X15927206Y-13174008D02*
X15946253Y-13164484D01*
X15946253Y-13164484D02*
X15984348Y-13164484D01*
X15984348Y-13164484D02*
X16003396Y-13174008D01*
X16003396Y-13174008D02*
X16012920Y-13183531D01*
X16012920Y-13183531D02*
X16022444Y-13202579D01*
X16022444Y-13202579D02*
X16022444Y-13212103D01*
X16022444Y-13212103D02*
X16012920Y-13231150D01*
X16012920Y-13231150D02*
X16003396Y-13240674D01*
X16003396Y-13240674D02*
X15984348Y-13250198D01*
X15984348Y-13250198D02*
X15946253Y-13250198D01*
X15946253Y-13250198D02*
X15927206Y-13259722D01*
X15927206Y-13259722D02*
X15917682Y-13269246D01*
X15917682Y-13269246D02*
X15908158Y-13288293D01*
X15908158Y-13288293D02*
X15908158Y-13326388D01*
X15908158Y-13326388D02*
X15917682Y-13345436D01*
X15917682Y-13345436D02*
X15927206Y-13354960D01*
X15927206Y-13354960D02*
X15946253Y-13364484D01*
X15946253Y-13364484D02*
X15984348Y-13364484D01*
X15984348Y-13364484D02*
X16003396Y-13354960D01*
X16003396Y-13354960D02*
X16012920Y-13345436D01*
X16012920Y-13345436D02*
X16022444Y-13326388D01*
X16022444Y-13326388D02*
X16022444Y-13288293D01*
X16022444Y-13288293D02*
X16012920Y-13269246D01*
X16012920Y-13269246D02*
X16003396Y-13259722D01*
X16003396Y-13259722D02*
X15984348Y-13250198D01*
X16098634Y-13164484D02*
X16098634Y-13202579D01*
X16174825Y-13164484D02*
X16174825Y-13202579D01*
X16470063Y-13440674D02*
X16460539Y-13431150D01*
X16460539Y-13431150D02*
X16441491Y-13402579D01*
X16441491Y-13402579D02*
X16431968Y-13383531D01*
X16431968Y-13383531D02*
X16422444Y-13354960D01*
X16422444Y-13354960D02*
X16412920Y-13307341D01*
X16412920Y-13307341D02*
X16412920Y-13269246D01*
X16412920Y-13269246D02*
X16422444Y-13221627D01*
X16422444Y-13221627D02*
X16431968Y-13193055D01*
X16431968Y-13193055D02*
X16441491Y-13174008D01*
X16441491Y-13174008D02*
X16460539Y-13145436D01*
X16460539Y-13145436D02*
X16470063Y-13135912D01*
X16651015Y-13364484D02*
X16536729Y-13364484D01*
X16593872Y-13364484D02*
X16593872Y-13164484D01*
X16593872Y-13164484D02*
X16574825Y-13193055D01*
X16574825Y-13193055D02*
X16555777Y-13212103D01*
X16555777Y-13212103D02*
X16536729Y-13221627D01*
X16717682Y-13164484D02*
X16841491Y-13164484D01*
X16841491Y-13164484D02*
X16774825Y-13240674D01*
X16774825Y-13240674D02*
X16803396Y-13240674D01*
X16803396Y-13240674D02*
X16822444Y-13250198D01*
X16822444Y-13250198D02*
X16831968Y-13259722D01*
X16831968Y-13259722D02*
X16841491Y-13278769D01*
X16841491Y-13278769D02*
X16841491Y-13326388D01*
X16841491Y-13326388D02*
X16831968Y-13345436D01*
X16831968Y-13345436D02*
X16822444Y-13354960D01*
X16822444Y-13354960D02*
X16803396Y-13364484D01*
X16803396Y-13364484D02*
X16746253Y-13364484D01*
X16746253Y-13364484D02*
X16727206Y-13354960D01*
X16727206Y-13354960D02*
X16717682Y-13345436D01*
X17022444Y-13164484D02*
X16927206Y-13164484D01*
X16927206Y-13164484D02*
X16917682Y-13259722D01*
X16917682Y-13259722D02*
X16927206Y-13250198D01*
X16927206Y-13250198D02*
X16946253Y-13240674D01*
X16946253Y-13240674D02*
X16993872Y-13240674D01*
X16993872Y-13240674D02*
X17012920Y-13250198D01*
X17012920Y-13250198D02*
X17022444Y-13259722D01*
X17022444Y-13259722D02*
X17031968Y-13278769D01*
X17031968Y-13278769D02*
X17031968Y-13326388D01*
X17031968Y-13326388D02*
X17022444Y-13345436D01*
X17022444Y-13345436D02*
X17012920Y-13354960D01*
X17012920Y-13354960D02*
X16993872Y-13364484D01*
X16993872Y-13364484D02*
X16946253Y-13364484D01*
X16946253Y-13364484D02*
X16927206Y-13354960D01*
X16927206Y-13354960D02*
X16917682Y-13345436D01*
X17270063Y-13364484D02*
X17270063Y-13164484D01*
X17355777Y-13364484D02*
X17355777Y-13259722D01*
X17355777Y-13259722D02*
X17346253Y-13240674D01*
X17346253Y-13240674D02*
X17327206Y-13231150D01*
X17327206Y-13231150D02*
X17298634Y-13231150D01*
X17298634Y-13231150D02*
X17279587Y-13240674D01*
X17279587Y-13240674D02*
X17270063Y-13250198D01*
X17479587Y-13364484D02*
X17460539Y-13354960D01*
X17460539Y-13354960D02*
X17451015Y-13345436D01*
X17451015Y-13345436D02*
X17441492Y-13326388D01*
X17441492Y-13326388D02*
X17441492Y-13269246D01*
X17441492Y-13269246D02*
X17451015Y-13250198D01*
X17451015Y-13250198D02*
X17460539Y-13240674D01*
X17460539Y-13240674D02*
X17479587Y-13231150D01*
X17479587Y-13231150D02*
X17508158Y-13231150D01*
X17508158Y-13231150D02*
X17527206Y-13240674D01*
X17527206Y-13240674D02*
X17536730Y-13250198D01*
X17536730Y-13250198D02*
X17546253Y-13269246D01*
X17546253Y-13269246D02*
X17546253Y-13326388D01*
X17546253Y-13326388D02*
X17536730Y-13345436D01*
X17536730Y-13345436D02*
X17527206Y-13354960D01*
X17527206Y-13354960D02*
X17508158Y-13364484D01*
X17508158Y-13364484D02*
X17479587Y-13364484D01*
X17660539Y-13364484D02*
X17641492Y-13354960D01*
X17641492Y-13354960D02*
X17631968Y-13335912D01*
X17631968Y-13335912D02*
X17631968Y-13164484D01*
X17812920Y-13354960D02*
X17793873Y-13364484D01*
X17793873Y-13364484D02*
X17755777Y-13364484D01*
X17755777Y-13364484D02*
X17736730Y-13354960D01*
X17736730Y-13354960D02*
X17727206Y-13335912D01*
X17727206Y-13335912D02*
X17727206Y-13259722D01*
X17727206Y-13259722D02*
X17736730Y-13240674D01*
X17736730Y-13240674D02*
X17755777Y-13231150D01*
X17755777Y-13231150D02*
X17793873Y-13231150D01*
X17793873Y-13231150D02*
X17812920Y-13240674D01*
X17812920Y-13240674D02*
X17822444Y-13259722D01*
X17822444Y-13259722D02*
X17822444Y-13278769D01*
X17822444Y-13278769D02*
X17727206Y-13297817D01*
X17898634Y-13354960D02*
X17917682Y-13364484D01*
X17917682Y-13364484D02*
X17955777Y-13364484D01*
X17955777Y-13364484D02*
X17974825Y-13354960D01*
X17974825Y-13354960D02*
X17984349Y-13335912D01*
X17984349Y-13335912D02*
X17984349Y-13326388D01*
X17984349Y-13326388D02*
X17974825Y-13307341D01*
X17974825Y-13307341D02*
X17955777Y-13297817D01*
X17955777Y-13297817D02*
X17927206Y-13297817D01*
X17927206Y-13297817D02*
X17908158Y-13288293D01*
X17908158Y-13288293D02*
X17898634Y-13269246D01*
X17898634Y-13269246D02*
X17898634Y-13259722D01*
X17898634Y-13259722D02*
X17908158Y-13240674D01*
X17908158Y-13240674D02*
X17927206Y-13231150D01*
X17927206Y-13231150D02*
X17955777Y-13231150D01*
X17955777Y-13231150D02*
X17974825Y-13240674D01*
X18051015Y-13440674D02*
X18060539Y-13431150D01*
X18060539Y-13431150D02*
X18079587Y-13402579D01*
X18079587Y-13402579D02*
X18089111Y-13383531D01*
X18089111Y-13383531D02*
X18098634Y-13354960D01*
X18098634Y-13354960D02*
X18108158Y-13307341D01*
X18108158Y-13307341D02*
X18108158Y-13269246D01*
X18108158Y-13269246D02*
X18098634Y-13221627D01*
X18098634Y-13221627D02*
X18089111Y-13193055D01*
X18089111Y-13193055D02*
X18079587Y-13174008D01*
X18079587Y-13174008D02*
X18060539Y-13145436D01*
X18060539Y-13145436D02*
X18051015Y-13135912D01*
D10*
X12889142Y-13551142D02*
X12889142Y-13522858D01*
X12860858Y-13522858D01*
X12860858Y-13551142D01*
X12889142Y-13551142D01*
D11*
X13193872Y-13428484D02*
X13212920Y-13428484D01*
X13212920Y-13428484D02*
X13231967Y-13438008D01*
X13231967Y-13438008D02*
X13241491Y-13447531D01*
X13241491Y-13447531D02*
X13251015Y-13466579D01*
X13251015Y-13466579D02*
X13260539Y-13504674D01*
X13260539Y-13504674D02*
X13260539Y-13552293D01*
X13260539Y-13552293D02*
X13251015Y-13590388D01*
X13251015Y-13590388D02*
X13241491Y-13609436D01*
X13241491Y-13609436D02*
X13231967Y-13618960D01*
X13231967Y-13618960D02*
X13212920Y-13628484D01*
X13212920Y-13628484D02*
X13193872Y-13628484D01*
X13193872Y-13628484D02*
X13174824Y-13618960D01*
X13174824Y-13618960D02*
X13165301Y-13609436D01*
X13165301Y-13609436D02*
X13155777Y-13590388D01*
X13155777Y-13590388D02*
X13146253Y-13552293D01*
X13146253Y-13552293D02*
X13146253Y-13504674D01*
X13146253Y-13504674D02*
X13155777Y-13466579D01*
X13155777Y-13466579D02*
X13165301Y-13447531D01*
X13165301Y-13447531D02*
X13174824Y-13438008D01*
X13174824Y-13438008D02*
X13193872Y-13428484D01*
X13346253Y-13609436D02*
X13355777Y-13618960D01*
X13355777Y-13618960D02*
X13346253Y-13628484D01*
X13346253Y-13628484D02*
X13336729Y-13618960D01*
X13336729Y-13618960D02*
X13346253Y-13609436D01*
X13346253Y-13609436D02*
X13346253Y-13628484D01*
X13527205Y-13495150D02*
X13527205Y-13628484D01*
X13479586Y-13418960D02*
X13431967Y-13561817D01*
X13431967Y-13561817D02*
X13555777Y-13561817D01*
X13670062Y-13428484D02*
X13689110Y-13428484D01*
X13689110Y-13428484D02*
X13708158Y-13438008D01*
X13708158Y-13438008D02*
X13717682Y-13447531D01*
X13717682Y-13447531D02*
X13727205Y-13466579D01*
X13727205Y-13466579D02*
X13736729Y-13504674D01*
X13736729Y-13504674D02*
X13736729Y-13552293D01*
X13736729Y-13552293D02*
X13727205Y-13590388D01*
X13727205Y-13590388D02*
X13717682Y-13609436D01*
X13717682Y-13609436D02*
X13708158Y-13618960D01*
X13708158Y-13618960D02*
X13689110Y-13628484D01*
X13689110Y-13628484D02*
X13670062Y-13628484D01*
X13670062Y-13628484D02*
X13651015Y-13618960D01*
X13651015Y-13618960D02*
X13641491Y-13609436D01*
X13641491Y-13609436D02*
X13631967Y-13590388D01*
X13631967Y-13590388D02*
X13622443Y-13552293D01*
X13622443Y-13552293D02*
X13622443Y-13504674D01*
X13622443Y-13504674D02*
X13631967Y-13466579D01*
X13631967Y-13466579D02*
X13641491Y-13447531D01*
X13641491Y-13447531D02*
X13651015Y-13438008D01*
X13651015Y-13438008D02*
X13670062Y-13428484D01*
X13860539Y-13428484D02*
X13879586Y-13428484D01*
X13879586Y-13428484D02*
X13898634Y-13438008D01*
X13898634Y-13438008D02*
X13908158Y-13447531D01*
X13908158Y-13447531D02*
X13917682Y-13466579D01*
X13917682Y-13466579D02*
X13927205Y-13504674D01*
X13927205Y-13504674D02*
X13927205Y-13552293D01*
X13927205Y-13552293D02*
X13917682Y-13590388D01*
X13917682Y-13590388D02*
X13908158Y-13609436D01*
X13908158Y-13609436D02*
X13898634Y-13618960D01*
X13898634Y-13618960D02*
X13879586Y-13628484D01*
X13879586Y-13628484D02*
X13860539Y-13628484D01*
X13860539Y-13628484D02*
X13841491Y-13618960D01*
X13841491Y-13618960D02*
X13831967Y-13609436D01*
X13831967Y-13609436D02*
X13822443Y-13590388D01*
X13822443Y-13590388D02*
X13812920Y-13552293D01*
X13812920Y-13552293D02*
X13812920Y-13504674D01*
X13812920Y-13504674D02*
X13822443Y-13466579D01*
X13822443Y-13466579D02*
X13831967Y-13447531D01*
X13831967Y-13447531D02*
X13841491Y-13438008D01*
X13841491Y-13438008D02*
X13860539Y-13428484D01*
X14012920Y-13628484D02*
X14012920Y-13495150D01*
X14012920Y-13514198D02*
X14022443Y-13504674D01*
X14022443Y-13504674D02*
X14041491Y-13495150D01*
X14041491Y-13495150D02*
X14070063Y-13495150D01*
X14070063Y-13495150D02*
X14089110Y-13504674D01*
X14089110Y-13504674D02*
X14098634Y-13523722D01*
X14098634Y-13523722D02*
X14098634Y-13628484D01*
X14098634Y-13523722D02*
X14108158Y-13504674D01*
X14108158Y-13504674D02*
X14127205Y-13495150D01*
X14127205Y-13495150D02*
X14155777Y-13495150D01*
X14155777Y-13495150D02*
X14174824Y-13504674D01*
X14174824Y-13504674D02*
X14184348Y-13523722D01*
X14184348Y-13523722D02*
X14184348Y-13628484D01*
X14279586Y-13628484D02*
X14279586Y-13495150D01*
X14279586Y-13514198D02*
X14289110Y-13504674D01*
X14289110Y-13504674D02*
X14308158Y-13495150D01*
X14308158Y-13495150D02*
X14336729Y-13495150D01*
X14336729Y-13495150D02*
X14355777Y-13504674D01*
X14355777Y-13504674D02*
X14365301Y-13523722D01*
X14365301Y-13523722D02*
X14365301Y-13628484D01*
X14365301Y-13523722D02*
X14374824Y-13504674D01*
X14374824Y-13504674D02*
X14393872Y-13495150D01*
X14393872Y-13495150D02*
X14422443Y-13495150D01*
X14422443Y-13495150D02*
X14441491Y-13504674D01*
X14441491Y-13504674D02*
X14451015Y-13523722D01*
X14451015Y-13523722D02*
X14451015Y-13628484D01*
X14841491Y-13418960D02*
X14670063Y-13676103D01*
X15098634Y-13428484D02*
X15117682Y-13428484D01*
X15117682Y-13428484D02*
X15136729Y-13438008D01*
X15136729Y-13438008D02*
X15146253Y-13447531D01*
X15146253Y-13447531D02*
X15155777Y-13466579D01*
X15155777Y-13466579D02*
X15165301Y-13504674D01*
X15165301Y-13504674D02*
X15165301Y-13552293D01*
X15165301Y-13552293D02*
X15155777Y-13590388D01*
X15155777Y-13590388D02*
X15146253Y-13609436D01*
X15146253Y-13609436D02*
X15136729Y-13618960D01*
X15136729Y-13618960D02*
X15117682Y-13628484D01*
X15117682Y-13628484D02*
X15098634Y-13628484D01*
X15098634Y-13628484D02*
X15079586Y-13618960D01*
X15079586Y-13618960D02*
X15070063Y-13609436D01*
X15070063Y-13609436D02*
X15060539Y-13590388D01*
X15060539Y-13590388D02*
X15051015Y-13552293D01*
X15051015Y-13552293D02*
X15051015Y-13504674D01*
X15051015Y-13504674D02*
X15060539Y-13466579D01*
X15060539Y-13466579D02*
X15070063Y-13447531D01*
X15070063Y-13447531D02*
X15079586Y-13438008D01*
X15079586Y-13438008D02*
X15098634Y-13428484D01*
X15251015Y-13609436D02*
X15260539Y-13618960D01*
X15260539Y-13618960D02*
X15251015Y-13628484D01*
X15251015Y-13628484D02*
X15241491Y-13618960D01*
X15241491Y-13618960D02*
X15251015Y-13609436D01*
X15251015Y-13609436D02*
X15251015Y-13628484D01*
X15384348Y-13428484D02*
X15403396Y-13428484D01*
X15403396Y-13428484D02*
X15422444Y-13438008D01*
X15422444Y-13438008D02*
X15431967Y-13447531D01*
X15431967Y-13447531D02*
X15441491Y-13466579D01*
X15441491Y-13466579D02*
X15451015Y-13504674D01*
X15451015Y-13504674D02*
X15451015Y-13552293D01*
X15451015Y-13552293D02*
X15441491Y-13590388D01*
X15441491Y-13590388D02*
X15431967Y-13609436D01*
X15431967Y-13609436D02*
X15422444Y-13618960D01*
X15422444Y-13618960D02*
X15403396Y-13628484D01*
X15403396Y-13628484D02*
X15384348Y-13628484D01*
X15384348Y-13628484D02*
X15365301Y-13618960D01*
X15365301Y-13618960D02*
X15355777Y-13609436D01*
X15355777Y-13609436D02*
X15346253Y-13590388D01*
X15346253Y-13590388D02*
X15336729Y-13552293D01*
X15336729Y-13552293D02*
X15336729Y-13504674D01*
X15336729Y-13504674D02*
X15346253Y-13466579D01*
X15346253Y-13466579D02*
X15355777Y-13447531D01*
X15355777Y-13447531D02*
X15365301Y-13438008D01*
X15365301Y-13438008D02*
X15384348Y-13428484D01*
X15641491Y-13628484D02*
X15527206Y-13628484D01*
X15584348Y-13628484D02*
X15584348Y-13428484D01*
X15584348Y-13428484D02*
X15565301Y-13457055D01*
X15565301Y-13457055D02*
X15546253Y-13476103D01*
X15546253Y-13476103D02*
X15527206Y-13485627D01*
X15822444Y-13428484D02*
X15727206Y-13428484D01*
X15727206Y-13428484D02*
X15717682Y-13523722D01*
X15717682Y-13523722D02*
X15727206Y-13514198D01*
X15727206Y-13514198D02*
X15746253Y-13504674D01*
X15746253Y-13504674D02*
X15793872Y-13504674D01*
X15793872Y-13504674D02*
X15812920Y-13514198D01*
X15812920Y-13514198D02*
X15822444Y-13523722D01*
X15822444Y-13523722D02*
X15831967Y-13542769D01*
X15831967Y-13542769D02*
X15831967Y-13590388D01*
X15831967Y-13590388D02*
X15822444Y-13609436D01*
X15822444Y-13609436D02*
X15812920Y-13618960D01*
X15812920Y-13618960D02*
X15793872Y-13628484D01*
X15793872Y-13628484D02*
X15746253Y-13628484D01*
X15746253Y-13628484D02*
X15727206Y-13618960D01*
X15727206Y-13618960D02*
X15717682Y-13609436D01*
X15898634Y-13428484D02*
X16031967Y-13428484D01*
X16031967Y-13428484D02*
X15946253Y-13628484D01*
X16098634Y-13428484D02*
X16098634Y-13466579D01*
X16174825Y-13428484D02*
X16174825Y-13466579D01*
X16470063Y-13704674D02*
X16460539Y-13695150D01*
X16460539Y-13695150D02*
X16441491Y-13666579D01*
X16441491Y-13666579D02*
X16431968Y-13647531D01*
X16431968Y-13647531D02*
X16422444Y-13618960D01*
X16422444Y-13618960D02*
X16412920Y-13571341D01*
X16412920Y-13571341D02*
X16412920Y-13533246D01*
X16412920Y-13533246D02*
X16422444Y-13485627D01*
X16422444Y-13485627D02*
X16431968Y-13457055D01*
X16431968Y-13457055D02*
X16441491Y-13438008D01*
X16441491Y-13438008D02*
X16460539Y-13409436D01*
X16460539Y-13409436D02*
X16470063Y-13399912D01*
X16631968Y-13495150D02*
X16631968Y-13628484D01*
X16584348Y-13418960D02*
X16536729Y-13561817D01*
X16536729Y-13561817D02*
X16660539Y-13561817D01*
X16889111Y-13628484D02*
X16889111Y-13428484D01*
X16974825Y-13628484D02*
X16974825Y-13523722D01*
X16974825Y-13523722D02*
X16965301Y-13504674D01*
X16965301Y-13504674D02*
X16946253Y-13495150D01*
X16946253Y-13495150D02*
X16917682Y-13495150D01*
X16917682Y-13495150D02*
X16898634Y-13504674D01*
X16898634Y-13504674D02*
X16889111Y-13514198D01*
X17098634Y-13628484D02*
X17079587Y-13618960D01*
X17079587Y-13618960D02*
X17070063Y-13609436D01*
X17070063Y-13609436D02*
X17060539Y-13590388D01*
X17060539Y-13590388D02*
X17060539Y-13533246D01*
X17060539Y-13533246D02*
X17070063Y-13514198D01*
X17070063Y-13514198D02*
X17079587Y-13504674D01*
X17079587Y-13504674D02*
X17098634Y-13495150D01*
X17098634Y-13495150D02*
X17127206Y-13495150D01*
X17127206Y-13495150D02*
X17146253Y-13504674D01*
X17146253Y-13504674D02*
X17155777Y-13514198D01*
X17155777Y-13514198D02*
X17165301Y-13533246D01*
X17165301Y-13533246D02*
X17165301Y-13590388D01*
X17165301Y-13590388D02*
X17155777Y-13609436D01*
X17155777Y-13609436D02*
X17146253Y-13618960D01*
X17146253Y-13618960D02*
X17127206Y-13628484D01*
X17127206Y-13628484D02*
X17098634Y-13628484D01*
X17279587Y-13628484D02*
X17260539Y-13618960D01*
X17260539Y-13618960D02*
X17251015Y-13599912D01*
X17251015Y-13599912D02*
X17251015Y-13428484D01*
X17431968Y-13618960D02*
X17412920Y-13628484D01*
X17412920Y-13628484D02*
X17374825Y-13628484D01*
X17374825Y-13628484D02*
X17355777Y-13618960D01*
X17355777Y-13618960D02*
X17346253Y-13599912D01*
X17346253Y-13599912D02*
X17346253Y-13523722D01*
X17346253Y-13523722D02*
X17355777Y-13504674D01*
X17355777Y-13504674D02*
X17374825Y-13495150D01*
X17374825Y-13495150D02*
X17412920Y-13495150D01*
X17412920Y-13495150D02*
X17431968Y-13504674D01*
X17431968Y-13504674D02*
X17441492Y-13523722D01*
X17441492Y-13523722D02*
X17441492Y-13542769D01*
X17441492Y-13542769D02*
X17346253Y-13561817D01*
X17517682Y-13618960D02*
X17536730Y-13628484D01*
X17536730Y-13628484D02*
X17574825Y-13628484D01*
X17574825Y-13628484D02*
X17593873Y-13618960D01*
X17593873Y-13618960D02*
X17603396Y-13599912D01*
X17603396Y-13599912D02*
X17603396Y-13590388D01*
X17603396Y-13590388D02*
X17593873Y-13571341D01*
X17593873Y-13571341D02*
X17574825Y-13561817D01*
X17574825Y-13561817D02*
X17546253Y-13561817D01*
X17546253Y-13561817D02*
X17527206Y-13552293D01*
X17527206Y-13552293D02*
X17517682Y-13533246D01*
X17517682Y-13533246D02*
X17517682Y-13523722D01*
X17517682Y-13523722D02*
X17527206Y-13504674D01*
X17527206Y-13504674D02*
X17546253Y-13495150D01*
X17546253Y-13495150D02*
X17574825Y-13495150D01*
X17574825Y-13495150D02*
X17593873Y-13504674D01*
X17670063Y-13704674D02*
X17679587Y-13695150D01*
X17679587Y-13695150D02*
X17698634Y-13666579D01*
X17698634Y-13666579D02*
X17708158Y-13647531D01*
X17708158Y-13647531D02*
X17717682Y-13618960D01*
X17717682Y-13618960D02*
X17727206Y-13571341D01*
X17727206Y-13571341D02*
X17727206Y-13533246D01*
X17727206Y-13533246D02*
X17717682Y-13485627D01*
X17717682Y-13485627D02*
X17708158Y-13457055D01*
X17708158Y-13457055D02*
X17698634Y-13438008D01*
X17698634Y-13438008D02*
X17679587Y-13409436D01*
X17679587Y-13409436D02*
X17670063Y-13399912D01*
D10*
X12865000Y-13831000D02*
X12895000Y-13801000D01*
X12865000Y-13771000D01*
X12835000Y-13801000D01*
X12865000Y-13831000D01*
D11*
X13193872Y-13692484D02*
X13212920Y-13692484D01*
X13212920Y-13692484D02*
X13231967Y-13702008D01*
X13231967Y-13702008D02*
X13241491Y-13711531D01*
X13241491Y-13711531D02*
X13251015Y-13730579D01*
X13251015Y-13730579D02*
X13260539Y-13768674D01*
X13260539Y-13768674D02*
X13260539Y-13816293D01*
X13260539Y-13816293D02*
X13251015Y-13854388D01*
X13251015Y-13854388D02*
X13241491Y-13873436D01*
X13241491Y-13873436D02*
X13231967Y-13882960D01*
X13231967Y-13882960D02*
X13212920Y-13892484D01*
X13212920Y-13892484D02*
X13193872Y-13892484D01*
X13193872Y-13892484D02*
X13174824Y-13882960D01*
X13174824Y-13882960D02*
X13165301Y-13873436D01*
X13165301Y-13873436D02*
X13155777Y-13854388D01*
X13155777Y-13854388D02*
X13146253Y-13816293D01*
X13146253Y-13816293D02*
X13146253Y-13768674D01*
X13146253Y-13768674D02*
X13155777Y-13730579D01*
X13155777Y-13730579D02*
X13165301Y-13711531D01*
X13165301Y-13711531D02*
X13174824Y-13702008D01*
X13174824Y-13702008D02*
X13193872Y-13692484D01*
X13346253Y-13873436D02*
X13355777Y-13882960D01*
X13355777Y-13882960D02*
X13346253Y-13892484D01*
X13346253Y-13892484D02*
X13336729Y-13882960D01*
X13336729Y-13882960D02*
X13346253Y-13873436D01*
X13346253Y-13873436D02*
X13346253Y-13892484D01*
X13527205Y-13692484D02*
X13489110Y-13692484D01*
X13489110Y-13692484D02*
X13470062Y-13702008D01*
X13470062Y-13702008D02*
X13460539Y-13711531D01*
X13460539Y-13711531D02*
X13441491Y-13740103D01*
X13441491Y-13740103D02*
X13431967Y-13778198D01*
X13431967Y-13778198D02*
X13431967Y-13854388D01*
X13431967Y-13854388D02*
X13441491Y-13873436D01*
X13441491Y-13873436D02*
X13451015Y-13882960D01*
X13451015Y-13882960D02*
X13470062Y-13892484D01*
X13470062Y-13892484D02*
X13508158Y-13892484D01*
X13508158Y-13892484D02*
X13527205Y-13882960D01*
X13527205Y-13882960D02*
X13536729Y-13873436D01*
X13536729Y-13873436D02*
X13546253Y-13854388D01*
X13546253Y-13854388D02*
X13546253Y-13806769D01*
X13546253Y-13806769D02*
X13536729Y-13787722D01*
X13536729Y-13787722D02*
X13527205Y-13778198D01*
X13527205Y-13778198D02*
X13508158Y-13768674D01*
X13508158Y-13768674D02*
X13470062Y-13768674D01*
X13470062Y-13768674D02*
X13451015Y-13778198D01*
X13451015Y-13778198D02*
X13441491Y-13787722D01*
X13441491Y-13787722D02*
X13431967Y-13806769D01*
X13670062Y-13692484D02*
X13689110Y-13692484D01*
X13689110Y-13692484D02*
X13708158Y-13702008D01*
X13708158Y-13702008D02*
X13717682Y-13711531D01*
X13717682Y-13711531D02*
X13727205Y-13730579D01*
X13727205Y-13730579D02*
X13736729Y-13768674D01*
X13736729Y-13768674D02*
X13736729Y-13816293D01*
X13736729Y-13816293D02*
X13727205Y-13854388D01*
X13727205Y-13854388D02*
X13717682Y-13873436D01*
X13717682Y-13873436D02*
X13708158Y-13882960D01*
X13708158Y-13882960D02*
X13689110Y-13892484D01*
X13689110Y-13892484D02*
X13670062Y-13892484D01*
X13670062Y-13892484D02*
X13651015Y-13882960D01*
X13651015Y-13882960D02*
X13641491Y-13873436D01*
X13641491Y-13873436D02*
X13631967Y-13854388D01*
X13631967Y-13854388D02*
X13622443Y-13816293D01*
X13622443Y-13816293D02*
X13622443Y-13768674D01*
X13622443Y-13768674D02*
X13631967Y-13730579D01*
X13631967Y-13730579D02*
X13641491Y-13711531D01*
X13641491Y-13711531D02*
X13651015Y-13702008D01*
X13651015Y-13702008D02*
X13670062Y-13692484D01*
X13860539Y-13692484D02*
X13879586Y-13692484D01*
X13879586Y-13692484D02*
X13898634Y-13702008D01*
X13898634Y-13702008D02*
X13908158Y-13711531D01*
X13908158Y-13711531D02*
X13917682Y-13730579D01*
X13917682Y-13730579D02*
X13927205Y-13768674D01*
X13927205Y-13768674D02*
X13927205Y-13816293D01*
X13927205Y-13816293D02*
X13917682Y-13854388D01*
X13917682Y-13854388D02*
X13908158Y-13873436D01*
X13908158Y-13873436D02*
X13898634Y-13882960D01*
X13898634Y-13882960D02*
X13879586Y-13892484D01*
X13879586Y-13892484D02*
X13860539Y-13892484D01*
X13860539Y-13892484D02*
X13841491Y-13882960D01*
X13841491Y-13882960D02*
X13831967Y-13873436D01*
X13831967Y-13873436D02*
X13822443Y-13854388D01*
X13822443Y-13854388D02*
X13812920Y-13816293D01*
X13812920Y-13816293D02*
X13812920Y-13768674D01*
X13812920Y-13768674D02*
X13822443Y-13730579D01*
X13822443Y-13730579D02*
X13831967Y-13711531D01*
X13831967Y-13711531D02*
X13841491Y-13702008D01*
X13841491Y-13702008D02*
X13860539Y-13692484D01*
X14012920Y-13892484D02*
X14012920Y-13759150D01*
X14012920Y-13778198D02*
X14022443Y-13768674D01*
X14022443Y-13768674D02*
X14041491Y-13759150D01*
X14041491Y-13759150D02*
X14070063Y-13759150D01*
X14070063Y-13759150D02*
X14089110Y-13768674D01*
X14089110Y-13768674D02*
X14098634Y-13787722D01*
X14098634Y-13787722D02*
X14098634Y-13892484D01*
X14098634Y-13787722D02*
X14108158Y-13768674D01*
X14108158Y-13768674D02*
X14127205Y-13759150D01*
X14127205Y-13759150D02*
X14155777Y-13759150D01*
X14155777Y-13759150D02*
X14174824Y-13768674D01*
X14174824Y-13768674D02*
X14184348Y-13787722D01*
X14184348Y-13787722D02*
X14184348Y-13892484D01*
X14279586Y-13892484D02*
X14279586Y-13759150D01*
X14279586Y-13778198D02*
X14289110Y-13768674D01*
X14289110Y-13768674D02*
X14308158Y-13759150D01*
X14308158Y-13759150D02*
X14336729Y-13759150D01*
X14336729Y-13759150D02*
X14355777Y-13768674D01*
X14355777Y-13768674D02*
X14365301Y-13787722D01*
X14365301Y-13787722D02*
X14365301Y-13892484D01*
X14365301Y-13787722D02*
X14374824Y-13768674D01*
X14374824Y-13768674D02*
X14393872Y-13759150D01*
X14393872Y-13759150D02*
X14422443Y-13759150D01*
X14422443Y-13759150D02*
X14441491Y-13768674D01*
X14441491Y-13768674D02*
X14451015Y-13787722D01*
X14451015Y-13787722D02*
X14451015Y-13892484D01*
X14841491Y-13682960D02*
X14670063Y-13940103D01*
X15098634Y-13692484D02*
X15117682Y-13692484D01*
X15117682Y-13692484D02*
X15136729Y-13702008D01*
X15136729Y-13702008D02*
X15146253Y-13711531D01*
X15146253Y-13711531D02*
X15155777Y-13730579D01*
X15155777Y-13730579D02*
X15165301Y-13768674D01*
X15165301Y-13768674D02*
X15165301Y-13816293D01*
X15165301Y-13816293D02*
X15155777Y-13854388D01*
X15155777Y-13854388D02*
X15146253Y-13873436D01*
X15146253Y-13873436D02*
X15136729Y-13882960D01*
X15136729Y-13882960D02*
X15117682Y-13892484D01*
X15117682Y-13892484D02*
X15098634Y-13892484D01*
X15098634Y-13892484D02*
X15079586Y-13882960D01*
X15079586Y-13882960D02*
X15070063Y-13873436D01*
X15070063Y-13873436D02*
X15060539Y-13854388D01*
X15060539Y-13854388D02*
X15051015Y-13816293D01*
X15051015Y-13816293D02*
X15051015Y-13768674D01*
X15051015Y-13768674D02*
X15060539Y-13730579D01*
X15060539Y-13730579D02*
X15070063Y-13711531D01*
X15070063Y-13711531D02*
X15079586Y-13702008D01*
X15079586Y-13702008D02*
X15098634Y-13692484D01*
X15251015Y-13873436D02*
X15260539Y-13882960D01*
X15260539Y-13882960D02*
X15251015Y-13892484D01*
X15251015Y-13892484D02*
X15241491Y-13882960D01*
X15241491Y-13882960D02*
X15251015Y-13873436D01*
X15251015Y-13873436D02*
X15251015Y-13892484D01*
X15384348Y-13692484D02*
X15403396Y-13692484D01*
X15403396Y-13692484D02*
X15422444Y-13702008D01*
X15422444Y-13702008D02*
X15431967Y-13711531D01*
X15431967Y-13711531D02*
X15441491Y-13730579D01*
X15441491Y-13730579D02*
X15451015Y-13768674D01*
X15451015Y-13768674D02*
X15451015Y-13816293D01*
X15451015Y-13816293D02*
X15441491Y-13854388D01*
X15441491Y-13854388D02*
X15431967Y-13873436D01*
X15431967Y-13873436D02*
X15422444Y-13882960D01*
X15422444Y-13882960D02*
X15403396Y-13892484D01*
X15403396Y-13892484D02*
X15384348Y-13892484D01*
X15384348Y-13892484D02*
X15365301Y-13882960D01*
X15365301Y-13882960D02*
X15355777Y-13873436D01*
X15355777Y-13873436D02*
X15346253Y-13854388D01*
X15346253Y-13854388D02*
X15336729Y-13816293D01*
X15336729Y-13816293D02*
X15336729Y-13768674D01*
X15336729Y-13768674D02*
X15346253Y-13730579D01*
X15346253Y-13730579D02*
X15355777Y-13711531D01*
X15355777Y-13711531D02*
X15365301Y-13702008D01*
X15365301Y-13702008D02*
X15384348Y-13692484D01*
X15527206Y-13711531D02*
X15536729Y-13702008D01*
X15536729Y-13702008D02*
X15555777Y-13692484D01*
X15555777Y-13692484D02*
X15603396Y-13692484D01*
X15603396Y-13692484D02*
X15622444Y-13702008D01*
X15622444Y-13702008D02*
X15631967Y-13711531D01*
X15631967Y-13711531D02*
X15641491Y-13730579D01*
X15641491Y-13730579D02*
X15641491Y-13749627D01*
X15641491Y-13749627D02*
X15631967Y-13778198D01*
X15631967Y-13778198D02*
X15517682Y-13892484D01*
X15517682Y-13892484D02*
X15641491Y-13892484D01*
X15708158Y-13692484D02*
X15831967Y-13692484D01*
X15831967Y-13692484D02*
X15765301Y-13768674D01*
X15765301Y-13768674D02*
X15793872Y-13768674D01*
X15793872Y-13768674D02*
X15812920Y-13778198D01*
X15812920Y-13778198D02*
X15822444Y-13787722D01*
X15822444Y-13787722D02*
X15831967Y-13806769D01*
X15831967Y-13806769D02*
X15831967Y-13854388D01*
X15831967Y-13854388D02*
X15822444Y-13873436D01*
X15822444Y-13873436D02*
X15812920Y-13882960D01*
X15812920Y-13882960D02*
X15793872Y-13892484D01*
X15793872Y-13892484D02*
X15736729Y-13892484D01*
X15736729Y-13892484D02*
X15717682Y-13882960D01*
X15717682Y-13882960D02*
X15708158Y-13873436D01*
X16003396Y-13692484D02*
X15965301Y-13692484D01*
X15965301Y-13692484D02*
X15946253Y-13702008D01*
X15946253Y-13702008D02*
X15936729Y-13711531D01*
X15936729Y-13711531D02*
X15917682Y-13740103D01*
X15917682Y-13740103D02*
X15908158Y-13778198D01*
X15908158Y-13778198D02*
X15908158Y-13854388D01*
X15908158Y-13854388D02*
X15917682Y-13873436D01*
X15917682Y-13873436D02*
X15927206Y-13882960D01*
X15927206Y-13882960D02*
X15946253Y-13892484D01*
X15946253Y-13892484D02*
X15984348Y-13892484D01*
X15984348Y-13892484D02*
X16003396Y-13882960D01*
X16003396Y-13882960D02*
X16012920Y-13873436D01*
X16012920Y-13873436D02*
X16022444Y-13854388D01*
X16022444Y-13854388D02*
X16022444Y-13806769D01*
X16022444Y-13806769D02*
X16012920Y-13787722D01*
X16012920Y-13787722D02*
X16003396Y-13778198D01*
X16003396Y-13778198D02*
X15984348Y-13768674D01*
X15984348Y-13768674D02*
X15946253Y-13768674D01*
X15946253Y-13768674D02*
X15927206Y-13778198D01*
X15927206Y-13778198D02*
X15917682Y-13787722D01*
X15917682Y-13787722D02*
X15908158Y-13806769D01*
X16098634Y-13692484D02*
X16098634Y-13730579D01*
X16174825Y-13692484D02*
X16174825Y-13730579D01*
X16470063Y-13968674D02*
X16460539Y-13959150D01*
X16460539Y-13959150D02*
X16441491Y-13930579D01*
X16441491Y-13930579D02*
X16431968Y-13911531D01*
X16431968Y-13911531D02*
X16422444Y-13882960D01*
X16422444Y-13882960D02*
X16412920Y-13835341D01*
X16412920Y-13835341D02*
X16412920Y-13797246D01*
X16412920Y-13797246D02*
X16422444Y-13749627D01*
X16422444Y-13749627D02*
X16431968Y-13721055D01*
X16431968Y-13721055D02*
X16441491Y-13702008D01*
X16441491Y-13702008D02*
X16460539Y-13673436D01*
X16460539Y-13673436D02*
X16470063Y-13663912D01*
X16584348Y-13692484D02*
X16603396Y-13692484D01*
X16603396Y-13692484D02*
X16622444Y-13702008D01*
X16622444Y-13702008D02*
X16631968Y-13711531D01*
X16631968Y-13711531D02*
X16641491Y-13730579D01*
X16641491Y-13730579D02*
X16651015Y-13768674D01*
X16651015Y-13768674D02*
X16651015Y-13816293D01*
X16651015Y-13816293D02*
X16641491Y-13854388D01*
X16641491Y-13854388D02*
X16631968Y-13873436D01*
X16631968Y-13873436D02*
X16622444Y-13882960D01*
X16622444Y-13882960D02*
X16603396Y-13892484D01*
X16603396Y-13892484D02*
X16584348Y-13892484D01*
X16584348Y-13892484D02*
X16565301Y-13882960D01*
X16565301Y-13882960D02*
X16555777Y-13873436D01*
X16555777Y-13873436D02*
X16546253Y-13854388D01*
X16546253Y-13854388D02*
X16536729Y-13816293D01*
X16536729Y-13816293D02*
X16536729Y-13768674D01*
X16536729Y-13768674D02*
X16546253Y-13730579D01*
X16546253Y-13730579D02*
X16555777Y-13711531D01*
X16555777Y-13711531D02*
X16565301Y-13702008D01*
X16565301Y-13702008D02*
X16584348Y-13692484D01*
X16889111Y-13892484D02*
X16889111Y-13692484D01*
X16974825Y-13892484D02*
X16974825Y-13787722D01*
X16974825Y-13787722D02*
X16965301Y-13768674D01*
X16965301Y-13768674D02*
X16946253Y-13759150D01*
X16946253Y-13759150D02*
X16917682Y-13759150D01*
X16917682Y-13759150D02*
X16898634Y-13768674D01*
X16898634Y-13768674D02*
X16889111Y-13778198D01*
X17098634Y-13892484D02*
X17079587Y-13882960D01*
X17079587Y-13882960D02*
X17070063Y-13873436D01*
X17070063Y-13873436D02*
X17060539Y-13854388D01*
X17060539Y-13854388D02*
X17060539Y-13797246D01*
X17060539Y-13797246D02*
X17070063Y-13778198D01*
X17070063Y-13778198D02*
X17079587Y-13768674D01*
X17079587Y-13768674D02*
X17098634Y-13759150D01*
X17098634Y-13759150D02*
X17127206Y-13759150D01*
X17127206Y-13759150D02*
X17146253Y-13768674D01*
X17146253Y-13768674D02*
X17155777Y-13778198D01*
X17155777Y-13778198D02*
X17165301Y-13797246D01*
X17165301Y-13797246D02*
X17165301Y-13854388D01*
X17165301Y-13854388D02*
X17155777Y-13873436D01*
X17155777Y-13873436D02*
X17146253Y-13882960D01*
X17146253Y-13882960D02*
X17127206Y-13892484D01*
X17127206Y-13892484D02*
X17098634Y-13892484D01*
X17279587Y-13892484D02*
X17260539Y-13882960D01*
X17260539Y-13882960D02*
X17251015Y-13863912D01*
X17251015Y-13863912D02*
X17251015Y-13692484D01*
X17431968Y-13882960D02*
X17412920Y-13892484D01*
X17412920Y-13892484D02*
X17374825Y-13892484D01*
X17374825Y-13892484D02*
X17355777Y-13882960D01*
X17355777Y-13882960D02*
X17346253Y-13863912D01*
X17346253Y-13863912D02*
X17346253Y-13787722D01*
X17346253Y-13787722D02*
X17355777Y-13768674D01*
X17355777Y-13768674D02*
X17374825Y-13759150D01*
X17374825Y-13759150D02*
X17412920Y-13759150D01*
X17412920Y-13759150D02*
X17431968Y-13768674D01*
X17431968Y-13768674D02*
X17441492Y-13787722D01*
X17441492Y-13787722D02*
X17441492Y-13806769D01*
X17441492Y-13806769D02*
X17346253Y-13825817D01*
X17517682Y-13882960D02*
X17536730Y-13892484D01*
X17536730Y-13892484D02*
X17574825Y-13892484D01*
X17574825Y-13892484D02*
X17593873Y-13882960D01*
X17593873Y-13882960D02*
X17603396Y-13863912D01*
X17603396Y-13863912D02*
X17603396Y-13854388D01*
X17603396Y-13854388D02*
X17593873Y-13835341D01*
X17593873Y-13835341D02*
X17574825Y-13825817D01*
X17574825Y-13825817D02*
X17546253Y-13825817D01*
X17546253Y-13825817D02*
X17527206Y-13816293D01*
X17527206Y-13816293D02*
X17517682Y-13797246D01*
X17517682Y-13797246D02*
X17517682Y-13787722D01*
X17517682Y-13787722D02*
X17527206Y-13768674D01*
X17527206Y-13768674D02*
X17546253Y-13759150D01*
X17546253Y-13759150D02*
X17574825Y-13759150D01*
X17574825Y-13759150D02*
X17593873Y-13768674D01*
X17841492Y-13816293D02*
X17993873Y-13816293D01*
X17917682Y-13892484D02*
X17917682Y-13740103D01*
X18327206Y-13759150D02*
X18327206Y-13892484D01*
X18279587Y-13682960D02*
X18231968Y-13825817D01*
X18231968Y-13825817D02*
X18355777Y-13825817D01*
X18574825Y-13882960D02*
X18593873Y-13892484D01*
X18593873Y-13892484D02*
X18631968Y-13892484D01*
X18631968Y-13892484D02*
X18651016Y-13882960D01*
X18651016Y-13882960D02*
X18660539Y-13863912D01*
X18660539Y-13863912D02*
X18660539Y-13854388D01*
X18660539Y-13854388D02*
X18651016Y-13835341D01*
X18651016Y-13835341D02*
X18631968Y-13825817D01*
X18631968Y-13825817D02*
X18603396Y-13825817D01*
X18603396Y-13825817D02*
X18584349Y-13816293D01*
X18584349Y-13816293D02*
X18574825Y-13797246D01*
X18574825Y-13797246D02*
X18574825Y-13787722D01*
X18574825Y-13787722D02*
X18584349Y-13768674D01*
X18584349Y-13768674D02*
X18603396Y-13759150D01*
X18603396Y-13759150D02*
X18631968Y-13759150D01*
X18631968Y-13759150D02*
X18651016Y-13768674D01*
X18774825Y-13892484D02*
X18755777Y-13882960D01*
X18755777Y-13882960D02*
X18746254Y-13863912D01*
X18746254Y-13863912D02*
X18746254Y-13692484D01*
X18879587Y-13892484D02*
X18860539Y-13882960D01*
X18860539Y-13882960D02*
X18851016Y-13873436D01*
X18851016Y-13873436D02*
X18841492Y-13854388D01*
X18841492Y-13854388D02*
X18841492Y-13797246D01*
X18841492Y-13797246D02*
X18851016Y-13778198D01*
X18851016Y-13778198D02*
X18860539Y-13768674D01*
X18860539Y-13768674D02*
X18879587Y-13759150D01*
X18879587Y-13759150D02*
X18908158Y-13759150D01*
X18908158Y-13759150D02*
X18927206Y-13768674D01*
X18927206Y-13768674D02*
X18936730Y-13778198D01*
X18936730Y-13778198D02*
X18946254Y-13797246D01*
X18946254Y-13797246D02*
X18946254Y-13854388D01*
X18946254Y-13854388D02*
X18936730Y-13873436D01*
X18936730Y-13873436D02*
X18927206Y-13882960D01*
X18927206Y-13882960D02*
X18908158Y-13892484D01*
X18908158Y-13892484D02*
X18879587Y-13892484D01*
X19003397Y-13759150D02*
X19079587Y-13759150D01*
X19031968Y-13692484D02*
X19031968Y-13863912D01*
X19031968Y-13863912D02*
X19041492Y-13882960D01*
X19041492Y-13882960D02*
X19060539Y-13892484D01*
X19060539Y-13892484D02*
X19079587Y-13892484D01*
X19136730Y-13882960D02*
X19155777Y-13892484D01*
X19155777Y-13892484D02*
X19193873Y-13892484D01*
X19193873Y-13892484D02*
X19212920Y-13882960D01*
X19212920Y-13882960D02*
X19222444Y-13863912D01*
X19222444Y-13863912D02*
X19222444Y-13854388D01*
X19222444Y-13854388D02*
X19212920Y-13835341D01*
X19212920Y-13835341D02*
X19193873Y-13825817D01*
X19193873Y-13825817D02*
X19165301Y-13825817D01*
X19165301Y-13825817D02*
X19146254Y-13816293D01*
X19146254Y-13816293D02*
X19136730Y-13797246D01*
X19136730Y-13797246D02*
X19136730Y-13787722D01*
X19136730Y-13787722D02*
X19146254Y-13768674D01*
X19146254Y-13768674D02*
X19165301Y-13759150D01*
X19165301Y-13759150D02*
X19193873Y-13759150D01*
X19193873Y-13759150D02*
X19212920Y-13768674D01*
X19289111Y-13968674D02*
X19298635Y-13959150D01*
X19298635Y-13959150D02*
X19317682Y-13930579D01*
X19317682Y-13930579D02*
X19327206Y-13911531D01*
X19327206Y-13911531D02*
X19336730Y-13882960D01*
X19336730Y-13882960D02*
X19346254Y-13835341D01*
X19346254Y-13835341D02*
X19346254Y-13797246D01*
X19346254Y-13797246D02*
X19336730Y-13749627D01*
X19336730Y-13749627D02*
X19327206Y-13721055D01*
X19327206Y-13721055D02*
X19317682Y-13702008D01*
X19317682Y-13702008D02*
X19298635Y-13673436D01*
X19298635Y-13673436D02*
X19289111Y-13663912D01*
D10*
X12820000Y-14027500D02*
X12895000Y-14102500D01*
X12895000Y-14027500D02*
X12820000Y-14102500D01*
X12895000Y-14065000D02*
G75*
G02*
X12820000Y-14065000I-37500J0D01*
G01*
X12820000Y-14065000D02*
G75*
G02*
X12895000Y-14065000I37500J0D01*
G01*
D11*
X13193872Y-13956484D02*
X13212920Y-13956484D01*
X13212920Y-13956484D02*
X13231967Y-13966008D01*
X13231967Y-13966008D02*
X13241491Y-13975531D01*
X13241491Y-13975531D02*
X13251015Y-13994579D01*
X13251015Y-13994579D02*
X13260539Y-14032674D01*
X13260539Y-14032674D02*
X13260539Y-14080293D01*
X13260539Y-14080293D02*
X13251015Y-14118388D01*
X13251015Y-14118388D02*
X13241491Y-14137436D01*
X13241491Y-14137436D02*
X13231967Y-14146960D01*
X13231967Y-14146960D02*
X13212920Y-14156484D01*
X13212920Y-14156484D02*
X13193872Y-14156484D01*
X13193872Y-14156484D02*
X13174824Y-14146960D01*
X13174824Y-14146960D02*
X13165301Y-14137436D01*
X13165301Y-14137436D02*
X13155777Y-14118388D01*
X13155777Y-14118388D02*
X13146253Y-14080293D01*
X13146253Y-14080293D02*
X13146253Y-14032674D01*
X13146253Y-14032674D02*
X13155777Y-13994579D01*
X13155777Y-13994579D02*
X13165301Y-13975531D01*
X13165301Y-13975531D02*
X13174824Y-13966008D01*
X13174824Y-13966008D02*
X13193872Y-13956484D01*
X13346253Y-14137436D02*
X13355777Y-14146960D01*
X13355777Y-14146960D02*
X13346253Y-14156484D01*
X13346253Y-14156484D02*
X13336729Y-14146960D01*
X13336729Y-14146960D02*
X13346253Y-14137436D01*
X13346253Y-14137436D02*
X13346253Y-14156484D01*
X13422443Y-13956484D02*
X13555777Y-13956484D01*
X13555777Y-13956484D02*
X13470062Y-14156484D01*
X13727205Y-13956484D02*
X13631967Y-13956484D01*
X13631967Y-13956484D02*
X13622443Y-14051722D01*
X13622443Y-14051722D02*
X13631967Y-14042198D01*
X13631967Y-14042198D02*
X13651015Y-14032674D01*
X13651015Y-14032674D02*
X13698634Y-14032674D01*
X13698634Y-14032674D02*
X13717682Y-14042198D01*
X13717682Y-14042198D02*
X13727205Y-14051722D01*
X13727205Y-14051722D02*
X13736729Y-14070769D01*
X13736729Y-14070769D02*
X13736729Y-14118388D01*
X13736729Y-14118388D02*
X13727205Y-14137436D01*
X13727205Y-14137436D02*
X13717682Y-14146960D01*
X13717682Y-14146960D02*
X13698634Y-14156484D01*
X13698634Y-14156484D02*
X13651015Y-14156484D01*
X13651015Y-14156484D02*
X13631967Y-14146960D01*
X13631967Y-14146960D02*
X13622443Y-14137436D01*
X13860539Y-13956484D02*
X13879586Y-13956484D01*
X13879586Y-13956484D02*
X13898634Y-13966008D01*
X13898634Y-13966008D02*
X13908158Y-13975531D01*
X13908158Y-13975531D02*
X13917682Y-13994579D01*
X13917682Y-13994579D02*
X13927205Y-14032674D01*
X13927205Y-14032674D02*
X13927205Y-14080293D01*
X13927205Y-14080293D02*
X13917682Y-14118388D01*
X13917682Y-14118388D02*
X13908158Y-14137436D01*
X13908158Y-14137436D02*
X13898634Y-14146960D01*
X13898634Y-14146960D02*
X13879586Y-14156484D01*
X13879586Y-14156484D02*
X13860539Y-14156484D01*
X13860539Y-14156484D02*
X13841491Y-14146960D01*
X13841491Y-14146960D02*
X13831967Y-14137436D01*
X13831967Y-14137436D02*
X13822443Y-14118388D01*
X13822443Y-14118388D02*
X13812920Y-14080293D01*
X13812920Y-14080293D02*
X13812920Y-14032674D01*
X13812920Y-14032674D02*
X13822443Y-13994579D01*
X13822443Y-13994579D02*
X13831967Y-13975531D01*
X13831967Y-13975531D02*
X13841491Y-13966008D01*
X13841491Y-13966008D02*
X13860539Y-13956484D01*
X14012920Y-14156484D02*
X14012920Y-14023150D01*
X14012920Y-14042198D02*
X14022443Y-14032674D01*
X14022443Y-14032674D02*
X14041491Y-14023150D01*
X14041491Y-14023150D02*
X14070063Y-14023150D01*
X14070063Y-14023150D02*
X14089110Y-14032674D01*
X14089110Y-14032674D02*
X14098634Y-14051722D01*
X14098634Y-14051722D02*
X14098634Y-14156484D01*
X14098634Y-14051722D02*
X14108158Y-14032674D01*
X14108158Y-14032674D02*
X14127205Y-14023150D01*
X14127205Y-14023150D02*
X14155777Y-14023150D01*
X14155777Y-14023150D02*
X14174824Y-14032674D01*
X14174824Y-14032674D02*
X14184348Y-14051722D01*
X14184348Y-14051722D02*
X14184348Y-14156484D01*
X14279586Y-14156484D02*
X14279586Y-14023150D01*
X14279586Y-14042198D02*
X14289110Y-14032674D01*
X14289110Y-14032674D02*
X14308158Y-14023150D01*
X14308158Y-14023150D02*
X14336729Y-14023150D01*
X14336729Y-14023150D02*
X14355777Y-14032674D01*
X14355777Y-14032674D02*
X14365301Y-14051722D01*
X14365301Y-14051722D02*
X14365301Y-14156484D01*
X14365301Y-14051722D02*
X14374824Y-14032674D01*
X14374824Y-14032674D02*
X14393872Y-14023150D01*
X14393872Y-14023150D02*
X14422443Y-14023150D01*
X14422443Y-14023150D02*
X14441491Y-14032674D01*
X14441491Y-14032674D02*
X14451015Y-14051722D01*
X14451015Y-14051722D02*
X14451015Y-14156484D01*
X14841491Y-13946960D02*
X14670063Y-14204103D01*
X15098634Y-13956484D02*
X15117682Y-13956484D01*
X15117682Y-13956484D02*
X15136729Y-13966008D01*
X15136729Y-13966008D02*
X15146253Y-13975531D01*
X15146253Y-13975531D02*
X15155777Y-13994579D01*
X15155777Y-13994579D02*
X15165301Y-14032674D01*
X15165301Y-14032674D02*
X15165301Y-14080293D01*
X15165301Y-14080293D02*
X15155777Y-14118388D01*
X15155777Y-14118388D02*
X15146253Y-14137436D01*
X15146253Y-14137436D02*
X15136729Y-14146960D01*
X15136729Y-14146960D02*
X15117682Y-14156484D01*
X15117682Y-14156484D02*
X15098634Y-14156484D01*
X15098634Y-14156484D02*
X15079586Y-14146960D01*
X15079586Y-14146960D02*
X15070063Y-14137436D01*
X15070063Y-14137436D02*
X15060539Y-14118388D01*
X15060539Y-14118388D02*
X15051015Y-14080293D01*
X15051015Y-14080293D02*
X15051015Y-14032674D01*
X15051015Y-14032674D02*
X15060539Y-13994579D01*
X15060539Y-13994579D02*
X15070063Y-13975531D01*
X15070063Y-13975531D02*
X15079586Y-13966008D01*
X15079586Y-13966008D02*
X15098634Y-13956484D01*
X15251015Y-14137436D02*
X15260539Y-14146960D01*
X15260539Y-14146960D02*
X15251015Y-14156484D01*
X15251015Y-14156484D02*
X15241491Y-14146960D01*
X15241491Y-14146960D02*
X15251015Y-14137436D01*
X15251015Y-14137436D02*
X15251015Y-14156484D01*
X15384348Y-13956484D02*
X15403396Y-13956484D01*
X15403396Y-13956484D02*
X15422444Y-13966008D01*
X15422444Y-13966008D02*
X15431967Y-13975531D01*
X15431967Y-13975531D02*
X15441491Y-13994579D01*
X15441491Y-13994579D02*
X15451015Y-14032674D01*
X15451015Y-14032674D02*
X15451015Y-14080293D01*
X15451015Y-14080293D02*
X15441491Y-14118388D01*
X15441491Y-14118388D02*
X15431967Y-14137436D01*
X15431967Y-14137436D02*
X15422444Y-14146960D01*
X15422444Y-14146960D02*
X15403396Y-14156484D01*
X15403396Y-14156484D02*
X15384348Y-14156484D01*
X15384348Y-14156484D02*
X15365301Y-14146960D01*
X15365301Y-14146960D02*
X15355777Y-14137436D01*
X15355777Y-14137436D02*
X15346253Y-14118388D01*
X15346253Y-14118388D02*
X15336729Y-14080293D01*
X15336729Y-14080293D02*
X15336729Y-14032674D01*
X15336729Y-14032674D02*
X15346253Y-13994579D01*
X15346253Y-13994579D02*
X15355777Y-13975531D01*
X15355777Y-13975531D02*
X15365301Y-13966008D01*
X15365301Y-13966008D02*
X15384348Y-13956484D01*
X15527206Y-13975531D02*
X15536729Y-13966008D01*
X15536729Y-13966008D02*
X15555777Y-13956484D01*
X15555777Y-13956484D02*
X15603396Y-13956484D01*
X15603396Y-13956484D02*
X15622444Y-13966008D01*
X15622444Y-13966008D02*
X15631967Y-13975531D01*
X15631967Y-13975531D02*
X15641491Y-13994579D01*
X15641491Y-13994579D02*
X15641491Y-14013627D01*
X15641491Y-14013627D02*
X15631967Y-14042198D01*
X15631967Y-14042198D02*
X15517682Y-14156484D01*
X15517682Y-14156484D02*
X15641491Y-14156484D01*
X15736729Y-14156484D02*
X15774825Y-14156484D01*
X15774825Y-14156484D02*
X15793872Y-14146960D01*
X15793872Y-14146960D02*
X15803396Y-14137436D01*
X15803396Y-14137436D02*
X15822444Y-14108865D01*
X15822444Y-14108865D02*
X15831967Y-14070769D01*
X15831967Y-14070769D02*
X15831967Y-13994579D01*
X15831967Y-13994579D02*
X15822444Y-13975531D01*
X15822444Y-13975531D02*
X15812920Y-13966008D01*
X15812920Y-13966008D02*
X15793872Y-13956484D01*
X15793872Y-13956484D02*
X15755777Y-13956484D01*
X15755777Y-13956484D02*
X15736729Y-13966008D01*
X15736729Y-13966008D02*
X15727206Y-13975531D01*
X15727206Y-13975531D02*
X15717682Y-13994579D01*
X15717682Y-13994579D02*
X15717682Y-14042198D01*
X15717682Y-14042198D02*
X15727206Y-14061246D01*
X15727206Y-14061246D02*
X15736729Y-14070769D01*
X15736729Y-14070769D02*
X15755777Y-14080293D01*
X15755777Y-14080293D02*
X15793872Y-14080293D01*
X15793872Y-14080293D02*
X15812920Y-14070769D01*
X15812920Y-14070769D02*
X15822444Y-14061246D01*
X15822444Y-14061246D02*
X15831967Y-14042198D01*
X16012920Y-13956484D02*
X15917682Y-13956484D01*
X15917682Y-13956484D02*
X15908158Y-14051722D01*
X15908158Y-14051722D02*
X15917682Y-14042198D01*
X15917682Y-14042198D02*
X15936729Y-14032674D01*
X15936729Y-14032674D02*
X15984348Y-14032674D01*
X15984348Y-14032674D02*
X16003396Y-14042198D01*
X16003396Y-14042198D02*
X16012920Y-14051722D01*
X16012920Y-14051722D02*
X16022444Y-14070769D01*
X16022444Y-14070769D02*
X16022444Y-14118388D01*
X16022444Y-14118388D02*
X16012920Y-14137436D01*
X16012920Y-14137436D02*
X16003396Y-14146960D01*
X16003396Y-14146960D02*
X15984348Y-14156484D01*
X15984348Y-14156484D02*
X15936729Y-14156484D01*
X15936729Y-14156484D02*
X15917682Y-14146960D01*
X15917682Y-14146960D02*
X15908158Y-14137436D01*
X16098634Y-13956484D02*
X16098634Y-13994579D01*
X16174825Y-13956484D02*
X16174825Y-13994579D01*
X16470063Y-14232674D02*
X16460539Y-14223150D01*
X16460539Y-14223150D02*
X16441491Y-14194579D01*
X16441491Y-14194579D02*
X16431968Y-14175531D01*
X16431968Y-14175531D02*
X16422444Y-14146960D01*
X16422444Y-14146960D02*
X16412920Y-14099341D01*
X16412920Y-14099341D02*
X16412920Y-14061246D01*
X16412920Y-14061246D02*
X16422444Y-14013627D01*
X16422444Y-14013627D02*
X16431968Y-13985055D01*
X16431968Y-13985055D02*
X16441491Y-13966008D01*
X16441491Y-13966008D02*
X16460539Y-13937436D01*
X16460539Y-13937436D02*
X16470063Y-13927912D01*
X16631968Y-13956484D02*
X16593872Y-13956484D01*
X16593872Y-13956484D02*
X16574825Y-13966008D01*
X16574825Y-13966008D02*
X16565301Y-13975531D01*
X16565301Y-13975531D02*
X16546253Y-14004103D01*
X16546253Y-14004103D02*
X16536729Y-14042198D01*
X16536729Y-14042198D02*
X16536729Y-14118388D01*
X16536729Y-14118388D02*
X16546253Y-14137436D01*
X16546253Y-14137436D02*
X16555777Y-14146960D01*
X16555777Y-14146960D02*
X16574825Y-14156484D01*
X16574825Y-14156484D02*
X16612920Y-14156484D01*
X16612920Y-14156484D02*
X16631968Y-14146960D01*
X16631968Y-14146960D02*
X16641491Y-14137436D01*
X16641491Y-14137436D02*
X16651015Y-14118388D01*
X16651015Y-14118388D02*
X16651015Y-14070769D01*
X16651015Y-14070769D02*
X16641491Y-14051722D01*
X16641491Y-14051722D02*
X16631968Y-14042198D01*
X16631968Y-14042198D02*
X16612920Y-14032674D01*
X16612920Y-14032674D02*
X16574825Y-14032674D01*
X16574825Y-14032674D02*
X16555777Y-14042198D01*
X16555777Y-14042198D02*
X16546253Y-14051722D01*
X16546253Y-14051722D02*
X16536729Y-14070769D01*
X16889111Y-14156484D02*
X16889111Y-13956484D01*
X16974825Y-14156484D02*
X16974825Y-14051722D01*
X16974825Y-14051722D02*
X16965301Y-14032674D01*
X16965301Y-14032674D02*
X16946253Y-14023150D01*
X16946253Y-14023150D02*
X16917682Y-14023150D01*
X16917682Y-14023150D02*
X16898634Y-14032674D01*
X16898634Y-14032674D02*
X16889111Y-14042198D01*
X17098634Y-14156484D02*
X17079587Y-14146960D01*
X17079587Y-14146960D02*
X17070063Y-14137436D01*
X17070063Y-14137436D02*
X17060539Y-14118388D01*
X17060539Y-14118388D02*
X17060539Y-14061246D01*
X17060539Y-14061246D02*
X17070063Y-14042198D01*
X17070063Y-14042198D02*
X17079587Y-14032674D01*
X17079587Y-14032674D02*
X17098634Y-14023150D01*
X17098634Y-14023150D02*
X17127206Y-14023150D01*
X17127206Y-14023150D02*
X17146253Y-14032674D01*
X17146253Y-14032674D02*
X17155777Y-14042198D01*
X17155777Y-14042198D02*
X17165301Y-14061246D01*
X17165301Y-14061246D02*
X17165301Y-14118388D01*
X17165301Y-14118388D02*
X17155777Y-14137436D01*
X17155777Y-14137436D02*
X17146253Y-14146960D01*
X17146253Y-14146960D02*
X17127206Y-14156484D01*
X17127206Y-14156484D02*
X17098634Y-14156484D01*
X17279587Y-14156484D02*
X17260539Y-14146960D01*
X17260539Y-14146960D02*
X17251015Y-14127912D01*
X17251015Y-14127912D02*
X17251015Y-13956484D01*
X17431968Y-14146960D02*
X17412920Y-14156484D01*
X17412920Y-14156484D02*
X17374825Y-14156484D01*
X17374825Y-14156484D02*
X17355777Y-14146960D01*
X17355777Y-14146960D02*
X17346253Y-14127912D01*
X17346253Y-14127912D02*
X17346253Y-14051722D01*
X17346253Y-14051722D02*
X17355777Y-14032674D01*
X17355777Y-14032674D02*
X17374825Y-14023150D01*
X17374825Y-14023150D02*
X17412920Y-14023150D01*
X17412920Y-14023150D02*
X17431968Y-14032674D01*
X17431968Y-14032674D02*
X17441492Y-14051722D01*
X17441492Y-14051722D02*
X17441492Y-14070769D01*
X17441492Y-14070769D02*
X17346253Y-14089817D01*
X17517682Y-14146960D02*
X17536730Y-14156484D01*
X17536730Y-14156484D02*
X17574825Y-14156484D01*
X17574825Y-14156484D02*
X17593873Y-14146960D01*
X17593873Y-14146960D02*
X17603396Y-14127912D01*
X17603396Y-14127912D02*
X17603396Y-14118388D01*
X17603396Y-14118388D02*
X17593873Y-14099341D01*
X17593873Y-14099341D02*
X17574825Y-14089817D01*
X17574825Y-14089817D02*
X17546253Y-14089817D01*
X17546253Y-14089817D02*
X17527206Y-14080293D01*
X17527206Y-14080293D02*
X17517682Y-14061246D01*
X17517682Y-14061246D02*
X17517682Y-14051722D01*
X17517682Y-14051722D02*
X17527206Y-14032674D01*
X17527206Y-14032674D02*
X17546253Y-14023150D01*
X17546253Y-14023150D02*
X17574825Y-14023150D01*
X17574825Y-14023150D02*
X17593873Y-14032674D01*
X17670063Y-14232674D02*
X17679587Y-14223150D01*
X17679587Y-14223150D02*
X17698634Y-14194579D01*
X17698634Y-14194579D02*
X17708158Y-14175531D01*
X17708158Y-14175531D02*
X17717682Y-14146960D01*
X17717682Y-14146960D02*
X17727206Y-14099341D01*
X17727206Y-14099341D02*
X17727206Y-14061246D01*
X17727206Y-14061246D02*
X17717682Y-14013627D01*
X17717682Y-14013627D02*
X17708158Y-13985055D01*
X17708158Y-13985055D02*
X17698634Y-13966008D01*
X17698634Y-13966008D02*
X17679587Y-13937436D01*
X17679587Y-13937436D02*
X17670063Y-13927912D01*
X12695000Y-14229000D02*
X12895000Y-14429000D01*
X12895000Y-14229000D02*
X12695000Y-14429000D01*
X12795000Y-14229000D02*
X12795000Y-14429000D01*
X12695000Y-14329000D02*
X12895000Y-14329000D01*
X13136729Y-14220484D02*
X13260539Y-14220484D01*
X13260539Y-14220484D02*
X13193872Y-14296674D01*
X13193872Y-14296674D02*
X13222443Y-14296674D01*
X13222443Y-14296674D02*
X13241491Y-14306198D01*
X13241491Y-14306198D02*
X13251015Y-14315722D01*
X13251015Y-14315722D02*
X13260539Y-14334769D01*
X13260539Y-14334769D02*
X13260539Y-14382388D01*
X13260539Y-14382388D02*
X13251015Y-14401436D01*
X13251015Y-14401436D02*
X13241491Y-14410960D01*
X13241491Y-14410960D02*
X13222443Y-14420484D01*
X13222443Y-14420484D02*
X13165301Y-14420484D01*
X13165301Y-14420484D02*
X13146253Y-14410960D01*
X13146253Y-14410960D02*
X13136729Y-14401436D01*
X13346253Y-14401436D02*
X13355777Y-14410960D01*
X13355777Y-14410960D02*
X13346253Y-14420484D01*
X13346253Y-14420484D02*
X13336729Y-14410960D01*
X13336729Y-14410960D02*
X13346253Y-14401436D01*
X13346253Y-14401436D02*
X13346253Y-14420484D01*
X13431967Y-14239531D02*
X13441491Y-14230008D01*
X13441491Y-14230008D02*
X13460539Y-14220484D01*
X13460539Y-14220484D02*
X13508158Y-14220484D01*
X13508158Y-14220484D02*
X13527205Y-14230008D01*
X13527205Y-14230008D02*
X13536729Y-14239531D01*
X13536729Y-14239531D02*
X13546253Y-14258579D01*
X13546253Y-14258579D02*
X13546253Y-14277627D01*
X13546253Y-14277627D02*
X13536729Y-14306198D01*
X13536729Y-14306198D02*
X13422443Y-14420484D01*
X13422443Y-14420484D02*
X13546253Y-14420484D01*
X13670062Y-14220484D02*
X13689110Y-14220484D01*
X13689110Y-14220484D02*
X13708158Y-14230008D01*
X13708158Y-14230008D02*
X13717682Y-14239531D01*
X13717682Y-14239531D02*
X13727205Y-14258579D01*
X13727205Y-14258579D02*
X13736729Y-14296674D01*
X13736729Y-14296674D02*
X13736729Y-14344293D01*
X13736729Y-14344293D02*
X13727205Y-14382388D01*
X13727205Y-14382388D02*
X13717682Y-14401436D01*
X13717682Y-14401436D02*
X13708158Y-14410960D01*
X13708158Y-14410960D02*
X13689110Y-14420484D01*
X13689110Y-14420484D02*
X13670062Y-14420484D01*
X13670062Y-14420484D02*
X13651015Y-14410960D01*
X13651015Y-14410960D02*
X13641491Y-14401436D01*
X13641491Y-14401436D02*
X13631967Y-14382388D01*
X13631967Y-14382388D02*
X13622443Y-14344293D01*
X13622443Y-14344293D02*
X13622443Y-14296674D01*
X13622443Y-14296674D02*
X13631967Y-14258579D01*
X13631967Y-14258579D02*
X13641491Y-14239531D01*
X13641491Y-14239531D02*
X13651015Y-14230008D01*
X13651015Y-14230008D02*
X13670062Y-14220484D01*
X13860539Y-14220484D02*
X13879586Y-14220484D01*
X13879586Y-14220484D02*
X13898634Y-14230008D01*
X13898634Y-14230008D02*
X13908158Y-14239531D01*
X13908158Y-14239531D02*
X13917682Y-14258579D01*
X13917682Y-14258579D02*
X13927205Y-14296674D01*
X13927205Y-14296674D02*
X13927205Y-14344293D01*
X13927205Y-14344293D02*
X13917682Y-14382388D01*
X13917682Y-14382388D02*
X13908158Y-14401436D01*
X13908158Y-14401436D02*
X13898634Y-14410960D01*
X13898634Y-14410960D02*
X13879586Y-14420484D01*
X13879586Y-14420484D02*
X13860539Y-14420484D01*
X13860539Y-14420484D02*
X13841491Y-14410960D01*
X13841491Y-14410960D02*
X13831967Y-14401436D01*
X13831967Y-14401436D02*
X13822443Y-14382388D01*
X13822443Y-14382388D02*
X13812920Y-14344293D01*
X13812920Y-14344293D02*
X13812920Y-14296674D01*
X13812920Y-14296674D02*
X13822443Y-14258579D01*
X13822443Y-14258579D02*
X13831967Y-14239531D01*
X13831967Y-14239531D02*
X13841491Y-14230008D01*
X13841491Y-14230008D02*
X13860539Y-14220484D01*
X14012920Y-14420484D02*
X14012920Y-14287150D01*
X14012920Y-14306198D02*
X14022443Y-14296674D01*
X14022443Y-14296674D02*
X14041491Y-14287150D01*
X14041491Y-14287150D02*
X14070063Y-14287150D01*
X14070063Y-14287150D02*
X14089110Y-14296674D01*
X14089110Y-14296674D02*
X14098634Y-14315722D01*
X14098634Y-14315722D02*
X14098634Y-14420484D01*
X14098634Y-14315722D02*
X14108158Y-14296674D01*
X14108158Y-14296674D02*
X14127205Y-14287150D01*
X14127205Y-14287150D02*
X14155777Y-14287150D01*
X14155777Y-14287150D02*
X14174824Y-14296674D01*
X14174824Y-14296674D02*
X14184348Y-14315722D01*
X14184348Y-14315722D02*
X14184348Y-14420484D01*
X14279586Y-14420484D02*
X14279586Y-14287150D01*
X14279586Y-14306198D02*
X14289110Y-14296674D01*
X14289110Y-14296674D02*
X14308158Y-14287150D01*
X14308158Y-14287150D02*
X14336729Y-14287150D01*
X14336729Y-14287150D02*
X14355777Y-14296674D01*
X14355777Y-14296674D02*
X14365301Y-14315722D01*
X14365301Y-14315722D02*
X14365301Y-14420484D01*
X14365301Y-14315722D02*
X14374824Y-14296674D01*
X14374824Y-14296674D02*
X14393872Y-14287150D01*
X14393872Y-14287150D02*
X14422443Y-14287150D01*
X14422443Y-14287150D02*
X14441491Y-14296674D01*
X14441491Y-14296674D02*
X14451015Y-14315722D01*
X14451015Y-14315722D02*
X14451015Y-14420484D01*
X14841491Y-14210960D02*
X14670063Y-14468103D01*
X15098634Y-14220484D02*
X15117682Y-14220484D01*
X15117682Y-14220484D02*
X15136729Y-14230008D01*
X15136729Y-14230008D02*
X15146253Y-14239531D01*
X15146253Y-14239531D02*
X15155777Y-14258579D01*
X15155777Y-14258579D02*
X15165301Y-14296674D01*
X15165301Y-14296674D02*
X15165301Y-14344293D01*
X15165301Y-14344293D02*
X15155777Y-14382388D01*
X15155777Y-14382388D02*
X15146253Y-14401436D01*
X15146253Y-14401436D02*
X15136729Y-14410960D01*
X15136729Y-14410960D02*
X15117682Y-14420484D01*
X15117682Y-14420484D02*
X15098634Y-14420484D01*
X15098634Y-14420484D02*
X15079586Y-14410960D01*
X15079586Y-14410960D02*
X15070063Y-14401436D01*
X15070063Y-14401436D02*
X15060539Y-14382388D01*
X15060539Y-14382388D02*
X15051015Y-14344293D01*
X15051015Y-14344293D02*
X15051015Y-14296674D01*
X15051015Y-14296674D02*
X15060539Y-14258579D01*
X15060539Y-14258579D02*
X15070063Y-14239531D01*
X15070063Y-14239531D02*
X15079586Y-14230008D01*
X15079586Y-14230008D02*
X15098634Y-14220484D01*
X15251015Y-14401436D02*
X15260539Y-14410960D01*
X15260539Y-14410960D02*
X15251015Y-14420484D01*
X15251015Y-14420484D02*
X15241491Y-14410960D01*
X15241491Y-14410960D02*
X15251015Y-14401436D01*
X15251015Y-14401436D02*
X15251015Y-14420484D01*
X15451015Y-14420484D02*
X15336729Y-14420484D01*
X15393872Y-14420484D02*
X15393872Y-14220484D01*
X15393872Y-14220484D02*
X15374825Y-14249055D01*
X15374825Y-14249055D02*
X15355777Y-14268103D01*
X15355777Y-14268103D02*
X15336729Y-14277627D01*
X15527206Y-14239531D02*
X15536729Y-14230008D01*
X15536729Y-14230008D02*
X15555777Y-14220484D01*
X15555777Y-14220484D02*
X15603396Y-14220484D01*
X15603396Y-14220484D02*
X15622444Y-14230008D01*
X15622444Y-14230008D02*
X15631967Y-14239531D01*
X15631967Y-14239531D02*
X15641491Y-14258579D01*
X15641491Y-14258579D02*
X15641491Y-14277627D01*
X15641491Y-14277627D02*
X15631967Y-14306198D01*
X15631967Y-14306198D02*
X15517682Y-14420484D01*
X15517682Y-14420484D02*
X15641491Y-14420484D01*
X15812920Y-14220484D02*
X15774825Y-14220484D01*
X15774825Y-14220484D02*
X15755777Y-14230008D01*
X15755777Y-14230008D02*
X15746253Y-14239531D01*
X15746253Y-14239531D02*
X15727206Y-14268103D01*
X15727206Y-14268103D02*
X15717682Y-14306198D01*
X15717682Y-14306198D02*
X15717682Y-14382388D01*
X15717682Y-14382388D02*
X15727206Y-14401436D01*
X15727206Y-14401436D02*
X15736729Y-14410960D01*
X15736729Y-14410960D02*
X15755777Y-14420484D01*
X15755777Y-14420484D02*
X15793872Y-14420484D01*
X15793872Y-14420484D02*
X15812920Y-14410960D01*
X15812920Y-14410960D02*
X15822444Y-14401436D01*
X15822444Y-14401436D02*
X15831967Y-14382388D01*
X15831967Y-14382388D02*
X15831967Y-14334769D01*
X15831967Y-14334769D02*
X15822444Y-14315722D01*
X15822444Y-14315722D02*
X15812920Y-14306198D01*
X15812920Y-14306198D02*
X15793872Y-14296674D01*
X15793872Y-14296674D02*
X15755777Y-14296674D01*
X15755777Y-14296674D02*
X15736729Y-14306198D01*
X15736729Y-14306198D02*
X15727206Y-14315722D01*
X15727206Y-14315722D02*
X15717682Y-14334769D01*
X15955777Y-14220484D02*
X15974825Y-14220484D01*
X15974825Y-14220484D02*
X15993872Y-14230008D01*
X15993872Y-14230008D02*
X16003396Y-14239531D01*
X16003396Y-14239531D02*
X16012920Y-14258579D01*
X16012920Y-14258579D02*
X16022444Y-14296674D01*
X16022444Y-14296674D02*
X16022444Y-14344293D01*
X16022444Y-14344293D02*
X16012920Y-14382388D01*
X16012920Y-14382388D02*
X16003396Y-14401436D01*
X16003396Y-14401436D02*
X15993872Y-14410960D01*
X15993872Y-14410960D02*
X15974825Y-14420484D01*
X15974825Y-14420484D02*
X15955777Y-14420484D01*
X15955777Y-14420484D02*
X15936729Y-14410960D01*
X15936729Y-14410960D02*
X15927206Y-14401436D01*
X15927206Y-14401436D02*
X15917682Y-14382388D01*
X15917682Y-14382388D02*
X15908158Y-14344293D01*
X15908158Y-14344293D02*
X15908158Y-14296674D01*
X15908158Y-14296674D02*
X15917682Y-14258579D01*
X15917682Y-14258579D02*
X15927206Y-14239531D01*
X15927206Y-14239531D02*
X15936729Y-14230008D01*
X15936729Y-14230008D02*
X15955777Y-14220484D01*
X16098634Y-14220484D02*
X16098634Y-14258579D01*
X16174825Y-14220484D02*
X16174825Y-14258579D01*
X16470063Y-14496674D02*
X16460539Y-14487150D01*
X16460539Y-14487150D02*
X16441491Y-14458579D01*
X16441491Y-14458579D02*
X16431968Y-14439531D01*
X16431968Y-14439531D02*
X16422444Y-14410960D01*
X16422444Y-14410960D02*
X16412920Y-14363341D01*
X16412920Y-14363341D02*
X16412920Y-14325246D01*
X16412920Y-14325246D02*
X16422444Y-14277627D01*
X16422444Y-14277627D02*
X16431968Y-14249055D01*
X16431968Y-14249055D02*
X16441491Y-14230008D01*
X16441491Y-14230008D02*
X16460539Y-14201436D01*
X16460539Y-14201436D02*
X16470063Y-14191912D01*
X16631968Y-14287150D02*
X16631968Y-14420484D01*
X16584348Y-14210960D02*
X16536729Y-14353817D01*
X16536729Y-14353817D02*
X16660539Y-14353817D01*
X16889111Y-14420484D02*
X16889111Y-14220484D01*
X16974825Y-14420484D02*
X16974825Y-14315722D01*
X16974825Y-14315722D02*
X16965301Y-14296674D01*
X16965301Y-14296674D02*
X16946253Y-14287150D01*
X16946253Y-14287150D02*
X16917682Y-14287150D01*
X16917682Y-14287150D02*
X16898634Y-14296674D01*
X16898634Y-14296674D02*
X16889111Y-14306198D01*
X17098634Y-14420484D02*
X17079587Y-14410960D01*
X17079587Y-14410960D02*
X17070063Y-14401436D01*
X17070063Y-14401436D02*
X17060539Y-14382388D01*
X17060539Y-14382388D02*
X17060539Y-14325246D01*
X17060539Y-14325246D02*
X17070063Y-14306198D01*
X17070063Y-14306198D02*
X17079587Y-14296674D01*
X17079587Y-14296674D02*
X17098634Y-14287150D01*
X17098634Y-14287150D02*
X17127206Y-14287150D01*
X17127206Y-14287150D02*
X17146253Y-14296674D01*
X17146253Y-14296674D02*
X17155777Y-14306198D01*
X17155777Y-14306198D02*
X17165301Y-14325246D01*
X17165301Y-14325246D02*
X17165301Y-14382388D01*
X17165301Y-14382388D02*
X17155777Y-14401436D01*
X17155777Y-14401436D02*
X17146253Y-14410960D01*
X17146253Y-14410960D02*
X17127206Y-14420484D01*
X17127206Y-14420484D02*
X17098634Y-14420484D01*
X17279587Y-14420484D02*
X17260539Y-14410960D01*
X17260539Y-14410960D02*
X17251015Y-14391912D01*
X17251015Y-14391912D02*
X17251015Y-14220484D01*
X17431968Y-14410960D02*
X17412920Y-14420484D01*
X17412920Y-14420484D02*
X17374825Y-14420484D01*
X17374825Y-14420484D02*
X17355777Y-14410960D01*
X17355777Y-14410960D02*
X17346253Y-14391912D01*
X17346253Y-14391912D02*
X17346253Y-14315722D01*
X17346253Y-14315722D02*
X17355777Y-14296674D01*
X17355777Y-14296674D02*
X17374825Y-14287150D01*
X17374825Y-14287150D02*
X17412920Y-14287150D01*
X17412920Y-14287150D02*
X17431968Y-14296674D01*
X17431968Y-14296674D02*
X17441492Y-14315722D01*
X17441492Y-14315722D02*
X17441492Y-14334769D01*
X17441492Y-14334769D02*
X17346253Y-14353817D01*
X17517682Y-14410960D02*
X17536730Y-14420484D01*
X17536730Y-14420484D02*
X17574825Y-14420484D01*
X17574825Y-14420484D02*
X17593873Y-14410960D01*
X17593873Y-14410960D02*
X17603396Y-14391912D01*
X17603396Y-14391912D02*
X17603396Y-14382388D01*
X17603396Y-14382388D02*
X17593873Y-14363341D01*
X17593873Y-14363341D02*
X17574825Y-14353817D01*
X17574825Y-14353817D02*
X17546253Y-14353817D01*
X17546253Y-14353817D02*
X17527206Y-14344293D01*
X17527206Y-14344293D02*
X17517682Y-14325246D01*
X17517682Y-14325246D02*
X17517682Y-14315722D01*
X17517682Y-14315722D02*
X17527206Y-14296674D01*
X17527206Y-14296674D02*
X17546253Y-14287150D01*
X17546253Y-14287150D02*
X17574825Y-14287150D01*
X17574825Y-14287150D02*
X17593873Y-14296674D01*
X17670063Y-14496674D02*
X17679587Y-14487150D01*
X17679587Y-14487150D02*
X17698634Y-14458579D01*
X17698634Y-14458579D02*
X17708158Y-14439531D01*
X17708158Y-14439531D02*
X17717682Y-14410960D01*
X17717682Y-14410960D02*
X17727206Y-14363341D01*
X17727206Y-14363341D02*
X17727206Y-14325246D01*
X17727206Y-14325246D02*
X17717682Y-14277627D01*
X17717682Y-14277627D02*
X17708158Y-14249055D01*
X17708158Y-14249055D02*
X17698634Y-14230008D01*
X17698634Y-14230008D02*
X17679587Y-14201436D01*
X17679587Y-14201436D02*
X17670063Y-14191912D01*
M02*
