M48
; DRILL file {KiCad 7.0.6} date Tue Jun 25 21:47:35 2024
; FORMAT={-:-/ absolute / metric / decimal}
; #@! TF.CreationDate,2024-06-25T21:47:35-04:00
; #@! TF.GenerationSoftware,Kicad,Pcbnew,7.0.6
; #@! TF.FileFunction,Plated,1,4,PTH
FMAT,2
METRIC
; #@! TA.AperFunction,Plated,PTH,ViaDrill
T1C0.150
; #@! TA.AperFunction,Plated,PTH,ComponentDrill
T2C0.200
; #@! TA.AperFunction,Plated,PTH,ViaDrill
T3C0.350
; #@! TA.AperFunction,Plated,PTH,ViaDrill
T4C0.400
; #@! TA.AperFunction,Plated,PTH,ComponentDrill
T5C0.600
; #@! TA.AperFunction,Plated,PTH,ComponentDrill
T6C0.650
; #@! TA.AperFunction,Plated,PTH,ComponentDrill
T7C0.750
%
G90
G05
T1
X140.9Y-102.1
X140.9Y-102.7
X140.9Y-95.7
X140.9Y-96.3
X141.4Y-102.4
X141.4Y-103.0
X141.4Y-95.45
X141.4Y-96.0
T2
X141.987Y-98.2
X141.987Y-99.2
X141.987Y-100.2
X142.987Y-98.2
X142.987Y-99.2
X142.987Y-100.2
X143.987Y-98.2
X143.987Y-99.2
X143.987Y-100.2
T3
X130.0Y-84.0
X130.0Y-86.0
X130.0Y-88.0
X130.0Y-94.0
X130.0Y-96.0
X130.0Y-98.0
X130.0Y-100.0
X130.0Y-102.0
X130.0Y-104.0
X130.0Y-106.0
X130.0Y-108.0
X130.0Y-110.0
X130.0Y-112.0
X130.0Y-114.0
X130.0Y-116.0
X134.0Y-80.0
X134.0Y-120.0
X136.0Y-80.0
X136.0Y-120.0
X136.9Y-106.3
X137.1Y-92.3
X137.4Y-107.0
X137.8Y-93.0
X137.9Y-106.3
X138.0Y-80.0
X138.0Y-120.0
X138.4Y-107.0
X138.5Y-92.3
X138.9Y-106.3
X139.4Y-107.0
X139.7Y-119.8
X140.0Y-80.0
X140.5Y-119.8
X140.65Y-105.8
X140.65Y-106.65
X140.7Y-91.7
X140.7Y-92.55
X141.3Y-116.1
X141.3Y-119.8
X141.55Y-105.8
X141.55Y-106.65
X141.6Y-91.7
X141.6Y-92.55
X141.7Y-115.4
X141.7Y-116.8
X142.0Y-80.0
X142.1Y-116.1
X142.1Y-119.8
X142.363Y-102.9
X142.5Y-115.4
X142.5Y-116.8
X142.9Y-93.3
X142.9Y-116.1
X142.9Y-119.8
X143.3Y-115.4
X143.3Y-116.8
X143.6Y-82.3
X143.6Y-83.2
X143.6Y-84.1
X143.7Y-116.1
X143.7Y-119.8
X144.0Y-80.0
X144.5Y-119.8
X144.6Y-88.0
X145.3Y-119.8
X145.5Y-92.9
X145.5Y-96.8
X145.6Y-88.1
X146.0Y-80.0
X146.0Y-90.0
X146.1Y-119.8
X146.6Y-106.8
X146.609Y-104.18
X147.3Y-91.3
X147.682Y-99.407
X147.77Y-103.541
X148.0Y-80.0
X148.0Y-120.0
X148.4Y-111.9
X149.771Y-105.725
X150.0Y-80.0
X150.0Y-120.0
X150.35Y-111.1
X151.4Y-90.8
X152.0Y-80.0
X152.0Y-120.0
X152.1Y-110.9
X152.6Y-99.1
X152.6Y-100.0
X153.4Y-101.7
X154.0Y-80.0
X154.0Y-120.0
X154.1Y-96.0
X154.1Y-97.5
X155.1Y-101.7
X155.6Y-110.8
X155.603Y-89.497
X156.0Y-80.0
X156.0Y-99.3
X156.0Y-120.0
X156.3Y-92.4
X156.459Y-89.772
X156.6Y-82.3
X156.6Y-83.2
X156.6Y-84.1
X156.7Y-102.5
X157.1Y-108.5
X157.428Y-90.191
X157.9Y-101.2
X158.0Y-80.0
X158.0Y-120.0
X158.129Y-102.871
X158.6Y-88.1
X158.9Y-108.2
X159.1Y-102.2
X159.3Y-86.5
X159.4Y-98.1
X160.0Y-80.0
X160.0Y-120.0
X160.565Y-106.365
X160.8Y-86.5
X161.556Y-105.264
X161.7Y-93.474
X162.0Y-80.0
X162.0Y-91.6
X162.0Y-120.0
X162.7Y-93.6
X162.763Y-91.124
X162.9Y-100.6
X163.2Y-102.6
X163.4Y-108.3
X163.9Y-110.4
X164.0Y-80.0
X164.0Y-120.0
X164.741Y-88.5
X164.769Y-89.414
X166.0Y-80.0
X166.0Y-120.0
X167.0Y-88.1
X170.0Y-85.0
X170.0Y-87.0
X170.0Y-89.0
X170.0Y-91.0
X170.0Y-93.0
X170.0Y-95.0
X170.0Y-97.0
X170.0Y-99.0
X170.0Y-101.0
X170.0Y-105.0
X170.0Y-107.0
X170.0Y-109.0
X170.0Y-113.0
X170.0Y-115.0
T4
X130.4Y-90.7
X163.9Y-92.3
X166.737Y-90.059
T6
X165.0Y-91.525
X165.0Y-92.795
X165.0Y-94.065
X165.0Y-95.335
X165.0Y-96.605
X166.27Y-91.525
X166.27Y-92.795
X166.27Y-94.065
X166.27Y-95.335
X166.27Y-96.605
T7
X134.432Y-96.229
X134.432Y-98.229
X134.432Y-100.229
X134.432Y-102.229
X134.45Y-107.3
X134.45Y-109.3
X151.95Y-115.55
X153.95Y-115.55
X155.95Y-115.55
X157.95Y-115.55
T5
G00X164.945Y-102.33
M15
G01X166.045Y-102.33
M16
G05
G00X164.945Y-110.97
M15
G01X166.045Y-110.97
M16
G05
G00X169.275Y-102.33
M15
G01X170.075Y-102.33
M16
G05
G00X169.275Y-110.97
M15
G01X170.075Y-110.97
M16
G05
T0
M30
