%TF.GenerationSoftware,KiCad,Pcbnew,8.0.3*%
%TF.CreationDate,2024-10-17T21:46:58-04:00*%
%TF.ProjectId,Axis_Basic,41786973-5f42-4617-9369-632e6b696361,rev?*%
%TF.SameCoordinates,Original*%
%TF.FileFunction,Copper,L2,Inr*%
%TF.FilePolarity,Positive*%
%FSLAX46Y46*%
G04 Gerber Fmt 4.6, Leading zero omitted, Abs format (unit mm)*
G04 Created by KiCad (PCBNEW 8.0.3) date 2024-10-17 21:46:58*
%MOMM*%
%LPD*%
G01*
G04 APERTURE LIST*
G04 Aperture macros list*
%AMRoundRect*
0 Rectangle with rounded corners*
0 $1 Rounding radius*
0 $2 $3 $4 $5 $6 $7 $8 $9 X,Y pos of 4 corners*
0 Add a 4 corners polygon primitive as box body*
4,1,4,$2,$3,$4,$5,$6,$7,$8,$9,$2,$3,0*
0 Add four circle primitives for the rounded corners*
1,1,$1+$1,$2,$3*
1,1,$1+$1,$4,$5*
1,1,$1+$1,$6,$7*
1,1,$1+$1,$8,$9*
0 Add four rect primitives between the rounded corners*
20,1,$1+$1,$2,$3,$4,$5,0*
20,1,$1+$1,$4,$5,$6,$7,0*
20,1,$1+$1,$6,$7,$8,$9,0*
20,1,$1+$1,$8,$9,$2,$3,0*%
G04 Aperture macros list end*
%TA.AperFunction,ComponentPad*%
%ADD10RoundRect,0.250000X-0.625000X0.350000X-0.625000X-0.350000X0.625000X-0.350000X0.625000X0.350000X0*%
%TD*%
%TA.AperFunction,ComponentPad*%
%ADD11O,1.750000X1.200000*%
%TD*%
%TA.AperFunction,ComponentPad*%
%ADD12C,5.500000*%
%TD*%
%TA.AperFunction,ComponentPad*%
%ADD13C,0.500000*%
%TD*%
%TA.AperFunction,ComponentPad*%
%ADD14O,2.100000X1.000000*%
%TD*%
%TA.AperFunction,ComponentPad*%
%ADD15O,1.800000X1.000000*%
%TD*%
%TA.AperFunction,ViaPad*%
%ADD16C,0.700000*%
%TD*%
%TA.AperFunction,ViaPad*%
%ADD17C,0.800000*%
%TD*%
%TA.AperFunction,ViaPad*%
%ADD18C,0.450000*%
%TD*%
G04 APERTURE END LIST*
D10*
%TO.N,GND*%
%TO.C,J5*%
X134450000Y-107300000D03*
D11*
%TO.N,VCC*%
X134450000Y-109300000D03*
%TD*%
D12*
%TO.N,N/C*%
%TO.C,H1*%
X165500000Y-115500000D03*
%TD*%
D13*
%TO.N,GND*%
%TO.C,U4*%
X141987500Y-100200000D03*
X142987500Y-100200000D03*
X143987500Y-100200000D03*
X141987500Y-99200000D03*
X142987500Y-99200000D03*
X143987500Y-99200000D03*
X141987500Y-98200000D03*
X142987500Y-98200000D03*
X143987500Y-98200000D03*
%TD*%
D10*
%TO.N,MOTOR_A2*%
%TO.C,J2*%
X134432353Y-96229412D03*
D11*
%TO.N,MOTOR_A1*%
X134432353Y-98229412D03*
%TO.N,MOTOR_B1*%
X134432353Y-100229412D03*
%TO.N,MOTOR_B2*%
X134432353Y-102229412D03*
%TD*%
D12*
%TO.N,N/C*%
%TO.C,H4*%
X165500000Y-84500000D03*
%TD*%
%TO.N,N/C*%
%TO.C,H3*%
X134500000Y-84500000D03*
%TD*%
D14*
%TO.N,Net-(J1-SHIELD)*%
%TO.C,J1*%
X165495000Y-110970000D03*
D15*
X169675000Y-110970000D03*
D14*
X165495000Y-102330000D03*
D15*
X169675000Y-102330000D03*
%TD*%
D12*
%TO.N,N/C*%
%TO.C,H2*%
X134500000Y-115500000D03*
%TD*%
D16*
%TO.N,SDA1*%
X144600000Y-88000000D03*
%TO.N,SCL1*%
X145600000Y-88100000D03*
X153700000Y-101400000D03*
%TO.N,SDA1*%
X152790379Y-101390382D03*
%TO.N,+3.3V*%
X152600000Y-99100000D03*
D17*
X154100000Y-108000000D03*
D16*
X143600000Y-84100000D03*
X150900000Y-88700000D03*
X158900000Y-108500000D03*
X140700000Y-118200000D03*
X142100000Y-119000000D03*
X147700000Y-94500000D03*
X143600000Y-83200000D03*
X141200000Y-119000000D03*
X163600000Y-98600000D03*
D17*
X166800000Y-92400000D03*
D16*
X143000000Y-119000000D03*
D17*
X150200000Y-108200000D03*
D16*
X147769514Y-103541417D03*
X141700000Y-118200000D03*
X145500000Y-96800000D03*
X143600000Y-82300000D03*
X161751818Y-94639465D03*
X159971014Y-92300000D03*
%TO.N,GND*%
X154000000Y-80000000D03*
D17*
X142900000Y-93500000D03*
D16*
X138000000Y-120000000D03*
X160000000Y-120000000D03*
X130000000Y-116000000D03*
X134000000Y-80000000D03*
X152600000Y-100000000D03*
X134000000Y-120000000D03*
X144000000Y-80000000D03*
X170000000Y-97000000D03*
X170000000Y-115000000D03*
X164700000Y-98600000D03*
X170000000Y-85000000D03*
X130000000Y-88000000D03*
X150000000Y-120000000D03*
X136000000Y-80000000D03*
X158000000Y-120000000D03*
X137200000Y-90900000D03*
X162000000Y-80000000D03*
X152000000Y-80000000D03*
X138000000Y-80000000D03*
X141800000Y-117100000D03*
X156300000Y-92400000D03*
X130000000Y-92100000D03*
X145200000Y-107200000D03*
X170000000Y-87000000D03*
X159400000Y-98100000D03*
X140800000Y-115500000D03*
X142000000Y-80000000D03*
X160000000Y-108400000D03*
X130000000Y-114000000D03*
X137900000Y-106300000D03*
X130000000Y-96000000D03*
X160900000Y-92300000D03*
X164050000Y-101500000D03*
X158000000Y-80000000D03*
X130000000Y-102000000D03*
X170000000Y-101000000D03*
X170000000Y-95000000D03*
X130000000Y-84000000D03*
X139400000Y-107000000D03*
X145100000Y-92028249D03*
X138400000Y-107000000D03*
X147906974Y-111300000D03*
X150000000Y-80000000D03*
X130000000Y-90100000D03*
X136000000Y-120000000D03*
X146000000Y-80000000D03*
X170000000Y-99000000D03*
X162600000Y-100800000D03*
X130000000Y-98000000D03*
X141800000Y-115500000D03*
X146609266Y-104179912D03*
X170000000Y-93000000D03*
X138600000Y-92100000D03*
X170000000Y-105000000D03*
X130000000Y-108000000D03*
X130000000Y-106000000D03*
X164000000Y-80000000D03*
X138100000Y-112100000D03*
X156000000Y-114500000D03*
X130000000Y-86000000D03*
X166000000Y-80000000D03*
X152000000Y-120000000D03*
X156600000Y-82300000D03*
X140000000Y-80000000D03*
X141300000Y-116300000D03*
X130000000Y-110000000D03*
X156600000Y-84100000D03*
X138900000Y-106300000D03*
X157100000Y-108750000D03*
X142800000Y-115500000D03*
X156000000Y-80000000D03*
X148000000Y-80000000D03*
X170000000Y-91000000D03*
X156600000Y-83200000D03*
X136900000Y-106300000D03*
X165500000Y-92900000D03*
X170000000Y-107000000D03*
X142300000Y-116300000D03*
X147682338Y-99407146D03*
X149600000Y-116500000D03*
X137400000Y-107000000D03*
X170000000Y-109000000D03*
X151400000Y-90800000D03*
X170000000Y-113000000D03*
X170000000Y-89000000D03*
X163900000Y-110400000D03*
X154800000Y-112300000D03*
X160000000Y-80000000D03*
X130000000Y-100000000D03*
X138300000Y-90900000D03*
%TO.N,RESET*%
X162600000Y-97000000D03*
%TO.N,NEOPIX*%
X146800000Y-89100000D03*
X138000000Y-86900000D03*
D18*
%TO.N,MOTOR_A2*%
X141400000Y-95450000D03*
X140900000Y-95700000D03*
X141400000Y-96000000D03*
X140900000Y-96300000D03*
%TO.N,MOTOR_B2*%
X141399970Y-103000000D03*
X140899970Y-102100000D03*
X141399970Y-102400000D03*
X140899970Y-102700000D03*
D16*
%TO.N,SWDIO*%
X157000000Y-96300000D03*
%TO.N,SWCLK*%
X157925000Y-97300111D03*
%TO.N,VUSB_sense*%
X166950000Y-101600000D03*
X161072702Y-100427298D03*
%TO.N,Net-(R13-Pad1)*%
X165900000Y-98600000D03*
X161800000Y-111300000D03*
%TO.N,EN*%
X145300000Y-105479412D03*
X142363000Y-102900000D03*
%TO.N,VCC*%
X141600000Y-91700000D03*
X140700000Y-92550000D03*
X140650000Y-105800000D03*
X140650000Y-106650000D03*
X141600000Y-92550000D03*
X141550000Y-105800000D03*
X141550000Y-106650000D03*
X140700000Y-91700000D03*
%TO.N,AUX6*%
X143900000Y-91800000D03*
X143900000Y-94900000D03*
%TO.N,SYNC*%
X154700000Y-105200000D03*
X150100000Y-113700000D03*
%TD*%
%TA.AperFunction,Conductor*%
%TO.N,GND*%
G36*
X165500642Y-79000007D02*
G01*
X165735302Y-79002565D01*
X165744734Y-79003029D01*
X166212846Y-79043984D01*
X166223567Y-79045396D01*
X166685664Y-79126875D01*
X166696192Y-79129209D01*
X167149458Y-79250661D01*
X167159747Y-79253906D01*
X167600688Y-79414395D01*
X167610654Y-79418523D01*
X168035926Y-79616830D01*
X168045512Y-79621821D01*
X168451866Y-79856429D01*
X168460985Y-79862238D01*
X168845353Y-80131376D01*
X168853935Y-80137962D01*
X169213370Y-80439564D01*
X169221345Y-80446872D01*
X169553127Y-80778654D01*
X169560435Y-80786629D01*
X169862037Y-81146064D01*
X169868623Y-81154646D01*
X170137761Y-81539014D01*
X170143573Y-81548138D01*
X170378176Y-81954483D01*
X170383171Y-81964078D01*
X170581470Y-82389331D01*
X170585610Y-82399326D01*
X170746089Y-82840239D01*
X170749342Y-82850555D01*
X170870786Y-83303790D01*
X170873127Y-83314352D01*
X170954603Y-83776432D01*
X170956015Y-83787156D01*
X170996969Y-84255252D01*
X170997434Y-84264708D01*
X170999993Y-84499357D01*
X171000000Y-84500709D01*
X171000000Y-102130651D01*
X170980315Y-102197690D01*
X170927511Y-102243445D01*
X170858353Y-102253389D01*
X170794797Y-102224364D01*
X170757023Y-102165586D01*
X170754383Y-102154843D01*
X170748581Y-102125677D01*
X170748580Y-102125676D01*
X170748580Y-102125672D01*
X170737947Y-102100002D01*
X170695778Y-101998195D01*
X170695771Y-101998182D01*
X170619114Y-101883458D01*
X170619111Y-101883454D01*
X170521545Y-101785888D01*
X170521541Y-101785885D01*
X170406817Y-101709228D01*
X170406804Y-101709221D01*
X170279332Y-101656421D01*
X170279322Y-101656418D01*
X170143995Y-101629500D01*
X170143993Y-101629500D01*
X169206007Y-101629500D01*
X169206005Y-101629500D01*
X169070677Y-101656418D01*
X169070667Y-101656421D01*
X168943195Y-101709221D01*
X168943182Y-101709228D01*
X168828458Y-101785885D01*
X168828454Y-101785888D01*
X168730888Y-101883454D01*
X168730885Y-101883458D01*
X168654228Y-101998182D01*
X168654221Y-101998195D01*
X168601421Y-102125667D01*
X168601418Y-102125677D01*
X168574500Y-102261004D01*
X168574500Y-102261007D01*
X168574500Y-102398993D01*
X168574500Y-102398995D01*
X168574499Y-102398995D01*
X168601418Y-102534322D01*
X168601421Y-102534332D01*
X168654221Y-102661804D01*
X168654228Y-102661817D01*
X168730885Y-102776541D01*
X168730888Y-102776545D01*
X168828454Y-102874111D01*
X168828458Y-102874114D01*
X168943182Y-102950771D01*
X168943195Y-102950778D01*
X169059977Y-102999150D01*
X169070672Y-103003580D01*
X169070676Y-103003580D01*
X169070677Y-103003581D01*
X169206004Y-103030500D01*
X169206007Y-103030500D01*
X170143995Y-103030500D01*
X170235041Y-103012389D01*
X170279328Y-103003580D01*
X170406811Y-102950775D01*
X170521542Y-102874114D01*
X170619114Y-102776542D01*
X170695775Y-102661811D01*
X170699334Y-102653220D01*
X170748578Y-102534332D01*
X170748580Y-102534328D01*
X170754383Y-102505157D01*
X170786768Y-102443246D01*
X170847483Y-102408672D01*
X170917253Y-102412411D01*
X170973925Y-102453278D01*
X170999506Y-102518296D01*
X171000000Y-102529348D01*
X171000000Y-110770651D01*
X170980315Y-110837690D01*
X170927511Y-110883445D01*
X170858353Y-110893389D01*
X170794797Y-110864364D01*
X170757023Y-110805586D01*
X170754383Y-110794843D01*
X170748581Y-110765677D01*
X170748580Y-110765676D01*
X170748580Y-110765672D01*
X170739914Y-110744750D01*
X170695778Y-110638195D01*
X170695771Y-110638182D01*
X170619114Y-110523458D01*
X170619111Y-110523454D01*
X170521545Y-110425888D01*
X170521541Y-110425885D01*
X170406817Y-110349228D01*
X170406804Y-110349221D01*
X170279332Y-110296421D01*
X170279322Y-110296418D01*
X170143995Y-110269500D01*
X170143993Y-110269500D01*
X169206007Y-110269500D01*
X169206005Y-110269500D01*
X169070677Y-110296418D01*
X169070667Y-110296421D01*
X168943195Y-110349221D01*
X168943182Y-110349228D01*
X168828458Y-110425885D01*
X168828454Y-110425888D01*
X168730888Y-110523454D01*
X168730885Y-110523458D01*
X168654228Y-110638182D01*
X168654221Y-110638195D01*
X168601421Y-110765667D01*
X168601418Y-110765677D01*
X168574500Y-110901004D01*
X168574500Y-110901007D01*
X168574500Y-111038993D01*
X168574500Y-111038995D01*
X168574499Y-111038995D01*
X168601418Y-111174322D01*
X168601421Y-111174332D01*
X168654221Y-111301804D01*
X168654228Y-111301817D01*
X168730885Y-111416541D01*
X168730888Y-111416545D01*
X168828454Y-111514111D01*
X168828458Y-111514114D01*
X168943182Y-111590771D01*
X168943195Y-111590778D01*
X169070667Y-111643578D01*
X169070672Y-111643580D01*
X169070676Y-111643580D01*
X169070677Y-111643581D01*
X169206004Y-111670500D01*
X169206007Y-111670500D01*
X170143995Y-111670500D01*
X170235041Y-111652389D01*
X170279328Y-111643580D01*
X170406811Y-111590775D01*
X170521542Y-111514114D01*
X170619114Y-111416542D01*
X170695775Y-111301811D01*
X170748580Y-111174328D01*
X170754383Y-111145157D01*
X170786768Y-111083246D01*
X170847483Y-111048672D01*
X170917253Y-111052411D01*
X170973925Y-111093278D01*
X170999506Y-111158296D01*
X171000000Y-111169348D01*
X171000000Y-115499290D01*
X170999993Y-115500642D01*
X170997434Y-115735291D01*
X170996969Y-115744747D01*
X170956015Y-116212843D01*
X170954603Y-116223567D01*
X170873127Y-116685647D01*
X170870786Y-116696209D01*
X170749342Y-117149444D01*
X170746089Y-117159760D01*
X170585610Y-117600673D01*
X170581470Y-117610668D01*
X170383171Y-118035921D01*
X170378176Y-118045516D01*
X170143573Y-118451861D01*
X170137761Y-118460985D01*
X169868623Y-118845353D01*
X169862037Y-118853935D01*
X169560435Y-119213370D01*
X169553127Y-119221345D01*
X169221345Y-119553127D01*
X169213370Y-119560435D01*
X168853935Y-119862037D01*
X168845353Y-119868623D01*
X168460985Y-120137761D01*
X168451861Y-120143573D01*
X168045516Y-120378176D01*
X168035921Y-120383171D01*
X167610668Y-120581470D01*
X167600673Y-120585610D01*
X167159760Y-120746089D01*
X167149444Y-120749342D01*
X166696209Y-120870786D01*
X166685647Y-120873127D01*
X166223567Y-120954603D01*
X166212843Y-120956015D01*
X165744747Y-120996969D01*
X165735291Y-120997434D01*
X165500642Y-120999993D01*
X165499290Y-121000000D01*
X134500710Y-121000000D01*
X134499358Y-120999993D01*
X134264708Y-120997434D01*
X134255252Y-120996969D01*
X133787156Y-120956015D01*
X133776432Y-120954603D01*
X133314352Y-120873127D01*
X133303790Y-120870786D01*
X132850555Y-120749342D01*
X132840239Y-120746089D01*
X132399326Y-120585610D01*
X132389331Y-120581470D01*
X131964078Y-120383171D01*
X131954483Y-120378176D01*
X131548138Y-120143573D01*
X131539014Y-120137761D01*
X131154646Y-119868623D01*
X131146064Y-119862037D01*
X130786629Y-119560435D01*
X130778654Y-119553127D01*
X130446872Y-119221345D01*
X130439564Y-119213370D01*
X130137962Y-118853935D01*
X130131376Y-118845353D01*
X129972657Y-118618679D01*
X129862235Y-118460981D01*
X129856426Y-118451861D01*
X129855640Y-118450500D01*
X129621821Y-118045512D01*
X129616828Y-118035921D01*
X129418523Y-117610654D01*
X129414395Y-117600688D01*
X129253906Y-117159747D01*
X129250661Y-117149458D01*
X129129209Y-116696192D01*
X129126875Y-116685664D01*
X129045396Y-116223567D01*
X129043984Y-116212843D01*
X129003029Y-115744734D01*
X129002565Y-115735291D01*
X129000007Y-115500642D01*
X129000004Y-115499996D01*
X131544500Y-115499996D01*
X131544500Y-115500003D01*
X131564484Y-115843113D01*
X131564485Y-115843124D01*
X131624163Y-116181575D01*
X131624166Y-116181588D01*
X131722737Y-116510840D01*
X131858865Y-116826417D01*
X131858871Y-116826430D01*
X132030716Y-117124075D01*
X132235952Y-117399755D01*
X132235957Y-117399761D01*
X132357767Y-117528871D01*
X132471813Y-117649753D01*
X132471819Y-117649758D01*
X132471821Y-117649760D01*
X132735093Y-117870672D01*
X132735098Y-117870675D01*
X133022250Y-118059538D01*
X133124329Y-118110804D01*
X133329378Y-118213785D01*
X133329384Y-118213787D01*
X133329386Y-118213788D01*
X133652353Y-118331338D01*
X133986783Y-118410599D01*
X134328153Y-118450500D01*
X134328160Y-118450500D01*
X134671840Y-118450500D01*
X134671847Y-118450500D01*
X135013217Y-118410599D01*
X135347647Y-118331338D01*
X135670614Y-118213788D01*
X135670617Y-118213786D01*
X135670621Y-118213785D01*
X135698070Y-118199999D01*
X140144750Y-118199999D01*
X140144750Y-118200000D01*
X140163670Y-118343708D01*
X140163671Y-118343712D01*
X140219137Y-118477622D01*
X140219138Y-118477624D01*
X140219139Y-118477625D01*
X140307379Y-118592621D01*
X140422375Y-118680861D01*
X140556291Y-118736330D01*
X140556297Y-118736330D01*
X140564141Y-118738433D01*
X140563673Y-118740176D01*
X140618319Y-118764348D01*
X140656792Y-118822671D01*
X140661179Y-118875208D01*
X140644750Y-118999997D01*
X140644750Y-119000000D01*
X140663670Y-119143708D01*
X140663671Y-119143712D01*
X140719137Y-119277622D01*
X140719138Y-119277624D01*
X140719139Y-119277625D01*
X140807379Y-119392621D01*
X140922375Y-119480861D01*
X141056291Y-119536330D01*
X141183280Y-119553048D01*
X141199999Y-119555250D01*
X141200000Y-119555250D01*
X141200001Y-119555250D01*
X141216125Y-119553127D01*
X141343709Y-119536330D01*
X141477625Y-119480861D01*
X141574515Y-119406514D01*
X141639682Y-119381321D01*
X141708127Y-119395359D01*
X141725480Y-119406510D01*
X141822375Y-119480861D01*
X141956291Y-119536330D01*
X142083280Y-119553048D01*
X142099999Y-119555250D01*
X142100000Y-119555250D01*
X142100001Y-119555250D01*
X142116125Y-119553127D01*
X142243709Y-119536330D01*
X142377625Y-119480861D01*
X142474515Y-119406514D01*
X142539682Y-119381321D01*
X142608127Y-119395359D01*
X142625480Y-119406510D01*
X142722375Y-119480861D01*
X142856291Y-119536330D01*
X142983280Y-119553048D01*
X142999999Y-119555250D01*
X143000000Y-119555250D01*
X143000001Y-119555250D01*
X143016125Y-119553127D01*
X143143709Y-119536330D01*
X143277625Y-119480861D01*
X143392621Y-119392621D01*
X143480861Y-119277625D01*
X143536330Y-119143709D01*
X143555250Y-119000000D01*
X143536330Y-118856291D01*
X143486641Y-118736330D01*
X143480862Y-118722377D01*
X143480861Y-118722376D01*
X143480861Y-118722375D01*
X143392621Y-118607379D01*
X143277625Y-118519139D01*
X143277624Y-118519138D01*
X143277622Y-118519137D01*
X143143712Y-118463671D01*
X143143710Y-118463670D01*
X143143709Y-118463670D01*
X143071854Y-118454210D01*
X143000001Y-118444750D01*
X142999999Y-118444750D01*
X142856291Y-118463670D01*
X142856287Y-118463671D01*
X142722377Y-118519137D01*
X142687581Y-118545836D01*
X142625484Y-118593485D01*
X142560318Y-118618679D01*
X142491873Y-118604641D01*
X142474519Y-118593489D01*
X142377625Y-118519139D01*
X142377624Y-118519138D01*
X142377622Y-118519137D01*
X142308602Y-118490549D01*
X142254198Y-118446709D01*
X142232133Y-118380415D01*
X142235385Y-118351781D01*
X142235269Y-118351766D01*
X142236126Y-118345251D01*
X142236282Y-118343884D01*
X142236324Y-118343721D01*
X142236330Y-118343709D01*
X142255250Y-118200000D01*
X142236330Y-118056291D01*
X142180861Y-117922375D01*
X142092621Y-117807379D01*
X141977625Y-117719139D01*
X141977624Y-117719138D01*
X141977622Y-117719137D01*
X141843712Y-117663671D01*
X141843710Y-117663670D01*
X141843709Y-117663670D01*
X141738001Y-117649753D01*
X141700001Y-117644750D01*
X141699999Y-117644750D01*
X141556291Y-117663670D01*
X141556287Y-117663671D01*
X141422377Y-117719137D01*
X141364877Y-117763259D01*
X141307379Y-117807379D01*
X141307378Y-117807380D01*
X141307377Y-117807381D01*
X141298375Y-117819113D01*
X141241947Y-117860316D01*
X141172201Y-117864470D01*
X141111281Y-117830257D01*
X141101625Y-117819113D01*
X141099782Y-117816711D01*
X141092621Y-117807379D01*
X140977625Y-117719139D01*
X140977624Y-117719138D01*
X140977622Y-117719137D01*
X140843712Y-117663671D01*
X140843710Y-117663670D01*
X140843709Y-117663670D01*
X140738001Y-117649753D01*
X140700001Y-117644750D01*
X140699999Y-117644750D01*
X140556291Y-117663670D01*
X140556287Y-117663671D01*
X140422377Y-117719137D01*
X140307379Y-117807379D01*
X140219137Y-117922377D01*
X140163671Y-118056287D01*
X140163670Y-118056291D01*
X140144750Y-118199999D01*
X135698070Y-118199999D01*
X135774487Y-118161620D01*
X135977750Y-118059538D01*
X136264902Y-117870675D01*
X136277248Y-117860316D01*
X136511601Y-117663670D01*
X136528187Y-117649753D01*
X136764044Y-117399759D01*
X136969284Y-117124074D01*
X137141131Y-116826426D01*
X137277262Y-116510841D01*
X137375834Y-116181585D01*
X137435516Y-115843113D01*
X137455500Y-115500000D01*
X137455500Y-115499996D01*
X162544500Y-115499996D01*
X162544500Y-115500003D01*
X162564484Y-115843113D01*
X162564485Y-115843124D01*
X162624163Y-116181575D01*
X162624166Y-116181588D01*
X162722737Y-116510840D01*
X162858865Y-116826417D01*
X162858871Y-116826430D01*
X163030716Y-117124075D01*
X163235952Y-117399755D01*
X163235957Y-117399761D01*
X163357767Y-117528871D01*
X163471813Y-117649753D01*
X163471819Y-117649758D01*
X163471821Y-117649760D01*
X163735093Y-117870672D01*
X163735098Y-117870675D01*
X164022250Y-118059538D01*
X164124329Y-118110804D01*
X164329378Y-118213785D01*
X164329384Y-118213787D01*
X164329386Y-118213788D01*
X164652353Y-118331338D01*
X164986783Y-118410599D01*
X165328153Y-118450500D01*
X165328160Y-118450500D01*
X165671840Y-118450500D01*
X165671847Y-118450500D01*
X166013217Y-118410599D01*
X166347647Y-118331338D01*
X166670614Y-118213788D01*
X166670617Y-118213786D01*
X166670621Y-118213785D01*
X166774487Y-118161620D01*
X166977750Y-118059538D01*
X167264902Y-117870675D01*
X167277248Y-117860316D01*
X167511601Y-117663670D01*
X167528187Y-117649753D01*
X167764044Y-117399759D01*
X167969284Y-117124074D01*
X168141131Y-116826426D01*
X168277262Y-116510841D01*
X168375834Y-116181585D01*
X168435516Y-115843113D01*
X168455500Y-115500000D01*
X168435516Y-115156887D01*
X168375834Y-114818415D01*
X168277262Y-114489159D01*
X168141131Y-114173574D01*
X167969284Y-113875926D01*
X167945302Y-113843712D01*
X167764047Y-113600244D01*
X167764042Y-113600238D01*
X167596236Y-113422375D01*
X167528187Y-113350247D01*
X167528180Y-113350241D01*
X167528178Y-113350239D01*
X167264906Y-113129327D01*
X167121326Y-113034893D01*
X166977750Y-112940462D01*
X166975956Y-112939561D01*
X166670621Y-112786214D01*
X166670615Y-112786212D01*
X166347648Y-112668662D01*
X166347645Y-112668661D01*
X166013218Y-112589401D01*
X165970545Y-112584413D01*
X165671847Y-112549500D01*
X165328153Y-112549500D01*
X165029454Y-112584413D01*
X164986782Y-112589401D01*
X164986780Y-112589401D01*
X164652354Y-112668661D01*
X164652351Y-112668662D01*
X164329384Y-112786212D01*
X164329378Y-112786214D01*
X164022253Y-112940460D01*
X163735093Y-113129327D01*
X163471821Y-113350239D01*
X163471811Y-113350249D01*
X163235957Y-113600238D01*
X163235952Y-113600244D01*
X163030716Y-113875924D01*
X162858871Y-114173569D01*
X162858865Y-114173582D01*
X162722737Y-114489159D01*
X162624166Y-114818411D01*
X162624163Y-114818424D01*
X162564485Y-115156875D01*
X162564484Y-115156886D01*
X162544500Y-115499996D01*
X137455500Y-115499996D01*
X137435516Y-115156887D01*
X137375834Y-114818415D01*
X137277262Y-114489159D01*
X137141131Y-114173574D01*
X136969284Y-113875926D01*
X136945302Y-113843712D01*
X136838312Y-113699999D01*
X149544750Y-113699999D01*
X149544750Y-113700000D01*
X149563670Y-113843708D01*
X149563671Y-113843712D01*
X149619137Y-113977622D01*
X149619138Y-113977624D01*
X149619139Y-113977625D01*
X149707379Y-114092621D01*
X149822375Y-114180861D01*
X149956291Y-114236330D01*
X150083280Y-114253048D01*
X150099999Y-114255250D01*
X150100000Y-114255250D01*
X150100001Y-114255250D01*
X150114977Y-114253278D01*
X150243709Y-114236330D01*
X150377625Y-114180861D01*
X150492621Y-114092621D01*
X150580861Y-113977625D01*
X150636330Y-113843709D01*
X150655250Y-113700000D01*
X150636330Y-113556291D01*
X150580861Y-113422375D01*
X150492621Y-113307379D01*
X150377625Y-113219139D01*
X150377624Y-113219138D01*
X150377622Y-113219137D01*
X150243712Y-113163671D01*
X150243710Y-113163670D01*
X150243709Y-113163670D01*
X150171854Y-113154210D01*
X150100001Y-113144750D01*
X150099999Y-113144750D01*
X149956291Y-113163670D01*
X149956287Y-113163671D01*
X149822377Y-113219137D01*
X149707379Y-113307379D01*
X149619137Y-113422377D01*
X149563671Y-113556287D01*
X149563670Y-113556291D01*
X149544750Y-113699999D01*
X136838312Y-113699999D01*
X136764047Y-113600244D01*
X136764042Y-113600238D01*
X136596236Y-113422375D01*
X136528187Y-113350247D01*
X136528180Y-113350241D01*
X136528178Y-113350239D01*
X136264906Y-113129327D01*
X136121326Y-113034893D01*
X135977750Y-112940462D01*
X135975956Y-112939561D01*
X135670621Y-112786214D01*
X135670615Y-112786212D01*
X135347648Y-112668662D01*
X135347645Y-112668661D01*
X135013218Y-112589401D01*
X134970545Y-112584413D01*
X134671847Y-112549500D01*
X134328153Y-112549500D01*
X134029454Y-112584413D01*
X133986782Y-112589401D01*
X133986780Y-112589401D01*
X133652354Y-112668661D01*
X133652351Y-112668662D01*
X133329384Y-112786212D01*
X133329378Y-112786214D01*
X133022253Y-112940460D01*
X132735093Y-113129327D01*
X132471821Y-113350239D01*
X132471811Y-113350249D01*
X132235957Y-113600238D01*
X132235952Y-113600244D01*
X132030716Y-113875924D01*
X131858871Y-114173569D01*
X131858865Y-114173582D01*
X131722737Y-114489159D01*
X131624166Y-114818411D01*
X131624163Y-114818424D01*
X131564485Y-115156875D01*
X131564484Y-115156886D01*
X131544500Y-115499996D01*
X129000004Y-115499996D01*
X129000000Y-115499290D01*
X129000000Y-111299999D01*
X161244750Y-111299999D01*
X161244750Y-111300000D01*
X161263670Y-111443708D01*
X161263671Y-111443712D01*
X161319137Y-111577622D01*
X161319138Y-111577624D01*
X161319139Y-111577625D01*
X161407379Y-111692621D01*
X161522375Y-111780861D01*
X161656291Y-111836330D01*
X161783280Y-111853048D01*
X161799999Y-111855250D01*
X161800000Y-111855250D01*
X161800001Y-111855250D01*
X161814977Y-111853278D01*
X161943709Y-111836330D01*
X162077625Y-111780861D01*
X162192621Y-111692621D01*
X162280861Y-111577625D01*
X162336330Y-111443709D01*
X162355250Y-111300000D01*
X162336330Y-111156291D01*
X162287745Y-111038995D01*
X164244499Y-111038995D01*
X164271418Y-111174322D01*
X164271421Y-111174332D01*
X164324221Y-111301804D01*
X164324228Y-111301817D01*
X164400885Y-111416541D01*
X164400888Y-111416545D01*
X164498454Y-111514111D01*
X164498458Y-111514114D01*
X164613182Y-111590771D01*
X164613195Y-111590778D01*
X164740667Y-111643578D01*
X164740672Y-111643580D01*
X164740676Y-111643580D01*
X164740677Y-111643581D01*
X164876004Y-111670500D01*
X164876007Y-111670500D01*
X166113995Y-111670500D01*
X166205041Y-111652389D01*
X166249328Y-111643580D01*
X166376811Y-111590775D01*
X166491542Y-111514114D01*
X166589114Y-111416542D01*
X166665775Y-111301811D01*
X166718580Y-111174328D01*
X166734702Y-111093278D01*
X166745500Y-111038995D01*
X166745500Y-110901004D01*
X166718581Y-110765677D01*
X166718580Y-110765676D01*
X166718580Y-110765672D01*
X166709914Y-110744750D01*
X166665778Y-110638195D01*
X166665771Y-110638182D01*
X166589114Y-110523458D01*
X166589111Y-110523454D01*
X166491545Y-110425888D01*
X166491541Y-110425885D01*
X166376817Y-110349228D01*
X166376804Y-110349221D01*
X166245536Y-110294849D01*
X166191132Y-110251008D01*
X166169067Y-110184714D01*
X166186346Y-110117015D01*
X166230988Y-110072901D01*
X166246917Y-110063703D01*
X166350821Y-110003715D01*
X166458715Y-109895821D01*
X166535008Y-109763678D01*
X166574500Y-109616293D01*
X166574500Y-109463707D01*
X166535008Y-109316322D01*
X166458715Y-109184179D01*
X166350821Y-109076285D01*
X166350819Y-109076284D01*
X166350817Y-109076282D01*
X166218681Y-108999993D01*
X166218682Y-108999993D01*
X166206595Y-108996754D01*
X166071293Y-108960500D01*
X165918707Y-108960500D01*
X165783404Y-108996754D01*
X165771318Y-108999993D01*
X165639182Y-109076282D01*
X165639176Y-109076287D01*
X165531287Y-109184176D01*
X165531282Y-109184182D01*
X165454993Y-109316318D01*
X165454992Y-109316322D01*
X165415500Y-109463707D01*
X165415500Y-109616293D01*
X165454992Y-109763678D01*
X165454993Y-109763681D01*
X165531282Y-109895817D01*
X165531284Y-109895819D01*
X165531285Y-109895821D01*
X165639179Y-110003715D01*
X165698758Y-110038113D01*
X165746973Y-110088681D01*
X165760195Y-110157288D01*
X165734227Y-110222152D01*
X165677313Y-110262680D01*
X165636757Y-110269500D01*
X164876005Y-110269500D01*
X164740677Y-110296418D01*
X164740667Y-110296421D01*
X164613195Y-110349221D01*
X164613182Y-110349228D01*
X164498458Y-110425885D01*
X164498454Y-110425888D01*
X164400888Y-110523454D01*
X164400885Y-110523458D01*
X164324228Y-110638182D01*
X164324221Y-110638195D01*
X164271421Y-110765667D01*
X164271418Y-110765677D01*
X164244500Y-110901004D01*
X164244500Y-110901007D01*
X164244500Y-111038993D01*
X164244500Y-111038995D01*
X164244499Y-111038995D01*
X162287745Y-111038995D01*
X162280861Y-111022375D01*
X162192621Y-110907379D01*
X162077625Y-110819139D01*
X162077624Y-110819138D01*
X162077622Y-110819137D01*
X161943712Y-110763671D01*
X161943710Y-110763670D01*
X161943709Y-110763670D01*
X161871854Y-110754210D01*
X161800001Y-110744750D01*
X161799999Y-110744750D01*
X161656291Y-110763670D01*
X161656287Y-110763671D01*
X161522377Y-110819137D01*
X161407379Y-110907379D01*
X161319137Y-111022377D01*
X161263671Y-111156287D01*
X161263670Y-111156291D01*
X161244750Y-111299999D01*
X129000000Y-111299999D01*
X129000000Y-106900013D01*
X133075000Y-106900013D01*
X133075000Y-107050000D01*
X134169670Y-107050000D01*
X134149925Y-107069745D01*
X134100556Y-107155255D01*
X134075000Y-107250630D01*
X134075000Y-107349370D01*
X134100556Y-107444745D01*
X134149925Y-107530255D01*
X134169670Y-107550000D01*
X133075001Y-107550000D01*
X133075001Y-107699986D01*
X133085494Y-107802697D01*
X133140641Y-107969119D01*
X133140643Y-107969124D01*
X133232684Y-108118345D01*
X133356654Y-108242315D01*
X133505875Y-108334356D01*
X133505880Y-108334358D01*
X133672302Y-108389505D01*
X133672310Y-108389506D01*
X133697694Y-108392100D01*
X133762386Y-108418496D01*
X133802538Y-108475677D01*
X133805401Y-108545488D01*
X133770067Y-108605764D01*
X133753983Y-108618560D01*
X133664711Y-108678210D01*
X133664707Y-108678213D01*
X133553213Y-108789707D01*
X133553210Y-108789711D01*
X133465609Y-108920814D01*
X133465602Y-108920827D01*
X133405264Y-109066498D01*
X133405261Y-109066510D01*
X133374500Y-109221153D01*
X133374500Y-109378846D01*
X133405261Y-109533489D01*
X133405264Y-109533501D01*
X133465602Y-109679172D01*
X133465609Y-109679185D01*
X133553210Y-109810288D01*
X133553213Y-109810292D01*
X133664707Y-109921786D01*
X133664711Y-109921789D01*
X133795814Y-110009390D01*
X133795827Y-110009397D01*
X133865155Y-110038113D01*
X133941503Y-110069737D01*
X134096153Y-110100499D01*
X134096156Y-110100500D01*
X134096158Y-110100500D01*
X134803844Y-110100500D01*
X134803845Y-110100499D01*
X134958497Y-110069737D01*
X135104179Y-110009394D01*
X135235289Y-109921789D01*
X135346789Y-109810289D01*
X135434394Y-109679179D01*
X135494737Y-109533497D01*
X135525500Y-109378842D01*
X135525500Y-109221158D01*
X135525500Y-109221155D01*
X135525499Y-109221153D01*
X135496683Y-109076287D01*
X135494737Y-109066503D01*
X135467188Y-108999993D01*
X135434397Y-108920827D01*
X135434390Y-108920814D01*
X135346789Y-108789711D01*
X135346786Y-108789707D01*
X135235292Y-108678213D01*
X135235288Y-108678210D01*
X135146015Y-108618559D01*
X135101210Y-108564946D01*
X135092503Y-108495621D01*
X135122658Y-108432594D01*
X135182101Y-108395875D01*
X135202308Y-108392099D01*
X135227696Y-108389506D01*
X135394119Y-108334358D01*
X135394124Y-108334356D01*
X135543345Y-108242315D01*
X135585662Y-108199998D01*
X149594318Y-108199998D01*
X149594318Y-108200001D01*
X149614955Y-108356760D01*
X149614956Y-108356762D01*
X149629593Y-108392100D01*
X149675464Y-108502841D01*
X149771718Y-108628282D01*
X149897159Y-108724536D01*
X150043238Y-108785044D01*
X150078688Y-108789711D01*
X150199999Y-108805682D01*
X150200000Y-108805682D01*
X150200001Y-108805682D01*
X150252254Y-108798802D01*
X150356762Y-108785044D01*
X150502841Y-108724536D01*
X150628282Y-108628282D01*
X150724536Y-108502841D01*
X150785044Y-108356762D01*
X150805682Y-108200000D01*
X150799989Y-108156760D01*
X150785044Y-108043239D01*
X150785044Y-108043238D01*
X150767133Y-107999998D01*
X153494318Y-107999998D01*
X153494318Y-108000001D01*
X153514955Y-108156760D01*
X153514956Y-108156762D01*
X153575464Y-108302841D01*
X153671718Y-108428282D01*
X153797159Y-108524536D01*
X153943238Y-108585044D01*
X153985486Y-108590606D01*
X154099999Y-108605682D01*
X154100000Y-108605682D01*
X154100001Y-108605682D01*
X154152254Y-108598802D01*
X154256762Y-108585044D01*
X154402841Y-108524536D01*
X154434817Y-108500000D01*
X158344750Y-108500000D01*
X158355946Y-108585044D01*
X158363670Y-108643708D01*
X158363671Y-108643712D01*
X158419137Y-108777622D01*
X158419138Y-108777624D01*
X158419139Y-108777625D01*
X158507379Y-108892621D01*
X158622375Y-108980861D01*
X158756291Y-109036330D01*
X158883280Y-109053048D01*
X158899999Y-109055250D01*
X158900000Y-109055250D01*
X158900001Y-109055250D01*
X158914977Y-109053278D01*
X159043709Y-109036330D01*
X159177625Y-108980861D01*
X159292621Y-108892621D01*
X159380861Y-108777625D01*
X159436330Y-108643709D01*
X159455250Y-108500000D01*
X159454673Y-108495621D01*
X159452048Y-108475677D01*
X159436330Y-108356291D01*
X159380861Y-108222375D01*
X159292621Y-108107379D01*
X159177625Y-108019139D01*
X159177624Y-108019138D01*
X159177622Y-108019137D01*
X159043712Y-107963671D01*
X159043710Y-107963670D01*
X159043709Y-107963670D01*
X158971854Y-107954210D01*
X158900001Y-107944750D01*
X158899999Y-107944750D01*
X158756291Y-107963670D01*
X158756287Y-107963671D01*
X158622377Y-108019137D01*
X158507379Y-108107379D01*
X158419137Y-108222377D01*
X158363671Y-108356287D01*
X158363670Y-108356291D01*
X158345327Y-108495621D01*
X158344750Y-108500000D01*
X154434817Y-108500000D01*
X154528282Y-108428282D01*
X154624536Y-108302841D01*
X154685044Y-108156762D01*
X154705682Y-108000000D01*
X154701616Y-107969119D01*
X154685044Y-107843239D01*
X154685044Y-107843238D01*
X154624536Y-107697159D01*
X154528282Y-107571718D01*
X154402841Y-107475464D01*
X154256762Y-107414956D01*
X154256760Y-107414955D01*
X154100001Y-107394318D01*
X154099999Y-107394318D01*
X153943239Y-107414955D01*
X153943237Y-107414956D01*
X153797160Y-107475463D01*
X153671718Y-107571718D01*
X153575463Y-107697160D01*
X153514956Y-107843237D01*
X153514955Y-107843239D01*
X153494318Y-107999998D01*
X150767133Y-107999998D01*
X150724536Y-107897159D01*
X150628282Y-107771718D01*
X150502841Y-107675464D01*
X150356762Y-107614956D01*
X150356760Y-107614955D01*
X150200001Y-107594318D01*
X150199999Y-107594318D01*
X150043239Y-107614955D01*
X150043237Y-107614956D01*
X149897160Y-107675463D01*
X149771718Y-107771718D01*
X149675463Y-107897160D01*
X149614956Y-108043237D01*
X149614955Y-108043239D01*
X149594318Y-108199998D01*
X135585662Y-108199998D01*
X135667315Y-108118345D01*
X135759356Y-107969124D01*
X135759358Y-107969119D01*
X135814505Y-107802697D01*
X135814506Y-107802690D01*
X135824999Y-107699986D01*
X135825000Y-107699973D01*
X135825000Y-107550000D01*
X134730330Y-107550000D01*
X134750075Y-107530255D01*
X134799444Y-107444745D01*
X134825000Y-107349370D01*
X134825000Y-107250630D01*
X134799444Y-107155255D01*
X134750075Y-107069745D01*
X134730330Y-107050000D01*
X135824999Y-107050000D01*
X135824999Y-106900028D01*
X135824998Y-106900013D01*
X135814505Y-106797302D01*
X135759358Y-106630880D01*
X135759356Y-106630875D01*
X135667315Y-106481654D01*
X135543345Y-106357684D01*
X135394124Y-106265643D01*
X135394119Y-106265641D01*
X135227697Y-106210494D01*
X135227690Y-106210493D01*
X135124986Y-106200000D01*
X134700000Y-106200000D01*
X134700000Y-107019670D01*
X134680255Y-106999925D01*
X134594745Y-106950556D01*
X134499370Y-106925000D01*
X134400630Y-106925000D01*
X134305255Y-106950556D01*
X134219745Y-106999925D01*
X134200000Y-107019670D01*
X134200000Y-106200000D01*
X133775028Y-106200000D01*
X133775012Y-106200001D01*
X133672302Y-106210494D01*
X133505880Y-106265641D01*
X133505875Y-106265643D01*
X133356654Y-106357684D01*
X133232684Y-106481654D01*
X133140643Y-106630875D01*
X133140641Y-106630880D01*
X133085494Y-106797302D01*
X133085493Y-106797309D01*
X133075000Y-106900013D01*
X129000000Y-106900013D01*
X129000000Y-105799999D01*
X140094750Y-105799999D01*
X140094750Y-105800000D01*
X140113670Y-105943708D01*
X140113671Y-105943712D01*
X140169138Y-106077623D01*
X140169139Y-106077625D01*
X140224301Y-106149514D01*
X140249495Y-106214683D01*
X140235456Y-106283128D01*
X140224301Y-106300486D01*
X140169139Y-106372374D01*
X140169138Y-106372376D01*
X140113671Y-106506287D01*
X140113670Y-106506291D01*
X140094750Y-106649999D01*
X140094750Y-106650000D01*
X140113670Y-106793708D01*
X140113671Y-106793712D01*
X140169137Y-106927622D01*
X140169138Y-106927624D01*
X140169139Y-106927625D01*
X140257379Y-107042621D01*
X140372375Y-107130861D01*
X140506291Y-107186330D01*
X140633280Y-107203048D01*
X140649999Y-107205250D01*
X140650000Y-107205250D01*
X140650001Y-107205250D01*
X140664977Y-107203278D01*
X140793709Y-107186330D01*
X140927625Y-107130861D01*
X141024515Y-107056514D01*
X141089682Y-107031321D01*
X141158127Y-107045359D01*
X141175480Y-107056510D01*
X141272375Y-107130861D01*
X141406291Y-107186330D01*
X141533280Y-107203048D01*
X141549999Y-107205250D01*
X141550000Y-107205250D01*
X141550001Y-107205250D01*
X141564977Y-107203278D01*
X141693709Y-107186330D01*
X141827625Y-107130861D01*
X141942621Y-107042621D01*
X142030861Y-106927625D01*
X142086330Y-106793709D01*
X142105250Y-106650000D01*
X142086330Y-106506291D01*
X142030861Y-106372375D01*
X142030860Y-106372374D01*
X142030860Y-106372373D01*
X141975699Y-106300487D01*
X141950504Y-106235318D01*
X141964542Y-106166873D01*
X141975699Y-106149513D01*
X142030860Y-106077626D01*
X142030859Y-106077626D01*
X142030861Y-106077625D01*
X142086330Y-105943709D01*
X142105250Y-105800000D01*
X142086330Y-105656291D01*
X142030861Y-105522375D01*
X141997893Y-105479411D01*
X144744750Y-105479411D01*
X144744750Y-105479412D01*
X144763670Y-105623120D01*
X144763671Y-105623124D01*
X144819137Y-105757034D01*
X144819138Y-105757036D01*
X144819139Y-105757037D01*
X144907379Y-105872033D01*
X145022375Y-105960273D01*
X145156291Y-106015742D01*
X145283280Y-106032460D01*
X145299999Y-106034662D01*
X145300000Y-106034662D01*
X145300001Y-106034662D01*
X145314977Y-106032690D01*
X145443709Y-106015742D01*
X145577625Y-105960273D01*
X145692621Y-105872033D01*
X145780861Y-105757037D01*
X145836330Y-105623121D01*
X145855250Y-105479412D01*
X145836330Y-105335703D01*
X145780861Y-105201787D01*
X145779490Y-105200000D01*
X154144750Y-105200000D01*
X154162615Y-105335699D01*
X154163670Y-105343708D01*
X154163671Y-105343712D01*
X154219137Y-105477622D01*
X154219138Y-105477624D01*
X154219139Y-105477625D01*
X154307379Y-105592621D01*
X154422375Y-105680861D01*
X154556291Y-105736330D01*
X154683280Y-105753048D01*
X154699999Y-105755250D01*
X154700000Y-105755250D01*
X154700001Y-105755250D01*
X154714977Y-105753278D01*
X154843709Y-105736330D01*
X154977625Y-105680861D01*
X155092621Y-105592621D01*
X155180861Y-105477625D01*
X155236330Y-105343709D01*
X155255250Y-105200000D01*
X155236330Y-105056291D01*
X155180861Y-104922375D01*
X155092621Y-104807379D01*
X154977625Y-104719139D01*
X154977624Y-104719138D01*
X154977622Y-104719137D01*
X154843712Y-104663671D01*
X154843710Y-104663670D01*
X154843709Y-104663670D01*
X154771854Y-104654210D01*
X154700001Y-104644750D01*
X154699999Y-104644750D01*
X154556291Y-104663670D01*
X154556287Y-104663671D01*
X154422377Y-104719137D01*
X154307379Y-104807379D01*
X154219137Y-104922377D01*
X154163671Y-105056287D01*
X154163670Y-105056291D01*
X154159655Y-105086791D01*
X154144750Y-105200000D01*
X145779490Y-105200000D01*
X145692621Y-105086791D01*
X145577625Y-104998551D01*
X145577624Y-104998550D01*
X145577622Y-104998549D01*
X145443712Y-104943083D01*
X145443710Y-104943082D01*
X145443709Y-104943082D01*
X145371854Y-104933622D01*
X145300001Y-104924162D01*
X145299999Y-104924162D01*
X145156291Y-104943082D01*
X145156287Y-104943083D01*
X145022377Y-104998549D01*
X144907379Y-105086791D01*
X144819137Y-105201789D01*
X144763671Y-105335699D01*
X144763670Y-105335703D01*
X144744750Y-105479411D01*
X141997893Y-105479411D01*
X141942621Y-105407379D01*
X141827625Y-105319139D01*
X141827624Y-105319138D01*
X141827622Y-105319137D01*
X141693712Y-105263671D01*
X141693710Y-105263670D01*
X141693709Y-105263670D01*
X141621854Y-105254210D01*
X141550001Y-105244750D01*
X141549999Y-105244750D01*
X141406291Y-105263670D01*
X141406287Y-105263671D01*
X141272377Y-105319137D01*
X141250788Y-105335703D01*
X141175484Y-105393485D01*
X141110318Y-105418679D01*
X141041873Y-105404641D01*
X141024519Y-105393489D01*
X140927625Y-105319139D01*
X140927624Y-105319138D01*
X140927622Y-105319137D01*
X140793712Y-105263671D01*
X140793710Y-105263670D01*
X140793709Y-105263670D01*
X140721854Y-105254210D01*
X140650001Y-105244750D01*
X140649999Y-105244750D01*
X140506291Y-105263670D01*
X140506287Y-105263671D01*
X140372377Y-105319137D01*
X140257379Y-105407379D01*
X140169137Y-105522377D01*
X140113671Y-105656287D01*
X140113670Y-105656291D01*
X140094750Y-105799999D01*
X129000000Y-105799999D01*
X129000000Y-103541417D01*
X147214264Y-103541417D01*
X147232997Y-103683709D01*
X147233184Y-103685125D01*
X147233185Y-103685129D01*
X147288651Y-103819039D01*
X147288652Y-103819041D01*
X147288653Y-103819042D01*
X147376893Y-103934038D01*
X147491889Y-104022278D01*
X147625805Y-104077747D01*
X147752794Y-104094465D01*
X147769513Y-104096667D01*
X147769514Y-104096667D01*
X147769515Y-104096667D01*
X147784491Y-104094695D01*
X147913223Y-104077747D01*
X148047139Y-104022278D01*
X148162135Y-103934038D01*
X148250375Y-103819042D01*
X148305844Y-103685126D01*
X148324764Y-103541417D01*
X148305844Y-103397708D01*
X148250375Y-103263792D01*
X148162135Y-103148796D01*
X148047139Y-103060556D01*
X148047138Y-103060555D01*
X148047136Y-103060554D01*
X147913226Y-103005088D01*
X147913224Y-103005087D01*
X147913223Y-103005087D01*
X147841368Y-102995627D01*
X147769515Y-102986167D01*
X147769513Y-102986167D01*
X147625805Y-103005087D01*
X147625801Y-103005088D01*
X147491891Y-103060554D01*
X147376893Y-103148796D01*
X147288651Y-103263794D01*
X147233185Y-103397704D01*
X147233184Y-103397708D01*
X147214264Y-103541417D01*
X129000000Y-103541417D01*
X129000000Y-102150565D01*
X133356853Y-102150565D01*
X133356853Y-102308258D01*
X133387614Y-102462901D01*
X133387617Y-102462913D01*
X133447955Y-102608584D01*
X133447962Y-102608597D01*
X133535563Y-102739700D01*
X133535566Y-102739704D01*
X133647060Y-102851198D01*
X133647064Y-102851201D01*
X133778167Y-102938802D01*
X133778180Y-102938809D01*
X133892514Y-102986167D01*
X133923856Y-102999149D01*
X134078506Y-103029911D01*
X134078509Y-103029912D01*
X134078511Y-103029912D01*
X134786197Y-103029912D01*
X134786198Y-103029911D01*
X134940850Y-102999149D01*
X135086532Y-102938806D01*
X135217642Y-102851201D01*
X135329142Y-102739701D01*
X135416747Y-102608591D01*
X135477090Y-102462909D01*
X135507853Y-102308254D01*
X135507853Y-102150570D01*
X135507853Y-102150567D01*
X135507852Y-102150565D01*
X135497793Y-102099997D01*
X140469166Y-102099997D01*
X140469166Y-102100002D01*
X140490249Y-102233123D01*
X140546594Y-102343706D01*
X140559490Y-102412375D01*
X140546594Y-102456294D01*
X140490249Y-102566876D01*
X140469166Y-102699997D01*
X140469166Y-102700002D01*
X140490249Y-102833121D01*
X140490250Y-102833124D01*
X140490251Y-102833126D01*
X140550198Y-102950778D01*
X140551443Y-102953221D01*
X140551446Y-102953225D01*
X140646744Y-103048523D01*
X140646748Y-103048526D01*
X140646750Y-103048528D01*
X140766844Y-103109719D01*
X140766846Y-103109719D01*
X140766848Y-103109720D01*
X140899968Y-103130804D01*
X140909730Y-103130804D01*
X140909730Y-103133950D01*
X140962690Y-103140778D01*
X141016156Y-103185757D01*
X141023312Y-103198012D01*
X141051442Y-103253220D01*
X141051444Y-103253222D01*
X141051446Y-103253225D01*
X141146744Y-103348523D01*
X141146748Y-103348526D01*
X141146750Y-103348528D01*
X141266844Y-103409719D01*
X141266846Y-103409719D01*
X141266848Y-103409720D01*
X141399968Y-103430804D01*
X141399970Y-103430804D01*
X141399972Y-103430804D01*
X141533091Y-103409720D01*
X141533091Y-103409719D01*
X141533096Y-103409719D01*
X141653190Y-103348528D01*
X141653195Y-103348523D01*
X141755399Y-103246320D01*
X141757797Y-103248718D01*
X141799388Y-103216623D01*
X141868999Y-103210619D01*
X141930806Y-103243202D01*
X141942793Y-103256671D01*
X141970376Y-103292618D01*
X141970377Y-103292619D01*
X141970379Y-103292621D01*
X142085375Y-103380861D01*
X142219291Y-103436330D01*
X142346280Y-103453048D01*
X142362999Y-103455250D01*
X142363000Y-103455250D01*
X142363001Y-103455250D01*
X142377977Y-103453278D01*
X142506709Y-103436330D01*
X142640625Y-103380861D01*
X142755621Y-103292621D01*
X142843861Y-103177625D01*
X142899330Y-103043709D01*
X142918250Y-102900000D01*
X142899330Y-102756291D01*
X142843861Y-102622375D01*
X142755621Y-102507379D01*
X142640625Y-102419139D01*
X142640624Y-102419138D01*
X142640622Y-102419137D01*
X142591994Y-102398995D01*
X164244499Y-102398995D01*
X164271418Y-102534322D01*
X164271421Y-102534332D01*
X164324221Y-102661804D01*
X164324228Y-102661817D01*
X164400885Y-102776541D01*
X164400888Y-102776545D01*
X164498454Y-102874111D01*
X164498458Y-102874114D01*
X164613182Y-102950771D01*
X164613195Y-102950778D01*
X164729977Y-102999150D01*
X164740672Y-103003580D01*
X164740676Y-103003580D01*
X164740677Y-103003581D01*
X164876004Y-103030500D01*
X165636757Y-103030500D01*
X165703796Y-103050185D01*
X165749551Y-103102989D01*
X165759495Y-103172147D01*
X165730470Y-103235703D01*
X165698758Y-103261887D01*
X165639179Y-103296285D01*
X165639176Y-103296287D01*
X165531287Y-103404176D01*
X165531282Y-103404182D01*
X165454993Y-103536318D01*
X165454992Y-103536322D01*
X165415500Y-103683707D01*
X165415500Y-103836293D01*
X165441691Y-103934037D01*
X165454993Y-103983681D01*
X165531282Y-104115817D01*
X165531284Y-104115819D01*
X165531285Y-104115821D01*
X165639179Y-104223715D01*
X165639180Y-104223716D01*
X165639182Y-104223717D01*
X165771318Y-104300006D01*
X165771319Y-104300006D01*
X165771322Y-104300008D01*
X165918707Y-104339500D01*
X165918710Y-104339500D01*
X166071290Y-104339500D01*
X166071293Y-104339500D01*
X166218678Y-104300008D01*
X166350821Y-104223715D01*
X166458715Y-104115821D01*
X166535008Y-103983678D01*
X166574500Y-103836293D01*
X166574500Y-103683707D01*
X166535008Y-103536322D01*
X166477277Y-103436330D01*
X166458717Y-103404182D01*
X166458712Y-103404176D01*
X166350823Y-103296287D01*
X166350821Y-103296285D01*
X166276239Y-103253225D01*
X166230987Y-103227098D01*
X166182772Y-103176530D01*
X166169550Y-103107923D01*
X166195518Y-103043058D01*
X166245536Y-103005149D01*
X166249320Y-103003581D01*
X166249328Y-103003580D01*
X166376811Y-102950775D01*
X166491542Y-102874114D01*
X166589114Y-102776542D01*
X166665775Y-102661811D01*
X166669334Y-102653220D01*
X166718578Y-102534332D01*
X166718580Y-102534328D01*
X166730276Y-102475531D01*
X166745500Y-102398995D01*
X166745500Y-102269721D01*
X166765185Y-102202682D01*
X166817989Y-102156927D01*
X166885683Y-102146782D01*
X166950000Y-102155250D01*
X167093709Y-102136330D01*
X167227625Y-102080861D01*
X167342621Y-101992621D01*
X167430861Y-101877625D01*
X167486330Y-101743709D01*
X167505250Y-101600000D01*
X167486330Y-101456291D01*
X167430861Y-101322375D01*
X167342621Y-101207379D01*
X167227625Y-101119139D01*
X167227624Y-101119138D01*
X167227622Y-101119137D01*
X167093712Y-101063671D01*
X167093710Y-101063670D01*
X167093709Y-101063670D01*
X167021854Y-101054210D01*
X166950001Y-101044750D01*
X166949999Y-101044750D01*
X166806291Y-101063670D01*
X166806287Y-101063671D01*
X166672377Y-101119137D01*
X166557379Y-101207379D01*
X166469137Y-101322377D01*
X166413671Y-101456287D01*
X166413670Y-101456290D01*
X166413670Y-101456291D01*
X166413224Y-101459676D01*
X166401081Y-101551908D01*
X166372814Y-101615805D01*
X166314489Y-101654275D01*
X166253951Y-101657339D01*
X166113996Y-101629500D01*
X166113993Y-101629500D01*
X164876007Y-101629500D01*
X164876005Y-101629500D01*
X164740677Y-101656418D01*
X164740667Y-101656421D01*
X164613195Y-101709221D01*
X164613182Y-101709228D01*
X164498458Y-101785885D01*
X164498454Y-101785888D01*
X164400888Y-101883454D01*
X164400885Y-101883458D01*
X164324228Y-101998182D01*
X164324221Y-101998195D01*
X164271421Y-102125667D01*
X164271418Y-102125677D01*
X164244500Y-102261004D01*
X164244500Y-102261007D01*
X164244500Y-102398993D01*
X164244500Y-102398995D01*
X164244499Y-102398995D01*
X142591994Y-102398995D01*
X142506712Y-102363671D01*
X142506710Y-102363670D01*
X142506709Y-102363670D01*
X142427335Y-102353220D01*
X142363001Y-102344750D01*
X142362999Y-102344750D01*
X142219291Y-102363670D01*
X142219287Y-102363671D01*
X142085376Y-102419138D01*
X142085374Y-102419139D01*
X142026420Y-102464376D01*
X141961250Y-102489570D01*
X141892806Y-102475531D01*
X141842816Y-102426717D01*
X141828462Y-102385402D01*
X141809689Y-102266874D01*
X141748498Y-102146780D01*
X141748496Y-102146778D01*
X141748493Y-102146774D01*
X141653195Y-102051476D01*
X141653191Y-102051473D01*
X141653190Y-102051472D01*
X141533096Y-101990281D01*
X141533094Y-101990280D01*
X141533091Y-101990279D01*
X141399972Y-101969196D01*
X141390211Y-101969196D01*
X141390211Y-101966056D01*
X141337202Y-101959201D01*
X141283755Y-101914199D01*
X141276630Y-101901993D01*
X141248498Y-101846780D01*
X141248496Y-101846778D01*
X141248493Y-101846774D01*
X141153195Y-101751476D01*
X141153191Y-101751473D01*
X141153190Y-101751472D01*
X141033096Y-101690281D01*
X141033094Y-101690280D01*
X141033091Y-101690279D01*
X140899972Y-101669196D01*
X140899968Y-101669196D01*
X140766848Y-101690279D01*
X140646748Y-101751473D01*
X140646744Y-101751476D01*
X140551446Y-101846774D01*
X140551443Y-101846778D01*
X140490249Y-101966878D01*
X140469166Y-102099997D01*
X135497793Y-102099997D01*
X135477090Y-101995915D01*
X135456262Y-101945632D01*
X135416750Y-101850239D01*
X135416743Y-101850226D01*
X135329142Y-101719123D01*
X135329139Y-101719119D01*
X135217645Y-101607625D01*
X135217641Y-101607622D01*
X135086538Y-101520021D01*
X135086525Y-101520014D01*
X134940854Y-101459676D01*
X134940842Y-101459673D01*
X134786198Y-101428912D01*
X134786195Y-101428912D01*
X134078511Y-101428912D01*
X134078508Y-101428912D01*
X133923863Y-101459673D01*
X133923851Y-101459676D01*
X133778180Y-101520014D01*
X133778167Y-101520021D01*
X133647064Y-101607622D01*
X133647060Y-101607625D01*
X133535566Y-101719119D01*
X133535563Y-101719123D01*
X133447962Y-101850226D01*
X133447955Y-101850239D01*
X133387617Y-101995910D01*
X133387614Y-101995922D01*
X133356853Y-102150565D01*
X129000000Y-102150565D01*
X129000000Y-101390381D01*
X152235129Y-101390381D01*
X152235129Y-101390382D01*
X152254049Y-101534090D01*
X152254050Y-101534094D01*
X152309516Y-101668004D01*
X152309517Y-101668006D01*
X152309518Y-101668007D01*
X152397758Y-101783003D01*
X152512754Y-101871243D01*
X152512755Y-101871243D01*
X152512756Y-101871244D01*
X152542234Y-101883454D01*
X152646670Y-101926712D01*
X152773659Y-101943430D01*
X152790378Y-101945632D01*
X152790379Y-101945632D01*
X152790380Y-101945632D01*
X152805356Y-101943660D01*
X152934088Y-101926712D01*
X153068004Y-101871243D01*
X153163437Y-101798014D01*
X153228604Y-101772820D01*
X153297049Y-101786858D01*
X153314409Y-101798015D01*
X153422373Y-101880860D01*
X153422374Y-101880860D01*
X153422375Y-101880861D01*
X153556291Y-101936330D01*
X153683280Y-101953048D01*
X153699999Y-101955250D01*
X153700000Y-101955250D01*
X153700001Y-101955250D01*
X153714977Y-101953278D01*
X153843709Y-101936330D01*
X153977625Y-101880861D01*
X154092621Y-101792621D01*
X154180861Y-101677625D01*
X154236330Y-101543709D01*
X154255250Y-101400000D01*
X154236330Y-101256291D01*
X154180861Y-101122375D01*
X154092621Y-101007379D01*
X153977625Y-100919139D01*
X153977624Y-100919138D01*
X153977622Y-100919137D01*
X153843712Y-100863671D01*
X153843710Y-100863670D01*
X153843709Y-100863670D01*
X153770654Y-100854052D01*
X153700001Y-100844750D01*
X153699999Y-100844750D01*
X153556291Y-100863670D01*
X153556287Y-100863671D01*
X153422376Y-100919138D01*
X153422374Y-100919139D01*
X153326942Y-100992367D01*
X153261773Y-101017561D01*
X153193328Y-101003523D01*
X153175969Y-100992366D01*
X153068005Y-100909521D01*
X153068002Y-100909520D01*
X152934091Y-100854053D01*
X152934089Y-100854052D01*
X152934088Y-100854052D01*
X152862233Y-100844592D01*
X152790380Y-100835132D01*
X152790378Y-100835132D01*
X152646670Y-100854052D01*
X152646666Y-100854053D01*
X152512756Y-100909519D01*
X152397758Y-100997761D01*
X152309516Y-101112759D01*
X152254050Y-101246669D01*
X152254049Y-101246673D01*
X152235129Y-101390381D01*
X129000000Y-101390381D01*
X129000000Y-100150565D01*
X133356853Y-100150565D01*
X133356853Y-100308258D01*
X133387614Y-100462901D01*
X133387617Y-100462913D01*
X133447955Y-100608584D01*
X133447962Y-100608597D01*
X133535563Y-100739700D01*
X133535566Y-100739704D01*
X133647060Y-100851198D01*
X133647064Y-100851201D01*
X133778167Y-100938802D01*
X133778180Y-100938809D01*
X133920505Y-100997761D01*
X133923856Y-100999149D01*
X134078506Y-101029911D01*
X134078509Y-101029912D01*
X134078511Y-101029912D01*
X134786197Y-101029912D01*
X134786198Y-101029911D01*
X134940850Y-100999149D01*
X135086532Y-100938806D01*
X135217642Y-100851201D01*
X135329142Y-100739701D01*
X135416747Y-100608591D01*
X135477090Y-100462909D01*
X135484174Y-100427297D01*
X160517452Y-100427297D01*
X160517452Y-100427298D01*
X160536372Y-100571006D01*
X160536373Y-100571010D01*
X160591839Y-100704920D01*
X160591840Y-100704922D01*
X160591841Y-100704923D01*
X160680081Y-100819919D01*
X160795077Y-100908159D01*
X160795078Y-100908159D01*
X160795079Y-100908160D01*
X160821583Y-100919138D01*
X160928993Y-100963628D01*
X161055982Y-100980346D01*
X161072701Y-100982548D01*
X161072702Y-100982548D01*
X161072703Y-100982548D01*
X161087679Y-100980576D01*
X161216411Y-100963628D01*
X161350327Y-100908159D01*
X161465323Y-100819919D01*
X161553563Y-100704923D01*
X161609032Y-100571007D01*
X161627952Y-100427298D01*
X161609032Y-100283589D01*
X161553933Y-100150567D01*
X161553564Y-100149675D01*
X161553563Y-100149674D01*
X161553563Y-100149673D01*
X161465323Y-100034677D01*
X161350327Y-99946437D01*
X161350326Y-99946436D01*
X161350324Y-99946435D01*
X161216414Y-99890969D01*
X161216412Y-99890968D01*
X161216411Y-99890968D01*
X161144556Y-99881508D01*
X161072703Y-99872048D01*
X161072701Y-99872048D01*
X160928993Y-99890968D01*
X160928989Y-99890969D01*
X160795079Y-99946435D01*
X160680081Y-100034677D01*
X160591839Y-100149675D01*
X160536373Y-100283585D01*
X160536372Y-100283589D01*
X160517452Y-100427297D01*
X135484174Y-100427297D01*
X135507853Y-100308254D01*
X135507853Y-100150570D01*
X135507853Y-100150567D01*
X135507852Y-100150565D01*
X135477091Y-99995922D01*
X135477090Y-99995915D01*
X135456595Y-99946435D01*
X135416750Y-99850239D01*
X135416743Y-99850226D01*
X135329142Y-99719123D01*
X135329139Y-99719119D01*
X135217645Y-99607625D01*
X135217641Y-99607622D01*
X135086538Y-99520021D01*
X135086525Y-99520014D01*
X134940854Y-99459676D01*
X134940842Y-99459673D01*
X134786198Y-99428912D01*
X134786195Y-99428912D01*
X134078511Y-99428912D01*
X134078508Y-99428912D01*
X133923863Y-99459673D01*
X133923851Y-99459676D01*
X133778180Y-99520014D01*
X133778167Y-99520021D01*
X133647064Y-99607622D01*
X133647060Y-99607625D01*
X133535566Y-99719119D01*
X133535563Y-99719123D01*
X133447962Y-99850226D01*
X133447955Y-99850239D01*
X133387617Y-99995910D01*
X133387614Y-99995922D01*
X133356853Y-100150565D01*
X129000000Y-100150565D01*
X129000000Y-99099999D01*
X152044750Y-99099999D01*
X152044750Y-99100000D01*
X152063670Y-99243708D01*
X152063671Y-99243712D01*
X152119137Y-99377622D01*
X152119138Y-99377624D01*
X152119139Y-99377625D01*
X152207379Y-99492621D01*
X152322375Y-99580861D01*
X152456291Y-99636330D01*
X152583280Y-99653048D01*
X152599999Y-99655250D01*
X152600000Y-99655250D01*
X152600001Y-99655250D01*
X152614977Y-99653278D01*
X152743709Y-99636330D01*
X152877625Y-99580861D01*
X152992621Y-99492621D01*
X153080861Y-99377625D01*
X153136330Y-99243709D01*
X153155250Y-99100000D01*
X153136330Y-98956291D01*
X153080861Y-98822375D01*
X152992621Y-98707379D01*
X152877625Y-98619139D01*
X152877624Y-98619138D01*
X152877622Y-98619137D01*
X152831418Y-98599999D01*
X163044750Y-98599999D01*
X163044750Y-98600000D01*
X163063670Y-98743708D01*
X163063671Y-98743712D01*
X163119137Y-98877622D01*
X163119138Y-98877624D01*
X163119139Y-98877625D01*
X163207379Y-98992621D01*
X163322375Y-99080861D01*
X163456291Y-99136330D01*
X163583280Y-99153048D01*
X163599999Y-99155250D01*
X163600000Y-99155250D01*
X163600001Y-99155250D01*
X163614977Y-99153278D01*
X163743709Y-99136330D01*
X163877625Y-99080861D01*
X163992621Y-98992621D01*
X164080861Y-98877625D01*
X164136330Y-98743709D01*
X164155250Y-98600000D01*
X164155250Y-98599999D01*
X165344750Y-98599999D01*
X165344750Y-98600000D01*
X165363670Y-98743708D01*
X165363671Y-98743712D01*
X165419137Y-98877622D01*
X165419138Y-98877624D01*
X165419139Y-98877625D01*
X165507379Y-98992621D01*
X165622375Y-99080861D01*
X165756291Y-99136330D01*
X165883280Y-99153048D01*
X165899999Y-99155250D01*
X165900000Y-99155250D01*
X165900001Y-99155250D01*
X165914977Y-99153278D01*
X166043709Y-99136330D01*
X166177625Y-99080861D01*
X166292621Y-98992621D01*
X166380861Y-98877625D01*
X166436330Y-98743709D01*
X166455250Y-98600000D01*
X166436330Y-98456291D01*
X166380861Y-98322375D01*
X166292621Y-98207379D01*
X166177625Y-98119139D01*
X166177624Y-98119138D01*
X166177622Y-98119137D01*
X166043712Y-98063671D01*
X166043710Y-98063670D01*
X166043709Y-98063670D01*
X165971854Y-98054210D01*
X165900001Y-98044750D01*
X165899999Y-98044750D01*
X165756291Y-98063670D01*
X165756287Y-98063671D01*
X165622377Y-98119137D01*
X165507379Y-98207379D01*
X165419137Y-98322377D01*
X165363671Y-98456287D01*
X165363670Y-98456291D01*
X165344750Y-98599999D01*
X164155250Y-98599999D01*
X164136330Y-98456291D01*
X164080861Y-98322375D01*
X163992621Y-98207379D01*
X163877625Y-98119139D01*
X163877624Y-98119138D01*
X163877622Y-98119137D01*
X163743712Y-98063671D01*
X163743710Y-98063670D01*
X163743709Y-98063670D01*
X163671854Y-98054210D01*
X163600001Y-98044750D01*
X163599999Y-98044750D01*
X163456291Y-98063670D01*
X163456287Y-98063671D01*
X163322377Y-98119137D01*
X163207379Y-98207379D01*
X163119137Y-98322377D01*
X163063671Y-98456287D01*
X163063670Y-98456291D01*
X163044750Y-98599999D01*
X152831418Y-98599999D01*
X152743712Y-98563671D01*
X152743710Y-98563670D01*
X152743709Y-98563670D01*
X152671854Y-98554210D01*
X152600001Y-98544750D01*
X152599999Y-98544750D01*
X152456291Y-98563670D01*
X152456287Y-98563671D01*
X152322377Y-98619137D01*
X152207379Y-98707379D01*
X152119137Y-98822377D01*
X152063671Y-98956287D01*
X152063670Y-98956291D01*
X152044750Y-99099999D01*
X129000000Y-99099999D01*
X129000000Y-98150565D01*
X133356853Y-98150565D01*
X133356853Y-98308258D01*
X133387614Y-98462901D01*
X133387617Y-98462913D01*
X133447955Y-98608584D01*
X133447962Y-98608597D01*
X133535563Y-98739700D01*
X133535566Y-98739704D01*
X133647060Y-98851198D01*
X133647064Y-98851201D01*
X133778167Y-98938802D01*
X133778180Y-98938809D01*
X133908093Y-98992620D01*
X133923856Y-98999149D01*
X134078506Y-99029911D01*
X134078509Y-99029912D01*
X134078511Y-99029912D01*
X134786197Y-99029912D01*
X134786198Y-99029911D01*
X134940850Y-98999149D01*
X135086532Y-98938806D01*
X135217642Y-98851201D01*
X135329142Y-98739701D01*
X135416747Y-98608591D01*
X135420306Y-98600000D01*
X135477088Y-98462913D01*
X135477090Y-98462909D01*
X135507853Y-98308254D01*
X135507853Y-98150570D01*
X135507853Y-98150567D01*
X135507852Y-98150565D01*
X135501601Y-98119139D01*
X135477090Y-97995915D01*
X135477088Y-97995910D01*
X135416750Y-97850239D01*
X135416743Y-97850226D01*
X135329142Y-97719123D01*
X135329139Y-97719119D01*
X135217645Y-97607625D01*
X135217641Y-97607622D01*
X135086538Y-97520021D01*
X135086525Y-97520014D01*
X134940854Y-97459676D01*
X134940842Y-97459673D01*
X134786198Y-97428912D01*
X134786195Y-97428912D01*
X134078511Y-97428912D01*
X134078508Y-97428912D01*
X133923863Y-97459673D01*
X133923851Y-97459676D01*
X133778180Y-97520014D01*
X133778167Y-97520021D01*
X133647064Y-97607622D01*
X133647060Y-97607625D01*
X133535566Y-97719119D01*
X133535563Y-97719123D01*
X133447962Y-97850226D01*
X133447955Y-97850239D01*
X133387617Y-97995910D01*
X133387614Y-97995922D01*
X133356853Y-98150565D01*
X129000000Y-98150565D01*
X129000000Y-95825142D01*
X133356853Y-95825142D01*
X133356853Y-96633681D01*
X133359706Y-96664111D01*
X133359706Y-96664113D01*
X133404559Y-96792292D01*
X133404560Y-96792294D01*
X133485203Y-96901562D01*
X133594471Y-96982205D01*
X133637198Y-96997156D01*
X133722652Y-97027058D01*
X133753083Y-97029912D01*
X133753087Y-97029912D01*
X135111623Y-97029912D01*
X135142052Y-97027058D01*
X135142054Y-97027058D01*
X135206143Y-97004631D01*
X135270235Y-96982205D01*
X135379503Y-96901562D01*
X135454459Y-96800000D01*
X144944750Y-96800000D01*
X144952160Y-96856287D01*
X144963670Y-96943708D01*
X144963671Y-96943712D01*
X145019137Y-97077622D01*
X145019138Y-97077624D01*
X145019139Y-97077625D01*
X145107379Y-97192621D01*
X145222375Y-97280861D01*
X145356291Y-97336330D01*
X145483280Y-97353048D01*
X145499999Y-97355250D01*
X145500000Y-97355250D01*
X145500001Y-97355250D01*
X145514977Y-97353278D01*
X145643709Y-97336330D01*
X145731153Y-97300110D01*
X157369750Y-97300110D01*
X157369750Y-97300111D01*
X157388670Y-97443819D01*
X157388671Y-97443823D01*
X157444137Y-97577733D01*
X157444138Y-97577735D01*
X157444139Y-97577736D01*
X157532379Y-97692732D01*
X157647375Y-97780972D01*
X157781291Y-97836441D01*
X157908280Y-97853159D01*
X157924999Y-97855361D01*
X157925000Y-97855361D01*
X157925001Y-97855361D01*
X157939977Y-97853389D01*
X158068709Y-97836441D01*
X158202625Y-97780972D01*
X158317621Y-97692732D01*
X158405861Y-97577736D01*
X158461330Y-97443820D01*
X158480250Y-97300111D01*
X158461330Y-97156402D01*
X158405861Y-97022486D01*
X158388606Y-96999999D01*
X162044750Y-96999999D01*
X162044750Y-97000000D01*
X162063670Y-97143708D01*
X162063671Y-97143712D01*
X162119137Y-97277622D01*
X162119138Y-97277624D01*
X162119139Y-97277625D01*
X162207379Y-97392621D01*
X162322375Y-97480861D01*
X162456291Y-97536330D01*
X162583280Y-97553048D01*
X162599999Y-97555250D01*
X162600000Y-97555250D01*
X162600001Y-97555250D01*
X162614977Y-97553278D01*
X162743709Y-97536330D01*
X162877625Y-97480861D01*
X162992621Y-97392621D01*
X163080861Y-97277625D01*
X163136330Y-97143709D01*
X163155250Y-97000000D01*
X163136330Y-96856291D01*
X163080861Y-96722375D01*
X162992621Y-96607379D01*
X162877625Y-96519139D01*
X162877624Y-96519138D01*
X162877622Y-96519137D01*
X162743712Y-96463671D01*
X162743710Y-96463670D01*
X162743709Y-96463670D01*
X162671854Y-96454210D01*
X162600001Y-96444750D01*
X162599999Y-96444750D01*
X162456291Y-96463670D01*
X162456287Y-96463671D01*
X162322377Y-96519137D01*
X162207379Y-96607379D01*
X162119137Y-96722377D01*
X162063671Y-96856287D01*
X162063670Y-96856291D01*
X162044750Y-96999999D01*
X158388606Y-96999999D01*
X158317621Y-96907490D01*
X158202625Y-96819250D01*
X158202624Y-96819249D01*
X158202622Y-96819248D01*
X158068712Y-96763782D01*
X158068710Y-96763781D01*
X158068709Y-96763781D01*
X157996854Y-96754321D01*
X157925001Y-96744861D01*
X157924999Y-96744861D01*
X157781291Y-96763781D01*
X157781287Y-96763782D01*
X157647377Y-96819248D01*
X157532379Y-96907490D01*
X157444137Y-97022488D01*
X157388671Y-97156398D01*
X157388670Y-97156402D01*
X157369750Y-97300110D01*
X145731153Y-97300110D01*
X145777625Y-97280861D01*
X145892621Y-97192621D01*
X145980861Y-97077625D01*
X146036330Y-96943709D01*
X146055250Y-96800000D01*
X146054235Y-96792294D01*
X146050482Y-96763782D01*
X146036330Y-96656291D01*
X145980861Y-96522375D01*
X145892621Y-96407379D01*
X145777625Y-96319139D01*
X145777624Y-96319138D01*
X145777622Y-96319137D01*
X145731418Y-96299999D01*
X156444750Y-96299999D01*
X156444750Y-96300000D01*
X156463670Y-96443708D01*
X156463671Y-96443712D01*
X156519137Y-96577622D01*
X156519138Y-96577624D01*
X156519139Y-96577625D01*
X156607379Y-96692621D01*
X156722375Y-96780861D01*
X156856291Y-96836330D01*
X156983280Y-96853048D01*
X156999999Y-96855250D01*
X157000000Y-96855250D01*
X157000001Y-96855250D01*
X157014977Y-96853278D01*
X157143709Y-96836330D01*
X157277625Y-96780861D01*
X157392621Y-96692621D01*
X157480861Y-96577625D01*
X157536330Y-96443709D01*
X157555250Y-96300000D01*
X157536330Y-96156291D01*
X157480861Y-96022375D01*
X157392621Y-95907379D01*
X157277625Y-95819139D01*
X157277624Y-95819138D01*
X157277622Y-95819137D01*
X157143712Y-95763671D01*
X157143710Y-95763670D01*
X157143709Y-95763670D01*
X157071854Y-95754210D01*
X157000001Y-95744750D01*
X156999999Y-95744750D01*
X156856291Y-95763670D01*
X156856287Y-95763671D01*
X156722377Y-95819137D01*
X156607379Y-95907379D01*
X156519137Y-96022377D01*
X156463671Y-96156287D01*
X156463670Y-96156291D01*
X156444750Y-96299999D01*
X145731418Y-96299999D01*
X145643712Y-96263671D01*
X145643710Y-96263670D01*
X145643709Y-96263670D01*
X145564373Y-96253225D01*
X145500001Y-96244750D01*
X145499999Y-96244750D01*
X145356291Y-96263670D01*
X145356287Y-96263671D01*
X145222377Y-96319137D01*
X145107379Y-96407379D01*
X145019137Y-96522377D01*
X144963671Y-96656287D01*
X144963670Y-96656291D01*
X144945765Y-96792294D01*
X144944750Y-96800000D01*
X135454459Y-96800000D01*
X135460146Y-96792294D01*
X135495023Y-96692621D01*
X135504999Y-96664113D01*
X135504999Y-96664111D01*
X135507853Y-96633681D01*
X135507853Y-95825142D01*
X135504999Y-95794712D01*
X135504999Y-95794710D01*
X135471857Y-95699997D01*
X140469196Y-95699997D01*
X140469196Y-95700002D01*
X140490279Y-95833123D01*
X140546624Y-95943706D01*
X140559520Y-96012375D01*
X140546624Y-96056294D01*
X140490279Y-96166876D01*
X140469196Y-96299997D01*
X140469196Y-96300002D01*
X140490279Y-96433121D01*
X140490280Y-96433124D01*
X140490281Y-96433126D01*
X140551472Y-96553220D01*
X140551473Y-96553221D01*
X140551476Y-96553225D01*
X140646774Y-96648523D01*
X140646778Y-96648526D01*
X140646780Y-96648528D01*
X140766874Y-96709719D01*
X140766876Y-96709719D01*
X140766878Y-96709720D01*
X140899998Y-96730804D01*
X140900000Y-96730804D01*
X140900002Y-96730804D01*
X141033121Y-96709720D01*
X141033121Y-96709719D01*
X141033126Y-96709719D01*
X141153220Y-96648528D01*
X141248528Y-96553220D01*
X141276655Y-96498016D01*
X141324628Y-96447222D01*
X141390240Y-96430973D01*
X141390240Y-96430804D01*
X141390923Y-96430804D01*
X141392449Y-96430426D01*
X141396213Y-96430804D01*
X141400000Y-96430804D01*
X141400002Y-96430804D01*
X141533121Y-96409720D01*
X141533121Y-96409719D01*
X141533126Y-96409719D01*
X141653220Y-96348528D01*
X141748528Y-96253220D01*
X141809719Y-96133126D01*
X141830804Y-96000000D01*
X141816134Y-95907379D01*
X141809720Y-95866878D01*
X141809719Y-95866876D01*
X141809719Y-95866874D01*
X141766112Y-95781291D01*
X141753217Y-95712626D01*
X141766111Y-95668710D01*
X141809719Y-95583126D01*
X141809720Y-95583121D01*
X141830804Y-95450002D01*
X141830804Y-95449997D01*
X141809720Y-95316878D01*
X141809719Y-95316876D01*
X141809719Y-95316874D01*
X141748528Y-95196780D01*
X141748526Y-95196778D01*
X141748523Y-95196774D01*
X141653225Y-95101476D01*
X141653221Y-95101473D01*
X141653220Y-95101472D01*
X141533126Y-95040281D01*
X141533124Y-95040280D01*
X141533121Y-95040279D01*
X141400002Y-95019196D01*
X141399998Y-95019196D01*
X141266878Y-95040279D01*
X141146778Y-95101473D01*
X141146774Y-95101476D01*
X141051472Y-95196779D01*
X141051471Y-95196779D01*
X141046917Y-95205718D01*
X140998942Y-95256512D01*
X140931120Y-95273306D01*
X140917040Y-95271894D01*
X140900002Y-95269196D01*
X140899998Y-95269196D01*
X140766878Y-95290279D01*
X140766874Y-95290280D01*
X140766874Y-95290281D01*
X140686811Y-95331075D01*
X140646778Y-95351473D01*
X140646774Y-95351476D01*
X140551476Y-95446774D01*
X140551473Y-95446778D01*
X140490279Y-95566878D01*
X140469196Y-95699997D01*
X135471857Y-95699997D01*
X135460146Y-95666531D01*
X135460145Y-95666529D01*
X135398591Y-95583126D01*
X135379503Y-95557262D01*
X135270235Y-95476619D01*
X135270233Y-95476618D01*
X135142053Y-95431765D01*
X135111623Y-95428912D01*
X135111619Y-95428912D01*
X133753087Y-95428912D01*
X133753083Y-95428912D01*
X133722653Y-95431765D01*
X133722651Y-95431765D01*
X133594472Y-95476618D01*
X133594470Y-95476619D01*
X133485203Y-95557262D01*
X133404560Y-95666529D01*
X133404559Y-95666531D01*
X133359706Y-95794710D01*
X133359706Y-95794712D01*
X133356853Y-95825142D01*
X129000000Y-95825142D01*
X129000000Y-94900000D01*
X143344750Y-94900000D01*
X143363218Y-95040279D01*
X143363670Y-95043708D01*
X143363671Y-95043712D01*
X143419137Y-95177622D01*
X143419138Y-95177624D01*
X143419139Y-95177625D01*
X143507379Y-95292621D01*
X143622375Y-95380861D01*
X143756291Y-95436330D01*
X143883280Y-95453048D01*
X143899999Y-95455250D01*
X143900000Y-95455250D01*
X143900001Y-95455250D01*
X143914977Y-95453278D01*
X144043709Y-95436330D01*
X144177625Y-95380861D01*
X144292621Y-95292621D01*
X144380861Y-95177625D01*
X144436330Y-95043709D01*
X144455250Y-94900000D01*
X144436330Y-94756291D01*
X144380861Y-94622375D01*
X144292621Y-94507379D01*
X144283003Y-94499999D01*
X147144750Y-94499999D01*
X147144750Y-94500000D01*
X147163670Y-94643708D01*
X147163671Y-94643712D01*
X147219137Y-94777622D01*
X147219138Y-94777624D01*
X147219139Y-94777625D01*
X147307379Y-94892621D01*
X147422375Y-94980861D01*
X147556291Y-95036330D01*
X147683280Y-95053048D01*
X147699999Y-95055250D01*
X147700000Y-95055250D01*
X147700001Y-95055250D01*
X147714977Y-95053278D01*
X147843709Y-95036330D01*
X147977625Y-94980861D01*
X148092621Y-94892621D01*
X148180861Y-94777625D01*
X148236330Y-94643709D01*
X148236889Y-94639465D01*
X161196568Y-94639465D01*
X161214757Y-94777625D01*
X161215488Y-94783173D01*
X161215489Y-94783177D01*
X161270955Y-94917087D01*
X161270956Y-94917089D01*
X161270957Y-94917090D01*
X161359197Y-95032086D01*
X161474193Y-95120326D01*
X161608109Y-95175795D01*
X161735098Y-95192513D01*
X161751817Y-95194715D01*
X161751818Y-95194715D01*
X161751819Y-95194715D01*
X161766795Y-95192743D01*
X161895527Y-95175795D01*
X162029443Y-95120326D01*
X162144439Y-95032086D01*
X162232679Y-94917090D01*
X162288148Y-94783174D01*
X162307068Y-94639465D01*
X162288148Y-94495756D01*
X162251168Y-94406478D01*
X162232680Y-94361842D01*
X162232679Y-94361841D01*
X162232679Y-94361840D01*
X162144439Y-94246844D01*
X162029443Y-94158604D01*
X162029442Y-94158603D01*
X162029440Y-94158602D01*
X161895530Y-94103136D01*
X161895528Y-94103135D01*
X161895527Y-94103135D01*
X161823672Y-94093675D01*
X161751819Y-94084215D01*
X161751817Y-94084215D01*
X161608109Y-94103135D01*
X161608105Y-94103136D01*
X161474195Y-94158602D01*
X161359197Y-94246844D01*
X161270955Y-94361842D01*
X161215489Y-94495752D01*
X161215488Y-94495756D01*
X161196568Y-94639465D01*
X148236889Y-94639465D01*
X148255250Y-94500000D01*
X148236330Y-94356291D01*
X148180861Y-94222375D01*
X148092621Y-94107379D01*
X147977625Y-94019139D01*
X147977624Y-94019138D01*
X147977622Y-94019137D01*
X147843712Y-93963671D01*
X147843710Y-93963670D01*
X147843709Y-93963670D01*
X147771854Y-93954210D01*
X147700001Y-93944750D01*
X147699999Y-93944750D01*
X147556291Y-93963670D01*
X147556287Y-93963671D01*
X147422377Y-94019137D01*
X147307379Y-94107379D01*
X147219137Y-94222377D01*
X147163671Y-94356287D01*
X147163670Y-94356291D01*
X147144750Y-94499999D01*
X144283003Y-94499999D01*
X144177625Y-94419139D01*
X144177624Y-94419138D01*
X144177622Y-94419137D01*
X144043712Y-94363671D01*
X144043710Y-94363670D01*
X144043709Y-94363670D01*
X143971854Y-94354210D01*
X143900001Y-94344750D01*
X143899999Y-94344750D01*
X143756291Y-94363670D01*
X143756287Y-94363671D01*
X143622377Y-94419137D01*
X143507379Y-94507379D01*
X143419137Y-94622377D01*
X143363671Y-94756287D01*
X143363670Y-94756291D01*
X143345722Y-94892620D01*
X143344750Y-94900000D01*
X129000000Y-94900000D01*
X129000000Y-91700000D01*
X140144750Y-91700000D01*
X140157915Y-91800000D01*
X140163670Y-91843708D01*
X140163671Y-91843712D01*
X140219138Y-91977623D01*
X140219139Y-91977625D01*
X140274301Y-92049514D01*
X140299495Y-92114683D01*
X140285456Y-92183128D01*
X140274301Y-92200486D01*
X140219139Y-92272374D01*
X140219138Y-92272376D01*
X140163671Y-92406287D01*
X140163670Y-92406291D01*
X140144750Y-92549999D01*
X140144750Y-92550000D01*
X140163670Y-92693708D01*
X140163671Y-92693712D01*
X140219137Y-92827622D01*
X140219138Y-92827624D01*
X140219139Y-92827625D01*
X140307379Y-92942621D01*
X140422375Y-93030861D01*
X140556291Y-93086330D01*
X140683280Y-93103048D01*
X140699999Y-93105250D01*
X140700000Y-93105250D01*
X140700001Y-93105250D01*
X140714977Y-93103278D01*
X140843709Y-93086330D01*
X140977625Y-93030861D01*
X141074515Y-92956514D01*
X141139682Y-92931321D01*
X141208127Y-92945359D01*
X141225480Y-92956510D01*
X141322375Y-93030861D01*
X141456291Y-93086330D01*
X141583280Y-93103048D01*
X141599999Y-93105250D01*
X141600000Y-93105250D01*
X141600001Y-93105250D01*
X141614977Y-93103278D01*
X141743709Y-93086330D01*
X141877625Y-93030861D01*
X141992621Y-92942621D01*
X142080861Y-92827625D01*
X142136330Y-92693709D01*
X142155250Y-92550000D01*
X142136330Y-92406291D01*
X142080861Y-92272375D01*
X142080860Y-92272374D01*
X142080860Y-92272373D01*
X142025699Y-92200487D01*
X142000504Y-92135318D01*
X142014542Y-92066873D01*
X142025699Y-92049513D01*
X142080860Y-91977626D01*
X142080859Y-91977626D01*
X142080861Y-91977625D01*
X142136330Y-91843709D01*
X142142085Y-91799999D01*
X143344750Y-91799999D01*
X143344750Y-91800000D01*
X143363670Y-91943708D01*
X143363671Y-91943712D01*
X143419137Y-92077622D01*
X143419138Y-92077624D01*
X143419139Y-92077625D01*
X143507379Y-92192621D01*
X143622375Y-92280861D01*
X143756291Y-92336330D01*
X143883280Y-92353048D01*
X143899999Y-92355250D01*
X143900000Y-92355250D01*
X143900001Y-92355250D01*
X143914977Y-92353278D01*
X144043709Y-92336330D01*
X144131419Y-92300000D01*
X159415764Y-92300000D01*
X159428929Y-92400000D01*
X159434684Y-92443708D01*
X159434685Y-92443712D01*
X159490151Y-92577622D01*
X159490152Y-92577624D01*
X159490153Y-92577625D01*
X159578393Y-92692621D01*
X159693389Y-92780861D01*
X159827305Y-92836330D01*
X159954294Y-92853048D01*
X159971013Y-92855250D01*
X159971014Y-92855250D01*
X159971015Y-92855250D01*
X159985991Y-92853278D01*
X160114723Y-92836330D01*
X160248639Y-92780861D01*
X160363635Y-92692621D01*
X160451875Y-92577625D01*
X160507344Y-92443709D01*
X160513099Y-92399998D01*
X166194318Y-92399998D01*
X166194318Y-92400001D01*
X166214955Y-92556760D01*
X166214956Y-92556762D01*
X166271682Y-92693712D01*
X166275464Y-92702841D01*
X166371718Y-92828282D01*
X166497159Y-92924536D01*
X166643238Y-92985044D01*
X166721619Y-92995363D01*
X166799999Y-93005682D01*
X166800000Y-93005682D01*
X166800001Y-93005682D01*
X166852254Y-92998802D01*
X166956762Y-92985044D01*
X167102841Y-92924536D01*
X167228282Y-92828282D01*
X167324536Y-92702841D01*
X167385044Y-92556762D01*
X167405682Y-92400000D01*
X167397299Y-92336328D01*
X167385044Y-92243239D01*
X167385044Y-92243238D01*
X167324536Y-92097159D01*
X167228282Y-91971718D01*
X167102841Y-91875464D01*
X167026175Y-91843708D01*
X166956762Y-91814956D01*
X166956760Y-91814955D01*
X166800001Y-91794318D01*
X166799999Y-91794318D01*
X166643239Y-91814955D01*
X166643237Y-91814956D01*
X166497160Y-91875463D01*
X166371718Y-91971718D01*
X166275463Y-92097160D01*
X166214956Y-92243237D01*
X166214955Y-92243239D01*
X166194318Y-92399998D01*
X160513099Y-92399998D01*
X160526264Y-92300000D01*
X160507344Y-92156291D01*
X160451875Y-92022375D01*
X160363635Y-91907379D01*
X160248639Y-91819139D01*
X160248638Y-91819138D01*
X160248636Y-91819137D01*
X160114726Y-91763671D01*
X160114724Y-91763670D01*
X160114723Y-91763670D01*
X160042868Y-91754210D01*
X159971015Y-91744750D01*
X159971013Y-91744750D01*
X159827305Y-91763670D01*
X159827301Y-91763671D01*
X159693391Y-91819137D01*
X159578393Y-91907379D01*
X159490151Y-92022377D01*
X159434685Y-92156287D01*
X159434684Y-92156291D01*
X159418284Y-92280862D01*
X159415764Y-92300000D01*
X144131419Y-92300000D01*
X144177625Y-92280861D01*
X144292621Y-92192621D01*
X144380861Y-92077625D01*
X144436330Y-91943709D01*
X144455250Y-91800000D01*
X144436330Y-91656291D01*
X144380861Y-91522375D01*
X144292621Y-91407379D01*
X144177625Y-91319139D01*
X144177624Y-91319138D01*
X144177622Y-91319137D01*
X144043712Y-91263671D01*
X144043710Y-91263670D01*
X144043709Y-91263670D01*
X143971854Y-91254210D01*
X143900001Y-91244750D01*
X143899999Y-91244750D01*
X143756291Y-91263670D01*
X143756287Y-91263671D01*
X143622377Y-91319137D01*
X143507379Y-91407379D01*
X143419137Y-91522377D01*
X143363671Y-91656287D01*
X143363670Y-91656291D01*
X143344750Y-91799999D01*
X142142085Y-91799999D01*
X142155250Y-91700000D01*
X142136330Y-91556291D01*
X142080861Y-91422375D01*
X141992621Y-91307379D01*
X141877625Y-91219139D01*
X141877624Y-91219138D01*
X141877622Y-91219137D01*
X141743712Y-91163671D01*
X141743710Y-91163670D01*
X141743709Y-91163670D01*
X141671854Y-91154210D01*
X141600001Y-91144750D01*
X141599999Y-91144750D01*
X141456291Y-91163670D01*
X141456287Y-91163671D01*
X141322377Y-91219137D01*
X141288998Y-91244750D01*
X141225484Y-91293485D01*
X141160318Y-91318679D01*
X141091873Y-91304641D01*
X141074519Y-91293489D01*
X140977625Y-91219139D01*
X140977624Y-91219138D01*
X140977622Y-91219137D01*
X140843712Y-91163671D01*
X140843710Y-91163670D01*
X140843709Y-91163670D01*
X140771854Y-91154210D01*
X140700001Y-91144750D01*
X140699999Y-91144750D01*
X140556291Y-91163670D01*
X140556287Y-91163671D01*
X140422377Y-91219137D01*
X140307379Y-91307379D01*
X140219137Y-91422377D01*
X140163671Y-91556287D01*
X140163670Y-91556291D01*
X140150505Y-91656291D01*
X140144750Y-91700000D01*
X129000000Y-91700000D01*
X129000000Y-89100000D01*
X146244750Y-89100000D01*
X146262698Y-89236329D01*
X146263670Y-89243708D01*
X146263671Y-89243712D01*
X146319137Y-89377622D01*
X146319138Y-89377624D01*
X146319139Y-89377625D01*
X146407379Y-89492621D01*
X146522375Y-89580861D01*
X146656291Y-89636330D01*
X146783280Y-89653048D01*
X146799999Y-89655250D01*
X146800000Y-89655250D01*
X146800001Y-89655250D01*
X146814977Y-89653278D01*
X146943709Y-89636330D01*
X147077625Y-89580861D01*
X147192621Y-89492621D01*
X147280861Y-89377625D01*
X147336330Y-89243709D01*
X147355250Y-89100000D01*
X147336330Y-88956291D01*
X147280861Y-88822375D01*
X147192621Y-88707379D01*
X147183003Y-88699999D01*
X150344750Y-88699999D01*
X150344750Y-88700000D01*
X150363670Y-88843708D01*
X150363671Y-88843712D01*
X150419137Y-88977622D01*
X150419138Y-88977624D01*
X150419139Y-88977625D01*
X150507379Y-89092621D01*
X150622375Y-89180861D01*
X150756291Y-89236330D01*
X150883280Y-89253048D01*
X150899999Y-89255250D01*
X150900000Y-89255250D01*
X150900001Y-89255250D01*
X150914977Y-89253278D01*
X151043709Y-89236330D01*
X151177625Y-89180861D01*
X151292621Y-89092621D01*
X151380861Y-88977625D01*
X151436330Y-88843709D01*
X151455250Y-88700000D01*
X151436330Y-88556291D01*
X151380861Y-88422375D01*
X151292621Y-88307379D01*
X151177625Y-88219139D01*
X151177624Y-88219138D01*
X151177622Y-88219137D01*
X151043712Y-88163671D01*
X151043710Y-88163670D01*
X151043709Y-88163670D01*
X150971854Y-88154210D01*
X150900001Y-88144750D01*
X150899999Y-88144750D01*
X150756291Y-88163670D01*
X150756287Y-88163671D01*
X150622377Y-88219137D01*
X150507379Y-88307379D01*
X150419137Y-88422377D01*
X150363671Y-88556287D01*
X150363670Y-88556291D01*
X150344750Y-88699999D01*
X147183003Y-88699999D01*
X147077625Y-88619139D01*
X147077624Y-88619138D01*
X147077622Y-88619137D01*
X146943712Y-88563671D01*
X146943710Y-88563670D01*
X146943709Y-88563670D01*
X146871854Y-88554210D01*
X146800001Y-88544750D01*
X146799999Y-88544750D01*
X146656291Y-88563670D01*
X146656287Y-88563671D01*
X146522377Y-88619137D01*
X146407379Y-88707379D01*
X146319137Y-88822377D01*
X146263671Y-88956287D01*
X146263670Y-88956291D01*
X146245722Y-89092620D01*
X146244750Y-89100000D01*
X129000000Y-89100000D01*
X129000000Y-88000000D01*
X144044750Y-88000000D01*
X144057915Y-88100000D01*
X144063670Y-88143708D01*
X144063671Y-88143712D01*
X144119137Y-88277622D01*
X144119138Y-88277624D01*
X144119139Y-88277625D01*
X144207379Y-88392621D01*
X144322375Y-88480861D01*
X144322376Y-88480861D01*
X144322377Y-88480862D01*
X144367013Y-88499350D01*
X144456291Y-88536330D01*
X144583280Y-88553048D01*
X144599999Y-88555250D01*
X144600000Y-88555250D01*
X144600001Y-88555250D01*
X144614977Y-88553278D01*
X144743709Y-88536330D01*
X144877625Y-88480861D01*
X144981121Y-88401445D01*
X145046288Y-88376252D01*
X145114733Y-88390290D01*
X145154979Y-88424332D01*
X145207379Y-88492621D01*
X145322375Y-88580861D01*
X145456291Y-88636330D01*
X145583280Y-88653048D01*
X145599999Y-88655250D01*
X145600000Y-88655250D01*
X145600001Y-88655250D01*
X145614977Y-88653278D01*
X145743709Y-88636330D01*
X145877625Y-88580861D01*
X145992621Y-88492621D01*
X146080861Y-88377625D01*
X146136330Y-88243709D01*
X146155250Y-88100000D01*
X146136330Y-87956291D01*
X146080861Y-87822375D01*
X145992621Y-87707379D01*
X145877625Y-87619139D01*
X145877624Y-87619138D01*
X145877622Y-87619137D01*
X145743712Y-87563671D01*
X145743710Y-87563670D01*
X145743709Y-87563670D01*
X145671854Y-87554210D01*
X145600001Y-87544750D01*
X145599999Y-87544750D01*
X145456291Y-87563670D01*
X145456287Y-87563671D01*
X145322377Y-87619137D01*
X145285526Y-87647413D01*
X145218878Y-87698554D01*
X145153712Y-87723748D01*
X145085267Y-87709710D01*
X145045020Y-87675667D01*
X144992621Y-87607379D01*
X144877625Y-87519139D01*
X144877624Y-87519138D01*
X144877622Y-87519137D01*
X144743712Y-87463671D01*
X144743710Y-87463670D01*
X144743709Y-87463670D01*
X144643675Y-87450500D01*
X144600001Y-87444750D01*
X144599999Y-87444750D01*
X144456291Y-87463670D01*
X144456287Y-87463671D01*
X144322377Y-87519137D01*
X144207379Y-87607379D01*
X144119137Y-87722377D01*
X144063671Y-87856287D01*
X144063670Y-87856291D01*
X144050505Y-87956291D01*
X144044750Y-88000000D01*
X129000000Y-88000000D01*
X129000000Y-84500709D01*
X129000004Y-84499996D01*
X131544500Y-84499996D01*
X131544500Y-84500003D01*
X131564484Y-84843113D01*
X131564485Y-84843124D01*
X131624163Y-85181575D01*
X131624166Y-85181588D01*
X131722737Y-85510840D01*
X131858865Y-85826417D01*
X131858871Y-85826430D01*
X132030716Y-86124075D01*
X132235952Y-86399755D01*
X132235957Y-86399761D01*
X132337490Y-86507379D01*
X132471813Y-86649753D01*
X132471819Y-86649758D01*
X132471821Y-86649760D01*
X132735093Y-86870672D01*
X132735098Y-86870675D01*
X133022250Y-87059538D01*
X133124329Y-87110804D01*
X133329378Y-87213785D01*
X133329384Y-87213787D01*
X133329386Y-87213788D01*
X133652353Y-87331338D01*
X133986783Y-87410599D01*
X134328153Y-87450500D01*
X134328160Y-87450500D01*
X134671840Y-87450500D01*
X134671847Y-87450500D01*
X135013217Y-87410599D01*
X135347647Y-87331338D01*
X135670614Y-87213788D01*
X135670617Y-87213786D01*
X135670621Y-87213785D01*
X135774487Y-87161620D01*
X135977750Y-87059538D01*
X136220317Y-86899999D01*
X137444750Y-86899999D01*
X137444750Y-86900000D01*
X137463670Y-87043708D01*
X137463671Y-87043712D01*
X137519137Y-87177622D01*
X137519138Y-87177624D01*
X137519139Y-87177625D01*
X137607379Y-87292621D01*
X137722375Y-87380861D01*
X137856291Y-87436330D01*
X137983280Y-87453048D01*
X137999999Y-87455250D01*
X138000000Y-87455250D01*
X138000001Y-87455250D01*
X138014977Y-87453278D01*
X138143709Y-87436330D01*
X138277625Y-87380861D01*
X138392621Y-87292621D01*
X138480861Y-87177625D01*
X138536330Y-87043709D01*
X138555250Y-86900000D01*
X138536330Y-86756291D01*
X138480861Y-86622375D01*
X138392621Y-86507379D01*
X138277625Y-86419139D01*
X138277624Y-86419138D01*
X138277622Y-86419137D01*
X138143712Y-86363671D01*
X138143710Y-86363670D01*
X138143709Y-86363670D01*
X138071854Y-86354210D01*
X138000001Y-86344750D01*
X137999999Y-86344750D01*
X137856291Y-86363670D01*
X137856287Y-86363671D01*
X137722377Y-86419137D01*
X137607379Y-86507379D01*
X137519137Y-86622377D01*
X137463671Y-86756287D01*
X137463670Y-86756291D01*
X137444750Y-86899999D01*
X136220317Y-86899999D01*
X136264902Y-86870675D01*
X136528187Y-86649753D01*
X136764044Y-86399759D01*
X136969284Y-86124074D01*
X137141131Y-85826426D01*
X137277262Y-85510841D01*
X137375834Y-85181585D01*
X137435516Y-84843113D01*
X137455500Y-84500000D01*
X137435516Y-84156887D01*
X137425485Y-84099999D01*
X137375836Y-83818424D01*
X137375833Y-83818411D01*
X137277262Y-83489159D01*
X137214522Y-83343712D01*
X137141131Y-83173574D01*
X137068496Y-83047767D01*
X136969283Y-82875924D01*
X136764047Y-82600244D01*
X136764042Y-82600238D01*
X136649998Y-82479359D01*
X136528187Y-82350247D01*
X136528180Y-82350241D01*
X136528178Y-82350239D01*
X136468304Y-82299999D01*
X143044750Y-82299999D01*
X143044750Y-82300000D01*
X143063670Y-82443708D01*
X143063671Y-82443712D01*
X143119137Y-82577622D01*
X143119138Y-82577624D01*
X143119139Y-82577625D01*
X143193485Y-82674515D01*
X143218679Y-82739682D01*
X143204641Y-82808127D01*
X143193489Y-82825480D01*
X143174265Y-82850534D01*
X143119137Y-82922377D01*
X143063671Y-83056287D01*
X143063670Y-83056291D01*
X143044750Y-83200000D01*
X143058414Y-83303790D01*
X143063670Y-83343708D01*
X143063671Y-83343712D01*
X143119137Y-83477622D01*
X143119138Y-83477624D01*
X143119139Y-83477625D01*
X143193485Y-83574515D01*
X143218679Y-83639682D01*
X143204641Y-83708127D01*
X143193489Y-83725480D01*
X143146168Y-83787150D01*
X143119137Y-83822377D01*
X143063671Y-83956287D01*
X143063670Y-83956291D01*
X143044750Y-84100000D01*
X143052239Y-84156887D01*
X143063670Y-84243708D01*
X143063671Y-84243712D01*
X143119137Y-84377622D01*
X143119138Y-84377624D01*
X143119139Y-84377625D01*
X143207379Y-84492621D01*
X143322375Y-84580861D01*
X143456291Y-84636330D01*
X143583280Y-84653048D01*
X143599999Y-84655250D01*
X143600000Y-84655250D01*
X143600001Y-84655250D01*
X143614977Y-84653278D01*
X143743709Y-84636330D01*
X143877625Y-84580861D01*
X143983010Y-84499996D01*
X162544500Y-84499996D01*
X162544500Y-84500003D01*
X162564484Y-84843113D01*
X162564485Y-84843124D01*
X162624163Y-85181575D01*
X162624166Y-85181588D01*
X162722737Y-85510840D01*
X162858865Y-85826417D01*
X162858871Y-85826430D01*
X163030716Y-86124075D01*
X163235952Y-86399755D01*
X163235957Y-86399761D01*
X163337490Y-86507379D01*
X163471813Y-86649753D01*
X163471819Y-86649758D01*
X163471821Y-86649760D01*
X163735093Y-86870672D01*
X163735098Y-86870675D01*
X164022250Y-87059538D01*
X164124329Y-87110804D01*
X164329378Y-87213785D01*
X164329384Y-87213787D01*
X164329386Y-87213788D01*
X164652353Y-87331338D01*
X164986783Y-87410599D01*
X165328153Y-87450500D01*
X165328160Y-87450500D01*
X165671840Y-87450500D01*
X165671847Y-87450500D01*
X166013217Y-87410599D01*
X166347647Y-87331338D01*
X166670614Y-87213788D01*
X166670617Y-87213786D01*
X166670621Y-87213785D01*
X166774487Y-87161620D01*
X166977750Y-87059538D01*
X167264902Y-86870675D01*
X167528187Y-86649753D01*
X167764044Y-86399759D01*
X167969284Y-86124074D01*
X168141131Y-85826426D01*
X168277262Y-85510841D01*
X168375834Y-85181585D01*
X168435516Y-84843113D01*
X168455500Y-84500000D01*
X168435516Y-84156887D01*
X168425485Y-84099999D01*
X168375836Y-83818424D01*
X168375833Y-83818411D01*
X168277262Y-83489159D01*
X168214522Y-83343712D01*
X168141131Y-83173574D01*
X168068496Y-83047767D01*
X167969283Y-82875924D01*
X167764047Y-82600244D01*
X167764042Y-82600238D01*
X167649998Y-82479359D01*
X167528187Y-82350247D01*
X167528180Y-82350241D01*
X167528178Y-82350239D01*
X167264906Y-82129327D01*
X167121326Y-82034893D01*
X166977750Y-81940462D01*
X166911877Y-81907379D01*
X166670621Y-81786214D01*
X166670615Y-81786212D01*
X166347648Y-81668662D01*
X166347645Y-81668661D01*
X166013218Y-81589401D01*
X165970545Y-81584413D01*
X165671847Y-81549500D01*
X165328153Y-81549500D01*
X165029454Y-81584413D01*
X164986782Y-81589401D01*
X164986780Y-81589401D01*
X164652354Y-81668661D01*
X164652351Y-81668662D01*
X164329384Y-81786212D01*
X164329378Y-81786214D01*
X164022253Y-81940460D01*
X163735093Y-82129327D01*
X163471821Y-82350239D01*
X163471811Y-82350249D01*
X163235957Y-82600238D01*
X163235952Y-82600244D01*
X163030716Y-82875924D01*
X162858871Y-83173569D01*
X162858865Y-83173582D01*
X162722737Y-83489159D01*
X162624166Y-83818411D01*
X162624163Y-83818424D01*
X162564485Y-84156875D01*
X162564484Y-84156886D01*
X162544500Y-84499996D01*
X143983010Y-84499996D01*
X143992621Y-84492621D01*
X144080861Y-84377625D01*
X144136330Y-84243709D01*
X144155250Y-84100000D01*
X144136330Y-83956291D01*
X144080861Y-83822375D01*
X144006514Y-83725484D01*
X143981321Y-83660318D01*
X143995359Y-83591873D01*
X144006510Y-83574519D01*
X144080861Y-83477625D01*
X144136330Y-83343709D01*
X144155250Y-83200000D01*
X144136330Y-83056291D01*
X144080861Y-82922375D01*
X144006514Y-82825484D01*
X143981321Y-82760318D01*
X143995359Y-82691873D01*
X144006510Y-82674519D01*
X144080861Y-82577625D01*
X144136330Y-82443709D01*
X144155250Y-82300000D01*
X144136330Y-82156291D01*
X144080861Y-82022375D01*
X143992621Y-81907379D01*
X143877625Y-81819139D01*
X143877624Y-81819138D01*
X143877622Y-81819137D01*
X143743712Y-81763671D01*
X143743710Y-81763670D01*
X143743709Y-81763670D01*
X143671854Y-81754210D01*
X143600001Y-81744750D01*
X143599999Y-81744750D01*
X143456291Y-81763670D01*
X143456287Y-81763671D01*
X143322377Y-81819137D01*
X143207379Y-81907379D01*
X143119137Y-82022377D01*
X143063671Y-82156287D01*
X143063670Y-82156291D01*
X143044750Y-82299999D01*
X136468304Y-82299999D01*
X136264906Y-82129327D01*
X136121326Y-82034893D01*
X135977750Y-81940462D01*
X135911877Y-81907379D01*
X135670621Y-81786214D01*
X135670615Y-81786212D01*
X135347648Y-81668662D01*
X135347645Y-81668661D01*
X135013218Y-81589401D01*
X134970545Y-81584413D01*
X134671847Y-81549500D01*
X134328153Y-81549500D01*
X134029454Y-81584413D01*
X133986782Y-81589401D01*
X133986780Y-81589401D01*
X133652354Y-81668661D01*
X133652351Y-81668662D01*
X133329384Y-81786212D01*
X133329378Y-81786214D01*
X133022253Y-81940460D01*
X132735093Y-82129327D01*
X132471821Y-82350239D01*
X132471811Y-82350249D01*
X132235957Y-82600238D01*
X132235952Y-82600244D01*
X132030716Y-82875924D01*
X131858871Y-83173569D01*
X131858865Y-83173582D01*
X131722737Y-83489159D01*
X131624166Y-83818411D01*
X131624163Y-83818424D01*
X131564485Y-84156875D01*
X131564484Y-84156886D01*
X131544500Y-84499996D01*
X129000004Y-84499996D01*
X129000007Y-84499357D01*
X129002565Y-84264708D01*
X129003029Y-84255266D01*
X129043984Y-83787150D01*
X129045396Y-83776432D01*
X129065870Y-83660318D01*
X129126876Y-83314331D01*
X129129208Y-83303812D01*
X129250663Y-82850534D01*
X129253903Y-82840258D01*
X129414398Y-82399303D01*
X129418519Y-82389353D01*
X129616835Y-81964063D01*
X129621815Y-81954496D01*
X129856435Y-81548122D01*
X129862228Y-81539028D01*
X130131384Y-81154634D01*
X130137953Y-81146074D01*
X130439575Y-80786616D01*
X130446861Y-80778665D01*
X130778665Y-80446861D01*
X130786616Y-80439575D01*
X131146074Y-80137953D01*
X131154634Y-80131384D01*
X131539028Y-79862228D01*
X131548122Y-79856435D01*
X131954496Y-79621815D01*
X131964063Y-79616835D01*
X132389353Y-79418519D01*
X132399303Y-79414398D01*
X132840258Y-79253903D01*
X132850534Y-79250663D01*
X133303812Y-79129208D01*
X133314331Y-79126876D01*
X133776435Y-79045395D01*
X133787150Y-79043984D01*
X134255266Y-79003029D01*
X134264696Y-79002565D01*
X134499358Y-79000007D01*
X134500710Y-79000000D01*
X165499290Y-79000000D01*
X165500642Y-79000007D01*
G37*
%TD.AperFunction*%
%TD*%
M02*
