%TF.GenerationSoftware,KiCad,Pcbnew,7.0.6*%
%TF.CreationDate,2024-06-11T21:52:17-04:00*%
%TF.ProjectId,Axis_Basic,41786973-5f42-4617-9369-632e6b696361,rev?*%
%TF.SameCoordinates,Original*%
%TF.FileFunction,Copper,L2,Inr*%
%TF.FilePolarity,Positive*%
%FSLAX46Y46*%
G04 Gerber Fmt 4.6, Leading zero omitted, Abs format (unit mm)*
G04 Created by KiCad (PCBNEW 7.0.6) date 2024-06-11 21:52:17*
%MOMM*%
%LPD*%
G01*
G04 APERTURE LIST*
G04 Aperture macros list*
%AMRoundRect*
0 Rectangle with rounded corners*
0 $1 Rounding radius*
0 $2 $3 $4 $5 $6 $7 $8 $9 X,Y pos of 4 corners*
0 Add a 4 corners polygon primitive as box body*
4,1,4,$2,$3,$4,$5,$6,$7,$8,$9,$2,$3,0*
0 Add four circle primitives for the rounded corners*
1,1,$1+$1,$2,$3*
1,1,$1+$1,$4,$5*
1,1,$1+$1,$6,$7*
1,1,$1+$1,$8,$9*
0 Add four rect primitives between the rounded corners*
20,1,$1+$1,$2,$3,$4,$5,0*
20,1,$1+$1,$4,$5,$6,$7,0*
20,1,$1+$1,$6,$7,$8,$9,0*
20,1,$1+$1,$8,$9,$2,$3,0*%
G04 Aperture macros list end*
%TA.AperFunction,ComponentPad*%
%ADD10R,1.000000X1.000000*%
%TD*%
%TA.AperFunction,ComponentPad*%
%ADD11O,1.000000X1.000000*%
%TD*%
%TA.AperFunction,ComponentPad*%
%ADD12RoundRect,0.250000X-0.625000X0.350000X-0.625000X-0.350000X0.625000X-0.350000X0.625000X0.350000X0*%
%TD*%
%TA.AperFunction,ComponentPad*%
%ADD13O,1.750000X1.200000*%
%TD*%
%TA.AperFunction,ComponentPad*%
%ADD14C,0.500000*%
%TD*%
%TA.AperFunction,ComponentPad*%
%ADD15RoundRect,0.250000X0.350000X0.625000X-0.350000X0.625000X-0.350000X-0.625000X0.350000X-0.625000X0*%
%TD*%
%TA.AperFunction,ComponentPad*%
%ADD16O,1.200000X1.750000*%
%TD*%
%TA.AperFunction,ComponentPad*%
%ADD17O,1.000000X2.100000*%
%TD*%
%TA.AperFunction,ComponentPad*%
%ADD18O,1.000000X1.800000*%
%TD*%
%TA.AperFunction,ViaPad*%
%ADD19C,0.700000*%
%TD*%
%TA.AperFunction,ViaPad*%
%ADD20C,0.800000*%
%TD*%
%TA.AperFunction,ViaPad*%
%ADD21C,0.450000*%
%TD*%
G04 APERTURE END LIST*
D10*
%TO.N,+3.3V*%
%TO.C,J5*%
X158740000Y-113330000D03*
D11*
%TO.N,SWDIO*%
X158740000Y-114600000D03*
%TO.N,GND*%
X157470000Y-113330000D03*
%TO.N,SWCLK*%
X157470000Y-114600000D03*
%TO.N,GND*%
X156200000Y-113330000D03*
%TO.N,unconnected-(J5-SWO{slash}TDO-Pad6)*%
X156200000Y-114600000D03*
%TO.N,unconnected-(J5-KEY-Pad7)*%
X154930000Y-113330000D03*
%TO.N,unconnected-(J5-NC{slash}TDI-Pad8)*%
X154930000Y-114600000D03*
%TO.N,GND*%
X153660000Y-113330000D03*
%TO.N,RESET*%
X153660000Y-114600000D03*
%TD*%
D12*
%TO.N,GND*%
%TO.C,J4*%
X134450000Y-107300000D03*
D13*
%TO.N,VCC*%
X134450000Y-109300000D03*
%TD*%
D14*
%TO.N,GND*%
%TO.C,U4*%
X144832353Y-100229412D03*
X145832353Y-100229412D03*
X146832353Y-100229412D03*
X144832353Y-99229412D03*
X145832353Y-99229412D03*
X146832353Y-99229412D03*
X144832353Y-98229412D03*
X145832353Y-98229412D03*
X146832353Y-98229412D03*
%TD*%
D15*
%TO.N,SCL2*%
%TO.C,J3*%
X159500000Y-84300000D03*
D16*
%TO.N,SDA2*%
X157500000Y-84300000D03*
%TO.N,unconnected-(J3-Pad3)*%
X155500000Y-84300000D03*
%TO.N,GND*%
X153500000Y-84300000D03*
%TD*%
D12*
%TO.N,MOTOR_A1*%
%TO.C,J2*%
X134432353Y-96229412D03*
D13*
%TO.N,MOTOR_B1*%
X134432353Y-98229412D03*
%TO.N,MOTOR_A2*%
X134432353Y-100229412D03*
%TO.N,MOTOR_B2*%
X134432353Y-102229412D03*
%TD*%
D17*
%TO.N,Net-(J1-SHIELD)*%
%TO.C,J1*%
X147820000Y-86425000D03*
D18*
X147820000Y-82225000D03*
D17*
X139180000Y-86425000D03*
D18*
X139180000Y-82225000D03*
%TD*%
D19*
%TO.N,GND*%
X145400000Y-93800000D03*
%TO.N,+3.3V*%
X150800000Y-116200000D03*
%TO.N,RESET*%
X149800000Y-115100000D03*
%TO.N,GND*%
X152000500Y-110500000D03*
%TO.N,AUX2*%
X151800000Y-88600000D03*
X164800000Y-101400000D03*
D20*
%TO.N,AUX1*%
X164000000Y-102500000D03*
X159600000Y-92900000D03*
D19*
%TO.N,+3.3V*%
X140900000Y-115100000D03*
X149300000Y-104000000D03*
X161200000Y-109000000D03*
D20*
X164300000Y-93100000D03*
D19*
X160500000Y-101000000D03*
D20*
X151600000Y-108600000D03*
D19*
X151900000Y-104900000D03*
X155300000Y-111700000D03*
X161200000Y-91000000D03*
D20*
X146600000Y-106700000D03*
D19*
X147400000Y-93900000D03*
X141900000Y-115100000D03*
D20*
X130400000Y-90700000D03*
D19*
X141400000Y-115800000D03*
X140400000Y-115800000D03*
X147982353Y-97029412D03*
%TO.N,GND*%
X148900000Y-105100000D03*
X137900000Y-102500000D03*
X160000000Y-105500000D03*
X150400000Y-83800000D03*
X141700000Y-90400000D03*
X143700000Y-116000000D03*
X137900000Y-106300000D03*
X152000000Y-102100000D03*
X139400000Y-107000000D03*
X138400000Y-107000000D03*
X137100000Y-102500000D03*
X138700000Y-102500000D03*
X158400000Y-108400000D03*
X139100000Y-90000000D03*
X144800000Y-116000000D03*
X137082353Y-95929412D03*
D20*
X160100000Y-87500000D03*
D19*
X137882353Y-95929412D03*
X139100000Y-90800000D03*
X148400000Y-92900000D03*
X136782353Y-94429412D03*
X136800000Y-104000000D03*
X136782353Y-95229412D03*
X138682353Y-95929412D03*
X138900000Y-106300000D03*
X136800000Y-103200000D03*
X136900000Y-106300000D03*
X159800000Y-101700000D03*
X137400000Y-107000000D03*
X146200000Y-119000000D03*
X144200000Y-115300000D03*
%TO.N,VCC*%
X142200000Y-106600000D03*
X142200000Y-105700000D03*
X143200000Y-94100000D03*
X143900000Y-92900000D03*
X143100000Y-106600000D03*
X143000000Y-105700000D03*
X143200000Y-93300000D03*
X142182353Y-104829412D03*
X143200000Y-92500000D03*
X142982353Y-104829412D03*
X143900000Y-93700000D03*
X147300000Y-105100000D03*
%TO.N,RESET*%
X150595925Y-98073707D03*
D20*
%TO.N,V_USB*%
X146400000Y-88700000D03*
D19*
X140400000Y-88700000D03*
%TO.N,NEOPIX*%
X136900000Y-90700000D03*
X152100000Y-89949500D03*
D21*
%TO.N,MOTOR_A1*%
X143132353Y-95979412D03*
X143632353Y-96229412D03*
X143632353Y-96729412D03*
X143132353Y-96479412D03*
%TO.N,MOTOR_B2*%
X143132353Y-102479412D03*
X143132353Y-101979412D03*
X143632353Y-102229412D03*
X143632353Y-101729412D03*
D19*
%TO.N,UART_RX*%
X153000000Y-90300000D03*
X149246657Y-97649500D03*
D20*
%TO.N,User_Input*%
X157400000Y-91899500D03*
X150700000Y-108100000D03*
D19*
%TO.N,SCL1*%
X158900000Y-98600000D03*
%TO.N,SDA1*%
X160500000Y-99500000D03*
D20*
%TO.N,EEPROM_CS*%
X158980252Y-91480252D03*
D19*
X166900000Y-100900000D03*
%TO.N,EN*%
X159000000Y-105700000D03*
X151800000Y-105900000D03*
%TO.N,DIAG*%
X148600000Y-90300000D03*
X150700500Y-102200000D03*
%TO.N,MISO*%
X165700000Y-95700000D03*
X159137932Y-110225597D03*
%TO.N,SCK*%
X155050000Y-108450000D03*
X165500000Y-97100000D03*
%TO.N,MOSI*%
X165700000Y-94400000D03*
X156300000Y-108775498D03*
%TO.N,Spread*%
X151600000Y-91900000D03*
X147900000Y-102490500D03*
%TO.N,MOT_M1*%
X150700500Y-103194625D03*
X153699500Y-102400000D03*
%TO.N,MOT_M0*%
X153900000Y-104300000D03*
X150700000Y-104300000D03*
%TD*%
%TA.AperFunction,Conductor*%
%TO.N,GND*%
G36*
X165717445Y-79009493D02*
G01*
X165958385Y-79020013D01*
X165963320Y-79020427D01*
X166193261Y-79049089D01*
X166421921Y-79079193D01*
X166426490Y-79079972D01*
X166655391Y-79127968D01*
X166793210Y-79158522D01*
X166878677Y-79177470D01*
X166882939Y-79178575D01*
X167107969Y-79245569D01*
X167325459Y-79314144D01*
X167329305Y-79315498D01*
X167548675Y-79401097D01*
X167758977Y-79488208D01*
X167762437Y-79489768D01*
X167974350Y-79593365D01*
X168176129Y-79698405D01*
X168179238Y-79700139D01*
X168285211Y-79763284D01*
X168382116Y-79821027D01*
X168573954Y-79943242D01*
X168576669Y-79945074D01*
X168769063Y-80082440D01*
X168949600Y-80220971D01*
X168951872Y-80222805D01*
X169132397Y-80375701D01*
X169132415Y-80375716D01*
X169301239Y-80530416D01*
X169469583Y-80698760D01*
X169624281Y-80867582D01*
X169777186Y-81048117D01*
X169779044Y-81050421D01*
X169917559Y-81230937D01*
X169947426Y-81272768D01*
X170054924Y-81423329D01*
X170056755Y-81426043D01*
X170102004Y-81497068D01*
X170156098Y-81581979D01*
X170178973Y-81617884D01*
X170299859Y-81820760D01*
X170301593Y-81823868D01*
X170406634Y-82025649D01*
X170407601Y-82027627D01*
X170510220Y-82237539D01*
X170511800Y-82241043D01*
X170598915Y-82451357D01*
X170684487Y-82670659D01*
X170685859Y-82674553D01*
X170754426Y-82892017D01*
X170821420Y-83117049D01*
X170822528Y-83121321D01*
X170872038Y-83344640D01*
X170920022Y-83573488D01*
X170920811Y-83578120D01*
X170950917Y-83806795D01*
X170979569Y-84036662D01*
X170979986Y-84041629D01*
X170990505Y-84282545D01*
X170999500Y-84500001D01*
X170999500Y-115499999D01*
X170990505Y-115717454D01*
X170979986Y-115958369D01*
X170979569Y-115963336D01*
X170950917Y-116193204D01*
X170920811Y-116421878D01*
X170920022Y-116426510D01*
X170872038Y-116655359D01*
X170822528Y-116878677D01*
X170821420Y-116882949D01*
X170754426Y-117107982D01*
X170685859Y-117325445D01*
X170684487Y-117329339D01*
X170598915Y-117548642D01*
X170511800Y-117758955D01*
X170510220Y-117762459D01*
X170406638Y-117974342D01*
X170301592Y-118176130D01*
X170299859Y-118179238D01*
X170178973Y-118382115D01*
X170056755Y-118573955D01*
X170054924Y-118576668D01*
X169917565Y-118769055D01*
X169779044Y-118949577D01*
X169777168Y-118951904D01*
X169624283Y-119132414D01*
X169469583Y-119301239D01*
X169301239Y-119469583D01*
X169132414Y-119624283D01*
X168951904Y-119777168D01*
X168949577Y-119779044D01*
X168769055Y-119917565D01*
X168576668Y-120054924D01*
X168573955Y-120056755D01*
X168382115Y-120178973D01*
X168179238Y-120299859D01*
X168176130Y-120301592D01*
X167974342Y-120406638D01*
X167762459Y-120510220D01*
X167758955Y-120511800D01*
X167548642Y-120598915D01*
X167329339Y-120684487D01*
X167325445Y-120685859D01*
X167107982Y-120754426D01*
X166882949Y-120821420D01*
X166878677Y-120822528D01*
X166655359Y-120872038D01*
X166426510Y-120920022D01*
X166421878Y-120920811D01*
X166193204Y-120950917D01*
X165963336Y-120979569D01*
X165958369Y-120979986D01*
X165717454Y-120990505D01*
X165499999Y-120999500D01*
X134500001Y-120999500D01*
X134282545Y-120990505D01*
X134041629Y-120979986D01*
X134036662Y-120979569D01*
X133806795Y-120950917D01*
X133578120Y-120920811D01*
X133573488Y-120920022D01*
X133344640Y-120872038D01*
X133121321Y-120822528D01*
X133117049Y-120821420D01*
X132892017Y-120754426D01*
X132674553Y-120685859D01*
X132670659Y-120684487D01*
X132451357Y-120598915D01*
X132241043Y-120511800D01*
X132237539Y-120510220D01*
X132105816Y-120445825D01*
X132025654Y-120406636D01*
X131823866Y-120301592D01*
X131820760Y-120299859D01*
X131657629Y-120202655D01*
X131617883Y-120178972D01*
X131560627Y-120142495D01*
X131426043Y-120056755D01*
X131423329Y-120054924D01*
X131293067Y-119961919D01*
X131230944Y-119917564D01*
X131154486Y-119858897D01*
X131050421Y-119779044D01*
X131048117Y-119777186D01*
X130867582Y-119624281D01*
X130698760Y-119469583D01*
X130530416Y-119301239D01*
X130375716Y-119132415D01*
X130375715Y-119132414D01*
X130222805Y-118951872D01*
X130220971Y-118949600D01*
X130082440Y-118769063D01*
X129955123Y-118590744D01*
X129945074Y-118576669D01*
X129943242Y-118573954D01*
X129821027Y-118382115D01*
X129719118Y-118211090D01*
X129700139Y-118179238D01*
X129698405Y-118176129D01*
X129593365Y-117974350D01*
X129489768Y-117762437D01*
X129488208Y-117758977D01*
X129401097Y-117548675D01*
X129315498Y-117329305D01*
X129314144Y-117325459D01*
X129245564Y-117107951D01*
X129178578Y-116882949D01*
X129177470Y-116878677D01*
X129127961Y-116655359D01*
X129122592Y-116629752D01*
X129079972Y-116426490D01*
X129079193Y-116421921D01*
X129049082Y-116193204D01*
X129020427Y-115963320D01*
X129020013Y-115958385D01*
X129009491Y-115717381D01*
X129008125Y-115684371D01*
X131099500Y-115684371D01*
X131139367Y-116050946D01*
X131218635Y-116411065D01*
X131241061Y-116477622D01*
X131336375Y-116760503D01*
X131336377Y-116760508D01*
X131336379Y-116760513D01*
X131491200Y-117095153D01*
X131491202Y-117095157D01*
X131491204Y-117095161D01*
X131491205Y-117095162D01*
X131681310Y-117411119D01*
X131869261Y-117658364D01*
X131904461Y-117704669D01*
X131955904Y-117758977D01*
X132158044Y-117972373D01*
X132439083Y-118211090D01*
X132744284Y-118418022D01*
X132744288Y-118418024D01*
X132744291Y-118418026D01*
X132913889Y-118507941D01*
X133070070Y-118590743D01*
X133412621Y-118727227D01*
X133412627Y-118727228D01*
X133412628Y-118727229D01*
X133412634Y-118727231D01*
X133688226Y-118803748D01*
X133767919Y-118825875D01*
X133767930Y-118825876D01*
X133767931Y-118825877D01*
X134131786Y-118885529D01*
X134131790Y-118885529D01*
X134131801Y-118885531D01*
X134407890Y-118900500D01*
X134407892Y-118900500D01*
X134592108Y-118900500D01*
X134592110Y-118900500D01*
X134868199Y-118885531D01*
X134868210Y-118885529D01*
X134868213Y-118885529D01*
X135120077Y-118844237D01*
X135232081Y-118825875D01*
X135587379Y-118727227D01*
X135929930Y-118590743D01*
X136255716Y-118418022D01*
X136560917Y-118211090D01*
X136841956Y-117972373D01*
X137095538Y-117704670D01*
X137318690Y-117411119D01*
X137508795Y-117095162D01*
X137663625Y-116760503D01*
X137781364Y-116411066D01*
X137860632Y-116050948D01*
X137887924Y-115800000D01*
X139844750Y-115800000D01*
X139863670Y-115943708D01*
X139863671Y-115943712D01*
X139919137Y-116077622D01*
X139919138Y-116077624D01*
X139919139Y-116077625D01*
X140007379Y-116192621D01*
X140122375Y-116280861D01*
X140256291Y-116336330D01*
X140383280Y-116353048D01*
X140399999Y-116355250D01*
X140400000Y-116355250D01*
X140400001Y-116355250D01*
X140414977Y-116353278D01*
X140543709Y-116336330D01*
X140677625Y-116280861D01*
X140792621Y-116192621D01*
X140801625Y-116180886D01*
X140858050Y-116139685D01*
X140927796Y-116135529D01*
X140988717Y-116169740D01*
X140998367Y-116180876D01*
X141007379Y-116192621D01*
X141122375Y-116280861D01*
X141256291Y-116336330D01*
X141383280Y-116353048D01*
X141399999Y-116355250D01*
X141400000Y-116355250D01*
X141400001Y-116355250D01*
X141414977Y-116353278D01*
X141543709Y-116336330D01*
X141677625Y-116280861D01*
X141783005Y-116200000D01*
X150244750Y-116200000D01*
X150262698Y-116336329D01*
X150263670Y-116343708D01*
X150263671Y-116343712D01*
X150319137Y-116477622D01*
X150319138Y-116477624D01*
X150319139Y-116477625D01*
X150407379Y-116592621D01*
X150522375Y-116680861D01*
X150656291Y-116736330D01*
X150783280Y-116753048D01*
X150799999Y-116755250D01*
X150800000Y-116755250D01*
X150800001Y-116755250D01*
X150814977Y-116753278D01*
X150943709Y-116736330D01*
X151077625Y-116680861D01*
X151192621Y-116592621D01*
X151280861Y-116477625D01*
X151336330Y-116343709D01*
X151355250Y-116200000D01*
X151336330Y-116056291D01*
X151280861Y-115922375D01*
X151192621Y-115807379D01*
X151077625Y-115719139D01*
X151077624Y-115719138D01*
X151077622Y-115719137D01*
X150993687Y-115684371D01*
X162099500Y-115684371D01*
X162139367Y-116050946D01*
X162218635Y-116411065D01*
X162241061Y-116477622D01*
X162336375Y-116760503D01*
X162336377Y-116760508D01*
X162336379Y-116760513D01*
X162491200Y-117095153D01*
X162491202Y-117095157D01*
X162491204Y-117095161D01*
X162491205Y-117095162D01*
X162681310Y-117411119D01*
X162869261Y-117658364D01*
X162904461Y-117704669D01*
X162955904Y-117758977D01*
X163158044Y-117972373D01*
X163439083Y-118211090D01*
X163744284Y-118418022D01*
X163744288Y-118418024D01*
X163744291Y-118418026D01*
X163913889Y-118507941D01*
X164070070Y-118590743D01*
X164412621Y-118727227D01*
X164412627Y-118727228D01*
X164412628Y-118727229D01*
X164412634Y-118727231D01*
X164688226Y-118803748D01*
X164767919Y-118825875D01*
X164767930Y-118825876D01*
X164767931Y-118825877D01*
X165131786Y-118885529D01*
X165131790Y-118885529D01*
X165131801Y-118885531D01*
X165407890Y-118900500D01*
X165407892Y-118900500D01*
X165592108Y-118900500D01*
X165592110Y-118900500D01*
X165868199Y-118885531D01*
X165868210Y-118885529D01*
X165868213Y-118885529D01*
X166120077Y-118844237D01*
X166232081Y-118825875D01*
X166587379Y-118727227D01*
X166929930Y-118590743D01*
X167255716Y-118418022D01*
X167560917Y-118211090D01*
X167841956Y-117972373D01*
X168095538Y-117704670D01*
X168318690Y-117411119D01*
X168508795Y-117095162D01*
X168663625Y-116760503D01*
X168781364Y-116411066D01*
X168860632Y-116050948D01*
X168900500Y-115684370D01*
X168900500Y-115315630D01*
X168860632Y-114949052D01*
X168781364Y-114588934D01*
X168663625Y-114239497D01*
X168624311Y-114154522D01*
X168508799Y-113904846D01*
X168508797Y-113904842D01*
X168498816Y-113888253D01*
X168318690Y-113588881D01*
X168095538Y-113295330D01*
X167841956Y-113027627D01*
X167815318Y-113005000D01*
X167560916Y-112788909D01*
X167342960Y-112641131D01*
X167255716Y-112581978D01*
X167255713Y-112581976D01*
X167255708Y-112581973D01*
X166929938Y-112409261D01*
X166929926Y-112409255D01*
X166587371Y-112272770D01*
X166587365Y-112272768D01*
X166232094Y-112174128D01*
X166232068Y-112174122D01*
X165868213Y-112114470D01*
X165868200Y-112114469D01*
X165868199Y-112114469D01*
X165592110Y-112099500D01*
X165407890Y-112099500D01*
X165131801Y-112114469D01*
X165131799Y-112114469D01*
X165131786Y-112114470D01*
X164767931Y-112174122D01*
X164767905Y-112174128D01*
X164412634Y-112272768D01*
X164412628Y-112272770D01*
X164070073Y-112409255D01*
X164070061Y-112409261D01*
X163744291Y-112581973D01*
X163744282Y-112581979D01*
X163439083Y-112788909D01*
X163158044Y-113027626D01*
X162904462Y-113295330D01*
X162904461Y-113295330D01*
X162757685Y-113488410D01*
X162681310Y-113588881D01*
X162681309Y-113588883D01*
X162491202Y-113904842D01*
X162491200Y-113904846D01*
X162336379Y-114239486D01*
X162218635Y-114588934D01*
X162139367Y-114949053D01*
X162099500Y-115315628D01*
X162099500Y-115684371D01*
X150993687Y-115684371D01*
X150943712Y-115663671D01*
X150943710Y-115663670D01*
X150943709Y-115663670D01*
X150849949Y-115651326D01*
X150800001Y-115644750D01*
X150799999Y-115644750D01*
X150656291Y-115663670D01*
X150656287Y-115663671D01*
X150522377Y-115719137D01*
X150407379Y-115807379D01*
X150319137Y-115922377D01*
X150263671Y-116056287D01*
X150263670Y-116056291D01*
X150245722Y-116192620D01*
X150244750Y-116200000D01*
X141783005Y-116200000D01*
X141792621Y-116192621D01*
X141880861Y-116077625D01*
X141936330Y-115943709D01*
X141955250Y-115800000D01*
X141951644Y-115772614D01*
X141962408Y-115703583D01*
X142008787Y-115651326D01*
X142042505Y-115636651D01*
X142043692Y-115636332D01*
X142043709Y-115636330D01*
X142177625Y-115580861D01*
X142292621Y-115492621D01*
X142380861Y-115377625D01*
X142436330Y-115243709D01*
X142455250Y-115100000D01*
X149244750Y-115100000D01*
X149263670Y-115243708D01*
X149263671Y-115243712D01*
X149319137Y-115377622D01*
X149319138Y-115377624D01*
X149319139Y-115377625D01*
X149407379Y-115492621D01*
X149522375Y-115580861D01*
X149656291Y-115636330D01*
X149783280Y-115653048D01*
X149799999Y-115655250D01*
X149800000Y-115655250D01*
X149800001Y-115655250D01*
X149814977Y-115653278D01*
X149943709Y-115636330D01*
X150077625Y-115580861D01*
X150192621Y-115492621D01*
X150280861Y-115377625D01*
X150336330Y-115243709D01*
X150355250Y-115100000D01*
X150336330Y-114956291D01*
X150280861Y-114822375D01*
X150192621Y-114707379D01*
X150077625Y-114619139D01*
X150077624Y-114619138D01*
X150077622Y-114619137D01*
X149943712Y-114563671D01*
X149943710Y-114563670D01*
X149943709Y-114563670D01*
X149871854Y-114554210D01*
X149800001Y-114544750D01*
X149799999Y-114544750D01*
X149656291Y-114563670D01*
X149656287Y-114563671D01*
X149522377Y-114619137D01*
X149407379Y-114707379D01*
X149319137Y-114822377D01*
X149263671Y-114956287D01*
X149263670Y-114956291D01*
X149244750Y-115099999D01*
X149244750Y-115100000D01*
X142455250Y-115100000D01*
X142436330Y-114956291D01*
X142380861Y-114822375D01*
X142292621Y-114707379D01*
X142177625Y-114619139D01*
X142177624Y-114619138D01*
X142177622Y-114619137D01*
X142043712Y-114563671D01*
X142043710Y-114563670D01*
X142043709Y-114563670D01*
X141971854Y-114554210D01*
X141900001Y-114544750D01*
X141899999Y-114544750D01*
X141756291Y-114563670D01*
X141756287Y-114563671D01*
X141622377Y-114619137D01*
X141507378Y-114707380D01*
X141498372Y-114719117D01*
X141441942Y-114760317D01*
X141372196Y-114764469D01*
X141311277Y-114730254D01*
X141301634Y-114719125D01*
X141292621Y-114707379D01*
X141177625Y-114619139D01*
X141177624Y-114619138D01*
X141177622Y-114619137D01*
X141043712Y-114563671D01*
X141043710Y-114563670D01*
X141043709Y-114563670D01*
X140971854Y-114554210D01*
X140900001Y-114544750D01*
X140899999Y-114544750D01*
X140756291Y-114563670D01*
X140756287Y-114563671D01*
X140622377Y-114619137D01*
X140507379Y-114707379D01*
X140419137Y-114822377D01*
X140363671Y-114956287D01*
X140363670Y-114956291D01*
X140344750Y-115099999D01*
X140344750Y-115100000D01*
X140348355Y-115127382D01*
X140337590Y-115196417D01*
X140291210Y-115248673D01*
X140257521Y-115263340D01*
X140256292Y-115263669D01*
X140122377Y-115319137D01*
X140007379Y-115407379D01*
X139919137Y-115522377D01*
X139863671Y-115656287D01*
X139863670Y-115656291D01*
X139844750Y-115799999D01*
X139844750Y-115800000D01*
X137887924Y-115800000D01*
X137900500Y-115684370D01*
X137900500Y-115315630D01*
X137860632Y-114949052D01*
X137781364Y-114588934D01*
X137663625Y-114239497D01*
X137624311Y-114154522D01*
X137508799Y-113904846D01*
X137508797Y-113904842D01*
X137498816Y-113888253D01*
X137318690Y-113588881D01*
X137311939Y-113580000D01*
X152690840Y-113580000D01*
X152731652Y-113714541D01*
X152824503Y-113888253D01*
X152824507Y-113888260D01*
X152949471Y-114040528D01*
X153018009Y-114096776D01*
X153057343Y-114154522D01*
X153059214Y-114224367D01*
X153041397Y-114263065D01*
X153035183Y-114272067D01*
X153035182Y-114272068D01*
X152974860Y-114431125D01*
X152974859Y-114431130D01*
X152954355Y-114599999D01*
X152974859Y-114768869D01*
X152974860Y-114768874D01*
X153035182Y-114927931D01*
X153054758Y-114956291D01*
X153131817Y-115067929D01*
X153198926Y-115127382D01*
X153259150Y-115180736D01*
X153409773Y-115259789D01*
X153409775Y-115259790D01*
X153574944Y-115300500D01*
X153745056Y-115300500D01*
X153910225Y-115259790D01*
X154030971Y-115196417D01*
X154060849Y-115180736D01*
X154060850Y-115180734D01*
X154060852Y-115180734D01*
X154188183Y-115067929D01*
X154192950Y-115061021D01*
X154247230Y-115017033D01*
X154316678Y-115009372D01*
X154379244Y-115040473D01*
X154397046Y-115061017D01*
X154401817Y-115067929D01*
X154438017Y-115099999D01*
X154529150Y-115180736D01*
X154679773Y-115259789D01*
X154679775Y-115259790D01*
X154844944Y-115300500D01*
X155015056Y-115300500D01*
X155180225Y-115259790D01*
X155300971Y-115196417D01*
X155330849Y-115180736D01*
X155330850Y-115180734D01*
X155330852Y-115180734D01*
X155458183Y-115067929D01*
X155462950Y-115061021D01*
X155517230Y-115017033D01*
X155586678Y-115009372D01*
X155649244Y-115040473D01*
X155667046Y-115061017D01*
X155671817Y-115067929D01*
X155708017Y-115099999D01*
X155799150Y-115180736D01*
X155949773Y-115259789D01*
X155949775Y-115259790D01*
X156114944Y-115300500D01*
X156285056Y-115300500D01*
X156450225Y-115259790D01*
X156570971Y-115196417D01*
X156600849Y-115180736D01*
X156600850Y-115180734D01*
X156600852Y-115180734D01*
X156728183Y-115067929D01*
X156732950Y-115061021D01*
X156787230Y-115017033D01*
X156856678Y-115009372D01*
X156919244Y-115040473D01*
X156937046Y-115061017D01*
X156941817Y-115067929D01*
X156978017Y-115099999D01*
X157069150Y-115180736D01*
X157219773Y-115259789D01*
X157219775Y-115259790D01*
X157384944Y-115300500D01*
X157555056Y-115300500D01*
X157720225Y-115259790D01*
X157840971Y-115196417D01*
X157870849Y-115180736D01*
X157870850Y-115180734D01*
X157870852Y-115180734D01*
X157998183Y-115067929D01*
X158002950Y-115061021D01*
X158057230Y-115017033D01*
X158126678Y-115009372D01*
X158189244Y-115040473D01*
X158207046Y-115061017D01*
X158211817Y-115067929D01*
X158248017Y-115099999D01*
X158339150Y-115180736D01*
X158489773Y-115259789D01*
X158489775Y-115259790D01*
X158654944Y-115300500D01*
X158825056Y-115300500D01*
X158990225Y-115259790D01*
X159110971Y-115196417D01*
X159140849Y-115180736D01*
X159140850Y-115180734D01*
X159140852Y-115180734D01*
X159268183Y-115067929D01*
X159364818Y-114927930D01*
X159425140Y-114768872D01*
X159445645Y-114600000D01*
X159425140Y-114431128D01*
X159364818Y-114272070D01*
X159364817Y-114272068D01*
X159364816Y-114272066D01*
X159302017Y-114181088D01*
X159280133Y-114114733D01*
X159297598Y-114047082D01*
X159335175Y-114007545D01*
X159384552Y-113974552D01*
X159384552Y-113974551D01*
X159428867Y-113908231D01*
X159428867Y-113908229D01*
X159428868Y-113908229D01*
X159440499Y-113849752D01*
X159440500Y-113849750D01*
X159440500Y-112810249D01*
X159440499Y-112810247D01*
X159428868Y-112751770D01*
X159428867Y-112751769D01*
X159384552Y-112685447D01*
X159318230Y-112641132D01*
X159318229Y-112641131D01*
X159259752Y-112629500D01*
X159259748Y-112629500D01*
X158237115Y-112629500D01*
X158170076Y-112609815D01*
X158158450Y-112601353D01*
X158028260Y-112494507D01*
X158028253Y-112494503D01*
X157854541Y-112401652D01*
X157720000Y-112360839D01*
X157720000Y-113122327D01*
X157682129Y-113077195D01*
X157582871Y-113019888D01*
X157498436Y-113005000D01*
X157441564Y-113005000D01*
X157357129Y-113019888D01*
X157257871Y-113077195D01*
X157184199Y-113164993D01*
X157145000Y-113272694D01*
X157145000Y-113387306D01*
X157184199Y-113495007D01*
X157255517Y-113580000D01*
X156414483Y-113580000D01*
X156485801Y-113495007D01*
X156525000Y-113387306D01*
X156525000Y-113272694D01*
X156485801Y-113164993D01*
X156414483Y-113080000D01*
X156450000Y-113080000D01*
X157220000Y-113080000D01*
X157220000Y-112360839D01*
X157219999Y-112360839D01*
X157085458Y-112401652D01*
X156911746Y-112494503D01*
X156906678Y-112497890D01*
X156905641Y-112496338D01*
X156849339Y-112520242D01*
X156780473Y-112508442D01*
X156763541Y-112497560D01*
X156763322Y-112497890D01*
X156758253Y-112494503D01*
X156584541Y-112401652D01*
X156450000Y-112360839D01*
X156450000Y-113080000D01*
X156414483Y-113080000D01*
X156412129Y-113077195D01*
X156312871Y-113019888D01*
X156228436Y-113005000D01*
X156171564Y-113005000D01*
X156087129Y-113019888D01*
X155987871Y-113077195D01*
X155950000Y-113122327D01*
X155950000Y-112360839D01*
X155949999Y-112360839D01*
X155815458Y-112401652D01*
X155641746Y-112494503D01*
X155641739Y-112494507D01*
X155489471Y-112619471D01*
X155431330Y-112690317D01*
X155373584Y-112729651D01*
X155303739Y-112731522D01*
X155277851Y-112721448D01*
X155180226Y-112670210D01*
X155015056Y-112629500D01*
X154844944Y-112629500D01*
X154679773Y-112670210D01*
X154582149Y-112721448D01*
X154513641Y-112735174D01*
X154448587Y-112709682D01*
X154428670Y-112690317D01*
X154370528Y-112619471D01*
X154218260Y-112494507D01*
X154218253Y-112494503D01*
X154044541Y-112401652D01*
X153910000Y-112360839D01*
X153910000Y-113122327D01*
X153872129Y-113077195D01*
X153772871Y-113019888D01*
X153688436Y-113005000D01*
X153631564Y-113005000D01*
X153547129Y-113019888D01*
X153447871Y-113077195D01*
X153374199Y-113164993D01*
X153335000Y-113272694D01*
X153335000Y-113387306D01*
X153374199Y-113495007D01*
X153445517Y-113580000D01*
X152690840Y-113580000D01*
X137311939Y-113580000D01*
X137095538Y-113295330D01*
X136891565Y-113079999D01*
X152690839Y-113079999D01*
X152690840Y-113080000D01*
X153410000Y-113080000D01*
X153410000Y-112360839D01*
X153409999Y-112360839D01*
X153275458Y-112401652D01*
X153101746Y-112494503D01*
X153101739Y-112494507D01*
X152949471Y-112619471D01*
X152824507Y-112771739D01*
X152824503Y-112771746D01*
X152731652Y-112945458D01*
X152690839Y-113079999D01*
X136891565Y-113079999D01*
X136841956Y-113027627D01*
X136815318Y-113005000D01*
X136560916Y-112788909D01*
X136342960Y-112641131D01*
X136255716Y-112581978D01*
X136255713Y-112581976D01*
X136255708Y-112581973D01*
X135929938Y-112409261D01*
X135929926Y-112409255D01*
X135587371Y-112272770D01*
X135587365Y-112272768D01*
X135232094Y-112174128D01*
X135232068Y-112174122D01*
X134868213Y-112114470D01*
X134868200Y-112114469D01*
X134868199Y-112114469D01*
X134592110Y-112099500D01*
X134407890Y-112099500D01*
X134131801Y-112114469D01*
X134131799Y-112114469D01*
X134131786Y-112114470D01*
X133767931Y-112174122D01*
X133767905Y-112174128D01*
X133412634Y-112272768D01*
X133412628Y-112272770D01*
X133070073Y-112409255D01*
X133070061Y-112409261D01*
X132744291Y-112581973D01*
X132744282Y-112581979D01*
X132439083Y-112788909D01*
X132158044Y-113027626D01*
X131904462Y-113295330D01*
X131904461Y-113295330D01*
X131757685Y-113488410D01*
X131681310Y-113588881D01*
X131681309Y-113588883D01*
X131491202Y-113904842D01*
X131491200Y-113904846D01*
X131336379Y-114239486D01*
X131218635Y-114588934D01*
X131139367Y-114949053D01*
X131099500Y-115315628D01*
X131099500Y-115684371D01*
X129008125Y-115684371D01*
X129008125Y-115684364D01*
X129000500Y-115500000D01*
X129000500Y-115499500D01*
X129000500Y-111700000D01*
X154744750Y-111700000D01*
X154763670Y-111843708D01*
X154763671Y-111843712D01*
X154819137Y-111977622D01*
X154819138Y-111977624D01*
X154819139Y-111977625D01*
X154907379Y-112092621D01*
X155022375Y-112180861D01*
X155156291Y-112236330D01*
X155283280Y-112253048D01*
X155299999Y-112255250D01*
X155300000Y-112255250D01*
X155300001Y-112255250D01*
X155314977Y-112253278D01*
X155443709Y-112236330D01*
X155577625Y-112180861D01*
X155692621Y-112092621D01*
X155780861Y-111977625D01*
X155836330Y-111843709D01*
X155855250Y-111700000D01*
X155836330Y-111556291D01*
X155780861Y-111422375D01*
X155692621Y-111307379D01*
X155577625Y-111219139D01*
X155577624Y-111219138D01*
X155577622Y-111219137D01*
X155443712Y-111163671D01*
X155443710Y-111163670D01*
X155443709Y-111163670D01*
X155371854Y-111154210D01*
X155300001Y-111144750D01*
X155299999Y-111144750D01*
X155156291Y-111163670D01*
X155156287Y-111163671D01*
X155022377Y-111219137D01*
X154907379Y-111307379D01*
X154819137Y-111422377D01*
X154763671Y-111556287D01*
X154763670Y-111556291D01*
X154744750Y-111699999D01*
X154744750Y-111700000D01*
X129000500Y-111700000D01*
X129000500Y-110225597D01*
X158582682Y-110225597D01*
X158601602Y-110369305D01*
X158601603Y-110369309D01*
X158657069Y-110503219D01*
X158657070Y-110503221D01*
X158657071Y-110503222D01*
X158745311Y-110618218D01*
X158860307Y-110706458D01*
X158994223Y-110761927D01*
X159121212Y-110778645D01*
X159137931Y-110780847D01*
X159137932Y-110780847D01*
X159137933Y-110780847D01*
X159152909Y-110778875D01*
X159281641Y-110761927D01*
X159415557Y-110706458D01*
X159530553Y-110618218D01*
X159618793Y-110503222D01*
X159674262Y-110369306D01*
X159693182Y-110225597D01*
X159674262Y-110081888D01*
X159618793Y-109947972D01*
X159530553Y-109832976D01*
X159415557Y-109744736D01*
X159415556Y-109744735D01*
X159415554Y-109744734D01*
X159281644Y-109689268D01*
X159281642Y-109689267D01*
X159281641Y-109689267D01*
X159209786Y-109679807D01*
X159137933Y-109670347D01*
X159137931Y-109670347D01*
X158994223Y-109689267D01*
X158994219Y-109689268D01*
X158860309Y-109744734D01*
X158745311Y-109832976D01*
X158657069Y-109947974D01*
X158601603Y-110081884D01*
X158601602Y-110081888D01*
X158582682Y-110225596D01*
X158582682Y-110225597D01*
X129000500Y-110225597D01*
X129000500Y-107050000D01*
X133075000Y-107050000D01*
X134170440Y-107050000D01*
X134131722Y-107092059D01*
X134081449Y-107206670D01*
X134071114Y-107331395D01*
X134101837Y-107452719D01*
X134165394Y-107550000D01*
X133075001Y-107550000D01*
X133075001Y-107699986D01*
X133085494Y-107802697D01*
X133140641Y-107969119D01*
X133140643Y-107969124D01*
X133232684Y-108118345D01*
X133356654Y-108242315D01*
X133505875Y-108334356D01*
X133505880Y-108334358D01*
X133672302Y-108389505D01*
X133672310Y-108389506D01*
X133698400Y-108392172D01*
X133763092Y-108418568D01*
X133803243Y-108475748D01*
X133806107Y-108545559D01*
X133770773Y-108605836D01*
X133751771Y-108620523D01*
X133672740Y-108670182D01*
X133672737Y-108670184D01*
X133545184Y-108797737D01*
X133449211Y-108950476D01*
X133389631Y-109120745D01*
X133389630Y-109120750D01*
X133369435Y-109299996D01*
X133369435Y-109300003D01*
X133389630Y-109479249D01*
X133389631Y-109479254D01*
X133449211Y-109649523D01*
X133509038Y-109744736D01*
X133545184Y-109802262D01*
X133672738Y-109929816D01*
X133825478Y-110025789D01*
X133985788Y-110081884D01*
X133995745Y-110085368D01*
X133995750Y-110085369D01*
X134086246Y-110095565D01*
X134130040Y-110100499D01*
X134130043Y-110100500D01*
X134130046Y-110100500D01*
X134769957Y-110100500D01*
X134769958Y-110100499D01*
X134837104Y-110092934D01*
X134904249Y-110085369D01*
X134904252Y-110085368D01*
X134904255Y-110085368D01*
X135074522Y-110025789D01*
X135227262Y-109929816D01*
X135354816Y-109802262D01*
X135450789Y-109649522D01*
X135510368Y-109479255D01*
X135510369Y-109479249D01*
X135530565Y-109300003D01*
X135530565Y-109299996D01*
X135510369Y-109120750D01*
X135510368Y-109120745D01*
X135478013Y-109028281D01*
X135450789Y-108950478D01*
X135438463Y-108930862D01*
X135383017Y-108842620D01*
X135354816Y-108797738D01*
X135227262Y-108670184D01*
X135227262Y-108670183D01*
X135227260Y-108670182D01*
X135148227Y-108620522D01*
X135101936Y-108568187D01*
X135091289Y-108499134D01*
X135119664Y-108435286D01*
X135178054Y-108396914D01*
X135201602Y-108392171D01*
X135227696Y-108389506D01*
X135394119Y-108334358D01*
X135394124Y-108334356D01*
X135543345Y-108242315D01*
X135667315Y-108118345D01*
X135678630Y-108100001D01*
X150094318Y-108100001D01*
X150114955Y-108256760D01*
X150114956Y-108256762D01*
X150167194Y-108382877D01*
X150175464Y-108402841D01*
X150271718Y-108528282D01*
X150397159Y-108624536D01*
X150543238Y-108685044D01*
X150603739Y-108693009D01*
X150699999Y-108705682D01*
X150700000Y-108705682D01*
X150700001Y-108705682D01*
X150728015Y-108701993D01*
X150856762Y-108685044D01*
X150856764Y-108685043D01*
X150856765Y-108685043D01*
X150864616Y-108682940D01*
X150865336Y-108685627D01*
X150921301Y-108679593D01*
X150983790Y-108710847D01*
X151013885Y-108754177D01*
X151056182Y-108856291D01*
X151075464Y-108902841D01*
X151171718Y-109028282D01*
X151297159Y-109124536D01*
X151443238Y-109185044D01*
X151521619Y-109195362D01*
X151599999Y-109205682D01*
X151600000Y-109205682D01*
X151600001Y-109205682D01*
X151652253Y-109198802D01*
X151756762Y-109185044D01*
X151902841Y-109124536D01*
X152028282Y-109028282D01*
X152124536Y-108902841D01*
X152185044Y-108756762D01*
X152205682Y-108600000D01*
X152185934Y-108450000D01*
X154494750Y-108450000D01*
X154503852Y-108519139D01*
X154513670Y-108593708D01*
X154513671Y-108593712D01*
X154569137Y-108727622D01*
X154569138Y-108727624D01*
X154569139Y-108727625D01*
X154657379Y-108842621D01*
X154772375Y-108930861D01*
X154906291Y-108986330D01*
X155033280Y-109003048D01*
X155049999Y-109005250D01*
X155050000Y-109005250D01*
X155050001Y-109005250D01*
X155064977Y-109003278D01*
X155193709Y-108986330D01*
X155327625Y-108930861D01*
X155442621Y-108842621D01*
X155525807Y-108734211D01*
X155582234Y-108693009D01*
X155651980Y-108688854D01*
X155712900Y-108723066D01*
X155745653Y-108784784D01*
X155747121Y-108793512D01*
X155763670Y-108919205D01*
X155763671Y-108919210D01*
X155819137Y-109053120D01*
X155819138Y-109053122D01*
X155819139Y-109053123D01*
X155907379Y-109168119D01*
X156022375Y-109256359D01*
X156156291Y-109311828D01*
X156283280Y-109328546D01*
X156299999Y-109330748D01*
X156300000Y-109330748D01*
X156300001Y-109330748D01*
X156314977Y-109328776D01*
X156443709Y-109311828D01*
X156577625Y-109256359D01*
X156692621Y-109168119D01*
X156780861Y-109053123D01*
X156802865Y-109000000D01*
X160644750Y-109000000D01*
X160663670Y-109143708D01*
X160663671Y-109143712D01*
X160719137Y-109277622D01*
X160719138Y-109277624D01*
X160719139Y-109277625D01*
X160807379Y-109392621D01*
X160922375Y-109480861D01*
X161056291Y-109536330D01*
X161183280Y-109553048D01*
X161199999Y-109555250D01*
X161200000Y-109555250D01*
X161200001Y-109555250D01*
X161214977Y-109553278D01*
X161343709Y-109536330D01*
X161477625Y-109480861D01*
X161592621Y-109392621D01*
X161680861Y-109277625D01*
X161736330Y-109143709D01*
X161755250Y-109000000D01*
X161736330Y-108856291D01*
X161680861Y-108722375D01*
X161592621Y-108607379D01*
X161477625Y-108519139D01*
X161477624Y-108519138D01*
X161477622Y-108519137D01*
X161343712Y-108463671D01*
X161343710Y-108463670D01*
X161343709Y-108463670D01*
X161239877Y-108450000D01*
X161200001Y-108444750D01*
X161199999Y-108444750D01*
X161056291Y-108463670D01*
X161056287Y-108463671D01*
X160922377Y-108519137D01*
X160807379Y-108607379D01*
X160719137Y-108722377D01*
X160663671Y-108856287D01*
X160663670Y-108856291D01*
X160644750Y-108999999D01*
X160644750Y-109000000D01*
X156802865Y-109000000D01*
X156836330Y-108919207D01*
X156855250Y-108775498D01*
X156836330Y-108631789D01*
X156780861Y-108497873D01*
X156692621Y-108382877D01*
X156577625Y-108294637D01*
X156577624Y-108294636D01*
X156577622Y-108294635D01*
X156443712Y-108239169D01*
X156443710Y-108239168D01*
X156443709Y-108239168D01*
X156371854Y-108229708D01*
X156300001Y-108220248D01*
X156299999Y-108220248D01*
X156156291Y-108239168D01*
X156156287Y-108239169D01*
X156022377Y-108294635D01*
X155907376Y-108382879D01*
X155824192Y-108491286D01*
X155767764Y-108532489D01*
X155698018Y-108536643D01*
X155637098Y-108502430D01*
X155604345Y-108440712D01*
X155602878Y-108431985D01*
X155598261Y-108396914D01*
X155586330Y-108306291D01*
X155530861Y-108172375D01*
X155442621Y-108057379D01*
X155327625Y-107969139D01*
X155327624Y-107969138D01*
X155327622Y-107969137D01*
X155193712Y-107913671D01*
X155193710Y-107913670D01*
X155193709Y-107913670D01*
X155121854Y-107904210D01*
X155050001Y-107894750D01*
X155049999Y-107894750D01*
X154906291Y-107913670D01*
X154906287Y-107913671D01*
X154772377Y-107969137D01*
X154657379Y-108057379D01*
X154569137Y-108172377D01*
X154513671Y-108306287D01*
X154513670Y-108306291D01*
X154494750Y-108450000D01*
X152185934Y-108450000D01*
X152185044Y-108443238D01*
X152124536Y-108297159D01*
X152028282Y-108171718D01*
X151902841Y-108075464D01*
X151761841Y-108017060D01*
X151756762Y-108014956D01*
X151756760Y-108014955D01*
X151600001Y-107994318D01*
X151599999Y-107994318D01*
X151443239Y-108014955D01*
X151435387Y-108017060D01*
X151434669Y-108014382D01*
X151378626Y-108020393D01*
X151316155Y-107989101D01*
X151286114Y-107945822D01*
X151285044Y-107943238D01*
X151224536Y-107797159D01*
X151128282Y-107671718D01*
X151002841Y-107575464D01*
X150856762Y-107514956D01*
X150856760Y-107514955D01*
X150700001Y-107494318D01*
X150699999Y-107494318D01*
X150543239Y-107514955D01*
X150543237Y-107514956D01*
X150397160Y-107575463D01*
X150271718Y-107671718D01*
X150175463Y-107797160D01*
X150114956Y-107943237D01*
X150114955Y-107943239D01*
X150094318Y-108099998D01*
X150094318Y-108100001D01*
X135678630Y-108100001D01*
X135759356Y-107969124D01*
X135759358Y-107969119D01*
X135814505Y-107802697D01*
X135814506Y-107802690D01*
X135824999Y-107699986D01*
X135825000Y-107699973D01*
X135825000Y-107550000D01*
X134729560Y-107550000D01*
X134768278Y-107507941D01*
X134818551Y-107393330D01*
X134828886Y-107268605D01*
X134798163Y-107147281D01*
X134734606Y-107050000D01*
X135824999Y-107050000D01*
X135824999Y-106900028D01*
X135824998Y-106900013D01*
X135814505Y-106797302D01*
X135759358Y-106630880D01*
X135759356Y-106630875D01*
X135667315Y-106481654D01*
X135543345Y-106357684D01*
X135394124Y-106265643D01*
X135394119Y-106265641D01*
X135227697Y-106210494D01*
X135227690Y-106210493D01*
X135124986Y-106200000D01*
X134700000Y-106200000D01*
X134700000Y-107019382D01*
X134630948Y-106965637D01*
X134512576Y-106925000D01*
X134418927Y-106925000D01*
X134326554Y-106940414D01*
X134216486Y-106999981D01*
X134200000Y-107017889D01*
X134200000Y-106200000D01*
X133775028Y-106200000D01*
X133775012Y-106200001D01*
X133672302Y-106210494D01*
X133505880Y-106265641D01*
X133505875Y-106265643D01*
X133356654Y-106357684D01*
X133232684Y-106481654D01*
X133140643Y-106630875D01*
X133140641Y-106630880D01*
X133085494Y-106797302D01*
X133085493Y-106797309D01*
X133075000Y-106900013D01*
X133075000Y-107050000D01*
X129000500Y-107050000D01*
X129000500Y-104829412D01*
X141627103Y-104829412D01*
X141646023Y-104973120D01*
X141646024Y-104973124D01*
X141701491Y-105107035D01*
X141701492Y-105107038D01*
X141773376Y-105200717D01*
X141798571Y-105265886D01*
X141784533Y-105334331D01*
X141773377Y-105351690D01*
X141719139Y-105422374D01*
X141719138Y-105422376D01*
X141663671Y-105556287D01*
X141663670Y-105556291D01*
X141650642Y-105655250D01*
X141644750Y-105700000D01*
X141652160Y-105756287D01*
X141663670Y-105843708D01*
X141663671Y-105843712D01*
X141719137Y-105977622D01*
X141719138Y-105977624D01*
X141719139Y-105977625D01*
X141793485Y-106074515D01*
X141818679Y-106139682D01*
X141804641Y-106208127D01*
X141793489Y-106225480D01*
X141758010Y-106271718D01*
X141719137Y-106322377D01*
X141663671Y-106456287D01*
X141663670Y-106456291D01*
X141644750Y-106600000D01*
X141657915Y-106700000D01*
X141663670Y-106743708D01*
X141663671Y-106743712D01*
X141719137Y-106877622D01*
X141719138Y-106877624D01*
X141719139Y-106877625D01*
X141807379Y-106992621D01*
X141922375Y-107080861D01*
X142056291Y-107136330D01*
X142183280Y-107153048D01*
X142199999Y-107155250D01*
X142200000Y-107155250D01*
X142200001Y-107155250D01*
X142214977Y-107153278D01*
X142343709Y-107136330D01*
X142477625Y-107080861D01*
X142574515Y-107006514D01*
X142639682Y-106981321D01*
X142708127Y-106995359D01*
X142725480Y-107006510D01*
X142822375Y-107080861D01*
X142956291Y-107136330D01*
X143083280Y-107153048D01*
X143099999Y-107155250D01*
X143100000Y-107155250D01*
X143100001Y-107155250D01*
X143114977Y-107153278D01*
X143243709Y-107136330D01*
X143377625Y-107080861D01*
X143492621Y-106992621D01*
X143580861Y-106877625D01*
X143636330Y-106743709D01*
X143642084Y-106700001D01*
X145994318Y-106700001D01*
X146014955Y-106856760D01*
X146014956Y-106856762D01*
X146060053Y-106965637D01*
X146075464Y-107002841D01*
X146171718Y-107128282D01*
X146297159Y-107224536D01*
X146443238Y-107285044D01*
X146521619Y-107295363D01*
X146599999Y-107305682D01*
X146600000Y-107305682D01*
X146600001Y-107305682D01*
X146652253Y-107298802D01*
X146756762Y-107285044D01*
X146902841Y-107224536D01*
X147028282Y-107128282D01*
X147124536Y-107002841D01*
X147185044Y-106856762D01*
X147205682Y-106700000D01*
X147185044Y-106543238D01*
X147124536Y-106397159D01*
X147028282Y-106271718D01*
X146902841Y-106175464D01*
X146756762Y-106114956D01*
X146756760Y-106114955D01*
X146600001Y-106094318D01*
X146599999Y-106094318D01*
X146443239Y-106114955D01*
X146443237Y-106114956D01*
X146297160Y-106175463D01*
X146171718Y-106271718D01*
X146075463Y-106397160D01*
X146014956Y-106543237D01*
X146014955Y-106543239D01*
X145994318Y-106699998D01*
X145994318Y-106700001D01*
X143642084Y-106700001D01*
X143655250Y-106600000D01*
X143636330Y-106456291D01*
X143580861Y-106322375D01*
X143492621Y-106207379D01*
X143472631Y-106192040D01*
X143431429Y-106135612D01*
X143427274Y-106065866D01*
X143449741Y-106018181D01*
X143480861Y-105977625D01*
X143513014Y-105900000D01*
X151244750Y-105900000D01*
X151263670Y-106043708D01*
X151263671Y-106043712D01*
X151319137Y-106177622D01*
X151319138Y-106177624D01*
X151319139Y-106177625D01*
X151407379Y-106292621D01*
X151522375Y-106380861D01*
X151656291Y-106436330D01*
X151783280Y-106453048D01*
X151799999Y-106455250D01*
X151800000Y-106455250D01*
X151800001Y-106455250D01*
X151814977Y-106453278D01*
X151943709Y-106436330D01*
X152077625Y-106380861D01*
X152192621Y-106292621D01*
X152280861Y-106177625D01*
X152336330Y-106043709D01*
X152355250Y-105900000D01*
X152336330Y-105756291D01*
X152313014Y-105700000D01*
X158444750Y-105700000D01*
X158452160Y-105756287D01*
X158463670Y-105843708D01*
X158463671Y-105843712D01*
X158519137Y-105977622D01*
X158519138Y-105977624D01*
X158519139Y-105977625D01*
X158607379Y-106092621D01*
X158722375Y-106180861D01*
X158722376Y-106180861D01*
X158722377Y-106180862D01*
X158749364Y-106192040D01*
X158856291Y-106236330D01*
X158983280Y-106253048D01*
X158999999Y-106255250D01*
X159000000Y-106255250D01*
X159000001Y-106255250D01*
X159014977Y-106253278D01*
X159143709Y-106236330D01*
X159277625Y-106180861D01*
X159392621Y-106092621D01*
X159480861Y-105977625D01*
X159536330Y-105843709D01*
X159555250Y-105700000D01*
X159536330Y-105556291D01*
X159480861Y-105422375D01*
X159392621Y-105307379D01*
X159277625Y-105219139D01*
X159277624Y-105219138D01*
X159277622Y-105219137D01*
X159143712Y-105163671D01*
X159143710Y-105163670D01*
X159143709Y-105163670D01*
X159071854Y-105154210D01*
X159000001Y-105144750D01*
X158999999Y-105144750D01*
X158856291Y-105163670D01*
X158856287Y-105163671D01*
X158722377Y-105219137D01*
X158607379Y-105307379D01*
X158519137Y-105422377D01*
X158463671Y-105556287D01*
X158463670Y-105556291D01*
X158450642Y-105655250D01*
X158444750Y-105700000D01*
X152313014Y-105700000D01*
X152280861Y-105622375D01*
X152230150Y-105556287D01*
X152201446Y-105518879D01*
X152176252Y-105453710D01*
X152190290Y-105385265D01*
X152224333Y-105345020D01*
X152292621Y-105292621D01*
X152380861Y-105177625D01*
X152436330Y-105043709D01*
X152455250Y-104900000D01*
X152436330Y-104756291D01*
X152380861Y-104622375D01*
X152292621Y-104507379D01*
X152177625Y-104419139D01*
X152177624Y-104419138D01*
X152177622Y-104419137D01*
X152043712Y-104363671D01*
X152043710Y-104363670D01*
X152043709Y-104363670D01*
X151971854Y-104354210D01*
X151900001Y-104344750D01*
X151899999Y-104344750D01*
X151756291Y-104363670D01*
X151756287Y-104363671D01*
X151622377Y-104419137D01*
X151590356Y-104443708D01*
X151507379Y-104507379D01*
X151507378Y-104507380D01*
X151507377Y-104507381D01*
X151434447Y-104602424D01*
X151381608Y-104641006D01*
X151385398Y-104648147D01*
X151379585Y-104717775D01*
X151378489Y-104720512D01*
X151363671Y-104756287D01*
X151363670Y-104756291D01*
X151350642Y-104855250D01*
X151344750Y-104900000D01*
X151352160Y-104956287D01*
X151363670Y-105043708D01*
X151363671Y-105043712D01*
X151419138Y-105177623D01*
X151419139Y-105177625D01*
X151498553Y-105281120D01*
X151523747Y-105346289D01*
X151509708Y-105414734D01*
X151475664Y-105454981D01*
X151407381Y-105507376D01*
X151319137Y-105622377D01*
X151263671Y-105756287D01*
X151263670Y-105756291D01*
X151244750Y-105899999D01*
X151244750Y-105900000D01*
X143513014Y-105900000D01*
X143536330Y-105843709D01*
X143555250Y-105700000D01*
X143536330Y-105556291D01*
X143480861Y-105422375D01*
X143480860Y-105422374D01*
X143480860Y-105422373D01*
X143426622Y-105351690D01*
X143408975Y-105328692D01*
X143383781Y-105263525D01*
X143397819Y-105195080D01*
X143408972Y-105177725D01*
X143463214Y-105107037D01*
X143466129Y-105100000D01*
X146744750Y-105100000D01*
X146754970Y-105177625D01*
X146763670Y-105243708D01*
X146763671Y-105243712D01*
X146819137Y-105377622D01*
X146819138Y-105377624D01*
X146819139Y-105377625D01*
X146907379Y-105492621D01*
X147022375Y-105580861D01*
X147156291Y-105636330D01*
X147283280Y-105653048D01*
X147299999Y-105655250D01*
X147300000Y-105655250D01*
X147300001Y-105655250D01*
X147314977Y-105653278D01*
X147443709Y-105636330D01*
X147577625Y-105580861D01*
X147692621Y-105492621D01*
X147780861Y-105377625D01*
X147836330Y-105243709D01*
X147855250Y-105100000D01*
X147836330Y-104956291D01*
X147786641Y-104836329D01*
X147780862Y-104822377D01*
X147780861Y-104822376D01*
X147780861Y-104822375D01*
X147692621Y-104707379D01*
X147577625Y-104619139D01*
X147577624Y-104619138D01*
X147577622Y-104619137D01*
X147443712Y-104563671D01*
X147443710Y-104563670D01*
X147443709Y-104563670D01*
X147353466Y-104551789D01*
X147300001Y-104544750D01*
X147299999Y-104544750D01*
X147156291Y-104563670D01*
X147156287Y-104563671D01*
X147022377Y-104619137D01*
X146907379Y-104707379D01*
X146819137Y-104822377D01*
X146763671Y-104956287D01*
X146763670Y-104956291D01*
X146752161Y-105043712D01*
X146744750Y-105100000D01*
X143466129Y-105100000D01*
X143518683Y-104973121D01*
X143537603Y-104829412D01*
X143518683Y-104685703D01*
X143473915Y-104577622D01*
X143463215Y-104551789D01*
X143463214Y-104551788D01*
X143463214Y-104551787D01*
X143374974Y-104436791D01*
X143259978Y-104348551D01*
X143259977Y-104348550D01*
X143259975Y-104348549D01*
X143126065Y-104293083D01*
X143126063Y-104293082D01*
X143126062Y-104293082D01*
X143008634Y-104277622D01*
X142982354Y-104274162D01*
X142982352Y-104274162D01*
X142838644Y-104293082D01*
X142838640Y-104293083D01*
X142704729Y-104348550D01*
X142704727Y-104348551D01*
X142657839Y-104384530D01*
X142592670Y-104409724D01*
X142524225Y-104395686D01*
X142506867Y-104384530D01*
X142459978Y-104348551D01*
X142459976Y-104348550D01*
X142326065Y-104293083D01*
X142326063Y-104293082D01*
X142326062Y-104293082D01*
X142208634Y-104277622D01*
X142182354Y-104274162D01*
X142182352Y-104274162D01*
X142038644Y-104293082D01*
X142038640Y-104293083D01*
X141904730Y-104348549D01*
X141789732Y-104436791D01*
X141701490Y-104551789D01*
X141646024Y-104685699D01*
X141646023Y-104685703D01*
X141627103Y-104829411D01*
X141627103Y-104829412D01*
X129000500Y-104829412D01*
X129000500Y-104000000D01*
X148744750Y-104000000D01*
X148763670Y-104143708D01*
X148763671Y-104143712D01*
X148819137Y-104277622D01*
X148819138Y-104277624D01*
X148819139Y-104277625D01*
X148907379Y-104392621D01*
X149022375Y-104480861D01*
X149156291Y-104536330D01*
X149273712Y-104551789D01*
X149299999Y-104555250D01*
X149300000Y-104555250D01*
X149300001Y-104555250D01*
X149314977Y-104553278D01*
X149443709Y-104536330D01*
X149577625Y-104480861D01*
X149692621Y-104392621D01*
X149763692Y-104300000D01*
X150144750Y-104300000D01*
X150153132Y-104363670D01*
X150163670Y-104443708D01*
X150163671Y-104443712D01*
X150219137Y-104577622D01*
X150219138Y-104577624D01*
X150219139Y-104577625D01*
X150307379Y-104692621D01*
X150422375Y-104780861D01*
X150556291Y-104836330D01*
X150683280Y-104853048D01*
X150699999Y-104855250D01*
X150700000Y-104855250D01*
X150700001Y-104855250D01*
X150714977Y-104853278D01*
X150843709Y-104836330D01*
X150977625Y-104780861D01*
X151092621Y-104692621D01*
X151165553Y-104597574D01*
X151218390Y-104558993D01*
X151214600Y-104551850D01*
X151220415Y-104482223D01*
X151221490Y-104479535D01*
X151236330Y-104443709D01*
X151255250Y-104300000D01*
X153344750Y-104300000D01*
X153353132Y-104363670D01*
X153363670Y-104443708D01*
X153363671Y-104443712D01*
X153419137Y-104577622D01*
X153419138Y-104577624D01*
X153419139Y-104577625D01*
X153507379Y-104692621D01*
X153622375Y-104780861D01*
X153756291Y-104836330D01*
X153883280Y-104853048D01*
X153899999Y-104855250D01*
X153900000Y-104855250D01*
X153900001Y-104855250D01*
X153914977Y-104853278D01*
X154043709Y-104836330D01*
X154177625Y-104780861D01*
X154292621Y-104692621D01*
X154380861Y-104577625D01*
X154436330Y-104443709D01*
X154455250Y-104300000D01*
X154436330Y-104156291D01*
X154380861Y-104022375D01*
X154292621Y-103907379D01*
X154177625Y-103819139D01*
X154177624Y-103819138D01*
X154177622Y-103819137D01*
X154043712Y-103763671D01*
X154043710Y-103763670D01*
X154043709Y-103763670D01*
X153919711Y-103747345D01*
X153900001Y-103744750D01*
X153899999Y-103744750D01*
X153756291Y-103763670D01*
X153756287Y-103763671D01*
X153622377Y-103819137D01*
X153507379Y-103907379D01*
X153419137Y-104022377D01*
X153363671Y-104156287D01*
X153363670Y-104156291D01*
X153344750Y-104300000D01*
X151255250Y-104300000D01*
X151236330Y-104156291D01*
X151180861Y-104022375D01*
X151092621Y-103907379D01*
X151012471Y-103845877D01*
X150971271Y-103789452D01*
X150967116Y-103719706D01*
X151001329Y-103658785D01*
X151012464Y-103649136D01*
X151093121Y-103587246D01*
X151181361Y-103472250D01*
X151236830Y-103338334D01*
X151255750Y-103194625D01*
X151236830Y-103050916D01*
X151181361Y-102917000D01*
X151093121Y-102802004D01*
X151092215Y-102801309D01*
X151084888Y-102795686D01*
X151043686Y-102739258D01*
X151039533Y-102669512D01*
X151073746Y-102608592D01*
X151084878Y-102598945D01*
X151093121Y-102592621D01*
X151181361Y-102477625D01*
X151213514Y-102400000D01*
X153144250Y-102400000D01*
X153157415Y-102500000D01*
X153163170Y-102543708D01*
X153163171Y-102543712D01*
X153218637Y-102677622D01*
X153218638Y-102677624D01*
X153218639Y-102677625D01*
X153306879Y-102792621D01*
X153421875Y-102880861D01*
X153421876Y-102880861D01*
X153421877Y-102880862D01*
X153427331Y-102883121D01*
X153555791Y-102936330D01*
X153682780Y-102953048D01*
X153699499Y-102955250D01*
X153699500Y-102955250D01*
X153699501Y-102955250D01*
X153714477Y-102953278D01*
X153843209Y-102936330D01*
X153977125Y-102880861D01*
X154092121Y-102792621D01*
X154180361Y-102677625D01*
X154235830Y-102543709D01*
X154241584Y-102500001D01*
X163394318Y-102500001D01*
X163414955Y-102656760D01*
X163414956Y-102656762D01*
X163446384Y-102732637D01*
X163475464Y-102802841D01*
X163571718Y-102928282D01*
X163697159Y-103024536D01*
X163843238Y-103085044D01*
X163921619Y-103095363D01*
X163999999Y-103105682D01*
X164000000Y-103105682D01*
X164000001Y-103105682D01*
X164052254Y-103098802D01*
X164156762Y-103085044D01*
X164302841Y-103024536D01*
X164428282Y-102928282D01*
X164524536Y-102802841D01*
X164585044Y-102656762D01*
X164605682Y-102500000D01*
X164604431Y-102490500D01*
X164585044Y-102343239D01*
X164585044Y-102343238D01*
X164524536Y-102197159D01*
X164451472Y-102101940D01*
X164426280Y-102036775D01*
X164440318Y-101968330D01*
X164489132Y-101918340D01*
X164557223Y-101902676D01*
X164597299Y-101911895D01*
X164656291Y-101936330D01*
X164783280Y-101953048D01*
X164799999Y-101955250D01*
X164800000Y-101955250D01*
X164800001Y-101955250D01*
X164814977Y-101953278D01*
X164943709Y-101936330D01*
X165077625Y-101880861D01*
X165192621Y-101792621D01*
X165280861Y-101677625D01*
X165336330Y-101543709D01*
X165355250Y-101400000D01*
X165336330Y-101256291D01*
X165280861Y-101122375D01*
X165192621Y-101007379D01*
X165077625Y-100919139D01*
X165077624Y-100919138D01*
X165077622Y-100919137D01*
X165031420Y-100900000D01*
X166344750Y-100900000D01*
X166361853Y-101029911D01*
X166363670Y-101043708D01*
X166363671Y-101043712D01*
X166419137Y-101177622D01*
X166419138Y-101177624D01*
X166419139Y-101177625D01*
X166507379Y-101292621D01*
X166622375Y-101380861D01*
X166622376Y-101380861D01*
X166622377Y-101380862D01*
X166667013Y-101399350D01*
X166756291Y-101436330D01*
X166883280Y-101453048D01*
X166899999Y-101455250D01*
X166900000Y-101455250D01*
X166900001Y-101455250D01*
X166914977Y-101453278D01*
X167043709Y-101436330D01*
X167177625Y-101380861D01*
X167292621Y-101292621D01*
X167380861Y-101177625D01*
X167436330Y-101043709D01*
X167455250Y-100900000D01*
X167436330Y-100756291D01*
X167380861Y-100622375D01*
X167292621Y-100507379D01*
X167177625Y-100419139D01*
X167177624Y-100419138D01*
X167177622Y-100419137D01*
X167043712Y-100363671D01*
X167043710Y-100363670D01*
X167043709Y-100363670D01*
X166971854Y-100354210D01*
X166900001Y-100344750D01*
X166899999Y-100344750D01*
X166756291Y-100363670D01*
X166756287Y-100363671D01*
X166622377Y-100419137D01*
X166507379Y-100507379D01*
X166419137Y-100622377D01*
X166363671Y-100756287D01*
X166363670Y-100756291D01*
X166350505Y-100856291D01*
X166344750Y-100900000D01*
X165031420Y-100900000D01*
X164943712Y-100863671D01*
X164943710Y-100863670D01*
X164943709Y-100863670D01*
X164871854Y-100854210D01*
X164800001Y-100844750D01*
X164799999Y-100844750D01*
X164656291Y-100863670D01*
X164656287Y-100863671D01*
X164522377Y-100919137D01*
X164407379Y-101007379D01*
X164319137Y-101122377D01*
X164263671Y-101256287D01*
X164263670Y-101256291D01*
X164245722Y-101392620D01*
X164244750Y-101400000D01*
X164262698Y-101536329D01*
X164263670Y-101543708D01*
X164263671Y-101543712D01*
X164319138Y-101677623D01*
X164319139Y-101677626D01*
X164380036Y-101756987D01*
X164405231Y-101822156D01*
X164391193Y-101890601D01*
X164342379Y-101940591D01*
X164274288Y-101956255D01*
X164234209Y-101947035D01*
X164156765Y-101914957D01*
X164156760Y-101914955D01*
X164000001Y-101894318D01*
X163999999Y-101894318D01*
X163843239Y-101914955D01*
X163843237Y-101914956D01*
X163697160Y-101975463D01*
X163571718Y-102071718D01*
X163475463Y-102197160D01*
X163414956Y-102343237D01*
X163414955Y-102343239D01*
X163394318Y-102499998D01*
X163394318Y-102500001D01*
X154241584Y-102500001D01*
X154254750Y-102400000D01*
X154235830Y-102256291D01*
X154180361Y-102122375D01*
X154092121Y-102007379D01*
X153977125Y-101919139D01*
X153977124Y-101919138D01*
X153977122Y-101919137D01*
X153843212Y-101863671D01*
X153843210Y-101863670D01*
X153843209Y-101863670D01*
X153771354Y-101854210D01*
X153699501Y-101844750D01*
X153699499Y-101844750D01*
X153555791Y-101863670D01*
X153555787Y-101863671D01*
X153421877Y-101919137D01*
X153306879Y-102007379D01*
X153218637Y-102122377D01*
X153163171Y-102256287D01*
X153163170Y-102256291D01*
X153159298Y-102285705D01*
X153144250Y-102400000D01*
X151213514Y-102400000D01*
X151236830Y-102343709D01*
X151255750Y-102200000D01*
X151236830Y-102056291D01*
X151187141Y-101936329D01*
X151181362Y-101922377D01*
X151181361Y-101922376D01*
X151181361Y-101922375D01*
X151093121Y-101807379D01*
X150978125Y-101719139D01*
X150978124Y-101719138D01*
X150978122Y-101719137D01*
X150844212Y-101663671D01*
X150844210Y-101663670D01*
X150844209Y-101663670D01*
X150772354Y-101654210D01*
X150700501Y-101644750D01*
X150700499Y-101644750D01*
X150556791Y-101663670D01*
X150556787Y-101663671D01*
X150422877Y-101719137D01*
X150307879Y-101807379D01*
X150219637Y-101922377D01*
X150164171Y-102056287D01*
X150164170Y-102056291D01*
X150145250Y-102200000D01*
X150156533Y-102285705D01*
X150164170Y-102343708D01*
X150164171Y-102343712D01*
X150219637Y-102477622D01*
X150219638Y-102477624D01*
X150219639Y-102477625D01*
X150307879Y-102592621D01*
X150314832Y-102597956D01*
X150316110Y-102598937D01*
X150357313Y-102655365D01*
X150361467Y-102725111D01*
X150327254Y-102786031D01*
X150316114Y-102795684D01*
X150307882Y-102802001D01*
X150307880Y-102802002D01*
X150307879Y-102802004D01*
X150287979Y-102827938D01*
X150219637Y-102917002D01*
X150164171Y-103050912D01*
X150164170Y-103050916D01*
X150145250Y-103194624D01*
X150145250Y-103194625D01*
X150164170Y-103338333D01*
X150164171Y-103338337D01*
X150219637Y-103472247D01*
X150219638Y-103472249D01*
X150219639Y-103472250D01*
X150307879Y-103587246D01*
X150388025Y-103648745D01*
X150429228Y-103705172D01*
X150433383Y-103774918D01*
X150399171Y-103835838D01*
X150388026Y-103845495D01*
X150307381Y-103907376D01*
X150219137Y-104022377D01*
X150163671Y-104156287D01*
X150163670Y-104156291D01*
X150144750Y-104300000D01*
X149763692Y-104300000D01*
X149780861Y-104277625D01*
X149836330Y-104143709D01*
X149855250Y-104000000D01*
X149836330Y-103856291D01*
X149780861Y-103722375D01*
X149692621Y-103607379D01*
X149577625Y-103519139D01*
X149577624Y-103519138D01*
X149577622Y-103519137D01*
X149443712Y-103463671D01*
X149443710Y-103463670D01*
X149443709Y-103463670D01*
X149371854Y-103454210D01*
X149300001Y-103444750D01*
X149299999Y-103444750D01*
X149156291Y-103463670D01*
X149156287Y-103463671D01*
X149022377Y-103519137D01*
X148907379Y-103607379D01*
X148819137Y-103722377D01*
X148763671Y-103856287D01*
X148763670Y-103856291D01*
X148744750Y-103999999D01*
X148744750Y-104000000D01*
X129000500Y-104000000D01*
X129000500Y-102229415D01*
X133351788Y-102229415D01*
X133371983Y-102408661D01*
X133371984Y-102408666D01*
X133431564Y-102578935D01*
X133480941Y-102657517D01*
X133527537Y-102731674D01*
X133655091Y-102859228D01*
X133807831Y-102955201D01*
X133978098Y-103014780D01*
X133978103Y-103014781D01*
X134064685Y-103024536D01*
X134112393Y-103029911D01*
X134112396Y-103029912D01*
X134112399Y-103029912D01*
X134752310Y-103029912D01*
X134752311Y-103029911D01*
X134819457Y-103022345D01*
X134886602Y-103014781D01*
X134886605Y-103014780D01*
X134886608Y-103014780D01*
X135056875Y-102955201D01*
X135209615Y-102859228D01*
X135337169Y-102731674D01*
X135433142Y-102578934D01*
X135467966Y-102479414D01*
X142701549Y-102479414D01*
X142722632Y-102612533D01*
X142722633Y-102612536D01*
X142722634Y-102612538D01*
X142783825Y-102732632D01*
X142783826Y-102732633D01*
X142783829Y-102732637D01*
X142879127Y-102827935D01*
X142879131Y-102827938D01*
X142879133Y-102827940D01*
X142999227Y-102889131D01*
X142999229Y-102889131D01*
X142999231Y-102889132D01*
X143132351Y-102910216D01*
X143132353Y-102910216D01*
X143132355Y-102910216D01*
X143265474Y-102889132D01*
X143265474Y-102889131D01*
X143265479Y-102889131D01*
X143385573Y-102827940D01*
X143480881Y-102732632D01*
X143485432Y-102723699D01*
X143533404Y-102672902D01*
X143601224Y-102656104D01*
X143615295Y-102657514D01*
X143632353Y-102660216D01*
X143738374Y-102643424D01*
X143765474Y-102639132D01*
X143765474Y-102639131D01*
X143765479Y-102639131D01*
X143885573Y-102577940D01*
X143973013Y-102490500D01*
X147344750Y-102490500D01*
X147360297Y-102608592D01*
X147363670Y-102634208D01*
X147363671Y-102634212D01*
X147419137Y-102768122D01*
X147419138Y-102768124D01*
X147419139Y-102768125D01*
X147507379Y-102883121D01*
X147622375Y-102971361D01*
X147756291Y-103026830D01*
X147883280Y-103043548D01*
X147899999Y-103045750D01*
X147900000Y-103045750D01*
X147900001Y-103045750D01*
X147914977Y-103043778D01*
X148043709Y-103026830D01*
X148177625Y-102971361D01*
X148292621Y-102883121D01*
X148380861Y-102768125D01*
X148436330Y-102634209D01*
X148455250Y-102490500D01*
X148453790Y-102479414D01*
X148443335Y-102399999D01*
X148436330Y-102346791D01*
X148380861Y-102212875D01*
X148292621Y-102097879D01*
X148177625Y-102009639D01*
X148177624Y-102009638D01*
X148177622Y-102009637D01*
X148043712Y-101954171D01*
X148043710Y-101954170D01*
X148043709Y-101954170D01*
X147971854Y-101944709D01*
X147900001Y-101935250D01*
X147899999Y-101935250D01*
X147756291Y-101954170D01*
X147756287Y-101954171D01*
X147622377Y-102009637D01*
X147507379Y-102097879D01*
X147419137Y-102212877D01*
X147363671Y-102346787D01*
X147363670Y-102346791D01*
X147346210Y-102479414D01*
X147344750Y-102490500D01*
X143973013Y-102490500D01*
X143980881Y-102482632D01*
X144042072Y-102362538D01*
X144045054Y-102343709D01*
X144063157Y-102229414D01*
X144063157Y-102229409D01*
X144042073Y-102096288D01*
X144042072Y-102096286D01*
X144021691Y-102056287D01*
X144011204Y-102035705D01*
X143998308Y-101967038D01*
X144011203Y-101923120D01*
X144042072Y-101862538D01*
X144044646Y-101846290D01*
X144063157Y-101729414D01*
X144063157Y-101729409D01*
X144042073Y-101596290D01*
X144042072Y-101596288D01*
X144042072Y-101596286D01*
X143980881Y-101476192D01*
X143980879Y-101476190D01*
X143980876Y-101476186D01*
X143885578Y-101380888D01*
X143885574Y-101380885D01*
X143885573Y-101380884D01*
X143765479Y-101319693D01*
X143765477Y-101319692D01*
X143765474Y-101319691D01*
X143632355Y-101298608D01*
X143632351Y-101298608D01*
X143499231Y-101319691D01*
X143379131Y-101380885D01*
X143379127Y-101380888D01*
X143283824Y-101476191D01*
X143279270Y-101485130D01*
X143231295Y-101535924D01*
X143163473Y-101552718D01*
X143149393Y-101551306D01*
X143132355Y-101548608D01*
X143132351Y-101548608D01*
X142999231Y-101569691D01*
X142999227Y-101569692D01*
X142999227Y-101569693D01*
X142940539Y-101599596D01*
X142879131Y-101630885D01*
X142879127Y-101630888D01*
X142783829Y-101726186D01*
X142783826Y-101726190D01*
X142722632Y-101846290D01*
X142701549Y-101979409D01*
X142701549Y-101979414D01*
X142722632Y-102112534D01*
X142753501Y-102173119D01*
X142766396Y-102241788D01*
X142753501Y-102285705D01*
X142722632Y-102346289D01*
X142701549Y-102479409D01*
X142701549Y-102479414D01*
X135467966Y-102479414D01*
X135492721Y-102408667D01*
X135493698Y-102399999D01*
X135512918Y-102229415D01*
X135512918Y-102229408D01*
X135492722Y-102050162D01*
X135492721Y-102050157D01*
X135459863Y-101956255D01*
X135433142Y-101879890D01*
X135422236Y-101862534D01*
X135378307Y-101792621D01*
X135337169Y-101727150D01*
X135209615Y-101599596D01*
X135139039Y-101555250D01*
X135056876Y-101503623D01*
X134886607Y-101444043D01*
X134886602Y-101444042D01*
X134752313Y-101428912D01*
X134752307Y-101428912D01*
X134112399Y-101428912D01*
X134112392Y-101428912D01*
X133978103Y-101444042D01*
X133978098Y-101444043D01*
X133807829Y-101503623D01*
X133655090Y-101599596D01*
X133527537Y-101727149D01*
X133431564Y-101879888D01*
X133371984Y-102050157D01*
X133371983Y-102050162D01*
X133351788Y-102229408D01*
X133351788Y-102229415D01*
X129000500Y-102229415D01*
X129000500Y-100229415D01*
X133351788Y-100229415D01*
X133371983Y-100408661D01*
X133371984Y-100408666D01*
X133431564Y-100578935D01*
X133458861Y-100622377D01*
X133527537Y-100731674D01*
X133655091Y-100859228D01*
X133719978Y-100899999D01*
X133750435Y-100919137D01*
X133807831Y-100955201D01*
X133935859Y-101000000D01*
X133978098Y-101014780D01*
X133978103Y-101014781D01*
X134068599Y-101024977D01*
X134112393Y-101029911D01*
X134112396Y-101029912D01*
X134112399Y-101029912D01*
X134752310Y-101029912D01*
X134752311Y-101029911D01*
X134819457Y-101022345D01*
X134886602Y-101014781D01*
X134886605Y-101014780D01*
X134886608Y-101014780D01*
X134928847Y-101000000D01*
X159944750Y-101000000D01*
X159963670Y-101143708D01*
X159963671Y-101143712D01*
X160019137Y-101277622D01*
X160019138Y-101277624D01*
X160019139Y-101277625D01*
X160107379Y-101392621D01*
X160222375Y-101480861D01*
X160356291Y-101536330D01*
X160480768Y-101552718D01*
X160499999Y-101555250D01*
X160500000Y-101555250D01*
X160500001Y-101555250D01*
X160519232Y-101552718D01*
X160643709Y-101536330D01*
X160777625Y-101480861D01*
X160892621Y-101392621D01*
X160980861Y-101277625D01*
X161036330Y-101143709D01*
X161055250Y-101000000D01*
X161036330Y-100856291D01*
X160980861Y-100722375D01*
X160892621Y-100607379D01*
X160777625Y-100519139D01*
X160777624Y-100519138D01*
X160777622Y-100519137D01*
X160643712Y-100463671D01*
X160643710Y-100463670D01*
X160643709Y-100463670D01*
X160571854Y-100454210D01*
X160500001Y-100444750D01*
X160499999Y-100444750D01*
X160356291Y-100463670D01*
X160356287Y-100463671D01*
X160222377Y-100519137D01*
X160107379Y-100607379D01*
X160019137Y-100722377D01*
X159963671Y-100856287D01*
X159963670Y-100856291D01*
X159944750Y-100999999D01*
X159944750Y-101000000D01*
X134928847Y-101000000D01*
X135056875Y-100955201D01*
X135209615Y-100859228D01*
X135337169Y-100731674D01*
X135433142Y-100578934D01*
X135492721Y-100408667D01*
X135512918Y-100229412D01*
X135492721Y-100050157D01*
X135433142Y-99879890D01*
X135337169Y-99727150D01*
X135209615Y-99599596D01*
X135056876Y-99503623D01*
X135046522Y-99500000D01*
X159944750Y-99500000D01*
X159963670Y-99643708D01*
X159963671Y-99643712D01*
X160019137Y-99777622D01*
X160019138Y-99777624D01*
X160019139Y-99777625D01*
X160107379Y-99892621D01*
X160222375Y-99980861D01*
X160356291Y-100036330D01*
X160483280Y-100053048D01*
X160499999Y-100055250D01*
X160500000Y-100055250D01*
X160500001Y-100055250D01*
X160514977Y-100053278D01*
X160643709Y-100036330D01*
X160777625Y-99980861D01*
X160892621Y-99892621D01*
X160980861Y-99777625D01*
X161036330Y-99643709D01*
X161055250Y-99500000D01*
X161036330Y-99356291D01*
X160980861Y-99222375D01*
X160892621Y-99107379D01*
X160777625Y-99019139D01*
X160777624Y-99019138D01*
X160777622Y-99019137D01*
X160643712Y-98963671D01*
X160643710Y-98963670D01*
X160643709Y-98963670D01*
X160571854Y-98954210D01*
X160500001Y-98944750D01*
X160499999Y-98944750D01*
X160356291Y-98963670D01*
X160356287Y-98963671D01*
X160222377Y-99019137D01*
X160107379Y-99107379D01*
X160019137Y-99222377D01*
X159963671Y-99356287D01*
X159963670Y-99356291D01*
X159944750Y-99499999D01*
X159944750Y-99500000D01*
X135046522Y-99500000D01*
X134886607Y-99444043D01*
X134886602Y-99444042D01*
X134752313Y-99428912D01*
X134752307Y-99428912D01*
X134112399Y-99428912D01*
X134112392Y-99428912D01*
X133978103Y-99444042D01*
X133978098Y-99444043D01*
X133807829Y-99503623D01*
X133655090Y-99599596D01*
X133527537Y-99727149D01*
X133431564Y-99879888D01*
X133371984Y-100050157D01*
X133371983Y-100050162D01*
X133351788Y-100229408D01*
X133351788Y-100229415D01*
X129000500Y-100229415D01*
X129000500Y-98229415D01*
X133351788Y-98229415D01*
X133371983Y-98408661D01*
X133371984Y-98408666D01*
X133431564Y-98578935D01*
X133527536Y-98731674D01*
X133527537Y-98731674D01*
X133655091Y-98859228D01*
X133807831Y-98955201D01*
X133978098Y-99014780D01*
X133978103Y-99014781D01*
X134068599Y-99024977D01*
X134112393Y-99029911D01*
X134112396Y-99029912D01*
X134112399Y-99029912D01*
X134752310Y-99029912D01*
X134752311Y-99029911D01*
X134819457Y-99022345D01*
X134886602Y-99014781D01*
X134886605Y-99014780D01*
X134886608Y-99014780D01*
X135056875Y-98955201D01*
X135209615Y-98859228D01*
X135337169Y-98731674D01*
X135433142Y-98578934D01*
X135492721Y-98408667D01*
X135499181Y-98351332D01*
X135512918Y-98229415D01*
X135512918Y-98229408D01*
X135492722Y-98050162D01*
X135492721Y-98050157D01*
X135489909Y-98042120D01*
X135433142Y-97879890D01*
X135337169Y-97727150D01*
X135259519Y-97649500D01*
X148691407Y-97649500D01*
X148710327Y-97793208D01*
X148710328Y-97793212D01*
X148765794Y-97927122D01*
X148765795Y-97927124D01*
X148765796Y-97927125D01*
X148854036Y-98042121D01*
X148969032Y-98130361D01*
X149102948Y-98185830D01*
X149229937Y-98202548D01*
X149246656Y-98204750D01*
X149246657Y-98204750D01*
X149246658Y-98204750D01*
X149261634Y-98202778D01*
X149390366Y-98185830D01*
X149524282Y-98130361D01*
X149598115Y-98073707D01*
X150040675Y-98073707D01*
X150057927Y-98204750D01*
X150059595Y-98217415D01*
X150059596Y-98217419D01*
X150115062Y-98351329D01*
X150115063Y-98351331D01*
X150115064Y-98351332D01*
X150203304Y-98466328D01*
X150318300Y-98554568D01*
X150452216Y-98610037D01*
X150579205Y-98626755D01*
X150595924Y-98628957D01*
X150595925Y-98628957D01*
X150595926Y-98628957D01*
X150610902Y-98626985D01*
X150739634Y-98610037D01*
X150763866Y-98600000D01*
X158344750Y-98600000D01*
X158363670Y-98743708D01*
X158363671Y-98743712D01*
X158419137Y-98877622D01*
X158419138Y-98877624D01*
X158419139Y-98877625D01*
X158507379Y-98992621D01*
X158622375Y-99080861D01*
X158756291Y-99136330D01*
X158883280Y-99153048D01*
X158899999Y-99155250D01*
X158900000Y-99155250D01*
X158900001Y-99155250D01*
X158914977Y-99153278D01*
X159043709Y-99136330D01*
X159177625Y-99080861D01*
X159292621Y-98992621D01*
X159380861Y-98877625D01*
X159436330Y-98743709D01*
X159455250Y-98600000D01*
X159436330Y-98456291D01*
X159380861Y-98322375D01*
X159292621Y-98207379D01*
X159177625Y-98119139D01*
X159177624Y-98119138D01*
X159177622Y-98119137D01*
X159043712Y-98063671D01*
X159043710Y-98063670D01*
X159043709Y-98063670D01*
X158971854Y-98054210D01*
X158900001Y-98044750D01*
X158899999Y-98044750D01*
X158756291Y-98063670D01*
X158756287Y-98063671D01*
X158622377Y-98119137D01*
X158507379Y-98207379D01*
X158419137Y-98322377D01*
X158363671Y-98456287D01*
X158363670Y-98456291D01*
X158344750Y-98599999D01*
X158344750Y-98600000D01*
X150763866Y-98600000D01*
X150873550Y-98554568D01*
X150988546Y-98466328D01*
X151076786Y-98351332D01*
X151132255Y-98217416D01*
X151151175Y-98073707D01*
X151132255Y-97929998D01*
X151076786Y-97796082D01*
X150988546Y-97681086D01*
X150873550Y-97592846D01*
X150873549Y-97592845D01*
X150873547Y-97592844D01*
X150739637Y-97537378D01*
X150739635Y-97537377D01*
X150739634Y-97537377D01*
X150667779Y-97527916D01*
X150595926Y-97518457D01*
X150595924Y-97518457D01*
X150452216Y-97537377D01*
X150452212Y-97537378D01*
X150318302Y-97592844D01*
X150203304Y-97681086D01*
X150115062Y-97796084D01*
X150059596Y-97929994D01*
X150059595Y-97929998D01*
X150044834Y-98042120D01*
X150040675Y-98073707D01*
X149598115Y-98073707D01*
X149639278Y-98042121D01*
X149727518Y-97927125D01*
X149782987Y-97793209D01*
X149801907Y-97649500D01*
X149782987Y-97505791D01*
X149729900Y-97377625D01*
X149727519Y-97371877D01*
X149727518Y-97371876D01*
X149727518Y-97371875D01*
X149639278Y-97256879D01*
X149524282Y-97168639D01*
X149524281Y-97168638D01*
X149524279Y-97168637D01*
X149390369Y-97113171D01*
X149390367Y-97113170D01*
X149390366Y-97113170D01*
X149290332Y-97100000D01*
X164944750Y-97100000D01*
X164963670Y-97243708D01*
X164963671Y-97243712D01*
X165019137Y-97377622D01*
X165019138Y-97377624D01*
X165019139Y-97377625D01*
X165107379Y-97492621D01*
X165222375Y-97580861D01*
X165222376Y-97580861D01*
X165222377Y-97580862D01*
X165251305Y-97592844D01*
X165356291Y-97636330D01*
X165483280Y-97653048D01*
X165499999Y-97655250D01*
X165500000Y-97655250D01*
X165500001Y-97655250D01*
X165514977Y-97653278D01*
X165643709Y-97636330D01*
X165777625Y-97580861D01*
X165892621Y-97492621D01*
X165980861Y-97377625D01*
X166036330Y-97243709D01*
X166055250Y-97100000D01*
X166036330Y-96956291D01*
X165980861Y-96822375D01*
X165892621Y-96707379D01*
X165777625Y-96619139D01*
X165777624Y-96619138D01*
X165777622Y-96619137D01*
X165643712Y-96563671D01*
X165643710Y-96563670D01*
X165643709Y-96563670D01*
X165571854Y-96554210D01*
X165500001Y-96544750D01*
X165499999Y-96544750D01*
X165356291Y-96563670D01*
X165356287Y-96563671D01*
X165222377Y-96619137D01*
X165107379Y-96707379D01*
X165019137Y-96822377D01*
X164963671Y-96956287D01*
X164963670Y-96956291D01*
X164944750Y-97099999D01*
X164944750Y-97100000D01*
X149290332Y-97100000D01*
X149246658Y-97094250D01*
X149246656Y-97094250D01*
X149102948Y-97113170D01*
X149102944Y-97113171D01*
X148969034Y-97168637D01*
X148854036Y-97256879D01*
X148765794Y-97371877D01*
X148710328Y-97505787D01*
X148710327Y-97505791D01*
X148691407Y-97649499D01*
X148691407Y-97649500D01*
X135259519Y-97649500D01*
X135209615Y-97599596D01*
X135056876Y-97503623D01*
X134886607Y-97444043D01*
X134886602Y-97444042D01*
X134752313Y-97428912D01*
X134752307Y-97428912D01*
X134112399Y-97428912D01*
X134112392Y-97428912D01*
X133978103Y-97444042D01*
X133978098Y-97444043D01*
X133807829Y-97503623D01*
X133655090Y-97599596D01*
X133527537Y-97727149D01*
X133431564Y-97879888D01*
X133371984Y-98050157D01*
X133371983Y-98050162D01*
X133351788Y-98229408D01*
X133351788Y-98229415D01*
X129000500Y-98229415D01*
X129000500Y-96633681D01*
X133356853Y-96633681D01*
X133359706Y-96664111D01*
X133359706Y-96664113D01*
X133404559Y-96792292D01*
X133404560Y-96792294D01*
X133485203Y-96901562D01*
X133594471Y-96982205D01*
X133637198Y-96997156D01*
X133722652Y-97027058D01*
X133753083Y-97029912D01*
X133753087Y-97029912D01*
X135111623Y-97029912D01*
X135142052Y-97027058D01*
X135142054Y-97027058D01*
X135206143Y-97004631D01*
X135270235Y-96982205D01*
X135379503Y-96901562D01*
X135460146Y-96792294D01*
X135489859Y-96707379D01*
X135504999Y-96664113D01*
X135504999Y-96664111D01*
X135507853Y-96633681D01*
X135507853Y-96479414D01*
X142701549Y-96479414D01*
X142722632Y-96612533D01*
X142722633Y-96612536D01*
X142722634Y-96612538D01*
X142783825Y-96732632D01*
X142783826Y-96732633D01*
X142783829Y-96732637D01*
X142879127Y-96827935D01*
X142879131Y-96827938D01*
X142879133Y-96827940D01*
X142999227Y-96889131D01*
X142999229Y-96889131D01*
X142999231Y-96889132D01*
X143065790Y-96899673D01*
X143132353Y-96910216D01*
X143149389Y-96907517D01*
X143218678Y-96916470D01*
X143272132Y-96961464D01*
X143279266Y-96973686D01*
X143283825Y-96982632D01*
X143283827Y-96982634D01*
X143283829Y-96982637D01*
X143379127Y-97077935D01*
X143379131Y-97077938D01*
X143379133Y-97077940D01*
X143499227Y-97139131D01*
X143499229Y-97139131D01*
X143499231Y-97139132D01*
X143632351Y-97160216D01*
X143632353Y-97160216D01*
X143632355Y-97160216D01*
X143765474Y-97139132D01*
X143765474Y-97139131D01*
X143765479Y-97139131D01*
X143885573Y-97077940D01*
X143934101Y-97029412D01*
X147427103Y-97029412D01*
X147446023Y-97173120D01*
X147446024Y-97173124D01*
X147501490Y-97307034D01*
X147501491Y-97307036D01*
X147501492Y-97307037D01*
X147589732Y-97422033D01*
X147704728Y-97510273D01*
X147838644Y-97565742D01*
X147953490Y-97580862D01*
X147982352Y-97584662D01*
X147982353Y-97584662D01*
X147982354Y-97584662D01*
X147997330Y-97582690D01*
X148126062Y-97565742D01*
X148259978Y-97510273D01*
X148374974Y-97422033D01*
X148463214Y-97307037D01*
X148518683Y-97173121D01*
X148537603Y-97029412D01*
X148518683Y-96885703D01*
X148463214Y-96751787D01*
X148374974Y-96636791D01*
X148259978Y-96548551D01*
X148259977Y-96548550D01*
X148259975Y-96548549D01*
X148126065Y-96493083D01*
X148126063Y-96493082D01*
X148126062Y-96493082D01*
X148054207Y-96483621D01*
X147982354Y-96474162D01*
X147982352Y-96474162D01*
X147838644Y-96493082D01*
X147838640Y-96493083D01*
X147704730Y-96548549D01*
X147589732Y-96636791D01*
X147501490Y-96751789D01*
X147446024Y-96885699D01*
X147446023Y-96885703D01*
X147427103Y-97029411D01*
X147427103Y-97029412D01*
X143934101Y-97029412D01*
X143980881Y-96982632D01*
X144042072Y-96862538D01*
X144059613Y-96751787D01*
X144063157Y-96729414D01*
X144063157Y-96729409D01*
X144042073Y-96596288D01*
X144042072Y-96596286D01*
X144042072Y-96596285D01*
X144011204Y-96535706D01*
X143998308Y-96467039D01*
X144011204Y-96423118D01*
X144042072Y-96362538D01*
X144042072Y-96362536D01*
X144042073Y-96362535D01*
X144063157Y-96229414D01*
X144063157Y-96229409D01*
X144042073Y-96096290D01*
X144042072Y-96096288D01*
X144042072Y-96096286D01*
X143980881Y-95976192D01*
X143980879Y-95976190D01*
X143980876Y-95976186D01*
X143885578Y-95880888D01*
X143885574Y-95880885D01*
X143885573Y-95880884D01*
X143765479Y-95819693D01*
X143765477Y-95819692D01*
X143765474Y-95819691D01*
X143632355Y-95798608D01*
X143632354Y-95798608D01*
X143632353Y-95798608D01*
X143615313Y-95801306D01*
X143546022Y-95792351D01*
X143492570Y-95747354D01*
X143485440Y-95735140D01*
X143480881Y-95726192D01*
X143480879Y-95726190D01*
X143480876Y-95726186D01*
X143454690Y-95700000D01*
X165144750Y-95700000D01*
X165157219Y-95794713D01*
X165163670Y-95843708D01*
X165163671Y-95843712D01*
X165219137Y-95977622D01*
X165219138Y-95977624D01*
X165219139Y-95977625D01*
X165307379Y-96092621D01*
X165422375Y-96180861D01*
X165556291Y-96236330D01*
X165683280Y-96253048D01*
X165699999Y-96255250D01*
X165700000Y-96255250D01*
X165700001Y-96255250D01*
X165714977Y-96253278D01*
X165843709Y-96236330D01*
X165977625Y-96180861D01*
X166092621Y-96092621D01*
X166180861Y-95977625D01*
X166236330Y-95843709D01*
X166255250Y-95700000D01*
X166236330Y-95556291D01*
X166184751Y-95431766D01*
X166180862Y-95422377D01*
X166180861Y-95422376D01*
X166180861Y-95422375D01*
X166092621Y-95307379D01*
X165977625Y-95219139D01*
X165977624Y-95219138D01*
X165977622Y-95219137D01*
X165845860Y-95164561D01*
X165791456Y-95120721D01*
X165769391Y-95054427D01*
X165786670Y-94986727D01*
X165837807Y-94939116D01*
X165845860Y-94935439D01*
X165845865Y-94935437D01*
X165977625Y-94880861D01*
X166092621Y-94792621D01*
X166180861Y-94677625D01*
X166236330Y-94543709D01*
X166255250Y-94400000D01*
X166236330Y-94256291D01*
X166180861Y-94122375D01*
X166092621Y-94007379D01*
X165977625Y-93919139D01*
X165977624Y-93919138D01*
X165977622Y-93919137D01*
X165843712Y-93863671D01*
X165843710Y-93863670D01*
X165843709Y-93863670D01*
X165771854Y-93854210D01*
X165700001Y-93844750D01*
X165699999Y-93844750D01*
X165556291Y-93863670D01*
X165556287Y-93863671D01*
X165422377Y-93919137D01*
X165307379Y-94007379D01*
X165219137Y-94122377D01*
X165163671Y-94256287D01*
X165163670Y-94256291D01*
X165144750Y-94399999D01*
X165144750Y-94400000D01*
X165163670Y-94543708D01*
X165163671Y-94543712D01*
X165219137Y-94677622D01*
X165219138Y-94677624D01*
X165219139Y-94677625D01*
X165307379Y-94792621D01*
X165422375Y-94880861D01*
X165554143Y-94935440D01*
X165608542Y-94979278D01*
X165630608Y-95045572D01*
X165613329Y-95113271D01*
X165562193Y-95160882D01*
X165554140Y-95164560D01*
X165422376Y-95219138D01*
X165307379Y-95307379D01*
X165219137Y-95422377D01*
X165163671Y-95556287D01*
X165163670Y-95556291D01*
X165144750Y-95700000D01*
X143454690Y-95700000D01*
X143385578Y-95630888D01*
X143385574Y-95630885D01*
X143385573Y-95630884D01*
X143265479Y-95569693D01*
X143265477Y-95569692D01*
X143265474Y-95569691D01*
X143132355Y-95548608D01*
X143132351Y-95548608D01*
X142999231Y-95569691D01*
X142879131Y-95630885D01*
X142879127Y-95630888D01*
X142783829Y-95726186D01*
X142783826Y-95726190D01*
X142722632Y-95846290D01*
X142701549Y-95979409D01*
X142701549Y-95979414D01*
X142722632Y-96112535D01*
X142722633Y-96112538D01*
X142753500Y-96173117D01*
X142766396Y-96241786D01*
X142753501Y-96285703D01*
X142722633Y-96346288D01*
X142701549Y-96479409D01*
X142701549Y-96479414D01*
X135507853Y-96479414D01*
X135507853Y-95825142D01*
X135504999Y-95794712D01*
X135504999Y-95794710D01*
X135460146Y-95666531D01*
X135460145Y-95666529D01*
X135433841Y-95630888D01*
X135379503Y-95557262D01*
X135270235Y-95476619D01*
X135270233Y-95476618D01*
X135142053Y-95431765D01*
X135111623Y-95428912D01*
X135111619Y-95428912D01*
X133753087Y-95428912D01*
X133753083Y-95428912D01*
X133722653Y-95431765D01*
X133722651Y-95431765D01*
X133594472Y-95476618D01*
X133594470Y-95476619D01*
X133485203Y-95557262D01*
X133404560Y-95666529D01*
X133404559Y-95666531D01*
X133359706Y-95794710D01*
X133359706Y-95794712D01*
X133356853Y-95825142D01*
X133356853Y-96633681D01*
X129000500Y-96633681D01*
X129000500Y-94100000D01*
X142644750Y-94100000D01*
X142662698Y-94236329D01*
X142663670Y-94243708D01*
X142663671Y-94243712D01*
X142719137Y-94377622D01*
X142719138Y-94377624D01*
X142719139Y-94377625D01*
X142807379Y-94492621D01*
X142922375Y-94580861D01*
X143056291Y-94636330D01*
X143183280Y-94653048D01*
X143199999Y-94655250D01*
X143200000Y-94655250D01*
X143200001Y-94655250D01*
X143214977Y-94653278D01*
X143343709Y-94636330D01*
X143477625Y-94580861D01*
X143592621Y-94492621D01*
X143680861Y-94377625D01*
X143703850Y-94322123D01*
X143747689Y-94267723D01*
X143813983Y-94245657D01*
X143834593Y-94246638D01*
X143876843Y-94252201D01*
X143899999Y-94255250D01*
X143900000Y-94255250D01*
X143900001Y-94255250D01*
X143914977Y-94253278D01*
X144043709Y-94236330D01*
X144177625Y-94180861D01*
X144292621Y-94092621D01*
X144380861Y-93977625D01*
X144413014Y-93900000D01*
X146844750Y-93900000D01*
X146852160Y-93956287D01*
X146863670Y-94043708D01*
X146863671Y-94043712D01*
X146919137Y-94177622D01*
X146919138Y-94177624D01*
X146919139Y-94177625D01*
X147007379Y-94292621D01*
X147122375Y-94380861D01*
X147256291Y-94436330D01*
X147383280Y-94453048D01*
X147399999Y-94455250D01*
X147400000Y-94455250D01*
X147400001Y-94455250D01*
X147414977Y-94453278D01*
X147543709Y-94436330D01*
X147677625Y-94380861D01*
X147792621Y-94292621D01*
X147880861Y-94177625D01*
X147936330Y-94043709D01*
X147955250Y-93900000D01*
X147936330Y-93756291D01*
X147880861Y-93622375D01*
X147792621Y-93507379D01*
X147677625Y-93419139D01*
X147677624Y-93419138D01*
X147677622Y-93419137D01*
X147543712Y-93363671D01*
X147543710Y-93363670D01*
X147543709Y-93363670D01*
X147471854Y-93354210D01*
X147400001Y-93344750D01*
X147399999Y-93344750D01*
X147256291Y-93363670D01*
X147256287Y-93363671D01*
X147122377Y-93419137D01*
X147007379Y-93507379D01*
X146919137Y-93622377D01*
X146863671Y-93756287D01*
X146863670Y-93756291D01*
X146844750Y-93900000D01*
X144413014Y-93900000D01*
X144436330Y-93843709D01*
X144455250Y-93700000D01*
X144436330Y-93556291D01*
X144380861Y-93422375D01*
X144344880Y-93375484D01*
X144319687Y-93310316D01*
X144333725Y-93241872D01*
X144344878Y-93224518D01*
X144380861Y-93177625D01*
X144436330Y-93043709D01*
X144455250Y-92900001D01*
X158994318Y-92900001D01*
X159014955Y-93056760D01*
X159014956Y-93056762D01*
X159065019Y-93177626D01*
X159075464Y-93202841D01*
X159171718Y-93328282D01*
X159297159Y-93424536D01*
X159443238Y-93485044D01*
X159521619Y-93495363D01*
X159599999Y-93505682D01*
X159600000Y-93505682D01*
X159600001Y-93505682D01*
X159652254Y-93498802D01*
X159756762Y-93485044D01*
X159902841Y-93424536D01*
X160028282Y-93328282D01*
X160124536Y-93202841D01*
X160167134Y-93100001D01*
X163694318Y-93100001D01*
X163714955Y-93256760D01*
X163714956Y-93256762D01*
X163775464Y-93402841D01*
X163871718Y-93528282D01*
X163997159Y-93624536D01*
X164143238Y-93685044D01*
X164221619Y-93695363D01*
X164299999Y-93705682D01*
X164300000Y-93705682D01*
X164300001Y-93705682D01*
X164352254Y-93698802D01*
X164456762Y-93685044D01*
X164602841Y-93624536D01*
X164728282Y-93528282D01*
X164824536Y-93402841D01*
X164885044Y-93256762D01*
X164905682Y-93100000D01*
X164899989Y-93056760D01*
X164891923Y-92995492D01*
X164885044Y-92943238D01*
X164824536Y-92797159D01*
X164728282Y-92671718D01*
X164602841Y-92575464D01*
X164456762Y-92514956D01*
X164456760Y-92514955D01*
X164300001Y-92494318D01*
X164299999Y-92494318D01*
X164143239Y-92514955D01*
X164143237Y-92514956D01*
X163997160Y-92575463D01*
X163871718Y-92671718D01*
X163775463Y-92797160D01*
X163714956Y-92943237D01*
X163714955Y-92943239D01*
X163694318Y-93099998D01*
X163694318Y-93100001D01*
X160167134Y-93100001D01*
X160185044Y-93056762D01*
X160205682Y-92900000D01*
X160185044Y-92743238D01*
X160124536Y-92597159D01*
X160028282Y-92471718D01*
X159902841Y-92375464D01*
X159874370Y-92363671D01*
X159756762Y-92314956D01*
X159756760Y-92314955D01*
X159600001Y-92294318D01*
X159599999Y-92294318D01*
X159443239Y-92314955D01*
X159443237Y-92314956D01*
X159297160Y-92375463D01*
X159171718Y-92471718D01*
X159075463Y-92597160D01*
X159014956Y-92743237D01*
X159014955Y-92743239D01*
X158994318Y-92899998D01*
X158994318Y-92900001D01*
X144455250Y-92900001D01*
X144455250Y-92900000D01*
X144436330Y-92756291D01*
X144380861Y-92622375D01*
X144292621Y-92507379D01*
X144177625Y-92419139D01*
X144177624Y-92419138D01*
X144177622Y-92419137D01*
X144043712Y-92363671D01*
X144043710Y-92363670D01*
X144043709Y-92363670D01*
X143965398Y-92353360D01*
X143900001Y-92344750D01*
X143899997Y-92344750D01*
X143834594Y-92353360D01*
X143765559Y-92342594D01*
X143713304Y-92296214D01*
X143703849Y-92277873D01*
X143680862Y-92222377D01*
X143680861Y-92222376D01*
X143680861Y-92222375D01*
X143592621Y-92107379D01*
X143477625Y-92019139D01*
X143477624Y-92019138D01*
X143477622Y-92019137D01*
X143343712Y-91963671D01*
X143343710Y-91963670D01*
X143343709Y-91963670D01*
X143271854Y-91954210D01*
X143200001Y-91944750D01*
X143199999Y-91944750D01*
X143056291Y-91963670D01*
X143056287Y-91963671D01*
X142922377Y-92019137D01*
X142807379Y-92107379D01*
X142719137Y-92222377D01*
X142663671Y-92356287D01*
X142663670Y-92356291D01*
X142650642Y-92455250D01*
X142644750Y-92500000D01*
X142657541Y-92597159D01*
X142663670Y-92643708D01*
X142663671Y-92643712D01*
X142719138Y-92777623D01*
X142719139Y-92777625D01*
X142755118Y-92824514D01*
X142780312Y-92889683D01*
X142766274Y-92958128D01*
X142755118Y-92975486D01*
X142719139Y-93022374D01*
X142719138Y-93022376D01*
X142663671Y-93156287D01*
X142663670Y-93156291D01*
X142644750Y-93300000D01*
X142653132Y-93363670D01*
X142663670Y-93443708D01*
X142663671Y-93443712D01*
X142719138Y-93577623D01*
X142719139Y-93577625D01*
X142755118Y-93624514D01*
X142780312Y-93689683D01*
X142766274Y-93758128D01*
X142755118Y-93775486D01*
X142719139Y-93822374D01*
X142719138Y-93822376D01*
X142663671Y-93956287D01*
X142663670Y-93956291D01*
X142645722Y-94092620D01*
X142644750Y-94100000D01*
X129000500Y-94100000D01*
X129000500Y-91900000D01*
X151044750Y-91900000D01*
X151053132Y-91963670D01*
X151063670Y-92043708D01*
X151063671Y-92043712D01*
X151119137Y-92177622D01*
X151119138Y-92177624D01*
X151119139Y-92177625D01*
X151207379Y-92292621D01*
X151322375Y-92380861D01*
X151456291Y-92436330D01*
X151583280Y-92453048D01*
X151599999Y-92455250D01*
X151600000Y-92455250D01*
X151600001Y-92455250D01*
X151614977Y-92453278D01*
X151743709Y-92436330D01*
X151877625Y-92380861D01*
X151992621Y-92292621D01*
X152080861Y-92177625D01*
X152136330Y-92043709D01*
X152155250Y-91900000D01*
X152155184Y-91899501D01*
X156794318Y-91899501D01*
X156814955Y-92056260D01*
X156814956Y-92056262D01*
X156875464Y-92202341D01*
X156971718Y-92327782D01*
X157097159Y-92424036D01*
X157243238Y-92484544D01*
X157317479Y-92494318D01*
X157399999Y-92505182D01*
X157400000Y-92505182D01*
X157400001Y-92505182D01*
X157452254Y-92498302D01*
X157556762Y-92484544D01*
X157702841Y-92424036D01*
X157828282Y-92327782D01*
X157924536Y-92202341D01*
X157985044Y-92056262D01*
X158005682Y-91899500D01*
X157985044Y-91742738D01*
X157924536Y-91596659D01*
X157835215Y-91480253D01*
X158374570Y-91480253D01*
X158395207Y-91637012D01*
X158395208Y-91637014D01*
X158444612Y-91756287D01*
X158455716Y-91783093D01*
X158551970Y-91908534D01*
X158677411Y-92004788D01*
X158823490Y-92065296D01*
X158901870Y-92075614D01*
X158980251Y-92085934D01*
X158980252Y-92085934D01*
X158980253Y-92085934D01*
X159032505Y-92079054D01*
X159137014Y-92065296D01*
X159283093Y-92004788D01*
X159408534Y-91908534D01*
X159504788Y-91783093D01*
X159565296Y-91637014D01*
X159585934Y-91480252D01*
X159565296Y-91323490D01*
X159504788Y-91177411D01*
X159408534Y-91051970D01*
X159340805Y-91000000D01*
X160644750Y-91000000D01*
X160663670Y-91143708D01*
X160663671Y-91143712D01*
X160719137Y-91277622D01*
X160719138Y-91277624D01*
X160719139Y-91277625D01*
X160807379Y-91392621D01*
X160922375Y-91480861D01*
X161056291Y-91536330D01*
X161183280Y-91553048D01*
X161199999Y-91555250D01*
X161200000Y-91555250D01*
X161200001Y-91555250D01*
X161214977Y-91553278D01*
X161343709Y-91536330D01*
X161477625Y-91480861D01*
X161592621Y-91392621D01*
X161680861Y-91277625D01*
X161736330Y-91143709D01*
X161755250Y-91000000D01*
X161736330Y-90856291D01*
X161680861Y-90722375D01*
X161592621Y-90607379D01*
X161477625Y-90519139D01*
X161477624Y-90519138D01*
X161477622Y-90519137D01*
X161343712Y-90463671D01*
X161343710Y-90463670D01*
X161343709Y-90463670D01*
X161271854Y-90454210D01*
X161200001Y-90444750D01*
X161199999Y-90444750D01*
X161056291Y-90463670D01*
X161056287Y-90463671D01*
X160922377Y-90519137D01*
X160807379Y-90607379D01*
X160719137Y-90722377D01*
X160663671Y-90856287D01*
X160663670Y-90856291D01*
X160644750Y-90999999D01*
X160644750Y-91000000D01*
X159340805Y-91000000D01*
X159283093Y-90955716D01*
X159137014Y-90895208D01*
X159137012Y-90895207D01*
X158980253Y-90874570D01*
X158980251Y-90874570D01*
X158823491Y-90895207D01*
X158823489Y-90895208D01*
X158677412Y-90955715D01*
X158551970Y-91051970D01*
X158455715Y-91177412D01*
X158395208Y-91323489D01*
X158395207Y-91323491D01*
X158374570Y-91480250D01*
X158374570Y-91480253D01*
X157835215Y-91480253D01*
X157828282Y-91471218D01*
X157702841Y-91374964D01*
X157675577Y-91363671D01*
X157556762Y-91314456D01*
X157556760Y-91314455D01*
X157400001Y-91293818D01*
X157399999Y-91293818D01*
X157243239Y-91314455D01*
X157243237Y-91314456D01*
X157097160Y-91374963D01*
X156971718Y-91471218D01*
X156875463Y-91596660D01*
X156814956Y-91742737D01*
X156814955Y-91742739D01*
X156794318Y-91899498D01*
X156794318Y-91899501D01*
X152155184Y-91899501D01*
X152136330Y-91756291D01*
X152080861Y-91622375D01*
X151992621Y-91507379D01*
X151877625Y-91419139D01*
X151877624Y-91419138D01*
X151877622Y-91419137D01*
X151743712Y-91363671D01*
X151743710Y-91363670D01*
X151743709Y-91363670D01*
X151671854Y-91354210D01*
X151600001Y-91344750D01*
X151599999Y-91344750D01*
X151456291Y-91363670D01*
X151456287Y-91363671D01*
X151322377Y-91419137D01*
X151207379Y-91507379D01*
X151119137Y-91622377D01*
X151063671Y-91756287D01*
X151063670Y-91756291D01*
X151044750Y-91900000D01*
X129000500Y-91900000D01*
X129000500Y-90700001D01*
X129794318Y-90700001D01*
X129814955Y-90856760D01*
X129814956Y-90856762D01*
X129875464Y-91002841D01*
X129971718Y-91128282D01*
X130097159Y-91224536D01*
X130243238Y-91285044D01*
X130321619Y-91295363D01*
X130399999Y-91305682D01*
X130400000Y-91305682D01*
X130400001Y-91305682D01*
X130452253Y-91298802D01*
X130556762Y-91285044D01*
X130702841Y-91224536D01*
X130828282Y-91128282D01*
X130924536Y-91002841D01*
X130985044Y-90856762D01*
X131005682Y-90700000D01*
X136344750Y-90700000D01*
X136362698Y-90836329D01*
X136363670Y-90843708D01*
X136363671Y-90843712D01*
X136419137Y-90977622D01*
X136419138Y-90977624D01*
X136419139Y-90977625D01*
X136507379Y-91092621D01*
X136622375Y-91180861D01*
X136756291Y-91236330D01*
X136883280Y-91253048D01*
X136899999Y-91255250D01*
X136900000Y-91255250D01*
X136900001Y-91255250D01*
X136914977Y-91253278D01*
X137043709Y-91236330D01*
X137177625Y-91180861D01*
X137292621Y-91092621D01*
X137380861Y-90977625D01*
X137436330Y-90843709D01*
X137455250Y-90700000D01*
X137436330Y-90556291D01*
X137380861Y-90422375D01*
X137292621Y-90307379D01*
X137283005Y-90300000D01*
X148044750Y-90300000D01*
X148057541Y-90397159D01*
X148063670Y-90443708D01*
X148063671Y-90443712D01*
X148119137Y-90577622D01*
X148119138Y-90577624D01*
X148119139Y-90577625D01*
X148207379Y-90692621D01*
X148322375Y-90780861D01*
X148456291Y-90836330D01*
X148583280Y-90853048D01*
X148599999Y-90855250D01*
X148600000Y-90855250D01*
X148600001Y-90855250D01*
X148614977Y-90853278D01*
X148743709Y-90836330D01*
X148877625Y-90780861D01*
X148992621Y-90692621D01*
X149080861Y-90577625D01*
X149136330Y-90443709D01*
X149155250Y-90300000D01*
X149136330Y-90156291D01*
X149080861Y-90022375D01*
X149024942Y-89949500D01*
X151544750Y-89949500D01*
X151563670Y-90093208D01*
X151563671Y-90093212D01*
X151619137Y-90227122D01*
X151619138Y-90227124D01*
X151619139Y-90227125D01*
X151707379Y-90342121D01*
X151822375Y-90430361D01*
X151956291Y-90485830D01*
X152083280Y-90502548D01*
X152099999Y-90504750D01*
X152100000Y-90504750D01*
X152100001Y-90504750D01*
X152114977Y-90502778D01*
X152243709Y-90485830D01*
X152331791Y-90449345D01*
X152401257Y-90441877D01*
X152463737Y-90473152D01*
X152493800Y-90516451D01*
X152519139Y-90577625D01*
X152607379Y-90692621D01*
X152722375Y-90780861D01*
X152856291Y-90836330D01*
X152983280Y-90853048D01*
X152999999Y-90855250D01*
X153000000Y-90855250D01*
X153000001Y-90855250D01*
X153014977Y-90853278D01*
X153143709Y-90836330D01*
X153277625Y-90780861D01*
X153392621Y-90692621D01*
X153480861Y-90577625D01*
X153536330Y-90443709D01*
X153555250Y-90300000D01*
X153536330Y-90156291D01*
X153480861Y-90022375D01*
X153392621Y-89907379D01*
X153277625Y-89819139D01*
X153277624Y-89819138D01*
X153277622Y-89819137D01*
X153143712Y-89763671D01*
X153143710Y-89763670D01*
X153143709Y-89763670D01*
X153071854Y-89754210D01*
X153000001Y-89744750D01*
X152999999Y-89744750D01*
X152856291Y-89763670D01*
X152768209Y-89800154D01*
X152698740Y-89807622D01*
X152636261Y-89776346D01*
X152606199Y-89733047D01*
X152580861Y-89671875D01*
X152492621Y-89556879D01*
X152377625Y-89468639D01*
X152377624Y-89468638D01*
X152377622Y-89468637D01*
X152243712Y-89413171D01*
X152243710Y-89413170D01*
X152243709Y-89413170D01*
X152171854Y-89403709D01*
X152100001Y-89394250D01*
X152099999Y-89394250D01*
X151956291Y-89413170D01*
X151956287Y-89413171D01*
X151822377Y-89468637D01*
X151707379Y-89556879D01*
X151619137Y-89671877D01*
X151563671Y-89805787D01*
X151563670Y-89805791D01*
X151544750Y-89949499D01*
X151544750Y-89949500D01*
X149024942Y-89949500D01*
X148992621Y-89907379D01*
X148877625Y-89819139D01*
X148877624Y-89819138D01*
X148877622Y-89819137D01*
X148743712Y-89763671D01*
X148743710Y-89763670D01*
X148743709Y-89763670D01*
X148671854Y-89754210D01*
X148600001Y-89744750D01*
X148599999Y-89744750D01*
X148456291Y-89763670D01*
X148456287Y-89763671D01*
X148322377Y-89819137D01*
X148207379Y-89907379D01*
X148119137Y-90022377D01*
X148063671Y-90156287D01*
X148063670Y-90156291D01*
X148044750Y-90300000D01*
X137283005Y-90300000D01*
X137177625Y-90219139D01*
X137177624Y-90219138D01*
X137177622Y-90219137D01*
X137043712Y-90163671D01*
X137043710Y-90163670D01*
X137043709Y-90163670D01*
X136971854Y-90154210D01*
X136900001Y-90144750D01*
X136899999Y-90144750D01*
X136756291Y-90163670D01*
X136756287Y-90163671D01*
X136622377Y-90219137D01*
X136507379Y-90307379D01*
X136419137Y-90422377D01*
X136363671Y-90556287D01*
X136363670Y-90556291D01*
X136345722Y-90692620D01*
X136344750Y-90700000D01*
X131005682Y-90700000D01*
X131004710Y-90692620D01*
X130985044Y-90543239D01*
X130985044Y-90543238D01*
X130924536Y-90397159D01*
X130828282Y-90271718D01*
X130702841Y-90175464D01*
X130674370Y-90163671D01*
X130556762Y-90114956D01*
X130556760Y-90114955D01*
X130400001Y-90094318D01*
X130399999Y-90094318D01*
X130243239Y-90114955D01*
X130243237Y-90114956D01*
X130097160Y-90175463D01*
X129971718Y-90271718D01*
X129875463Y-90397160D01*
X129814956Y-90543237D01*
X129814955Y-90543239D01*
X129794318Y-90699998D01*
X129794318Y-90700001D01*
X129000500Y-90700001D01*
X129000500Y-88700000D01*
X139844750Y-88700000D01*
X139863670Y-88843708D01*
X139863671Y-88843712D01*
X139919137Y-88977622D01*
X139919138Y-88977624D01*
X139919139Y-88977625D01*
X140007379Y-89092621D01*
X140122375Y-89180861D01*
X140256291Y-89236330D01*
X140383280Y-89253048D01*
X140399999Y-89255250D01*
X140400000Y-89255250D01*
X140400001Y-89255250D01*
X140414977Y-89253278D01*
X140543709Y-89236330D01*
X140677625Y-89180861D01*
X140792621Y-89092621D01*
X140880861Y-88977625D01*
X140936330Y-88843709D01*
X140955250Y-88700001D01*
X145794318Y-88700001D01*
X145814955Y-88856760D01*
X145814956Y-88856762D01*
X145823596Y-88877622D01*
X145875464Y-89002841D01*
X145971718Y-89128282D01*
X146097159Y-89224536D01*
X146243238Y-89285044D01*
X146321619Y-89295363D01*
X146399999Y-89305682D01*
X146400000Y-89305682D01*
X146400001Y-89305682D01*
X146452254Y-89298802D01*
X146556762Y-89285044D01*
X146702841Y-89224536D01*
X146828282Y-89128282D01*
X146924536Y-89002841D01*
X146985044Y-88856762D01*
X147005682Y-88700000D01*
X146992517Y-88600000D01*
X151244750Y-88600000D01*
X151257915Y-88700000D01*
X151263670Y-88743708D01*
X151263671Y-88743712D01*
X151319137Y-88877622D01*
X151319138Y-88877624D01*
X151319139Y-88877625D01*
X151407379Y-88992621D01*
X151522375Y-89080861D01*
X151522376Y-89080861D01*
X151522377Y-89080862D01*
X151567013Y-89099350D01*
X151656291Y-89136330D01*
X151783280Y-89153048D01*
X151799999Y-89155250D01*
X151800000Y-89155250D01*
X151800001Y-89155250D01*
X151814977Y-89153278D01*
X151943709Y-89136330D01*
X152077625Y-89080861D01*
X152192621Y-88992621D01*
X152280861Y-88877625D01*
X152336330Y-88743709D01*
X152355250Y-88600000D01*
X152336330Y-88456291D01*
X152280861Y-88322375D01*
X152192621Y-88207379D01*
X152077625Y-88119139D01*
X152077624Y-88119138D01*
X152077622Y-88119137D01*
X151943712Y-88063671D01*
X151943710Y-88063670D01*
X151943709Y-88063670D01*
X151871854Y-88054210D01*
X151800001Y-88044750D01*
X151799999Y-88044750D01*
X151656291Y-88063670D01*
X151656287Y-88063671D01*
X151522377Y-88119137D01*
X151407379Y-88207379D01*
X151319137Y-88322377D01*
X151263671Y-88456287D01*
X151263670Y-88456291D01*
X151250505Y-88556291D01*
X151244750Y-88600000D01*
X146992517Y-88600000D01*
X146985044Y-88543238D01*
X146924536Y-88397159D01*
X146828282Y-88271718D01*
X146702841Y-88175464D01*
X146674370Y-88163671D01*
X146556762Y-88114956D01*
X146556760Y-88114955D01*
X146400001Y-88094318D01*
X146399999Y-88094318D01*
X146243239Y-88114955D01*
X146243237Y-88114956D01*
X146097160Y-88175463D01*
X145971718Y-88271718D01*
X145875463Y-88397160D01*
X145814956Y-88543237D01*
X145814955Y-88543239D01*
X145794318Y-88699998D01*
X145794318Y-88700001D01*
X140955250Y-88700001D01*
X140955250Y-88700000D01*
X140936330Y-88556291D01*
X140880861Y-88422375D01*
X140792621Y-88307379D01*
X140677625Y-88219139D01*
X140677624Y-88219138D01*
X140677622Y-88219137D01*
X140543712Y-88163671D01*
X140543710Y-88163670D01*
X140543709Y-88163670D01*
X140471854Y-88154210D01*
X140400001Y-88144750D01*
X140399999Y-88144750D01*
X140256291Y-88163670D01*
X140256287Y-88163671D01*
X140122377Y-88219137D01*
X140007379Y-88307379D01*
X139919137Y-88422377D01*
X139863671Y-88556287D01*
X139863670Y-88556291D01*
X139844750Y-88699999D01*
X139844750Y-88700000D01*
X129000500Y-88700000D01*
X129000500Y-84684371D01*
X131099500Y-84684371D01*
X131139367Y-85050946D01*
X131218635Y-85411065D01*
X131264460Y-85547067D01*
X131336375Y-85760503D01*
X131336377Y-85760508D01*
X131336379Y-85760513D01*
X131491200Y-86095153D01*
X131491202Y-86095157D01*
X131491204Y-86095161D01*
X131491205Y-86095162D01*
X131681310Y-86411119D01*
X131904462Y-86704670D01*
X132158044Y-86972373D01*
X132439083Y-87211090D01*
X132744284Y-87418022D01*
X132744288Y-87418024D01*
X132744291Y-87418026D01*
X132926172Y-87514453D01*
X133070070Y-87590743D01*
X133412621Y-87727227D01*
X133412627Y-87727228D01*
X133412628Y-87727229D01*
X133412634Y-87727231D01*
X133688226Y-87803748D01*
X133767919Y-87825875D01*
X133767930Y-87825876D01*
X133767931Y-87825877D01*
X134131786Y-87885529D01*
X134131790Y-87885529D01*
X134131801Y-87885531D01*
X134407890Y-87900500D01*
X134407892Y-87900500D01*
X134592108Y-87900500D01*
X134592110Y-87900500D01*
X134868199Y-87885531D01*
X134868210Y-87885529D01*
X134868213Y-87885529D01*
X135120077Y-87844237D01*
X135232081Y-87825875D01*
X135587379Y-87727227D01*
X135929930Y-87590743D01*
X136255716Y-87418022D01*
X136560917Y-87211090D01*
X136788977Y-87017374D01*
X138479500Y-87017374D01*
X138494859Y-87143868D01*
X138494860Y-87143874D01*
X138555182Y-87302931D01*
X138617475Y-87393177D01*
X138651817Y-87442929D01*
X138757505Y-87536560D01*
X138779150Y-87555736D01*
X138929773Y-87634789D01*
X138929775Y-87634790D01*
X139094944Y-87675500D01*
X139265056Y-87675500D01*
X139430225Y-87634790D01*
X139514158Y-87590738D01*
X139580849Y-87555736D01*
X139580850Y-87555734D01*
X139580852Y-87555734D01*
X139708183Y-87442929D01*
X139804818Y-87302930D01*
X139865140Y-87143872D01*
X139880500Y-87017372D01*
X139880500Y-86271521D01*
X139900185Y-86204482D01*
X139952989Y-86158727D01*
X140022147Y-86148783D01*
X140085703Y-86177808D01*
X140102876Y-86196035D01*
X140103807Y-86197249D01*
X140103808Y-86197250D01*
X140196696Y-86318304D01*
X140317750Y-86411192D01*
X140458720Y-86469584D01*
X140515370Y-86477042D01*
X140572019Y-86484500D01*
X140572020Y-86484500D01*
X140647981Y-86484500D01*
X140685746Y-86479528D01*
X140761280Y-86469584D01*
X140902250Y-86411192D01*
X141023304Y-86318304D01*
X141116192Y-86197250D01*
X141174584Y-86056280D01*
X141194500Y-85905001D01*
X145805500Y-85905001D01*
X145825415Y-86056278D01*
X145825416Y-86056280D01*
X145883806Y-86197247D01*
X145883807Y-86197249D01*
X145883808Y-86197250D01*
X145976696Y-86318304D01*
X146097750Y-86411192D01*
X146238720Y-86469584D01*
X146295370Y-86477042D01*
X146352019Y-86484500D01*
X146352020Y-86484500D01*
X146427981Y-86484500D01*
X146465746Y-86479528D01*
X146541280Y-86469584D01*
X146682250Y-86411192D01*
X146803304Y-86318304D01*
X146896192Y-86197250D01*
X146896192Y-86197249D01*
X146897124Y-86196035D01*
X146953552Y-86154832D01*
X147023298Y-86150677D01*
X147084218Y-86184889D01*
X147116971Y-86246607D01*
X147119500Y-86271521D01*
X147119500Y-87017374D01*
X147134859Y-87143868D01*
X147134860Y-87143874D01*
X147195182Y-87302931D01*
X147257475Y-87393177D01*
X147291817Y-87442929D01*
X147397505Y-87536560D01*
X147419150Y-87555736D01*
X147569773Y-87634789D01*
X147569775Y-87634790D01*
X147734944Y-87675500D01*
X147905056Y-87675500D01*
X148070225Y-87634790D01*
X148154158Y-87590738D01*
X148220849Y-87555736D01*
X148220850Y-87555734D01*
X148220852Y-87555734D01*
X148348183Y-87442929D01*
X148444818Y-87302930D01*
X148505140Y-87143872D01*
X148520500Y-87017372D01*
X148520500Y-85832628D01*
X148505140Y-85706128D01*
X148444818Y-85547070D01*
X148348183Y-85407071D01*
X148220852Y-85294266D01*
X148220849Y-85294263D01*
X148070226Y-85215210D01*
X147905056Y-85174500D01*
X147734944Y-85174500D01*
X147569773Y-85215210D01*
X147419150Y-85294263D01*
X147291816Y-85407072D01*
X147195183Y-85547067D01*
X147150133Y-85665854D01*
X147107955Y-85721556D01*
X147042357Y-85745613D01*
X146974167Y-85730386D01*
X146925034Y-85680710D01*
X146919630Y-85669334D01*
X146896194Y-85612754D01*
X146896194Y-85612753D01*
X146896192Y-85612750D01*
X146803304Y-85491696D01*
X146682250Y-85398808D01*
X146682249Y-85398807D01*
X146682247Y-85398806D01*
X146541280Y-85340416D01*
X146541278Y-85340415D01*
X146427981Y-85325500D01*
X146427980Y-85325500D01*
X146352020Y-85325500D01*
X146352019Y-85325500D01*
X146238721Y-85340415D01*
X146238719Y-85340416D01*
X146097752Y-85398806D01*
X145976696Y-85491696D01*
X145883806Y-85612752D01*
X145825416Y-85753719D01*
X145825415Y-85753721D01*
X145805500Y-85904998D01*
X145805500Y-85905001D01*
X141194500Y-85905001D01*
X141194500Y-85905000D01*
X141174584Y-85753720D01*
X141116192Y-85612750D01*
X141023304Y-85491696D01*
X140902250Y-85398808D01*
X140902249Y-85398807D01*
X140902247Y-85398806D01*
X140761280Y-85340416D01*
X140761278Y-85340415D01*
X140647981Y-85325500D01*
X140647980Y-85325500D01*
X140572020Y-85325500D01*
X140572019Y-85325500D01*
X140458721Y-85340415D01*
X140458719Y-85340416D01*
X140317752Y-85398806D01*
X140301776Y-85411065D01*
X140196696Y-85491696D01*
X140128828Y-85580144D01*
X140103806Y-85612753D01*
X140080369Y-85669335D01*
X140036527Y-85723739D01*
X139970233Y-85745803D01*
X139902534Y-85728523D01*
X139854924Y-85677386D01*
X139849866Y-85665853D01*
X139829728Y-85612753D01*
X139804818Y-85547070D01*
X139708183Y-85407071D01*
X139580852Y-85294266D01*
X139580849Y-85294263D01*
X139430226Y-85215210D01*
X139265056Y-85174500D01*
X139094944Y-85174500D01*
X138929773Y-85215210D01*
X138779150Y-85294263D01*
X138651816Y-85407072D01*
X138555182Y-85547068D01*
X138494860Y-85706125D01*
X138494859Y-85706131D01*
X138479500Y-85832625D01*
X138479500Y-87017374D01*
X136788977Y-87017374D01*
X136841956Y-86972373D01*
X137095538Y-86704670D01*
X137318690Y-86411119D01*
X137508795Y-86095162D01*
X137663625Y-85760503D01*
X137781364Y-85411066D01*
X137860632Y-85050948D01*
X137900500Y-84684370D01*
X137900500Y-84627398D01*
X152400000Y-84627398D01*
X152414965Y-84784122D01*
X152414966Y-84784126D01*
X152474149Y-84985686D01*
X152570413Y-85172414D01*
X152700268Y-85337537D01*
X152700271Y-85337540D01*
X152859030Y-85475105D01*
X152859041Y-85475114D01*
X153040960Y-85580144D01*
X153040967Y-85580147D01*
X153239487Y-85648856D01*
X153250000Y-85650367D01*
X153250000Y-84580617D01*
X153319052Y-84634363D01*
X153437424Y-84675000D01*
X153531073Y-84675000D01*
X153623446Y-84659586D01*
X153733514Y-84600019D01*
X153750000Y-84582110D01*
X153750000Y-85646257D01*
X153861409Y-85619229D01*
X154052507Y-85531959D01*
X154223619Y-85410110D01*
X154223625Y-85410104D01*
X154368592Y-85258067D01*
X154482166Y-85081342D01*
X154544361Y-84925986D01*
X154587552Y-84871065D01*
X154653578Y-84848212D01*
X154721479Y-84864685D01*
X154769694Y-84915252D01*
X154771196Y-84918265D01*
X154774205Y-84924514D01*
X154853650Y-85050948D01*
X154870184Y-85077262D01*
X154997738Y-85204816D01*
X155014280Y-85215210D01*
X155140096Y-85294266D01*
X155150478Y-85300789D01*
X155320745Y-85360368D01*
X155320750Y-85360369D01*
X155499996Y-85380565D01*
X155500000Y-85380565D01*
X155500004Y-85380565D01*
X155679249Y-85360369D01*
X155679252Y-85360368D01*
X155679255Y-85360368D01*
X155849522Y-85300789D01*
X156002262Y-85204816D01*
X156129816Y-85077262D01*
X156225789Y-84924522D01*
X156285368Y-84754255D01*
X156300499Y-84619960D01*
X156699500Y-84619960D01*
X156714630Y-84754249D01*
X156714631Y-84754254D01*
X156774211Y-84924523D01*
X156853650Y-85050948D01*
X156870184Y-85077262D01*
X156997738Y-85204816D01*
X157014280Y-85215210D01*
X157140096Y-85294266D01*
X157150478Y-85300789D01*
X157320745Y-85360368D01*
X157320750Y-85360369D01*
X157499996Y-85380565D01*
X157500000Y-85380565D01*
X157500004Y-85380565D01*
X157679249Y-85360369D01*
X157679252Y-85360368D01*
X157679255Y-85360368D01*
X157849522Y-85300789D01*
X158002262Y-85204816D01*
X158129816Y-85077262D01*
X158191389Y-84979269D01*
X158699500Y-84979269D01*
X158702353Y-85009699D01*
X158702353Y-85009701D01*
X158747206Y-85137880D01*
X158747207Y-85137882D01*
X158827850Y-85247150D01*
X158937118Y-85327793D01*
X158973190Y-85340415D01*
X159065299Y-85372646D01*
X159095730Y-85375500D01*
X159095734Y-85375500D01*
X159904270Y-85375500D01*
X159934699Y-85372646D01*
X159934701Y-85372646D01*
X160026807Y-85340416D01*
X160062882Y-85327793D01*
X160172150Y-85247150D01*
X160252793Y-85137882D01*
X160275219Y-85073790D01*
X160297646Y-85009701D01*
X160297646Y-85009699D01*
X160300500Y-84979269D01*
X160300500Y-84684371D01*
X162099500Y-84684371D01*
X162139367Y-85050946D01*
X162218635Y-85411065D01*
X162264460Y-85547067D01*
X162336375Y-85760503D01*
X162336377Y-85760508D01*
X162336379Y-85760513D01*
X162491200Y-86095153D01*
X162491202Y-86095157D01*
X162491204Y-86095161D01*
X162491205Y-86095162D01*
X162681310Y-86411119D01*
X162904462Y-86704670D01*
X163158044Y-86972373D01*
X163439083Y-87211090D01*
X163744284Y-87418022D01*
X163744288Y-87418024D01*
X163744291Y-87418026D01*
X163926172Y-87514453D01*
X164070070Y-87590743D01*
X164412621Y-87727227D01*
X164412627Y-87727228D01*
X164412628Y-87727229D01*
X164412634Y-87727231D01*
X164688226Y-87803748D01*
X164767919Y-87825875D01*
X164767930Y-87825876D01*
X164767931Y-87825877D01*
X165131786Y-87885529D01*
X165131790Y-87885529D01*
X165131801Y-87885531D01*
X165407890Y-87900500D01*
X165407892Y-87900500D01*
X165592108Y-87900500D01*
X165592110Y-87900500D01*
X165868199Y-87885531D01*
X165868210Y-87885529D01*
X165868213Y-87885529D01*
X166120077Y-87844237D01*
X166232081Y-87825875D01*
X166587379Y-87727227D01*
X166929930Y-87590743D01*
X167255716Y-87418022D01*
X167560917Y-87211090D01*
X167841956Y-86972373D01*
X168095538Y-86704670D01*
X168318690Y-86411119D01*
X168508795Y-86095162D01*
X168663625Y-85760503D01*
X168781364Y-85411066D01*
X168860632Y-85050948D01*
X168900500Y-84684370D01*
X168900500Y-84315630D01*
X168860632Y-83949052D01*
X168781364Y-83588934D01*
X168663625Y-83239497D01*
X168654343Y-83219435D01*
X168508799Y-82904846D01*
X168508797Y-82904842D01*
X168501109Y-82892064D01*
X168318690Y-82588881D01*
X168095538Y-82295330D01*
X167841956Y-82027627D01*
X167560917Y-81788910D01*
X167551647Y-81782625D01*
X167255717Y-81581979D01*
X167255716Y-81581978D01*
X167255713Y-81581976D01*
X167255708Y-81581973D01*
X166929938Y-81409261D01*
X166929926Y-81409255D01*
X166587371Y-81272770D01*
X166587365Y-81272768D01*
X166232094Y-81174128D01*
X166232068Y-81174122D01*
X165868213Y-81114470D01*
X165868200Y-81114469D01*
X165868199Y-81114469D01*
X165592110Y-81099500D01*
X165407890Y-81099500D01*
X165131801Y-81114469D01*
X165131799Y-81114469D01*
X165131786Y-81114470D01*
X164767931Y-81174122D01*
X164767905Y-81174128D01*
X164412634Y-81272768D01*
X164412628Y-81272770D01*
X164070073Y-81409255D01*
X164070061Y-81409261D01*
X163744291Y-81581973D01*
X163744282Y-81581979D01*
X163439083Y-81788909D01*
X163158044Y-82027626D01*
X162904462Y-82295330D01*
X162904461Y-82295330D01*
X162785853Y-82451357D01*
X162681310Y-82588881D01*
X162681309Y-82588883D01*
X162491202Y-82904842D01*
X162491200Y-82904846D01*
X162336379Y-83239486D01*
X162218635Y-83588934D01*
X162139367Y-83949053D01*
X162099500Y-84315628D01*
X162099500Y-84684371D01*
X160300500Y-84684371D01*
X160300500Y-83620730D01*
X160297646Y-83590300D01*
X160297646Y-83590298D01*
X160252793Y-83462119D01*
X160252792Y-83462117D01*
X160172150Y-83352850D01*
X160062882Y-83272207D01*
X160062880Y-83272206D01*
X159934700Y-83227353D01*
X159904270Y-83224500D01*
X159904266Y-83224500D01*
X159095734Y-83224500D01*
X159095730Y-83224500D01*
X159065300Y-83227353D01*
X159065298Y-83227353D01*
X158937119Y-83272206D01*
X158937117Y-83272207D01*
X158827850Y-83352850D01*
X158747207Y-83462117D01*
X158747206Y-83462119D01*
X158702353Y-83590298D01*
X158702353Y-83590300D01*
X158699500Y-83620730D01*
X158699500Y-84979269D01*
X158191389Y-84979269D01*
X158225789Y-84924522D01*
X158285368Y-84754255D01*
X158300500Y-84619954D01*
X158300500Y-83980046D01*
X158285368Y-83845745D01*
X158225789Y-83675478D01*
X158129816Y-83522738D01*
X158002262Y-83395184D01*
X157921822Y-83344640D01*
X157849523Y-83299211D01*
X157679254Y-83239631D01*
X157679249Y-83239630D01*
X157500004Y-83219435D01*
X157499996Y-83219435D01*
X157320750Y-83239630D01*
X157320745Y-83239631D01*
X157150476Y-83299211D01*
X156997737Y-83395184D01*
X156870184Y-83522737D01*
X156774211Y-83675476D01*
X156714631Y-83845745D01*
X156714630Y-83845750D01*
X156699500Y-83980039D01*
X156699500Y-84619960D01*
X156300499Y-84619960D01*
X156300500Y-84619954D01*
X156300500Y-83980046D01*
X156285368Y-83845745D01*
X156225789Y-83675478D01*
X156129816Y-83522738D01*
X156002262Y-83395184D01*
X155921822Y-83344640D01*
X155849523Y-83299211D01*
X155679254Y-83239631D01*
X155679249Y-83239630D01*
X155500004Y-83219435D01*
X155499996Y-83219435D01*
X155320750Y-83239630D01*
X155320745Y-83239631D01*
X155150476Y-83299211D01*
X154997737Y-83395184D01*
X154870184Y-83522737D01*
X154774207Y-83675483D01*
X154771188Y-83681753D01*
X154768481Y-83680449D01*
X154735449Y-83726373D01*
X154670461Y-83752032D01*
X154601918Y-83738483D01*
X154551581Y-83690027D01*
X154540285Y-83663473D01*
X154525851Y-83614314D01*
X154429586Y-83427585D01*
X154299731Y-83262462D01*
X154299728Y-83262459D01*
X154140969Y-83124894D01*
X154140958Y-83124885D01*
X153959039Y-83019855D01*
X153959032Y-83019852D01*
X153760516Y-82951144D01*
X153750000Y-82949632D01*
X153750000Y-84019382D01*
X153680948Y-83965637D01*
X153562576Y-83925000D01*
X153468927Y-83925000D01*
X153376554Y-83940414D01*
X153266486Y-83999981D01*
X153250000Y-84017889D01*
X153250000Y-82953740D01*
X153249999Y-82953740D01*
X153138594Y-82980768D01*
X153138582Y-82980772D01*
X152947497Y-83068037D01*
X152947496Y-83068038D01*
X152776380Y-83189889D01*
X152776374Y-83189895D01*
X152631407Y-83341932D01*
X152517833Y-83518657D01*
X152439755Y-83713685D01*
X152400000Y-83919962D01*
X152400000Y-84050000D01*
X153220440Y-84050000D01*
X153181722Y-84092059D01*
X153131449Y-84206670D01*
X153121114Y-84331395D01*
X153151837Y-84452719D01*
X153215394Y-84550000D01*
X152400000Y-84550000D01*
X152400000Y-84627398D01*
X137900500Y-84627398D01*
X137900500Y-84315630D01*
X137860632Y-83949052D01*
X137781364Y-83588934D01*
X137663625Y-83239497D01*
X137654343Y-83219435D01*
X137508799Y-82904846D01*
X137508797Y-82904842D01*
X137501109Y-82892064D01*
X137365918Y-82667374D01*
X138479500Y-82667374D01*
X138494859Y-82793868D01*
X138494860Y-82793874D01*
X138555182Y-82952931D01*
X138574397Y-82980768D01*
X138651817Y-83092929D01*
X138757505Y-83186560D01*
X138779150Y-83205736D01*
X138905798Y-83272206D01*
X138929775Y-83284790D01*
X139094944Y-83325500D01*
X139265056Y-83325500D01*
X139430225Y-83284790D01*
X139509692Y-83243081D01*
X139580849Y-83205736D01*
X139580850Y-83205734D01*
X139580852Y-83205734D01*
X139708183Y-83092929D01*
X139804818Y-82952930D01*
X139865140Y-82793872D01*
X139880500Y-82667374D01*
X147119500Y-82667374D01*
X147134859Y-82793868D01*
X147134860Y-82793874D01*
X147195182Y-82952931D01*
X147214397Y-82980768D01*
X147291817Y-83092929D01*
X147397505Y-83186560D01*
X147419150Y-83205736D01*
X147545798Y-83272206D01*
X147569775Y-83284790D01*
X147734944Y-83325500D01*
X147905056Y-83325500D01*
X148070225Y-83284790D01*
X148149692Y-83243081D01*
X148220849Y-83205736D01*
X148220850Y-83205734D01*
X148220852Y-83205734D01*
X148348183Y-83092929D01*
X148444818Y-82952930D01*
X148505140Y-82793872D01*
X148520500Y-82667372D01*
X148520500Y-81782628D01*
X148505140Y-81656128D01*
X148444818Y-81497070D01*
X148348183Y-81357071D01*
X148220852Y-81244266D01*
X148220849Y-81244263D01*
X148070226Y-81165210D01*
X147905056Y-81124500D01*
X147734944Y-81124500D01*
X147569773Y-81165210D01*
X147419150Y-81244263D01*
X147291816Y-81357072D01*
X147195182Y-81497068D01*
X147134860Y-81656125D01*
X147134859Y-81656131D01*
X147119500Y-81782625D01*
X147119500Y-82667374D01*
X139880500Y-82667374D01*
X139880500Y-82667372D01*
X139880500Y-81782628D01*
X139865140Y-81656128D01*
X139804818Y-81497070D01*
X139708183Y-81357071D01*
X139580852Y-81244266D01*
X139580849Y-81244263D01*
X139430226Y-81165210D01*
X139265056Y-81124500D01*
X139094944Y-81124500D01*
X138929773Y-81165210D01*
X138779150Y-81244263D01*
X138651816Y-81357072D01*
X138555182Y-81497068D01*
X138494860Y-81656125D01*
X138494859Y-81656131D01*
X138479500Y-81782625D01*
X138479500Y-82667374D01*
X137365918Y-82667374D01*
X137318690Y-82588881D01*
X137095538Y-82295330D01*
X136841956Y-82027627D01*
X136560917Y-81788910D01*
X136551647Y-81782625D01*
X136255717Y-81581979D01*
X136255716Y-81581978D01*
X136255713Y-81581976D01*
X136255708Y-81581973D01*
X135929938Y-81409261D01*
X135929926Y-81409255D01*
X135587371Y-81272770D01*
X135587365Y-81272768D01*
X135232094Y-81174128D01*
X135232068Y-81174122D01*
X134868213Y-81114470D01*
X134868200Y-81114469D01*
X134868199Y-81114469D01*
X134592110Y-81099500D01*
X134407890Y-81099500D01*
X134131801Y-81114469D01*
X134131799Y-81114469D01*
X134131786Y-81114470D01*
X133767931Y-81174122D01*
X133767905Y-81174128D01*
X133412634Y-81272768D01*
X133412628Y-81272770D01*
X133070073Y-81409255D01*
X133070061Y-81409261D01*
X132744291Y-81581973D01*
X132744282Y-81581979D01*
X132439083Y-81788909D01*
X132158044Y-82027626D01*
X131904462Y-82295330D01*
X131904461Y-82295330D01*
X131785853Y-82451357D01*
X131681310Y-82588881D01*
X131681309Y-82588883D01*
X131491202Y-82904842D01*
X131491200Y-82904846D01*
X131336379Y-83239486D01*
X131218635Y-83588934D01*
X131139367Y-83949053D01*
X131099500Y-84315628D01*
X131099500Y-84684371D01*
X129000500Y-84684371D01*
X129000500Y-84499999D01*
X129009500Y-84282397D01*
X129020013Y-84041610D01*
X129020427Y-84036684D01*
X129049085Y-83806772D01*
X129079194Y-83578069D01*
X129079970Y-83573517D01*
X129127969Y-83344600D01*
X129128562Y-83341932D01*
X129177470Y-83121320D01*
X129178571Y-83117073D01*
X129245591Y-82891958D01*
X129314150Y-82674521D01*
X129315491Y-82670712D01*
X129401094Y-82451333D01*
X129488229Y-82240970D01*
X129489750Y-82237598D01*
X129593376Y-82025627D01*
X129698424Y-81823834D01*
X129700139Y-81820760D01*
X129821037Y-81617866D01*
X129943266Y-81426008D01*
X129945052Y-81423360D01*
X130082440Y-81230936D01*
X130221003Y-81050358D01*
X130222770Y-81048167D01*
X130375734Y-80867563D01*
X130530404Y-80698771D01*
X130698760Y-80530416D01*
X130700275Y-80529027D01*
X130867563Y-80375734D01*
X131048167Y-80222770D01*
X131050358Y-80221003D01*
X131230936Y-80082440D01*
X131423360Y-79945052D01*
X131426008Y-79943266D01*
X131617866Y-79821037D01*
X131820766Y-79700135D01*
X131823834Y-79698424D01*
X132025627Y-79593376D01*
X132237598Y-79489750D01*
X132240970Y-79488229D01*
X132451333Y-79401094D01*
X132670712Y-79315491D01*
X132674521Y-79314150D01*
X132891958Y-79245591D01*
X133117073Y-79178571D01*
X133121322Y-79177470D01*
X133344588Y-79127972D01*
X133573517Y-79079970D01*
X133578069Y-79079194D01*
X133806772Y-79049085D01*
X134036684Y-79020427D01*
X134041610Y-79020013D01*
X134282423Y-79009499D01*
X134500000Y-79000500D01*
X134500500Y-79000500D01*
X165499500Y-79000500D01*
X165500000Y-79000500D01*
X165717445Y-79009493D01*
G37*
%TD.AperFunction*%
%TD*%
M02*
