M48
; DRILL file {KiCad 7.0.6} date Tue Jun 11 21:52:13 2024
; FORMAT={-:-/ absolute / metric / decimal}
; #@! TF.CreationDate,2024-06-11T21:52:13-04:00
; #@! TF.GenerationSoftware,Kicad,Pcbnew,7.0.6
; #@! TF.FileFunction,Plated,1,4,PTH
FMAT,2
METRIC
; #@! TA.AperFunction,Plated,PTH,ViaDrill
T1C0.150
; #@! TA.AperFunction,Plated,PTH,ComponentDrill
T2C0.200
; #@! TA.AperFunction,Plated,PTH,ViaDrill
T3C0.350
; #@! TA.AperFunction,Plated,PTH,ViaDrill
T4C0.400
; #@! TA.AperFunction,Plated,PTH,ComponentDrill
T5C0.600
; #@! TA.AperFunction,Plated,PTH,ComponentDrill
T6C0.650
; #@! TA.AperFunction,Plated,PTH,ComponentDrill
T7C0.750
%
G90
G05
T1
X143.132Y-95.979
X143.132Y-96.479
X143.132Y-101.979
X143.132Y-102.479
X143.632Y-96.229
X143.632Y-96.729
X143.632Y-101.729
X143.632Y-102.229
T2
X144.832Y-98.229
X144.832Y-99.229
X144.832Y-100.229
X145.832Y-98.229
X145.832Y-99.229
X145.832Y-100.229
X146.832Y-98.229
X146.832Y-99.229
X146.832Y-100.229
T3
X136.782Y-94.429
X136.782Y-95.229
X136.8Y-103.2
X136.8Y-104.0
X136.9Y-90.7
X136.9Y-106.3
X137.082Y-95.929
X137.1Y-102.5
X137.4Y-107.0
X137.882Y-95.929
X137.9Y-102.5
X137.9Y-106.3
X138.4Y-107.0
X138.682Y-95.929
X138.7Y-102.5
X138.9Y-106.3
X139.1Y-90.0
X139.1Y-90.8
X139.4Y-107.0
X140.4Y-88.7
X140.4Y-115.8
X140.9Y-115.1
X141.4Y-115.8
X141.7Y-90.4
X141.9Y-115.1
X142.182Y-104.829
X142.2Y-105.7
X142.2Y-106.6
X142.982Y-104.829
X143.0Y-105.7
X143.1Y-106.6
X143.2Y-92.5
X143.2Y-93.3
X143.2Y-94.1
X143.7Y-116.0
X143.9Y-92.9
X143.9Y-93.7
X144.2Y-115.3
X144.8Y-116.0
X145.4Y-93.8
X146.2Y-119.0
X147.3Y-105.1
X147.4Y-93.9
X147.9Y-102.49
X147.982Y-97.029
X148.4Y-92.9
X148.6Y-90.3
X148.9Y-105.1
X149.247Y-97.649
X149.3Y-104.0
X149.8Y-115.1
X150.4Y-83.8
X150.596Y-98.074
X150.7Y-104.3
X150.701Y-102.2
X150.701Y-103.195
X150.8Y-116.2
X151.6Y-91.9
X151.8Y-88.6
X151.8Y-105.9
X151.9Y-104.9
X152.0Y-102.1
X152.0Y-110.5
X152.1Y-89.95
X153.0Y-90.3
X153.7Y-102.4
X153.9Y-104.3
X155.05Y-108.45
X155.3Y-111.7
X156.3Y-108.775
X158.4Y-108.4
X158.9Y-98.6
X159.0Y-105.7
X159.138Y-110.226
X159.8Y-101.7
X160.0Y-105.5
X160.5Y-99.5
X160.5Y-101.0
X161.2Y-91.0
X161.2Y-109.0
X164.8Y-101.4
X165.5Y-97.1
X165.7Y-94.4
X165.7Y-95.7
X166.9Y-100.9
T4
X130.4Y-90.7
X146.4Y-88.7
X146.6Y-106.7
X150.7Y-108.1
X151.6Y-108.6
X157.4Y-91.899
X158.98Y-91.48
X159.6Y-92.9
X160.1Y-87.5
X164.0Y-102.5
X164.3Y-93.1
T6
X153.66Y-113.33
X153.66Y-114.6
X154.93Y-113.33
X154.93Y-114.6
X156.2Y-113.33
X156.2Y-114.6
X157.47Y-113.33
X157.47Y-114.6
X158.74Y-113.33
X158.74Y-114.6
T7
X134.432Y-96.229
X134.432Y-98.229
X134.432Y-100.229
X134.432Y-102.229
X134.45Y-107.3
X134.45Y-109.3
X153.5Y-84.3
X155.5Y-84.3
X157.5Y-84.3
X159.5Y-84.3
T5
G00X139.18Y-82.625
M15
G01X139.18Y-81.825
M16
G05
G00X139.18Y-86.975
M15
G01X139.18Y-85.875
M16
G05
G00X147.82Y-82.625
M15
G01X147.82Y-81.825
M16
G05
G00X147.82Y-86.975
M15
G01X147.82Y-85.875
M16
G05
T0
M30
