%TF.GenerationSoftware,KiCad,Pcbnew,7.0.6*%
%TF.CreationDate,2024-02-29T20:21:02-05:00*%
%TF.ProjectId,Axis_Basic,41786973-5f42-4617-9369-632e6b696361,rev?*%
%TF.SameCoordinates,Original*%
%TF.FileFunction,Drillmap*%
%TF.FilePolarity,Positive*%
%FSLAX45Y45*%
G04 Gerber Fmt 4.5, Leading zero omitted, Abs format (unit mm)*
G04 Created by KiCad (PCBNEW 7.0.6) date 2024-02-29 20:21:02*
%MOMM*%
%LPD*%
G01*
G04 APERTURE LIST*
%ADD10C,0.100000*%
%ADD11C,0.200000*%
%ADD12C,0.015000*%
%ADD13C,0.020000*%
%ADD14C,0.035000*%
%ADD15C,0.040000*%
%ADD16C,0.060000*%
%ADD17C,0.065000*%
%ADD18C,0.075000*%
G04 APERTURE END LIST*
D10*
X12900000Y-11550000D02*
G75*
G03*
X13450000Y-12100000I550000J0D01*
G01*
X17100000Y-8450000D02*
G75*
G03*
X16550000Y-7900000I-550000J0D01*
G01*
X13450000Y-7900000D02*
G75*
G03*
X12900000Y-8450000I0J-550000D01*
G01*
X13450000Y-7900000D02*
X16550000Y-7900000D01*
X16550000Y-12100000D02*
G75*
G03*
X17100000Y-11550000I0J550000D01*
G01*
X17100000Y-8450000D02*
X17100000Y-11550000D01*
X16550000Y-12100000D02*
X13450000Y-12100000D01*
X12900000Y-11550000D02*
X12900000Y-8450000D01*
D11*
D12*
X14317500Y-9667500D02*
X14332500Y-9682500D01*
X14332500Y-9667500D02*
X14317500Y-9682500D01*
X14317500Y-9717500D02*
X14332500Y-9732500D01*
X14332500Y-9717500D02*
X14317500Y-9732500D01*
X14317500Y-10267500D02*
X14332500Y-10282500D01*
X14332500Y-10267500D02*
X14317500Y-10282500D01*
X14317500Y-10317500D02*
X14332500Y-10332500D01*
X14332500Y-10317500D02*
X14317500Y-10332500D01*
X14367500Y-9692500D02*
X14382500Y-9707500D01*
X14382500Y-9692500D02*
X14367500Y-9707500D01*
X14367500Y-9742500D02*
X14382500Y-9757500D01*
X14382500Y-9742500D02*
X14367500Y-9757500D01*
X14367500Y-10242500D02*
X14382500Y-10257500D01*
X14382500Y-10242500D02*
X14367500Y-10257500D01*
X14367500Y-10292500D02*
X14382500Y-10307500D01*
X14382500Y-10292500D02*
X14367500Y-10307500D01*
D13*
X14505000Y-9900000D02*
G75*
G03*
X14505000Y-9900000I-10000J0D01*
G01*
X14505000Y-10000000D02*
G75*
G03*
X14505000Y-10000000I-10000J0D01*
G01*
X14505000Y-10100000D02*
G75*
G03*
X14505000Y-10100000I-10000J0D01*
G01*
X14605000Y-9900000D02*
G75*
G03*
X14605000Y-9900000I-10000J0D01*
G01*
X14605000Y-10000000D02*
G75*
G03*
X14605000Y-10000000I-10000J0D01*
G01*
X14605000Y-10100000D02*
G75*
G03*
X14605000Y-10100000I-10000J0D01*
G01*
X14705000Y-9900000D02*
G75*
G03*
X14705000Y-9900000I-10000J0D01*
G01*
X14705000Y-10000000D02*
G75*
G03*
X14705000Y-10000000I-10000J0D01*
G01*
X14705000Y-10100000D02*
G75*
G03*
X14705000Y-10100000I-10000J0D01*
G01*
D14*
X13310000Y-10772500D02*
X13310000Y-10807500D01*
X13292500Y-10790000D02*
X13327500Y-10790000D01*
X13550000Y-11082500D02*
X13550000Y-11117500D01*
X13532500Y-11100000D02*
X13567500Y-11100000D01*
X13570000Y-10792500D02*
X13570000Y-10827500D01*
X13552500Y-10810000D02*
X13587500Y-10810000D01*
X13690000Y-9502500D02*
X13690000Y-9537500D01*
X13672500Y-9520000D02*
X13707500Y-9520000D01*
X13690000Y-9582500D02*
X13690000Y-9617500D01*
X13672500Y-9600000D02*
X13707500Y-9600000D01*
X13691765Y-10379559D02*
X13691765Y-10414559D01*
X13674265Y-10397059D02*
X13709265Y-10397059D01*
X13691765Y-10459559D02*
X13691765Y-10494559D01*
X13674265Y-10477059D02*
X13709265Y-10477059D01*
X13720000Y-9652500D02*
X13720000Y-9687500D01*
X13702500Y-9670000D02*
X13737500Y-9670000D01*
X13721765Y-10309559D02*
X13721765Y-10344559D01*
X13704265Y-10327059D02*
X13739265Y-10327059D01*
X13770000Y-11082500D02*
X13770000Y-11117500D01*
X13752500Y-11100000D02*
X13787500Y-11100000D01*
X13800000Y-9652500D02*
X13800000Y-9687500D01*
X13782500Y-9670000D02*
X13817500Y-9670000D01*
X13801765Y-10309559D02*
X13801765Y-10344559D01*
X13784265Y-10327059D02*
X13819265Y-10327059D01*
X13820000Y-11152500D02*
X13820000Y-11187500D01*
X13802500Y-11170000D02*
X13837500Y-11170000D01*
X13870000Y-11082500D02*
X13870000Y-11117500D01*
X13852500Y-11100000D02*
X13887500Y-11100000D01*
X13880000Y-9652500D02*
X13880000Y-9687500D01*
X13862500Y-9670000D02*
X13897500Y-9670000D01*
X13881765Y-10309559D02*
X13881765Y-10344559D01*
X13864265Y-10327059D02*
X13899265Y-10327059D01*
X13920000Y-11152500D02*
X13920000Y-11187500D01*
X13902500Y-11170000D02*
X13937500Y-11170000D01*
X13970000Y-11082500D02*
X13970000Y-11117500D01*
X13952500Y-11100000D02*
X13987500Y-11100000D01*
X14020000Y-11152500D02*
X14020000Y-11187500D01*
X14002500Y-11170000D02*
X14037500Y-11170000D01*
X14039950Y-8452500D02*
X14039950Y-8487500D01*
X14022450Y-8470000D02*
X14057450Y-8470000D01*
X14230000Y-10542500D02*
X14230000Y-10577500D01*
X14212500Y-10560000D02*
X14247500Y-10560000D01*
X14230000Y-10622500D02*
X14230000Y-10657500D01*
X14212500Y-10640000D02*
X14247500Y-10640000D01*
X14230000Y-10702500D02*
X14230000Y-10737500D01*
X14212500Y-10720000D02*
X14247500Y-10720000D01*
X14250000Y-8732500D02*
X14250000Y-8767500D01*
X14232500Y-8750000D02*
X14267500Y-8750000D01*
X14310000Y-10542500D02*
X14310000Y-10577500D01*
X14292500Y-10560000D02*
X14327500Y-10560000D01*
X14310000Y-10622500D02*
X14310000Y-10657500D01*
X14292500Y-10640000D02*
X14327500Y-10640000D01*
X14310000Y-10702500D02*
X14310000Y-10737500D01*
X14292500Y-10720000D02*
X14327500Y-10720000D01*
X14320000Y-9302500D02*
X14320000Y-9337500D01*
X14302500Y-9320000D02*
X14337500Y-9320000D01*
X14320000Y-9382500D02*
X14320000Y-9417500D01*
X14302500Y-9400000D02*
X14337500Y-9400000D01*
X14380000Y-8712500D02*
X14380000Y-8747500D01*
X14362500Y-8730000D02*
X14397500Y-8730000D01*
X14390000Y-9262500D02*
X14390000Y-9297500D01*
X14372500Y-9280000D02*
X14407500Y-9280000D01*
X14390000Y-9342500D02*
X14390000Y-9377500D01*
X14372500Y-9360000D02*
X14407500Y-9360000D01*
X14390000Y-9422500D02*
X14390000Y-9457500D01*
X14372500Y-9440000D02*
X14407500Y-9440000D01*
X14540000Y-9462500D02*
X14540000Y-9497500D01*
X14522500Y-9480000D02*
X14557500Y-9480000D01*
X14540000Y-9462500D02*
X14540000Y-9497500D01*
X14522500Y-9480000D02*
X14557500Y-9480000D01*
X14560000Y-8982500D02*
X14560000Y-9017500D01*
X14542500Y-9000000D02*
X14577500Y-9000000D01*
X14658505Y-8687886D02*
X14658505Y-8722886D01*
X14641005Y-8705386D02*
X14676005Y-8705386D01*
X14700000Y-11052500D02*
X14700000Y-11087500D01*
X14682500Y-11070000D02*
X14717500Y-11070000D01*
X14710000Y-8282500D02*
X14710000Y-8317500D01*
X14692500Y-8300000D02*
X14727500Y-8300000D01*
X14720000Y-11522500D02*
X14720000Y-11557500D01*
X14702500Y-11540000D02*
X14737500Y-11540000D01*
X14760000Y-11592500D02*
X14760000Y-11627500D01*
X14742500Y-11610000D02*
X14777500Y-11610000D01*
X14770000Y-10432500D02*
X14770000Y-10467500D01*
X14752500Y-10450000D02*
X14787500Y-10450000D01*
X14790000Y-9322500D02*
X14790000Y-9357500D01*
X14772500Y-9340000D02*
X14807500Y-9340000D01*
X14800000Y-11522500D02*
X14800000Y-11557500D01*
X14782500Y-11540000D02*
X14817500Y-11540000D01*
X14800000Y-11662500D02*
X14800000Y-11697500D01*
X14782500Y-11680000D02*
X14817500Y-11680000D01*
X14810000Y-9112500D02*
X14810000Y-9147500D01*
X14792500Y-9130000D02*
X14827500Y-9130000D01*
X14810000Y-9762500D02*
X14810000Y-9797500D01*
X14792500Y-9780000D02*
X14827500Y-9780000D01*
X14810000Y-10222500D02*
X14810000Y-10257500D01*
X14792500Y-10240000D02*
X14827500Y-10240000D01*
X14830955Y-9443455D02*
X14830955Y-9478455D01*
X14813455Y-9460955D02*
X14848455Y-9460955D01*
X14840000Y-11592500D02*
X14840000Y-11627500D01*
X14822500Y-11610000D02*
X14857500Y-11610000D01*
X14867585Y-9693398D02*
X14867585Y-9728398D01*
X14850085Y-9710898D02*
X14885085Y-9710898D01*
X14880000Y-11662500D02*
X14880000Y-11697500D01*
X14862500Y-11680000D02*
X14897500Y-11680000D01*
X14970000Y-8482450D02*
X14970000Y-8517450D01*
X14952500Y-8499950D02*
X14987500Y-8499950D01*
X14980000Y-10242500D02*
X14980000Y-10277500D01*
X14962500Y-10260000D02*
X14997500Y-10260000D01*
X14980000Y-10242500D02*
X14980000Y-10277500D01*
X14962500Y-10260000D02*
X14997500Y-10260000D01*
X14990000Y-9632500D02*
X14990000Y-9667500D01*
X14972500Y-9650000D02*
X15007500Y-9650000D01*
X15000000Y-11492500D02*
X15000000Y-11527500D01*
X14982500Y-11510000D02*
X15017500Y-11510000D01*
X15040000Y-11562500D02*
X15040000Y-11597500D01*
X15022500Y-11580000D02*
X15057500Y-11580000D01*
X15080000Y-11492500D02*
X15080000Y-11527500D01*
X15062500Y-11510000D02*
X15097500Y-11510000D01*
X15080000Y-11632500D02*
X15080000Y-11667500D01*
X15062500Y-11650000D02*
X15097500Y-11650000D01*
X15090000Y-8882500D02*
X15090000Y-8917500D01*
X15072500Y-8900000D02*
X15107500Y-8900000D01*
X15090000Y-10492500D02*
X15090000Y-10527500D01*
X15072500Y-10510000D02*
X15107500Y-10510000D01*
X15100000Y-8322500D02*
X15100000Y-8357500D01*
X15082500Y-8340000D02*
X15117500Y-8340000D01*
X15120000Y-11562500D02*
X15120000Y-11597500D01*
X15102500Y-11580000D02*
X15137500Y-11580000D01*
X15160000Y-11632500D02*
X15160000Y-11667500D01*
X15142500Y-11650000D02*
X15177500Y-11650000D01*
X15203471Y-8545322D02*
X15203471Y-8580322D01*
X15185971Y-8562822D02*
X15220971Y-8562822D01*
X15205050Y-11297450D02*
X15205050Y-11332450D01*
X15187550Y-11314950D02*
X15222550Y-11314950D01*
X15247451Y-9904930D02*
X15247451Y-9939930D01*
X15229951Y-9922430D02*
X15264951Y-9922430D01*
X15250000Y-10082500D02*
X15250000Y-10117500D01*
X15232500Y-10100000D02*
X15267500Y-10100000D01*
X15260000Y-10292500D02*
X15260000Y-10327500D01*
X15242500Y-10310000D02*
X15277500Y-10310000D01*
X15294073Y-8546573D02*
X15294073Y-8581573D01*
X15276573Y-8564073D02*
X15311573Y-8564073D01*
X15340000Y-9942500D02*
X15340000Y-9977500D01*
X15322500Y-9960000D02*
X15357500Y-9960000D01*
X15350000Y-10302500D02*
X15350000Y-10337500D01*
X15332500Y-10320000D02*
X15367500Y-10320000D01*
X15420000Y-9692500D02*
X15420000Y-9727500D01*
X15402500Y-9710000D02*
X15437500Y-9710000D01*
X15430000Y-8492500D02*
X15430000Y-8527500D01*
X15412500Y-8510000D02*
X15447500Y-8510000D01*
X15469365Y-9771865D02*
X15469365Y-9806865D01*
X15451865Y-9789365D02*
X15486865Y-9789365D01*
X15500000Y-10482500D02*
X15500000Y-10517500D01*
X15482500Y-10500000D02*
X15517500Y-10500000D01*
X15510000Y-10692500D02*
X15510000Y-10727500D01*
X15492500Y-10710000D02*
X15527500Y-10710000D01*
X15520000Y-10202500D02*
X15520000Y-10237500D01*
X15502500Y-10220000D02*
X15537500Y-10220000D01*
X15540000Y-8482500D02*
X15540000Y-8517500D01*
X15522500Y-8500000D02*
X15557500Y-8500000D01*
X15560000Y-9792500D02*
X15560000Y-9827500D01*
X15542500Y-9810000D02*
X15577500Y-9810000D01*
X15570000Y-10992500D02*
X15570000Y-11027500D01*
X15552500Y-11010000D02*
X15587500Y-11010000D01*
X15630000Y-9702500D02*
X15630000Y-9737500D01*
X15612500Y-9720000D02*
X15647500Y-9720000D01*
X15750000Y-8252500D02*
X15750000Y-8287500D01*
X15732500Y-8270000D02*
X15767500Y-8270000D01*
X15750000Y-10042500D02*
X15750000Y-10077500D01*
X15732500Y-10060000D02*
X15767500Y-10060000D01*
X15770000Y-9832500D02*
X15770000Y-9867500D01*
X15752500Y-9850000D02*
X15787500Y-9850000D01*
X15848521Y-8714135D02*
X15848521Y-8749135D01*
X15831021Y-8731635D02*
X15866021Y-8731635D01*
X15848674Y-8624185D02*
X15848674Y-8659185D01*
X15831174Y-8641685D02*
X15866174Y-8641685D01*
X15908440Y-10493584D02*
X15908440Y-10528584D01*
X15890940Y-10511084D02*
X15925940Y-10511084D01*
X15909073Y-9722550D02*
X15909073Y-9757550D01*
X15891573Y-9740050D02*
X15926573Y-9740050D01*
X15950000Y-9622500D02*
X15950000Y-9657500D01*
X15932500Y-9640000D02*
X15967500Y-9640000D01*
X15990000Y-9372500D02*
X15990000Y-9407500D01*
X15972500Y-9390000D02*
X16007500Y-9390000D01*
X15990000Y-10992500D02*
X15990000Y-11027500D01*
X15972500Y-11010000D02*
X16007500Y-11010000D01*
X16090000Y-8462500D02*
X16090000Y-8497500D01*
X16072500Y-8480000D02*
X16107500Y-8480000D01*
X16129073Y-9201573D02*
X16129073Y-9236573D01*
X16111573Y-9219073D02*
X16146573Y-9219073D01*
X16130000Y-10772450D02*
X16130000Y-10807450D01*
X16112500Y-10789950D02*
X16147500Y-10789950D01*
X16160000Y-8542500D02*
X16160000Y-8577500D01*
X16142500Y-8560000D02*
X16177500Y-8560000D01*
X16210000Y-8872500D02*
X16210000Y-8907500D01*
X16192500Y-8890000D02*
X16227500Y-8890000D01*
X16210000Y-10512500D02*
X16210000Y-10547500D01*
X16192500Y-10530000D02*
X16227500Y-10530000D01*
X16221000Y-9002450D02*
X16221000Y-9037450D01*
X16203500Y-9019950D02*
X16238500Y-9019950D01*
X16260000Y-9822500D02*
X16260000Y-9857500D01*
X16242500Y-9840000D02*
X16277500Y-9840000D01*
X16290000Y-10282500D02*
X16290000Y-10317500D01*
X16272500Y-10300000D02*
X16307500Y-10300000D01*
X16320000Y-10992500D02*
X16320000Y-11027500D01*
X16302500Y-11010000D02*
X16337500Y-11010000D01*
D15*
X13934142Y-8654142D02*
X13934142Y-8625858D01*
X13905858Y-8625858D01*
X13905858Y-8654142D01*
X13934142Y-8654142D01*
X14307943Y-8386118D02*
X14307943Y-8357833D01*
X14279658Y-8357833D01*
X14279658Y-8386118D01*
X14307943Y-8386118D01*
D16*
X16507500Y-10248000D02*
X16537500Y-10218000D01*
X16507500Y-10188000D01*
X16477500Y-10218000D01*
X16507500Y-10248000D01*
D11*
X16452500Y-10248000D02*
X16562500Y-10248000D01*
X16562500Y-10248000D02*
G75*
G03*
X16562500Y-10188000I0J30000D01*
G01*
X16562500Y-10188000D02*
X16452500Y-10188000D01*
X16452500Y-10188000D02*
G75*
G03*
X16452500Y-10248000I0J-30000D01*
G01*
D16*
X16507500Y-11112000D02*
X16537500Y-11082000D01*
X16507500Y-11052000D01*
X16477500Y-11082000D01*
X16507500Y-11112000D01*
D11*
X16452500Y-11112000D02*
X16562500Y-11112000D01*
X16562500Y-11112000D02*
G75*
G03*
X16562500Y-11052000I0J30000D01*
G01*
X16562500Y-11052000D02*
X16452500Y-11052000D01*
X16452500Y-11052000D02*
G75*
G03*
X16452500Y-11112000I0J-30000D01*
G01*
D16*
X16927500Y-10248000D02*
X16957500Y-10218000D01*
X16927500Y-10188000D01*
X16897500Y-10218000D01*
X16927500Y-10248000D01*
D11*
X16887500Y-10248000D02*
X16967500Y-10248000D01*
X16967500Y-10248000D02*
G75*
G03*
X16967500Y-10188000I0J30000D01*
G01*
X16967500Y-10188000D02*
X16887500Y-10188000D01*
X16887500Y-10188000D02*
G75*
G03*
X16887500Y-10248000I0J-30000D01*
G01*
D16*
X16927500Y-11112000D02*
X16957500Y-11082000D01*
X16927500Y-11052000D01*
X16897500Y-11082000D01*
X16927500Y-11112000D01*
D11*
X16887500Y-11112000D02*
X16967500Y-11112000D01*
X16967500Y-11112000D02*
G75*
G03*
X16967500Y-11052000I0J30000D01*
G01*
X16967500Y-11052000D02*
X16887500Y-11052000D01*
X16887500Y-11052000D02*
G75*
G03*
X16887500Y-11112000I0J-30000D01*
G01*
D17*
X16310500Y-9177500D02*
X16375500Y-9242500D01*
X16375500Y-9177500D02*
X16310500Y-9242500D01*
X16375500Y-9210000D02*
G75*
G03*
X16375500Y-9210000I-32500J0D01*
G01*
X16310500Y-9304500D02*
X16375500Y-9369500D01*
X16375500Y-9304500D02*
X16310500Y-9369500D01*
X16375500Y-9337000D02*
G75*
G03*
X16375500Y-9337000I-32500J0D01*
G01*
X16310500Y-9431500D02*
X16375500Y-9496500D01*
X16375500Y-9431500D02*
X16310500Y-9496500D01*
X16375500Y-9464000D02*
G75*
G03*
X16375500Y-9464000I-32500J0D01*
G01*
X16310500Y-9558500D02*
X16375500Y-9623500D01*
X16375500Y-9558500D02*
X16310500Y-9623500D01*
X16375500Y-9591000D02*
G75*
G03*
X16375500Y-9591000I-32500J0D01*
G01*
X16310500Y-9685500D02*
X16375500Y-9750500D01*
X16375500Y-9685500D02*
X16310500Y-9750500D01*
X16375500Y-9718000D02*
G75*
G03*
X16375500Y-9718000I-32500J0D01*
G01*
X16437500Y-9177500D02*
X16502500Y-9242500D01*
X16502500Y-9177500D02*
X16437500Y-9242500D01*
X16502500Y-9210000D02*
G75*
G03*
X16502500Y-9210000I-32500J0D01*
G01*
X16437500Y-9304500D02*
X16502500Y-9369500D01*
X16502500Y-9304500D02*
X16437500Y-9369500D01*
X16502500Y-9337000D02*
G75*
G03*
X16502500Y-9337000I-32500J0D01*
G01*
X16437500Y-9431500D02*
X16502500Y-9496500D01*
X16502500Y-9431500D02*
X16437500Y-9496500D01*
X16502500Y-9464000D02*
G75*
G03*
X16502500Y-9464000I-32500J0D01*
G01*
X16437500Y-9558500D02*
X16502500Y-9623500D01*
X16502500Y-9558500D02*
X16437500Y-9623500D01*
X16502500Y-9591000D02*
G75*
G03*
X16502500Y-9591000I-32500J0D01*
G01*
X16437500Y-9685500D02*
X16502500Y-9750500D01*
X16502500Y-9685500D02*
X16437500Y-9750500D01*
X16502500Y-9718000D02*
G75*
G03*
X16502500Y-9718000I-32500J0D01*
G01*
D18*
X13407500Y-9662500D02*
X13482500Y-9737500D01*
X13482500Y-9662500D02*
X13407500Y-9737500D01*
X13445000Y-9662500D02*
X13445000Y-9737500D01*
X13407500Y-9700000D02*
X13482500Y-9700000D01*
X13407500Y-9862500D02*
X13482500Y-9937500D01*
X13482500Y-9862500D02*
X13407500Y-9937500D01*
X13445000Y-9862500D02*
X13445000Y-9937500D01*
X13407500Y-9900000D02*
X13482500Y-9900000D01*
X13407500Y-10062500D02*
X13482500Y-10137500D01*
X13482500Y-10062500D02*
X13407500Y-10137500D01*
X13445000Y-10062500D02*
X13445000Y-10137500D01*
X13407500Y-10100000D02*
X13482500Y-10100000D01*
X13407500Y-10262500D02*
X13482500Y-10337500D01*
X13482500Y-10262500D02*
X13407500Y-10337500D01*
X13445000Y-10262500D02*
X13445000Y-10337500D01*
X13407500Y-10300000D02*
X13482500Y-10300000D01*
X13982500Y-11512500D02*
X14057500Y-11587500D01*
X14057500Y-11512500D02*
X13982500Y-11587500D01*
X14020000Y-11512500D02*
X14020000Y-11587500D01*
X13982500Y-11550000D02*
X14057500Y-11550000D01*
X14182500Y-11512500D02*
X14257500Y-11587500D01*
X14257500Y-11512500D02*
X14182500Y-11587500D01*
X14220000Y-11512500D02*
X14220000Y-11587500D01*
X14182500Y-11550000D02*
X14257500Y-11550000D01*
X15312500Y-11512500D02*
X15387500Y-11587500D01*
X15387500Y-11512500D02*
X15312500Y-11587500D01*
X15350000Y-11512500D02*
X15350000Y-11587500D01*
X15312500Y-11550000D02*
X15387500Y-11550000D01*
X15512500Y-11512500D02*
X15587500Y-11587500D01*
X15587500Y-11512500D02*
X15512500Y-11587500D01*
X15550000Y-11512500D02*
X15550000Y-11587500D01*
X15512500Y-11550000D02*
X15587500Y-11550000D01*
X15712500Y-11512500D02*
X15787500Y-11587500D01*
X15787500Y-11512500D02*
X15712500Y-11587500D01*
X15750000Y-11512500D02*
X15750000Y-11587500D01*
X15712500Y-11550000D02*
X15787500Y-11550000D01*
X15912500Y-11512500D02*
X15987500Y-11587500D01*
X15987500Y-11512500D02*
X15912500Y-11587500D01*
X15950000Y-11512500D02*
X15950000Y-11587500D01*
X15912500Y-11550000D02*
X15987500Y-11550000D01*
D10*
X13070000Y-8946000D02*
X13170000Y-9046000D01*
X13170000Y-8946000D02*
X13070000Y-9046000D01*
X13155356Y-9031356D02*
X13155356Y-8960644D01*
X13084644Y-8960644D01*
X13084644Y-9031356D01*
X13155356Y-9031356D01*
X13070000Y-9200000D02*
X13170000Y-9300000D01*
X13170000Y-9200000D02*
X13070000Y-9300000D01*
X13155356Y-9285356D02*
X13155356Y-9214644D01*
X13084644Y-9214644D01*
X13084644Y-9285356D01*
X13155356Y-9285356D01*
X13324000Y-8946000D02*
X13424000Y-9046000D01*
X13424000Y-8946000D02*
X13324000Y-9046000D01*
X13409356Y-9031356D02*
X13409356Y-8960644D01*
X13338644Y-8960644D01*
X13338644Y-9031356D01*
X13409356Y-9031356D01*
X13324000Y-9200000D02*
X13424000Y-9300000D01*
X13424000Y-9200000D02*
X13324000Y-9300000D01*
X13409356Y-9285356D02*
X13409356Y-9214644D01*
X13338644Y-9214644D01*
X13338644Y-9285356D01*
X13409356Y-9285356D01*
X13578000Y-8946000D02*
X13678000Y-9046000D01*
X13678000Y-8946000D02*
X13578000Y-9046000D01*
X13663356Y-9031356D02*
X13663356Y-8960644D01*
X13592644Y-8960644D01*
X13592644Y-9031356D01*
X13663356Y-9031356D01*
X13578000Y-9200000D02*
X13678000Y-9300000D01*
X13678000Y-9200000D02*
X13578000Y-9300000D01*
X13663356Y-9285356D02*
X13663356Y-9214644D01*
X13592644Y-9214644D01*
X13592644Y-9285356D01*
X13663356Y-9285356D01*
X13832000Y-8946000D02*
X13932000Y-9046000D01*
X13932000Y-8946000D02*
X13832000Y-9046000D01*
X13917356Y-9031356D02*
X13917356Y-8960644D01*
X13846644Y-8960644D01*
X13846644Y-9031356D01*
X13917356Y-9031356D01*
X13832000Y-9200000D02*
X13932000Y-9300000D01*
X13932000Y-9200000D02*
X13832000Y-9300000D01*
X13917356Y-9285356D02*
X13917356Y-9214644D01*
X13846644Y-9214644D01*
X13846644Y-9285356D01*
X13917356Y-9285356D01*
X14086000Y-8946000D02*
X14186000Y-9046000D01*
X14186000Y-8946000D02*
X14086000Y-9046000D01*
X14171356Y-9031356D02*
X14171356Y-8960644D01*
X14100644Y-8960644D01*
X14100644Y-9031356D01*
X14171356Y-9031356D01*
X14086000Y-9200000D02*
X14186000Y-9300000D01*
X14186000Y-9200000D02*
X14086000Y-9300000D01*
X14171356Y-9285356D02*
X14171356Y-9214644D01*
X14100644Y-9214644D01*
X14100644Y-9285356D01*
X14171356Y-9285356D01*
D11*
X13155777Y-12416484D02*
X13155777Y-12216484D01*
X13155777Y-12216484D02*
X13203396Y-12216484D01*
X13203396Y-12216484D02*
X13231967Y-12226008D01*
X13231967Y-12226008D02*
X13251015Y-12245055D01*
X13251015Y-12245055D02*
X13260539Y-12264103D01*
X13260539Y-12264103D02*
X13270062Y-12302198D01*
X13270062Y-12302198D02*
X13270062Y-12330769D01*
X13270062Y-12330769D02*
X13260539Y-12368865D01*
X13260539Y-12368865D02*
X13251015Y-12387912D01*
X13251015Y-12387912D02*
X13231967Y-12406960D01*
X13231967Y-12406960D02*
X13203396Y-12416484D01*
X13203396Y-12416484D02*
X13155777Y-12416484D01*
X13355777Y-12416484D02*
X13355777Y-12283150D01*
X13355777Y-12321246D02*
X13365301Y-12302198D01*
X13365301Y-12302198D02*
X13374824Y-12292674D01*
X13374824Y-12292674D02*
X13393872Y-12283150D01*
X13393872Y-12283150D02*
X13412920Y-12283150D01*
X13479586Y-12416484D02*
X13479586Y-12283150D01*
X13479586Y-12216484D02*
X13470062Y-12226008D01*
X13470062Y-12226008D02*
X13479586Y-12235531D01*
X13479586Y-12235531D02*
X13489110Y-12226008D01*
X13489110Y-12226008D02*
X13479586Y-12216484D01*
X13479586Y-12216484D02*
X13479586Y-12235531D01*
X13603396Y-12416484D02*
X13584348Y-12406960D01*
X13584348Y-12406960D02*
X13574824Y-12387912D01*
X13574824Y-12387912D02*
X13574824Y-12216484D01*
X13708158Y-12416484D02*
X13689110Y-12406960D01*
X13689110Y-12406960D02*
X13679586Y-12387912D01*
X13679586Y-12387912D02*
X13679586Y-12216484D01*
X13936729Y-12416484D02*
X13936729Y-12216484D01*
X13936729Y-12216484D02*
X14003396Y-12359341D01*
X14003396Y-12359341D02*
X14070062Y-12216484D01*
X14070062Y-12216484D02*
X14070062Y-12416484D01*
X14251015Y-12416484D02*
X14251015Y-12311722D01*
X14251015Y-12311722D02*
X14241491Y-12292674D01*
X14241491Y-12292674D02*
X14222443Y-12283150D01*
X14222443Y-12283150D02*
X14184348Y-12283150D01*
X14184348Y-12283150D02*
X14165301Y-12292674D01*
X14251015Y-12406960D02*
X14231967Y-12416484D01*
X14231967Y-12416484D02*
X14184348Y-12416484D01*
X14184348Y-12416484D02*
X14165301Y-12406960D01*
X14165301Y-12406960D02*
X14155777Y-12387912D01*
X14155777Y-12387912D02*
X14155777Y-12368865D01*
X14155777Y-12368865D02*
X14165301Y-12349817D01*
X14165301Y-12349817D02*
X14184348Y-12340293D01*
X14184348Y-12340293D02*
X14231967Y-12340293D01*
X14231967Y-12340293D02*
X14251015Y-12330769D01*
X14346253Y-12283150D02*
X14346253Y-12483150D01*
X14346253Y-12292674D02*
X14365301Y-12283150D01*
X14365301Y-12283150D02*
X14403396Y-12283150D01*
X14403396Y-12283150D02*
X14422443Y-12292674D01*
X14422443Y-12292674D02*
X14431967Y-12302198D01*
X14431967Y-12302198D02*
X14441491Y-12321246D01*
X14441491Y-12321246D02*
X14441491Y-12378388D01*
X14441491Y-12378388D02*
X14431967Y-12397436D01*
X14431967Y-12397436D02*
X14422443Y-12406960D01*
X14422443Y-12406960D02*
X14403396Y-12416484D01*
X14403396Y-12416484D02*
X14365301Y-12416484D01*
X14365301Y-12416484D02*
X14346253Y-12406960D01*
X14527205Y-12397436D02*
X14536729Y-12406960D01*
X14536729Y-12406960D02*
X14527205Y-12416484D01*
X14527205Y-12416484D02*
X14517682Y-12406960D01*
X14517682Y-12406960D02*
X14527205Y-12397436D01*
X14527205Y-12397436D02*
X14527205Y-12416484D01*
X14527205Y-12292674D02*
X14536729Y-12302198D01*
X14536729Y-12302198D02*
X14527205Y-12311722D01*
X14527205Y-12311722D02*
X14517682Y-12302198D01*
X14517682Y-12302198D02*
X14527205Y-12292674D01*
X14527205Y-12292674D02*
X14527205Y-12311722D01*
D12*
X12880000Y-12737500D02*
X12895000Y-12752500D01*
X12895000Y-12737500D02*
X12880000Y-12752500D01*
D11*
X13193872Y-12636484D02*
X13212920Y-12636484D01*
X13212920Y-12636484D02*
X13231967Y-12646008D01*
X13231967Y-12646008D02*
X13241491Y-12655531D01*
X13241491Y-12655531D02*
X13251015Y-12674579D01*
X13251015Y-12674579D02*
X13260539Y-12712674D01*
X13260539Y-12712674D02*
X13260539Y-12760293D01*
X13260539Y-12760293D02*
X13251015Y-12798388D01*
X13251015Y-12798388D02*
X13241491Y-12817436D01*
X13241491Y-12817436D02*
X13231967Y-12826960D01*
X13231967Y-12826960D02*
X13212920Y-12836484D01*
X13212920Y-12836484D02*
X13193872Y-12836484D01*
X13193872Y-12836484D02*
X13174824Y-12826960D01*
X13174824Y-12826960D02*
X13165301Y-12817436D01*
X13165301Y-12817436D02*
X13155777Y-12798388D01*
X13155777Y-12798388D02*
X13146253Y-12760293D01*
X13146253Y-12760293D02*
X13146253Y-12712674D01*
X13146253Y-12712674D02*
X13155777Y-12674579D01*
X13155777Y-12674579D02*
X13165301Y-12655531D01*
X13165301Y-12655531D02*
X13174824Y-12646008D01*
X13174824Y-12646008D02*
X13193872Y-12636484D01*
X13346253Y-12817436D02*
X13355777Y-12826960D01*
X13355777Y-12826960D02*
X13346253Y-12836484D01*
X13346253Y-12836484D02*
X13336729Y-12826960D01*
X13336729Y-12826960D02*
X13346253Y-12817436D01*
X13346253Y-12817436D02*
X13346253Y-12836484D01*
X13546253Y-12836484D02*
X13431967Y-12836484D01*
X13489110Y-12836484D02*
X13489110Y-12636484D01*
X13489110Y-12636484D02*
X13470062Y-12665055D01*
X13470062Y-12665055D02*
X13451015Y-12684103D01*
X13451015Y-12684103D02*
X13431967Y-12693627D01*
X13727205Y-12636484D02*
X13631967Y-12636484D01*
X13631967Y-12636484D02*
X13622443Y-12731722D01*
X13622443Y-12731722D02*
X13631967Y-12722198D01*
X13631967Y-12722198D02*
X13651015Y-12712674D01*
X13651015Y-12712674D02*
X13698634Y-12712674D01*
X13698634Y-12712674D02*
X13717682Y-12722198D01*
X13717682Y-12722198D02*
X13727205Y-12731722D01*
X13727205Y-12731722D02*
X13736729Y-12750769D01*
X13736729Y-12750769D02*
X13736729Y-12798388D01*
X13736729Y-12798388D02*
X13727205Y-12817436D01*
X13727205Y-12817436D02*
X13717682Y-12826960D01*
X13717682Y-12826960D02*
X13698634Y-12836484D01*
X13698634Y-12836484D02*
X13651015Y-12836484D01*
X13651015Y-12836484D02*
X13631967Y-12826960D01*
X13631967Y-12826960D02*
X13622443Y-12817436D01*
X13860539Y-12636484D02*
X13879586Y-12636484D01*
X13879586Y-12636484D02*
X13898634Y-12646008D01*
X13898634Y-12646008D02*
X13908158Y-12655531D01*
X13908158Y-12655531D02*
X13917682Y-12674579D01*
X13917682Y-12674579D02*
X13927205Y-12712674D01*
X13927205Y-12712674D02*
X13927205Y-12760293D01*
X13927205Y-12760293D02*
X13917682Y-12798388D01*
X13917682Y-12798388D02*
X13908158Y-12817436D01*
X13908158Y-12817436D02*
X13898634Y-12826960D01*
X13898634Y-12826960D02*
X13879586Y-12836484D01*
X13879586Y-12836484D02*
X13860539Y-12836484D01*
X13860539Y-12836484D02*
X13841491Y-12826960D01*
X13841491Y-12826960D02*
X13831967Y-12817436D01*
X13831967Y-12817436D02*
X13822443Y-12798388D01*
X13822443Y-12798388D02*
X13812920Y-12760293D01*
X13812920Y-12760293D02*
X13812920Y-12712674D01*
X13812920Y-12712674D02*
X13822443Y-12674579D01*
X13822443Y-12674579D02*
X13831967Y-12655531D01*
X13831967Y-12655531D02*
X13841491Y-12646008D01*
X13841491Y-12646008D02*
X13860539Y-12636484D01*
X14012920Y-12836484D02*
X14012920Y-12703150D01*
X14012920Y-12722198D02*
X14022443Y-12712674D01*
X14022443Y-12712674D02*
X14041491Y-12703150D01*
X14041491Y-12703150D02*
X14070063Y-12703150D01*
X14070063Y-12703150D02*
X14089110Y-12712674D01*
X14089110Y-12712674D02*
X14098634Y-12731722D01*
X14098634Y-12731722D02*
X14098634Y-12836484D01*
X14098634Y-12731722D02*
X14108158Y-12712674D01*
X14108158Y-12712674D02*
X14127205Y-12703150D01*
X14127205Y-12703150D02*
X14155777Y-12703150D01*
X14155777Y-12703150D02*
X14174824Y-12712674D01*
X14174824Y-12712674D02*
X14184348Y-12731722D01*
X14184348Y-12731722D02*
X14184348Y-12836484D01*
X14279586Y-12836484D02*
X14279586Y-12703150D01*
X14279586Y-12722198D02*
X14289110Y-12712674D01*
X14289110Y-12712674D02*
X14308158Y-12703150D01*
X14308158Y-12703150D02*
X14336729Y-12703150D01*
X14336729Y-12703150D02*
X14355777Y-12712674D01*
X14355777Y-12712674D02*
X14365301Y-12731722D01*
X14365301Y-12731722D02*
X14365301Y-12836484D01*
X14365301Y-12731722D02*
X14374824Y-12712674D01*
X14374824Y-12712674D02*
X14393872Y-12703150D01*
X14393872Y-12703150D02*
X14422443Y-12703150D01*
X14422443Y-12703150D02*
X14441491Y-12712674D01*
X14441491Y-12712674D02*
X14451015Y-12731722D01*
X14451015Y-12731722D02*
X14451015Y-12836484D01*
X14841491Y-12626960D02*
X14670063Y-12884103D01*
X15098634Y-12636484D02*
X15117682Y-12636484D01*
X15117682Y-12636484D02*
X15136729Y-12646008D01*
X15136729Y-12646008D02*
X15146253Y-12655531D01*
X15146253Y-12655531D02*
X15155777Y-12674579D01*
X15155777Y-12674579D02*
X15165301Y-12712674D01*
X15165301Y-12712674D02*
X15165301Y-12760293D01*
X15165301Y-12760293D02*
X15155777Y-12798388D01*
X15155777Y-12798388D02*
X15146253Y-12817436D01*
X15146253Y-12817436D02*
X15136729Y-12826960D01*
X15136729Y-12826960D02*
X15117682Y-12836484D01*
X15117682Y-12836484D02*
X15098634Y-12836484D01*
X15098634Y-12836484D02*
X15079586Y-12826960D01*
X15079586Y-12826960D02*
X15070063Y-12817436D01*
X15070063Y-12817436D02*
X15060539Y-12798388D01*
X15060539Y-12798388D02*
X15051015Y-12760293D01*
X15051015Y-12760293D02*
X15051015Y-12712674D01*
X15051015Y-12712674D02*
X15060539Y-12674579D01*
X15060539Y-12674579D02*
X15070063Y-12655531D01*
X15070063Y-12655531D02*
X15079586Y-12646008D01*
X15079586Y-12646008D02*
X15098634Y-12636484D01*
X15251015Y-12817436D02*
X15260539Y-12826960D01*
X15260539Y-12826960D02*
X15251015Y-12836484D01*
X15251015Y-12836484D02*
X15241491Y-12826960D01*
X15241491Y-12826960D02*
X15251015Y-12817436D01*
X15251015Y-12817436D02*
X15251015Y-12836484D01*
X15384348Y-12636484D02*
X15403396Y-12636484D01*
X15403396Y-12636484D02*
X15422444Y-12646008D01*
X15422444Y-12646008D02*
X15431967Y-12655531D01*
X15431967Y-12655531D02*
X15441491Y-12674579D01*
X15441491Y-12674579D02*
X15451015Y-12712674D01*
X15451015Y-12712674D02*
X15451015Y-12760293D01*
X15451015Y-12760293D02*
X15441491Y-12798388D01*
X15441491Y-12798388D02*
X15431967Y-12817436D01*
X15431967Y-12817436D02*
X15422444Y-12826960D01*
X15422444Y-12826960D02*
X15403396Y-12836484D01*
X15403396Y-12836484D02*
X15384348Y-12836484D01*
X15384348Y-12836484D02*
X15365301Y-12826960D01*
X15365301Y-12826960D02*
X15355777Y-12817436D01*
X15355777Y-12817436D02*
X15346253Y-12798388D01*
X15346253Y-12798388D02*
X15336729Y-12760293D01*
X15336729Y-12760293D02*
X15336729Y-12712674D01*
X15336729Y-12712674D02*
X15346253Y-12674579D01*
X15346253Y-12674579D02*
X15355777Y-12655531D01*
X15355777Y-12655531D02*
X15365301Y-12646008D01*
X15365301Y-12646008D02*
X15384348Y-12636484D01*
X15574825Y-12636484D02*
X15593872Y-12636484D01*
X15593872Y-12636484D02*
X15612920Y-12646008D01*
X15612920Y-12646008D02*
X15622444Y-12655531D01*
X15622444Y-12655531D02*
X15631967Y-12674579D01*
X15631967Y-12674579D02*
X15641491Y-12712674D01*
X15641491Y-12712674D02*
X15641491Y-12760293D01*
X15641491Y-12760293D02*
X15631967Y-12798388D01*
X15631967Y-12798388D02*
X15622444Y-12817436D01*
X15622444Y-12817436D02*
X15612920Y-12826960D01*
X15612920Y-12826960D02*
X15593872Y-12836484D01*
X15593872Y-12836484D02*
X15574825Y-12836484D01*
X15574825Y-12836484D02*
X15555777Y-12826960D01*
X15555777Y-12826960D02*
X15546253Y-12817436D01*
X15546253Y-12817436D02*
X15536729Y-12798388D01*
X15536729Y-12798388D02*
X15527206Y-12760293D01*
X15527206Y-12760293D02*
X15527206Y-12712674D01*
X15527206Y-12712674D02*
X15536729Y-12674579D01*
X15536729Y-12674579D02*
X15546253Y-12655531D01*
X15546253Y-12655531D02*
X15555777Y-12646008D01*
X15555777Y-12646008D02*
X15574825Y-12636484D01*
X15822444Y-12636484D02*
X15727206Y-12636484D01*
X15727206Y-12636484D02*
X15717682Y-12731722D01*
X15717682Y-12731722D02*
X15727206Y-12722198D01*
X15727206Y-12722198D02*
X15746253Y-12712674D01*
X15746253Y-12712674D02*
X15793872Y-12712674D01*
X15793872Y-12712674D02*
X15812920Y-12722198D01*
X15812920Y-12722198D02*
X15822444Y-12731722D01*
X15822444Y-12731722D02*
X15831967Y-12750769D01*
X15831967Y-12750769D02*
X15831967Y-12798388D01*
X15831967Y-12798388D02*
X15822444Y-12817436D01*
X15822444Y-12817436D02*
X15812920Y-12826960D01*
X15812920Y-12826960D02*
X15793872Y-12836484D01*
X15793872Y-12836484D02*
X15746253Y-12836484D01*
X15746253Y-12836484D02*
X15727206Y-12826960D01*
X15727206Y-12826960D02*
X15717682Y-12817436D01*
X15927206Y-12836484D02*
X15965301Y-12836484D01*
X15965301Y-12836484D02*
X15984348Y-12826960D01*
X15984348Y-12826960D02*
X15993872Y-12817436D01*
X15993872Y-12817436D02*
X16012920Y-12788865D01*
X16012920Y-12788865D02*
X16022444Y-12750769D01*
X16022444Y-12750769D02*
X16022444Y-12674579D01*
X16022444Y-12674579D02*
X16012920Y-12655531D01*
X16012920Y-12655531D02*
X16003396Y-12646008D01*
X16003396Y-12646008D02*
X15984348Y-12636484D01*
X15984348Y-12636484D02*
X15946253Y-12636484D01*
X15946253Y-12636484D02*
X15927206Y-12646008D01*
X15927206Y-12646008D02*
X15917682Y-12655531D01*
X15917682Y-12655531D02*
X15908158Y-12674579D01*
X15908158Y-12674579D02*
X15908158Y-12722198D01*
X15908158Y-12722198D02*
X15917682Y-12741246D01*
X15917682Y-12741246D02*
X15927206Y-12750769D01*
X15927206Y-12750769D02*
X15946253Y-12760293D01*
X15946253Y-12760293D02*
X15984348Y-12760293D01*
X15984348Y-12760293D02*
X16003396Y-12750769D01*
X16003396Y-12750769D02*
X16012920Y-12741246D01*
X16012920Y-12741246D02*
X16022444Y-12722198D01*
X16098634Y-12636484D02*
X16098634Y-12674579D01*
X16174825Y-12636484D02*
X16174825Y-12674579D01*
X16470063Y-12912674D02*
X16460539Y-12903150D01*
X16460539Y-12903150D02*
X16441491Y-12874579D01*
X16441491Y-12874579D02*
X16431968Y-12855531D01*
X16431968Y-12855531D02*
X16422444Y-12826960D01*
X16422444Y-12826960D02*
X16412920Y-12779341D01*
X16412920Y-12779341D02*
X16412920Y-12741246D01*
X16412920Y-12741246D02*
X16422444Y-12693627D01*
X16422444Y-12693627D02*
X16431968Y-12665055D01*
X16431968Y-12665055D02*
X16441491Y-12646008D01*
X16441491Y-12646008D02*
X16460539Y-12617436D01*
X16460539Y-12617436D02*
X16470063Y-12607912D01*
X16574825Y-12722198D02*
X16555777Y-12712674D01*
X16555777Y-12712674D02*
X16546253Y-12703150D01*
X16546253Y-12703150D02*
X16536729Y-12684103D01*
X16536729Y-12684103D02*
X16536729Y-12674579D01*
X16536729Y-12674579D02*
X16546253Y-12655531D01*
X16546253Y-12655531D02*
X16555777Y-12646008D01*
X16555777Y-12646008D02*
X16574825Y-12636484D01*
X16574825Y-12636484D02*
X16612920Y-12636484D01*
X16612920Y-12636484D02*
X16631968Y-12646008D01*
X16631968Y-12646008D02*
X16641491Y-12655531D01*
X16641491Y-12655531D02*
X16651015Y-12674579D01*
X16651015Y-12674579D02*
X16651015Y-12684103D01*
X16651015Y-12684103D02*
X16641491Y-12703150D01*
X16641491Y-12703150D02*
X16631968Y-12712674D01*
X16631968Y-12712674D02*
X16612920Y-12722198D01*
X16612920Y-12722198D02*
X16574825Y-12722198D01*
X16574825Y-12722198D02*
X16555777Y-12731722D01*
X16555777Y-12731722D02*
X16546253Y-12741246D01*
X16546253Y-12741246D02*
X16536729Y-12760293D01*
X16536729Y-12760293D02*
X16536729Y-12798388D01*
X16536729Y-12798388D02*
X16546253Y-12817436D01*
X16546253Y-12817436D02*
X16555777Y-12826960D01*
X16555777Y-12826960D02*
X16574825Y-12836484D01*
X16574825Y-12836484D02*
X16612920Y-12836484D01*
X16612920Y-12836484D02*
X16631968Y-12826960D01*
X16631968Y-12826960D02*
X16641491Y-12817436D01*
X16641491Y-12817436D02*
X16651015Y-12798388D01*
X16651015Y-12798388D02*
X16651015Y-12760293D01*
X16651015Y-12760293D02*
X16641491Y-12741246D01*
X16641491Y-12741246D02*
X16631968Y-12731722D01*
X16631968Y-12731722D02*
X16612920Y-12722198D01*
X16889111Y-12836484D02*
X16889111Y-12636484D01*
X16974825Y-12836484D02*
X16974825Y-12731722D01*
X16974825Y-12731722D02*
X16965301Y-12712674D01*
X16965301Y-12712674D02*
X16946253Y-12703150D01*
X16946253Y-12703150D02*
X16917682Y-12703150D01*
X16917682Y-12703150D02*
X16898634Y-12712674D01*
X16898634Y-12712674D02*
X16889111Y-12722198D01*
X17098634Y-12836484D02*
X17079587Y-12826960D01*
X17079587Y-12826960D02*
X17070063Y-12817436D01*
X17070063Y-12817436D02*
X17060539Y-12798388D01*
X17060539Y-12798388D02*
X17060539Y-12741246D01*
X17060539Y-12741246D02*
X17070063Y-12722198D01*
X17070063Y-12722198D02*
X17079587Y-12712674D01*
X17079587Y-12712674D02*
X17098634Y-12703150D01*
X17098634Y-12703150D02*
X17127206Y-12703150D01*
X17127206Y-12703150D02*
X17146253Y-12712674D01*
X17146253Y-12712674D02*
X17155777Y-12722198D01*
X17155777Y-12722198D02*
X17165301Y-12741246D01*
X17165301Y-12741246D02*
X17165301Y-12798388D01*
X17165301Y-12798388D02*
X17155777Y-12817436D01*
X17155777Y-12817436D02*
X17146253Y-12826960D01*
X17146253Y-12826960D02*
X17127206Y-12836484D01*
X17127206Y-12836484D02*
X17098634Y-12836484D01*
X17279587Y-12836484D02*
X17260539Y-12826960D01*
X17260539Y-12826960D02*
X17251015Y-12807912D01*
X17251015Y-12807912D02*
X17251015Y-12636484D01*
X17431968Y-12826960D02*
X17412920Y-12836484D01*
X17412920Y-12836484D02*
X17374825Y-12836484D01*
X17374825Y-12836484D02*
X17355777Y-12826960D01*
X17355777Y-12826960D02*
X17346253Y-12807912D01*
X17346253Y-12807912D02*
X17346253Y-12731722D01*
X17346253Y-12731722D02*
X17355777Y-12712674D01*
X17355777Y-12712674D02*
X17374825Y-12703150D01*
X17374825Y-12703150D02*
X17412920Y-12703150D01*
X17412920Y-12703150D02*
X17431968Y-12712674D01*
X17431968Y-12712674D02*
X17441492Y-12731722D01*
X17441492Y-12731722D02*
X17441492Y-12750769D01*
X17441492Y-12750769D02*
X17346253Y-12769817D01*
X17517682Y-12826960D02*
X17536730Y-12836484D01*
X17536730Y-12836484D02*
X17574825Y-12836484D01*
X17574825Y-12836484D02*
X17593873Y-12826960D01*
X17593873Y-12826960D02*
X17603396Y-12807912D01*
X17603396Y-12807912D02*
X17603396Y-12798388D01*
X17603396Y-12798388D02*
X17593873Y-12779341D01*
X17593873Y-12779341D02*
X17574825Y-12769817D01*
X17574825Y-12769817D02*
X17546253Y-12769817D01*
X17546253Y-12769817D02*
X17527206Y-12760293D01*
X17527206Y-12760293D02*
X17517682Y-12741246D01*
X17517682Y-12741246D02*
X17517682Y-12731722D01*
X17517682Y-12731722D02*
X17527206Y-12712674D01*
X17527206Y-12712674D02*
X17546253Y-12703150D01*
X17546253Y-12703150D02*
X17574825Y-12703150D01*
X17574825Y-12703150D02*
X17593873Y-12712674D01*
X17670063Y-12912674D02*
X17679587Y-12903150D01*
X17679587Y-12903150D02*
X17698634Y-12874579D01*
X17698634Y-12874579D02*
X17708158Y-12855531D01*
X17708158Y-12855531D02*
X17717682Y-12826960D01*
X17717682Y-12826960D02*
X17727206Y-12779341D01*
X17727206Y-12779341D02*
X17727206Y-12741246D01*
X17727206Y-12741246D02*
X17717682Y-12693627D01*
X17717682Y-12693627D02*
X17708158Y-12665055D01*
X17708158Y-12665055D02*
X17698634Y-12646008D01*
X17698634Y-12646008D02*
X17679587Y-12617436D01*
X17679587Y-12617436D02*
X17670063Y-12607912D01*
D13*
X12895000Y-13009000D02*
G75*
G03*
X12895000Y-13009000I-10000J0D01*
G01*
D11*
X13193872Y-12900484D02*
X13212920Y-12900484D01*
X13212920Y-12900484D02*
X13231967Y-12910008D01*
X13231967Y-12910008D02*
X13241491Y-12919531D01*
X13241491Y-12919531D02*
X13251015Y-12938579D01*
X13251015Y-12938579D02*
X13260539Y-12976674D01*
X13260539Y-12976674D02*
X13260539Y-13024293D01*
X13260539Y-13024293D02*
X13251015Y-13062388D01*
X13251015Y-13062388D02*
X13241491Y-13081436D01*
X13241491Y-13081436D02*
X13231967Y-13090960D01*
X13231967Y-13090960D02*
X13212920Y-13100484D01*
X13212920Y-13100484D02*
X13193872Y-13100484D01*
X13193872Y-13100484D02*
X13174824Y-13090960D01*
X13174824Y-13090960D02*
X13165301Y-13081436D01*
X13165301Y-13081436D02*
X13155777Y-13062388D01*
X13155777Y-13062388D02*
X13146253Y-13024293D01*
X13146253Y-13024293D02*
X13146253Y-12976674D01*
X13146253Y-12976674D02*
X13155777Y-12938579D01*
X13155777Y-12938579D02*
X13165301Y-12919531D01*
X13165301Y-12919531D02*
X13174824Y-12910008D01*
X13174824Y-12910008D02*
X13193872Y-12900484D01*
X13346253Y-13081436D02*
X13355777Y-13090960D01*
X13355777Y-13090960D02*
X13346253Y-13100484D01*
X13346253Y-13100484D02*
X13336729Y-13090960D01*
X13336729Y-13090960D02*
X13346253Y-13081436D01*
X13346253Y-13081436D02*
X13346253Y-13100484D01*
X13431967Y-12919531D02*
X13441491Y-12910008D01*
X13441491Y-12910008D02*
X13460539Y-12900484D01*
X13460539Y-12900484D02*
X13508158Y-12900484D01*
X13508158Y-12900484D02*
X13527205Y-12910008D01*
X13527205Y-12910008D02*
X13536729Y-12919531D01*
X13536729Y-12919531D02*
X13546253Y-12938579D01*
X13546253Y-12938579D02*
X13546253Y-12957627D01*
X13546253Y-12957627D02*
X13536729Y-12986198D01*
X13536729Y-12986198D02*
X13422443Y-13100484D01*
X13422443Y-13100484D02*
X13546253Y-13100484D01*
X13670062Y-12900484D02*
X13689110Y-12900484D01*
X13689110Y-12900484D02*
X13708158Y-12910008D01*
X13708158Y-12910008D02*
X13717682Y-12919531D01*
X13717682Y-12919531D02*
X13727205Y-12938579D01*
X13727205Y-12938579D02*
X13736729Y-12976674D01*
X13736729Y-12976674D02*
X13736729Y-13024293D01*
X13736729Y-13024293D02*
X13727205Y-13062388D01*
X13727205Y-13062388D02*
X13717682Y-13081436D01*
X13717682Y-13081436D02*
X13708158Y-13090960D01*
X13708158Y-13090960D02*
X13689110Y-13100484D01*
X13689110Y-13100484D02*
X13670062Y-13100484D01*
X13670062Y-13100484D02*
X13651015Y-13090960D01*
X13651015Y-13090960D02*
X13641491Y-13081436D01*
X13641491Y-13081436D02*
X13631967Y-13062388D01*
X13631967Y-13062388D02*
X13622443Y-13024293D01*
X13622443Y-13024293D02*
X13622443Y-12976674D01*
X13622443Y-12976674D02*
X13631967Y-12938579D01*
X13631967Y-12938579D02*
X13641491Y-12919531D01*
X13641491Y-12919531D02*
X13651015Y-12910008D01*
X13651015Y-12910008D02*
X13670062Y-12900484D01*
X13860539Y-12900484D02*
X13879586Y-12900484D01*
X13879586Y-12900484D02*
X13898634Y-12910008D01*
X13898634Y-12910008D02*
X13908158Y-12919531D01*
X13908158Y-12919531D02*
X13917682Y-12938579D01*
X13917682Y-12938579D02*
X13927205Y-12976674D01*
X13927205Y-12976674D02*
X13927205Y-13024293D01*
X13927205Y-13024293D02*
X13917682Y-13062388D01*
X13917682Y-13062388D02*
X13908158Y-13081436D01*
X13908158Y-13081436D02*
X13898634Y-13090960D01*
X13898634Y-13090960D02*
X13879586Y-13100484D01*
X13879586Y-13100484D02*
X13860539Y-13100484D01*
X13860539Y-13100484D02*
X13841491Y-13090960D01*
X13841491Y-13090960D02*
X13831967Y-13081436D01*
X13831967Y-13081436D02*
X13822443Y-13062388D01*
X13822443Y-13062388D02*
X13812920Y-13024293D01*
X13812920Y-13024293D02*
X13812920Y-12976674D01*
X13812920Y-12976674D02*
X13822443Y-12938579D01*
X13822443Y-12938579D02*
X13831967Y-12919531D01*
X13831967Y-12919531D02*
X13841491Y-12910008D01*
X13841491Y-12910008D02*
X13860539Y-12900484D01*
X14012920Y-13100484D02*
X14012920Y-12967150D01*
X14012920Y-12986198D02*
X14022443Y-12976674D01*
X14022443Y-12976674D02*
X14041491Y-12967150D01*
X14041491Y-12967150D02*
X14070063Y-12967150D01*
X14070063Y-12967150D02*
X14089110Y-12976674D01*
X14089110Y-12976674D02*
X14098634Y-12995722D01*
X14098634Y-12995722D02*
X14098634Y-13100484D01*
X14098634Y-12995722D02*
X14108158Y-12976674D01*
X14108158Y-12976674D02*
X14127205Y-12967150D01*
X14127205Y-12967150D02*
X14155777Y-12967150D01*
X14155777Y-12967150D02*
X14174824Y-12976674D01*
X14174824Y-12976674D02*
X14184348Y-12995722D01*
X14184348Y-12995722D02*
X14184348Y-13100484D01*
X14279586Y-13100484D02*
X14279586Y-12967150D01*
X14279586Y-12986198D02*
X14289110Y-12976674D01*
X14289110Y-12976674D02*
X14308158Y-12967150D01*
X14308158Y-12967150D02*
X14336729Y-12967150D01*
X14336729Y-12967150D02*
X14355777Y-12976674D01*
X14355777Y-12976674D02*
X14365301Y-12995722D01*
X14365301Y-12995722D02*
X14365301Y-13100484D01*
X14365301Y-12995722D02*
X14374824Y-12976674D01*
X14374824Y-12976674D02*
X14393872Y-12967150D01*
X14393872Y-12967150D02*
X14422443Y-12967150D01*
X14422443Y-12967150D02*
X14441491Y-12976674D01*
X14441491Y-12976674D02*
X14451015Y-12995722D01*
X14451015Y-12995722D02*
X14451015Y-13100484D01*
X14841491Y-12890960D02*
X14670063Y-13148103D01*
X15098634Y-12900484D02*
X15117682Y-12900484D01*
X15117682Y-12900484D02*
X15136729Y-12910008D01*
X15136729Y-12910008D02*
X15146253Y-12919531D01*
X15146253Y-12919531D02*
X15155777Y-12938579D01*
X15155777Y-12938579D02*
X15165301Y-12976674D01*
X15165301Y-12976674D02*
X15165301Y-13024293D01*
X15165301Y-13024293D02*
X15155777Y-13062388D01*
X15155777Y-13062388D02*
X15146253Y-13081436D01*
X15146253Y-13081436D02*
X15136729Y-13090960D01*
X15136729Y-13090960D02*
X15117682Y-13100484D01*
X15117682Y-13100484D02*
X15098634Y-13100484D01*
X15098634Y-13100484D02*
X15079586Y-13090960D01*
X15079586Y-13090960D02*
X15070063Y-13081436D01*
X15070063Y-13081436D02*
X15060539Y-13062388D01*
X15060539Y-13062388D02*
X15051015Y-13024293D01*
X15051015Y-13024293D02*
X15051015Y-12976674D01*
X15051015Y-12976674D02*
X15060539Y-12938579D01*
X15060539Y-12938579D02*
X15070063Y-12919531D01*
X15070063Y-12919531D02*
X15079586Y-12910008D01*
X15079586Y-12910008D02*
X15098634Y-12900484D01*
X15251015Y-13081436D02*
X15260539Y-13090960D01*
X15260539Y-13090960D02*
X15251015Y-13100484D01*
X15251015Y-13100484D02*
X15241491Y-13090960D01*
X15241491Y-13090960D02*
X15251015Y-13081436D01*
X15251015Y-13081436D02*
X15251015Y-13100484D01*
X15384348Y-12900484D02*
X15403396Y-12900484D01*
X15403396Y-12900484D02*
X15422444Y-12910008D01*
X15422444Y-12910008D02*
X15431967Y-12919531D01*
X15431967Y-12919531D02*
X15441491Y-12938579D01*
X15441491Y-12938579D02*
X15451015Y-12976674D01*
X15451015Y-12976674D02*
X15451015Y-13024293D01*
X15451015Y-13024293D02*
X15441491Y-13062388D01*
X15441491Y-13062388D02*
X15431967Y-13081436D01*
X15431967Y-13081436D02*
X15422444Y-13090960D01*
X15422444Y-13090960D02*
X15403396Y-13100484D01*
X15403396Y-13100484D02*
X15384348Y-13100484D01*
X15384348Y-13100484D02*
X15365301Y-13090960D01*
X15365301Y-13090960D02*
X15355777Y-13081436D01*
X15355777Y-13081436D02*
X15346253Y-13062388D01*
X15346253Y-13062388D02*
X15336729Y-13024293D01*
X15336729Y-13024293D02*
X15336729Y-12976674D01*
X15336729Y-12976674D02*
X15346253Y-12938579D01*
X15346253Y-12938579D02*
X15355777Y-12919531D01*
X15355777Y-12919531D02*
X15365301Y-12910008D01*
X15365301Y-12910008D02*
X15384348Y-12900484D01*
X15574825Y-12900484D02*
X15593872Y-12900484D01*
X15593872Y-12900484D02*
X15612920Y-12910008D01*
X15612920Y-12910008D02*
X15622444Y-12919531D01*
X15622444Y-12919531D02*
X15631967Y-12938579D01*
X15631967Y-12938579D02*
X15641491Y-12976674D01*
X15641491Y-12976674D02*
X15641491Y-13024293D01*
X15641491Y-13024293D02*
X15631967Y-13062388D01*
X15631967Y-13062388D02*
X15622444Y-13081436D01*
X15622444Y-13081436D02*
X15612920Y-13090960D01*
X15612920Y-13090960D02*
X15593872Y-13100484D01*
X15593872Y-13100484D02*
X15574825Y-13100484D01*
X15574825Y-13100484D02*
X15555777Y-13090960D01*
X15555777Y-13090960D02*
X15546253Y-13081436D01*
X15546253Y-13081436D02*
X15536729Y-13062388D01*
X15536729Y-13062388D02*
X15527206Y-13024293D01*
X15527206Y-13024293D02*
X15527206Y-12976674D01*
X15527206Y-12976674D02*
X15536729Y-12938579D01*
X15536729Y-12938579D02*
X15546253Y-12919531D01*
X15546253Y-12919531D02*
X15555777Y-12910008D01*
X15555777Y-12910008D02*
X15574825Y-12900484D01*
X15708158Y-12900484D02*
X15841491Y-12900484D01*
X15841491Y-12900484D02*
X15755777Y-13100484D01*
X15927206Y-13100484D02*
X15965301Y-13100484D01*
X15965301Y-13100484D02*
X15984348Y-13090960D01*
X15984348Y-13090960D02*
X15993872Y-13081436D01*
X15993872Y-13081436D02*
X16012920Y-13052865D01*
X16012920Y-13052865D02*
X16022444Y-13014769D01*
X16022444Y-13014769D02*
X16022444Y-12938579D01*
X16022444Y-12938579D02*
X16012920Y-12919531D01*
X16012920Y-12919531D02*
X16003396Y-12910008D01*
X16003396Y-12910008D02*
X15984348Y-12900484D01*
X15984348Y-12900484D02*
X15946253Y-12900484D01*
X15946253Y-12900484D02*
X15927206Y-12910008D01*
X15927206Y-12910008D02*
X15917682Y-12919531D01*
X15917682Y-12919531D02*
X15908158Y-12938579D01*
X15908158Y-12938579D02*
X15908158Y-12986198D01*
X15908158Y-12986198D02*
X15917682Y-13005246D01*
X15917682Y-13005246D02*
X15927206Y-13014769D01*
X15927206Y-13014769D02*
X15946253Y-13024293D01*
X15946253Y-13024293D02*
X15984348Y-13024293D01*
X15984348Y-13024293D02*
X16003396Y-13014769D01*
X16003396Y-13014769D02*
X16012920Y-13005246D01*
X16012920Y-13005246D02*
X16022444Y-12986198D01*
X16098634Y-12900484D02*
X16098634Y-12938579D01*
X16174825Y-12900484D02*
X16174825Y-12938579D01*
X16470063Y-13176674D02*
X16460539Y-13167150D01*
X16460539Y-13167150D02*
X16441491Y-13138579D01*
X16441491Y-13138579D02*
X16431968Y-13119531D01*
X16431968Y-13119531D02*
X16422444Y-13090960D01*
X16422444Y-13090960D02*
X16412920Y-13043341D01*
X16412920Y-13043341D02*
X16412920Y-13005246D01*
X16412920Y-13005246D02*
X16422444Y-12957627D01*
X16422444Y-12957627D02*
X16431968Y-12929055D01*
X16431968Y-12929055D02*
X16441491Y-12910008D01*
X16441491Y-12910008D02*
X16460539Y-12881436D01*
X16460539Y-12881436D02*
X16470063Y-12871912D01*
X16555777Y-13100484D02*
X16593872Y-13100484D01*
X16593872Y-13100484D02*
X16612920Y-13090960D01*
X16612920Y-13090960D02*
X16622444Y-13081436D01*
X16622444Y-13081436D02*
X16641491Y-13052865D01*
X16641491Y-13052865D02*
X16651015Y-13014769D01*
X16651015Y-13014769D02*
X16651015Y-12938579D01*
X16651015Y-12938579D02*
X16641491Y-12919531D01*
X16641491Y-12919531D02*
X16631968Y-12910008D01*
X16631968Y-12910008D02*
X16612920Y-12900484D01*
X16612920Y-12900484D02*
X16574825Y-12900484D01*
X16574825Y-12900484D02*
X16555777Y-12910008D01*
X16555777Y-12910008D02*
X16546253Y-12919531D01*
X16546253Y-12919531D02*
X16536729Y-12938579D01*
X16536729Y-12938579D02*
X16536729Y-12986198D01*
X16536729Y-12986198D02*
X16546253Y-13005246D01*
X16546253Y-13005246D02*
X16555777Y-13014769D01*
X16555777Y-13014769D02*
X16574825Y-13024293D01*
X16574825Y-13024293D02*
X16612920Y-13024293D01*
X16612920Y-13024293D02*
X16631968Y-13014769D01*
X16631968Y-13014769D02*
X16641491Y-13005246D01*
X16641491Y-13005246D02*
X16651015Y-12986198D01*
X16889111Y-13100484D02*
X16889111Y-12900484D01*
X16974825Y-13100484D02*
X16974825Y-12995722D01*
X16974825Y-12995722D02*
X16965301Y-12976674D01*
X16965301Y-12976674D02*
X16946253Y-12967150D01*
X16946253Y-12967150D02*
X16917682Y-12967150D01*
X16917682Y-12967150D02*
X16898634Y-12976674D01*
X16898634Y-12976674D02*
X16889111Y-12986198D01*
X17098634Y-13100484D02*
X17079587Y-13090960D01*
X17079587Y-13090960D02*
X17070063Y-13081436D01*
X17070063Y-13081436D02*
X17060539Y-13062388D01*
X17060539Y-13062388D02*
X17060539Y-13005246D01*
X17060539Y-13005246D02*
X17070063Y-12986198D01*
X17070063Y-12986198D02*
X17079587Y-12976674D01*
X17079587Y-12976674D02*
X17098634Y-12967150D01*
X17098634Y-12967150D02*
X17127206Y-12967150D01*
X17127206Y-12967150D02*
X17146253Y-12976674D01*
X17146253Y-12976674D02*
X17155777Y-12986198D01*
X17155777Y-12986198D02*
X17165301Y-13005246D01*
X17165301Y-13005246D02*
X17165301Y-13062388D01*
X17165301Y-13062388D02*
X17155777Y-13081436D01*
X17155777Y-13081436D02*
X17146253Y-13090960D01*
X17146253Y-13090960D02*
X17127206Y-13100484D01*
X17127206Y-13100484D02*
X17098634Y-13100484D01*
X17279587Y-13100484D02*
X17260539Y-13090960D01*
X17260539Y-13090960D02*
X17251015Y-13071912D01*
X17251015Y-13071912D02*
X17251015Y-12900484D01*
X17431968Y-13090960D02*
X17412920Y-13100484D01*
X17412920Y-13100484D02*
X17374825Y-13100484D01*
X17374825Y-13100484D02*
X17355777Y-13090960D01*
X17355777Y-13090960D02*
X17346253Y-13071912D01*
X17346253Y-13071912D02*
X17346253Y-12995722D01*
X17346253Y-12995722D02*
X17355777Y-12976674D01*
X17355777Y-12976674D02*
X17374825Y-12967150D01*
X17374825Y-12967150D02*
X17412920Y-12967150D01*
X17412920Y-12967150D02*
X17431968Y-12976674D01*
X17431968Y-12976674D02*
X17441492Y-12995722D01*
X17441492Y-12995722D02*
X17441492Y-13014769D01*
X17441492Y-13014769D02*
X17346253Y-13033817D01*
X17517682Y-13090960D02*
X17536730Y-13100484D01*
X17536730Y-13100484D02*
X17574825Y-13100484D01*
X17574825Y-13100484D02*
X17593873Y-13090960D01*
X17593873Y-13090960D02*
X17603396Y-13071912D01*
X17603396Y-13071912D02*
X17603396Y-13062388D01*
X17603396Y-13062388D02*
X17593873Y-13043341D01*
X17593873Y-13043341D02*
X17574825Y-13033817D01*
X17574825Y-13033817D02*
X17546253Y-13033817D01*
X17546253Y-13033817D02*
X17527206Y-13024293D01*
X17527206Y-13024293D02*
X17517682Y-13005246D01*
X17517682Y-13005246D02*
X17517682Y-12995722D01*
X17517682Y-12995722D02*
X17527206Y-12976674D01*
X17527206Y-12976674D02*
X17546253Y-12967150D01*
X17546253Y-12967150D02*
X17574825Y-12967150D01*
X17574825Y-12967150D02*
X17593873Y-12976674D01*
X17670063Y-13176674D02*
X17679587Y-13167150D01*
X17679587Y-13167150D02*
X17698634Y-13138579D01*
X17698634Y-13138579D02*
X17708158Y-13119531D01*
X17708158Y-13119531D02*
X17717682Y-13090960D01*
X17717682Y-13090960D02*
X17727206Y-13043341D01*
X17727206Y-13043341D02*
X17727206Y-13005246D01*
X17727206Y-13005246D02*
X17717682Y-12957627D01*
X17717682Y-12957627D02*
X17708158Y-12929055D01*
X17708158Y-12929055D02*
X17698634Y-12910008D01*
X17698634Y-12910008D02*
X17679587Y-12881436D01*
X17679587Y-12881436D02*
X17670063Y-12871912D01*
D14*
X12877500Y-13255500D02*
X12877500Y-13290500D01*
X12860000Y-13273000D02*
X12895000Y-13273000D01*
D11*
X13193872Y-13164484D02*
X13212920Y-13164484D01*
X13212920Y-13164484D02*
X13231967Y-13174008D01*
X13231967Y-13174008D02*
X13241491Y-13183531D01*
X13241491Y-13183531D02*
X13251015Y-13202579D01*
X13251015Y-13202579D02*
X13260539Y-13240674D01*
X13260539Y-13240674D02*
X13260539Y-13288293D01*
X13260539Y-13288293D02*
X13251015Y-13326388D01*
X13251015Y-13326388D02*
X13241491Y-13345436D01*
X13241491Y-13345436D02*
X13231967Y-13354960D01*
X13231967Y-13354960D02*
X13212920Y-13364484D01*
X13212920Y-13364484D02*
X13193872Y-13364484D01*
X13193872Y-13364484D02*
X13174824Y-13354960D01*
X13174824Y-13354960D02*
X13165301Y-13345436D01*
X13165301Y-13345436D02*
X13155777Y-13326388D01*
X13155777Y-13326388D02*
X13146253Y-13288293D01*
X13146253Y-13288293D02*
X13146253Y-13240674D01*
X13146253Y-13240674D02*
X13155777Y-13202579D01*
X13155777Y-13202579D02*
X13165301Y-13183531D01*
X13165301Y-13183531D02*
X13174824Y-13174008D01*
X13174824Y-13174008D02*
X13193872Y-13164484D01*
X13346253Y-13345436D02*
X13355777Y-13354960D01*
X13355777Y-13354960D02*
X13346253Y-13364484D01*
X13346253Y-13364484D02*
X13336729Y-13354960D01*
X13336729Y-13354960D02*
X13346253Y-13345436D01*
X13346253Y-13345436D02*
X13346253Y-13364484D01*
X13422443Y-13164484D02*
X13546253Y-13164484D01*
X13546253Y-13164484D02*
X13479586Y-13240674D01*
X13479586Y-13240674D02*
X13508158Y-13240674D01*
X13508158Y-13240674D02*
X13527205Y-13250198D01*
X13527205Y-13250198D02*
X13536729Y-13259722D01*
X13536729Y-13259722D02*
X13546253Y-13278769D01*
X13546253Y-13278769D02*
X13546253Y-13326388D01*
X13546253Y-13326388D02*
X13536729Y-13345436D01*
X13536729Y-13345436D02*
X13527205Y-13354960D01*
X13527205Y-13354960D02*
X13508158Y-13364484D01*
X13508158Y-13364484D02*
X13451015Y-13364484D01*
X13451015Y-13364484D02*
X13431967Y-13354960D01*
X13431967Y-13354960D02*
X13422443Y-13345436D01*
X13727205Y-13164484D02*
X13631967Y-13164484D01*
X13631967Y-13164484D02*
X13622443Y-13259722D01*
X13622443Y-13259722D02*
X13631967Y-13250198D01*
X13631967Y-13250198D02*
X13651015Y-13240674D01*
X13651015Y-13240674D02*
X13698634Y-13240674D01*
X13698634Y-13240674D02*
X13717682Y-13250198D01*
X13717682Y-13250198D02*
X13727205Y-13259722D01*
X13727205Y-13259722D02*
X13736729Y-13278769D01*
X13736729Y-13278769D02*
X13736729Y-13326388D01*
X13736729Y-13326388D02*
X13727205Y-13345436D01*
X13727205Y-13345436D02*
X13717682Y-13354960D01*
X13717682Y-13354960D02*
X13698634Y-13364484D01*
X13698634Y-13364484D02*
X13651015Y-13364484D01*
X13651015Y-13364484D02*
X13631967Y-13354960D01*
X13631967Y-13354960D02*
X13622443Y-13345436D01*
X13860539Y-13164484D02*
X13879586Y-13164484D01*
X13879586Y-13164484D02*
X13898634Y-13174008D01*
X13898634Y-13174008D02*
X13908158Y-13183531D01*
X13908158Y-13183531D02*
X13917682Y-13202579D01*
X13917682Y-13202579D02*
X13927205Y-13240674D01*
X13927205Y-13240674D02*
X13927205Y-13288293D01*
X13927205Y-13288293D02*
X13917682Y-13326388D01*
X13917682Y-13326388D02*
X13908158Y-13345436D01*
X13908158Y-13345436D02*
X13898634Y-13354960D01*
X13898634Y-13354960D02*
X13879586Y-13364484D01*
X13879586Y-13364484D02*
X13860539Y-13364484D01*
X13860539Y-13364484D02*
X13841491Y-13354960D01*
X13841491Y-13354960D02*
X13831967Y-13345436D01*
X13831967Y-13345436D02*
X13822443Y-13326388D01*
X13822443Y-13326388D02*
X13812920Y-13288293D01*
X13812920Y-13288293D02*
X13812920Y-13240674D01*
X13812920Y-13240674D02*
X13822443Y-13202579D01*
X13822443Y-13202579D02*
X13831967Y-13183531D01*
X13831967Y-13183531D02*
X13841491Y-13174008D01*
X13841491Y-13174008D02*
X13860539Y-13164484D01*
X14012920Y-13364484D02*
X14012920Y-13231150D01*
X14012920Y-13250198D02*
X14022443Y-13240674D01*
X14022443Y-13240674D02*
X14041491Y-13231150D01*
X14041491Y-13231150D02*
X14070063Y-13231150D01*
X14070063Y-13231150D02*
X14089110Y-13240674D01*
X14089110Y-13240674D02*
X14098634Y-13259722D01*
X14098634Y-13259722D02*
X14098634Y-13364484D01*
X14098634Y-13259722D02*
X14108158Y-13240674D01*
X14108158Y-13240674D02*
X14127205Y-13231150D01*
X14127205Y-13231150D02*
X14155777Y-13231150D01*
X14155777Y-13231150D02*
X14174824Y-13240674D01*
X14174824Y-13240674D02*
X14184348Y-13259722D01*
X14184348Y-13259722D02*
X14184348Y-13364484D01*
X14279586Y-13364484D02*
X14279586Y-13231150D01*
X14279586Y-13250198D02*
X14289110Y-13240674D01*
X14289110Y-13240674D02*
X14308158Y-13231150D01*
X14308158Y-13231150D02*
X14336729Y-13231150D01*
X14336729Y-13231150D02*
X14355777Y-13240674D01*
X14355777Y-13240674D02*
X14365301Y-13259722D01*
X14365301Y-13259722D02*
X14365301Y-13364484D01*
X14365301Y-13259722D02*
X14374824Y-13240674D01*
X14374824Y-13240674D02*
X14393872Y-13231150D01*
X14393872Y-13231150D02*
X14422443Y-13231150D01*
X14422443Y-13231150D02*
X14441491Y-13240674D01*
X14441491Y-13240674D02*
X14451015Y-13259722D01*
X14451015Y-13259722D02*
X14451015Y-13364484D01*
X14841491Y-13154960D02*
X14670063Y-13412103D01*
X15098634Y-13164484D02*
X15117682Y-13164484D01*
X15117682Y-13164484D02*
X15136729Y-13174008D01*
X15136729Y-13174008D02*
X15146253Y-13183531D01*
X15146253Y-13183531D02*
X15155777Y-13202579D01*
X15155777Y-13202579D02*
X15165301Y-13240674D01*
X15165301Y-13240674D02*
X15165301Y-13288293D01*
X15165301Y-13288293D02*
X15155777Y-13326388D01*
X15155777Y-13326388D02*
X15146253Y-13345436D01*
X15146253Y-13345436D02*
X15136729Y-13354960D01*
X15136729Y-13354960D02*
X15117682Y-13364484D01*
X15117682Y-13364484D02*
X15098634Y-13364484D01*
X15098634Y-13364484D02*
X15079586Y-13354960D01*
X15079586Y-13354960D02*
X15070063Y-13345436D01*
X15070063Y-13345436D02*
X15060539Y-13326388D01*
X15060539Y-13326388D02*
X15051015Y-13288293D01*
X15051015Y-13288293D02*
X15051015Y-13240674D01*
X15051015Y-13240674D02*
X15060539Y-13202579D01*
X15060539Y-13202579D02*
X15070063Y-13183531D01*
X15070063Y-13183531D02*
X15079586Y-13174008D01*
X15079586Y-13174008D02*
X15098634Y-13164484D01*
X15251015Y-13345436D02*
X15260539Y-13354960D01*
X15260539Y-13354960D02*
X15251015Y-13364484D01*
X15251015Y-13364484D02*
X15241491Y-13354960D01*
X15241491Y-13354960D02*
X15251015Y-13345436D01*
X15251015Y-13345436D02*
X15251015Y-13364484D01*
X15384348Y-13164484D02*
X15403396Y-13164484D01*
X15403396Y-13164484D02*
X15422444Y-13174008D01*
X15422444Y-13174008D02*
X15431967Y-13183531D01*
X15431967Y-13183531D02*
X15441491Y-13202579D01*
X15441491Y-13202579D02*
X15451015Y-13240674D01*
X15451015Y-13240674D02*
X15451015Y-13288293D01*
X15451015Y-13288293D02*
X15441491Y-13326388D01*
X15441491Y-13326388D02*
X15431967Y-13345436D01*
X15431967Y-13345436D02*
X15422444Y-13354960D01*
X15422444Y-13354960D02*
X15403396Y-13364484D01*
X15403396Y-13364484D02*
X15384348Y-13364484D01*
X15384348Y-13364484D02*
X15365301Y-13354960D01*
X15365301Y-13354960D02*
X15355777Y-13345436D01*
X15355777Y-13345436D02*
X15346253Y-13326388D01*
X15346253Y-13326388D02*
X15336729Y-13288293D01*
X15336729Y-13288293D02*
X15336729Y-13240674D01*
X15336729Y-13240674D02*
X15346253Y-13202579D01*
X15346253Y-13202579D02*
X15355777Y-13183531D01*
X15355777Y-13183531D02*
X15365301Y-13174008D01*
X15365301Y-13174008D02*
X15384348Y-13164484D01*
X15641491Y-13364484D02*
X15527206Y-13364484D01*
X15584348Y-13364484D02*
X15584348Y-13164484D01*
X15584348Y-13164484D02*
X15565301Y-13193055D01*
X15565301Y-13193055D02*
X15546253Y-13212103D01*
X15546253Y-13212103D02*
X15527206Y-13221627D01*
X15708158Y-13164484D02*
X15831967Y-13164484D01*
X15831967Y-13164484D02*
X15765301Y-13240674D01*
X15765301Y-13240674D02*
X15793872Y-13240674D01*
X15793872Y-13240674D02*
X15812920Y-13250198D01*
X15812920Y-13250198D02*
X15822444Y-13259722D01*
X15822444Y-13259722D02*
X15831967Y-13278769D01*
X15831967Y-13278769D02*
X15831967Y-13326388D01*
X15831967Y-13326388D02*
X15822444Y-13345436D01*
X15822444Y-13345436D02*
X15812920Y-13354960D01*
X15812920Y-13354960D02*
X15793872Y-13364484D01*
X15793872Y-13364484D02*
X15736729Y-13364484D01*
X15736729Y-13364484D02*
X15717682Y-13354960D01*
X15717682Y-13354960D02*
X15708158Y-13345436D01*
X15946253Y-13250198D02*
X15927206Y-13240674D01*
X15927206Y-13240674D02*
X15917682Y-13231150D01*
X15917682Y-13231150D02*
X15908158Y-13212103D01*
X15908158Y-13212103D02*
X15908158Y-13202579D01*
X15908158Y-13202579D02*
X15917682Y-13183531D01*
X15917682Y-13183531D02*
X15927206Y-13174008D01*
X15927206Y-13174008D02*
X15946253Y-13164484D01*
X15946253Y-13164484D02*
X15984348Y-13164484D01*
X15984348Y-13164484D02*
X16003396Y-13174008D01*
X16003396Y-13174008D02*
X16012920Y-13183531D01*
X16012920Y-13183531D02*
X16022444Y-13202579D01*
X16022444Y-13202579D02*
X16022444Y-13212103D01*
X16022444Y-13212103D02*
X16012920Y-13231150D01*
X16012920Y-13231150D02*
X16003396Y-13240674D01*
X16003396Y-13240674D02*
X15984348Y-13250198D01*
X15984348Y-13250198D02*
X15946253Y-13250198D01*
X15946253Y-13250198D02*
X15927206Y-13259722D01*
X15927206Y-13259722D02*
X15917682Y-13269246D01*
X15917682Y-13269246D02*
X15908158Y-13288293D01*
X15908158Y-13288293D02*
X15908158Y-13326388D01*
X15908158Y-13326388D02*
X15917682Y-13345436D01*
X15917682Y-13345436D02*
X15927206Y-13354960D01*
X15927206Y-13354960D02*
X15946253Y-13364484D01*
X15946253Y-13364484D02*
X15984348Y-13364484D01*
X15984348Y-13364484D02*
X16003396Y-13354960D01*
X16003396Y-13354960D02*
X16012920Y-13345436D01*
X16012920Y-13345436D02*
X16022444Y-13326388D01*
X16022444Y-13326388D02*
X16022444Y-13288293D01*
X16022444Y-13288293D02*
X16012920Y-13269246D01*
X16012920Y-13269246D02*
X16003396Y-13259722D01*
X16003396Y-13259722D02*
X15984348Y-13250198D01*
X16098634Y-13164484D02*
X16098634Y-13202579D01*
X16174825Y-13164484D02*
X16174825Y-13202579D01*
X16470063Y-13440674D02*
X16460539Y-13431150D01*
X16460539Y-13431150D02*
X16441491Y-13402579D01*
X16441491Y-13402579D02*
X16431968Y-13383531D01*
X16431968Y-13383531D02*
X16422444Y-13354960D01*
X16422444Y-13354960D02*
X16412920Y-13307341D01*
X16412920Y-13307341D02*
X16412920Y-13269246D01*
X16412920Y-13269246D02*
X16422444Y-13221627D01*
X16422444Y-13221627D02*
X16431968Y-13193055D01*
X16431968Y-13193055D02*
X16441491Y-13174008D01*
X16441491Y-13174008D02*
X16460539Y-13145436D01*
X16460539Y-13145436D02*
X16470063Y-13135912D01*
X16651015Y-13364484D02*
X16536729Y-13364484D01*
X16593872Y-13364484D02*
X16593872Y-13164484D01*
X16593872Y-13164484D02*
X16574825Y-13193055D01*
X16574825Y-13193055D02*
X16555777Y-13212103D01*
X16555777Y-13212103D02*
X16536729Y-13221627D01*
X16774825Y-13164484D02*
X16793872Y-13164484D01*
X16793872Y-13164484D02*
X16812920Y-13174008D01*
X16812920Y-13174008D02*
X16822444Y-13183531D01*
X16822444Y-13183531D02*
X16831968Y-13202579D01*
X16831968Y-13202579D02*
X16841491Y-13240674D01*
X16841491Y-13240674D02*
X16841491Y-13288293D01*
X16841491Y-13288293D02*
X16831968Y-13326388D01*
X16831968Y-13326388D02*
X16822444Y-13345436D01*
X16822444Y-13345436D02*
X16812920Y-13354960D01*
X16812920Y-13354960D02*
X16793872Y-13364484D01*
X16793872Y-13364484D02*
X16774825Y-13364484D01*
X16774825Y-13364484D02*
X16755777Y-13354960D01*
X16755777Y-13354960D02*
X16746253Y-13345436D01*
X16746253Y-13345436D02*
X16736729Y-13326388D01*
X16736729Y-13326388D02*
X16727206Y-13288293D01*
X16727206Y-13288293D02*
X16727206Y-13240674D01*
X16727206Y-13240674D02*
X16736729Y-13202579D01*
X16736729Y-13202579D02*
X16746253Y-13183531D01*
X16746253Y-13183531D02*
X16755777Y-13174008D01*
X16755777Y-13174008D02*
X16774825Y-13164484D01*
X16908158Y-13164484D02*
X17031968Y-13164484D01*
X17031968Y-13164484D02*
X16965301Y-13240674D01*
X16965301Y-13240674D02*
X16993872Y-13240674D01*
X16993872Y-13240674D02*
X17012920Y-13250198D01*
X17012920Y-13250198D02*
X17022444Y-13259722D01*
X17022444Y-13259722D02*
X17031968Y-13278769D01*
X17031968Y-13278769D02*
X17031968Y-13326388D01*
X17031968Y-13326388D02*
X17022444Y-13345436D01*
X17022444Y-13345436D02*
X17012920Y-13354960D01*
X17012920Y-13354960D02*
X16993872Y-13364484D01*
X16993872Y-13364484D02*
X16936730Y-13364484D01*
X16936730Y-13364484D02*
X16917682Y-13354960D01*
X16917682Y-13354960D02*
X16908158Y-13345436D01*
X17270063Y-13364484D02*
X17270063Y-13164484D01*
X17355777Y-13364484D02*
X17355777Y-13259722D01*
X17355777Y-13259722D02*
X17346253Y-13240674D01*
X17346253Y-13240674D02*
X17327206Y-13231150D01*
X17327206Y-13231150D02*
X17298634Y-13231150D01*
X17298634Y-13231150D02*
X17279587Y-13240674D01*
X17279587Y-13240674D02*
X17270063Y-13250198D01*
X17479587Y-13364484D02*
X17460539Y-13354960D01*
X17460539Y-13354960D02*
X17451015Y-13345436D01*
X17451015Y-13345436D02*
X17441492Y-13326388D01*
X17441492Y-13326388D02*
X17441492Y-13269246D01*
X17441492Y-13269246D02*
X17451015Y-13250198D01*
X17451015Y-13250198D02*
X17460539Y-13240674D01*
X17460539Y-13240674D02*
X17479587Y-13231150D01*
X17479587Y-13231150D02*
X17508158Y-13231150D01*
X17508158Y-13231150D02*
X17527206Y-13240674D01*
X17527206Y-13240674D02*
X17536730Y-13250198D01*
X17536730Y-13250198D02*
X17546253Y-13269246D01*
X17546253Y-13269246D02*
X17546253Y-13326388D01*
X17546253Y-13326388D02*
X17536730Y-13345436D01*
X17536730Y-13345436D02*
X17527206Y-13354960D01*
X17527206Y-13354960D02*
X17508158Y-13364484D01*
X17508158Y-13364484D02*
X17479587Y-13364484D01*
X17660539Y-13364484D02*
X17641492Y-13354960D01*
X17641492Y-13354960D02*
X17631968Y-13335912D01*
X17631968Y-13335912D02*
X17631968Y-13164484D01*
X17812920Y-13354960D02*
X17793873Y-13364484D01*
X17793873Y-13364484D02*
X17755777Y-13364484D01*
X17755777Y-13364484D02*
X17736730Y-13354960D01*
X17736730Y-13354960D02*
X17727206Y-13335912D01*
X17727206Y-13335912D02*
X17727206Y-13259722D01*
X17727206Y-13259722D02*
X17736730Y-13240674D01*
X17736730Y-13240674D02*
X17755777Y-13231150D01*
X17755777Y-13231150D02*
X17793873Y-13231150D01*
X17793873Y-13231150D02*
X17812920Y-13240674D01*
X17812920Y-13240674D02*
X17822444Y-13259722D01*
X17822444Y-13259722D02*
X17822444Y-13278769D01*
X17822444Y-13278769D02*
X17727206Y-13297817D01*
X17898634Y-13354960D02*
X17917682Y-13364484D01*
X17917682Y-13364484D02*
X17955777Y-13364484D01*
X17955777Y-13364484D02*
X17974825Y-13354960D01*
X17974825Y-13354960D02*
X17984349Y-13335912D01*
X17984349Y-13335912D02*
X17984349Y-13326388D01*
X17984349Y-13326388D02*
X17974825Y-13307341D01*
X17974825Y-13307341D02*
X17955777Y-13297817D01*
X17955777Y-13297817D02*
X17927206Y-13297817D01*
X17927206Y-13297817D02*
X17908158Y-13288293D01*
X17908158Y-13288293D02*
X17898634Y-13269246D01*
X17898634Y-13269246D02*
X17898634Y-13259722D01*
X17898634Y-13259722D02*
X17908158Y-13240674D01*
X17908158Y-13240674D02*
X17927206Y-13231150D01*
X17927206Y-13231150D02*
X17955777Y-13231150D01*
X17955777Y-13231150D02*
X17974825Y-13240674D01*
X18051015Y-13440674D02*
X18060539Y-13431150D01*
X18060539Y-13431150D02*
X18079587Y-13402579D01*
X18079587Y-13402579D02*
X18089111Y-13383531D01*
X18089111Y-13383531D02*
X18098634Y-13354960D01*
X18098634Y-13354960D02*
X18108158Y-13307341D01*
X18108158Y-13307341D02*
X18108158Y-13269246D01*
X18108158Y-13269246D02*
X18098634Y-13221627D01*
X18098634Y-13221627D02*
X18089111Y-13193055D01*
X18089111Y-13193055D02*
X18079587Y-13174008D01*
X18079587Y-13174008D02*
X18060539Y-13145436D01*
X18060539Y-13145436D02*
X18051015Y-13135912D01*
D15*
X12889142Y-13551142D02*
X12889142Y-13522858D01*
X12860858Y-13522858D01*
X12860858Y-13551142D01*
X12889142Y-13551142D01*
D11*
X13193872Y-13428484D02*
X13212920Y-13428484D01*
X13212920Y-13428484D02*
X13231967Y-13438008D01*
X13231967Y-13438008D02*
X13241491Y-13447531D01*
X13241491Y-13447531D02*
X13251015Y-13466579D01*
X13251015Y-13466579D02*
X13260539Y-13504674D01*
X13260539Y-13504674D02*
X13260539Y-13552293D01*
X13260539Y-13552293D02*
X13251015Y-13590388D01*
X13251015Y-13590388D02*
X13241491Y-13609436D01*
X13241491Y-13609436D02*
X13231967Y-13618960D01*
X13231967Y-13618960D02*
X13212920Y-13628484D01*
X13212920Y-13628484D02*
X13193872Y-13628484D01*
X13193872Y-13628484D02*
X13174824Y-13618960D01*
X13174824Y-13618960D02*
X13165301Y-13609436D01*
X13165301Y-13609436D02*
X13155777Y-13590388D01*
X13155777Y-13590388D02*
X13146253Y-13552293D01*
X13146253Y-13552293D02*
X13146253Y-13504674D01*
X13146253Y-13504674D02*
X13155777Y-13466579D01*
X13155777Y-13466579D02*
X13165301Y-13447531D01*
X13165301Y-13447531D02*
X13174824Y-13438008D01*
X13174824Y-13438008D02*
X13193872Y-13428484D01*
X13346253Y-13609436D02*
X13355777Y-13618960D01*
X13355777Y-13618960D02*
X13346253Y-13628484D01*
X13346253Y-13628484D02*
X13336729Y-13618960D01*
X13336729Y-13618960D02*
X13346253Y-13609436D01*
X13346253Y-13609436D02*
X13346253Y-13628484D01*
X13527205Y-13495150D02*
X13527205Y-13628484D01*
X13479586Y-13418960D02*
X13431967Y-13561817D01*
X13431967Y-13561817D02*
X13555777Y-13561817D01*
X13670062Y-13428484D02*
X13689110Y-13428484D01*
X13689110Y-13428484D02*
X13708158Y-13438008D01*
X13708158Y-13438008D02*
X13717682Y-13447531D01*
X13717682Y-13447531D02*
X13727205Y-13466579D01*
X13727205Y-13466579D02*
X13736729Y-13504674D01*
X13736729Y-13504674D02*
X13736729Y-13552293D01*
X13736729Y-13552293D02*
X13727205Y-13590388D01*
X13727205Y-13590388D02*
X13717682Y-13609436D01*
X13717682Y-13609436D02*
X13708158Y-13618960D01*
X13708158Y-13618960D02*
X13689110Y-13628484D01*
X13689110Y-13628484D02*
X13670062Y-13628484D01*
X13670062Y-13628484D02*
X13651015Y-13618960D01*
X13651015Y-13618960D02*
X13641491Y-13609436D01*
X13641491Y-13609436D02*
X13631967Y-13590388D01*
X13631967Y-13590388D02*
X13622443Y-13552293D01*
X13622443Y-13552293D02*
X13622443Y-13504674D01*
X13622443Y-13504674D02*
X13631967Y-13466579D01*
X13631967Y-13466579D02*
X13641491Y-13447531D01*
X13641491Y-13447531D02*
X13651015Y-13438008D01*
X13651015Y-13438008D02*
X13670062Y-13428484D01*
X13860539Y-13428484D02*
X13879586Y-13428484D01*
X13879586Y-13428484D02*
X13898634Y-13438008D01*
X13898634Y-13438008D02*
X13908158Y-13447531D01*
X13908158Y-13447531D02*
X13917682Y-13466579D01*
X13917682Y-13466579D02*
X13927205Y-13504674D01*
X13927205Y-13504674D02*
X13927205Y-13552293D01*
X13927205Y-13552293D02*
X13917682Y-13590388D01*
X13917682Y-13590388D02*
X13908158Y-13609436D01*
X13908158Y-13609436D02*
X13898634Y-13618960D01*
X13898634Y-13618960D02*
X13879586Y-13628484D01*
X13879586Y-13628484D02*
X13860539Y-13628484D01*
X13860539Y-13628484D02*
X13841491Y-13618960D01*
X13841491Y-13618960D02*
X13831967Y-13609436D01*
X13831967Y-13609436D02*
X13822443Y-13590388D01*
X13822443Y-13590388D02*
X13812920Y-13552293D01*
X13812920Y-13552293D02*
X13812920Y-13504674D01*
X13812920Y-13504674D02*
X13822443Y-13466579D01*
X13822443Y-13466579D02*
X13831967Y-13447531D01*
X13831967Y-13447531D02*
X13841491Y-13438008D01*
X13841491Y-13438008D02*
X13860539Y-13428484D01*
X14012920Y-13628484D02*
X14012920Y-13495150D01*
X14012920Y-13514198D02*
X14022443Y-13504674D01*
X14022443Y-13504674D02*
X14041491Y-13495150D01*
X14041491Y-13495150D02*
X14070063Y-13495150D01*
X14070063Y-13495150D02*
X14089110Y-13504674D01*
X14089110Y-13504674D02*
X14098634Y-13523722D01*
X14098634Y-13523722D02*
X14098634Y-13628484D01*
X14098634Y-13523722D02*
X14108158Y-13504674D01*
X14108158Y-13504674D02*
X14127205Y-13495150D01*
X14127205Y-13495150D02*
X14155777Y-13495150D01*
X14155777Y-13495150D02*
X14174824Y-13504674D01*
X14174824Y-13504674D02*
X14184348Y-13523722D01*
X14184348Y-13523722D02*
X14184348Y-13628484D01*
X14279586Y-13628484D02*
X14279586Y-13495150D01*
X14279586Y-13514198D02*
X14289110Y-13504674D01*
X14289110Y-13504674D02*
X14308158Y-13495150D01*
X14308158Y-13495150D02*
X14336729Y-13495150D01*
X14336729Y-13495150D02*
X14355777Y-13504674D01*
X14355777Y-13504674D02*
X14365301Y-13523722D01*
X14365301Y-13523722D02*
X14365301Y-13628484D01*
X14365301Y-13523722D02*
X14374824Y-13504674D01*
X14374824Y-13504674D02*
X14393872Y-13495150D01*
X14393872Y-13495150D02*
X14422443Y-13495150D01*
X14422443Y-13495150D02*
X14441491Y-13504674D01*
X14441491Y-13504674D02*
X14451015Y-13523722D01*
X14451015Y-13523722D02*
X14451015Y-13628484D01*
X14841491Y-13418960D02*
X14670063Y-13676103D01*
X15098634Y-13428484D02*
X15117682Y-13428484D01*
X15117682Y-13428484D02*
X15136729Y-13438008D01*
X15136729Y-13438008D02*
X15146253Y-13447531D01*
X15146253Y-13447531D02*
X15155777Y-13466579D01*
X15155777Y-13466579D02*
X15165301Y-13504674D01*
X15165301Y-13504674D02*
X15165301Y-13552293D01*
X15165301Y-13552293D02*
X15155777Y-13590388D01*
X15155777Y-13590388D02*
X15146253Y-13609436D01*
X15146253Y-13609436D02*
X15136729Y-13618960D01*
X15136729Y-13618960D02*
X15117682Y-13628484D01*
X15117682Y-13628484D02*
X15098634Y-13628484D01*
X15098634Y-13628484D02*
X15079586Y-13618960D01*
X15079586Y-13618960D02*
X15070063Y-13609436D01*
X15070063Y-13609436D02*
X15060539Y-13590388D01*
X15060539Y-13590388D02*
X15051015Y-13552293D01*
X15051015Y-13552293D02*
X15051015Y-13504674D01*
X15051015Y-13504674D02*
X15060539Y-13466579D01*
X15060539Y-13466579D02*
X15070063Y-13447531D01*
X15070063Y-13447531D02*
X15079586Y-13438008D01*
X15079586Y-13438008D02*
X15098634Y-13428484D01*
X15251015Y-13609436D02*
X15260539Y-13618960D01*
X15260539Y-13618960D02*
X15251015Y-13628484D01*
X15251015Y-13628484D02*
X15241491Y-13618960D01*
X15241491Y-13618960D02*
X15251015Y-13609436D01*
X15251015Y-13609436D02*
X15251015Y-13628484D01*
X15384348Y-13428484D02*
X15403396Y-13428484D01*
X15403396Y-13428484D02*
X15422444Y-13438008D01*
X15422444Y-13438008D02*
X15431967Y-13447531D01*
X15431967Y-13447531D02*
X15441491Y-13466579D01*
X15441491Y-13466579D02*
X15451015Y-13504674D01*
X15451015Y-13504674D02*
X15451015Y-13552293D01*
X15451015Y-13552293D02*
X15441491Y-13590388D01*
X15441491Y-13590388D02*
X15431967Y-13609436D01*
X15431967Y-13609436D02*
X15422444Y-13618960D01*
X15422444Y-13618960D02*
X15403396Y-13628484D01*
X15403396Y-13628484D02*
X15384348Y-13628484D01*
X15384348Y-13628484D02*
X15365301Y-13618960D01*
X15365301Y-13618960D02*
X15355777Y-13609436D01*
X15355777Y-13609436D02*
X15346253Y-13590388D01*
X15346253Y-13590388D02*
X15336729Y-13552293D01*
X15336729Y-13552293D02*
X15336729Y-13504674D01*
X15336729Y-13504674D02*
X15346253Y-13466579D01*
X15346253Y-13466579D02*
X15355777Y-13447531D01*
X15355777Y-13447531D02*
X15365301Y-13438008D01*
X15365301Y-13438008D02*
X15384348Y-13428484D01*
X15641491Y-13628484D02*
X15527206Y-13628484D01*
X15584348Y-13628484D02*
X15584348Y-13428484D01*
X15584348Y-13428484D02*
X15565301Y-13457055D01*
X15565301Y-13457055D02*
X15546253Y-13476103D01*
X15546253Y-13476103D02*
X15527206Y-13485627D01*
X15822444Y-13428484D02*
X15727206Y-13428484D01*
X15727206Y-13428484D02*
X15717682Y-13523722D01*
X15717682Y-13523722D02*
X15727206Y-13514198D01*
X15727206Y-13514198D02*
X15746253Y-13504674D01*
X15746253Y-13504674D02*
X15793872Y-13504674D01*
X15793872Y-13504674D02*
X15812920Y-13514198D01*
X15812920Y-13514198D02*
X15822444Y-13523722D01*
X15822444Y-13523722D02*
X15831967Y-13542769D01*
X15831967Y-13542769D02*
X15831967Y-13590388D01*
X15831967Y-13590388D02*
X15822444Y-13609436D01*
X15822444Y-13609436D02*
X15812920Y-13618960D01*
X15812920Y-13618960D02*
X15793872Y-13628484D01*
X15793872Y-13628484D02*
X15746253Y-13628484D01*
X15746253Y-13628484D02*
X15727206Y-13618960D01*
X15727206Y-13618960D02*
X15717682Y-13609436D01*
X15898634Y-13428484D02*
X16031967Y-13428484D01*
X16031967Y-13428484D02*
X15946253Y-13628484D01*
X16098634Y-13428484D02*
X16098634Y-13466579D01*
X16174825Y-13428484D02*
X16174825Y-13466579D01*
X16470063Y-13704674D02*
X16460539Y-13695150D01*
X16460539Y-13695150D02*
X16441491Y-13666579D01*
X16441491Y-13666579D02*
X16431968Y-13647531D01*
X16431968Y-13647531D02*
X16422444Y-13618960D01*
X16422444Y-13618960D02*
X16412920Y-13571341D01*
X16412920Y-13571341D02*
X16412920Y-13533246D01*
X16412920Y-13533246D02*
X16422444Y-13485627D01*
X16422444Y-13485627D02*
X16431968Y-13457055D01*
X16431968Y-13457055D02*
X16441491Y-13438008D01*
X16441491Y-13438008D02*
X16460539Y-13409436D01*
X16460539Y-13409436D02*
X16470063Y-13399912D01*
X16536729Y-13447531D02*
X16546253Y-13438008D01*
X16546253Y-13438008D02*
X16565301Y-13428484D01*
X16565301Y-13428484D02*
X16612920Y-13428484D01*
X16612920Y-13428484D02*
X16631968Y-13438008D01*
X16631968Y-13438008D02*
X16641491Y-13447531D01*
X16641491Y-13447531D02*
X16651015Y-13466579D01*
X16651015Y-13466579D02*
X16651015Y-13485627D01*
X16651015Y-13485627D02*
X16641491Y-13514198D01*
X16641491Y-13514198D02*
X16527206Y-13628484D01*
X16527206Y-13628484D02*
X16651015Y-13628484D01*
X16889111Y-13628484D02*
X16889111Y-13428484D01*
X16974825Y-13628484D02*
X16974825Y-13523722D01*
X16974825Y-13523722D02*
X16965301Y-13504674D01*
X16965301Y-13504674D02*
X16946253Y-13495150D01*
X16946253Y-13495150D02*
X16917682Y-13495150D01*
X16917682Y-13495150D02*
X16898634Y-13504674D01*
X16898634Y-13504674D02*
X16889111Y-13514198D01*
X17098634Y-13628484D02*
X17079587Y-13618960D01*
X17079587Y-13618960D02*
X17070063Y-13609436D01*
X17070063Y-13609436D02*
X17060539Y-13590388D01*
X17060539Y-13590388D02*
X17060539Y-13533246D01*
X17060539Y-13533246D02*
X17070063Y-13514198D01*
X17070063Y-13514198D02*
X17079587Y-13504674D01*
X17079587Y-13504674D02*
X17098634Y-13495150D01*
X17098634Y-13495150D02*
X17127206Y-13495150D01*
X17127206Y-13495150D02*
X17146253Y-13504674D01*
X17146253Y-13504674D02*
X17155777Y-13514198D01*
X17155777Y-13514198D02*
X17165301Y-13533246D01*
X17165301Y-13533246D02*
X17165301Y-13590388D01*
X17165301Y-13590388D02*
X17155777Y-13609436D01*
X17155777Y-13609436D02*
X17146253Y-13618960D01*
X17146253Y-13618960D02*
X17127206Y-13628484D01*
X17127206Y-13628484D02*
X17098634Y-13628484D01*
X17279587Y-13628484D02*
X17260539Y-13618960D01*
X17260539Y-13618960D02*
X17251015Y-13599912D01*
X17251015Y-13599912D02*
X17251015Y-13428484D01*
X17431968Y-13618960D02*
X17412920Y-13628484D01*
X17412920Y-13628484D02*
X17374825Y-13628484D01*
X17374825Y-13628484D02*
X17355777Y-13618960D01*
X17355777Y-13618960D02*
X17346253Y-13599912D01*
X17346253Y-13599912D02*
X17346253Y-13523722D01*
X17346253Y-13523722D02*
X17355777Y-13504674D01*
X17355777Y-13504674D02*
X17374825Y-13495150D01*
X17374825Y-13495150D02*
X17412920Y-13495150D01*
X17412920Y-13495150D02*
X17431968Y-13504674D01*
X17431968Y-13504674D02*
X17441492Y-13523722D01*
X17441492Y-13523722D02*
X17441492Y-13542769D01*
X17441492Y-13542769D02*
X17346253Y-13561817D01*
X17517682Y-13618960D02*
X17536730Y-13628484D01*
X17536730Y-13628484D02*
X17574825Y-13628484D01*
X17574825Y-13628484D02*
X17593873Y-13618960D01*
X17593873Y-13618960D02*
X17603396Y-13599912D01*
X17603396Y-13599912D02*
X17603396Y-13590388D01*
X17603396Y-13590388D02*
X17593873Y-13571341D01*
X17593873Y-13571341D02*
X17574825Y-13561817D01*
X17574825Y-13561817D02*
X17546253Y-13561817D01*
X17546253Y-13561817D02*
X17527206Y-13552293D01*
X17527206Y-13552293D02*
X17517682Y-13533246D01*
X17517682Y-13533246D02*
X17517682Y-13523722D01*
X17517682Y-13523722D02*
X17527206Y-13504674D01*
X17527206Y-13504674D02*
X17546253Y-13495150D01*
X17546253Y-13495150D02*
X17574825Y-13495150D01*
X17574825Y-13495150D02*
X17593873Y-13504674D01*
X17670063Y-13704674D02*
X17679587Y-13695150D01*
X17679587Y-13695150D02*
X17698634Y-13666579D01*
X17698634Y-13666579D02*
X17708158Y-13647531D01*
X17708158Y-13647531D02*
X17717682Y-13618960D01*
X17717682Y-13618960D02*
X17727206Y-13571341D01*
X17727206Y-13571341D02*
X17727206Y-13533246D01*
X17727206Y-13533246D02*
X17717682Y-13485627D01*
X17717682Y-13485627D02*
X17708158Y-13457055D01*
X17708158Y-13457055D02*
X17698634Y-13438008D01*
X17698634Y-13438008D02*
X17679587Y-13409436D01*
X17679587Y-13409436D02*
X17670063Y-13399912D01*
D16*
X12865000Y-13831000D02*
X12895000Y-13801000D01*
X12865000Y-13771000D01*
X12835000Y-13801000D01*
X12865000Y-13831000D01*
D11*
X13193872Y-13692484D02*
X13212920Y-13692484D01*
X13212920Y-13692484D02*
X13231967Y-13702008D01*
X13231967Y-13702008D02*
X13241491Y-13711531D01*
X13241491Y-13711531D02*
X13251015Y-13730579D01*
X13251015Y-13730579D02*
X13260539Y-13768674D01*
X13260539Y-13768674D02*
X13260539Y-13816293D01*
X13260539Y-13816293D02*
X13251015Y-13854388D01*
X13251015Y-13854388D02*
X13241491Y-13873436D01*
X13241491Y-13873436D02*
X13231967Y-13882960D01*
X13231967Y-13882960D02*
X13212920Y-13892484D01*
X13212920Y-13892484D02*
X13193872Y-13892484D01*
X13193872Y-13892484D02*
X13174824Y-13882960D01*
X13174824Y-13882960D02*
X13165301Y-13873436D01*
X13165301Y-13873436D02*
X13155777Y-13854388D01*
X13155777Y-13854388D02*
X13146253Y-13816293D01*
X13146253Y-13816293D02*
X13146253Y-13768674D01*
X13146253Y-13768674D02*
X13155777Y-13730579D01*
X13155777Y-13730579D02*
X13165301Y-13711531D01*
X13165301Y-13711531D02*
X13174824Y-13702008D01*
X13174824Y-13702008D02*
X13193872Y-13692484D01*
X13346253Y-13873436D02*
X13355777Y-13882960D01*
X13355777Y-13882960D02*
X13346253Y-13892484D01*
X13346253Y-13892484D02*
X13336729Y-13882960D01*
X13336729Y-13882960D02*
X13346253Y-13873436D01*
X13346253Y-13873436D02*
X13346253Y-13892484D01*
X13527205Y-13692484D02*
X13489110Y-13692484D01*
X13489110Y-13692484D02*
X13470062Y-13702008D01*
X13470062Y-13702008D02*
X13460539Y-13711531D01*
X13460539Y-13711531D02*
X13441491Y-13740103D01*
X13441491Y-13740103D02*
X13431967Y-13778198D01*
X13431967Y-13778198D02*
X13431967Y-13854388D01*
X13431967Y-13854388D02*
X13441491Y-13873436D01*
X13441491Y-13873436D02*
X13451015Y-13882960D01*
X13451015Y-13882960D02*
X13470062Y-13892484D01*
X13470062Y-13892484D02*
X13508158Y-13892484D01*
X13508158Y-13892484D02*
X13527205Y-13882960D01*
X13527205Y-13882960D02*
X13536729Y-13873436D01*
X13536729Y-13873436D02*
X13546253Y-13854388D01*
X13546253Y-13854388D02*
X13546253Y-13806769D01*
X13546253Y-13806769D02*
X13536729Y-13787722D01*
X13536729Y-13787722D02*
X13527205Y-13778198D01*
X13527205Y-13778198D02*
X13508158Y-13768674D01*
X13508158Y-13768674D02*
X13470062Y-13768674D01*
X13470062Y-13768674D02*
X13451015Y-13778198D01*
X13451015Y-13778198D02*
X13441491Y-13787722D01*
X13441491Y-13787722D02*
X13431967Y-13806769D01*
X13670062Y-13692484D02*
X13689110Y-13692484D01*
X13689110Y-13692484D02*
X13708158Y-13702008D01*
X13708158Y-13702008D02*
X13717682Y-13711531D01*
X13717682Y-13711531D02*
X13727205Y-13730579D01*
X13727205Y-13730579D02*
X13736729Y-13768674D01*
X13736729Y-13768674D02*
X13736729Y-13816293D01*
X13736729Y-13816293D02*
X13727205Y-13854388D01*
X13727205Y-13854388D02*
X13717682Y-13873436D01*
X13717682Y-13873436D02*
X13708158Y-13882960D01*
X13708158Y-13882960D02*
X13689110Y-13892484D01*
X13689110Y-13892484D02*
X13670062Y-13892484D01*
X13670062Y-13892484D02*
X13651015Y-13882960D01*
X13651015Y-13882960D02*
X13641491Y-13873436D01*
X13641491Y-13873436D02*
X13631967Y-13854388D01*
X13631967Y-13854388D02*
X13622443Y-13816293D01*
X13622443Y-13816293D02*
X13622443Y-13768674D01*
X13622443Y-13768674D02*
X13631967Y-13730579D01*
X13631967Y-13730579D02*
X13641491Y-13711531D01*
X13641491Y-13711531D02*
X13651015Y-13702008D01*
X13651015Y-13702008D02*
X13670062Y-13692484D01*
X13860539Y-13692484D02*
X13879586Y-13692484D01*
X13879586Y-13692484D02*
X13898634Y-13702008D01*
X13898634Y-13702008D02*
X13908158Y-13711531D01*
X13908158Y-13711531D02*
X13917682Y-13730579D01*
X13917682Y-13730579D02*
X13927205Y-13768674D01*
X13927205Y-13768674D02*
X13927205Y-13816293D01*
X13927205Y-13816293D02*
X13917682Y-13854388D01*
X13917682Y-13854388D02*
X13908158Y-13873436D01*
X13908158Y-13873436D02*
X13898634Y-13882960D01*
X13898634Y-13882960D02*
X13879586Y-13892484D01*
X13879586Y-13892484D02*
X13860539Y-13892484D01*
X13860539Y-13892484D02*
X13841491Y-13882960D01*
X13841491Y-13882960D02*
X13831967Y-13873436D01*
X13831967Y-13873436D02*
X13822443Y-13854388D01*
X13822443Y-13854388D02*
X13812920Y-13816293D01*
X13812920Y-13816293D02*
X13812920Y-13768674D01*
X13812920Y-13768674D02*
X13822443Y-13730579D01*
X13822443Y-13730579D02*
X13831967Y-13711531D01*
X13831967Y-13711531D02*
X13841491Y-13702008D01*
X13841491Y-13702008D02*
X13860539Y-13692484D01*
X14012920Y-13892484D02*
X14012920Y-13759150D01*
X14012920Y-13778198D02*
X14022443Y-13768674D01*
X14022443Y-13768674D02*
X14041491Y-13759150D01*
X14041491Y-13759150D02*
X14070063Y-13759150D01*
X14070063Y-13759150D02*
X14089110Y-13768674D01*
X14089110Y-13768674D02*
X14098634Y-13787722D01*
X14098634Y-13787722D02*
X14098634Y-13892484D01*
X14098634Y-13787722D02*
X14108158Y-13768674D01*
X14108158Y-13768674D02*
X14127205Y-13759150D01*
X14127205Y-13759150D02*
X14155777Y-13759150D01*
X14155777Y-13759150D02*
X14174824Y-13768674D01*
X14174824Y-13768674D02*
X14184348Y-13787722D01*
X14184348Y-13787722D02*
X14184348Y-13892484D01*
X14279586Y-13892484D02*
X14279586Y-13759150D01*
X14279586Y-13778198D02*
X14289110Y-13768674D01*
X14289110Y-13768674D02*
X14308158Y-13759150D01*
X14308158Y-13759150D02*
X14336729Y-13759150D01*
X14336729Y-13759150D02*
X14355777Y-13768674D01*
X14355777Y-13768674D02*
X14365301Y-13787722D01*
X14365301Y-13787722D02*
X14365301Y-13892484D01*
X14365301Y-13787722D02*
X14374824Y-13768674D01*
X14374824Y-13768674D02*
X14393872Y-13759150D01*
X14393872Y-13759150D02*
X14422443Y-13759150D01*
X14422443Y-13759150D02*
X14441491Y-13768674D01*
X14441491Y-13768674D02*
X14451015Y-13787722D01*
X14451015Y-13787722D02*
X14451015Y-13892484D01*
X14841491Y-13682960D02*
X14670063Y-13940103D01*
X15098634Y-13692484D02*
X15117682Y-13692484D01*
X15117682Y-13692484D02*
X15136729Y-13702008D01*
X15136729Y-13702008D02*
X15146253Y-13711531D01*
X15146253Y-13711531D02*
X15155777Y-13730579D01*
X15155777Y-13730579D02*
X15165301Y-13768674D01*
X15165301Y-13768674D02*
X15165301Y-13816293D01*
X15165301Y-13816293D02*
X15155777Y-13854388D01*
X15155777Y-13854388D02*
X15146253Y-13873436D01*
X15146253Y-13873436D02*
X15136729Y-13882960D01*
X15136729Y-13882960D02*
X15117682Y-13892484D01*
X15117682Y-13892484D02*
X15098634Y-13892484D01*
X15098634Y-13892484D02*
X15079586Y-13882960D01*
X15079586Y-13882960D02*
X15070063Y-13873436D01*
X15070063Y-13873436D02*
X15060539Y-13854388D01*
X15060539Y-13854388D02*
X15051015Y-13816293D01*
X15051015Y-13816293D02*
X15051015Y-13768674D01*
X15051015Y-13768674D02*
X15060539Y-13730579D01*
X15060539Y-13730579D02*
X15070063Y-13711531D01*
X15070063Y-13711531D02*
X15079586Y-13702008D01*
X15079586Y-13702008D02*
X15098634Y-13692484D01*
X15251015Y-13873436D02*
X15260539Y-13882960D01*
X15260539Y-13882960D02*
X15251015Y-13892484D01*
X15251015Y-13892484D02*
X15241491Y-13882960D01*
X15241491Y-13882960D02*
X15251015Y-13873436D01*
X15251015Y-13873436D02*
X15251015Y-13892484D01*
X15384348Y-13692484D02*
X15403396Y-13692484D01*
X15403396Y-13692484D02*
X15422444Y-13702008D01*
X15422444Y-13702008D02*
X15431967Y-13711531D01*
X15431967Y-13711531D02*
X15441491Y-13730579D01*
X15441491Y-13730579D02*
X15451015Y-13768674D01*
X15451015Y-13768674D02*
X15451015Y-13816293D01*
X15451015Y-13816293D02*
X15441491Y-13854388D01*
X15441491Y-13854388D02*
X15431967Y-13873436D01*
X15431967Y-13873436D02*
X15422444Y-13882960D01*
X15422444Y-13882960D02*
X15403396Y-13892484D01*
X15403396Y-13892484D02*
X15384348Y-13892484D01*
X15384348Y-13892484D02*
X15365301Y-13882960D01*
X15365301Y-13882960D02*
X15355777Y-13873436D01*
X15355777Y-13873436D02*
X15346253Y-13854388D01*
X15346253Y-13854388D02*
X15336729Y-13816293D01*
X15336729Y-13816293D02*
X15336729Y-13768674D01*
X15336729Y-13768674D02*
X15346253Y-13730579D01*
X15346253Y-13730579D02*
X15355777Y-13711531D01*
X15355777Y-13711531D02*
X15365301Y-13702008D01*
X15365301Y-13702008D02*
X15384348Y-13692484D01*
X15527206Y-13711531D02*
X15536729Y-13702008D01*
X15536729Y-13702008D02*
X15555777Y-13692484D01*
X15555777Y-13692484D02*
X15603396Y-13692484D01*
X15603396Y-13692484D02*
X15622444Y-13702008D01*
X15622444Y-13702008D02*
X15631967Y-13711531D01*
X15631967Y-13711531D02*
X15641491Y-13730579D01*
X15641491Y-13730579D02*
X15641491Y-13749627D01*
X15641491Y-13749627D02*
X15631967Y-13778198D01*
X15631967Y-13778198D02*
X15517682Y-13892484D01*
X15517682Y-13892484D02*
X15641491Y-13892484D01*
X15708158Y-13692484D02*
X15831967Y-13692484D01*
X15831967Y-13692484D02*
X15765301Y-13768674D01*
X15765301Y-13768674D02*
X15793872Y-13768674D01*
X15793872Y-13768674D02*
X15812920Y-13778198D01*
X15812920Y-13778198D02*
X15822444Y-13787722D01*
X15822444Y-13787722D02*
X15831967Y-13806769D01*
X15831967Y-13806769D02*
X15831967Y-13854388D01*
X15831967Y-13854388D02*
X15822444Y-13873436D01*
X15822444Y-13873436D02*
X15812920Y-13882960D01*
X15812920Y-13882960D02*
X15793872Y-13892484D01*
X15793872Y-13892484D02*
X15736729Y-13892484D01*
X15736729Y-13892484D02*
X15717682Y-13882960D01*
X15717682Y-13882960D02*
X15708158Y-13873436D01*
X16003396Y-13692484D02*
X15965301Y-13692484D01*
X15965301Y-13692484D02*
X15946253Y-13702008D01*
X15946253Y-13702008D02*
X15936729Y-13711531D01*
X15936729Y-13711531D02*
X15917682Y-13740103D01*
X15917682Y-13740103D02*
X15908158Y-13778198D01*
X15908158Y-13778198D02*
X15908158Y-13854388D01*
X15908158Y-13854388D02*
X15917682Y-13873436D01*
X15917682Y-13873436D02*
X15927206Y-13882960D01*
X15927206Y-13882960D02*
X15946253Y-13892484D01*
X15946253Y-13892484D02*
X15984348Y-13892484D01*
X15984348Y-13892484D02*
X16003396Y-13882960D01*
X16003396Y-13882960D02*
X16012920Y-13873436D01*
X16012920Y-13873436D02*
X16022444Y-13854388D01*
X16022444Y-13854388D02*
X16022444Y-13806769D01*
X16022444Y-13806769D02*
X16012920Y-13787722D01*
X16012920Y-13787722D02*
X16003396Y-13778198D01*
X16003396Y-13778198D02*
X15984348Y-13768674D01*
X15984348Y-13768674D02*
X15946253Y-13768674D01*
X15946253Y-13768674D02*
X15927206Y-13778198D01*
X15927206Y-13778198D02*
X15917682Y-13787722D01*
X15917682Y-13787722D02*
X15908158Y-13806769D01*
X16098634Y-13692484D02*
X16098634Y-13730579D01*
X16174825Y-13692484D02*
X16174825Y-13730579D01*
X16470063Y-13968674D02*
X16460539Y-13959150D01*
X16460539Y-13959150D02*
X16441491Y-13930579D01*
X16441491Y-13930579D02*
X16431968Y-13911531D01*
X16431968Y-13911531D02*
X16422444Y-13882960D01*
X16422444Y-13882960D02*
X16412920Y-13835341D01*
X16412920Y-13835341D02*
X16412920Y-13797246D01*
X16412920Y-13797246D02*
X16422444Y-13749627D01*
X16422444Y-13749627D02*
X16431968Y-13721055D01*
X16431968Y-13721055D02*
X16441491Y-13702008D01*
X16441491Y-13702008D02*
X16460539Y-13673436D01*
X16460539Y-13673436D02*
X16470063Y-13663912D01*
X16584348Y-13692484D02*
X16603396Y-13692484D01*
X16603396Y-13692484D02*
X16622444Y-13702008D01*
X16622444Y-13702008D02*
X16631968Y-13711531D01*
X16631968Y-13711531D02*
X16641491Y-13730579D01*
X16641491Y-13730579D02*
X16651015Y-13768674D01*
X16651015Y-13768674D02*
X16651015Y-13816293D01*
X16651015Y-13816293D02*
X16641491Y-13854388D01*
X16641491Y-13854388D02*
X16631968Y-13873436D01*
X16631968Y-13873436D02*
X16622444Y-13882960D01*
X16622444Y-13882960D02*
X16603396Y-13892484D01*
X16603396Y-13892484D02*
X16584348Y-13892484D01*
X16584348Y-13892484D02*
X16565301Y-13882960D01*
X16565301Y-13882960D02*
X16555777Y-13873436D01*
X16555777Y-13873436D02*
X16546253Y-13854388D01*
X16546253Y-13854388D02*
X16536729Y-13816293D01*
X16536729Y-13816293D02*
X16536729Y-13768674D01*
X16536729Y-13768674D02*
X16546253Y-13730579D01*
X16546253Y-13730579D02*
X16555777Y-13711531D01*
X16555777Y-13711531D02*
X16565301Y-13702008D01*
X16565301Y-13702008D02*
X16584348Y-13692484D01*
X16889111Y-13892484D02*
X16889111Y-13692484D01*
X16974825Y-13892484D02*
X16974825Y-13787722D01*
X16974825Y-13787722D02*
X16965301Y-13768674D01*
X16965301Y-13768674D02*
X16946253Y-13759150D01*
X16946253Y-13759150D02*
X16917682Y-13759150D01*
X16917682Y-13759150D02*
X16898634Y-13768674D01*
X16898634Y-13768674D02*
X16889111Y-13778198D01*
X17098634Y-13892484D02*
X17079587Y-13882960D01*
X17079587Y-13882960D02*
X17070063Y-13873436D01*
X17070063Y-13873436D02*
X17060539Y-13854388D01*
X17060539Y-13854388D02*
X17060539Y-13797246D01*
X17060539Y-13797246D02*
X17070063Y-13778198D01*
X17070063Y-13778198D02*
X17079587Y-13768674D01*
X17079587Y-13768674D02*
X17098634Y-13759150D01*
X17098634Y-13759150D02*
X17127206Y-13759150D01*
X17127206Y-13759150D02*
X17146253Y-13768674D01*
X17146253Y-13768674D02*
X17155777Y-13778198D01*
X17155777Y-13778198D02*
X17165301Y-13797246D01*
X17165301Y-13797246D02*
X17165301Y-13854388D01*
X17165301Y-13854388D02*
X17155777Y-13873436D01*
X17155777Y-13873436D02*
X17146253Y-13882960D01*
X17146253Y-13882960D02*
X17127206Y-13892484D01*
X17127206Y-13892484D02*
X17098634Y-13892484D01*
X17279587Y-13892484D02*
X17260539Y-13882960D01*
X17260539Y-13882960D02*
X17251015Y-13863912D01*
X17251015Y-13863912D02*
X17251015Y-13692484D01*
X17431968Y-13882960D02*
X17412920Y-13892484D01*
X17412920Y-13892484D02*
X17374825Y-13892484D01*
X17374825Y-13892484D02*
X17355777Y-13882960D01*
X17355777Y-13882960D02*
X17346253Y-13863912D01*
X17346253Y-13863912D02*
X17346253Y-13787722D01*
X17346253Y-13787722D02*
X17355777Y-13768674D01*
X17355777Y-13768674D02*
X17374825Y-13759150D01*
X17374825Y-13759150D02*
X17412920Y-13759150D01*
X17412920Y-13759150D02*
X17431968Y-13768674D01*
X17431968Y-13768674D02*
X17441492Y-13787722D01*
X17441492Y-13787722D02*
X17441492Y-13806769D01*
X17441492Y-13806769D02*
X17346253Y-13825817D01*
X17517682Y-13882960D02*
X17536730Y-13892484D01*
X17536730Y-13892484D02*
X17574825Y-13892484D01*
X17574825Y-13892484D02*
X17593873Y-13882960D01*
X17593873Y-13882960D02*
X17603396Y-13863912D01*
X17603396Y-13863912D02*
X17603396Y-13854388D01*
X17603396Y-13854388D02*
X17593873Y-13835341D01*
X17593873Y-13835341D02*
X17574825Y-13825817D01*
X17574825Y-13825817D02*
X17546253Y-13825817D01*
X17546253Y-13825817D02*
X17527206Y-13816293D01*
X17527206Y-13816293D02*
X17517682Y-13797246D01*
X17517682Y-13797246D02*
X17517682Y-13787722D01*
X17517682Y-13787722D02*
X17527206Y-13768674D01*
X17527206Y-13768674D02*
X17546253Y-13759150D01*
X17546253Y-13759150D02*
X17574825Y-13759150D01*
X17574825Y-13759150D02*
X17593873Y-13768674D01*
X17841492Y-13816293D02*
X17993873Y-13816293D01*
X17917682Y-13892484D02*
X17917682Y-13740103D01*
X18327206Y-13759150D02*
X18327206Y-13892484D01*
X18279587Y-13682960D02*
X18231968Y-13825817D01*
X18231968Y-13825817D02*
X18355777Y-13825817D01*
X18574825Y-13882960D02*
X18593873Y-13892484D01*
X18593873Y-13892484D02*
X18631968Y-13892484D01*
X18631968Y-13892484D02*
X18651016Y-13882960D01*
X18651016Y-13882960D02*
X18660539Y-13863912D01*
X18660539Y-13863912D02*
X18660539Y-13854388D01*
X18660539Y-13854388D02*
X18651016Y-13835341D01*
X18651016Y-13835341D02*
X18631968Y-13825817D01*
X18631968Y-13825817D02*
X18603396Y-13825817D01*
X18603396Y-13825817D02*
X18584349Y-13816293D01*
X18584349Y-13816293D02*
X18574825Y-13797246D01*
X18574825Y-13797246D02*
X18574825Y-13787722D01*
X18574825Y-13787722D02*
X18584349Y-13768674D01*
X18584349Y-13768674D02*
X18603396Y-13759150D01*
X18603396Y-13759150D02*
X18631968Y-13759150D01*
X18631968Y-13759150D02*
X18651016Y-13768674D01*
X18774825Y-13892484D02*
X18755777Y-13882960D01*
X18755777Y-13882960D02*
X18746254Y-13863912D01*
X18746254Y-13863912D02*
X18746254Y-13692484D01*
X18879587Y-13892484D02*
X18860539Y-13882960D01*
X18860539Y-13882960D02*
X18851016Y-13873436D01*
X18851016Y-13873436D02*
X18841492Y-13854388D01*
X18841492Y-13854388D02*
X18841492Y-13797246D01*
X18841492Y-13797246D02*
X18851016Y-13778198D01*
X18851016Y-13778198D02*
X18860539Y-13768674D01*
X18860539Y-13768674D02*
X18879587Y-13759150D01*
X18879587Y-13759150D02*
X18908158Y-13759150D01*
X18908158Y-13759150D02*
X18927206Y-13768674D01*
X18927206Y-13768674D02*
X18936730Y-13778198D01*
X18936730Y-13778198D02*
X18946254Y-13797246D01*
X18946254Y-13797246D02*
X18946254Y-13854388D01*
X18946254Y-13854388D02*
X18936730Y-13873436D01*
X18936730Y-13873436D02*
X18927206Y-13882960D01*
X18927206Y-13882960D02*
X18908158Y-13892484D01*
X18908158Y-13892484D02*
X18879587Y-13892484D01*
X19003397Y-13759150D02*
X19079587Y-13759150D01*
X19031968Y-13692484D02*
X19031968Y-13863912D01*
X19031968Y-13863912D02*
X19041492Y-13882960D01*
X19041492Y-13882960D02*
X19060539Y-13892484D01*
X19060539Y-13892484D02*
X19079587Y-13892484D01*
X19136730Y-13882960D02*
X19155777Y-13892484D01*
X19155777Y-13892484D02*
X19193873Y-13892484D01*
X19193873Y-13892484D02*
X19212920Y-13882960D01*
X19212920Y-13882960D02*
X19222444Y-13863912D01*
X19222444Y-13863912D02*
X19222444Y-13854388D01*
X19222444Y-13854388D02*
X19212920Y-13835341D01*
X19212920Y-13835341D02*
X19193873Y-13825817D01*
X19193873Y-13825817D02*
X19165301Y-13825817D01*
X19165301Y-13825817D02*
X19146254Y-13816293D01*
X19146254Y-13816293D02*
X19136730Y-13797246D01*
X19136730Y-13797246D02*
X19136730Y-13787722D01*
X19136730Y-13787722D02*
X19146254Y-13768674D01*
X19146254Y-13768674D02*
X19165301Y-13759150D01*
X19165301Y-13759150D02*
X19193873Y-13759150D01*
X19193873Y-13759150D02*
X19212920Y-13768674D01*
X19289111Y-13968674D02*
X19298635Y-13959150D01*
X19298635Y-13959150D02*
X19317682Y-13930579D01*
X19317682Y-13930579D02*
X19327206Y-13911531D01*
X19327206Y-13911531D02*
X19336730Y-13882960D01*
X19336730Y-13882960D02*
X19346254Y-13835341D01*
X19346254Y-13835341D02*
X19346254Y-13797246D01*
X19346254Y-13797246D02*
X19336730Y-13749627D01*
X19336730Y-13749627D02*
X19327206Y-13721055D01*
X19327206Y-13721055D02*
X19317682Y-13702008D01*
X19317682Y-13702008D02*
X19298635Y-13673436D01*
X19298635Y-13673436D02*
X19289111Y-13663912D01*
D17*
X12830000Y-14032500D02*
X12895000Y-14097500D01*
X12895000Y-14032500D02*
X12830000Y-14097500D01*
X12895000Y-14065000D02*
G75*
G03*
X12895000Y-14065000I-32500J0D01*
G01*
D11*
X13193872Y-13956484D02*
X13212920Y-13956484D01*
X13212920Y-13956484D02*
X13231967Y-13966008D01*
X13231967Y-13966008D02*
X13241491Y-13975531D01*
X13241491Y-13975531D02*
X13251015Y-13994579D01*
X13251015Y-13994579D02*
X13260539Y-14032674D01*
X13260539Y-14032674D02*
X13260539Y-14080293D01*
X13260539Y-14080293D02*
X13251015Y-14118388D01*
X13251015Y-14118388D02*
X13241491Y-14137436D01*
X13241491Y-14137436D02*
X13231967Y-14146960D01*
X13231967Y-14146960D02*
X13212920Y-14156484D01*
X13212920Y-14156484D02*
X13193872Y-14156484D01*
X13193872Y-14156484D02*
X13174824Y-14146960D01*
X13174824Y-14146960D02*
X13165301Y-14137436D01*
X13165301Y-14137436D02*
X13155777Y-14118388D01*
X13155777Y-14118388D02*
X13146253Y-14080293D01*
X13146253Y-14080293D02*
X13146253Y-14032674D01*
X13146253Y-14032674D02*
X13155777Y-13994579D01*
X13155777Y-13994579D02*
X13165301Y-13975531D01*
X13165301Y-13975531D02*
X13174824Y-13966008D01*
X13174824Y-13966008D02*
X13193872Y-13956484D01*
X13346253Y-14137436D02*
X13355777Y-14146960D01*
X13355777Y-14146960D02*
X13346253Y-14156484D01*
X13346253Y-14156484D02*
X13336729Y-14146960D01*
X13336729Y-14146960D02*
X13346253Y-14137436D01*
X13346253Y-14137436D02*
X13346253Y-14156484D01*
X13527205Y-13956484D02*
X13489110Y-13956484D01*
X13489110Y-13956484D02*
X13470062Y-13966008D01*
X13470062Y-13966008D02*
X13460539Y-13975531D01*
X13460539Y-13975531D02*
X13441491Y-14004103D01*
X13441491Y-14004103D02*
X13431967Y-14042198D01*
X13431967Y-14042198D02*
X13431967Y-14118388D01*
X13431967Y-14118388D02*
X13441491Y-14137436D01*
X13441491Y-14137436D02*
X13451015Y-14146960D01*
X13451015Y-14146960D02*
X13470062Y-14156484D01*
X13470062Y-14156484D02*
X13508158Y-14156484D01*
X13508158Y-14156484D02*
X13527205Y-14146960D01*
X13527205Y-14146960D02*
X13536729Y-14137436D01*
X13536729Y-14137436D02*
X13546253Y-14118388D01*
X13546253Y-14118388D02*
X13546253Y-14070769D01*
X13546253Y-14070769D02*
X13536729Y-14051722D01*
X13536729Y-14051722D02*
X13527205Y-14042198D01*
X13527205Y-14042198D02*
X13508158Y-14032674D01*
X13508158Y-14032674D02*
X13470062Y-14032674D01*
X13470062Y-14032674D02*
X13451015Y-14042198D01*
X13451015Y-14042198D02*
X13441491Y-14051722D01*
X13441491Y-14051722D02*
X13431967Y-14070769D01*
X13727205Y-13956484D02*
X13631967Y-13956484D01*
X13631967Y-13956484D02*
X13622443Y-14051722D01*
X13622443Y-14051722D02*
X13631967Y-14042198D01*
X13631967Y-14042198D02*
X13651015Y-14032674D01*
X13651015Y-14032674D02*
X13698634Y-14032674D01*
X13698634Y-14032674D02*
X13717682Y-14042198D01*
X13717682Y-14042198D02*
X13727205Y-14051722D01*
X13727205Y-14051722D02*
X13736729Y-14070769D01*
X13736729Y-14070769D02*
X13736729Y-14118388D01*
X13736729Y-14118388D02*
X13727205Y-14137436D01*
X13727205Y-14137436D02*
X13717682Y-14146960D01*
X13717682Y-14146960D02*
X13698634Y-14156484D01*
X13698634Y-14156484D02*
X13651015Y-14156484D01*
X13651015Y-14156484D02*
X13631967Y-14146960D01*
X13631967Y-14146960D02*
X13622443Y-14137436D01*
X13860539Y-13956484D02*
X13879586Y-13956484D01*
X13879586Y-13956484D02*
X13898634Y-13966008D01*
X13898634Y-13966008D02*
X13908158Y-13975531D01*
X13908158Y-13975531D02*
X13917682Y-13994579D01*
X13917682Y-13994579D02*
X13927205Y-14032674D01*
X13927205Y-14032674D02*
X13927205Y-14080293D01*
X13927205Y-14080293D02*
X13917682Y-14118388D01*
X13917682Y-14118388D02*
X13908158Y-14137436D01*
X13908158Y-14137436D02*
X13898634Y-14146960D01*
X13898634Y-14146960D02*
X13879586Y-14156484D01*
X13879586Y-14156484D02*
X13860539Y-14156484D01*
X13860539Y-14156484D02*
X13841491Y-14146960D01*
X13841491Y-14146960D02*
X13831967Y-14137436D01*
X13831967Y-14137436D02*
X13822443Y-14118388D01*
X13822443Y-14118388D02*
X13812920Y-14080293D01*
X13812920Y-14080293D02*
X13812920Y-14032674D01*
X13812920Y-14032674D02*
X13822443Y-13994579D01*
X13822443Y-13994579D02*
X13831967Y-13975531D01*
X13831967Y-13975531D02*
X13841491Y-13966008D01*
X13841491Y-13966008D02*
X13860539Y-13956484D01*
X14012920Y-14156484D02*
X14012920Y-14023150D01*
X14012920Y-14042198D02*
X14022443Y-14032674D01*
X14022443Y-14032674D02*
X14041491Y-14023150D01*
X14041491Y-14023150D02*
X14070063Y-14023150D01*
X14070063Y-14023150D02*
X14089110Y-14032674D01*
X14089110Y-14032674D02*
X14098634Y-14051722D01*
X14098634Y-14051722D02*
X14098634Y-14156484D01*
X14098634Y-14051722D02*
X14108158Y-14032674D01*
X14108158Y-14032674D02*
X14127205Y-14023150D01*
X14127205Y-14023150D02*
X14155777Y-14023150D01*
X14155777Y-14023150D02*
X14174824Y-14032674D01*
X14174824Y-14032674D02*
X14184348Y-14051722D01*
X14184348Y-14051722D02*
X14184348Y-14156484D01*
X14279586Y-14156484D02*
X14279586Y-14023150D01*
X14279586Y-14042198D02*
X14289110Y-14032674D01*
X14289110Y-14032674D02*
X14308158Y-14023150D01*
X14308158Y-14023150D02*
X14336729Y-14023150D01*
X14336729Y-14023150D02*
X14355777Y-14032674D01*
X14355777Y-14032674D02*
X14365301Y-14051722D01*
X14365301Y-14051722D02*
X14365301Y-14156484D01*
X14365301Y-14051722D02*
X14374824Y-14032674D01*
X14374824Y-14032674D02*
X14393872Y-14023150D01*
X14393872Y-14023150D02*
X14422443Y-14023150D01*
X14422443Y-14023150D02*
X14441491Y-14032674D01*
X14441491Y-14032674D02*
X14451015Y-14051722D01*
X14451015Y-14051722D02*
X14451015Y-14156484D01*
X14841491Y-13946960D02*
X14670063Y-14204103D01*
X15098634Y-13956484D02*
X15117682Y-13956484D01*
X15117682Y-13956484D02*
X15136729Y-13966008D01*
X15136729Y-13966008D02*
X15146253Y-13975531D01*
X15146253Y-13975531D02*
X15155777Y-13994579D01*
X15155777Y-13994579D02*
X15165301Y-14032674D01*
X15165301Y-14032674D02*
X15165301Y-14080293D01*
X15165301Y-14080293D02*
X15155777Y-14118388D01*
X15155777Y-14118388D02*
X15146253Y-14137436D01*
X15146253Y-14137436D02*
X15136729Y-14146960D01*
X15136729Y-14146960D02*
X15117682Y-14156484D01*
X15117682Y-14156484D02*
X15098634Y-14156484D01*
X15098634Y-14156484D02*
X15079586Y-14146960D01*
X15079586Y-14146960D02*
X15070063Y-14137436D01*
X15070063Y-14137436D02*
X15060539Y-14118388D01*
X15060539Y-14118388D02*
X15051015Y-14080293D01*
X15051015Y-14080293D02*
X15051015Y-14032674D01*
X15051015Y-14032674D02*
X15060539Y-13994579D01*
X15060539Y-13994579D02*
X15070063Y-13975531D01*
X15070063Y-13975531D02*
X15079586Y-13966008D01*
X15079586Y-13966008D02*
X15098634Y-13956484D01*
X15251015Y-14137436D02*
X15260539Y-14146960D01*
X15260539Y-14146960D02*
X15251015Y-14156484D01*
X15251015Y-14156484D02*
X15241491Y-14146960D01*
X15241491Y-14146960D02*
X15251015Y-14137436D01*
X15251015Y-14137436D02*
X15251015Y-14156484D01*
X15384348Y-13956484D02*
X15403396Y-13956484D01*
X15403396Y-13956484D02*
X15422444Y-13966008D01*
X15422444Y-13966008D02*
X15431967Y-13975531D01*
X15431967Y-13975531D02*
X15441491Y-13994579D01*
X15441491Y-13994579D02*
X15451015Y-14032674D01*
X15451015Y-14032674D02*
X15451015Y-14080293D01*
X15451015Y-14080293D02*
X15441491Y-14118388D01*
X15441491Y-14118388D02*
X15431967Y-14137436D01*
X15431967Y-14137436D02*
X15422444Y-14146960D01*
X15422444Y-14146960D02*
X15403396Y-14156484D01*
X15403396Y-14156484D02*
X15384348Y-14156484D01*
X15384348Y-14156484D02*
X15365301Y-14146960D01*
X15365301Y-14146960D02*
X15355777Y-14137436D01*
X15355777Y-14137436D02*
X15346253Y-14118388D01*
X15346253Y-14118388D02*
X15336729Y-14080293D01*
X15336729Y-14080293D02*
X15336729Y-14032674D01*
X15336729Y-14032674D02*
X15346253Y-13994579D01*
X15346253Y-13994579D02*
X15355777Y-13975531D01*
X15355777Y-13975531D02*
X15365301Y-13966008D01*
X15365301Y-13966008D02*
X15384348Y-13956484D01*
X15527206Y-13975531D02*
X15536729Y-13966008D01*
X15536729Y-13966008D02*
X15555777Y-13956484D01*
X15555777Y-13956484D02*
X15603396Y-13956484D01*
X15603396Y-13956484D02*
X15622444Y-13966008D01*
X15622444Y-13966008D02*
X15631967Y-13975531D01*
X15631967Y-13975531D02*
X15641491Y-13994579D01*
X15641491Y-13994579D02*
X15641491Y-14013627D01*
X15641491Y-14013627D02*
X15631967Y-14042198D01*
X15631967Y-14042198D02*
X15517682Y-14156484D01*
X15517682Y-14156484D02*
X15641491Y-14156484D01*
X15822444Y-13956484D02*
X15727206Y-13956484D01*
X15727206Y-13956484D02*
X15717682Y-14051722D01*
X15717682Y-14051722D02*
X15727206Y-14042198D01*
X15727206Y-14042198D02*
X15746253Y-14032674D01*
X15746253Y-14032674D02*
X15793872Y-14032674D01*
X15793872Y-14032674D02*
X15812920Y-14042198D01*
X15812920Y-14042198D02*
X15822444Y-14051722D01*
X15822444Y-14051722D02*
X15831967Y-14070769D01*
X15831967Y-14070769D02*
X15831967Y-14118388D01*
X15831967Y-14118388D02*
X15822444Y-14137436D01*
X15822444Y-14137436D02*
X15812920Y-14146960D01*
X15812920Y-14146960D02*
X15793872Y-14156484D01*
X15793872Y-14156484D02*
X15746253Y-14156484D01*
X15746253Y-14156484D02*
X15727206Y-14146960D01*
X15727206Y-14146960D02*
X15717682Y-14137436D01*
X16003396Y-13956484D02*
X15965301Y-13956484D01*
X15965301Y-13956484D02*
X15946253Y-13966008D01*
X15946253Y-13966008D02*
X15936729Y-13975531D01*
X15936729Y-13975531D02*
X15917682Y-14004103D01*
X15917682Y-14004103D02*
X15908158Y-14042198D01*
X15908158Y-14042198D02*
X15908158Y-14118388D01*
X15908158Y-14118388D02*
X15917682Y-14137436D01*
X15917682Y-14137436D02*
X15927206Y-14146960D01*
X15927206Y-14146960D02*
X15946253Y-14156484D01*
X15946253Y-14156484D02*
X15984348Y-14156484D01*
X15984348Y-14156484D02*
X16003396Y-14146960D01*
X16003396Y-14146960D02*
X16012920Y-14137436D01*
X16012920Y-14137436D02*
X16022444Y-14118388D01*
X16022444Y-14118388D02*
X16022444Y-14070769D01*
X16022444Y-14070769D02*
X16012920Y-14051722D01*
X16012920Y-14051722D02*
X16003396Y-14042198D01*
X16003396Y-14042198D02*
X15984348Y-14032674D01*
X15984348Y-14032674D02*
X15946253Y-14032674D01*
X15946253Y-14032674D02*
X15927206Y-14042198D01*
X15927206Y-14042198D02*
X15917682Y-14051722D01*
X15917682Y-14051722D02*
X15908158Y-14070769D01*
X16098634Y-13956484D02*
X16098634Y-13994579D01*
X16174825Y-13956484D02*
X16174825Y-13994579D01*
X16470063Y-14232674D02*
X16460539Y-14223150D01*
X16460539Y-14223150D02*
X16441491Y-14194579D01*
X16441491Y-14194579D02*
X16431968Y-14175531D01*
X16431968Y-14175531D02*
X16422444Y-14146960D01*
X16422444Y-14146960D02*
X16412920Y-14099341D01*
X16412920Y-14099341D02*
X16412920Y-14061246D01*
X16412920Y-14061246D02*
X16422444Y-14013627D01*
X16422444Y-14013627D02*
X16431968Y-13985055D01*
X16431968Y-13985055D02*
X16441491Y-13966008D01*
X16441491Y-13966008D02*
X16460539Y-13937436D01*
X16460539Y-13937436D02*
X16470063Y-13927912D01*
X16651015Y-14156484D02*
X16536729Y-14156484D01*
X16593872Y-14156484D02*
X16593872Y-13956484D01*
X16593872Y-13956484D02*
X16574825Y-13985055D01*
X16574825Y-13985055D02*
X16555777Y-14004103D01*
X16555777Y-14004103D02*
X16536729Y-14013627D01*
X16774825Y-13956484D02*
X16793872Y-13956484D01*
X16793872Y-13956484D02*
X16812920Y-13966008D01*
X16812920Y-13966008D02*
X16822444Y-13975531D01*
X16822444Y-13975531D02*
X16831968Y-13994579D01*
X16831968Y-13994579D02*
X16841491Y-14032674D01*
X16841491Y-14032674D02*
X16841491Y-14080293D01*
X16841491Y-14080293D02*
X16831968Y-14118388D01*
X16831968Y-14118388D02*
X16822444Y-14137436D01*
X16822444Y-14137436D02*
X16812920Y-14146960D01*
X16812920Y-14146960D02*
X16793872Y-14156484D01*
X16793872Y-14156484D02*
X16774825Y-14156484D01*
X16774825Y-14156484D02*
X16755777Y-14146960D01*
X16755777Y-14146960D02*
X16746253Y-14137436D01*
X16746253Y-14137436D02*
X16736729Y-14118388D01*
X16736729Y-14118388D02*
X16727206Y-14080293D01*
X16727206Y-14080293D02*
X16727206Y-14032674D01*
X16727206Y-14032674D02*
X16736729Y-13994579D01*
X16736729Y-13994579D02*
X16746253Y-13975531D01*
X16746253Y-13975531D02*
X16755777Y-13966008D01*
X16755777Y-13966008D02*
X16774825Y-13956484D01*
X17079587Y-14156484D02*
X17079587Y-13956484D01*
X17165301Y-14156484D02*
X17165301Y-14051722D01*
X17165301Y-14051722D02*
X17155777Y-14032674D01*
X17155777Y-14032674D02*
X17136730Y-14023150D01*
X17136730Y-14023150D02*
X17108158Y-14023150D01*
X17108158Y-14023150D02*
X17089111Y-14032674D01*
X17089111Y-14032674D02*
X17079587Y-14042198D01*
X17289111Y-14156484D02*
X17270063Y-14146960D01*
X17270063Y-14146960D02*
X17260539Y-14137436D01*
X17260539Y-14137436D02*
X17251015Y-14118388D01*
X17251015Y-14118388D02*
X17251015Y-14061246D01*
X17251015Y-14061246D02*
X17260539Y-14042198D01*
X17260539Y-14042198D02*
X17270063Y-14032674D01*
X17270063Y-14032674D02*
X17289111Y-14023150D01*
X17289111Y-14023150D02*
X17317682Y-14023150D01*
X17317682Y-14023150D02*
X17336730Y-14032674D01*
X17336730Y-14032674D02*
X17346253Y-14042198D01*
X17346253Y-14042198D02*
X17355777Y-14061246D01*
X17355777Y-14061246D02*
X17355777Y-14118388D01*
X17355777Y-14118388D02*
X17346253Y-14137436D01*
X17346253Y-14137436D02*
X17336730Y-14146960D01*
X17336730Y-14146960D02*
X17317682Y-14156484D01*
X17317682Y-14156484D02*
X17289111Y-14156484D01*
X17470063Y-14156484D02*
X17451015Y-14146960D01*
X17451015Y-14146960D02*
X17441492Y-14127912D01*
X17441492Y-14127912D02*
X17441492Y-13956484D01*
X17622444Y-14146960D02*
X17603396Y-14156484D01*
X17603396Y-14156484D02*
X17565301Y-14156484D01*
X17565301Y-14156484D02*
X17546253Y-14146960D01*
X17546253Y-14146960D02*
X17536730Y-14127912D01*
X17536730Y-14127912D02*
X17536730Y-14051722D01*
X17536730Y-14051722D02*
X17546253Y-14032674D01*
X17546253Y-14032674D02*
X17565301Y-14023150D01*
X17565301Y-14023150D02*
X17603396Y-14023150D01*
X17603396Y-14023150D02*
X17622444Y-14032674D01*
X17622444Y-14032674D02*
X17631968Y-14051722D01*
X17631968Y-14051722D02*
X17631968Y-14070769D01*
X17631968Y-14070769D02*
X17536730Y-14089817D01*
X17708158Y-14146960D02*
X17727206Y-14156484D01*
X17727206Y-14156484D02*
X17765301Y-14156484D01*
X17765301Y-14156484D02*
X17784349Y-14146960D01*
X17784349Y-14146960D02*
X17793873Y-14127912D01*
X17793873Y-14127912D02*
X17793873Y-14118388D01*
X17793873Y-14118388D02*
X17784349Y-14099341D01*
X17784349Y-14099341D02*
X17765301Y-14089817D01*
X17765301Y-14089817D02*
X17736730Y-14089817D01*
X17736730Y-14089817D02*
X17717682Y-14080293D01*
X17717682Y-14080293D02*
X17708158Y-14061246D01*
X17708158Y-14061246D02*
X17708158Y-14051722D01*
X17708158Y-14051722D02*
X17717682Y-14032674D01*
X17717682Y-14032674D02*
X17736730Y-14023150D01*
X17736730Y-14023150D02*
X17765301Y-14023150D01*
X17765301Y-14023150D02*
X17784349Y-14032674D01*
X17860539Y-14232674D02*
X17870063Y-14223150D01*
X17870063Y-14223150D02*
X17889111Y-14194579D01*
X17889111Y-14194579D02*
X17898634Y-14175531D01*
X17898634Y-14175531D02*
X17908158Y-14146960D01*
X17908158Y-14146960D02*
X17917682Y-14099341D01*
X17917682Y-14099341D02*
X17917682Y-14061246D01*
X17917682Y-14061246D02*
X17908158Y-14013627D01*
X17908158Y-14013627D02*
X17898634Y-13985055D01*
X17898634Y-13985055D02*
X17889111Y-13966008D01*
X17889111Y-13966008D02*
X17870063Y-13937436D01*
X17870063Y-13937436D02*
X17860539Y-13927912D01*
D18*
X12820000Y-14291500D02*
X12895000Y-14366500D01*
X12895000Y-14291500D02*
X12820000Y-14366500D01*
X12857500Y-14291500D02*
X12857500Y-14366500D01*
X12820000Y-14329000D02*
X12895000Y-14329000D01*
D11*
X13193872Y-14220484D02*
X13212920Y-14220484D01*
X13212920Y-14220484D02*
X13231967Y-14230008D01*
X13231967Y-14230008D02*
X13241491Y-14239531D01*
X13241491Y-14239531D02*
X13251015Y-14258579D01*
X13251015Y-14258579D02*
X13260539Y-14296674D01*
X13260539Y-14296674D02*
X13260539Y-14344293D01*
X13260539Y-14344293D02*
X13251015Y-14382388D01*
X13251015Y-14382388D02*
X13241491Y-14401436D01*
X13241491Y-14401436D02*
X13231967Y-14410960D01*
X13231967Y-14410960D02*
X13212920Y-14420484D01*
X13212920Y-14420484D02*
X13193872Y-14420484D01*
X13193872Y-14420484D02*
X13174824Y-14410960D01*
X13174824Y-14410960D02*
X13165301Y-14401436D01*
X13165301Y-14401436D02*
X13155777Y-14382388D01*
X13155777Y-14382388D02*
X13146253Y-14344293D01*
X13146253Y-14344293D02*
X13146253Y-14296674D01*
X13146253Y-14296674D02*
X13155777Y-14258579D01*
X13155777Y-14258579D02*
X13165301Y-14239531D01*
X13165301Y-14239531D02*
X13174824Y-14230008D01*
X13174824Y-14230008D02*
X13193872Y-14220484D01*
X13346253Y-14401436D02*
X13355777Y-14410960D01*
X13355777Y-14410960D02*
X13346253Y-14420484D01*
X13346253Y-14420484D02*
X13336729Y-14410960D01*
X13336729Y-14410960D02*
X13346253Y-14401436D01*
X13346253Y-14401436D02*
X13346253Y-14420484D01*
X13422443Y-14220484D02*
X13555777Y-14220484D01*
X13555777Y-14220484D02*
X13470062Y-14420484D01*
X13727205Y-14220484D02*
X13631967Y-14220484D01*
X13631967Y-14220484D02*
X13622443Y-14315722D01*
X13622443Y-14315722D02*
X13631967Y-14306198D01*
X13631967Y-14306198D02*
X13651015Y-14296674D01*
X13651015Y-14296674D02*
X13698634Y-14296674D01*
X13698634Y-14296674D02*
X13717682Y-14306198D01*
X13717682Y-14306198D02*
X13727205Y-14315722D01*
X13727205Y-14315722D02*
X13736729Y-14334769D01*
X13736729Y-14334769D02*
X13736729Y-14382388D01*
X13736729Y-14382388D02*
X13727205Y-14401436D01*
X13727205Y-14401436D02*
X13717682Y-14410960D01*
X13717682Y-14410960D02*
X13698634Y-14420484D01*
X13698634Y-14420484D02*
X13651015Y-14420484D01*
X13651015Y-14420484D02*
X13631967Y-14410960D01*
X13631967Y-14410960D02*
X13622443Y-14401436D01*
X13860539Y-14220484D02*
X13879586Y-14220484D01*
X13879586Y-14220484D02*
X13898634Y-14230008D01*
X13898634Y-14230008D02*
X13908158Y-14239531D01*
X13908158Y-14239531D02*
X13917682Y-14258579D01*
X13917682Y-14258579D02*
X13927205Y-14296674D01*
X13927205Y-14296674D02*
X13927205Y-14344293D01*
X13927205Y-14344293D02*
X13917682Y-14382388D01*
X13917682Y-14382388D02*
X13908158Y-14401436D01*
X13908158Y-14401436D02*
X13898634Y-14410960D01*
X13898634Y-14410960D02*
X13879586Y-14420484D01*
X13879586Y-14420484D02*
X13860539Y-14420484D01*
X13860539Y-14420484D02*
X13841491Y-14410960D01*
X13841491Y-14410960D02*
X13831967Y-14401436D01*
X13831967Y-14401436D02*
X13822443Y-14382388D01*
X13822443Y-14382388D02*
X13812920Y-14344293D01*
X13812920Y-14344293D02*
X13812920Y-14296674D01*
X13812920Y-14296674D02*
X13822443Y-14258579D01*
X13822443Y-14258579D02*
X13831967Y-14239531D01*
X13831967Y-14239531D02*
X13841491Y-14230008D01*
X13841491Y-14230008D02*
X13860539Y-14220484D01*
X14012920Y-14420484D02*
X14012920Y-14287150D01*
X14012920Y-14306198D02*
X14022443Y-14296674D01*
X14022443Y-14296674D02*
X14041491Y-14287150D01*
X14041491Y-14287150D02*
X14070063Y-14287150D01*
X14070063Y-14287150D02*
X14089110Y-14296674D01*
X14089110Y-14296674D02*
X14098634Y-14315722D01*
X14098634Y-14315722D02*
X14098634Y-14420484D01*
X14098634Y-14315722D02*
X14108158Y-14296674D01*
X14108158Y-14296674D02*
X14127205Y-14287150D01*
X14127205Y-14287150D02*
X14155777Y-14287150D01*
X14155777Y-14287150D02*
X14174824Y-14296674D01*
X14174824Y-14296674D02*
X14184348Y-14315722D01*
X14184348Y-14315722D02*
X14184348Y-14420484D01*
X14279586Y-14420484D02*
X14279586Y-14287150D01*
X14279586Y-14306198D02*
X14289110Y-14296674D01*
X14289110Y-14296674D02*
X14308158Y-14287150D01*
X14308158Y-14287150D02*
X14336729Y-14287150D01*
X14336729Y-14287150D02*
X14355777Y-14296674D01*
X14355777Y-14296674D02*
X14365301Y-14315722D01*
X14365301Y-14315722D02*
X14365301Y-14420484D01*
X14365301Y-14315722D02*
X14374824Y-14296674D01*
X14374824Y-14296674D02*
X14393872Y-14287150D01*
X14393872Y-14287150D02*
X14422443Y-14287150D01*
X14422443Y-14287150D02*
X14441491Y-14296674D01*
X14441491Y-14296674D02*
X14451015Y-14315722D01*
X14451015Y-14315722D02*
X14451015Y-14420484D01*
X14841491Y-14210960D02*
X14670063Y-14468103D01*
X15098634Y-14220484D02*
X15117682Y-14220484D01*
X15117682Y-14220484D02*
X15136729Y-14230008D01*
X15136729Y-14230008D02*
X15146253Y-14239531D01*
X15146253Y-14239531D02*
X15155777Y-14258579D01*
X15155777Y-14258579D02*
X15165301Y-14296674D01*
X15165301Y-14296674D02*
X15165301Y-14344293D01*
X15165301Y-14344293D02*
X15155777Y-14382388D01*
X15155777Y-14382388D02*
X15146253Y-14401436D01*
X15146253Y-14401436D02*
X15136729Y-14410960D01*
X15136729Y-14410960D02*
X15117682Y-14420484D01*
X15117682Y-14420484D02*
X15098634Y-14420484D01*
X15098634Y-14420484D02*
X15079586Y-14410960D01*
X15079586Y-14410960D02*
X15070063Y-14401436D01*
X15070063Y-14401436D02*
X15060539Y-14382388D01*
X15060539Y-14382388D02*
X15051015Y-14344293D01*
X15051015Y-14344293D02*
X15051015Y-14296674D01*
X15051015Y-14296674D02*
X15060539Y-14258579D01*
X15060539Y-14258579D02*
X15070063Y-14239531D01*
X15070063Y-14239531D02*
X15079586Y-14230008D01*
X15079586Y-14230008D02*
X15098634Y-14220484D01*
X15251015Y-14401436D02*
X15260539Y-14410960D01*
X15260539Y-14410960D02*
X15251015Y-14420484D01*
X15251015Y-14420484D02*
X15241491Y-14410960D01*
X15241491Y-14410960D02*
X15251015Y-14401436D01*
X15251015Y-14401436D02*
X15251015Y-14420484D01*
X15384348Y-14220484D02*
X15403396Y-14220484D01*
X15403396Y-14220484D02*
X15422444Y-14230008D01*
X15422444Y-14230008D02*
X15431967Y-14239531D01*
X15431967Y-14239531D02*
X15441491Y-14258579D01*
X15441491Y-14258579D02*
X15451015Y-14296674D01*
X15451015Y-14296674D02*
X15451015Y-14344293D01*
X15451015Y-14344293D02*
X15441491Y-14382388D01*
X15441491Y-14382388D02*
X15431967Y-14401436D01*
X15431967Y-14401436D02*
X15422444Y-14410960D01*
X15422444Y-14410960D02*
X15403396Y-14420484D01*
X15403396Y-14420484D02*
X15384348Y-14420484D01*
X15384348Y-14420484D02*
X15365301Y-14410960D01*
X15365301Y-14410960D02*
X15355777Y-14401436D01*
X15355777Y-14401436D02*
X15346253Y-14382388D01*
X15346253Y-14382388D02*
X15336729Y-14344293D01*
X15336729Y-14344293D02*
X15336729Y-14296674D01*
X15336729Y-14296674D02*
X15346253Y-14258579D01*
X15346253Y-14258579D02*
X15355777Y-14239531D01*
X15355777Y-14239531D02*
X15365301Y-14230008D01*
X15365301Y-14230008D02*
X15384348Y-14220484D01*
X15527206Y-14239531D02*
X15536729Y-14230008D01*
X15536729Y-14230008D02*
X15555777Y-14220484D01*
X15555777Y-14220484D02*
X15603396Y-14220484D01*
X15603396Y-14220484D02*
X15622444Y-14230008D01*
X15622444Y-14230008D02*
X15631967Y-14239531D01*
X15631967Y-14239531D02*
X15641491Y-14258579D01*
X15641491Y-14258579D02*
X15641491Y-14277627D01*
X15641491Y-14277627D02*
X15631967Y-14306198D01*
X15631967Y-14306198D02*
X15517682Y-14420484D01*
X15517682Y-14420484D02*
X15641491Y-14420484D01*
X15736729Y-14420484D02*
X15774825Y-14420484D01*
X15774825Y-14420484D02*
X15793872Y-14410960D01*
X15793872Y-14410960D02*
X15803396Y-14401436D01*
X15803396Y-14401436D02*
X15822444Y-14372865D01*
X15822444Y-14372865D02*
X15831967Y-14334769D01*
X15831967Y-14334769D02*
X15831967Y-14258579D01*
X15831967Y-14258579D02*
X15822444Y-14239531D01*
X15822444Y-14239531D02*
X15812920Y-14230008D01*
X15812920Y-14230008D02*
X15793872Y-14220484D01*
X15793872Y-14220484D02*
X15755777Y-14220484D01*
X15755777Y-14220484D02*
X15736729Y-14230008D01*
X15736729Y-14230008D02*
X15727206Y-14239531D01*
X15727206Y-14239531D02*
X15717682Y-14258579D01*
X15717682Y-14258579D02*
X15717682Y-14306198D01*
X15717682Y-14306198D02*
X15727206Y-14325246D01*
X15727206Y-14325246D02*
X15736729Y-14334769D01*
X15736729Y-14334769D02*
X15755777Y-14344293D01*
X15755777Y-14344293D02*
X15793872Y-14344293D01*
X15793872Y-14344293D02*
X15812920Y-14334769D01*
X15812920Y-14334769D02*
X15822444Y-14325246D01*
X15822444Y-14325246D02*
X15831967Y-14306198D01*
X16012920Y-14220484D02*
X15917682Y-14220484D01*
X15917682Y-14220484D02*
X15908158Y-14315722D01*
X15908158Y-14315722D02*
X15917682Y-14306198D01*
X15917682Y-14306198D02*
X15936729Y-14296674D01*
X15936729Y-14296674D02*
X15984348Y-14296674D01*
X15984348Y-14296674D02*
X16003396Y-14306198D01*
X16003396Y-14306198D02*
X16012920Y-14315722D01*
X16012920Y-14315722D02*
X16022444Y-14334769D01*
X16022444Y-14334769D02*
X16022444Y-14382388D01*
X16022444Y-14382388D02*
X16012920Y-14401436D01*
X16012920Y-14401436D02*
X16003396Y-14410960D01*
X16003396Y-14410960D02*
X15984348Y-14420484D01*
X15984348Y-14420484D02*
X15936729Y-14420484D01*
X15936729Y-14420484D02*
X15917682Y-14410960D01*
X15917682Y-14410960D02*
X15908158Y-14401436D01*
X16098634Y-14220484D02*
X16098634Y-14258579D01*
X16174825Y-14220484D02*
X16174825Y-14258579D01*
X16470063Y-14496674D02*
X16460539Y-14487150D01*
X16460539Y-14487150D02*
X16441491Y-14458579D01*
X16441491Y-14458579D02*
X16431968Y-14439531D01*
X16431968Y-14439531D02*
X16422444Y-14410960D01*
X16422444Y-14410960D02*
X16412920Y-14363341D01*
X16412920Y-14363341D02*
X16412920Y-14325246D01*
X16412920Y-14325246D02*
X16422444Y-14277627D01*
X16422444Y-14277627D02*
X16431968Y-14249055D01*
X16431968Y-14249055D02*
X16441491Y-14230008D01*
X16441491Y-14230008D02*
X16460539Y-14201436D01*
X16460539Y-14201436D02*
X16470063Y-14191912D01*
X16651015Y-14420484D02*
X16536729Y-14420484D01*
X16593872Y-14420484D02*
X16593872Y-14220484D01*
X16593872Y-14220484D02*
X16574825Y-14249055D01*
X16574825Y-14249055D02*
X16555777Y-14268103D01*
X16555777Y-14268103D02*
X16536729Y-14277627D01*
X16774825Y-14220484D02*
X16793872Y-14220484D01*
X16793872Y-14220484D02*
X16812920Y-14230008D01*
X16812920Y-14230008D02*
X16822444Y-14239531D01*
X16822444Y-14239531D02*
X16831968Y-14258579D01*
X16831968Y-14258579D02*
X16841491Y-14296674D01*
X16841491Y-14296674D02*
X16841491Y-14344293D01*
X16841491Y-14344293D02*
X16831968Y-14382388D01*
X16831968Y-14382388D02*
X16822444Y-14401436D01*
X16822444Y-14401436D02*
X16812920Y-14410960D01*
X16812920Y-14410960D02*
X16793872Y-14420484D01*
X16793872Y-14420484D02*
X16774825Y-14420484D01*
X16774825Y-14420484D02*
X16755777Y-14410960D01*
X16755777Y-14410960D02*
X16746253Y-14401436D01*
X16746253Y-14401436D02*
X16736729Y-14382388D01*
X16736729Y-14382388D02*
X16727206Y-14344293D01*
X16727206Y-14344293D02*
X16727206Y-14296674D01*
X16727206Y-14296674D02*
X16736729Y-14258579D01*
X16736729Y-14258579D02*
X16746253Y-14239531D01*
X16746253Y-14239531D02*
X16755777Y-14230008D01*
X16755777Y-14230008D02*
X16774825Y-14220484D01*
X17079587Y-14420484D02*
X17079587Y-14220484D01*
X17165301Y-14420484D02*
X17165301Y-14315722D01*
X17165301Y-14315722D02*
X17155777Y-14296674D01*
X17155777Y-14296674D02*
X17136730Y-14287150D01*
X17136730Y-14287150D02*
X17108158Y-14287150D01*
X17108158Y-14287150D02*
X17089111Y-14296674D01*
X17089111Y-14296674D02*
X17079587Y-14306198D01*
X17289111Y-14420484D02*
X17270063Y-14410960D01*
X17270063Y-14410960D02*
X17260539Y-14401436D01*
X17260539Y-14401436D02*
X17251015Y-14382388D01*
X17251015Y-14382388D02*
X17251015Y-14325246D01*
X17251015Y-14325246D02*
X17260539Y-14306198D01*
X17260539Y-14306198D02*
X17270063Y-14296674D01*
X17270063Y-14296674D02*
X17289111Y-14287150D01*
X17289111Y-14287150D02*
X17317682Y-14287150D01*
X17317682Y-14287150D02*
X17336730Y-14296674D01*
X17336730Y-14296674D02*
X17346253Y-14306198D01*
X17346253Y-14306198D02*
X17355777Y-14325246D01*
X17355777Y-14325246D02*
X17355777Y-14382388D01*
X17355777Y-14382388D02*
X17346253Y-14401436D01*
X17346253Y-14401436D02*
X17336730Y-14410960D01*
X17336730Y-14410960D02*
X17317682Y-14420484D01*
X17317682Y-14420484D02*
X17289111Y-14420484D01*
X17470063Y-14420484D02*
X17451015Y-14410960D01*
X17451015Y-14410960D02*
X17441492Y-14391912D01*
X17441492Y-14391912D02*
X17441492Y-14220484D01*
X17622444Y-14410960D02*
X17603396Y-14420484D01*
X17603396Y-14420484D02*
X17565301Y-14420484D01*
X17565301Y-14420484D02*
X17546253Y-14410960D01*
X17546253Y-14410960D02*
X17536730Y-14391912D01*
X17536730Y-14391912D02*
X17536730Y-14315722D01*
X17536730Y-14315722D02*
X17546253Y-14296674D01*
X17546253Y-14296674D02*
X17565301Y-14287150D01*
X17565301Y-14287150D02*
X17603396Y-14287150D01*
X17603396Y-14287150D02*
X17622444Y-14296674D01*
X17622444Y-14296674D02*
X17631968Y-14315722D01*
X17631968Y-14315722D02*
X17631968Y-14334769D01*
X17631968Y-14334769D02*
X17536730Y-14353817D01*
X17708158Y-14410960D02*
X17727206Y-14420484D01*
X17727206Y-14420484D02*
X17765301Y-14420484D01*
X17765301Y-14420484D02*
X17784349Y-14410960D01*
X17784349Y-14410960D02*
X17793873Y-14391912D01*
X17793873Y-14391912D02*
X17793873Y-14382388D01*
X17793873Y-14382388D02*
X17784349Y-14363341D01*
X17784349Y-14363341D02*
X17765301Y-14353817D01*
X17765301Y-14353817D02*
X17736730Y-14353817D01*
X17736730Y-14353817D02*
X17717682Y-14344293D01*
X17717682Y-14344293D02*
X17708158Y-14325246D01*
X17708158Y-14325246D02*
X17708158Y-14315722D01*
X17708158Y-14315722D02*
X17717682Y-14296674D01*
X17717682Y-14296674D02*
X17736730Y-14287150D01*
X17736730Y-14287150D02*
X17765301Y-14287150D01*
X17765301Y-14287150D02*
X17784349Y-14296674D01*
X17860539Y-14496674D02*
X17870063Y-14487150D01*
X17870063Y-14487150D02*
X17889111Y-14458579D01*
X17889111Y-14458579D02*
X17898634Y-14439531D01*
X17898634Y-14439531D02*
X17908158Y-14410960D01*
X17908158Y-14410960D02*
X17917682Y-14363341D01*
X17917682Y-14363341D02*
X17917682Y-14325246D01*
X17917682Y-14325246D02*
X17908158Y-14277627D01*
X17908158Y-14277627D02*
X17898634Y-14249055D01*
X17898634Y-14249055D02*
X17889111Y-14230008D01*
X17889111Y-14230008D02*
X17870063Y-14201436D01*
X17870063Y-14201436D02*
X17860539Y-14191912D01*
D10*
X12795000Y-14543000D02*
X12895000Y-14643000D01*
X12895000Y-14543000D02*
X12795000Y-14643000D01*
X12880356Y-14628356D02*
X12880356Y-14557644D01*
X12809644Y-14557644D01*
X12809644Y-14628356D01*
X12880356Y-14628356D01*
D11*
X13260539Y-14684484D02*
X13146253Y-14684484D01*
X13203396Y-14684484D02*
X13203396Y-14484484D01*
X13203396Y-14484484D02*
X13184348Y-14513055D01*
X13184348Y-14513055D02*
X13165301Y-14532103D01*
X13165301Y-14532103D02*
X13146253Y-14541627D01*
X13346253Y-14665436D02*
X13355777Y-14674960D01*
X13355777Y-14674960D02*
X13346253Y-14684484D01*
X13346253Y-14684484D02*
X13336729Y-14674960D01*
X13336729Y-14674960D02*
X13346253Y-14665436D01*
X13346253Y-14665436D02*
X13346253Y-14684484D01*
X13479586Y-14484484D02*
X13498634Y-14484484D01*
X13498634Y-14484484D02*
X13517682Y-14494008D01*
X13517682Y-14494008D02*
X13527205Y-14503531D01*
X13527205Y-14503531D02*
X13536729Y-14522579D01*
X13536729Y-14522579D02*
X13546253Y-14560674D01*
X13546253Y-14560674D02*
X13546253Y-14608293D01*
X13546253Y-14608293D02*
X13536729Y-14646388D01*
X13536729Y-14646388D02*
X13527205Y-14665436D01*
X13527205Y-14665436D02*
X13517682Y-14674960D01*
X13517682Y-14674960D02*
X13498634Y-14684484D01*
X13498634Y-14684484D02*
X13479586Y-14684484D01*
X13479586Y-14684484D02*
X13460539Y-14674960D01*
X13460539Y-14674960D02*
X13451015Y-14665436D01*
X13451015Y-14665436D02*
X13441491Y-14646388D01*
X13441491Y-14646388D02*
X13431967Y-14608293D01*
X13431967Y-14608293D02*
X13431967Y-14560674D01*
X13431967Y-14560674D02*
X13441491Y-14522579D01*
X13441491Y-14522579D02*
X13451015Y-14503531D01*
X13451015Y-14503531D02*
X13460539Y-14494008D01*
X13460539Y-14494008D02*
X13479586Y-14484484D01*
X13670062Y-14484484D02*
X13689110Y-14484484D01*
X13689110Y-14484484D02*
X13708158Y-14494008D01*
X13708158Y-14494008D02*
X13717682Y-14503531D01*
X13717682Y-14503531D02*
X13727205Y-14522579D01*
X13727205Y-14522579D02*
X13736729Y-14560674D01*
X13736729Y-14560674D02*
X13736729Y-14608293D01*
X13736729Y-14608293D02*
X13727205Y-14646388D01*
X13727205Y-14646388D02*
X13717682Y-14665436D01*
X13717682Y-14665436D02*
X13708158Y-14674960D01*
X13708158Y-14674960D02*
X13689110Y-14684484D01*
X13689110Y-14684484D02*
X13670062Y-14684484D01*
X13670062Y-14684484D02*
X13651015Y-14674960D01*
X13651015Y-14674960D02*
X13641491Y-14665436D01*
X13641491Y-14665436D02*
X13631967Y-14646388D01*
X13631967Y-14646388D02*
X13622443Y-14608293D01*
X13622443Y-14608293D02*
X13622443Y-14560674D01*
X13622443Y-14560674D02*
X13631967Y-14522579D01*
X13631967Y-14522579D02*
X13641491Y-14503531D01*
X13641491Y-14503531D02*
X13651015Y-14494008D01*
X13651015Y-14494008D02*
X13670062Y-14484484D01*
X13860539Y-14484484D02*
X13879586Y-14484484D01*
X13879586Y-14484484D02*
X13898634Y-14494008D01*
X13898634Y-14494008D02*
X13908158Y-14503531D01*
X13908158Y-14503531D02*
X13917682Y-14522579D01*
X13917682Y-14522579D02*
X13927205Y-14560674D01*
X13927205Y-14560674D02*
X13927205Y-14608293D01*
X13927205Y-14608293D02*
X13917682Y-14646388D01*
X13917682Y-14646388D02*
X13908158Y-14665436D01*
X13908158Y-14665436D02*
X13898634Y-14674960D01*
X13898634Y-14674960D02*
X13879586Y-14684484D01*
X13879586Y-14684484D02*
X13860539Y-14684484D01*
X13860539Y-14684484D02*
X13841491Y-14674960D01*
X13841491Y-14674960D02*
X13831967Y-14665436D01*
X13831967Y-14665436D02*
X13822443Y-14646388D01*
X13822443Y-14646388D02*
X13812920Y-14608293D01*
X13812920Y-14608293D02*
X13812920Y-14560674D01*
X13812920Y-14560674D02*
X13822443Y-14522579D01*
X13822443Y-14522579D02*
X13831967Y-14503531D01*
X13831967Y-14503531D02*
X13841491Y-14494008D01*
X13841491Y-14494008D02*
X13860539Y-14484484D01*
X14012920Y-14684484D02*
X14012920Y-14551150D01*
X14012920Y-14570198D02*
X14022443Y-14560674D01*
X14022443Y-14560674D02*
X14041491Y-14551150D01*
X14041491Y-14551150D02*
X14070063Y-14551150D01*
X14070063Y-14551150D02*
X14089110Y-14560674D01*
X14089110Y-14560674D02*
X14098634Y-14579722D01*
X14098634Y-14579722D02*
X14098634Y-14684484D01*
X14098634Y-14579722D02*
X14108158Y-14560674D01*
X14108158Y-14560674D02*
X14127205Y-14551150D01*
X14127205Y-14551150D02*
X14155777Y-14551150D01*
X14155777Y-14551150D02*
X14174824Y-14560674D01*
X14174824Y-14560674D02*
X14184348Y-14579722D01*
X14184348Y-14579722D02*
X14184348Y-14684484D01*
X14279586Y-14684484D02*
X14279586Y-14551150D01*
X14279586Y-14570198D02*
X14289110Y-14560674D01*
X14289110Y-14560674D02*
X14308158Y-14551150D01*
X14308158Y-14551150D02*
X14336729Y-14551150D01*
X14336729Y-14551150D02*
X14355777Y-14560674D01*
X14355777Y-14560674D02*
X14365301Y-14579722D01*
X14365301Y-14579722D02*
X14365301Y-14684484D01*
X14365301Y-14579722D02*
X14374824Y-14560674D01*
X14374824Y-14560674D02*
X14393872Y-14551150D01*
X14393872Y-14551150D02*
X14422443Y-14551150D01*
X14422443Y-14551150D02*
X14441491Y-14560674D01*
X14441491Y-14560674D02*
X14451015Y-14579722D01*
X14451015Y-14579722D02*
X14451015Y-14684484D01*
X14841491Y-14474960D02*
X14670063Y-14732103D01*
X15098634Y-14484484D02*
X15117682Y-14484484D01*
X15117682Y-14484484D02*
X15136729Y-14494008D01*
X15136729Y-14494008D02*
X15146253Y-14503531D01*
X15146253Y-14503531D02*
X15155777Y-14522579D01*
X15155777Y-14522579D02*
X15165301Y-14560674D01*
X15165301Y-14560674D02*
X15165301Y-14608293D01*
X15165301Y-14608293D02*
X15155777Y-14646388D01*
X15155777Y-14646388D02*
X15146253Y-14665436D01*
X15146253Y-14665436D02*
X15136729Y-14674960D01*
X15136729Y-14674960D02*
X15117682Y-14684484D01*
X15117682Y-14684484D02*
X15098634Y-14684484D01*
X15098634Y-14684484D02*
X15079586Y-14674960D01*
X15079586Y-14674960D02*
X15070063Y-14665436D01*
X15070063Y-14665436D02*
X15060539Y-14646388D01*
X15060539Y-14646388D02*
X15051015Y-14608293D01*
X15051015Y-14608293D02*
X15051015Y-14560674D01*
X15051015Y-14560674D02*
X15060539Y-14522579D01*
X15060539Y-14522579D02*
X15070063Y-14503531D01*
X15070063Y-14503531D02*
X15079586Y-14494008D01*
X15079586Y-14494008D02*
X15098634Y-14484484D01*
X15251015Y-14665436D02*
X15260539Y-14674960D01*
X15260539Y-14674960D02*
X15251015Y-14684484D01*
X15251015Y-14684484D02*
X15241491Y-14674960D01*
X15241491Y-14674960D02*
X15251015Y-14665436D01*
X15251015Y-14665436D02*
X15251015Y-14684484D01*
X15384348Y-14484484D02*
X15403396Y-14484484D01*
X15403396Y-14484484D02*
X15422444Y-14494008D01*
X15422444Y-14494008D02*
X15431967Y-14503531D01*
X15431967Y-14503531D02*
X15441491Y-14522579D01*
X15441491Y-14522579D02*
X15451015Y-14560674D01*
X15451015Y-14560674D02*
X15451015Y-14608293D01*
X15451015Y-14608293D02*
X15441491Y-14646388D01*
X15441491Y-14646388D02*
X15431967Y-14665436D01*
X15431967Y-14665436D02*
X15422444Y-14674960D01*
X15422444Y-14674960D02*
X15403396Y-14684484D01*
X15403396Y-14684484D02*
X15384348Y-14684484D01*
X15384348Y-14684484D02*
X15365301Y-14674960D01*
X15365301Y-14674960D02*
X15355777Y-14665436D01*
X15355777Y-14665436D02*
X15346253Y-14646388D01*
X15346253Y-14646388D02*
X15336729Y-14608293D01*
X15336729Y-14608293D02*
X15336729Y-14560674D01*
X15336729Y-14560674D02*
X15346253Y-14522579D01*
X15346253Y-14522579D02*
X15355777Y-14503531D01*
X15355777Y-14503531D02*
X15365301Y-14494008D01*
X15365301Y-14494008D02*
X15384348Y-14484484D01*
X15517682Y-14484484D02*
X15641491Y-14484484D01*
X15641491Y-14484484D02*
X15574825Y-14560674D01*
X15574825Y-14560674D02*
X15603396Y-14560674D01*
X15603396Y-14560674D02*
X15622444Y-14570198D01*
X15622444Y-14570198D02*
X15631967Y-14579722D01*
X15631967Y-14579722D02*
X15641491Y-14598769D01*
X15641491Y-14598769D02*
X15641491Y-14646388D01*
X15641491Y-14646388D02*
X15631967Y-14665436D01*
X15631967Y-14665436D02*
X15622444Y-14674960D01*
X15622444Y-14674960D02*
X15603396Y-14684484D01*
X15603396Y-14684484D02*
X15546253Y-14684484D01*
X15546253Y-14684484D02*
X15527206Y-14674960D01*
X15527206Y-14674960D02*
X15517682Y-14665436D01*
X15736729Y-14684484D02*
X15774825Y-14684484D01*
X15774825Y-14684484D02*
X15793872Y-14674960D01*
X15793872Y-14674960D02*
X15803396Y-14665436D01*
X15803396Y-14665436D02*
X15822444Y-14636865D01*
X15822444Y-14636865D02*
X15831967Y-14598769D01*
X15831967Y-14598769D02*
X15831967Y-14522579D01*
X15831967Y-14522579D02*
X15822444Y-14503531D01*
X15822444Y-14503531D02*
X15812920Y-14494008D01*
X15812920Y-14494008D02*
X15793872Y-14484484D01*
X15793872Y-14484484D02*
X15755777Y-14484484D01*
X15755777Y-14484484D02*
X15736729Y-14494008D01*
X15736729Y-14494008D02*
X15727206Y-14503531D01*
X15727206Y-14503531D02*
X15717682Y-14522579D01*
X15717682Y-14522579D02*
X15717682Y-14570198D01*
X15717682Y-14570198D02*
X15727206Y-14589246D01*
X15727206Y-14589246D02*
X15736729Y-14598769D01*
X15736729Y-14598769D02*
X15755777Y-14608293D01*
X15755777Y-14608293D02*
X15793872Y-14608293D01*
X15793872Y-14608293D02*
X15812920Y-14598769D01*
X15812920Y-14598769D02*
X15822444Y-14589246D01*
X15822444Y-14589246D02*
X15831967Y-14570198D01*
X16003396Y-14551150D02*
X16003396Y-14684484D01*
X15955777Y-14474960D02*
X15908158Y-14617817D01*
X15908158Y-14617817D02*
X16031967Y-14617817D01*
X16098634Y-14484484D02*
X16098634Y-14522579D01*
X16174825Y-14484484D02*
X16174825Y-14522579D01*
X16470063Y-14760674D02*
X16460539Y-14751150D01*
X16460539Y-14751150D02*
X16441491Y-14722579D01*
X16441491Y-14722579D02*
X16431968Y-14703531D01*
X16431968Y-14703531D02*
X16422444Y-14674960D01*
X16422444Y-14674960D02*
X16412920Y-14627341D01*
X16412920Y-14627341D02*
X16412920Y-14589246D01*
X16412920Y-14589246D02*
X16422444Y-14541627D01*
X16422444Y-14541627D02*
X16431968Y-14513055D01*
X16431968Y-14513055D02*
X16441491Y-14494008D01*
X16441491Y-14494008D02*
X16460539Y-14465436D01*
X16460539Y-14465436D02*
X16470063Y-14455912D01*
X16651015Y-14684484D02*
X16536729Y-14684484D01*
X16593872Y-14684484D02*
X16593872Y-14484484D01*
X16593872Y-14484484D02*
X16574825Y-14513055D01*
X16574825Y-14513055D02*
X16555777Y-14532103D01*
X16555777Y-14532103D02*
X16536729Y-14541627D01*
X16774825Y-14484484D02*
X16793872Y-14484484D01*
X16793872Y-14484484D02*
X16812920Y-14494008D01*
X16812920Y-14494008D02*
X16822444Y-14503531D01*
X16822444Y-14503531D02*
X16831968Y-14522579D01*
X16831968Y-14522579D02*
X16841491Y-14560674D01*
X16841491Y-14560674D02*
X16841491Y-14608293D01*
X16841491Y-14608293D02*
X16831968Y-14646388D01*
X16831968Y-14646388D02*
X16822444Y-14665436D01*
X16822444Y-14665436D02*
X16812920Y-14674960D01*
X16812920Y-14674960D02*
X16793872Y-14684484D01*
X16793872Y-14684484D02*
X16774825Y-14684484D01*
X16774825Y-14684484D02*
X16755777Y-14674960D01*
X16755777Y-14674960D02*
X16746253Y-14665436D01*
X16746253Y-14665436D02*
X16736729Y-14646388D01*
X16736729Y-14646388D02*
X16727206Y-14608293D01*
X16727206Y-14608293D02*
X16727206Y-14560674D01*
X16727206Y-14560674D02*
X16736729Y-14522579D01*
X16736729Y-14522579D02*
X16746253Y-14503531D01*
X16746253Y-14503531D02*
X16755777Y-14494008D01*
X16755777Y-14494008D02*
X16774825Y-14484484D01*
X17079587Y-14684484D02*
X17079587Y-14484484D01*
X17165301Y-14684484D02*
X17165301Y-14579722D01*
X17165301Y-14579722D02*
X17155777Y-14560674D01*
X17155777Y-14560674D02*
X17136730Y-14551150D01*
X17136730Y-14551150D02*
X17108158Y-14551150D01*
X17108158Y-14551150D02*
X17089111Y-14560674D01*
X17089111Y-14560674D02*
X17079587Y-14570198D01*
X17289111Y-14684484D02*
X17270063Y-14674960D01*
X17270063Y-14674960D02*
X17260539Y-14665436D01*
X17260539Y-14665436D02*
X17251015Y-14646388D01*
X17251015Y-14646388D02*
X17251015Y-14589246D01*
X17251015Y-14589246D02*
X17260539Y-14570198D01*
X17260539Y-14570198D02*
X17270063Y-14560674D01*
X17270063Y-14560674D02*
X17289111Y-14551150D01*
X17289111Y-14551150D02*
X17317682Y-14551150D01*
X17317682Y-14551150D02*
X17336730Y-14560674D01*
X17336730Y-14560674D02*
X17346253Y-14570198D01*
X17346253Y-14570198D02*
X17355777Y-14589246D01*
X17355777Y-14589246D02*
X17355777Y-14646388D01*
X17355777Y-14646388D02*
X17346253Y-14665436D01*
X17346253Y-14665436D02*
X17336730Y-14674960D01*
X17336730Y-14674960D02*
X17317682Y-14684484D01*
X17317682Y-14684484D02*
X17289111Y-14684484D01*
X17470063Y-14684484D02*
X17451015Y-14674960D01*
X17451015Y-14674960D02*
X17441492Y-14655912D01*
X17441492Y-14655912D02*
X17441492Y-14484484D01*
X17622444Y-14674960D02*
X17603396Y-14684484D01*
X17603396Y-14684484D02*
X17565301Y-14684484D01*
X17565301Y-14684484D02*
X17546253Y-14674960D01*
X17546253Y-14674960D02*
X17536730Y-14655912D01*
X17536730Y-14655912D02*
X17536730Y-14579722D01*
X17536730Y-14579722D02*
X17546253Y-14560674D01*
X17546253Y-14560674D02*
X17565301Y-14551150D01*
X17565301Y-14551150D02*
X17603396Y-14551150D01*
X17603396Y-14551150D02*
X17622444Y-14560674D01*
X17622444Y-14560674D02*
X17631968Y-14579722D01*
X17631968Y-14579722D02*
X17631968Y-14598769D01*
X17631968Y-14598769D02*
X17536730Y-14617817D01*
X17708158Y-14674960D02*
X17727206Y-14684484D01*
X17727206Y-14684484D02*
X17765301Y-14684484D01*
X17765301Y-14684484D02*
X17784349Y-14674960D01*
X17784349Y-14674960D02*
X17793873Y-14655912D01*
X17793873Y-14655912D02*
X17793873Y-14646388D01*
X17793873Y-14646388D02*
X17784349Y-14627341D01*
X17784349Y-14627341D02*
X17765301Y-14617817D01*
X17765301Y-14617817D02*
X17736730Y-14617817D01*
X17736730Y-14617817D02*
X17717682Y-14608293D01*
X17717682Y-14608293D02*
X17708158Y-14589246D01*
X17708158Y-14589246D02*
X17708158Y-14579722D01*
X17708158Y-14579722D02*
X17717682Y-14560674D01*
X17717682Y-14560674D02*
X17736730Y-14551150D01*
X17736730Y-14551150D02*
X17765301Y-14551150D01*
X17765301Y-14551150D02*
X17784349Y-14560674D01*
X17860539Y-14760674D02*
X17870063Y-14751150D01*
X17870063Y-14751150D02*
X17889111Y-14722579D01*
X17889111Y-14722579D02*
X17898634Y-14703531D01*
X17898634Y-14703531D02*
X17908158Y-14674960D01*
X17908158Y-14674960D02*
X17917682Y-14627341D01*
X17917682Y-14627341D02*
X17917682Y-14589246D01*
X17917682Y-14589246D02*
X17908158Y-14541627D01*
X17908158Y-14541627D02*
X17898634Y-14513055D01*
X17898634Y-14513055D02*
X17889111Y-14494008D01*
X17889111Y-14494008D02*
X17870063Y-14465436D01*
X17870063Y-14465436D02*
X17860539Y-14455912D01*
M02*
