%TF.GenerationSoftware,KiCad,Pcbnew,8.0.3*%
%TF.CreationDate,2024-08-22T22:40:52-04:00*%
%TF.ProjectId,Axis_Basic,41786973-5f42-4617-9369-632e6b696361,rev?*%
%TF.SameCoordinates,Original*%
%TF.FileFunction,Copper,L4,Bot*%
%TF.FilePolarity,Positive*%
%FSLAX46Y46*%
G04 Gerber Fmt 4.6, Leading zero omitted, Abs format (unit mm)*
G04 Created by KiCad (PCBNEW 8.0.3) date 2024-08-22 22:40:52*
%MOMM*%
%LPD*%
G01*
G04 APERTURE LIST*
G04 Aperture macros list*
%AMRoundRect*
0 Rectangle with rounded corners*
0 $1 Rounding radius*
0 $2 $3 $4 $5 $6 $7 $8 $9 X,Y pos of 4 corners*
0 Add a 4 corners polygon primitive as box body*
4,1,4,$2,$3,$4,$5,$6,$7,$8,$9,$2,$3,0*
0 Add four circle primitives for the rounded corners*
1,1,$1+$1,$2,$3*
1,1,$1+$1,$4,$5*
1,1,$1+$1,$6,$7*
1,1,$1+$1,$8,$9*
0 Add four rect primitives between the rounded corners*
20,1,$1+$1,$2,$3,$4,$5,0*
20,1,$1+$1,$4,$5,$6,$7,0*
20,1,$1+$1,$6,$7,$8,$9,0*
20,1,$1+$1,$8,$9,$2,$3,0*%
G04 Aperture macros list end*
%TA.AperFunction,SMDPad,CuDef*%
%ADD10C,2.000000*%
%TD*%
%TA.AperFunction,ComponentPad*%
%ADD11C,5.500000*%
%TD*%
%TA.AperFunction,ComponentPad*%
%ADD12RoundRect,0.250000X-0.625000X0.350000X-0.625000X-0.350000X0.625000X-0.350000X0.625000X0.350000X0*%
%TD*%
%TA.AperFunction,ComponentPad*%
%ADD13O,1.750000X1.200000*%
%TD*%
%TA.AperFunction,ComponentPad*%
%ADD14C,0.500000*%
%TD*%
%TA.AperFunction,SMDPad,CuDef*%
%ADD15R,2.500000X2.500000*%
%TD*%
%TA.AperFunction,ComponentPad*%
%ADD16O,2.100000X1.000000*%
%TD*%
%TA.AperFunction,ComponentPad*%
%ADD17O,1.800000X1.000000*%
%TD*%
%TA.AperFunction,SMDPad,CuDef*%
%ADD18RoundRect,0.150000X-0.512500X-0.150000X0.512500X-0.150000X0.512500X0.150000X-0.512500X0.150000X0*%
%TD*%
%TA.AperFunction,ViaPad*%
%ADD19C,0.700000*%
%TD*%
%TA.AperFunction,ViaPad*%
%ADD20C,0.450000*%
%TD*%
%TA.AperFunction,ViaPad*%
%ADD21C,0.800000*%
%TD*%
%TA.AperFunction,Conductor*%
%ADD22C,0.200000*%
%TD*%
%TA.AperFunction,Conductor*%
%ADD23C,0.150000*%
%TD*%
%TA.AperFunction,Conductor*%
%ADD24C,0.250000*%
%TD*%
%TA.AperFunction,Conductor*%
%ADD25C,1.000000*%
%TD*%
G04 APERTURE END LIST*
D10*
%TO.P,RST,1,1*%
%TO.N,RESET*%
X160020000Y-101600000D03*
%TD*%
%TO.P,CLK,1,1*%
%TO.N,SWCLK*%
X157480000Y-99060000D03*
%TD*%
%TO.P,DIO,1,1*%
%TO.N,SWDIO*%
X154940000Y-96520000D03*
%TD*%
%TO.P,GND,1,1*%
%TO.N,GND*%
X152400000Y-93980000D03*
%TD*%
%TO.P,3.3V,1,1*%
%TO.N,+3.3V*%
X149860000Y-91440000D03*
%TD*%
D11*
%TO.P,H4,1*%
%TO.N,N/C*%
X165500000Y-84500000D03*
%TD*%
%TO.P,H3,1*%
%TO.N,N/C*%
X134500000Y-84500000D03*
%TD*%
%TO.P,H2,1*%
%TO.N,N/C*%
X134500000Y-115500000D03*
%TD*%
%TO.P,H1,1*%
%TO.N,N/C*%
X165500000Y-115500000D03*
%TD*%
D12*
%TO.P,J4,1,Pin_1*%
%TO.N,GND*%
X134450000Y-107300000D03*
D13*
%TO.P,J4,2,Pin_2*%
%TO.N,VCC*%
X134450000Y-109300000D03*
%TD*%
D14*
%TO.P,U4,29,EXP*%
%TO.N,GND*%
X141987500Y-100200000D03*
X142987500Y-100200000D03*
X143987500Y-100200000D03*
X141987500Y-99200000D03*
X142987500Y-99200000D03*
D15*
X142987500Y-99200000D03*
D14*
X143987500Y-99200000D03*
X141987500Y-98200000D03*
X142987500Y-98200000D03*
X143987500Y-98200000D03*
%TD*%
D12*
%TO.P,J2,1*%
%TO.N,MOTOR_A1*%
X134432353Y-96229412D03*
D13*
%TO.P,J2,2*%
%TO.N,MOTOR_B1*%
X134432353Y-98229412D03*
%TO.P,J2,3*%
%TO.N,MOTOR_A2*%
X134432353Y-100229412D03*
%TO.P,J2,4*%
%TO.N,MOTOR_B2*%
X134432353Y-102229412D03*
%TD*%
D16*
%TO.P,J1,S1,SHIELD*%
%TO.N,Net-(J1-SHIELD)*%
X165495000Y-110970000D03*
D17*
X169675000Y-110970000D03*
D16*
X165495000Y-102330000D03*
D17*
X169675000Y-102330000D03*
%TD*%
D18*
%TO.P,U1,1,SCL/INT*%
%TO.N,SCL1*%
X148862500Y-100950000D03*
%TO.P,U1,2,GND*%
%TO.N,GND*%
X148862500Y-100000000D03*
%TO.P,U1,3,GND*%
X148862500Y-99050000D03*
%TO.P,U1,4,VDD*%
%TO.N,+3.3V*%
X151137500Y-99050000D03*
%TO.P,U1,5,GND*%
%TO.N,GND*%
X151137500Y-100000000D03*
%TO.P,U1,6,SDA/ADDR*%
%TO.N,SDA1*%
X151137500Y-100950000D03*
%TD*%
D19*
%TO.N,GND*%
X130000000Y-92100000D03*
X130000000Y-90100000D03*
X130000000Y-94100000D03*
X145200000Y-107200000D03*
%TO.N,+3.3V*%
X143000000Y-119000000D03*
X142100000Y-119000000D03*
X141200000Y-119000000D03*
X141700000Y-118200000D03*
X140700000Y-118200000D03*
%TO.N,GND*%
X161437336Y-90040801D03*
%TO.N,+3.3V*%
X165650000Y-89800000D03*
%TO.N,MISO*%
X159100000Y-87900000D03*
%TO.N,SCK*%
X160418988Y-91519407D03*
%TO.N,MOSI*%
X160409410Y-90590590D03*
%TO.N,+3.3V*%
X150900000Y-88700000D03*
%TO.N,SWDIO*%
X155950000Y-94900000D03*
%TO.N,MISO*%
X155325796Y-88275184D03*
%TO.N,MOSI*%
X155627958Y-89708718D03*
%TO.N,SCK*%
X155947112Y-90632785D03*
%TO.N,RESET*%
X166600000Y-95700000D03*
%TO.N,EEPROM_CS*%
X166300000Y-88100000D03*
X157800000Y-103100000D03*
%TO.N,+3.3V*%
X146419239Y-91080761D03*
%TO.N,VUSB_sense*%
X161072702Y-100427298D03*
X166950000Y-101600000D03*
%TO.N,GND*%
X166500000Y-94700000D03*
%TO.N,+3.3V*%
X159971014Y-92300000D03*
X161751818Y-94639465D03*
%TO.N,GND*%
X160900000Y-92300000D03*
X162600000Y-100800000D03*
X164050000Y-101500000D03*
X147906974Y-111300000D03*
X154800000Y-112300000D03*
X157100000Y-108750000D03*
%TO.N,+3.3V*%
X158900000Y-108500000D03*
%TO.N,GND*%
X164700000Y-98600000D03*
%TO.N,+3.3V*%
X163600000Y-98600000D03*
%TO.N,Net-(R5-Pad1)*%
X166800000Y-97600000D03*
X161800000Y-111300000D03*
%TO.N,SYNC*%
X154700000Y-105200000D03*
X150100000Y-113700000D03*
X154600000Y-115800000D03*
%TO.N,GND*%
X149600000Y-116500000D03*
X156000000Y-114500000D03*
X141800000Y-117100000D03*
X140800000Y-115500000D03*
X141300000Y-116300000D03*
X142300000Y-116300000D03*
X142800000Y-115500000D03*
X141800000Y-115500000D03*
X138100000Y-112100000D03*
%TO.N,+3.3V*%
X136500000Y-88800000D03*
%TO.N,SWCLK*%
X157941599Y-97004779D03*
%TO.N,+3.3V*%
X152600000Y-99100000D03*
X143600000Y-84100000D03*
X143600000Y-83200000D03*
X147769514Y-103541417D03*
X145500000Y-96800000D03*
X143600000Y-82300000D03*
%TO.N,GND*%
X154000000Y-80000000D03*
X148000000Y-120000000D03*
X138000000Y-120000000D03*
X160000000Y-120000000D03*
X130000000Y-116000000D03*
X134000000Y-80000000D03*
X152600000Y-100000000D03*
X134000000Y-120000000D03*
X144000000Y-80000000D03*
X130000000Y-104000000D03*
X170000000Y-97000000D03*
X170000000Y-115000000D03*
X170000000Y-85000000D03*
X130000000Y-88000000D03*
X150000000Y-120000000D03*
X136000000Y-80000000D03*
X158000000Y-120000000D03*
X154000000Y-120000000D03*
X137100000Y-92300000D03*
X162000000Y-80000000D03*
X152000000Y-80000000D03*
X138000000Y-80000000D03*
X130000000Y-112000000D03*
X156300000Y-92400000D03*
X170000000Y-87000000D03*
X159400000Y-98100000D03*
X142000000Y-80000000D03*
X160000000Y-108400000D03*
X130000000Y-114000000D03*
X153400000Y-101700000D03*
X137900000Y-106300000D03*
X130000000Y-96000000D03*
X158000000Y-80000000D03*
X130000000Y-102000000D03*
X170000000Y-101000000D03*
X170000000Y-95000000D03*
X130000000Y-84000000D03*
X139400000Y-107000000D03*
X146000000Y-90000000D03*
X156000000Y-120000000D03*
X138400000Y-107000000D03*
X150000000Y-80000000D03*
X136000000Y-120000000D03*
X146000000Y-80000000D03*
X170000000Y-99000000D03*
X130000000Y-98000000D03*
X146609266Y-104179912D03*
X170000000Y-93000000D03*
X162000000Y-120000000D03*
X137800000Y-93000000D03*
X170000000Y-105000000D03*
X130000000Y-108000000D03*
X130000000Y-106000000D03*
X164000000Y-80000000D03*
X130000000Y-86000000D03*
X166000000Y-80000000D03*
X152000000Y-120000000D03*
X156600000Y-82300000D03*
X140000000Y-80000000D03*
X130000000Y-110000000D03*
X156600000Y-84100000D03*
X138900000Y-106300000D03*
X156000000Y-80000000D03*
X148000000Y-80000000D03*
X170000000Y-91000000D03*
X156600000Y-83200000D03*
X136900000Y-106300000D03*
X170000000Y-107000000D03*
X147682338Y-99407146D03*
X137400000Y-107000000D03*
X170000000Y-109000000D03*
X151400000Y-90800000D03*
X170000000Y-113000000D03*
X170000000Y-89000000D03*
X163900000Y-110400000D03*
X160000000Y-80000000D03*
X130000000Y-100000000D03*
X138500000Y-92300000D03*
%TO.N,VCC*%
X141600000Y-91700000D03*
X140700000Y-92550000D03*
X140650000Y-105800000D03*
X140650000Y-106650000D03*
X141600000Y-92550000D03*
X141550000Y-105800000D03*
X141550000Y-106650000D03*
X140700000Y-91700000D03*
D20*
%TO.N,MOTOR_A1*%
X141400000Y-95450000D03*
X140900000Y-95700000D03*
X141400000Y-96000000D03*
X140900000Y-96300000D03*
%TO.N,MOTOR_B2*%
X141399970Y-103000000D03*
X140899970Y-102100000D03*
X141399970Y-102400000D03*
X140899970Y-102700000D03*
D19*
%TO.N,SCL1*%
X156100000Y-103150000D03*
X145600000Y-88100000D03*
%TO.N,SDA1*%
X144600000Y-88000000D03*
X155200000Y-102500000D03*
%TO.N,EN*%
X145300000Y-105479412D03*
X142363000Y-102900000D03*
D21*
%TO.N,PB07*%
X143900000Y-94900000D03*
X146600000Y-83200000D03*
%TD*%
D22*
%TO.N,MISO*%
X158724816Y-88275184D02*
X159100000Y-87900000D01*
X155325796Y-88275184D02*
X158724816Y-88275184D01*
%TO.N,MOSI*%
X159527538Y-89708718D02*
X155627958Y-89708718D01*
X160409410Y-90590590D02*
X159527538Y-89708718D01*
%TO.N,SCK*%
X159532366Y-90632785D02*
X155947112Y-90632785D01*
X160418988Y-91519407D02*
X159532366Y-90632785D01*
%TO.N,EEPROM_CS*%
X157800000Y-101600000D02*
X166300000Y-93100000D01*
X166300000Y-93100000D02*
X166300000Y-88100000D01*
X157800000Y-103100000D02*
X157800000Y-101600000D01*
%TO.N,RESET*%
X160020000Y-100185787D02*
X160020000Y-101600000D01*
X166600000Y-95700000D02*
X164505787Y-95700000D01*
X164505787Y-95700000D02*
X160020000Y-100185787D01*
%TO.N,VUSB_sense*%
X165500000Y-100150000D02*
X166950000Y-101600000D01*
X161872702Y-100427298D02*
X162150000Y-100150000D01*
X161072702Y-100427298D02*
X161872702Y-100427298D01*
X162150000Y-100150000D02*
X165500000Y-100150000D01*
D23*
%TO.N,+3.3V*%
X149860000Y-89740000D02*
X150900000Y-88700000D01*
X149860000Y-91440000D02*
X149860000Y-89740000D01*
D22*
%TO.N,SCL1*%
X147200000Y-89700000D02*
X145600000Y-88100000D01*
X147200000Y-91942128D02*
X147200000Y-89700000D01*
X156100000Y-100842128D02*
X147200000Y-91942128D01*
X156100000Y-103150000D02*
X156100000Y-100842128D01*
D24*
%TO.N,SWCLK*%
X157941599Y-98598401D02*
X157480000Y-99060000D01*
X157941599Y-97004779D02*
X157941599Y-98598401D01*
D23*
%TO.N,SWDIO*%
X155950000Y-94900000D02*
X155950000Y-95510000D01*
X155950000Y-95510000D02*
X154940000Y-96520000D01*
D22*
%TO.N,RESET*%
X166600000Y-95700000D02*
X166600000Y-95480000D01*
D23*
%TO.N,PB07*%
X143600000Y-86200000D02*
X146600000Y-83200000D01*
X143600000Y-94600000D02*
X143600000Y-86200000D01*
X143900000Y-94900000D02*
X143600000Y-94600000D01*
D22*
%TO.N,Net-(R5-Pad1)*%
X167600000Y-98400000D02*
X166800000Y-97600000D01*
X167600000Y-104600000D02*
X167600000Y-98400000D01*
X161800000Y-110400000D02*
X167600000Y-104600000D01*
X161800000Y-111300000D02*
X161800000Y-110400000D01*
%TO.N,SYNC*%
X150100000Y-111900000D02*
X150100000Y-113700000D01*
X154700000Y-107300000D02*
X150100000Y-111900000D01*
X154700000Y-105200000D02*
X154700000Y-107300000D01*
X152200000Y-115800000D02*
X150100000Y-113700000D01*
X154600000Y-115800000D02*
X152200000Y-115800000D01*
%TO.N,EN*%
X145063000Y-105600000D02*
X142363000Y-102900000D01*
X145179412Y-105600000D02*
X145063000Y-105600000D01*
X145300000Y-105479412D02*
X145179412Y-105600000D01*
%TO.N,+3.3V*%
X151137500Y-99050000D02*
X152550000Y-99050000D01*
X150561747Y-99050000D02*
X151137500Y-99050000D01*
X152550000Y-99050000D02*
X152600000Y-99100000D01*
%TO.N,GND*%
X148862500Y-100000000D02*
X148275192Y-100000000D01*
X151137500Y-100000000D02*
X152600000Y-100000000D01*
X148275192Y-100000000D02*
X147682338Y-99407146D01*
X148862500Y-99050000D02*
X148862500Y-100000000D01*
X151137500Y-100000000D02*
X148862500Y-100000000D01*
D25*
%TO.N,MOTOR_A1*%
X134432353Y-96229412D02*
X140820588Y-96229412D01*
X140820588Y-96229412D02*
X141350000Y-95700000D01*
%TO.N,MOTOR_B2*%
X134432353Y-102229412D02*
X140779412Y-102229412D01*
X140779412Y-102229412D02*
X141250000Y-102700000D01*
D22*
%TO.N,SCL1*%
X148950000Y-100950000D02*
X148862500Y-100950000D01*
X156100000Y-103150000D02*
X155650000Y-103600000D01*
X151600000Y-103600000D02*
X148950000Y-100950000D01*
X155650000Y-103600000D02*
X151600000Y-103600000D01*
%TO.N,SDA1*%
X152200000Y-103000000D02*
X151137500Y-101937500D01*
X155200000Y-100780761D02*
X144600000Y-90180761D01*
X151137500Y-101937500D02*
X151137500Y-100950000D01*
X155200000Y-102500000D02*
X154700000Y-103000000D01*
X144600000Y-90180761D02*
X144600000Y-88000000D01*
X155200000Y-102500000D02*
X155200000Y-100780761D01*
X154700000Y-103000000D02*
X152200000Y-103000000D01*
%TD*%
%TA.AperFunction,Conductor*%
%TO.N,GND*%
G36*
X145114733Y-88390290D02*
G01*
X145154979Y-88424332D01*
X145207379Y-88492621D01*
X145322375Y-88580861D01*
X145456291Y-88636330D01*
X145600000Y-88655250D01*
X145654495Y-88648075D01*
X145723530Y-88658840D01*
X145758362Y-88683333D01*
X146863181Y-89788152D01*
X146896666Y-89849475D01*
X146899500Y-89875833D01*
X146899500Y-90503941D01*
X146879815Y-90570980D01*
X146827011Y-90616735D01*
X146757853Y-90626679D01*
X146703907Y-90603956D01*
X146703903Y-90603964D01*
X146703845Y-90603930D01*
X146700014Y-90602317D01*
X146696864Y-90599900D01*
X146696862Y-90599899D01*
X146562951Y-90544432D01*
X146562949Y-90544431D01*
X146562948Y-90544431D01*
X146491093Y-90534971D01*
X146419240Y-90525511D01*
X146419238Y-90525511D01*
X146275530Y-90544431D01*
X146275526Y-90544432D01*
X146141616Y-90599898D01*
X146026618Y-90688140D01*
X145938376Y-90803138D01*
X145924153Y-90837476D01*
X145880311Y-90891878D01*
X145814017Y-90913942D01*
X145746318Y-90896662D01*
X145721912Y-90877702D01*
X144936819Y-90092609D01*
X144903334Y-90031286D01*
X144900500Y-90004928D01*
X144900500Y-88524458D01*
X144920185Y-88457419D01*
X144949011Y-88426084D01*
X144981121Y-88401445D01*
X145046288Y-88376252D01*
X145114733Y-88390290D01*
G37*
%TD.AperFunction*%
%TA.AperFunction,Conductor*%
G36*
X165500642Y-79000007D02*
G01*
X165735302Y-79002565D01*
X165744734Y-79003029D01*
X166212846Y-79043984D01*
X166223567Y-79045396D01*
X166685664Y-79126875D01*
X166696192Y-79129209D01*
X167149458Y-79250661D01*
X167159747Y-79253906D01*
X167600688Y-79414395D01*
X167610654Y-79418523D01*
X168035926Y-79616830D01*
X168045512Y-79621821D01*
X168451866Y-79856429D01*
X168460985Y-79862238D01*
X168845353Y-80131376D01*
X168853935Y-80137962D01*
X169213370Y-80439564D01*
X169221345Y-80446872D01*
X169553127Y-80778654D01*
X169560435Y-80786629D01*
X169862037Y-81146064D01*
X169868623Y-81154646D01*
X170137761Y-81539014D01*
X170143573Y-81548138D01*
X170378176Y-81954483D01*
X170383171Y-81964078D01*
X170581470Y-82389331D01*
X170585609Y-82399323D01*
X170692088Y-82691873D01*
X170746089Y-82840239D01*
X170749342Y-82850555D01*
X170870786Y-83303790D01*
X170873127Y-83314352D01*
X170954603Y-83776432D01*
X170956015Y-83787156D01*
X170996969Y-84255252D01*
X170997434Y-84264708D01*
X170999993Y-84499357D01*
X171000000Y-84500709D01*
X171000000Y-102130651D01*
X170980315Y-102197690D01*
X170927511Y-102243445D01*
X170858353Y-102253389D01*
X170794797Y-102224364D01*
X170757023Y-102165586D01*
X170754383Y-102154843D01*
X170748581Y-102125677D01*
X170748580Y-102125676D01*
X170748580Y-102125672D01*
X170737947Y-102100001D01*
X170695778Y-101998195D01*
X170695771Y-101998182D01*
X170619114Y-101883458D01*
X170619111Y-101883454D01*
X170521545Y-101785888D01*
X170521541Y-101785885D01*
X170406817Y-101709228D01*
X170406804Y-101709221D01*
X170279332Y-101656421D01*
X170279322Y-101656418D01*
X170143995Y-101629500D01*
X170143993Y-101629500D01*
X169206007Y-101629500D01*
X169206005Y-101629500D01*
X169070677Y-101656418D01*
X169070667Y-101656421D01*
X168943195Y-101709221D01*
X168943182Y-101709228D01*
X168828458Y-101785885D01*
X168828454Y-101785888D01*
X168730888Y-101883454D01*
X168730885Y-101883458D01*
X168654228Y-101998182D01*
X168654221Y-101998195D01*
X168601421Y-102125667D01*
X168601418Y-102125677D01*
X168574500Y-102261004D01*
X168574500Y-102261007D01*
X168574500Y-102398993D01*
X168574500Y-102398995D01*
X168574499Y-102398995D01*
X168601418Y-102534322D01*
X168601421Y-102534332D01*
X168654221Y-102661804D01*
X168654228Y-102661817D01*
X168730885Y-102776541D01*
X168730888Y-102776545D01*
X168828454Y-102874111D01*
X168828458Y-102874114D01*
X168943182Y-102950771D01*
X168943195Y-102950778D01*
X169059977Y-102999150D01*
X169070672Y-103003580D01*
X169070676Y-103003580D01*
X169070677Y-103003581D01*
X169206004Y-103030500D01*
X169206007Y-103030500D01*
X170143995Y-103030500D01*
X170235041Y-103012389D01*
X170279328Y-103003580D01*
X170406811Y-102950775D01*
X170521542Y-102874114D01*
X170619114Y-102776542D01*
X170695775Y-102661811D01*
X170748580Y-102534328D01*
X170754383Y-102505157D01*
X170786768Y-102443246D01*
X170847483Y-102408672D01*
X170917253Y-102412411D01*
X170973925Y-102453278D01*
X170999506Y-102518296D01*
X171000000Y-102529348D01*
X171000000Y-110770651D01*
X170980315Y-110837690D01*
X170927511Y-110883445D01*
X170858353Y-110893389D01*
X170794797Y-110864364D01*
X170757023Y-110805586D01*
X170754383Y-110794843D01*
X170748581Y-110765677D01*
X170748580Y-110765676D01*
X170748580Y-110765672D01*
X170748578Y-110765667D01*
X170695778Y-110638195D01*
X170695771Y-110638182D01*
X170619114Y-110523458D01*
X170619111Y-110523454D01*
X170521545Y-110425888D01*
X170521541Y-110425885D01*
X170406817Y-110349228D01*
X170406804Y-110349221D01*
X170279332Y-110296421D01*
X170279322Y-110296418D01*
X170143995Y-110269500D01*
X170143993Y-110269500D01*
X169206007Y-110269500D01*
X169206005Y-110269500D01*
X169070677Y-110296418D01*
X169070667Y-110296421D01*
X168943195Y-110349221D01*
X168943182Y-110349228D01*
X168828458Y-110425885D01*
X168828454Y-110425888D01*
X168730888Y-110523454D01*
X168730885Y-110523458D01*
X168654228Y-110638182D01*
X168654221Y-110638195D01*
X168601421Y-110765667D01*
X168601418Y-110765677D01*
X168574500Y-110901004D01*
X168574500Y-110901007D01*
X168574500Y-111038993D01*
X168574500Y-111038995D01*
X168574499Y-111038995D01*
X168601418Y-111174322D01*
X168601421Y-111174332D01*
X168654221Y-111301804D01*
X168654228Y-111301817D01*
X168730885Y-111416541D01*
X168730888Y-111416545D01*
X168828454Y-111514111D01*
X168828458Y-111514114D01*
X168943182Y-111590771D01*
X168943195Y-111590778D01*
X169070667Y-111643578D01*
X169070672Y-111643580D01*
X169070676Y-111643580D01*
X169070677Y-111643581D01*
X169206004Y-111670500D01*
X169206007Y-111670500D01*
X170143995Y-111670500D01*
X170235041Y-111652389D01*
X170279328Y-111643580D01*
X170406811Y-111590775D01*
X170521542Y-111514114D01*
X170619114Y-111416542D01*
X170695775Y-111301811D01*
X170748580Y-111174328D01*
X170754383Y-111145157D01*
X170786768Y-111083246D01*
X170847483Y-111048672D01*
X170917253Y-111052411D01*
X170973925Y-111093278D01*
X170999506Y-111158296D01*
X171000000Y-111169348D01*
X171000000Y-115499290D01*
X170999993Y-115500642D01*
X170997434Y-115735291D01*
X170996969Y-115744747D01*
X170956015Y-116212843D01*
X170954603Y-116223567D01*
X170873127Y-116685647D01*
X170870786Y-116696209D01*
X170749342Y-117149444D01*
X170746089Y-117159760D01*
X170585610Y-117600673D01*
X170581470Y-117610668D01*
X170383171Y-118035921D01*
X170378176Y-118045516D01*
X170143573Y-118451861D01*
X170137761Y-118460985D01*
X169868623Y-118845353D01*
X169862037Y-118853935D01*
X169560435Y-119213370D01*
X169553127Y-119221345D01*
X169221345Y-119553127D01*
X169213370Y-119560435D01*
X168853935Y-119862037D01*
X168845353Y-119868623D01*
X168460985Y-120137761D01*
X168451861Y-120143573D01*
X168045516Y-120378176D01*
X168035921Y-120383171D01*
X167610668Y-120581470D01*
X167600673Y-120585610D01*
X167159760Y-120746089D01*
X167149444Y-120749342D01*
X166696209Y-120870786D01*
X166685647Y-120873127D01*
X166223567Y-120954603D01*
X166212843Y-120956015D01*
X165744747Y-120996969D01*
X165735291Y-120997434D01*
X165500642Y-120999993D01*
X165499290Y-121000000D01*
X134500710Y-121000000D01*
X134499358Y-120999993D01*
X134264708Y-120997434D01*
X134255252Y-120996969D01*
X133787156Y-120956015D01*
X133776432Y-120954603D01*
X133314352Y-120873127D01*
X133303790Y-120870786D01*
X132850555Y-120749342D01*
X132840239Y-120746089D01*
X132399326Y-120585610D01*
X132389331Y-120581470D01*
X131964078Y-120383171D01*
X131954483Y-120378176D01*
X131548138Y-120143573D01*
X131539014Y-120137761D01*
X131154646Y-119868623D01*
X131146064Y-119862037D01*
X130786629Y-119560435D01*
X130778654Y-119553127D01*
X130446872Y-119221345D01*
X130439564Y-119213370D01*
X130137962Y-118853935D01*
X130131376Y-118845353D01*
X129972657Y-118618679D01*
X129862235Y-118460981D01*
X129856426Y-118451861D01*
X129855640Y-118450500D01*
X129621821Y-118045512D01*
X129616828Y-118035921D01*
X129418523Y-117610654D01*
X129414395Y-117600688D01*
X129253906Y-117159747D01*
X129250661Y-117149458D01*
X129129209Y-116696192D01*
X129126875Y-116685664D01*
X129045396Y-116223567D01*
X129043984Y-116212843D01*
X129042215Y-116192618D01*
X129003029Y-115744734D01*
X129002565Y-115735291D01*
X129000007Y-115500642D01*
X129000004Y-115499996D01*
X131544500Y-115499996D01*
X131544500Y-115500003D01*
X131564484Y-115843113D01*
X131564485Y-115843124D01*
X131624163Y-116181575D01*
X131624166Y-116181588D01*
X131722737Y-116510840D01*
X131858865Y-116826417D01*
X131858871Y-116826430D01*
X132030716Y-117124075D01*
X132235952Y-117399755D01*
X132235957Y-117399761D01*
X132357767Y-117528871D01*
X132471813Y-117649753D01*
X132471819Y-117649758D01*
X132471821Y-117649760D01*
X132735093Y-117870672D01*
X132735098Y-117870675D01*
X133022250Y-118059538D01*
X133124329Y-118110804D01*
X133329378Y-118213785D01*
X133329384Y-118213787D01*
X133329386Y-118213788D01*
X133652353Y-118331338D01*
X133986783Y-118410599D01*
X134328153Y-118450500D01*
X134328160Y-118450500D01*
X134671840Y-118450500D01*
X134671847Y-118450500D01*
X135013217Y-118410599D01*
X135347647Y-118331338D01*
X135670614Y-118213788D01*
X135670617Y-118213786D01*
X135670621Y-118213785D01*
X135698070Y-118199999D01*
X140144750Y-118199999D01*
X140144750Y-118200000D01*
X140163670Y-118343708D01*
X140163671Y-118343712D01*
X140219137Y-118477622D01*
X140219138Y-118477624D01*
X140219139Y-118477625D01*
X140307379Y-118592621D01*
X140422375Y-118680861D01*
X140556291Y-118736330D01*
X140556297Y-118736330D01*
X140564141Y-118738433D01*
X140563673Y-118740176D01*
X140618319Y-118764348D01*
X140656792Y-118822671D01*
X140661179Y-118875208D01*
X140644750Y-118999997D01*
X140644750Y-119000000D01*
X140663670Y-119143708D01*
X140663671Y-119143712D01*
X140719137Y-119277622D01*
X140719138Y-119277624D01*
X140719139Y-119277625D01*
X140807379Y-119392621D01*
X140922375Y-119480861D01*
X141056291Y-119536330D01*
X141183280Y-119553048D01*
X141199999Y-119555250D01*
X141200000Y-119555250D01*
X141200001Y-119555250D01*
X141216125Y-119553127D01*
X141343709Y-119536330D01*
X141477625Y-119480861D01*
X141574515Y-119406514D01*
X141639682Y-119381321D01*
X141708127Y-119395359D01*
X141725480Y-119406510D01*
X141822375Y-119480861D01*
X141956291Y-119536330D01*
X142083280Y-119553048D01*
X142099999Y-119555250D01*
X142100000Y-119555250D01*
X142100001Y-119555250D01*
X142116125Y-119553127D01*
X142243709Y-119536330D01*
X142377625Y-119480861D01*
X142474515Y-119406514D01*
X142539682Y-119381321D01*
X142608127Y-119395359D01*
X142625480Y-119406510D01*
X142722375Y-119480861D01*
X142856291Y-119536330D01*
X142983280Y-119553048D01*
X142999999Y-119555250D01*
X143000000Y-119555250D01*
X143000001Y-119555250D01*
X143016125Y-119553127D01*
X143143709Y-119536330D01*
X143277625Y-119480861D01*
X143392621Y-119392621D01*
X143480861Y-119277625D01*
X143536330Y-119143709D01*
X143555250Y-119000000D01*
X143536330Y-118856291D01*
X143486641Y-118736330D01*
X143480862Y-118722377D01*
X143480861Y-118722376D01*
X143480861Y-118722375D01*
X143392621Y-118607379D01*
X143277625Y-118519139D01*
X143277624Y-118519138D01*
X143277622Y-118519137D01*
X143143712Y-118463671D01*
X143143710Y-118463670D01*
X143143709Y-118463670D01*
X143071854Y-118454210D01*
X143000001Y-118444750D01*
X142999999Y-118444750D01*
X142856291Y-118463670D01*
X142856287Y-118463671D01*
X142722377Y-118519137D01*
X142687581Y-118545836D01*
X142625484Y-118593485D01*
X142560318Y-118618679D01*
X142491873Y-118604641D01*
X142474519Y-118593489D01*
X142377625Y-118519139D01*
X142377624Y-118519138D01*
X142377622Y-118519137D01*
X142308602Y-118490549D01*
X142254198Y-118446709D01*
X142232133Y-118380415D01*
X142235385Y-118351781D01*
X142235269Y-118351766D01*
X142236126Y-118345251D01*
X142236282Y-118343884D01*
X142236324Y-118343721D01*
X142236330Y-118343709D01*
X142255250Y-118200000D01*
X142236330Y-118056291D01*
X142180861Y-117922375D01*
X142092621Y-117807379D01*
X141977625Y-117719139D01*
X141977624Y-117719138D01*
X141977622Y-117719137D01*
X141843712Y-117663671D01*
X141843710Y-117663670D01*
X141843709Y-117663670D01*
X141738001Y-117649753D01*
X141700001Y-117644750D01*
X141699999Y-117644750D01*
X141556291Y-117663670D01*
X141556287Y-117663671D01*
X141422377Y-117719137D01*
X141364877Y-117763259D01*
X141307379Y-117807379D01*
X141307378Y-117807380D01*
X141307377Y-117807381D01*
X141298375Y-117819113D01*
X141241947Y-117860316D01*
X141172201Y-117864470D01*
X141111281Y-117830257D01*
X141101625Y-117819113D01*
X141099782Y-117816711D01*
X141092621Y-117807379D01*
X140977625Y-117719139D01*
X140977624Y-117719138D01*
X140977622Y-117719137D01*
X140843712Y-117663671D01*
X140843710Y-117663670D01*
X140843709Y-117663670D01*
X140738001Y-117649753D01*
X140700001Y-117644750D01*
X140699999Y-117644750D01*
X140556291Y-117663670D01*
X140556287Y-117663671D01*
X140422377Y-117719137D01*
X140307379Y-117807379D01*
X140219137Y-117922377D01*
X140163671Y-118056287D01*
X140163670Y-118056291D01*
X140144750Y-118199999D01*
X135698070Y-118199999D01*
X135774487Y-118161620D01*
X135977750Y-118059538D01*
X136264902Y-117870675D01*
X136277248Y-117860316D01*
X136511601Y-117663670D01*
X136528187Y-117649753D01*
X136764044Y-117399759D01*
X136969284Y-117124074D01*
X137141131Y-116826426D01*
X137277262Y-116510841D01*
X137375834Y-116181585D01*
X137381578Y-116149013D01*
X137435514Y-115843124D01*
X137435513Y-115843124D01*
X137435516Y-115843113D01*
X137455500Y-115500000D01*
X137454324Y-115479815D01*
X137451536Y-115431950D01*
X137435516Y-115156887D01*
X137375834Y-114818415D01*
X137277262Y-114489159D01*
X137141131Y-114173574D01*
X136969284Y-113875926D01*
X136969283Y-113875924D01*
X136838312Y-113699999D01*
X149544750Y-113699999D01*
X149544750Y-113700000D01*
X149563670Y-113843708D01*
X149563671Y-113843712D01*
X149619137Y-113977622D01*
X149619138Y-113977624D01*
X149619139Y-113977625D01*
X149707379Y-114092621D01*
X149822375Y-114180861D01*
X149956291Y-114236330D01*
X150100000Y-114255250D01*
X150154495Y-114248075D01*
X150223530Y-114258840D01*
X150258362Y-114283333D01*
X151959540Y-115984511D01*
X152015489Y-116040460D01*
X152015491Y-116040461D01*
X152015495Y-116040464D01*
X152079856Y-116077622D01*
X152084011Y-116080021D01*
X152160438Y-116100500D01*
X154075542Y-116100500D01*
X154142581Y-116120185D01*
X154173917Y-116149013D01*
X154207379Y-116192621D01*
X154322375Y-116280861D01*
X154456291Y-116336330D01*
X154583280Y-116353048D01*
X154599999Y-116355250D01*
X154600000Y-116355250D01*
X154600001Y-116355250D01*
X154614977Y-116353278D01*
X154743709Y-116336330D01*
X154877625Y-116280861D01*
X154992621Y-116192621D01*
X155080861Y-116077625D01*
X155136330Y-115943709D01*
X155155250Y-115800000D01*
X155136330Y-115656291D01*
X155080861Y-115522375D01*
X155063689Y-115499996D01*
X162544500Y-115499996D01*
X162544500Y-115500003D01*
X162564484Y-115843113D01*
X162564485Y-115843124D01*
X162624163Y-116181575D01*
X162624166Y-116181588D01*
X162722737Y-116510840D01*
X162858865Y-116826417D01*
X162858871Y-116826430D01*
X163030716Y-117124075D01*
X163235952Y-117399755D01*
X163235957Y-117399761D01*
X163357767Y-117528871D01*
X163471813Y-117649753D01*
X163471819Y-117649758D01*
X163471821Y-117649760D01*
X163735093Y-117870672D01*
X163735098Y-117870675D01*
X164022250Y-118059538D01*
X164124329Y-118110804D01*
X164329378Y-118213785D01*
X164329384Y-118213787D01*
X164329386Y-118213788D01*
X164652353Y-118331338D01*
X164986783Y-118410599D01*
X165328153Y-118450500D01*
X165328160Y-118450500D01*
X165671840Y-118450500D01*
X165671847Y-118450500D01*
X166013217Y-118410599D01*
X166347647Y-118331338D01*
X166670614Y-118213788D01*
X166670617Y-118213786D01*
X166670621Y-118213785D01*
X166774487Y-118161620D01*
X166977750Y-118059538D01*
X167264902Y-117870675D01*
X167277248Y-117860316D01*
X167511601Y-117663670D01*
X167528187Y-117649753D01*
X167764044Y-117399759D01*
X167969284Y-117124074D01*
X168141131Y-116826426D01*
X168277262Y-116510841D01*
X168375834Y-116181585D01*
X168381578Y-116149013D01*
X168435514Y-115843124D01*
X168435513Y-115843124D01*
X168435516Y-115843113D01*
X168455500Y-115500000D01*
X168454324Y-115479815D01*
X168451536Y-115431950D01*
X168435516Y-115156887D01*
X168375834Y-114818415D01*
X168277262Y-114489159D01*
X168141131Y-114173574D01*
X167969284Y-113875926D01*
X167969283Y-113875924D01*
X167764047Y-113600244D01*
X167764042Y-113600238D01*
X167596236Y-113422375D01*
X167528187Y-113350247D01*
X167528180Y-113350241D01*
X167528178Y-113350239D01*
X167264906Y-113129327D01*
X167121326Y-113034893D01*
X166977750Y-112940462D01*
X166975956Y-112939561D01*
X166670621Y-112786214D01*
X166670615Y-112786212D01*
X166347648Y-112668662D01*
X166347645Y-112668661D01*
X166013218Y-112589401D01*
X165970545Y-112584413D01*
X165671847Y-112549500D01*
X165328153Y-112549500D01*
X165029454Y-112584413D01*
X164986782Y-112589401D01*
X164986780Y-112589401D01*
X164652354Y-112668661D01*
X164652351Y-112668662D01*
X164329384Y-112786212D01*
X164329378Y-112786214D01*
X164022253Y-112940460D01*
X163735093Y-113129327D01*
X163471821Y-113350239D01*
X163471811Y-113350249D01*
X163235957Y-113600238D01*
X163235952Y-113600244D01*
X163030716Y-113875924D01*
X162858871Y-114173569D01*
X162858865Y-114173582D01*
X162722737Y-114489159D01*
X162624166Y-114818411D01*
X162624163Y-114818424D01*
X162564485Y-115156875D01*
X162564484Y-115156886D01*
X162544500Y-115499996D01*
X155063689Y-115499996D01*
X154992621Y-115407379D01*
X154877625Y-115319139D01*
X154877624Y-115319138D01*
X154877622Y-115319137D01*
X154743712Y-115263671D01*
X154743710Y-115263670D01*
X154743709Y-115263670D01*
X154671854Y-115254210D01*
X154600001Y-115244750D01*
X154599999Y-115244750D01*
X154456291Y-115263670D01*
X154456287Y-115263671D01*
X154322377Y-115319137D01*
X154264877Y-115363259D01*
X154207379Y-115407379D01*
X154207378Y-115407380D01*
X154207377Y-115407381D01*
X154173917Y-115450987D01*
X154117489Y-115492189D01*
X154075542Y-115499500D01*
X152375833Y-115499500D01*
X152308794Y-115479815D01*
X152288152Y-115463181D01*
X150683333Y-113858362D01*
X150649848Y-113797039D01*
X150648075Y-113754494D01*
X150655250Y-113700000D01*
X150636330Y-113556291D01*
X150580861Y-113422375D01*
X150492621Y-113307379D01*
X150492618Y-113307377D01*
X150492617Y-113307375D01*
X150449013Y-113273916D01*
X150407810Y-113217488D01*
X150400500Y-113175541D01*
X150400500Y-112075833D01*
X150420185Y-112008794D01*
X150436819Y-111988152D01*
X152661293Y-109763678D01*
X153924971Y-108500000D01*
X158344750Y-108500000D01*
X158353300Y-108564946D01*
X158363670Y-108643708D01*
X158363671Y-108643712D01*
X158419137Y-108777622D01*
X158419138Y-108777624D01*
X158419139Y-108777625D01*
X158507379Y-108892621D01*
X158622375Y-108980861D01*
X158756291Y-109036330D01*
X158883280Y-109053048D01*
X158899999Y-109055250D01*
X158900000Y-109055250D01*
X158900001Y-109055250D01*
X158914977Y-109053278D01*
X159043709Y-109036330D01*
X159177625Y-108980861D01*
X159292621Y-108892621D01*
X159380861Y-108777625D01*
X159436330Y-108643709D01*
X159455250Y-108500000D01*
X159454673Y-108495621D01*
X159452048Y-108475677D01*
X159436330Y-108356291D01*
X159380861Y-108222375D01*
X159292621Y-108107379D01*
X159177625Y-108019139D01*
X159177624Y-108019138D01*
X159177622Y-108019137D01*
X159043712Y-107963671D01*
X159043710Y-107963670D01*
X159043709Y-107963670D01*
X158971854Y-107954210D01*
X158900001Y-107944750D01*
X158899999Y-107944750D01*
X158756291Y-107963670D01*
X158756287Y-107963671D01*
X158622377Y-108019137D01*
X158507379Y-108107379D01*
X158419137Y-108222377D01*
X158363671Y-108356287D01*
X158363670Y-108356291D01*
X158345327Y-108495621D01*
X158344750Y-108500000D01*
X153924971Y-108500000D01*
X154940460Y-107484511D01*
X154980021Y-107415989D01*
X155000500Y-107339562D01*
X155000500Y-105724457D01*
X155020185Y-105657418D01*
X155049011Y-105626083D01*
X155092621Y-105592621D01*
X155180861Y-105477625D01*
X155236330Y-105343709D01*
X155255250Y-105200000D01*
X155236330Y-105056291D01*
X155180861Y-104922375D01*
X155092621Y-104807379D01*
X154977625Y-104719139D01*
X154977624Y-104719138D01*
X154977622Y-104719137D01*
X154843712Y-104663671D01*
X154843710Y-104663670D01*
X154843709Y-104663670D01*
X154771854Y-104654210D01*
X154700001Y-104644750D01*
X154699999Y-104644750D01*
X154556291Y-104663670D01*
X154556287Y-104663671D01*
X154422377Y-104719137D01*
X154307379Y-104807379D01*
X154219137Y-104922377D01*
X154163671Y-105056287D01*
X154163670Y-105056291D01*
X154159655Y-105086791D01*
X154144750Y-105200000D01*
X154162615Y-105335699D01*
X154163670Y-105343708D01*
X154163671Y-105343712D01*
X154219137Y-105477622D01*
X154219138Y-105477624D01*
X154219139Y-105477625D01*
X154307379Y-105592621D01*
X154350987Y-105626082D01*
X154392189Y-105682508D01*
X154399500Y-105724457D01*
X154399500Y-107124167D01*
X154379815Y-107191206D01*
X154363181Y-107211848D01*
X149859541Y-111715487D01*
X149859535Y-111715495D01*
X149819982Y-111784004D01*
X149819979Y-111784009D01*
X149799500Y-111860439D01*
X149799500Y-113175541D01*
X149779815Y-113242580D01*
X149750987Y-113273916D01*
X149707382Y-113307375D01*
X149619137Y-113422377D01*
X149563671Y-113556287D01*
X149563670Y-113556291D01*
X149544750Y-113699999D01*
X136838312Y-113699999D01*
X136764047Y-113600244D01*
X136764042Y-113600238D01*
X136596236Y-113422375D01*
X136528187Y-113350247D01*
X136528180Y-113350241D01*
X136528178Y-113350239D01*
X136264906Y-113129327D01*
X136121326Y-113034893D01*
X135977750Y-112940462D01*
X135975956Y-112939561D01*
X135670621Y-112786214D01*
X135670615Y-112786212D01*
X135347648Y-112668662D01*
X135347645Y-112668661D01*
X135013218Y-112589401D01*
X134970545Y-112584413D01*
X134671847Y-112549500D01*
X134328153Y-112549500D01*
X134029454Y-112584413D01*
X133986782Y-112589401D01*
X133986780Y-112589401D01*
X133652354Y-112668661D01*
X133652351Y-112668662D01*
X133329384Y-112786212D01*
X133329378Y-112786214D01*
X133022253Y-112940460D01*
X132735093Y-113129327D01*
X132471821Y-113350239D01*
X132471811Y-113350249D01*
X132235957Y-113600238D01*
X132235952Y-113600244D01*
X132030716Y-113875924D01*
X131858871Y-114173569D01*
X131858865Y-114173582D01*
X131722737Y-114489159D01*
X131624166Y-114818411D01*
X131624163Y-114818424D01*
X131564485Y-115156875D01*
X131564484Y-115156886D01*
X131544500Y-115499996D01*
X129000004Y-115499996D01*
X129000000Y-115499290D01*
X129000000Y-106900013D01*
X133075000Y-106900013D01*
X133075000Y-107050000D01*
X134169670Y-107050000D01*
X134149925Y-107069745D01*
X134100556Y-107155255D01*
X134075000Y-107250630D01*
X134075000Y-107349370D01*
X134100556Y-107444745D01*
X134149925Y-107530255D01*
X134169670Y-107550000D01*
X133075001Y-107550000D01*
X133075001Y-107699986D01*
X133085494Y-107802697D01*
X133140641Y-107969119D01*
X133140643Y-107969124D01*
X133232684Y-108118345D01*
X133356654Y-108242315D01*
X133505875Y-108334356D01*
X133505880Y-108334358D01*
X133672302Y-108389505D01*
X133672310Y-108389506D01*
X133697694Y-108392100D01*
X133762386Y-108418496D01*
X133802538Y-108475677D01*
X133805401Y-108545488D01*
X133770067Y-108605764D01*
X133753983Y-108618560D01*
X133664711Y-108678210D01*
X133664707Y-108678213D01*
X133553213Y-108789707D01*
X133553210Y-108789711D01*
X133465609Y-108920814D01*
X133465602Y-108920827D01*
X133405264Y-109066498D01*
X133405261Y-109066510D01*
X133374500Y-109221153D01*
X133374500Y-109378846D01*
X133405261Y-109533489D01*
X133405264Y-109533501D01*
X133465602Y-109679172D01*
X133465609Y-109679185D01*
X133553210Y-109810288D01*
X133553213Y-109810292D01*
X133664707Y-109921786D01*
X133664711Y-109921789D01*
X133795814Y-110009390D01*
X133795827Y-110009397D01*
X133865155Y-110038113D01*
X133941503Y-110069737D01*
X134096153Y-110100499D01*
X134096156Y-110100500D01*
X134096158Y-110100500D01*
X134803844Y-110100500D01*
X134803845Y-110100499D01*
X134958497Y-110069737D01*
X135104179Y-110009394D01*
X135235289Y-109921789D01*
X135346789Y-109810289D01*
X135434394Y-109679179D01*
X135494737Y-109533497D01*
X135525500Y-109378842D01*
X135525500Y-109221158D01*
X135525500Y-109221155D01*
X135525499Y-109221153D01*
X135496683Y-109076287D01*
X135494737Y-109066503D01*
X135467188Y-108999993D01*
X135434397Y-108920827D01*
X135434390Y-108920814D01*
X135346789Y-108789711D01*
X135346786Y-108789707D01*
X135235292Y-108678213D01*
X135235288Y-108678210D01*
X135146015Y-108618559D01*
X135101210Y-108564946D01*
X135092503Y-108495621D01*
X135122658Y-108432594D01*
X135182101Y-108395875D01*
X135202308Y-108392099D01*
X135227696Y-108389506D01*
X135394119Y-108334358D01*
X135394124Y-108334356D01*
X135543345Y-108242315D01*
X135667315Y-108118345D01*
X135759356Y-107969124D01*
X135759358Y-107969119D01*
X135814505Y-107802697D01*
X135814506Y-107802690D01*
X135824999Y-107699986D01*
X135825000Y-107699973D01*
X135825000Y-107550000D01*
X134730330Y-107550000D01*
X134750075Y-107530255D01*
X134799444Y-107444745D01*
X134825000Y-107349370D01*
X134825000Y-107250630D01*
X134799444Y-107155255D01*
X134750075Y-107069745D01*
X134730330Y-107050000D01*
X135824999Y-107050000D01*
X135824999Y-106900028D01*
X135824998Y-106900013D01*
X135814505Y-106797302D01*
X135759358Y-106630880D01*
X135759356Y-106630875D01*
X135667315Y-106481654D01*
X135543345Y-106357684D01*
X135394124Y-106265643D01*
X135394119Y-106265641D01*
X135227697Y-106210494D01*
X135227690Y-106210493D01*
X135124986Y-106200000D01*
X134700000Y-106200000D01*
X134700000Y-107019670D01*
X134680255Y-106999925D01*
X134594745Y-106950556D01*
X134499370Y-106925000D01*
X134400630Y-106925000D01*
X134305255Y-106950556D01*
X134219745Y-106999925D01*
X134200000Y-107019670D01*
X134200000Y-106200000D01*
X133775028Y-106200000D01*
X133775012Y-106200001D01*
X133672302Y-106210494D01*
X133505880Y-106265641D01*
X133505875Y-106265643D01*
X133356654Y-106357684D01*
X133232684Y-106481654D01*
X133140643Y-106630875D01*
X133140641Y-106630880D01*
X133085494Y-106797302D01*
X133085493Y-106797309D01*
X133075000Y-106900013D01*
X129000000Y-106900013D01*
X129000000Y-105800000D01*
X140094750Y-105800000D01*
X140102927Y-105862113D01*
X140113670Y-105943708D01*
X140113671Y-105943712D01*
X140169138Y-106077623D01*
X140169139Y-106077625D01*
X140224301Y-106149514D01*
X140249495Y-106214683D01*
X140235456Y-106283128D01*
X140224301Y-106300486D01*
X140169139Y-106372374D01*
X140169138Y-106372376D01*
X140113671Y-106506287D01*
X140113670Y-106506291D01*
X140094750Y-106649999D01*
X140094750Y-106650000D01*
X140113670Y-106793708D01*
X140113671Y-106793712D01*
X140169137Y-106927622D01*
X140169138Y-106927624D01*
X140169139Y-106927625D01*
X140257379Y-107042621D01*
X140372375Y-107130861D01*
X140506291Y-107186330D01*
X140633280Y-107203048D01*
X140649999Y-107205250D01*
X140650000Y-107205250D01*
X140650001Y-107205250D01*
X140664977Y-107203278D01*
X140793709Y-107186330D01*
X140927625Y-107130861D01*
X141024515Y-107056514D01*
X141089682Y-107031321D01*
X141158127Y-107045359D01*
X141175480Y-107056510D01*
X141272375Y-107130861D01*
X141406291Y-107186330D01*
X141533280Y-107203048D01*
X141549999Y-107205250D01*
X141550000Y-107205250D01*
X141550001Y-107205250D01*
X141564977Y-107203278D01*
X141693709Y-107186330D01*
X141827625Y-107130861D01*
X141942621Y-107042621D01*
X142030861Y-106927625D01*
X142086330Y-106793709D01*
X142105250Y-106650000D01*
X142086330Y-106506291D01*
X142030861Y-106372375D01*
X142030860Y-106372374D01*
X142030860Y-106372373D01*
X141975699Y-106300487D01*
X141950504Y-106235318D01*
X141964542Y-106166873D01*
X141975699Y-106149513D01*
X142030860Y-106077626D01*
X142030859Y-106077626D01*
X142030861Y-106077625D01*
X142086330Y-105943709D01*
X142105250Y-105800000D01*
X142086330Y-105656291D01*
X142030861Y-105522375D01*
X141942621Y-105407379D01*
X141827625Y-105319139D01*
X141827624Y-105319138D01*
X141827622Y-105319137D01*
X141693712Y-105263671D01*
X141693710Y-105263670D01*
X141693709Y-105263670D01*
X141621854Y-105254210D01*
X141550001Y-105244750D01*
X141549999Y-105244750D01*
X141406291Y-105263670D01*
X141406287Y-105263671D01*
X141272377Y-105319137D01*
X141250788Y-105335703D01*
X141175484Y-105393485D01*
X141110318Y-105418679D01*
X141041873Y-105404641D01*
X141024519Y-105393489D01*
X140927625Y-105319139D01*
X140927624Y-105319138D01*
X140927622Y-105319137D01*
X140793712Y-105263671D01*
X140793710Y-105263670D01*
X140793709Y-105263670D01*
X140721854Y-105254210D01*
X140650001Y-105244750D01*
X140649999Y-105244750D01*
X140506291Y-105263670D01*
X140506287Y-105263671D01*
X140372377Y-105319137D01*
X140257379Y-105407379D01*
X140169137Y-105522377D01*
X140113671Y-105656287D01*
X140113670Y-105656291D01*
X140094750Y-105800000D01*
X129000000Y-105800000D01*
X129000000Y-102150565D01*
X133356853Y-102150565D01*
X133356853Y-102308258D01*
X133387614Y-102462901D01*
X133387617Y-102462913D01*
X133447955Y-102608584D01*
X133447962Y-102608597D01*
X133535563Y-102739700D01*
X133535566Y-102739704D01*
X133647060Y-102851198D01*
X133647064Y-102851201D01*
X133778167Y-102938802D01*
X133778180Y-102938809D01*
X133892514Y-102986167D01*
X133923856Y-102999149D01*
X134078506Y-103029911D01*
X134078509Y-103029912D01*
X134078511Y-103029912D01*
X134786197Y-103029912D01*
X134786198Y-103029911D01*
X134940850Y-102999149D01*
X135057629Y-102950778D01*
X135085217Y-102939351D01*
X135132669Y-102929912D01*
X140437893Y-102929912D01*
X140504932Y-102949597D01*
X140525574Y-102966231D01*
X140803453Y-103244111D01*
X140803454Y-103244112D01*
X140918192Y-103320777D01*
X141045667Y-103373578D01*
X141045672Y-103373580D01*
X141045676Y-103373580D01*
X141045677Y-103373581D01*
X141181003Y-103400500D01*
X141181006Y-103400500D01*
X141218981Y-103400500D01*
X141256643Y-103409541D01*
X141257565Y-103406704D01*
X141266846Y-103409720D01*
X141399968Y-103430804D01*
X141399970Y-103430804D01*
X141399972Y-103430804D01*
X141533091Y-103409720D01*
X141533091Y-103409719D01*
X141533096Y-103409719D01*
X141653190Y-103348528D01*
X141702218Y-103299500D01*
X141755399Y-103246320D01*
X141757797Y-103248718D01*
X141799388Y-103216623D01*
X141868999Y-103210619D01*
X141930806Y-103243202D01*
X141942793Y-103256671D01*
X141970376Y-103292618D01*
X141970377Y-103292619D01*
X141970379Y-103292621D01*
X142085375Y-103380861D01*
X142219291Y-103436330D01*
X142363000Y-103455250D01*
X142417495Y-103448075D01*
X142486530Y-103458840D01*
X142521362Y-103483333D01*
X144884237Y-105846208D01*
X144884049Y-105846395D01*
X144899767Y-105862113D01*
X144907379Y-105872033D01*
X145022375Y-105960273D01*
X145156291Y-106015742D01*
X145283280Y-106032460D01*
X145299999Y-106034662D01*
X145300000Y-106034662D01*
X145300001Y-106034662D01*
X145314977Y-106032690D01*
X145443709Y-106015742D01*
X145577625Y-105960273D01*
X145692621Y-105872033D01*
X145780861Y-105757037D01*
X145836330Y-105623121D01*
X145855250Y-105479412D01*
X145836330Y-105335703D01*
X145780861Y-105201787D01*
X145692621Y-105086791D01*
X145577625Y-104998551D01*
X145577624Y-104998550D01*
X145577622Y-104998549D01*
X145443712Y-104943083D01*
X145443710Y-104943082D01*
X145443709Y-104943082D01*
X145371854Y-104933622D01*
X145300001Y-104924162D01*
X145299999Y-104924162D01*
X145156291Y-104943082D01*
X145156287Y-104943083D01*
X145022370Y-104998552D01*
X145018642Y-105000705D01*
X145015099Y-105001564D01*
X145014866Y-105001661D01*
X145014850Y-105001624D01*
X144950741Y-105017174D01*
X144884716Y-104994319D01*
X144868967Y-104980996D01*
X143429388Y-103541417D01*
X147214264Y-103541417D01*
X147232997Y-103683709D01*
X147233184Y-103685125D01*
X147233185Y-103685129D01*
X147288651Y-103819039D01*
X147288652Y-103819041D01*
X147288653Y-103819042D01*
X147376893Y-103934038D01*
X147491889Y-104022278D01*
X147625805Y-104077747D01*
X147752794Y-104094465D01*
X147769513Y-104096667D01*
X147769514Y-104096667D01*
X147769515Y-104096667D01*
X147784491Y-104094695D01*
X147913223Y-104077747D01*
X148047139Y-104022278D01*
X148162135Y-103934038D01*
X148250375Y-103819042D01*
X148305844Y-103685126D01*
X148324764Y-103541417D01*
X148305844Y-103397708D01*
X148250375Y-103263792D01*
X148162135Y-103148796D01*
X148047139Y-103060556D01*
X148047138Y-103060555D01*
X148047136Y-103060554D01*
X147913226Y-103005088D01*
X147913224Y-103005087D01*
X147913223Y-103005087D01*
X147841368Y-102995627D01*
X147769515Y-102986167D01*
X147769513Y-102986167D01*
X147625805Y-103005087D01*
X147625801Y-103005088D01*
X147491891Y-103060554D01*
X147376893Y-103148796D01*
X147288651Y-103263794D01*
X147233185Y-103397704D01*
X147233184Y-103397708D01*
X147214264Y-103541417D01*
X143429388Y-103541417D01*
X142946333Y-103058362D01*
X142912848Y-102997039D01*
X142911075Y-102954494D01*
X142918250Y-102900000D01*
X142899330Y-102756291D01*
X142849791Y-102636691D01*
X142843862Y-102622377D01*
X142843861Y-102622376D01*
X142843861Y-102622375D01*
X142755621Y-102507379D01*
X142640625Y-102419139D01*
X142640624Y-102419138D01*
X142640622Y-102419137D01*
X142506712Y-102363671D01*
X142506710Y-102363670D01*
X142506709Y-102363670D01*
X142434854Y-102354210D01*
X142363001Y-102344750D01*
X142362999Y-102344750D01*
X142219291Y-102363670D01*
X142219287Y-102363671D01*
X142085376Y-102419138D01*
X142085370Y-102419141D01*
X142066750Y-102433429D01*
X142001580Y-102458622D01*
X141933136Y-102444582D01*
X141883147Y-102395767D01*
X141876705Y-102382504D01*
X141870778Y-102368195D01*
X141870774Y-102368188D01*
X141862822Y-102356287D01*
X141825472Y-102300389D01*
X141810645Y-102269816D01*
X141809690Y-102266877D01*
X141809689Y-102266875D01*
X141809689Y-102266874D01*
X141748498Y-102146780D01*
X141748494Y-102146776D01*
X141748493Y-102146774D01*
X141653195Y-102051476D01*
X141653191Y-102051473D01*
X141653190Y-102051472D01*
X141546191Y-101996953D01*
X141514809Y-101974152D01*
X141225958Y-101685300D01*
X141225957Y-101685299D01*
X141111219Y-101608634D01*
X140983744Y-101555833D01*
X140983734Y-101555830D01*
X140848408Y-101528912D01*
X140848406Y-101528912D01*
X140848405Y-101528912D01*
X135132669Y-101528912D01*
X135085217Y-101519473D01*
X134940854Y-101459676D01*
X134940842Y-101459673D01*
X134786198Y-101428912D01*
X134786195Y-101428912D01*
X134078511Y-101428912D01*
X134078508Y-101428912D01*
X133923863Y-101459673D01*
X133923851Y-101459676D01*
X133778180Y-101520014D01*
X133778167Y-101520021D01*
X133647064Y-101607622D01*
X133647060Y-101607625D01*
X133535566Y-101719119D01*
X133535563Y-101719123D01*
X133447962Y-101850226D01*
X133447955Y-101850239D01*
X133387617Y-101995910D01*
X133387614Y-101995922D01*
X133356853Y-102150565D01*
X129000000Y-102150565D01*
X129000000Y-100150565D01*
X133356853Y-100150565D01*
X133356853Y-100308258D01*
X133387614Y-100462901D01*
X133387617Y-100462913D01*
X133447955Y-100608584D01*
X133447962Y-100608597D01*
X133535563Y-100739700D01*
X133535566Y-100739704D01*
X133647060Y-100851198D01*
X133647064Y-100851201D01*
X133778167Y-100938802D01*
X133778180Y-100938809D01*
X133883777Y-100982548D01*
X133923856Y-100999149D01*
X134018430Y-101017961D01*
X134078506Y-101029911D01*
X134078509Y-101029912D01*
X134078511Y-101029912D01*
X134786197Y-101029912D01*
X134786198Y-101029911D01*
X134940850Y-100999149D01*
X135086532Y-100938806D01*
X135217642Y-100851201D01*
X135329142Y-100739701D01*
X135416747Y-100608591D01*
X135477090Y-100462909D01*
X135507853Y-100308254D01*
X135507853Y-100150570D01*
X135507853Y-100150567D01*
X135507852Y-100150565D01*
X135495900Y-100090479D01*
X135477090Y-99995915D01*
X135456595Y-99946435D01*
X135416750Y-99850239D01*
X135416743Y-99850226D01*
X135329142Y-99719123D01*
X135329139Y-99719119D01*
X135217645Y-99607625D01*
X135217641Y-99607622D01*
X135086538Y-99520021D01*
X135086525Y-99520014D01*
X134940854Y-99459676D01*
X134940842Y-99459673D01*
X134786198Y-99428912D01*
X134786195Y-99428912D01*
X134078511Y-99428912D01*
X134078508Y-99428912D01*
X133923863Y-99459673D01*
X133923851Y-99459676D01*
X133778180Y-99520014D01*
X133778167Y-99520021D01*
X133647064Y-99607622D01*
X133647060Y-99607625D01*
X133535566Y-99719119D01*
X133535563Y-99719123D01*
X133447962Y-99850226D01*
X133447955Y-99850239D01*
X133387617Y-99995910D01*
X133387614Y-99995922D01*
X133356853Y-100150565D01*
X129000000Y-100150565D01*
X129000000Y-99300001D01*
X147702704Y-99300001D01*
X147702899Y-99302488D01*
X147702900Y-99302494D01*
X147748716Y-99460193D01*
X147748722Y-99460208D01*
X147749716Y-99461888D01*
X147750093Y-99463375D01*
X147751817Y-99467359D01*
X147751174Y-99467637D01*
X147766893Y-99529613D01*
X147751378Y-99582451D01*
X147751817Y-99582641D01*
X147750278Y-99586196D01*
X147749716Y-99588112D01*
X147748722Y-99589791D01*
X147748716Y-99589806D01*
X147702900Y-99747505D01*
X147702899Y-99747511D01*
X147702704Y-99749998D01*
X147702705Y-99750000D01*
X148612500Y-99750000D01*
X148612500Y-99300000D01*
X147702705Y-99300000D01*
X147702704Y-99300001D01*
X129000000Y-99300001D01*
X129000000Y-98150565D01*
X133356853Y-98150565D01*
X133356853Y-98308258D01*
X133387614Y-98462901D01*
X133387617Y-98462913D01*
X133447955Y-98608584D01*
X133447962Y-98608597D01*
X133535563Y-98739700D01*
X133535566Y-98739704D01*
X133647060Y-98851198D01*
X133647064Y-98851201D01*
X133778167Y-98938802D01*
X133778180Y-98938809D01*
X133908093Y-98992620D01*
X133923856Y-98999149D01*
X134078506Y-99029911D01*
X134078509Y-99029912D01*
X134078511Y-99029912D01*
X134786197Y-99029912D01*
X134786198Y-99029911D01*
X134940850Y-98999149D01*
X135053519Y-98952479D01*
X135086525Y-98938809D01*
X135086525Y-98938808D01*
X135086532Y-98938806D01*
X135217642Y-98851201D01*
X135268845Y-98799998D01*
X147702704Y-98799998D01*
X147702705Y-98800000D01*
X148612500Y-98800000D01*
X149112500Y-98800000D01*
X150022295Y-98800000D01*
X150022295Y-98799998D01*
X150022100Y-98797513D01*
X149976281Y-98639801D01*
X149892685Y-98498447D01*
X149892678Y-98498438D01*
X149776561Y-98382321D01*
X149776552Y-98382314D01*
X149635196Y-98298717D01*
X149635193Y-98298716D01*
X149477495Y-98252900D01*
X149477489Y-98252899D01*
X149440649Y-98250000D01*
X149112500Y-98250000D01*
X149112500Y-98800000D01*
X148612500Y-98800000D01*
X148612500Y-98250000D01*
X148284350Y-98250000D01*
X148247510Y-98252899D01*
X148247504Y-98252900D01*
X148089806Y-98298716D01*
X148089803Y-98298717D01*
X147948447Y-98382314D01*
X147948438Y-98382321D01*
X147832321Y-98498438D01*
X147832314Y-98498447D01*
X147748718Y-98639801D01*
X147702899Y-98797513D01*
X147702704Y-98799998D01*
X135268845Y-98799998D01*
X135329142Y-98739701D01*
X135416747Y-98608591D01*
X135420306Y-98600000D01*
X135441233Y-98549475D01*
X135477090Y-98462909D01*
X135507853Y-98308254D01*
X135507853Y-98150570D01*
X135507853Y-98150567D01*
X135507852Y-98150565D01*
X135501601Y-98119139D01*
X135477090Y-97995915D01*
X135470809Y-97980752D01*
X135416750Y-97850239D01*
X135416743Y-97850226D01*
X135329142Y-97719123D01*
X135329139Y-97719119D01*
X135217645Y-97607625D01*
X135217641Y-97607622D01*
X135086538Y-97520021D01*
X135086525Y-97520014D01*
X134940854Y-97459676D01*
X134940842Y-97459673D01*
X134786198Y-97428912D01*
X134786195Y-97428912D01*
X134078511Y-97428912D01*
X134078508Y-97428912D01*
X133923863Y-97459673D01*
X133923851Y-97459676D01*
X133778180Y-97520014D01*
X133778167Y-97520021D01*
X133647064Y-97607622D01*
X133647060Y-97607625D01*
X133535566Y-97719119D01*
X133535563Y-97719123D01*
X133447962Y-97850226D01*
X133447955Y-97850239D01*
X133387617Y-97995910D01*
X133387614Y-97995922D01*
X133356853Y-98150565D01*
X129000000Y-98150565D01*
X129000000Y-95825142D01*
X133356853Y-95825142D01*
X133356853Y-96633681D01*
X133359706Y-96664111D01*
X133359706Y-96664113D01*
X133404559Y-96792292D01*
X133404560Y-96792294D01*
X133485203Y-96901562D01*
X133594471Y-96982205D01*
X133637198Y-96997156D01*
X133722652Y-97027058D01*
X133753083Y-97029912D01*
X133753087Y-97029912D01*
X135111623Y-97029912D01*
X135142052Y-97027058D01*
X135142054Y-97027058D01*
X135206143Y-97004631D01*
X135270235Y-96982205D01*
X135306368Y-96955538D01*
X135308260Y-96954142D01*
X135373889Y-96930171D01*
X135381893Y-96929912D01*
X140889584Y-96929912D01*
X140980628Y-96911801D01*
X141024916Y-96902992D01*
X141088657Y-96876589D01*
X141152395Y-96850189D01*
X141152396Y-96850188D01*
X141152399Y-96850187D01*
X141227510Y-96800000D01*
X144944750Y-96800000D01*
X144958309Y-96902992D01*
X144963670Y-96943708D01*
X144963671Y-96943712D01*
X145019137Y-97077622D01*
X145019138Y-97077624D01*
X145019139Y-97077625D01*
X145107379Y-97192621D01*
X145222375Y-97280861D01*
X145356291Y-97336330D01*
X145483280Y-97353048D01*
X145499999Y-97355250D01*
X145500000Y-97355250D01*
X145500001Y-97355250D01*
X145514977Y-97353278D01*
X145643709Y-97336330D01*
X145777625Y-97280861D01*
X145892621Y-97192621D01*
X145980861Y-97077625D01*
X146036330Y-96943709D01*
X146055250Y-96800000D01*
X146054235Y-96792294D01*
X146053048Y-96783280D01*
X146036330Y-96656291D01*
X145980861Y-96522375D01*
X145892621Y-96407379D01*
X145777625Y-96319139D01*
X145777624Y-96319138D01*
X145777622Y-96319137D01*
X145643712Y-96263671D01*
X145643710Y-96263670D01*
X145643709Y-96263670D01*
X145571854Y-96254210D01*
X145500001Y-96244750D01*
X145499999Y-96244750D01*
X145356291Y-96263670D01*
X145356287Y-96263671D01*
X145222377Y-96319137D01*
X145107379Y-96407379D01*
X145019137Y-96522377D01*
X144963671Y-96656287D01*
X144963670Y-96656291D01*
X144945765Y-96792294D01*
X144944750Y-96800000D01*
X141227510Y-96800000D01*
X141267131Y-96773526D01*
X141894114Y-96146543D01*
X141970775Y-96031811D01*
X141983745Y-96000500D01*
X142023578Y-95904332D01*
X142023580Y-95904328D01*
X142032389Y-95860040D01*
X142050500Y-95768996D01*
X142050500Y-95631003D01*
X142023581Y-95495676D01*
X142023580Y-95495675D01*
X142023580Y-95495671D01*
X142015689Y-95476621D01*
X141970778Y-95368194D01*
X141970771Y-95368181D01*
X141894114Y-95253457D01*
X141894111Y-95253453D01*
X141796546Y-95155888D01*
X141796542Y-95155885D01*
X141681818Y-95079228D01*
X141681805Y-95079221D01*
X141554333Y-95026421D01*
X141554323Y-95026418D01*
X141418996Y-94999500D01*
X141418994Y-94999500D01*
X141281006Y-94999500D01*
X141281004Y-94999500D01*
X141145677Y-95026418D01*
X141145667Y-95026421D01*
X141018191Y-95079223D01*
X140903457Y-95155885D01*
X140903453Y-95155889D01*
X140785217Y-95274123D01*
X140753833Y-95296925D01*
X140646781Y-95351471D01*
X140646774Y-95351476D01*
X140551476Y-95446774D01*
X140551471Y-95446780D01*
X140544122Y-95461206D01*
X140496148Y-95512002D01*
X140433637Y-95528912D01*
X135381893Y-95528912D01*
X135314854Y-95509227D01*
X135308260Y-95504682D01*
X135270239Y-95476621D01*
X135270233Y-95476618D01*
X135142053Y-95431765D01*
X135111623Y-95428912D01*
X135111619Y-95428912D01*
X133753087Y-95428912D01*
X133753083Y-95428912D01*
X133722653Y-95431765D01*
X133722651Y-95431765D01*
X133594472Y-95476618D01*
X133594470Y-95476619D01*
X133485203Y-95557262D01*
X133404560Y-95666529D01*
X133404559Y-95666531D01*
X133359706Y-95794710D01*
X133359706Y-95794712D01*
X133356853Y-95825142D01*
X129000000Y-95825142D01*
X129000000Y-94899998D01*
X143294318Y-94899998D01*
X143294318Y-94900001D01*
X143314955Y-95056760D01*
X143314956Y-95056762D01*
X143372887Y-95196621D01*
X143375464Y-95202841D01*
X143471718Y-95328282D01*
X143597159Y-95424536D01*
X143743238Y-95485044D01*
X143821619Y-95495363D01*
X143899999Y-95505682D01*
X143900000Y-95505682D01*
X143900001Y-95505682D01*
X143952254Y-95498802D01*
X144056762Y-95485044D01*
X144202841Y-95424536D01*
X144328282Y-95328282D01*
X144424536Y-95202841D01*
X144485044Y-95056762D01*
X144503432Y-94917090D01*
X144505682Y-94900001D01*
X144505682Y-94899998D01*
X144490302Y-94783174D01*
X144485044Y-94743238D01*
X144424536Y-94597159D01*
X144328282Y-94471718D01*
X144202841Y-94375464D01*
X144056762Y-94314956D01*
X144039797Y-94312722D01*
X143983314Y-94305286D01*
X143919417Y-94277019D01*
X143880947Y-94218694D01*
X143875500Y-94182347D01*
X143875500Y-88312818D01*
X143895185Y-88245779D01*
X143947989Y-88200024D01*
X144017147Y-88190080D01*
X144080703Y-88219105D01*
X144114061Y-88265366D01*
X144119137Y-88277622D01*
X144119138Y-88277624D01*
X144119139Y-88277625D01*
X144207379Y-88392621D01*
X144250987Y-88426082D01*
X144292189Y-88482508D01*
X144299500Y-88524457D01*
X144299500Y-90220323D01*
X144307886Y-90251619D01*
X144319979Y-90296751D01*
X144329130Y-90312600D01*
X144348362Y-90345911D01*
X144352316Y-90352758D01*
X144352317Y-90352763D01*
X144352318Y-90352763D01*
X144359540Y-90365272D01*
X144359541Y-90365274D01*
X152396941Y-98402673D01*
X152430426Y-98463996D01*
X152425442Y-98533688D01*
X152383570Y-98589621D01*
X152356715Y-98604914D01*
X152322377Y-98619137D01*
X152207372Y-98707384D01*
X152201628Y-98713129D01*
X152199111Y-98710612D01*
X152155817Y-98742203D01*
X152113908Y-98749500D01*
X152042997Y-98749500D01*
X151975958Y-98729815D01*
X151942077Y-98697550D01*
X151939194Y-98693512D01*
X151856485Y-98610803D01*
X151751391Y-98559426D01*
X151683261Y-98549500D01*
X151683260Y-98549500D01*
X150591740Y-98549500D01*
X150591739Y-98549500D01*
X150523608Y-98559426D01*
X150418514Y-98610803D01*
X150335803Y-98693514D01*
X150284426Y-98798608D01*
X150274500Y-98866739D01*
X150274500Y-98944652D01*
X150270275Y-98976745D01*
X150261247Y-99010437D01*
X150261247Y-99089564D01*
X150270274Y-99123250D01*
X150274500Y-99155345D01*
X150274500Y-99231967D01*
X150254815Y-99299006D01*
X150226504Y-99329944D01*
X150217283Y-99337097D01*
X150215971Y-99335405D01*
X150164294Y-99363614D01*
X150094603Y-99358619D01*
X150046898Y-99326615D01*
X150022295Y-99300000D01*
X149112500Y-99300000D01*
X149112500Y-99750000D01*
X152297295Y-99750000D01*
X152303002Y-99743825D01*
X152312862Y-99696896D01*
X152361914Y-99647140D01*
X152430079Y-99631802D01*
X152454214Y-99635773D01*
X152456284Y-99636327D01*
X152456291Y-99636330D01*
X152583280Y-99653048D01*
X152599999Y-99655250D01*
X152600000Y-99655250D01*
X152600001Y-99655250D01*
X152614977Y-99653278D01*
X152743709Y-99636330D01*
X152877625Y-99580861D01*
X152992621Y-99492621D01*
X153080861Y-99377625D01*
X153095084Y-99343286D01*
X153138924Y-99288884D01*
X153205218Y-99266818D01*
X153272917Y-99284096D01*
X153297326Y-99303058D01*
X154863181Y-100868913D01*
X154896666Y-100930236D01*
X154899500Y-100956594D01*
X154899500Y-101975541D01*
X154879815Y-102042580D01*
X154850987Y-102073916D01*
X154807382Y-102107375D01*
X154719137Y-102222377D01*
X154663671Y-102356287D01*
X154663670Y-102356291D01*
X154644750Y-102499999D01*
X154644750Y-102500001D01*
X154651924Y-102554495D01*
X154641158Y-102623530D01*
X154616675Y-102658352D01*
X154611856Y-102663172D01*
X154550537Y-102696663D01*
X154524166Y-102699500D01*
X152375833Y-102699500D01*
X152308794Y-102679815D01*
X152288152Y-102663181D01*
X151474319Y-101849348D01*
X151440834Y-101788025D01*
X151438000Y-101761667D01*
X151438000Y-101574500D01*
X151457685Y-101507461D01*
X151510489Y-101461706D01*
X151562000Y-101450500D01*
X151683261Y-101450500D01*
X151705971Y-101447191D01*
X151751393Y-101440573D01*
X151856483Y-101389198D01*
X151939198Y-101306483D01*
X151990573Y-101201393D01*
X152000500Y-101133260D01*
X152000500Y-100768032D01*
X152020185Y-100700993D01*
X152048510Y-100670045D01*
X152051561Y-100667678D01*
X152167678Y-100551561D01*
X152167685Y-100551552D01*
X152251281Y-100410198D01*
X152297100Y-100252486D01*
X152297295Y-100250001D01*
X152297295Y-100250000D01*
X147702705Y-100250000D01*
X147702704Y-100250001D01*
X147702899Y-100252486D01*
X147748718Y-100410198D01*
X147832314Y-100551552D01*
X147832321Y-100551561D01*
X147948439Y-100667679D01*
X147951497Y-100670051D01*
X147953280Y-100672520D01*
X147953960Y-100673200D01*
X147953850Y-100673309D01*
X147992406Y-100726692D01*
X147999500Y-100768033D01*
X147999500Y-101133260D01*
X148009426Y-101201391D01*
X148060803Y-101306485D01*
X148143514Y-101389196D01*
X148143515Y-101389196D01*
X148143517Y-101389198D01*
X148248607Y-101440573D01*
X148255910Y-101441637D01*
X148316739Y-101450500D01*
X148316740Y-101450500D01*
X148974167Y-101450500D01*
X149041206Y-101470185D01*
X149061848Y-101486819D01*
X151359540Y-103784511D01*
X151415489Y-103840460D01*
X151415491Y-103840461D01*
X151415495Y-103840464D01*
X151484004Y-103880017D01*
X151484011Y-103880021D01*
X151560438Y-103900500D01*
X151560440Y-103900500D01*
X155689560Y-103900500D01*
X155689562Y-103900500D01*
X155765989Y-103880021D01*
X155834511Y-103840460D01*
X155890460Y-103784511D01*
X155941637Y-103733333D01*
X156002959Y-103699848D01*
X156045503Y-103698075D01*
X156058970Y-103699848D01*
X156099999Y-103705250D01*
X156099999Y-103705249D01*
X156100000Y-103705250D01*
X156243709Y-103686330D01*
X156377625Y-103630861D01*
X156492621Y-103542621D01*
X156580861Y-103427625D01*
X156636330Y-103293709D01*
X156655250Y-103150000D01*
X156655091Y-103148796D01*
X156648667Y-103099999D01*
X157244750Y-103099999D01*
X157244750Y-103100000D01*
X157263670Y-103243708D01*
X157263671Y-103243712D01*
X157319137Y-103377622D01*
X157319138Y-103377624D01*
X157319139Y-103377625D01*
X157407379Y-103492621D01*
X157522375Y-103580861D01*
X157656291Y-103636330D01*
X157783280Y-103653048D01*
X157799999Y-103655250D01*
X157800000Y-103655250D01*
X157800001Y-103655250D01*
X157814977Y-103653278D01*
X157943709Y-103636330D01*
X158077625Y-103580861D01*
X158192621Y-103492621D01*
X158280861Y-103377625D01*
X158336330Y-103243709D01*
X158355250Y-103100000D01*
X158336330Y-102956291D01*
X158280861Y-102822375D01*
X158192621Y-102707379D01*
X158192618Y-102707377D01*
X158192617Y-102707375D01*
X158149013Y-102673916D01*
X158107810Y-102617488D01*
X158100500Y-102575541D01*
X158100500Y-101775832D01*
X158120185Y-101708793D01*
X158136814Y-101688156D01*
X158651726Y-101173244D01*
X158713048Y-101139760D01*
X158782740Y-101144744D01*
X158838673Y-101186616D01*
X158863090Y-101252080D01*
X158858672Y-101294860D01*
X158834885Y-101378461D01*
X158834884Y-101378464D01*
X158814357Y-101599999D01*
X158814357Y-101600000D01*
X158834884Y-101821535D01*
X158834885Y-101821537D01*
X158895769Y-102035523D01*
X158895775Y-102035538D01*
X158994938Y-102234683D01*
X158994943Y-102234691D01*
X159129020Y-102412238D01*
X159293437Y-102562123D01*
X159293439Y-102562125D01*
X159482595Y-102679245D01*
X159482596Y-102679245D01*
X159482599Y-102679247D01*
X159690060Y-102759618D01*
X159908757Y-102800500D01*
X159908759Y-102800500D01*
X160131241Y-102800500D01*
X160131243Y-102800500D01*
X160349940Y-102759618D01*
X160557401Y-102679247D01*
X160746562Y-102562124D01*
X160910981Y-102412236D01*
X161045058Y-102234689D01*
X161144229Y-102035528D01*
X161205115Y-101821536D01*
X161225643Y-101600000D01*
X161214975Y-101484877D01*
X161205115Y-101378464D01*
X161205114Y-101378462D01*
X161199730Y-101359540D01*
X161144229Y-101164472D01*
X161132102Y-101140119D01*
X161119842Y-101071336D01*
X161146715Y-101006841D01*
X161204190Y-100967113D01*
X161211017Y-100965072D01*
X161216402Y-100963629D01*
X161216411Y-100963628D01*
X161350327Y-100908159D01*
X161465323Y-100819919D01*
X161498785Y-100776311D01*
X161555213Y-100735109D01*
X161597160Y-100727798D01*
X161912262Y-100727798D01*
X161912264Y-100727798D01*
X161988691Y-100707319D01*
X162057213Y-100667758D01*
X162113162Y-100611809D01*
X162238152Y-100486819D01*
X162299475Y-100453334D01*
X162325833Y-100450500D01*
X165324167Y-100450500D01*
X165391206Y-100470185D01*
X165411848Y-100486819D01*
X166366666Y-101441637D01*
X166400151Y-101502960D01*
X166401924Y-101545501D01*
X166401081Y-101551905D01*
X166372816Y-101615802D01*
X166314492Y-101654274D01*
X166253951Y-101657339D01*
X166113996Y-101629500D01*
X166113993Y-101629500D01*
X164876007Y-101629500D01*
X164876005Y-101629500D01*
X164740677Y-101656418D01*
X164740667Y-101656421D01*
X164613195Y-101709221D01*
X164613182Y-101709228D01*
X164498458Y-101785885D01*
X164498454Y-101785888D01*
X164400888Y-101883454D01*
X164400885Y-101883458D01*
X164324228Y-101998182D01*
X164324221Y-101998195D01*
X164271421Y-102125667D01*
X164271418Y-102125677D01*
X164244500Y-102261004D01*
X164244500Y-102261007D01*
X164244500Y-102398993D01*
X164244500Y-102398995D01*
X164244499Y-102398995D01*
X164271418Y-102534322D01*
X164271421Y-102534332D01*
X164324221Y-102661804D01*
X164324228Y-102661817D01*
X164400885Y-102776541D01*
X164400888Y-102776545D01*
X164498454Y-102874111D01*
X164498458Y-102874114D01*
X164613182Y-102950771D01*
X164613195Y-102950778D01*
X164729977Y-102999150D01*
X164740672Y-103003580D01*
X164740676Y-103003580D01*
X164740677Y-103003581D01*
X164876004Y-103030500D01*
X165636757Y-103030500D01*
X165703796Y-103050185D01*
X165749551Y-103102989D01*
X165759495Y-103172147D01*
X165730470Y-103235703D01*
X165698758Y-103261887D01*
X165639179Y-103296285D01*
X165639176Y-103296287D01*
X165531287Y-103404176D01*
X165531282Y-103404182D01*
X165454993Y-103536318D01*
X165454992Y-103536322D01*
X165415500Y-103683707D01*
X165415500Y-103836293D01*
X165441691Y-103934037D01*
X165454993Y-103983681D01*
X165531282Y-104115817D01*
X165531284Y-104115819D01*
X165531285Y-104115821D01*
X165639179Y-104223715D01*
X165639180Y-104223716D01*
X165639182Y-104223717D01*
X165771318Y-104300006D01*
X165771319Y-104300006D01*
X165771322Y-104300008D01*
X165918707Y-104339500D01*
X165918710Y-104339500D01*
X166071290Y-104339500D01*
X166071293Y-104339500D01*
X166218678Y-104300008D01*
X166350821Y-104223715D01*
X166458715Y-104115821D01*
X166535008Y-103983678D01*
X166574500Y-103836293D01*
X166574500Y-103683707D01*
X166535008Y-103536322D01*
X166488200Y-103455249D01*
X166458717Y-103404182D01*
X166458712Y-103404176D01*
X166350823Y-103296287D01*
X166350821Y-103296285D01*
X166282208Y-103256671D01*
X166230987Y-103227098D01*
X166182772Y-103176530D01*
X166169550Y-103107923D01*
X166195518Y-103043058D01*
X166245536Y-103005149D01*
X166249320Y-103003581D01*
X166249328Y-103003580D01*
X166376811Y-102950775D01*
X166491542Y-102874114D01*
X166589114Y-102776542D01*
X166665775Y-102661811D01*
X166718580Y-102534328D01*
X166727389Y-102490041D01*
X166745500Y-102398995D01*
X166745500Y-102269721D01*
X166765185Y-102202682D01*
X166817989Y-102156927D01*
X166885683Y-102146782D01*
X166950000Y-102155250D01*
X167093709Y-102136330D01*
X167128050Y-102122105D01*
X167197516Y-102114637D01*
X167259995Y-102145911D01*
X167295648Y-102206000D01*
X167299500Y-102236667D01*
X167299500Y-104424167D01*
X167279815Y-104491206D01*
X167263181Y-104511848D01*
X161559541Y-110215487D01*
X161559535Y-110215495D01*
X161519982Y-110284004D01*
X161519979Y-110284009D01*
X161499500Y-110360439D01*
X161499500Y-110775541D01*
X161479815Y-110842580D01*
X161450987Y-110873916D01*
X161407382Y-110907375D01*
X161319137Y-111022377D01*
X161263671Y-111156287D01*
X161263670Y-111156291D01*
X161244750Y-111299999D01*
X161244750Y-111300000D01*
X161263670Y-111443708D01*
X161263671Y-111443712D01*
X161319137Y-111577622D01*
X161319138Y-111577624D01*
X161319139Y-111577625D01*
X161407379Y-111692621D01*
X161522375Y-111780861D01*
X161656291Y-111836330D01*
X161783280Y-111853048D01*
X161799999Y-111855250D01*
X161800000Y-111855250D01*
X161800001Y-111855250D01*
X161814977Y-111853278D01*
X161943709Y-111836330D01*
X162077625Y-111780861D01*
X162192621Y-111692621D01*
X162280861Y-111577625D01*
X162336330Y-111443709D01*
X162355250Y-111300000D01*
X162336330Y-111156291D01*
X162287745Y-111038995D01*
X164244499Y-111038995D01*
X164271418Y-111174322D01*
X164271421Y-111174332D01*
X164324221Y-111301804D01*
X164324228Y-111301817D01*
X164400885Y-111416541D01*
X164400888Y-111416545D01*
X164498454Y-111514111D01*
X164498458Y-111514114D01*
X164613182Y-111590771D01*
X164613195Y-111590778D01*
X164740667Y-111643578D01*
X164740672Y-111643580D01*
X164740676Y-111643580D01*
X164740677Y-111643581D01*
X164876004Y-111670500D01*
X164876007Y-111670500D01*
X166113995Y-111670500D01*
X166205041Y-111652389D01*
X166249328Y-111643580D01*
X166376811Y-111590775D01*
X166491542Y-111514114D01*
X166589114Y-111416542D01*
X166665775Y-111301811D01*
X166718580Y-111174328D01*
X166734702Y-111093278D01*
X166745500Y-111038995D01*
X166745500Y-110901004D01*
X166718581Y-110765677D01*
X166718580Y-110765676D01*
X166718580Y-110765672D01*
X166718578Y-110765667D01*
X166665778Y-110638195D01*
X166665771Y-110638182D01*
X166589114Y-110523458D01*
X166589111Y-110523454D01*
X166491545Y-110425888D01*
X166491541Y-110425885D01*
X166376817Y-110349228D01*
X166376804Y-110349221D01*
X166245536Y-110294849D01*
X166191132Y-110251008D01*
X166169067Y-110184714D01*
X166186346Y-110117015D01*
X166230988Y-110072901D01*
X166246917Y-110063703D01*
X166350821Y-110003715D01*
X166458715Y-109895821D01*
X166535008Y-109763678D01*
X166574500Y-109616293D01*
X166574500Y-109463707D01*
X166535008Y-109316322D01*
X166458715Y-109184179D01*
X166350821Y-109076285D01*
X166350819Y-109076284D01*
X166350817Y-109076282D01*
X166218681Y-108999993D01*
X166218682Y-108999993D01*
X166206595Y-108996754D01*
X166071293Y-108960500D01*
X165918707Y-108960500D01*
X165783404Y-108996754D01*
X165771318Y-108999993D01*
X165639182Y-109076282D01*
X165639176Y-109076287D01*
X165531287Y-109184176D01*
X165531282Y-109184182D01*
X165454993Y-109316318D01*
X165454992Y-109316322D01*
X165415500Y-109463707D01*
X165415500Y-109616293D01*
X165454992Y-109763678D01*
X165454993Y-109763681D01*
X165531282Y-109895817D01*
X165531284Y-109895819D01*
X165531285Y-109895821D01*
X165639179Y-110003715D01*
X165698758Y-110038113D01*
X165746973Y-110088681D01*
X165760195Y-110157288D01*
X165734227Y-110222152D01*
X165677313Y-110262680D01*
X165636757Y-110269500D01*
X164876005Y-110269500D01*
X164740677Y-110296418D01*
X164740667Y-110296421D01*
X164613195Y-110349221D01*
X164613182Y-110349228D01*
X164498458Y-110425885D01*
X164498454Y-110425888D01*
X164400888Y-110523454D01*
X164400885Y-110523458D01*
X164324228Y-110638182D01*
X164324221Y-110638195D01*
X164271421Y-110765667D01*
X164271418Y-110765677D01*
X164244500Y-110901004D01*
X164244500Y-110901007D01*
X164244500Y-111038993D01*
X164244500Y-111038995D01*
X164244499Y-111038995D01*
X162287745Y-111038995D01*
X162280861Y-111022375D01*
X162192621Y-110907379D01*
X162192618Y-110907377D01*
X162192617Y-110907375D01*
X162149013Y-110873916D01*
X162107810Y-110817488D01*
X162100500Y-110775541D01*
X162100500Y-110575833D01*
X162120185Y-110508794D01*
X162136819Y-110488152D01*
X164975527Y-107649444D01*
X167840460Y-104784511D01*
X167880022Y-104715988D01*
X167900500Y-104639562D01*
X167900500Y-104560438D01*
X167900500Y-98360438D01*
X167880021Y-98284011D01*
X167859092Y-98247761D01*
X167840464Y-98215495D01*
X167840458Y-98215487D01*
X167383333Y-97758362D01*
X167349848Y-97697039D01*
X167348075Y-97654494D01*
X167355250Y-97600000D01*
X167336330Y-97456291D01*
X167286641Y-97336329D01*
X167280862Y-97322377D01*
X167280861Y-97322376D01*
X167280861Y-97322375D01*
X167192621Y-97207379D01*
X167077625Y-97119139D01*
X167077624Y-97119138D01*
X167077622Y-97119137D01*
X166943712Y-97063671D01*
X166943710Y-97063670D01*
X166943709Y-97063670D01*
X166871854Y-97054210D01*
X166800001Y-97044750D01*
X166799999Y-97044750D01*
X166656291Y-97063670D01*
X166656287Y-97063671D01*
X166522377Y-97119137D01*
X166407379Y-97207379D01*
X166319137Y-97322377D01*
X166263671Y-97456287D01*
X166263670Y-97456291D01*
X166255281Y-97520014D01*
X166244750Y-97600000D01*
X166260614Y-97720500D01*
X166263670Y-97743708D01*
X166263671Y-97743712D01*
X166319137Y-97877622D01*
X166319138Y-97877624D01*
X166319139Y-97877625D01*
X166407379Y-97992621D01*
X166522375Y-98080861D01*
X166656291Y-98136330D01*
X166800000Y-98155250D01*
X166854495Y-98148075D01*
X166923530Y-98158840D01*
X166958362Y-98183333D01*
X167263181Y-98488152D01*
X167296666Y-98549475D01*
X167299500Y-98575833D01*
X167299500Y-100963332D01*
X167279815Y-101030371D01*
X167227011Y-101076126D01*
X167157853Y-101086070D01*
X167128049Y-101077894D01*
X167123781Y-101076126D01*
X167093709Y-101063670D01*
X167004491Y-101051924D01*
X166950001Y-101044750D01*
X166949997Y-101044750D01*
X166895502Y-101051924D01*
X166826467Y-101041158D01*
X166791637Y-101016666D01*
X165684512Y-99909541D01*
X165684507Y-99909537D01*
X165642502Y-99885286D01*
X165642502Y-99885285D01*
X165642500Y-99885285D01*
X165619902Y-99872238D01*
X165615990Y-99869979D01*
X165615991Y-99869979D01*
X165577775Y-99859739D01*
X165539562Y-99849500D01*
X162189562Y-99849500D01*
X162110438Y-99849500D01*
X162034010Y-99869978D01*
X161965489Y-99909540D01*
X161965486Y-99909542D01*
X161784550Y-100090479D01*
X161723227Y-100123964D01*
X161696869Y-100126798D01*
X161597160Y-100126798D01*
X161530121Y-100107113D01*
X161498785Y-100078285D01*
X161485070Y-100060412D01*
X161465323Y-100034677D01*
X161350327Y-99946437D01*
X161350326Y-99946436D01*
X161350324Y-99946435D01*
X161216414Y-99890969D01*
X161216412Y-99890968D01*
X161216411Y-99890968D01*
X161144556Y-99881508D01*
X161072703Y-99872048D01*
X161064574Y-99872048D01*
X161064574Y-99870618D01*
X161004224Y-99861201D01*
X160951973Y-99814815D01*
X160933095Y-99747544D01*
X160953583Y-99680746D01*
X160969400Y-99661357D01*
X162030758Y-98599999D01*
X163044750Y-98599999D01*
X163044750Y-98600000D01*
X163063670Y-98743708D01*
X163063671Y-98743712D01*
X163119137Y-98877622D01*
X163119138Y-98877624D01*
X163119139Y-98877625D01*
X163207379Y-98992621D01*
X163322375Y-99080861D01*
X163456291Y-99136330D01*
X163583280Y-99153048D01*
X163599999Y-99155250D01*
X163600000Y-99155250D01*
X163600001Y-99155250D01*
X163614977Y-99153278D01*
X163743709Y-99136330D01*
X163877625Y-99080861D01*
X163992621Y-98992621D01*
X164080861Y-98877625D01*
X164136330Y-98743709D01*
X164155250Y-98600000D01*
X164136330Y-98456291D01*
X164080861Y-98322375D01*
X163992621Y-98207379D01*
X163877625Y-98119139D01*
X163877624Y-98119138D01*
X163877622Y-98119137D01*
X163743712Y-98063671D01*
X163743710Y-98063670D01*
X163743709Y-98063670D01*
X163671854Y-98054210D01*
X163600001Y-98044750D01*
X163599999Y-98044750D01*
X163456291Y-98063670D01*
X163456287Y-98063671D01*
X163322377Y-98119137D01*
X163207379Y-98207379D01*
X163119137Y-98322377D01*
X163063671Y-98456287D01*
X163063670Y-98456291D01*
X163044750Y-98599999D01*
X162030758Y-98599999D01*
X164593939Y-96036819D01*
X164655262Y-96003334D01*
X164681620Y-96000500D01*
X166075542Y-96000500D01*
X166142581Y-96020185D01*
X166173917Y-96049013D01*
X166207379Y-96092621D01*
X166322375Y-96180861D01*
X166456291Y-96236330D01*
X166583280Y-96253048D01*
X166599999Y-96255250D01*
X166600000Y-96255250D01*
X166600001Y-96255250D01*
X166614977Y-96253278D01*
X166743709Y-96236330D01*
X166877625Y-96180861D01*
X166992621Y-96092621D01*
X167080861Y-95977625D01*
X167136330Y-95843709D01*
X167155250Y-95700000D01*
X167136330Y-95556291D01*
X167084751Y-95431766D01*
X167080862Y-95422377D01*
X167080861Y-95422376D01*
X167080861Y-95422375D01*
X166992621Y-95307379D01*
X166877625Y-95219139D01*
X166877624Y-95219138D01*
X166877622Y-95219137D01*
X166743712Y-95163671D01*
X166743710Y-95163670D01*
X166743709Y-95163670D01*
X166671854Y-95154210D01*
X166600001Y-95144750D01*
X166599999Y-95144750D01*
X166456291Y-95163670D01*
X166456287Y-95163671D01*
X166322377Y-95219137D01*
X166295114Y-95240057D01*
X166207379Y-95307379D01*
X166207378Y-95307380D01*
X166207377Y-95307381D01*
X166173917Y-95350987D01*
X166117489Y-95392189D01*
X166075542Y-95399500D01*
X164724832Y-95399500D01*
X164657793Y-95379815D01*
X164612038Y-95327011D01*
X164602094Y-95257853D01*
X164631119Y-95194297D01*
X164637151Y-95187819D01*
X165463130Y-94361840D01*
X166540460Y-93284511D01*
X166580021Y-93215989D01*
X166600500Y-93139562D01*
X166600500Y-88624457D01*
X166620185Y-88557418D01*
X166649011Y-88526083D01*
X166692621Y-88492621D01*
X166780861Y-88377625D01*
X166836330Y-88243709D01*
X166855250Y-88100000D01*
X166836330Y-87956291D01*
X166780861Y-87822375D01*
X166692621Y-87707379D01*
X166577625Y-87619139D01*
X166577624Y-87619138D01*
X166577622Y-87619137D01*
X166443712Y-87563671D01*
X166443709Y-87563670D01*
X166406804Y-87558811D01*
X166342908Y-87530543D01*
X166304438Y-87472218D01*
X166303608Y-87402353D01*
X166340682Y-87343130D01*
X166380579Y-87319351D01*
X166670614Y-87213788D01*
X166670617Y-87213786D01*
X166670621Y-87213785D01*
X166774487Y-87161620D01*
X166977750Y-87059538D01*
X167264902Y-86870675D01*
X167528187Y-86649753D01*
X167764044Y-86399759D01*
X167969284Y-86124074D01*
X168141131Y-85826426D01*
X168277262Y-85510841D01*
X168375834Y-85181585D01*
X168435516Y-84843113D01*
X168455500Y-84500000D01*
X168435516Y-84156887D01*
X168425485Y-84099999D01*
X168375836Y-83818424D01*
X168375833Y-83818411D01*
X168277262Y-83489159D01*
X168214522Y-83343712D01*
X168141131Y-83173574D01*
X168065881Y-83043237D01*
X167969283Y-82875924D01*
X167764047Y-82600244D01*
X167764042Y-82600238D01*
X167649998Y-82479359D01*
X167528187Y-82350247D01*
X167528180Y-82350241D01*
X167528178Y-82350239D01*
X167264906Y-82129327D01*
X167121326Y-82034893D01*
X166977750Y-81940462D01*
X166911877Y-81907379D01*
X166670621Y-81786214D01*
X166670615Y-81786212D01*
X166347648Y-81668662D01*
X166347645Y-81668661D01*
X166013218Y-81589401D01*
X165970545Y-81584413D01*
X165671847Y-81549500D01*
X165328153Y-81549500D01*
X165029454Y-81584413D01*
X164986782Y-81589401D01*
X164986780Y-81589401D01*
X164652354Y-81668661D01*
X164652351Y-81668662D01*
X164329384Y-81786212D01*
X164329378Y-81786214D01*
X164022253Y-81940460D01*
X163735093Y-82129327D01*
X163471821Y-82350239D01*
X163471811Y-82350249D01*
X163235957Y-82600238D01*
X163235952Y-82600244D01*
X163030716Y-82875924D01*
X162858871Y-83173569D01*
X162858865Y-83173582D01*
X162722737Y-83489159D01*
X162624166Y-83818411D01*
X162624163Y-83818424D01*
X162564485Y-84156875D01*
X162564484Y-84156886D01*
X162544500Y-84499996D01*
X162544500Y-84500003D01*
X162564484Y-84843113D01*
X162564485Y-84843124D01*
X162624163Y-85181575D01*
X162624166Y-85181588D01*
X162722737Y-85510840D01*
X162858865Y-85826417D01*
X162858871Y-85826430D01*
X163030716Y-86124075D01*
X163235952Y-86399755D01*
X163235957Y-86399761D01*
X163357767Y-86528871D01*
X163471813Y-86649753D01*
X163471819Y-86649758D01*
X163471821Y-86649760D01*
X163735093Y-86870672D01*
X163735098Y-86870675D01*
X164022250Y-87059538D01*
X164124329Y-87110804D01*
X164329378Y-87213785D01*
X164329384Y-87213787D01*
X164329386Y-87213788D01*
X164652353Y-87331338D01*
X164986783Y-87410599D01*
X165328153Y-87450500D01*
X165328160Y-87450500D01*
X165671839Y-87450500D01*
X165671847Y-87450500D01*
X165898006Y-87424065D01*
X165966876Y-87435834D01*
X166018452Y-87482969D01*
X166036357Y-87550506D01*
X166014906Y-87617001D01*
X165987887Y-87645602D01*
X165907381Y-87707377D01*
X165907380Y-87707378D01*
X165907379Y-87707379D01*
X165869850Y-87756287D01*
X165819137Y-87822377D01*
X165763671Y-87956287D01*
X165763670Y-87956291D01*
X165744750Y-88100000D01*
X165756609Y-88190080D01*
X165763670Y-88243708D01*
X165763671Y-88243712D01*
X165819137Y-88377622D01*
X165819138Y-88377624D01*
X165819139Y-88377625D01*
X165907379Y-88492621D01*
X165950987Y-88526082D01*
X165992189Y-88582508D01*
X165999500Y-88624457D01*
X165999500Y-89163332D01*
X165979815Y-89230371D01*
X165927011Y-89276126D01*
X165857853Y-89286070D01*
X165828049Y-89277894D01*
X165823781Y-89276126D01*
X165793709Y-89263670D01*
X165721854Y-89254210D01*
X165650001Y-89244750D01*
X165649999Y-89244750D01*
X165506291Y-89263670D01*
X165506287Y-89263671D01*
X165372377Y-89319137D01*
X165257379Y-89407379D01*
X165169137Y-89522377D01*
X165113671Y-89656287D01*
X165113670Y-89656291D01*
X165094750Y-89800000D01*
X165108636Y-89905476D01*
X165113670Y-89943708D01*
X165113671Y-89943712D01*
X165169137Y-90077622D01*
X165169138Y-90077624D01*
X165169139Y-90077625D01*
X165257379Y-90192621D01*
X165372375Y-90280861D01*
X165506291Y-90336330D01*
X165631072Y-90352758D01*
X165649999Y-90355250D01*
X165650000Y-90355250D01*
X165650001Y-90355250D01*
X165685927Y-90350520D01*
X165793709Y-90336330D01*
X165828050Y-90322105D01*
X165897516Y-90314637D01*
X165959995Y-90345911D01*
X165995648Y-90406000D01*
X165999500Y-90436667D01*
X165999500Y-92924167D01*
X165979815Y-92991206D01*
X165963181Y-93011848D01*
X157559541Y-101415487D01*
X157559535Y-101415495D01*
X157519982Y-101484004D01*
X157519979Y-101484009D01*
X157506326Y-101534962D01*
X157501787Y-101551905D01*
X157499500Y-101560439D01*
X157499500Y-102575541D01*
X157479815Y-102642580D01*
X157450987Y-102673916D01*
X157407382Y-102707375D01*
X157319137Y-102822377D01*
X157263671Y-102956287D01*
X157263670Y-102956291D01*
X157244750Y-103099999D01*
X156648667Y-103099999D01*
X156636330Y-103006291D01*
X156599350Y-102917013D01*
X156580862Y-102872377D01*
X156580861Y-102872376D01*
X156580861Y-102872375D01*
X156492621Y-102757379D01*
X156492618Y-102757377D01*
X156492617Y-102757375D01*
X156449013Y-102723916D01*
X156407810Y-102667488D01*
X156400500Y-102625541D01*
X156400500Y-100802568D01*
X156400499Y-100802561D01*
X156396401Y-100787268D01*
X156380022Y-100726140D01*
X156340460Y-100657617D01*
X154742842Y-99059999D01*
X156274357Y-99059999D01*
X156274357Y-99060000D01*
X156294884Y-99281535D01*
X156294885Y-99281537D01*
X156355769Y-99495523D01*
X156355775Y-99495538D01*
X156454938Y-99694683D01*
X156454943Y-99694691D01*
X156589020Y-99872238D01*
X156753437Y-100022123D01*
X156753439Y-100022125D01*
X156942595Y-100139245D01*
X156942596Y-100139245D01*
X156942599Y-100139247D01*
X157150060Y-100219618D01*
X157368757Y-100260500D01*
X157368759Y-100260500D01*
X157591241Y-100260500D01*
X157591243Y-100260500D01*
X157809940Y-100219618D01*
X158017401Y-100139247D01*
X158206562Y-100022124D01*
X158370981Y-99872236D01*
X158505058Y-99694689D01*
X158604229Y-99495528D01*
X158665115Y-99281536D01*
X158685643Y-99060000D01*
X158681050Y-99010438D01*
X158665115Y-98838464D01*
X158665114Y-98838462D01*
X158653774Y-98798607D01*
X158604229Y-98624472D01*
X158604224Y-98624461D01*
X158505061Y-98425316D01*
X158505056Y-98425308D01*
X158427324Y-98322375D01*
X158370981Y-98247764D01*
X158370978Y-98247761D01*
X158370973Y-98247756D01*
X158307560Y-98189946D01*
X158271279Y-98130234D01*
X158267099Y-98098310D01*
X158267099Y-97510053D01*
X158286784Y-97443014D01*
X158315611Y-97411679D01*
X158334220Y-97397400D01*
X158422460Y-97282404D01*
X158477929Y-97148488D01*
X158496849Y-97004779D01*
X158477929Y-96861070D01*
X158422460Y-96727154D01*
X158334220Y-96612158D01*
X158219224Y-96523918D01*
X158219223Y-96523917D01*
X158219221Y-96523916D01*
X158085311Y-96468450D01*
X158085309Y-96468449D01*
X158085308Y-96468449D01*
X158013453Y-96458989D01*
X157941600Y-96449529D01*
X157941598Y-96449529D01*
X157797890Y-96468449D01*
X157797886Y-96468450D01*
X157663976Y-96523916D01*
X157548978Y-96612158D01*
X157460736Y-96727156D01*
X157405270Y-96861066D01*
X157405269Y-96861070D01*
X157386349Y-97004778D01*
X157386349Y-97004779D01*
X157405269Y-97148487D01*
X157405270Y-97148491D01*
X157460736Y-97282401D01*
X157460737Y-97282403D01*
X157460738Y-97282404D01*
X157548978Y-97397400D01*
X157567585Y-97411678D01*
X157608788Y-97468104D01*
X157616099Y-97510053D01*
X157616099Y-97735500D01*
X157596414Y-97802539D01*
X157543610Y-97848294D01*
X157492099Y-97859500D01*
X157368757Y-97859500D01*
X157150060Y-97900382D01*
X157018864Y-97951207D01*
X156942601Y-97980752D01*
X156942595Y-97980754D01*
X156753439Y-98097874D01*
X156753437Y-98097876D01*
X156589020Y-98247761D01*
X156454943Y-98425308D01*
X156454938Y-98425316D01*
X156355775Y-98624461D01*
X156355769Y-98624476D01*
X156294885Y-98838462D01*
X156294884Y-98838464D01*
X156274357Y-99059999D01*
X154742842Y-99059999D01*
X152202842Y-96519999D01*
X153734357Y-96519999D01*
X153734357Y-96520000D01*
X153754884Y-96741535D01*
X153754885Y-96741537D01*
X153815769Y-96955523D01*
X153815775Y-96955538D01*
X153914938Y-97154683D01*
X153914943Y-97154691D01*
X154049020Y-97332238D01*
X154213437Y-97482123D01*
X154213439Y-97482125D01*
X154402595Y-97599245D01*
X154402596Y-97599245D01*
X154402599Y-97599247D01*
X154610060Y-97679618D01*
X154828757Y-97720500D01*
X154828759Y-97720500D01*
X155051241Y-97720500D01*
X155051243Y-97720500D01*
X155269940Y-97679618D01*
X155477401Y-97599247D01*
X155666562Y-97482124D01*
X155830981Y-97332236D01*
X155965058Y-97154689D01*
X156064229Y-96955528D01*
X156125115Y-96741536D01*
X156145643Y-96520000D01*
X156125115Y-96298464D01*
X156064229Y-96084472D01*
X156046572Y-96049013D01*
X156004576Y-95964673D01*
X155992315Y-95895888D01*
X156019188Y-95831393D01*
X156027889Y-95821724D01*
X156183558Y-95666058D01*
X156225500Y-95564800D01*
X156225500Y-95455200D01*
X156225500Y-95443641D01*
X156245185Y-95376602D01*
X156274009Y-95345268D01*
X156342621Y-95292621D01*
X156430861Y-95177625D01*
X156486330Y-95043709D01*
X156505250Y-94900000D01*
X156486330Y-94756291D01*
X156437940Y-94639465D01*
X161196568Y-94639465D01*
X161208978Y-94733730D01*
X161215488Y-94783173D01*
X161215489Y-94783177D01*
X161270955Y-94917087D01*
X161270956Y-94917089D01*
X161270957Y-94917090D01*
X161359197Y-95032086D01*
X161474193Y-95120326D01*
X161608109Y-95175795D01*
X161735098Y-95192513D01*
X161751817Y-95194715D01*
X161751818Y-95194715D01*
X161751819Y-95194715D01*
X161766795Y-95192743D01*
X161895527Y-95175795D01*
X162029443Y-95120326D01*
X162144439Y-95032086D01*
X162232679Y-94917090D01*
X162288148Y-94783174D01*
X162307068Y-94639465D01*
X162288148Y-94495756D01*
X162238322Y-94375463D01*
X162232680Y-94361842D01*
X162232679Y-94361841D01*
X162232679Y-94361840D01*
X162144439Y-94246844D01*
X162029443Y-94158604D01*
X162029442Y-94158603D01*
X162029440Y-94158602D01*
X161895530Y-94103136D01*
X161895528Y-94103135D01*
X161895527Y-94103135D01*
X161823672Y-94093675D01*
X161751819Y-94084215D01*
X161751817Y-94084215D01*
X161608109Y-94103135D01*
X161608105Y-94103136D01*
X161474195Y-94158602D01*
X161359197Y-94246844D01*
X161270955Y-94361842D01*
X161215489Y-94495752D01*
X161215488Y-94495756D01*
X161196568Y-94639465D01*
X156437940Y-94639465D01*
X156430861Y-94622375D01*
X156342621Y-94507379D01*
X156227625Y-94419139D01*
X156227624Y-94419138D01*
X156227622Y-94419137D01*
X156093712Y-94363671D01*
X156093710Y-94363670D01*
X156093709Y-94363670D01*
X156021854Y-94354210D01*
X155950001Y-94344750D01*
X155949999Y-94344750D01*
X155806291Y-94363670D01*
X155806287Y-94363671D01*
X155672377Y-94419137D01*
X155557379Y-94507379D01*
X155469137Y-94622377D01*
X155413671Y-94756287D01*
X155413670Y-94756291D01*
X155394750Y-94899999D01*
X155394750Y-94900000D01*
X155413670Y-95043708D01*
X155413671Y-95043712D01*
X155469137Y-95177622D01*
X155469138Y-95177624D01*
X155469139Y-95177625D01*
X155483716Y-95196623D01*
X155508910Y-95261790D01*
X155494872Y-95330235D01*
X155446058Y-95380225D01*
X155377967Y-95395889D01*
X155340547Y-95387735D01*
X155290105Y-95368194D01*
X155269940Y-95360382D01*
X155051243Y-95319500D01*
X154828757Y-95319500D01*
X154610060Y-95360382D01*
X154539454Y-95387735D01*
X154402601Y-95440752D01*
X154402595Y-95440754D01*
X154213439Y-95557874D01*
X154213437Y-95557876D01*
X154049020Y-95707761D01*
X153914943Y-95885308D01*
X153914938Y-95885316D01*
X153815775Y-96084461D01*
X153815769Y-96084476D01*
X153754885Y-96298462D01*
X153754884Y-96298464D01*
X153734357Y-96519999D01*
X152202842Y-96519999D01*
X150886452Y-95203609D01*
X151529942Y-95203609D01*
X151576768Y-95240055D01*
X151576770Y-95240056D01*
X151795385Y-95358364D01*
X151795396Y-95358369D01*
X152030506Y-95439083D01*
X152275707Y-95480000D01*
X152524293Y-95480000D01*
X152769493Y-95439083D01*
X153004603Y-95358369D01*
X153004614Y-95358364D01*
X153223228Y-95240057D01*
X153223231Y-95240055D01*
X153270056Y-95203609D01*
X152400000Y-94333553D01*
X151529942Y-95203609D01*
X150886452Y-95203609D01*
X149662837Y-93979994D01*
X150894859Y-93979994D01*
X150894859Y-93980005D01*
X150915385Y-94227729D01*
X150915387Y-94227738D01*
X150976412Y-94468717D01*
X151076266Y-94696364D01*
X151176564Y-94849882D01*
X152046447Y-93980000D01*
X152046447Y-93979999D01*
X152753553Y-93979999D01*
X152753553Y-93980001D01*
X153623434Y-94849882D01*
X153723731Y-94696369D01*
X153823587Y-94468717D01*
X153884612Y-94227738D01*
X153884614Y-94227729D01*
X153905141Y-93980005D01*
X153905141Y-93979994D01*
X153884614Y-93732270D01*
X153884612Y-93732261D01*
X153823587Y-93491282D01*
X153723731Y-93263630D01*
X153623434Y-93110116D01*
X152753553Y-93979999D01*
X152046447Y-93979999D01*
X151176564Y-93110116D01*
X151076267Y-93263632D01*
X150976412Y-93491282D01*
X150915387Y-93732261D01*
X150915385Y-93732270D01*
X150894859Y-93979994D01*
X149662837Y-93979994D01*
X148439231Y-92756388D01*
X151529942Y-92756388D01*
X151529942Y-92756390D01*
X152400000Y-93626447D01*
X152400001Y-93626447D01*
X153270057Y-92756390D01*
X153270056Y-92756389D01*
X153223229Y-92719943D01*
X153004614Y-92601635D01*
X153004603Y-92601630D01*
X152769493Y-92520916D01*
X152524293Y-92480000D01*
X152275707Y-92480000D01*
X152030506Y-92520916D01*
X151795396Y-92601630D01*
X151795390Y-92601632D01*
X151576761Y-92719949D01*
X151529942Y-92756388D01*
X148439231Y-92756388D01*
X147536819Y-91853976D01*
X147503334Y-91792653D01*
X147500500Y-91766295D01*
X147500500Y-91439999D01*
X148654357Y-91439999D01*
X148654357Y-91440000D01*
X148674884Y-91661535D01*
X148674885Y-91661537D01*
X148735769Y-91875523D01*
X148735775Y-91875538D01*
X148834938Y-92074683D01*
X148834943Y-92074691D01*
X148969020Y-92252238D01*
X149133437Y-92402123D01*
X149133439Y-92402125D01*
X149322595Y-92519245D01*
X149322596Y-92519245D01*
X149322599Y-92519247D01*
X149530060Y-92599618D01*
X149748757Y-92640500D01*
X149748759Y-92640500D01*
X149971241Y-92640500D01*
X149971243Y-92640500D01*
X150189940Y-92599618D01*
X150397401Y-92519247D01*
X150586562Y-92402124D01*
X150750981Y-92252236D01*
X150885058Y-92074689D01*
X150984229Y-91875528D01*
X151045115Y-91661536D01*
X151065643Y-91440000D01*
X151062333Y-91404284D01*
X151045115Y-91218464D01*
X151045114Y-91218462D01*
X151031073Y-91169114D01*
X150984229Y-91004472D01*
X150984224Y-91004461D01*
X150885061Y-90805316D01*
X150885056Y-90805308D01*
X150750979Y-90627761D01*
X150586562Y-90477876D01*
X150586560Y-90477874D01*
X150397404Y-90360754D01*
X150397389Y-90360747D01*
X150214706Y-90289975D01*
X150159304Y-90247403D01*
X150135714Y-90181636D01*
X150135500Y-90174349D01*
X150135500Y-89905476D01*
X150155185Y-89838437D01*
X150171815Y-89817799D01*
X150280896Y-89708718D01*
X155072708Y-89708718D01*
X155087947Y-89824471D01*
X155091628Y-89852426D01*
X155091629Y-89852430D01*
X155147095Y-89986340D01*
X155147096Y-89986342D01*
X155147097Y-89986343D01*
X155235337Y-90101339D01*
X155350333Y-90189579D01*
X155357675Y-90192620D01*
X155393255Y-90207358D01*
X155447659Y-90251199D01*
X155469724Y-90317493D01*
X155460364Y-90369371D01*
X155410783Y-90489072D01*
X155410782Y-90489076D01*
X155391862Y-90632784D01*
X155391862Y-90632785D01*
X155410782Y-90776493D01*
X155410783Y-90776497D01*
X155466249Y-90910407D01*
X155466250Y-90910409D01*
X155466251Y-90910410D01*
X155554491Y-91025406D01*
X155669487Y-91113646D01*
X155803403Y-91169115D01*
X155930392Y-91185833D01*
X155947111Y-91188035D01*
X155947112Y-91188035D01*
X155947113Y-91188035D01*
X155962089Y-91186063D01*
X156090821Y-91169115D01*
X156224737Y-91113646D01*
X156339733Y-91025406D01*
X156366418Y-90990630D01*
X156373195Y-90981798D01*
X156429623Y-90940596D01*
X156471570Y-90933285D01*
X159356533Y-90933285D01*
X159423572Y-90952970D01*
X159444214Y-90969604D01*
X159835654Y-91361044D01*
X159869139Y-91422367D01*
X159870912Y-91464909D01*
X159863738Y-91519404D01*
X159863738Y-91519409D01*
X159879929Y-91642393D01*
X159869163Y-91711428D01*
X159822783Y-91763684D01*
X159804443Y-91773139D01*
X159693390Y-91819138D01*
X159578393Y-91907379D01*
X159490151Y-92022377D01*
X159434685Y-92156287D01*
X159434684Y-92156291D01*
X159415764Y-92299999D01*
X159415764Y-92300000D01*
X159434684Y-92443708D01*
X159434685Y-92443712D01*
X159490151Y-92577622D01*
X159490152Y-92577624D01*
X159490153Y-92577625D01*
X159578393Y-92692621D01*
X159693389Y-92780861D01*
X159827305Y-92836330D01*
X159954294Y-92853048D01*
X159971013Y-92855250D01*
X159971014Y-92855250D01*
X159971015Y-92855250D01*
X159985991Y-92853278D01*
X160114723Y-92836330D01*
X160248639Y-92780861D01*
X160363635Y-92692621D01*
X160451875Y-92577625D01*
X160507344Y-92443709D01*
X160526264Y-92300000D01*
X160510072Y-92177013D01*
X160520837Y-92107979D01*
X160567217Y-92055723D01*
X160585545Y-92046273D01*
X160696613Y-92000268D01*
X160811609Y-91912028D01*
X160899849Y-91797032D01*
X160955318Y-91663116D01*
X160974238Y-91519407D01*
X160955318Y-91375698D01*
X160899849Y-91241782D01*
X160811609Y-91126786D01*
X160811607Y-91126785D01*
X160809658Y-91124244D01*
X160784464Y-91059074D01*
X160798502Y-90990630D01*
X160809659Y-90973270D01*
X160868443Y-90896662D01*
X160890271Y-90868215D01*
X160945740Y-90734299D01*
X160964660Y-90590590D01*
X160945740Y-90446881D01*
X160906754Y-90352758D01*
X160890272Y-90312967D01*
X160890271Y-90312966D01*
X160890271Y-90312965D01*
X160802031Y-90197969D01*
X160687035Y-90109729D01*
X160687034Y-90109728D01*
X160687032Y-90109727D01*
X160553122Y-90054261D01*
X160553120Y-90054260D01*
X160553119Y-90054260D01*
X160463901Y-90042514D01*
X160409411Y-90035340D01*
X160409407Y-90035340D01*
X160354912Y-90042514D01*
X160285877Y-90031748D01*
X160251047Y-90007256D01*
X159712051Y-89468260D01*
X159712049Y-89468258D01*
X159696949Y-89459540D01*
X159643529Y-89428698D01*
X159643528Y-89428697D01*
X159618051Y-89421870D01*
X159567100Y-89408218D01*
X159567098Y-89408218D01*
X156152416Y-89408218D01*
X156085377Y-89388533D01*
X156054041Y-89359705D01*
X156036104Y-89336330D01*
X156020579Y-89316097D01*
X155905583Y-89227857D01*
X155905582Y-89227856D01*
X155905580Y-89227855D01*
X155771670Y-89172389D01*
X155771668Y-89172388D01*
X155771667Y-89172388D01*
X155699812Y-89162928D01*
X155627959Y-89153468D01*
X155627957Y-89153468D01*
X155484249Y-89172388D01*
X155484245Y-89172389D01*
X155350335Y-89227855D01*
X155235337Y-89316097D01*
X155147095Y-89431095D01*
X155091629Y-89565005D01*
X155091628Y-89565009D01*
X155072708Y-89708718D01*
X150280896Y-89708718D01*
X150710395Y-89279218D01*
X150771716Y-89245735D01*
X150814260Y-89243962D01*
X150899999Y-89255250D01*
X150900000Y-89255250D01*
X150900001Y-89255250D01*
X150914977Y-89253278D01*
X151043709Y-89236330D01*
X151177625Y-89180861D01*
X151292621Y-89092621D01*
X151380861Y-88977625D01*
X151436330Y-88843709D01*
X151455250Y-88700000D01*
X151436330Y-88556291D01*
X151396319Y-88459695D01*
X151380862Y-88422377D01*
X151380861Y-88422376D01*
X151380861Y-88422375D01*
X151292621Y-88307379D01*
X151250664Y-88275184D01*
X154770546Y-88275184D01*
X154784032Y-88377622D01*
X154789466Y-88418892D01*
X154789467Y-88418896D01*
X154844933Y-88552806D01*
X154844934Y-88552808D01*
X154844935Y-88552809D01*
X154933175Y-88667805D01*
X155048171Y-88756045D01*
X155182087Y-88811514D01*
X155309076Y-88828232D01*
X155325795Y-88830434D01*
X155325796Y-88830434D01*
X155325797Y-88830434D01*
X155340773Y-88828462D01*
X155469505Y-88811514D01*
X155603421Y-88756045D01*
X155718417Y-88667805D01*
X155751879Y-88624197D01*
X155808307Y-88582995D01*
X155850254Y-88575684D01*
X158764376Y-88575684D01*
X158764378Y-88575684D01*
X158840805Y-88555205D01*
X158909327Y-88515644D01*
X158941638Y-88483332D01*
X159002958Y-88449848D01*
X159045503Y-88448075D01*
X159058970Y-88449848D01*
X159099999Y-88455250D01*
X159099999Y-88455249D01*
X159100000Y-88455250D01*
X159243709Y-88436330D01*
X159377625Y-88380861D01*
X159492621Y-88292621D01*
X159580861Y-88177625D01*
X159636330Y-88043709D01*
X159655250Y-87900000D01*
X159636330Y-87756291D01*
X159580861Y-87622375D01*
X159492621Y-87507379D01*
X159377625Y-87419139D01*
X159377624Y-87419138D01*
X159377622Y-87419137D01*
X159243712Y-87363671D01*
X159243710Y-87363670D01*
X159243709Y-87363670D01*
X159171854Y-87354210D01*
X159100001Y-87344750D01*
X159099999Y-87344750D01*
X158956291Y-87363670D01*
X158956287Y-87363671D01*
X158822377Y-87419137D01*
X158707379Y-87507379D01*
X158619137Y-87622377D01*
X158563671Y-87756287D01*
X158563670Y-87756291D01*
X158554970Y-87822377D01*
X158549112Y-87866870D01*
X158520845Y-87930766D01*
X158462521Y-87969237D01*
X158426173Y-87974684D01*
X155850254Y-87974684D01*
X155783215Y-87954999D01*
X155751879Y-87926171D01*
X155731796Y-87899999D01*
X155718417Y-87882563D01*
X155603421Y-87794323D01*
X155603420Y-87794322D01*
X155603418Y-87794321D01*
X155469508Y-87738855D01*
X155469506Y-87738854D01*
X155469505Y-87738854D01*
X155354766Y-87723748D01*
X155325797Y-87719934D01*
X155325795Y-87719934D01*
X155182087Y-87738854D01*
X155182083Y-87738855D01*
X155048173Y-87794321D01*
X154933175Y-87882563D01*
X154844933Y-87997561D01*
X154789467Y-88131471D01*
X154789466Y-88131475D01*
X154771839Y-88265366D01*
X154770546Y-88275184D01*
X151250664Y-88275184D01*
X151177625Y-88219139D01*
X151177624Y-88219138D01*
X151177622Y-88219137D01*
X151043712Y-88163671D01*
X151043710Y-88163670D01*
X151043709Y-88163670D01*
X150971854Y-88154210D01*
X150900001Y-88144750D01*
X150899999Y-88144750D01*
X150756291Y-88163670D01*
X150756287Y-88163671D01*
X150622377Y-88219137D01*
X150507379Y-88307379D01*
X150419137Y-88422377D01*
X150363671Y-88556287D01*
X150363670Y-88556291D01*
X150344750Y-88699999D01*
X150344750Y-88700002D01*
X150356037Y-88785738D01*
X150345271Y-88854773D01*
X150320779Y-88889604D01*
X149703942Y-89506443D01*
X149626444Y-89583940D01*
X149584500Y-89685199D01*
X149584500Y-90174349D01*
X149564815Y-90241388D01*
X149512011Y-90287143D01*
X149505294Y-90289975D01*
X149322610Y-90360747D01*
X149322595Y-90360754D01*
X149133439Y-90477874D01*
X149133437Y-90477876D01*
X148969020Y-90627761D01*
X148834943Y-90805308D01*
X148834938Y-90805316D01*
X148735775Y-91004461D01*
X148735769Y-91004476D01*
X148674885Y-91218462D01*
X148674884Y-91218464D01*
X148654357Y-91439999D01*
X147500500Y-91439999D01*
X147500500Y-89660438D01*
X147499389Y-89656291D01*
X147480022Y-89584012D01*
X147479980Y-89583940D01*
X147474720Y-89574829D01*
X147440460Y-89515489D01*
X146183333Y-88258362D01*
X146149848Y-88197039D01*
X146148075Y-88154494D01*
X146149495Y-88143709D01*
X146155250Y-88100000D01*
X146136330Y-87956291D01*
X146080861Y-87822375D01*
X145992621Y-87707379D01*
X145877625Y-87619139D01*
X145877624Y-87619138D01*
X145877622Y-87619137D01*
X145743712Y-87563671D01*
X145743710Y-87563670D01*
X145743709Y-87563670D01*
X145671854Y-87554210D01*
X145600001Y-87544750D01*
X145599999Y-87544750D01*
X145456291Y-87563670D01*
X145456287Y-87563671D01*
X145322377Y-87619137D01*
X145318155Y-87622377D01*
X145218878Y-87698554D01*
X145153712Y-87723748D01*
X145085267Y-87709710D01*
X145045020Y-87675667D01*
X144992621Y-87607379D01*
X144877625Y-87519139D01*
X144877624Y-87519138D01*
X144877622Y-87519137D01*
X144743712Y-87463671D01*
X144743710Y-87463670D01*
X144743709Y-87463670D01*
X144643675Y-87450500D01*
X144600001Y-87444750D01*
X144599999Y-87444750D01*
X144456291Y-87463670D01*
X144456287Y-87463671D01*
X144322377Y-87519137D01*
X144207379Y-87607379D01*
X144119138Y-87722376D01*
X144114061Y-87734635D01*
X144070219Y-87789038D01*
X144003925Y-87811102D01*
X143936225Y-87793822D01*
X143888615Y-87742684D01*
X143875500Y-87687181D01*
X143875500Y-86365476D01*
X143895185Y-86298437D01*
X143911814Y-86277800D01*
X146365830Y-83823783D01*
X146427151Y-83790300D01*
X146469694Y-83788527D01*
X146599999Y-83805682D01*
X146600000Y-83805682D01*
X146600001Y-83805682D01*
X146652254Y-83798802D01*
X146756762Y-83785044D01*
X146902841Y-83724536D01*
X147028282Y-83628282D01*
X147124536Y-83502841D01*
X147185044Y-83356762D01*
X147205682Y-83200000D01*
X147202202Y-83173569D01*
X147185044Y-83043239D01*
X147185044Y-83043238D01*
X147124536Y-82897159D01*
X147028282Y-82771718D01*
X146902841Y-82675464D01*
X146756762Y-82614956D01*
X146756760Y-82614955D01*
X146600001Y-82594318D01*
X146599999Y-82594318D01*
X146443239Y-82614955D01*
X146443237Y-82614956D01*
X146297160Y-82675463D01*
X146171718Y-82771718D01*
X146075463Y-82897160D01*
X146014956Y-83043237D01*
X146014955Y-83043239D01*
X145994318Y-83199998D01*
X145994318Y-83200001D01*
X146011472Y-83330303D01*
X146000706Y-83399338D01*
X145976214Y-83434169D01*
X143443942Y-85966443D01*
X143366444Y-86043940D01*
X143324500Y-86145199D01*
X143324500Y-94654800D01*
X143325950Y-94662091D01*
X143319721Y-94731683D01*
X143318894Y-94733730D01*
X143314957Y-94743234D01*
X143314955Y-94743239D01*
X143294318Y-94899998D01*
X129000000Y-94899998D01*
X129000000Y-91700000D01*
X140144750Y-91700000D01*
X140153132Y-91763670D01*
X140163670Y-91843708D01*
X140163671Y-91843712D01*
X140219138Y-91977623D01*
X140219139Y-91977625D01*
X140274301Y-92049514D01*
X140299495Y-92114683D01*
X140285456Y-92183128D01*
X140274301Y-92200486D01*
X140219139Y-92272374D01*
X140219138Y-92272376D01*
X140163671Y-92406287D01*
X140163670Y-92406291D01*
X140144750Y-92550000D01*
X140151282Y-92599618D01*
X140163670Y-92693708D01*
X140163671Y-92693712D01*
X140219137Y-92827622D01*
X140219138Y-92827624D01*
X140219139Y-92827625D01*
X140307379Y-92942621D01*
X140422375Y-93030861D01*
X140556291Y-93086330D01*
X140683280Y-93103048D01*
X140699999Y-93105250D01*
X140700000Y-93105250D01*
X140700001Y-93105250D01*
X140714977Y-93103278D01*
X140843709Y-93086330D01*
X140977625Y-93030861D01*
X141074515Y-92956514D01*
X141139682Y-92931321D01*
X141208127Y-92945359D01*
X141225480Y-92956510D01*
X141322375Y-93030861D01*
X141456291Y-93086330D01*
X141583280Y-93103048D01*
X141599999Y-93105250D01*
X141600000Y-93105250D01*
X141600001Y-93105250D01*
X141614977Y-93103278D01*
X141743709Y-93086330D01*
X141877625Y-93030861D01*
X141992621Y-92942621D01*
X142080861Y-92827625D01*
X142136330Y-92693709D01*
X142155250Y-92550000D01*
X142136330Y-92406291D01*
X142080861Y-92272375D01*
X142080860Y-92272374D01*
X142080860Y-92272373D01*
X142025699Y-92200487D01*
X142000504Y-92135318D01*
X142014542Y-92066873D01*
X142025699Y-92049513D01*
X142080860Y-91977626D01*
X142080859Y-91977626D01*
X142080861Y-91977625D01*
X142136330Y-91843709D01*
X142155250Y-91700000D01*
X142136330Y-91556291D01*
X142098479Y-91464909D01*
X142080862Y-91422377D01*
X142080861Y-91422376D01*
X142080861Y-91422375D01*
X141992621Y-91307379D01*
X141877625Y-91219139D01*
X141877624Y-91219138D01*
X141877622Y-91219137D01*
X141743712Y-91163671D01*
X141743710Y-91163670D01*
X141743709Y-91163670D01*
X141671854Y-91154210D01*
X141600001Y-91144750D01*
X141599999Y-91144750D01*
X141456291Y-91163670D01*
X141456287Y-91163671D01*
X141322377Y-91219137D01*
X141292866Y-91241782D01*
X141225484Y-91293485D01*
X141160318Y-91318679D01*
X141091873Y-91304641D01*
X141074519Y-91293489D01*
X140977625Y-91219139D01*
X140977624Y-91219138D01*
X140977622Y-91219137D01*
X140843712Y-91163671D01*
X140843710Y-91163670D01*
X140843709Y-91163670D01*
X140771854Y-91154210D01*
X140700001Y-91144750D01*
X140699999Y-91144750D01*
X140556291Y-91163670D01*
X140556287Y-91163671D01*
X140422377Y-91219137D01*
X140307379Y-91307379D01*
X140219137Y-91422377D01*
X140163671Y-91556287D01*
X140163670Y-91556291D01*
X140149606Y-91663119D01*
X140144750Y-91700000D01*
X129000000Y-91700000D01*
X129000000Y-88799999D01*
X135944750Y-88799999D01*
X135944750Y-88800000D01*
X135963670Y-88943708D01*
X135963671Y-88943712D01*
X136019137Y-89077622D01*
X136019138Y-89077624D01*
X136019139Y-89077625D01*
X136107379Y-89192621D01*
X136222375Y-89280861D01*
X136356291Y-89336330D01*
X136483280Y-89353048D01*
X136499999Y-89355250D01*
X136500000Y-89355250D01*
X136500001Y-89355250D01*
X136514977Y-89353278D01*
X136643709Y-89336330D01*
X136777625Y-89280861D01*
X136892621Y-89192621D01*
X136980861Y-89077625D01*
X137036330Y-88943709D01*
X137055250Y-88800000D01*
X137036330Y-88656291D01*
X136981724Y-88524458D01*
X136980862Y-88522377D01*
X136980861Y-88522376D01*
X136980861Y-88522375D01*
X136892621Y-88407379D01*
X136777625Y-88319139D01*
X136777624Y-88319138D01*
X136777622Y-88319137D01*
X136643712Y-88263671D01*
X136643710Y-88263670D01*
X136643709Y-88263670D01*
X136571854Y-88254210D01*
X136500001Y-88244750D01*
X136499999Y-88244750D01*
X136356291Y-88263670D01*
X136356287Y-88263671D01*
X136222377Y-88319137D01*
X136107379Y-88407379D01*
X136019137Y-88522377D01*
X135963671Y-88656287D01*
X135963670Y-88656291D01*
X135944750Y-88799999D01*
X129000000Y-88799999D01*
X129000000Y-84500709D01*
X129000004Y-84499996D01*
X131544500Y-84499996D01*
X131544500Y-84500003D01*
X131564484Y-84843113D01*
X131564485Y-84843124D01*
X131624163Y-85181575D01*
X131624166Y-85181588D01*
X131722737Y-85510840D01*
X131858865Y-85826417D01*
X131858871Y-85826430D01*
X132030716Y-86124075D01*
X132235952Y-86399755D01*
X132235957Y-86399761D01*
X132357767Y-86528871D01*
X132471813Y-86649753D01*
X132471819Y-86649758D01*
X132471821Y-86649760D01*
X132735093Y-86870672D01*
X132735098Y-86870675D01*
X133022250Y-87059538D01*
X133124329Y-87110804D01*
X133329378Y-87213785D01*
X133329384Y-87213787D01*
X133329386Y-87213788D01*
X133652353Y-87331338D01*
X133986783Y-87410599D01*
X134328153Y-87450500D01*
X134328160Y-87450500D01*
X134671840Y-87450500D01*
X134671847Y-87450500D01*
X135013217Y-87410599D01*
X135347647Y-87331338D01*
X135670614Y-87213788D01*
X135670617Y-87213786D01*
X135670621Y-87213785D01*
X135774487Y-87161620D01*
X135977750Y-87059538D01*
X136264902Y-86870675D01*
X136528187Y-86649753D01*
X136764044Y-86399759D01*
X136969284Y-86124074D01*
X137141131Y-85826426D01*
X137277262Y-85510841D01*
X137375834Y-85181585D01*
X137435516Y-84843113D01*
X137455500Y-84500000D01*
X137435516Y-84156887D01*
X137425485Y-84099999D01*
X137375836Y-83818424D01*
X137375833Y-83818411D01*
X137277262Y-83489159D01*
X137214522Y-83343712D01*
X137141131Y-83173574D01*
X137065881Y-83043237D01*
X136969283Y-82875924D01*
X136764047Y-82600244D01*
X136764042Y-82600238D01*
X136649998Y-82479359D01*
X136528187Y-82350247D01*
X136528180Y-82350241D01*
X136528178Y-82350239D01*
X136468304Y-82299999D01*
X143044750Y-82299999D01*
X143044750Y-82300000D01*
X143063670Y-82443708D01*
X143063671Y-82443712D01*
X143119137Y-82577622D01*
X143119138Y-82577624D01*
X143119139Y-82577625D01*
X143193485Y-82674515D01*
X143218679Y-82739682D01*
X143204641Y-82808127D01*
X143193489Y-82825480D01*
X143174265Y-82850534D01*
X143119137Y-82922377D01*
X143063671Y-83056287D01*
X143063670Y-83056291D01*
X143044750Y-83200000D01*
X143058414Y-83303790D01*
X143063670Y-83343708D01*
X143063671Y-83343712D01*
X143119137Y-83477622D01*
X143119138Y-83477624D01*
X143119139Y-83477625D01*
X143193485Y-83574515D01*
X143218679Y-83639682D01*
X143204641Y-83708127D01*
X143193489Y-83725480D01*
X143147785Y-83785043D01*
X143119137Y-83822377D01*
X143063671Y-83956287D01*
X143063670Y-83956291D01*
X143044750Y-84100000D01*
X143052239Y-84156887D01*
X143063670Y-84243708D01*
X143063671Y-84243712D01*
X143119137Y-84377622D01*
X143119138Y-84377624D01*
X143119139Y-84377625D01*
X143207379Y-84492621D01*
X143322375Y-84580861D01*
X143456291Y-84636330D01*
X143583280Y-84653048D01*
X143599999Y-84655250D01*
X143600000Y-84655250D01*
X143600001Y-84655250D01*
X143614977Y-84653278D01*
X143743709Y-84636330D01*
X143877625Y-84580861D01*
X143992621Y-84492621D01*
X144080861Y-84377625D01*
X144136330Y-84243709D01*
X144155250Y-84100000D01*
X144136330Y-83956291D01*
X144080861Y-83822375D01*
X144006514Y-83725484D01*
X143981321Y-83660318D01*
X143995359Y-83591873D01*
X144006510Y-83574519D01*
X144080861Y-83477625D01*
X144136330Y-83343709D01*
X144155250Y-83200000D01*
X144136330Y-83056291D01*
X144080861Y-82922375D01*
X144006514Y-82825484D01*
X143981321Y-82760318D01*
X143995359Y-82691873D01*
X144006510Y-82674519D01*
X144080861Y-82577625D01*
X144136330Y-82443709D01*
X144155250Y-82300000D01*
X144136330Y-82156291D01*
X144080861Y-82022375D01*
X143992621Y-81907379D01*
X143877625Y-81819139D01*
X143877624Y-81819138D01*
X143877622Y-81819137D01*
X143743712Y-81763671D01*
X143743710Y-81763670D01*
X143743709Y-81763670D01*
X143671854Y-81754210D01*
X143600001Y-81744750D01*
X143599999Y-81744750D01*
X143456291Y-81763670D01*
X143456287Y-81763671D01*
X143322377Y-81819137D01*
X143207379Y-81907379D01*
X143119137Y-82022377D01*
X143063671Y-82156287D01*
X143063670Y-82156291D01*
X143044750Y-82299999D01*
X136468304Y-82299999D01*
X136264906Y-82129327D01*
X136121326Y-82034893D01*
X135977750Y-81940462D01*
X135911877Y-81907379D01*
X135670621Y-81786214D01*
X135670615Y-81786212D01*
X135347648Y-81668662D01*
X135347645Y-81668661D01*
X135013218Y-81589401D01*
X134970545Y-81584413D01*
X134671847Y-81549500D01*
X134328153Y-81549500D01*
X134029454Y-81584413D01*
X133986782Y-81589401D01*
X133986780Y-81589401D01*
X133652354Y-81668661D01*
X133652351Y-81668662D01*
X133329384Y-81786212D01*
X133329378Y-81786214D01*
X133022253Y-81940460D01*
X132735093Y-82129327D01*
X132471821Y-82350239D01*
X132471811Y-82350249D01*
X132235957Y-82600238D01*
X132235952Y-82600244D01*
X132030716Y-82875924D01*
X131858871Y-83173569D01*
X131858865Y-83173582D01*
X131722737Y-83489159D01*
X131624166Y-83818411D01*
X131624163Y-83818424D01*
X131564485Y-84156875D01*
X131564484Y-84156886D01*
X131544500Y-84499996D01*
X129000004Y-84499996D01*
X129000007Y-84499357D01*
X129002565Y-84264708D01*
X129003029Y-84255266D01*
X129043984Y-83787150D01*
X129045396Y-83776432D01*
X129065870Y-83660318D01*
X129126876Y-83314331D01*
X129129208Y-83303812D01*
X129250663Y-82850534D01*
X129253903Y-82840258D01*
X129414398Y-82399303D01*
X129418519Y-82389353D01*
X129616835Y-81964063D01*
X129621815Y-81954496D01*
X129856435Y-81548122D01*
X129862228Y-81539028D01*
X130131384Y-81154634D01*
X130137953Y-81146074D01*
X130439575Y-80786616D01*
X130446861Y-80778665D01*
X130778665Y-80446861D01*
X130786616Y-80439575D01*
X131146074Y-80137953D01*
X131154634Y-80131384D01*
X131539028Y-79862228D01*
X131548122Y-79856435D01*
X131954496Y-79621815D01*
X131964063Y-79616835D01*
X132389353Y-79418519D01*
X132399303Y-79414398D01*
X132840258Y-79253903D01*
X132850534Y-79250663D01*
X133303812Y-79129208D01*
X133314331Y-79126876D01*
X133776435Y-79045395D01*
X133787150Y-79043984D01*
X134255266Y-79003029D01*
X134264696Y-79002565D01*
X134499358Y-79000007D01*
X134500710Y-79000000D01*
X165499290Y-79000000D01*
X165500642Y-79000007D01*
G37*
%TD.AperFunction*%
%TD*%
M02*
