%TF.GenerationSoftware,KiCad,Pcbnew,7.0.6*%
%TF.CreationDate,2024-06-25T21:47:37-04:00*%
%TF.ProjectId,Axis_Basic,41786973-5f42-4617-9369-632e6b696361,rev?*%
%TF.SameCoordinates,Original*%
%TF.FileFunction,Legend,Top*%
%TF.FilePolarity,Positive*%
%FSLAX46Y46*%
G04 Gerber Fmt 4.6, Leading zero omitted, Abs format (unit mm)*
G04 Created by KiCad (PCBNEW 7.0.6) date 2024-06-25 21:47:37*
%MOMM*%
%LPD*%
G01*
G04 APERTURE LIST*
%ADD10C,0.150000*%
%ADD11C,0.120000*%
%ADD12C,0.100000*%
G04 APERTURE END LIST*
D10*
X135988866Y-107663220D02*
X135988866Y-106901316D01*
X131039411Y-112080180D02*
X131610839Y-112080180D01*
X131325125Y-112080180D02*
X131325125Y-113080180D01*
X131325125Y-113080180D02*
X131420363Y-112937323D01*
X131420363Y-112937323D02*
X131515601Y-112842085D01*
X131515601Y-112842085D02*
X131610839Y-112794466D01*
X130658458Y-112984942D02*
X130610839Y-113032561D01*
X130610839Y-113032561D02*
X130515601Y-113080180D01*
X130515601Y-113080180D02*
X130277506Y-113080180D01*
X130277506Y-113080180D02*
X130182268Y-113032561D01*
X130182268Y-113032561D02*
X130134649Y-112984942D01*
X130134649Y-112984942D02*
X130087030Y-112889704D01*
X130087030Y-112889704D02*
X130087030Y-112794466D01*
X130087030Y-112794466D02*
X130134649Y-112651609D01*
X130134649Y-112651609D02*
X130706077Y-112080180D01*
X130706077Y-112080180D02*
X130087030Y-112080180D01*
X129753696Y-112746847D02*
X129515601Y-112080180D01*
X129515601Y-112080180D02*
X129277506Y-112746847D01*
D11*
%TO.C,C20*%
X158430810Y-107778307D02*
X158278307Y-107930810D01*
X157921693Y-107269190D02*
X157769190Y-107421693D01*
%TO.C,R18*%
X150680000Y-112346359D02*
X150680000Y-112653641D01*
X149920000Y-112346359D02*
X149920000Y-112653641D01*
%TO.C,R11*%
X160753641Y-91980000D02*
X160446359Y-91980000D01*
X160753641Y-91220000D02*
X160446359Y-91220000D01*
%TO.C,J5*%
X166710000Y-97300000D02*
X166710000Y-97224677D01*
X167830000Y-97300000D02*
X166710000Y-97300000D01*
X171830000Y-96865000D02*
X167830000Y-96865000D01*
X167830000Y-96345000D02*
X171830000Y-96345000D01*
X171830000Y-96345000D02*
X171830000Y-96865000D01*
X166710000Y-95970000D02*
X167830000Y-95970000D01*
X166710000Y-95954677D02*
X166710000Y-95985323D01*
X171830000Y-95595000D02*
X167830000Y-95595000D01*
X167830000Y-95075000D02*
X171830000Y-95075000D01*
X171830000Y-95075000D02*
X171830000Y-95595000D01*
X166710000Y-94700000D02*
X167830000Y-94700000D01*
X166710000Y-94684677D02*
X166710000Y-94715323D01*
X171830000Y-94325000D02*
X167830000Y-94325000D01*
X167830000Y-93805000D02*
X171830000Y-93805000D01*
X171830000Y-93805000D02*
X171830000Y-94325000D01*
X166710000Y-93430000D02*
X167830000Y-93430000D01*
X166710000Y-93414677D02*
X166710000Y-93445323D01*
X171830000Y-93055000D02*
X167830000Y-93055000D01*
X167830000Y-92535000D02*
X171830000Y-92535000D01*
X171830000Y-92535000D02*
X171830000Y-93055000D01*
X166710000Y-92160000D02*
X167830000Y-92160000D01*
X166710000Y-92144677D02*
X166710000Y-92175323D01*
X171830000Y-91785000D02*
X167830000Y-91785000D01*
X167830000Y-91685000D02*
X171830000Y-91685000D01*
X167830000Y-91565000D02*
X171830000Y-91565000D01*
X164240000Y-91525000D02*
X164240000Y-90765000D01*
X167830000Y-91445000D02*
X171830000Y-91445000D01*
X167830000Y-91325000D02*
X171830000Y-91325000D01*
X167830000Y-91265000D02*
X171830000Y-91265000D01*
X171830000Y-91265000D02*
X171830000Y-91785000D01*
X166710000Y-90905323D02*
X166710000Y-90830000D01*
X166710000Y-90830000D02*
X167830000Y-90830000D01*
X167830000Y-90830000D02*
X167830000Y-97300000D01*
X164240000Y-90765000D02*
X165000000Y-90765000D01*
D12*
X166950000Y-100450000D02*
X171850000Y-100450000D01*
X171850000Y-100450000D02*
X171850000Y-87750000D01*
X171850000Y-87750000D02*
X166950000Y-87750000D01*
X166950000Y-87750000D02*
X166950000Y-100450000D01*
D11*
%TO.C,R10*%
X148380000Y-109946359D02*
X148380000Y-110253641D01*
X147620000Y-109946359D02*
X147620000Y-110253641D01*
%TO.C,J4*%
X135910000Y-105240000D02*
X128090000Y-105240000D01*
X134310000Y-105240000D02*
X134310000Y-106160000D01*
X128090000Y-105240000D02*
X128090000Y-111360000D01*
X131950000Y-106000000D02*
X130350000Y-106000000D01*
X130350000Y-106000000D02*
X130350000Y-107000000D01*
X135910000Y-106160000D02*
X135910000Y-105240000D01*
X134310000Y-106160000D02*
X135910000Y-106160000D01*
X134310000Y-106440000D02*
X134310000Y-106160000D01*
X134310000Y-106440000D02*
X135525000Y-106440000D01*
X130350000Y-106500000D02*
X128090000Y-106500000D01*
X131950000Y-107000000D02*
X131950000Y-106000000D01*
X130350000Y-107000000D02*
X131950000Y-107000000D01*
X130350000Y-107000000D02*
X128090000Y-107000000D01*
X132450000Y-107800000D02*
X132450000Y-108800000D01*
X128090000Y-107800000D02*
X132450000Y-107800000D01*
X132450000Y-108800000D02*
X128090000Y-108800000D01*
X131950000Y-109600000D02*
X131950000Y-110600000D01*
X130350000Y-109600000D02*
X131950000Y-109600000D01*
X135910000Y-110440000D02*
X134310000Y-110440000D01*
X134310000Y-110440000D02*
X134310000Y-110160000D01*
X131950000Y-110600000D02*
X130350000Y-110600000D01*
X130350000Y-110600000D02*
X130350000Y-109600000D01*
X135910000Y-111360000D02*
X135910000Y-110440000D01*
X134310000Y-111360000D02*
X134310000Y-110440000D01*
X128090000Y-111360000D02*
X135910000Y-111360000D01*
%TO.C,C1*%
X146792164Y-111540000D02*
X147007836Y-111540000D01*
X146792164Y-112260000D02*
X147007836Y-112260000D01*
%TO.C,J3*%
X149890000Y-114090000D02*
X149890000Y-121910000D01*
X149890000Y-115690000D02*
X150810000Y-115690000D01*
X149890000Y-121910000D02*
X160010000Y-121910000D01*
X150650000Y-118050000D02*
X150650000Y-119650000D01*
X150650000Y-119650000D02*
X151650000Y-119650000D01*
X150810000Y-114090000D02*
X149890000Y-114090000D01*
X150810000Y-115690000D02*
X150810000Y-114090000D01*
X151090000Y-115690000D02*
X150810000Y-115690000D01*
X151090000Y-115690000D02*
X151090000Y-114475000D01*
X151150000Y-119650000D02*
X151150000Y-121910000D01*
X151650000Y-118050000D02*
X150650000Y-118050000D01*
X151650000Y-119650000D02*
X151650000Y-118050000D01*
X151650000Y-119650000D02*
X151650000Y-121910000D01*
X152450000Y-117550000D02*
X157450000Y-117550000D01*
X152450000Y-121910000D02*
X152450000Y-117550000D01*
X157450000Y-117550000D02*
X157450000Y-121910000D01*
X158250000Y-118050000D02*
X159250000Y-118050000D01*
X158250000Y-119650000D02*
X158250000Y-118050000D01*
X159090000Y-114090000D02*
X159090000Y-115690000D01*
X159090000Y-115690000D02*
X158810000Y-115690000D01*
X159250000Y-118050000D02*
X159250000Y-119650000D01*
X159250000Y-119650000D02*
X158250000Y-119650000D01*
X160010000Y-114090000D02*
X159090000Y-114090000D01*
X160010000Y-115690000D02*
X159090000Y-115690000D01*
X160010000Y-121910000D02*
X160010000Y-114090000D01*
%TO.C,R12*%
X162246359Y-87420000D02*
X162553641Y-87420000D01*
X162246359Y-88180000D02*
X162553641Y-88180000D01*
%TO.C,R3*%
X162920000Y-104153641D02*
X162920000Y-103846359D01*
X163680000Y-104153641D02*
X163680000Y-103846359D01*
D12*
%TO.C,SW1*%
X159500000Y-113300000D02*
X162500000Y-113300000D01*
X162500000Y-113300000D02*
X162500000Y-108800000D01*
X162500000Y-108800000D02*
X159500000Y-108800000D01*
X159500000Y-108800000D02*
X159500000Y-113300000D01*
D11*
%TO.C,C15*%
X160490000Y-94407836D02*
X160490000Y-94192164D01*
X161210000Y-94407836D02*
X161210000Y-94192164D01*
%TO.C,R15*%
X136627470Y-96556476D02*
X136627470Y-95102348D01*
X138447470Y-96556476D02*
X138447470Y-95102348D01*
%TO.C,C9*%
X140761252Y-94685000D02*
X140238748Y-94685000D01*
X140761252Y-93215000D02*
X140238748Y-93215000D01*
%TO.C,R8*%
X142420000Y-95053641D02*
X142420000Y-94746359D01*
X143180000Y-95053641D02*
X143180000Y-94746359D01*
%TO.C,U4*%
X145597500Y-101810000D02*
X144872500Y-101810000D01*
X140377500Y-101085000D02*
X140377500Y-101810000D01*
X145597500Y-101085000D02*
X145597500Y-101810000D01*
X140377500Y-97315000D02*
X140377500Y-96590000D01*
X145597500Y-97315000D02*
X145597500Y-96590000D01*
X140377500Y-96590000D02*
X141102500Y-96590000D01*
X145597500Y-96590000D02*
X144872500Y-96590000D01*
%TO.C,J6*%
X161170000Y-80350000D02*
X160145000Y-80350000D01*
X161170000Y-79240000D02*
X161170000Y-80350000D01*
X160145000Y-80350000D02*
X160145000Y-80890000D01*
X157990000Y-84860000D02*
X157165000Y-84860000D01*
X157165000Y-84860000D02*
X157165000Y-86660000D01*
X143035000Y-84860000D02*
X142210000Y-84860000D01*
X140055000Y-80890000D02*
X140055000Y-80350000D01*
X140055000Y-80350000D02*
X139030000Y-80350000D01*
X139030000Y-80350000D02*
X139030000Y-79240000D01*
X139030000Y-79240000D02*
X161170000Y-79240000D01*
%TO.C,C5*%
X146960000Y-102892164D02*
X146960000Y-103107836D01*
X146240000Y-102892164D02*
X146240000Y-103107836D01*
%TO.C,J2*%
X135892353Y-94169412D02*
X128072353Y-94169412D01*
X134292353Y-94169412D02*
X134292353Y-95089412D01*
X128072353Y-94169412D02*
X128072353Y-104289412D01*
X131932353Y-94929412D02*
X130332353Y-94929412D01*
X130332353Y-94929412D02*
X130332353Y-95929412D01*
X135892353Y-95089412D02*
X135892353Y-94169412D01*
X134292353Y-95089412D02*
X135892353Y-95089412D01*
X134292353Y-95369412D02*
X134292353Y-95089412D01*
X134292353Y-95369412D02*
X135507353Y-95369412D01*
X130332353Y-95429412D02*
X128072353Y-95429412D01*
X131932353Y-95929412D02*
X131932353Y-94929412D01*
X130332353Y-95929412D02*
X131932353Y-95929412D01*
X130332353Y-95929412D02*
X128072353Y-95929412D01*
X132432353Y-96729412D02*
X132432353Y-101729412D01*
X128072353Y-96729412D02*
X132432353Y-96729412D01*
X132432353Y-101729412D02*
X128072353Y-101729412D01*
X131932353Y-102529412D02*
X131932353Y-103529412D01*
X130332353Y-102529412D02*
X131932353Y-102529412D01*
X135892353Y-103369412D02*
X134292353Y-103369412D01*
X134292353Y-103369412D02*
X134292353Y-103089412D01*
X131932353Y-103529412D02*
X130332353Y-103529412D01*
X130332353Y-103529412D02*
X130332353Y-102529412D01*
X135892353Y-104289412D02*
X135892353Y-103369412D01*
X134292353Y-104289412D02*
X134292353Y-103369412D01*
X128072353Y-104289412D02*
X135892353Y-104289412D01*
%TO.C,C2*%
X148060000Y-117392164D02*
X148060000Y-117607836D01*
X147340000Y-117392164D02*
X147340000Y-117607836D01*
%TO.C,R16*%
X149880000Y-109946359D02*
X149880000Y-110253641D01*
X149120000Y-109946359D02*
X149120000Y-110253641D01*
%TO.C,C8*%
X139807836Y-103210000D02*
X139592164Y-103210000D01*
X139807836Y-102490000D02*
X139592164Y-102490000D01*
%TO.C,L1*%
X162687221Y-94490000D02*
X163012779Y-94490000D01*
X162687221Y-95510000D02*
X163012779Y-95510000D01*
%TO.C,R5*%
X162020000Y-107853641D02*
X162020000Y-107546359D01*
X162780000Y-107853641D02*
X162780000Y-107546359D01*
%TO.C,U2*%
X146550000Y-119560000D02*
X140540000Y-119560000D01*
X144300000Y-112740000D02*
X140540000Y-112740000D01*
X140540000Y-119560000D02*
X140540000Y-118300000D01*
X140540000Y-112740000D02*
X140540000Y-114000000D01*
%TO.C,C18*%
X155630810Y-91978307D02*
X155478307Y-92130810D01*
X155121693Y-91469190D02*
X154969190Y-91621693D01*
%TO.C,R19*%
X159222659Y-105939940D02*
X159439940Y-105722659D01*
X159760060Y-106477341D02*
X159977341Y-106260060D01*
%TO.C,C12*%
X165161252Y-99635000D02*
X164638748Y-99635000D01*
X165161252Y-98165000D02*
X164638748Y-98165000D01*
%TO.C,R17*%
X152490000Y-112346359D02*
X152490000Y-112653641D01*
X151730000Y-112346359D02*
X151730000Y-112653641D01*
%TO.C,C11*%
X145537500Y-110797500D02*
X144750000Y-110797500D01*
X145143750Y-111191250D02*
X145143750Y-110403750D01*
X144510000Y-111295563D02*
X144510000Y-110010000D01*
X144510000Y-111295563D02*
X143445563Y-112360000D01*
X144510000Y-106604437D02*
X144510000Y-107890000D01*
X144510000Y-106604437D02*
X143445563Y-105540000D01*
X143445563Y-112360000D02*
X137690000Y-112360000D01*
X143445563Y-105540000D02*
X137690000Y-105540000D01*
X137690000Y-112360000D02*
X137690000Y-110010000D01*
X137690000Y-105540000D02*
X137690000Y-107890000D01*
%TO.C,D2*%
X148865000Y-108985000D02*
X150335000Y-108985000D01*
X150335000Y-108985000D02*
X150335000Y-106700000D01*
X148865000Y-106700000D02*
X148865000Y-108985000D01*
%TO.C,C3*%
X161660000Y-107592164D02*
X161660000Y-107807836D01*
X160940000Y-107592164D02*
X160940000Y-107807836D01*
%TO.C,R2*%
X161953641Y-106580000D02*
X161646359Y-106580000D01*
X161953641Y-105820000D02*
X161646359Y-105820000D01*
%TO.C,R13*%
X160453641Y-88180000D02*
X160146359Y-88180000D01*
X160453641Y-87420000D02*
X160146359Y-87420000D01*
%TO.C,C19*%
X149428307Y-103669190D02*
X149580810Y-103821693D01*
X148919190Y-104178307D02*
X149071693Y-104330810D01*
%TO.C,R6*%
X159820000Y-107853641D02*
X159820000Y-107546359D01*
X160580000Y-107853641D02*
X160580000Y-107546359D01*
D12*
%TO.C,SW2*%
X156000000Y-113300000D02*
X159000000Y-113300000D01*
X159000000Y-113300000D02*
X159000000Y-108800000D01*
X159000000Y-108800000D02*
X156000000Y-108800000D01*
X156000000Y-108800000D02*
X156000000Y-113300000D01*
D11*
%TO.C,C10*%
X140761252Y-105135000D02*
X140238748Y-105135000D01*
X140761252Y-103665000D02*
X140238748Y-103665000D01*
%TO.C,C13*%
X163557836Y-97060000D02*
X163342164Y-97060000D01*
X163557836Y-96340000D02*
X163342164Y-96340000D01*
%TO.C,C6*%
X144440000Y-103807836D02*
X144440000Y-103592164D01*
X145160000Y-103807836D02*
X145160000Y-103592164D01*
%TO.C,D5*%
X147165000Y-108985000D02*
X148635000Y-108985000D01*
X148635000Y-108985000D02*
X148635000Y-106700000D01*
X147165000Y-106700000D02*
X147165000Y-108985000D01*
%TO.C,U3*%
X155400000Y-92773369D02*
X154728249Y-93445120D01*
X154728249Y-93445120D02*
X153816081Y-92532952D01*
X148173369Y-100000000D02*
X148845120Y-99328249D01*
X156071751Y-93445120D02*
X155400000Y-92773369D01*
X148845120Y-100671751D02*
X148173369Y-100000000D01*
X161954880Y-99328249D02*
X162626631Y-100000000D01*
X154728249Y-106554880D02*
X155400000Y-107226631D01*
X162626631Y-100000000D02*
X161954880Y-100671751D01*
X155400000Y-107226631D02*
X156071751Y-106554880D01*
%TO.C,R9*%
X155680000Y-112246359D02*
X155680000Y-112553641D01*
X154920000Y-112246359D02*
X154920000Y-112553641D01*
%TO.C,C7*%
X139807836Y-95860000D02*
X139592164Y-95860000D01*
X139807836Y-95140000D02*
X139592164Y-95140000D01*
%TO.C,C14*%
X147965010Y-94204457D02*
X147595543Y-93834990D01*
X149004457Y-93165010D02*
X148634990Y-92795543D01*
%TO.C,C17*%
X152728307Y-91619190D02*
X152880810Y-91771693D01*
X152219190Y-92128307D02*
X152371693Y-92280810D01*
%TO.C,C4*%
X143960000Y-103542164D02*
X143960000Y-103757836D01*
X143240000Y-103542164D02*
X143240000Y-103757836D01*
D10*
%TO.C,U5*%
X160050000Y-90800000D02*
X163050000Y-90800000D01*
X161550000Y-88550000D02*
X163050000Y-88550000D01*
D11*
%TO.C,C16*%
X149969190Y-94521693D02*
X150121693Y-94369190D01*
X150478307Y-95030810D02*
X150630810Y-94878307D01*
%TO.C,D1*%
X148950000Y-112540000D02*
X147250000Y-112540000D01*
X148950000Y-112540000D02*
X148950000Y-115200000D01*
X147250000Y-112540000D02*
X147250000Y-115200000D01*
%TO.C,R4*%
X165420000Y-89353641D02*
X165420000Y-89046359D01*
X166180000Y-89353641D02*
X166180000Y-89046359D01*
%TO.C,D7*%
X129150000Y-88150000D02*
X136450000Y-88150000D01*
X129150000Y-93650000D02*
X136450000Y-93650000D01*
X136450000Y-93650000D02*
X136450000Y-92500000D01*
%TO.C,R7*%
X147122659Y-97539940D02*
X147339940Y-97322659D01*
X147660060Y-98077341D02*
X147877341Y-97860060D01*
%TO.C,J1*%
X168600000Y-111320000D02*
X166800000Y-111320000D01*
X170700000Y-111320000D02*
X171850000Y-111320000D01*
X168600000Y-101980000D02*
X166800000Y-101980000D01*
X170700000Y-101980000D02*
X171850000Y-101980000D01*
%TO.C,R14*%
X138447470Y-101902348D02*
X138447470Y-103356476D01*
X136627470Y-101902348D02*
X136627470Y-103356476D01*
%TO.C,R20*%
X161377341Y-104860060D02*
X161160060Y-105077341D01*
X160839940Y-104322659D02*
X160622659Y-104539940D01*
%TO.C,Y1*%
X153441421Y-89053984D02*
X154396016Y-90008579D01*
X152203984Y-90291421D02*
X153158579Y-91246016D01*
%TO.C,R1*%
X165546359Y-100220000D02*
X165853641Y-100220000D01*
X165546359Y-100980000D02*
X165853641Y-100980000D01*
%TD*%
M02*
