%TF.GenerationSoftware,KiCad,Pcbnew,7.0.6*%
%TF.CreationDate,2024-06-11T21:52:17-04:00*%
%TF.ProjectId,Axis_Basic,41786973-5f42-4617-9369-632e6b696361,rev?*%
%TF.SameCoordinates,Original*%
%TF.FileFunction,Copper,L3,Inr*%
%TF.FilePolarity,Positive*%
%FSLAX46Y46*%
G04 Gerber Fmt 4.6, Leading zero omitted, Abs format (unit mm)*
G04 Created by KiCad (PCBNEW 7.0.6) date 2024-06-11 21:52:17*
%MOMM*%
%LPD*%
G01*
G04 APERTURE LIST*
G04 Aperture macros list*
%AMRoundRect*
0 Rectangle with rounded corners*
0 $1 Rounding radius*
0 $2 $3 $4 $5 $6 $7 $8 $9 X,Y pos of 4 corners*
0 Add a 4 corners polygon primitive as box body*
4,1,4,$2,$3,$4,$5,$6,$7,$8,$9,$2,$3,0*
0 Add four circle primitives for the rounded corners*
1,1,$1+$1,$2,$3*
1,1,$1+$1,$4,$5*
1,1,$1+$1,$6,$7*
1,1,$1+$1,$8,$9*
0 Add four rect primitives between the rounded corners*
20,1,$1+$1,$2,$3,$4,$5,0*
20,1,$1+$1,$4,$5,$6,$7,0*
20,1,$1+$1,$6,$7,$8,$9,0*
20,1,$1+$1,$8,$9,$2,$3,0*%
G04 Aperture macros list end*
%TA.AperFunction,ComponentPad*%
%ADD10R,1.000000X1.000000*%
%TD*%
%TA.AperFunction,ComponentPad*%
%ADD11O,1.000000X1.000000*%
%TD*%
%TA.AperFunction,ComponentPad*%
%ADD12RoundRect,0.250000X-0.625000X0.350000X-0.625000X-0.350000X0.625000X-0.350000X0.625000X0.350000X0*%
%TD*%
%TA.AperFunction,ComponentPad*%
%ADD13O,1.750000X1.200000*%
%TD*%
%TA.AperFunction,ComponentPad*%
%ADD14C,0.500000*%
%TD*%
%TA.AperFunction,ComponentPad*%
%ADD15RoundRect,0.250000X0.350000X0.625000X-0.350000X0.625000X-0.350000X-0.625000X0.350000X-0.625000X0*%
%TD*%
%TA.AperFunction,ComponentPad*%
%ADD16O,1.200000X1.750000*%
%TD*%
%TA.AperFunction,ComponentPad*%
%ADD17O,1.000000X2.100000*%
%TD*%
%TA.AperFunction,ComponentPad*%
%ADD18O,1.000000X1.800000*%
%TD*%
%TA.AperFunction,ViaPad*%
%ADD19C,0.700000*%
%TD*%
%TA.AperFunction,ViaPad*%
%ADD20C,0.800000*%
%TD*%
%TA.AperFunction,ViaPad*%
%ADD21C,0.450000*%
%TD*%
%TA.AperFunction,Conductor*%
%ADD22C,0.200000*%
%TD*%
G04 APERTURE END LIST*
D10*
%TO.N,+3.3V*%
%TO.C,J5*%
X158740000Y-113330000D03*
D11*
%TO.N,SWDIO*%
X158740000Y-114600000D03*
%TO.N,GND*%
X157470000Y-113330000D03*
%TO.N,SWCLK*%
X157470000Y-114600000D03*
%TO.N,GND*%
X156200000Y-113330000D03*
%TO.N,unconnected-(J5-SWO{slash}TDO-Pad6)*%
X156200000Y-114600000D03*
%TO.N,unconnected-(J5-KEY-Pad7)*%
X154930000Y-113330000D03*
%TO.N,unconnected-(J5-NC{slash}TDI-Pad8)*%
X154930000Y-114600000D03*
%TO.N,GND*%
X153660000Y-113330000D03*
%TO.N,RESET*%
X153660000Y-114600000D03*
%TD*%
D12*
%TO.N,GND*%
%TO.C,J4*%
X134450000Y-107300000D03*
D13*
%TO.N,VCC*%
X134450000Y-109300000D03*
%TD*%
D14*
%TO.N,GND*%
%TO.C,U4*%
X144832353Y-100229412D03*
X145832353Y-100229412D03*
X146832353Y-100229412D03*
X144832353Y-99229412D03*
X145832353Y-99229412D03*
X146832353Y-99229412D03*
X144832353Y-98229412D03*
X145832353Y-98229412D03*
X146832353Y-98229412D03*
%TD*%
D15*
%TO.N,SCL2*%
%TO.C,J3*%
X159500000Y-84300000D03*
D16*
%TO.N,SDA2*%
X157500000Y-84300000D03*
%TO.N,unconnected-(J3-Pad3)*%
X155500000Y-84300000D03*
%TO.N,GND*%
X153500000Y-84300000D03*
%TD*%
D12*
%TO.N,MOTOR_A1*%
%TO.C,J2*%
X134432353Y-96229412D03*
D13*
%TO.N,MOTOR_B1*%
X134432353Y-98229412D03*
%TO.N,MOTOR_A2*%
X134432353Y-100229412D03*
%TO.N,MOTOR_B2*%
X134432353Y-102229412D03*
%TD*%
D17*
%TO.N,Net-(J1-SHIELD)*%
%TO.C,J1*%
X147820000Y-86425000D03*
D18*
X147820000Y-82225000D03*
D17*
X139180000Y-86425000D03*
D18*
X139180000Y-82225000D03*
%TD*%
D19*
%TO.N,GND*%
X145400000Y-93800000D03*
%TO.N,+3.3V*%
X150800000Y-116200000D03*
%TO.N,RESET*%
X149800000Y-115100000D03*
%TO.N,GND*%
X152000500Y-110500000D03*
%TO.N,AUX2*%
X151800000Y-88600000D03*
X164800000Y-101400000D03*
D20*
%TO.N,AUX1*%
X164000000Y-102500000D03*
X159600000Y-92900000D03*
D19*
%TO.N,+3.3V*%
X140900000Y-115100000D03*
X149300000Y-104000000D03*
X161200000Y-109000000D03*
D20*
X164300000Y-93100000D03*
D19*
X160500000Y-101000000D03*
D20*
X151600000Y-108600000D03*
D19*
X151900000Y-104900000D03*
X155300000Y-111700000D03*
X161200000Y-91000000D03*
D20*
X146600000Y-106700000D03*
D19*
X147400000Y-93900000D03*
X141900000Y-115100000D03*
D20*
X130400000Y-90700000D03*
D19*
X141400000Y-115800000D03*
X140400000Y-115800000D03*
X147982353Y-97029412D03*
%TO.N,GND*%
X148900000Y-105100000D03*
X137900000Y-102500000D03*
X160000000Y-105500000D03*
X150400000Y-83800000D03*
X141700000Y-90400000D03*
X143700000Y-116000000D03*
X137900000Y-106300000D03*
X152000000Y-102100000D03*
X139400000Y-107000000D03*
X138400000Y-107000000D03*
X137100000Y-102500000D03*
X138700000Y-102500000D03*
X158400000Y-108400000D03*
X139100000Y-90000000D03*
X144800000Y-116000000D03*
X137082353Y-95929412D03*
D20*
X160100000Y-87500000D03*
D19*
X137882353Y-95929412D03*
X139100000Y-90800000D03*
X148400000Y-92900000D03*
X136782353Y-94429412D03*
X136800000Y-104000000D03*
X136782353Y-95229412D03*
X138682353Y-95929412D03*
X138900000Y-106300000D03*
X136800000Y-103200000D03*
X136900000Y-106300000D03*
X159800000Y-101700000D03*
X137400000Y-107000000D03*
X146200000Y-119000000D03*
X144200000Y-115300000D03*
%TO.N,VCC*%
X142200000Y-106600000D03*
X142200000Y-105700000D03*
X143200000Y-94100000D03*
X143900000Y-92900000D03*
X143100000Y-106600000D03*
X143000000Y-105700000D03*
X143200000Y-93300000D03*
X142182353Y-104829412D03*
X143200000Y-92500000D03*
X142982353Y-104829412D03*
X143900000Y-93700000D03*
X147300000Y-105100000D03*
%TO.N,RESET*%
X150595925Y-98073707D03*
D20*
%TO.N,V_USB*%
X146400000Y-88700000D03*
D19*
X140400000Y-88700000D03*
%TO.N,NEOPIX*%
X136900000Y-90700000D03*
X152100000Y-89949500D03*
D21*
%TO.N,MOTOR_A1*%
X143132353Y-95979412D03*
X143632353Y-96229412D03*
X143632353Y-96729412D03*
X143132353Y-96479412D03*
%TO.N,MOTOR_B2*%
X143132353Y-102479412D03*
X143132353Y-101979412D03*
X143632353Y-102229412D03*
X143632353Y-101729412D03*
D19*
%TO.N,UART_RX*%
X153000000Y-90300000D03*
X149246657Y-97649500D03*
D20*
%TO.N,User_Input*%
X157400000Y-91899500D03*
X150700000Y-108100000D03*
D19*
%TO.N,SCL1*%
X158900000Y-98600000D03*
%TO.N,SDA1*%
X160500000Y-99500000D03*
D20*
%TO.N,EEPROM_CS*%
X158980252Y-91480252D03*
D19*
X166900000Y-100900000D03*
%TO.N,EN*%
X159000000Y-105700000D03*
X151800000Y-105900000D03*
%TO.N,DIAG*%
X148600000Y-90300000D03*
X150700500Y-102200000D03*
%TO.N,MISO*%
X165700000Y-95700000D03*
X159137932Y-110225597D03*
%TO.N,SCK*%
X155050000Y-108450000D03*
X165500000Y-97100000D03*
%TO.N,MOSI*%
X165700000Y-94400000D03*
X156300000Y-108775498D03*
%TO.N,Spread*%
X151600000Y-91900000D03*
X147900000Y-102490500D03*
%TO.N,MOT_M1*%
X150700500Y-103194625D03*
X153699500Y-102400000D03*
%TO.N,MOT_M0*%
X153900000Y-104300000D03*
X150700000Y-104300000D03*
%TD*%
D22*
%TO.N,VCC*%
X147029412Y-104829412D02*
X143870588Y-104829412D01*
X147300000Y-105100000D02*
X147029412Y-104829412D01*
X143870588Y-104829412D02*
X143100000Y-105600000D01*
%TD*%
%TA.AperFunction,Conductor*%
%TO.N,VCC*%
G36*
X144125392Y-91749097D02*
G01*
X144171147Y-91801901D01*
X144182353Y-91853412D01*
X144182353Y-93905412D01*
X144162668Y-93972451D01*
X144109864Y-94018206D01*
X144058353Y-94029412D01*
X142782353Y-94029412D01*
X142782353Y-95699310D01*
X142768838Y-95755604D01*
X142722632Y-95846288D01*
X142701549Y-95979409D01*
X142701549Y-95979414D01*
X142722632Y-96112535D01*
X142722633Y-96112538D01*
X142753500Y-96173117D01*
X142766396Y-96241786D01*
X142753501Y-96285703D01*
X142722633Y-96346288D01*
X142701549Y-96479409D01*
X142701549Y-96479414D01*
X142722632Y-96612535D01*
X142768838Y-96703218D01*
X142782353Y-96759513D01*
X142782353Y-101699310D01*
X142768838Y-101755604D01*
X142722632Y-101846288D01*
X142701549Y-101979409D01*
X142701549Y-101979414D01*
X142722632Y-102112534D01*
X142753501Y-102173119D01*
X142766396Y-102241788D01*
X142753501Y-102285705D01*
X142722632Y-102346289D01*
X142701549Y-102479409D01*
X142701549Y-102479414D01*
X142722632Y-102612533D01*
X142722633Y-102612536D01*
X142722634Y-102612538D01*
X142783825Y-102732632D01*
X142784483Y-102733923D01*
X142786883Y-102737718D01*
X145082329Y-106946034D01*
X145097150Y-107014314D01*
X145072704Y-107079767D01*
X145016751Y-107121613D01*
X144973470Y-107129412D01*
X140706353Y-107129412D01*
X140639314Y-107109727D01*
X140593559Y-107056923D01*
X140582353Y-107005412D01*
X140582353Y-94479410D01*
X140602038Y-94412371D01*
X140617033Y-94393398D01*
X141022390Y-93972451D01*
X143145771Y-91767400D01*
X143206453Y-91732765D01*
X143235092Y-91729412D01*
X144058353Y-91729412D01*
X144125392Y-91749097D01*
G37*
%TD.AperFunction*%
%TD*%
%TA.AperFunction,Conductor*%
%TO.N,+3.3V*%
G36*
X165717445Y-79009493D02*
G01*
X165958385Y-79020013D01*
X165963320Y-79020427D01*
X166193261Y-79049089D01*
X166421921Y-79079193D01*
X166426490Y-79079972D01*
X166655391Y-79127968D01*
X166793210Y-79158522D01*
X166878677Y-79177470D01*
X166882939Y-79178575D01*
X167107969Y-79245569D01*
X167325459Y-79314144D01*
X167329305Y-79315498D01*
X167548675Y-79401097D01*
X167758977Y-79488208D01*
X167762437Y-79489768D01*
X167974350Y-79593365D01*
X168176129Y-79698405D01*
X168179238Y-79700139D01*
X168285211Y-79763284D01*
X168382116Y-79821027D01*
X168573954Y-79943242D01*
X168576669Y-79945074D01*
X168769063Y-80082440D01*
X168949600Y-80220971D01*
X168951872Y-80222805D01*
X169132397Y-80375701D01*
X169132415Y-80375716D01*
X169301239Y-80530416D01*
X169469583Y-80698760D01*
X169624281Y-80867582D01*
X169777186Y-81048117D01*
X169779044Y-81050421D01*
X169917559Y-81230937D01*
X169947426Y-81272768D01*
X170054924Y-81423329D01*
X170056755Y-81426043D01*
X170102004Y-81497068D01*
X170156098Y-81581979D01*
X170178973Y-81617884D01*
X170299859Y-81820760D01*
X170301593Y-81823868D01*
X170406634Y-82025649D01*
X170407601Y-82027627D01*
X170510220Y-82237539D01*
X170511800Y-82241043D01*
X170598915Y-82451357D01*
X170684487Y-82670659D01*
X170685859Y-82674553D01*
X170754426Y-82892017D01*
X170821420Y-83117049D01*
X170822528Y-83121321D01*
X170872038Y-83344640D01*
X170920022Y-83573488D01*
X170920811Y-83578120D01*
X170950917Y-83806795D01*
X170979569Y-84036662D01*
X170979986Y-84041629D01*
X170990505Y-84282545D01*
X170999500Y-84500001D01*
X170999500Y-115499999D01*
X170990505Y-115717454D01*
X170979986Y-115958369D01*
X170979569Y-115963336D01*
X170950917Y-116193204D01*
X170920811Y-116421878D01*
X170920022Y-116426510D01*
X170872038Y-116655359D01*
X170822528Y-116878677D01*
X170821420Y-116882949D01*
X170754426Y-117107982D01*
X170685859Y-117325445D01*
X170684487Y-117329339D01*
X170598915Y-117548642D01*
X170511800Y-117758955D01*
X170510220Y-117762459D01*
X170406638Y-117974342D01*
X170301592Y-118176130D01*
X170299859Y-118179238D01*
X170178973Y-118382115D01*
X170056755Y-118573955D01*
X170054924Y-118576668D01*
X169917565Y-118769055D01*
X169779044Y-118949577D01*
X169777168Y-118951904D01*
X169624283Y-119132414D01*
X169469583Y-119301239D01*
X169301239Y-119469583D01*
X169132414Y-119624283D01*
X168951904Y-119777168D01*
X168949577Y-119779044D01*
X168769055Y-119917565D01*
X168576668Y-120054924D01*
X168573955Y-120056755D01*
X168382115Y-120178973D01*
X168179238Y-120299859D01*
X168176130Y-120301592D01*
X167974342Y-120406638D01*
X167762459Y-120510220D01*
X167758955Y-120511800D01*
X167548642Y-120598915D01*
X167329339Y-120684487D01*
X167325445Y-120685859D01*
X167107982Y-120754426D01*
X166882949Y-120821420D01*
X166878677Y-120822528D01*
X166655359Y-120872038D01*
X166426510Y-120920022D01*
X166421878Y-120920811D01*
X166193204Y-120950917D01*
X165963336Y-120979569D01*
X165958369Y-120979986D01*
X165717454Y-120990505D01*
X165499999Y-120999500D01*
X134500001Y-120999500D01*
X134282545Y-120990505D01*
X134041629Y-120979986D01*
X134036662Y-120979569D01*
X133806795Y-120950917D01*
X133578120Y-120920811D01*
X133573488Y-120920022D01*
X133344640Y-120872038D01*
X133121321Y-120822528D01*
X133117049Y-120821420D01*
X132892017Y-120754426D01*
X132674553Y-120685859D01*
X132670659Y-120684487D01*
X132451357Y-120598915D01*
X132241043Y-120511800D01*
X132237539Y-120510220D01*
X132105816Y-120445825D01*
X132025654Y-120406636D01*
X131823866Y-120301592D01*
X131820760Y-120299859D01*
X131657629Y-120202655D01*
X131617883Y-120178972D01*
X131560627Y-120142495D01*
X131426043Y-120056755D01*
X131423329Y-120054924D01*
X131293067Y-119961919D01*
X131230944Y-119917564D01*
X131154486Y-119858897D01*
X131050421Y-119779044D01*
X131048117Y-119777186D01*
X130867582Y-119624281D01*
X130698760Y-119469583D01*
X130530416Y-119301239D01*
X130375716Y-119132415D01*
X130375715Y-119132414D01*
X130263567Y-119000000D01*
X145644750Y-119000000D01*
X145663670Y-119143708D01*
X145663671Y-119143712D01*
X145719137Y-119277622D01*
X145719138Y-119277624D01*
X145719139Y-119277625D01*
X145807379Y-119392621D01*
X145922375Y-119480861D01*
X146056291Y-119536330D01*
X146183280Y-119553048D01*
X146199999Y-119555250D01*
X146200000Y-119555250D01*
X146200001Y-119555250D01*
X146214977Y-119553278D01*
X146343709Y-119536330D01*
X146477625Y-119480861D01*
X146592621Y-119392621D01*
X146680861Y-119277625D01*
X146736330Y-119143709D01*
X146755250Y-119000000D01*
X146736330Y-118856291D01*
X146699350Y-118767013D01*
X146680862Y-118722377D01*
X146680861Y-118722376D01*
X146680861Y-118722375D01*
X146592621Y-118607379D01*
X146477625Y-118519139D01*
X146477624Y-118519138D01*
X146477622Y-118519137D01*
X146343712Y-118463671D01*
X146343710Y-118463670D01*
X146343709Y-118463670D01*
X146271854Y-118454210D01*
X146200001Y-118444750D01*
X146199999Y-118444750D01*
X146056291Y-118463670D01*
X146056287Y-118463671D01*
X145922377Y-118519137D01*
X145807379Y-118607379D01*
X145719137Y-118722377D01*
X145663671Y-118856287D01*
X145663670Y-118856291D01*
X145644750Y-118999999D01*
X145644750Y-119000000D01*
X130263567Y-119000000D01*
X130222805Y-118951872D01*
X130220971Y-118949600D01*
X130082440Y-118769063D01*
X129955123Y-118590744D01*
X129945074Y-118576669D01*
X129943242Y-118573954D01*
X129821027Y-118382115D01*
X129719118Y-118211090D01*
X129700139Y-118179238D01*
X129698405Y-118176129D01*
X129593365Y-117974350D01*
X129489768Y-117762437D01*
X129488208Y-117758977D01*
X129401097Y-117548675D01*
X129315498Y-117329305D01*
X129314144Y-117325459D01*
X129245564Y-117107951D01*
X129178578Y-116882949D01*
X129177470Y-116878677D01*
X129127961Y-116655359D01*
X129122592Y-116629752D01*
X129079972Y-116426490D01*
X129079193Y-116421921D01*
X129049082Y-116193204D01*
X129020427Y-115963320D01*
X129020013Y-115958385D01*
X129009491Y-115717381D01*
X129008125Y-115684371D01*
X131099500Y-115684371D01*
X131139367Y-116050946D01*
X131218635Y-116411065D01*
X131260842Y-116536329D01*
X131336375Y-116760503D01*
X131336377Y-116760508D01*
X131336379Y-116760513D01*
X131491200Y-117095153D01*
X131491202Y-117095157D01*
X131491204Y-117095161D01*
X131491205Y-117095162D01*
X131681310Y-117411119D01*
X131869261Y-117658364D01*
X131904461Y-117704669D01*
X131955904Y-117758977D01*
X132158044Y-117972373D01*
X132439083Y-118211090D01*
X132744284Y-118418022D01*
X132744288Y-118418024D01*
X132744291Y-118418026D01*
X132794698Y-118444750D01*
X133070070Y-118590743D01*
X133412621Y-118727227D01*
X133412627Y-118727228D01*
X133412628Y-118727229D01*
X133412634Y-118727231D01*
X133688226Y-118803748D01*
X133767919Y-118825875D01*
X133767930Y-118825876D01*
X133767931Y-118825877D01*
X134131786Y-118885529D01*
X134131790Y-118885529D01*
X134131801Y-118885531D01*
X134407890Y-118900500D01*
X134407892Y-118900500D01*
X134592108Y-118900500D01*
X134592110Y-118900500D01*
X134868199Y-118885531D01*
X134868210Y-118885529D01*
X134868213Y-118885529D01*
X135120077Y-118844237D01*
X135232081Y-118825875D01*
X135587379Y-118727227D01*
X135929930Y-118590743D01*
X136255716Y-118418022D01*
X136560917Y-118211090D01*
X136841956Y-117972373D01*
X137095538Y-117704670D01*
X137318690Y-117411119D01*
X137508795Y-117095162D01*
X137663625Y-116760503D01*
X137781364Y-116411066D01*
X137860632Y-116050948D01*
X137866173Y-116000000D01*
X143144750Y-116000000D01*
X143163670Y-116143708D01*
X143163671Y-116143712D01*
X143219137Y-116277622D01*
X143219138Y-116277624D01*
X143219139Y-116277625D01*
X143307379Y-116392621D01*
X143422375Y-116480861D01*
X143556291Y-116536330D01*
X143683280Y-116553048D01*
X143699999Y-116555250D01*
X143700000Y-116555250D01*
X143700001Y-116555250D01*
X143714977Y-116553278D01*
X143843709Y-116536330D01*
X143977625Y-116480861D01*
X144092621Y-116392621D01*
X144151626Y-116315724D01*
X144208052Y-116274524D01*
X144277798Y-116270369D01*
X144338719Y-116304582D01*
X144348367Y-116315716D01*
X144407379Y-116392621D01*
X144522375Y-116480861D01*
X144656291Y-116536330D01*
X144783280Y-116553048D01*
X144799999Y-116555250D01*
X144800000Y-116555250D01*
X144800001Y-116555250D01*
X144814977Y-116553278D01*
X144943709Y-116536330D01*
X145077625Y-116480861D01*
X145192621Y-116392621D01*
X145280861Y-116277625D01*
X145336330Y-116143709D01*
X145355250Y-116000000D01*
X145336330Y-115856291D01*
X145280861Y-115722375D01*
X145251699Y-115684371D01*
X162099500Y-115684371D01*
X162139367Y-116050946D01*
X162218635Y-116411065D01*
X162260842Y-116536329D01*
X162336375Y-116760503D01*
X162336377Y-116760508D01*
X162336379Y-116760513D01*
X162491200Y-117095153D01*
X162491202Y-117095157D01*
X162491204Y-117095161D01*
X162491205Y-117095162D01*
X162681310Y-117411119D01*
X162869261Y-117658364D01*
X162904461Y-117704669D01*
X162955904Y-117758977D01*
X163158044Y-117972373D01*
X163439083Y-118211090D01*
X163744284Y-118418022D01*
X163744288Y-118418024D01*
X163744291Y-118418026D01*
X163794698Y-118444750D01*
X164070070Y-118590743D01*
X164412621Y-118727227D01*
X164412627Y-118727228D01*
X164412628Y-118727229D01*
X164412634Y-118727231D01*
X164688226Y-118803748D01*
X164767919Y-118825875D01*
X164767930Y-118825876D01*
X164767931Y-118825877D01*
X165131786Y-118885529D01*
X165131790Y-118885529D01*
X165131801Y-118885531D01*
X165407890Y-118900500D01*
X165407892Y-118900500D01*
X165592108Y-118900500D01*
X165592110Y-118900500D01*
X165868199Y-118885531D01*
X165868210Y-118885529D01*
X165868213Y-118885529D01*
X166120077Y-118844237D01*
X166232081Y-118825875D01*
X166587379Y-118727227D01*
X166929930Y-118590743D01*
X167255716Y-118418022D01*
X167560917Y-118211090D01*
X167841956Y-117972373D01*
X168095538Y-117704670D01*
X168318690Y-117411119D01*
X168508795Y-117095162D01*
X168663625Y-116760503D01*
X168781364Y-116411066D01*
X168860632Y-116050948D01*
X168900500Y-115684370D01*
X168900500Y-115315630D01*
X168860632Y-114949052D01*
X168781364Y-114588934D01*
X168663625Y-114239497D01*
X168613925Y-114132072D01*
X168508799Y-113904846D01*
X168508797Y-113904842D01*
X168489148Y-113872185D01*
X168318690Y-113588881D01*
X168095538Y-113295330D01*
X167841956Y-113027627D01*
X167815318Y-113005000D01*
X167560916Y-112788909D01*
X167345169Y-112642629D01*
X167255716Y-112581978D01*
X167255713Y-112581976D01*
X167255708Y-112581973D01*
X166929938Y-112409261D01*
X166929926Y-112409255D01*
X166587371Y-112272770D01*
X166587365Y-112272768D01*
X166232094Y-112174128D01*
X166232068Y-112174122D01*
X165868213Y-112114470D01*
X165868200Y-112114469D01*
X165868199Y-112114469D01*
X165592110Y-112099500D01*
X165407890Y-112099500D01*
X165131801Y-112114469D01*
X165131799Y-112114469D01*
X165131786Y-112114470D01*
X164767931Y-112174122D01*
X164767905Y-112174128D01*
X164412634Y-112272768D01*
X164412628Y-112272770D01*
X164070073Y-112409255D01*
X164070061Y-112409261D01*
X163744291Y-112581973D01*
X163744282Y-112581979D01*
X163439083Y-112788909D01*
X163158044Y-113027626D01*
X162904462Y-113295330D01*
X162904461Y-113295330D01*
X162757685Y-113488410D01*
X162681310Y-113588881D01*
X162681309Y-113588883D01*
X162491202Y-113904842D01*
X162491200Y-113904846D01*
X162336379Y-114239486D01*
X162336376Y-114239494D01*
X162336375Y-114239497D01*
X162317324Y-114296039D01*
X162218635Y-114588934D01*
X162139367Y-114949053D01*
X162099500Y-115315628D01*
X162099500Y-115684371D01*
X145251699Y-115684371D01*
X145192621Y-115607379D01*
X145077625Y-115519139D01*
X145077624Y-115519138D01*
X145077622Y-115519137D01*
X144943712Y-115463671D01*
X144943710Y-115463670D01*
X144943709Y-115463670D01*
X144860217Y-115452677D01*
X144796322Y-115424411D01*
X144757851Y-115366087D01*
X144753465Y-115313554D01*
X144755250Y-115300000D01*
X144736330Y-115156291D01*
X144713014Y-115100000D01*
X149244750Y-115100000D01*
X149252160Y-115156287D01*
X149263670Y-115243708D01*
X149263671Y-115243712D01*
X149319137Y-115377622D01*
X149319138Y-115377624D01*
X149319139Y-115377625D01*
X149407379Y-115492621D01*
X149522375Y-115580861D01*
X149656291Y-115636330D01*
X149783280Y-115653048D01*
X149799999Y-115655250D01*
X149800000Y-115655250D01*
X149800001Y-115655250D01*
X149814977Y-115653278D01*
X149943709Y-115636330D01*
X150077625Y-115580861D01*
X150192621Y-115492621D01*
X150280861Y-115377625D01*
X150336330Y-115243709D01*
X150355250Y-115100000D01*
X150336330Y-114956291D01*
X150280861Y-114822375D01*
X150192621Y-114707379D01*
X150077625Y-114619139D01*
X150077624Y-114619138D01*
X150077622Y-114619137D01*
X150031418Y-114599999D01*
X152954355Y-114599999D01*
X152974859Y-114768869D01*
X152974860Y-114768874D01*
X153035182Y-114927931D01*
X153054758Y-114956291D01*
X153131817Y-115067929D01*
X153237505Y-115161560D01*
X153259150Y-115180736D01*
X153379141Y-115243712D01*
X153409775Y-115259790D01*
X153574944Y-115300500D01*
X153745056Y-115300500D01*
X153910225Y-115259790D01*
X153989692Y-115218081D01*
X154060849Y-115180736D01*
X154060850Y-115180734D01*
X154060852Y-115180734D01*
X154188183Y-115067929D01*
X154192950Y-115061021D01*
X154247230Y-115017033D01*
X154316678Y-115009372D01*
X154379244Y-115040473D01*
X154397046Y-115061017D01*
X154401817Y-115067929D01*
X154438017Y-115099999D01*
X154529150Y-115180736D01*
X154649141Y-115243712D01*
X154679775Y-115259790D01*
X154844944Y-115300500D01*
X155015056Y-115300500D01*
X155180225Y-115259790D01*
X155259692Y-115218081D01*
X155330849Y-115180736D01*
X155330850Y-115180734D01*
X155330852Y-115180734D01*
X155458183Y-115067929D01*
X155462950Y-115061021D01*
X155517230Y-115017033D01*
X155586678Y-115009372D01*
X155649244Y-115040473D01*
X155667046Y-115061017D01*
X155671817Y-115067929D01*
X155708017Y-115099999D01*
X155799150Y-115180736D01*
X155919141Y-115243712D01*
X155949775Y-115259790D01*
X156114944Y-115300500D01*
X156285056Y-115300500D01*
X156450225Y-115259790D01*
X156529692Y-115218081D01*
X156600849Y-115180736D01*
X156600850Y-115180734D01*
X156600852Y-115180734D01*
X156728183Y-115067929D01*
X156732950Y-115061021D01*
X156787230Y-115017033D01*
X156856678Y-115009372D01*
X156919244Y-115040473D01*
X156937046Y-115061017D01*
X156941817Y-115067929D01*
X156978017Y-115099999D01*
X157069150Y-115180736D01*
X157189141Y-115243712D01*
X157219775Y-115259790D01*
X157384944Y-115300500D01*
X157555056Y-115300500D01*
X157720225Y-115259790D01*
X157799692Y-115218081D01*
X157870849Y-115180736D01*
X157870850Y-115180734D01*
X157870852Y-115180734D01*
X157998183Y-115067929D01*
X158002950Y-115061021D01*
X158057230Y-115017033D01*
X158126678Y-115009372D01*
X158189244Y-115040473D01*
X158207046Y-115061017D01*
X158211817Y-115067929D01*
X158248017Y-115099999D01*
X158339150Y-115180736D01*
X158459141Y-115243712D01*
X158489775Y-115259790D01*
X158654944Y-115300500D01*
X158825056Y-115300500D01*
X158990225Y-115259790D01*
X159069692Y-115218081D01*
X159140849Y-115180736D01*
X159140850Y-115180734D01*
X159140852Y-115180734D01*
X159268183Y-115067929D01*
X159364818Y-114927930D01*
X159425140Y-114768872D01*
X159445645Y-114600000D01*
X159425140Y-114431128D01*
X159423653Y-114427209D01*
X159423417Y-114424139D01*
X159423345Y-114423846D01*
X159423393Y-114423833D01*
X159418284Y-114357547D01*
X159451429Y-114296039D01*
X159480175Y-114274398D01*
X159482093Y-114273350D01*
X159597187Y-114187190D01*
X159597190Y-114187187D01*
X159683350Y-114072093D01*
X159683354Y-114072086D01*
X159733596Y-113937379D01*
X159733598Y-113937372D01*
X159739999Y-113877844D01*
X159740000Y-113877827D01*
X159740000Y-113580000D01*
X158954483Y-113580000D01*
X159025801Y-113495007D01*
X159065000Y-113387306D01*
X159065000Y-113272694D01*
X159025801Y-113164993D01*
X158952129Y-113077195D01*
X158852871Y-113019888D01*
X158768436Y-113005000D01*
X158711564Y-113005000D01*
X158627129Y-113019888D01*
X158527871Y-113077195D01*
X158490000Y-113122327D01*
X158490000Y-112330000D01*
X158990000Y-112330000D01*
X158990000Y-113080000D01*
X159740000Y-113080000D01*
X159740000Y-112782172D01*
X159739999Y-112782155D01*
X159733598Y-112722627D01*
X159733596Y-112722620D01*
X159683354Y-112587913D01*
X159683350Y-112587906D01*
X159597190Y-112472812D01*
X159597187Y-112472809D01*
X159482093Y-112386649D01*
X159482086Y-112386645D01*
X159347379Y-112336403D01*
X159347372Y-112336401D01*
X159287844Y-112330000D01*
X158990000Y-112330000D01*
X158490000Y-112330000D01*
X158192155Y-112330000D01*
X158132627Y-112336401D01*
X158132620Y-112336403D01*
X157997913Y-112386645D01*
X157997906Y-112386649D01*
X157882812Y-112472809D01*
X157882809Y-112472812D01*
X157796647Y-112587909D01*
X157793744Y-112593226D01*
X157744337Y-112642629D01*
X157676064Y-112657479D01*
X157655240Y-112654192D01*
X157555057Y-112629500D01*
X157555056Y-112629500D01*
X157384944Y-112629500D01*
X157219773Y-112670210D01*
X157069150Y-112749263D01*
X156941815Y-112862072D01*
X156937049Y-112868978D01*
X156882766Y-112912968D01*
X156813317Y-112920627D01*
X156750753Y-112889523D01*
X156732951Y-112868978D01*
X156728184Y-112862072D01*
X156600849Y-112749263D01*
X156450226Y-112670210D01*
X156285056Y-112629500D01*
X156114944Y-112629500D01*
X155949773Y-112670210D01*
X155799150Y-112749263D01*
X155671815Y-112862072D01*
X155667049Y-112868978D01*
X155612766Y-112912968D01*
X155543317Y-112920627D01*
X155480753Y-112889523D01*
X155462951Y-112868978D01*
X155458184Y-112862072D01*
X155330849Y-112749263D01*
X155180226Y-112670210D01*
X155015056Y-112629500D01*
X154844944Y-112629500D01*
X154679773Y-112670210D01*
X154529150Y-112749263D01*
X154401815Y-112862072D01*
X154397045Y-112868983D01*
X154342759Y-112912970D01*
X154273310Y-112920625D01*
X154210747Y-112889518D01*
X154192951Y-112868979D01*
X154188183Y-112862071D01*
X154105600Y-112788909D01*
X154060849Y-112749263D01*
X153910226Y-112670210D01*
X153745056Y-112629500D01*
X153574944Y-112629500D01*
X153409773Y-112670210D01*
X153259150Y-112749263D01*
X153131816Y-112862072D01*
X153035182Y-113002068D01*
X152974860Y-113161125D01*
X152974859Y-113161130D01*
X152954355Y-113329999D01*
X152974859Y-113498869D01*
X152974860Y-113498874D01*
X153035182Y-113657931D01*
X153131818Y-113797930D01*
X153215634Y-113872185D01*
X153252761Y-113931374D01*
X153251993Y-114001240D01*
X153215634Y-114057815D01*
X153131818Y-114132069D01*
X153035182Y-114272068D01*
X152974860Y-114431125D01*
X152974859Y-114431130D01*
X152954355Y-114599999D01*
X150031418Y-114599999D01*
X149943712Y-114563671D01*
X149943710Y-114563670D01*
X149943709Y-114563670D01*
X149871854Y-114554210D01*
X149800001Y-114544750D01*
X149799999Y-114544750D01*
X149656291Y-114563670D01*
X149656287Y-114563671D01*
X149522377Y-114619137D01*
X149407379Y-114707379D01*
X149319137Y-114822377D01*
X149263671Y-114956287D01*
X149263670Y-114956291D01*
X149248973Y-115067927D01*
X149244750Y-115100000D01*
X144713014Y-115100000D01*
X144680861Y-115022375D01*
X144592621Y-114907379D01*
X144477625Y-114819139D01*
X144477624Y-114819138D01*
X144477622Y-114819137D01*
X144343712Y-114763671D01*
X144343710Y-114763670D01*
X144343709Y-114763670D01*
X144271854Y-114754210D01*
X144200001Y-114744750D01*
X144199999Y-114744750D01*
X144056291Y-114763670D01*
X144056287Y-114763671D01*
X143922377Y-114819137D01*
X143807379Y-114907379D01*
X143719137Y-115022377D01*
X143663671Y-115156287D01*
X143663670Y-115156291D01*
X143644750Y-115299999D01*
X143644750Y-115300000D01*
X143648355Y-115327382D01*
X143637590Y-115396417D01*
X143591210Y-115448673D01*
X143557521Y-115463340D01*
X143556292Y-115463669D01*
X143422377Y-115519137D01*
X143307379Y-115607379D01*
X143219137Y-115722377D01*
X143163671Y-115856287D01*
X143163670Y-115856291D01*
X143144750Y-115999999D01*
X143144750Y-116000000D01*
X137866173Y-116000000D01*
X137900500Y-115684370D01*
X137900500Y-115315630D01*
X137860632Y-114949052D01*
X137781364Y-114588934D01*
X137663625Y-114239497D01*
X137613925Y-114132072D01*
X137508799Y-113904846D01*
X137508797Y-113904842D01*
X137489148Y-113872185D01*
X137318690Y-113588881D01*
X137095538Y-113295330D01*
X136841956Y-113027627D01*
X136815318Y-113005000D01*
X136560916Y-112788909D01*
X136345169Y-112642629D01*
X136255716Y-112581978D01*
X136255713Y-112581976D01*
X136255708Y-112581973D01*
X135929938Y-112409261D01*
X135929926Y-112409255D01*
X135587371Y-112272770D01*
X135587365Y-112272768D01*
X135232094Y-112174128D01*
X135232068Y-112174122D01*
X134868213Y-112114470D01*
X134868200Y-112114469D01*
X134868199Y-112114469D01*
X134592110Y-112099500D01*
X134407890Y-112099500D01*
X134131801Y-112114469D01*
X134131799Y-112114469D01*
X134131786Y-112114470D01*
X133767931Y-112174122D01*
X133767905Y-112174128D01*
X133412634Y-112272768D01*
X133412628Y-112272770D01*
X133070073Y-112409255D01*
X133070061Y-112409261D01*
X132744291Y-112581973D01*
X132744282Y-112581979D01*
X132439083Y-112788909D01*
X132158044Y-113027626D01*
X131904462Y-113295330D01*
X131904461Y-113295330D01*
X131757685Y-113488410D01*
X131681310Y-113588881D01*
X131681309Y-113588883D01*
X131491202Y-113904842D01*
X131491200Y-113904846D01*
X131336379Y-114239486D01*
X131336376Y-114239494D01*
X131336375Y-114239497D01*
X131317324Y-114296039D01*
X131218635Y-114588934D01*
X131139367Y-114949053D01*
X131099500Y-115315628D01*
X131099500Y-115684371D01*
X129008125Y-115684371D01*
X129008125Y-115684364D01*
X129000500Y-115500000D01*
X129000500Y-115499500D01*
X129000500Y-110500000D01*
X151445250Y-110500000D01*
X151464170Y-110643708D01*
X151464171Y-110643712D01*
X151519637Y-110777622D01*
X151519638Y-110777624D01*
X151519639Y-110777625D01*
X151607879Y-110892621D01*
X151722875Y-110980861D01*
X151856791Y-111036330D01*
X151983780Y-111053048D01*
X152000499Y-111055250D01*
X152000500Y-111055250D01*
X152000501Y-111055250D01*
X152015477Y-111053278D01*
X152144209Y-111036330D01*
X152278125Y-110980861D01*
X152393121Y-110892621D01*
X152481361Y-110777625D01*
X152536830Y-110643709D01*
X152555750Y-110500000D01*
X152536830Y-110356291D01*
X152482696Y-110225597D01*
X158582682Y-110225597D01*
X158601602Y-110369305D01*
X158601603Y-110369309D01*
X158657069Y-110503219D01*
X158657070Y-110503221D01*
X158657071Y-110503222D01*
X158745311Y-110618218D01*
X158860307Y-110706458D01*
X158994223Y-110761927D01*
X159113459Y-110777625D01*
X159137931Y-110780847D01*
X159137932Y-110780847D01*
X159137933Y-110780847D01*
X159152909Y-110778875D01*
X159281641Y-110761927D01*
X159415557Y-110706458D01*
X159530553Y-110618218D01*
X159618793Y-110503222D01*
X159674262Y-110369306D01*
X159693182Y-110225597D01*
X159674262Y-110081888D01*
X159618793Y-109947972D01*
X159530553Y-109832976D01*
X159415557Y-109744736D01*
X159415556Y-109744735D01*
X159415554Y-109744734D01*
X159281644Y-109689268D01*
X159281642Y-109689267D01*
X159281641Y-109689267D01*
X159209786Y-109679807D01*
X159137933Y-109670347D01*
X159137931Y-109670347D01*
X158994223Y-109689267D01*
X158994219Y-109689268D01*
X158860309Y-109744734D01*
X158745311Y-109832976D01*
X158657069Y-109947974D01*
X158601603Y-110081884D01*
X158601602Y-110081888D01*
X158582682Y-110225596D01*
X158582682Y-110225597D01*
X152482696Y-110225597D01*
X152481361Y-110222375D01*
X152393121Y-110107379D01*
X152278125Y-110019139D01*
X152278124Y-110019138D01*
X152278122Y-110019137D01*
X152144212Y-109963671D01*
X152144210Y-109963670D01*
X152144209Y-109963670D01*
X152072354Y-109954210D01*
X152000501Y-109944750D01*
X152000499Y-109944750D01*
X151856791Y-109963670D01*
X151856787Y-109963671D01*
X151722877Y-110019137D01*
X151607879Y-110107379D01*
X151519637Y-110222377D01*
X151464171Y-110356287D01*
X151464170Y-110356291D01*
X151445250Y-110499999D01*
X151445250Y-110500000D01*
X129000500Y-110500000D01*
X129000500Y-109300003D01*
X133369435Y-109300003D01*
X133389630Y-109479249D01*
X133389631Y-109479254D01*
X133449211Y-109649523D01*
X133509038Y-109744736D01*
X133545184Y-109802262D01*
X133672738Y-109929816D01*
X133726618Y-109963671D01*
X133814894Y-110019139D01*
X133825478Y-110025789D01*
X133985788Y-110081884D01*
X133995745Y-110085368D01*
X133995750Y-110085369D01*
X134086246Y-110095565D01*
X134130040Y-110100499D01*
X134130043Y-110100500D01*
X134130046Y-110100500D01*
X134769957Y-110100500D01*
X134769958Y-110100499D01*
X134837104Y-110092934D01*
X134904249Y-110085369D01*
X134904252Y-110085368D01*
X134904255Y-110085368D01*
X135074522Y-110025789D01*
X135227262Y-109929816D01*
X135354816Y-109802262D01*
X135450789Y-109649522D01*
X135510368Y-109479255D01*
X135527101Y-109330748D01*
X135530565Y-109300003D01*
X135530565Y-109299996D01*
X135510369Y-109120750D01*
X135510368Y-109120745D01*
X135486705Y-109053120D01*
X135450789Y-108950478D01*
X135438463Y-108930862D01*
X135383017Y-108842620D01*
X135354816Y-108797738D01*
X135227262Y-108670184D01*
X135166157Y-108631789D01*
X135074523Y-108574211D01*
X134904254Y-108514631D01*
X134904249Y-108514630D01*
X134769960Y-108499500D01*
X134769954Y-108499500D01*
X134130046Y-108499500D01*
X134130039Y-108499500D01*
X133995750Y-108514630D01*
X133995745Y-108514631D01*
X133825476Y-108574211D01*
X133672737Y-108670184D01*
X133545184Y-108797737D01*
X133449211Y-108950476D01*
X133389631Y-109120745D01*
X133389630Y-109120750D01*
X133369435Y-109299996D01*
X133369435Y-109300003D01*
X129000500Y-109300003D01*
X129000500Y-107704269D01*
X133374500Y-107704269D01*
X133377353Y-107734699D01*
X133377353Y-107734701D01*
X133415862Y-107844750D01*
X133422207Y-107862882D01*
X133502850Y-107972150D01*
X133612118Y-108052793D01*
X133654845Y-108067744D01*
X133740299Y-108097646D01*
X133770730Y-108100500D01*
X133770734Y-108100500D01*
X135129270Y-108100500D01*
X135134590Y-108100001D01*
X150094318Y-108100001D01*
X150114955Y-108256760D01*
X150114956Y-108256762D01*
X150167194Y-108382877D01*
X150175464Y-108402841D01*
X150271718Y-108528282D01*
X150397159Y-108624536D01*
X150543238Y-108685044D01*
X150603739Y-108693009D01*
X150699999Y-108705682D01*
X150700000Y-108705682D01*
X150700001Y-108705682D01*
X150796261Y-108693009D01*
X150856762Y-108685044D01*
X151002841Y-108624536D01*
X151128282Y-108528282D01*
X151188350Y-108450000D01*
X154494750Y-108450000D01*
X154513670Y-108593708D01*
X154513671Y-108593712D01*
X154569137Y-108727622D01*
X154569138Y-108727624D01*
X154569139Y-108727625D01*
X154657379Y-108842621D01*
X154772375Y-108930861D01*
X154772376Y-108930861D01*
X154772377Y-108930862D01*
X154817013Y-108949350D01*
X154906291Y-108986330D01*
X155033280Y-109003048D01*
X155049999Y-109005250D01*
X155050000Y-109005250D01*
X155050001Y-109005250D01*
X155064977Y-109003278D01*
X155193709Y-108986330D01*
X155327625Y-108930861D01*
X155442621Y-108842621D01*
X155525807Y-108734211D01*
X155582234Y-108693009D01*
X155651980Y-108688854D01*
X155712900Y-108723066D01*
X155745653Y-108784784D01*
X155747121Y-108793512D01*
X155763670Y-108919205D01*
X155763671Y-108919210D01*
X155819137Y-109053120D01*
X155819138Y-109053122D01*
X155819139Y-109053123D01*
X155907379Y-109168119D01*
X156022375Y-109256359D01*
X156156291Y-109311828D01*
X156283280Y-109328546D01*
X156299999Y-109330748D01*
X156300000Y-109330748D01*
X156300001Y-109330748D01*
X156314977Y-109328776D01*
X156443709Y-109311828D01*
X156577625Y-109256359D01*
X156692621Y-109168119D01*
X156780861Y-109053123D01*
X156836330Y-108919207D01*
X156855250Y-108775498D01*
X156836330Y-108631789D01*
X156780861Y-108497873D01*
X156705760Y-108400000D01*
X157844750Y-108400000D01*
X157858235Y-108502430D01*
X157863670Y-108543708D01*
X157863671Y-108543712D01*
X157919137Y-108677622D01*
X157919138Y-108677624D01*
X157919139Y-108677625D01*
X158007379Y-108792621D01*
X158122375Y-108880861D01*
X158256291Y-108936330D01*
X158383280Y-108953048D01*
X158399999Y-108955250D01*
X158400000Y-108955250D01*
X158400001Y-108955250D01*
X158414977Y-108953278D01*
X158543709Y-108936330D01*
X158677625Y-108880861D01*
X158792621Y-108792621D01*
X158880861Y-108677625D01*
X158936330Y-108543709D01*
X158955250Y-108400000D01*
X158936330Y-108256291D01*
X158880861Y-108122375D01*
X158792621Y-108007379D01*
X158677625Y-107919139D01*
X158677624Y-107919138D01*
X158677622Y-107919137D01*
X158543712Y-107863671D01*
X158543710Y-107863670D01*
X158543709Y-107863670D01*
X158471854Y-107854210D01*
X158400001Y-107844750D01*
X158399999Y-107844750D01*
X158256291Y-107863670D01*
X158256287Y-107863671D01*
X158122377Y-107919137D01*
X158007379Y-108007379D01*
X157919137Y-108122377D01*
X157863671Y-108256287D01*
X157863670Y-108256291D01*
X157844750Y-108400000D01*
X156705760Y-108400000D01*
X156692621Y-108382877D01*
X156577625Y-108294637D01*
X156577624Y-108294636D01*
X156577622Y-108294635D01*
X156443712Y-108239169D01*
X156443710Y-108239168D01*
X156443709Y-108239168D01*
X156371854Y-108229708D01*
X156300001Y-108220248D01*
X156299999Y-108220248D01*
X156156291Y-108239168D01*
X156156287Y-108239169D01*
X156022377Y-108294635D01*
X155907376Y-108382879D01*
X155824192Y-108491286D01*
X155767764Y-108532489D01*
X155698018Y-108536643D01*
X155637098Y-108502430D01*
X155604345Y-108440712D01*
X155602878Y-108431985D01*
X155596413Y-108382879D01*
X155586330Y-108306291D01*
X155530861Y-108172375D01*
X155442621Y-108057379D01*
X155327625Y-107969139D01*
X155327624Y-107969138D01*
X155327622Y-107969137D01*
X155193712Y-107913671D01*
X155193710Y-107913670D01*
X155193709Y-107913670D01*
X155121854Y-107904210D01*
X155050001Y-107894750D01*
X155049999Y-107894750D01*
X154906291Y-107913670D01*
X154906287Y-107913671D01*
X154772377Y-107969137D01*
X154657379Y-108057379D01*
X154569137Y-108172377D01*
X154513671Y-108306287D01*
X154513670Y-108306291D01*
X154494750Y-108449999D01*
X154494750Y-108450000D01*
X151188350Y-108450000D01*
X151224536Y-108402841D01*
X151285044Y-108256762D01*
X151305682Y-108100000D01*
X151285044Y-107943238D01*
X151224536Y-107797159D01*
X151128282Y-107671718D01*
X151002841Y-107575464D01*
X150908358Y-107536328D01*
X150856762Y-107514956D01*
X150856760Y-107514955D01*
X150700001Y-107494318D01*
X150699999Y-107494318D01*
X150543239Y-107514955D01*
X150543237Y-107514956D01*
X150397160Y-107575463D01*
X150271718Y-107671718D01*
X150175463Y-107797160D01*
X150114956Y-107943237D01*
X150114955Y-107943239D01*
X150094318Y-108099998D01*
X150094318Y-108100001D01*
X135134590Y-108100001D01*
X135159699Y-108097646D01*
X135159701Y-108097646D01*
X135223790Y-108075219D01*
X135287882Y-108052793D01*
X135397150Y-107972150D01*
X135477793Y-107862882D01*
X135500790Y-107797159D01*
X135522646Y-107734701D01*
X135522646Y-107734699D01*
X135525500Y-107704269D01*
X135525500Y-106895730D01*
X135522646Y-106865300D01*
X135522646Y-106865298D01*
X135477793Y-106737119D01*
X135477792Y-106737117D01*
X135397150Y-106627850D01*
X135287882Y-106547207D01*
X135287880Y-106547206D01*
X135159700Y-106502353D01*
X135129270Y-106499500D01*
X135129266Y-106499500D01*
X133770734Y-106499500D01*
X133770730Y-106499500D01*
X133740300Y-106502353D01*
X133740298Y-106502353D01*
X133612119Y-106547206D01*
X133612117Y-106547207D01*
X133502850Y-106627850D01*
X133422207Y-106737117D01*
X133422206Y-106737119D01*
X133377353Y-106865298D01*
X133377353Y-106865300D01*
X133374500Y-106895730D01*
X133374500Y-107704269D01*
X129000500Y-107704269D01*
X129000500Y-106300000D01*
X136344750Y-106300000D01*
X136362698Y-106436329D01*
X136363670Y-106443708D01*
X136363671Y-106443712D01*
X136419137Y-106577622D01*
X136419138Y-106577624D01*
X136419139Y-106577625D01*
X136507379Y-106692621D01*
X136622375Y-106780861D01*
X136756291Y-106836330D01*
X136756295Y-106836330D01*
X136757499Y-106836653D01*
X136758408Y-106837207D01*
X136763799Y-106839440D01*
X136763450Y-106840280D01*
X136817162Y-106873013D01*
X136847697Y-106935857D01*
X136848355Y-106972612D01*
X136844749Y-106999999D01*
X136844750Y-107000000D01*
X136857995Y-107100607D01*
X136863670Y-107143708D01*
X136863671Y-107143712D01*
X136919137Y-107277622D01*
X136919138Y-107277624D01*
X136919139Y-107277625D01*
X137007379Y-107392621D01*
X137122375Y-107480861D01*
X137122376Y-107480861D01*
X137122377Y-107480862D01*
X137167013Y-107499350D01*
X137256291Y-107536330D01*
X137383280Y-107553048D01*
X137399999Y-107555250D01*
X137400000Y-107555250D01*
X137400001Y-107555250D01*
X137414977Y-107553278D01*
X137543709Y-107536330D01*
X137677625Y-107480861D01*
X137792621Y-107392621D01*
X137801625Y-107380886D01*
X137858050Y-107339685D01*
X137927796Y-107335529D01*
X137988717Y-107369740D01*
X137998367Y-107380876D01*
X138007379Y-107392621D01*
X138122375Y-107480861D01*
X138122376Y-107480861D01*
X138122377Y-107480862D01*
X138167013Y-107499350D01*
X138256291Y-107536330D01*
X138383280Y-107553048D01*
X138399999Y-107555250D01*
X138400000Y-107555250D01*
X138400001Y-107555250D01*
X138414977Y-107553278D01*
X138543709Y-107536330D01*
X138677625Y-107480861D01*
X138792621Y-107392621D01*
X138801625Y-107380886D01*
X138858050Y-107339685D01*
X138927796Y-107335529D01*
X138988717Y-107369740D01*
X138998367Y-107380876D01*
X139007379Y-107392621D01*
X139122375Y-107480861D01*
X139122376Y-107480861D01*
X139122377Y-107480862D01*
X139167013Y-107499350D01*
X139256291Y-107536330D01*
X139383280Y-107553048D01*
X139399999Y-107555250D01*
X139400000Y-107555250D01*
X139400001Y-107555250D01*
X139414977Y-107553278D01*
X139543709Y-107536330D01*
X139677625Y-107480861D01*
X139792621Y-107392621D01*
X139880861Y-107277625D01*
X139936330Y-107143709D01*
X139954537Y-107005419D01*
X140376853Y-107005419D01*
X140381550Y-107049098D01*
X140392755Y-107100605D01*
X140395242Y-107110782D01*
X140395243Y-107110785D01*
X140438253Y-107191497D01*
X140484008Y-107244301D01*
X140501599Y-107262255D01*
X140501600Y-107262256D01*
X140501602Y-107262257D01*
X140581412Y-107306900D01*
X140581416Y-107306902D01*
X140648455Y-107326587D01*
X140706353Y-107334912D01*
X140706357Y-107334912D01*
X144973472Y-107334912D01*
X145009913Y-107331655D01*
X145053194Y-107323856D01*
X145056236Y-107323284D01*
X145139827Y-107286180D01*
X145195780Y-107244334D01*
X145214954Y-107228075D01*
X145265215Y-107151668D01*
X145289661Y-107086215D01*
X145289662Y-107086209D01*
X145289664Y-107086206D01*
X145289664Y-107086207D01*
X145291860Y-107079007D01*
X145296999Y-107062174D01*
X145297973Y-106970723D01*
X145283152Y-106902443D01*
X145262737Y-106847630D01*
X144745847Y-105900000D01*
X151244750Y-105900000D01*
X151262698Y-106036329D01*
X151263670Y-106043708D01*
X151263671Y-106043712D01*
X151319137Y-106177622D01*
X151319138Y-106177624D01*
X151319139Y-106177625D01*
X151407379Y-106292621D01*
X151522375Y-106380861D01*
X151656291Y-106436330D01*
X151783280Y-106453048D01*
X151799999Y-106455250D01*
X151800000Y-106455250D01*
X151800001Y-106455250D01*
X151814977Y-106453278D01*
X151943709Y-106436330D01*
X152077625Y-106380861D01*
X152192621Y-106292621D01*
X152280861Y-106177625D01*
X152336330Y-106043709D01*
X152355250Y-105900000D01*
X152336330Y-105756291D01*
X152313014Y-105700000D01*
X158444750Y-105700000D01*
X158453132Y-105763670D01*
X158463670Y-105843708D01*
X158463671Y-105843712D01*
X158519137Y-105977622D01*
X158519138Y-105977623D01*
X158519139Y-105977625D01*
X158607379Y-106092621D01*
X158722375Y-106180861D01*
X158856291Y-106236330D01*
X158983280Y-106253048D01*
X158999999Y-106255250D01*
X159000000Y-106255250D01*
X159000001Y-106255250D01*
X159014977Y-106253278D01*
X159143709Y-106236330D01*
X159277625Y-106180861D01*
X159392621Y-106092621D01*
X159480861Y-105977625D01*
X159480863Y-105977617D01*
X159483012Y-105973898D01*
X159485651Y-105971381D01*
X159485808Y-105971177D01*
X159485839Y-105971201D01*
X159533577Y-105925680D01*
X159602183Y-105912454D01*
X159665888Y-105937517D01*
X159722375Y-105980861D01*
X159856291Y-106036330D01*
X159983280Y-106053048D01*
X159999999Y-106055250D01*
X160000000Y-106055250D01*
X160000001Y-106055250D01*
X160014977Y-106053278D01*
X160143709Y-106036330D01*
X160277625Y-105980861D01*
X160392621Y-105892621D01*
X160480861Y-105777625D01*
X160536330Y-105643709D01*
X160555250Y-105500000D01*
X160536330Y-105356291D01*
X160483522Y-105228799D01*
X160480862Y-105222377D01*
X160480861Y-105222376D01*
X160480861Y-105222375D01*
X160392621Y-105107379D01*
X160277625Y-105019139D01*
X160277624Y-105019138D01*
X160277622Y-105019137D01*
X160143712Y-104963671D01*
X160143710Y-104963670D01*
X160143709Y-104963670D01*
X160071854Y-104954210D01*
X160000001Y-104944750D01*
X159999999Y-104944750D01*
X159856291Y-104963670D01*
X159856287Y-104963671D01*
X159722377Y-105019137D01*
X159607379Y-105107379D01*
X159519134Y-105222381D01*
X159516980Y-105226113D01*
X159514340Y-105228629D01*
X159514192Y-105228823D01*
X159514161Y-105228799D01*
X159466410Y-105274325D01*
X159397802Y-105287544D01*
X159334111Y-105262482D01*
X159277625Y-105219139D01*
X159277623Y-105219138D01*
X159143712Y-105163671D01*
X159143710Y-105163670D01*
X159143709Y-105163670D01*
X159036816Y-105149597D01*
X159000001Y-105144750D01*
X158999999Y-105144750D01*
X158856291Y-105163670D01*
X158856287Y-105163671D01*
X158722377Y-105219137D01*
X158607379Y-105307379D01*
X158519137Y-105422377D01*
X158463671Y-105556287D01*
X158463670Y-105556291D01*
X158450642Y-105655250D01*
X158444750Y-105700000D01*
X152313014Y-105700000D01*
X152286641Y-105636329D01*
X152280862Y-105622377D01*
X152280861Y-105622376D01*
X152280861Y-105622375D01*
X152192621Y-105507379D01*
X152077625Y-105419139D01*
X152077624Y-105419138D01*
X152077622Y-105419137D01*
X151943712Y-105363671D01*
X151943710Y-105363670D01*
X151943709Y-105363670D01*
X151871854Y-105354210D01*
X151800001Y-105344750D01*
X151799999Y-105344750D01*
X151656291Y-105363670D01*
X151656287Y-105363671D01*
X151522377Y-105419137D01*
X151407379Y-105507379D01*
X151319137Y-105622377D01*
X151263671Y-105756287D01*
X151263670Y-105756291D01*
X151245722Y-105892620D01*
X151244750Y-105900000D01*
X144745847Y-105900000D01*
X144425822Y-105313288D01*
X144411002Y-105245010D01*
X144435448Y-105179557D01*
X144491401Y-105137711D01*
X144534682Y-105129912D01*
X146639944Y-105129912D01*
X146706983Y-105149597D01*
X146752738Y-105202401D01*
X146762881Y-105237722D01*
X146763670Y-105243709D01*
X146763670Y-105243711D01*
X146763671Y-105243712D01*
X146819137Y-105377622D01*
X146819138Y-105377624D01*
X146819139Y-105377625D01*
X146907379Y-105492621D01*
X147022375Y-105580861D01*
X147156291Y-105636330D01*
X147283280Y-105653048D01*
X147299999Y-105655250D01*
X147300000Y-105655250D01*
X147300001Y-105655250D01*
X147314977Y-105653278D01*
X147443709Y-105636330D01*
X147577625Y-105580861D01*
X147692621Y-105492621D01*
X147780861Y-105377625D01*
X147836330Y-105243709D01*
X147855250Y-105100000D01*
X148344750Y-105100000D01*
X148361353Y-105226113D01*
X148363670Y-105243708D01*
X148363671Y-105243712D01*
X148419137Y-105377622D01*
X148419138Y-105377624D01*
X148419139Y-105377625D01*
X148507379Y-105492621D01*
X148622375Y-105580861D01*
X148756291Y-105636330D01*
X148883280Y-105653048D01*
X148899999Y-105655250D01*
X148900000Y-105655250D01*
X148900001Y-105655250D01*
X148914977Y-105653278D01*
X149043709Y-105636330D01*
X149177625Y-105580861D01*
X149292621Y-105492621D01*
X149380861Y-105377625D01*
X149436330Y-105243709D01*
X149455250Y-105100000D01*
X149436330Y-104956291D01*
X149386641Y-104836329D01*
X149380862Y-104822377D01*
X149380861Y-104822376D01*
X149380861Y-104822375D01*
X149292621Y-104707379D01*
X149177625Y-104619139D01*
X149177624Y-104619138D01*
X149177622Y-104619137D01*
X149043712Y-104563671D01*
X149043710Y-104563670D01*
X149043709Y-104563670D01*
X148935677Y-104549447D01*
X148900001Y-104544750D01*
X148899999Y-104544750D01*
X148756291Y-104563670D01*
X148756287Y-104563671D01*
X148622377Y-104619137D01*
X148507379Y-104707379D01*
X148419137Y-104822377D01*
X148363671Y-104956287D01*
X148363670Y-104956291D01*
X148344750Y-105100000D01*
X147855250Y-105100000D01*
X147836330Y-104956291D01*
X147786641Y-104836329D01*
X147780862Y-104822377D01*
X147780861Y-104822376D01*
X147780861Y-104822375D01*
X147692621Y-104707379D01*
X147577625Y-104619139D01*
X147577624Y-104619138D01*
X147577622Y-104619137D01*
X147443712Y-104563671D01*
X147443710Y-104563670D01*
X147443709Y-104563670D01*
X147335677Y-104549447D01*
X147300001Y-104544750D01*
X147299997Y-104544750D01*
X147212413Y-104556280D01*
X147164765Y-104549447D01*
X147164074Y-104552386D01*
X147122714Y-104542656D01*
X147114506Y-104540115D01*
X147085585Y-104528912D01*
X147078661Y-104528912D01*
X147050270Y-104525618D01*
X147043531Y-104524033D01*
X147012821Y-104528317D01*
X147004246Y-104528912D01*
X144071592Y-104528912D01*
X144004553Y-104509227D01*
X143962733Y-104464290D01*
X143873120Y-104300000D01*
X150144750Y-104300000D01*
X150163670Y-104443708D01*
X150163671Y-104443712D01*
X150219137Y-104577622D01*
X150219138Y-104577624D01*
X150219139Y-104577625D01*
X150307379Y-104692621D01*
X150422375Y-104780861D01*
X150556291Y-104836330D01*
X150683280Y-104853048D01*
X150699999Y-104855250D01*
X150700000Y-104855250D01*
X150700001Y-104855250D01*
X150714977Y-104853278D01*
X150843709Y-104836330D01*
X150977625Y-104780861D01*
X151092621Y-104692621D01*
X151180861Y-104577625D01*
X151236330Y-104443709D01*
X151255250Y-104300000D01*
X153344750Y-104300000D01*
X153363670Y-104443708D01*
X153363671Y-104443712D01*
X153419137Y-104577622D01*
X153419138Y-104577624D01*
X153419139Y-104577625D01*
X153507379Y-104692621D01*
X153622375Y-104780861D01*
X153756291Y-104836330D01*
X153883280Y-104853048D01*
X153899999Y-104855250D01*
X153900000Y-104855250D01*
X153900001Y-104855250D01*
X153914977Y-104853278D01*
X154043709Y-104836330D01*
X154177625Y-104780861D01*
X154292621Y-104692621D01*
X154380861Y-104577625D01*
X154436330Y-104443709D01*
X154455250Y-104300000D01*
X154436330Y-104156291D01*
X154380861Y-104022375D01*
X154292621Y-103907379D01*
X154177625Y-103819139D01*
X154177624Y-103819138D01*
X154177622Y-103819137D01*
X154043712Y-103763671D01*
X154043710Y-103763670D01*
X154043709Y-103763670D01*
X153919711Y-103747345D01*
X153900001Y-103744750D01*
X153899999Y-103744750D01*
X153756291Y-103763670D01*
X153756287Y-103763671D01*
X153622377Y-103819137D01*
X153507379Y-103907379D01*
X153419137Y-104022377D01*
X153363671Y-104156287D01*
X153363670Y-104156291D01*
X153344750Y-104299999D01*
X153344750Y-104300000D01*
X151255250Y-104300000D01*
X151236330Y-104156291D01*
X151180861Y-104022375D01*
X151092621Y-103907379D01*
X151012471Y-103845877D01*
X150971271Y-103789452D01*
X150967116Y-103719706D01*
X151001329Y-103658785D01*
X151012464Y-103649136D01*
X151093121Y-103587246D01*
X151181361Y-103472250D01*
X151236830Y-103338334D01*
X151255750Y-103194625D01*
X151236830Y-103050916D01*
X151183588Y-102922377D01*
X151181362Y-102917002D01*
X151181361Y-102917001D01*
X151181361Y-102917000D01*
X151093121Y-102802004D01*
X151092215Y-102801309D01*
X151084888Y-102795686D01*
X151043686Y-102739258D01*
X151039533Y-102669512D01*
X151073746Y-102608592D01*
X151084878Y-102598945D01*
X151093121Y-102592621D01*
X151181361Y-102477625D01*
X151236830Y-102343709D01*
X151241125Y-102311081D01*
X151269391Y-102247186D01*
X151327715Y-102208714D01*
X151397580Y-102207882D01*
X151456803Y-102244954D01*
X151478625Y-102279815D01*
X151519137Y-102377622D01*
X151519138Y-102377624D01*
X151519139Y-102377625D01*
X151607379Y-102492621D01*
X151722375Y-102580861D01*
X151722376Y-102580861D01*
X151722377Y-102580862D01*
X151750769Y-102592622D01*
X151856291Y-102636330D01*
X151983280Y-102653048D01*
X151999999Y-102655250D01*
X152000000Y-102655250D01*
X152000001Y-102655250D01*
X152014977Y-102653278D01*
X152143709Y-102636330D01*
X152277625Y-102580861D01*
X152392621Y-102492621D01*
X152463692Y-102400000D01*
X153144250Y-102400000D01*
X153157415Y-102500000D01*
X153163170Y-102543708D01*
X153163171Y-102543712D01*
X153218637Y-102677622D01*
X153218638Y-102677624D01*
X153218639Y-102677625D01*
X153306879Y-102792621D01*
X153421875Y-102880861D01*
X153421876Y-102880861D01*
X153421877Y-102880862D01*
X153452536Y-102893561D01*
X153555791Y-102936330D01*
X153682780Y-102953048D01*
X153699499Y-102955250D01*
X153699500Y-102955250D01*
X153699501Y-102955250D01*
X153714477Y-102953278D01*
X153843209Y-102936330D01*
X153977125Y-102880861D01*
X154092121Y-102792621D01*
X154180361Y-102677625D01*
X154235830Y-102543709D01*
X154241584Y-102500001D01*
X163394318Y-102500001D01*
X163414955Y-102656760D01*
X163414956Y-102656762D01*
X163423596Y-102677622D01*
X163475464Y-102802841D01*
X163571718Y-102928282D01*
X163697159Y-103024536D01*
X163843238Y-103085044D01*
X163862205Y-103087541D01*
X163999999Y-103105682D01*
X164000000Y-103105682D01*
X164000001Y-103105682D01*
X164052254Y-103098802D01*
X164156762Y-103085044D01*
X164302841Y-103024536D01*
X164428282Y-102928282D01*
X164524536Y-102802841D01*
X164585044Y-102656762D01*
X164605682Y-102500000D01*
X164604710Y-102492620D01*
X164585106Y-102343708D01*
X164585044Y-102343238D01*
X164524536Y-102197159D01*
X164451472Y-102101940D01*
X164426280Y-102036775D01*
X164440318Y-101968330D01*
X164489132Y-101918340D01*
X164557223Y-101902676D01*
X164597299Y-101911895D01*
X164656291Y-101936330D01*
X164783280Y-101953048D01*
X164799999Y-101955250D01*
X164800000Y-101955250D01*
X164800001Y-101955250D01*
X164814977Y-101953278D01*
X164943709Y-101936330D01*
X165077625Y-101880861D01*
X165192621Y-101792621D01*
X165280861Y-101677625D01*
X165336330Y-101543709D01*
X165355250Y-101400000D01*
X165336330Y-101256291D01*
X165280861Y-101122375D01*
X165192621Y-101007379D01*
X165077625Y-100919139D01*
X165077624Y-100919138D01*
X165077622Y-100919137D01*
X165031420Y-100900000D01*
X166344750Y-100900000D01*
X166361853Y-101029911D01*
X166363670Y-101043708D01*
X166363671Y-101043712D01*
X166419137Y-101177622D01*
X166419138Y-101177624D01*
X166419139Y-101177625D01*
X166507379Y-101292621D01*
X166622375Y-101380861D01*
X166622376Y-101380861D01*
X166622377Y-101380862D01*
X166622433Y-101380885D01*
X166756291Y-101436330D01*
X166883280Y-101453048D01*
X166899999Y-101455250D01*
X166900000Y-101455250D01*
X166900001Y-101455250D01*
X166914977Y-101453278D01*
X167043709Y-101436330D01*
X167177625Y-101380861D01*
X167292621Y-101292621D01*
X167380861Y-101177625D01*
X167436330Y-101043709D01*
X167455250Y-100900000D01*
X167436330Y-100756291D01*
X167380861Y-100622375D01*
X167292621Y-100507379D01*
X167177625Y-100419139D01*
X167177624Y-100419138D01*
X167177622Y-100419137D01*
X167043712Y-100363671D01*
X167043710Y-100363670D01*
X167043709Y-100363670D01*
X166971854Y-100354210D01*
X166900001Y-100344750D01*
X166899999Y-100344750D01*
X166756291Y-100363670D01*
X166756287Y-100363671D01*
X166622377Y-100419137D01*
X166507379Y-100507379D01*
X166419137Y-100622377D01*
X166363671Y-100756287D01*
X166363670Y-100756291D01*
X166344750Y-100900000D01*
X165031420Y-100900000D01*
X164943712Y-100863671D01*
X164943710Y-100863670D01*
X164943709Y-100863670D01*
X164871854Y-100854210D01*
X164800001Y-100844750D01*
X164799999Y-100844750D01*
X164656291Y-100863670D01*
X164656287Y-100863671D01*
X164522377Y-100919137D01*
X164407379Y-101007379D01*
X164319137Y-101122377D01*
X164263671Y-101256287D01*
X164263670Y-101256291D01*
X164247267Y-101380885D01*
X164244750Y-101400000D01*
X164258392Y-101503623D01*
X164263670Y-101543708D01*
X164263671Y-101543712D01*
X164319138Y-101677623D01*
X164319139Y-101677626D01*
X164380036Y-101756987D01*
X164405231Y-101822156D01*
X164391193Y-101890601D01*
X164342379Y-101940591D01*
X164274288Y-101956255D01*
X164234209Y-101947035D01*
X164156765Y-101914957D01*
X164156760Y-101914955D01*
X164000001Y-101894318D01*
X163999999Y-101894318D01*
X163843239Y-101914955D01*
X163843237Y-101914956D01*
X163697160Y-101975463D01*
X163571718Y-102071718D01*
X163475463Y-102197160D01*
X163414956Y-102343237D01*
X163414955Y-102343239D01*
X163394318Y-102499998D01*
X163394318Y-102500001D01*
X154241584Y-102500001D01*
X154254750Y-102400000D01*
X154235830Y-102256291D01*
X154180361Y-102122375D01*
X154092121Y-102007379D01*
X153977125Y-101919139D01*
X153977124Y-101919138D01*
X153977122Y-101919137D01*
X153843212Y-101863671D01*
X153843210Y-101863670D01*
X153843209Y-101863670D01*
X153771354Y-101854210D01*
X153699501Y-101844750D01*
X153699499Y-101844750D01*
X153555791Y-101863670D01*
X153555787Y-101863671D01*
X153421877Y-101919137D01*
X153306879Y-102007379D01*
X153218637Y-102122377D01*
X153163171Y-102256287D01*
X153163170Y-102256291D01*
X153150005Y-102356291D01*
X153144250Y-102400000D01*
X152463692Y-102400000D01*
X152480861Y-102377625D01*
X152536330Y-102243709D01*
X152555250Y-102100000D01*
X152536330Y-101956291D01*
X152480861Y-101822375D01*
X152392621Y-101707379D01*
X152383005Y-101700000D01*
X159244750Y-101700000D01*
X159260832Y-101822156D01*
X159263670Y-101843708D01*
X159263671Y-101843712D01*
X159319137Y-101977622D01*
X159319138Y-101977624D01*
X159319139Y-101977625D01*
X159407379Y-102092621D01*
X159522375Y-102180861D01*
X159656291Y-102236330D01*
X159783280Y-102253048D01*
X159799999Y-102255250D01*
X159800000Y-102255250D01*
X159800001Y-102255250D01*
X159814977Y-102253278D01*
X159943709Y-102236330D01*
X160077625Y-102180861D01*
X160192621Y-102092621D01*
X160280861Y-101977625D01*
X160336330Y-101843709D01*
X160355250Y-101700000D01*
X160336330Y-101556291D01*
X160294478Y-101455250D01*
X160280862Y-101422377D01*
X160280861Y-101422376D01*
X160280861Y-101422375D01*
X160192621Y-101307379D01*
X160077625Y-101219139D01*
X160077624Y-101219138D01*
X160077622Y-101219137D01*
X159943712Y-101163671D01*
X159943710Y-101163670D01*
X159943709Y-101163670D01*
X159871854Y-101154210D01*
X159800001Y-101144750D01*
X159799999Y-101144750D01*
X159656291Y-101163670D01*
X159656287Y-101163671D01*
X159522377Y-101219137D01*
X159407379Y-101307379D01*
X159319137Y-101422377D01*
X159263671Y-101556287D01*
X159263670Y-101556291D01*
X159244750Y-101700000D01*
X152383005Y-101700000D01*
X152277625Y-101619139D01*
X152277624Y-101619138D01*
X152277622Y-101619137D01*
X152143712Y-101563671D01*
X152143710Y-101563670D01*
X152143709Y-101563670D01*
X152049797Y-101551306D01*
X152000001Y-101544750D01*
X151999999Y-101544750D01*
X151856291Y-101563670D01*
X151856287Y-101563671D01*
X151722377Y-101619137D01*
X151607379Y-101707379D01*
X151519137Y-101822377D01*
X151463671Y-101956287D01*
X151463670Y-101956290D01*
X151459374Y-101988920D01*
X151431106Y-102052816D01*
X151372781Y-102091286D01*
X151302916Y-102092116D01*
X151243693Y-102055042D01*
X151221876Y-102020189D01*
X151181361Y-101922375D01*
X151093121Y-101807379D01*
X150978125Y-101719139D01*
X150978124Y-101719138D01*
X150978122Y-101719137D01*
X150844212Y-101663671D01*
X150844210Y-101663670D01*
X150844209Y-101663670D01*
X150772354Y-101654210D01*
X150700501Y-101644750D01*
X150700499Y-101644750D01*
X150556791Y-101663670D01*
X150556787Y-101663671D01*
X150422877Y-101719137D01*
X150307879Y-101807379D01*
X150219637Y-101922377D01*
X150164171Y-102056287D01*
X150164170Y-102056291D01*
X150147770Y-102180862D01*
X150145250Y-102200000D01*
X150152660Y-102256287D01*
X150164170Y-102343708D01*
X150164171Y-102343712D01*
X150219637Y-102477622D01*
X150219638Y-102477624D01*
X150219639Y-102477625D01*
X150307879Y-102592621D01*
X150314832Y-102597956D01*
X150316110Y-102598937D01*
X150357313Y-102655365D01*
X150361467Y-102725111D01*
X150327254Y-102786031D01*
X150316114Y-102795684D01*
X150307882Y-102802001D01*
X150307880Y-102802002D01*
X150307879Y-102802004D01*
X150303755Y-102807379D01*
X150219637Y-102917002D01*
X150164171Y-103050912D01*
X150164170Y-103050916D01*
X150145250Y-103194624D01*
X150145250Y-103194625D01*
X150164170Y-103338333D01*
X150164171Y-103338337D01*
X150219637Y-103472247D01*
X150219638Y-103472249D01*
X150219639Y-103472250D01*
X150307879Y-103587246D01*
X150388025Y-103648745D01*
X150429228Y-103705172D01*
X150433383Y-103774918D01*
X150399171Y-103835838D01*
X150388026Y-103845495D01*
X150307381Y-103907376D01*
X150219137Y-104022377D01*
X150163671Y-104156287D01*
X150163670Y-104156291D01*
X150144750Y-104299999D01*
X150144750Y-104300000D01*
X143873120Y-104300000D01*
X143199465Y-103064968D01*
X143184644Y-102996688D01*
X143209090Y-102931235D01*
X143257522Y-102895013D01*
X143256783Y-102893561D01*
X143265476Y-102889131D01*
X143265479Y-102889131D01*
X143385573Y-102827940D01*
X143480881Y-102732632D01*
X143485432Y-102723699D01*
X143533404Y-102672902D01*
X143601224Y-102656104D01*
X143615295Y-102657514D01*
X143632353Y-102660216D01*
X143738374Y-102643424D01*
X143765474Y-102639132D01*
X143765474Y-102639131D01*
X143765479Y-102639131D01*
X143885573Y-102577940D01*
X143973013Y-102490500D01*
X147344750Y-102490500D01*
X147360297Y-102608592D01*
X147363670Y-102634208D01*
X147363671Y-102634212D01*
X147419137Y-102768122D01*
X147419138Y-102768124D01*
X147419139Y-102768125D01*
X147507379Y-102883121D01*
X147622375Y-102971361D01*
X147622376Y-102971361D01*
X147622377Y-102971362D01*
X147645308Y-102980860D01*
X147756291Y-103026830D01*
X147883280Y-103043548D01*
X147899999Y-103045750D01*
X147900000Y-103045750D01*
X147900001Y-103045750D01*
X147914977Y-103043778D01*
X148043709Y-103026830D01*
X148177625Y-102971361D01*
X148292621Y-102883121D01*
X148380861Y-102768125D01*
X148436330Y-102634209D01*
X148455250Y-102490500D01*
X148436330Y-102346791D01*
X148380861Y-102212875D01*
X148292621Y-102097879D01*
X148177625Y-102009639D01*
X148177624Y-102009638D01*
X148177622Y-102009637D01*
X148043712Y-101954171D01*
X148043710Y-101954170D01*
X148043709Y-101954170D01*
X147971854Y-101944709D01*
X147900001Y-101935250D01*
X147899999Y-101935250D01*
X147756291Y-101954170D01*
X147756287Y-101954171D01*
X147622377Y-102009637D01*
X147507379Y-102097879D01*
X147419137Y-102212877D01*
X147363671Y-102346787D01*
X147363670Y-102346791D01*
X147355525Y-102408661D01*
X147344750Y-102490500D01*
X143973013Y-102490500D01*
X143980881Y-102482632D01*
X144042072Y-102362538D01*
X144042073Y-102362533D01*
X144063157Y-102229414D01*
X144063157Y-102229409D01*
X144042073Y-102096288D01*
X144042072Y-102096286D01*
X144019923Y-102052816D01*
X144011204Y-102035705D01*
X143998308Y-101967038D01*
X144011203Y-101923120D01*
X144042072Y-101862538D01*
X144044890Y-101844750D01*
X144063157Y-101729414D01*
X144063157Y-101729409D01*
X144042073Y-101596290D01*
X144042072Y-101596288D01*
X144042072Y-101596286D01*
X143980881Y-101476192D01*
X143980879Y-101476190D01*
X143980876Y-101476186D01*
X143885578Y-101380888D01*
X143885574Y-101380885D01*
X143885573Y-101380884D01*
X143765479Y-101319693D01*
X143765477Y-101319692D01*
X143765474Y-101319691D01*
X143632355Y-101298608D01*
X143632351Y-101298608D01*
X143499231Y-101319691D01*
X143379131Y-101380885D01*
X143379127Y-101380888D01*
X143283824Y-101476191D01*
X143279270Y-101485130D01*
X143231295Y-101535924D01*
X143163473Y-101552718D01*
X143149393Y-101551306D01*
X143132355Y-101548608D01*
X143132354Y-101548608D01*
X143132353Y-101548608D01*
X143131248Y-101548782D01*
X143129895Y-101548608D01*
X143122594Y-101548608D01*
X143122594Y-101547664D01*
X143061955Y-101539826D01*
X143008504Y-101494829D01*
X142987866Y-101428077D01*
X142987853Y-101426309D01*
X142987853Y-100229412D01*
X144377220Y-100229412D01*
X144395655Y-100357637D01*
X144418960Y-100408666D01*
X144449471Y-100475475D01*
X144534304Y-100573379D01*
X144643284Y-100643416D01*
X144767578Y-100679911D01*
X144767580Y-100679912D01*
X144767581Y-100679912D01*
X144897126Y-100679912D01*
X144897126Y-100679911D01*
X145021422Y-100643416D01*
X145130402Y-100573379D01*
X145215235Y-100475475D01*
X145219558Y-100466007D01*
X145265314Y-100413203D01*
X145332353Y-100393519D01*
X145399393Y-100413204D01*
X145445147Y-100466007D01*
X145449471Y-100475475D01*
X145534304Y-100573379D01*
X145643284Y-100643416D01*
X145767578Y-100679911D01*
X145767580Y-100679912D01*
X145767581Y-100679912D01*
X145897126Y-100679912D01*
X145897126Y-100679911D01*
X146021422Y-100643416D01*
X146130402Y-100573379D01*
X146215235Y-100475475D01*
X146219558Y-100466007D01*
X146265314Y-100413203D01*
X146332353Y-100393519D01*
X146399393Y-100413204D01*
X146445147Y-100466007D01*
X146449471Y-100475475D01*
X146534304Y-100573379D01*
X146643284Y-100643416D01*
X146767578Y-100679911D01*
X146767580Y-100679912D01*
X146767581Y-100679912D01*
X146897126Y-100679912D01*
X146897126Y-100679911D01*
X147021422Y-100643416D01*
X147130402Y-100573379D01*
X147215235Y-100475475D01*
X147269050Y-100357638D01*
X147287486Y-100229412D01*
X147269050Y-100101186D01*
X147215235Y-99983349D01*
X147130402Y-99885445D01*
X147049925Y-99833725D01*
X147004172Y-99780924D01*
X146994228Y-99711766D01*
X147023252Y-99648210D01*
X147049922Y-99625099D01*
X147130402Y-99573379D01*
X147193984Y-99500000D01*
X159944750Y-99500000D01*
X159963631Y-99643416D01*
X159963670Y-99643708D01*
X159963671Y-99643712D01*
X160019137Y-99777622D01*
X160019138Y-99777624D01*
X160019139Y-99777625D01*
X160107379Y-99892621D01*
X160222375Y-99980861D01*
X160222376Y-99980861D01*
X160222377Y-99980862D01*
X160228384Y-99983350D01*
X160356291Y-100036330D01*
X160483280Y-100053048D01*
X160499999Y-100055250D01*
X160500000Y-100055250D01*
X160500001Y-100055250D01*
X160514977Y-100053278D01*
X160643709Y-100036330D01*
X160777625Y-99980861D01*
X160892621Y-99892621D01*
X160980861Y-99777625D01*
X161036330Y-99643709D01*
X161055250Y-99500000D01*
X161036330Y-99356291D01*
X160980861Y-99222375D01*
X160892621Y-99107379D01*
X160777625Y-99019139D01*
X160777624Y-99019138D01*
X160777622Y-99019137D01*
X160643712Y-98963671D01*
X160643710Y-98963670D01*
X160643709Y-98963670D01*
X160571854Y-98954210D01*
X160500001Y-98944750D01*
X160499999Y-98944750D01*
X160356291Y-98963670D01*
X160356287Y-98963671D01*
X160222377Y-99019137D01*
X160107379Y-99107379D01*
X160019137Y-99222377D01*
X159963671Y-99356287D01*
X159963670Y-99356291D01*
X159944750Y-99500000D01*
X147193984Y-99500000D01*
X147215235Y-99475475D01*
X147269050Y-99357638D01*
X147287486Y-99229412D01*
X147269050Y-99101186D01*
X147215235Y-98983349D01*
X147130402Y-98885445D01*
X147049925Y-98833725D01*
X147004172Y-98780924D01*
X146994228Y-98711766D01*
X147023252Y-98648210D01*
X147049922Y-98625099D01*
X147130402Y-98573379D01*
X147215235Y-98475475D01*
X147269050Y-98357638D01*
X147287486Y-98229412D01*
X147269050Y-98101186D01*
X147215235Y-97983349D01*
X147130402Y-97885445D01*
X147021422Y-97815408D01*
X147021418Y-97815406D01*
X147021417Y-97815406D01*
X146897127Y-97778912D01*
X146897125Y-97778912D01*
X146767581Y-97778912D01*
X146767579Y-97778912D01*
X146643288Y-97815406D01*
X146643285Y-97815407D01*
X146643284Y-97815408D01*
X146592030Y-97848346D01*
X146534303Y-97885445D01*
X146449471Y-97983349D01*
X146449469Y-97983352D01*
X146445146Y-97992818D01*
X146399390Y-98045621D01*
X146332350Y-98065304D01*
X146265311Y-98045618D01*
X146219560Y-97992818D01*
X146215236Y-97983352D01*
X146215235Y-97983350D01*
X146215235Y-97983349D01*
X146130402Y-97885445D01*
X146021422Y-97815408D01*
X146021418Y-97815406D01*
X146021417Y-97815406D01*
X145897127Y-97778912D01*
X145897125Y-97778912D01*
X145767581Y-97778912D01*
X145767579Y-97778912D01*
X145643288Y-97815406D01*
X145643285Y-97815407D01*
X145643284Y-97815408D01*
X145592030Y-97848346D01*
X145534303Y-97885445D01*
X145449471Y-97983349D01*
X145449469Y-97983352D01*
X145445146Y-97992818D01*
X145399390Y-98045621D01*
X145332350Y-98065304D01*
X145265311Y-98045618D01*
X145219560Y-97992818D01*
X145215236Y-97983352D01*
X145215235Y-97983350D01*
X145215235Y-97983349D01*
X145130402Y-97885445D01*
X145021422Y-97815408D01*
X145021418Y-97815406D01*
X145021417Y-97815406D01*
X144897127Y-97778912D01*
X144897125Y-97778912D01*
X144767581Y-97778912D01*
X144767579Y-97778912D01*
X144643288Y-97815406D01*
X144643285Y-97815407D01*
X144643284Y-97815408D01*
X144592030Y-97848346D01*
X144534303Y-97885445D01*
X144449471Y-97983349D01*
X144449470Y-97983350D01*
X144395655Y-98101186D01*
X144377220Y-98229412D01*
X144395655Y-98357637D01*
X144418960Y-98408666D01*
X144449471Y-98475475D01*
X144534304Y-98573379D01*
X144614778Y-98625096D01*
X144660533Y-98677900D01*
X144670477Y-98747059D01*
X144641452Y-98810614D01*
X144614779Y-98833726D01*
X144586051Y-98852188D01*
X144534303Y-98885445D01*
X144449471Y-98983349D01*
X144449470Y-98983350D01*
X144395655Y-99101186D01*
X144377220Y-99229412D01*
X144395655Y-99357637D01*
X144421032Y-99413203D01*
X144449471Y-99475475D01*
X144534304Y-99573379D01*
X144614778Y-99625096D01*
X144660533Y-99677900D01*
X144670477Y-99747059D01*
X144641452Y-99810614D01*
X144614779Y-99833726D01*
X144586051Y-99852188D01*
X144534303Y-99885445D01*
X144449471Y-99983349D01*
X144449470Y-99983350D01*
X144395655Y-100101186D01*
X144377220Y-100229412D01*
X142987853Y-100229412D01*
X142987853Y-97649500D01*
X148691407Y-97649500D01*
X148710327Y-97793208D01*
X148710328Y-97793212D01*
X148765794Y-97927122D01*
X148765795Y-97927124D01*
X148765796Y-97927125D01*
X148854036Y-98042121D01*
X148969032Y-98130361D01*
X149102948Y-98185830D01*
X149229937Y-98202548D01*
X149246656Y-98204750D01*
X149246657Y-98204750D01*
X149246658Y-98204750D01*
X149261634Y-98202778D01*
X149390366Y-98185830D01*
X149524282Y-98130361D01*
X149598115Y-98073707D01*
X150040675Y-98073707D01*
X150057927Y-98204750D01*
X150059595Y-98217415D01*
X150059596Y-98217419D01*
X150115062Y-98351329D01*
X150115063Y-98351331D01*
X150115064Y-98351332D01*
X150203304Y-98466328D01*
X150318300Y-98554568D01*
X150452216Y-98610037D01*
X150579205Y-98626755D01*
X150595924Y-98628957D01*
X150595925Y-98628957D01*
X150595926Y-98628957D01*
X150610902Y-98626985D01*
X150739634Y-98610037D01*
X150763866Y-98600000D01*
X158344750Y-98600000D01*
X158363670Y-98743708D01*
X158363671Y-98743712D01*
X158419137Y-98877622D01*
X158419138Y-98877624D01*
X158419139Y-98877625D01*
X158507379Y-98992621D01*
X158622375Y-99080861D01*
X158756291Y-99136330D01*
X158883280Y-99153048D01*
X158899999Y-99155250D01*
X158900000Y-99155250D01*
X158900001Y-99155250D01*
X158914977Y-99153278D01*
X159043709Y-99136330D01*
X159177625Y-99080861D01*
X159292621Y-98992621D01*
X159380861Y-98877625D01*
X159436330Y-98743709D01*
X159455250Y-98600000D01*
X159436330Y-98456291D01*
X159380861Y-98322375D01*
X159292621Y-98207379D01*
X159177625Y-98119139D01*
X159177624Y-98119138D01*
X159177622Y-98119137D01*
X159043712Y-98063671D01*
X159043710Y-98063670D01*
X159043709Y-98063670D01*
X158971854Y-98054210D01*
X158900001Y-98044750D01*
X158899999Y-98044750D01*
X158756291Y-98063670D01*
X158756287Y-98063671D01*
X158622377Y-98119137D01*
X158507379Y-98207379D01*
X158419137Y-98322377D01*
X158363671Y-98456287D01*
X158363670Y-98456291D01*
X158344750Y-98599999D01*
X158344750Y-98600000D01*
X150763866Y-98600000D01*
X150873550Y-98554568D01*
X150988546Y-98466328D01*
X151076786Y-98351332D01*
X151132255Y-98217416D01*
X151151175Y-98073707D01*
X151132255Y-97929998D01*
X151076786Y-97796082D01*
X150988546Y-97681086D01*
X150873550Y-97592846D01*
X150873549Y-97592845D01*
X150873547Y-97592844D01*
X150739637Y-97537378D01*
X150739635Y-97537377D01*
X150739634Y-97537377D01*
X150667779Y-97527916D01*
X150595926Y-97518457D01*
X150595924Y-97518457D01*
X150452216Y-97537377D01*
X150452212Y-97537378D01*
X150318302Y-97592844D01*
X150203304Y-97681086D01*
X150115062Y-97796084D01*
X150059596Y-97929994D01*
X150059595Y-97929998D01*
X150044834Y-98042120D01*
X150040675Y-98073707D01*
X149598115Y-98073707D01*
X149639278Y-98042121D01*
X149727518Y-97927125D01*
X149782987Y-97793209D01*
X149801907Y-97649500D01*
X149782987Y-97505791D01*
X149729900Y-97377625D01*
X149727519Y-97371877D01*
X149727518Y-97371876D01*
X149727518Y-97371875D01*
X149639278Y-97256879D01*
X149524282Y-97168639D01*
X149524281Y-97168638D01*
X149524279Y-97168637D01*
X149390369Y-97113171D01*
X149390367Y-97113170D01*
X149390366Y-97113170D01*
X149290332Y-97100000D01*
X164944750Y-97100000D01*
X164963670Y-97243708D01*
X164963671Y-97243712D01*
X165019137Y-97377622D01*
X165019138Y-97377624D01*
X165019139Y-97377625D01*
X165107379Y-97492621D01*
X165222375Y-97580861D01*
X165356291Y-97636330D01*
X165483280Y-97653048D01*
X165499999Y-97655250D01*
X165500000Y-97655250D01*
X165500001Y-97655250D01*
X165514977Y-97653278D01*
X165643709Y-97636330D01*
X165777625Y-97580861D01*
X165892621Y-97492621D01*
X165980861Y-97377625D01*
X166036330Y-97243709D01*
X166055250Y-97100000D01*
X166036330Y-96956291D01*
X165980861Y-96822375D01*
X165892621Y-96707379D01*
X165777625Y-96619139D01*
X165777624Y-96619138D01*
X165777622Y-96619137D01*
X165643712Y-96563671D01*
X165643710Y-96563670D01*
X165643709Y-96563670D01*
X165571854Y-96554210D01*
X165500001Y-96544750D01*
X165499999Y-96544750D01*
X165356291Y-96563670D01*
X165356287Y-96563671D01*
X165222377Y-96619137D01*
X165107379Y-96707379D01*
X165019137Y-96822377D01*
X164963671Y-96956287D01*
X164963670Y-96956291D01*
X164944750Y-97099999D01*
X164944750Y-97100000D01*
X149290332Y-97100000D01*
X149246658Y-97094250D01*
X149246656Y-97094250D01*
X149102948Y-97113170D01*
X149102944Y-97113171D01*
X148969034Y-97168637D01*
X148854036Y-97256879D01*
X148765794Y-97371877D01*
X148710328Y-97505787D01*
X148710327Y-97505791D01*
X148691407Y-97649499D01*
X148691407Y-97649500D01*
X142987853Y-97649500D01*
X142987853Y-97032514D01*
X143007538Y-96965475D01*
X143060342Y-96919720D01*
X143122593Y-96910768D01*
X143122594Y-96910216D01*
X143126440Y-96910216D01*
X143129500Y-96909776D01*
X143131137Y-96910023D01*
X143132353Y-96910216D01*
X143149389Y-96907517D01*
X143218678Y-96916470D01*
X143272132Y-96961464D01*
X143279266Y-96973686D01*
X143283825Y-96982632D01*
X143283827Y-96982634D01*
X143283829Y-96982637D01*
X143379127Y-97077935D01*
X143379131Y-97077938D01*
X143379133Y-97077940D01*
X143499227Y-97139131D01*
X143499229Y-97139131D01*
X143499231Y-97139132D01*
X143632351Y-97160216D01*
X143632353Y-97160216D01*
X143632355Y-97160216D01*
X143765474Y-97139132D01*
X143765474Y-97139131D01*
X143765479Y-97139131D01*
X143885573Y-97077940D01*
X143980881Y-96982632D01*
X144042072Y-96862538D01*
X144063157Y-96729412D01*
X144063157Y-96729409D01*
X144042073Y-96596288D01*
X144042072Y-96596286D01*
X144042072Y-96596285D01*
X144011204Y-96535706D01*
X143998308Y-96467039D01*
X144011204Y-96423118D01*
X144042072Y-96362538D01*
X144042072Y-96362536D01*
X144042073Y-96362535D01*
X144063157Y-96229414D01*
X144063157Y-96229409D01*
X144042073Y-96096290D01*
X144042072Y-96096288D01*
X144042072Y-96096286D01*
X143980881Y-95976192D01*
X143980879Y-95976190D01*
X143980876Y-95976186D01*
X143885578Y-95880888D01*
X143885574Y-95880885D01*
X143885573Y-95880884D01*
X143765479Y-95819693D01*
X143765477Y-95819692D01*
X143765474Y-95819691D01*
X143632355Y-95798608D01*
X143632354Y-95798608D01*
X143632353Y-95798608D01*
X143615313Y-95801306D01*
X143546022Y-95792351D01*
X143492570Y-95747354D01*
X143485440Y-95735140D01*
X143480881Y-95726192D01*
X143480879Y-95726190D01*
X143480876Y-95726186D01*
X143454690Y-95700000D01*
X165144750Y-95700000D01*
X165157219Y-95794713D01*
X165163670Y-95843708D01*
X165163671Y-95843712D01*
X165219137Y-95977622D01*
X165219138Y-95977624D01*
X165219139Y-95977625D01*
X165307379Y-96092621D01*
X165422375Y-96180861D01*
X165556291Y-96236330D01*
X165683280Y-96253048D01*
X165699999Y-96255250D01*
X165700000Y-96255250D01*
X165700001Y-96255250D01*
X165714977Y-96253278D01*
X165843709Y-96236330D01*
X165977625Y-96180861D01*
X166092621Y-96092621D01*
X166180861Y-95977625D01*
X166236330Y-95843709D01*
X166255250Y-95700000D01*
X166236330Y-95556291D01*
X166191703Y-95448550D01*
X166180862Y-95422377D01*
X166180861Y-95422376D01*
X166180861Y-95422375D01*
X166092621Y-95307379D01*
X165977625Y-95219139D01*
X165977624Y-95219138D01*
X165977622Y-95219137D01*
X165845860Y-95164561D01*
X165791456Y-95120721D01*
X165769391Y-95054427D01*
X165786670Y-94986727D01*
X165837807Y-94939116D01*
X165845860Y-94935439D01*
X165919591Y-94904899D01*
X165977625Y-94880861D01*
X166092621Y-94792621D01*
X166180861Y-94677625D01*
X166236330Y-94543709D01*
X166255250Y-94400000D01*
X166236330Y-94256291D01*
X166199350Y-94167013D01*
X166180862Y-94122377D01*
X166180861Y-94122376D01*
X166180861Y-94122375D01*
X166092621Y-94007379D01*
X165977625Y-93919139D01*
X165977624Y-93919138D01*
X165977622Y-93919137D01*
X165843712Y-93863671D01*
X165843710Y-93863670D01*
X165843709Y-93863670D01*
X165771854Y-93854210D01*
X165700001Y-93844750D01*
X165699999Y-93844750D01*
X165556291Y-93863670D01*
X165556287Y-93863671D01*
X165422377Y-93919137D01*
X165307379Y-94007379D01*
X165219137Y-94122377D01*
X165163671Y-94256287D01*
X165163670Y-94256291D01*
X165144750Y-94399999D01*
X165144750Y-94400000D01*
X165163670Y-94543708D01*
X165163671Y-94543712D01*
X165219137Y-94677622D01*
X165219138Y-94677624D01*
X165219139Y-94677625D01*
X165307379Y-94792621D01*
X165422375Y-94880861D01*
X165554143Y-94935440D01*
X165608542Y-94979278D01*
X165630608Y-95045572D01*
X165613329Y-95113271D01*
X165562193Y-95160882D01*
X165554140Y-95164560D01*
X165422376Y-95219138D01*
X165307379Y-95307379D01*
X165219137Y-95422377D01*
X165163671Y-95556287D01*
X165163670Y-95556291D01*
X165144750Y-95700000D01*
X143454690Y-95700000D01*
X143385578Y-95630888D01*
X143385574Y-95630885D01*
X143385573Y-95630884D01*
X143265479Y-95569693D01*
X143265477Y-95569692D01*
X143265474Y-95569691D01*
X143132355Y-95548608D01*
X143132354Y-95548608D01*
X143132353Y-95548608D01*
X143131248Y-95548782D01*
X143129895Y-95548608D01*
X143122594Y-95548608D01*
X143122594Y-95547664D01*
X143061955Y-95539826D01*
X143008504Y-95494829D01*
X142987866Y-95428077D01*
X142987853Y-95426309D01*
X142987853Y-94768714D01*
X143007538Y-94701675D01*
X143060342Y-94655920D01*
X143128036Y-94645775D01*
X143200000Y-94655250D01*
X143343709Y-94636330D01*
X143477625Y-94580861D01*
X143592621Y-94492621D01*
X143680861Y-94377625D01*
X143703850Y-94322123D01*
X143747689Y-94267723D01*
X143813983Y-94245657D01*
X143834593Y-94246638D01*
X143876843Y-94252201D01*
X143899999Y-94255250D01*
X143900000Y-94255250D01*
X143900001Y-94255250D01*
X143931878Y-94251053D01*
X144043709Y-94236330D01*
X144043710Y-94236329D01*
X144049440Y-94235575D01*
X144054219Y-94235133D01*
X144058329Y-94234912D01*
X144058353Y-94234912D01*
X144102037Y-94230215D01*
X144127792Y-94224611D01*
X144153546Y-94219010D01*
X144157727Y-94217987D01*
X144163726Y-94216522D01*
X144244438Y-94173512D01*
X144297242Y-94127757D01*
X144315196Y-94110166D01*
X144359843Y-94030349D01*
X144359844Y-94030347D01*
X144359845Y-94030344D01*
X144365415Y-94011370D01*
X144377012Y-93984289D01*
X144380855Y-93977632D01*
X144380861Y-93977625D01*
X144436330Y-93843709D01*
X144442085Y-93800000D01*
X144844750Y-93800000D01*
X144853132Y-93863670D01*
X144863670Y-93943708D01*
X144863671Y-93943712D01*
X144919137Y-94077622D01*
X144919138Y-94077624D01*
X144919139Y-94077625D01*
X145007379Y-94192621D01*
X145122375Y-94280861D01*
X145122376Y-94280861D01*
X145122377Y-94280862D01*
X145167013Y-94299350D01*
X145256291Y-94336330D01*
X145383280Y-94353048D01*
X145399999Y-94355250D01*
X145400000Y-94355250D01*
X145400001Y-94355250D01*
X145414977Y-94353278D01*
X145543709Y-94336330D01*
X145677625Y-94280861D01*
X145792621Y-94192621D01*
X145880861Y-94077625D01*
X145936330Y-93943709D01*
X145955250Y-93800000D01*
X145936330Y-93656291D01*
X145880861Y-93522375D01*
X145792621Y-93407379D01*
X145677625Y-93319139D01*
X145677624Y-93319138D01*
X145677622Y-93319137D01*
X145543712Y-93263671D01*
X145543710Y-93263670D01*
X145543709Y-93263670D01*
X145471854Y-93254210D01*
X145400001Y-93244750D01*
X145399999Y-93244750D01*
X145256291Y-93263670D01*
X145256287Y-93263671D01*
X145122377Y-93319137D01*
X145007379Y-93407379D01*
X144919137Y-93522377D01*
X144863671Y-93656287D01*
X144863670Y-93656291D01*
X144844750Y-93800000D01*
X144442085Y-93800000D01*
X144455250Y-93700000D01*
X144436330Y-93556291D01*
X144397292Y-93462043D01*
X144387853Y-93414591D01*
X144387853Y-93185408D01*
X144397292Y-93137956D01*
X144430923Y-93056762D01*
X144436330Y-93043709D01*
X144455250Y-92900000D01*
X147844750Y-92900000D01*
X147863670Y-93043708D01*
X147863671Y-93043712D01*
X147919137Y-93177622D01*
X147919138Y-93177624D01*
X147919139Y-93177625D01*
X148007379Y-93292621D01*
X148122375Y-93380861D01*
X148256291Y-93436330D01*
X148383280Y-93453048D01*
X148399999Y-93455250D01*
X148400000Y-93455250D01*
X148400001Y-93455250D01*
X148414977Y-93453278D01*
X148543709Y-93436330D01*
X148677625Y-93380861D01*
X148792621Y-93292621D01*
X148880861Y-93177625D01*
X148936330Y-93043709D01*
X148955250Y-92900001D01*
X158994318Y-92900001D01*
X159014955Y-93056760D01*
X159014956Y-93056762D01*
X159075464Y-93202841D01*
X159171718Y-93328282D01*
X159297159Y-93424536D01*
X159443238Y-93485044D01*
X159521619Y-93495363D01*
X159599999Y-93505682D01*
X159600000Y-93505682D01*
X159600001Y-93505682D01*
X159652254Y-93498802D01*
X159756762Y-93485044D01*
X159902841Y-93424536D01*
X160028282Y-93328282D01*
X160124536Y-93202841D01*
X160185044Y-93056762D01*
X160205682Y-92900000D01*
X160185044Y-92743238D01*
X160124536Y-92597159D01*
X160028282Y-92471718D01*
X159902841Y-92375464D01*
X159874370Y-92363671D01*
X159756762Y-92314956D01*
X159756760Y-92314955D01*
X159600001Y-92294318D01*
X159599999Y-92294318D01*
X159443239Y-92314955D01*
X159443237Y-92314956D01*
X159297160Y-92375463D01*
X159171718Y-92471718D01*
X159075463Y-92597160D01*
X159014956Y-92743237D01*
X159014955Y-92743239D01*
X158994318Y-92899998D01*
X158994318Y-92900001D01*
X148955250Y-92900001D01*
X148955250Y-92900000D01*
X148936330Y-92756291D01*
X148880861Y-92622375D01*
X148792621Y-92507379D01*
X148677625Y-92419139D01*
X148677624Y-92419138D01*
X148677622Y-92419137D01*
X148543712Y-92363671D01*
X148543710Y-92363670D01*
X148543709Y-92363670D01*
X148471854Y-92354210D01*
X148400001Y-92344750D01*
X148399999Y-92344750D01*
X148256291Y-92363670D01*
X148256287Y-92363671D01*
X148122377Y-92419137D01*
X148007379Y-92507379D01*
X147919137Y-92622377D01*
X147863671Y-92756287D01*
X147863670Y-92756291D01*
X147844750Y-92899999D01*
X147844750Y-92900000D01*
X144455250Y-92900000D01*
X144436330Y-92756291D01*
X144397292Y-92662043D01*
X144387853Y-92614591D01*
X144387853Y-91900000D01*
X151044750Y-91900000D01*
X151063670Y-92043708D01*
X151063671Y-92043712D01*
X151119137Y-92177622D01*
X151119138Y-92177624D01*
X151119139Y-92177625D01*
X151207379Y-92292621D01*
X151322375Y-92380861D01*
X151456291Y-92436330D01*
X151583280Y-92453048D01*
X151599999Y-92455250D01*
X151600000Y-92455250D01*
X151600001Y-92455250D01*
X151614977Y-92453278D01*
X151743709Y-92436330D01*
X151877625Y-92380861D01*
X151992621Y-92292621D01*
X152080861Y-92177625D01*
X152136330Y-92043709D01*
X152155250Y-91900000D01*
X152155184Y-91899501D01*
X156794318Y-91899501D01*
X156814955Y-92056260D01*
X156814956Y-92056262D01*
X156875464Y-92202341D01*
X156971718Y-92327782D01*
X157097159Y-92424036D01*
X157243238Y-92484544D01*
X157321618Y-92494862D01*
X157399999Y-92505182D01*
X157400000Y-92505182D01*
X157400001Y-92505182D01*
X157452254Y-92498302D01*
X157556762Y-92484544D01*
X157702841Y-92424036D01*
X157828282Y-92327782D01*
X157924536Y-92202341D01*
X157985044Y-92056262D01*
X158005682Y-91899500D01*
X157999615Y-91853420D01*
X157985044Y-91742739D01*
X157985044Y-91742738D01*
X157924536Y-91596659D01*
X157835215Y-91480253D01*
X158374570Y-91480253D01*
X158395207Y-91637012D01*
X158395208Y-91637014D01*
X158444612Y-91756287D01*
X158455716Y-91783093D01*
X158551970Y-91908534D01*
X158677411Y-92004788D01*
X158823490Y-92065296D01*
X158901870Y-92075614D01*
X158980251Y-92085934D01*
X158980252Y-92085934D01*
X158980253Y-92085934D01*
X159032505Y-92079054D01*
X159137014Y-92065296D01*
X159283093Y-92004788D01*
X159408534Y-91908534D01*
X159504788Y-91783093D01*
X159565296Y-91637014D01*
X159585934Y-91480252D01*
X159565296Y-91323490D01*
X159504788Y-91177411D01*
X159408534Y-91051970D01*
X159283093Y-90955716D01*
X159254103Y-90943708D01*
X159137014Y-90895208D01*
X159137012Y-90895207D01*
X158980253Y-90874570D01*
X158980251Y-90874570D01*
X158823491Y-90895207D01*
X158823489Y-90895208D01*
X158677412Y-90955715D01*
X158551970Y-91051970D01*
X158455715Y-91177412D01*
X158395208Y-91323489D01*
X158395207Y-91323491D01*
X158374570Y-91480250D01*
X158374570Y-91480253D01*
X157835215Y-91480253D01*
X157828282Y-91471218D01*
X157702841Y-91374964D01*
X157675577Y-91363671D01*
X157556762Y-91314456D01*
X157556760Y-91314455D01*
X157400001Y-91293818D01*
X157399999Y-91293818D01*
X157243239Y-91314455D01*
X157243237Y-91314456D01*
X157097160Y-91374963D01*
X156971718Y-91471218D01*
X156875463Y-91596660D01*
X156814956Y-91742737D01*
X156814955Y-91742739D01*
X156794318Y-91899498D01*
X156794318Y-91899501D01*
X152155184Y-91899501D01*
X152136330Y-91756291D01*
X152086924Y-91637012D01*
X152080862Y-91622377D01*
X152080861Y-91622376D01*
X152080861Y-91622375D01*
X151992621Y-91507379D01*
X151877625Y-91419139D01*
X151877624Y-91419138D01*
X151877622Y-91419137D01*
X151743712Y-91363671D01*
X151743710Y-91363670D01*
X151743709Y-91363670D01*
X151671854Y-91354210D01*
X151600001Y-91344750D01*
X151599999Y-91344750D01*
X151456291Y-91363670D01*
X151456287Y-91363671D01*
X151322377Y-91419137D01*
X151207379Y-91507379D01*
X151119137Y-91622377D01*
X151063671Y-91756287D01*
X151063670Y-91756291D01*
X151044750Y-91899999D01*
X151044750Y-91900000D01*
X144387853Y-91900000D01*
X144387853Y-91853420D01*
X144387852Y-91853404D01*
X144383156Y-91809728D01*
X144377361Y-91783091D01*
X144371951Y-91758219D01*
X144369463Y-91748041D01*
X144369463Y-91748039D01*
X144326453Y-91667327D01*
X144280698Y-91614523D01*
X144263109Y-91596571D01*
X144263103Y-91596566D01*
X144183293Y-91551923D01*
X144183288Y-91551921D01*
X144116256Y-91532238D01*
X144116252Y-91532237D01*
X144116251Y-91532237D01*
X144058353Y-91523912D01*
X143229103Y-91523912D01*
X143229098Y-91523912D01*
X143217141Y-91524610D01*
X143217139Y-91524610D01*
X143208420Y-91525631D01*
X143182558Y-91528658D01*
X143104587Y-91554289D01*
X143104583Y-91554291D01*
X143043910Y-91588920D01*
X143033967Y-91596660D01*
X143000934Y-91622375D01*
X142997744Y-91624858D01*
X140465530Y-94254464D01*
X140465524Y-94254471D01*
X140458920Y-94262036D01*
X140458916Y-94262041D01*
X140440811Y-94284948D01*
X140404867Y-94354463D01*
X140404864Y-94354469D01*
X140385179Y-94421506D01*
X140376853Y-94479413D01*
X140376853Y-107005419D01*
X139954537Y-107005419D01*
X139955250Y-107000000D01*
X139936330Y-106856291D01*
X139880861Y-106722375D01*
X139792621Y-106607379D01*
X139677625Y-106519139D01*
X139677624Y-106519138D01*
X139677622Y-106519137D01*
X139543707Y-106463669D01*
X139542479Y-106463340D01*
X139541560Y-106462779D01*
X139536201Y-106460560D01*
X139536547Y-106459723D01*
X139482822Y-106426969D01*
X139452299Y-106364119D01*
X139451645Y-106327382D01*
X139455250Y-106300000D01*
X139455250Y-106299999D01*
X139449358Y-106255250D01*
X139436330Y-106156291D01*
X139386641Y-106036329D01*
X139380862Y-106022377D01*
X139380861Y-106022376D01*
X139380861Y-106022375D01*
X139292621Y-105907379D01*
X139177625Y-105819139D01*
X139177624Y-105819138D01*
X139177622Y-105819137D01*
X139043712Y-105763671D01*
X139043710Y-105763670D01*
X139043709Y-105763670D01*
X138971854Y-105754210D01*
X138900001Y-105744750D01*
X138899999Y-105744750D01*
X138756291Y-105763670D01*
X138756287Y-105763671D01*
X138622377Y-105819137D01*
X138590356Y-105843708D01*
X138507379Y-105907379D01*
X138507378Y-105907380D01*
X138507377Y-105907381D01*
X138498375Y-105919113D01*
X138441947Y-105960316D01*
X138372201Y-105964470D01*
X138311281Y-105930257D01*
X138301625Y-105919113D01*
X138296515Y-105912454D01*
X138292621Y-105907379D01*
X138177625Y-105819139D01*
X138177624Y-105819138D01*
X138177622Y-105819137D01*
X138043712Y-105763671D01*
X138043710Y-105763670D01*
X138043709Y-105763670D01*
X137971854Y-105754210D01*
X137900001Y-105744750D01*
X137899999Y-105744750D01*
X137756291Y-105763670D01*
X137756287Y-105763671D01*
X137622377Y-105819137D01*
X137590356Y-105843708D01*
X137507379Y-105907379D01*
X137507378Y-105907380D01*
X137507377Y-105907381D01*
X137498375Y-105919113D01*
X137441947Y-105960316D01*
X137372201Y-105964470D01*
X137311281Y-105930257D01*
X137301625Y-105919113D01*
X137296515Y-105912454D01*
X137292621Y-105907379D01*
X137177625Y-105819139D01*
X137177624Y-105819138D01*
X137177622Y-105819137D01*
X137043712Y-105763671D01*
X137043710Y-105763670D01*
X137043709Y-105763670D01*
X136971854Y-105754210D01*
X136900001Y-105744750D01*
X136899999Y-105744750D01*
X136756291Y-105763670D01*
X136756287Y-105763671D01*
X136622377Y-105819137D01*
X136507379Y-105907379D01*
X136419137Y-106022377D01*
X136363671Y-106156287D01*
X136363670Y-106156291D01*
X136345722Y-106292620D01*
X136344750Y-106300000D01*
X129000500Y-106300000D01*
X129000500Y-104000000D01*
X136244750Y-104000000D01*
X136263670Y-104143708D01*
X136263671Y-104143712D01*
X136319137Y-104277622D01*
X136319138Y-104277624D01*
X136319139Y-104277625D01*
X136407379Y-104392621D01*
X136522375Y-104480861D01*
X136656291Y-104536330D01*
X136778246Y-104552386D01*
X136799999Y-104555250D01*
X136800000Y-104555250D01*
X136800001Y-104555250D01*
X136814977Y-104553278D01*
X136943709Y-104536330D01*
X137077625Y-104480861D01*
X137192621Y-104392621D01*
X137280861Y-104277625D01*
X137336330Y-104143709D01*
X137355250Y-104000000D01*
X137336330Y-103856291D01*
X137280861Y-103722375D01*
X137244881Y-103675485D01*
X137219687Y-103610318D01*
X137233725Y-103541873D01*
X137244880Y-103524516D01*
X137280861Y-103477625D01*
X137336330Y-103343709D01*
X137355250Y-103200000D01*
X137340444Y-103087540D01*
X137351209Y-103018506D01*
X137387893Y-102972981D01*
X137424515Y-102944880D01*
X137489681Y-102919687D01*
X137558126Y-102933725D01*
X137575483Y-102944880D01*
X137622375Y-102980861D01*
X137756291Y-103036330D01*
X137883280Y-103053048D01*
X137899999Y-103055250D01*
X137900000Y-103055250D01*
X137900001Y-103055250D01*
X137914977Y-103053278D01*
X138043709Y-103036330D01*
X138177625Y-102980861D01*
X138224514Y-102944881D01*
X138289682Y-102919687D01*
X138358127Y-102933725D01*
X138375483Y-102944880D01*
X138422375Y-102980861D01*
X138556291Y-103036330D01*
X138683280Y-103053048D01*
X138699999Y-103055250D01*
X138700000Y-103055250D01*
X138700001Y-103055250D01*
X138714977Y-103053278D01*
X138843709Y-103036330D01*
X138977625Y-102980861D01*
X139092621Y-102892621D01*
X139180861Y-102777625D01*
X139236330Y-102643709D01*
X139255250Y-102500000D01*
X139236330Y-102356291D01*
X139186641Y-102236329D01*
X139180862Y-102222377D01*
X139180861Y-102222376D01*
X139180861Y-102222375D01*
X139092621Y-102107379D01*
X138977625Y-102019139D01*
X138977624Y-102019138D01*
X138977622Y-102019137D01*
X138843712Y-101963671D01*
X138843710Y-101963670D01*
X138843709Y-101963670D01*
X138771551Y-101954170D01*
X138700001Y-101944750D01*
X138699999Y-101944750D01*
X138556291Y-101963670D01*
X138556287Y-101963671D01*
X138422376Y-102019138D01*
X138422374Y-102019139D01*
X138375486Y-102055118D01*
X138310317Y-102080312D01*
X138241872Y-102066274D01*
X138224514Y-102055118D01*
X138177625Y-102019139D01*
X138177623Y-102019138D01*
X138043712Y-101963671D01*
X138043710Y-101963670D01*
X138043709Y-101963670D01*
X137971551Y-101954170D01*
X137900001Y-101944750D01*
X137899999Y-101944750D01*
X137756291Y-101963670D01*
X137756287Y-101963671D01*
X137622376Y-102019138D01*
X137622374Y-102019139D01*
X137575486Y-102055118D01*
X137510317Y-102080312D01*
X137441872Y-102066274D01*
X137424514Y-102055118D01*
X137377625Y-102019139D01*
X137377623Y-102019138D01*
X137243712Y-101963671D01*
X137243710Y-101963670D01*
X137243709Y-101963670D01*
X137171551Y-101954170D01*
X137100001Y-101944750D01*
X137099999Y-101944750D01*
X136956291Y-101963670D01*
X136956287Y-101963671D01*
X136822377Y-102019137D01*
X136707379Y-102107379D01*
X136619137Y-102222377D01*
X136563671Y-102356287D01*
X136563670Y-102356291D01*
X136544750Y-102499999D01*
X136544750Y-102500002D01*
X136559555Y-102612460D01*
X136548789Y-102681495D01*
X136512103Y-102727020D01*
X136407381Y-102807377D01*
X136407380Y-102807378D01*
X136407379Y-102807379D01*
X136391602Y-102827940D01*
X136319137Y-102922377D01*
X136263671Y-103056287D01*
X136263670Y-103056291D01*
X136244750Y-103199999D01*
X136244750Y-103200000D01*
X136263670Y-103343708D01*
X136263671Y-103343712D01*
X136319138Y-103477623D01*
X136319139Y-103477625D01*
X136355118Y-103524514D01*
X136380312Y-103589683D01*
X136366274Y-103658128D01*
X136355118Y-103675486D01*
X136319139Y-103722374D01*
X136319138Y-103722376D01*
X136263671Y-103856287D01*
X136263670Y-103856291D01*
X136244750Y-103999999D01*
X136244750Y-104000000D01*
X129000500Y-104000000D01*
X129000500Y-102229414D01*
X133351788Y-102229414D01*
X133371983Y-102408661D01*
X133371984Y-102408666D01*
X133431564Y-102578935D01*
X133505946Y-102697312D01*
X133527537Y-102731674D01*
X133655091Y-102859228D01*
X133807831Y-102955201D01*
X133881166Y-102980862D01*
X133978098Y-103014780D01*
X133978103Y-103014781D01*
X134064685Y-103024536D01*
X134112393Y-103029911D01*
X134112396Y-103029912D01*
X134112399Y-103029912D01*
X134752310Y-103029912D01*
X134752311Y-103029911D01*
X134819457Y-103022345D01*
X134886602Y-103014781D01*
X134886605Y-103014780D01*
X134886608Y-103014780D01*
X135056875Y-102955201D01*
X135209615Y-102859228D01*
X135337169Y-102731674D01*
X135433142Y-102578934D01*
X135492721Y-102408667D01*
X135497919Y-102362538D01*
X135512918Y-102229414D01*
X135512918Y-102229408D01*
X135492722Y-102050162D01*
X135492721Y-102050157D01*
X135459876Y-101956291D01*
X135433142Y-101879890D01*
X135422236Y-101862534D01*
X135378307Y-101792621D01*
X135337169Y-101727150D01*
X135209615Y-101599596D01*
X135204347Y-101596286D01*
X135056876Y-101503623D01*
X134886607Y-101444043D01*
X134886602Y-101444042D01*
X134752313Y-101428912D01*
X134752307Y-101428912D01*
X134112399Y-101428912D01*
X134112392Y-101428912D01*
X133978103Y-101444042D01*
X133978098Y-101444043D01*
X133807829Y-101503623D01*
X133655090Y-101599596D01*
X133527537Y-101727149D01*
X133431564Y-101879888D01*
X133371984Y-102050157D01*
X133371983Y-102050162D01*
X133351788Y-102229408D01*
X133351788Y-102229414D01*
X129000500Y-102229414D01*
X129000500Y-100229415D01*
X133351788Y-100229415D01*
X133371983Y-100408661D01*
X133371984Y-100408666D01*
X133431564Y-100578935D01*
X133472081Y-100643417D01*
X133527537Y-100731674D01*
X133655091Y-100859228D01*
X133719978Y-100899999D01*
X133750435Y-100919137D01*
X133807831Y-100955201D01*
X133956947Y-101007379D01*
X133978098Y-101014780D01*
X133978103Y-101014781D01*
X134068599Y-101024977D01*
X134112393Y-101029911D01*
X134112396Y-101029912D01*
X134112399Y-101029912D01*
X134752310Y-101029912D01*
X134752311Y-101029911D01*
X134819457Y-101022345D01*
X134886602Y-101014781D01*
X134886605Y-101014780D01*
X134886608Y-101014780D01*
X135056875Y-100955201D01*
X135209615Y-100859228D01*
X135337169Y-100731674D01*
X135433142Y-100578934D01*
X135492721Y-100408667D01*
X135512918Y-100229412D01*
X135492721Y-100050157D01*
X135433142Y-99879890D01*
X135404136Y-99833728D01*
X135369693Y-99778912D01*
X135337169Y-99727150D01*
X135209615Y-99599596D01*
X135167891Y-99573379D01*
X135056876Y-99503623D01*
X134886607Y-99444043D01*
X134886602Y-99444042D01*
X134752313Y-99428912D01*
X134752307Y-99428912D01*
X134112399Y-99428912D01*
X134112392Y-99428912D01*
X133978103Y-99444042D01*
X133978098Y-99444043D01*
X133807829Y-99503623D01*
X133655090Y-99599596D01*
X133527537Y-99727149D01*
X133431564Y-99879888D01*
X133371984Y-100050157D01*
X133371983Y-100050162D01*
X133351788Y-100229408D01*
X133351788Y-100229415D01*
X129000500Y-100229415D01*
X129000500Y-98229415D01*
X133351788Y-98229415D01*
X133371983Y-98408661D01*
X133371984Y-98408666D01*
X133431564Y-98578935D01*
X133495013Y-98679912D01*
X133527537Y-98731674D01*
X133655091Y-98859228D01*
X133807831Y-98955201D01*
X133978098Y-99014780D01*
X133978103Y-99014781D01*
X134068599Y-99024977D01*
X134112393Y-99029911D01*
X134112396Y-99029912D01*
X134112399Y-99029912D01*
X134752310Y-99029912D01*
X134752311Y-99029911D01*
X134819457Y-99022345D01*
X134886602Y-99014781D01*
X134886605Y-99014780D01*
X134886608Y-99014780D01*
X135056875Y-98955201D01*
X135209615Y-98859228D01*
X135337169Y-98731674D01*
X135433142Y-98578934D01*
X135492721Y-98408667D01*
X135499181Y-98351332D01*
X135512918Y-98229415D01*
X135512918Y-98229408D01*
X135492722Y-98050162D01*
X135492721Y-98050157D01*
X135469344Y-97983349D01*
X135433142Y-97879890D01*
X135337169Y-97727150D01*
X135209615Y-97599596D01*
X135056876Y-97503623D01*
X134886607Y-97444043D01*
X134886602Y-97444042D01*
X134752313Y-97428912D01*
X134752307Y-97428912D01*
X134112399Y-97428912D01*
X134112392Y-97428912D01*
X133978103Y-97444042D01*
X133978098Y-97444043D01*
X133807829Y-97503623D01*
X133655090Y-97599596D01*
X133527537Y-97727149D01*
X133431564Y-97879888D01*
X133371984Y-98050157D01*
X133371983Y-98050162D01*
X133351788Y-98229408D01*
X133351788Y-98229415D01*
X129000500Y-98229415D01*
X129000500Y-96633681D01*
X133356853Y-96633681D01*
X133359706Y-96664111D01*
X133359706Y-96664113D01*
X133404559Y-96792292D01*
X133404560Y-96792294D01*
X133485203Y-96901562D01*
X133594471Y-96982205D01*
X133637198Y-96997156D01*
X133722652Y-97027058D01*
X133753083Y-97029912D01*
X133753087Y-97029912D01*
X135111623Y-97029912D01*
X135142052Y-97027058D01*
X135142054Y-97027058D01*
X135206143Y-97004631D01*
X135270235Y-96982205D01*
X135379503Y-96901562D01*
X135460146Y-96792294D01*
X135489859Y-96707379D01*
X135504999Y-96664113D01*
X135504999Y-96664111D01*
X135507853Y-96633681D01*
X135507853Y-95825142D01*
X135504999Y-95794712D01*
X135504999Y-95794710D01*
X135460146Y-95666531D01*
X135460145Y-95666529D01*
X135379503Y-95557262D01*
X135270235Y-95476619D01*
X135270233Y-95476618D01*
X135142053Y-95431765D01*
X135111623Y-95428912D01*
X135111619Y-95428912D01*
X133753087Y-95428912D01*
X133753083Y-95428912D01*
X133722653Y-95431765D01*
X133722651Y-95431765D01*
X133594472Y-95476618D01*
X133594470Y-95476619D01*
X133485203Y-95557262D01*
X133404560Y-95666529D01*
X133404559Y-95666531D01*
X133359706Y-95794710D01*
X133359706Y-95794712D01*
X133356853Y-95825142D01*
X133356853Y-96633681D01*
X129000500Y-96633681D01*
X129000500Y-95229412D01*
X136227103Y-95229412D01*
X136246023Y-95373120D01*
X136246024Y-95373124D01*
X136301490Y-95507034D01*
X136301491Y-95507036D01*
X136301492Y-95507037D01*
X136389732Y-95622033D01*
X136494457Y-95702392D01*
X136535658Y-95758818D01*
X136541908Y-95816951D01*
X136533491Y-95880888D01*
X136527103Y-95929412D01*
X136533450Y-95977625D01*
X136546023Y-96073120D01*
X136546024Y-96073124D01*
X136601490Y-96207034D01*
X136601491Y-96207036D01*
X136601492Y-96207037D01*
X136689732Y-96322033D01*
X136804728Y-96410273D01*
X136938644Y-96465742D01*
X137065633Y-96482460D01*
X137082352Y-96484662D01*
X137082353Y-96484662D01*
X137082354Y-96484662D01*
X137097330Y-96482690D01*
X137226062Y-96465742D01*
X137359978Y-96410273D01*
X137406867Y-96374293D01*
X137472035Y-96349099D01*
X137540480Y-96363137D01*
X137557836Y-96374292D01*
X137604728Y-96410273D01*
X137738644Y-96465742D01*
X137865633Y-96482460D01*
X137882352Y-96484662D01*
X137882353Y-96484662D01*
X137882354Y-96484662D01*
X137897330Y-96482690D01*
X138026062Y-96465742D01*
X138159978Y-96410273D01*
X138206867Y-96374293D01*
X138272035Y-96349099D01*
X138340480Y-96363137D01*
X138357836Y-96374292D01*
X138404728Y-96410273D01*
X138538644Y-96465742D01*
X138665633Y-96482460D01*
X138682352Y-96484662D01*
X138682353Y-96484662D01*
X138682354Y-96484662D01*
X138697330Y-96482690D01*
X138826062Y-96465742D01*
X138959978Y-96410273D01*
X139074974Y-96322033D01*
X139163214Y-96207037D01*
X139218683Y-96073121D01*
X139237603Y-95929412D01*
X139218683Y-95785703D01*
X139163214Y-95651787D01*
X139074974Y-95536791D01*
X138959978Y-95448551D01*
X138959977Y-95448550D01*
X138959975Y-95448549D01*
X138826065Y-95393083D01*
X138826063Y-95393082D01*
X138826062Y-95393082D01*
X138754207Y-95383621D01*
X138682354Y-95374162D01*
X138682352Y-95374162D01*
X138538644Y-95393082D01*
X138538640Y-95393083D01*
X138404729Y-95448550D01*
X138404727Y-95448551D01*
X138357839Y-95484530D01*
X138292670Y-95509724D01*
X138224225Y-95495686D01*
X138206867Y-95484530D01*
X138159978Y-95448551D01*
X138159976Y-95448550D01*
X138026065Y-95393083D01*
X138026063Y-95393082D01*
X138026062Y-95393082D01*
X137954207Y-95383621D01*
X137882354Y-95374162D01*
X137882352Y-95374162D01*
X137738644Y-95393082D01*
X137738640Y-95393083D01*
X137604729Y-95448550D01*
X137604727Y-95448551D01*
X137557839Y-95484530D01*
X137492670Y-95509724D01*
X137424225Y-95495686D01*
X137406867Y-95484530D01*
X137370250Y-95456433D01*
X137329047Y-95400005D01*
X137322797Y-95341871D01*
X137337603Y-95229412D01*
X137337603Y-95229411D01*
X137329065Y-95164560D01*
X137318683Y-95085703D01*
X137263214Y-94951787D01*
X137227234Y-94904897D01*
X137202040Y-94839730D01*
X137216078Y-94771285D01*
X137227233Y-94753928D01*
X137263214Y-94707037D01*
X137318683Y-94573121D01*
X137337603Y-94429412D01*
X137318683Y-94285703D01*
X137263214Y-94151787D01*
X137174974Y-94036791D01*
X137059978Y-93948551D01*
X137059977Y-93948550D01*
X137059975Y-93948549D01*
X136926065Y-93893083D01*
X136926063Y-93893082D01*
X136926062Y-93893082D01*
X136854207Y-93883621D01*
X136782354Y-93874162D01*
X136782352Y-93874162D01*
X136638644Y-93893082D01*
X136638640Y-93893083D01*
X136504730Y-93948549D01*
X136389732Y-94036791D01*
X136301490Y-94151789D01*
X136246024Y-94285699D01*
X136246023Y-94285703D01*
X136227103Y-94429412D01*
X136233685Y-94479410D01*
X136246023Y-94573120D01*
X136246024Y-94573124D01*
X136301491Y-94707035D01*
X136301492Y-94707037D01*
X136337471Y-94753926D01*
X136362665Y-94819095D01*
X136348627Y-94887540D01*
X136337471Y-94904898D01*
X136301492Y-94951786D01*
X136301491Y-94951788D01*
X136246024Y-95085699D01*
X136246023Y-95085703D01*
X136227103Y-95229411D01*
X136227103Y-95229412D01*
X129000500Y-95229412D01*
X129000500Y-90700000D01*
X136344750Y-90700000D01*
X136362698Y-90836329D01*
X136363670Y-90843708D01*
X136363671Y-90843712D01*
X136419137Y-90977622D01*
X136419138Y-90977624D01*
X136419139Y-90977625D01*
X136507379Y-91092621D01*
X136622375Y-91180861D01*
X136622376Y-91180861D01*
X136622377Y-91180862D01*
X136667013Y-91199350D01*
X136756291Y-91236330D01*
X136883280Y-91253048D01*
X136899999Y-91255250D01*
X136900000Y-91255250D01*
X136900001Y-91255250D01*
X136914977Y-91253278D01*
X137043709Y-91236330D01*
X137177625Y-91180861D01*
X137292621Y-91092621D01*
X137380861Y-90977625D01*
X137436330Y-90843709D01*
X137442085Y-90800000D01*
X138544750Y-90800000D01*
X138562698Y-90936329D01*
X138563670Y-90943708D01*
X138563671Y-90943712D01*
X138619137Y-91077622D01*
X138619138Y-91077624D01*
X138619139Y-91077625D01*
X138707379Y-91192621D01*
X138822375Y-91280861D01*
X138956291Y-91336330D01*
X139083280Y-91353048D01*
X139099999Y-91355250D01*
X139100000Y-91355250D01*
X139100001Y-91355250D01*
X139114977Y-91353278D01*
X139243709Y-91336330D01*
X139377625Y-91280861D01*
X139492621Y-91192621D01*
X139580861Y-91077625D01*
X139636330Y-90943709D01*
X139655250Y-90800000D01*
X139636330Y-90656291D01*
X139580861Y-90522375D01*
X139544881Y-90475485D01*
X139519687Y-90410318D01*
X139521803Y-90400000D01*
X141144750Y-90400000D01*
X141160861Y-90522376D01*
X141163670Y-90543708D01*
X141163671Y-90543712D01*
X141219137Y-90677622D01*
X141219138Y-90677624D01*
X141219139Y-90677625D01*
X141307379Y-90792621D01*
X141422375Y-90880861D01*
X141556291Y-90936330D01*
X141683280Y-90953048D01*
X141699999Y-90955250D01*
X141700000Y-90955250D01*
X141700001Y-90955250D01*
X141714977Y-90953278D01*
X141843709Y-90936330D01*
X141977625Y-90880861D01*
X142092621Y-90792621D01*
X142180861Y-90677625D01*
X142236330Y-90543709D01*
X142255250Y-90400000D01*
X142253891Y-90389681D01*
X142247630Y-90342121D01*
X142242085Y-90300000D01*
X148044750Y-90300000D01*
X148057915Y-90400000D01*
X148063670Y-90443708D01*
X148063671Y-90443712D01*
X148119137Y-90577622D01*
X148119138Y-90577624D01*
X148119139Y-90577625D01*
X148207379Y-90692621D01*
X148322375Y-90780861D01*
X148322376Y-90780861D01*
X148322377Y-90780862D01*
X148367013Y-90799350D01*
X148456291Y-90836330D01*
X148583280Y-90853048D01*
X148599999Y-90855250D01*
X148600000Y-90855250D01*
X148600001Y-90855250D01*
X148614977Y-90853278D01*
X148743709Y-90836330D01*
X148877625Y-90780861D01*
X148992621Y-90692621D01*
X149080861Y-90577625D01*
X149136330Y-90443709D01*
X149155250Y-90300000D01*
X149136330Y-90156291D01*
X149080861Y-90022375D01*
X149024942Y-89949500D01*
X151544750Y-89949500D01*
X151563670Y-90093208D01*
X151563671Y-90093212D01*
X151619137Y-90227122D01*
X151619138Y-90227124D01*
X151619139Y-90227125D01*
X151707379Y-90342121D01*
X151822375Y-90430361D01*
X151956291Y-90485830D01*
X152083280Y-90502548D01*
X152099999Y-90504750D01*
X152100000Y-90504750D01*
X152100001Y-90504750D01*
X152114977Y-90502778D01*
X152243709Y-90485830D01*
X152331791Y-90449345D01*
X152401257Y-90441877D01*
X152463737Y-90473152D01*
X152493800Y-90516451D01*
X152519139Y-90577625D01*
X152607379Y-90692621D01*
X152722375Y-90780861D01*
X152722376Y-90780861D01*
X152722377Y-90780862D01*
X152767013Y-90799350D01*
X152856291Y-90836330D01*
X152983280Y-90853048D01*
X152999999Y-90855250D01*
X153000000Y-90855250D01*
X153000001Y-90855250D01*
X153014977Y-90853278D01*
X153143709Y-90836330D01*
X153277625Y-90780861D01*
X153392621Y-90692621D01*
X153480861Y-90577625D01*
X153536330Y-90443709D01*
X153555250Y-90300000D01*
X153536330Y-90156291D01*
X153480861Y-90022375D01*
X153392621Y-89907379D01*
X153277625Y-89819139D01*
X153277624Y-89819138D01*
X153277622Y-89819137D01*
X153143712Y-89763671D01*
X153143710Y-89763670D01*
X153143709Y-89763670D01*
X153071854Y-89754210D01*
X153000001Y-89744750D01*
X152999999Y-89744750D01*
X152856291Y-89763670D01*
X152768209Y-89800154D01*
X152698740Y-89807622D01*
X152636261Y-89776346D01*
X152606199Y-89733047D01*
X152580861Y-89671875D01*
X152492621Y-89556879D01*
X152377625Y-89468639D01*
X152377624Y-89468638D01*
X152377622Y-89468637D01*
X152243712Y-89413171D01*
X152243710Y-89413170D01*
X152243709Y-89413170D01*
X152171854Y-89403709D01*
X152100001Y-89394250D01*
X152099999Y-89394250D01*
X151956291Y-89413170D01*
X151956287Y-89413171D01*
X151822377Y-89468637D01*
X151707379Y-89556879D01*
X151619137Y-89671877D01*
X151563671Y-89805787D01*
X151563670Y-89805791D01*
X151544750Y-89949499D01*
X151544750Y-89949500D01*
X149024942Y-89949500D01*
X148992621Y-89907379D01*
X148877625Y-89819139D01*
X148877624Y-89819138D01*
X148877622Y-89819137D01*
X148743712Y-89763671D01*
X148743710Y-89763670D01*
X148743709Y-89763670D01*
X148671854Y-89754210D01*
X148600001Y-89744750D01*
X148599999Y-89744750D01*
X148456291Y-89763670D01*
X148456287Y-89763671D01*
X148322377Y-89819137D01*
X148207379Y-89907379D01*
X148119137Y-90022377D01*
X148063671Y-90156287D01*
X148063670Y-90156291D01*
X148050505Y-90256291D01*
X148044750Y-90300000D01*
X142242085Y-90300000D01*
X142236330Y-90256291D01*
X142180861Y-90122375D01*
X142092621Y-90007379D01*
X141977625Y-89919139D01*
X141977624Y-89919138D01*
X141977622Y-89919137D01*
X141843712Y-89863671D01*
X141843710Y-89863670D01*
X141843709Y-89863670D01*
X141771854Y-89854210D01*
X141700001Y-89844750D01*
X141699999Y-89844750D01*
X141556291Y-89863670D01*
X141556287Y-89863671D01*
X141422377Y-89919137D01*
X141307379Y-90007379D01*
X141219137Y-90122377D01*
X141163671Y-90256287D01*
X141163670Y-90256291D01*
X141146109Y-90389681D01*
X141144750Y-90400000D01*
X139521803Y-90400000D01*
X139533725Y-90341873D01*
X139544882Y-90324513D01*
X139544883Y-90324512D01*
X139580861Y-90277625D01*
X139636330Y-90143709D01*
X139655250Y-90000000D01*
X139636330Y-89856291D01*
X139580861Y-89722375D01*
X139492621Y-89607379D01*
X139377625Y-89519139D01*
X139377624Y-89519138D01*
X139377622Y-89519137D01*
X139243712Y-89463671D01*
X139243710Y-89463670D01*
X139243709Y-89463670D01*
X139171854Y-89454210D01*
X139100001Y-89444750D01*
X139099999Y-89444750D01*
X138956291Y-89463670D01*
X138956287Y-89463671D01*
X138822377Y-89519137D01*
X138707379Y-89607379D01*
X138619137Y-89722377D01*
X138563671Y-89856287D01*
X138563670Y-89856291D01*
X138551399Y-89949500D01*
X138544750Y-90000000D01*
X138557021Y-90093209D01*
X138563670Y-90143708D01*
X138563671Y-90143712D01*
X138619138Y-90277623D01*
X138619139Y-90277626D01*
X138655117Y-90324512D01*
X138680312Y-90389681D01*
X138666274Y-90458126D01*
X138655119Y-90475484D01*
X138619138Y-90522375D01*
X138619138Y-90522376D01*
X138563671Y-90656287D01*
X138563670Y-90656291D01*
X138545722Y-90792620D01*
X138544750Y-90800000D01*
X137442085Y-90800000D01*
X137455250Y-90700000D01*
X137436330Y-90556291D01*
X137380861Y-90422375D01*
X137292621Y-90307379D01*
X137177625Y-90219139D01*
X137177624Y-90219138D01*
X137177622Y-90219137D01*
X137043712Y-90163671D01*
X137043710Y-90163670D01*
X137043709Y-90163670D01*
X136971854Y-90154210D01*
X136900001Y-90144750D01*
X136899999Y-90144750D01*
X136756291Y-90163670D01*
X136756287Y-90163671D01*
X136622377Y-90219137D01*
X136507379Y-90307379D01*
X136419137Y-90422377D01*
X136363671Y-90556287D01*
X136363670Y-90556291D01*
X136345722Y-90692620D01*
X136344750Y-90700000D01*
X129000500Y-90700000D01*
X129000500Y-88700000D01*
X139844750Y-88700000D01*
X139863670Y-88843708D01*
X139863671Y-88843712D01*
X139919137Y-88977622D01*
X139919138Y-88977624D01*
X139919139Y-88977625D01*
X140007379Y-89092621D01*
X140122375Y-89180861D01*
X140256291Y-89236330D01*
X140383280Y-89253048D01*
X140399999Y-89255250D01*
X140400000Y-89255250D01*
X140400001Y-89255250D01*
X140414977Y-89253278D01*
X140543709Y-89236330D01*
X140677625Y-89180861D01*
X140792621Y-89092621D01*
X140880861Y-88977625D01*
X140936330Y-88843709D01*
X140955250Y-88700001D01*
X145794318Y-88700001D01*
X145814955Y-88856760D01*
X145814956Y-88856762D01*
X145823596Y-88877622D01*
X145875464Y-89002841D01*
X145971718Y-89128282D01*
X146097159Y-89224536D01*
X146243238Y-89285044D01*
X146321619Y-89295363D01*
X146399999Y-89305682D01*
X146400000Y-89305682D01*
X146400001Y-89305682D01*
X146452254Y-89298802D01*
X146556762Y-89285044D01*
X146702841Y-89224536D01*
X146828282Y-89128282D01*
X146924536Y-89002841D01*
X146985044Y-88856762D01*
X147005682Y-88700000D01*
X146992517Y-88600000D01*
X151244750Y-88600000D01*
X151257915Y-88700000D01*
X151263670Y-88743708D01*
X151263671Y-88743712D01*
X151319137Y-88877622D01*
X151319138Y-88877624D01*
X151319139Y-88877625D01*
X151407379Y-88992621D01*
X151522375Y-89080861D01*
X151522376Y-89080861D01*
X151522377Y-89080862D01*
X151567013Y-89099350D01*
X151656291Y-89136330D01*
X151783280Y-89153048D01*
X151799999Y-89155250D01*
X151800000Y-89155250D01*
X151800001Y-89155250D01*
X151814977Y-89153278D01*
X151943709Y-89136330D01*
X152077625Y-89080861D01*
X152192621Y-88992621D01*
X152280861Y-88877625D01*
X152336330Y-88743709D01*
X152355250Y-88600000D01*
X152336330Y-88456291D01*
X152280861Y-88322375D01*
X152192621Y-88207379D01*
X152077625Y-88119139D01*
X152077624Y-88119138D01*
X152077622Y-88119137D01*
X151943712Y-88063671D01*
X151943710Y-88063670D01*
X151943709Y-88063670D01*
X151871854Y-88054210D01*
X151800001Y-88044750D01*
X151799999Y-88044750D01*
X151656291Y-88063670D01*
X151656287Y-88063671D01*
X151522377Y-88119137D01*
X151407379Y-88207379D01*
X151319137Y-88322377D01*
X151263671Y-88456287D01*
X151263670Y-88456291D01*
X151250505Y-88556291D01*
X151244750Y-88600000D01*
X146992517Y-88600000D01*
X146985044Y-88543238D01*
X146924536Y-88397159D01*
X146828282Y-88271718D01*
X146702841Y-88175464D01*
X146674370Y-88163671D01*
X146556762Y-88114956D01*
X146556760Y-88114955D01*
X146400001Y-88094318D01*
X146399999Y-88094318D01*
X146243239Y-88114955D01*
X146243237Y-88114956D01*
X146097160Y-88175463D01*
X145971718Y-88271718D01*
X145875463Y-88397160D01*
X145814956Y-88543237D01*
X145814955Y-88543239D01*
X145794318Y-88699998D01*
X145794318Y-88700001D01*
X140955250Y-88700001D01*
X140955250Y-88700000D01*
X140936330Y-88556291D01*
X140880861Y-88422375D01*
X140792621Y-88307379D01*
X140677625Y-88219139D01*
X140677624Y-88219138D01*
X140677622Y-88219137D01*
X140543712Y-88163671D01*
X140543710Y-88163670D01*
X140543709Y-88163670D01*
X140471854Y-88154210D01*
X140400001Y-88144750D01*
X140399999Y-88144750D01*
X140256291Y-88163670D01*
X140256287Y-88163671D01*
X140122377Y-88219137D01*
X140007379Y-88307379D01*
X139919137Y-88422377D01*
X139863671Y-88556287D01*
X139863670Y-88556291D01*
X139844750Y-88699999D01*
X139844750Y-88700000D01*
X129000500Y-88700000D01*
X129000500Y-84684371D01*
X131099500Y-84684371D01*
X131139367Y-85050946D01*
X131218635Y-85411065D01*
X131245803Y-85491696D01*
X131336375Y-85760503D01*
X131336377Y-85760508D01*
X131336379Y-85760513D01*
X131491200Y-86095153D01*
X131491202Y-86095157D01*
X131491204Y-86095161D01*
X131491205Y-86095162D01*
X131681310Y-86411119D01*
X131904462Y-86704670D01*
X132158044Y-86972373D01*
X132439083Y-87211090D01*
X132744284Y-87418022D01*
X132744288Y-87418024D01*
X132744291Y-87418026D01*
X132898907Y-87499998D01*
X133070070Y-87590743D01*
X133412621Y-87727227D01*
X133412627Y-87727228D01*
X133412628Y-87727229D01*
X133412634Y-87727231D01*
X133684951Y-87802839D01*
X133767919Y-87825875D01*
X133767930Y-87825876D01*
X133767931Y-87825877D01*
X134131786Y-87885529D01*
X134131790Y-87885529D01*
X134131801Y-87885531D01*
X134407890Y-87900500D01*
X134407892Y-87900500D01*
X134592108Y-87900500D01*
X134592110Y-87900500D01*
X134868199Y-87885531D01*
X134868210Y-87885529D01*
X134868213Y-87885529D01*
X135120077Y-87844237D01*
X135232081Y-87825875D01*
X135587379Y-87727227D01*
X135929930Y-87590743D01*
X136255716Y-87418022D01*
X136560917Y-87211090D01*
X136788977Y-87017374D01*
X138479500Y-87017374D01*
X138494859Y-87143868D01*
X138494860Y-87143874D01*
X138555182Y-87302931D01*
X138583005Y-87343239D01*
X138651817Y-87442929D01*
X138757505Y-87536560D01*
X138779150Y-87555736D01*
X138929773Y-87634789D01*
X138929775Y-87634790D01*
X139094944Y-87675500D01*
X139265056Y-87675500D01*
X139430225Y-87634790D01*
X139514158Y-87590738D01*
X139580849Y-87555736D01*
X139580850Y-87555734D01*
X139580852Y-87555734D01*
X139708183Y-87442929D01*
X139804818Y-87302930D01*
X139865140Y-87143872D01*
X139880500Y-87017372D01*
X139880500Y-86271521D01*
X139900185Y-86204482D01*
X139952989Y-86158727D01*
X140022147Y-86148783D01*
X140085703Y-86177808D01*
X140102876Y-86196035D01*
X140103807Y-86197249D01*
X140103808Y-86197250D01*
X140196696Y-86318304D01*
X140317750Y-86411192D01*
X140458720Y-86469584D01*
X140515370Y-86477042D01*
X140572019Y-86484500D01*
X140572020Y-86484500D01*
X140647981Y-86484500D01*
X140685746Y-86479528D01*
X140761280Y-86469584D01*
X140902250Y-86411192D01*
X141023304Y-86318304D01*
X141116192Y-86197250D01*
X141174584Y-86056280D01*
X141194500Y-85905001D01*
X145805500Y-85905001D01*
X145825415Y-86056278D01*
X145825416Y-86056280D01*
X145883806Y-86197247D01*
X145883807Y-86197249D01*
X145883808Y-86197250D01*
X145976696Y-86318304D01*
X146097750Y-86411192D01*
X146238720Y-86469584D01*
X146295370Y-86477042D01*
X146352019Y-86484500D01*
X146352020Y-86484500D01*
X146427981Y-86484500D01*
X146465746Y-86479528D01*
X146541280Y-86469584D01*
X146682250Y-86411192D01*
X146803304Y-86318304D01*
X146896192Y-86197250D01*
X146896192Y-86197249D01*
X146897124Y-86196035D01*
X146953552Y-86154832D01*
X147023298Y-86150677D01*
X147084218Y-86184889D01*
X147116971Y-86246607D01*
X147119500Y-86271521D01*
X147119500Y-87017374D01*
X147134859Y-87143868D01*
X147134860Y-87143874D01*
X147195182Y-87302931D01*
X147223005Y-87343239D01*
X147291817Y-87442929D01*
X147397505Y-87536560D01*
X147419150Y-87555736D01*
X147569773Y-87634789D01*
X147569775Y-87634790D01*
X147734944Y-87675500D01*
X147905056Y-87675500D01*
X148070225Y-87634790D01*
X148154158Y-87590738D01*
X148220849Y-87555736D01*
X148220850Y-87555734D01*
X148220852Y-87555734D01*
X148283762Y-87500001D01*
X159494318Y-87500001D01*
X159514955Y-87656760D01*
X159514956Y-87656762D01*
X159575464Y-87802841D01*
X159671718Y-87928282D01*
X159797159Y-88024536D01*
X159943238Y-88085044D01*
X160013681Y-88094318D01*
X160099999Y-88105682D01*
X160100000Y-88105682D01*
X160100001Y-88105682D01*
X160152254Y-88098802D01*
X160256762Y-88085044D01*
X160402841Y-88024536D01*
X160528282Y-87928282D01*
X160624536Y-87802841D01*
X160685044Y-87656762D01*
X160705682Y-87500000D01*
X160698168Y-87442929D01*
X160685044Y-87343239D01*
X160685044Y-87343238D01*
X160624536Y-87197159D01*
X160528282Y-87071718D01*
X160402841Y-86975464D01*
X160256762Y-86914956D01*
X160256760Y-86914955D01*
X160100001Y-86894318D01*
X160099999Y-86894318D01*
X159943239Y-86914955D01*
X159943237Y-86914956D01*
X159797160Y-86975463D01*
X159671718Y-87071718D01*
X159575463Y-87197160D01*
X159514956Y-87343237D01*
X159514955Y-87343239D01*
X159494318Y-87499998D01*
X159494318Y-87500001D01*
X148283762Y-87500001D01*
X148348183Y-87442929D01*
X148444818Y-87302930D01*
X148505140Y-87143872D01*
X148520500Y-87017372D01*
X148520500Y-85832628D01*
X148505140Y-85706128D01*
X148444818Y-85547070D01*
X148348183Y-85407071D01*
X148220852Y-85294266D01*
X148220849Y-85294263D01*
X148070226Y-85215210D01*
X147905056Y-85174500D01*
X147734944Y-85174500D01*
X147569773Y-85215210D01*
X147419150Y-85294263D01*
X147291816Y-85407072D01*
X147195183Y-85547067D01*
X147150133Y-85665854D01*
X147107955Y-85721556D01*
X147042357Y-85745613D01*
X146974167Y-85730386D01*
X146925034Y-85680710D01*
X146919630Y-85669334D01*
X146896194Y-85612754D01*
X146896194Y-85612753D01*
X146896192Y-85612750D01*
X146803304Y-85491696D01*
X146682250Y-85398808D01*
X146682249Y-85398807D01*
X146682247Y-85398806D01*
X146541280Y-85340416D01*
X146541278Y-85340415D01*
X146427981Y-85325500D01*
X146427980Y-85325500D01*
X146352020Y-85325500D01*
X146352019Y-85325500D01*
X146238721Y-85340415D01*
X146238719Y-85340416D01*
X146097752Y-85398806D01*
X145976696Y-85491696D01*
X145883806Y-85612752D01*
X145825416Y-85753719D01*
X145825415Y-85753721D01*
X145805500Y-85904998D01*
X145805500Y-85905001D01*
X141194500Y-85905001D01*
X141194500Y-85905000D01*
X141174584Y-85753720D01*
X141116192Y-85612750D01*
X141023304Y-85491696D01*
X140902250Y-85398808D01*
X140902249Y-85398807D01*
X140902247Y-85398806D01*
X140761280Y-85340416D01*
X140761278Y-85340415D01*
X140647981Y-85325500D01*
X140647980Y-85325500D01*
X140572020Y-85325500D01*
X140572019Y-85325500D01*
X140458721Y-85340415D01*
X140458719Y-85340416D01*
X140317752Y-85398806D01*
X140196696Y-85491696D01*
X140103806Y-85612753D01*
X140080369Y-85669335D01*
X140036527Y-85723739D01*
X139970233Y-85745803D01*
X139902534Y-85728523D01*
X139854924Y-85677386D01*
X139849866Y-85665853D01*
X139829728Y-85612753D01*
X139804818Y-85547070D01*
X139708183Y-85407071D01*
X139580852Y-85294266D01*
X139580849Y-85294263D01*
X139430226Y-85215210D01*
X139265056Y-85174500D01*
X139094944Y-85174500D01*
X138929773Y-85215210D01*
X138779150Y-85294263D01*
X138651816Y-85407072D01*
X138555182Y-85547068D01*
X138494860Y-85706125D01*
X138494859Y-85706131D01*
X138479500Y-85832625D01*
X138479500Y-87017374D01*
X136788977Y-87017374D01*
X136841956Y-86972373D01*
X137095538Y-86704670D01*
X137318690Y-86411119D01*
X137508795Y-86095162D01*
X137663625Y-85760503D01*
X137781364Y-85411066D01*
X137860632Y-85050948D01*
X137900500Y-84684370D01*
X137900500Y-84619960D01*
X152699500Y-84619960D01*
X152714630Y-84754249D01*
X152714631Y-84754254D01*
X152774211Y-84924523D01*
X152853650Y-85050948D01*
X152870184Y-85077262D01*
X152997738Y-85204816D01*
X153014280Y-85215210D01*
X153140096Y-85294266D01*
X153150478Y-85300789D01*
X153320745Y-85360368D01*
X153320750Y-85360369D01*
X153499996Y-85380565D01*
X153500000Y-85380565D01*
X153500004Y-85380565D01*
X153679249Y-85360369D01*
X153679252Y-85360368D01*
X153679255Y-85360368D01*
X153849522Y-85300789D01*
X154002262Y-85204816D01*
X154129816Y-85077262D01*
X154225789Y-84924522D01*
X154285368Y-84754255D01*
X154300499Y-84619960D01*
X154699500Y-84619960D01*
X154714630Y-84754249D01*
X154714631Y-84754254D01*
X154774211Y-84924523D01*
X154853650Y-85050948D01*
X154870184Y-85077262D01*
X154997738Y-85204816D01*
X155014280Y-85215210D01*
X155140096Y-85294266D01*
X155150478Y-85300789D01*
X155320745Y-85360368D01*
X155320750Y-85360369D01*
X155499996Y-85380565D01*
X155500000Y-85380565D01*
X155500004Y-85380565D01*
X155679249Y-85360369D01*
X155679252Y-85360368D01*
X155679255Y-85360368D01*
X155849522Y-85300789D01*
X156002262Y-85204816D01*
X156129816Y-85077262D01*
X156225789Y-84924522D01*
X156285368Y-84754255D01*
X156300499Y-84619960D01*
X156699500Y-84619960D01*
X156714630Y-84754249D01*
X156714631Y-84754254D01*
X156774211Y-84924523D01*
X156853650Y-85050948D01*
X156870184Y-85077262D01*
X156997738Y-85204816D01*
X157014280Y-85215210D01*
X157140096Y-85294266D01*
X157150478Y-85300789D01*
X157320745Y-85360368D01*
X157320750Y-85360369D01*
X157499996Y-85380565D01*
X157500000Y-85380565D01*
X157500004Y-85380565D01*
X157679249Y-85360369D01*
X157679252Y-85360368D01*
X157679255Y-85360368D01*
X157849522Y-85300789D01*
X158002262Y-85204816D01*
X158129816Y-85077262D01*
X158191389Y-84979269D01*
X158699500Y-84979269D01*
X158702353Y-85009699D01*
X158702353Y-85009701D01*
X158747206Y-85137880D01*
X158747207Y-85137882D01*
X158827850Y-85247150D01*
X158937118Y-85327793D01*
X158973190Y-85340415D01*
X159065299Y-85372646D01*
X159095730Y-85375500D01*
X159095734Y-85375500D01*
X159904270Y-85375500D01*
X159934699Y-85372646D01*
X159934701Y-85372646D01*
X160026807Y-85340416D01*
X160062882Y-85327793D01*
X160172150Y-85247150D01*
X160252793Y-85137882D01*
X160275219Y-85073790D01*
X160297646Y-85009701D01*
X160297646Y-85009699D01*
X160300500Y-84979269D01*
X160300500Y-84684371D01*
X162099500Y-84684371D01*
X162139367Y-85050946D01*
X162218635Y-85411065D01*
X162245803Y-85491696D01*
X162336375Y-85760503D01*
X162336377Y-85760508D01*
X162336379Y-85760513D01*
X162491200Y-86095153D01*
X162491202Y-86095157D01*
X162491204Y-86095161D01*
X162491205Y-86095162D01*
X162681310Y-86411119D01*
X162904462Y-86704670D01*
X163158044Y-86972373D01*
X163439083Y-87211090D01*
X163744284Y-87418022D01*
X163744288Y-87418024D01*
X163744291Y-87418026D01*
X163898907Y-87499998D01*
X164070070Y-87590743D01*
X164412621Y-87727227D01*
X164412627Y-87727228D01*
X164412628Y-87727229D01*
X164412634Y-87727231D01*
X164684951Y-87802839D01*
X164767919Y-87825875D01*
X164767930Y-87825876D01*
X164767931Y-87825877D01*
X165131786Y-87885529D01*
X165131790Y-87885529D01*
X165131801Y-87885531D01*
X165407890Y-87900500D01*
X165407892Y-87900500D01*
X165592108Y-87900500D01*
X165592110Y-87900500D01*
X165868199Y-87885531D01*
X165868210Y-87885529D01*
X165868213Y-87885529D01*
X166120077Y-87844237D01*
X166232081Y-87825875D01*
X166587379Y-87727227D01*
X166929930Y-87590743D01*
X167255716Y-87418022D01*
X167560917Y-87211090D01*
X167841956Y-86972373D01*
X168095538Y-86704670D01*
X168318690Y-86411119D01*
X168508795Y-86095162D01*
X168663625Y-85760503D01*
X168781364Y-85411066D01*
X168860632Y-85050948D01*
X168900500Y-84684370D01*
X168900500Y-84315630D01*
X168860632Y-83949052D01*
X168781364Y-83588934D01*
X168663625Y-83239497D01*
X168654343Y-83219435D01*
X168508799Y-82904846D01*
X168508797Y-82904842D01*
X168501109Y-82892064D01*
X168318690Y-82588881D01*
X168095538Y-82295330D01*
X167841956Y-82027627D01*
X167560917Y-81788910D01*
X167551647Y-81782625D01*
X167255717Y-81581979D01*
X167255716Y-81581978D01*
X167255713Y-81581976D01*
X167255708Y-81581973D01*
X166929938Y-81409261D01*
X166929926Y-81409255D01*
X166587371Y-81272770D01*
X166587365Y-81272768D01*
X166232094Y-81174128D01*
X166232068Y-81174122D01*
X165868213Y-81114470D01*
X165868200Y-81114469D01*
X165868199Y-81114469D01*
X165592110Y-81099500D01*
X165407890Y-81099500D01*
X165131801Y-81114469D01*
X165131799Y-81114469D01*
X165131786Y-81114470D01*
X164767931Y-81174122D01*
X164767905Y-81174128D01*
X164412634Y-81272768D01*
X164412628Y-81272770D01*
X164070073Y-81409255D01*
X164070061Y-81409261D01*
X163744291Y-81581973D01*
X163744282Y-81581979D01*
X163439083Y-81788909D01*
X163158044Y-82027626D01*
X162904462Y-82295330D01*
X162904461Y-82295330D01*
X162785853Y-82451357D01*
X162681310Y-82588881D01*
X162681309Y-82588883D01*
X162491202Y-82904842D01*
X162491200Y-82904846D01*
X162336379Y-83239486D01*
X162218635Y-83588934D01*
X162139367Y-83949053D01*
X162099500Y-84315628D01*
X162099500Y-84684371D01*
X160300500Y-84684371D01*
X160300500Y-83620730D01*
X160297646Y-83590300D01*
X160297646Y-83590298D01*
X160252793Y-83462119D01*
X160252792Y-83462117D01*
X160172150Y-83352850D01*
X160062882Y-83272207D01*
X160062880Y-83272206D01*
X159934700Y-83227353D01*
X159904270Y-83224500D01*
X159904266Y-83224500D01*
X159095734Y-83224500D01*
X159095730Y-83224500D01*
X159065300Y-83227353D01*
X159065298Y-83227353D01*
X158937119Y-83272206D01*
X158937117Y-83272207D01*
X158827850Y-83352850D01*
X158747207Y-83462117D01*
X158747206Y-83462119D01*
X158702353Y-83590298D01*
X158702353Y-83590300D01*
X158699500Y-83620730D01*
X158699500Y-84979269D01*
X158191389Y-84979269D01*
X158225789Y-84924522D01*
X158285368Y-84754255D01*
X158300500Y-84619954D01*
X158300500Y-83980046D01*
X158285368Y-83845745D01*
X158225789Y-83675478D01*
X158213730Y-83656287D01*
X158129815Y-83522737D01*
X158002262Y-83395184D01*
X157849523Y-83299211D01*
X157679254Y-83239631D01*
X157679249Y-83239630D01*
X157500004Y-83219435D01*
X157499996Y-83219435D01*
X157320750Y-83239630D01*
X157320745Y-83239631D01*
X157150476Y-83299211D01*
X156997737Y-83395184D01*
X156870184Y-83522737D01*
X156774211Y-83675476D01*
X156714631Y-83845745D01*
X156714630Y-83845750D01*
X156699500Y-83980039D01*
X156699500Y-84619960D01*
X156300499Y-84619960D01*
X156300500Y-84619954D01*
X156300500Y-83980046D01*
X156285368Y-83845745D01*
X156225789Y-83675478D01*
X156213730Y-83656287D01*
X156129815Y-83522737D01*
X156002262Y-83395184D01*
X155849523Y-83299211D01*
X155679254Y-83239631D01*
X155679249Y-83239630D01*
X155500004Y-83219435D01*
X155499996Y-83219435D01*
X155320750Y-83239630D01*
X155320745Y-83239631D01*
X155150476Y-83299211D01*
X154997737Y-83395184D01*
X154870184Y-83522737D01*
X154774211Y-83675476D01*
X154714631Y-83845745D01*
X154714630Y-83845750D01*
X154699500Y-83980039D01*
X154699500Y-84619960D01*
X154300499Y-84619960D01*
X154300500Y-84619954D01*
X154300500Y-83980046D01*
X154285368Y-83845745D01*
X154225789Y-83675478D01*
X154213730Y-83656287D01*
X154129815Y-83522737D01*
X154002262Y-83395184D01*
X153849523Y-83299211D01*
X153679254Y-83239631D01*
X153679249Y-83239630D01*
X153500004Y-83219435D01*
X153499996Y-83219435D01*
X153320750Y-83239630D01*
X153320745Y-83239631D01*
X153150476Y-83299211D01*
X152997737Y-83395184D01*
X152870184Y-83522737D01*
X152774211Y-83675476D01*
X152714631Y-83845745D01*
X152714630Y-83845750D01*
X152699500Y-83980039D01*
X152699500Y-84619960D01*
X137900500Y-84619960D01*
X137900500Y-84315630D01*
X137860632Y-83949052D01*
X137827823Y-83800000D01*
X149844750Y-83800000D01*
X149863670Y-83943708D01*
X149863671Y-83943712D01*
X149919137Y-84077622D01*
X149919138Y-84077624D01*
X149919139Y-84077625D01*
X150007379Y-84192621D01*
X150122375Y-84280861D01*
X150122376Y-84280861D01*
X150122377Y-84280862D01*
X150127317Y-84282908D01*
X150256291Y-84336330D01*
X150383280Y-84353048D01*
X150399999Y-84355250D01*
X150400000Y-84355250D01*
X150400001Y-84355250D01*
X150414977Y-84353278D01*
X150543709Y-84336330D01*
X150677625Y-84280861D01*
X150792621Y-84192621D01*
X150880861Y-84077625D01*
X150936330Y-83943709D01*
X150955250Y-83800000D01*
X150936330Y-83656291D01*
X150899350Y-83567013D01*
X150880862Y-83522377D01*
X150880861Y-83522376D01*
X150880861Y-83522375D01*
X150792621Y-83407379D01*
X150677625Y-83319139D01*
X150677624Y-83319138D01*
X150677622Y-83319137D01*
X150543712Y-83263671D01*
X150543710Y-83263670D01*
X150543709Y-83263670D01*
X150471854Y-83254210D01*
X150400001Y-83244750D01*
X150399999Y-83244750D01*
X150256291Y-83263670D01*
X150256287Y-83263671D01*
X150122377Y-83319137D01*
X150007379Y-83407379D01*
X149919137Y-83522377D01*
X149863671Y-83656287D01*
X149863670Y-83656291D01*
X149844750Y-83799999D01*
X149844750Y-83800000D01*
X137827823Y-83800000D01*
X137781364Y-83588934D01*
X137663625Y-83239497D01*
X137654343Y-83219435D01*
X137508799Y-82904846D01*
X137508797Y-82904842D01*
X137501109Y-82892064D01*
X137365918Y-82667374D01*
X138479500Y-82667374D01*
X138494859Y-82793868D01*
X138494860Y-82793874D01*
X138555182Y-82952931D01*
X138617475Y-83043177D01*
X138651817Y-83092929D01*
X138757505Y-83186560D01*
X138779150Y-83205736D01*
X138905798Y-83272206D01*
X138929775Y-83284790D01*
X139094944Y-83325500D01*
X139265056Y-83325500D01*
X139430225Y-83284790D01*
X139509692Y-83243081D01*
X139580849Y-83205736D01*
X139580850Y-83205734D01*
X139580852Y-83205734D01*
X139708183Y-83092929D01*
X139804818Y-82952930D01*
X139865140Y-82793872D01*
X139880500Y-82667374D01*
X147119500Y-82667374D01*
X147134859Y-82793868D01*
X147134860Y-82793874D01*
X147195182Y-82952931D01*
X147257475Y-83043177D01*
X147291817Y-83092929D01*
X147397505Y-83186560D01*
X147419150Y-83205736D01*
X147545798Y-83272206D01*
X147569775Y-83284790D01*
X147734944Y-83325500D01*
X147905056Y-83325500D01*
X148070225Y-83284790D01*
X148149692Y-83243081D01*
X148220849Y-83205736D01*
X148220850Y-83205734D01*
X148220852Y-83205734D01*
X148348183Y-83092929D01*
X148444818Y-82952930D01*
X148505140Y-82793872D01*
X148520500Y-82667372D01*
X148520500Y-81782628D01*
X148505140Y-81656128D01*
X148444818Y-81497070D01*
X148348183Y-81357071D01*
X148220852Y-81244266D01*
X148220849Y-81244263D01*
X148070226Y-81165210D01*
X147905056Y-81124500D01*
X147734944Y-81124500D01*
X147569773Y-81165210D01*
X147419150Y-81244263D01*
X147291816Y-81357072D01*
X147195182Y-81497068D01*
X147134860Y-81656125D01*
X147134859Y-81656131D01*
X147119500Y-81782625D01*
X147119500Y-82667374D01*
X139880500Y-82667374D01*
X139880500Y-82667372D01*
X139880500Y-81782628D01*
X139865140Y-81656128D01*
X139804818Y-81497070D01*
X139708183Y-81357071D01*
X139580852Y-81244266D01*
X139580849Y-81244263D01*
X139430226Y-81165210D01*
X139265056Y-81124500D01*
X139094944Y-81124500D01*
X138929773Y-81165210D01*
X138779150Y-81244263D01*
X138651816Y-81357072D01*
X138555182Y-81497068D01*
X138494860Y-81656125D01*
X138494859Y-81656131D01*
X138479500Y-81782625D01*
X138479500Y-82667374D01*
X137365918Y-82667374D01*
X137318690Y-82588881D01*
X137095538Y-82295330D01*
X136841956Y-82027627D01*
X136560917Y-81788910D01*
X136551647Y-81782625D01*
X136255717Y-81581979D01*
X136255716Y-81581978D01*
X136255713Y-81581976D01*
X136255708Y-81581973D01*
X135929938Y-81409261D01*
X135929926Y-81409255D01*
X135587371Y-81272770D01*
X135587365Y-81272768D01*
X135232094Y-81174128D01*
X135232068Y-81174122D01*
X134868213Y-81114470D01*
X134868200Y-81114469D01*
X134868199Y-81114469D01*
X134592110Y-81099500D01*
X134407890Y-81099500D01*
X134131801Y-81114469D01*
X134131799Y-81114469D01*
X134131786Y-81114470D01*
X133767931Y-81174122D01*
X133767905Y-81174128D01*
X133412634Y-81272768D01*
X133412628Y-81272770D01*
X133070073Y-81409255D01*
X133070061Y-81409261D01*
X132744291Y-81581973D01*
X132744282Y-81581979D01*
X132439083Y-81788909D01*
X132158044Y-82027626D01*
X131904462Y-82295330D01*
X131904461Y-82295330D01*
X131785853Y-82451357D01*
X131681310Y-82588881D01*
X131681309Y-82588883D01*
X131491202Y-82904842D01*
X131491200Y-82904846D01*
X131336379Y-83239486D01*
X131218635Y-83588934D01*
X131139367Y-83949053D01*
X131099500Y-84315628D01*
X131099500Y-84684371D01*
X129000500Y-84684371D01*
X129000500Y-84499999D01*
X129009500Y-84282397D01*
X129020013Y-84041610D01*
X129020427Y-84036684D01*
X129049085Y-83806772D01*
X129079194Y-83578069D01*
X129079970Y-83573517D01*
X129127969Y-83344599D01*
X129132205Y-83325500D01*
X129177470Y-83121320D01*
X129178571Y-83117073D01*
X129245591Y-82891958D01*
X129314150Y-82674521D01*
X129315491Y-82670712D01*
X129401094Y-82451333D01*
X129488229Y-82240970D01*
X129489750Y-82237598D01*
X129593376Y-82025627D01*
X129698424Y-81823834D01*
X129700139Y-81820760D01*
X129821037Y-81617866D01*
X129943266Y-81426008D01*
X129945052Y-81423360D01*
X130082440Y-81230936D01*
X130221003Y-81050358D01*
X130222770Y-81048167D01*
X130375734Y-80867563D01*
X130530404Y-80698771D01*
X130698760Y-80530416D01*
X130700275Y-80529027D01*
X130867563Y-80375734D01*
X131048167Y-80222770D01*
X131050358Y-80221003D01*
X131230936Y-80082440D01*
X131423360Y-79945052D01*
X131426008Y-79943266D01*
X131617866Y-79821037D01*
X131820766Y-79700135D01*
X131823834Y-79698424D01*
X132025627Y-79593376D01*
X132237598Y-79489750D01*
X132240970Y-79488229D01*
X132451333Y-79401094D01*
X132670712Y-79315491D01*
X132674521Y-79314150D01*
X132891958Y-79245591D01*
X133117073Y-79178571D01*
X133121322Y-79177470D01*
X133344588Y-79127972D01*
X133573517Y-79079970D01*
X133578069Y-79079194D01*
X133806772Y-79049085D01*
X134036684Y-79020427D01*
X134041610Y-79020013D01*
X134282423Y-79009499D01*
X134500000Y-79000500D01*
X134500500Y-79000500D01*
X165499500Y-79000500D01*
X165500000Y-79000500D01*
X165717445Y-79009493D01*
G37*
%TD.AperFunction*%
%TD*%
M02*
