%TF.GenerationSoftware,KiCad,Pcbnew,7.0.6*%
%TF.CreationDate,2024-06-25T21:47:37-04:00*%
%TF.ProjectId,Axis_Basic,41786973-5f42-4617-9369-632e6b696361,rev?*%
%TF.SameCoordinates,Original*%
%TF.FileFunction,Copper,L1,Top*%
%TF.FilePolarity,Positive*%
%FSLAX46Y46*%
G04 Gerber Fmt 4.6, Leading zero omitted, Abs format (unit mm)*
G04 Created by KiCad (PCBNEW 7.0.6) date 2024-06-25 21:47:37*
%MOMM*%
%LPD*%
G01*
G04 APERTURE LIST*
G04 Aperture macros list*
%AMRoundRect*
0 Rectangle with rounded corners*
0 $1 Rounding radius*
0 $2 $3 $4 $5 $6 $7 $8 $9 X,Y pos of 4 corners*
0 Add a 4 corners polygon primitive as box body*
4,1,4,$2,$3,$4,$5,$6,$7,$8,$9,$2,$3,0*
0 Add four circle primitives for the rounded corners*
1,1,$1+$1,$2,$3*
1,1,$1+$1,$4,$5*
1,1,$1+$1,$6,$7*
1,1,$1+$1,$8,$9*
0 Add four rect primitives between the rounded corners*
20,1,$1+$1,$2,$3,$4,$5,0*
20,1,$1+$1,$4,$5,$6,$7,0*
20,1,$1+$1,$6,$7,$8,$9,0*
20,1,$1+$1,$8,$9,$2,$3,0*%
%AMRotRect*
0 Rectangle, with rotation*
0 The origin of the aperture is its center*
0 $1 length*
0 $2 width*
0 $3 Rotation angle, in degrees counterclockwise*
0 Add horizontal line*
21,1,$1,$2,0,0,$3*%
G04 Aperture macros list end*
%TA.AperFunction,SMDPad,CuDef*%
%ADD10RoundRect,0.140000X-0.021213X0.219203X-0.219203X0.021213X0.021213X-0.219203X0.219203X-0.021213X0*%
%TD*%
%TA.AperFunction,SMDPad,CuDef*%
%ADD11RoundRect,0.135000X-0.185000X0.135000X-0.185000X-0.135000X0.185000X-0.135000X0.185000X0.135000X0*%
%TD*%
%TA.AperFunction,SMDPad,CuDef*%
%ADD12RoundRect,0.135000X0.135000X0.185000X-0.135000X0.185000X-0.135000X-0.185000X0.135000X-0.185000X0*%
%TD*%
%TA.AperFunction,ComponentPad*%
%ADD13R,1.000000X1.000000*%
%TD*%
%TA.AperFunction,ComponentPad*%
%ADD14O,1.000000X1.000000*%
%TD*%
%TA.AperFunction,ComponentPad*%
%ADD15RoundRect,0.250000X-0.625000X0.350000X-0.625000X-0.350000X0.625000X-0.350000X0.625000X0.350000X0*%
%TD*%
%TA.AperFunction,ComponentPad*%
%ADD16O,1.750000X1.200000*%
%TD*%
%TA.AperFunction,SMDPad,CuDef*%
%ADD17RoundRect,0.140000X-0.140000X-0.170000X0.140000X-0.170000X0.140000X0.170000X-0.140000X0.170000X0*%
%TD*%
%TA.AperFunction,ComponentPad*%
%ADD18RoundRect,0.250000X-0.350000X-0.625000X0.350000X-0.625000X0.350000X0.625000X-0.350000X0.625000X0*%
%TD*%
%TA.AperFunction,ComponentPad*%
%ADD19O,1.200000X1.750000*%
%TD*%
%TA.AperFunction,SMDPad,CuDef*%
%ADD20RoundRect,0.135000X-0.135000X-0.185000X0.135000X-0.185000X0.135000X0.185000X-0.135000X0.185000X0*%
%TD*%
%TA.AperFunction,SMDPad,CuDef*%
%ADD21RoundRect,0.135000X0.185000X-0.135000X0.185000X0.135000X-0.185000X0.135000X-0.185000X-0.135000X0*%
%TD*%
%TA.AperFunction,SMDPad,CuDef*%
%ADD22R,0.750000X0.700000*%
%TD*%
%TA.AperFunction,SMDPad,CuDef*%
%ADD23RoundRect,0.140000X0.170000X-0.140000X0.170000X0.140000X-0.170000X0.140000X-0.170000X-0.140000X0*%
%TD*%
%TA.AperFunction,SMDPad,CuDef*%
%ADD24RoundRect,0.250000X0.625000X-0.312500X0.625000X0.312500X-0.625000X0.312500X-0.625000X-0.312500X0*%
%TD*%
%TA.AperFunction,SMDPad,CuDef*%
%ADD25RoundRect,0.250000X0.250000X0.475000X-0.250000X0.475000X-0.250000X-0.475000X0.250000X-0.475000X0*%
%TD*%
%TA.AperFunction,SMDPad,CuDef*%
%ADD26RoundRect,0.062500X0.062500X-0.337500X0.062500X0.337500X-0.062500X0.337500X-0.062500X-0.337500X0*%
%TD*%
%TA.AperFunction,SMDPad,CuDef*%
%ADD27RoundRect,0.062500X0.337500X-0.062500X0.337500X0.062500X-0.337500X0.062500X-0.337500X-0.062500X0*%
%TD*%
%TA.AperFunction,ComponentPad*%
%ADD28C,0.500000*%
%TD*%
%TA.AperFunction,SMDPad,CuDef*%
%ADD29R,3.350000X3.350000*%
%TD*%
%TA.AperFunction,SMDPad,CuDef*%
%ADD30R,0.610000X2.000000*%
%TD*%
%TA.AperFunction,SMDPad,CuDef*%
%ADD31R,2.680000X3.600000*%
%TD*%
%TA.AperFunction,SMDPad,CuDef*%
%ADD32RoundRect,0.140000X-0.170000X0.140000X-0.170000X-0.140000X0.170000X-0.140000X0.170000X0.140000X0*%
%TD*%
%TA.AperFunction,SMDPad,CuDef*%
%ADD33RoundRect,0.140000X0.140000X0.170000X-0.140000X0.170000X-0.140000X-0.170000X0.140000X-0.170000X0*%
%TD*%
%TA.AperFunction,SMDPad,CuDef*%
%ADD34RoundRect,0.218750X-0.218750X-0.256250X0.218750X-0.256250X0.218750X0.256250X-0.218750X0.256250X0*%
%TD*%
%TA.AperFunction,SMDPad,CuDef*%
%ADD35R,2.000000X1.500000*%
%TD*%
%TA.AperFunction,SMDPad,CuDef*%
%ADD36R,2.000000X3.800000*%
%TD*%
%TA.AperFunction,SMDPad,CuDef*%
%ADD37RoundRect,0.135000X0.035355X-0.226274X0.226274X-0.035355X-0.035355X0.226274X-0.226274X0.035355X0*%
%TD*%
%TA.AperFunction,SMDPad,CuDef*%
%ADD38RoundRect,0.250000X1.500000X0.550000X-1.500000X0.550000X-1.500000X-0.550000X1.500000X-0.550000X0*%
%TD*%
%TA.AperFunction,SMDPad,CuDef*%
%ADD39RoundRect,0.218750X0.256250X-0.218750X0.256250X0.218750X-0.256250X0.218750X-0.256250X-0.218750X0*%
%TD*%
%TA.AperFunction,SMDPad,CuDef*%
%ADD40RoundRect,0.140000X-0.219203X-0.021213X-0.021213X-0.219203X0.219203X0.021213X0.021213X0.219203X0*%
%TD*%
%TA.AperFunction,SMDPad,CuDef*%
%ADD41RoundRect,0.075000X-0.521491X0.415425X0.415425X-0.521491X0.521491X-0.415425X-0.415425X0.521491X0*%
%TD*%
%TA.AperFunction,SMDPad,CuDef*%
%ADD42RoundRect,0.075000X-0.521491X-0.415425X-0.415425X-0.521491X0.521491X0.415425X0.415425X0.521491X0*%
%TD*%
%TA.AperFunction,SMDPad,CuDef*%
%ADD43RoundRect,0.250000X0.512652X0.159099X0.159099X0.512652X-0.512652X-0.159099X-0.159099X-0.512652X0*%
%TD*%
%TA.AperFunction,SMDPad,CuDef*%
%ADD44R,0.750000X0.300000*%
%TD*%
%TA.AperFunction,SMDPad,CuDef*%
%ADD45R,1.300000X1.500000*%
%TD*%
%TA.AperFunction,SMDPad,CuDef*%
%ADD46RoundRect,0.140000X0.021213X-0.219203X0.219203X-0.021213X-0.021213X0.219203X-0.219203X0.021213X0*%
%TD*%
%TA.AperFunction,SMDPad,CuDef*%
%ADD47RoundRect,0.112500X-0.112500X0.187500X-0.112500X-0.187500X0.112500X-0.187500X0.112500X0.187500X0*%
%TD*%
%TA.AperFunction,SMDPad,CuDef*%
%ADD48R,1.500000X0.900000*%
%TD*%
%TA.AperFunction,SMDPad,CuDef*%
%ADD49R,1.150000X0.600000*%
%TD*%
%TA.AperFunction,SMDPad,CuDef*%
%ADD50R,1.150000X0.300000*%
%TD*%
%TA.AperFunction,ComponentPad*%
%ADD51O,2.100000X1.000000*%
%TD*%
%TA.AperFunction,ComponentPad*%
%ADD52O,1.800000X1.000000*%
%TD*%
%TA.AperFunction,SMDPad,CuDef*%
%ADD53RoundRect,0.250000X-0.625000X0.312500X-0.625000X-0.312500X0.625000X-0.312500X0.625000X0.312500X0*%
%TD*%
%TA.AperFunction,SMDPad,CuDef*%
%ADD54RoundRect,0.135000X-0.035355X0.226274X-0.226274X0.035355X0.035355X-0.226274X0.226274X-0.035355X0*%
%TD*%
%TA.AperFunction,SMDPad,CuDef*%
%ADD55RotRect,1.000000X1.800000X315.000000*%
%TD*%
%TA.AperFunction,ViaPad*%
%ADD56C,0.700000*%
%TD*%
%TA.AperFunction,ViaPad*%
%ADD57C,0.800000*%
%TD*%
%TA.AperFunction,ViaPad*%
%ADD58C,0.450000*%
%TD*%
%TA.AperFunction,Conductor*%
%ADD59C,0.200000*%
%TD*%
%TA.AperFunction,Conductor*%
%ADD60C,0.400000*%
%TD*%
%TA.AperFunction,Conductor*%
%ADD61C,0.250000*%
%TD*%
%TA.AperFunction,Conductor*%
%ADD62C,0.150000*%
%TD*%
%TA.AperFunction,Conductor*%
%ADD63C,1.000000*%
%TD*%
G04 APERTURE END LIST*
D10*
%TO.P,C20,1*%
%TO.N,+3.3V*%
X158439411Y-107260589D03*
%TO.P,C20,2*%
%TO.N,GND*%
X157760589Y-107939411D03*
%TD*%
D11*
%TO.P,R18,1*%
%TO.N,+3.3V*%
X150300000Y-111990000D03*
%TO.P,R18,2*%
%TO.N,SDA2*%
X150300000Y-113010000D03*
%TD*%
D12*
%TO.P,R11,1*%
%TO.N,+3.3V*%
X161110000Y-91600000D03*
%TO.P,R11,2*%
%TO.N,Net-(U5-~{WP})*%
X160090000Y-91600000D03*
%TD*%
D13*
%TO.P,J5,1,VTref*%
%TO.N,+3.3V*%
X165000000Y-91525000D03*
D14*
%TO.P,J5,2,SWDIO/TMS*%
%TO.N,SWDIO*%
X166270000Y-91525000D03*
%TO.P,J5,3,GND*%
%TO.N,GND*%
X165000000Y-92795000D03*
%TO.P,J5,4,SWDCLK/TCK*%
%TO.N,SWCLK*%
X166270000Y-92795000D03*
%TO.P,J5,5,GND*%
%TO.N,GND*%
X165000000Y-94065000D03*
%TO.P,J5,6,SWO/TDO*%
%TO.N,unconnected-(J5-SWO{slash}TDO-Pad6)*%
X166270000Y-94065000D03*
%TO.P,J5,7,KEY*%
%TO.N,unconnected-(J5-KEY-Pad7)*%
X165000000Y-95335000D03*
%TO.P,J5,8,NC/TDI*%
%TO.N,unconnected-(J5-NC{slash}TDI-Pad8)*%
X166270000Y-95335000D03*
%TO.P,J5,9,GNDDetect*%
%TO.N,GND*%
X165000000Y-96605000D03*
%TO.P,J5,10,~{RESET}*%
%TO.N,RESET*%
X166270000Y-96605000D03*
%TD*%
D11*
%TO.P,R10,1*%
%TO.N,Net-(D5-K)*%
X148000000Y-109590000D03*
%TO.P,R10,2*%
%TO.N,GND*%
X148000000Y-110610000D03*
%TD*%
D15*
%TO.P,J4,1,Pin_1*%
%TO.N,GND*%
X134450000Y-107300000D03*
D16*
%TO.P,J4,2,Pin_2*%
%TO.N,VCC*%
X134450000Y-109300000D03*
%TD*%
D17*
%TO.P,C1,1*%
%TO.N,VCC*%
X146420000Y-111900000D03*
%TO.P,C1,2*%
%TO.N,GND*%
X147380000Y-111900000D03*
%TD*%
D18*
%TO.P,J3,1*%
%TO.N,SCL2*%
X151950000Y-115550000D03*
D19*
%TO.P,J3,2*%
%TO.N,SDA2*%
X153950000Y-115550000D03*
%TO.P,J3,3*%
%TO.N,SYNC*%
X155950000Y-115550000D03*
%TO.P,J3,4*%
%TO.N,GND*%
X157950000Y-115550000D03*
%TD*%
D20*
%TO.P,R12,1*%
%TO.N,+3.3V*%
X161890000Y-87800000D03*
%TO.P,R12,2*%
%TO.N,Net-(U5-~{HOLD})*%
X162910000Y-87800000D03*
%TD*%
D21*
%TO.P,R3,1*%
%TO.N,Net-(J1-CC2)*%
X163300000Y-104510000D03*
%TO.P,R3,2*%
%TO.N,GND*%
X163300000Y-103490000D03*
%TD*%
D22*
%TO.P,SW1,1,1*%
%TO.N,GND*%
X160200000Y-112700000D03*
X160200000Y-109500000D03*
%TO.P,SW1,2,2*%
%TO.N,Net-(R5-Pad1)*%
X161800000Y-112700000D03*
X161800000Y-109500000D03*
%TD*%
D23*
%TO.P,C15,1*%
%TO.N,+3.3V*%
X160850000Y-94780000D03*
%TO.P,C15,2*%
%TO.N,GND*%
X160850000Y-93820000D03*
%TD*%
D24*
%TO.P,R15,1*%
%TO.N,/BRA*%
X137537470Y-97291912D03*
%TO.P,R15,2*%
%TO.N,GND*%
X137537470Y-94366912D03*
%TD*%
D25*
%TO.P,C9,1*%
%TO.N,VCC*%
X141450000Y-93950000D03*
%TO.P,C9,2*%
%TO.N,GND*%
X139550000Y-93950000D03*
%TD*%
D21*
%TO.P,R8,1*%
%TO.N,Net-(U4-STDBY)*%
X142800000Y-95410000D03*
%TO.P,R8,2*%
%TO.N,GND*%
X142800000Y-94390000D03*
%TD*%
D26*
%TO.P,U4,1,OB2*%
%TO.N,MOTOR_B2*%
X141487500Y-101650000D03*
%TO.P,U4,2,~{EN}*%
%TO.N,EN*%
X141987500Y-101650000D03*
%TO.P,U4,3,GND*%
%TO.N,GND*%
X142487500Y-101650000D03*
%TO.P,U4,4,CPO*%
%TO.N,Net-(U4-CPO)*%
X142987500Y-101650000D03*
%TO.P,U4,5,CPI*%
%TO.N,Net-(U4-CPI)*%
X143487500Y-101650000D03*
%TO.P,U4,6,VCP*%
%TO.N,Net-(U4-VCP)*%
X143987500Y-101650000D03*
%TO.P,U4,7,SPREAD*%
%TO.N,Spread*%
X144487500Y-101650000D03*
D27*
%TO.P,U4,8,5VOUT*%
%TO.N,Net-(U4-5VOUT)*%
X145437500Y-100700000D03*
%TO.P,U4,9,MS1_AD0*%
%TO.N,MOT_M0*%
X145437500Y-100200000D03*
%TO.P,U4,10,MS2_AD1*%
%TO.N,MOT_M1*%
X145437500Y-99700000D03*
%TO.P,U4,11,DIAG*%
%TO.N,DIAG*%
X145437500Y-99200000D03*
%TO.P,U4,12,INDEX*%
%TO.N,INDEX*%
X145437500Y-98700000D03*
%TO.P,U4,13,CLK*%
%TO.N,GND*%
X145437500Y-98200000D03*
%TO.P,U4,14,~{PD}_UART*%
%TO.N,UART_RX*%
X145437500Y-97700000D03*
D26*
%TO.P,U4,15,VCC_IO*%
%TO.N,+3.3V*%
X144487500Y-96750000D03*
%TO.P,U4,16,STEP*%
%TO.N,STEP*%
X143987500Y-96750000D03*
%TO.P,U4,17,VREF*%
%TO.N,unconnected-(U4-VREF-Pad17)*%
X143487500Y-96750000D03*
%TO.P,U4,18,GND*%
%TO.N,GND*%
X142987500Y-96750000D03*
%TO.P,U4,19,DIR*%
%TO.N,DIR*%
X142487500Y-96750000D03*
%TO.P,U4,20,STDBY*%
%TO.N,Net-(U4-STDBY)*%
X141987500Y-96750000D03*
%TO.P,U4,21,OA2*%
%TO.N,MOTOR_A1*%
X141487500Y-96750000D03*
D27*
%TO.P,U4,22,VS*%
%TO.N,VCC*%
X140537500Y-97700000D03*
%TO.P,U4,23,BRA*%
%TO.N,/BRA*%
X140537500Y-98200000D03*
%TO.P,U4,24,OA1*%
%TO.N,MOTOR_B1*%
X140537500Y-98700000D03*
%TO.P,U4,25,NC*%
%TO.N,unconnected-(U4-NC-Pad25)*%
X140537500Y-99200000D03*
%TO.P,U4,26,OB1*%
%TO.N,MOTOR_A2*%
X140537500Y-99700000D03*
%TO.P,U4,27,BRB*%
%TO.N,/BRB*%
X140537500Y-100200000D03*
%TO.P,U4,28,VS*%
%TO.N,VCC*%
X140537500Y-100700000D03*
D28*
%TO.P,U4,29,EXP*%
%TO.N,GND*%
X141987500Y-100200000D03*
X142987500Y-100200000D03*
X143987500Y-100200000D03*
X141987500Y-99200000D03*
X142987500Y-99200000D03*
D29*
X142987500Y-99200000D03*
D28*
X143987500Y-99200000D03*
X141987500Y-98200000D03*
X142987500Y-98200000D03*
X143987500Y-98200000D03*
%TD*%
D30*
%TO.P,J6,1,Pin_1*%
%TO.N,GND*%
X156600000Y-85750000D03*
%TO.P,J6,2,Pin_2*%
%TO.N,PB30*%
X155600000Y-85750000D03*
%TO.P,J6,3,Pin_3*%
%TO.N,PB31*%
X154600000Y-85750000D03*
%TO.P,J6,4,Pin_4*%
%TO.N,MOSI*%
X153600000Y-85750000D03*
%TO.P,J6,5,Pin_5*%
%TO.N,MISO*%
X152600000Y-85750000D03*
%TO.P,J6,6,Pin_6*%
%TO.N,SCK*%
X151600000Y-85750000D03*
%TO.P,J6,7,Pin_7*%
%TO.N,ETH_CS*%
X150600000Y-85750000D03*
%TO.P,J6,8,Pin_8*%
%TO.N,PA02*%
X149600000Y-85750000D03*
%TO.P,J6,9,Pin_9*%
%TO.N,PA03*%
X148600000Y-85750000D03*
%TO.P,J6,10,Pin_10*%
%TO.N,PB04*%
X147600000Y-85750000D03*
%TO.P,J6,11,Pin_11*%
%TO.N,PB05*%
X146600000Y-85750000D03*
%TO.P,J6,12,Pin_12*%
%TO.N,SCL1*%
X145600000Y-85750000D03*
%TO.P,J6,13,Pin_13*%
%TO.N,SDA1*%
X144600000Y-85750000D03*
%TO.P,J6,14,Pin_14*%
%TO.N,+3.3V*%
X143600000Y-85750000D03*
D31*
%TO.P,J6,MP*%
%TO.N,N/C*%
X159590000Y-82950000D03*
X140610000Y-82950000D03*
%TD*%
D32*
%TO.P,C5,1*%
%TO.N,Net-(U4-5VOUT)*%
X146600000Y-102520000D03*
%TO.P,C5,2*%
%TO.N,GND*%
X146600000Y-103480000D03*
%TD*%
D15*
%TO.P,J2,1*%
%TO.N,MOTOR_A1*%
X134432353Y-96229412D03*
D16*
%TO.P,J2,2*%
%TO.N,MOTOR_B1*%
X134432353Y-98229412D03*
%TO.P,J2,3*%
%TO.N,MOTOR_A2*%
X134432353Y-100229412D03*
%TO.P,J2,4*%
%TO.N,MOTOR_B2*%
X134432353Y-102229412D03*
%TD*%
D32*
%TO.P,C2,1*%
%TO.N,+3.3V*%
X147700000Y-117020000D03*
%TO.P,C2,2*%
%TO.N,GND*%
X147700000Y-117980000D03*
%TD*%
D11*
%TO.P,R16,1*%
%TO.N,Net-(D2-K)*%
X149500000Y-109590000D03*
%TO.P,R16,2*%
%TO.N,GND*%
X149500000Y-110610000D03*
%TD*%
D33*
%TO.P,C8,1*%
%TO.N,VCC*%
X140180000Y-102850000D03*
%TO.P,C8,2*%
%TO.N,GND*%
X139220000Y-102850000D03*
%TD*%
D34*
%TO.P,L1,1,1*%
%TO.N,Net-(U3-VSW)*%
X162062500Y-95000000D03*
%TO.P,L1,2,2*%
%TO.N,Net-(U3-VDDCORE)*%
X163637500Y-95000000D03*
%TD*%
D21*
%TO.P,R5,1*%
%TO.N,Net-(R5-Pad1)*%
X162400000Y-108210000D03*
%TO.P,R5,2*%
%TO.N,RESET*%
X162400000Y-107190000D03*
%TD*%
D35*
%TO.P,U2,1,GND*%
%TO.N,GND*%
X145600000Y-118450000D03*
%TO.P,U2,2,VO*%
%TO.N,+3.3V*%
X145600000Y-116150000D03*
D36*
X139300000Y-116150000D03*
D35*
%TO.P,U2,3,VI*%
%TO.N,VCC*%
X145600000Y-113850000D03*
%TD*%
D10*
%TO.P,C18,1*%
%TO.N,GND*%
X155639411Y-91460589D03*
%TO.P,C18,2*%
%TO.N,Net-(U3-PA00)*%
X154960589Y-92139411D03*
%TD*%
D37*
%TO.P,R19,1*%
%TO.N,+3.3V*%
X159239376Y-106460624D03*
%TO.P,R19,2*%
%TO.N,SDA1*%
X159960624Y-105739376D03*
%TD*%
D25*
%TO.P,C12,1*%
%TO.N,GND*%
X165850000Y-98900000D03*
%TO.P,C12,2*%
%TO.N,Net-(U3-VDDCORE)*%
X163950000Y-98900000D03*
%TD*%
D11*
%TO.P,R17,1*%
%TO.N,+3.3V*%
X152110000Y-111990000D03*
%TO.P,R17,2*%
%TO.N,SCL2*%
X152110000Y-113010000D03*
%TD*%
D38*
%TO.P,C11,1*%
%TO.N,VCC*%
X143900000Y-108950000D03*
%TO.P,C11,2*%
%TO.N,GND*%
X138300000Y-108950000D03*
%TD*%
D39*
%TO.P,D2,1,K*%
%TO.N,Net-(D2-K)*%
X149600000Y-108287500D03*
%TO.P,D2,2,A*%
%TO.N,USR_LED*%
X149600000Y-106712500D03*
%TD*%
D32*
%TO.P,C3,1*%
%TO.N,RESET*%
X161300000Y-107220000D03*
%TO.P,C3,2*%
%TO.N,GND*%
X161300000Y-108180000D03*
%TD*%
D12*
%TO.P,R2,1*%
%TO.N,Net-(J1-CC1)*%
X162310000Y-106200000D03*
%TO.P,R2,2*%
%TO.N,GND*%
X161290000Y-106200000D03*
%TD*%
%TO.P,R13,1*%
%TO.N,+3.3V*%
X160810000Y-87800000D03*
%TO.P,R13,2*%
%TO.N,EEPROM_CS*%
X159790000Y-87800000D03*
%TD*%
D40*
%TO.P,C19,1*%
%TO.N,+3.3V*%
X148910589Y-103660589D03*
%TO.P,C19,2*%
%TO.N,GND*%
X149589411Y-104339411D03*
%TD*%
D21*
%TO.P,R6,1*%
%TO.N,+3.3V*%
X160200000Y-108210000D03*
%TO.P,R6,2*%
%TO.N,RESET*%
X160200000Y-107190000D03*
%TD*%
D22*
%TO.P,SW2,1,1*%
%TO.N,GND*%
X156700000Y-112700000D03*
X156700000Y-109500000D03*
%TO.P,SW2,2,2*%
%TO.N,User_Input*%
X158300000Y-112700000D03*
X158300000Y-109500000D03*
%TD*%
D25*
%TO.P,C10,1*%
%TO.N,VCC*%
X141450000Y-104400000D03*
%TO.P,C10,2*%
%TO.N,GND*%
X139550000Y-104400000D03*
%TD*%
D33*
%TO.P,C13,1*%
%TO.N,GND*%
X163930000Y-96700000D03*
%TO.P,C13,2*%
%TO.N,Net-(U3-VDDCORE)*%
X162970000Y-96700000D03*
%TD*%
D23*
%TO.P,C6,1*%
%TO.N,VCC*%
X144800000Y-104180000D03*
%TO.P,C6,2*%
%TO.N,Net-(U4-VCP)*%
X144800000Y-103220000D03*
%TD*%
D39*
%TO.P,D5,1,K*%
%TO.N,Net-(D5-K)*%
X147900000Y-108287500D03*
%TO.P,D5,2,A*%
%TO.N,+3.3V*%
X147900000Y-106712500D03*
%TD*%
D41*
%TO.P,U3,1,PA00*%
%TO.N,Net-(U3-PA00)*%
X154047658Y-93344357D03*
%TO.P,U3,2,PA01*%
%TO.N,Net-(U3-PA01)*%
X153694105Y-93697911D03*
%TO.P,U3,3,PA02*%
%TO.N,PA02*%
X153340551Y-94051464D03*
%TO.P,U3,4,PA03*%
%TO.N,PA03*%
X152986998Y-94405018D03*
%TO.P,U3,5,PB04*%
%TO.N,PB04*%
X152633445Y-94758571D03*
%TO.P,U3,6,PB05*%
%TO.N,PB05*%
X152279891Y-95112124D03*
%TO.P,U3,7,GNDANA*%
%TO.N,GND*%
X151926338Y-95465678D03*
%TO.P,U3,8,VDDANA*%
%TO.N,+3.3V*%
X151572785Y-95819231D03*
%TO.P,U3,9,PB06*%
%TO.N,unconnected-(U3-PB06-Pad9)*%
X151219231Y-96172785D03*
%TO.P,U3,10,PB07*%
%TO.N,NEOPIX*%
X150865678Y-96526338D03*
%TO.P,U3,11,PB08*%
%TO.N,DIR*%
X150512124Y-96879891D03*
%TO.P,U3,12,PB09*%
%TO.N,STEP*%
X150158571Y-97233445D03*
%TO.P,U3,13,PA04*%
%TO.N,unconnected-(U3-PA04-Pad13)*%
X149805018Y-97586998D03*
%TO.P,U3,14,PA05*%
%TO.N,unconnected-(U3-PA05-Pad14)*%
X149451464Y-97940551D03*
%TO.P,U3,15,PA06*%
%TO.N,UART_RX*%
X149097911Y-98294105D03*
%TO.P,U3,16,PA07*%
%TO.N,UART_TX*%
X148744357Y-98647658D03*
D42*
%TO.P,U3,17,PA08*%
%TO.N,INDEX*%
X148744357Y-101352342D03*
%TO.P,U3,18,PA09*%
%TO.N,DIAG*%
X149097911Y-101705895D03*
%TO.P,U3,19,PA10*%
%TO.N,MOT_M1*%
X149451464Y-102059449D03*
%TO.P,U3,20,PA11*%
%TO.N,MOT_M0*%
X149805018Y-102413002D03*
%TO.P,U3,21,VDDIOB*%
%TO.N,+3.3V*%
X150158571Y-102766555D03*
%TO.P,U3,22,GND*%
%TO.N,GND*%
X150512124Y-103120109D03*
%TO.P,U3,23,PB10*%
%TO.N,unconnected-(U3-PB10-Pad23)*%
X150865678Y-103473662D03*
%TO.P,U3,24,PB11*%
%TO.N,Spread*%
X151219231Y-103827215D03*
%TO.P,U3,25,PB12*%
%TO.N,EN*%
X151572785Y-104180769D03*
%TO.P,U3,26,PB13*%
%TO.N,USR_LED*%
X151926338Y-104534322D03*
%TO.P,U3,27,PB14*%
%TO.N,unconnected-(U3-PB14-Pad27)*%
X152279891Y-104887876D03*
%TO.P,U3,28,PB15*%
%TO.N,unconnected-(U3-PB15-Pad28)*%
X152633445Y-105241429D03*
%TO.P,U3,29,PA12*%
%TO.N,SDA2*%
X152986998Y-105594982D03*
%TO.P,U3,30,PA13*%
%TO.N,SCL2*%
X153340551Y-105948536D03*
%TO.P,U3,31,PA14*%
%TO.N,SYNC*%
X153694105Y-106302089D03*
%TO.P,U3,32,PA15*%
%TO.N,unconnected-(U3-PA15-Pad32)*%
X154047658Y-106655643D03*
D41*
%TO.P,U3,33,GND*%
%TO.N,GND*%
X156752342Y-106655643D03*
%TO.P,U3,34,VDDIO*%
%TO.N,+3.3V*%
X157105895Y-106302089D03*
%TO.P,U3,35,PA16*%
%TO.N,unconnected-(U3-PA16-Pad35)*%
X157459449Y-105948536D03*
%TO.P,U3,36,PA17*%
%TO.N,unconnected-(U3-PA17-Pad36)*%
X157813002Y-105594982D03*
%TO.P,U3,37,PA18*%
%TO.N,unconnected-(U3-PA18-Pad37)*%
X158166555Y-105241429D03*
%TO.P,U3,38,PA19*%
%TO.N,unconnected-(U3-PA19-Pad38)*%
X158520109Y-104887876D03*
%TO.P,U3,39,PB16*%
%TO.N,SDA1*%
X158873662Y-104534322D03*
%TO.P,U3,40,PB17*%
%TO.N,SCL1*%
X159227215Y-104180769D03*
%TO.P,U3,41,PA20*%
%TO.N,unconnected-(U3-PA20-Pad41)*%
X159580769Y-103827215D03*
%TO.P,U3,42,PA21*%
%TO.N,EEPROM_CS*%
X159934322Y-103473662D03*
%TO.P,U3,43,PA22*%
%TO.N,unconnected-(U3-PA22-Pad43)*%
X160287876Y-103120109D03*
%TO.P,U3,44,PA23*%
%TO.N,unconnected-(U3-PA23-Pad44)*%
X160641429Y-102766555D03*
%TO.P,U3,45,PA24/D-*%
%TO.N,D-*%
X160994982Y-102413002D03*
%TO.P,U3,46,PA25/D+*%
%TO.N,D+*%
X161348536Y-102059449D03*
%TO.P,U3,47,GND*%
%TO.N,GND*%
X161702089Y-101705895D03*
%TO.P,U3,48,VDDIO*%
%TO.N,+3.3V*%
X162055643Y-101352342D03*
D42*
%TO.P,U3,49,PB22*%
%TO.N,unconnected-(U3-PB22-Pad49)*%
X162055643Y-98647658D03*
%TO.P,U3,50,PB23*%
%TO.N,unconnected-(U3-PB23-Pad50)*%
X161702089Y-98294105D03*
%TO.P,U3,51,PA27*%
%TO.N,unconnected-(U3-PA27-Pad51)*%
X161348536Y-97940551D03*
%TO.P,U3,52,RESETN*%
%TO.N,RESET*%
X160994982Y-97586998D03*
%TO.P,U3,53,VDDCORE*%
%TO.N,Net-(U3-VDDCORE)*%
X160641429Y-97233445D03*
%TO.P,U3,54,GND*%
%TO.N,GND*%
X160287876Y-96879891D03*
%TO.P,U3,55,VSW*%
%TO.N,Net-(U3-VSW)*%
X159934322Y-96526338D03*
%TO.P,U3,56,VDDIO*%
%TO.N,+3.3V*%
X159580769Y-96172785D03*
%TO.P,U3,57,PA30/SWCLK*%
%TO.N,SWCLK*%
X159227215Y-95819231D03*
%TO.P,U3,58,PA31/SWDIO*%
%TO.N,SWDIO*%
X158873662Y-95465678D03*
%TO.P,U3,59,PB30*%
%TO.N,PB30*%
X158520109Y-95112124D03*
%TO.P,U3,60,PB31*%
%TO.N,PB31*%
X158166555Y-94758571D03*
%TO.P,U3,61,PB00*%
%TO.N,MOSI*%
X157813002Y-94405018D03*
%TO.P,U3,62,PB01*%
%TO.N,MISO*%
X157459449Y-94051464D03*
%TO.P,U3,63,PB02*%
%TO.N,SCK*%
X157105895Y-93697911D03*
%TO.P,U3,64,PB03*%
%TO.N,ETH_CS*%
X156752342Y-93344357D03*
%TD*%
D11*
%TO.P,R9,1*%
%TO.N,+3.3V*%
X155300000Y-111890000D03*
%TO.P,R9,2*%
%TO.N,User_Input*%
X155300000Y-112910000D03*
%TD*%
D33*
%TO.P,C7,1*%
%TO.N,VCC*%
X140180000Y-95500000D03*
%TO.P,C7,2*%
%TO.N,GND*%
X139220000Y-95500000D03*
%TD*%
D43*
%TO.P,C14,1*%
%TO.N,+3.3V*%
X148971751Y-94171751D03*
%TO.P,C14,2*%
%TO.N,GND*%
X147628249Y-92828249D03*
%TD*%
D40*
%TO.P,C17,1*%
%TO.N,GND*%
X152210589Y-91610589D03*
%TO.P,C17,2*%
%TO.N,Net-(U3-PA01)*%
X152889411Y-92289411D03*
%TD*%
D32*
%TO.P,C4,1*%
%TO.N,Net-(U4-CPI)*%
X143600000Y-103170000D03*
%TO.P,C4,2*%
%TO.N,Net-(U4-CPO)*%
X143600000Y-104130000D03*
%TD*%
D44*
%TO.P,U5,1,~{CS}*%
%TO.N,EEPROM_CS*%
X160100000Y-88925000D03*
%TO.P,U5,2,MISO*%
%TO.N,MISO*%
X160100000Y-89425000D03*
%TO.P,U5,3,~{WP}*%
%TO.N,Net-(U5-~{WP})*%
X160100000Y-89925000D03*
%TO.P,U5,4,GND*%
%TO.N,GND*%
X160100000Y-90425000D03*
%TO.P,U5,5,MOSI*%
%TO.N,MOSI*%
X163000000Y-90425000D03*
%TO.P,U5,6,SCK*%
%TO.N,SCK*%
X163000000Y-89925000D03*
%TO.P,U5,7,~{HOLD}*%
%TO.N,Net-(U5-~{HOLD})*%
X163000000Y-89425000D03*
%TO.P,U5,8,VCC*%
%TO.N,+3.3V*%
X163000000Y-88925000D03*
D45*
%TO.P,U5,9,GND*%
%TO.N,GND*%
X161550000Y-89675000D03*
%TD*%
D46*
%TO.P,C16,1*%
%TO.N,+3.3V*%
X149960589Y-95039411D03*
%TO.P,C16,2*%
%TO.N,GND*%
X150639411Y-94360589D03*
%TD*%
D47*
%TO.P,D1,1,K*%
%TO.N,VCC*%
X148100000Y-113100000D03*
%TO.P,D1,2,A*%
%TO.N,V_USB*%
X148100000Y-115200000D03*
%TD*%
D21*
%TO.P,R4,1*%
%TO.N,SWCLK*%
X165800000Y-89710000D03*
%TO.P,R4,2*%
%TO.N,+3.3V*%
X165800000Y-88690000D03*
%TD*%
D48*
%TO.P,D7,1,VDD*%
%TO.N,+3.3V*%
X130350000Y-89250000D03*
%TO.P,D7,2,DOUT*%
%TO.N,unconnected-(D7-DOUT-Pad2)*%
X130350000Y-92550000D03*
%TO.P,D7,3,VSS*%
%TO.N,GND*%
X135250000Y-92550000D03*
%TO.P,D7,4,DIN*%
%TO.N,NEOPIX*%
X135250000Y-89250000D03*
%TD*%
D37*
%TO.P,R7,1*%
%TO.N,UART_TX*%
X147139376Y-98060624D03*
%TO.P,R7,2*%
%TO.N,UART_RX*%
X147860624Y-97339376D03*
%TD*%
D49*
%TO.P,J1,A1,GND*%
%TO.N,GND*%
X164920000Y-109850000D03*
%TO.P,J1,A4,VBUS*%
%TO.N,V_USB*%
X164920000Y-109050000D03*
D50*
%TO.P,J1,A5,CC1*%
%TO.N,Net-(J1-CC1)*%
X164920000Y-107900000D03*
%TO.P,J1,A6,D+*%
%TO.N,D+*%
X164920000Y-106900000D03*
%TO.P,J1,A7,D-*%
%TO.N,D-*%
X164920000Y-106400000D03*
%TO.P,J1,A8,SBU1*%
%TO.N,unconnected-(J1-SBU1-PadA8)*%
X164920000Y-105400000D03*
D49*
%TO.P,J1,A9,VBUS*%
%TO.N,V_USB*%
X164920000Y-104250000D03*
%TO.P,J1,A12,GND*%
%TO.N,GND*%
X164920000Y-103450000D03*
%TO.P,J1,B1,GND*%
X164920000Y-103450000D03*
%TO.P,J1,B4,VBUS*%
%TO.N,V_USB*%
X164920000Y-104250000D03*
D50*
%TO.P,J1,B5,CC2*%
%TO.N,Net-(J1-CC2)*%
X164920000Y-104900000D03*
%TO.P,J1,B6,D+*%
%TO.N,D+*%
X164920000Y-105900000D03*
%TO.P,J1,B7,D-*%
%TO.N,D-*%
X164920000Y-107400000D03*
%TO.P,J1,B8,SBU2*%
%TO.N,unconnected-(J1-SBU2-PadB8)*%
X164920000Y-108400000D03*
D49*
%TO.P,J1,B9,VBUS*%
%TO.N,V_USB*%
X164920000Y-109050000D03*
%TO.P,J1,B12,GND*%
%TO.N,GND*%
X164920000Y-109850000D03*
D51*
%TO.P,J1,S1,SHIELD*%
%TO.N,Net-(J1-SHIELD)*%
X165495000Y-110970000D03*
D52*
X169675000Y-110970000D03*
D51*
X165495000Y-102330000D03*
D52*
X169675000Y-102330000D03*
%TD*%
D53*
%TO.P,R14,1*%
%TO.N,/BRB*%
X137537470Y-101166912D03*
%TO.P,R14,2*%
%TO.N,GND*%
X137537470Y-104091912D03*
%TD*%
D54*
%TO.P,R20,1*%
%TO.N,+3.3V*%
X161360624Y-104339376D03*
%TO.P,R20,2*%
%TO.N,SCL1*%
X160639376Y-105060624D03*
%TD*%
D55*
%TO.P,Y1,1,1*%
%TO.N,Net-(U3-PA00)*%
X154183883Y-91033883D03*
%TO.P,Y1,2,2*%
%TO.N,Net-(U3-PA01)*%
X152416117Y-89266117D03*
%TD*%
D20*
%TO.P,R1,1*%
%TO.N,GND*%
X165190000Y-100600000D03*
%TO.P,R1,2*%
%TO.N,Net-(J1-SHIELD)*%
X166210000Y-100600000D03*
%TD*%
D56*
%TO.N,GND*%
X146000000Y-90000000D03*
X166000000Y-80000000D03*
X164000000Y-80000000D03*
X162000000Y-80000000D03*
X160000000Y-80000000D03*
X158000000Y-80000000D03*
X156000000Y-80000000D03*
X154000000Y-80000000D03*
X152000000Y-80000000D03*
X150000000Y-80000000D03*
X148000000Y-80000000D03*
X146000000Y-80000000D03*
X144000000Y-80000000D03*
X142000000Y-80000000D03*
X140000000Y-80000000D03*
X138000000Y-80000000D03*
X136000000Y-80000000D03*
X134000000Y-80000000D03*
X130000000Y-84000000D03*
X130000000Y-86000000D03*
X130000000Y-88000000D03*
X130000000Y-94000000D03*
X130000000Y-96000000D03*
X130000000Y-98000000D03*
X130000000Y-100000000D03*
X130000000Y-102000000D03*
X130000000Y-104000000D03*
X130000000Y-106000000D03*
X130000000Y-108000000D03*
X130000000Y-110000000D03*
X130000000Y-112000000D03*
X130000000Y-114000000D03*
X130000000Y-116000000D03*
X138000000Y-120000000D03*
X136000000Y-120000000D03*
X134000000Y-120000000D03*
X148000000Y-120000000D03*
X150000000Y-120000000D03*
X152000000Y-120000000D03*
X154000000Y-120000000D03*
X156000000Y-120000000D03*
X158000000Y-120000000D03*
X160000000Y-120000000D03*
X162000000Y-120000000D03*
X164000000Y-120000000D03*
X166000000Y-120000000D03*
X170000000Y-115000000D03*
X170000000Y-113000000D03*
X170000000Y-109000000D03*
X170000000Y-107000000D03*
X170000000Y-105000000D03*
X170000000Y-101000000D03*
X170000000Y-99000000D03*
X170000000Y-97000000D03*
X170000000Y-95000000D03*
X170000000Y-93000000D03*
X170000000Y-91000000D03*
X170000000Y-89000000D03*
X170000000Y-87000000D03*
X170000000Y-85000000D03*
X153400000Y-101700000D03*
X155100000Y-101700000D03*
X154100000Y-96000000D03*
X154100000Y-97500000D03*
X156000000Y-99300000D03*
X157900000Y-101200000D03*
X137800000Y-93000000D03*
X137100000Y-92300000D03*
X138500000Y-92300000D03*
X156300000Y-92400000D03*
%TO.N,+3.3V*%
X145500000Y-92900000D03*
%TO.N,GND*%
X147300000Y-91300000D03*
%TO.N,+3.3V*%
X167000000Y-88100000D03*
X152600000Y-99100000D03*
X143300000Y-116800000D03*
X143600000Y-84100000D03*
X162000000Y-91600000D03*
X146600000Y-106800000D03*
X143300000Y-115400000D03*
X142100000Y-116100000D03*
X143600000Y-83200000D03*
X142500000Y-116800000D03*
X158900000Y-108200000D03*
X141700000Y-116800000D03*
X160800000Y-86500000D03*
X143700000Y-116100000D03*
X162700000Y-93600000D03*
X147769514Y-103541417D03*
X152100000Y-110900000D03*
X161556479Y-105263787D03*
X141300000Y-116100000D03*
D57*
X130400000Y-90700000D03*
D56*
X145500000Y-96800000D03*
X142900000Y-116100000D03*
X143600000Y-82300000D03*
X142500000Y-115400000D03*
X141700000Y-115400000D03*
X150350500Y-111100000D03*
X155600000Y-110800000D03*
%TO.N,GND*%
X152600000Y-100000000D03*
X162763337Y-91124162D03*
X159400000Y-98100000D03*
X163200000Y-102600000D03*
X143700000Y-119800000D03*
X157100000Y-108500000D03*
X137900000Y-106300000D03*
X139400000Y-107000000D03*
X138400000Y-107000000D03*
X144500000Y-119800000D03*
X141300000Y-119800000D03*
X146609266Y-104179912D03*
X146100000Y-119800000D03*
X142900000Y-119800000D03*
X140500000Y-119800000D03*
X156600000Y-82300000D03*
X139700000Y-119800000D03*
X156600000Y-84100000D03*
X138900000Y-106300000D03*
X156600000Y-83200000D03*
X161700000Y-93474500D03*
X136900000Y-106300000D03*
X145300000Y-119800000D03*
X142100000Y-119800000D03*
X147682338Y-99407146D03*
X137400000Y-107000000D03*
X151400000Y-90800000D03*
X142900000Y-93300000D03*
X148400000Y-111900000D03*
X163900000Y-110400000D03*
X160564830Y-106364830D03*
%TO.N,VCC*%
X141600000Y-91700000D03*
X140700000Y-92550000D03*
X140650000Y-105800000D03*
X140650000Y-106650000D03*
X141600000Y-92550000D03*
X141550000Y-105800000D03*
X141550000Y-106650000D03*
X140700000Y-91700000D03*
%TO.N,RESET*%
X162900000Y-100600000D03*
X163400000Y-108300000D03*
D58*
%TO.N,MOTOR_A1*%
X141400000Y-95450000D03*
X140900000Y-95700000D03*
X141400000Y-96000000D03*
X140900000Y-96300000D03*
%TO.N,MOTOR_B2*%
X141399970Y-103000000D03*
X140899970Y-102100000D03*
X141399970Y-102400000D03*
X140899970Y-102700000D03*
D57*
%TO.N,SWCLK*%
X166736837Y-90058563D03*
X163900000Y-92300000D03*
D56*
%TO.N,SCL1*%
X158128936Y-102871064D03*
X145600000Y-88100000D03*
%TO.N,SDA1*%
X144600000Y-88000000D03*
X156700000Y-102500000D03*
%TO.N,EEPROM_CS*%
X159100000Y-102200000D03*
X159300000Y-86500000D03*
%TO.N,EN*%
X149771064Y-105725500D03*
X142363000Y-102900000D03*
%TO.N,MISO*%
X156459409Y-89771856D03*
X158600000Y-88100000D03*
%TO.N,SCK*%
X155602894Y-89497106D03*
X164740574Y-88500000D03*
%TO.N,MOSI*%
X164769104Y-89413664D03*
X157427846Y-90190687D03*
%TD*%
D59*
%TO.N,+3.3V*%
X166390000Y-88100000D02*
X167000000Y-88100000D01*
X165800000Y-88690000D02*
X166390000Y-88100000D01*
%TO.N,Net-(U3-VDDCORE)*%
X162970000Y-96700000D02*
X163400000Y-97130000D01*
X163400000Y-97130000D02*
X163400000Y-98350000D01*
X163400000Y-98350000D02*
X163950000Y-98900000D01*
X161184367Y-96690507D02*
X160641429Y-97233445D01*
X162960507Y-96690507D02*
X161184367Y-96690507D01*
X162970000Y-96700000D02*
X162960507Y-96690507D01*
X163637500Y-96032500D02*
X162970000Y-96700000D01*
X163637500Y-95000000D02*
X163637500Y-96032500D01*
X160641429Y-97162734D02*
X160802082Y-97002081D01*
X160641429Y-97233445D02*
X160641429Y-97162734D01*
%TO.N,GND*%
X164905000Y-96700000D02*
X164180000Y-96700000D01*
X165000000Y-96605000D02*
X164905000Y-96700000D01*
D60*
X165000000Y-98050000D02*
X165850000Y-98900000D01*
X165000000Y-96605000D02*
X165000000Y-98050000D01*
D61*
%TO.N,SWCLK*%
X167400000Y-92100000D02*
X166705000Y-92795000D01*
X167400000Y-90721726D02*
X167400000Y-92100000D01*
X166705000Y-92795000D02*
X166270000Y-92795000D01*
X166736837Y-90058563D02*
X167400000Y-90721726D01*
X166148563Y-90058563D02*
X165800000Y-89710000D01*
X166736837Y-90058563D02*
X166148563Y-90058563D01*
D59*
X165890000Y-89710000D02*
X166000000Y-89600000D01*
X165800000Y-89710000D02*
X165890000Y-89710000D01*
%TO.N,MOSI*%
X163873960Y-90425000D02*
X162925000Y-90425000D01*
X164123959Y-90175000D02*
X163873960Y-90425000D01*
X164123959Y-90058809D02*
X164123959Y-90175000D01*
X164769104Y-89413664D02*
X164123959Y-90058809D01*
D61*
%TO.N,SWDIO*%
X166270000Y-91170000D02*
X166270000Y-91525000D01*
X164300000Y-90600000D02*
X165700000Y-90600000D01*
X160213604Y-92350000D02*
X162550000Y-92350000D01*
X165700000Y-90600000D02*
X166270000Y-91170000D01*
X159765000Y-92798604D02*
X160213604Y-92350000D01*
X158873662Y-95465678D02*
X159765000Y-94574340D01*
X159765000Y-94574340D02*
X159765000Y-92798604D01*
X162550000Y-92350000D02*
X164300000Y-90600000D01*
D59*
%TO.N,GND*%
X161550000Y-89930761D02*
X161550000Y-89675000D01*
X162743401Y-91124162D02*
X161550000Y-89930761D01*
X162763337Y-91124162D02*
X162743401Y-91124162D01*
D62*
%TO.N,SCK*%
X163556744Y-89925000D02*
X163000000Y-89925000D01*
X164150000Y-89331744D02*
X163556744Y-89925000D01*
X164150000Y-89150000D02*
X164150000Y-89331744D01*
X164740574Y-88500000D02*
X164740574Y-88559426D01*
X164740574Y-88559426D02*
X164150000Y-89150000D01*
D60*
%TO.N,GND*%
X163400000Y-102600000D02*
X163200000Y-102600000D01*
X164250000Y-103450000D02*
X163400000Y-102600000D01*
X164920000Y-103450000D02*
X164250000Y-103450000D01*
D59*
X156000000Y-91821178D02*
X156000000Y-92100000D01*
X156000000Y-92100000D02*
X156300000Y-92400000D01*
X155639411Y-91460589D02*
X156000000Y-91821178D01*
X147300000Y-91300000D02*
X147300000Y-92500000D01*
X147300000Y-92500000D02*
X147628249Y-92828249D01*
%TO.N,+3.3V*%
X146771751Y-94171751D02*
X145500000Y-92900000D01*
X148971751Y-94171751D02*
X146771751Y-94171751D01*
%TO.N,NEOPIX*%
X150039340Y-95700000D02*
X150865678Y-96526338D01*
X147031371Y-95100000D02*
X147631371Y-95700000D01*
X140300000Y-89200000D02*
X146200000Y-95100000D01*
X135300000Y-89200000D02*
X140300000Y-89200000D01*
X147631371Y-95700000D02*
X150039340Y-95700000D01*
X135250000Y-89250000D02*
X135300000Y-89200000D01*
X146200000Y-95100000D02*
X147031371Y-95100000D01*
%TO.N,+3.3V*%
X148791417Y-103541417D02*
X148910589Y-103660589D01*
D61*
X159200000Y-99000000D02*
X158600000Y-98400000D01*
D59*
X162175500Y-94124500D02*
X162700000Y-93600000D01*
D60*
X143600000Y-84100000D02*
X143600000Y-83200000D01*
D59*
X149264537Y-103660589D02*
X150158571Y-102766555D01*
X160850000Y-94780000D02*
X160850000Y-94903554D01*
D60*
X147700000Y-117020000D02*
X146470000Y-117020000D01*
D59*
X160850000Y-94903554D02*
X159580769Y-96172785D01*
D60*
X143600000Y-85750000D02*
X143600000Y-84100000D01*
D59*
X161110000Y-91600000D02*
X162000000Y-91600000D01*
X152110000Y-110910000D02*
X152100000Y-110900000D01*
X160810000Y-86510000D02*
X160800000Y-86500000D01*
D60*
X143600000Y-82300000D02*
X143600000Y-82700000D01*
D59*
X147769514Y-103541417D02*
X148791417Y-103541417D01*
X160810000Y-87800000D02*
X160810000Y-86510000D01*
D61*
X159703301Y-99000000D02*
X159200000Y-99000000D01*
D59*
X158439411Y-107739411D02*
X158900000Y-108200000D01*
X161360624Y-104339376D02*
X161360624Y-105067932D01*
X155300000Y-111890000D02*
X155300000Y-111100000D01*
X147900000Y-106712500D02*
X146687500Y-106712500D01*
X146687500Y-106712500D02*
X146600000Y-106800000D01*
X160200000Y-108210000D02*
X158910000Y-108210000D01*
X161360624Y-105067932D02*
X161556479Y-105263787D01*
D61*
X162055643Y-101352342D02*
X159703301Y-99000000D01*
D59*
X158064395Y-107260589D02*
X158439411Y-107260589D01*
X158439411Y-107260589D02*
X158439411Y-107739411D01*
X159239376Y-106460624D02*
X158439411Y-107260589D01*
X152110000Y-111990000D02*
X152110000Y-110910000D01*
X155300000Y-111100000D02*
X155600000Y-110800000D01*
X157105895Y-106302089D02*
X158064395Y-107260589D01*
D60*
X146470000Y-117020000D02*
X145600000Y-116150000D01*
D59*
X148971751Y-94200573D02*
X149960589Y-95189411D01*
X145450000Y-96750000D02*
X145500000Y-96800000D01*
D61*
X158600000Y-98400000D02*
X158600000Y-97153554D01*
D59*
X161505500Y-94124500D02*
X162175500Y-94124500D01*
D60*
X143600000Y-83200000D02*
X143600000Y-82300000D01*
D59*
X161990000Y-87800000D02*
X160810000Y-87800000D01*
X144487500Y-96750000D02*
X145450000Y-96750000D01*
X161990000Y-87800000D02*
X161990000Y-87990000D01*
X150300000Y-111990000D02*
X150300000Y-111150500D01*
X130350000Y-90650000D02*
X130400000Y-90700000D01*
X158910000Y-108210000D02*
X158900000Y-108200000D01*
X150300000Y-111150500D02*
X150350500Y-111100000D01*
D61*
X158600000Y-97153554D02*
X159580769Y-96172785D01*
D59*
X148910589Y-103660589D02*
X149264537Y-103660589D01*
X148971751Y-94171751D02*
X148971751Y-94200573D01*
X130350000Y-89250000D02*
X130350000Y-90650000D01*
X160850000Y-94780000D02*
X161505500Y-94124500D01*
X161990000Y-87990000D02*
X162925000Y-88925000D01*
%TO.N,GND*%
X149077818Y-92828249D02*
X150639411Y-94389842D01*
X142800000Y-93400000D02*
X142900000Y-93300000D01*
X142487500Y-101650000D02*
X142450000Y-101650000D01*
X156752342Y-106655643D02*
X156752342Y-106931164D01*
D60*
X165190000Y-100600000D02*
X165190000Y-99560000D01*
D59*
X156752342Y-106931164D02*
X157760589Y-107939411D01*
X148000000Y-111500000D02*
X148400000Y-111900000D01*
X156700000Y-109800000D02*
X156700000Y-112400000D01*
D60*
X156600000Y-83200000D02*
X156600000Y-82300000D01*
X156600000Y-84100000D02*
X156600000Y-83200000D01*
D59*
X149528822Y-104400000D02*
X149589411Y-104339411D01*
D60*
X147700000Y-117980000D02*
X146070000Y-117980000D01*
X147380000Y-111900000D02*
X148400000Y-111900000D01*
D59*
X160100000Y-90425000D02*
X160800000Y-90425000D01*
X157200000Y-108500000D02*
X157100000Y-108500000D01*
X157760589Y-107939411D02*
X157200000Y-108500000D01*
X138000000Y-108800000D02*
X138200000Y-109000000D01*
X159400000Y-97767767D02*
X159400000Y-98100000D01*
X142737500Y-100700000D02*
X143237500Y-100200000D01*
X161300000Y-108180000D02*
X161300000Y-108400000D01*
X149500000Y-110610000D02*
X148000000Y-110610000D01*
X157100000Y-108600000D02*
X157000000Y-108700000D01*
X150971249Y-94510589D02*
X151926338Y-95465678D01*
X135720558Y-92550000D02*
X137537470Y-94366912D01*
X147329491Y-99407146D02*
X147682338Y-99407146D01*
X147628249Y-92828249D02*
X149077818Y-92828249D01*
X142412500Y-101612500D02*
X142412500Y-99775000D01*
X152210589Y-91610589D02*
X151400000Y-90800000D01*
X135250000Y-92550000D02*
X135720558Y-92550000D01*
X142412500Y-99775000D02*
X142987500Y-99200000D01*
X157000000Y-109500000D02*
X156700000Y-109800000D01*
X142450000Y-101650000D02*
X142412500Y-101612500D01*
D60*
X164450000Y-109850000D02*
X163900000Y-110400000D01*
D59*
X157100000Y-108500000D02*
X157100000Y-108600000D01*
X150639411Y-94389842D02*
X150639411Y-94510589D01*
D60*
X161025500Y-93474500D02*
X160850000Y-93650000D01*
X146070000Y-117980000D02*
X145600000Y-118450000D01*
X156600000Y-85750000D02*
X156600000Y-84100000D01*
D59*
X149589411Y-104042822D02*
X149589411Y-104339411D01*
X163300000Y-102700000D02*
X163200000Y-102600000D01*
X146600000Y-104170646D02*
X146609266Y-104179912D01*
D60*
X160850000Y-93650000D02*
X160850000Y-93820000D01*
D59*
X146829354Y-104400000D02*
X149528822Y-104400000D01*
X150639411Y-94510589D02*
X150971249Y-94510589D01*
X156700000Y-112400000D02*
X157000000Y-112700000D01*
X145437500Y-98200000D02*
X146122345Y-98200000D01*
X161702089Y-101705895D02*
X162596194Y-102600000D01*
X142800000Y-94390000D02*
X142800000Y-93400000D01*
D60*
X165190000Y-99560000D02*
X165850000Y-98900000D01*
X156600000Y-82300000D02*
X156600000Y-82200000D01*
D59*
X157000000Y-108700000D02*
X157000000Y-109500000D01*
D60*
X161700000Y-93474500D02*
X161025500Y-93474500D01*
D59*
X160800000Y-90425000D02*
X161550000Y-89675000D01*
X160200000Y-109500000D02*
X160200000Y-112700000D01*
X160729660Y-106200000D02*
X160564830Y-106364830D01*
X148000000Y-110610000D02*
X148000000Y-111500000D01*
X146122345Y-98200000D02*
X147329491Y-99407146D01*
X160287876Y-96879891D02*
X159400000Y-97767767D01*
X161300000Y-108400000D02*
X160200000Y-109500000D01*
X150512124Y-103120109D02*
X149589411Y-104042822D01*
X161290000Y-106200000D02*
X160729660Y-106200000D01*
X146600000Y-103480000D02*
X146600000Y-104170646D01*
X146609266Y-104179912D02*
X146829354Y-104400000D01*
D60*
X164920000Y-109850000D02*
X164450000Y-109850000D01*
D59*
X142987500Y-96750000D02*
X142987500Y-99200000D01*
X162596194Y-102600000D02*
X163200000Y-102600000D01*
X163300000Y-103490000D02*
X163300000Y-102700000D01*
%TO.N,VCC*%
X144800000Y-104180000D02*
X144270000Y-104710000D01*
X144270000Y-104710000D02*
X141760000Y-104710000D01*
X141760000Y-104710000D02*
X141450000Y-104400000D01*
D63*
X146350000Y-113100000D02*
X145600000Y-113850000D01*
X148100000Y-113100000D02*
X146350000Y-113100000D01*
D62*
%TO.N,Net-(U4-CPI)*%
X143487500Y-103057500D02*
X143487500Y-101650000D01*
%TO.N,Net-(U4-CPO)*%
X142987500Y-101650000D02*
X142987500Y-103467500D01*
X143600000Y-104080000D02*
X142987500Y-103467500D01*
X143600000Y-104130000D02*
X143600000Y-104080000D01*
D59*
%TO.N,Net-(U4-5VOUT)*%
X146600000Y-101862500D02*
X145437500Y-100700000D01*
X146600000Y-102520000D02*
X146600000Y-101862500D01*
%TO.N,RESET*%
X160452045Y-98511306D02*
X162540739Y-100600000D01*
X162540739Y-100600000D02*
X162900000Y-100600000D01*
X163400000Y-108190000D02*
X163400000Y-108300000D01*
X162400000Y-107190000D02*
X163400000Y-108190000D01*
X160994982Y-97586998D02*
X160452045Y-98129935D01*
X162400000Y-107190000D02*
X160000000Y-107190000D01*
X160452045Y-98129935D02*
X160452045Y-98511306D01*
%TO.N,Net-(U4-VCP)*%
X143987500Y-101650000D02*
X143987500Y-102407500D01*
X143987500Y-102407500D02*
X144800000Y-103220000D01*
%TO.N,Net-(D5-K)*%
X147900000Y-109490000D02*
X148000000Y-109590000D01*
X147900000Y-108287500D02*
X147900000Y-109490000D01*
%TO.N,SCL2*%
X151400000Y-107889087D02*
X153340551Y-105948536D01*
X151400000Y-115000000D02*
X151400000Y-113600000D01*
X151990000Y-113010000D02*
X151400000Y-113600000D01*
X151950000Y-115550000D02*
X151400000Y-115000000D01*
X151400000Y-113600000D02*
X151400000Y-107889087D01*
X152110000Y-113010000D02*
X151990000Y-113010000D01*
%TO.N,SDA2*%
X150300000Y-113010000D02*
X150410000Y-113010000D01*
X150410000Y-113010000D02*
X151000000Y-113600000D01*
X151000000Y-116400000D02*
X151000000Y-113600000D01*
X151325000Y-116725000D02*
X151000000Y-116400000D01*
X152775000Y-116725000D02*
X151325000Y-116725000D01*
X153950000Y-115550000D02*
X152775000Y-116725000D01*
X151000000Y-113600000D02*
X151000000Y-107581980D01*
X151000000Y-107581980D02*
X152986998Y-105594982D01*
%TO.N,V_USB*%
X165109000Y-108861000D02*
X164920000Y-109050000D01*
D60*
X151100000Y-118200000D02*
X157700000Y-118200000D01*
D59*
X167000000Y-104600000D02*
X168000000Y-105600000D01*
X166939000Y-108861000D02*
X165109000Y-108861000D01*
X165450000Y-104250000D02*
X165800000Y-104600000D01*
D60*
X164045000Y-109050000D02*
X164920000Y-109050000D01*
D59*
X168000000Y-105600000D02*
X168000000Y-107800000D01*
D60*
X163100000Y-112800000D02*
X163100000Y-109995000D01*
D59*
X168000000Y-107800000D02*
X166939000Y-108861000D01*
D60*
X163100000Y-109995000D02*
X164045000Y-109050000D01*
X148100000Y-115200000D02*
X151100000Y-118200000D01*
D59*
X165800000Y-104600000D02*
X167000000Y-104600000D01*
X164920000Y-104250000D02*
X165450000Y-104250000D01*
D60*
X157700000Y-118200000D02*
X163100000Y-112800000D01*
D59*
%TO.N,Net-(U3-PA01)*%
X152416117Y-89266117D02*
X152889411Y-89739411D01*
X152889411Y-89739411D02*
X152889411Y-92289411D01*
X152889411Y-92893217D02*
X153694105Y-93697911D01*
X152889411Y-92289411D02*
X152889411Y-92893217D01*
%TO.N,D+*%
X163615686Y-105900000D02*
X164875000Y-105900000D01*
X166400000Y-106700000D02*
X166200000Y-106900000D01*
X166400000Y-106100000D02*
X166400000Y-106700000D01*
X161348536Y-102059449D02*
X162550000Y-103260913D01*
X162550000Y-104834314D02*
X163615686Y-105900000D01*
X164920000Y-105900000D02*
X166200000Y-105900000D01*
X162550000Y-103260913D02*
X162550000Y-104834314D01*
X166200000Y-106900000D02*
X164920000Y-106900000D01*
X166200000Y-105900000D02*
X166400000Y-106100000D01*
%TO.N,D-*%
X163550000Y-106855000D02*
X163550000Y-106400000D01*
X162150000Y-105000000D02*
X163550000Y-106400000D01*
X164920000Y-107400000D02*
X164095000Y-107400000D01*
X160994982Y-102413002D02*
X162150000Y-103568020D01*
X162150000Y-103568020D02*
X162150000Y-105000000D01*
X163550000Y-106400000D02*
X164875000Y-106400000D01*
X164095000Y-107400000D02*
X163550000Y-106855000D01*
%TO.N,Net-(J1-CC1)*%
X163995000Y-107900000D02*
X164920000Y-107900000D01*
X163100000Y-106954817D02*
X163100000Y-107005000D01*
X163100000Y-107005000D02*
X163995000Y-107900000D01*
X162310000Y-106200000D02*
X162345183Y-106200000D01*
X162345183Y-106200000D02*
X163100000Y-106954817D01*
%TO.N,Net-(J1-CC2)*%
X163690000Y-104900000D02*
X164920000Y-104900000D01*
X163300000Y-104510000D02*
X163690000Y-104900000D01*
D60*
%TO.N,Net-(J1-SHIELD)*%
X166210000Y-101615000D02*
X165495000Y-102330000D01*
X166210000Y-100600000D02*
X166210000Y-101615000D01*
D63*
%TO.N,MOTOR_B1*%
X134432353Y-98229412D02*
X134802941Y-98600000D01*
X134802941Y-98600000D02*
X138900000Y-98600000D01*
%TO.N,MOTOR_A2*%
X134432353Y-100167647D02*
X134800000Y-99800000D01*
X134800000Y-99800000D02*
X138900000Y-99800000D01*
X134432353Y-100229412D02*
X134432353Y-100167647D01*
D61*
%TO.N,SWCLK*%
X160215000Y-92985000D02*
X160215000Y-94831446D01*
X163900000Y-92300000D02*
X163400000Y-92800000D01*
X163400000Y-92800000D02*
X160400000Y-92800000D01*
X160215000Y-94831446D02*
X159227215Y-95819231D01*
X160400000Y-92800000D02*
X160215000Y-92985000D01*
D59*
%TO.N,Net-(U4-STDBY)*%
X141987500Y-96750000D02*
X141987500Y-96222500D01*
X141987500Y-96222500D02*
X142800000Y-95410000D01*
D62*
%TO.N,Net-(U5-~{WP})*%
X160090000Y-91490000D02*
X159450000Y-90850000D01*
X160090000Y-91600000D02*
X160090000Y-91490000D01*
X159450000Y-90000000D02*
X159525000Y-89925000D01*
X159525000Y-89925000D02*
X160100000Y-89925000D01*
X159450000Y-90850000D02*
X159450000Y-90000000D01*
D59*
%TO.N,Net-(R5-Pad1)*%
X161800000Y-108810000D02*
X162400000Y-108210000D01*
X161800000Y-112700000D02*
X161800000Y-109500000D01*
X161800000Y-109500000D02*
X161800000Y-108810000D01*
%TO.N,UART_TX*%
X147726410Y-98647658D02*
X147139376Y-98060624D01*
X148744357Y-98647658D02*
X147726410Y-98647658D01*
%TO.N,UART_RX*%
X147860624Y-97339376D02*
X146983813Y-97339376D01*
X146983813Y-97339376D02*
X146623189Y-97700000D01*
X149097911Y-98294105D02*
X148143182Y-97339376D01*
X146623189Y-97700000D02*
X145437500Y-97700000D01*
X148143182Y-97339376D02*
X147860624Y-97339376D01*
D62*
%TO.N,Net-(U5-~{HOLD})*%
X163000000Y-89350000D02*
X163575000Y-89350000D01*
X163800000Y-88590000D02*
X163800000Y-89186770D01*
X163800000Y-89186770D02*
X163650000Y-89336770D01*
X163010000Y-87800000D02*
X163800000Y-88590000D01*
X162925000Y-89425000D02*
X163000000Y-89350000D01*
D59*
%TO.N,User_Input*%
X155500000Y-113110000D02*
X155990000Y-113600000D01*
X157700000Y-113600000D02*
X158300000Y-113000000D01*
X155990000Y-113600000D02*
X157700000Y-113600000D01*
X155500000Y-112900000D02*
X155500000Y-113110000D01*
X158300000Y-113000000D02*
X158300000Y-109800000D01*
X158300000Y-109800000D02*
X158600000Y-109500000D01*
%TO.N,SCL1*%
X159227215Y-104180769D02*
X160107070Y-105060624D01*
X158128936Y-102871064D02*
X158128936Y-103082490D01*
X160107070Y-105060624D02*
X160639376Y-105060624D01*
X158128936Y-103082490D02*
X159227215Y-104180769D01*
X145600000Y-88100000D02*
X145600000Y-85750000D01*
%TO.N,SDA1*%
X159960624Y-105739376D02*
X159960624Y-105621284D01*
X156700000Y-102500000D02*
X156839340Y-102500000D01*
X144600000Y-85750000D02*
X144600000Y-88000000D01*
X159960624Y-105621284D02*
X158873662Y-104534322D01*
X156839340Y-102500000D02*
X158873662Y-104534322D01*
%TO.N,EEPROM_CS*%
X159934322Y-103473662D02*
X159100000Y-102639340D01*
X159100000Y-102639340D02*
X159100000Y-102200000D01*
D62*
X159465000Y-87475000D02*
X159465000Y-86665000D01*
X159465000Y-86665000D02*
X159300000Y-86500000D01*
X160025000Y-88925000D02*
X160025000Y-88035000D01*
X159790000Y-87800000D02*
X159465000Y-87475000D01*
X160025000Y-88035000D02*
X159790000Y-87800000D01*
D59*
%TO.N,EN*%
X150028054Y-105725500D02*
X151572785Y-104180769D01*
X141987500Y-102524500D02*
X142363000Y-102900000D01*
X151572785Y-104180769D02*
X150907108Y-104846446D01*
X141987500Y-101650000D02*
X141987500Y-102524500D01*
X149771064Y-105725500D02*
X150028054Y-105725500D01*
D62*
%TO.N,DIAG*%
X148579973Y-102223833D02*
X149097911Y-101705895D01*
X147872866Y-101912741D02*
X148183958Y-102223833D01*
X145437500Y-99200000D02*
X145995659Y-99200000D01*
X145995659Y-99200000D02*
X147872866Y-101077207D01*
X148183958Y-102223833D02*
X148579973Y-102223833D01*
X147872866Y-101077207D02*
X147872866Y-101912741D01*
%TO.N,INDEX*%
X145437500Y-98700000D02*
X146092015Y-98700000D01*
X146092015Y-98700000D02*
X148744357Y-101352342D01*
D59*
%TO.N,STEP*%
X146700000Y-95900000D02*
X144424848Y-95900000D01*
X144424848Y-95900000D02*
X143987500Y-96337348D01*
X149425126Y-96500000D02*
X147300000Y-96500000D01*
X143987500Y-96337348D02*
X143987500Y-96750000D01*
X150158571Y-97233445D02*
X149425126Y-96500000D01*
X147300000Y-96500000D02*
X146700000Y-95900000D01*
%TO.N,DIR*%
X149732233Y-96100000D02*
X147465685Y-96100000D01*
X150512124Y-96879891D02*
X149732233Y-96100000D01*
X146865685Y-95500000D02*
X144259162Y-95500000D01*
X142487500Y-96288186D02*
X142487500Y-96750000D01*
X142795686Y-95980000D02*
X142487500Y-96288186D01*
X147465685Y-96100000D02*
X146865685Y-95500000D01*
X144259162Y-95500000D02*
X143779162Y-95980000D01*
X143779162Y-95980000D02*
X142795686Y-95980000D01*
%TO.N,MISO*%
X156459409Y-90140782D02*
X158140000Y-91821373D01*
X158600000Y-88625000D02*
X159400000Y-89425000D01*
X158140000Y-91821373D02*
X158140000Y-93370913D01*
X155872133Y-88847106D02*
X155165734Y-88847106D01*
X156459409Y-89434382D02*
X155872133Y-88847106D01*
X156459409Y-89771856D02*
X156459409Y-90140782D01*
X153368628Y-87050000D02*
X152995000Y-87050000D01*
X159400000Y-89425000D02*
X160025000Y-89425000D01*
X158600000Y-88100000D02*
X158600000Y-88625000D01*
X152600000Y-86655000D02*
X152600000Y-85750000D01*
X156459409Y-89771856D02*
X156459409Y-89434382D01*
X158140000Y-93370913D02*
X157459449Y-94051464D01*
X152995000Y-87050000D02*
X152600000Y-86655000D01*
X155165734Y-88847106D02*
X153368628Y-87050000D01*
%TO.N,SCK*%
X151600000Y-86655000D02*
X151600000Y-85750000D01*
X152395000Y-87450000D02*
X151600000Y-86655000D01*
X155602894Y-89497106D02*
X155602894Y-89849952D01*
X157740000Y-93063806D02*
X157105895Y-93697911D01*
X155602894Y-89849952D02*
X157740000Y-91987059D01*
X157740000Y-91987059D02*
X157740000Y-93063806D01*
X155602894Y-89497106D02*
X155250048Y-89497106D01*
X155250048Y-89497106D02*
X153202942Y-87450000D01*
X153202942Y-87450000D02*
X152395000Y-87450000D01*
%TO.N,MOSI*%
X155331420Y-88447106D02*
X153600000Y-86715686D01*
X153600000Y-86715686D02*
X153600000Y-85750000D01*
X158540000Y-91655687D02*
X158540000Y-93678020D01*
X157427846Y-89821054D02*
X156053898Y-88447106D01*
X156053898Y-88447106D02*
X155331420Y-88447106D01*
X157427846Y-90190687D02*
X157427846Y-89821054D01*
X157427846Y-90543533D02*
X158540000Y-91655687D01*
X157427846Y-90190687D02*
X157427846Y-90543533D01*
X158540000Y-93678020D02*
X157813002Y-94405018D01*
%TO.N,Spread*%
X145500000Y-102662500D02*
X144487500Y-101650000D01*
X151219231Y-103827215D02*
X150047832Y-104998614D01*
X150047832Y-104998614D02*
X146198614Y-104998614D01*
X145500000Y-104300000D02*
X145500000Y-102662500D01*
X146198614Y-104998614D02*
X145500000Y-104300000D01*
D62*
%TO.N,MOT_M1*%
X147522866Y-101222181D02*
X146000685Y-99700000D01*
X146000685Y-99700000D02*
X145437500Y-99700000D01*
X148933527Y-102577386D02*
X148042537Y-102577386D01*
X149451464Y-102059449D02*
X148933527Y-102577386D01*
X147522866Y-102057715D02*
X147522866Y-101222181D01*
X148042537Y-102577386D02*
X147522866Y-102057715D01*
%TO.N,MOT_M0*%
X147901116Y-102930940D02*
X149287080Y-102930940D01*
X145814797Y-100200000D02*
X147172866Y-101558069D01*
X147172866Y-102202690D02*
X147901116Y-102930940D01*
X145437500Y-100200000D02*
X145814797Y-100200000D01*
X147172866Y-101558069D02*
X147172866Y-102202690D01*
X149287080Y-102930940D02*
X149805018Y-102413002D01*
D59*
%TO.N,Net-(U3-PA00)*%
X154960589Y-92139411D02*
X154960589Y-92431426D01*
X154960589Y-92431426D02*
X154047658Y-93344357D01*
X154960589Y-91810589D02*
X154183883Y-91033883D01*
X154960589Y-92139411D02*
X154960589Y-91810589D01*
%TO.N,Net-(D2-K)*%
X149500000Y-109590000D02*
X149500000Y-108387500D01*
X149500000Y-108387500D02*
X149600000Y-108287500D01*
%TO.N,USR_LED*%
X149748160Y-106712500D02*
X151926338Y-104534322D01*
X149600000Y-106712500D02*
X149748160Y-106712500D01*
%TO.N,PB30*%
X156385270Y-87647106D02*
X156147106Y-87647106D01*
X158477846Y-89739683D02*
X156385270Y-87647106D01*
X155600000Y-87100000D02*
X155600000Y-85750000D01*
X158520109Y-95112124D02*
X159340000Y-94292233D01*
X159340000Y-94292233D02*
X159340000Y-91324315D01*
X156147106Y-87647106D02*
X155600000Y-87100000D01*
X158477846Y-90462161D02*
X158477846Y-89739683D01*
X159340000Y-91324315D02*
X158477846Y-90462161D01*
%TO.N,PB31*%
X156219584Y-88047106D02*
X158077846Y-89905369D01*
X158077846Y-90627847D02*
X158940000Y-91490001D01*
X158077846Y-89905369D02*
X158077846Y-90627847D01*
X158940000Y-93985126D02*
X158166555Y-94758571D01*
X154600000Y-87150000D02*
X155497106Y-88047106D01*
X155497106Y-88047106D02*
X156219584Y-88047106D01*
X154600000Y-85750000D02*
X154600000Y-87150000D01*
X158940000Y-91490001D02*
X158940000Y-93985126D01*
%TO.N,PA02*%
X153340551Y-94051464D02*
X149600000Y-90310913D01*
X149600000Y-90310913D02*
X149600000Y-85750000D01*
%TO.N,PA03*%
X148600000Y-90018020D02*
X148600000Y-85750000D01*
X152986998Y-94405018D02*
X148600000Y-90018020D01*
%TO.N,PB05*%
X152279891Y-95112124D02*
X146600000Y-89432233D01*
X146600000Y-89432233D02*
X146600000Y-85750000D01*
%TO.N,PB04*%
X152633445Y-94758571D02*
X147600000Y-89725126D01*
X147600000Y-89725126D02*
X147600000Y-85750000D01*
%TO.N,SYNC*%
X154400000Y-114000000D02*
X155950000Y-115550000D01*
X153694105Y-106302089D02*
X153100000Y-106896194D01*
X154400000Y-111700000D02*
X154400000Y-114000000D01*
X153100000Y-110400000D02*
X154400000Y-111700000D01*
X153100000Y-106896194D02*
X153100000Y-110400000D01*
%TO.N,Net-(U3-VSW)*%
X161600000Y-95000000D02*
X160616600Y-95983400D01*
X161962500Y-95000000D02*
X161600000Y-95000000D01*
X160477260Y-95983400D02*
X159934322Y-96526338D01*
X160616600Y-95983400D02*
X160477260Y-95983400D01*
%TO.N,ETH_CS*%
X153037256Y-87850000D02*
X151795000Y-87850000D01*
X157340000Y-92760000D02*
X157340000Y-92152744D01*
X151795000Y-87850000D02*
X150600000Y-86655000D01*
X150600000Y-86655000D02*
X150600000Y-85750000D01*
X157340000Y-92152744D02*
X153037256Y-87850000D01*
X156752342Y-93344357D02*
X156755643Y-93344357D01*
X156755643Y-93344357D02*
X157340000Y-92760000D01*
%TD*%
%TA.AperFunction,Conductor*%
%TO.N,VCC*%
G36*
X140880539Y-100569685D02*
G01*
X140926294Y-100622489D01*
X140937500Y-100674000D01*
X140937500Y-100820727D01*
X140924409Y-100876181D01*
X140537500Y-101649998D01*
X140537499Y-101649999D01*
X140551887Y-101803503D01*
X140538913Y-101871368D01*
X140490249Y-101966876D01*
X140469166Y-102099997D01*
X140469166Y-102100002D01*
X140490249Y-102233123D01*
X140546594Y-102343706D01*
X140559490Y-102412375D01*
X140546594Y-102456294D01*
X140490249Y-102566876D01*
X140469166Y-102699997D01*
X140469166Y-102700002D01*
X140490249Y-102833121D01*
X140490250Y-102833124D01*
X140490251Y-102833126D01*
X140551442Y-102953220D01*
X140639237Y-103041015D01*
X140672721Y-103102336D01*
X140675014Y-103117122D01*
X140687469Y-103250000D01*
X141956566Y-103720025D01*
X142012596Y-103761767D01*
X142037163Y-103827175D01*
X142037500Y-103836305D01*
X142037500Y-107150000D01*
X145559081Y-108124832D01*
X145618439Y-108161688D01*
X145648449Y-108224785D01*
X145650000Y-108244338D01*
X145650000Y-109750000D01*
X146584978Y-111472327D01*
X146600000Y-111531486D01*
X146600000Y-114476000D01*
X146580315Y-114543039D01*
X146527511Y-114588794D01*
X146476000Y-114600000D01*
X144627792Y-114600000D01*
X144574864Y-114588136D01*
X138350002Y-111650000D01*
X138350000Y-111650000D01*
X131774000Y-111650000D01*
X131706961Y-111630315D01*
X131661206Y-111577511D01*
X131650000Y-111526000D01*
X131650000Y-109800000D01*
X133194061Y-109800000D01*
X133218040Y-109852506D01*
X133218040Y-109852507D01*
X133339889Y-110023619D01*
X133339895Y-110023625D01*
X133491932Y-110168592D01*
X133668657Y-110282166D01*
X133863686Y-110360244D01*
X133949999Y-110376878D01*
X133950000Y-110376878D01*
X133950000Y-109800000D01*
X134950000Y-109800000D01*
X134950000Y-110380372D01*
X135135686Y-110325850D01*
X135322414Y-110229586D01*
X135487537Y-110099731D01*
X135487540Y-110099728D01*
X135625105Y-109940969D01*
X135625114Y-109940958D01*
X135706496Y-109800000D01*
X134950000Y-109800000D01*
X133950000Y-109800000D01*
X133194061Y-109800000D01*
X131650000Y-109800000D01*
X131650000Y-109331395D01*
X134071114Y-109331395D01*
X134101837Y-109452719D01*
X134170289Y-109557492D01*
X134269052Y-109634363D01*
X134387424Y-109675000D01*
X134481073Y-109675000D01*
X134573446Y-109659586D01*
X134683514Y-109600019D01*
X134768278Y-109507941D01*
X134818551Y-109393330D01*
X134828886Y-109268605D01*
X134798163Y-109147281D01*
X134729711Y-109042508D01*
X134630948Y-108965637D01*
X134512576Y-108925000D01*
X134418927Y-108925000D01*
X134326554Y-108940414D01*
X134216486Y-108999981D01*
X134131722Y-109092059D01*
X134081449Y-109206670D01*
X134071114Y-109331395D01*
X131650000Y-109331395D01*
X131650000Y-108824000D01*
X131669685Y-108756961D01*
X131722489Y-108711206D01*
X131774000Y-108700000D01*
X133064178Y-108700000D01*
X133131217Y-108719685D01*
X133171565Y-108762000D01*
X133193504Y-108800000D01*
X135705940Y-108800000D01*
X135733599Y-108756961D01*
X135786402Y-108711206D01*
X135837914Y-108700000D01*
X136225500Y-108700000D01*
X136292539Y-108719685D01*
X136338294Y-108772489D01*
X136349500Y-108824000D01*
X136349500Y-109554269D01*
X136352353Y-109584699D01*
X136352353Y-109584701D01*
X136397206Y-109712880D01*
X136397207Y-109712882D01*
X136477850Y-109822150D01*
X136587118Y-109902793D01*
X136629845Y-109917743D01*
X136715299Y-109947646D01*
X136745730Y-109950500D01*
X136745734Y-109950500D01*
X139854270Y-109950500D01*
X139884699Y-109947646D01*
X139884701Y-109947646D01*
X139948790Y-109925219D01*
X140012882Y-109902793D01*
X140122150Y-109822150D01*
X140202793Y-109712882D01*
X140230268Y-109634363D01*
X140247646Y-109584701D01*
X140247646Y-109584699D01*
X140250500Y-109554269D01*
X140250500Y-108345730D01*
X140247646Y-108315300D01*
X140247645Y-108315298D01*
X140202489Y-108186248D01*
X140195534Y-108146296D01*
X140187500Y-107150000D01*
X140187500Y-105147568D01*
X140200096Y-105096783D01*
X140199724Y-105096653D01*
X140201113Y-105092682D01*
X140201872Y-105089624D01*
X140202787Y-105087889D01*
X140202793Y-105087882D01*
X140229704Y-105010972D01*
X140247646Y-104959701D01*
X140247646Y-104959699D01*
X140250500Y-104929269D01*
X140250500Y-103870730D01*
X140247646Y-103840300D01*
X140247646Y-103840298D01*
X140214006Y-103744163D01*
X140202793Y-103712118D01*
X140122150Y-103602850D01*
X140012882Y-103522207D01*
X140012880Y-103522206D01*
X139884700Y-103477353D01*
X139861568Y-103475184D01*
X139796659Y-103449325D01*
X139759172Y-103400569D01*
X139747525Y-103373391D01*
X139737500Y-103324548D01*
X139737500Y-101625451D01*
X139747526Y-101576605D01*
X140058929Y-100850000D01*
X140155291Y-100625153D01*
X140199792Y-100571289D01*
X140266350Y-100550034D01*
X140269265Y-100550000D01*
X140813500Y-100550000D01*
X140880539Y-100569685D01*
G37*
%TD.AperFunction*%
%TD*%
%TA.AperFunction,Conductor*%
%TO.N,MOTOR_B2*%
G36*
X141593039Y-101219685D02*
G01*
X141638794Y-101272489D01*
X141650000Y-101324000D01*
X141650000Y-103176000D01*
X141630315Y-103243039D01*
X141577511Y-103288794D01*
X141526000Y-103300000D01*
X141436393Y-103300000D01*
X141393327Y-103292281D01*
X140942734Y-103125398D01*
X140886704Y-103083656D01*
X140868363Y-103048924D01*
X140868306Y-103048757D01*
X140853084Y-103003850D01*
X140819600Y-102942529D01*
X140784547Y-102895705D01*
X140736289Y-102847447D01*
X140702804Y-102786124D01*
X140699970Y-102759766D01*
X140699970Y-102637697D01*
X140713486Y-102581401D01*
X140715803Y-102576853D01*
X140729695Y-102549590D01*
X140743770Y-102514191D01*
X140756666Y-102470272D01*
X140757915Y-102465833D01*
X140761459Y-102374445D01*
X140748563Y-102305776D01*
X140729696Y-102250411D01*
X140713485Y-102218595D01*
X140699970Y-102162303D01*
X140699970Y-102037692D01*
X140713485Y-101981403D01*
X140722015Y-101964663D01*
X140740758Y-101909955D01*
X140753732Y-101842090D01*
X140756490Y-101784325D01*
X140750895Y-101724641D01*
X140763444Y-101657618D01*
X140952643Y-101279222D01*
X140954875Y-101275156D01*
X140963852Y-101260195D01*
X141015223Y-101212842D01*
X141070176Y-101200000D01*
X141526000Y-101200000D01*
X141593039Y-101219685D01*
G37*
%TD.AperFunction*%
%TD*%
%TA.AperFunction,Conductor*%
%TO.N,+3.3V*%
G36*
X140311044Y-114252016D02*
G01*
X146498269Y-115381430D01*
X146560682Y-115412832D01*
X146596211Y-115472994D01*
X146600000Y-115503413D01*
X146600000Y-116796586D01*
X146580315Y-116863625D01*
X146527511Y-116909380D01*
X146498267Y-116918570D01*
X140311044Y-118047984D01*
X140288777Y-118050000D01*
X138424000Y-118050000D01*
X138356961Y-118030315D01*
X138311206Y-117977511D01*
X138300000Y-117926000D01*
X138300000Y-114374000D01*
X138319685Y-114306961D01*
X138372489Y-114261206D01*
X138424000Y-114250000D01*
X140288777Y-114250000D01*
X140311044Y-114252016D01*
G37*
%TD.AperFunction*%
%TD*%
%TA.AperFunction,Conductor*%
%TO.N,/BRA*%
G36*
X138062683Y-96419685D02*
G01*
X138070793Y-96425366D01*
X139927291Y-97839841D01*
X139955244Y-97869584D01*
X139979488Y-97905867D01*
X140010388Y-97952112D01*
X140097383Y-98010240D01*
X140097386Y-98010240D01*
X140097387Y-98010241D01*
X140120649Y-98014868D01*
X140174099Y-98025500D01*
X140174105Y-98025499D01*
X140177563Y-98025841D01*
X140200346Y-98030268D01*
X140223867Y-98037175D01*
X140281765Y-98045500D01*
X140281769Y-98045500D01*
X140813500Y-98045500D01*
X140880539Y-98065185D01*
X140926294Y-98117989D01*
X140937500Y-98169500D01*
X140937500Y-98195999D01*
X140917815Y-98263038D01*
X140865011Y-98308793D01*
X140813500Y-98319999D01*
X140206554Y-98319999D01*
X140182363Y-98317616D01*
X140142516Y-98309690D01*
X140136629Y-98308217D01*
X140135558Y-98307892D01*
X140135540Y-98307887D01*
X140089594Y-98298748D01*
X140071411Y-98293665D01*
X139588300Y-98117989D01*
X139278905Y-98005482D01*
X139250845Y-97990999D01*
X139227930Y-97975182D01*
X139167099Y-97952112D01*
X139068875Y-97914860D01*
X139068870Y-97914859D01*
X139003153Y-97906879D01*
X138997232Y-97905867D01*
X138993700Y-97905085D01*
X138985434Y-97903628D01*
X138951312Y-97897617D01*
X138915655Y-97894500D01*
X138594605Y-97894500D01*
X138556435Y-97888479D01*
X138437500Y-97850000D01*
X136511500Y-97850000D01*
X136444461Y-97830315D01*
X136398706Y-97777511D01*
X136387500Y-97726000D01*
X136387500Y-96524000D01*
X136407185Y-96456961D01*
X136459989Y-96411206D01*
X136511500Y-96400000D01*
X137995644Y-96400000D01*
X138062683Y-96419685D01*
G37*
%TD.AperFunction*%
%TD*%
%TA.AperFunction,Conductor*%
%TO.N,MOTOR_B1*%
G36*
X138958031Y-98107466D02*
G01*
X139094143Y-98156961D01*
X140037500Y-98500000D01*
X140047996Y-98500000D01*
X140095451Y-98509440D01*
X140097385Y-98510241D01*
X140154659Y-98521633D01*
X140174099Y-98525500D01*
X140900900Y-98525499D01*
X140900907Y-98525497D01*
X140901329Y-98525456D01*
X140901555Y-98525499D01*
X140906991Y-98525499D01*
X140906991Y-98526528D01*
X140969977Y-98538465D01*
X141020694Y-98586523D01*
X141037500Y-98648857D01*
X141037500Y-98751140D01*
X141017815Y-98818179D01*
X140965011Y-98863934D01*
X140906993Y-98873606D01*
X140906993Y-98874500D01*
X140901631Y-98874500D01*
X140901362Y-98874545D01*
X140900904Y-98874500D01*
X140174102Y-98874500D01*
X140097381Y-98889760D01*
X140095452Y-98890560D01*
X140047997Y-98900000D01*
X140037500Y-98900000D01*
X138972882Y-99093566D01*
X138941738Y-99095242D01*
X138943591Y-99095376D01*
X138934481Y-99095000D01*
X138934480Y-99095000D01*
X138361500Y-99095000D01*
X138294461Y-99075315D01*
X138248706Y-99022511D01*
X138237500Y-98971000D01*
X138237500Y-98224000D01*
X138257185Y-98156961D01*
X138309989Y-98111206D01*
X138361500Y-98100000D01*
X138915655Y-98100000D01*
X138958031Y-98107466D01*
G37*
%TD.AperFunction*%
%TD*%
%TA.AperFunction,Conductor*%
%TO.N,MOTOR_A1*%
G36*
X141593039Y-95119685D02*
G01*
X141638794Y-95172489D01*
X141650000Y-95224000D01*
X141650000Y-97076000D01*
X141630315Y-97143039D01*
X141577511Y-97188794D01*
X141526000Y-97200000D01*
X141086392Y-97200000D01*
X141019353Y-97180315D01*
X140975484Y-97131456D01*
X140775944Y-96732376D01*
X140763396Y-96665356D01*
X140766261Y-96634789D01*
X140763503Y-96577026D01*
X140750529Y-96509161D01*
X140731786Y-96454453D01*
X140713485Y-96418535D01*
X140699970Y-96362241D01*
X140699970Y-96237756D01*
X140713486Y-96181460D01*
X140729720Y-96149599D01*
X140729725Y-96149590D01*
X140743800Y-96114191D01*
X140756696Y-96070272D01*
X140757945Y-96065833D01*
X140761489Y-95974445D01*
X140748593Y-95905776D01*
X140729726Y-95850411D01*
X140713484Y-95818535D01*
X140699970Y-95762245D01*
X140699970Y-95640258D01*
X140719654Y-95573223D01*
X140736279Y-95552590D01*
X140780980Y-95507890D01*
X140799496Y-95489377D01*
X140803750Y-95484857D01*
X140803752Y-95484855D01*
X140815731Y-95471334D01*
X140852828Y-95411102D01*
X140878683Y-95346192D01*
X140878687Y-95346174D01*
X140879524Y-95343544D01*
X140880044Y-95342772D01*
X140880321Y-95342078D01*
X140880472Y-95342138D01*
X140918590Y-95285617D01*
X140954631Y-95264824D01*
X141378823Y-95107718D01*
X141421889Y-95100000D01*
X141526000Y-95100000D01*
X141593039Y-95119685D01*
G37*
%TD.AperFunction*%
%TD*%
%TA.AperFunction,Conductor*%
%TO.N,GND*%
G36*
X138943039Y-91819685D02*
G01*
X138988794Y-91872489D01*
X139000000Y-91924000D01*
X139000000Y-93200000D01*
X139881228Y-93200000D01*
X139948267Y-93219685D01*
X139994022Y-93272489D01*
X140003476Y-93303228D01*
X140004362Y-93308445D01*
X140012990Y-93341891D01*
X140038042Y-93413486D01*
X140045000Y-93454440D01*
X140045000Y-94445559D01*
X140038041Y-94486515D01*
X140025228Y-94523131D01*
X140007959Y-94555806D01*
X139986298Y-94585157D01*
X139960157Y-94611298D01*
X139930806Y-94632959D01*
X139898129Y-94650229D01*
X139811154Y-94680662D01*
X139796658Y-94685307D01*
X139796623Y-94685320D01*
X139793131Y-94686816D01*
X139789202Y-94688343D01*
X139782739Y-94690604D01*
X139775304Y-94694456D01*
X139753633Y-94703744D01*
X139748624Y-94705969D01*
X139676140Y-94761751D01*
X139631643Y-94815614D01*
X139601186Y-94865550D01*
X139601185Y-94865551D01*
X139571147Y-94935641D01*
X139571137Y-94935668D01*
X139558723Y-94975284D01*
X139548697Y-95024127D01*
X139548696Y-95024139D01*
X139544500Y-95065445D01*
X139544500Y-95776000D01*
X139524815Y-95843039D01*
X139472011Y-95888794D01*
X139420500Y-95900000D01*
X138824383Y-95900000D01*
X138777433Y-95890768D01*
X136677050Y-95031520D01*
X136622455Y-94987917D01*
X136600100Y-94921721D01*
X136600000Y-94916752D01*
X136600000Y-91924000D01*
X136619685Y-91856961D01*
X136672489Y-91811206D01*
X136724000Y-91800000D01*
X138876000Y-91800000D01*
X138943039Y-91819685D01*
G37*
%TD.AperFunction*%
%TD*%
%TA.AperFunction,Conductor*%
%TO.N,MOTOR_A2*%
G36*
X138950622Y-99302187D02*
G01*
X140037314Y-99483302D01*
X140085817Y-99502512D01*
X140097383Y-99510240D01*
X140097384Y-99510241D01*
X140158504Y-99522398D01*
X140174099Y-99525500D01*
X140900900Y-99525499D01*
X140900907Y-99525497D01*
X140901329Y-99525456D01*
X140901555Y-99525499D01*
X140906991Y-99525499D01*
X140906991Y-99526528D01*
X140969977Y-99538465D01*
X141020694Y-99586523D01*
X141037500Y-99648857D01*
X141037500Y-99751140D01*
X141017815Y-99818179D01*
X140965011Y-99863934D01*
X140906993Y-99873606D01*
X140906993Y-99874500D01*
X140901631Y-99874500D01*
X140901362Y-99874545D01*
X140900904Y-99874500D01*
X140174102Y-99874500D01*
X140128152Y-99883639D01*
X140097383Y-99889760D01*
X140097382Y-99889760D01*
X140097380Y-99889761D01*
X140040725Y-99927616D01*
X140011048Y-99942150D01*
X138956589Y-100293637D01*
X138917377Y-100300000D01*
X138361500Y-100300000D01*
X138294461Y-100280315D01*
X138248706Y-100227511D01*
X138237500Y-100176000D01*
X138237500Y-99424500D01*
X138257185Y-99357461D01*
X138309989Y-99311706D01*
X138361500Y-99300500D01*
X138930237Y-99300500D01*
X138950622Y-99302187D01*
G37*
%TD.AperFunction*%
%TD*%
%TA.AperFunction,Conductor*%
%TO.N,/BRB*%
G36*
X140880539Y-100099685D02*
G01*
X140926294Y-100152489D01*
X140937500Y-100204000D01*
X140937500Y-100220500D01*
X140917815Y-100287539D01*
X140865011Y-100333294D01*
X140813500Y-100344500D01*
X140268066Y-100344500D01*
X140267038Y-100344512D01*
X140263953Y-100344548D01*
X140238188Y-100348716D01*
X140203831Y-100354274D01*
X140185927Y-100359992D01*
X140125185Y-100361418D01*
X140108215Y-100382497D01*
X140106340Y-100383775D01*
X140010388Y-100447887D01*
X140010386Y-100447890D01*
X139990240Y-100478040D01*
X139952407Y-100514580D01*
X138067493Y-101681433D01*
X138002225Y-101700000D01*
X136561500Y-101700000D01*
X136494461Y-101680315D01*
X136448706Y-101627511D01*
X136437500Y-101576000D01*
X136437500Y-100724000D01*
X136457185Y-100656961D01*
X136509989Y-100611206D01*
X136561500Y-100600000D01*
X138437499Y-100600000D01*
X138437500Y-100600000D01*
X138685221Y-100512568D01*
X138726491Y-100505500D01*
X138917383Y-100505500D01*
X138950285Y-100502848D01*
X138950286Y-100502848D01*
X138950291Y-100502847D01*
X138950293Y-100502847D01*
X138961233Y-100501071D01*
X138989501Y-100496485D01*
X138989499Y-100496485D01*
X138989505Y-100496484D01*
X138999571Y-100494005D01*
X139006904Y-100492663D01*
X139068872Y-100485140D01*
X139227930Y-100424818D01*
X139227939Y-100424811D01*
X139234571Y-100421332D01*
X139234679Y-100421538D01*
X139258691Y-100409551D01*
X139998236Y-100163036D01*
X140060879Y-100160770D01*
X140078739Y-100139155D01*
X140093672Y-100130505D01*
X140095248Y-100129732D01*
X140095263Y-100129727D01*
X140137277Y-100109151D01*
X140137277Y-100109150D01*
X140137281Y-100109149D01*
X140137280Y-100109150D01*
X140149189Y-100102297D01*
X140149187Y-100102298D01*
X140151278Y-100100901D01*
X140217955Y-100080020D01*
X140220173Y-100080000D01*
X140813500Y-100080000D01*
X140880539Y-100099685D01*
G37*
%TD.AperFunction*%
%TD*%
%TA.AperFunction,Conductor*%
%TO.N,VCC*%
G36*
X141930706Y-91259685D02*
G01*
X141951342Y-91276313D01*
X142013683Y-91338654D01*
X142047166Y-91399973D01*
X142050000Y-91426332D01*
X142050000Y-94553693D01*
X142030315Y-94620732D01*
X141977511Y-94666487D01*
X141969066Y-94669974D01*
X140699971Y-95139998D01*
X140699970Y-95140000D01*
X140687771Y-95270148D01*
X140661916Y-95335058D01*
X140651994Y-95346257D01*
X140551473Y-95446778D01*
X140490279Y-95566878D01*
X140469196Y-95699997D01*
X140469196Y-95700002D01*
X140490279Y-95833123D01*
X140546624Y-95943706D01*
X140559520Y-96012375D01*
X140546624Y-96056294D01*
X140490279Y-96166876D01*
X140469196Y-96299997D01*
X140469196Y-96300002D01*
X140490279Y-96433121D01*
X140490280Y-96433124D01*
X140490281Y-96433126D01*
X140548684Y-96547748D01*
X140561658Y-96615613D01*
X140550000Y-96740000D01*
X140936909Y-97513818D01*
X140950000Y-97569272D01*
X140950000Y-97716000D01*
X140930315Y-97783039D01*
X140877511Y-97828794D01*
X140826000Y-97840000D01*
X140281765Y-97840000D01*
X140214726Y-97820315D01*
X140168971Y-97767511D01*
X140167791Y-97764846D01*
X140071428Y-97540000D01*
X139760026Y-96813394D01*
X139750000Y-96764548D01*
X139750000Y-95065452D01*
X139760026Y-95016607D01*
X139790072Y-94946498D01*
X139834572Y-94892633D01*
X139877594Y-94874197D01*
X139884690Y-94872646D01*
X139884699Y-94872646D01*
X140012882Y-94827793D01*
X140122150Y-94747150D01*
X140202793Y-94637882D01*
X140232252Y-94553693D01*
X140247646Y-94509701D01*
X140247646Y-94509699D01*
X140250500Y-94479269D01*
X140250500Y-93420730D01*
X140247646Y-93390300D01*
X140247645Y-93390298D01*
X140206959Y-93274023D01*
X140200000Y-93233068D01*
X140200000Y-91364000D01*
X140219685Y-91296961D01*
X140272489Y-91251206D01*
X140324000Y-91240000D01*
X141863667Y-91240000D01*
X141930706Y-91259685D01*
G37*
%TD.AperFunction*%
%TD*%
%TA.AperFunction,Conductor*%
%TO.N,GND*%
G36*
X139475039Y-102419685D02*
G01*
X139520794Y-102472489D01*
X139532000Y-102524000D01*
X139532000Y-103324560D01*
X139536196Y-103365866D01*
X139546219Y-103414702D01*
X139558641Y-103454342D01*
X139570283Y-103481511D01*
X139583272Y-103503671D01*
X139596259Y-103525828D01*
X139633746Y-103574584D01*
X139643717Y-103586441D01*
X139645303Y-103588327D01*
X139645307Y-103588331D01*
X139720599Y-103640230D01*
X139720600Y-103640230D01*
X139720604Y-103640233D01*
X139741749Y-103648657D01*
X139796742Y-103691754D01*
X139819377Y-103752953D01*
X139981760Y-105593277D01*
X139982000Y-105598729D01*
X139982000Y-107150829D01*
X139990041Y-108147955D01*
X139993080Y-108181551D01*
X139997149Y-108204922D01*
X139997778Y-108208535D01*
X139998163Y-108210743D01*
X140000000Y-108232011D01*
X140000000Y-109276000D01*
X139980315Y-109343039D01*
X139927511Y-109388794D01*
X139876000Y-109400000D01*
X136714097Y-109400000D01*
X136647058Y-109380315D01*
X136601303Y-109327511D01*
X136590525Y-109286298D01*
X136555214Y-108862566D01*
X136555000Y-108857415D01*
X136555000Y-108824008D01*
X136554999Y-108823992D01*
X136550303Y-108780316D01*
X136548019Y-108769820D01*
X136546815Y-108761780D01*
X136500000Y-108200000D01*
X135839126Y-108200000D01*
X135772087Y-108180315D01*
X135726332Y-108127511D01*
X135716388Y-108058353D01*
X135733587Y-108010904D01*
X135759354Y-107969128D01*
X135759358Y-107969119D01*
X135814504Y-107802701D01*
X135814505Y-107802694D01*
X135814781Y-107800000D01*
X133085219Y-107800000D01*
X133085494Y-107802694D01*
X133085495Y-107802701D01*
X133140641Y-107969119D01*
X133140645Y-107969128D01*
X133166413Y-108010904D01*
X133184853Y-108078296D01*
X133163930Y-108144960D01*
X133110288Y-108189729D01*
X133060874Y-108200000D01*
X131774000Y-108200000D01*
X131706961Y-108180315D01*
X131661206Y-108127511D01*
X131650000Y-108076000D01*
X131650000Y-107331395D01*
X134071114Y-107331395D01*
X134101837Y-107452719D01*
X134170289Y-107557492D01*
X134269052Y-107634363D01*
X134387424Y-107675000D01*
X134481073Y-107675000D01*
X134573446Y-107659586D01*
X134683514Y-107600019D01*
X134768278Y-107507941D01*
X134818551Y-107393330D01*
X134828886Y-107268605D01*
X134798163Y-107147281D01*
X134729711Y-107042508D01*
X134630948Y-106965637D01*
X134512576Y-106925000D01*
X134418927Y-106925000D01*
X134326554Y-106940414D01*
X134216486Y-106999981D01*
X134131722Y-107092059D01*
X134081449Y-107206670D01*
X134071114Y-107331395D01*
X131650000Y-107331395D01*
X131650000Y-106800000D01*
X133085219Y-106800000D01*
X133949999Y-106800000D01*
X133949999Y-106200000D01*
X134950000Y-106200000D01*
X134950000Y-106800000D01*
X135814780Y-106800000D01*
X135814505Y-106797305D01*
X135814504Y-106797298D01*
X135759358Y-106630880D01*
X135759356Y-106630875D01*
X135667315Y-106481654D01*
X135543345Y-106357684D01*
X135394124Y-106265643D01*
X135394119Y-106265641D01*
X135227697Y-106210494D01*
X135227690Y-106210493D01*
X135124986Y-106200000D01*
X134950000Y-106200000D01*
X133949999Y-106200000D01*
X133775029Y-106200000D01*
X133775012Y-106200001D01*
X133672302Y-106210494D01*
X133505880Y-106265641D01*
X133505875Y-106265643D01*
X133356654Y-106357684D01*
X133232684Y-106481654D01*
X133140643Y-106630875D01*
X133140641Y-106630880D01*
X133085495Y-106797298D01*
X133085494Y-106797305D01*
X133085219Y-106800000D01*
X131650000Y-106800000D01*
X131650000Y-105879450D01*
X131669685Y-105812411D01*
X131722180Y-105766797D01*
X132087546Y-105598729D01*
X136100102Y-103752953D01*
X136625333Y-103511347D01*
X136677153Y-103500000D01*
X138400000Y-103500000D01*
X138400001Y-103499999D01*
X138770319Y-102481624D01*
X138811728Y-102425348D01*
X138876990Y-102400393D01*
X138886853Y-102400000D01*
X139408000Y-102400000D01*
X139475039Y-102419685D01*
G37*
%TD.AperFunction*%
%TD*%
%TA.AperFunction,Conductor*%
%TO.N,GND*%
G36*
X146543039Y-117719685D02*
G01*
X146588794Y-117772489D01*
X146600000Y-117824000D01*
X146600000Y-120176000D01*
X146580315Y-120243039D01*
X146527511Y-120288794D01*
X146476000Y-120300000D01*
X138424000Y-120300000D01*
X138356961Y-120280315D01*
X138311206Y-120227511D01*
X138300000Y-120176000D01*
X138300000Y-118379500D01*
X138319685Y-118312461D01*
X138372489Y-118266706D01*
X138424000Y-118255500D01*
X140293420Y-118255500D01*
X140302688Y-118255081D01*
X140302689Y-118255080D01*
X140314832Y-118253981D01*
X140334190Y-118252230D01*
X140343377Y-118250977D01*
X140343377Y-118250976D01*
X140343384Y-118250976D01*
X143350730Y-117702015D01*
X143372997Y-117700000D01*
X146476000Y-117700000D01*
X146543039Y-117719685D01*
G37*
%TD.AperFunction*%
%TD*%
M02*
