%TF.GenerationSoftware,KiCad,Pcbnew,8.0.3*%
%TF.CreationDate,2024-12-09T21:22:52-05:00*%
%TF.ProjectId,Ethernet HAT,45746865-726e-4657-9420-4841542e6b69,rev?*%
%TF.SameCoordinates,Original*%
%TF.FileFunction,Copper,L1,Top*%
%TF.FilePolarity,Positive*%
%FSLAX46Y46*%
G04 Gerber Fmt 4.6, Leading zero omitted, Abs format (unit mm)*
G04 Created by KiCad (PCBNEW 8.0.3) date 2024-12-09 21:22:52*
%MOMM*%
%LPD*%
G01*
G04 APERTURE LIST*
G04 Aperture macros list*
%AMRoundRect*
0 Rectangle with rounded corners*
0 $1 Rounding radius*
0 $2 $3 $4 $5 $6 $7 $8 $9 X,Y pos of 4 corners*
0 Add a 4 corners polygon primitive as box body*
4,1,4,$2,$3,$4,$5,$6,$7,$8,$9,$2,$3,0*
0 Add four circle primitives for the rounded corners*
1,1,$1+$1,$2,$3*
1,1,$1+$1,$4,$5*
1,1,$1+$1,$6,$7*
1,1,$1+$1,$8,$9*
0 Add four rect primitives between the rounded corners*
20,1,$1+$1,$2,$3,$4,$5,0*
20,1,$1+$1,$4,$5,$6,$7,0*
20,1,$1+$1,$6,$7,$8,$9,0*
20,1,$1+$1,$8,$9,$2,$3,0*%
G04 Aperture macros list end*
%TA.AperFunction,SMDPad,CuDef*%
%ADD10RoundRect,0.135000X-0.135000X-0.185000X0.135000X-0.185000X0.135000X0.185000X-0.135000X0.185000X0*%
%TD*%
%TA.AperFunction,SMDPad,CuDef*%
%ADD11RoundRect,0.135000X0.135000X0.185000X-0.135000X0.185000X-0.135000X-0.185000X0.135000X-0.185000X0*%
%TD*%
%TA.AperFunction,SMDPad,CuDef*%
%ADD12RoundRect,0.250000X-0.250000X-0.475000X0.250000X-0.475000X0.250000X0.475000X-0.250000X0.475000X0*%
%TD*%
%TA.AperFunction,SMDPad,CuDef*%
%ADD13RoundRect,0.140000X-0.170000X0.140000X-0.170000X-0.140000X0.170000X-0.140000X0.170000X0.140000X0*%
%TD*%
%TA.AperFunction,SMDPad,CuDef*%
%ADD14RoundRect,0.140000X0.140000X0.170000X-0.140000X0.170000X-0.140000X-0.170000X0.140000X-0.170000X0*%
%TD*%
%TA.AperFunction,SMDPad,CuDef*%
%ADD15RoundRect,0.218750X-0.256250X0.218750X-0.256250X-0.218750X0.256250X-0.218750X0.256250X0.218750X0*%
%TD*%
%TA.AperFunction,SMDPad,CuDef*%
%ADD16RoundRect,0.140000X0.170000X-0.140000X0.170000X0.140000X-0.170000X0.140000X-0.170000X-0.140000X0*%
%TD*%
%TA.AperFunction,SMDPad,CuDef*%
%ADD17R,1.400000X1.200000*%
%TD*%
%TA.AperFunction,ComponentPad*%
%ADD18C,5.500000*%
%TD*%
%TA.AperFunction,SMDPad,CuDef*%
%ADD19RoundRect,0.200000X-0.275000X0.200000X-0.275000X-0.200000X0.275000X-0.200000X0.275000X0.200000X0*%
%TD*%
%TA.AperFunction,SMDPad,CuDef*%
%ADD20RoundRect,0.250000X-0.475000X0.250000X-0.475000X-0.250000X0.475000X-0.250000X0.475000X0.250000X0*%
%TD*%
%TA.AperFunction,SMDPad,CuDef*%
%ADD21RoundRect,0.135000X0.185000X-0.135000X0.185000X0.135000X-0.185000X0.135000X-0.185000X-0.135000X0*%
%TD*%
%TA.AperFunction,SMDPad,CuDef*%
%ADD22RoundRect,0.075000X-0.662500X-0.075000X0.662500X-0.075000X0.662500X0.075000X-0.662500X0.075000X0*%
%TD*%
%TA.AperFunction,SMDPad,CuDef*%
%ADD23RoundRect,0.075000X-0.075000X-0.662500X0.075000X-0.662500X0.075000X0.662500X-0.075000X0.662500X0*%
%TD*%
%TA.AperFunction,SMDPad,CuDef*%
%ADD24RoundRect,0.218750X0.218750X0.256250X-0.218750X0.256250X-0.218750X-0.256250X0.218750X-0.256250X0*%
%TD*%
%TA.AperFunction,SMDPad,CuDef*%
%ADD25R,2.000000X0.610000*%
%TD*%
%TA.AperFunction,SMDPad,CuDef*%
%ADD26R,3.600000X2.680000*%
%TD*%
%TA.AperFunction,ComponentPad*%
%ADD27C,1.890000*%
%TD*%
%TA.AperFunction,ComponentPad*%
%ADD28R,1.900000X1.900000*%
%TD*%
%TA.AperFunction,ComponentPad*%
%ADD29C,1.900000*%
%TD*%
%TA.AperFunction,ComponentPad*%
%ADD30C,2.600000*%
%TD*%
%TA.AperFunction,ViaPad*%
%ADD31C,0.800000*%
%TD*%
%TA.AperFunction,ViaPad*%
%ADD32C,0.700000*%
%TD*%
%TA.AperFunction,Conductor*%
%ADD33C,0.200000*%
%TD*%
%TA.AperFunction,Conductor*%
%ADD34C,0.400000*%
%TD*%
%TA.AperFunction,Conductor*%
%ADD35C,0.250000*%
%TD*%
G04 APERTURE END LIST*
D10*
%TO.P,R14,1*%
%TO.N,Net-(U1-SPDLED)*%
X140490000Y-84000000D03*
%TO.P,R14,2*%
%TO.N,Net-(D1-A)*%
X141510000Y-84000000D03*
%TD*%
D11*
%TO.P,R6,1*%
%TO.N,3V3A*%
X143810000Y-103800000D03*
%TO.P,R6,2*%
%TO.N,/TD-*%
X142790000Y-103800000D03*
%TD*%
D12*
%TO.P,C7,1*%
%TO.N,3V3A*%
X141850000Y-114900000D03*
%TO.P,C7,2*%
%TO.N,GND*%
X143750000Y-114900000D03*
%TD*%
D13*
%TO.P,C15,1*%
%TO.N,+3.3V*%
X155800000Y-111640000D03*
%TO.P,C15,2*%
%TO.N,GND*%
X155800000Y-112600000D03*
%TD*%
%TO.P,C11,1*%
%TO.N,3V3A*%
X142800000Y-112120000D03*
%TO.P,C11,2*%
%TO.N,GND*%
X142800000Y-113080000D03*
%TD*%
D14*
%TO.P,C10,1*%
%TO.N,3V3A*%
X145880000Y-105600000D03*
%TO.P,C10,2*%
%TO.N,GND*%
X144920000Y-105600000D03*
%TD*%
D15*
%TO.P,D2,1,K*%
%TO.N,GND*%
X139800000Y-80212500D03*
%TO.P,D2,2,A*%
%TO.N,Net-(D2-A)*%
X139800000Y-81787500D03*
%TD*%
D10*
%TO.P,R10,1*%
%TO.N,Net-(U1-LINKLED)*%
X140490000Y-85300000D03*
%TO.P,R10,2*%
%TO.N,/LK_LED*%
X141510000Y-85300000D03*
%TD*%
D13*
%TO.P,C12,1*%
%TO.N,3V3A*%
X144000000Y-112120000D03*
%TO.P,C12,2*%
%TO.N,GND*%
X144000000Y-113080000D03*
%TD*%
D11*
%TO.P,R16,1*%
%TO.N,/RD+*%
X137510000Y-103600000D03*
%TO.P,R16,2*%
%TO.N,RCT*%
X136490000Y-103600000D03*
%TD*%
D10*
%TO.P,R11,1*%
%TO.N,Net-(U1-ACTLED)*%
X140490000Y-87800000D03*
%TO.P,R11,2*%
%TO.N,/ACT_LED*%
X141510000Y-87800000D03*
%TD*%
D16*
%TO.P,C1,1*%
%TO.N,GND*%
X157000000Y-111580000D03*
%TO.P,C1,2*%
%TO.N,Net-(U1-XI{slash}CLKIN)*%
X157000000Y-110620000D03*
%TD*%
%TO.P,C16,1*%
%TO.N,/RD+*%
X137500000Y-102580000D03*
%TO.P,C16,2*%
%TO.N,/R+*%
X137500000Y-101620000D03*
%TD*%
%TO.P,C17,1*%
%TO.N,/RD-*%
X138500000Y-102580000D03*
%TO.P,C17,2*%
%TO.N,/R-*%
X138500000Y-101620000D03*
%TD*%
D11*
%TO.P,R2,1*%
%TO.N,Net-(U1-RXN)*%
X143710000Y-109100000D03*
%TO.P,R2,2*%
%TO.N,/RD-*%
X142690000Y-109100000D03*
%TD*%
%TO.P,R5,1*%
%TO.N,Net-(U1-RXP)*%
X143710000Y-110200000D03*
%TO.P,R5,2*%
%TO.N,/RD+*%
X142690000Y-110200000D03*
%TD*%
D10*
%TO.P,R13,1*%
%TO.N,Net-(U1-DUPLED)*%
X140490000Y-86700000D03*
%TO.P,R13,2*%
%TO.N,Net-(D2-A)*%
X141510000Y-86700000D03*
%TD*%
D11*
%TO.P,R4,1*%
%TO.N,Net-(U1-TXN)*%
X143710000Y-106600000D03*
%TO.P,R4,2*%
%TO.N,/TD-*%
X142690000Y-106600000D03*
%TD*%
D17*
%TO.P,Y1,1,1*%
%TO.N,Net-(U1-XO)*%
X161100000Y-109250000D03*
%TO.P,Y1,2,2*%
%TO.N,GND*%
X158900000Y-109250000D03*
%TO.P,Y1,3,3*%
%TO.N,Net-(U1-XI{slash}CLKIN)*%
X158900000Y-110950000D03*
%TO.P,Y1,4,4*%
%TO.N,GND*%
X161100000Y-110950000D03*
%TD*%
D13*
%TO.P,C8,1*%
%TO.N,3V3A*%
X147400000Y-116620000D03*
%TO.P,C8,2*%
%TO.N,GND*%
X147400000Y-117580000D03*
%TD*%
%TO.P,C4,1*%
%TO.N,TCT*%
X141000000Y-99320000D03*
%TO.P,C4,2*%
%TO.N,GND*%
X141000000Y-100280000D03*
%TD*%
D16*
%TO.P,C2,1*%
%TO.N,Net-(U1-XO)*%
X157000000Y-109580000D03*
%TO.P,C2,2*%
%TO.N,GND*%
X157000000Y-108620000D03*
%TD*%
D10*
%TO.P,R7,1*%
%TO.N,3V3A*%
X140790000Y-103800000D03*
%TO.P,R7,2*%
%TO.N,/TD+*%
X141810000Y-103800000D03*
%TD*%
D18*
%TO.P,H2,1*%
%TO.N,N/C*%
X165500000Y-115500000D03*
%TD*%
D19*
%TO.P,R8,1*%
%TO.N,Net-(U1-EXRES1)*%
X145800000Y-116875000D03*
%TO.P,R8,2*%
%TO.N,GND*%
X145800000Y-118525000D03*
%TD*%
D10*
%TO.P,R17,1*%
%TO.N,/RD-*%
X138490000Y-103600000D03*
%TO.P,R17,2*%
%TO.N,RCT*%
X139510000Y-103600000D03*
%TD*%
D20*
%TO.P,C14,1*%
%TO.N,+3.3V*%
X157500000Y-113250000D03*
%TO.P,C14,2*%
%TO.N,GND*%
X157500000Y-115150000D03*
%TD*%
D21*
%TO.P,R1,1*%
%TO.N,Net-(U1-XI{slash}CLKIN)*%
X155800000Y-110610000D03*
%TO.P,R1,2*%
%TO.N,Net-(U1-XO)*%
X155800000Y-109590000D03*
%TD*%
D22*
%TO.P,U1,1,TXN*%
%TO.N,Net-(U1-TXN)*%
X145837500Y-107250000D03*
%TO.P,U1,2,TXP*%
%TO.N,Net-(U1-TXP)*%
X145837500Y-107750000D03*
%TO.P,U1,3,AGND*%
%TO.N,GND*%
X145837500Y-108250000D03*
%TO.P,U1,4,AVDD*%
%TO.N,3V3A*%
X145837500Y-108750000D03*
%TO.P,U1,5,RXN*%
%TO.N,Net-(U1-RXN)*%
X145837500Y-109250000D03*
%TO.P,U1,6,RXP*%
%TO.N,Net-(U1-RXP)*%
X145837500Y-109750000D03*
%TO.P,U1,7,DNC*%
%TO.N,unconnected-(U1-DNC-Pad7)*%
X145837500Y-110250000D03*
%TO.P,U1,8,AVDD*%
%TO.N,3V3A*%
X145837500Y-110750000D03*
%TO.P,U1,9,AGND*%
%TO.N,GND*%
X145837500Y-111250000D03*
%TO.P,U1,10,EXRES1*%
%TO.N,Net-(U1-EXRES1)*%
X145837500Y-111750000D03*
%TO.P,U1,11,AVDD*%
%TO.N,3V3A*%
X145837500Y-112250000D03*
%TO.P,U1,12,NC*%
%TO.N,unconnected-(U1-NC-Pad12)*%
X145837500Y-112750000D03*
D23*
%TO.P,U1,13,NC*%
%TO.N,unconnected-(U1-NC-Pad13)*%
X147250000Y-114162500D03*
%TO.P,U1,14,AGND*%
%TO.N,GND*%
X147750000Y-114162500D03*
%TO.P,U1,15,AVDD*%
%TO.N,3V3A*%
X148250000Y-114162500D03*
%TO.P,U1,16,AGND*%
%TO.N,GND*%
X148750000Y-114162500D03*
%TO.P,U1,17,AVDD*%
%TO.N,3V3A*%
X149250000Y-114162500D03*
%TO.P,U1,18,VBG*%
%TO.N,unconnected-(U1-VBG-Pad18)*%
X149750000Y-114162500D03*
%TO.P,U1,19,AGND*%
%TO.N,GND*%
X150250000Y-114162500D03*
%TO.P,U1,20,TOCAP*%
%TO.N,Net-(U1-TOCAP)*%
X150750000Y-114162500D03*
%TO.P,U1,21,AVDD*%
%TO.N,3V3A*%
X151250000Y-114162500D03*
%TO.P,U1,22,1V2O*%
%TO.N,Net-(U1-1V2O)*%
X151750000Y-114162500D03*
%TO.P,U1,23,RSVD*%
%TO.N,unconnected-(U1-RSVD-Pad23)*%
X152250000Y-114162500D03*
%TO.P,U1,24,SPDLED*%
%TO.N,Net-(U1-SPDLED)*%
X152750000Y-114162500D03*
D22*
%TO.P,U1,25,LINKLED*%
%TO.N,Net-(U1-LINKLED)*%
X154162500Y-112750000D03*
%TO.P,U1,26,DUPLED*%
%TO.N,Net-(U1-DUPLED)*%
X154162500Y-112250000D03*
%TO.P,U1,27,ACTLED*%
%TO.N,Net-(U1-ACTLED)*%
X154162500Y-111750000D03*
%TO.P,U1,28,VDD*%
%TO.N,+3.3V*%
X154162500Y-111250000D03*
%TO.P,U1,29,GND*%
%TO.N,GND*%
X154162500Y-110750000D03*
%TO.P,U1,30,XI/CLKIN*%
%TO.N,Net-(U1-XI{slash}CLKIN)*%
X154162500Y-110250000D03*
%TO.P,U1,31,XO*%
%TO.N,Net-(U1-XO)*%
X154162500Y-109750000D03*
%TO.P,U1,32,~{SCS}*%
%TO.N,ETH_CS*%
X154162500Y-109250000D03*
%TO.P,U1,33,SCLK*%
%TO.N,SCK*%
X154162500Y-108750000D03*
%TO.P,U1,34,MISO*%
%TO.N,MISO*%
X154162500Y-108250000D03*
%TO.P,U1,35,MOSI*%
%TO.N,MOSI*%
X154162500Y-107750000D03*
%TO.P,U1,36,~{INT}*%
%TO.N,AUX4*%
X154162500Y-107250000D03*
D23*
%TO.P,U1,37,~{RST}*%
%TO.N,AUX6*%
X152750000Y-105837500D03*
%TO.P,U1,38,RSVD*%
%TO.N,unconnected-(U1-RSVD-Pad38)*%
X152250000Y-105837500D03*
%TO.P,U1,39,RSVD*%
%TO.N,unconnected-(U1-RSVD-Pad39)*%
X151750000Y-105837500D03*
%TO.P,U1,40,RSVD*%
%TO.N,unconnected-(U1-RSVD-Pad40)*%
X151250000Y-105837500D03*
%TO.P,U1,41,RSVD*%
%TO.N,unconnected-(U1-RSVD-Pad41)*%
X150750000Y-105837500D03*
%TO.P,U1,42,RSVD*%
%TO.N,unconnected-(U1-RSVD-Pad42)*%
X150250000Y-105837500D03*
%TO.P,U1,43,PMODE2*%
%TO.N,AUX5*%
X149750000Y-105837500D03*
%TO.P,U1,44,PMODE1*%
%TO.N,AUX1*%
X149250000Y-105837500D03*
%TO.P,U1,45,PMODE0*%
%TO.N,AUX2*%
X148750000Y-105837500D03*
%TO.P,U1,46,NC*%
%TO.N,unconnected-(U1-NC-Pad46)*%
X148250000Y-105837500D03*
%TO.P,U1,47,NC*%
%TO.N,unconnected-(U1-NC-Pad47)*%
X147750000Y-105837500D03*
%TO.P,U1,48,AGND*%
%TO.N,GND*%
X147250000Y-105837500D03*
%TD*%
D18*
%TO.P,H4,1*%
%TO.N,N/C*%
X165500000Y-84500000D03*
%TD*%
D15*
%TO.P,D1,1,K*%
%TO.N,GND*%
X141990000Y-80200000D03*
%TO.P,D1,2,A*%
%TO.N,Net-(D1-A)*%
X141990000Y-81775000D03*
%TD*%
D18*
%TO.P,H1,1*%
%TO.N,N/C*%
X134500000Y-84500000D03*
%TD*%
D24*
%TO.P,L1,1,1*%
%TO.N,+3.3V*%
X143387500Y-117100000D03*
%TO.P,L1,2,2*%
%TO.N,3V3A*%
X141812500Y-117100000D03*
%TD*%
D13*
%TO.P,C13,1*%
%TO.N,3V3A*%
X151500000Y-116620000D03*
%TO.P,C13,2*%
%TO.N,GND*%
X151500000Y-117580000D03*
%TD*%
D18*
%TO.P,H3,1*%
%TO.N,N/C*%
X134500000Y-115500000D03*
%TD*%
D25*
%TO.P,J2,1,Pin_1*%
%TO.N,+3.3V*%
X164350000Y-106500000D03*
%TO.P,J2,2,Pin_2*%
%TO.N,SDA1*%
X164350000Y-105500000D03*
%TO.P,J2,3,Pin_3*%
%TO.N,SCL1*%
X164350000Y-104500000D03*
%TO.P,J2,4,Pin_4*%
%TO.N,AUX6*%
X164350000Y-103500000D03*
%TO.P,J2,5,Pin_5*%
%TO.N,AUX5*%
X164350000Y-102500000D03*
%TO.P,J2,6,Pin_6*%
%TO.N,AUX4*%
X164350000Y-101500000D03*
%TO.P,J2,7,Pin_7*%
%TO.N,AUX3*%
X164350000Y-100500000D03*
%TO.P,J2,8,Pin_8*%
%TO.N,SCK*%
X164350000Y-99500000D03*
%TO.P,J2,9,Pin_9*%
%TO.N,MOSI*%
X164350000Y-98500000D03*
%TO.P,J2,10,Pin_10*%
%TO.N,ETH_CS*%
X164350000Y-97500000D03*
%TO.P,J2,11,Pin_11*%
%TO.N,MISO*%
X164350000Y-96500000D03*
%TO.P,J2,12,Pin_12*%
%TO.N,AUX2*%
X164350000Y-95500000D03*
%TO.P,J2,13,Pin_13*%
%TO.N,AUX1*%
X164350000Y-94500000D03*
%TO.P,J2,14,Pin_14*%
%TO.N,GND*%
X164350000Y-93500000D03*
D26*
%TO.P,J2,MP*%
%TO.N,N/C*%
X167150000Y-109490000D03*
X167150000Y-90510000D03*
%TD*%
D13*
%TO.P,C6,1*%
%TO.N,Net-(U1-1V2O)*%
X152700000Y-116620000D03*
%TO.P,C6,2*%
%TO.N,GND*%
X152700000Y-117580000D03*
%TD*%
D16*
%TO.P,C3,1*%
%TO.N,RCT*%
X139500000Y-102580000D03*
%TO.P,C3,2*%
%TO.N,GND*%
X139500000Y-101620000D03*
%TD*%
D13*
%TO.P,C9,1*%
%TO.N,3V3A*%
X149000000Y-116620000D03*
%TO.P,C9,2*%
%TO.N,GND*%
X149000000Y-117580000D03*
%TD*%
D11*
%TO.P,R3,1*%
%TO.N,Net-(U1-TXP)*%
X143710000Y-107700000D03*
%TO.P,R3,2*%
%TO.N,/TD+*%
X142690000Y-107700000D03*
%TD*%
D13*
%TO.P,C5,1*%
%TO.N,Net-(U1-TOCAP)*%
X150200000Y-116620000D03*
%TO.P,C5,2*%
%TO.N,GND*%
X150200000Y-117580000D03*
%TD*%
D21*
%TO.P,R12,1*%
%TO.N,3V3A*%
X142100000Y-100310000D03*
%TO.P,R12,2*%
%TO.N,TCT*%
X142100000Y-99290000D03*
%TD*%
D27*
%TO.P,J1,L1,LEDY_A*%
%TO.N,+3.3V*%
X146900000Y-86570000D03*
%TO.P,J1,L2,LEDY_K*%
%TO.N,/ACT_LED*%
X149440000Y-85050000D03*
%TO.P,J1,L3,LEDG_K*%
%TO.N,/LK_LED*%
X157010000Y-86570000D03*
%TO.P,J1,L4,LEDG_A*%
%TO.N,+3.3V*%
X159550000Y-85050000D03*
D28*
%TO.P,J1,R1,TD+*%
%TO.N,/TD+*%
X157670000Y-96290000D03*
D29*
%TO.P,J1,R2,TD-*%
%TO.N,/TD-*%
X156400000Y-98830000D03*
%TO.P,J1,R3,RD+*%
%TO.N,/R+*%
X155130000Y-96290000D03*
%TO.P,J1,R4,TCT*%
%TO.N,TCT*%
X153860000Y-98830000D03*
%TO.P,J1,R5,RCT*%
%TO.N,RCT*%
X152590000Y-96290000D03*
%TO.P,J1,R6,RD-*%
%TO.N,/R-*%
X151320000Y-98830000D03*
%TO.P,J1,R7,NC*%
%TO.N,unconnected-(J1-NC-PadR7)*%
X150050000Y-96290000D03*
%TO.P,J1,R8,GND*%
%TO.N,GND*%
X148780000Y-98830000D03*
D30*
%TO.P,J1,SH,SHIELD*%
X161000000Y-93000000D03*
X145450000Y-93000000D03*
%TD*%
D31*
%TO.N,GND*%
X143900000Y-100400000D03*
X153200000Y-102800000D03*
D32*
X164400000Y-92200000D03*
X157800000Y-107600000D03*
X164400000Y-91200000D03*
X147544546Y-111958556D03*
X150100000Y-115700000D03*
D31*
X143100000Y-97500000D03*
D32*
X148204011Y-115811059D03*
D31*
X168400000Y-81600000D03*
X143100000Y-96000000D03*
X138900000Y-99800000D03*
D32*
X144400000Y-80900000D03*
X159600000Y-112400000D03*
X152700000Y-110200000D03*
D31*
X143500000Y-105000000D03*
D32*
X136400000Y-99500000D03*
X159100000Y-115100000D03*
D31*
X141000000Y-101300000D03*
X138900000Y-109400000D03*
D32*
X144870245Y-113371679D03*
D31*
X140300000Y-110900000D03*
D32*
X136400000Y-100900000D03*
D31*
X141400000Y-97500000D03*
X139844975Y-96944975D03*
X146000000Y-104600000D03*
D32*
X141062714Y-108037286D03*
D31*
X137600000Y-108000000D03*
%TO.N,RCT*%
X136700000Y-104500000D03*
X139400000Y-104600000D03*
%TO.N,3V3A*%
X141800000Y-112000000D03*
X144488908Y-104186828D03*
X142100000Y-101300000D03*
D32*
%TO.N,+3.3V*%
X143400000Y-118500000D03*
X144500000Y-118500000D03*
X161400000Y-106500000D03*
D31*
X168300000Y-118600000D03*
D32*
X159000000Y-113300000D03*
D31*
X162400000Y-87100000D03*
D32*
X162300000Y-106500000D03*
D31*
X144200000Y-87400000D03*
D32*
%TO.N,Net-(D2-A)*%
X139800000Y-82900000D03*
X142600000Y-86100000D03*
%TO.N,MISO*%
X166000000Y-96500000D03*
%TO.N,AUX3*%
X166000000Y-100500000D03*
%TO.N,MOSI*%
X166000000Y-98500000D03*
%TO.N,AUX4*%
X161500000Y-102200000D03*
X154800000Y-106200000D03*
X166000000Y-101500000D03*
%TO.N,ETH_CS*%
X166000000Y-97500000D03*
X162600000Y-100200000D03*
%TO.N,AUX2*%
X166000000Y-95500000D03*
%TO.N,SDA1*%
X166000000Y-105500000D03*
%TO.N,AUX1*%
X162500000Y-94450000D03*
X162200000Y-95800000D03*
X166000000Y-94500000D03*
%TO.N,SCK*%
X166000000Y-99500000D03*
%TO.N,SCL1*%
X166000000Y-104500000D03*
%TO.N,AUX5*%
X161888298Y-96888297D03*
X166000000Y-102500000D03*
%TO.N,AUX6*%
X166000000Y-103500000D03*
X159509620Y-104109620D03*
X153688298Y-105088298D03*
%TO.N,Net-(U1-LINKLED)*%
X139500000Y-114200000D03*
X150765872Y-112211675D03*
%TO.N,Net-(U1-ACTLED)*%
X140900000Y-112900000D03*
X149200000Y-110900000D03*
%TO.N,Net-(U1-DUPLED)*%
X140197216Y-113550000D03*
X149975526Y-111563384D03*
%TO.N,Net-(U1-SPDLED)*%
X138898780Y-114869731D03*
X151638325Y-112861675D03*
%TD*%
D33*
%TO.N,GND*%
X155800000Y-113450000D02*
X157500000Y-115150000D01*
X148204011Y-117300000D02*
X148220000Y-117300000D01*
X148500000Y-117580000D02*
X151500000Y-117580000D01*
X146800000Y-104600000D02*
X147250000Y-105050000D01*
D34*
X139800000Y-80212500D02*
X141977500Y-80212500D01*
D33*
X160700000Y-110950000D02*
X161100000Y-110950000D01*
D34*
X142800000Y-113080000D02*
X144000000Y-113080000D01*
D33*
X150200000Y-115700000D02*
X150100000Y-115700000D01*
X157000000Y-108620000D02*
X157000000Y-108400000D01*
X159050000Y-115150000D02*
X159100000Y-115100000D01*
X144450000Y-108250000D02*
X144300000Y-108400000D01*
X159600000Y-112400000D02*
X159800000Y-112200000D01*
X148152005Y-117432005D02*
X148300000Y-117580000D01*
X147544546Y-112032998D02*
X147750000Y-112238452D01*
X148700000Y-115315070D02*
X148204011Y-115811059D01*
X147544546Y-111958556D02*
X147470104Y-111958556D01*
X148204011Y-117300000D02*
X148204011Y-115811059D01*
X159400000Y-112200000D02*
X159600000Y-112400000D01*
X141425428Y-108400000D02*
X141062714Y-108037286D01*
X151500000Y-117580000D02*
X152700000Y-117580000D01*
X158900000Y-109250000D02*
X159000000Y-109250000D01*
X148152005Y-117352005D02*
X148204011Y-117300000D01*
D34*
X164400000Y-93500000D02*
X164400000Y-92200000D01*
D33*
X157000000Y-108400000D02*
X157800000Y-107600000D01*
D34*
X144870245Y-113371679D02*
X144870245Y-113779755D01*
D33*
X145837500Y-108250000D02*
X144450000Y-108250000D01*
D34*
X144291679Y-113371679D02*
X144000000Y-113080000D01*
D33*
X157620000Y-112200000D02*
X159400000Y-112200000D01*
X148780000Y-98830000D02*
X148130000Y-99480000D01*
X159000000Y-109250000D02*
X160700000Y-110950000D01*
X146761548Y-111250000D02*
X145837500Y-111250000D01*
X147470104Y-111958556D02*
X146761548Y-111250000D01*
X152700000Y-110200000D02*
X153250000Y-110750000D01*
D34*
X144870245Y-113371679D02*
X144291679Y-113371679D01*
D33*
X147250000Y-105050000D02*
X147250000Y-105837500D01*
X146000000Y-104600000D02*
X146800000Y-104600000D01*
X147400000Y-117580000D02*
X147924011Y-117580000D01*
X159850000Y-112200000D02*
X161100000Y-110950000D01*
X145065686Y-104600000D02*
X144920000Y-104745686D01*
X147544546Y-111958556D02*
X147544546Y-112032998D01*
X144300000Y-108400000D02*
X141425428Y-108400000D01*
X147924011Y-117580000D02*
X148152005Y-117352005D01*
X148300000Y-117580000D02*
X148500000Y-117580000D01*
X146000000Y-104600000D02*
X145065686Y-104600000D01*
X144920000Y-104745686D02*
X144920000Y-105600000D01*
X148750000Y-114162500D02*
X148700000Y-114212500D01*
X148780000Y-98830000D02*
X148310000Y-99300000D01*
X157000000Y-111580000D02*
X157620000Y-112200000D01*
X145800000Y-118525000D02*
X146455000Y-118525000D01*
X139500000Y-101620000D02*
X139500000Y-100400000D01*
X141000000Y-100280000D02*
X141000000Y-101300000D01*
D34*
X141990000Y-80200000D02*
X143700000Y-80200000D01*
X164400000Y-92200000D02*
X164400000Y-91200000D01*
D33*
X150250000Y-115650000D02*
X150200000Y-115700000D01*
X155800000Y-112600000D02*
X155800000Y-113450000D01*
D34*
X141977500Y-80212500D02*
X141990000Y-80200000D01*
D33*
X147400000Y-117580000D02*
X148300000Y-117580000D01*
X148700000Y-114212500D02*
X148700000Y-115315070D01*
X139500000Y-100400000D02*
X138900000Y-99800000D01*
X150250000Y-114162500D02*
X150250000Y-115650000D01*
X148310000Y-99300000D02*
X147000000Y-99300000D01*
D34*
X143700000Y-80200000D02*
X144400000Y-80900000D01*
D33*
X159800000Y-112200000D02*
X159850000Y-112200000D01*
X157500000Y-115150000D02*
X159050000Y-115150000D01*
X153250000Y-110750000D02*
X154162500Y-110750000D01*
X150100000Y-115800000D02*
X150200000Y-115700000D01*
X150100000Y-115700000D02*
X150100000Y-115800000D01*
X148152005Y-117352005D02*
X148152005Y-117432005D01*
X148220000Y-117300000D02*
X148500000Y-117580000D01*
D34*
X144870245Y-113779755D02*
X143750000Y-114900000D01*
D33*
X147750000Y-112238452D02*
X147750000Y-114162500D01*
X146455000Y-118525000D02*
X147400000Y-117580000D01*
%TO.N,Net-(U1-XI{slash}CLKIN)*%
X157000000Y-110620000D02*
X158570000Y-110620000D01*
X156990000Y-110610000D02*
X157000000Y-110620000D01*
X155800000Y-110610000D02*
X156990000Y-110610000D01*
X155440000Y-110250000D02*
X155800000Y-110610000D01*
X158570000Y-110620000D02*
X158900000Y-110950000D01*
X154162500Y-110250000D02*
X155440000Y-110250000D01*
%TO.N,Net-(U1-XO)*%
X158050000Y-108350000D02*
X157610000Y-108790000D01*
X155810000Y-109580000D02*
X155800000Y-109590000D01*
X155800000Y-109590000D02*
X155640000Y-109750000D01*
X157610000Y-108970000D02*
X157000000Y-109580000D01*
X160200000Y-108350000D02*
X158050000Y-108350000D01*
X161100000Y-109250000D02*
X160200000Y-108350000D01*
X155640000Y-109750000D02*
X154162500Y-109750000D01*
X157000000Y-109580000D02*
X155810000Y-109580000D01*
X157610000Y-108790000D02*
X157610000Y-108970000D01*
%TO.N,RCT*%
X139510000Y-104490000D02*
X139400000Y-104600000D01*
X139510000Y-103600000D02*
X139510000Y-104490000D01*
X136700000Y-104500000D02*
X136490000Y-104290000D01*
X152590000Y-96290000D02*
X151340000Y-97540000D01*
X141100000Y-96700000D02*
X140100000Y-97700000D01*
X136490000Y-104290000D02*
X136490000Y-103600000D01*
X149532233Y-97540000D02*
X148692233Y-96700000D01*
X148692233Y-96700000D02*
X141100000Y-96700000D01*
X140100000Y-101283866D02*
X140110000Y-101293866D01*
X140110000Y-101970000D02*
X139510000Y-102570000D01*
X140100000Y-97700000D02*
X140100000Y-101283866D01*
X140110000Y-101293866D02*
X140110000Y-101970000D01*
X151340000Y-97540000D02*
X149532233Y-97540000D01*
X139510000Y-102570000D02*
X139510000Y-103600000D01*
%TO.N,TCT*%
X152610000Y-100080000D02*
X146380000Y-100080000D01*
X146380000Y-100080000D02*
X145620000Y-99320000D01*
X145620000Y-99320000D02*
X141000000Y-99320000D01*
X153860000Y-98830000D02*
X152610000Y-100080000D01*
%TO.N,Net-(U1-TOCAP)*%
X150265686Y-116620000D02*
X150750000Y-116135686D01*
X150200000Y-116620000D02*
X150265686Y-116620000D01*
X150750000Y-116135686D02*
X150750000Y-114162500D01*
%TO.N,Net-(U1-1V2O)*%
X151750000Y-114162500D02*
X151750000Y-114932410D01*
X151750000Y-114932410D02*
X152700000Y-115882410D01*
X152700000Y-115882410D02*
X152700000Y-116620000D01*
%TO.N,3V3A*%
X144600000Y-112000000D02*
X144850000Y-112250000D01*
D34*
X141812500Y-117100000D02*
X141812500Y-114937500D01*
D33*
X151250000Y-113392590D02*
X150982410Y-113125000D01*
X147982410Y-115200000D02*
X147700000Y-115200000D01*
X144600000Y-112120000D02*
X144000000Y-112120000D01*
X148800000Y-113125000D02*
X149400000Y-113125000D01*
X149250000Y-114162500D02*
X149250000Y-114932410D01*
X148250000Y-112392590D02*
X148250000Y-113000000D01*
X144600000Y-110950000D02*
X144800000Y-110750000D01*
X147250000Y-110750000D02*
X147808556Y-111308556D01*
X148250000Y-113000000D02*
X148392590Y-113000000D01*
X144800000Y-111017590D02*
X144800000Y-111000000D01*
X144600000Y-112120000D02*
X144720000Y-112120000D01*
X144600000Y-111800000D02*
X144600000Y-112000000D01*
X144600000Y-111520000D02*
X144600000Y-111400000D01*
X148250000Y-113200000D02*
X148250000Y-114162500D01*
D34*
X141850000Y-112050000D02*
X141800000Y-112000000D01*
D33*
X144800000Y-111000000D02*
X145050000Y-110750000D01*
X148228705Y-111723476D02*
X148228705Y-112371295D01*
X145050000Y-110750000D02*
X145837500Y-110750000D01*
X151250000Y-116370000D02*
X151500000Y-116620000D01*
X145837500Y-110750000D02*
X144800000Y-110750000D01*
X144600000Y-111217590D02*
X144800000Y-111017590D01*
X144600000Y-111600000D02*
X144520000Y-111600000D01*
X144720000Y-112120000D02*
X144850000Y-112250000D01*
D35*
X140800000Y-103690000D02*
X140800000Y-102600000D01*
D33*
X144800000Y-111017590D02*
X144720000Y-111097590D01*
D35*
X144002080Y-103700000D02*
X144488908Y-104186828D01*
D33*
X144600000Y-111200000D02*
X144600000Y-111600000D01*
X146600000Y-108750000D02*
X146625000Y-108750000D01*
X144600000Y-111200000D02*
X144800000Y-111000000D01*
D34*
X141920000Y-112120000D02*
X141800000Y-112000000D01*
D33*
X148982410Y-113125000D02*
X148800000Y-113125000D01*
X146725000Y-108750000D02*
X146875000Y-108600000D01*
D35*
X143810000Y-103700000D02*
X144002080Y-103700000D01*
D33*
X149250000Y-114162500D02*
X149250000Y-113392590D01*
X145837500Y-108750000D02*
X146607410Y-108750000D01*
X149128705Y-113271295D02*
X148982410Y-113125000D01*
D34*
X142800000Y-112120000D02*
X144000000Y-112120000D01*
D33*
X148250000Y-113200000D02*
X148442590Y-113200000D01*
X146600000Y-108750000D02*
X146725000Y-108750000D01*
X148392590Y-113000000D02*
X148392590Y-112535180D01*
X146875000Y-108200000D02*
X146875000Y-108600000D01*
X144600000Y-111400000D02*
X144600000Y-111200000D01*
X148250000Y-114932410D02*
X147982410Y-115200000D01*
X145837500Y-110750000D02*
X146607410Y-110750000D01*
X149275000Y-113125000D02*
X149128705Y-113271295D01*
X144850000Y-112250000D02*
X145837500Y-112250000D01*
X150017590Y-113125000D02*
X150000000Y-113142590D01*
X145800000Y-105657410D02*
X146875000Y-106732410D01*
X144600000Y-111200000D02*
X144600000Y-110950000D01*
X148517590Y-113125000D02*
X148392590Y-113000000D01*
X149250000Y-113392590D02*
X149128705Y-113271295D01*
D35*
X140790000Y-103700000D02*
X140800000Y-103690000D01*
D33*
X146875000Y-106732410D02*
X146875000Y-108200000D01*
X149100000Y-115082410D02*
X149100000Y-116520000D01*
X144720000Y-111097590D02*
X144720000Y-112120000D01*
D34*
X142800000Y-112120000D02*
X141920000Y-112120000D01*
D33*
X144600000Y-111600000D02*
X144600000Y-111800000D01*
X149250000Y-114932410D02*
X149100000Y-115082410D01*
X150000000Y-113142590D02*
X149982410Y-113125000D01*
X148250000Y-113392590D02*
X148517590Y-113125000D01*
D35*
X142100000Y-101300000D02*
X142100000Y-100310000D01*
D33*
X147700000Y-115200000D02*
X147400000Y-115500000D01*
X147808556Y-111308556D02*
X147813785Y-111308556D01*
X146625000Y-108750000D02*
X146875000Y-109000000D01*
X146875000Y-110482410D02*
X146607410Y-110750000D01*
X148442590Y-113200000D02*
X148517590Y-113125000D01*
X147400000Y-115500000D02*
X147400000Y-116620000D01*
X148250000Y-113000000D02*
X148250000Y-113200000D01*
X146607410Y-110750000D02*
X147250000Y-110750000D01*
X148392590Y-112535180D02*
X148228705Y-112371295D01*
X146875000Y-108600000D02*
X146875000Y-109000000D01*
X151250000Y-114162500D02*
X151250000Y-116370000D01*
X146875000Y-108482410D02*
X146875000Y-108200000D01*
X146875000Y-109000000D02*
X146875000Y-110482410D01*
X144520000Y-111600000D02*
X144260000Y-111860000D01*
X144000000Y-112120000D02*
X144280000Y-112120000D01*
X148517590Y-113125000D02*
X148800000Y-113125000D01*
X148250000Y-114162500D02*
X148250000Y-114932410D01*
X145837500Y-108750000D02*
X146600000Y-108750000D01*
X144260000Y-111860000D02*
X144000000Y-112120000D01*
X144280000Y-112120000D02*
X144600000Y-111800000D01*
D34*
X141812500Y-114937500D02*
X141850000Y-114900000D01*
D33*
X144600000Y-111400000D02*
X144600000Y-111217590D01*
X148228705Y-112371295D02*
X148250000Y-112392590D01*
X148250000Y-114162500D02*
X148250000Y-113392590D01*
X149982410Y-113125000D02*
X149400000Y-113125000D01*
X146607410Y-108750000D02*
X146875000Y-108482410D01*
X149100000Y-116520000D02*
X149000000Y-116620000D01*
X144260000Y-111860000D02*
X144600000Y-111520000D01*
X147813785Y-111308556D02*
X148228705Y-111723476D01*
X151250000Y-114162500D02*
X151250000Y-113392590D01*
X150982410Y-113125000D02*
X150017590Y-113125000D01*
D34*
X141850000Y-114900000D02*
X141850000Y-112050000D01*
D33*
X149400000Y-113125000D02*
X149275000Y-113125000D01*
D35*
X140800000Y-102600000D02*
X142100000Y-101300000D01*
D34*
%TO.N,+3.3V*%
X143387500Y-117800000D02*
X143387500Y-117887500D01*
D33*
X158950000Y-113250000D02*
X159000000Y-113300000D01*
D34*
X144000000Y-118500000D02*
X143400000Y-118500000D01*
X143387500Y-117100000D02*
X143387500Y-117800000D01*
X162300000Y-106500000D02*
X164350000Y-106500000D01*
D33*
X155890000Y-111640000D02*
X157500000Y-113250000D01*
D35*
X145030000Y-86570000D02*
X144200000Y-87400000D01*
D34*
X143387500Y-117387500D02*
X144500000Y-118500000D01*
D33*
X155410000Y-111250000D02*
X154162500Y-111250000D01*
D34*
X161400000Y-106500000D02*
X161500000Y-106500000D01*
X143387500Y-117100000D02*
X143387500Y-117387500D01*
D33*
X157500000Y-113250000D02*
X158950000Y-113250000D01*
X155800000Y-111640000D02*
X155890000Y-111640000D01*
D35*
X162400000Y-85900000D02*
X162400000Y-87100000D01*
D34*
X143387500Y-117800000D02*
X143387500Y-118487500D01*
X144500000Y-118500000D02*
X144000000Y-118500000D01*
X161400000Y-106500000D02*
X162300000Y-106500000D01*
D33*
X155800000Y-111640000D02*
X155410000Y-111250000D01*
D35*
X159550000Y-85050000D02*
X161550000Y-85050000D01*
X146900000Y-86570000D02*
X145030000Y-86570000D01*
X161550000Y-85050000D02*
X162400000Y-85900000D01*
D34*
X143387500Y-117887500D02*
X144000000Y-118500000D01*
X143387500Y-118487500D02*
X143400000Y-118500000D01*
D33*
%TO.N,Net-(D1-A)*%
X141510000Y-84000000D02*
X142000000Y-83510000D01*
X142000000Y-83510000D02*
X142000000Y-81785000D01*
X142000000Y-81785000D02*
X141990000Y-81775000D01*
%TO.N,Net-(D2-A)*%
X139800000Y-82900000D02*
X139800000Y-81787500D01*
X141510000Y-86700000D02*
X142000000Y-86700000D01*
X139800000Y-81787500D02*
X139800000Y-81890000D01*
X142000000Y-86700000D02*
X142600000Y-86100000D01*
%TO.N,/TD+*%
X153100000Y-101400000D02*
X144000000Y-101400000D01*
X142100000Y-103300000D02*
X142100000Y-107110000D01*
X155150000Y-98150000D02*
X155150000Y-99350000D01*
X142100000Y-107110000D02*
X142690000Y-107700000D01*
X155150000Y-99350000D02*
X153100000Y-101400000D01*
X144000000Y-101400000D02*
X142100000Y-103300000D01*
X157670000Y-96290000D02*
X157010000Y-96290000D01*
X157010000Y-96290000D02*
X155150000Y-98150000D01*
%TO.N,/RD+*%
X141740503Y-110200000D02*
X137800000Y-106259497D01*
X137800000Y-102880000D02*
X137500000Y-102580000D01*
X137800000Y-106259497D02*
X137800000Y-102880000D01*
X142690000Y-110200000D02*
X141740503Y-110200000D01*
%TO.N,/TD-*%
X149094000Y-102554741D02*
X149094000Y-102044000D01*
X149460000Y-101800000D02*
X150784099Y-101800000D01*
X146654000Y-102554729D02*
X146654000Y-102044000D01*
X147874000Y-102554741D02*
X147874000Y-102044000D01*
X146288000Y-102798729D02*
X146410000Y-102798729D01*
X148484000Y-102044000D02*
X148484000Y-102554741D01*
X147508000Y-102798741D02*
X147630000Y-102798741D01*
X153430000Y-101800000D02*
X156400000Y-98830000D01*
X148728000Y-102798741D02*
X148850000Y-102798741D01*
X148118000Y-101800000D02*
X148240000Y-101800000D01*
X149338000Y-101800000D02*
X149460000Y-101800000D01*
X146044000Y-102044000D02*
X146044000Y-102554729D01*
X144165686Y-101800000D02*
X145800000Y-101800000D01*
X142500000Y-103465686D02*
X144165686Y-101800000D01*
X146898000Y-101800000D02*
X147020000Y-101800000D01*
X150784099Y-101800000D02*
X153430000Y-101800000D01*
X142690000Y-106600000D02*
X142500000Y-106410000D01*
X142500000Y-106410000D02*
X142500000Y-103465686D01*
X147264000Y-102044000D02*
X147264000Y-102554741D01*
X148850000Y-102798741D02*
G75*
G03*
X149094041Y-102554741I0J244041D01*
G01*
X146410000Y-102798729D02*
G75*
G03*
X146654029Y-102554729I0J244029D01*
G01*
X146044000Y-102554729D02*
G75*
G03*
X146288000Y-102798700I244000J29D01*
G01*
X145800000Y-101800000D02*
G75*
G02*
X146044000Y-102044000I0J-244000D01*
G01*
X148240000Y-101800000D02*
G75*
G02*
X148484000Y-102044000I0J-244000D01*
G01*
X149094000Y-102044000D02*
G75*
G02*
X149338000Y-101800000I244000J0D01*
G01*
X146654000Y-102044000D02*
G75*
G02*
X146898000Y-101800000I244000J0D01*
G01*
X147020000Y-101800000D02*
G75*
G02*
X147264000Y-102044000I0J-244000D01*
G01*
X147874000Y-102044000D02*
G75*
G02*
X148118000Y-101800000I244000J0D01*
G01*
X147630000Y-102798741D02*
G75*
G03*
X147874041Y-102554741I0J244041D01*
G01*
X147264000Y-102554741D02*
G75*
G03*
X147508000Y-102798700I244000J41D01*
G01*
X148484000Y-102554741D02*
G75*
G03*
X148728000Y-102798700I244000J41D01*
G01*
%TO.N,/ACT_LED*%
X141510000Y-87800000D02*
X142000000Y-87800000D01*
X144750000Y-85050000D02*
X149440000Y-85050000D01*
X142000000Y-87800000D02*
X144750000Y-85050000D01*
%TO.N,/LK_LED*%
X157010000Y-86570000D02*
X154040000Y-83600000D01*
X144800000Y-83600000D02*
X143100000Y-85300000D01*
X143100000Y-85300000D02*
X141510000Y-85300000D01*
X154040000Y-83600000D02*
X144800000Y-83600000D01*
%TO.N,/RD-*%
X139054565Y-106948376D02*
X138694862Y-106588673D01*
X139621927Y-106890130D02*
X139478828Y-107033228D01*
X138200000Y-106093811D02*
X138200000Y-102880000D01*
X138694862Y-106588673D02*
X138200000Y-106093811D01*
X139139417Y-107033228D02*
X139054565Y-106948376D01*
X141206189Y-109100000D02*
X139903094Y-107796905D01*
X139903094Y-107457493D02*
X140046192Y-107314394D01*
X142690000Y-109100000D02*
X141206189Y-109100000D01*
X140046192Y-106974983D02*
X139961339Y-106890130D01*
X138200000Y-102880000D02*
X138500000Y-102580000D01*
X139478828Y-107033228D02*
G75*
G02*
X139139416Y-107033229I-169706J169703D01*
G01*
X139961339Y-106890130D02*
G75*
G03*
X139621927Y-106890130I-169706J-169704D01*
G01*
X139903094Y-107796905D02*
G75*
G02*
X139903095Y-107457494I169706J169705D01*
G01*
X140046192Y-107314394D02*
G75*
G03*
X140046181Y-106974995I-169692J169694D01*
G01*
%TO.N,MISO*%
X153700000Y-106100000D02*
X153700000Y-106400000D01*
X166000000Y-96500000D02*
X164350000Y-96500000D01*
X164350000Y-96500000D02*
X163300000Y-96500000D01*
X153700000Y-106400000D02*
X153125000Y-106975000D01*
X153125000Y-106975000D02*
X153125000Y-108082410D01*
X153292590Y-108250000D02*
X154162500Y-108250000D01*
X153125000Y-108082410D02*
X153292590Y-108250000D01*
X163300000Y-96500000D02*
X153700000Y-106100000D01*
%TO.N,AUX3*%
X164450000Y-100400000D02*
X164350000Y-100500000D01*
X165900000Y-100400000D02*
X164450000Y-100400000D01*
%TO.N,MOSI*%
X154932410Y-107750000D02*
X154162500Y-107750000D01*
X164350000Y-98500000D02*
X162200000Y-98500000D01*
X155600000Y-105100000D02*
X155600000Y-107082410D01*
X155600000Y-107082410D02*
X154932410Y-107750000D01*
X165963895Y-98500722D02*
X165963173Y-98500000D01*
X165963173Y-98500000D02*
X164350000Y-98500000D01*
X162200000Y-98500000D02*
X155600000Y-105100000D01*
%TO.N,AUX4*%
X165900000Y-101500000D02*
X164350000Y-101500000D01*
X154162500Y-107250000D02*
X154162500Y-106837500D01*
X154162500Y-106837500D02*
X154800000Y-106200000D01*
X162200000Y-101500000D02*
X164350000Y-101500000D01*
X161500000Y-102200000D02*
X162200000Y-101500000D01*
%TO.N,ETH_CS*%
X156700000Y-107679468D02*
X155129468Y-109250000D01*
X162550000Y-100150000D02*
X156700000Y-106000000D01*
X156700000Y-106000000D02*
X156700000Y-107679468D01*
X165900000Y-97500000D02*
X164350000Y-97500000D01*
X165972689Y-97572689D02*
X165900000Y-97500000D01*
X155129468Y-109250000D02*
X154162500Y-109250000D01*
X162600000Y-100150000D02*
X162550000Y-100150000D01*
%TO.N,AUX2*%
X163045000Y-95100000D02*
X163445000Y-95500000D01*
X149868628Y-103800000D02*
X152925986Y-103800000D01*
X148750000Y-105837500D02*
X148750000Y-104918628D01*
X148750000Y-104918628D02*
X149868628Y-103800000D01*
X166000000Y-95500000D02*
X164350000Y-95500000D01*
X153359469Y-103638298D02*
X161897767Y-95100000D01*
X152925986Y-103800000D02*
X153087688Y-103638298D01*
X163445000Y-95500000D02*
X164350000Y-95500000D01*
X153087688Y-103638298D02*
X153359469Y-103638298D01*
X161897767Y-95100000D02*
X163045000Y-95100000D01*
%TO.N,SDA1*%
X165900000Y-105500000D02*
X164350000Y-105500000D01*
X166000000Y-105600000D02*
X165900000Y-105500000D01*
%TO.N,AUX1*%
X162200000Y-95800000D02*
X162000000Y-96000000D01*
X162550000Y-94500000D02*
X164350000Y-94500000D01*
X153761702Y-104038298D02*
X153253374Y-104038298D01*
X149250000Y-104984314D02*
X149250000Y-105837500D01*
X153253374Y-104038298D02*
X153091672Y-104200000D01*
X153091672Y-104200000D02*
X150034314Y-104200000D01*
X161800000Y-96000000D02*
X153761702Y-104038298D01*
X162500000Y-94450000D02*
X162550000Y-94500000D01*
X162000000Y-96000000D02*
X161800000Y-96000000D01*
X166100000Y-94500000D02*
X164350000Y-94500000D01*
X150034314Y-104200000D02*
X149250000Y-104984314D01*
%TO.N,SCK*%
X156100000Y-107713782D02*
X156100000Y-105600000D01*
X156100000Y-105600000D02*
X162200000Y-99500000D01*
X164450000Y-99400000D02*
X164350000Y-99500000D01*
X166000000Y-99400000D02*
X164450000Y-99400000D01*
X154162500Y-108750000D02*
X155063782Y-108750000D01*
X162200000Y-99500000D02*
X164350000Y-99500000D01*
X155063782Y-108750000D02*
X156100000Y-107713782D01*
%TO.N,SCL1*%
X165900000Y-104500000D02*
X164350000Y-104500000D01*
X166000000Y-104500000D02*
X165900000Y-104500000D01*
%TO.N,AUX5*%
X150200000Y-104600000D02*
X149750000Y-105050000D01*
X161888298Y-96888297D02*
X161811703Y-96888297D01*
X149750000Y-105050000D02*
X149750000Y-105837500D01*
X153419059Y-104438298D02*
X153257357Y-104600000D01*
X154261702Y-104438298D02*
X153419059Y-104438298D01*
X161811703Y-96888297D02*
X154261702Y-104438298D01*
X153257357Y-104600000D02*
X150200000Y-104600000D01*
X165900000Y-102500000D02*
X164350000Y-102500000D01*
%TO.N,AUX6*%
X166000000Y-103499997D02*
X165900000Y-103600000D01*
X164350003Y-103499997D02*
X164350000Y-103500000D01*
X160119240Y-103500000D02*
X164350000Y-103500000D01*
X152939096Y-105837500D02*
X153688298Y-105088298D01*
X164350000Y-103500000D02*
X166000000Y-103500000D01*
X152750000Y-105837500D02*
X152939096Y-105837500D01*
X159509620Y-104109620D02*
X160119240Y-103500000D01*
%TO.N,Net-(U1-TXP)*%
X145787500Y-107700000D02*
X145837500Y-107750000D01*
X143710000Y-107700000D02*
X145787500Y-107700000D01*
%TO.N,Net-(U1-TXN)*%
X145787500Y-107200000D02*
X145837500Y-107250000D01*
X143710000Y-106600000D02*
X144310000Y-107200000D01*
X144310000Y-107200000D02*
X145787500Y-107200000D01*
%TO.N,Net-(U1-RXP)*%
X144160000Y-109750000D02*
X145837500Y-109750000D01*
X143710000Y-110200000D02*
X144160000Y-109750000D01*
%TO.N,Net-(U1-RXN)*%
X143860000Y-109250000D02*
X145837500Y-109250000D01*
X143710000Y-109100000D02*
X143860000Y-109250000D01*
%TO.N,Net-(U1-EXRES1)*%
X145837500Y-111750000D02*
X146607410Y-111750000D01*
X146900000Y-113242590D02*
X145800000Y-114342590D01*
X146607410Y-111750000D02*
X146900000Y-112042590D01*
X145800000Y-114342590D02*
X145800000Y-116875000D01*
X146900000Y-112042590D02*
X146900000Y-113242590D01*
%TO.N,Net-(U1-LINKLED)*%
X152330914Y-112211675D02*
X152869239Y-112750000D01*
X139500000Y-114200000D02*
X138968628Y-114200000D01*
X139920000Y-86414314D02*
X139920000Y-85870000D01*
X150765872Y-112211675D02*
X152330914Y-112211675D01*
X139920000Y-85870000D02*
X140490000Y-85300000D01*
X133900000Y-109131372D02*
X133900000Y-92434314D01*
X152869239Y-112750000D02*
X154162500Y-112750000D01*
X133900000Y-92434314D02*
X139920000Y-86414314D01*
X138968628Y-114200000D02*
X133900000Y-109131372D01*
%TO.N,Net-(U1-ACTLED)*%
X134700000Y-108800000D02*
X134700000Y-93000000D01*
X140900000Y-112900000D02*
X138800000Y-112900000D01*
X153000611Y-111750000D02*
X152150611Y-110900000D01*
X139900000Y-87800000D02*
X140490000Y-87800000D01*
X138800000Y-112900000D02*
X134700000Y-108800000D01*
X154162500Y-111750000D02*
X153000611Y-111750000D01*
X152150611Y-110900000D02*
X149200000Y-110900000D01*
X134700000Y-93000000D02*
X139900000Y-87800000D01*
%TO.N,Net-(U1-DUPLED)*%
X134300000Y-108965686D02*
X134300000Y-92600000D01*
X134300000Y-92600000D02*
X140200000Y-86700000D01*
X138884314Y-113550000D02*
X134300000Y-108965686D01*
X140200000Y-86700000D02*
X140490000Y-86700000D01*
X152934925Y-112250000D02*
X154162500Y-112250000D01*
X149975526Y-111563384D02*
X150494924Y-111563384D01*
X152246600Y-111561675D02*
X152934925Y-112250000D01*
X150496633Y-111561675D02*
X152246600Y-111561675D01*
X150494924Y-111563384D02*
X150496633Y-111561675D01*
X140197216Y-113550000D02*
X138884314Y-113550000D01*
%TO.N,Net-(U1-SPDLED)*%
X151638325Y-112861675D02*
X152219085Y-112861675D01*
X139520000Y-86248628D02*
X139520000Y-84970000D01*
X133500000Y-109297058D02*
X133500000Y-92268628D01*
X133500000Y-92268628D02*
X139520000Y-86248628D01*
X152219085Y-112861675D02*
X152750000Y-113392590D01*
X139520000Y-84970000D02*
X140490000Y-84000000D01*
X138898780Y-114869731D02*
X138898780Y-114695838D01*
X138898780Y-114695838D02*
X133500000Y-109297058D01*
X152750000Y-113392590D02*
X152750000Y-114162500D01*
%TO.N,/R+*%
X148060000Y-94640000D02*
X147800000Y-94900000D01*
X139053480Y-96180831D02*
X138968628Y-96265685D01*
X137800000Y-97434314D02*
X137800000Y-98400000D01*
X147800000Y-94900000D02*
X140334314Y-94900000D01*
X138933001Y-95211824D02*
X138848148Y-95296676D01*
X138629216Y-96265686D02*
X138423900Y-96060370D01*
X137999636Y-96484634D02*
X138204951Y-96689949D01*
X155130000Y-96290000D02*
X153480000Y-94640000D01*
X138204951Y-97029360D02*
X138120099Y-97114214D01*
X139477745Y-95417157D02*
X139272412Y-95211824D01*
X140334314Y-94900000D02*
X139817157Y-95417157D01*
X138120099Y-97114214D02*
X137800000Y-97434314D01*
X137800000Y-98400000D02*
X137800000Y-101320000D01*
X137800000Y-101320000D02*
X137500000Y-101620000D01*
X138084489Y-96060370D02*
X137999636Y-96145222D01*
X138848148Y-95636088D02*
X139053480Y-95841420D01*
X138968628Y-96265685D02*
X138968628Y-96265686D01*
X153480000Y-94640000D02*
X148060000Y-94640000D01*
X138968628Y-96265686D02*
G75*
G02*
X138629216Y-96265686I-169706J169704D01*
G01*
X139053480Y-95841420D02*
G75*
G02*
X139053455Y-96180805I-169680J-169680D01*
G01*
X138423900Y-96060370D02*
G75*
G03*
X138084490Y-96060370I-169705J-169703D01*
G01*
X139817157Y-95417157D02*
G75*
G02*
X139477745Y-95417157I-169706J169704D01*
G01*
X138848148Y-95296676D02*
G75*
G03*
X138848130Y-95636106I169752J-169724D01*
G01*
X138204951Y-96689949D02*
G75*
G02*
X138204997Y-97029405I-169751J-169751D01*
G01*
X137999636Y-96145222D02*
G75*
G03*
X137999664Y-96484606I169664J-169678D01*
G01*
X139272412Y-95211824D02*
G75*
G03*
X138933002Y-95211824I-169705J-169703D01*
G01*
%TO.N,/R-*%
X140500000Y-95300000D02*
X138200000Y-97600000D01*
X151320000Y-98830000D02*
X152570000Y-97580000D01*
X152570000Y-97580000D02*
X153347767Y-97580000D01*
X153107767Y-95040000D02*
X148225686Y-95040000D01*
X153880000Y-95812233D02*
X153107767Y-95040000D01*
X153347767Y-97580000D02*
X153880000Y-97047767D01*
X138200000Y-101320000D02*
X138500000Y-101620000D01*
X148225686Y-95040000D02*
X147965686Y-95300000D01*
X138200000Y-97600000D02*
X138200000Y-101320000D01*
X153880000Y-97047767D02*
X153880000Y-95812233D01*
X147965686Y-95300000D02*
X140500000Y-95300000D01*
%TD*%
%TA.AperFunction,Conductor*%
%TO.N,GND*%
G36*
X143577461Y-92419707D02*
G01*
X143646702Y-92474926D01*
X143685129Y-92554718D01*
X143685129Y-92643282D01*
X143665114Y-92730969D01*
X143644953Y-93000000D01*
X143665114Y-93269030D01*
X143725146Y-93532046D01*
X143823710Y-93783182D01*
X143823714Y-93783190D01*
X143958598Y-94016815D01*
X143958603Y-94016823D01*
X144012294Y-94084151D01*
X144734152Y-93362292D01*
X144741049Y-93378942D01*
X144828599Y-93509970D01*
X144940030Y-93621401D01*
X145071058Y-93708951D01*
X145087705Y-93715846D01*
X144350109Y-94453441D01*
X144347966Y-94469725D01*
X144299454Y-94543820D01*
X144223597Y-94589528D01*
X144161394Y-94599500D01*
X140294751Y-94599500D01*
X140218323Y-94619979D01*
X140218321Y-94619980D01*
X140149804Y-94659539D01*
X140149802Y-94659540D01*
X139788165Y-95021177D01*
X139713176Y-95068296D01*
X139625170Y-95078212D01*
X139541576Y-95048961D01*
X139506737Y-95021177D01*
X139441835Y-94956275D01*
X139376925Y-94915489D01*
X139338706Y-94891474D01*
X139338705Y-94891473D01*
X139338704Y-94891473D01*
X139338702Y-94891472D01*
X139223739Y-94851245D01*
X139102707Y-94837609D01*
X139102706Y-94837609D01*
X138981672Y-94851247D01*
X138981669Y-94851247D01*
X138981668Y-94851248D01*
X138866708Y-94891474D01*
X138866707Y-94891474D01*
X138763576Y-94956276D01*
X138763570Y-94956281D01*
X138748490Y-94971363D01*
X138748486Y-94971367D01*
X138679587Y-95040265D01*
X138679528Y-95040316D01*
X138635643Y-95084209D01*
X138598857Y-95120995D01*
X138598554Y-95121339D01*
X138592609Y-95127285D01*
X138527820Y-95230406D01*
X138527818Y-95230410D01*
X138487599Y-95345351D01*
X138487597Y-95345360D01*
X138473960Y-95466373D01*
X138473959Y-95477553D01*
X138472639Y-95477552D01*
X138464006Y-95554115D01*
X138416880Y-95629100D01*
X138341887Y-95676211D01*
X138265369Y-95684832D01*
X138265369Y-95686155D01*
X138254198Y-95686155D01*
X138254196Y-95686155D01*
X138254194Y-95686155D01*
X138133160Y-95699793D01*
X138133157Y-95699793D01*
X138133156Y-95699794D01*
X138018196Y-95740020D01*
X138018195Y-95740020D01*
X137915064Y-95804822D01*
X137915058Y-95804827D01*
X137899983Y-95819904D01*
X137899979Y-95819909D01*
X137846223Y-95873664D01*
X137846080Y-95873753D01*
X137744063Y-95975766D01*
X137744062Y-95975767D01*
X137679254Y-96078906D01*
X137679252Y-96078910D01*
X137639021Y-96193892D01*
X137639021Y-96193894D01*
X137625390Y-96314945D01*
X137635657Y-96405988D01*
X137639041Y-96435993D01*
X137639042Y-96435999D01*
X137679287Y-96550963D01*
X137679289Y-96550968D01*
X137744114Y-96654097D01*
X137744118Y-96654103D01*
X137784661Y-96694630D01*
X137784689Y-96694658D01*
X137808972Y-96718941D01*
X137856091Y-96793929D01*
X137866007Y-96881936D01*
X137836756Y-96965529D01*
X137808973Y-97000369D01*
X137559538Y-97249805D01*
X137559537Y-97249806D01*
X137519978Y-97318324D01*
X137519976Y-97318329D01*
X137508934Y-97359538D01*
X137508935Y-97359539D01*
X137499500Y-97394752D01*
X137499500Y-100940500D01*
X137479793Y-101026843D01*
X137424574Y-101096084D01*
X137344782Y-101134511D01*
X137300512Y-101139500D01*
X137290108Y-101139500D01*
X137290097Y-101139501D01*
X137240514Y-101146027D01*
X137240512Y-101146028D01*
X137131683Y-101196776D01*
X137046776Y-101281683D01*
X136996029Y-101390509D01*
X136996027Y-101390515D01*
X136989500Y-101440092D01*
X136989500Y-101799896D01*
X136989501Y-101799902D01*
X136996027Y-101849485D01*
X136996028Y-101849487D01*
X137046776Y-101958316D01*
X137047746Y-101959286D01*
X137050285Y-101963328D01*
X137056762Y-101972577D01*
X137056300Y-101972900D01*
X137094865Y-102034274D01*
X137104781Y-102122281D01*
X137075530Y-102205874D01*
X137047746Y-102240714D01*
X137046777Y-102241682D01*
X137046776Y-102241683D01*
X136996029Y-102350509D01*
X136996027Y-102350515D01*
X136989500Y-102400092D01*
X136989500Y-102759896D01*
X136989501Y-102759902D01*
X136996027Y-102809485D01*
X136996029Y-102809490D01*
X137008284Y-102835771D01*
X137026914Y-102922353D01*
X137006131Y-103008443D01*
X136950054Y-103076991D01*
X136869789Y-103114420D01*
X136781232Y-103113316D01*
X136743833Y-103100229D01*
X136713173Y-103085932D01*
X136713170Y-103085931D01*
X136713168Y-103085931D01*
X136664322Y-103079500D01*
X136664316Y-103079500D01*
X136315684Y-103079500D01*
X136315677Y-103079500D01*
X136266831Y-103085931D01*
X136266828Y-103085931D01*
X136266827Y-103085932D01*
X136266825Y-103085933D01*
X136159597Y-103135934D01*
X136159594Y-103135936D01*
X136075936Y-103219594D01*
X136075934Y-103219597D01*
X136025933Y-103326825D01*
X136025931Y-103326831D01*
X136019500Y-103375677D01*
X136019500Y-103824322D01*
X136025896Y-103872902D01*
X136025932Y-103873173D01*
X136030975Y-103883987D01*
X136075934Y-103980402D01*
X136075936Y-103980405D01*
X136115776Y-104020245D01*
X136162895Y-104095233D01*
X136172811Y-104183240D01*
X136158914Y-104237112D01*
X136114957Y-104343232D01*
X136114956Y-104343237D01*
X136094318Y-104500000D01*
X136114956Y-104656762D01*
X136114957Y-104656764D01*
X136175463Y-104802840D01*
X136175464Y-104802843D01*
X136233953Y-104879066D01*
X136271718Y-104928282D01*
X136313823Y-104960590D01*
X136397156Y-105024535D01*
X136397159Y-105024536D01*
X136543238Y-105085044D01*
X136700000Y-105105682D01*
X136856762Y-105085044D01*
X137002841Y-105024536D01*
X137002841Y-105024535D01*
X137002843Y-105024535D01*
X137055654Y-104984011D01*
X137128282Y-104928282D01*
X137142623Y-104909591D01*
X137210820Y-104853089D01*
X137296779Y-104831771D01*
X137383476Y-104849860D01*
X137453738Y-104903774D01*
X137493649Y-104982835D01*
X137499500Y-105030736D01*
X137499500Y-106299062D01*
X137519977Y-106375482D01*
X137519978Y-106375484D01*
X137519979Y-106375486D01*
X137525190Y-106384511D01*
X137525193Y-106384516D01*
X137525193Y-106384518D01*
X137559537Y-106444004D01*
X137559540Y-106444008D01*
X141555992Y-110440460D01*
X141555993Y-110440461D01*
X141555995Y-110440462D01*
X141624512Y-110480021D01*
X141624514Y-110480021D01*
X141624515Y-110480022D01*
X141700941Y-110500500D01*
X141881879Y-110500500D01*
X141968222Y-110520207D01*
X142037463Y-110575426D01*
X142075890Y-110655218D01*
X142075890Y-110743782D01*
X142037463Y-110823574D01*
X141985021Y-110869684D01*
X139178371Y-112570684D01*
X139094317Y-112598582D01*
X139075229Y-112599500D01*
X139006899Y-112599500D01*
X138920556Y-112579793D01*
X138866185Y-112541214D01*
X135347903Y-109022932D01*
X135300784Y-108947944D01*
X135289679Y-108887195D01*
X135200062Y-105302480D01*
X135200000Y-105297507D01*
X135200000Y-94779850D01*
X135219707Y-94693507D01*
X135255194Y-94642297D01*
X135314981Y-94579793D01*
X136076956Y-93783182D01*
X137341225Y-92461447D01*
X137415149Y-92412674D01*
X137485031Y-92400000D01*
X143491118Y-92400000D01*
X143577461Y-92419707D01*
G37*
%TD.AperFunction*%
%TA.AperFunction,Conductor*%
G36*
X140242625Y-103872902D02*
G01*
X140298702Y-103941450D01*
X140317167Y-104017941D01*
X140319074Y-104017817D01*
X140319500Y-104024322D01*
X140322615Y-104047980D01*
X140325932Y-104073173D01*
X140375935Y-104180404D01*
X140459596Y-104264065D01*
X140566827Y-104314068D01*
X140615679Y-104320499D01*
X140615683Y-104320500D01*
X140615684Y-104320500D01*
X140964317Y-104320500D01*
X140964318Y-104320499D01*
X141013173Y-104314068D01*
X141120404Y-104264065D01*
X141159286Y-104225183D01*
X141234274Y-104178064D01*
X141322281Y-104168148D01*
X141405874Y-104197399D01*
X141440714Y-104225183D01*
X141479596Y-104264065D01*
X141586827Y-104314068D01*
X141610369Y-104317167D01*
X141626475Y-104319288D01*
X141709507Y-104350096D01*
X141770949Y-104413880D01*
X141798631Y-104498006D01*
X141799500Y-104516585D01*
X141799500Y-107149564D01*
X141819978Y-107225986D01*
X141819979Y-107225990D01*
X141848178Y-107274831D01*
X141848179Y-107274833D01*
X141859539Y-107294509D01*
X141859540Y-107294511D01*
X142041714Y-107476685D01*
X142088833Y-107551673D01*
X142100000Y-107617399D01*
X142100000Y-108600500D01*
X142080293Y-108686843D01*
X142025074Y-108756084D01*
X141945282Y-108794511D01*
X141901000Y-108799500D01*
X141413088Y-108799500D01*
X141326745Y-108779793D01*
X141272374Y-108741214D01*
X140299084Y-107767924D01*
X140251965Y-107692936D01*
X140242049Y-107604929D01*
X140271300Y-107521336D01*
X140299084Y-107486496D01*
X140301750Y-107483829D01*
X140301749Y-107483829D01*
X140301752Y-107483827D01*
X140366556Y-107380692D01*
X140406784Y-107265721D01*
X140420418Y-107144682D01*
X140406775Y-107023643D01*
X140366540Y-106908675D01*
X140344229Y-106873173D01*
X140301729Y-106805544D01*
X140286672Y-106790489D01*
X140258662Y-106762482D01*
X140255695Y-106759515D01*
X140145850Y-106649670D01*
X140130763Y-106634583D01*
X140027632Y-106569781D01*
X140027630Y-106569780D01*
X139912671Y-106529553D01*
X139912669Y-106529552D01*
X139912667Y-106529552D01*
X139791633Y-106515915D01*
X139670599Y-106529552D01*
X139670597Y-106529552D01*
X139670594Y-106529553D01*
X139555635Y-106569780D01*
X139555633Y-106569781D01*
X139452501Y-106634584D01*
X139449837Y-106637249D01*
X139446647Y-106639253D01*
X139443766Y-106641551D01*
X139443507Y-106641226D01*
X139374849Y-106684368D01*
X139286842Y-106694284D01*
X139203249Y-106665033D01*
X139168409Y-106637249D01*
X138558786Y-106027626D01*
X138511667Y-105952638D01*
X138500500Y-105886912D01*
X138500500Y-104996062D01*
X138520207Y-104909719D01*
X138575426Y-104840478D01*
X138655218Y-104802051D01*
X138743782Y-104802051D01*
X138823574Y-104840478D01*
X138871843Y-104896569D01*
X138875465Y-104902843D01*
X138899313Y-104933922D01*
X138971718Y-105028282D01*
X139013625Y-105060438D01*
X139097156Y-105124535D01*
X139097159Y-105124536D01*
X139243238Y-105185044D01*
X139400000Y-105205682D01*
X139556762Y-105185044D01*
X139702841Y-105124536D01*
X139702841Y-105124535D01*
X139702843Y-105124535D01*
X139739993Y-105096028D01*
X139828282Y-105028282D01*
X139902179Y-104931976D01*
X139924535Y-104902843D01*
X139924536Y-104902840D01*
X139985044Y-104756762D01*
X140005682Y-104600000D01*
X139985044Y-104443238D01*
X139924536Y-104297159D01*
X139924535Y-104297157D01*
X139893044Y-104256117D01*
X139856117Y-104175620D01*
X139857773Y-104087072D01*
X139897685Y-104008012D01*
X139910189Y-103994279D01*
X139924065Y-103980404D01*
X139940145Y-103945919D01*
X139994496Y-103875995D01*
X140073803Y-103836577D01*
X140162360Y-103835473D01*
X140242625Y-103872902D01*
G37*
%TD.AperFunction*%
%TA.AperFunction,Conductor*%
G36*
X143405874Y-104197399D02*
G01*
X143440714Y-104225183D01*
X143479596Y-104264065D01*
X143586827Y-104314068D01*
X143635679Y-104320499D01*
X143635683Y-104320500D01*
X143635684Y-104320500D01*
X143761332Y-104320500D01*
X143847675Y-104340207D01*
X143916916Y-104395426D01*
X143945184Y-104443346D01*
X143964371Y-104489668D01*
X143964372Y-104489671D01*
X144028541Y-104573296D01*
X144060626Y-104615110D01*
X144114908Y-104656762D01*
X144186064Y-104711363D01*
X144186067Y-104711364D01*
X144199038Y-104716737D01*
X144271267Y-104767986D01*
X144314106Y-104845498D01*
X144319072Y-104933922D01*
X144285181Y-105015744D01*
X144277737Y-105024561D01*
X144277954Y-105024729D01*
X144270281Y-105034620D01*
X144240926Y-105084256D01*
X144201848Y-105131688D01*
X143152055Y-106064837D01*
X143074429Y-106107471D01*
X142985992Y-106112202D01*
X142935746Y-106096458D01*
X142915399Y-106086970D01*
X142845474Y-106032619D01*
X142806056Y-105953312D01*
X142800500Y-105906615D01*
X142800500Y-104516585D01*
X142820207Y-104430242D01*
X142875426Y-104361001D01*
X142955218Y-104322574D01*
X142973525Y-104319288D01*
X142987548Y-104317441D01*
X143013173Y-104314068D01*
X143120404Y-104264065D01*
X143159286Y-104225183D01*
X143234274Y-104178064D01*
X143322281Y-104168148D01*
X143405874Y-104197399D01*
G37*
%TD.AperFunction*%
%TA.AperFunction,Conductor*%
G36*
X155606874Y-100266900D02*
G01*
X155669498Y-100329524D01*
X155698749Y-100413117D01*
X155700000Y-100435398D01*
X155700000Y-100790367D01*
X155680293Y-100876710D01*
X155641714Y-100931081D01*
X153293284Y-103279512D01*
X153218296Y-103326631D01*
X153152570Y-103337798D01*
X153048125Y-103337798D01*
X152971697Y-103358277D01*
X152971695Y-103358278D01*
X152922501Y-103386681D01*
X152903178Y-103397837D01*
X152903176Y-103397838D01*
X152859801Y-103441214D01*
X152784813Y-103488333D01*
X152719087Y-103499500D01*
X149829063Y-103499500D01*
X149752641Y-103519978D01*
X149752639Y-103519978D01*
X149717165Y-103540460D01*
X149717164Y-103540459D01*
X149684118Y-103559539D01*
X149684116Y-103559540D01*
X149501943Y-103741714D01*
X149426955Y-103788833D01*
X149361229Y-103800000D01*
X145700000Y-103800000D01*
X145699999Y-103800001D01*
X145381806Y-104082837D01*
X145304179Y-104125470D01*
X145215743Y-104130201D01*
X145134011Y-104096092D01*
X145075173Y-104029898D01*
X145065746Y-104010255D01*
X145013445Y-103883989D01*
X145013443Y-103883984D01*
X144948999Y-103800001D01*
X144917190Y-103758546D01*
X144875376Y-103726461D01*
X144791751Y-103662292D01*
X144791748Y-103662291D01*
X144645672Y-103601785D01*
X144645670Y-103601784D01*
X144617353Y-103598056D01*
X144488908Y-103581146D01*
X144488907Y-103581146D01*
X144488906Y-103581146D01*
X144457757Y-103585247D01*
X144369581Y-103576977D01*
X144293724Y-103531269D01*
X144291057Y-103528650D01*
X144285614Y-103523206D01*
X144245986Y-103466606D01*
X144224065Y-103419596D01*
X144140405Y-103335936D01*
X144140404Y-103335935D01*
X144033173Y-103285932D01*
X144033169Y-103285931D01*
X144033168Y-103285931D01*
X143984322Y-103279500D01*
X143984316Y-103279500D01*
X143635684Y-103279500D01*
X143635683Y-103279500D01*
X143612846Y-103282506D01*
X143524669Y-103274236D01*
X143448814Y-103228526D01*
X143400303Y-103154430D01*
X143388745Y-103066624D01*
X143416429Y-102982499D01*
X143446156Y-102944499D01*
X144231871Y-102158786D01*
X144306860Y-102111667D01*
X144372585Y-102100500D01*
X145544500Y-102100500D01*
X145630843Y-102120207D01*
X145700084Y-102175426D01*
X145738511Y-102255218D01*
X145743500Y-102299500D01*
X145743500Y-102472312D01*
X145743463Y-102472474D01*
X145743476Y-102616113D01*
X145770791Y-102735731D01*
X145770795Y-102735740D01*
X145824038Y-102846274D01*
X145824040Y-102846278D01*
X145850531Y-102879492D01*
X145900546Y-102942200D01*
X145996479Y-103018696D01*
X146107029Y-103071929D01*
X146226651Y-103099230D01*
X146288000Y-103099229D01*
X146335595Y-103099229D01*
X146362405Y-103099229D01*
X146410000Y-103099229D01*
X146449562Y-103099229D01*
X146462410Y-103099229D01*
X146462852Y-103099200D01*
X146471346Y-103099200D01*
X146531154Y-103085550D01*
X146590958Y-103071902D01*
X146590958Y-103071901D01*
X146590962Y-103071901D01*
X146701505Y-103018671D01*
X146797433Y-102942179D01*
X146803394Y-102934704D01*
X146872631Y-102879491D01*
X146958974Y-102859784D01*
X147045317Y-102879492D01*
X147114544Y-102934693D01*
X147120541Y-102942212D01*
X147120546Y-102942217D01*
X147120547Y-102942218D01*
X147216481Y-103018711D01*
X147327030Y-103071942D01*
X147446651Y-103099242D01*
X147508000Y-103099241D01*
X147555595Y-103099241D01*
X147582405Y-103099241D01*
X147630000Y-103099241D01*
X147669562Y-103099241D01*
X147682292Y-103099241D01*
X147682917Y-103099200D01*
X147691343Y-103099200D01*
X147691344Y-103099200D01*
X147777667Y-103079500D01*
X147810953Y-103071904D01*
X147810953Y-103071903D01*
X147810956Y-103071903D01*
X147921496Y-103018676D01*
X148017423Y-102942188D01*
X148023398Y-102934696D01*
X148092644Y-102879484D01*
X148178988Y-102859783D01*
X148265329Y-102879497D01*
X148334545Y-102934694D01*
X148340547Y-102942218D01*
X148436481Y-103018711D01*
X148547030Y-103071942D01*
X148666651Y-103099242D01*
X148728000Y-103099241D01*
X148775595Y-103099241D01*
X148802405Y-103099241D01*
X148850000Y-103099241D01*
X148889562Y-103099241D01*
X148902292Y-103099241D01*
X148902917Y-103099200D01*
X148911343Y-103099200D01*
X148911344Y-103099200D01*
X148997667Y-103079500D01*
X149030953Y-103071904D01*
X149030953Y-103071903D01*
X149030956Y-103071903D01*
X149141496Y-103018676D01*
X149237423Y-102942188D01*
X149313927Y-102846274D01*
X149367172Y-102735743D01*
X149394490Y-102616135D01*
X149394491Y-102608474D01*
X149394500Y-102608359D01*
X149394500Y-102554690D01*
X149394510Y-102491855D01*
X149394500Y-102491713D01*
X149394500Y-102299500D01*
X149414207Y-102213157D01*
X149469426Y-102143916D01*
X149549218Y-102105489D01*
X149593500Y-102100500D01*
X153469559Y-102100500D01*
X153469562Y-102100500D01*
X153545989Y-102080021D01*
X153614511Y-102040460D01*
X153670460Y-101984511D01*
X155360286Y-100294683D01*
X155435274Y-100247565D01*
X155523281Y-100237649D01*
X155606874Y-100266900D01*
G37*
%TD.AperFunction*%
%TA.AperFunction,Conductor*%
G36*
X145499444Y-99640207D02*
G01*
X145553815Y-99678786D01*
X146139540Y-100264511D01*
X146195489Y-100320460D01*
X146240100Y-100346216D01*
X146264007Y-100360019D01*
X146264009Y-100360020D01*
X146264011Y-100360021D01*
X146340438Y-100380500D01*
X146340441Y-100380500D01*
X152649559Y-100380500D01*
X152649562Y-100380500D01*
X152725989Y-100360021D01*
X152794511Y-100320460D01*
X152850460Y-100264511D01*
X153185321Y-99929649D01*
X153260304Y-99882534D01*
X153348310Y-99872618D01*
X153397914Y-99884804D01*
X153472398Y-99913659D01*
X153543796Y-99941319D01*
X153543798Y-99941320D01*
X153543800Y-99941320D01*
X153543802Y-99941321D01*
X153669700Y-99964855D01*
X153750951Y-100000093D01*
X153808867Y-100067094D01*
X153831977Y-100152589D01*
X153815703Y-100239644D01*
X153773847Y-100301181D01*
X153033815Y-101041214D01*
X152958827Y-101088333D01*
X152893101Y-101099500D01*
X144039562Y-101099500D01*
X143960438Y-101099500D01*
X143929867Y-101107691D01*
X143884009Y-101119978D01*
X143815492Y-101159537D01*
X143815487Y-101159541D01*
X141859540Y-103115488D01*
X141822294Y-103180001D01*
X141762055Y-103244922D01*
X141679614Y-103277277D01*
X141649955Y-103279500D01*
X141635677Y-103279500D01*
X141586831Y-103285931D01*
X141586828Y-103285931D01*
X141586827Y-103285932D01*
X141586825Y-103285933D01*
X141479597Y-103335934D01*
X141479594Y-103335936D01*
X141465214Y-103350317D01*
X141390226Y-103397436D01*
X141302219Y-103407352D01*
X141218626Y-103378101D01*
X141156002Y-103315477D01*
X141126751Y-103231884D01*
X141125500Y-103209603D01*
X141125500Y-102817253D01*
X141145207Y-102730910D01*
X141183783Y-102676542D01*
X141902162Y-101958162D01*
X141977148Y-101911045D01*
X142065155Y-101901129D01*
X142068854Y-101901581D01*
X142100000Y-101905682D01*
X142256762Y-101885044D01*
X142402841Y-101824536D01*
X142402841Y-101824535D01*
X142402843Y-101824535D01*
X142434947Y-101799900D01*
X142528282Y-101728282D01*
X142602179Y-101631976D01*
X142624535Y-101602843D01*
X142624536Y-101602840D01*
X142685044Y-101456762D01*
X142705682Y-101300000D01*
X142685044Y-101143238D01*
X142624536Y-100997159D01*
X142624535Y-100997157D01*
X142549627Y-100899536D01*
X142512699Y-100819039D01*
X142514355Y-100730491D01*
X142554266Y-100651431D01*
X142563256Y-100641557D01*
X142564060Y-100640408D01*
X142564065Y-100640404D01*
X142614068Y-100533173D01*
X142620500Y-100484316D01*
X142620500Y-100135684D01*
X142614068Y-100086827D01*
X142564065Y-99979596D01*
X142544683Y-99960214D01*
X142497564Y-99885226D01*
X142487648Y-99797219D01*
X142516899Y-99713626D01*
X142579523Y-99651002D01*
X142663116Y-99621751D01*
X142685397Y-99620500D01*
X145413101Y-99620500D01*
X145499444Y-99640207D01*
G37*
%TD.AperFunction*%
%TA.AperFunction,Conductor*%
G36*
X141137343Y-100049707D02*
G01*
X141206584Y-100104926D01*
X141245011Y-100184718D01*
X141250000Y-100229000D01*
X141250000Y-101058790D01*
X141281054Y-101056348D01*
X141281278Y-101059198D01*
X141352304Y-101062289D01*
X141430351Y-101104147D01*
X141482507Y-101175723D01*
X141498443Y-101262841D01*
X141496929Y-101280161D01*
X141494318Y-101299996D01*
X141494318Y-101299997D01*
X141494318Y-101300000D01*
X141498419Y-101331149D01*
X141490150Y-101419326D01*
X141444441Y-101495182D01*
X141441835Y-101497837D01*
X140745461Y-102194211D01*
X140670473Y-102241330D01*
X140582466Y-102251246D01*
X140498873Y-102221995D01*
X140436249Y-102159371D01*
X140406998Y-102075778D01*
X140410973Y-102022781D01*
X140408797Y-102022495D01*
X140410500Y-102009559D01*
X140410500Y-101241261D01*
X140411913Y-101241261D01*
X140418873Y-101166980D01*
X140464576Y-101091120D01*
X140538667Y-101042602D01*
X140626471Y-101031036D01*
X140663426Y-101038069D01*
X140729089Y-101057145D01*
X140749999Y-101058790D01*
X140750000Y-101058789D01*
X140750000Y-100229000D01*
X140769707Y-100142657D01*
X140824926Y-100073416D01*
X140904718Y-100034989D01*
X140949000Y-100030000D01*
X141051000Y-100030000D01*
X141137343Y-100049707D01*
G37*
%TD.AperFunction*%
%TA.AperFunction,Conductor*%
G36*
X149012027Y-95360207D02*
G01*
X149081268Y-95415426D01*
X149119695Y-95495218D01*
X149119695Y-95583782D01*
X149084489Y-95659425D01*
X149067636Y-95681741D01*
X148998838Y-95819908D01*
X148972595Y-95872611D01*
X148972270Y-95873753D01*
X148914244Y-96077689D01*
X148901163Y-96218861D01*
X148873573Y-96303017D01*
X148812202Y-96366869D01*
X148729204Y-96397769D01*
X148703012Y-96399500D01*
X141139562Y-96399500D01*
X141060438Y-96399500D01*
X141029867Y-96407691D01*
X140984009Y-96419978D01*
X140915492Y-96459537D01*
X140915487Y-96459541D01*
X139859540Y-97515488D01*
X139859539Y-97515490D01*
X139819980Y-97584007D01*
X139819979Y-97584009D01*
X139799500Y-97660437D01*
X139799500Y-100708407D01*
X139779793Y-100794750D01*
X139750000Y-100835038D01*
X139750000Y-101671000D01*
X139730293Y-101757343D01*
X139675074Y-101826584D01*
X139595282Y-101865011D01*
X139551000Y-101870000D01*
X139449000Y-101870000D01*
X139362657Y-101850293D01*
X139293416Y-101795074D01*
X139254989Y-101715282D01*
X139250000Y-101671000D01*
X139250000Y-100841209D01*
X139229086Y-100842855D01*
X139073804Y-100887967D01*
X138934621Y-100970281D01*
X138840214Y-101064689D01*
X138765226Y-101111808D01*
X138677219Y-101121724D01*
X138593626Y-101092473D01*
X138531002Y-101029849D01*
X138501751Y-100946256D01*
X138500500Y-100923975D01*
X138500500Y-97806899D01*
X138520207Y-97720556D01*
X138558786Y-97666185D01*
X140566185Y-95658786D01*
X140641173Y-95611667D01*
X140706899Y-95600500D01*
X148005245Y-95600500D01*
X148005248Y-95600500D01*
X148081675Y-95580021D01*
X148150197Y-95540460D01*
X148206146Y-95484511D01*
X148291871Y-95398786D01*
X148366859Y-95351667D01*
X148432585Y-95340500D01*
X148925684Y-95340500D01*
X149012027Y-95360207D01*
G37*
%TD.AperFunction*%
%TA.AperFunction,Conductor*%
G36*
X148571677Y-97020207D02*
G01*
X148626048Y-97058786D01*
X148632792Y-97065530D01*
X148679911Y-97140518D01*
X148689827Y-97228525D01*
X148660576Y-97312118D01*
X148597952Y-97374742D01*
X148524835Y-97402529D01*
X148422831Y-97419551D01*
X148195541Y-97497579D01*
X147984208Y-97611948D01*
X147945571Y-97642019D01*
X148691414Y-98387862D01*
X148606306Y-98410667D01*
X148503694Y-98469910D01*
X148419910Y-98553694D01*
X148360667Y-98656306D01*
X148337862Y-98741414D01*
X147592688Y-97996240D01*
X147500390Y-98137514D01*
X147403866Y-98357569D01*
X147344874Y-98590524D01*
X147344873Y-98590527D01*
X147325031Y-98829995D01*
X147325031Y-98830004D01*
X147344873Y-99069472D01*
X147344874Y-99069475D01*
X147403866Y-99302430D01*
X147490775Y-99500563D01*
X147507411Y-99587549D01*
X147484658Y-99673140D01*
X147427021Y-99740382D01*
X147345917Y-99775958D01*
X147308536Y-99779500D01*
X146586899Y-99779500D01*
X146500556Y-99759793D01*
X146446185Y-99721214D01*
X145804511Y-99079540D01*
X145804509Y-99079539D01*
X145782500Y-99066832D01*
X145782489Y-99066826D01*
X145735989Y-99039979D01*
X145735986Y-99039978D01*
X145659564Y-99019500D01*
X145659562Y-99019500D01*
X142706397Y-99019500D01*
X142620054Y-98999793D01*
X142565683Y-98961214D01*
X142480405Y-98875936D01*
X142480404Y-98875935D01*
X142373173Y-98825932D01*
X142373169Y-98825931D01*
X142373168Y-98825931D01*
X142324322Y-98819500D01*
X142324316Y-98819500D01*
X141875684Y-98819500D01*
X141875677Y-98819500D01*
X141826831Y-98825931D01*
X141826828Y-98825931D01*
X141826827Y-98825932D01*
X141826825Y-98825933D01*
X141719597Y-98875934D01*
X141719594Y-98875936D01*
X141674248Y-98921282D01*
X141599259Y-98968400D01*
X141511252Y-98978316D01*
X141427659Y-98949064D01*
X141392821Y-98921281D01*
X141368316Y-98896776D01*
X141259490Y-98846029D01*
X141259484Y-98846027D01*
X141209904Y-98839500D01*
X140790103Y-98839500D01*
X140790097Y-98839501D01*
X140740514Y-98846027D01*
X140740509Y-98846029D01*
X140683601Y-98872566D01*
X140597019Y-98891196D01*
X140510929Y-98870413D01*
X140442381Y-98814336D01*
X140404952Y-98734070D01*
X140400500Y-98692211D01*
X140400500Y-97906899D01*
X140420207Y-97820556D01*
X140458786Y-97766185D01*
X141166185Y-97058786D01*
X141241173Y-97011667D01*
X141306899Y-97000500D01*
X148485334Y-97000500D01*
X148571677Y-97020207D01*
G37*
%TD.AperFunction*%
%TA.AperFunction,Conductor*%
G36*
X153800910Y-92419707D02*
G01*
X153858842Y-92461939D01*
X155645276Y-94342395D01*
X155690456Y-94418566D01*
X155700000Y-94479455D01*
X155700000Y-94987373D01*
X155680293Y-95073716D01*
X155625074Y-95142957D01*
X155545282Y-95181384D01*
X155456718Y-95181384D01*
X155446548Y-95178778D01*
X155446207Y-95178681D01*
X155446199Y-95178679D01*
X155446198Y-95178679D01*
X155236610Y-95139500D01*
X155023390Y-95139500D01*
X154953527Y-95152559D01*
X154813798Y-95178679D01*
X154813796Y-95178680D01*
X154667918Y-95235194D01*
X154580286Y-95248008D01*
X154495773Y-95221531D01*
X154455317Y-95190346D01*
X153664511Y-94399540D01*
X153664509Y-94399539D01*
X153595992Y-94359980D01*
X153595990Y-94359979D01*
X153519562Y-94339500D01*
X148099562Y-94339500D01*
X148020438Y-94339500D01*
X147989867Y-94347691D01*
X147944009Y-94359978D01*
X147875492Y-94399537D01*
X147875487Y-94399541D01*
X147733815Y-94541214D01*
X147658827Y-94588333D01*
X147593101Y-94599500D01*
X146738605Y-94599500D01*
X146652262Y-94579793D01*
X146583021Y-94524574D01*
X146547719Y-94451271D01*
X145812294Y-93715846D01*
X145828942Y-93708951D01*
X145959970Y-93621401D01*
X146071401Y-93509970D01*
X146158951Y-93378942D01*
X146165846Y-93362294D01*
X146887703Y-94084151D01*
X146887703Y-94084150D01*
X146941400Y-94016818D01*
X146941401Y-94016817D01*
X147076285Y-93783190D01*
X147076289Y-93783182D01*
X147174853Y-93532046D01*
X147234885Y-93269030D01*
X147255046Y-93000000D01*
X147234885Y-92730969D01*
X147214871Y-92643282D01*
X147214871Y-92554719D01*
X147253297Y-92474926D01*
X147322539Y-92419707D01*
X147408881Y-92400000D01*
X153714567Y-92400000D01*
X153800910Y-92419707D01*
G37*
%TD.AperFunction*%
%TD*%
M02*
