%TF.GenerationSoftware,KiCad,Pcbnew,8.0.3*%
%TF.CreationDate,2024-11-27T21:51:57-05:00*%
%TF.ProjectId,Ethernet HAT,45746865-726e-4657-9420-4841542e6b69,rev?*%
%TF.SameCoordinates,Original*%
%TF.FileFunction,Copper,L4,Bot*%
%TF.FilePolarity,Positive*%
%FSLAX46Y46*%
G04 Gerber Fmt 4.6, Leading zero omitted, Abs format (unit mm)*
G04 Created by KiCad (PCBNEW 8.0.3) date 2024-11-27 21:51:57*
%MOMM*%
%LPD*%
G01*
G04 APERTURE LIST*
%TA.AperFunction,ComponentPad*%
%ADD10C,5.500000*%
%TD*%
%TA.AperFunction,ComponentPad*%
%ADD11C,1.890000*%
%TD*%
%TA.AperFunction,ComponentPad*%
%ADD12R,1.900000X1.900000*%
%TD*%
%TA.AperFunction,ComponentPad*%
%ADD13C,1.900000*%
%TD*%
%TA.AperFunction,ComponentPad*%
%ADD14C,2.600000*%
%TD*%
%TA.AperFunction,ViaPad*%
%ADD15C,0.700000*%
%TD*%
%TA.AperFunction,ViaPad*%
%ADD16C,0.800000*%
%TD*%
%TA.AperFunction,Conductor*%
%ADD17C,0.200000*%
%TD*%
%TA.AperFunction,Conductor*%
%ADD18C,0.400000*%
%TD*%
G04 APERTURE END LIST*
D10*
%TO.P,H2,1*%
%TO.N,N/C*%
X165500000Y-115500000D03*
%TD*%
%TO.P,H4,1*%
%TO.N,N/C*%
X165500000Y-84500000D03*
%TD*%
%TO.P,H1,1*%
%TO.N,N/C*%
X134500000Y-84500000D03*
%TD*%
%TO.P,H3,1*%
%TO.N,N/C*%
X134500000Y-115500000D03*
%TD*%
D11*
%TO.P,J1,L1,LEDY_A*%
%TO.N,+3.3V*%
X146900000Y-86570000D03*
%TO.P,J1,L2,LEDY_K*%
%TO.N,Net-(J1-LEDY_K)*%
X149440000Y-85050000D03*
%TO.P,J1,L3,LEDG_K*%
%TO.N,Net-(J1-LEDG_K)*%
X157010000Y-86570000D03*
%TO.P,J1,L4,LEDG_A*%
%TO.N,+3.3V*%
X159550000Y-85050000D03*
D12*
%TO.P,J1,R1,TD+*%
%TO.N,/TD+*%
X157670000Y-96290000D03*
D13*
%TO.P,J1,R2,TD-*%
%TO.N,/TD-*%
X156400000Y-98830000D03*
%TO.P,J1,R3,RD+*%
%TO.N,/RD+*%
X155130000Y-96290000D03*
%TO.P,J1,R4,TCT*%
%TO.N,TCT*%
X153860000Y-98830000D03*
%TO.P,J1,R5,RCT*%
%TO.N,RCT*%
X152590000Y-96290000D03*
%TO.P,J1,R6,RD-*%
%TO.N,/RD-*%
X151320000Y-98830000D03*
%TO.P,J1,R7,NC*%
%TO.N,unconnected-(J1-NC-PadR7)*%
X150050000Y-96290000D03*
%TO.P,J1,R8,GND*%
%TO.N,GND*%
X148780000Y-98830000D03*
D14*
%TO.P,J1,SH,SHIELD*%
X161000000Y-93000000D03*
X145450000Y-93000000D03*
%TD*%
D15*
%TO.N,Net-(U1-ACTLED)*%
X140900000Y-112900000D03*
%TO.N,GND*%
X144900000Y-80200000D03*
X146000000Y-80200000D03*
%TO.N,Net-(D2-A)*%
X142600000Y-86100000D03*
X139800000Y-82900000D03*
%TO.N,Net-(U1-ACTLED)*%
X149200000Y-110900000D03*
%TO.N,Net-(U1-DUPLED)*%
X140197216Y-113550000D03*
X149975526Y-111563384D03*
%TO.N,Net-(U1-LINKLED)*%
X139500000Y-114200000D03*
X150765872Y-112211675D03*
%TO.N,Net-(U1-SPDLED)*%
X138898780Y-114869731D03*
X151638325Y-112861675D03*
%TO.N,GND*%
X146700000Y-97150000D03*
X164400000Y-92200000D03*
X143400000Y-95850000D03*
X157800000Y-107600000D03*
X137651901Y-100151902D03*
X143400000Y-99800000D03*
X139351901Y-98451901D03*
X137974235Y-108625765D03*
X140600000Y-105800000D03*
X146700000Y-102450000D03*
X164400000Y-91200000D03*
X136832319Y-99133005D03*
X147544546Y-111958556D03*
X150100000Y-115700000D03*
X143400000Y-98450000D03*
X148204011Y-115811059D03*
X145200000Y-101150000D03*
X159600000Y-112400000D03*
X152700000Y-110200000D03*
X151300000Y-93650000D03*
X143200000Y-103040000D03*
X151340380Y-101140380D03*
X159100000Y-115100000D03*
X148600000Y-101150000D03*
X146700000Y-99800000D03*
X135650000Y-102000000D03*
X138450000Y-105800000D03*
X140243474Y-109056525D03*
X146700000Y-98450000D03*
X140271140Y-99371141D03*
X144870245Y-113371679D03*
X137150000Y-105800000D03*
X146700000Y-95850000D03*
X139424235Y-110075765D03*
X141870001Y-107006094D03*
X151755380Y-102450000D03*
X141140380Y-100340380D03*
X140600000Y-102200000D03*
X138432660Y-97532664D03*
X145734620Y-103784620D03*
X141062714Y-108037286D03*
X143400000Y-97150000D03*
X142750000Y-105590380D03*
X151300000Y-95100000D03*
X148600000Y-102450000D03*
%TO.N,3V3A*%
X145500000Y-102450000D03*
D16*
X141800000Y-112000000D03*
D15*
%TO.N,+3.3V*%
X143400000Y-118500000D03*
X144500000Y-118500000D03*
X161400000Y-106500000D03*
X159000000Y-113300000D03*
X162300000Y-106500000D03*
%TO.N,AUX4*%
X162400000Y-102100000D03*
X154800000Y-106200000D03*
%TO.N,ETH_CS*%
X162600000Y-100150000D03*
X162765073Y-97850001D03*
%TO.N,AUX1*%
X166500000Y-95400000D03*
X162200000Y-96400000D03*
%TO.N,AUX5*%
X166611632Y-96293053D03*
X161100000Y-96650000D03*
%TO.N,AUX6*%
X159509620Y-104109620D03*
X153688298Y-105088298D03*
%TD*%
D17*
%TO.N,Net-(U1-SPDLED)*%
X146200000Y-116600000D02*
X149938325Y-112861675D01*
X149938325Y-112861675D02*
X151638325Y-112861675D01*
X140629049Y-116600000D02*
X146200000Y-116600000D01*
X138898780Y-114869731D02*
X140629049Y-116600000D01*
%TO.N,Net-(U1-LINKLED)*%
X150246474Y-112211675D02*
X150765872Y-112211675D01*
X150244765Y-112213384D02*
X150246474Y-112211675D01*
X145900000Y-116100000D02*
X149786616Y-112213384D01*
X141400000Y-116100000D02*
X145900000Y-116100000D01*
X139500000Y-114200000D02*
X141400000Y-116100000D01*
X149786616Y-112213384D02*
X150244765Y-112213384D01*
%TO.N,Net-(U1-DUPLED)*%
X149636616Y-111563384D02*
X149975526Y-111563384D01*
X145700000Y-115500000D02*
X149636616Y-111563384D01*
X140197216Y-113550000D02*
X140250000Y-113550000D01*
X140250000Y-113550000D02*
X142200000Y-115500000D01*
X142200000Y-115500000D02*
X145700000Y-115500000D01*
%TO.N,Net-(U1-ACTLED)*%
X149200000Y-111222341D02*
X149200000Y-110900000D01*
X145600000Y-114900000D02*
X145600000Y-114822341D01*
X145600000Y-114822341D02*
X149200000Y-111222341D01*
X140900000Y-112900000D02*
X142900000Y-114900000D01*
X142900000Y-114900000D02*
X145600000Y-114900000D01*
%TO.N,Net-(D2-A)*%
X139800000Y-83500000D02*
X142400000Y-86100000D01*
X139800000Y-82900000D02*
X139800000Y-83500000D01*
X142400000Y-86100000D02*
X142600000Y-86100000D01*
D18*
%TO.N,3V3A*%
X144984620Y-108815380D02*
X144984620Y-102965380D01*
X144984620Y-102965380D02*
X145500000Y-102450000D01*
X141800000Y-112000000D02*
X144984620Y-108815380D01*
D17*
%TO.N,AUX4*%
X158850000Y-105850000D02*
X155150000Y-105850000D01*
X162400000Y-102100000D02*
X162400000Y-102300000D01*
X162400000Y-102300000D02*
X158850000Y-105850000D01*
X155150000Y-105850000D02*
X154800000Y-106200000D01*
%TO.N,ETH_CS*%
X162600000Y-100100000D02*
X162600000Y-100150000D01*
X162765073Y-97850001D02*
X162765073Y-99934927D01*
X162765073Y-99934927D02*
X162600000Y-100100000D01*
%TO.N,AUX1*%
X166400000Y-95500000D02*
X163100000Y-95500000D01*
X163100000Y-95500000D02*
X162200000Y-96400000D01*
X166500000Y-95400000D02*
X166400000Y-95500000D01*
%TO.N,AUX5*%
X163219239Y-96300000D02*
X166604685Y-96300000D01*
X162469239Y-97050000D02*
X163219239Y-96300000D01*
X161100000Y-96650000D02*
X161530761Y-96650000D01*
X166604685Y-96300000D02*
X166611632Y-96293053D01*
X161930761Y-97050000D02*
X162469239Y-97050000D01*
X161530761Y-96650000D02*
X161930761Y-97050000D01*
%TO.N,AUX6*%
X159509620Y-104109620D02*
X158530942Y-105088298D01*
X158530942Y-105088298D02*
X153688298Y-105088298D01*
%TD*%
M02*
