%TF.GenerationSoftware,KiCad,Pcbnew,8.0.3*%
%TF.CreationDate,2024-11-11T17:41:13-05:00*%
%TF.ProjectId,Ethernet HAT,45746865-726e-4657-9420-4841542e6b69,rev?*%
%TF.SameCoordinates,Original*%
%TF.FileFunction,Paste,Top*%
%TF.FilePolarity,Positive*%
%FSLAX46Y46*%
G04 Gerber Fmt 4.6, Leading zero omitted, Abs format (unit mm)*
G04 Created by KiCad (PCBNEW 8.0.3) date 2024-11-11 17:41:13*
%MOMM*%
%LPD*%
G01*
G04 APERTURE LIST*
G04 Aperture macros list*
%AMRoundRect*
0 Rectangle with rounded corners*
0 $1 Rounding radius*
0 $2 $3 $4 $5 $6 $7 $8 $9 X,Y pos of 4 corners*
0 Add a 4 corners polygon primitive as box body*
4,1,4,$2,$3,$4,$5,$6,$7,$8,$9,$2,$3,0*
0 Add four circle primitives for the rounded corners*
1,1,$1+$1,$2,$3*
1,1,$1+$1,$4,$5*
1,1,$1+$1,$6,$7*
1,1,$1+$1,$8,$9*
0 Add four rect primitives between the rounded corners*
20,1,$1+$1,$2,$3,$4,$5,0*
20,1,$1+$1,$4,$5,$6,$7,0*
20,1,$1+$1,$6,$7,$8,$9,0*
20,1,$1+$1,$8,$9,$2,$3,0*%
G04 Aperture macros list end*
%ADD10RoundRect,0.135000X0.185000X-0.135000X0.185000X0.135000X-0.185000X0.135000X-0.185000X-0.135000X0*%
%ADD11RoundRect,0.135000X-0.135000X-0.185000X0.135000X-0.185000X0.135000X0.185000X-0.135000X0.185000X0*%
%ADD12RoundRect,0.218750X-0.218750X-0.256250X0.218750X-0.256250X0.218750X0.256250X-0.218750X0.256250X0*%
%ADD13RoundRect,0.075000X-0.075000X0.662500X-0.075000X-0.662500X0.075000X-0.662500X0.075000X0.662500X0*%
%ADD14RoundRect,0.075000X-0.662500X0.075000X-0.662500X-0.075000X0.662500X-0.075000X0.662500X0.075000X0*%
%ADD15RoundRect,0.250000X0.250000X0.475000X-0.250000X0.475000X-0.250000X-0.475000X0.250000X-0.475000X0*%
%ADD16RoundRect,0.218750X-0.256250X0.218750X-0.256250X-0.218750X0.256250X-0.218750X0.256250X0.218750X0*%
%ADD17RoundRect,0.140000X0.140000X0.170000X-0.140000X0.170000X-0.140000X-0.170000X0.140000X-0.170000X0*%
%ADD18RoundRect,0.140000X-0.170000X0.140000X-0.170000X-0.140000X0.170000X-0.140000X0.170000X0.140000X0*%
%ADD19RoundRect,0.140000X0.170000X-0.140000X0.170000X0.140000X-0.170000X0.140000X-0.170000X-0.140000X0*%
%ADD20RoundRect,0.250000X-0.475000X0.250000X-0.475000X-0.250000X0.475000X-0.250000X0.475000X0.250000X0*%
%ADD21R,2.000000X0.610000*%
%ADD22R,3.600000X2.680000*%
%ADD23R,1.400000X1.200000*%
G04 APERTURE END LIST*
D10*
%TO.C,R7*%
X155200000Y-103710000D03*
X155200000Y-102690000D03*
%TD*%
D11*
%TO.C,R14*%
X140502500Y-85000000D03*
X141522500Y-85000000D03*
%TD*%
D12*
%TO.C,L1*%
X139212500Y-106300000D03*
X140787500Y-106300000D03*
%TD*%
D13*
%TO.C,U1*%
X149750000Y-106437500D03*
X149250000Y-106437500D03*
X148750000Y-106437500D03*
X148250000Y-106437500D03*
X147750000Y-106437500D03*
X147250000Y-106437500D03*
X146750000Y-106437500D03*
X146250000Y-106437500D03*
X145750000Y-106437500D03*
X145250000Y-106437500D03*
X144750000Y-106437500D03*
X144250000Y-106437500D03*
D14*
X142837500Y-107850000D03*
X142837500Y-108350000D03*
X142837500Y-108850000D03*
X142837500Y-109350000D03*
X142837500Y-109850000D03*
X142837500Y-110350000D03*
X142837500Y-110850000D03*
X142837500Y-111350000D03*
X142837500Y-111850000D03*
X142837500Y-112350000D03*
X142837500Y-112850000D03*
X142837500Y-113350000D03*
D13*
X144250000Y-114762500D03*
X144750000Y-114762500D03*
X145250000Y-114762500D03*
X145750000Y-114762500D03*
X146250000Y-114762500D03*
X146750000Y-114762500D03*
X147250000Y-114762500D03*
X147750000Y-114762500D03*
X148250000Y-114762500D03*
X148750000Y-114762500D03*
X149250000Y-114762500D03*
X149750000Y-114762500D03*
D14*
X151162500Y-113350000D03*
X151162500Y-112850000D03*
X151162500Y-112350000D03*
X151162500Y-111850000D03*
X151162500Y-111350000D03*
X151162500Y-110850000D03*
X151162500Y-110350000D03*
X151162500Y-109850000D03*
X151162500Y-109350000D03*
X151162500Y-108850000D03*
X151162500Y-108350000D03*
X151162500Y-107850000D03*
%TD*%
D15*
%TO.C,C7*%
X140750000Y-108300000D03*
X138850000Y-108300000D03*
%TD*%
D16*
%TO.C,D2*%
X139800000Y-80212500D03*
X139800000Y-81787500D03*
%TD*%
D10*
%TO.C,R15*%
X148200000Y-103710000D03*
X148200000Y-102690000D03*
%TD*%
D11*
%TO.C,R10*%
X140490000Y-86400000D03*
X141510000Y-86400000D03*
%TD*%
D17*
%TO.C,C5*%
X140680000Y-111500000D03*
X139720000Y-111500000D03*
%TD*%
D10*
%TO.C,R16*%
X146800000Y-103710000D03*
X146800000Y-102690000D03*
%TD*%
D11*
%TO.C,R11*%
X140490000Y-87800000D03*
X141510000Y-87800000D03*
%TD*%
D17*
%TO.C,C8*%
X140680000Y-110100000D03*
X139720000Y-110100000D03*
%TD*%
D10*
%TO.C,R5*%
X152400000Y-103710000D03*
X152400000Y-102690000D03*
%TD*%
D18*
%TO.C,C3*%
X149600000Y-102720000D03*
X149600000Y-103680000D03*
%TD*%
D11*
%TO.C,R13*%
X140490000Y-83600000D03*
X141510000Y-83600000D03*
%TD*%
D17*
%TO.C,C6*%
X140680000Y-113700000D03*
X139720000Y-113700000D03*
%TD*%
D18*
%TO.C,C2*%
X150400000Y-118420000D03*
X150400000Y-119380000D03*
%TD*%
D11*
%TO.C,R1*%
X146490000Y-116500000D03*
X147510000Y-116500000D03*
%TD*%
D19*
%TO.C,C11*%
X142300000Y-106880000D03*
X142300000Y-105920000D03*
%TD*%
D10*
%TO.C,R3*%
X159400000Y-103710000D03*
X159400000Y-102690000D03*
%TD*%
%TO.C,R17*%
X151000000Y-103710000D03*
X151000000Y-102690000D03*
%TD*%
%TO.C,R4*%
X145400000Y-103710000D03*
X145400000Y-102690000D03*
%TD*%
D18*
%TO.C,C4*%
X158000000Y-102720000D03*
X158000000Y-103680000D03*
%TD*%
D16*
%TO.C,D1*%
X141990000Y-80200000D03*
X141990000Y-81775000D03*
%TD*%
D10*
%TO.C,R2*%
X153800000Y-103710000D03*
X153800000Y-102690000D03*
%TD*%
D20*
%TO.C,C14*%
X141000000Y-115100000D03*
X141000000Y-117000000D03*
%TD*%
D10*
%TO.C,R12*%
X156600000Y-103710000D03*
X156600000Y-102690000D03*
%TD*%
D17*
%TO.C,C13*%
X140680000Y-112600000D03*
X139720000Y-112600000D03*
%TD*%
%TO.C,C12*%
X145780000Y-104700000D03*
X144820000Y-104700000D03*
%TD*%
D10*
%TO.C,R6*%
X160800000Y-103710000D03*
X160800000Y-102690000D03*
%TD*%
D21*
%TO.C,J2*%
X164400000Y-106500000D03*
X164400000Y-105500000D03*
X164400000Y-104500000D03*
X164400000Y-103500000D03*
X164400000Y-102500000D03*
X164400000Y-101500000D03*
X164400000Y-100500000D03*
X164400000Y-99500000D03*
X164400000Y-98500000D03*
X164400000Y-97500000D03*
X164400000Y-96500000D03*
X164400000Y-95500000D03*
X164400000Y-94500000D03*
X164400000Y-93500000D03*
D22*
X167200000Y-109490000D03*
X167200000Y-90510000D03*
%TD*%
D10*
%TO.C,R8*%
X142600000Y-103710000D03*
X142600000Y-102690000D03*
%TD*%
D18*
%TO.C,C15*%
X142800000Y-116220000D03*
X142800000Y-117180000D03*
%TD*%
%TO.C,C1*%
X144600000Y-118620000D03*
X144600000Y-119580000D03*
%TD*%
D23*
%TO.C,Y1*%
X148500000Y-118050000D03*
X146300000Y-118050000D03*
X146300000Y-119750000D03*
X148500000Y-119750000D03*
%TD*%
M02*
