%TF.GenerationSoftware,KiCad,Pcbnew,8.0.3*%
%TF.CreationDate,2024-11-11T17:41:13-05:00*%
%TF.ProjectId,Ethernet HAT,45746865-726e-4657-9420-4841542e6b69,rev?*%
%TF.SameCoordinates,Original*%
%TF.FileFunction,Copper,L1,Top*%
%TF.FilePolarity,Positive*%
%FSLAX46Y46*%
G04 Gerber Fmt 4.6, Leading zero omitted, Abs format (unit mm)*
G04 Created by KiCad (PCBNEW 8.0.3) date 2024-11-11 17:41:13*
%MOMM*%
%LPD*%
G01*
G04 APERTURE LIST*
G04 Aperture macros list*
%AMRoundRect*
0 Rectangle with rounded corners*
0 $1 Rounding radius*
0 $2 $3 $4 $5 $6 $7 $8 $9 X,Y pos of 4 corners*
0 Add a 4 corners polygon primitive as box body*
4,1,4,$2,$3,$4,$5,$6,$7,$8,$9,$2,$3,0*
0 Add four circle primitives for the rounded corners*
1,1,$1+$1,$2,$3*
1,1,$1+$1,$4,$5*
1,1,$1+$1,$6,$7*
1,1,$1+$1,$8,$9*
0 Add four rect primitives between the rounded corners*
20,1,$1+$1,$2,$3,$4,$5,0*
20,1,$1+$1,$4,$5,$6,$7,0*
20,1,$1+$1,$6,$7,$8,$9,0*
20,1,$1+$1,$8,$9,$2,$3,0*%
G04 Aperture macros list end*
%TA.AperFunction,SMDPad,CuDef*%
%ADD10RoundRect,0.135000X0.185000X-0.135000X0.185000X0.135000X-0.185000X0.135000X-0.185000X-0.135000X0*%
%TD*%
%TA.AperFunction,SMDPad,CuDef*%
%ADD11RoundRect,0.135000X-0.135000X-0.185000X0.135000X-0.185000X0.135000X0.185000X-0.135000X0.185000X0*%
%TD*%
%TA.AperFunction,SMDPad,CuDef*%
%ADD12RoundRect,0.218750X-0.218750X-0.256250X0.218750X-0.256250X0.218750X0.256250X-0.218750X0.256250X0*%
%TD*%
%TA.AperFunction,SMDPad,CuDef*%
%ADD13RoundRect,0.075000X-0.075000X0.662500X-0.075000X-0.662500X0.075000X-0.662500X0.075000X0.662500X0*%
%TD*%
%TA.AperFunction,SMDPad,CuDef*%
%ADD14RoundRect,0.075000X-0.662500X0.075000X-0.662500X-0.075000X0.662500X-0.075000X0.662500X0.075000X0*%
%TD*%
%TA.AperFunction,SMDPad,CuDef*%
%ADD15RoundRect,0.250000X0.250000X0.475000X-0.250000X0.475000X-0.250000X-0.475000X0.250000X-0.475000X0*%
%TD*%
%TA.AperFunction,SMDPad,CuDef*%
%ADD16RoundRect,0.218750X-0.256250X0.218750X-0.256250X-0.218750X0.256250X-0.218750X0.256250X0.218750X0*%
%TD*%
%TA.AperFunction,SMDPad,CuDef*%
%ADD17RoundRect,0.140000X0.140000X0.170000X-0.140000X0.170000X-0.140000X-0.170000X0.140000X-0.170000X0*%
%TD*%
%TA.AperFunction,SMDPad,CuDef*%
%ADD18RoundRect,0.140000X-0.170000X0.140000X-0.170000X-0.140000X0.170000X-0.140000X0.170000X0.140000X0*%
%TD*%
%TA.AperFunction,ComponentPad*%
%ADD19C,5.500000*%
%TD*%
%TA.AperFunction,SMDPad,CuDef*%
%ADD20RoundRect,0.140000X0.170000X-0.140000X0.170000X0.140000X-0.170000X0.140000X-0.170000X-0.140000X0*%
%TD*%
%TA.AperFunction,SMDPad,CuDef*%
%ADD21RoundRect,0.250000X-0.475000X0.250000X-0.475000X-0.250000X0.475000X-0.250000X0.475000X0.250000X0*%
%TD*%
%TA.AperFunction,SMDPad,CuDef*%
%ADD22R,2.000000X0.610000*%
%TD*%
%TA.AperFunction,SMDPad,CuDef*%
%ADD23R,3.600000X2.680000*%
%TD*%
%TA.AperFunction,SMDPad,CuDef*%
%ADD24R,1.400000X1.200000*%
%TD*%
%TA.AperFunction,ComponentPad*%
%ADD25C,1.890000*%
%TD*%
%TA.AperFunction,ComponentPad*%
%ADD26R,1.900000X1.900000*%
%TD*%
%TA.AperFunction,ComponentPad*%
%ADD27C,1.900000*%
%TD*%
%TA.AperFunction,ComponentPad*%
%ADD28C,2.600000*%
%TD*%
%TA.AperFunction,ViaPad*%
%ADD29C,0.700000*%
%TD*%
%TA.AperFunction,Conductor*%
%ADD30C,0.200000*%
%TD*%
%TA.AperFunction,Conductor*%
%ADD31C,0.400000*%
%TD*%
%TA.AperFunction,Conductor*%
%ADD32C,0.150000*%
%TD*%
G04 APERTURE END LIST*
D10*
%TO.P,R7,1*%
%TO.N,3V3A*%
X155200000Y-103710000D03*
%TO.P,R7,2*%
%TO.N,Net-(J1-TD+)*%
X155200000Y-102690000D03*
%TD*%
D11*
%TO.P,R14,1*%
%TO.N,Net-(U1-SPDLED)*%
X140502500Y-85000000D03*
%TO.P,R14,2*%
%TO.N,Net-(D1-A)*%
X141522500Y-85000000D03*
%TD*%
D12*
%TO.P,L1,1,1*%
%TO.N,+3.3V*%
X139212500Y-106300000D03*
%TO.P,L1,2,2*%
%TO.N,3V3A*%
X140787500Y-106300000D03*
%TD*%
D13*
%TO.P,U1,1,TXN*%
%TO.N,Net-(U1-TXN)*%
X149750000Y-106437500D03*
%TO.P,U1,2,TXP*%
%TO.N,Net-(U1-TXP)*%
X149250000Y-106437500D03*
%TO.P,U1,3,AGND*%
%TO.N,GND*%
X148750000Y-106437500D03*
%TO.P,U1,4,AVDD*%
%TO.N,3V3A*%
X148250000Y-106437500D03*
%TO.P,U1,5,RXN*%
%TO.N,Net-(U1-RXN)*%
X147750000Y-106437500D03*
%TO.P,U1,6,RXP*%
%TO.N,Net-(U1-RXP)*%
X147250000Y-106437500D03*
%TO.P,U1,7,DNC*%
%TO.N,unconnected-(U1-DNC-Pad7)*%
X146750000Y-106437500D03*
%TO.P,U1,8,AVDD*%
%TO.N,3V3A*%
X146250000Y-106437500D03*
%TO.P,U1,9,AGND*%
%TO.N,GND*%
X145750000Y-106437500D03*
%TO.P,U1,10,EXRES1*%
%TO.N,Net-(U1-EXRES1)*%
X145250000Y-106437500D03*
%TO.P,U1,11,AVDD*%
%TO.N,3V3A*%
X144750000Y-106437500D03*
%TO.P,U1,12,NC*%
%TO.N,unconnected-(U1-NC-Pad12)*%
X144250000Y-106437500D03*
D14*
%TO.P,U1,13,NC*%
%TO.N,unconnected-(U1-NC-Pad13)*%
X142837500Y-107850000D03*
%TO.P,U1,14,AGND*%
%TO.N,GND*%
X142837500Y-108350000D03*
%TO.P,U1,15,AVDD*%
%TO.N,3V3A*%
X142837500Y-108850000D03*
%TO.P,U1,16,AGND*%
%TO.N,GND*%
X142837500Y-109350000D03*
%TO.P,U1,17,AVDD*%
%TO.N,3V3A*%
X142837500Y-109850000D03*
%TO.P,U1,18,VBG*%
%TO.N,unconnected-(U1-VBG-Pad18)*%
X142837500Y-110350000D03*
%TO.P,U1,19,AGND*%
%TO.N,GND*%
X142837500Y-110850000D03*
%TO.P,U1,20,TOCAP*%
%TO.N,Net-(U1-TOCAP)*%
X142837500Y-111350000D03*
%TO.P,U1,21,AVDD*%
%TO.N,3V3A*%
X142837500Y-111850000D03*
%TO.P,U1,22,1V2O*%
%TO.N,Net-(U1-1V2O)*%
X142837500Y-112350000D03*
%TO.P,U1,23,RSVD*%
%TO.N,unconnected-(U1-RSVD-Pad23)*%
X142837500Y-112850000D03*
%TO.P,U1,24,SPDLED*%
%TO.N,Net-(U1-SPDLED)*%
X142837500Y-113350000D03*
D13*
%TO.P,U1,25,LINKLED*%
%TO.N,Net-(U1-LINKLED)*%
X144250000Y-114762500D03*
%TO.P,U1,26,DUPLED*%
%TO.N,Net-(U1-DUPLED)*%
X144750000Y-114762500D03*
%TO.P,U1,27,ACTLED*%
%TO.N,Net-(U1-ACTLED)*%
X145250000Y-114762500D03*
%TO.P,U1,28,VDD*%
%TO.N,+3.3V*%
X145750000Y-114762500D03*
%TO.P,U1,29,GND*%
%TO.N,GND*%
X146250000Y-114762500D03*
%TO.P,U1,30,XI/CLKIN*%
%TO.N,Net-(U1-XI{slash}CLKIN)*%
X146750000Y-114762500D03*
%TO.P,U1,31,XO*%
%TO.N,Net-(U1-XO)*%
X147250000Y-114762500D03*
%TO.P,U1,32,~{SCS}*%
%TO.N,ETH_CS*%
X147750000Y-114762500D03*
%TO.P,U1,33,SCLK*%
%TO.N,SCK*%
X148250000Y-114762500D03*
%TO.P,U1,34,MISO*%
%TO.N,MISO*%
X148750000Y-114762500D03*
%TO.P,U1,35,MOSI*%
%TO.N,MOSI*%
X149250000Y-114762500D03*
%TO.P,U1,36,~{INT}*%
%TO.N,AUX4*%
X149750000Y-114762500D03*
D14*
%TO.P,U1,37,~{RST}*%
%TO.N,AUX6*%
X151162500Y-113350000D03*
%TO.P,U1,38,RSVD*%
%TO.N,unconnected-(U1-RSVD-Pad38)*%
X151162500Y-112850000D03*
%TO.P,U1,39,RSVD*%
%TO.N,unconnected-(U1-RSVD-Pad39)*%
X151162500Y-112350000D03*
%TO.P,U1,40,RSVD*%
%TO.N,unconnected-(U1-RSVD-Pad40)*%
X151162500Y-111850000D03*
%TO.P,U1,41,RSVD*%
%TO.N,unconnected-(U1-RSVD-Pad41)*%
X151162500Y-111350000D03*
%TO.P,U1,42,RSVD*%
%TO.N,unconnected-(U1-RSVD-Pad42)*%
X151162500Y-110850000D03*
%TO.P,U1,43,PMODE2*%
%TO.N,AUX5*%
X151162500Y-110350000D03*
%TO.P,U1,44,PMODE1*%
%TO.N,AUX1*%
X151162500Y-109850000D03*
%TO.P,U1,45,PMODE0*%
%TO.N,AUX2*%
X151162500Y-109350000D03*
%TO.P,U1,46,NC*%
%TO.N,unconnected-(U1-NC-Pad46)*%
X151162500Y-108850000D03*
%TO.P,U1,47,NC*%
%TO.N,unconnected-(U1-NC-Pad47)*%
X151162500Y-108350000D03*
%TO.P,U1,48,AGND*%
%TO.N,GND*%
X151162500Y-107850000D03*
%TD*%
D15*
%TO.P,C7,1*%
%TO.N,3V3A*%
X140750000Y-108300000D03*
%TO.P,C7,2*%
%TO.N,GND*%
X138850000Y-108300000D03*
%TD*%
D16*
%TO.P,D2,1,K*%
%TO.N,GND*%
X139800000Y-80212500D03*
%TO.P,D2,2,A*%
%TO.N,Net-(D2-A)*%
X139800000Y-81787500D03*
%TD*%
D10*
%TO.P,R15,1*%
%TO.N,GND*%
X148200000Y-103710000D03*
%TO.P,R15,2*%
%TO.N,RCT*%
X148200000Y-102690000D03*
%TD*%
D11*
%TO.P,R10,1*%
%TO.N,Net-(U1-LINKLED)*%
X140490000Y-86400000D03*
%TO.P,R10,2*%
%TO.N,Net-(J1-LEDG_K)*%
X141510000Y-86400000D03*
%TD*%
D17*
%TO.P,C5,1*%
%TO.N,Net-(U1-TOCAP)*%
X140680000Y-111500000D03*
%TO.P,C5,2*%
%TO.N,GND*%
X139720000Y-111500000D03*
%TD*%
D10*
%TO.P,R16,1*%
%TO.N,GND*%
X146800000Y-103710000D03*
%TO.P,R16,2*%
%TO.N,Net-(J1-RD+)*%
X146800000Y-102690000D03*
%TD*%
D11*
%TO.P,R11,1*%
%TO.N,Net-(U1-ACTLED)*%
X140490000Y-87800000D03*
%TO.P,R11,2*%
%TO.N,Net-(J1-LEDY_K)*%
X141510000Y-87800000D03*
%TD*%
D17*
%TO.P,C8,1*%
%TO.N,3V3A*%
X140680000Y-110100000D03*
%TO.P,C8,2*%
%TO.N,GND*%
X139720000Y-110100000D03*
%TD*%
D10*
%TO.P,R5,1*%
%TO.N,Net-(U1-RXN)*%
X152400000Y-103710000D03*
%TO.P,R5,2*%
%TO.N,Net-(J1-RD-)*%
X152400000Y-102690000D03*
%TD*%
D18*
%TO.P,C3,1*%
%TO.N,RCT*%
X149600000Y-102720000D03*
%TO.P,C3,2*%
%TO.N,GND*%
X149600000Y-103680000D03*
%TD*%
D11*
%TO.P,R13,1*%
%TO.N,Net-(U1-DUPLED)*%
X140490000Y-83600000D03*
%TO.P,R13,2*%
%TO.N,Net-(D2-A)*%
X141510000Y-83600000D03*
%TD*%
D17*
%TO.P,C6,1*%
%TO.N,Net-(U1-1V2O)*%
X140680000Y-113700000D03*
%TO.P,C6,2*%
%TO.N,GND*%
X139720000Y-113700000D03*
%TD*%
D18*
%TO.P,C2,1*%
%TO.N,Net-(U1-XO)*%
X150400000Y-118420000D03*
%TO.P,C2,2*%
%TO.N,GND*%
X150400000Y-119380000D03*
%TD*%
D11*
%TO.P,R1,1*%
%TO.N,Net-(U1-XI{slash}CLKIN)*%
X146490000Y-116500000D03*
%TO.P,R1,2*%
%TO.N,Net-(U1-XO)*%
X147510000Y-116500000D03*
%TD*%
D19*
%TO.P,H2,1*%
%TO.N,N/C*%
X165500000Y-115500000D03*
%TD*%
D20*
%TO.P,C11,1*%
%TO.N,3V3A*%
X142300000Y-106880000D03*
%TO.P,C11,2*%
%TO.N,GND*%
X142300000Y-105920000D03*
%TD*%
D10*
%TO.P,R3,1*%
%TO.N,Net-(U1-TXN)*%
X159400000Y-103710000D03*
%TO.P,R3,2*%
%TO.N,Net-(J1-TD-)*%
X159400000Y-102690000D03*
%TD*%
%TO.P,R17,1*%
%TO.N,GND*%
X151000000Y-103710000D03*
%TO.P,R17,2*%
%TO.N,Net-(J1-RD-)*%
X151000000Y-102690000D03*
%TD*%
%TO.P,R4,1*%
%TO.N,Net-(U1-RXP)*%
X145400000Y-103710000D03*
%TO.P,R4,2*%
%TO.N,Net-(J1-RD+)*%
X145400000Y-102690000D03*
%TD*%
D18*
%TO.P,C4,1*%
%TO.N,TCT*%
X158000000Y-102720000D03*
%TO.P,C4,2*%
%TO.N,GND*%
X158000000Y-103680000D03*
%TD*%
D19*
%TO.P,H4,1*%
%TO.N,N/C*%
X165500000Y-84500000D03*
%TD*%
D16*
%TO.P,D1,1,K*%
%TO.N,GND*%
X141990000Y-80200000D03*
%TO.P,D1,2,A*%
%TO.N,Net-(D1-A)*%
X141990000Y-81775000D03*
%TD*%
D19*
%TO.P,H1,1*%
%TO.N,N/C*%
X134500000Y-84500000D03*
%TD*%
D10*
%TO.P,R2,1*%
%TO.N,Net-(U1-TXP)*%
X153800000Y-103710000D03*
%TO.P,R2,2*%
%TO.N,Net-(J1-TD+)*%
X153800000Y-102690000D03*
%TD*%
D21*
%TO.P,C14,1*%
%TO.N,+3.3V*%
X141000000Y-115100000D03*
%TO.P,C14,2*%
%TO.N,GND*%
X141000000Y-117000000D03*
%TD*%
D10*
%TO.P,R12,1*%
%TO.N,3V3A*%
X156600000Y-103710000D03*
%TO.P,R12,2*%
%TO.N,TCT*%
X156600000Y-102690000D03*
%TD*%
D19*
%TO.P,H3,1*%
%TO.N,N/C*%
X134500000Y-115500000D03*
%TD*%
D17*
%TO.P,C13,1*%
%TO.N,3V3A*%
X140680000Y-112600000D03*
%TO.P,C13,2*%
%TO.N,GND*%
X139720000Y-112600000D03*
%TD*%
%TO.P,C12,1*%
%TO.N,3V3A*%
X145780000Y-104700000D03*
%TO.P,C12,2*%
%TO.N,GND*%
X144820000Y-104700000D03*
%TD*%
D10*
%TO.P,R6,1*%
%TO.N,3V3A*%
X160800000Y-103710000D03*
%TO.P,R6,2*%
%TO.N,Net-(J1-TD-)*%
X160800000Y-102690000D03*
%TD*%
D22*
%TO.P,J2,1,Pin_1*%
%TO.N,GND*%
X164400000Y-106500000D03*
%TO.P,J2,2,Pin_2*%
%TO.N,AUX1*%
X164400000Y-105500000D03*
%TO.P,J2,3,Pin_3*%
%TO.N,AUX2*%
X164400000Y-104500000D03*
%TO.P,J2,4,Pin_4*%
%TO.N,MISO*%
X164400000Y-103500000D03*
%TO.P,J2,5,Pin_5*%
%TO.N,ETH_CS*%
X164400000Y-102500000D03*
%TO.P,J2,6,Pin_6*%
%TO.N,MOSI*%
X164400000Y-101500000D03*
%TO.P,J2,7,Pin_7*%
%TO.N,SCK*%
X164400000Y-100500000D03*
%TO.P,J2,8,Pin_8*%
%TO.N,AUX3*%
X164400000Y-99500000D03*
%TO.P,J2,9,Pin_9*%
%TO.N,AUX4*%
X164400000Y-98500000D03*
%TO.P,J2,10,Pin_10*%
%TO.N,AUX5*%
X164400000Y-97500000D03*
%TO.P,J2,11,Pin_11*%
%TO.N,AUX6*%
X164400000Y-96500000D03*
%TO.P,J2,12,Pin_12*%
%TO.N,SCL1*%
X164400000Y-95500000D03*
%TO.P,J2,13,Pin_13*%
%TO.N,SDA1*%
X164400000Y-94500000D03*
%TO.P,J2,14,Pin_14*%
%TO.N,+3.3V*%
X164400000Y-93500000D03*
D23*
%TO.P,J2,MP*%
%TO.N,N/C*%
X167200000Y-109490000D03*
X167200000Y-90510000D03*
%TD*%
D10*
%TO.P,R8,1*%
%TO.N,Net-(U1-EXRES1)*%
X142600000Y-103710000D03*
%TO.P,R8,2*%
%TO.N,GND*%
X142600000Y-102690000D03*
%TD*%
D18*
%TO.P,C15,1*%
%TO.N,+3.3V*%
X142800000Y-116220000D03*
%TO.P,C15,2*%
%TO.N,GND*%
X142800000Y-117180000D03*
%TD*%
%TO.P,C1,1*%
%TO.N,GND*%
X144600000Y-118620000D03*
%TO.P,C1,2*%
%TO.N,Net-(U1-XI{slash}CLKIN)*%
X144600000Y-119580000D03*
%TD*%
D24*
%TO.P,Y1,1,1*%
%TO.N,Net-(U1-XO)*%
X148500000Y-118050000D03*
%TO.P,Y1,2,2*%
%TO.N,GND*%
X146300000Y-118050000D03*
%TO.P,Y1,3,3*%
%TO.N,Net-(U1-XI{slash}CLKIN)*%
X146300000Y-119750000D03*
%TO.P,Y1,4,4*%
%TO.N,GND*%
X148500000Y-119750000D03*
%TD*%
D25*
%TO.P,J1,L1,LEDY_A*%
%TO.N,+3.3V*%
X146900000Y-86570000D03*
%TO.P,J1,L2,LEDY_K*%
%TO.N,Net-(J1-LEDY_K)*%
X149440000Y-85050000D03*
%TO.P,J1,L3,LEDG_K*%
%TO.N,Net-(J1-LEDG_K)*%
X157010000Y-86570000D03*
%TO.P,J1,L4,LEDG_A*%
%TO.N,+3.3V*%
X159550000Y-85050000D03*
D26*
%TO.P,J1,R1,TD+*%
%TO.N,Net-(J1-TD+)*%
X157670000Y-96290000D03*
D27*
%TO.P,J1,R2,TD-*%
%TO.N,Net-(J1-TD-)*%
X156400000Y-98830000D03*
%TO.P,J1,R3,RD+*%
%TO.N,Net-(J1-RD+)*%
X155130000Y-96290000D03*
%TO.P,J1,R4,TCT*%
%TO.N,TCT*%
X153860000Y-98830000D03*
%TO.P,J1,R5,RCT*%
%TO.N,RCT*%
X152590000Y-96290000D03*
%TO.P,J1,R6,RD-*%
%TO.N,Net-(J1-RD-)*%
X151320000Y-98830000D03*
%TO.P,J1,R7,NC*%
%TO.N,unconnected-(J1-NC-PadR7)*%
X150050000Y-96290000D03*
%TO.P,J1,R8,GND*%
%TO.N,GND*%
X148780000Y-98830000D03*
D28*
%TO.P,J1,SH,SHIELD*%
X161000000Y-93000000D03*
X145450000Y-93000000D03*
%TD*%
D29*
%TO.N,GND*%
X138800000Y-116800000D03*
X152600000Y-107900000D03*
X143400000Y-118600000D03*
X143500000Y-103900000D03*
X151700000Y-119400000D03*
X164400000Y-108800000D03*
X142300000Y-104900000D03*
X150400000Y-101600000D03*
X146400000Y-80200000D03*
X164400000Y-107800000D03*
X158300000Y-101700000D03*
%TO.N,3V3A*%
X155900000Y-104700000D03*
X140800000Y-103900000D03*
X155900000Y-106200000D03*
X140787500Y-104912500D03*
%TO.N,+3.3V*%
X164400000Y-92200000D03*
X164400000Y-91200000D03*
X137800000Y-105500000D03*
X138800000Y-114900000D03*
%TO.N,MISO*%
X155340380Y-114040380D03*
X159078860Y-113978859D03*
%TO.N,MOSI*%
X156109620Y-115109620D03*
X153309620Y-115109620D03*
%TO.N,AUX2*%
X166759620Y-103440380D03*
X155300000Y-108900000D03*
%TO.N,AUX1*%
X166800000Y-104600000D03*
X154500000Y-109700000D03*
%TO.N,AUX5*%
X157800000Y-107500000D03*
X166200000Y-98200000D03*
%TO.N,AUX6*%
X167000000Y-99400000D03*
X158940380Y-107440380D03*
%TO.N,Net-(U1-LINKLED)*%
X145600000Y-111000000D03*
X143600000Y-97500000D03*
%TO.N,Net-(U1-ACTLED)*%
X146950000Y-111000000D03*
X144900000Y-97600000D03*
%TO.N,Net-(U1-DUPLED)*%
X146250000Y-111900000D03*
X144400000Y-99000000D03*
%TO.N,Net-(U1-SPDLED)*%
X142950000Y-98191401D03*
X144900000Y-112000000D03*
%TD*%
D30*
%TO.N,GND*%
X143500000Y-103590000D02*
X143500000Y-103900000D01*
X143420000Y-118620000D02*
X143400000Y-118600000D01*
X146800000Y-103710000D02*
X148200000Y-103710000D01*
X146700000Y-118050000D02*
X146300000Y-118050000D01*
X150380000Y-102900000D02*
X149600000Y-103680000D01*
X150400000Y-119380000D02*
X151680000Y-119380000D01*
X158300000Y-101700000D02*
X158610000Y-102010000D01*
X139720000Y-113700000D02*
X139720000Y-110100000D01*
X148500000Y-119750000D02*
X148400000Y-119750000D01*
X139720000Y-110100000D02*
X139600000Y-110100000D01*
X146250000Y-115598096D02*
X146250000Y-114762500D01*
X144600000Y-118620000D02*
X145730000Y-118620000D01*
X158610000Y-102010000D02*
X158610000Y-103070000D01*
D31*
X164400000Y-106500000D02*
X164400000Y-107800000D01*
D30*
X152550000Y-107850000D02*
X152600000Y-107900000D01*
X148870000Y-119380000D02*
X148500000Y-119750000D01*
X143500000Y-103900000D02*
X143900000Y-103900000D01*
X148230000Y-103680000D02*
X148200000Y-103710000D01*
X144600000Y-118620000D02*
X143420000Y-118620000D01*
X142600000Y-102690000D02*
X143500000Y-103590000D01*
X148750000Y-107207410D02*
X149392590Y-107850000D01*
X142800000Y-117180000D02*
X143020000Y-117180000D01*
D31*
X141330000Y-117180000D02*
X142800000Y-117180000D01*
D30*
X150380000Y-101620000D02*
X150380000Y-102900000D01*
X151162500Y-107850000D02*
X152550000Y-107850000D01*
D31*
X164400000Y-107800000D02*
X164400000Y-108800000D01*
D30*
X139720000Y-110100000D02*
X140470000Y-110850000D01*
X149392590Y-107850000D02*
X151162500Y-107850000D01*
X150400000Y-101600000D02*
X150380000Y-101620000D01*
D31*
X141000000Y-116850000D02*
X141330000Y-117180000D01*
D30*
X145228096Y-116620000D02*
X146250000Y-115598096D01*
D32*
X145750000Y-105630000D02*
X144820000Y-104700000D01*
D31*
X139800000Y-80212500D02*
X141977500Y-80212500D01*
D30*
X158610000Y-103070000D02*
X158000000Y-103680000D01*
D31*
X141990000Y-80200000D02*
X146400000Y-80200000D01*
X141000000Y-116850000D02*
X138850000Y-116850000D01*
D30*
X142300000Y-104900000D02*
X142300000Y-105920000D01*
X138850000Y-109350000D02*
X138850000Y-108300000D01*
X145730000Y-118620000D02*
X146300000Y-118050000D01*
D32*
X145750000Y-106437500D02*
X145750000Y-105630000D01*
D30*
X143900000Y-103900000D02*
X144700000Y-104700000D01*
X148750000Y-106437500D02*
X148750000Y-107207410D01*
X143020000Y-117180000D02*
X143580000Y-116620000D01*
X143580000Y-116620000D02*
X145228096Y-116620000D01*
X150400000Y-119380000D02*
X148870000Y-119380000D01*
X151000000Y-103710000D02*
X150970000Y-103680000D01*
X150970000Y-103680000D02*
X148230000Y-103680000D01*
D31*
X138850000Y-116850000D02*
X138800000Y-116800000D01*
D30*
X144700000Y-104700000D02*
X144820000Y-104700000D01*
D31*
X141977500Y-80212500D02*
X141990000Y-80200000D01*
D30*
X139600000Y-110100000D02*
X138850000Y-109350000D01*
X151680000Y-119380000D02*
X151700000Y-119400000D01*
X140470000Y-110850000D02*
X142837500Y-110850000D01*
%TO.N,Net-(U1-XI{slash}CLKIN)*%
X146130000Y-119580000D02*
X146300000Y-119750000D01*
X147400000Y-117410000D02*
X147400000Y-118850000D01*
X146500000Y-119750000D02*
X146300000Y-119750000D01*
X147400000Y-118850000D02*
X146500000Y-119750000D01*
X144600000Y-119580000D02*
X146130000Y-119580000D01*
X146490000Y-116500000D02*
X147400000Y-117410000D01*
X146750000Y-116240000D02*
X146490000Y-116500000D01*
X146750000Y-114762500D02*
X146750000Y-116240000D01*
%TO.N,Net-(U1-XO)*%
X148500000Y-117290000D02*
X148500000Y-118050000D01*
X147250000Y-114762500D02*
X147250000Y-116240000D01*
X147250000Y-116240000D02*
X147510000Y-116500000D01*
X147710000Y-116500000D02*
X148500000Y-117290000D01*
X150400000Y-118420000D02*
X148870000Y-118420000D01*
X147510000Y-116500000D02*
X147710000Y-116500000D01*
%TO.N,RCT*%
X148230000Y-102720000D02*
X148200000Y-102690000D01*
X150070000Y-100130000D02*
X149600000Y-100600000D01*
X152590000Y-96290000D02*
X152092233Y-96290000D01*
X150070000Y-98312233D02*
X150070000Y-100130000D01*
X149600000Y-100600000D02*
X149600000Y-102720000D01*
X149600000Y-102720000D02*
X148230000Y-102720000D01*
X152092233Y-96290000D02*
X150070000Y-98312233D01*
%TO.N,TCT*%
X156600000Y-102690000D02*
X157970000Y-102690000D01*
X157970000Y-102690000D02*
X158000000Y-102720000D01*
X153860000Y-98830000D02*
X156600000Y-101570000D01*
X156600000Y-101570000D02*
X156600000Y-102690000D01*
%TO.N,Net-(U1-TOCAP)*%
X140730000Y-111350000D02*
X140680000Y-111300000D01*
X142837500Y-111350000D02*
X140730000Y-111350000D01*
%TO.N,Net-(U1-1V2O)*%
X142067590Y-112350000D02*
X140717590Y-113700000D01*
X142837500Y-112350000D02*
X142067590Y-112350000D01*
X140717590Y-113700000D02*
X140680000Y-113700000D01*
%TO.N,3V3A*%
X146250000Y-105170000D02*
X146250000Y-106437500D01*
X144200000Y-108500000D02*
X144200000Y-108700000D01*
D31*
X140787500Y-108262500D02*
X140750000Y-108300000D01*
D30*
X145000000Y-107750000D02*
X145707410Y-107750000D01*
X140750000Y-109500000D02*
X140750000Y-110030000D01*
X141950000Y-108850000D02*
X142837500Y-108850000D01*
X146150000Y-107750000D02*
X146250000Y-107650000D01*
X144200000Y-109700000D02*
X144200000Y-109300000D01*
X146250000Y-107500000D02*
X146250000Y-107550000D01*
X144200000Y-108650000D02*
X144200000Y-108500000D01*
X145800000Y-107750000D02*
X145707410Y-107750000D01*
X145780000Y-104700000D02*
X146250000Y-105170000D01*
X146450000Y-107750000D02*
X146600000Y-107750000D01*
X141000000Y-112600000D02*
X140680000Y-112600000D01*
X142837500Y-111850000D02*
X141750000Y-111850000D01*
X144750000Y-107500000D02*
X144750000Y-106437500D01*
X144000000Y-108850000D02*
X144050000Y-108850000D01*
X140680000Y-110100000D02*
X140930000Y-109850000D01*
X146250000Y-107500000D02*
X146000000Y-107750000D01*
X144750000Y-107500000D02*
X144750000Y-107750000D01*
X144200000Y-108900000D02*
X144150000Y-108850000D01*
X155200000Y-103710000D02*
X155200000Y-104000000D01*
X142837500Y-109850000D02*
X144050000Y-109850000D01*
X140750000Y-110030000D02*
X140680000Y-110100000D01*
X156600000Y-103710000D02*
X155200000Y-103710000D01*
X141750000Y-111850000D02*
X141000000Y-112600000D01*
X144150000Y-108850000D02*
X144000000Y-108850000D01*
X144200000Y-108700000D02*
X144200000Y-108900000D01*
X145707410Y-107750000D02*
X146150000Y-107750000D01*
X141800000Y-108700000D02*
X141950000Y-108850000D01*
X146250000Y-107500000D02*
X146250000Y-106437500D01*
X146600000Y-107750000D02*
X145800000Y-107750000D01*
X144000000Y-108900000D02*
X144200000Y-109100000D01*
X148250000Y-106437500D02*
X148250000Y-107450000D01*
X143800000Y-108850000D02*
X143950000Y-108850000D01*
X143800000Y-108850000D02*
X142837500Y-108850000D01*
X144750000Y-107750000D02*
X144200000Y-108300000D01*
X144050000Y-108850000D02*
X144200000Y-108700000D01*
X144050000Y-109850000D02*
X144200000Y-109700000D01*
X144000000Y-108850000D02*
X143800000Y-108850000D01*
X160800000Y-103710000D02*
X158310000Y-106200000D01*
X140930000Y-109850000D02*
X142837500Y-109850000D01*
X146250000Y-107550000D02*
X146450000Y-107750000D01*
D31*
X140787500Y-104912500D02*
X140787500Y-106300000D01*
X140800000Y-103900000D02*
X140787500Y-103912500D01*
D30*
X146250000Y-107650000D02*
X146250000Y-107500000D01*
X158310000Y-106200000D02*
X155900000Y-106200000D01*
X142300000Y-106880000D02*
X141800000Y-107380000D01*
X143950000Y-108850000D02*
X144200000Y-109100000D01*
X141800000Y-107380000D02*
X141800000Y-108700000D01*
X144000000Y-108850000D02*
X144000000Y-108900000D01*
X145000000Y-107750000D02*
X144750000Y-107500000D01*
X140750000Y-109670000D02*
X140930000Y-109850000D01*
X144750000Y-107750000D02*
X145000000Y-107750000D01*
D31*
X140680000Y-108438750D02*
X140680000Y-110161250D01*
D30*
X144200000Y-108300000D02*
X144200000Y-108500000D01*
D31*
X140800000Y-108318750D02*
X140680000Y-108438750D01*
X140787500Y-103912500D02*
X140787500Y-104912500D01*
D30*
X155200000Y-104000000D02*
X155900000Y-104700000D01*
D31*
X140787500Y-106300000D02*
X140787500Y-108262500D01*
D30*
X140750000Y-109500000D02*
X140750000Y-109670000D01*
X144000000Y-108850000D02*
X144200000Y-108650000D01*
X146000000Y-107750000D02*
X145800000Y-107750000D01*
X148250000Y-107450000D02*
X147950000Y-107750000D01*
X144200000Y-109300000D02*
X144200000Y-109100000D01*
X140750000Y-108300000D02*
X140750000Y-109500000D01*
X147950000Y-107750000D02*
X146600000Y-107750000D01*
X144200000Y-109100000D02*
X144200000Y-108900000D01*
D31*
%TO.N,+3.3V*%
X141530000Y-114950000D02*
X142800000Y-116220000D01*
X164400000Y-93500000D02*
X164400000Y-92200000D01*
X138850000Y-114950000D02*
X138800000Y-114900000D01*
D30*
X145750000Y-114762500D02*
X145750000Y-115532410D01*
D31*
X138600000Y-106300000D02*
X137800000Y-105500000D01*
X164400000Y-92200000D02*
X164400000Y-91200000D01*
X139212500Y-106300000D02*
X138600000Y-106300000D01*
X141000000Y-114950000D02*
X138850000Y-114950000D01*
D30*
X145750000Y-115532410D02*
X145062410Y-116220000D01*
D31*
X141000000Y-114950000D02*
X141530000Y-114950000D01*
D30*
X145062410Y-116220000D02*
X142800000Y-116220000D01*
%TO.N,Net-(D1-A)*%
X142080000Y-84442500D02*
X142080000Y-81865000D01*
X141522500Y-85000000D02*
X142080000Y-84442500D01*
X142080000Y-81865000D02*
X141990000Y-81775000D01*
%TO.N,Net-(D2-A)*%
X139800000Y-81890000D02*
X141510000Y-83600000D01*
X139800000Y-81787500D02*
X139800000Y-81890000D01*
%TO.N,Net-(J1-TD+)*%
X156420000Y-97540000D02*
X153260000Y-97540000D01*
X157670000Y-96290000D02*
X156420000Y-97540000D01*
X155200000Y-102690000D02*
X153800000Y-102690000D01*
X152610000Y-98190000D02*
X152610000Y-101500000D01*
X152610000Y-101500000D02*
X153800000Y-102690000D01*
X153260000Y-97540000D02*
X152610000Y-98190000D01*
%TO.N,Net-(J1-RD+)*%
X148960000Y-95040000D02*
X147400000Y-96600000D01*
X147400000Y-100200000D02*
X146800000Y-100800000D01*
X147400000Y-96600000D02*
X147400000Y-100200000D01*
X153880000Y-95040000D02*
X148960000Y-95040000D01*
X146800000Y-100800000D02*
X146800000Y-102690000D01*
X155130000Y-96290000D02*
X153880000Y-95040000D01*
X145400000Y-102690000D02*
X146800000Y-102690000D01*
%TO.N,Net-(J1-TD-)*%
X159400000Y-101830000D02*
X159400000Y-102690000D01*
X159400000Y-102690000D02*
X160800000Y-102690000D01*
X156400000Y-98830000D02*
X159400000Y-101830000D01*
%TO.N,Net-(J1-LEDY_K)*%
X141510000Y-87800000D02*
X142000000Y-87800000D01*
X144750000Y-85050000D02*
X149440000Y-85050000D01*
X142000000Y-87800000D02*
X144750000Y-85050000D01*
%TO.N,Net-(J1-LEDG_K)*%
X154040000Y-83600000D02*
X144800000Y-83600000D01*
X157010000Y-86570000D02*
X154040000Y-83600000D01*
X144800000Y-83600000D02*
X142000000Y-86400000D01*
X142000000Y-86400000D02*
X141510000Y-86400000D01*
%TO.N,Net-(J1-RD-)*%
X151320000Y-102370000D02*
X151000000Y-102690000D01*
X151320000Y-98830000D02*
X151320000Y-102370000D01*
X152400000Y-102690000D02*
X151000000Y-102690000D01*
%TO.N,MISO*%
X163400000Y-103500000D02*
X164400000Y-103500000D01*
X159121141Y-113978859D02*
X163100000Y-110000000D01*
X155340380Y-114059620D02*
X153200000Y-116200000D01*
X159078860Y-113978859D02*
X159121141Y-113978859D01*
X149331372Y-116200000D02*
X148750000Y-115618628D01*
X148750000Y-115618628D02*
X148750000Y-114762500D01*
X163100000Y-110000000D02*
X163100000Y-103800000D01*
X163100000Y-103800000D02*
X163400000Y-103500000D01*
X155340380Y-114040380D02*
X155340380Y-114059620D01*
X153200000Y-116200000D02*
X149331372Y-116200000D01*
%TO.N,MOSI*%
X162300000Y-108919240D02*
X162300000Y-102400000D01*
X153309620Y-115109620D02*
X153290380Y-115109620D01*
X162300000Y-102400000D02*
X163200000Y-101500000D01*
X152600000Y-115800000D02*
X149500000Y-115800000D01*
X149250000Y-115550000D02*
X149250000Y-114762500D01*
X149500000Y-115800000D02*
X149250000Y-115550000D01*
X163200000Y-101500000D02*
X164400000Y-101500000D01*
X153290380Y-115109620D02*
X152600000Y-115800000D01*
X156109620Y-115109620D02*
X162300000Y-108919240D01*
%TO.N,AUX4*%
X150387500Y-115400000D02*
X152000000Y-115400000D01*
X161500000Y-100495000D02*
X163495000Y-98500000D01*
X161500000Y-105900000D02*
X161500000Y-100495000D01*
X149750000Y-114762500D02*
X150387500Y-115400000D01*
X163495000Y-98500000D02*
X164400000Y-98500000D01*
X152000000Y-115400000D02*
X161500000Y-105900000D01*
%TO.N,ETH_CS*%
X164400000Y-102500000D02*
X163200000Y-102500000D01*
X147750000Y-115750000D02*
X147750000Y-114762500D01*
X155138479Y-117000000D02*
X149000000Y-117000000D01*
X162700000Y-103000000D02*
X162700000Y-109438479D01*
X149000000Y-117000000D02*
X147750000Y-115750000D01*
X163200000Y-102500000D02*
X162700000Y-103000000D01*
X162700000Y-109438479D02*
X155138479Y-117000000D01*
%TO.N,AUX2*%
X151162500Y-109350000D02*
X153930761Y-109350000D01*
X154380761Y-108900000D02*
X155300000Y-108900000D01*
X165700000Y-104500000D02*
X164400000Y-104500000D01*
X166759620Y-103440380D02*
X165700000Y-104500000D01*
X153930761Y-109350000D02*
X154380761Y-108900000D01*
%TO.N,AUX1*%
X166800000Y-104600000D02*
X166800000Y-104700000D01*
X154350000Y-109850000D02*
X154500000Y-109700000D01*
X151162500Y-109850000D02*
X154350000Y-109850000D01*
X166800000Y-104700000D02*
X166000000Y-105500000D01*
X166000000Y-105500000D02*
X164400000Y-105500000D01*
%TO.N,SCK*%
X153700000Y-116600000D02*
X161900000Y-108400000D01*
X148250000Y-114762500D02*
X148250000Y-115684314D01*
X161900000Y-108400000D02*
X161900000Y-101800000D01*
X161900000Y-101800000D02*
X163200000Y-100500000D01*
X163200000Y-100500000D02*
X164400000Y-100500000D01*
X148250000Y-115684314D02*
X149165686Y-116600000D01*
X149165686Y-116600000D02*
X153700000Y-116600000D01*
%TO.N,AUX5*%
X154900000Y-110400000D02*
X157800000Y-107500000D01*
X165500000Y-97500000D02*
X164400000Y-97500000D01*
X166200000Y-98200000D02*
X165500000Y-97500000D01*
X151932410Y-110350000D02*
X151982410Y-110400000D01*
X151162500Y-110350000D02*
X151932410Y-110350000D01*
X151982410Y-110400000D02*
X153500000Y-110400000D01*
X153500000Y-110400000D02*
X154900000Y-110400000D01*
%TO.N,AUX6*%
X167000000Y-97700000D02*
X165800000Y-96500000D01*
X153150000Y-113350000D02*
X159000000Y-107500000D01*
X165800000Y-96500000D02*
X164400000Y-96500000D01*
X151162500Y-113350000D02*
X153150000Y-113350000D01*
X167000000Y-99400000D02*
X167000000Y-97700000D01*
X159000000Y-107500000D02*
X158940380Y-107440380D01*
%TO.N,Net-(U1-TXP)*%
X150017590Y-104900000D02*
X152610000Y-104900000D01*
X149250000Y-106437500D02*
X149250000Y-105667590D01*
X152610000Y-104900000D02*
X153800000Y-103710000D01*
X149250000Y-105667590D02*
X150017590Y-104900000D01*
%TO.N,Net-(U1-TXN)*%
X149750000Y-106437500D02*
X149750000Y-105733276D01*
X150083276Y-105400000D02*
X157710000Y-105400000D01*
X149750000Y-105733276D02*
X150083276Y-105400000D01*
X157710000Y-105400000D02*
X159400000Y-103710000D01*
%TO.N,Net-(U1-RXP)*%
X147250000Y-105230761D02*
X147250000Y-106437500D01*
X145400000Y-103710000D02*
X145729239Y-103710000D01*
X145729239Y-103710000D02*
X147250000Y-105230761D01*
%TO.N,Net-(U1-RXN)*%
X147750000Y-105250000D02*
X147750000Y-106437500D01*
X152400000Y-103710000D02*
X151610000Y-104500000D01*
X151610000Y-104500000D02*
X148500000Y-104500000D01*
X148500000Y-104500000D02*
X147750000Y-105250000D01*
%TO.N,Net-(U1-EXRES1)*%
X142600000Y-104280761D02*
X143719239Y-105400000D01*
X143719239Y-105400000D02*
X144982410Y-105400000D01*
X145250000Y-105667590D02*
X145250000Y-106437500D01*
X142600000Y-103710000D02*
X142600000Y-104280761D01*
X144982410Y-105400000D02*
X145250000Y-105667590D01*
%TO.N,Net-(U1-LINKLED)*%
X144250000Y-113569239D02*
X144250000Y-114762500D01*
X145600000Y-112219239D02*
X144250000Y-113569239D01*
X145600000Y-111000000D02*
X145600000Y-112219239D01*
X139200000Y-93100000D02*
X139200000Y-87690000D01*
X143600000Y-97500000D02*
X139200000Y-93100000D01*
X139200000Y-87690000D02*
X140490000Y-86400000D01*
%TO.N,Net-(U1-ACTLED)*%
X145775000Y-113725000D02*
X145517590Y-113725000D01*
X139900000Y-88390000D02*
X140490000Y-87800000D01*
X145517590Y-113725000D02*
X145250000Y-113992590D01*
X146950000Y-111000000D02*
X146950000Y-112550000D01*
X144900000Y-97600000D02*
X139900000Y-92600000D01*
X139900000Y-92600000D02*
X139900000Y-88390000D01*
X146950000Y-112550000D02*
X145775000Y-113725000D01*
X145250000Y-113992590D02*
X145250000Y-114762500D01*
%TO.N,Net-(U1-DUPLED)*%
X142800000Y-99000000D02*
X137700000Y-93900000D01*
X145500000Y-112900000D02*
X145484925Y-112900000D01*
X146250000Y-111900000D02*
X146250000Y-112150000D01*
X145484925Y-112900000D02*
X144750000Y-113634925D01*
X144750000Y-113634925D02*
X144750000Y-114762500D01*
X137700000Y-93900000D02*
X137700000Y-86390000D01*
X146250000Y-112150000D02*
X145500000Y-112900000D01*
X137700000Y-86390000D02*
X140490000Y-83600000D01*
X144400000Y-99000000D02*
X142800000Y-99000000D01*
%TO.N,Net-(U1-SPDLED)*%
X144900000Y-112057410D02*
X143607410Y-113350000D01*
X142950000Y-98191401D02*
X142950000Y-97950000D01*
X138500000Y-87002500D02*
X140502500Y-85000000D01*
X138500000Y-93500000D02*
X138500000Y-87002500D01*
X143607410Y-113350000D02*
X142837500Y-113350000D01*
X144900000Y-112000000D02*
X144900000Y-112057410D01*
X142950000Y-97950000D02*
X138500000Y-93500000D01*
%TD*%
M02*
