M48
; DRILL file {KiCad 8.0.3} date 2024-12-09T21:22:49-0500
; FORMAT={-:-/ absolute / metric / decimal}
; #@! TF.CreationDate,2024-12-09T21:22:49-05:00
; #@! TF.GenerationSoftware,Kicad,Pcbnew,8.0.3
; #@! TF.FileFunction,Plated,1,4,PTH
FMAT,2
METRIC
; #@! TA.AperFunction,Plated,PTH,ViaDrill
T1C0.350
; #@! TA.AperFunction,Plated,PTH,ViaDrill
T2C0.400
; #@! TA.AperFunction,Plated,PTH,ComponentDrill
T3C0.890
; #@! TA.AperFunction,Plated,PTH,ComponentDrill
T4C0.900
; #@! TA.AperFunction,Plated,PTH,ComponentDrill
T5C1.600
; #@! TA.AperFunction,Plated,PTH,ComponentDrill
T6C3.200
%
G90
G05
T1
X136.4Y-99.5
X136.4Y-100.9
X138.899Y-114.87
X139.5Y-114.2
X139.8Y-82.9
X140.197Y-113.55
X140.9Y-112.9
X141.063Y-108.037
X142.6Y-86.1
X143.4Y-118.5
X144.4Y-80.9
X144.5Y-118.5
X144.87Y-113.372
X147.545Y-111.959
X148.204Y-115.811
X149.2Y-110.9
X149.976Y-111.563
X150.1Y-115.7
X150.766Y-112.212
X151.638Y-112.862
X152.7Y-110.2
X153.688Y-105.088
X154.8Y-106.2
X157.8Y-107.6
X159.0Y-113.3
X159.1Y-115.1
X159.51Y-104.11
X159.6Y-112.4
X161.4Y-106.5
X161.5Y-102.2
X161.888Y-96.888
X162.2Y-95.8
X162.3Y-106.5
X162.5Y-94.45
X162.6Y-100.2
X164.4Y-91.2
X164.4Y-92.2
X166.0Y-94.5
X166.0Y-95.5
X166.0Y-96.5
X166.0Y-97.5
X166.0Y-98.5
X166.0Y-99.5
X166.0Y-100.5
X166.0Y-101.5
X166.0Y-102.5
X166.0Y-103.5
X166.0Y-104.5
X166.0Y-105.5
T2
X136.7Y-104.5
X137.6Y-108.0
X138.9Y-99.8
X138.9Y-109.4
X139.4Y-104.6
X139.845Y-96.945
X140.3Y-110.9
X141.0Y-101.3
X141.4Y-97.5
X141.8Y-112.0
X142.1Y-101.3
X143.1Y-96.0
X143.1Y-97.5
X143.5Y-105.0
X143.9Y-100.4
X144.2Y-87.4
X144.489Y-104.187
X146.0Y-104.6
X153.2Y-102.8
X162.4Y-87.1
X168.3Y-118.6
X168.4Y-81.6
T3
X146.9Y-86.57
X149.44Y-85.05
X157.01Y-86.57
X159.55Y-85.05
T4
X148.78Y-98.83
X150.05Y-96.29
X151.32Y-98.83
X152.59Y-96.29
X153.86Y-98.83
X155.13Y-96.29
X156.4Y-98.83
X157.67Y-96.29
T5
X145.45Y-93.0
X161.0Y-93.0
T6
X134.5Y-84.5
X134.5Y-115.5
X165.5Y-84.5
X165.5Y-115.5
M30
