M48
; DRILL file {KiCad 8.0.3} date 2024-11-27T21:51:54-0500
; FORMAT={-:-/ absolute / metric / decimal}
; #@! TF.CreationDate,2024-11-27T21:51:54-05:00
; #@! TF.GenerationSoftware,Kicad,Pcbnew,8.0.3
; #@! TF.FileFunction,Plated,1,4,PTH
FMAT,2
METRIC
; #@! TA.AperFunction,Plated,PTH,ViaDrill
T1C0.350
; #@! TA.AperFunction,Plated,PTH,ViaDrill
T2C0.400
; #@! TA.AperFunction,Plated,PTH,ComponentDrill
T3C0.890
; #@! TA.AperFunction,Plated,PTH,ComponentDrill
T4C0.900
; #@! TA.AperFunction,Plated,PTH,ComponentDrill
T5C1.600
; #@! TA.AperFunction,Plated,PTH,ComponentDrill
T6C3.200
%
G90
G05
T1
X135.65Y-102.0
X136.832Y-99.133
X137.15Y-105.8
X137.652Y-100.152
X137.974Y-108.626
X138.433Y-97.533
X138.45Y-105.8
X138.899Y-114.87
X139.352Y-98.452
X139.424Y-110.076
X139.5Y-114.2
X139.8Y-82.9
X140.197Y-113.55
X140.243Y-109.057
X140.271Y-99.371
X140.6Y-102.2
X140.6Y-105.8
X140.9Y-112.9
X141.063Y-108.037
X141.14Y-100.34
X141.87Y-107.006
X142.6Y-86.1
X142.75Y-105.59
X143.2Y-103.04
X143.4Y-95.85
X143.4Y-97.15
X143.4Y-98.45
X143.4Y-99.8
X143.4Y-118.5
X144.5Y-118.5
X144.87Y-113.372
X144.9Y-80.2
X145.2Y-101.15
X145.5Y-102.45
X145.735Y-103.785
X146.0Y-80.2
X146.7Y-95.85
X146.7Y-97.15
X146.7Y-98.45
X146.7Y-99.8
X146.7Y-102.45
X147.545Y-111.959
X148.204Y-115.811
X148.6Y-101.15
X148.6Y-102.45
X149.2Y-110.9
X149.976Y-111.563
X150.1Y-115.7
X150.766Y-112.212
X151.3Y-93.65
X151.3Y-95.1
X151.34Y-101.14
X151.638Y-112.862
X151.755Y-102.45
X152.7Y-110.2
X153.688Y-105.088
X154.8Y-106.2
X157.8Y-107.6
X159.0Y-113.3
X159.1Y-115.1
X159.51Y-104.11
X159.6Y-112.4
X161.1Y-96.65
X161.4Y-106.5
X162.2Y-96.4
X162.3Y-106.5
X162.4Y-102.1
X162.6Y-100.15
X162.765Y-97.85
X164.4Y-91.2
X164.4Y-92.2
X166.5Y-95.4
X166.612Y-96.293
T2
X141.8Y-112.0
T3
X146.9Y-86.57
X149.44Y-85.05
X157.01Y-86.57
X159.55Y-85.05
T4
X148.78Y-98.83
X150.05Y-96.29
X151.32Y-98.83
X152.59Y-96.29
X153.86Y-98.83
X155.13Y-96.29
X156.4Y-98.83
X157.67Y-96.29
T5
X145.45Y-93.0
X161.0Y-93.0
T6
X134.5Y-84.5
X134.5Y-115.5
X165.5Y-84.5
X165.5Y-115.5
M30
