%TF.GenerationSoftware,KiCad,Pcbnew,8.0.3*%
%TF.CreationDate,2024-11-11T17:41:13-05:00*%
%TF.ProjectId,Ethernet HAT,45746865-726e-4657-9420-4841542e6b69,rev?*%
%TF.SameCoordinates,Original*%
%TF.FileFunction,Copper,L3,Inr*%
%TF.FilePolarity,Positive*%
%FSLAX46Y46*%
G04 Gerber Fmt 4.6, Leading zero omitted, Abs format (unit mm)*
G04 Created by KiCad (PCBNEW 8.0.3) date 2024-11-11 17:41:13*
%MOMM*%
%LPD*%
G01*
G04 APERTURE LIST*
%TA.AperFunction,ComponentPad*%
%ADD10C,5.500000*%
%TD*%
%TA.AperFunction,ComponentPad*%
%ADD11C,1.890000*%
%TD*%
%TA.AperFunction,ComponentPad*%
%ADD12R,1.900000X1.900000*%
%TD*%
%TA.AperFunction,ComponentPad*%
%ADD13C,1.900000*%
%TD*%
%TA.AperFunction,ComponentPad*%
%ADD14C,2.600000*%
%TD*%
%TA.AperFunction,ViaPad*%
%ADD15C,0.700000*%
%TD*%
G04 APERTURE END LIST*
D10*
%TO.N,N/C*%
%TO.C,H2*%
X165500000Y-115500000D03*
%TD*%
%TO.N,N/C*%
%TO.C,H4*%
X165500000Y-84500000D03*
%TD*%
%TO.N,N/C*%
%TO.C,H1*%
X134500000Y-84500000D03*
%TD*%
%TO.N,N/C*%
%TO.C,H3*%
X134500000Y-115500000D03*
%TD*%
D11*
%TO.N,+3.3V*%
%TO.C,J1*%
X146900000Y-86570000D03*
%TO.N,Net-(J1-LEDY_K)*%
X149440000Y-85050000D03*
%TO.N,Net-(J1-LEDG_K)*%
X157010000Y-86570000D03*
%TO.N,+3.3V*%
X159550000Y-85050000D03*
D12*
%TO.N,Net-(J1-TD+)*%
X157670000Y-96290000D03*
D13*
%TO.N,Net-(J1-TD-)*%
X156400000Y-98830000D03*
%TO.N,Net-(J1-RD+)*%
X155130000Y-96290000D03*
%TO.N,TCT*%
X153860000Y-98830000D03*
%TO.N,RCT*%
X152590000Y-96290000D03*
%TO.N,Net-(J1-RD-)*%
X151320000Y-98830000D03*
%TO.N,unconnected-(J1-NC-PadR7)*%
X150050000Y-96290000D03*
%TO.N,GND*%
X148780000Y-98830000D03*
D14*
X161000000Y-93000000D03*
X145450000Y-93000000D03*
%TD*%
D15*
%TO.N,GND*%
X138800000Y-116800000D03*
X152600000Y-107900000D03*
X143400000Y-118600000D03*
X143500000Y-103900000D03*
X151700000Y-119400000D03*
X164400000Y-108800000D03*
X142300000Y-104900000D03*
X150400000Y-101600000D03*
X146400000Y-80200000D03*
X164400000Y-107800000D03*
X158300000Y-101700000D03*
%TO.N,3V3A*%
X155900000Y-104700000D03*
X140800000Y-103900000D03*
X155900000Y-106200000D03*
X140787500Y-104912500D03*
%TO.N,+3.3V*%
X164400000Y-92200000D03*
X164400000Y-91200000D03*
X137800000Y-105500000D03*
X138800000Y-114900000D03*
%TO.N,MISO*%
X155340380Y-114040380D03*
X159078860Y-113978859D03*
%TO.N,MOSI*%
X156109620Y-115109620D03*
X153309620Y-115109620D03*
%TO.N,AUX2*%
X166759620Y-103440380D03*
X155300000Y-108900000D03*
%TO.N,AUX1*%
X166800000Y-104600000D03*
X154500000Y-109700000D03*
%TO.N,AUX5*%
X157800000Y-107500000D03*
X166200000Y-98200000D03*
%TO.N,AUX6*%
X167000000Y-99400000D03*
X158940380Y-107440380D03*
%TO.N,Net-(U1-LINKLED)*%
X145600000Y-111000000D03*
X143600000Y-97500000D03*
%TO.N,Net-(U1-ACTLED)*%
X146950000Y-111000000D03*
X144900000Y-97600000D03*
%TO.N,Net-(U1-DUPLED)*%
X146250000Y-111900000D03*
X144400000Y-99000000D03*
%TO.N,Net-(U1-SPDLED)*%
X142950000Y-98191401D03*
X144900000Y-112000000D03*
%TD*%
%TA.AperFunction,Conductor*%
%TO.N,3V3A*%
G36*
X142605670Y-103619685D02*
G01*
X142651425Y-103672489D01*
X142661951Y-103736958D01*
X142644815Y-103900000D01*
X142648884Y-103938713D01*
X142636314Y-104007442D01*
X142588582Y-104058466D01*
X142520842Y-104075584D01*
X142499783Y-104072964D01*
X142389391Y-104049500D01*
X142210609Y-104049500D01*
X142179954Y-104056015D01*
X142035733Y-104086670D01*
X142035728Y-104086672D01*
X141872408Y-104159387D01*
X141727768Y-104264475D01*
X141608140Y-104397336D01*
X141518750Y-104552164D01*
X141518747Y-104552170D01*
X141463504Y-104722192D01*
X141463503Y-104722194D01*
X141444815Y-104900000D01*
X141463503Y-105077805D01*
X141463504Y-105077807D01*
X141518747Y-105247829D01*
X141518750Y-105247835D01*
X141608141Y-105402665D01*
X141649812Y-105448946D01*
X141727764Y-105535521D01*
X141727767Y-105535523D01*
X141727770Y-105535526D01*
X141872407Y-105640612D01*
X142035733Y-105713329D01*
X142210609Y-105750500D01*
X142210610Y-105750500D01*
X142389389Y-105750500D01*
X142389391Y-105750500D01*
X142564267Y-105713329D01*
X142727593Y-105640612D01*
X142872230Y-105535526D01*
X142991859Y-105402665D01*
X143081250Y-105247835D01*
X143136497Y-105077803D01*
X143155185Y-104900000D01*
X143151116Y-104861288D01*
X143163683Y-104792559D01*
X143211415Y-104741534D01*
X143279155Y-104724415D01*
X143300211Y-104727034D01*
X143410609Y-104750500D01*
X143410610Y-104750500D01*
X143589389Y-104750500D01*
X143589391Y-104750500D01*
X143764267Y-104713329D01*
X143927593Y-104640612D01*
X144072230Y-104535526D01*
X144191859Y-104402665D01*
X144281250Y-104247835D01*
X144336497Y-104077803D01*
X144355185Y-103900000D01*
X144338048Y-103736958D01*
X144350617Y-103668232D01*
X144398349Y-103617208D01*
X144461369Y-103600000D01*
X161676000Y-103600000D01*
X161743039Y-103619685D01*
X161788794Y-103672489D01*
X161800000Y-103724000D01*
X161800000Y-119876000D01*
X161780315Y-119943039D01*
X161727511Y-119988794D01*
X161676000Y-120000000D01*
X152550437Y-120000000D01*
X152483398Y-119980315D01*
X152437643Y-119927511D01*
X152427699Y-119858353D01*
X152443049Y-119814001D01*
X152481250Y-119747835D01*
X152536497Y-119577803D01*
X152555185Y-119400000D01*
X152536497Y-119222197D01*
X152481250Y-119052165D01*
X152391859Y-118897335D01*
X152345003Y-118845296D01*
X152272235Y-118764478D01*
X152272232Y-118764476D01*
X152272231Y-118764475D01*
X152272230Y-118764474D01*
X152127593Y-118659388D01*
X151964267Y-118586671D01*
X151964265Y-118586670D01*
X151836594Y-118559533D01*
X151789391Y-118549500D01*
X151610609Y-118549500D01*
X151579954Y-118556015D01*
X151435733Y-118586670D01*
X151435728Y-118586672D01*
X151272408Y-118659387D01*
X151127768Y-118764475D01*
X151008140Y-118897336D01*
X150918750Y-119052164D01*
X150918747Y-119052170D01*
X150863504Y-119222192D01*
X150863503Y-119222194D01*
X150844815Y-119400000D01*
X150863503Y-119577805D01*
X150863504Y-119577807D01*
X150918747Y-119747829D01*
X150918749Y-119747832D01*
X150918750Y-119747835D01*
X150956951Y-119814001D01*
X150973423Y-119881901D01*
X150950570Y-119947928D01*
X150895648Y-119991118D01*
X150849563Y-120000000D01*
X139124000Y-120000000D01*
X139056961Y-119980315D01*
X139011206Y-119927511D01*
X139000000Y-119876000D01*
X139000000Y-118600000D01*
X142544815Y-118600000D01*
X142563503Y-118777805D01*
X142563504Y-118777807D01*
X142618747Y-118947829D01*
X142618750Y-118947835D01*
X142708141Y-119102665D01*
X142749812Y-119148946D01*
X142827764Y-119235521D01*
X142827767Y-119235523D01*
X142827770Y-119235526D01*
X142972407Y-119340612D01*
X143135733Y-119413329D01*
X143310609Y-119450500D01*
X143310610Y-119450500D01*
X143489389Y-119450500D01*
X143489391Y-119450500D01*
X143664267Y-119413329D01*
X143827593Y-119340612D01*
X143972230Y-119235526D01*
X144091859Y-119102665D01*
X144181250Y-118947835D01*
X144236497Y-118777803D01*
X144255185Y-118600000D01*
X144236497Y-118422197D01*
X144181250Y-118252165D01*
X144091859Y-118097335D01*
X144045003Y-118045296D01*
X143972235Y-117964478D01*
X143972232Y-117964476D01*
X143972231Y-117964475D01*
X143972230Y-117964474D01*
X143827593Y-117859388D01*
X143664267Y-117786671D01*
X143664265Y-117786670D01*
X143536594Y-117759533D01*
X143489391Y-117749500D01*
X143310609Y-117749500D01*
X143279954Y-117756015D01*
X143135733Y-117786670D01*
X143135728Y-117786672D01*
X142972408Y-117859387D01*
X142827768Y-117964475D01*
X142708140Y-118097336D01*
X142618750Y-118252164D01*
X142618747Y-118252170D01*
X142563504Y-118422192D01*
X142563503Y-118422194D01*
X142544815Y-118600000D01*
X139000000Y-118600000D01*
X139000000Y-117722468D01*
X139019685Y-117655429D01*
X139072489Y-117609674D01*
X139073365Y-117609278D01*
X139227593Y-117540612D01*
X139372230Y-117435526D01*
X139491859Y-117302665D01*
X139581250Y-117147835D01*
X139636497Y-116977803D01*
X139655185Y-116800000D01*
X139636497Y-116622197D01*
X139581250Y-116452165D01*
X139491859Y-116297335D01*
X139445003Y-116245296D01*
X139372235Y-116164478D01*
X139372232Y-116164476D01*
X139372231Y-116164475D01*
X139372230Y-116164474D01*
X139227593Y-116059388D01*
X139227592Y-116059387D01*
X139073564Y-115990809D01*
X139020327Y-115945559D01*
X139000006Y-115878710D01*
X139000000Y-115877530D01*
X139000000Y-115822468D01*
X139019685Y-115755429D01*
X139072489Y-115709674D01*
X139073365Y-115709278D01*
X139227593Y-115640612D01*
X139372230Y-115535526D01*
X139491859Y-115402665D01*
X139581250Y-115247835D01*
X139626159Y-115109620D01*
X152454435Y-115109620D01*
X152473123Y-115287425D01*
X152473124Y-115287427D01*
X152528367Y-115457449D01*
X152528370Y-115457455D01*
X152617761Y-115612285D01*
X152643265Y-115640610D01*
X152737384Y-115745141D01*
X152737387Y-115745143D01*
X152737390Y-115745146D01*
X152882027Y-115850232D01*
X153045353Y-115922949D01*
X153220229Y-115960120D01*
X153220230Y-115960120D01*
X153399009Y-115960120D01*
X153399011Y-115960120D01*
X153573887Y-115922949D01*
X153737213Y-115850232D01*
X153881850Y-115745146D01*
X154001479Y-115612285D01*
X154090870Y-115457455D01*
X154146117Y-115287423D01*
X154164805Y-115109620D01*
X154146117Y-114931817D01*
X154090870Y-114761785D01*
X154001479Y-114606955D01*
X153943932Y-114543043D01*
X153881855Y-114474098D01*
X153881852Y-114474096D01*
X153881851Y-114474095D01*
X153881850Y-114474094D01*
X153737213Y-114369008D01*
X153573887Y-114296291D01*
X153573885Y-114296290D01*
X153424209Y-114264476D01*
X153399011Y-114259120D01*
X153220229Y-114259120D01*
X153195031Y-114264476D01*
X153045353Y-114296290D01*
X153045348Y-114296292D01*
X152882028Y-114369007D01*
X152737388Y-114474095D01*
X152617760Y-114606956D01*
X152528370Y-114761784D01*
X152528367Y-114761790D01*
X152473124Y-114931812D01*
X152473123Y-114931814D01*
X152454435Y-115109620D01*
X139626159Y-115109620D01*
X139636497Y-115077803D01*
X139655185Y-114900000D01*
X139636497Y-114722197D01*
X139599053Y-114606956D01*
X139581252Y-114552170D01*
X139581249Y-114552164D01*
X139491859Y-114397335D01*
X139445003Y-114345296D01*
X139372235Y-114264478D01*
X139372232Y-114264476D01*
X139372231Y-114264475D01*
X139372230Y-114264474D01*
X139227593Y-114159388D01*
X139227592Y-114159387D01*
X139073564Y-114090809D01*
X139020327Y-114045559D01*
X139018753Y-114040380D01*
X154485195Y-114040380D01*
X154503883Y-114218185D01*
X154503884Y-114218187D01*
X154559127Y-114388209D01*
X154559130Y-114388215D01*
X154648521Y-114543045D01*
X154690192Y-114589326D01*
X154768144Y-114675901D01*
X154768147Y-114675903D01*
X154768150Y-114675906D01*
X154912787Y-114780992D01*
X155076113Y-114853709D01*
X155167637Y-114873163D01*
X155229119Y-114906355D01*
X155262895Y-114967518D01*
X155265177Y-115007414D01*
X155254435Y-115109619D01*
X155273123Y-115287425D01*
X155273124Y-115287427D01*
X155328367Y-115457449D01*
X155328370Y-115457455D01*
X155417761Y-115612285D01*
X155443265Y-115640610D01*
X155537384Y-115745141D01*
X155537387Y-115745143D01*
X155537390Y-115745146D01*
X155682027Y-115850232D01*
X155845353Y-115922949D01*
X156020229Y-115960120D01*
X156020230Y-115960120D01*
X156199009Y-115960120D01*
X156199011Y-115960120D01*
X156373887Y-115922949D01*
X156537213Y-115850232D01*
X156681850Y-115745146D01*
X156801479Y-115612285D01*
X156890870Y-115457455D01*
X156946117Y-115287423D01*
X156964805Y-115109620D01*
X156946117Y-114931817D01*
X156890870Y-114761785D01*
X156801479Y-114606955D01*
X156743932Y-114543043D01*
X156681855Y-114474098D01*
X156681852Y-114474096D01*
X156681851Y-114474095D01*
X156681850Y-114474094D01*
X156537213Y-114369008D01*
X156373887Y-114296291D01*
X156373885Y-114296290D01*
X156373886Y-114296290D01*
X156282361Y-114276836D01*
X156220880Y-114243643D01*
X156187103Y-114182480D01*
X156184822Y-114142589D01*
X156195565Y-114040380D01*
X156189099Y-113978859D01*
X158223675Y-113978859D01*
X158242363Y-114156664D01*
X158242364Y-114156666D01*
X158297607Y-114326688D01*
X158297610Y-114326694D01*
X158387001Y-114481524D01*
X158428672Y-114527805D01*
X158506624Y-114614380D01*
X158506627Y-114614382D01*
X158506630Y-114614385D01*
X158651267Y-114719471D01*
X158814593Y-114792188D01*
X158989469Y-114829359D01*
X158989470Y-114829359D01*
X159168249Y-114829359D01*
X159168251Y-114829359D01*
X159343127Y-114792188D01*
X159506453Y-114719471D01*
X159651090Y-114614385D01*
X159770719Y-114481524D01*
X159860110Y-114326694D01*
X159915357Y-114156662D01*
X159934045Y-113978859D01*
X159915357Y-113801056D01*
X159880101Y-113692550D01*
X159860112Y-113631029D01*
X159860109Y-113631023D01*
X159770719Y-113476194D01*
X159706484Y-113404854D01*
X159651095Y-113343337D01*
X159651092Y-113343335D01*
X159651091Y-113343334D01*
X159651090Y-113343333D01*
X159506453Y-113238247D01*
X159343127Y-113165530D01*
X159343125Y-113165529D01*
X159215454Y-113138392D01*
X159168251Y-113128359D01*
X158989469Y-113128359D01*
X158958814Y-113134874D01*
X158814593Y-113165529D01*
X158814588Y-113165531D01*
X158651268Y-113238246D01*
X158506628Y-113343334D01*
X158387000Y-113476195D01*
X158297610Y-113631023D01*
X158297607Y-113631029D01*
X158242364Y-113801051D01*
X158242363Y-113801053D01*
X158223675Y-113978859D01*
X156189099Y-113978859D01*
X156176877Y-113862577D01*
X156121630Y-113692545D01*
X156032239Y-113537715D01*
X155976845Y-113476194D01*
X155912615Y-113404858D01*
X155912612Y-113404856D01*
X155912611Y-113404855D01*
X155912610Y-113404854D01*
X155767973Y-113299768D01*
X155604647Y-113227051D01*
X155604645Y-113227050D01*
X155476974Y-113199913D01*
X155429771Y-113189880D01*
X155250989Y-113189880D01*
X155220334Y-113196395D01*
X155076113Y-113227050D01*
X155076108Y-113227052D01*
X154912788Y-113299767D01*
X154768148Y-113404855D01*
X154648520Y-113537716D01*
X154559130Y-113692544D01*
X154559127Y-113692550D01*
X154503884Y-113862572D01*
X154503883Y-113862574D01*
X154485195Y-114040380D01*
X139018753Y-114040380D01*
X139000006Y-113978710D01*
X139000000Y-113977530D01*
X139000000Y-112000000D01*
X144044815Y-112000000D01*
X144063503Y-112177805D01*
X144063504Y-112177807D01*
X144118747Y-112347829D01*
X144118750Y-112347835D01*
X144208141Y-112502665D01*
X144249812Y-112548946D01*
X144327764Y-112635521D01*
X144327767Y-112635523D01*
X144327770Y-112635526D01*
X144472407Y-112740612D01*
X144635733Y-112813329D01*
X144810609Y-112850500D01*
X144810610Y-112850500D01*
X144989389Y-112850500D01*
X144989391Y-112850500D01*
X145164267Y-112813329D01*
X145327593Y-112740612D01*
X145472230Y-112635526D01*
X145533239Y-112567768D01*
X145592723Y-112531121D01*
X145662580Y-112532450D01*
X145698273Y-112550422D01*
X145822407Y-112640612D01*
X145985733Y-112713329D01*
X146160609Y-112750500D01*
X146160610Y-112750500D01*
X146339389Y-112750500D01*
X146339391Y-112750500D01*
X146514267Y-112713329D01*
X146677593Y-112640612D01*
X146822230Y-112535526D01*
X146826197Y-112531121D01*
X146886136Y-112464551D01*
X146941859Y-112402665D01*
X147031250Y-112247835D01*
X147086497Y-112077803D01*
X147102593Y-111924659D01*
X147129176Y-111860047D01*
X147186474Y-111820062D01*
X147200121Y-111816335D01*
X147214267Y-111813329D01*
X147377593Y-111740612D01*
X147522230Y-111635526D01*
X147641859Y-111502665D01*
X147731250Y-111347835D01*
X147786497Y-111177803D01*
X147805185Y-111000000D01*
X147786497Y-110822197D01*
X147731250Y-110652165D01*
X147641859Y-110497335D01*
X147590783Y-110440610D01*
X147522235Y-110364478D01*
X147522232Y-110364476D01*
X147522231Y-110364475D01*
X147522230Y-110364474D01*
X147377593Y-110259388D01*
X147214267Y-110186671D01*
X147214265Y-110186670D01*
X147086594Y-110159533D01*
X147039391Y-110149500D01*
X146860609Y-110149500D01*
X146829954Y-110156015D01*
X146685733Y-110186670D01*
X146685728Y-110186672D01*
X146522408Y-110259387D01*
X146377767Y-110364476D01*
X146367148Y-110376270D01*
X146307661Y-110412917D01*
X146237804Y-110411586D01*
X146182852Y-110376270D01*
X146172232Y-110364476D01*
X146172231Y-110364475D01*
X146172230Y-110364474D01*
X146027593Y-110259388D01*
X145864267Y-110186671D01*
X145864265Y-110186670D01*
X145736594Y-110159533D01*
X145689391Y-110149500D01*
X145510609Y-110149500D01*
X145479954Y-110156015D01*
X145335733Y-110186670D01*
X145335728Y-110186672D01*
X145172408Y-110259387D01*
X145027768Y-110364475D01*
X144908140Y-110497336D01*
X144818750Y-110652164D01*
X144818747Y-110652170D01*
X144763504Y-110822192D01*
X144763503Y-110822194D01*
X144744815Y-111000001D01*
X144749951Y-111048876D01*
X144737380Y-111117606D01*
X144689647Y-111168628D01*
X144652415Y-111183124D01*
X144635736Y-111186669D01*
X144635728Y-111186672D01*
X144472408Y-111259387D01*
X144327768Y-111364475D01*
X144208140Y-111497336D01*
X144118750Y-111652164D01*
X144118747Y-111652170D01*
X144063504Y-111822192D01*
X144063503Y-111822194D01*
X144044815Y-112000000D01*
X139000000Y-112000000D01*
X139000000Y-109700000D01*
X153644815Y-109700000D01*
X153663503Y-109877805D01*
X153663504Y-109877807D01*
X153718747Y-110047829D01*
X153718750Y-110047835D01*
X153808141Y-110202665D01*
X153849812Y-110248946D01*
X153927764Y-110335521D01*
X153927767Y-110335523D01*
X153927770Y-110335526D01*
X154072407Y-110440612D01*
X154235733Y-110513329D01*
X154410609Y-110550500D01*
X154410610Y-110550500D01*
X154589389Y-110550500D01*
X154589391Y-110550500D01*
X154764267Y-110513329D01*
X154927593Y-110440612D01*
X155072230Y-110335526D01*
X155191859Y-110202665D01*
X155281250Y-110047835D01*
X155336497Y-109877803D01*
X155339557Y-109848685D01*
X155366140Y-109784074D01*
X155423437Y-109744089D01*
X155437067Y-109740366D01*
X155564267Y-109713329D01*
X155727593Y-109640612D01*
X155872230Y-109535526D01*
X155991859Y-109402665D01*
X156081250Y-109247835D01*
X156136497Y-109077803D01*
X156155185Y-108900000D01*
X156136497Y-108722197D01*
X156081250Y-108552165D01*
X155991859Y-108397335D01*
X155945003Y-108345296D01*
X155872235Y-108264478D01*
X155872232Y-108264476D01*
X155872231Y-108264475D01*
X155872230Y-108264474D01*
X155727593Y-108159388D01*
X155564267Y-108086671D01*
X155564265Y-108086670D01*
X155436594Y-108059533D01*
X155389391Y-108049500D01*
X155210609Y-108049500D01*
X155179954Y-108056015D01*
X155035733Y-108086670D01*
X155035728Y-108086672D01*
X154872408Y-108159387D01*
X154727768Y-108264475D01*
X154608140Y-108397336D01*
X154518750Y-108552164D01*
X154518747Y-108552170D01*
X154463503Y-108722195D01*
X154463502Y-108722199D01*
X154460442Y-108751314D01*
X154433857Y-108815928D01*
X154376559Y-108855912D01*
X154362903Y-108859640D01*
X154235733Y-108886670D01*
X154235728Y-108886672D01*
X154072408Y-108959387D01*
X153927768Y-109064475D01*
X153808140Y-109197336D01*
X153718750Y-109352164D01*
X153718747Y-109352170D01*
X153663504Y-109522192D01*
X153663503Y-109522194D01*
X153644815Y-109700000D01*
X139000000Y-109700000D01*
X139000000Y-107900000D01*
X151744815Y-107900000D01*
X151763503Y-108077805D01*
X151763504Y-108077807D01*
X151818747Y-108247829D01*
X151818750Y-108247835D01*
X151908141Y-108402665D01*
X151949812Y-108448946D01*
X152027764Y-108535521D01*
X152027767Y-108535523D01*
X152027770Y-108535526D01*
X152172407Y-108640612D01*
X152335733Y-108713329D01*
X152510609Y-108750500D01*
X152510610Y-108750500D01*
X152689389Y-108750500D01*
X152689391Y-108750500D01*
X152864267Y-108713329D01*
X153027593Y-108640612D01*
X153172230Y-108535526D01*
X153291859Y-108402665D01*
X153381250Y-108247835D01*
X153436497Y-108077803D01*
X153455185Y-107900000D01*
X153436497Y-107722197D01*
X153381250Y-107552165D01*
X153351133Y-107500000D01*
X156944815Y-107500000D01*
X156963503Y-107677805D01*
X156963504Y-107677807D01*
X157018747Y-107847829D01*
X157018750Y-107847835D01*
X157108141Y-108002665D01*
X157149812Y-108048946D01*
X157227764Y-108135521D01*
X157227767Y-108135523D01*
X157227770Y-108135526D01*
X157372407Y-108240612D01*
X157535733Y-108313329D01*
X157710609Y-108350500D01*
X157710610Y-108350500D01*
X157889389Y-108350500D01*
X157889391Y-108350500D01*
X158064267Y-108313329D01*
X158227593Y-108240612D01*
X158338333Y-108160154D01*
X158404139Y-108136673D01*
X158472193Y-108152498D01*
X158484102Y-108160151D01*
X158512787Y-108180992D01*
X158676113Y-108253709D01*
X158850989Y-108290880D01*
X158850990Y-108290880D01*
X159029769Y-108290880D01*
X159029771Y-108290880D01*
X159204647Y-108253709D01*
X159367973Y-108180992D01*
X159512610Y-108075906D01*
X159632239Y-107943045D01*
X159721630Y-107788215D01*
X159776877Y-107618183D01*
X159795565Y-107440380D01*
X159776877Y-107262577D01*
X159743348Y-107159387D01*
X159721632Y-107092550D01*
X159721629Y-107092544D01*
X159718239Y-107086672D01*
X159632239Y-106937715D01*
X159585383Y-106885676D01*
X159512615Y-106804858D01*
X159512612Y-106804856D01*
X159512611Y-106804855D01*
X159512610Y-106804854D01*
X159367973Y-106699768D01*
X159204647Y-106627051D01*
X159204645Y-106627050D01*
X159076974Y-106599913D01*
X159029771Y-106589880D01*
X158850989Y-106589880D01*
X158820334Y-106596395D01*
X158676113Y-106627050D01*
X158676108Y-106627052D01*
X158512788Y-106699768D01*
X158512783Y-106699770D01*
X158402045Y-106780226D01*
X158336238Y-106803706D01*
X158268185Y-106787880D01*
X158256275Y-106780226D01*
X158227594Y-106759388D01*
X158227593Y-106759387D01*
X158093686Y-106699769D01*
X158064267Y-106686671D01*
X158064265Y-106686670D01*
X157936594Y-106659533D01*
X157889391Y-106649500D01*
X157710609Y-106649500D01*
X157679954Y-106656015D01*
X157535733Y-106686670D01*
X157535728Y-106686672D01*
X157372408Y-106759387D01*
X157227768Y-106864475D01*
X157108140Y-106997336D01*
X157018750Y-107152164D01*
X157018747Y-107152170D01*
X156963504Y-107322192D01*
X156963503Y-107322194D01*
X156944815Y-107500000D01*
X153351133Y-107500000D01*
X153291859Y-107397335D01*
X153245003Y-107345296D01*
X153172235Y-107264478D01*
X153172232Y-107264476D01*
X153172231Y-107264475D01*
X153172230Y-107264474D01*
X153027593Y-107159388D01*
X152864267Y-107086671D01*
X152864265Y-107086670D01*
X152736594Y-107059533D01*
X152689391Y-107049500D01*
X152510609Y-107049500D01*
X152479954Y-107056015D01*
X152335733Y-107086670D01*
X152335728Y-107086672D01*
X152172408Y-107159387D01*
X152027768Y-107264475D01*
X151908140Y-107397336D01*
X151818750Y-107552164D01*
X151818747Y-107552170D01*
X151763504Y-107722192D01*
X151763503Y-107722194D01*
X151744815Y-107900000D01*
X139000000Y-107900000D01*
X139000000Y-103724000D01*
X139019685Y-103656961D01*
X139072489Y-103611206D01*
X139124000Y-103600000D01*
X142538631Y-103600000D01*
X142605670Y-103619685D01*
G37*
%TD.AperFunction*%
%TD*%
%TA.AperFunction,Conductor*%
%TO.N,+3.3V*%
G36*
X165500642Y-79000007D02*
G01*
X165735302Y-79002565D01*
X165744734Y-79003029D01*
X166212846Y-79043984D01*
X166223567Y-79045396D01*
X166685664Y-79126875D01*
X166696192Y-79129209D01*
X167149458Y-79250661D01*
X167159747Y-79253906D01*
X167600688Y-79414395D01*
X167610654Y-79418523D01*
X168035926Y-79616830D01*
X168045512Y-79621821D01*
X168451866Y-79856429D01*
X168460985Y-79862238D01*
X168845353Y-80131376D01*
X168853935Y-80137962D01*
X169213370Y-80439564D01*
X169221345Y-80446872D01*
X169553127Y-80778654D01*
X169560435Y-80786629D01*
X169862037Y-81146064D01*
X169868623Y-81154646D01*
X170137761Y-81539014D01*
X170143573Y-81548138D01*
X170378176Y-81954483D01*
X170383171Y-81964078D01*
X170581470Y-82389331D01*
X170585610Y-82399326D01*
X170746089Y-82840239D01*
X170749342Y-82850555D01*
X170870786Y-83303790D01*
X170873127Y-83314352D01*
X170954603Y-83776432D01*
X170956015Y-83787156D01*
X170996969Y-84255252D01*
X170997434Y-84264708D01*
X170999993Y-84499357D01*
X171000000Y-84500709D01*
X171000000Y-115499290D01*
X170999993Y-115500642D01*
X170997434Y-115735291D01*
X170996969Y-115744747D01*
X170956015Y-116212843D01*
X170954603Y-116223567D01*
X170873127Y-116685647D01*
X170870786Y-116696209D01*
X170749342Y-117149444D01*
X170746089Y-117159760D01*
X170585610Y-117600673D01*
X170581470Y-117610668D01*
X170383171Y-118035921D01*
X170378176Y-118045516D01*
X170143573Y-118451861D01*
X170137761Y-118460985D01*
X169868623Y-118845353D01*
X169862037Y-118853935D01*
X169560435Y-119213370D01*
X169553127Y-119221345D01*
X169221345Y-119553127D01*
X169213370Y-119560435D01*
X168853935Y-119862037D01*
X168845353Y-119868623D01*
X168460985Y-120137761D01*
X168451861Y-120143573D01*
X168045516Y-120378176D01*
X168035921Y-120383171D01*
X167610668Y-120581470D01*
X167600673Y-120585610D01*
X167159760Y-120746089D01*
X167149444Y-120749342D01*
X166696209Y-120870786D01*
X166685647Y-120873127D01*
X166430502Y-120918116D01*
X166408970Y-120920000D01*
X133591036Y-120920000D01*
X133569504Y-120918116D01*
X133314352Y-120873126D01*
X133303790Y-120870785D01*
X132850556Y-120749341D01*
X132840240Y-120746088D01*
X132399327Y-120585609D01*
X132389332Y-120581469D01*
X131964078Y-120383170D01*
X131954483Y-120378175D01*
X131548139Y-120143572D01*
X131539015Y-120137760D01*
X131154654Y-119868627D01*
X131146072Y-119862042D01*
X130786623Y-119560429D01*
X130778648Y-119553120D01*
X130446879Y-119221351D01*
X130439570Y-119213376D01*
X130137957Y-118853927D01*
X130131372Y-118845345D01*
X129862239Y-118460984D01*
X129856427Y-118451860D01*
X129855641Y-118450499D01*
X129621822Y-118045512D01*
X129616829Y-118035921D01*
X129418524Y-117610653D01*
X129414396Y-117600687D01*
X129253907Y-117159746D01*
X129250662Y-117149457D01*
X129129210Y-116696192D01*
X129126876Y-116685664D01*
X129045397Y-116223567D01*
X129043985Y-116212843D01*
X129003030Y-115744734D01*
X129002566Y-115735291D01*
X129001646Y-115650919D01*
X129000006Y-115500527D01*
X129000004Y-115499996D01*
X131544500Y-115499996D01*
X131544500Y-115500003D01*
X131564484Y-115843113D01*
X131564485Y-115843124D01*
X131624163Y-116181575D01*
X131624166Y-116181588D01*
X131722737Y-116510840D01*
X131858865Y-116826417D01*
X131858871Y-116826430D01*
X132030716Y-117124075D01*
X132235952Y-117399755D01*
X132235957Y-117399761D01*
X132342792Y-117512999D01*
X132471813Y-117649753D01*
X132471819Y-117649758D01*
X132471821Y-117649760D01*
X132735093Y-117870672D01*
X132735098Y-117870675D01*
X133022250Y-118059538D01*
X133124329Y-118110804D01*
X133329378Y-118213785D01*
X133329384Y-118213787D01*
X133329386Y-118213788D01*
X133652353Y-118331338D01*
X133986783Y-118410599D01*
X134328153Y-118450500D01*
X134328160Y-118450500D01*
X134671840Y-118450500D01*
X134671847Y-118450500D01*
X135013217Y-118410599D01*
X135347647Y-118331338D01*
X135670614Y-118213788D01*
X135670617Y-118213786D01*
X135670621Y-118213785D01*
X135774487Y-118161620D01*
X135977750Y-118059538D01*
X136264902Y-117870675D01*
X136528187Y-117649753D01*
X136764044Y-117399759D01*
X136969284Y-117124074D01*
X137141131Y-116826426D01*
X137152531Y-116799999D01*
X138244750Y-116799999D01*
X138244750Y-116800000D01*
X138263670Y-116943708D01*
X138263671Y-116943712D01*
X138319137Y-117077622D01*
X138319138Y-117077624D01*
X138319139Y-117077625D01*
X138407379Y-117192621D01*
X138522375Y-117280861D01*
X138522377Y-117280861D01*
X138528823Y-117285808D01*
X138527249Y-117287858D01*
X138566590Y-117329118D01*
X138579812Y-117397725D01*
X138569168Y-117437449D01*
X138534665Y-117512999D01*
X138534662Y-117513008D01*
X138534662Y-117513009D01*
X138514977Y-117580048D01*
X138514976Y-117580052D01*
X138494500Y-117722468D01*
X138494500Y-118599999D01*
X138494500Y-119876000D01*
X138494501Y-119876009D01*
X138506052Y-119983450D01*
X138506054Y-119983462D01*
X138517260Y-120034972D01*
X138551383Y-120137497D01*
X138551386Y-120137503D01*
X138629171Y-120258537D01*
X138629179Y-120258548D01*
X138674923Y-120311340D01*
X138674926Y-120311343D01*
X138674930Y-120311347D01*
X138783664Y-120405567D01*
X138783667Y-120405568D01*
X138783668Y-120405569D01*
X138877925Y-120448616D01*
X138914541Y-120465338D01*
X138981580Y-120485023D01*
X138981584Y-120485024D01*
X139124000Y-120505500D01*
X139124003Y-120505500D01*
X150849557Y-120505500D01*
X150849563Y-120505500D01*
X150945228Y-120496365D01*
X150991313Y-120487483D01*
X151083517Y-120460410D01*
X151208122Y-120388472D01*
X151263044Y-120345282D01*
X151263045Y-120345281D01*
X151362335Y-120241151D01*
X151428266Y-120113266D01*
X151451119Y-120047239D01*
X151451120Y-120047236D01*
X151452458Y-120040292D01*
X151484472Y-119978191D01*
X151544980Y-119943255D01*
X151590397Y-119940820D01*
X151700000Y-119955250D01*
X151810708Y-119940674D01*
X151879741Y-119951439D01*
X151931997Y-119997818D01*
X151945869Y-120028677D01*
X151977824Y-120137503D01*
X151977826Y-120137507D01*
X152055608Y-120258537D01*
X152055616Y-120258548D01*
X152101360Y-120311340D01*
X152101363Y-120311343D01*
X152101367Y-120311347D01*
X152210101Y-120405567D01*
X152210104Y-120405568D01*
X152210105Y-120405569D01*
X152304362Y-120448616D01*
X152340978Y-120465338D01*
X152408017Y-120485023D01*
X152408021Y-120485024D01*
X152550437Y-120505500D01*
X152550440Y-120505500D01*
X161675990Y-120505500D01*
X161676000Y-120505500D01*
X161783456Y-120493947D01*
X161834967Y-120482741D01*
X161869197Y-120471347D01*
X161937497Y-120448616D01*
X161937501Y-120448613D01*
X161937504Y-120448613D01*
X162058543Y-120370825D01*
X162111347Y-120325070D01*
X162205567Y-120216336D01*
X162265338Y-120085459D01*
X162285023Y-120018420D01*
X162285024Y-120018416D01*
X162305500Y-119876000D01*
X162305500Y-115658129D01*
X162325185Y-115591090D01*
X162377989Y-115545335D01*
X162447147Y-115535391D01*
X162510703Y-115564416D01*
X162548477Y-115623194D01*
X162553290Y-115650919D01*
X162564484Y-115843113D01*
X162564485Y-115843124D01*
X162624163Y-116181575D01*
X162624166Y-116181588D01*
X162722737Y-116510840D01*
X162858865Y-116826417D01*
X162858871Y-116826430D01*
X163030716Y-117124075D01*
X163235952Y-117399755D01*
X163235957Y-117399761D01*
X163342792Y-117512999D01*
X163471813Y-117649753D01*
X163471819Y-117649758D01*
X163471821Y-117649760D01*
X163735093Y-117870672D01*
X163735098Y-117870675D01*
X164022250Y-118059538D01*
X164124329Y-118110804D01*
X164329378Y-118213785D01*
X164329384Y-118213787D01*
X164329386Y-118213788D01*
X164652353Y-118331338D01*
X164986783Y-118410599D01*
X165328153Y-118450500D01*
X165328160Y-118450500D01*
X165671840Y-118450500D01*
X165671847Y-118450500D01*
X166013217Y-118410599D01*
X166347647Y-118331338D01*
X166670614Y-118213788D01*
X166670617Y-118213786D01*
X166670621Y-118213785D01*
X166774487Y-118161620D01*
X166977750Y-118059538D01*
X167264902Y-117870675D01*
X167528187Y-117649753D01*
X167764044Y-117399759D01*
X167969284Y-117124074D01*
X168141131Y-116826426D01*
X168277262Y-116510841D01*
X168375834Y-116181585D01*
X168435516Y-115843113D01*
X168455500Y-115500000D01*
X168435516Y-115156887D01*
X168412913Y-115028701D01*
X168375836Y-114818424D01*
X168375833Y-114818411D01*
X168277262Y-114489159D01*
X168247796Y-114420850D01*
X168141131Y-114173574D01*
X167969284Y-113875926D01*
X167969283Y-113875924D01*
X167764047Y-113600244D01*
X167764042Y-113600238D01*
X167649998Y-113479359D01*
X167528187Y-113350247D01*
X167528180Y-113350241D01*
X167528178Y-113350239D01*
X167264906Y-113129327D01*
X167121326Y-113034893D01*
X166977750Y-112940462D01*
X166975956Y-112939561D01*
X166670621Y-112786214D01*
X166670615Y-112786212D01*
X166347648Y-112668662D01*
X166347645Y-112668661D01*
X166013218Y-112589401D01*
X165970545Y-112584413D01*
X165671847Y-112549500D01*
X165328153Y-112549500D01*
X165029454Y-112584413D01*
X164986782Y-112589401D01*
X164986780Y-112589401D01*
X164652354Y-112668661D01*
X164652351Y-112668662D01*
X164329384Y-112786212D01*
X164329378Y-112786214D01*
X164022253Y-112940460D01*
X163735093Y-113129327D01*
X163471821Y-113350239D01*
X163471811Y-113350249D01*
X163235957Y-113600238D01*
X163235952Y-113600244D01*
X163030716Y-113875924D01*
X162858871Y-114173569D01*
X162858865Y-114173582D01*
X162722737Y-114489159D01*
X162624166Y-114818411D01*
X162624163Y-114818424D01*
X162564485Y-115156875D01*
X162564484Y-115156886D01*
X162553290Y-115349080D01*
X162529741Y-115414862D01*
X162474366Y-115457469D01*
X162404746Y-115463374D01*
X162342986Y-115430703D01*
X162308693Y-115369828D01*
X162305500Y-115341870D01*
X162305500Y-107799999D01*
X163844750Y-107799999D01*
X163844750Y-107800000D01*
X163863670Y-107943708D01*
X163863671Y-107943712D01*
X163919137Y-108077622D01*
X163919138Y-108077624D01*
X163919139Y-108077625D01*
X164007379Y-108192621D01*
X164016711Y-108199782D01*
X164019113Y-108201625D01*
X164060316Y-108258053D01*
X164064470Y-108327799D01*
X164030257Y-108388719D01*
X164019113Y-108398375D01*
X164007381Y-108407377D01*
X163919137Y-108522377D01*
X163863671Y-108656287D01*
X163863670Y-108656291D01*
X163844750Y-108799999D01*
X163844750Y-108800000D01*
X163863670Y-108943708D01*
X163863671Y-108943712D01*
X163919137Y-109077622D01*
X163919138Y-109077624D01*
X163919139Y-109077625D01*
X164007379Y-109192621D01*
X164122375Y-109280861D01*
X164122376Y-109280861D01*
X164122377Y-109280862D01*
X164167013Y-109299350D01*
X164256291Y-109336330D01*
X164383280Y-109353048D01*
X164399999Y-109355250D01*
X164400000Y-109355250D01*
X164400001Y-109355250D01*
X164414977Y-109353278D01*
X164543709Y-109336330D01*
X164677625Y-109280861D01*
X164792621Y-109192621D01*
X164880861Y-109077625D01*
X164936330Y-108943709D01*
X164955250Y-108800000D01*
X164936330Y-108656291D01*
X164880861Y-108522375D01*
X164792621Y-108407379D01*
X164780886Y-108398374D01*
X164739685Y-108341950D01*
X164735529Y-108272204D01*
X164769740Y-108211283D01*
X164780876Y-108201632D01*
X164792621Y-108192621D01*
X164880861Y-108077625D01*
X164936330Y-107943709D01*
X164955250Y-107800000D01*
X164936330Y-107656291D01*
X164880861Y-107522375D01*
X164792621Y-107407379D01*
X164677625Y-107319139D01*
X164677624Y-107319138D01*
X164677622Y-107319137D01*
X164543712Y-107263671D01*
X164543710Y-107263670D01*
X164543709Y-107263670D01*
X164471854Y-107254210D01*
X164400001Y-107244750D01*
X164399999Y-107244750D01*
X164256291Y-107263670D01*
X164256287Y-107263671D01*
X164122377Y-107319137D01*
X164007379Y-107407379D01*
X163919137Y-107522377D01*
X163863671Y-107656287D01*
X163863670Y-107656291D01*
X163844750Y-107799999D01*
X162305500Y-107799999D01*
X162305500Y-103724010D01*
X162305500Y-103724000D01*
X162293947Y-103616544D01*
X162282741Y-103565033D01*
X162282637Y-103564722D01*
X162248616Y-103462502D01*
X162248613Y-103462496D01*
X162234400Y-103440380D01*
X166204370Y-103440380D01*
X166220780Y-103565027D01*
X166223290Y-103584088D01*
X166223291Y-103584092D01*
X166278757Y-103718002D01*
X166278758Y-103718004D01*
X166278759Y-103718005D01*
X166366999Y-103833001D01*
X166481995Y-103921241D01*
X166481998Y-103921242D01*
X166481999Y-103921243D01*
X166489034Y-103925305D01*
X166487673Y-103927661D01*
X166531689Y-103963132D01*
X166553753Y-104029426D01*
X166536473Y-104097125D01*
X166505319Y-104132226D01*
X166407381Y-104207377D01*
X166319137Y-104322377D01*
X166263671Y-104456287D01*
X166263670Y-104456291D01*
X166244750Y-104599999D01*
X166244750Y-104600000D01*
X166263670Y-104743708D01*
X166263671Y-104743712D01*
X166319137Y-104877622D01*
X166319138Y-104877624D01*
X166319139Y-104877625D01*
X166407379Y-104992621D01*
X166522375Y-105080861D01*
X166656291Y-105136330D01*
X166783280Y-105153048D01*
X166799999Y-105155250D01*
X166800000Y-105155250D01*
X166800001Y-105155250D01*
X166814977Y-105153278D01*
X166943709Y-105136330D01*
X167077625Y-105080861D01*
X167192621Y-104992621D01*
X167280861Y-104877625D01*
X167336330Y-104743709D01*
X167355250Y-104600000D01*
X167336330Y-104456291D01*
X167280861Y-104322375D01*
X167192621Y-104207379D01*
X167077625Y-104119139D01*
X167077622Y-104119138D01*
X167077620Y-104119136D01*
X167070586Y-104115075D01*
X167071944Y-104112721D01*
X167027918Y-104077229D01*
X167005865Y-104010931D01*
X167023157Y-103943234D01*
X167054297Y-103908156D01*
X167152241Y-103833001D01*
X167240481Y-103718005D01*
X167295950Y-103584089D01*
X167314870Y-103440380D01*
X167295950Y-103296671D01*
X167240481Y-103162755D01*
X167152241Y-103047759D01*
X167037245Y-102959519D01*
X167037244Y-102959518D01*
X167037242Y-102959517D01*
X166903332Y-102904051D01*
X166903330Y-102904050D01*
X166903329Y-102904050D01*
X166831474Y-102894590D01*
X166759621Y-102885130D01*
X166759619Y-102885130D01*
X166615911Y-102904050D01*
X166615907Y-102904051D01*
X166481997Y-102959517D01*
X166366999Y-103047759D01*
X166278757Y-103162757D01*
X166223291Y-103296667D01*
X166223290Y-103296671D01*
X166212556Y-103378206D01*
X166204370Y-103440380D01*
X162234400Y-103440380D01*
X162225010Y-103425770D01*
X162170825Y-103341457D01*
X162132018Y-103296671D01*
X162125076Y-103288659D01*
X162125072Y-103288656D01*
X162125070Y-103288653D01*
X162016336Y-103194433D01*
X162016333Y-103194431D01*
X162016331Y-103194430D01*
X161885465Y-103134664D01*
X161885460Y-103134662D01*
X161885459Y-103134662D01*
X161818420Y-103114977D01*
X161818422Y-103114977D01*
X161818417Y-103114976D01*
X161756347Y-103106052D01*
X161676000Y-103094500D01*
X144461369Y-103094500D01*
X144461364Y-103094500D01*
X144328226Y-103112351D01*
X144328217Y-103112352D01*
X144328214Y-103112353D01*
X144265194Y-103129561D01*
X144265192Y-103129561D01*
X144186643Y-103162757D01*
X144141442Y-103181859D01*
X144141439Y-103181860D01*
X144141436Y-103181863D01*
X144029205Y-103271864D01*
X144029190Y-103271878D01*
X143985708Y-103318360D01*
X143981464Y-103322897D01*
X143966214Y-103344750D01*
X143940177Y-103382060D01*
X143885669Y-103425770D01*
X143816181Y-103433073D01*
X143785345Y-103421739D01*
X143785134Y-103422249D01*
X143643712Y-103363671D01*
X143643710Y-103363670D01*
X143643709Y-103363670D01*
X143571854Y-103354210D01*
X143500001Y-103344750D01*
X143499999Y-103344750D01*
X143356291Y-103363670D01*
X143356287Y-103363671D01*
X143214866Y-103422249D01*
X143214253Y-103420770D01*
X143155481Y-103435025D01*
X143089455Y-103412169D01*
X143057074Y-103378206D01*
X143033460Y-103341462D01*
X143033451Y-103341451D01*
X142987707Y-103288659D01*
X142987703Y-103288656D01*
X142987701Y-103288653D01*
X142878967Y-103194433D01*
X142878964Y-103194431D01*
X142878962Y-103194430D01*
X142748096Y-103134664D01*
X142748091Y-103134662D01*
X142748090Y-103134662D01*
X142681051Y-103114977D01*
X142681053Y-103114977D01*
X142681048Y-103114976D01*
X142618978Y-103106052D01*
X142538631Y-103094500D01*
X139124000Y-103094500D01*
X139123991Y-103094500D01*
X139123990Y-103094501D01*
X139016549Y-103106052D01*
X139016537Y-103106054D01*
X138965027Y-103117260D01*
X138862502Y-103151383D01*
X138862496Y-103151386D01*
X138741462Y-103229171D01*
X138741451Y-103229179D01*
X138688659Y-103274923D01*
X138594433Y-103383664D01*
X138594430Y-103383668D01*
X138534664Y-103514534D01*
X138514976Y-103581582D01*
X138509949Y-103616549D01*
X138494502Y-103723990D01*
X138494500Y-103724001D01*
X138494500Y-113977355D01*
X138494507Y-113979987D01*
X138494513Y-113981417D01*
X138494528Y-113983522D01*
X138502426Y-114034970D01*
X138503257Y-114040379D01*
X138516359Y-114125733D01*
X138535105Y-114187402D01*
X138535109Y-114187424D01*
X138535112Y-114187424D01*
X138536522Y-114192066D01*
X138536663Y-114192538D01*
X138536679Y-114192579D01*
X138536681Y-114192586D01*
X138597694Y-114322889D01*
X138684224Y-114420850D01*
X138692950Y-114430728D01*
X138718156Y-114452152D01*
X138746184Y-114475975D01*
X138746189Y-114475978D01*
X138746194Y-114475982D01*
X138818116Y-114521241D01*
X138867958Y-114552606D01*
X138922375Y-114576834D01*
X138961542Y-114594273D01*
X138983990Y-114607234D01*
X139021579Y-114634544D01*
X139040843Y-114651889D01*
X139069343Y-114683541D01*
X139069353Y-114683552D01*
X139071933Y-114686418D01*
X139087160Y-114707378D01*
X139110392Y-114747615D01*
X139120937Y-114771299D01*
X139135291Y-114815476D01*
X139140681Y-114840833D01*
X139145537Y-114887038D01*
X139145537Y-114912961D01*
X139140681Y-114959162D01*
X139135291Y-114984517D01*
X139120935Y-115028701D01*
X139110391Y-115052384D01*
X139087162Y-115092618D01*
X139071923Y-115113592D01*
X139040837Y-115148115D01*
X139021574Y-115165459D01*
X138983996Y-115192761D01*
X138961548Y-115205722D01*
X138867590Y-115247556D01*
X138865221Y-115248620D01*
X138864348Y-115249014D01*
X138862494Y-115249855D01*
X138862493Y-115249855D01*
X138741462Y-115327638D01*
X138741451Y-115327647D01*
X138688659Y-115373391D01*
X138594433Y-115482132D01*
X138594430Y-115482136D01*
X138534664Y-115613002D01*
X138514976Y-115680050D01*
X138494500Y-115822469D01*
X138494500Y-115877355D01*
X138494507Y-115879987D01*
X138494513Y-115881418D01*
X138494528Y-115883514D01*
X138516359Y-116025736D01*
X138536679Y-116092583D01*
X138568882Y-116161358D01*
X138579483Y-116230419D01*
X138551064Y-116294248D01*
X138528169Y-116313340D01*
X138528823Y-116314192D01*
X138522377Y-116319138D01*
X138522375Y-116319139D01*
X138407379Y-116407379D01*
X138319137Y-116522377D01*
X138263671Y-116656287D01*
X138263670Y-116656291D01*
X138244750Y-116799999D01*
X137152531Y-116799999D01*
X137277262Y-116510841D01*
X137375834Y-116181585D01*
X137435516Y-115843113D01*
X137455500Y-115500000D01*
X137435516Y-115156887D01*
X137412913Y-115028701D01*
X137375836Y-114818424D01*
X137375833Y-114818411D01*
X137277262Y-114489159D01*
X137247796Y-114420850D01*
X137141131Y-114173574D01*
X136969284Y-113875926D01*
X136969283Y-113875924D01*
X136764047Y-113600244D01*
X136764042Y-113600238D01*
X136649998Y-113479359D01*
X136528187Y-113350247D01*
X136528180Y-113350241D01*
X136528178Y-113350239D01*
X136264906Y-113129327D01*
X136121326Y-113034893D01*
X135977750Y-112940462D01*
X135975956Y-112939561D01*
X135670621Y-112786214D01*
X135670615Y-112786212D01*
X135347648Y-112668662D01*
X135347645Y-112668661D01*
X135013218Y-112589401D01*
X134970545Y-112584413D01*
X134671847Y-112549500D01*
X134328153Y-112549500D01*
X134029454Y-112584413D01*
X133986782Y-112589401D01*
X133986780Y-112589401D01*
X133652354Y-112668661D01*
X133652351Y-112668662D01*
X133329384Y-112786212D01*
X133329378Y-112786214D01*
X133022253Y-112940460D01*
X132735093Y-113129327D01*
X132471821Y-113350239D01*
X132471811Y-113350249D01*
X132235957Y-113600238D01*
X132235952Y-113600244D01*
X132030716Y-113875924D01*
X131858871Y-114173569D01*
X131858865Y-114173582D01*
X131722737Y-114489159D01*
X131624166Y-114818411D01*
X131624163Y-114818424D01*
X131564485Y-115156875D01*
X131564484Y-115156886D01*
X131544500Y-115499996D01*
X129000004Y-115499996D01*
X129000000Y-115499223D01*
X129000000Y-101600000D01*
X149844750Y-101600000D01*
X149857915Y-101700000D01*
X149863670Y-101743708D01*
X149863671Y-101743712D01*
X149919137Y-101877622D01*
X149919138Y-101877624D01*
X149919139Y-101877625D01*
X150007379Y-101992621D01*
X150122375Y-102080861D01*
X150122376Y-102080861D01*
X150122377Y-102080862D01*
X150167013Y-102099350D01*
X150256291Y-102136330D01*
X150383280Y-102153048D01*
X150399999Y-102155250D01*
X150400000Y-102155250D01*
X150400001Y-102155250D01*
X150414977Y-102153278D01*
X150543709Y-102136330D01*
X150677625Y-102080861D01*
X150792621Y-101992621D01*
X150880861Y-101877625D01*
X150936330Y-101743709D01*
X150942085Y-101699999D01*
X157744750Y-101699999D01*
X157744750Y-101700000D01*
X157763670Y-101843708D01*
X157763671Y-101843712D01*
X157819137Y-101977622D01*
X157819138Y-101977624D01*
X157819139Y-101977625D01*
X157907379Y-102092621D01*
X158022375Y-102180861D01*
X158156291Y-102236330D01*
X158283280Y-102253048D01*
X158299999Y-102255250D01*
X158300000Y-102255250D01*
X158300001Y-102255250D01*
X158314977Y-102253278D01*
X158443709Y-102236330D01*
X158577625Y-102180861D01*
X158692621Y-102092621D01*
X158780861Y-101977625D01*
X158836330Y-101843709D01*
X158855250Y-101700000D01*
X158836330Y-101556291D01*
X158780861Y-101422375D01*
X158692621Y-101307379D01*
X158577625Y-101219139D01*
X158577624Y-101219138D01*
X158577622Y-101219137D01*
X158443712Y-101163671D01*
X158443710Y-101163670D01*
X158443709Y-101163670D01*
X158371854Y-101154210D01*
X158300001Y-101144750D01*
X158299999Y-101144750D01*
X158156291Y-101163670D01*
X158156287Y-101163671D01*
X158022377Y-101219137D01*
X157907379Y-101307379D01*
X157819137Y-101422377D01*
X157763671Y-101556287D01*
X157763670Y-101556291D01*
X157744750Y-101699999D01*
X150942085Y-101699999D01*
X150955250Y-101600000D01*
X150936330Y-101456291D01*
X150880861Y-101322375D01*
X150792621Y-101207379D01*
X150677625Y-101119139D01*
X150677624Y-101119138D01*
X150677622Y-101119137D01*
X150543712Y-101063671D01*
X150543710Y-101063670D01*
X150543709Y-101063670D01*
X150471854Y-101054210D01*
X150400001Y-101044750D01*
X150399999Y-101044750D01*
X150256291Y-101063670D01*
X150256287Y-101063671D01*
X150122377Y-101119137D01*
X150007379Y-101207379D01*
X149919137Y-101322377D01*
X149863671Y-101456287D01*
X149863670Y-101456291D01*
X149850505Y-101556291D01*
X149844750Y-101600000D01*
X129000000Y-101600000D01*
X129000000Y-98999999D01*
X143844750Y-98999999D01*
X143844750Y-99000000D01*
X143863670Y-99143708D01*
X143863671Y-99143712D01*
X143919137Y-99277622D01*
X143919138Y-99277624D01*
X143919139Y-99277625D01*
X144007379Y-99392621D01*
X144122375Y-99480861D01*
X144256291Y-99536330D01*
X144383280Y-99553048D01*
X144399999Y-99555250D01*
X144400000Y-99555250D01*
X144400001Y-99555250D01*
X144414977Y-99553278D01*
X144543709Y-99536330D01*
X144677625Y-99480861D01*
X144792621Y-99392621D01*
X144880861Y-99277625D01*
X144936330Y-99143709D01*
X144955250Y-99000000D01*
X144936330Y-98856291D01*
X144925440Y-98829999D01*
X147624571Y-98829999D01*
X147624571Y-98830000D01*
X147644244Y-99042310D01*
X147702596Y-99247392D01*
X147702596Y-99247394D01*
X147797632Y-99438253D01*
X147871697Y-99536330D01*
X147926128Y-99608407D01*
X148083698Y-99752052D01*
X148264981Y-99864298D01*
X148463802Y-99941321D01*
X148673390Y-99980500D01*
X148673392Y-99980500D01*
X148886608Y-99980500D01*
X148886610Y-99980500D01*
X149096198Y-99941321D01*
X149295019Y-99864298D01*
X149476302Y-99752052D01*
X149633872Y-99608407D01*
X149762366Y-99438255D01*
X149785089Y-99392620D01*
X149857403Y-99247394D01*
X149857403Y-99247393D01*
X149857405Y-99247389D01*
X149915756Y-99042310D01*
X149926529Y-98926047D01*
X149952315Y-98861111D01*
X149994622Y-98830804D01*
X150103130Y-98830804D01*
X150139503Y-98851668D01*
X150171693Y-98913681D01*
X150173471Y-98926048D01*
X150184244Y-99042310D01*
X150242596Y-99247392D01*
X150242596Y-99247394D01*
X150337632Y-99438253D01*
X150411697Y-99536330D01*
X150466128Y-99608407D01*
X150623698Y-99752052D01*
X150804981Y-99864298D01*
X151003802Y-99941321D01*
X151213390Y-99980500D01*
X151213392Y-99980500D01*
X151426608Y-99980500D01*
X151426610Y-99980500D01*
X151636198Y-99941321D01*
X151835019Y-99864298D01*
X152016302Y-99752052D01*
X152173872Y-99608407D01*
X152302366Y-99438255D01*
X152325089Y-99392620D01*
X152397403Y-99247394D01*
X152397403Y-99247393D01*
X152397405Y-99247389D01*
X152455756Y-99042310D01*
X152466529Y-98926047D01*
X152492315Y-98861111D01*
X152534622Y-98830804D01*
X152643130Y-98830804D01*
X152679503Y-98851668D01*
X152711693Y-98913681D01*
X152713471Y-98926048D01*
X152724244Y-99042310D01*
X152782596Y-99247392D01*
X152782596Y-99247394D01*
X152877632Y-99438253D01*
X152951697Y-99536330D01*
X153006128Y-99608407D01*
X153163698Y-99752052D01*
X153344981Y-99864298D01*
X153543802Y-99941321D01*
X153753390Y-99980500D01*
X153753392Y-99980500D01*
X153966608Y-99980500D01*
X153966610Y-99980500D01*
X154176198Y-99941321D01*
X154375019Y-99864298D01*
X154556302Y-99752052D01*
X154713872Y-99608407D01*
X154842366Y-99438255D01*
X154865089Y-99392620D01*
X154937403Y-99247394D01*
X154937403Y-99247393D01*
X154937405Y-99247389D01*
X154995756Y-99042310D01*
X155006529Y-98926047D01*
X155032315Y-98861111D01*
X155074622Y-98830804D01*
X155183130Y-98830804D01*
X155219503Y-98851668D01*
X155251693Y-98913681D01*
X155253471Y-98926048D01*
X155264244Y-99042310D01*
X155322596Y-99247392D01*
X155322596Y-99247394D01*
X155417632Y-99438253D01*
X155491697Y-99536330D01*
X155546128Y-99608407D01*
X155703698Y-99752052D01*
X155884981Y-99864298D01*
X156083802Y-99941321D01*
X156293390Y-99980500D01*
X156293392Y-99980500D01*
X156506608Y-99980500D01*
X156506610Y-99980500D01*
X156716198Y-99941321D01*
X156915019Y-99864298D01*
X157096302Y-99752052D01*
X157253872Y-99608407D01*
X157382366Y-99438255D01*
X157401414Y-99400000D01*
X166444750Y-99400000D01*
X166462698Y-99536329D01*
X166463670Y-99543708D01*
X166463671Y-99543712D01*
X166519137Y-99677622D01*
X166519138Y-99677624D01*
X166519139Y-99677625D01*
X166607379Y-99792621D01*
X166722375Y-99880861D01*
X166856291Y-99936330D01*
X166983280Y-99953048D01*
X166999999Y-99955250D01*
X167000000Y-99955250D01*
X167000001Y-99955250D01*
X167014977Y-99953278D01*
X167143709Y-99936330D01*
X167277625Y-99880861D01*
X167392621Y-99792621D01*
X167480861Y-99677625D01*
X167536330Y-99543709D01*
X167555250Y-99400000D01*
X167536330Y-99256291D01*
X167480861Y-99122375D01*
X167392621Y-99007379D01*
X167277625Y-98919139D01*
X167277624Y-98919138D01*
X167277622Y-98919137D01*
X167143712Y-98863671D01*
X167143710Y-98863670D01*
X167143709Y-98863670D01*
X167071854Y-98854210D01*
X167000001Y-98844750D01*
X166999999Y-98844750D01*
X166856291Y-98863670D01*
X166856287Y-98863671D01*
X166722377Y-98919137D01*
X166607379Y-99007379D01*
X166519137Y-99122377D01*
X166463671Y-99256287D01*
X166463670Y-99256291D01*
X166445722Y-99392620D01*
X166444750Y-99400000D01*
X157401414Y-99400000D01*
X157405089Y-99392620D01*
X157477403Y-99247394D01*
X157477403Y-99247393D01*
X157477405Y-99247389D01*
X157535756Y-99042310D01*
X157555429Y-98830000D01*
X157535756Y-98617690D01*
X157477405Y-98412611D01*
X157477403Y-98412606D01*
X157477403Y-98412605D01*
X157382367Y-98221746D01*
X157365944Y-98199999D01*
X165644750Y-98199999D01*
X165644750Y-98200000D01*
X165663670Y-98343708D01*
X165663671Y-98343712D01*
X165719137Y-98477622D01*
X165719138Y-98477624D01*
X165719139Y-98477625D01*
X165807379Y-98592621D01*
X165922375Y-98680861D01*
X166056291Y-98736330D01*
X166183280Y-98753048D01*
X166199999Y-98755250D01*
X166200000Y-98755250D01*
X166200001Y-98755250D01*
X166214977Y-98753278D01*
X166343709Y-98736330D01*
X166477625Y-98680861D01*
X166592621Y-98592621D01*
X166680861Y-98477625D01*
X166736330Y-98343709D01*
X166755250Y-98200000D01*
X166736330Y-98056291D01*
X166680861Y-97922375D01*
X166592621Y-97807379D01*
X166477625Y-97719139D01*
X166477624Y-97719138D01*
X166477622Y-97719137D01*
X166343712Y-97663671D01*
X166343710Y-97663670D01*
X166343709Y-97663670D01*
X166251597Y-97651543D01*
X166200001Y-97644750D01*
X166199999Y-97644750D01*
X166056291Y-97663670D01*
X166056287Y-97663671D01*
X165922377Y-97719137D01*
X165807379Y-97807379D01*
X165719137Y-97922377D01*
X165663671Y-98056287D01*
X165663670Y-98056291D01*
X165644750Y-98199999D01*
X157365944Y-98199999D01*
X157253872Y-98051593D01*
X157176283Y-97980861D01*
X157096302Y-97907948D01*
X156915019Y-97795702D01*
X156915017Y-97795701D01*
X156717380Y-97719137D01*
X156716198Y-97718679D01*
X156506610Y-97679500D01*
X156293390Y-97679500D01*
X156083802Y-97718679D01*
X156083799Y-97718679D01*
X156083799Y-97718680D01*
X155884982Y-97795701D01*
X155884980Y-97795702D01*
X155703699Y-97907947D01*
X155546127Y-98051593D01*
X155417632Y-98221746D01*
X155322596Y-98412605D01*
X155322596Y-98412607D01*
X155264244Y-98617689D01*
X155253471Y-98733951D01*
X155227685Y-98798888D01*
X155183130Y-98830804D01*
X155074622Y-98830804D01*
X155076869Y-98829194D01*
X155040497Y-98808331D01*
X155008307Y-98746318D01*
X155006529Y-98733951D01*
X155005456Y-98722375D01*
X154995756Y-98617690D01*
X154937405Y-98412611D01*
X154937403Y-98412606D01*
X154937403Y-98412605D01*
X154842367Y-98221746D01*
X154713872Y-98051593D01*
X154636283Y-97980861D01*
X154556302Y-97907948D01*
X154375019Y-97795702D01*
X154375017Y-97795701D01*
X154177380Y-97719137D01*
X154176198Y-97718679D01*
X153966610Y-97679500D01*
X153753390Y-97679500D01*
X153543802Y-97718679D01*
X153543799Y-97718679D01*
X153543799Y-97718680D01*
X153344982Y-97795701D01*
X153344980Y-97795702D01*
X153163699Y-97907947D01*
X153006127Y-98051593D01*
X152877632Y-98221746D01*
X152782596Y-98412605D01*
X152782596Y-98412607D01*
X152724244Y-98617689D01*
X152713471Y-98733951D01*
X152687685Y-98798888D01*
X152643130Y-98830804D01*
X152534622Y-98830804D01*
X152536869Y-98829194D01*
X152500497Y-98808331D01*
X152468307Y-98746318D01*
X152466529Y-98733951D01*
X152465456Y-98722375D01*
X152455756Y-98617690D01*
X152397405Y-98412611D01*
X152397403Y-98412606D01*
X152397403Y-98412605D01*
X152302367Y-98221746D01*
X152173872Y-98051593D01*
X152096283Y-97980861D01*
X152016302Y-97907948D01*
X151835019Y-97795702D01*
X151835017Y-97795701D01*
X151637380Y-97719137D01*
X151636198Y-97718679D01*
X151426610Y-97679500D01*
X151213390Y-97679500D01*
X151003802Y-97718679D01*
X151003799Y-97718679D01*
X151003799Y-97718680D01*
X150804982Y-97795701D01*
X150804980Y-97795702D01*
X150623699Y-97907947D01*
X150466127Y-98051593D01*
X150337632Y-98221746D01*
X150242596Y-98412605D01*
X150242596Y-98412607D01*
X150184244Y-98617689D01*
X150173471Y-98733951D01*
X150147685Y-98798888D01*
X150103130Y-98830804D01*
X149994622Y-98830804D01*
X149996869Y-98829194D01*
X149960497Y-98808331D01*
X149928307Y-98746318D01*
X149926529Y-98733951D01*
X149925456Y-98722375D01*
X149915756Y-98617690D01*
X149857405Y-98412611D01*
X149857403Y-98412606D01*
X149857403Y-98412605D01*
X149762367Y-98221746D01*
X149633872Y-98051593D01*
X149556283Y-97980861D01*
X149476302Y-97907948D01*
X149295019Y-97795702D01*
X149295017Y-97795701D01*
X149097380Y-97719137D01*
X149096198Y-97718679D01*
X148886610Y-97679500D01*
X148673390Y-97679500D01*
X148463802Y-97718679D01*
X148463799Y-97718679D01*
X148463799Y-97718680D01*
X148264982Y-97795701D01*
X148264980Y-97795702D01*
X148083699Y-97907947D01*
X147926127Y-98051593D01*
X147797632Y-98221746D01*
X147702596Y-98412605D01*
X147702596Y-98412607D01*
X147644244Y-98617689D01*
X147624571Y-98829999D01*
X144925440Y-98829999D01*
X144886641Y-98736329D01*
X144880862Y-98722377D01*
X144880861Y-98722376D01*
X144880861Y-98722375D01*
X144792621Y-98607379D01*
X144677625Y-98519139D01*
X144677624Y-98519138D01*
X144677622Y-98519137D01*
X144543712Y-98463671D01*
X144543710Y-98463670D01*
X144543709Y-98463670D01*
X144471854Y-98454210D01*
X144400001Y-98444750D01*
X144399999Y-98444750D01*
X144256291Y-98463670D01*
X144256287Y-98463671D01*
X144122377Y-98519137D01*
X144007379Y-98607379D01*
X143919137Y-98722377D01*
X143863671Y-98856287D01*
X143863670Y-98856291D01*
X143844750Y-98999999D01*
X129000000Y-98999999D01*
X129000000Y-98191400D01*
X142394750Y-98191400D01*
X142394750Y-98191401D01*
X142413670Y-98335109D01*
X142413671Y-98335113D01*
X142469137Y-98469023D01*
X142469138Y-98469025D01*
X142469139Y-98469026D01*
X142557379Y-98584022D01*
X142672375Y-98672262D01*
X142672376Y-98672262D01*
X142672377Y-98672263D01*
X142717013Y-98690751D01*
X142806291Y-98727731D01*
X142933280Y-98744449D01*
X142949999Y-98746651D01*
X142950000Y-98746651D01*
X142950001Y-98746651D01*
X142964977Y-98744679D01*
X143093709Y-98727731D01*
X143227625Y-98672262D01*
X143342621Y-98584022D01*
X143430861Y-98469026D01*
X143486330Y-98335110D01*
X143505250Y-98191401D01*
X143505250Y-98191400D01*
X143505250Y-98183273D01*
X143506912Y-98183273D01*
X143516193Y-98123740D01*
X143562570Y-98071482D01*
X143612179Y-98053646D01*
X143743709Y-98036330D01*
X143877625Y-97980861D01*
X143992621Y-97892621D01*
X144080861Y-97777625D01*
X144121755Y-97678895D01*
X144165592Y-97624496D01*
X144231886Y-97602430D01*
X144299586Y-97619708D01*
X144347197Y-97670845D01*
X144359253Y-97710162D01*
X144363670Y-97743709D01*
X144363671Y-97743712D01*
X144419137Y-97877622D01*
X144419138Y-97877624D01*
X144419139Y-97877625D01*
X144507379Y-97992621D01*
X144622375Y-98080861D01*
X144756291Y-98136330D01*
X144883280Y-98153048D01*
X144899999Y-98155250D01*
X144900000Y-98155250D01*
X144900001Y-98155250D01*
X144914977Y-98153278D01*
X145043709Y-98136330D01*
X145177625Y-98080861D01*
X145292621Y-97992621D01*
X145380861Y-97877625D01*
X145436330Y-97743709D01*
X145455250Y-97600000D01*
X145436330Y-97456291D01*
X145380861Y-97322375D01*
X145292621Y-97207379D01*
X145177625Y-97119139D01*
X145177624Y-97119138D01*
X145177622Y-97119137D01*
X145043712Y-97063671D01*
X145043710Y-97063670D01*
X145043709Y-97063670D01*
X144971854Y-97054210D01*
X144900001Y-97044750D01*
X144899999Y-97044750D01*
X144756291Y-97063670D01*
X144756287Y-97063671D01*
X144622377Y-97119137D01*
X144507379Y-97207379D01*
X144419137Y-97322377D01*
X144378246Y-97421100D01*
X144334405Y-97475504D01*
X144268111Y-97497569D01*
X144200412Y-97480290D01*
X144152801Y-97429153D01*
X144140746Y-97389834D01*
X144136330Y-97356291D01*
X144080861Y-97222375D01*
X143992621Y-97107379D01*
X143877625Y-97019139D01*
X143877624Y-97019138D01*
X143877622Y-97019137D01*
X143743712Y-96963671D01*
X143743710Y-96963670D01*
X143743709Y-96963670D01*
X143671854Y-96954210D01*
X143600001Y-96944750D01*
X143599999Y-96944750D01*
X143456291Y-96963670D01*
X143456287Y-96963671D01*
X143322377Y-97019137D01*
X143207379Y-97107379D01*
X143119137Y-97222377D01*
X143063671Y-97356287D01*
X143063670Y-97356291D01*
X143044750Y-97499999D01*
X143044750Y-97508128D01*
X143043089Y-97508128D01*
X143033801Y-97567671D01*
X142987418Y-97619924D01*
X142937817Y-97637754D01*
X142806291Y-97655071D01*
X142806287Y-97655072D01*
X142672377Y-97710538D01*
X142557379Y-97798780D01*
X142469137Y-97913778D01*
X142413671Y-98047688D01*
X142413670Y-98047692D01*
X142394750Y-98191400D01*
X129000000Y-98191400D01*
X129000000Y-96289999D01*
X148894571Y-96289999D01*
X148894571Y-96290000D01*
X148914244Y-96502310D01*
X148972596Y-96707392D01*
X148972596Y-96707394D01*
X149067632Y-96898253D01*
X149196127Y-97068406D01*
X149196128Y-97068407D01*
X149353698Y-97212052D01*
X149534981Y-97324298D01*
X149733802Y-97401321D01*
X149943390Y-97440500D01*
X149943392Y-97440500D01*
X150156608Y-97440500D01*
X150156610Y-97440500D01*
X150366198Y-97401321D01*
X150565019Y-97324298D01*
X150746302Y-97212052D01*
X150903872Y-97068407D01*
X151032366Y-96898255D01*
X151127405Y-96707389D01*
X151185756Y-96502310D01*
X151196529Y-96386047D01*
X151222315Y-96321111D01*
X151264622Y-96290804D01*
X151373130Y-96290804D01*
X151409503Y-96311668D01*
X151441693Y-96373681D01*
X151443471Y-96386048D01*
X151454244Y-96502310D01*
X151512596Y-96707392D01*
X151512596Y-96707394D01*
X151607632Y-96898253D01*
X151736127Y-97068406D01*
X151736128Y-97068407D01*
X151893698Y-97212052D01*
X152074981Y-97324298D01*
X152273802Y-97401321D01*
X152483390Y-97440500D01*
X152483392Y-97440500D01*
X152696608Y-97440500D01*
X152696610Y-97440500D01*
X152906198Y-97401321D01*
X153105019Y-97324298D01*
X153286302Y-97212052D01*
X153443872Y-97068407D01*
X153572366Y-96898255D01*
X153667405Y-96707389D01*
X153725756Y-96502310D01*
X153736529Y-96386047D01*
X153762315Y-96321111D01*
X153804622Y-96290804D01*
X153913130Y-96290804D01*
X153949503Y-96311668D01*
X153981693Y-96373681D01*
X153983471Y-96386048D01*
X153994244Y-96502310D01*
X154052596Y-96707392D01*
X154052596Y-96707394D01*
X154147632Y-96898253D01*
X154276127Y-97068406D01*
X154276128Y-97068407D01*
X154433698Y-97212052D01*
X154614981Y-97324298D01*
X154813802Y-97401321D01*
X155023390Y-97440500D01*
X155023392Y-97440500D01*
X155236608Y-97440500D01*
X155236610Y-97440500D01*
X155446198Y-97401321D01*
X155645019Y-97324298D01*
X155826302Y-97212052D01*
X155983872Y-97068407D01*
X156112366Y-96898255D01*
X156207405Y-96707389D01*
X156265756Y-96502310D01*
X156272029Y-96434611D01*
X156297815Y-96369675D01*
X156354615Y-96328987D01*
X156424396Y-96325467D01*
X156485003Y-96360232D01*
X156517193Y-96422245D01*
X156519500Y-96446053D01*
X156519500Y-97259752D01*
X156531131Y-97318229D01*
X156531132Y-97318230D01*
X156575447Y-97384552D01*
X156641769Y-97428867D01*
X156641770Y-97428868D01*
X156700247Y-97440499D01*
X156700250Y-97440500D01*
X156700252Y-97440500D01*
X158639750Y-97440500D01*
X158639751Y-97440499D01*
X158654568Y-97437552D01*
X158698229Y-97428868D01*
X158698229Y-97428867D01*
X158698231Y-97428867D01*
X158764552Y-97384552D01*
X158808867Y-97318231D01*
X158808867Y-97318229D01*
X158808868Y-97318229D01*
X158820499Y-97259752D01*
X158820500Y-97259750D01*
X158820500Y-95320249D01*
X158820499Y-95320247D01*
X158808868Y-95261770D01*
X158808867Y-95261769D01*
X158764552Y-95195447D01*
X158698230Y-95151132D01*
X158698229Y-95151131D01*
X158639752Y-95139500D01*
X158639748Y-95139500D01*
X156700252Y-95139500D01*
X156700247Y-95139500D01*
X156641770Y-95151131D01*
X156641769Y-95151132D01*
X156575447Y-95195447D01*
X156531132Y-95261769D01*
X156531131Y-95261770D01*
X156519500Y-95320247D01*
X156519500Y-96133946D01*
X156499815Y-96200985D01*
X156447011Y-96246740D01*
X156377853Y-96256684D01*
X156314297Y-96227659D01*
X156276523Y-96168881D01*
X156272029Y-96145387D01*
X156270969Y-96133946D01*
X156265756Y-96077690D01*
X156207405Y-95872611D01*
X156207403Y-95872606D01*
X156207403Y-95872605D01*
X156112367Y-95681746D01*
X155983872Y-95511593D01*
X155826302Y-95367948D01*
X155645019Y-95255702D01*
X155645017Y-95255701D01*
X155489484Y-95195448D01*
X155446198Y-95178679D01*
X155236610Y-95139500D01*
X155023390Y-95139500D01*
X154813802Y-95178679D01*
X154813799Y-95178679D01*
X154813799Y-95178680D01*
X154614982Y-95255701D01*
X154614980Y-95255702D01*
X154433699Y-95367947D01*
X154276127Y-95511593D01*
X154147632Y-95681746D01*
X154052596Y-95872605D01*
X154052596Y-95872607D01*
X153994244Y-96077689D01*
X153983471Y-96193951D01*
X153957685Y-96258888D01*
X153913130Y-96290804D01*
X153804622Y-96290804D01*
X153806869Y-96289194D01*
X153770497Y-96268331D01*
X153738307Y-96206318D01*
X153736529Y-96193951D01*
X153732029Y-96145387D01*
X153725756Y-96077690D01*
X153667405Y-95872611D01*
X153667403Y-95872606D01*
X153667403Y-95872605D01*
X153572367Y-95681746D01*
X153443872Y-95511593D01*
X153286302Y-95367948D01*
X153105019Y-95255702D01*
X153105017Y-95255701D01*
X152949484Y-95195448D01*
X152906198Y-95178679D01*
X152696610Y-95139500D01*
X152483390Y-95139500D01*
X152273802Y-95178679D01*
X152273799Y-95178679D01*
X152273799Y-95178680D01*
X152074982Y-95255701D01*
X152074980Y-95255702D01*
X151893699Y-95367947D01*
X151736127Y-95511593D01*
X151607632Y-95681746D01*
X151512596Y-95872605D01*
X151512596Y-95872607D01*
X151454244Y-96077689D01*
X151443471Y-96193951D01*
X151417685Y-96258888D01*
X151373130Y-96290804D01*
X151264622Y-96290804D01*
X151266869Y-96289194D01*
X151230497Y-96268331D01*
X151198307Y-96206318D01*
X151196529Y-96193951D01*
X151192029Y-96145387D01*
X151185756Y-96077690D01*
X151127405Y-95872611D01*
X151127403Y-95872606D01*
X151127403Y-95872605D01*
X151032367Y-95681746D01*
X150903872Y-95511593D01*
X150746302Y-95367948D01*
X150565019Y-95255702D01*
X150565017Y-95255701D01*
X150409484Y-95195448D01*
X150366198Y-95178679D01*
X150156610Y-95139500D01*
X149943390Y-95139500D01*
X149733802Y-95178679D01*
X149733799Y-95178679D01*
X149733799Y-95178680D01*
X149534982Y-95255701D01*
X149534980Y-95255702D01*
X149353699Y-95367947D01*
X149196127Y-95511593D01*
X149067632Y-95681746D01*
X148972596Y-95872605D01*
X148972596Y-95872607D01*
X148914244Y-96077689D01*
X148894571Y-96289999D01*
X129000000Y-96289999D01*
X129000000Y-92999994D01*
X143944357Y-92999994D01*
X143944357Y-93000005D01*
X143964890Y-93247812D01*
X143964892Y-93247824D01*
X144025936Y-93488881D01*
X144125826Y-93716606D01*
X144261833Y-93924782D01*
X144261836Y-93924785D01*
X144430256Y-94107738D01*
X144626491Y-94260474D01*
X144845190Y-94378828D01*
X145080386Y-94459571D01*
X145325665Y-94500500D01*
X145574335Y-94500500D01*
X145819614Y-94459571D01*
X146054810Y-94378828D01*
X146273509Y-94260474D01*
X146469744Y-94107738D01*
X146638164Y-93924785D01*
X146774173Y-93716607D01*
X146874063Y-93488881D01*
X146935108Y-93247821D01*
X146955643Y-93000000D01*
X146955643Y-92999994D01*
X159494357Y-92999994D01*
X159494357Y-93000005D01*
X159514890Y-93247812D01*
X159514892Y-93247824D01*
X159575936Y-93488881D01*
X159675826Y-93716606D01*
X159811833Y-93924782D01*
X159811836Y-93924785D01*
X159980256Y-94107738D01*
X160176491Y-94260474D01*
X160395190Y-94378828D01*
X160630386Y-94459571D01*
X160875665Y-94500500D01*
X161124335Y-94500500D01*
X161369614Y-94459571D01*
X161604810Y-94378828D01*
X161823509Y-94260474D01*
X162019744Y-94107738D01*
X162188164Y-93924785D01*
X162324173Y-93716607D01*
X162424063Y-93488881D01*
X162485108Y-93247821D01*
X162505643Y-93000000D01*
X162485108Y-92752179D01*
X162424063Y-92511119D01*
X162324173Y-92283393D01*
X162188166Y-92075217D01*
X162166557Y-92051744D01*
X162019744Y-91892262D01*
X161823509Y-91739526D01*
X161823507Y-91739525D01*
X161823506Y-91739524D01*
X161604811Y-91621172D01*
X161604802Y-91621169D01*
X161369616Y-91540429D01*
X161124335Y-91499500D01*
X160875665Y-91499500D01*
X160630383Y-91540429D01*
X160395197Y-91621169D01*
X160395188Y-91621172D01*
X160176493Y-91739524D01*
X159980257Y-91892261D01*
X159811833Y-92075217D01*
X159675826Y-92283393D01*
X159575936Y-92511118D01*
X159514892Y-92752175D01*
X159514890Y-92752187D01*
X159494357Y-92999994D01*
X146955643Y-92999994D01*
X146935108Y-92752179D01*
X146874063Y-92511119D01*
X146774173Y-92283393D01*
X146638166Y-92075217D01*
X146616557Y-92051744D01*
X146469744Y-91892262D01*
X146273509Y-91739526D01*
X146273507Y-91739525D01*
X146273506Y-91739524D01*
X146054811Y-91621172D01*
X146054802Y-91621169D01*
X145819616Y-91540429D01*
X145574335Y-91499500D01*
X145325665Y-91499500D01*
X145080383Y-91540429D01*
X144845197Y-91621169D01*
X144845188Y-91621172D01*
X144626493Y-91739524D01*
X144430257Y-91892261D01*
X144261833Y-92075217D01*
X144125826Y-92283393D01*
X144025936Y-92511118D01*
X143964892Y-92752175D01*
X143964890Y-92752187D01*
X143944357Y-92999994D01*
X129000000Y-92999994D01*
X129000000Y-84500709D01*
X129000004Y-84499996D01*
X131544500Y-84499996D01*
X131544500Y-84500003D01*
X131564484Y-84843113D01*
X131564485Y-84843124D01*
X131624163Y-85181575D01*
X131624166Y-85181588D01*
X131722737Y-85510840D01*
X131858865Y-85826417D01*
X131858871Y-85826430D01*
X132030716Y-86124075D01*
X132235952Y-86399755D01*
X132235957Y-86399761D01*
X132288623Y-86455583D01*
X132471813Y-86649753D01*
X132471819Y-86649758D01*
X132471821Y-86649760D01*
X132735093Y-86870672D01*
X132735098Y-86870675D01*
X133022250Y-87059538D01*
X133124329Y-87110804D01*
X133329378Y-87213785D01*
X133329384Y-87213787D01*
X133329386Y-87213788D01*
X133652353Y-87331338D01*
X133986783Y-87410599D01*
X134328153Y-87450500D01*
X134328160Y-87450500D01*
X134671840Y-87450500D01*
X134671847Y-87450500D01*
X135013217Y-87410599D01*
X135347647Y-87331338D01*
X135670614Y-87213788D01*
X135670617Y-87213786D01*
X135670621Y-87213785D01*
X135774487Y-87161620D01*
X135977750Y-87059538D01*
X136264902Y-86870675D01*
X136528187Y-86649753D01*
X136603437Y-86569993D01*
X145450048Y-86569993D01*
X145450048Y-86570006D01*
X145469822Y-86808650D01*
X145528610Y-87040799D01*
X145624804Y-87260100D01*
X145716299Y-87400144D01*
X146461944Y-86654501D01*
X146485326Y-86741764D01*
X146543911Y-86843236D01*
X146626764Y-86926089D01*
X146728236Y-86984674D01*
X146815497Y-87008055D01*
X146069135Y-87754417D01*
X146069135Y-87754418D01*
X146106950Y-87783850D01*
X146106953Y-87783852D01*
X146317554Y-87897823D01*
X146317568Y-87897829D01*
X146544056Y-87975584D01*
X146702544Y-88002030D01*
X146765429Y-88032480D01*
X146801869Y-88092095D01*
X146800294Y-88161947D01*
X146761205Y-88219858D01*
X146729590Y-88238899D01*
X146676944Y-88260706D01*
X146676931Y-88260712D01*
X146463565Y-88383899D01*
X146268101Y-88533883D01*
X146268094Y-88533889D01*
X146093889Y-88708094D01*
X146093883Y-88708101D01*
X145943899Y-88903565D01*
X145820712Y-89116931D01*
X145820708Y-89116941D01*
X145726425Y-89344559D01*
X145662660Y-89582538D01*
X145662658Y-89582549D01*
X145630500Y-89826803D01*
X145630500Y-90073196D01*
X145657284Y-90276636D01*
X145662659Y-90317459D01*
X145662660Y-90317461D01*
X145726425Y-90555440D01*
X145820708Y-90783058D01*
X145820712Y-90783068D01*
X145943899Y-90996434D01*
X146093883Y-91191898D01*
X146093889Y-91191905D01*
X146268094Y-91366110D01*
X146268101Y-91366116D01*
X146463565Y-91516100D01*
X146676931Y-91639287D01*
X146676932Y-91639287D01*
X146676935Y-91639289D01*
X146904558Y-91733574D01*
X147142541Y-91797341D01*
X147386811Y-91829500D01*
X147386818Y-91829500D01*
X147633182Y-91829500D01*
X147633189Y-91829500D01*
X147877459Y-91797341D01*
X148115442Y-91733574D01*
X148343065Y-91639289D01*
X148556435Y-91516100D01*
X148751900Y-91366115D01*
X148926115Y-91191900D01*
X149076100Y-90996435D01*
X149199289Y-90783065D01*
X149293574Y-90555442D01*
X149357341Y-90317459D01*
X149389500Y-90073189D01*
X149389500Y-89826811D01*
X149389499Y-89826803D01*
X157060500Y-89826803D01*
X157060500Y-90073196D01*
X157087284Y-90276636D01*
X157092659Y-90317459D01*
X157092660Y-90317461D01*
X157156425Y-90555440D01*
X157250708Y-90783058D01*
X157250712Y-90783068D01*
X157373899Y-90996434D01*
X157523883Y-91191898D01*
X157523889Y-91191905D01*
X157698094Y-91366110D01*
X157698101Y-91366116D01*
X157893565Y-91516100D01*
X158106931Y-91639287D01*
X158106932Y-91639287D01*
X158106935Y-91639289D01*
X158334558Y-91733574D01*
X158572541Y-91797341D01*
X158816811Y-91829500D01*
X158816818Y-91829500D01*
X159063182Y-91829500D01*
X159063189Y-91829500D01*
X159307459Y-91797341D01*
X159545442Y-91733574D01*
X159773065Y-91639289D01*
X159986435Y-91516100D01*
X160181900Y-91366115D01*
X160356115Y-91191900D01*
X160506100Y-90996435D01*
X160629289Y-90783065D01*
X160723574Y-90555442D01*
X160787341Y-90317459D01*
X160819500Y-90073189D01*
X160819500Y-89826811D01*
X160787341Y-89582541D01*
X160723574Y-89344558D01*
X160629289Y-89116935D01*
X160506100Y-88903565D01*
X160356115Y-88708100D01*
X160356110Y-88708094D01*
X160181905Y-88533889D01*
X160181898Y-88533883D01*
X159986434Y-88383899D01*
X159773068Y-88260712D01*
X159773058Y-88260708D01*
X159545440Y-88166425D01*
X159426450Y-88134542D01*
X159307459Y-88102659D01*
X159266636Y-88097284D01*
X159063196Y-88070500D01*
X159063189Y-88070500D01*
X158816811Y-88070500D01*
X158816803Y-88070500D01*
X158584299Y-88101110D01*
X158572541Y-88102659D01*
X158522246Y-88116135D01*
X158334559Y-88166425D01*
X158106941Y-88260708D01*
X158106931Y-88260712D01*
X157893565Y-88383899D01*
X157698101Y-88533883D01*
X157698094Y-88533889D01*
X157523889Y-88708094D01*
X157523883Y-88708101D01*
X157373899Y-88903565D01*
X157250712Y-89116931D01*
X157250708Y-89116941D01*
X157156425Y-89344559D01*
X157092660Y-89582538D01*
X157092658Y-89582549D01*
X157060500Y-89826803D01*
X149389499Y-89826803D01*
X149357341Y-89582541D01*
X149293574Y-89344558D01*
X149199289Y-89116935D01*
X149076100Y-88903565D01*
X148926115Y-88708100D01*
X148926110Y-88708094D01*
X148751905Y-88533889D01*
X148751898Y-88533883D01*
X148556434Y-88383899D01*
X148343068Y-88260712D01*
X148343058Y-88260708D01*
X148115440Y-88166425D01*
X147996450Y-88134542D01*
X147877459Y-88102659D01*
X147827100Y-88096029D01*
X147634554Y-88070679D01*
X147570658Y-88042412D01*
X147532187Y-87984088D01*
X147531356Y-87914223D01*
X147568428Y-87855000D01*
X147591723Y-87838685D01*
X147693045Y-87783852D01*
X147693050Y-87783849D01*
X147730863Y-87754418D01*
X147730863Y-87754417D01*
X146984503Y-87008055D01*
X147071764Y-86984674D01*
X147173236Y-86926089D01*
X147256089Y-86843236D01*
X147314674Y-86741764D01*
X147338055Y-86654502D01*
X148083698Y-87400145D01*
X148175194Y-87260102D01*
X148271389Y-87040799D01*
X148330177Y-86808650D01*
X148349952Y-86570006D01*
X148349952Y-86569999D01*
X155859593Y-86569999D01*
X155859593Y-86570000D01*
X155879180Y-86781382D01*
X155879180Y-86781384D01*
X155879181Y-86781387D01*
X155920352Y-86926089D01*
X155937278Y-86985578D01*
X156031900Y-87175605D01*
X156031905Y-87175613D01*
X156159840Y-87345026D01*
X156316724Y-87488044D01*
X156316726Y-87488046D01*
X156497215Y-87599800D01*
X156497217Y-87599801D01*
X156497219Y-87599802D01*
X156695176Y-87676491D01*
X156903854Y-87715500D01*
X156903856Y-87715500D01*
X157116144Y-87715500D01*
X157116146Y-87715500D01*
X157324824Y-87676491D01*
X157522781Y-87599802D01*
X157703275Y-87488045D01*
X157860161Y-87345024D01*
X157988096Y-87175611D01*
X158082723Y-86985575D01*
X158140819Y-86781387D01*
X158160407Y-86570000D01*
X158140819Y-86358613D01*
X158082723Y-86154425D01*
X158068071Y-86125000D01*
X157988099Y-85964394D01*
X157988094Y-85964386D01*
X157860159Y-85794973D01*
X157703275Y-85651955D01*
X157703273Y-85651953D01*
X157522784Y-85540199D01*
X157522775Y-85540195D01*
X157374313Y-85482681D01*
X157324824Y-85463509D01*
X157116146Y-85424500D01*
X156903854Y-85424500D01*
X156695176Y-85463509D01*
X156695173Y-85463509D01*
X156695173Y-85463510D01*
X156497224Y-85540195D01*
X156497215Y-85540199D01*
X156316726Y-85651953D01*
X156316724Y-85651955D01*
X156159840Y-85794973D01*
X156031905Y-85964386D01*
X156031900Y-85964394D01*
X155937278Y-86154421D01*
X155879180Y-86358617D01*
X155859593Y-86569999D01*
X148349952Y-86569999D01*
X148349952Y-86569993D01*
X148330177Y-86331349D01*
X148271389Y-86099200D01*
X148175196Y-85879902D01*
X148083698Y-85739853D01*
X147338055Y-86485496D01*
X147314674Y-86398236D01*
X147256089Y-86296764D01*
X147173236Y-86213911D01*
X147071764Y-86155326D01*
X146984502Y-86131944D01*
X147730863Y-85385581D01*
X147693044Y-85356146D01*
X147482445Y-85242176D01*
X147482431Y-85242170D01*
X147255944Y-85164416D01*
X147019735Y-85125000D01*
X146780265Y-85125000D01*
X146544055Y-85164416D01*
X146317568Y-85242170D01*
X146317559Y-85242173D01*
X146106946Y-85356152D01*
X146069135Y-85385580D01*
X146069135Y-85385582D01*
X146815498Y-86131944D01*
X146728236Y-86155326D01*
X146626764Y-86213911D01*
X146543911Y-86296764D01*
X146485326Y-86398236D01*
X146461944Y-86485498D01*
X145716299Y-85739853D01*
X145624804Y-85879899D01*
X145528610Y-86099200D01*
X145469822Y-86331349D01*
X145450048Y-86569993D01*
X136603437Y-86569993D01*
X136764044Y-86399759D01*
X136969284Y-86124074D01*
X137141131Y-85826426D01*
X137277262Y-85510841D01*
X137375834Y-85181585D01*
X137378862Y-85164416D01*
X137399037Y-85049999D01*
X148289593Y-85049999D01*
X148289593Y-85050000D01*
X148309180Y-85261382D01*
X148309180Y-85261384D01*
X148309181Y-85261387D01*
X148367021Y-85464674D01*
X148367278Y-85465578D01*
X148461900Y-85655605D01*
X148461905Y-85655613D01*
X148589840Y-85825026D01*
X148746724Y-85968044D01*
X148746726Y-85968046D01*
X148927215Y-86079800D01*
X148927217Y-86079801D01*
X148927219Y-86079802D01*
X149125176Y-86156491D01*
X149333854Y-86195500D01*
X149333856Y-86195500D01*
X149546144Y-86195500D01*
X149546146Y-86195500D01*
X149754824Y-86156491D01*
X149952781Y-86079802D01*
X150133275Y-85968045D01*
X150290161Y-85825024D01*
X150418096Y-85655611D01*
X150512723Y-85465575D01*
X150570819Y-85261387D01*
X150590407Y-85050000D01*
X150590406Y-85049993D01*
X158100048Y-85049993D01*
X158100048Y-85050006D01*
X158119822Y-85288650D01*
X158178610Y-85520799D01*
X158274804Y-85740100D01*
X158366299Y-85880144D01*
X159111944Y-85134501D01*
X159135326Y-85221764D01*
X159193911Y-85323236D01*
X159276764Y-85406089D01*
X159378236Y-85464674D01*
X159465497Y-85488055D01*
X158719135Y-86234417D01*
X158719135Y-86234418D01*
X158756950Y-86263850D01*
X158756953Y-86263852D01*
X158967554Y-86377823D01*
X158967568Y-86377829D01*
X159194055Y-86455583D01*
X159430265Y-86495000D01*
X159669735Y-86495000D01*
X159905944Y-86455583D01*
X160132431Y-86377829D01*
X160132445Y-86377823D01*
X160343045Y-86263853D01*
X160343050Y-86263849D01*
X160380863Y-86234418D01*
X160380863Y-86234417D01*
X159634503Y-85488055D01*
X159721764Y-85464674D01*
X159823236Y-85406089D01*
X159906089Y-85323236D01*
X159964674Y-85221764D01*
X159988055Y-85134502D01*
X160733698Y-85880145D01*
X160825194Y-85740102D01*
X160921389Y-85520799D01*
X160980177Y-85288650D01*
X160999952Y-85050006D01*
X160999952Y-85049993D01*
X160980177Y-84811349D01*
X160921389Y-84579200D01*
X160886647Y-84499996D01*
X162544500Y-84499996D01*
X162544500Y-84500003D01*
X162564484Y-84843113D01*
X162564485Y-84843124D01*
X162624163Y-85181575D01*
X162624166Y-85181588D01*
X162722737Y-85510840D01*
X162858865Y-85826417D01*
X162858871Y-85826430D01*
X163030716Y-86124075D01*
X163235952Y-86399755D01*
X163235957Y-86399761D01*
X163288623Y-86455583D01*
X163471813Y-86649753D01*
X163471819Y-86649758D01*
X163471821Y-86649760D01*
X163735093Y-86870672D01*
X163735098Y-86870675D01*
X164022250Y-87059538D01*
X164124329Y-87110804D01*
X164329378Y-87213785D01*
X164329384Y-87213787D01*
X164329386Y-87213788D01*
X164652353Y-87331338D01*
X164986783Y-87410599D01*
X165328153Y-87450500D01*
X165328160Y-87450500D01*
X165671840Y-87450500D01*
X165671847Y-87450500D01*
X166013217Y-87410599D01*
X166347647Y-87331338D01*
X166670614Y-87213788D01*
X166670617Y-87213786D01*
X166670621Y-87213785D01*
X166774487Y-87161620D01*
X166977750Y-87059538D01*
X167264902Y-86870675D01*
X167528187Y-86649753D01*
X167764044Y-86399759D01*
X167969284Y-86124074D01*
X168141131Y-85826426D01*
X168277262Y-85510841D01*
X168375834Y-85181585D01*
X168378862Y-85164416D01*
X168435514Y-84843124D01*
X168435513Y-84843124D01*
X168435516Y-84843113D01*
X168455500Y-84500000D01*
X168435516Y-84156887D01*
X168431120Y-84131955D01*
X168375836Y-83818424D01*
X168375833Y-83818411D01*
X168277262Y-83489159D01*
X168201848Y-83314331D01*
X168141131Y-83173574D01*
X167969284Y-82875926D01*
X167950396Y-82850555D01*
X167764047Y-82600244D01*
X167764042Y-82600238D01*
X167649998Y-82479359D01*
X167528187Y-82350247D01*
X167528180Y-82350241D01*
X167528178Y-82350239D01*
X167264906Y-82129327D01*
X167013656Y-81964078D01*
X166977750Y-81940462D01*
X166975956Y-81939561D01*
X166670621Y-81786214D01*
X166670615Y-81786212D01*
X166347648Y-81668662D01*
X166347645Y-81668661D01*
X166013218Y-81589401D01*
X165970545Y-81584413D01*
X165671847Y-81549500D01*
X165328153Y-81549500D01*
X165029454Y-81584413D01*
X164986782Y-81589401D01*
X164986780Y-81589401D01*
X164652354Y-81668661D01*
X164652351Y-81668662D01*
X164329384Y-81786212D01*
X164329378Y-81786214D01*
X164022253Y-81940460D01*
X163735093Y-82129327D01*
X163471821Y-82350239D01*
X163471811Y-82350249D01*
X163235957Y-82600238D01*
X163235952Y-82600244D01*
X163030716Y-82875924D01*
X162858871Y-83173569D01*
X162858865Y-83173582D01*
X162722737Y-83489159D01*
X162624166Y-83818411D01*
X162624163Y-83818424D01*
X162564485Y-84156875D01*
X162564484Y-84156886D01*
X162544500Y-84499996D01*
X160886647Y-84499996D01*
X160825196Y-84359902D01*
X160733698Y-84219853D01*
X159988055Y-84965496D01*
X159964674Y-84878236D01*
X159906089Y-84776764D01*
X159823236Y-84693911D01*
X159721764Y-84635326D01*
X159634502Y-84611944D01*
X160380863Y-83865581D01*
X160343044Y-83836146D01*
X160132445Y-83722176D01*
X160132431Y-83722170D01*
X159905944Y-83644416D01*
X159669735Y-83605000D01*
X159430265Y-83605000D01*
X159194055Y-83644416D01*
X158967568Y-83722170D01*
X158967559Y-83722173D01*
X158756946Y-83836152D01*
X158719135Y-83865580D01*
X158719135Y-83865582D01*
X159465498Y-84611944D01*
X159378236Y-84635326D01*
X159276764Y-84693911D01*
X159193911Y-84776764D01*
X159135326Y-84878236D01*
X159111944Y-84965497D01*
X158366299Y-84219853D01*
X158274804Y-84359899D01*
X158178610Y-84579200D01*
X158119822Y-84811349D01*
X158100048Y-85049993D01*
X150590406Y-85049993D01*
X150570819Y-84838613D01*
X150512723Y-84634425D01*
X150445467Y-84499357D01*
X150418099Y-84444394D01*
X150418094Y-84444386D01*
X150290159Y-84274973D01*
X150133275Y-84131955D01*
X150133273Y-84131953D01*
X149952784Y-84020199D01*
X149952775Y-84020195D01*
X149804313Y-83962681D01*
X149754824Y-83943509D01*
X149546146Y-83904500D01*
X149333854Y-83904500D01*
X149125176Y-83943509D01*
X149125173Y-83943509D01*
X149125173Y-83943510D01*
X148927224Y-84020195D01*
X148927215Y-84020199D01*
X148746726Y-84131953D01*
X148746724Y-84131955D01*
X148589840Y-84274973D01*
X148461905Y-84444386D01*
X148461900Y-84444394D01*
X148367278Y-84634421D01*
X148309180Y-84838617D01*
X148289593Y-85049999D01*
X137399037Y-85049999D01*
X137435514Y-84843124D01*
X137435513Y-84843124D01*
X137435516Y-84843113D01*
X137455500Y-84500000D01*
X137435516Y-84156887D01*
X137431120Y-84131955D01*
X137375836Y-83818424D01*
X137375833Y-83818411D01*
X137277262Y-83489159D01*
X137201848Y-83314331D01*
X137141131Y-83173574D01*
X136969284Y-82875926D01*
X136950396Y-82850555D01*
X136764047Y-82600244D01*
X136764042Y-82600238D01*
X136649998Y-82479359D01*
X136528187Y-82350247D01*
X136528180Y-82350241D01*
X136528178Y-82350239D01*
X136264906Y-82129327D01*
X136013656Y-81964078D01*
X135977750Y-81940462D01*
X135975956Y-81939561D01*
X135670621Y-81786214D01*
X135670615Y-81786212D01*
X135347648Y-81668662D01*
X135347645Y-81668661D01*
X135013218Y-81589401D01*
X134970545Y-81584413D01*
X134671847Y-81549500D01*
X134328153Y-81549500D01*
X134029454Y-81584413D01*
X133986782Y-81589401D01*
X133986780Y-81589401D01*
X133652354Y-81668661D01*
X133652351Y-81668662D01*
X133329384Y-81786212D01*
X133329378Y-81786214D01*
X133022253Y-81940460D01*
X132735093Y-82129327D01*
X132471821Y-82350239D01*
X132471811Y-82350249D01*
X132235957Y-82600238D01*
X132235952Y-82600244D01*
X132030716Y-82875924D01*
X131858871Y-83173569D01*
X131858865Y-83173582D01*
X131722737Y-83489159D01*
X131624166Y-83818411D01*
X131624163Y-83818424D01*
X131564485Y-84156875D01*
X131564484Y-84156886D01*
X131544500Y-84499996D01*
X129000004Y-84499996D01*
X129000007Y-84499357D01*
X129000606Y-84444386D01*
X129002565Y-84264696D01*
X129003029Y-84255266D01*
X129043984Y-83787150D01*
X129045396Y-83776432D01*
X129075624Y-83605000D01*
X129126876Y-83314331D01*
X129129208Y-83303812D01*
X129250663Y-82850534D01*
X129253903Y-82840258D01*
X129414398Y-82399303D01*
X129418519Y-82389353D01*
X129616835Y-81964063D01*
X129621815Y-81954496D01*
X129856435Y-81548122D01*
X129862228Y-81539028D01*
X130131384Y-81154634D01*
X130137953Y-81146074D01*
X130439575Y-80786616D01*
X130446861Y-80778665D01*
X130778665Y-80446861D01*
X130786616Y-80439575D01*
X131072131Y-80199999D01*
X145844750Y-80199999D01*
X145844750Y-80200000D01*
X145863670Y-80343708D01*
X145863671Y-80343712D01*
X145919137Y-80477622D01*
X145919138Y-80477624D01*
X145919139Y-80477625D01*
X146007379Y-80592621D01*
X146122375Y-80680861D01*
X146256291Y-80736330D01*
X146383280Y-80753048D01*
X146399999Y-80755250D01*
X146400000Y-80755250D01*
X146400001Y-80755250D01*
X146414977Y-80753278D01*
X146543709Y-80736330D01*
X146677625Y-80680861D01*
X146792621Y-80592621D01*
X146880861Y-80477625D01*
X146936330Y-80343709D01*
X146955250Y-80200000D01*
X146936330Y-80056291D01*
X146880861Y-79922375D01*
X146792621Y-79807379D01*
X146677625Y-79719139D01*
X146677624Y-79719138D01*
X146677622Y-79719137D01*
X146543712Y-79663671D01*
X146543710Y-79663670D01*
X146543709Y-79663670D01*
X146471854Y-79654210D01*
X146400001Y-79644750D01*
X146399999Y-79644750D01*
X146256291Y-79663670D01*
X146256287Y-79663671D01*
X146122377Y-79719137D01*
X146007379Y-79807379D01*
X145919137Y-79922377D01*
X145863671Y-80056287D01*
X145863670Y-80056291D01*
X145844750Y-80199999D01*
X131072131Y-80199999D01*
X131146074Y-80137953D01*
X131154634Y-80131384D01*
X131539028Y-79862228D01*
X131548122Y-79856435D01*
X131954496Y-79621815D01*
X131964063Y-79616835D01*
X132389353Y-79418519D01*
X132399303Y-79414398D01*
X132840258Y-79253903D01*
X132850534Y-79250663D01*
X133303812Y-79129208D01*
X133314331Y-79126876D01*
X133776435Y-79045395D01*
X133787150Y-79043984D01*
X134255266Y-79003029D01*
X134264696Y-79002565D01*
X134499358Y-79000007D01*
X134500710Y-79000000D01*
X165499290Y-79000000D01*
X165500642Y-79000007D01*
G37*
%TD.AperFunction*%
%TD*%
M02*
