%TF.GenerationSoftware,KiCad,Pcbnew,8.0.3*%
%TF.CreationDate,2024-12-09T21:22:52-05:00*%
%TF.ProjectId,Ethernet HAT,45746865-726e-4657-9420-4841542e6b69,rev?*%
%TF.SameCoordinates,Original*%
%TF.FileFunction,Copper,L4,Bot*%
%TF.FilePolarity,Positive*%
%FSLAX46Y46*%
G04 Gerber Fmt 4.6, Leading zero omitted, Abs format (unit mm)*
G04 Created by KiCad (PCBNEW 8.0.3) date 2024-12-09 21:22:52*
%MOMM*%
%LPD*%
G01*
G04 APERTURE LIST*
G04 Aperture macros list*
%AMRoundRect*
0 Rectangle with rounded corners*
0 $1 Rounding radius*
0 $2 $3 $4 $5 $6 $7 $8 $9 X,Y pos of 4 corners*
0 Add a 4 corners polygon primitive as box body*
4,1,4,$2,$3,$4,$5,$6,$7,$8,$9,$2,$3,0*
0 Add four circle primitives for the rounded corners*
1,1,$1+$1,$2,$3*
1,1,$1+$1,$4,$5*
1,1,$1+$1,$6,$7*
1,1,$1+$1,$8,$9*
0 Add four rect primitives between the rounded corners*
20,1,$1+$1,$2,$3,$4,$5,0*
20,1,$1+$1,$4,$5,$6,$7,0*
20,1,$1+$1,$6,$7,$8,$9,0*
20,1,$1+$1,$8,$9,$2,$3,0*%
G04 Aperture macros list end*
%TA.AperFunction,ComponentPad*%
%ADD10C,5.500000*%
%TD*%
%TA.AperFunction,ComponentPad*%
%ADD11C,1.890000*%
%TD*%
%TA.AperFunction,ComponentPad*%
%ADD12R,1.900000X1.900000*%
%TD*%
%TA.AperFunction,ComponentPad*%
%ADD13C,1.900000*%
%TD*%
%TA.AperFunction,ComponentPad*%
%ADD14C,2.600000*%
%TD*%
%TA.AperFunction,SMDPad,CuDef*%
%ADD15RoundRect,0.381000X-0.619000X-0.381000X0.619000X-0.381000X0.619000X0.381000X-0.619000X0.381000X0*%
%TD*%
%TA.AperFunction,ViaPad*%
%ADD16C,0.800000*%
%TD*%
%TA.AperFunction,ViaPad*%
%ADD17C,0.700000*%
%TD*%
%TA.AperFunction,Conductor*%
%ADD18C,0.250000*%
%TD*%
%TA.AperFunction,Conductor*%
%ADD19C,0.200000*%
%TD*%
%TA.AperFunction,Conductor*%
%ADD20C,0.400000*%
%TD*%
G04 APERTURE END LIST*
D10*
%TO.P,H2,1*%
%TO.N,N/C*%
X165500000Y-115500000D03*
%TD*%
%TO.P,H4,1*%
%TO.N,N/C*%
X165500000Y-84500000D03*
%TD*%
%TO.P,H1,1*%
%TO.N,N/C*%
X134500000Y-84500000D03*
%TD*%
%TO.P,H3,1*%
%TO.N,N/C*%
X134500000Y-115500000D03*
%TD*%
D11*
%TO.P,J1,L1,LEDY_A*%
%TO.N,+3.3V*%
X146900000Y-86570000D03*
%TO.P,J1,L2,LEDY_K*%
%TO.N,/ACT_LED*%
X149440000Y-85050000D03*
%TO.P,J1,L3,LEDG_K*%
%TO.N,/LK_LED*%
X157010000Y-86570000D03*
%TO.P,J1,L4,LEDG_A*%
%TO.N,+3.3V*%
X159550000Y-85050000D03*
D12*
%TO.P,J1,R1,TD+*%
%TO.N,/TD+*%
X157670000Y-96290000D03*
D13*
%TO.P,J1,R2,TD-*%
%TO.N,/TD-*%
X156400000Y-98830000D03*
%TO.P,J1,R3,RD+*%
%TO.N,/R+*%
X155130000Y-96290000D03*
%TO.P,J1,R4,TCT*%
%TO.N,TCT*%
X153860000Y-98830000D03*
%TO.P,J1,R5,RCT*%
%TO.N,RCT*%
X152590000Y-96290000D03*
%TO.P,J1,R6,RD-*%
%TO.N,/R-*%
X151320000Y-98830000D03*
%TO.P,J1,R7,NC*%
%TO.N,unconnected-(J1-NC-PadR7)*%
X150050000Y-96290000D03*
%TO.P,J1,R8,GND*%
%TO.N,GND*%
X148780000Y-98830000D03*
D14*
%TO.P,J1,SH,SHIELD*%
X161000000Y-93000000D03*
X145450000Y-93000000D03*
%TD*%
D15*
%TO.P,J3,1,Pin_1*%
%TO.N,GND*%
X169600000Y-83380000D03*
%TO.P,J3,2,Pin_2*%
%TO.N,AUX1*%
X169600000Y-85920000D03*
%TO.P,J3,3,Pin_3*%
%TO.N,AUX2*%
X169600000Y-88460000D03*
%TO.P,J3,4,Pin_4*%
%TO.N,MISO*%
X169600000Y-91000000D03*
%TO.P,J3,5,Pin_5*%
%TO.N,ETH_CS*%
X169600000Y-93540000D03*
%TO.P,J3,6,Pin_6*%
%TO.N,MOSI*%
X169600000Y-96080000D03*
%TO.P,J3,7,Pin_7*%
%TO.N,SCK*%
X169600000Y-98620000D03*
%TO.P,J3,8,Pin_8*%
%TO.N,AUX3*%
X169600000Y-101160000D03*
%TO.P,J3,9,Pin_9*%
%TO.N,AUX4*%
X169600000Y-103700000D03*
%TO.P,J3,10,Pin_10*%
%TO.N,AUX5*%
X169600000Y-106240000D03*
%TO.P,J3,11,Pin_11*%
%TO.N,AUX6*%
X169600000Y-108780000D03*
%TO.P,J3,12,Pin_12*%
%TO.N,SCL1*%
X169600000Y-111320000D03*
%TO.P,J3,13,Pin_13*%
%TO.N,SDA1*%
X169600000Y-113860000D03*
%TO.P,J3,14,Pin_14*%
%TO.N,+3.3V*%
X169600000Y-116400000D03*
%TD*%
D16*
%TO.N,GND*%
X143900000Y-100400000D03*
X153200000Y-102800000D03*
D17*
X164400000Y-92200000D03*
X157800000Y-107600000D03*
X164400000Y-91200000D03*
X147544546Y-111958556D03*
X150100000Y-115700000D03*
D16*
X143100000Y-97500000D03*
D17*
X148204011Y-115811059D03*
D16*
X168400000Y-81600000D03*
X143100000Y-96000000D03*
X138900000Y-99800000D03*
D17*
X144400000Y-80900000D03*
X159600000Y-112400000D03*
X152700000Y-110200000D03*
D16*
X143500000Y-105000000D03*
D17*
X136400000Y-99500000D03*
X159100000Y-115100000D03*
D16*
X141000000Y-101300000D03*
X138900000Y-109400000D03*
D17*
X144870245Y-113371679D03*
D16*
X140300000Y-110900000D03*
D17*
X136400000Y-100900000D03*
D16*
X141400000Y-97500000D03*
X139844975Y-96944975D03*
X146000000Y-104600000D03*
D17*
X141062714Y-108037286D03*
D16*
X137600000Y-108000000D03*
%TO.N,RCT*%
X136700000Y-104500000D03*
X139400000Y-104600000D03*
%TO.N,3V3A*%
X141800000Y-112000000D03*
X144488908Y-104186828D03*
X142100000Y-101300000D03*
D17*
%TO.N,+3.3V*%
X143400000Y-118500000D03*
X144500000Y-118500000D03*
X161400000Y-106500000D03*
D16*
X168300000Y-118600000D03*
D17*
X159000000Y-113300000D03*
D16*
X162400000Y-87100000D03*
D17*
X162300000Y-106500000D03*
D16*
X144200000Y-87400000D03*
D17*
%TO.N,Net-(D2-A)*%
X139800000Y-82900000D03*
X142600000Y-86100000D03*
%TO.N,MISO*%
X166000000Y-96500000D03*
%TO.N,AUX3*%
X166000000Y-100500000D03*
%TO.N,MOSI*%
X166000000Y-98500000D03*
%TO.N,AUX4*%
X161500000Y-102200000D03*
X154800000Y-106200000D03*
X166000000Y-101500000D03*
%TO.N,ETH_CS*%
X166000000Y-97500000D03*
X162600000Y-100200000D03*
%TO.N,AUX2*%
X166000000Y-95500000D03*
%TO.N,SDA1*%
X166000000Y-105500000D03*
%TO.N,AUX1*%
X162500000Y-94450000D03*
X162200000Y-95800000D03*
X166000000Y-94500000D03*
%TO.N,SCK*%
X166000000Y-99500000D03*
%TO.N,SCL1*%
X166000000Y-104500000D03*
%TO.N,AUX5*%
X161888298Y-96888297D03*
X166000000Y-102500000D03*
%TO.N,AUX6*%
X166000000Y-103500000D03*
X159509620Y-104109620D03*
X153688298Y-105088298D03*
%TO.N,Net-(U1-LINKLED)*%
X139500000Y-114200000D03*
X150765872Y-112211675D03*
%TO.N,Net-(U1-ACTLED)*%
X140900000Y-112900000D03*
X149200000Y-110900000D03*
%TO.N,Net-(U1-DUPLED)*%
X140197216Y-113550000D03*
X149975526Y-111563384D03*
%TO.N,Net-(U1-SPDLED)*%
X138898780Y-114869731D03*
X151638325Y-112861675D03*
%TD*%
D18*
%TO.N,GND*%
X169600000Y-83380000D02*
X169600000Y-82800000D01*
X169600000Y-82800000D02*
X168400000Y-81600000D01*
D19*
%TO.N,RCT*%
X136800000Y-104600000D02*
X136700000Y-104500000D01*
X139400000Y-104600000D02*
X136800000Y-104600000D01*
D20*
%TO.N,3V3A*%
X144984620Y-104684620D02*
X144984620Y-108815380D01*
X142100000Y-101300000D02*
X142100000Y-101800000D01*
X144984620Y-108815380D02*
X141800000Y-112000000D01*
X142100000Y-101800000D02*
X144984620Y-104684620D01*
D18*
%TO.N,+3.3V*%
X169600000Y-117300000D02*
X168300000Y-118600000D01*
X169600000Y-116400000D02*
X169600000Y-117300000D01*
D19*
%TO.N,Net-(D2-A)*%
X139800000Y-83500000D02*
X142400000Y-86100000D01*
X139800000Y-82900000D02*
X139800000Y-83500000D01*
X142400000Y-86100000D02*
X142600000Y-86100000D01*
%TO.N,MISO*%
X167900000Y-95200000D02*
X166600000Y-96500000D01*
X167900000Y-92700000D02*
X167900000Y-95200000D01*
X169600000Y-91000000D02*
X167900000Y-92700000D01*
X166600000Y-96500000D02*
X166000000Y-96500000D01*
%TO.N,AUX3*%
X169600000Y-101160000D02*
X168260000Y-101160000D01*
X167500000Y-100400000D02*
X165900000Y-100400000D01*
X168260000Y-101160000D02*
X167500000Y-100400000D01*
%TO.N,MOSI*%
X165963895Y-98500722D02*
X168384617Y-96080000D01*
X168384617Y-96080000D02*
X169600000Y-96080000D01*
%TO.N,AUX4*%
X161500000Y-103200000D02*
X158850000Y-105850000D01*
X158850000Y-105850000D02*
X155150000Y-105850000D01*
X169600000Y-103700000D02*
X167400000Y-101500000D01*
X167400000Y-101500000D02*
X165900000Y-101500000D01*
X161500000Y-102200000D02*
X161500000Y-103200000D01*
X155150000Y-105850000D02*
X154800000Y-106200000D01*
%TO.N,ETH_CS*%
X168300000Y-95523924D02*
X168300000Y-94840000D01*
X165972689Y-97572689D02*
X162827311Y-97572689D01*
X162600000Y-100100000D02*
X162600000Y-100200000D01*
X162600000Y-100200000D02*
X162600000Y-100150000D01*
X162600000Y-97800000D02*
X162600000Y-100200000D01*
X166251235Y-97572689D02*
X168300000Y-95523924D01*
X162827311Y-97572689D02*
X162600000Y-97800000D01*
X165972689Y-97572689D02*
X166251235Y-97572689D01*
X162765073Y-99934927D02*
X162600000Y-100100000D01*
X168300000Y-94840000D02*
X169600000Y-93540000D01*
%TO.N,AUX2*%
X169600000Y-88460000D02*
X169574314Y-88460000D01*
X167500000Y-94300000D02*
X166300000Y-95500000D01*
X167500000Y-90534314D02*
X167500000Y-94300000D01*
X169574314Y-88460000D02*
X167500000Y-90534314D01*
X166300000Y-95500000D02*
X166000000Y-95500000D01*
%TO.N,SDA1*%
X166100000Y-105500000D02*
X166000000Y-105600000D01*
X166300000Y-105500000D02*
X166100000Y-105500000D01*
X167000000Y-106200000D02*
X166300000Y-105500000D01*
X167000000Y-111260000D02*
X167000000Y-106200000D01*
X169600000Y-113860000D02*
X167000000Y-111260000D01*
%TO.N,AUX1*%
X162500000Y-94450000D02*
X162200000Y-94750000D01*
X167000000Y-88520000D02*
X167000000Y-93600000D01*
X167000000Y-93600000D02*
X166100000Y-94500000D01*
X169600000Y-85920000D02*
X167000000Y-88520000D01*
X162200000Y-94750000D02*
X162200000Y-95800000D01*
%TO.N,SCK*%
X168280000Y-98620000D02*
X169600000Y-98620000D01*
X166000000Y-99400000D02*
X167500000Y-99400000D01*
X167500000Y-99400000D02*
X168280000Y-98620000D01*
%TO.N,SCL1*%
X167400000Y-109120000D02*
X167400000Y-105500000D01*
X166400000Y-104500000D02*
X166000000Y-104500000D01*
X169600000Y-111320000D02*
X167400000Y-109120000D01*
X167400000Y-105500000D02*
X166400000Y-104500000D01*
%TO.N,AUX5*%
X167100000Y-102500000D02*
X165900000Y-102500000D01*
X168300000Y-105600000D02*
X168300000Y-103700000D01*
X164300000Y-102500000D02*
X163100000Y-102500000D01*
X168940000Y-106240000D02*
X168300000Y-105600000D01*
X161888298Y-101288298D02*
X161888298Y-96888297D01*
X163100000Y-102500000D02*
X161888298Y-101288298D01*
X165900000Y-102500000D02*
X164300000Y-102500000D01*
X168300000Y-103700000D02*
X167100000Y-102500000D01*
X169600000Y-106240000D02*
X168940000Y-106240000D01*
%TO.N,AUX6*%
X159509620Y-104109620D02*
X158530942Y-105088298D01*
X167900000Y-104700000D02*
X166699997Y-103499997D01*
X169600000Y-108780000D02*
X167900000Y-107080000D01*
X166699997Y-103499997D02*
X166000000Y-103499997D01*
X167900000Y-107080000D02*
X167900000Y-104700000D01*
X158530942Y-105088298D02*
X153688298Y-105088298D01*
%TO.N,Net-(U1-LINKLED)*%
X141400000Y-116100000D02*
X145900000Y-116100000D01*
X145900000Y-116100000D02*
X149786616Y-112213384D01*
X149786616Y-112213384D02*
X150244765Y-112213384D01*
X150244765Y-112213384D02*
X150246474Y-112211675D01*
X150246474Y-112211675D02*
X150765872Y-112211675D01*
X139500000Y-114200000D02*
X141400000Y-116100000D01*
%TO.N,Net-(U1-ACTLED)*%
X142900000Y-114900000D02*
X145600000Y-114900000D01*
X149200000Y-111222341D02*
X149200000Y-110900000D01*
X140900000Y-112900000D02*
X142900000Y-114900000D01*
X145600000Y-114822341D02*
X149200000Y-111222341D01*
X145600000Y-114900000D02*
X145600000Y-114822341D01*
%TO.N,Net-(U1-DUPLED)*%
X140250000Y-113550000D02*
X142200000Y-115500000D01*
X145700000Y-115500000D02*
X149636616Y-111563384D01*
X140197216Y-113550000D02*
X140250000Y-113550000D01*
X149636616Y-111563384D02*
X149975526Y-111563384D01*
X142200000Y-115500000D02*
X145700000Y-115500000D01*
%TO.N,Net-(U1-SPDLED)*%
X138898780Y-114869731D02*
X140629049Y-116600000D01*
X149938325Y-112861675D02*
X151638325Y-112861675D01*
X146200000Y-116600000D02*
X149938325Y-112861675D01*
X140629049Y-116600000D02*
X146200000Y-116600000D01*
%TD*%
M02*
