%TF.GenerationSoftware,KiCad,Pcbnew,8.0.3*%
%TF.CreationDate,2024-11-11T17:41:13-05:00*%
%TF.ProjectId,Ethernet HAT,45746865-726e-4657-9420-4841542e6b69,rev?*%
%TF.SameCoordinates,Original*%
%TF.FileFunction,Copper,L4,Bot*%
%TF.FilePolarity,Positive*%
%FSLAX46Y46*%
G04 Gerber Fmt 4.6, Leading zero omitted, Abs format (unit mm)*
G04 Created by KiCad (PCBNEW 8.0.3) date 2024-11-11 17:41:13*
%MOMM*%
%LPD*%
G01*
G04 APERTURE LIST*
%TA.AperFunction,ComponentPad*%
%ADD10C,5.500000*%
%TD*%
%TA.AperFunction,ComponentPad*%
%ADD11C,1.890000*%
%TD*%
%TA.AperFunction,ComponentPad*%
%ADD12R,1.900000X1.900000*%
%TD*%
%TA.AperFunction,ComponentPad*%
%ADD13C,1.900000*%
%TD*%
%TA.AperFunction,ComponentPad*%
%ADD14C,2.600000*%
%TD*%
%TA.AperFunction,ViaPad*%
%ADD15C,0.700000*%
%TD*%
%TA.AperFunction,Conductor*%
%ADD16C,0.200000*%
%TD*%
G04 APERTURE END LIST*
D10*
%TO.P,H2,1*%
%TO.N,N/C*%
X165500000Y-115500000D03*
%TD*%
%TO.P,H4,1*%
%TO.N,N/C*%
X165500000Y-84500000D03*
%TD*%
%TO.P,H1,1*%
%TO.N,N/C*%
X134500000Y-84500000D03*
%TD*%
%TO.P,H3,1*%
%TO.N,N/C*%
X134500000Y-115500000D03*
%TD*%
D11*
%TO.P,J1,L1,LEDY_A*%
%TO.N,+3.3V*%
X146900000Y-86570000D03*
%TO.P,J1,L2,LEDY_K*%
%TO.N,Net-(J1-LEDY_K)*%
X149440000Y-85050000D03*
%TO.P,J1,L3,LEDG_K*%
%TO.N,Net-(J1-LEDG_K)*%
X157010000Y-86570000D03*
%TO.P,J1,L4,LEDG_A*%
%TO.N,+3.3V*%
X159550000Y-85050000D03*
D12*
%TO.P,J1,R1,TD+*%
%TO.N,Net-(J1-TD+)*%
X157670000Y-96290000D03*
D13*
%TO.P,J1,R2,TD-*%
%TO.N,Net-(J1-TD-)*%
X156400000Y-98830000D03*
%TO.P,J1,R3,RD+*%
%TO.N,Net-(J1-RD+)*%
X155130000Y-96290000D03*
%TO.P,J1,R4,TCT*%
%TO.N,TCT*%
X153860000Y-98830000D03*
%TO.P,J1,R5,RCT*%
%TO.N,RCT*%
X152590000Y-96290000D03*
%TO.P,J1,R6,RD-*%
%TO.N,Net-(J1-RD-)*%
X151320000Y-98830000D03*
%TO.P,J1,R7,NC*%
%TO.N,unconnected-(J1-NC-PadR7)*%
X150050000Y-96290000D03*
%TO.P,J1,R8,GND*%
%TO.N,GND*%
X148780000Y-98830000D03*
D14*
%TO.P,J1,SH,SHIELD*%
X161000000Y-93000000D03*
X145450000Y-93000000D03*
%TD*%
D15*
%TO.N,GND*%
X138800000Y-116800000D03*
X152600000Y-107900000D03*
X143400000Y-118600000D03*
X143500000Y-103900000D03*
X151700000Y-119400000D03*
X164400000Y-108800000D03*
X142300000Y-104900000D03*
X150400000Y-101600000D03*
X146400000Y-80200000D03*
X164400000Y-107800000D03*
X158300000Y-101700000D03*
%TO.N,3V3A*%
X155900000Y-104700000D03*
X140800000Y-103900000D03*
X155900000Y-106200000D03*
X140787500Y-104912500D03*
%TO.N,+3.3V*%
X164400000Y-92200000D03*
X164400000Y-91200000D03*
X137800000Y-105500000D03*
X138800000Y-114900000D03*
%TO.N,MISO*%
X155340380Y-114040380D03*
X159078860Y-113978859D03*
%TO.N,MOSI*%
X156109620Y-115109620D03*
X153309620Y-115109620D03*
%TO.N,AUX2*%
X166759620Y-103440380D03*
X155300000Y-108900000D03*
%TO.N,AUX1*%
X166800000Y-104600000D03*
X154500000Y-109700000D03*
%TO.N,AUX5*%
X157800000Y-107500000D03*
X166200000Y-98200000D03*
%TO.N,AUX6*%
X167000000Y-99400000D03*
X158940380Y-107440380D03*
%TO.N,Net-(U1-LINKLED)*%
X145600000Y-111000000D03*
X143600000Y-97500000D03*
%TO.N,Net-(U1-ACTLED)*%
X146950000Y-111000000D03*
X144900000Y-97600000D03*
%TO.N,Net-(U1-DUPLED)*%
X146250000Y-111900000D03*
X144400000Y-99000000D03*
%TO.N,Net-(U1-SPDLED)*%
X142950000Y-98191401D03*
X144900000Y-112000000D03*
%TD*%
D16*
%TO.N,MISO*%
X159017339Y-114040380D02*
X155340380Y-114040380D01*
X159078860Y-113978859D02*
X159017339Y-114040380D01*
%TO.N,MOSI*%
X153309620Y-115109620D02*
X156109620Y-115109620D01*
%TO.N,AUX2*%
X165819240Y-102500000D02*
X164900000Y-102500000D01*
X166759620Y-103440380D02*
X165819240Y-102500000D01*
X158500000Y-108900000D02*
X155300000Y-108900000D01*
X164900000Y-102500000D02*
X158500000Y-108900000D01*
%TO.N,AUX1*%
X158700000Y-109700000D02*
X154500000Y-109700000D01*
X164900000Y-103500000D02*
X158700000Y-109700000D01*
X165900000Y-103500000D02*
X164900000Y-103500000D01*
X166800000Y-104600000D02*
X166800000Y-104400000D01*
X166800000Y-104400000D02*
X165900000Y-103500000D01*
%TO.N,AUX5*%
X166200000Y-99100000D02*
X166200000Y-98200000D01*
X157800000Y-107500000D02*
X166200000Y-99100000D01*
%TO.N,AUX6*%
X159880760Y-106500000D02*
X158940380Y-107440380D01*
X159900000Y-106500000D02*
X159880760Y-106500000D01*
X167000000Y-99400000D02*
X159900000Y-106500000D01*
%TO.N,Net-(U1-LINKLED)*%
X143600000Y-99334314D02*
X145600000Y-101334314D01*
X145600000Y-101334314D02*
X145600000Y-111000000D01*
X143600000Y-97500000D02*
X143600000Y-99334314D01*
%TO.N,Net-(U1-ACTLED)*%
X147000000Y-110950000D02*
X147000000Y-99700000D01*
X147000000Y-99700000D02*
X144900000Y-97600000D01*
X146950000Y-111000000D02*
X147000000Y-110950000D01*
%TO.N,Net-(U1-DUPLED)*%
X146250000Y-111900000D02*
X146300000Y-111850000D01*
X146300000Y-111850000D02*
X146300000Y-100900000D01*
X146300000Y-100900000D02*
X144400000Y-99000000D01*
%TO.N,Net-(U1-SPDLED)*%
X142950000Y-98191401D02*
X142950000Y-99950000D01*
X144800000Y-111900000D02*
X144900000Y-112000000D01*
X144800000Y-101800000D02*
X144800000Y-111900000D01*
X142950000Y-99950000D02*
X144800000Y-101800000D01*
%TD*%
M02*
