%TF.GenerationSoftware,KiCad,Pcbnew,8.0.3*%
%TF.CreationDate,2024-11-11T17:41:13-05:00*%
%TF.ProjectId,Ethernet HAT,45746865-726e-4657-9420-4841542e6b69,rev?*%
%TF.SameCoordinates,Original*%
%TF.FileFunction,Legend,Top*%
%TF.FilePolarity,Positive*%
%FSLAX46Y46*%
G04 Gerber Fmt 4.6, Leading zero omitted, Abs format (unit mm)*
G04 Created by KiCad (PCBNEW 8.0.3) date 2024-11-11 17:41:13*
%MOMM*%
%LPD*%
G01*
G04 APERTURE LIST*
%ADD10C,0.125000*%
%ADD11C,0.187500*%
%ADD12C,0.120000*%
G04 APERTURE END LIST*
D10*
X135028880Y-104293954D02*
X134314595Y-104293954D01*
X134314595Y-104293954D02*
X134171738Y-104341573D01*
X134171738Y-104341573D02*
X134076500Y-104436811D01*
X134076500Y-104436811D02*
X134028880Y-104579668D01*
X134028880Y-104579668D02*
X134028880Y-104674906D01*
X134028880Y-103341573D02*
X134028880Y-103817763D01*
X134028880Y-103817763D02*
X135028880Y-103817763D01*
X134124119Y-102436811D02*
X134076500Y-102484430D01*
X134076500Y-102484430D02*
X134028880Y-102627287D01*
X134028880Y-102627287D02*
X134028880Y-102722525D01*
X134028880Y-102722525D02*
X134076500Y-102865382D01*
X134076500Y-102865382D02*
X134171738Y-102960620D01*
X134171738Y-102960620D02*
X134266976Y-103008239D01*
X134266976Y-103008239D02*
X134457452Y-103055858D01*
X134457452Y-103055858D02*
X134600309Y-103055858D01*
X134600309Y-103055858D02*
X134790785Y-103008239D01*
X134790785Y-103008239D02*
X134886023Y-102960620D01*
X134886023Y-102960620D02*
X134981261Y-102865382D01*
X134981261Y-102865382D02*
X135028880Y-102722525D01*
X135028880Y-102722525D02*
X135028880Y-102627287D01*
X135028880Y-102627287D02*
X134981261Y-102484430D01*
X134981261Y-102484430D02*
X134933642Y-102436811D01*
X135028880Y-101722525D02*
X134314595Y-101722525D01*
X134314595Y-101722525D02*
X134171738Y-101770144D01*
X134171738Y-101770144D02*
X134076500Y-101865382D01*
X134076500Y-101865382D02*
X134028880Y-102008239D01*
X134028880Y-102008239D02*
X134028880Y-102103477D01*
X134028880Y-100770144D02*
X134028880Y-101246334D01*
X134028880Y-101246334D02*
X135028880Y-101246334D01*
X134124119Y-99865382D02*
X134076500Y-99913001D01*
X134076500Y-99913001D02*
X134028880Y-100055858D01*
X134028880Y-100055858D02*
X134028880Y-100151096D01*
X134028880Y-100151096D02*
X134076500Y-100293953D01*
X134076500Y-100293953D02*
X134171738Y-100389191D01*
X134171738Y-100389191D02*
X134266976Y-100436810D01*
X134266976Y-100436810D02*
X134457452Y-100484429D01*
X134457452Y-100484429D02*
X134600309Y-100484429D01*
X134600309Y-100484429D02*
X134790785Y-100436810D01*
X134790785Y-100436810D02*
X134886023Y-100389191D01*
X134886023Y-100389191D02*
X134981261Y-100293953D01*
X134981261Y-100293953D02*
X135028880Y-100151096D01*
X135028880Y-100151096D02*
X135028880Y-100055858D01*
X135028880Y-100055858D02*
X134981261Y-99913001D01*
X134981261Y-99913001D02*
X134933642Y-99865382D01*
X135028880Y-99151096D02*
X134314595Y-99151096D01*
X134314595Y-99151096D02*
X134171738Y-99198715D01*
X134171738Y-99198715D02*
X134076500Y-99293953D01*
X134076500Y-99293953D02*
X134028880Y-99436810D01*
X134028880Y-99436810D02*
X134028880Y-99532048D01*
X134028880Y-98198715D02*
X134028880Y-98674905D01*
X134028880Y-98674905D02*
X135028880Y-98674905D01*
X134124119Y-97293953D02*
X134076500Y-97341572D01*
X134076500Y-97341572D02*
X134028880Y-97484429D01*
X134028880Y-97484429D02*
X134028880Y-97579667D01*
X134028880Y-97579667D02*
X134076500Y-97722524D01*
X134076500Y-97722524D02*
X134171738Y-97817762D01*
X134171738Y-97817762D02*
X134266976Y-97865381D01*
X134266976Y-97865381D02*
X134457452Y-97913000D01*
X134457452Y-97913000D02*
X134600309Y-97913000D01*
X134600309Y-97913000D02*
X134790785Y-97865381D01*
X134790785Y-97865381D02*
X134886023Y-97817762D01*
X134886023Y-97817762D02*
X134981261Y-97722524D01*
X134981261Y-97722524D02*
X135028880Y-97579667D01*
X135028880Y-97579667D02*
X135028880Y-97484429D01*
X135028880Y-97484429D02*
X134981261Y-97341572D01*
X134981261Y-97341572D02*
X134933642Y-97293953D01*
X135028880Y-96579667D02*
X134314595Y-96579667D01*
X134314595Y-96579667D02*
X134171738Y-96627286D01*
X134171738Y-96627286D02*
X134076500Y-96722524D01*
X134076500Y-96722524D02*
X134028880Y-96865381D01*
X134028880Y-96865381D02*
X134028880Y-96960619D01*
X134028880Y-95627286D02*
X134028880Y-96103476D01*
X134028880Y-96103476D02*
X135028880Y-96103476D01*
X134124119Y-94722524D02*
X134076500Y-94770143D01*
X134076500Y-94770143D02*
X134028880Y-94913000D01*
X134028880Y-94913000D02*
X134028880Y-95008238D01*
X134028880Y-95008238D02*
X134076500Y-95151095D01*
X134076500Y-95151095D02*
X134171738Y-95246333D01*
X134171738Y-95246333D02*
X134266976Y-95293952D01*
X134266976Y-95293952D02*
X134457452Y-95341571D01*
X134457452Y-95341571D02*
X134600309Y-95341571D01*
X134600309Y-95341571D02*
X134790785Y-95293952D01*
X134790785Y-95293952D02*
X134886023Y-95246333D01*
X134886023Y-95246333D02*
X134981261Y-95151095D01*
X134981261Y-95151095D02*
X135028880Y-95008238D01*
X135028880Y-95008238D02*
X135028880Y-94913000D01*
X135028880Y-94913000D02*
X134981261Y-94770143D01*
X134981261Y-94770143D02*
X134933642Y-94722524D01*
D11*
X144535250Y-83190930D02*
X144606678Y-82976645D01*
X144606678Y-82976645D02*
X144606678Y-82619502D01*
X144606678Y-82619502D02*
X144535250Y-82476645D01*
X144535250Y-82476645D02*
X144463821Y-82405216D01*
X144463821Y-82405216D02*
X144320964Y-82333787D01*
X144320964Y-82333787D02*
X144178107Y-82333787D01*
X144178107Y-82333787D02*
X144035250Y-82405216D01*
X144035250Y-82405216D02*
X143963821Y-82476645D01*
X143963821Y-82476645D02*
X143892392Y-82619502D01*
X143892392Y-82619502D02*
X143820964Y-82905216D01*
X143820964Y-82905216D02*
X143749535Y-83048073D01*
X143749535Y-83048073D02*
X143678107Y-83119502D01*
X143678107Y-83119502D02*
X143535250Y-83190930D01*
X143535250Y-83190930D02*
X143392392Y-83190930D01*
X143392392Y-83190930D02*
X143249535Y-83119502D01*
X143249535Y-83119502D02*
X143178107Y-83048073D01*
X143178107Y-83048073D02*
X143106678Y-82905216D01*
X143106678Y-82905216D02*
X143106678Y-82548073D01*
X143106678Y-82548073D02*
X143178107Y-82333787D01*
X144606678Y-81690931D02*
X143106678Y-81690931D01*
X143106678Y-81690931D02*
X143106678Y-81119502D01*
X143106678Y-81119502D02*
X143178107Y-80976645D01*
X143178107Y-80976645D02*
X143249535Y-80905216D01*
X143249535Y-80905216D02*
X143392392Y-80833788D01*
X143392392Y-80833788D02*
X143606678Y-80833788D01*
X143606678Y-80833788D02*
X143749535Y-80905216D01*
X143749535Y-80905216D02*
X143820964Y-80976645D01*
X143820964Y-80976645D02*
X143892392Y-81119502D01*
X143892392Y-81119502D02*
X143892392Y-81690931D01*
X144606678Y-80190931D02*
X143106678Y-80190931D01*
X143106678Y-80190931D02*
X143106678Y-79833788D01*
X143106678Y-79833788D02*
X143178107Y-79619502D01*
X143178107Y-79619502D02*
X143320964Y-79476645D01*
X143320964Y-79476645D02*
X143463821Y-79405216D01*
X143463821Y-79405216D02*
X143749535Y-79333788D01*
X143749535Y-79333788D02*
X143963821Y-79333788D01*
X143963821Y-79333788D02*
X144249535Y-79405216D01*
X144249535Y-79405216D02*
X144392392Y-79476645D01*
X144392392Y-79476645D02*
X144535250Y-79619502D01*
X144535250Y-79619502D02*
X144606678Y-79833788D01*
X144606678Y-79833788D02*
X144606678Y-80190931D01*
X138806678Y-83119502D02*
X137306678Y-83119502D01*
X137306678Y-83119502D02*
X137306678Y-82762359D01*
X137306678Y-82762359D02*
X137378107Y-82548073D01*
X137378107Y-82548073D02*
X137520964Y-82405216D01*
X137520964Y-82405216D02*
X137663821Y-82333787D01*
X137663821Y-82333787D02*
X137949535Y-82262359D01*
X137949535Y-82262359D02*
X138163821Y-82262359D01*
X138163821Y-82262359D02*
X138449535Y-82333787D01*
X138449535Y-82333787D02*
X138592392Y-82405216D01*
X138592392Y-82405216D02*
X138735250Y-82548073D01*
X138735250Y-82548073D02*
X138806678Y-82762359D01*
X138806678Y-82762359D02*
X138806678Y-83119502D01*
X138806678Y-81619502D02*
X137306678Y-81619502D01*
X137306678Y-81619502D02*
X137306678Y-81048073D01*
X137306678Y-81048073D02*
X137378107Y-80905216D01*
X137378107Y-80905216D02*
X137449535Y-80833787D01*
X137449535Y-80833787D02*
X137592392Y-80762359D01*
X137592392Y-80762359D02*
X137806678Y-80762359D01*
X137806678Y-80762359D02*
X137949535Y-80833787D01*
X137949535Y-80833787D02*
X138020964Y-80905216D01*
X138020964Y-80905216D02*
X138092392Y-81048073D01*
X138092392Y-81048073D02*
X138092392Y-81619502D01*
X137306678Y-80262359D02*
X138806678Y-79262359D01*
X137306678Y-79262359D02*
X138806678Y-80262359D01*
D12*
%TO.C,R7*%
X154820000Y-103353641D02*
X154820000Y-103046359D01*
X155580000Y-103353641D02*
X155580000Y-103046359D01*
%TO.C,R14*%
X140858859Y-84620000D02*
X141166141Y-84620000D01*
X140858859Y-85380000D02*
X141166141Y-85380000D01*
%TO.C,L1*%
X139837221Y-105790000D02*
X140162779Y-105790000D01*
X139837221Y-106810000D02*
X140162779Y-106810000D01*
%TO.C,U1*%
X143390000Y-106990000D02*
X143840000Y-106990000D01*
X143390000Y-107440000D02*
X143390000Y-106990000D01*
X143390000Y-113760000D02*
X143390000Y-114210000D01*
X143390000Y-114210000D02*
X143840000Y-114210000D01*
X150160000Y-106990000D02*
X150160000Y-105700000D01*
X150610000Y-106990000D02*
X150160000Y-106990000D01*
X150610000Y-107440000D02*
X150610000Y-106990000D01*
X150610000Y-113760000D02*
X150610000Y-114210000D01*
X150610000Y-114210000D02*
X150160000Y-114210000D01*
%TO.C,C7*%
X140061252Y-107565000D02*
X139538748Y-107565000D01*
X140061252Y-109035000D02*
X139538748Y-109035000D01*
%TO.C,D2*%
X139065000Y-79515000D02*
X139065000Y-81800000D01*
X140535000Y-79515000D02*
X139065000Y-79515000D01*
X140535000Y-81800000D02*
X140535000Y-79515000D01*
%TO.C,R15*%
X147820000Y-103353641D02*
X147820000Y-103046359D01*
X148580000Y-103353641D02*
X148580000Y-103046359D01*
%TO.C,R10*%
X140846359Y-86020000D02*
X141153641Y-86020000D01*
X140846359Y-86780000D02*
X141153641Y-86780000D01*
%TO.C,C5*%
X140307836Y-111140000D02*
X140092164Y-111140000D01*
X140307836Y-111860000D02*
X140092164Y-111860000D01*
%TO.C,R16*%
X146420000Y-103353641D02*
X146420000Y-103046359D01*
X147180000Y-103353641D02*
X147180000Y-103046359D01*
%TO.C,R11*%
X140846359Y-87420000D02*
X141153641Y-87420000D01*
X140846359Y-88180000D02*
X141153641Y-88180000D01*
%TO.C,C8*%
X140307836Y-109740000D02*
X140092164Y-109740000D01*
X140307836Y-110460000D02*
X140092164Y-110460000D01*
%TO.C,R5*%
X152020000Y-103353641D02*
X152020000Y-103046359D01*
X152780000Y-103353641D02*
X152780000Y-103046359D01*
%TO.C,C3*%
X149240000Y-103092164D02*
X149240000Y-103307836D01*
X149960000Y-103092164D02*
X149960000Y-103307836D01*
%TO.C,R13*%
X140846359Y-83220000D02*
X141153641Y-83220000D01*
X140846359Y-83980000D02*
X141153641Y-83980000D01*
%TO.C,C6*%
X140307836Y-113340000D02*
X140092164Y-113340000D01*
X140307836Y-114060000D02*
X140092164Y-114060000D01*
%TO.C,C2*%
X150040000Y-118792164D02*
X150040000Y-119007836D01*
X150760000Y-118792164D02*
X150760000Y-119007836D01*
%TO.C,R1*%
X146846359Y-116120000D02*
X147153641Y-116120000D01*
X146846359Y-116880000D02*
X147153641Y-116880000D01*
%TO.C,C11*%
X141940000Y-106507836D02*
X141940000Y-106292164D01*
X142660000Y-106507836D02*
X142660000Y-106292164D01*
%TO.C,R3*%
X159020000Y-103353641D02*
X159020000Y-103046359D01*
X159780000Y-103353641D02*
X159780000Y-103046359D01*
%TO.C,R17*%
X150620000Y-103353641D02*
X150620000Y-103046359D01*
X151380000Y-103353641D02*
X151380000Y-103046359D01*
%TO.C,R4*%
X145020000Y-103353641D02*
X145020000Y-103046359D01*
X145780000Y-103353641D02*
X145780000Y-103046359D01*
%TO.C,C4*%
X157640000Y-103092164D02*
X157640000Y-103307836D01*
X158360000Y-103092164D02*
X158360000Y-103307836D01*
%TO.C,D1*%
X141255000Y-79502500D02*
X141255000Y-81787500D01*
X142725000Y-79502500D02*
X141255000Y-79502500D01*
X142725000Y-81787500D02*
X142725000Y-79502500D01*
%TO.C,R2*%
X153420000Y-103353641D02*
X153420000Y-103046359D01*
X154180000Y-103353641D02*
X154180000Y-103046359D01*
%TO.C,C14*%
X140265000Y-115788748D02*
X140265000Y-116311252D01*
X141735000Y-115788748D02*
X141735000Y-116311252D01*
%TO.C,R12*%
X156220000Y-103353641D02*
X156220000Y-103046359D01*
X156980000Y-103353641D02*
X156980000Y-103046359D01*
%TO.C,C13*%
X140307836Y-112240000D02*
X140092164Y-112240000D01*
X140307836Y-112960000D02*
X140092164Y-112960000D01*
%TO.C,C12*%
X145407836Y-104340000D02*
X145192164Y-104340000D01*
X145407836Y-105060000D02*
X145192164Y-105060000D01*
%TO.C,R6*%
X160420000Y-103353641D02*
X160420000Y-103046359D01*
X161180000Y-103353641D02*
X161180000Y-103046359D01*
%TO.C,J2*%
X165290000Y-92935000D02*
X165290000Y-92110000D01*
X165290000Y-107065000D02*
X163490000Y-107065000D01*
X165290000Y-107890000D02*
X165290000Y-107065000D01*
X169260000Y-89955000D02*
X169800000Y-89955000D01*
X169800000Y-88930000D02*
X170910000Y-88930000D01*
X169800000Y-89955000D02*
X169800000Y-88930000D01*
X169800000Y-110045000D02*
X169260000Y-110045000D01*
X169800000Y-111070000D02*
X169800000Y-110045000D01*
X170910000Y-88930000D02*
X170910000Y-111070000D01*
X170910000Y-111070000D02*
X169800000Y-111070000D01*
%TO.C,R8*%
X142220000Y-103353641D02*
X142220000Y-103046359D01*
X142980000Y-103353641D02*
X142980000Y-103046359D01*
%TO.C,C15*%
X142440000Y-116592164D02*
X142440000Y-116807836D01*
X143160000Y-116592164D02*
X143160000Y-116807836D01*
%TO.C,C1*%
X144240000Y-118992164D02*
X144240000Y-119207836D01*
X144960000Y-118992164D02*
X144960000Y-119207836D01*
%TO.C,Y1*%
X149400000Y-117250000D02*
X145400000Y-117250000D01*
X149400000Y-120550000D02*
X149400000Y-117250000D01*
%TO.C,J1*%
X145250000Y-78960000D02*
X161200000Y-78960000D01*
X145250000Y-91400000D02*
X145250000Y-78960000D01*
X145250000Y-100880000D02*
X145250000Y-94600000D01*
X161200000Y-78960000D02*
X161200000Y-91400000D01*
X161200000Y-94600000D02*
X161200000Y-100880000D01*
X161200000Y-100880000D02*
X145250000Y-100880000D01*
X161400000Y-97290000D02*
X161400000Y-95290000D01*
%TD*%
M02*
