M48
; DRILL file {KiCad 8.0.3} date 2024-11-11T17:41:11-0500
; FORMAT={-:-/ absolute / metric / decimal}
; #@! TF.CreationDate,2024-11-11T17:41:11-05:00
; #@! TF.GenerationSoftware,Kicad,Pcbnew,8.0.3
; #@! TF.FileFunction,Plated,1,4,PTH
FMAT,2
METRIC
; #@! TA.AperFunction,Plated,PTH,ViaDrill
T1C0.350
; #@! TA.AperFunction,Plated,PTH,ComponentDrill
T2C0.890
; #@! TA.AperFunction,Plated,PTH,ComponentDrill
T3C0.900
; #@! TA.AperFunction,Plated,PTH,ComponentDrill
T4C1.600
; #@! TA.AperFunction,Plated,PTH,ComponentDrill
T5C3.200
%
G90
G05
T1
X137.8Y-105.5
X138.8Y-114.9
X138.8Y-116.8
X140.787Y-104.912
X140.8Y-103.9
X142.3Y-104.9
X142.95Y-98.191
X143.4Y-118.6
X143.5Y-103.9
X143.6Y-97.5
X144.4Y-99.0
X144.9Y-97.6
X144.9Y-112.0
X145.6Y-111.0
X146.25Y-111.9
X146.4Y-80.2
X146.95Y-111.0
X150.4Y-101.6
X151.7Y-119.4
X152.6Y-107.9
X153.31Y-115.11
X154.5Y-109.7
X155.3Y-108.9
X155.34Y-114.04
X155.9Y-104.7
X155.9Y-106.2
X156.11Y-115.11
X157.8Y-107.5
X158.3Y-101.7
X158.94Y-107.44
X159.079Y-113.979
X164.4Y-91.2
X164.4Y-92.2
X164.4Y-107.8
X164.4Y-108.8
X166.2Y-98.2
X166.76Y-103.44
X166.8Y-104.6
X167.0Y-99.4
T2
X146.9Y-86.57
X149.44Y-85.05
X157.01Y-86.57
X159.55Y-85.05
T3
X148.78Y-98.83
X150.05Y-96.29
X151.32Y-98.83
X152.59Y-96.29
X153.86Y-98.83
X155.13Y-96.29
X156.4Y-98.83
X157.67Y-96.29
T4
X145.45Y-93.0
X161.0Y-93.0
T5
X134.5Y-84.5
X134.5Y-115.5
X165.5Y-84.5
X165.5Y-115.5
M30
