%TF.GenerationSoftware,KiCad,Pcbnew,8.0.3*%
%TF.CreationDate,2024-11-27T21:51:54-05:00*%
%TF.ProjectId,Ethernet HAT,45746865-726e-4657-9420-4841542e6b69,rev?*%
%TF.SameCoordinates,Original*%
%TF.FileFunction,Drillmap*%
%TF.FilePolarity,Positive*%
%FSLAX45Y45*%
G04 Gerber Fmt 4.5, Leading zero omitted, Abs format (unit mm)*
G04 Created by KiCad (PCBNEW 8.0.3) date 2024-11-27 21:51:54*
%MOMM*%
%LPD*%
G01*
G04 APERTURE LIST*
%ADD10C,0.100000*%
%ADD11C,0.200000*%
%ADD12C,0.160000*%
%ADD13C,0.320000*%
G04 APERTURE END LIST*
D10*
X16550000Y-7900000D02*
G75*
G02*
X17100000Y-8450000I0J-550000D01*
G01*
X13450000Y-12100000D02*
G75*
G02*
X12900000Y-11550000I0J550000D01*
G01*
X12900000Y-11550000D02*
X12900000Y-8450000D01*
X17100000Y-11550000D02*
G75*
G02*
X16550000Y-12100000I-550000J0D01*
G01*
X13450000Y-7900000D02*
X16550000Y-7900000D01*
X17100000Y-8450000D02*
X17100000Y-11550000D01*
X12900000Y-8450000D02*
G75*
G02*
X13450000Y-7900000I550000J0D01*
G01*
X16550000Y-12100000D02*
X13450000Y-12100000D01*
D11*
D10*
X13547500Y-10182500D02*
X13582500Y-10217500D01*
X13582500Y-10182500D02*
X13547500Y-10217500D01*
X13665732Y-9895801D02*
X13700732Y-9930801D01*
X13700732Y-9895801D02*
X13665732Y-9930801D01*
X13697500Y-10562500D02*
X13732500Y-10597500D01*
X13732500Y-10562500D02*
X13697500Y-10597500D01*
X13747690Y-9997690D02*
X13782690Y-10032690D01*
X13782690Y-9997690D02*
X13747690Y-10032690D01*
X13779923Y-10845077D02*
X13814923Y-10880077D01*
X13814923Y-10845077D02*
X13779923Y-10880077D01*
X13825766Y-9735766D02*
X13860766Y-9770766D01*
X13860766Y-9735766D02*
X13825766Y-9770766D01*
X13827500Y-10562500D02*
X13862500Y-10597500D01*
X13862500Y-10562500D02*
X13827500Y-10597500D01*
X13872378Y-11469473D02*
X13907378Y-11504473D01*
X13907378Y-11469473D02*
X13872378Y-11504473D01*
X13917690Y-9827690D02*
X13952690Y-9862690D01*
X13952690Y-9827690D02*
X13917690Y-9862690D01*
X13924923Y-10990077D02*
X13959923Y-11025077D01*
X13959923Y-10990077D02*
X13924923Y-11025077D01*
X13932500Y-11402500D02*
X13967500Y-11437500D01*
X13967500Y-11402500D02*
X13932500Y-11437500D01*
X13962500Y-8272500D02*
X13997500Y-8307500D01*
X13997500Y-8272500D02*
X13962500Y-8307500D01*
X14002222Y-11337500D02*
X14037222Y-11372500D01*
X14037222Y-11337500D02*
X14002222Y-11372500D01*
X14006847Y-10888153D02*
X14041847Y-10923153D01*
X14041847Y-10888153D02*
X14006847Y-10923153D01*
X14009614Y-9919614D02*
X14044614Y-9954614D01*
X14044614Y-9919614D02*
X14009614Y-9954614D01*
X14042500Y-10202500D02*
X14077500Y-10237500D01*
X14077500Y-10202500D02*
X14042500Y-10237500D01*
X14042500Y-10562500D02*
X14077500Y-10597500D01*
X14077500Y-10562500D02*
X14042500Y-10597500D01*
X14072500Y-11272500D02*
X14107500Y-11307500D01*
X14107500Y-11272500D02*
X14072500Y-11307500D01*
X14088771Y-10786229D02*
X14123771Y-10821229D01*
X14123771Y-10786229D02*
X14088771Y-10821229D01*
X14096538Y-10016538D02*
X14131538Y-10051538D01*
X14131538Y-10016538D02*
X14096538Y-10051538D01*
X14169500Y-10683109D02*
X14204500Y-10718109D01*
X14204500Y-10683109D02*
X14169500Y-10718109D01*
X14242500Y-8592500D02*
X14277500Y-8627500D01*
X14277500Y-8592500D02*
X14242500Y-8627500D01*
X14257500Y-10541538D02*
X14292500Y-10576538D01*
X14292500Y-10541538D02*
X14257500Y-10576538D01*
X14302500Y-10286500D02*
X14337500Y-10321500D01*
X14337500Y-10286500D02*
X14302500Y-10321500D01*
X14322500Y-9567500D02*
X14357500Y-9602500D01*
X14357500Y-9567500D02*
X14322500Y-9602500D01*
X14322500Y-9697500D02*
X14357500Y-9732500D01*
X14357500Y-9697500D02*
X14322500Y-9732500D01*
X14322500Y-9827500D02*
X14357500Y-9862500D01*
X14357500Y-9827500D02*
X14322500Y-9862500D01*
X14322500Y-9962500D02*
X14357500Y-9997500D01*
X14357500Y-9962500D02*
X14322500Y-9997500D01*
X14322500Y-11832500D02*
X14357500Y-11867500D01*
X14357500Y-11832500D02*
X14322500Y-11867500D01*
X14432500Y-11832500D02*
X14467500Y-11867500D01*
X14467500Y-11832500D02*
X14432500Y-11867500D01*
X14469524Y-11319668D02*
X14504524Y-11354668D01*
X14504524Y-11319668D02*
X14469524Y-11354668D01*
X14472500Y-8002500D02*
X14507500Y-8037500D01*
X14507500Y-8002500D02*
X14472500Y-8037500D01*
X14502500Y-10097500D02*
X14537500Y-10132500D01*
X14537500Y-10097500D02*
X14502500Y-10132500D01*
X14532500Y-10227500D02*
X14567500Y-10262500D01*
X14567500Y-10227500D02*
X14532500Y-10262500D01*
X14555962Y-10360962D02*
X14590962Y-10395962D01*
X14590962Y-10360962D02*
X14555962Y-10395962D01*
X14582500Y-8002500D02*
X14617500Y-8037500D01*
X14617500Y-8002500D02*
X14582500Y-8037500D01*
X14652500Y-9567500D02*
X14687500Y-9602500D01*
X14687500Y-9567500D02*
X14652500Y-9602500D01*
X14652500Y-9697500D02*
X14687500Y-9732500D01*
X14687500Y-9697500D02*
X14652500Y-9732500D01*
X14652500Y-9827500D02*
X14687500Y-9862500D01*
X14687500Y-9827500D02*
X14652500Y-9862500D01*
X14652500Y-9962500D02*
X14687500Y-9997500D01*
X14687500Y-9962500D02*
X14652500Y-9997500D01*
X14652500Y-10227500D02*
X14687500Y-10262500D01*
X14687500Y-10227500D02*
X14652500Y-10262500D01*
X14736955Y-11178356D02*
X14771955Y-11213356D01*
X14771955Y-11178356D02*
X14736955Y-11213356D01*
X14802901Y-11563606D02*
X14837901Y-11598606D01*
X14837901Y-11563606D02*
X14802901Y-11598606D01*
X14842500Y-10097500D02*
X14877500Y-10132500D01*
X14877500Y-10097500D02*
X14842500Y-10132500D01*
X14842500Y-10227500D02*
X14877500Y-10262500D01*
X14877500Y-10227500D02*
X14842500Y-10262500D01*
X14902500Y-11072500D02*
X14937500Y-11107500D01*
X14937500Y-11072500D02*
X14902500Y-11107500D01*
X14980053Y-11138838D02*
X15015053Y-11173838D01*
X15015053Y-11138838D02*
X14980053Y-11173838D01*
X14992500Y-11552500D02*
X15027500Y-11587500D01*
X15027500Y-11552500D02*
X14992500Y-11587500D01*
X15059087Y-11203667D02*
X15094087Y-11238667D01*
X15094087Y-11203667D02*
X15059087Y-11238667D01*
X15112500Y-9347500D02*
X15147500Y-9382500D01*
X15147500Y-9347500D02*
X15112500Y-9382500D01*
X15112500Y-9492500D02*
X15147500Y-9527500D01*
X15147500Y-9492500D02*
X15112500Y-9527500D01*
X15116538Y-10096538D02*
X15151538Y-10131538D01*
X15151538Y-10096538D02*
X15116538Y-10131538D01*
X15146332Y-11268667D02*
X15181332Y-11303667D01*
X15181332Y-11268667D02*
X15146332Y-11303667D01*
X15158038Y-10227500D02*
X15193038Y-10262500D01*
X15193038Y-10227500D02*
X15158038Y-10262500D01*
X15252500Y-11002500D02*
X15287500Y-11037500D01*
X15287500Y-11002500D02*
X15252500Y-11037500D01*
X15351330Y-10491330D02*
X15386330Y-10526330D01*
X15386330Y-10491330D02*
X15351330Y-10526330D01*
X15462500Y-10602500D02*
X15497500Y-10637500D01*
X15497500Y-10602500D02*
X15462500Y-10637500D01*
X15762500Y-10742500D02*
X15797500Y-10777500D01*
X15797500Y-10742500D02*
X15762500Y-10777500D01*
X15882500Y-11312500D02*
X15917500Y-11347500D01*
X15917500Y-11312500D02*
X15882500Y-11347500D01*
X15892500Y-11492500D02*
X15927500Y-11527500D01*
X15927500Y-11492500D02*
X15892500Y-11527500D01*
X15933462Y-10393462D02*
X15968462Y-10428462D01*
X15968462Y-10393462D02*
X15933462Y-10428462D01*
X15942500Y-11222500D02*
X15977500Y-11257500D01*
X15977500Y-11222500D02*
X15942500Y-11257500D01*
X16092500Y-9647500D02*
X16127500Y-9682500D01*
X16127500Y-9647500D02*
X16092500Y-9682500D01*
X16122500Y-10632500D02*
X16157500Y-10667500D01*
X16157500Y-10632500D02*
X16122500Y-10667500D01*
X16202500Y-9622500D02*
X16237500Y-9657500D01*
X16237500Y-9622500D02*
X16202500Y-9657500D01*
X16212500Y-10632500D02*
X16247500Y-10667500D01*
X16247500Y-10632500D02*
X16212500Y-10667500D01*
X16222500Y-10192500D02*
X16257500Y-10227500D01*
X16257500Y-10192500D02*
X16222500Y-10227500D01*
X16242500Y-9997500D02*
X16277500Y-10032500D01*
X16277500Y-9997500D02*
X16242500Y-10032500D01*
X16259007Y-9767500D02*
X16294007Y-9802500D01*
X16294007Y-9767500D02*
X16259007Y-9802500D01*
X16422500Y-9102500D02*
X16457500Y-9137500D01*
X16457500Y-9102500D02*
X16422500Y-9137500D01*
X16422500Y-9202500D02*
X16457500Y-9237500D01*
X16457500Y-9202500D02*
X16422500Y-9237500D01*
X16632500Y-9522500D02*
X16667500Y-9557500D01*
X16667500Y-9522500D02*
X16632500Y-9557500D01*
X16643663Y-9611805D02*
X16678663Y-9646805D01*
X16678663Y-9611805D02*
X16643663Y-9646805D01*
X14200000Y-11200000D02*
G75*
G02*
X14160000Y-11200000I-20000J0D01*
G01*
X14160000Y-11200000D02*
G75*
G02*
X14200000Y-11200000I20000J0D01*
G01*
X14690000Y-8612500D02*
X14690000Y-8701500D01*
X14645500Y-8657000D02*
X14734500Y-8657000D01*
X14944000Y-8460500D02*
X14944000Y-8549500D01*
X14899500Y-8505000D02*
X14988500Y-8505000D01*
X15701000Y-8612500D02*
X15701000Y-8701500D01*
X15656500Y-8657000D02*
X15745500Y-8657000D01*
X15955000Y-8460500D02*
X15955000Y-8549500D01*
X15910500Y-8505000D02*
X15999500Y-8505000D01*
X14909820Y-9914820D02*
X14909820Y-9851180D01*
X14846180Y-9851180D01*
X14846180Y-9914820D01*
X14909820Y-9914820D01*
X15036820Y-9660820D02*
X15036820Y-9597180D01*
X14973180Y-9597180D01*
X14973180Y-9660820D01*
X15036820Y-9660820D01*
X15163820Y-9914820D02*
X15163820Y-9851180D01*
X15100180Y-9851180D01*
X15100180Y-9914820D01*
X15163820Y-9914820D01*
X15290820Y-9660820D02*
X15290820Y-9597180D01*
X15227180Y-9597180D01*
X15227180Y-9660820D01*
X15290820Y-9660820D01*
X15417820Y-9914820D02*
X15417820Y-9851180D01*
X15354180Y-9851180D01*
X15354180Y-9914820D01*
X15417820Y-9914820D01*
X15544820Y-9660820D02*
X15544820Y-9597180D01*
X15481180Y-9597180D01*
X15481180Y-9660820D01*
X15544820Y-9660820D01*
X15671820Y-9914820D02*
X15671820Y-9851180D01*
X15608180Y-9851180D01*
X15608180Y-9914820D01*
X15671820Y-9914820D01*
X15798820Y-9660820D02*
X15798820Y-9597180D01*
X15735180Y-9597180D01*
X15735180Y-9660820D01*
X15798820Y-9660820D01*
D12*
X14545000Y-9380000D02*
X14625000Y-9300000D01*
X14545000Y-9220000D01*
X14465000Y-9300000D01*
X14545000Y-9380000D01*
X16100000Y-9380000D02*
X16180000Y-9300000D01*
X16100000Y-9220000D01*
X16020000Y-9300000D01*
X16100000Y-9380000D01*
D13*
X13290000Y-8290000D02*
X13610000Y-8610000D01*
X13610000Y-8290000D02*
X13290000Y-8610000D01*
X13610000Y-8450000D02*
G75*
G02*
X13290000Y-8450000I-160000J0D01*
G01*
X13290000Y-8450000D02*
G75*
G02*
X13610000Y-8450000I160000J0D01*
G01*
X13290000Y-11390000D02*
X13610000Y-11710000D01*
X13610000Y-11390000D02*
X13290000Y-11710000D01*
X13610000Y-11550000D02*
G75*
G02*
X13290000Y-11550000I-160000J0D01*
G01*
X13290000Y-11550000D02*
G75*
G02*
X13610000Y-11550000I160000J0D01*
G01*
X16390000Y-8290000D02*
X16710000Y-8610000D01*
X16710000Y-8290000D02*
X16390000Y-8610000D01*
X16710000Y-8450000D02*
G75*
G02*
X16390000Y-8450000I-160000J0D01*
G01*
X16390000Y-8450000D02*
G75*
G02*
X16710000Y-8450000I160000J0D01*
G01*
X16390000Y-11390000D02*
X16710000Y-11710000D01*
X16710000Y-11390000D02*
X16390000Y-11710000D01*
X16710000Y-11550000D02*
G75*
G02*
X16390000Y-11550000I-160000J0D01*
G01*
X16390000Y-11550000D02*
G75*
G02*
X16710000Y-11550000I160000J0D01*
G01*
D11*
X13155777Y-12416484D02*
X13155777Y-12216484D01*
X13155777Y-12216484D02*
X13203396Y-12216484D01*
X13203396Y-12216484D02*
X13231967Y-12226008D01*
X13231967Y-12226008D02*
X13251015Y-12245055D01*
X13251015Y-12245055D02*
X13260539Y-12264103D01*
X13260539Y-12264103D02*
X13270062Y-12302198D01*
X13270062Y-12302198D02*
X13270062Y-12330769D01*
X13270062Y-12330769D02*
X13260539Y-12368865D01*
X13260539Y-12368865D02*
X13251015Y-12387912D01*
X13251015Y-12387912D02*
X13231967Y-12406960D01*
X13231967Y-12406960D02*
X13203396Y-12416484D01*
X13203396Y-12416484D02*
X13155777Y-12416484D01*
X13355777Y-12416484D02*
X13355777Y-12283150D01*
X13355777Y-12321246D02*
X13365301Y-12302198D01*
X13365301Y-12302198D02*
X13374824Y-12292674D01*
X13374824Y-12292674D02*
X13393872Y-12283150D01*
X13393872Y-12283150D02*
X13412920Y-12283150D01*
X13479586Y-12416484D02*
X13479586Y-12283150D01*
X13479586Y-12216484D02*
X13470062Y-12226008D01*
X13470062Y-12226008D02*
X13479586Y-12235531D01*
X13479586Y-12235531D02*
X13489110Y-12226008D01*
X13489110Y-12226008D02*
X13479586Y-12216484D01*
X13479586Y-12216484D02*
X13479586Y-12235531D01*
X13603396Y-12416484D02*
X13584348Y-12406960D01*
X13584348Y-12406960D02*
X13574824Y-12387912D01*
X13574824Y-12387912D02*
X13574824Y-12216484D01*
X13708158Y-12416484D02*
X13689110Y-12406960D01*
X13689110Y-12406960D02*
X13679586Y-12387912D01*
X13679586Y-12387912D02*
X13679586Y-12216484D01*
X13936729Y-12416484D02*
X13936729Y-12216484D01*
X13936729Y-12216484D02*
X14003396Y-12359341D01*
X14003396Y-12359341D02*
X14070062Y-12216484D01*
X14070062Y-12216484D02*
X14070062Y-12416484D01*
X14251015Y-12416484D02*
X14251015Y-12311722D01*
X14251015Y-12311722D02*
X14241491Y-12292674D01*
X14241491Y-12292674D02*
X14222443Y-12283150D01*
X14222443Y-12283150D02*
X14184348Y-12283150D01*
X14184348Y-12283150D02*
X14165301Y-12292674D01*
X14251015Y-12406960D02*
X14231967Y-12416484D01*
X14231967Y-12416484D02*
X14184348Y-12416484D01*
X14184348Y-12416484D02*
X14165301Y-12406960D01*
X14165301Y-12406960D02*
X14155777Y-12387912D01*
X14155777Y-12387912D02*
X14155777Y-12368865D01*
X14155777Y-12368865D02*
X14165301Y-12349817D01*
X14165301Y-12349817D02*
X14184348Y-12340293D01*
X14184348Y-12340293D02*
X14231967Y-12340293D01*
X14231967Y-12340293D02*
X14251015Y-12330769D01*
X14346253Y-12283150D02*
X14346253Y-12483150D01*
X14346253Y-12292674D02*
X14365301Y-12283150D01*
X14365301Y-12283150D02*
X14403396Y-12283150D01*
X14403396Y-12283150D02*
X14422443Y-12292674D01*
X14422443Y-12292674D02*
X14431967Y-12302198D01*
X14431967Y-12302198D02*
X14441491Y-12321246D01*
X14441491Y-12321246D02*
X14441491Y-12378388D01*
X14441491Y-12378388D02*
X14431967Y-12397436D01*
X14431967Y-12397436D02*
X14422443Y-12406960D01*
X14422443Y-12406960D02*
X14403396Y-12416484D01*
X14403396Y-12416484D02*
X14365301Y-12416484D01*
X14365301Y-12416484D02*
X14346253Y-12406960D01*
X14527205Y-12397436D02*
X14536729Y-12406960D01*
X14536729Y-12406960D02*
X14527205Y-12416484D01*
X14527205Y-12416484D02*
X14517682Y-12406960D01*
X14517682Y-12406960D02*
X14527205Y-12397436D01*
X14527205Y-12397436D02*
X14527205Y-12416484D01*
X14527205Y-12292674D02*
X14536729Y-12302198D01*
X14536729Y-12302198D02*
X14527205Y-12311722D01*
X14527205Y-12311722D02*
X14517682Y-12302198D01*
X14517682Y-12302198D02*
X14527205Y-12292674D01*
X14527205Y-12292674D02*
X14527205Y-12311722D01*
D10*
X12860000Y-12727500D02*
X12895000Y-12762500D01*
X12895000Y-12727500D02*
X12860000Y-12762500D01*
D11*
X13193872Y-12636484D02*
X13212920Y-12636484D01*
X13212920Y-12636484D02*
X13231967Y-12646008D01*
X13231967Y-12646008D02*
X13241491Y-12655531D01*
X13241491Y-12655531D02*
X13251015Y-12674579D01*
X13251015Y-12674579D02*
X13260539Y-12712674D01*
X13260539Y-12712674D02*
X13260539Y-12760293D01*
X13260539Y-12760293D02*
X13251015Y-12798388D01*
X13251015Y-12798388D02*
X13241491Y-12817436D01*
X13241491Y-12817436D02*
X13231967Y-12826960D01*
X13231967Y-12826960D02*
X13212920Y-12836484D01*
X13212920Y-12836484D02*
X13193872Y-12836484D01*
X13193872Y-12836484D02*
X13174824Y-12826960D01*
X13174824Y-12826960D02*
X13165301Y-12817436D01*
X13165301Y-12817436D02*
X13155777Y-12798388D01*
X13155777Y-12798388D02*
X13146253Y-12760293D01*
X13146253Y-12760293D02*
X13146253Y-12712674D01*
X13146253Y-12712674D02*
X13155777Y-12674579D01*
X13155777Y-12674579D02*
X13165301Y-12655531D01*
X13165301Y-12655531D02*
X13174824Y-12646008D01*
X13174824Y-12646008D02*
X13193872Y-12636484D01*
X13346253Y-12817436D02*
X13355777Y-12826960D01*
X13355777Y-12826960D02*
X13346253Y-12836484D01*
X13346253Y-12836484D02*
X13336729Y-12826960D01*
X13336729Y-12826960D02*
X13346253Y-12817436D01*
X13346253Y-12817436D02*
X13346253Y-12836484D01*
X13422443Y-12636484D02*
X13546253Y-12636484D01*
X13546253Y-12636484D02*
X13479586Y-12712674D01*
X13479586Y-12712674D02*
X13508158Y-12712674D01*
X13508158Y-12712674D02*
X13527205Y-12722198D01*
X13527205Y-12722198D02*
X13536729Y-12731722D01*
X13536729Y-12731722D02*
X13546253Y-12750769D01*
X13546253Y-12750769D02*
X13546253Y-12798388D01*
X13546253Y-12798388D02*
X13536729Y-12817436D01*
X13536729Y-12817436D02*
X13527205Y-12826960D01*
X13527205Y-12826960D02*
X13508158Y-12836484D01*
X13508158Y-12836484D02*
X13451015Y-12836484D01*
X13451015Y-12836484D02*
X13431967Y-12826960D01*
X13431967Y-12826960D02*
X13422443Y-12817436D01*
X13727205Y-12636484D02*
X13631967Y-12636484D01*
X13631967Y-12636484D02*
X13622443Y-12731722D01*
X13622443Y-12731722D02*
X13631967Y-12722198D01*
X13631967Y-12722198D02*
X13651015Y-12712674D01*
X13651015Y-12712674D02*
X13698634Y-12712674D01*
X13698634Y-12712674D02*
X13717682Y-12722198D01*
X13717682Y-12722198D02*
X13727205Y-12731722D01*
X13727205Y-12731722D02*
X13736729Y-12750769D01*
X13736729Y-12750769D02*
X13736729Y-12798388D01*
X13736729Y-12798388D02*
X13727205Y-12817436D01*
X13727205Y-12817436D02*
X13717682Y-12826960D01*
X13717682Y-12826960D02*
X13698634Y-12836484D01*
X13698634Y-12836484D02*
X13651015Y-12836484D01*
X13651015Y-12836484D02*
X13631967Y-12826960D01*
X13631967Y-12826960D02*
X13622443Y-12817436D01*
X13860539Y-12636484D02*
X13879586Y-12636484D01*
X13879586Y-12636484D02*
X13898634Y-12646008D01*
X13898634Y-12646008D02*
X13908158Y-12655531D01*
X13908158Y-12655531D02*
X13917682Y-12674579D01*
X13917682Y-12674579D02*
X13927205Y-12712674D01*
X13927205Y-12712674D02*
X13927205Y-12760293D01*
X13927205Y-12760293D02*
X13917682Y-12798388D01*
X13917682Y-12798388D02*
X13908158Y-12817436D01*
X13908158Y-12817436D02*
X13898634Y-12826960D01*
X13898634Y-12826960D02*
X13879586Y-12836484D01*
X13879586Y-12836484D02*
X13860539Y-12836484D01*
X13860539Y-12836484D02*
X13841491Y-12826960D01*
X13841491Y-12826960D02*
X13831967Y-12817436D01*
X13831967Y-12817436D02*
X13822443Y-12798388D01*
X13822443Y-12798388D02*
X13812920Y-12760293D01*
X13812920Y-12760293D02*
X13812920Y-12712674D01*
X13812920Y-12712674D02*
X13822443Y-12674579D01*
X13822443Y-12674579D02*
X13831967Y-12655531D01*
X13831967Y-12655531D02*
X13841491Y-12646008D01*
X13841491Y-12646008D02*
X13860539Y-12636484D01*
X14012920Y-12836484D02*
X14012920Y-12703150D01*
X14012920Y-12722198D02*
X14022443Y-12712674D01*
X14022443Y-12712674D02*
X14041491Y-12703150D01*
X14041491Y-12703150D02*
X14070063Y-12703150D01*
X14070063Y-12703150D02*
X14089110Y-12712674D01*
X14089110Y-12712674D02*
X14098634Y-12731722D01*
X14098634Y-12731722D02*
X14098634Y-12836484D01*
X14098634Y-12731722D02*
X14108158Y-12712674D01*
X14108158Y-12712674D02*
X14127205Y-12703150D01*
X14127205Y-12703150D02*
X14155777Y-12703150D01*
X14155777Y-12703150D02*
X14174824Y-12712674D01*
X14174824Y-12712674D02*
X14184348Y-12731722D01*
X14184348Y-12731722D02*
X14184348Y-12836484D01*
X14279586Y-12836484D02*
X14279586Y-12703150D01*
X14279586Y-12722198D02*
X14289110Y-12712674D01*
X14289110Y-12712674D02*
X14308158Y-12703150D01*
X14308158Y-12703150D02*
X14336729Y-12703150D01*
X14336729Y-12703150D02*
X14355777Y-12712674D01*
X14355777Y-12712674D02*
X14365301Y-12731722D01*
X14365301Y-12731722D02*
X14365301Y-12836484D01*
X14365301Y-12731722D02*
X14374824Y-12712674D01*
X14374824Y-12712674D02*
X14393872Y-12703150D01*
X14393872Y-12703150D02*
X14422443Y-12703150D01*
X14422443Y-12703150D02*
X14441491Y-12712674D01*
X14441491Y-12712674D02*
X14451015Y-12731722D01*
X14451015Y-12731722D02*
X14451015Y-12836484D01*
X14841491Y-12626960D02*
X14670063Y-12884103D01*
X15098634Y-12636484D02*
X15117682Y-12636484D01*
X15117682Y-12636484D02*
X15136729Y-12646008D01*
X15136729Y-12646008D02*
X15146253Y-12655531D01*
X15146253Y-12655531D02*
X15155777Y-12674579D01*
X15155777Y-12674579D02*
X15165301Y-12712674D01*
X15165301Y-12712674D02*
X15165301Y-12760293D01*
X15165301Y-12760293D02*
X15155777Y-12798388D01*
X15155777Y-12798388D02*
X15146253Y-12817436D01*
X15146253Y-12817436D02*
X15136729Y-12826960D01*
X15136729Y-12826960D02*
X15117682Y-12836484D01*
X15117682Y-12836484D02*
X15098634Y-12836484D01*
X15098634Y-12836484D02*
X15079586Y-12826960D01*
X15079586Y-12826960D02*
X15070063Y-12817436D01*
X15070063Y-12817436D02*
X15060539Y-12798388D01*
X15060539Y-12798388D02*
X15051015Y-12760293D01*
X15051015Y-12760293D02*
X15051015Y-12712674D01*
X15051015Y-12712674D02*
X15060539Y-12674579D01*
X15060539Y-12674579D02*
X15070063Y-12655531D01*
X15070063Y-12655531D02*
X15079586Y-12646008D01*
X15079586Y-12646008D02*
X15098634Y-12636484D01*
X15251015Y-12817436D02*
X15260539Y-12826960D01*
X15260539Y-12826960D02*
X15251015Y-12836484D01*
X15251015Y-12836484D02*
X15241491Y-12826960D01*
X15241491Y-12826960D02*
X15251015Y-12817436D01*
X15251015Y-12817436D02*
X15251015Y-12836484D01*
X15384348Y-12636484D02*
X15403396Y-12636484D01*
X15403396Y-12636484D02*
X15422444Y-12646008D01*
X15422444Y-12646008D02*
X15431967Y-12655531D01*
X15431967Y-12655531D02*
X15441491Y-12674579D01*
X15441491Y-12674579D02*
X15451015Y-12712674D01*
X15451015Y-12712674D02*
X15451015Y-12760293D01*
X15451015Y-12760293D02*
X15441491Y-12798388D01*
X15441491Y-12798388D02*
X15431967Y-12817436D01*
X15431967Y-12817436D02*
X15422444Y-12826960D01*
X15422444Y-12826960D02*
X15403396Y-12836484D01*
X15403396Y-12836484D02*
X15384348Y-12836484D01*
X15384348Y-12836484D02*
X15365301Y-12826960D01*
X15365301Y-12826960D02*
X15355777Y-12817436D01*
X15355777Y-12817436D02*
X15346253Y-12798388D01*
X15346253Y-12798388D02*
X15336729Y-12760293D01*
X15336729Y-12760293D02*
X15336729Y-12712674D01*
X15336729Y-12712674D02*
X15346253Y-12674579D01*
X15346253Y-12674579D02*
X15355777Y-12655531D01*
X15355777Y-12655531D02*
X15365301Y-12646008D01*
X15365301Y-12646008D02*
X15384348Y-12636484D01*
X15641491Y-12836484D02*
X15527206Y-12836484D01*
X15584348Y-12836484D02*
X15584348Y-12636484D01*
X15584348Y-12636484D02*
X15565301Y-12665055D01*
X15565301Y-12665055D02*
X15546253Y-12684103D01*
X15546253Y-12684103D02*
X15527206Y-12693627D01*
X15708158Y-12636484D02*
X15831967Y-12636484D01*
X15831967Y-12636484D02*
X15765301Y-12712674D01*
X15765301Y-12712674D02*
X15793872Y-12712674D01*
X15793872Y-12712674D02*
X15812920Y-12722198D01*
X15812920Y-12722198D02*
X15822444Y-12731722D01*
X15822444Y-12731722D02*
X15831967Y-12750769D01*
X15831967Y-12750769D02*
X15831967Y-12798388D01*
X15831967Y-12798388D02*
X15822444Y-12817436D01*
X15822444Y-12817436D02*
X15812920Y-12826960D01*
X15812920Y-12826960D02*
X15793872Y-12836484D01*
X15793872Y-12836484D02*
X15736729Y-12836484D01*
X15736729Y-12836484D02*
X15717682Y-12826960D01*
X15717682Y-12826960D02*
X15708158Y-12817436D01*
X15946253Y-12722198D02*
X15927206Y-12712674D01*
X15927206Y-12712674D02*
X15917682Y-12703150D01*
X15917682Y-12703150D02*
X15908158Y-12684103D01*
X15908158Y-12684103D02*
X15908158Y-12674579D01*
X15908158Y-12674579D02*
X15917682Y-12655531D01*
X15917682Y-12655531D02*
X15927206Y-12646008D01*
X15927206Y-12646008D02*
X15946253Y-12636484D01*
X15946253Y-12636484D02*
X15984348Y-12636484D01*
X15984348Y-12636484D02*
X16003396Y-12646008D01*
X16003396Y-12646008D02*
X16012920Y-12655531D01*
X16012920Y-12655531D02*
X16022444Y-12674579D01*
X16022444Y-12674579D02*
X16022444Y-12684103D01*
X16022444Y-12684103D02*
X16012920Y-12703150D01*
X16012920Y-12703150D02*
X16003396Y-12712674D01*
X16003396Y-12712674D02*
X15984348Y-12722198D01*
X15984348Y-12722198D02*
X15946253Y-12722198D01*
X15946253Y-12722198D02*
X15927206Y-12731722D01*
X15927206Y-12731722D02*
X15917682Y-12741246D01*
X15917682Y-12741246D02*
X15908158Y-12760293D01*
X15908158Y-12760293D02*
X15908158Y-12798388D01*
X15908158Y-12798388D02*
X15917682Y-12817436D01*
X15917682Y-12817436D02*
X15927206Y-12826960D01*
X15927206Y-12826960D02*
X15946253Y-12836484D01*
X15946253Y-12836484D02*
X15984348Y-12836484D01*
X15984348Y-12836484D02*
X16003396Y-12826960D01*
X16003396Y-12826960D02*
X16012920Y-12817436D01*
X16012920Y-12817436D02*
X16022444Y-12798388D01*
X16022444Y-12798388D02*
X16022444Y-12760293D01*
X16022444Y-12760293D02*
X16012920Y-12741246D01*
X16012920Y-12741246D02*
X16003396Y-12731722D01*
X16003396Y-12731722D02*
X15984348Y-12722198D01*
X16098634Y-12636484D02*
X16098634Y-12674579D01*
X16174825Y-12636484D02*
X16174825Y-12674579D01*
X16470063Y-12912674D02*
X16460539Y-12903150D01*
X16460539Y-12903150D02*
X16441491Y-12874579D01*
X16441491Y-12874579D02*
X16431968Y-12855531D01*
X16431968Y-12855531D02*
X16422444Y-12826960D01*
X16422444Y-12826960D02*
X16412920Y-12779341D01*
X16412920Y-12779341D02*
X16412920Y-12741246D01*
X16412920Y-12741246D02*
X16422444Y-12693627D01*
X16422444Y-12693627D02*
X16431968Y-12665055D01*
X16431968Y-12665055D02*
X16441491Y-12646008D01*
X16441491Y-12646008D02*
X16460539Y-12617436D01*
X16460539Y-12617436D02*
X16470063Y-12607912D01*
X16527206Y-12636484D02*
X16660539Y-12636484D01*
X16660539Y-12636484D02*
X16574825Y-12836484D01*
X16717682Y-12636484D02*
X16841491Y-12636484D01*
X16841491Y-12636484D02*
X16774825Y-12712674D01*
X16774825Y-12712674D02*
X16803396Y-12712674D01*
X16803396Y-12712674D02*
X16822444Y-12722198D01*
X16822444Y-12722198D02*
X16831968Y-12731722D01*
X16831968Y-12731722D02*
X16841491Y-12750769D01*
X16841491Y-12750769D02*
X16841491Y-12798388D01*
X16841491Y-12798388D02*
X16831968Y-12817436D01*
X16831968Y-12817436D02*
X16822444Y-12826960D01*
X16822444Y-12826960D02*
X16803396Y-12836484D01*
X16803396Y-12836484D02*
X16746253Y-12836484D01*
X16746253Y-12836484D02*
X16727206Y-12826960D01*
X16727206Y-12826960D02*
X16717682Y-12817436D01*
X17079587Y-12836484D02*
X17079587Y-12636484D01*
X17165301Y-12836484D02*
X17165301Y-12731722D01*
X17165301Y-12731722D02*
X17155777Y-12712674D01*
X17155777Y-12712674D02*
X17136730Y-12703150D01*
X17136730Y-12703150D02*
X17108158Y-12703150D01*
X17108158Y-12703150D02*
X17089111Y-12712674D01*
X17089111Y-12712674D02*
X17079587Y-12722198D01*
X17289111Y-12836484D02*
X17270063Y-12826960D01*
X17270063Y-12826960D02*
X17260539Y-12817436D01*
X17260539Y-12817436D02*
X17251015Y-12798388D01*
X17251015Y-12798388D02*
X17251015Y-12741246D01*
X17251015Y-12741246D02*
X17260539Y-12722198D01*
X17260539Y-12722198D02*
X17270063Y-12712674D01*
X17270063Y-12712674D02*
X17289111Y-12703150D01*
X17289111Y-12703150D02*
X17317682Y-12703150D01*
X17317682Y-12703150D02*
X17336730Y-12712674D01*
X17336730Y-12712674D02*
X17346253Y-12722198D01*
X17346253Y-12722198D02*
X17355777Y-12741246D01*
X17355777Y-12741246D02*
X17355777Y-12798388D01*
X17355777Y-12798388D02*
X17346253Y-12817436D01*
X17346253Y-12817436D02*
X17336730Y-12826960D01*
X17336730Y-12826960D02*
X17317682Y-12836484D01*
X17317682Y-12836484D02*
X17289111Y-12836484D01*
X17470063Y-12836484D02*
X17451015Y-12826960D01*
X17451015Y-12826960D02*
X17441492Y-12807912D01*
X17441492Y-12807912D02*
X17441492Y-12636484D01*
X17622444Y-12826960D02*
X17603396Y-12836484D01*
X17603396Y-12836484D02*
X17565301Y-12836484D01*
X17565301Y-12836484D02*
X17546253Y-12826960D01*
X17546253Y-12826960D02*
X17536730Y-12807912D01*
X17536730Y-12807912D02*
X17536730Y-12731722D01*
X17536730Y-12731722D02*
X17546253Y-12712674D01*
X17546253Y-12712674D02*
X17565301Y-12703150D01*
X17565301Y-12703150D02*
X17603396Y-12703150D01*
X17603396Y-12703150D02*
X17622444Y-12712674D01*
X17622444Y-12712674D02*
X17631968Y-12731722D01*
X17631968Y-12731722D02*
X17631968Y-12750769D01*
X17631968Y-12750769D02*
X17536730Y-12769817D01*
X17708158Y-12826960D02*
X17727206Y-12836484D01*
X17727206Y-12836484D02*
X17765301Y-12836484D01*
X17765301Y-12836484D02*
X17784349Y-12826960D01*
X17784349Y-12826960D02*
X17793873Y-12807912D01*
X17793873Y-12807912D02*
X17793873Y-12798388D01*
X17793873Y-12798388D02*
X17784349Y-12779341D01*
X17784349Y-12779341D02*
X17765301Y-12769817D01*
X17765301Y-12769817D02*
X17736730Y-12769817D01*
X17736730Y-12769817D02*
X17717682Y-12760293D01*
X17717682Y-12760293D02*
X17708158Y-12741246D01*
X17708158Y-12741246D02*
X17708158Y-12731722D01*
X17708158Y-12731722D02*
X17717682Y-12712674D01*
X17717682Y-12712674D02*
X17736730Y-12703150D01*
X17736730Y-12703150D02*
X17765301Y-12703150D01*
X17765301Y-12703150D02*
X17784349Y-12712674D01*
X17860539Y-12912674D02*
X17870063Y-12903150D01*
X17870063Y-12903150D02*
X17889111Y-12874579D01*
X17889111Y-12874579D02*
X17898634Y-12855531D01*
X17898634Y-12855531D02*
X17908158Y-12826960D01*
X17908158Y-12826960D02*
X17917682Y-12779341D01*
X17917682Y-12779341D02*
X17917682Y-12741246D01*
X17917682Y-12741246D02*
X17908158Y-12693627D01*
X17908158Y-12693627D02*
X17898634Y-12665055D01*
X17898634Y-12665055D02*
X17889111Y-12646008D01*
X17889111Y-12646008D02*
X17870063Y-12617436D01*
X17870063Y-12617436D02*
X17860539Y-12607912D01*
D10*
X12895000Y-13009000D02*
G75*
G02*
X12855000Y-13009000I-20000J0D01*
G01*
X12855000Y-13009000D02*
G75*
G02*
X12895000Y-13009000I20000J0D01*
G01*
D11*
X13193872Y-12900484D02*
X13212920Y-12900484D01*
X13212920Y-12900484D02*
X13231967Y-12910008D01*
X13231967Y-12910008D02*
X13241491Y-12919531D01*
X13241491Y-12919531D02*
X13251015Y-12938579D01*
X13251015Y-12938579D02*
X13260539Y-12976674D01*
X13260539Y-12976674D02*
X13260539Y-13024293D01*
X13260539Y-13024293D02*
X13251015Y-13062388D01*
X13251015Y-13062388D02*
X13241491Y-13081436D01*
X13241491Y-13081436D02*
X13231967Y-13090960D01*
X13231967Y-13090960D02*
X13212920Y-13100484D01*
X13212920Y-13100484D02*
X13193872Y-13100484D01*
X13193872Y-13100484D02*
X13174824Y-13090960D01*
X13174824Y-13090960D02*
X13165301Y-13081436D01*
X13165301Y-13081436D02*
X13155777Y-13062388D01*
X13155777Y-13062388D02*
X13146253Y-13024293D01*
X13146253Y-13024293D02*
X13146253Y-12976674D01*
X13146253Y-12976674D02*
X13155777Y-12938579D01*
X13155777Y-12938579D02*
X13165301Y-12919531D01*
X13165301Y-12919531D02*
X13174824Y-12910008D01*
X13174824Y-12910008D02*
X13193872Y-12900484D01*
X13346253Y-13081436D02*
X13355777Y-13090960D01*
X13355777Y-13090960D02*
X13346253Y-13100484D01*
X13346253Y-13100484D02*
X13336729Y-13090960D01*
X13336729Y-13090960D02*
X13346253Y-13081436D01*
X13346253Y-13081436D02*
X13346253Y-13100484D01*
X13527205Y-12967150D02*
X13527205Y-13100484D01*
X13479586Y-12890960D02*
X13431967Y-13033817D01*
X13431967Y-13033817D02*
X13555777Y-13033817D01*
X13670062Y-12900484D02*
X13689110Y-12900484D01*
X13689110Y-12900484D02*
X13708158Y-12910008D01*
X13708158Y-12910008D02*
X13717682Y-12919531D01*
X13717682Y-12919531D02*
X13727205Y-12938579D01*
X13727205Y-12938579D02*
X13736729Y-12976674D01*
X13736729Y-12976674D02*
X13736729Y-13024293D01*
X13736729Y-13024293D02*
X13727205Y-13062388D01*
X13727205Y-13062388D02*
X13717682Y-13081436D01*
X13717682Y-13081436D02*
X13708158Y-13090960D01*
X13708158Y-13090960D02*
X13689110Y-13100484D01*
X13689110Y-13100484D02*
X13670062Y-13100484D01*
X13670062Y-13100484D02*
X13651015Y-13090960D01*
X13651015Y-13090960D02*
X13641491Y-13081436D01*
X13641491Y-13081436D02*
X13631967Y-13062388D01*
X13631967Y-13062388D02*
X13622443Y-13024293D01*
X13622443Y-13024293D02*
X13622443Y-12976674D01*
X13622443Y-12976674D02*
X13631967Y-12938579D01*
X13631967Y-12938579D02*
X13641491Y-12919531D01*
X13641491Y-12919531D02*
X13651015Y-12910008D01*
X13651015Y-12910008D02*
X13670062Y-12900484D01*
X13860539Y-12900484D02*
X13879586Y-12900484D01*
X13879586Y-12900484D02*
X13898634Y-12910008D01*
X13898634Y-12910008D02*
X13908158Y-12919531D01*
X13908158Y-12919531D02*
X13917682Y-12938579D01*
X13917682Y-12938579D02*
X13927205Y-12976674D01*
X13927205Y-12976674D02*
X13927205Y-13024293D01*
X13927205Y-13024293D02*
X13917682Y-13062388D01*
X13917682Y-13062388D02*
X13908158Y-13081436D01*
X13908158Y-13081436D02*
X13898634Y-13090960D01*
X13898634Y-13090960D02*
X13879586Y-13100484D01*
X13879586Y-13100484D02*
X13860539Y-13100484D01*
X13860539Y-13100484D02*
X13841491Y-13090960D01*
X13841491Y-13090960D02*
X13831967Y-13081436D01*
X13831967Y-13081436D02*
X13822443Y-13062388D01*
X13822443Y-13062388D02*
X13812920Y-13024293D01*
X13812920Y-13024293D02*
X13812920Y-12976674D01*
X13812920Y-12976674D02*
X13822443Y-12938579D01*
X13822443Y-12938579D02*
X13831967Y-12919531D01*
X13831967Y-12919531D02*
X13841491Y-12910008D01*
X13841491Y-12910008D02*
X13860539Y-12900484D01*
X14012920Y-13100484D02*
X14012920Y-12967150D01*
X14012920Y-12986198D02*
X14022443Y-12976674D01*
X14022443Y-12976674D02*
X14041491Y-12967150D01*
X14041491Y-12967150D02*
X14070063Y-12967150D01*
X14070063Y-12967150D02*
X14089110Y-12976674D01*
X14089110Y-12976674D02*
X14098634Y-12995722D01*
X14098634Y-12995722D02*
X14098634Y-13100484D01*
X14098634Y-12995722D02*
X14108158Y-12976674D01*
X14108158Y-12976674D02*
X14127205Y-12967150D01*
X14127205Y-12967150D02*
X14155777Y-12967150D01*
X14155777Y-12967150D02*
X14174824Y-12976674D01*
X14174824Y-12976674D02*
X14184348Y-12995722D01*
X14184348Y-12995722D02*
X14184348Y-13100484D01*
X14279586Y-13100484D02*
X14279586Y-12967150D01*
X14279586Y-12986198D02*
X14289110Y-12976674D01*
X14289110Y-12976674D02*
X14308158Y-12967150D01*
X14308158Y-12967150D02*
X14336729Y-12967150D01*
X14336729Y-12967150D02*
X14355777Y-12976674D01*
X14355777Y-12976674D02*
X14365301Y-12995722D01*
X14365301Y-12995722D02*
X14365301Y-13100484D01*
X14365301Y-12995722D02*
X14374824Y-12976674D01*
X14374824Y-12976674D02*
X14393872Y-12967150D01*
X14393872Y-12967150D02*
X14422443Y-12967150D01*
X14422443Y-12967150D02*
X14441491Y-12976674D01*
X14441491Y-12976674D02*
X14451015Y-12995722D01*
X14451015Y-12995722D02*
X14451015Y-13100484D01*
X14841491Y-12890960D02*
X14670063Y-13148103D01*
X15098634Y-12900484D02*
X15117682Y-12900484D01*
X15117682Y-12900484D02*
X15136729Y-12910008D01*
X15136729Y-12910008D02*
X15146253Y-12919531D01*
X15146253Y-12919531D02*
X15155777Y-12938579D01*
X15155777Y-12938579D02*
X15165301Y-12976674D01*
X15165301Y-12976674D02*
X15165301Y-13024293D01*
X15165301Y-13024293D02*
X15155777Y-13062388D01*
X15155777Y-13062388D02*
X15146253Y-13081436D01*
X15146253Y-13081436D02*
X15136729Y-13090960D01*
X15136729Y-13090960D02*
X15117682Y-13100484D01*
X15117682Y-13100484D02*
X15098634Y-13100484D01*
X15098634Y-13100484D02*
X15079586Y-13090960D01*
X15079586Y-13090960D02*
X15070063Y-13081436D01*
X15070063Y-13081436D02*
X15060539Y-13062388D01*
X15060539Y-13062388D02*
X15051015Y-13024293D01*
X15051015Y-13024293D02*
X15051015Y-12976674D01*
X15051015Y-12976674D02*
X15060539Y-12938579D01*
X15060539Y-12938579D02*
X15070063Y-12919531D01*
X15070063Y-12919531D02*
X15079586Y-12910008D01*
X15079586Y-12910008D02*
X15098634Y-12900484D01*
X15251015Y-13081436D02*
X15260539Y-13090960D01*
X15260539Y-13090960D02*
X15251015Y-13100484D01*
X15251015Y-13100484D02*
X15241491Y-13090960D01*
X15241491Y-13090960D02*
X15251015Y-13081436D01*
X15251015Y-13081436D02*
X15251015Y-13100484D01*
X15384348Y-12900484D02*
X15403396Y-12900484D01*
X15403396Y-12900484D02*
X15422444Y-12910008D01*
X15422444Y-12910008D02*
X15431967Y-12919531D01*
X15431967Y-12919531D02*
X15441491Y-12938579D01*
X15441491Y-12938579D02*
X15451015Y-12976674D01*
X15451015Y-12976674D02*
X15451015Y-13024293D01*
X15451015Y-13024293D02*
X15441491Y-13062388D01*
X15441491Y-13062388D02*
X15431967Y-13081436D01*
X15431967Y-13081436D02*
X15422444Y-13090960D01*
X15422444Y-13090960D02*
X15403396Y-13100484D01*
X15403396Y-13100484D02*
X15384348Y-13100484D01*
X15384348Y-13100484D02*
X15365301Y-13090960D01*
X15365301Y-13090960D02*
X15355777Y-13081436D01*
X15355777Y-13081436D02*
X15346253Y-13062388D01*
X15346253Y-13062388D02*
X15336729Y-13024293D01*
X15336729Y-13024293D02*
X15336729Y-12976674D01*
X15336729Y-12976674D02*
X15346253Y-12938579D01*
X15346253Y-12938579D02*
X15355777Y-12919531D01*
X15355777Y-12919531D02*
X15365301Y-12910008D01*
X15365301Y-12910008D02*
X15384348Y-12900484D01*
X15641491Y-13100484D02*
X15527206Y-13100484D01*
X15584348Y-13100484D02*
X15584348Y-12900484D01*
X15584348Y-12900484D02*
X15565301Y-12929055D01*
X15565301Y-12929055D02*
X15546253Y-12948103D01*
X15546253Y-12948103D02*
X15527206Y-12957627D01*
X15822444Y-12900484D02*
X15727206Y-12900484D01*
X15727206Y-12900484D02*
X15717682Y-12995722D01*
X15717682Y-12995722D02*
X15727206Y-12986198D01*
X15727206Y-12986198D02*
X15746253Y-12976674D01*
X15746253Y-12976674D02*
X15793872Y-12976674D01*
X15793872Y-12976674D02*
X15812920Y-12986198D01*
X15812920Y-12986198D02*
X15822444Y-12995722D01*
X15822444Y-12995722D02*
X15831967Y-13014769D01*
X15831967Y-13014769D02*
X15831967Y-13062388D01*
X15831967Y-13062388D02*
X15822444Y-13081436D01*
X15822444Y-13081436D02*
X15812920Y-13090960D01*
X15812920Y-13090960D02*
X15793872Y-13100484D01*
X15793872Y-13100484D02*
X15746253Y-13100484D01*
X15746253Y-13100484D02*
X15727206Y-13090960D01*
X15727206Y-13090960D02*
X15717682Y-13081436D01*
X15898634Y-12900484D02*
X16031967Y-12900484D01*
X16031967Y-12900484D02*
X15946253Y-13100484D01*
X16098634Y-12900484D02*
X16098634Y-12938579D01*
X16174825Y-12900484D02*
X16174825Y-12938579D01*
X16470063Y-13176674D02*
X16460539Y-13167150D01*
X16460539Y-13167150D02*
X16441491Y-13138579D01*
X16441491Y-13138579D02*
X16431968Y-13119531D01*
X16431968Y-13119531D02*
X16422444Y-13090960D01*
X16422444Y-13090960D02*
X16412920Y-13043341D01*
X16412920Y-13043341D02*
X16412920Y-13005246D01*
X16412920Y-13005246D02*
X16422444Y-12957627D01*
X16422444Y-12957627D02*
X16431968Y-12929055D01*
X16431968Y-12929055D02*
X16441491Y-12910008D01*
X16441491Y-12910008D02*
X16460539Y-12881436D01*
X16460539Y-12881436D02*
X16470063Y-12871912D01*
X16651015Y-13100484D02*
X16536729Y-13100484D01*
X16593872Y-13100484D02*
X16593872Y-12900484D01*
X16593872Y-12900484D02*
X16574825Y-12929055D01*
X16574825Y-12929055D02*
X16555777Y-12948103D01*
X16555777Y-12948103D02*
X16536729Y-12957627D01*
X16889111Y-13100484D02*
X16889111Y-12900484D01*
X16974825Y-13100484D02*
X16974825Y-12995722D01*
X16974825Y-12995722D02*
X16965301Y-12976674D01*
X16965301Y-12976674D02*
X16946253Y-12967150D01*
X16946253Y-12967150D02*
X16917682Y-12967150D01*
X16917682Y-12967150D02*
X16898634Y-12976674D01*
X16898634Y-12976674D02*
X16889111Y-12986198D01*
X17098634Y-13100484D02*
X17079587Y-13090960D01*
X17079587Y-13090960D02*
X17070063Y-13081436D01*
X17070063Y-13081436D02*
X17060539Y-13062388D01*
X17060539Y-13062388D02*
X17060539Y-13005246D01*
X17060539Y-13005246D02*
X17070063Y-12986198D01*
X17070063Y-12986198D02*
X17079587Y-12976674D01*
X17079587Y-12976674D02*
X17098634Y-12967150D01*
X17098634Y-12967150D02*
X17127206Y-12967150D01*
X17127206Y-12967150D02*
X17146253Y-12976674D01*
X17146253Y-12976674D02*
X17155777Y-12986198D01*
X17155777Y-12986198D02*
X17165301Y-13005246D01*
X17165301Y-13005246D02*
X17165301Y-13062388D01*
X17165301Y-13062388D02*
X17155777Y-13081436D01*
X17155777Y-13081436D02*
X17146253Y-13090960D01*
X17146253Y-13090960D02*
X17127206Y-13100484D01*
X17127206Y-13100484D02*
X17098634Y-13100484D01*
X17279587Y-13100484D02*
X17260539Y-13090960D01*
X17260539Y-13090960D02*
X17251015Y-13071912D01*
X17251015Y-13071912D02*
X17251015Y-12900484D01*
X17431968Y-13090960D02*
X17412920Y-13100484D01*
X17412920Y-13100484D02*
X17374825Y-13100484D01*
X17374825Y-13100484D02*
X17355777Y-13090960D01*
X17355777Y-13090960D02*
X17346253Y-13071912D01*
X17346253Y-13071912D02*
X17346253Y-12995722D01*
X17346253Y-12995722D02*
X17355777Y-12976674D01*
X17355777Y-12976674D02*
X17374825Y-12967150D01*
X17374825Y-12967150D02*
X17412920Y-12967150D01*
X17412920Y-12967150D02*
X17431968Y-12976674D01*
X17431968Y-12976674D02*
X17441492Y-12995722D01*
X17441492Y-12995722D02*
X17441492Y-13014769D01*
X17441492Y-13014769D02*
X17346253Y-13033817D01*
X17508158Y-13176674D02*
X17517682Y-13167150D01*
X17517682Y-13167150D02*
X17536730Y-13138579D01*
X17536730Y-13138579D02*
X17546253Y-13119531D01*
X17546253Y-13119531D02*
X17555777Y-13090960D01*
X17555777Y-13090960D02*
X17565301Y-13043341D01*
X17565301Y-13043341D02*
X17565301Y-13005246D01*
X17565301Y-13005246D02*
X17555777Y-12957627D01*
X17555777Y-12957627D02*
X17546253Y-12929055D01*
X17546253Y-12929055D02*
X17536730Y-12910008D01*
X17536730Y-12910008D02*
X17517682Y-12881436D01*
X17517682Y-12881436D02*
X17508158Y-12871912D01*
D10*
X12850500Y-13228500D02*
X12850500Y-13317500D01*
X12806000Y-13273000D02*
X12895000Y-13273000D01*
D11*
X13193872Y-13164484D02*
X13212920Y-13164484D01*
X13212920Y-13164484D02*
X13231967Y-13174008D01*
X13231967Y-13174008D02*
X13241491Y-13183531D01*
X13241491Y-13183531D02*
X13251015Y-13202579D01*
X13251015Y-13202579D02*
X13260539Y-13240674D01*
X13260539Y-13240674D02*
X13260539Y-13288293D01*
X13260539Y-13288293D02*
X13251015Y-13326388D01*
X13251015Y-13326388D02*
X13241491Y-13345436D01*
X13241491Y-13345436D02*
X13231967Y-13354960D01*
X13231967Y-13354960D02*
X13212920Y-13364484D01*
X13212920Y-13364484D02*
X13193872Y-13364484D01*
X13193872Y-13364484D02*
X13174824Y-13354960D01*
X13174824Y-13354960D02*
X13165301Y-13345436D01*
X13165301Y-13345436D02*
X13155777Y-13326388D01*
X13155777Y-13326388D02*
X13146253Y-13288293D01*
X13146253Y-13288293D02*
X13146253Y-13240674D01*
X13146253Y-13240674D02*
X13155777Y-13202579D01*
X13155777Y-13202579D02*
X13165301Y-13183531D01*
X13165301Y-13183531D02*
X13174824Y-13174008D01*
X13174824Y-13174008D02*
X13193872Y-13164484D01*
X13346253Y-13345436D02*
X13355777Y-13354960D01*
X13355777Y-13354960D02*
X13346253Y-13364484D01*
X13346253Y-13364484D02*
X13336729Y-13354960D01*
X13336729Y-13354960D02*
X13346253Y-13345436D01*
X13346253Y-13345436D02*
X13346253Y-13364484D01*
X13470062Y-13250198D02*
X13451015Y-13240674D01*
X13451015Y-13240674D02*
X13441491Y-13231150D01*
X13441491Y-13231150D02*
X13431967Y-13212103D01*
X13431967Y-13212103D02*
X13431967Y-13202579D01*
X13431967Y-13202579D02*
X13441491Y-13183531D01*
X13441491Y-13183531D02*
X13451015Y-13174008D01*
X13451015Y-13174008D02*
X13470062Y-13164484D01*
X13470062Y-13164484D02*
X13508158Y-13164484D01*
X13508158Y-13164484D02*
X13527205Y-13174008D01*
X13527205Y-13174008D02*
X13536729Y-13183531D01*
X13536729Y-13183531D02*
X13546253Y-13202579D01*
X13546253Y-13202579D02*
X13546253Y-13212103D01*
X13546253Y-13212103D02*
X13536729Y-13231150D01*
X13536729Y-13231150D02*
X13527205Y-13240674D01*
X13527205Y-13240674D02*
X13508158Y-13250198D01*
X13508158Y-13250198D02*
X13470062Y-13250198D01*
X13470062Y-13250198D02*
X13451015Y-13259722D01*
X13451015Y-13259722D02*
X13441491Y-13269246D01*
X13441491Y-13269246D02*
X13431967Y-13288293D01*
X13431967Y-13288293D02*
X13431967Y-13326388D01*
X13431967Y-13326388D02*
X13441491Y-13345436D01*
X13441491Y-13345436D02*
X13451015Y-13354960D01*
X13451015Y-13354960D02*
X13470062Y-13364484D01*
X13470062Y-13364484D02*
X13508158Y-13364484D01*
X13508158Y-13364484D02*
X13527205Y-13354960D01*
X13527205Y-13354960D02*
X13536729Y-13345436D01*
X13536729Y-13345436D02*
X13546253Y-13326388D01*
X13546253Y-13326388D02*
X13546253Y-13288293D01*
X13546253Y-13288293D02*
X13536729Y-13269246D01*
X13536729Y-13269246D02*
X13527205Y-13259722D01*
X13527205Y-13259722D02*
X13508158Y-13250198D01*
X13641491Y-13364484D02*
X13679586Y-13364484D01*
X13679586Y-13364484D02*
X13698634Y-13354960D01*
X13698634Y-13354960D02*
X13708158Y-13345436D01*
X13708158Y-13345436D02*
X13727205Y-13316865D01*
X13727205Y-13316865D02*
X13736729Y-13278769D01*
X13736729Y-13278769D02*
X13736729Y-13202579D01*
X13736729Y-13202579D02*
X13727205Y-13183531D01*
X13727205Y-13183531D02*
X13717682Y-13174008D01*
X13717682Y-13174008D02*
X13698634Y-13164484D01*
X13698634Y-13164484D02*
X13660539Y-13164484D01*
X13660539Y-13164484D02*
X13641491Y-13174008D01*
X13641491Y-13174008D02*
X13631967Y-13183531D01*
X13631967Y-13183531D02*
X13622443Y-13202579D01*
X13622443Y-13202579D02*
X13622443Y-13250198D01*
X13622443Y-13250198D02*
X13631967Y-13269246D01*
X13631967Y-13269246D02*
X13641491Y-13278769D01*
X13641491Y-13278769D02*
X13660539Y-13288293D01*
X13660539Y-13288293D02*
X13698634Y-13288293D01*
X13698634Y-13288293D02*
X13717682Y-13278769D01*
X13717682Y-13278769D02*
X13727205Y-13269246D01*
X13727205Y-13269246D02*
X13736729Y-13250198D01*
X13860539Y-13164484D02*
X13879586Y-13164484D01*
X13879586Y-13164484D02*
X13898634Y-13174008D01*
X13898634Y-13174008D02*
X13908158Y-13183531D01*
X13908158Y-13183531D02*
X13917682Y-13202579D01*
X13917682Y-13202579D02*
X13927205Y-13240674D01*
X13927205Y-13240674D02*
X13927205Y-13288293D01*
X13927205Y-13288293D02*
X13917682Y-13326388D01*
X13917682Y-13326388D02*
X13908158Y-13345436D01*
X13908158Y-13345436D02*
X13898634Y-13354960D01*
X13898634Y-13354960D02*
X13879586Y-13364484D01*
X13879586Y-13364484D02*
X13860539Y-13364484D01*
X13860539Y-13364484D02*
X13841491Y-13354960D01*
X13841491Y-13354960D02*
X13831967Y-13345436D01*
X13831967Y-13345436D02*
X13822443Y-13326388D01*
X13822443Y-13326388D02*
X13812920Y-13288293D01*
X13812920Y-13288293D02*
X13812920Y-13240674D01*
X13812920Y-13240674D02*
X13822443Y-13202579D01*
X13822443Y-13202579D02*
X13831967Y-13183531D01*
X13831967Y-13183531D02*
X13841491Y-13174008D01*
X13841491Y-13174008D02*
X13860539Y-13164484D01*
X14012920Y-13364484D02*
X14012920Y-13231150D01*
X14012920Y-13250198D02*
X14022443Y-13240674D01*
X14022443Y-13240674D02*
X14041491Y-13231150D01*
X14041491Y-13231150D02*
X14070063Y-13231150D01*
X14070063Y-13231150D02*
X14089110Y-13240674D01*
X14089110Y-13240674D02*
X14098634Y-13259722D01*
X14098634Y-13259722D02*
X14098634Y-13364484D01*
X14098634Y-13259722D02*
X14108158Y-13240674D01*
X14108158Y-13240674D02*
X14127205Y-13231150D01*
X14127205Y-13231150D02*
X14155777Y-13231150D01*
X14155777Y-13231150D02*
X14174824Y-13240674D01*
X14174824Y-13240674D02*
X14184348Y-13259722D01*
X14184348Y-13259722D02*
X14184348Y-13364484D01*
X14279586Y-13364484D02*
X14279586Y-13231150D01*
X14279586Y-13250198D02*
X14289110Y-13240674D01*
X14289110Y-13240674D02*
X14308158Y-13231150D01*
X14308158Y-13231150D02*
X14336729Y-13231150D01*
X14336729Y-13231150D02*
X14355777Y-13240674D01*
X14355777Y-13240674D02*
X14365301Y-13259722D01*
X14365301Y-13259722D02*
X14365301Y-13364484D01*
X14365301Y-13259722D02*
X14374824Y-13240674D01*
X14374824Y-13240674D02*
X14393872Y-13231150D01*
X14393872Y-13231150D02*
X14422443Y-13231150D01*
X14422443Y-13231150D02*
X14441491Y-13240674D01*
X14441491Y-13240674D02*
X14451015Y-13259722D01*
X14451015Y-13259722D02*
X14451015Y-13364484D01*
X14841491Y-13154960D02*
X14670063Y-13412103D01*
X15098634Y-13164484D02*
X15117682Y-13164484D01*
X15117682Y-13164484D02*
X15136729Y-13174008D01*
X15136729Y-13174008D02*
X15146253Y-13183531D01*
X15146253Y-13183531D02*
X15155777Y-13202579D01*
X15155777Y-13202579D02*
X15165301Y-13240674D01*
X15165301Y-13240674D02*
X15165301Y-13288293D01*
X15165301Y-13288293D02*
X15155777Y-13326388D01*
X15155777Y-13326388D02*
X15146253Y-13345436D01*
X15146253Y-13345436D02*
X15136729Y-13354960D01*
X15136729Y-13354960D02*
X15117682Y-13364484D01*
X15117682Y-13364484D02*
X15098634Y-13364484D01*
X15098634Y-13364484D02*
X15079586Y-13354960D01*
X15079586Y-13354960D02*
X15070063Y-13345436D01*
X15070063Y-13345436D02*
X15060539Y-13326388D01*
X15060539Y-13326388D02*
X15051015Y-13288293D01*
X15051015Y-13288293D02*
X15051015Y-13240674D01*
X15051015Y-13240674D02*
X15060539Y-13202579D01*
X15060539Y-13202579D02*
X15070063Y-13183531D01*
X15070063Y-13183531D02*
X15079586Y-13174008D01*
X15079586Y-13174008D02*
X15098634Y-13164484D01*
X15251015Y-13345436D02*
X15260539Y-13354960D01*
X15260539Y-13354960D02*
X15251015Y-13364484D01*
X15251015Y-13364484D02*
X15241491Y-13354960D01*
X15241491Y-13354960D02*
X15251015Y-13345436D01*
X15251015Y-13345436D02*
X15251015Y-13364484D01*
X15384348Y-13164484D02*
X15403396Y-13164484D01*
X15403396Y-13164484D02*
X15422444Y-13174008D01*
X15422444Y-13174008D02*
X15431967Y-13183531D01*
X15431967Y-13183531D02*
X15441491Y-13202579D01*
X15441491Y-13202579D02*
X15451015Y-13240674D01*
X15451015Y-13240674D02*
X15451015Y-13288293D01*
X15451015Y-13288293D02*
X15441491Y-13326388D01*
X15441491Y-13326388D02*
X15431967Y-13345436D01*
X15431967Y-13345436D02*
X15422444Y-13354960D01*
X15422444Y-13354960D02*
X15403396Y-13364484D01*
X15403396Y-13364484D02*
X15384348Y-13364484D01*
X15384348Y-13364484D02*
X15365301Y-13354960D01*
X15365301Y-13354960D02*
X15355777Y-13345436D01*
X15355777Y-13345436D02*
X15346253Y-13326388D01*
X15346253Y-13326388D02*
X15336729Y-13288293D01*
X15336729Y-13288293D02*
X15336729Y-13240674D01*
X15336729Y-13240674D02*
X15346253Y-13202579D01*
X15346253Y-13202579D02*
X15355777Y-13183531D01*
X15355777Y-13183531D02*
X15365301Y-13174008D01*
X15365301Y-13174008D02*
X15384348Y-13164484D01*
X15517682Y-13164484D02*
X15641491Y-13164484D01*
X15641491Y-13164484D02*
X15574825Y-13240674D01*
X15574825Y-13240674D02*
X15603396Y-13240674D01*
X15603396Y-13240674D02*
X15622444Y-13250198D01*
X15622444Y-13250198D02*
X15631967Y-13259722D01*
X15631967Y-13259722D02*
X15641491Y-13278769D01*
X15641491Y-13278769D02*
X15641491Y-13326388D01*
X15641491Y-13326388D02*
X15631967Y-13345436D01*
X15631967Y-13345436D02*
X15622444Y-13354960D01*
X15622444Y-13354960D02*
X15603396Y-13364484D01*
X15603396Y-13364484D02*
X15546253Y-13364484D01*
X15546253Y-13364484D02*
X15527206Y-13354960D01*
X15527206Y-13354960D02*
X15517682Y-13345436D01*
X15822444Y-13164484D02*
X15727206Y-13164484D01*
X15727206Y-13164484D02*
X15717682Y-13259722D01*
X15717682Y-13259722D02*
X15727206Y-13250198D01*
X15727206Y-13250198D02*
X15746253Y-13240674D01*
X15746253Y-13240674D02*
X15793872Y-13240674D01*
X15793872Y-13240674D02*
X15812920Y-13250198D01*
X15812920Y-13250198D02*
X15822444Y-13259722D01*
X15822444Y-13259722D02*
X15831967Y-13278769D01*
X15831967Y-13278769D02*
X15831967Y-13326388D01*
X15831967Y-13326388D02*
X15822444Y-13345436D01*
X15822444Y-13345436D02*
X15812920Y-13354960D01*
X15812920Y-13354960D02*
X15793872Y-13364484D01*
X15793872Y-13364484D02*
X15746253Y-13364484D01*
X15746253Y-13364484D02*
X15727206Y-13354960D01*
X15727206Y-13354960D02*
X15717682Y-13345436D01*
X15955777Y-13164484D02*
X15974825Y-13164484D01*
X15974825Y-13164484D02*
X15993872Y-13174008D01*
X15993872Y-13174008D02*
X16003396Y-13183531D01*
X16003396Y-13183531D02*
X16012920Y-13202579D01*
X16012920Y-13202579D02*
X16022444Y-13240674D01*
X16022444Y-13240674D02*
X16022444Y-13288293D01*
X16022444Y-13288293D02*
X16012920Y-13326388D01*
X16012920Y-13326388D02*
X16003396Y-13345436D01*
X16003396Y-13345436D02*
X15993872Y-13354960D01*
X15993872Y-13354960D02*
X15974825Y-13364484D01*
X15974825Y-13364484D02*
X15955777Y-13364484D01*
X15955777Y-13364484D02*
X15936729Y-13354960D01*
X15936729Y-13354960D02*
X15927206Y-13345436D01*
X15927206Y-13345436D02*
X15917682Y-13326388D01*
X15917682Y-13326388D02*
X15908158Y-13288293D01*
X15908158Y-13288293D02*
X15908158Y-13240674D01*
X15908158Y-13240674D02*
X15917682Y-13202579D01*
X15917682Y-13202579D02*
X15927206Y-13183531D01*
X15927206Y-13183531D02*
X15936729Y-13174008D01*
X15936729Y-13174008D02*
X15955777Y-13164484D01*
X16098634Y-13164484D02*
X16098634Y-13202579D01*
X16174825Y-13164484D02*
X16174825Y-13202579D01*
X16470063Y-13440674D02*
X16460539Y-13431150D01*
X16460539Y-13431150D02*
X16441491Y-13402579D01*
X16441491Y-13402579D02*
X16431968Y-13383531D01*
X16431968Y-13383531D02*
X16422444Y-13354960D01*
X16422444Y-13354960D02*
X16412920Y-13307341D01*
X16412920Y-13307341D02*
X16412920Y-13269246D01*
X16412920Y-13269246D02*
X16422444Y-13221627D01*
X16422444Y-13221627D02*
X16431968Y-13193055D01*
X16431968Y-13193055D02*
X16441491Y-13174008D01*
X16441491Y-13174008D02*
X16460539Y-13145436D01*
X16460539Y-13145436D02*
X16470063Y-13135912D01*
X16631968Y-13231150D02*
X16631968Y-13364484D01*
X16584348Y-13154960D02*
X16536729Y-13297817D01*
X16536729Y-13297817D02*
X16660539Y-13297817D01*
X16889111Y-13364484D02*
X16889111Y-13164484D01*
X16974825Y-13364484D02*
X16974825Y-13259722D01*
X16974825Y-13259722D02*
X16965301Y-13240674D01*
X16965301Y-13240674D02*
X16946253Y-13231150D01*
X16946253Y-13231150D02*
X16917682Y-13231150D01*
X16917682Y-13231150D02*
X16898634Y-13240674D01*
X16898634Y-13240674D02*
X16889111Y-13250198D01*
X17098634Y-13364484D02*
X17079587Y-13354960D01*
X17079587Y-13354960D02*
X17070063Y-13345436D01*
X17070063Y-13345436D02*
X17060539Y-13326388D01*
X17060539Y-13326388D02*
X17060539Y-13269246D01*
X17060539Y-13269246D02*
X17070063Y-13250198D01*
X17070063Y-13250198D02*
X17079587Y-13240674D01*
X17079587Y-13240674D02*
X17098634Y-13231150D01*
X17098634Y-13231150D02*
X17127206Y-13231150D01*
X17127206Y-13231150D02*
X17146253Y-13240674D01*
X17146253Y-13240674D02*
X17155777Y-13250198D01*
X17155777Y-13250198D02*
X17165301Y-13269246D01*
X17165301Y-13269246D02*
X17165301Y-13326388D01*
X17165301Y-13326388D02*
X17155777Y-13345436D01*
X17155777Y-13345436D02*
X17146253Y-13354960D01*
X17146253Y-13354960D02*
X17127206Y-13364484D01*
X17127206Y-13364484D02*
X17098634Y-13364484D01*
X17279587Y-13364484D02*
X17260539Y-13354960D01*
X17260539Y-13354960D02*
X17251015Y-13335912D01*
X17251015Y-13335912D02*
X17251015Y-13164484D01*
X17431968Y-13354960D02*
X17412920Y-13364484D01*
X17412920Y-13364484D02*
X17374825Y-13364484D01*
X17374825Y-13364484D02*
X17355777Y-13354960D01*
X17355777Y-13354960D02*
X17346253Y-13335912D01*
X17346253Y-13335912D02*
X17346253Y-13259722D01*
X17346253Y-13259722D02*
X17355777Y-13240674D01*
X17355777Y-13240674D02*
X17374825Y-13231150D01*
X17374825Y-13231150D02*
X17412920Y-13231150D01*
X17412920Y-13231150D02*
X17431968Y-13240674D01*
X17431968Y-13240674D02*
X17441492Y-13259722D01*
X17441492Y-13259722D02*
X17441492Y-13278769D01*
X17441492Y-13278769D02*
X17346253Y-13297817D01*
X17517682Y-13354960D02*
X17536730Y-13364484D01*
X17536730Y-13364484D02*
X17574825Y-13364484D01*
X17574825Y-13364484D02*
X17593873Y-13354960D01*
X17593873Y-13354960D02*
X17603396Y-13335912D01*
X17603396Y-13335912D02*
X17603396Y-13326388D01*
X17603396Y-13326388D02*
X17593873Y-13307341D01*
X17593873Y-13307341D02*
X17574825Y-13297817D01*
X17574825Y-13297817D02*
X17546253Y-13297817D01*
X17546253Y-13297817D02*
X17527206Y-13288293D01*
X17527206Y-13288293D02*
X17517682Y-13269246D01*
X17517682Y-13269246D02*
X17517682Y-13259722D01*
X17517682Y-13259722D02*
X17527206Y-13240674D01*
X17527206Y-13240674D02*
X17546253Y-13231150D01*
X17546253Y-13231150D02*
X17574825Y-13231150D01*
X17574825Y-13231150D02*
X17593873Y-13240674D01*
X17670063Y-13440674D02*
X17679587Y-13431150D01*
X17679587Y-13431150D02*
X17698634Y-13402579D01*
X17698634Y-13402579D02*
X17708158Y-13383531D01*
X17708158Y-13383531D02*
X17717682Y-13354960D01*
X17717682Y-13354960D02*
X17727206Y-13307341D01*
X17727206Y-13307341D02*
X17727206Y-13269246D01*
X17727206Y-13269246D02*
X17717682Y-13221627D01*
X17717682Y-13221627D02*
X17708158Y-13193055D01*
X17708158Y-13193055D02*
X17698634Y-13174008D01*
X17698634Y-13174008D02*
X17679587Y-13145436D01*
X17679587Y-13145436D02*
X17670063Y-13135912D01*
D10*
X12881820Y-13568820D02*
X12881820Y-13505180D01*
X12818180Y-13505180D01*
X12818180Y-13568820D01*
X12881820Y-13568820D01*
D11*
X13193872Y-13428484D02*
X13212920Y-13428484D01*
X13212920Y-13428484D02*
X13231967Y-13438008D01*
X13231967Y-13438008D02*
X13241491Y-13447531D01*
X13241491Y-13447531D02*
X13251015Y-13466579D01*
X13251015Y-13466579D02*
X13260539Y-13504674D01*
X13260539Y-13504674D02*
X13260539Y-13552293D01*
X13260539Y-13552293D02*
X13251015Y-13590388D01*
X13251015Y-13590388D02*
X13241491Y-13609436D01*
X13241491Y-13609436D02*
X13231967Y-13618960D01*
X13231967Y-13618960D02*
X13212920Y-13628484D01*
X13212920Y-13628484D02*
X13193872Y-13628484D01*
X13193872Y-13628484D02*
X13174824Y-13618960D01*
X13174824Y-13618960D02*
X13165301Y-13609436D01*
X13165301Y-13609436D02*
X13155777Y-13590388D01*
X13155777Y-13590388D02*
X13146253Y-13552293D01*
X13146253Y-13552293D02*
X13146253Y-13504674D01*
X13146253Y-13504674D02*
X13155777Y-13466579D01*
X13155777Y-13466579D02*
X13165301Y-13447531D01*
X13165301Y-13447531D02*
X13174824Y-13438008D01*
X13174824Y-13438008D02*
X13193872Y-13428484D01*
X13346253Y-13609436D02*
X13355777Y-13618960D01*
X13355777Y-13618960D02*
X13346253Y-13628484D01*
X13346253Y-13628484D02*
X13336729Y-13618960D01*
X13336729Y-13618960D02*
X13346253Y-13609436D01*
X13346253Y-13609436D02*
X13346253Y-13628484D01*
X13451015Y-13628484D02*
X13489110Y-13628484D01*
X13489110Y-13628484D02*
X13508158Y-13618960D01*
X13508158Y-13618960D02*
X13517682Y-13609436D01*
X13517682Y-13609436D02*
X13536729Y-13580865D01*
X13536729Y-13580865D02*
X13546253Y-13542769D01*
X13546253Y-13542769D02*
X13546253Y-13466579D01*
X13546253Y-13466579D02*
X13536729Y-13447531D01*
X13536729Y-13447531D02*
X13527205Y-13438008D01*
X13527205Y-13438008D02*
X13508158Y-13428484D01*
X13508158Y-13428484D02*
X13470062Y-13428484D01*
X13470062Y-13428484D02*
X13451015Y-13438008D01*
X13451015Y-13438008D02*
X13441491Y-13447531D01*
X13441491Y-13447531D02*
X13431967Y-13466579D01*
X13431967Y-13466579D02*
X13431967Y-13514198D01*
X13431967Y-13514198D02*
X13441491Y-13533246D01*
X13441491Y-13533246D02*
X13451015Y-13542769D01*
X13451015Y-13542769D02*
X13470062Y-13552293D01*
X13470062Y-13552293D02*
X13508158Y-13552293D01*
X13508158Y-13552293D02*
X13527205Y-13542769D01*
X13527205Y-13542769D02*
X13536729Y-13533246D01*
X13536729Y-13533246D02*
X13546253Y-13514198D01*
X13670062Y-13428484D02*
X13689110Y-13428484D01*
X13689110Y-13428484D02*
X13708158Y-13438008D01*
X13708158Y-13438008D02*
X13717682Y-13447531D01*
X13717682Y-13447531D02*
X13727205Y-13466579D01*
X13727205Y-13466579D02*
X13736729Y-13504674D01*
X13736729Y-13504674D02*
X13736729Y-13552293D01*
X13736729Y-13552293D02*
X13727205Y-13590388D01*
X13727205Y-13590388D02*
X13717682Y-13609436D01*
X13717682Y-13609436D02*
X13708158Y-13618960D01*
X13708158Y-13618960D02*
X13689110Y-13628484D01*
X13689110Y-13628484D02*
X13670062Y-13628484D01*
X13670062Y-13628484D02*
X13651015Y-13618960D01*
X13651015Y-13618960D02*
X13641491Y-13609436D01*
X13641491Y-13609436D02*
X13631967Y-13590388D01*
X13631967Y-13590388D02*
X13622443Y-13552293D01*
X13622443Y-13552293D02*
X13622443Y-13504674D01*
X13622443Y-13504674D02*
X13631967Y-13466579D01*
X13631967Y-13466579D02*
X13641491Y-13447531D01*
X13641491Y-13447531D02*
X13651015Y-13438008D01*
X13651015Y-13438008D02*
X13670062Y-13428484D01*
X13860539Y-13428484D02*
X13879586Y-13428484D01*
X13879586Y-13428484D02*
X13898634Y-13438008D01*
X13898634Y-13438008D02*
X13908158Y-13447531D01*
X13908158Y-13447531D02*
X13917682Y-13466579D01*
X13917682Y-13466579D02*
X13927205Y-13504674D01*
X13927205Y-13504674D02*
X13927205Y-13552293D01*
X13927205Y-13552293D02*
X13917682Y-13590388D01*
X13917682Y-13590388D02*
X13908158Y-13609436D01*
X13908158Y-13609436D02*
X13898634Y-13618960D01*
X13898634Y-13618960D02*
X13879586Y-13628484D01*
X13879586Y-13628484D02*
X13860539Y-13628484D01*
X13860539Y-13628484D02*
X13841491Y-13618960D01*
X13841491Y-13618960D02*
X13831967Y-13609436D01*
X13831967Y-13609436D02*
X13822443Y-13590388D01*
X13822443Y-13590388D02*
X13812920Y-13552293D01*
X13812920Y-13552293D02*
X13812920Y-13504674D01*
X13812920Y-13504674D02*
X13822443Y-13466579D01*
X13822443Y-13466579D02*
X13831967Y-13447531D01*
X13831967Y-13447531D02*
X13841491Y-13438008D01*
X13841491Y-13438008D02*
X13860539Y-13428484D01*
X14012920Y-13628484D02*
X14012920Y-13495150D01*
X14012920Y-13514198D02*
X14022443Y-13504674D01*
X14022443Y-13504674D02*
X14041491Y-13495150D01*
X14041491Y-13495150D02*
X14070063Y-13495150D01*
X14070063Y-13495150D02*
X14089110Y-13504674D01*
X14089110Y-13504674D02*
X14098634Y-13523722D01*
X14098634Y-13523722D02*
X14098634Y-13628484D01*
X14098634Y-13523722D02*
X14108158Y-13504674D01*
X14108158Y-13504674D02*
X14127205Y-13495150D01*
X14127205Y-13495150D02*
X14155777Y-13495150D01*
X14155777Y-13495150D02*
X14174824Y-13504674D01*
X14174824Y-13504674D02*
X14184348Y-13523722D01*
X14184348Y-13523722D02*
X14184348Y-13628484D01*
X14279586Y-13628484D02*
X14279586Y-13495150D01*
X14279586Y-13514198D02*
X14289110Y-13504674D01*
X14289110Y-13504674D02*
X14308158Y-13495150D01*
X14308158Y-13495150D02*
X14336729Y-13495150D01*
X14336729Y-13495150D02*
X14355777Y-13504674D01*
X14355777Y-13504674D02*
X14365301Y-13523722D01*
X14365301Y-13523722D02*
X14365301Y-13628484D01*
X14365301Y-13523722D02*
X14374824Y-13504674D01*
X14374824Y-13504674D02*
X14393872Y-13495150D01*
X14393872Y-13495150D02*
X14422443Y-13495150D01*
X14422443Y-13495150D02*
X14441491Y-13504674D01*
X14441491Y-13504674D02*
X14451015Y-13523722D01*
X14451015Y-13523722D02*
X14451015Y-13628484D01*
X14841491Y-13418960D02*
X14670063Y-13676103D01*
X15098634Y-13428484D02*
X15117682Y-13428484D01*
X15117682Y-13428484D02*
X15136729Y-13438008D01*
X15136729Y-13438008D02*
X15146253Y-13447531D01*
X15146253Y-13447531D02*
X15155777Y-13466579D01*
X15155777Y-13466579D02*
X15165301Y-13504674D01*
X15165301Y-13504674D02*
X15165301Y-13552293D01*
X15165301Y-13552293D02*
X15155777Y-13590388D01*
X15155777Y-13590388D02*
X15146253Y-13609436D01*
X15146253Y-13609436D02*
X15136729Y-13618960D01*
X15136729Y-13618960D02*
X15117682Y-13628484D01*
X15117682Y-13628484D02*
X15098634Y-13628484D01*
X15098634Y-13628484D02*
X15079586Y-13618960D01*
X15079586Y-13618960D02*
X15070063Y-13609436D01*
X15070063Y-13609436D02*
X15060539Y-13590388D01*
X15060539Y-13590388D02*
X15051015Y-13552293D01*
X15051015Y-13552293D02*
X15051015Y-13504674D01*
X15051015Y-13504674D02*
X15060539Y-13466579D01*
X15060539Y-13466579D02*
X15070063Y-13447531D01*
X15070063Y-13447531D02*
X15079586Y-13438008D01*
X15079586Y-13438008D02*
X15098634Y-13428484D01*
X15251015Y-13609436D02*
X15260539Y-13618960D01*
X15260539Y-13618960D02*
X15251015Y-13628484D01*
X15251015Y-13628484D02*
X15241491Y-13618960D01*
X15241491Y-13618960D02*
X15251015Y-13609436D01*
X15251015Y-13609436D02*
X15251015Y-13628484D01*
X15384348Y-13428484D02*
X15403396Y-13428484D01*
X15403396Y-13428484D02*
X15422444Y-13438008D01*
X15422444Y-13438008D02*
X15431967Y-13447531D01*
X15431967Y-13447531D02*
X15441491Y-13466579D01*
X15441491Y-13466579D02*
X15451015Y-13504674D01*
X15451015Y-13504674D02*
X15451015Y-13552293D01*
X15451015Y-13552293D02*
X15441491Y-13590388D01*
X15441491Y-13590388D02*
X15431967Y-13609436D01*
X15431967Y-13609436D02*
X15422444Y-13618960D01*
X15422444Y-13618960D02*
X15403396Y-13628484D01*
X15403396Y-13628484D02*
X15384348Y-13628484D01*
X15384348Y-13628484D02*
X15365301Y-13618960D01*
X15365301Y-13618960D02*
X15355777Y-13609436D01*
X15355777Y-13609436D02*
X15346253Y-13590388D01*
X15346253Y-13590388D02*
X15336729Y-13552293D01*
X15336729Y-13552293D02*
X15336729Y-13504674D01*
X15336729Y-13504674D02*
X15346253Y-13466579D01*
X15346253Y-13466579D02*
X15355777Y-13447531D01*
X15355777Y-13447531D02*
X15365301Y-13438008D01*
X15365301Y-13438008D02*
X15384348Y-13428484D01*
X15517682Y-13428484D02*
X15641491Y-13428484D01*
X15641491Y-13428484D02*
X15574825Y-13504674D01*
X15574825Y-13504674D02*
X15603396Y-13504674D01*
X15603396Y-13504674D02*
X15622444Y-13514198D01*
X15622444Y-13514198D02*
X15631967Y-13523722D01*
X15631967Y-13523722D02*
X15641491Y-13542769D01*
X15641491Y-13542769D02*
X15641491Y-13590388D01*
X15641491Y-13590388D02*
X15631967Y-13609436D01*
X15631967Y-13609436D02*
X15622444Y-13618960D01*
X15622444Y-13618960D02*
X15603396Y-13628484D01*
X15603396Y-13628484D02*
X15546253Y-13628484D01*
X15546253Y-13628484D02*
X15527206Y-13618960D01*
X15527206Y-13618960D02*
X15517682Y-13609436D01*
X15822444Y-13428484D02*
X15727206Y-13428484D01*
X15727206Y-13428484D02*
X15717682Y-13523722D01*
X15717682Y-13523722D02*
X15727206Y-13514198D01*
X15727206Y-13514198D02*
X15746253Y-13504674D01*
X15746253Y-13504674D02*
X15793872Y-13504674D01*
X15793872Y-13504674D02*
X15812920Y-13514198D01*
X15812920Y-13514198D02*
X15822444Y-13523722D01*
X15822444Y-13523722D02*
X15831967Y-13542769D01*
X15831967Y-13542769D02*
X15831967Y-13590388D01*
X15831967Y-13590388D02*
X15822444Y-13609436D01*
X15822444Y-13609436D02*
X15812920Y-13618960D01*
X15812920Y-13618960D02*
X15793872Y-13628484D01*
X15793872Y-13628484D02*
X15746253Y-13628484D01*
X15746253Y-13628484D02*
X15727206Y-13618960D01*
X15727206Y-13618960D02*
X15717682Y-13609436D01*
X16003396Y-13495150D02*
X16003396Y-13628484D01*
X15955777Y-13418960D02*
X15908158Y-13561817D01*
X15908158Y-13561817D02*
X16031967Y-13561817D01*
X16098634Y-13428484D02*
X16098634Y-13466579D01*
X16174825Y-13428484D02*
X16174825Y-13466579D01*
X16470063Y-13704674D02*
X16460539Y-13695150D01*
X16460539Y-13695150D02*
X16441491Y-13666579D01*
X16441491Y-13666579D02*
X16431968Y-13647531D01*
X16431968Y-13647531D02*
X16422444Y-13618960D01*
X16422444Y-13618960D02*
X16412920Y-13571341D01*
X16412920Y-13571341D02*
X16412920Y-13533246D01*
X16412920Y-13533246D02*
X16422444Y-13485627D01*
X16422444Y-13485627D02*
X16431968Y-13457055D01*
X16431968Y-13457055D02*
X16441491Y-13438008D01*
X16441491Y-13438008D02*
X16460539Y-13409436D01*
X16460539Y-13409436D02*
X16470063Y-13399912D01*
X16574825Y-13514198D02*
X16555777Y-13504674D01*
X16555777Y-13504674D02*
X16546253Y-13495150D01*
X16546253Y-13495150D02*
X16536729Y-13476103D01*
X16536729Y-13476103D02*
X16536729Y-13466579D01*
X16536729Y-13466579D02*
X16546253Y-13447531D01*
X16546253Y-13447531D02*
X16555777Y-13438008D01*
X16555777Y-13438008D02*
X16574825Y-13428484D01*
X16574825Y-13428484D02*
X16612920Y-13428484D01*
X16612920Y-13428484D02*
X16631968Y-13438008D01*
X16631968Y-13438008D02*
X16641491Y-13447531D01*
X16641491Y-13447531D02*
X16651015Y-13466579D01*
X16651015Y-13466579D02*
X16651015Y-13476103D01*
X16651015Y-13476103D02*
X16641491Y-13495150D01*
X16641491Y-13495150D02*
X16631968Y-13504674D01*
X16631968Y-13504674D02*
X16612920Y-13514198D01*
X16612920Y-13514198D02*
X16574825Y-13514198D01*
X16574825Y-13514198D02*
X16555777Y-13523722D01*
X16555777Y-13523722D02*
X16546253Y-13533246D01*
X16546253Y-13533246D02*
X16536729Y-13552293D01*
X16536729Y-13552293D02*
X16536729Y-13590388D01*
X16536729Y-13590388D02*
X16546253Y-13609436D01*
X16546253Y-13609436D02*
X16555777Y-13618960D01*
X16555777Y-13618960D02*
X16574825Y-13628484D01*
X16574825Y-13628484D02*
X16612920Y-13628484D01*
X16612920Y-13628484D02*
X16631968Y-13618960D01*
X16631968Y-13618960D02*
X16641491Y-13609436D01*
X16641491Y-13609436D02*
X16651015Y-13590388D01*
X16651015Y-13590388D02*
X16651015Y-13552293D01*
X16651015Y-13552293D02*
X16641491Y-13533246D01*
X16641491Y-13533246D02*
X16631968Y-13523722D01*
X16631968Y-13523722D02*
X16612920Y-13514198D01*
X16889111Y-13628484D02*
X16889111Y-13428484D01*
X16974825Y-13628484D02*
X16974825Y-13523722D01*
X16974825Y-13523722D02*
X16965301Y-13504674D01*
X16965301Y-13504674D02*
X16946253Y-13495150D01*
X16946253Y-13495150D02*
X16917682Y-13495150D01*
X16917682Y-13495150D02*
X16898634Y-13504674D01*
X16898634Y-13504674D02*
X16889111Y-13514198D01*
X17098634Y-13628484D02*
X17079587Y-13618960D01*
X17079587Y-13618960D02*
X17070063Y-13609436D01*
X17070063Y-13609436D02*
X17060539Y-13590388D01*
X17060539Y-13590388D02*
X17060539Y-13533246D01*
X17060539Y-13533246D02*
X17070063Y-13514198D01*
X17070063Y-13514198D02*
X17079587Y-13504674D01*
X17079587Y-13504674D02*
X17098634Y-13495150D01*
X17098634Y-13495150D02*
X17127206Y-13495150D01*
X17127206Y-13495150D02*
X17146253Y-13504674D01*
X17146253Y-13504674D02*
X17155777Y-13514198D01*
X17155777Y-13514198D02*
X17165301Y-13533246D01*
X17165301Y-13533246D02*
X17165301Y-13590388D01*
X17165301Y-13590388D02*
X17155777Y-13609436D01*
X17155777Y-13609436D02*
X17146253Y-13618960D01*
X17146253Y-13618960D02*
X17127206Y-13628484D01*
X17127206Y-13628484D02*
X17098634Y-13628484D01*
X17279587Y-13628484D02*
X17260539Y-13618960D01*
X17260539Y-13618960D02*
X17251015Y-13599912D01*
X17251015Y-13599912D02*
X17251015Y-13428484D01*
X17431968Y-13618960D02*
X17412920Y-13628484D01*
X17412920Y-13628484D02*
X17374825Y-13628484D01*
X17374825Y-13628484D02*
X17355777Y-13618960D01*
X17355777Y-13618960D02*
X17346253Y-13599912D01*
X17346253Y-13599912D02*
X17346253Y-13523722D01*
X17346253Y-13523722D02*
X17355777Y-13504674D01*
X17355777Y-13504674D02*
X17374825Y-13495150D01*
X17374825Y-13495150D02*
X17412920Y-13495150D01*
X17412920Y-13495150D02*
X17431968Y-13504674D01*
X17431968Y-13504674D02*
X17441492Y-13523722D01*
X17441492Y-13523722D02*
X17441492Y-13542769D01*
X17441492Y-13542769D02*
X17346253Y-13561817D01*
X17517682Y-13618960D02*
X17536730Y-13628484D01*
X17536730Y-13628484D02*
X17574825Y-13628484D01*
X17574825Y-13628484D02*
X17593873Y-13618960D01*
X17593873Y-13618960D02*
X17603396Y-13599912D01*
X17603396Y-13599912D02*
X17603396Y-13590388D01*
X17603396Y-13590388D02*
X17593873Y-13571341D01*
X17593873Y-13571341D02*
X17574825Y-13561817D01*
X17574825Y-13561817D02*
X17546253Y-13561817D01*
X17546253Y-13561817D02*
X17527206Y-13552293D01*
X17527206Y-13552293D02*
X17517682Y-13533246D01*
X17517682Y-13533246D02*
X17517682Y-13523722D01*
X17517682Y-13523722D02*
X17527206Y-13504674D01*
X17527206Y-13504674D02*
X17546253Y-13495150D01*
X17546253Y-13495150D02*
X17574825Y-13495150D01*
X17574825Y-13495150D02*
X17593873Y-13504674D01*
X17670063Y-13704674D02*
X17679587Y-13695150D01*
X17679587Y-13695150D02*
X17698634Y-13666579D01*
X17698634Y-13666579D02*
X17708158Y-13647531D01*
X17708158Y-13647531D02*
X17717682Y-13618960D01*
X17717682Y-13618960D02*
X17727206Y-13571341D01*
X17727206Y-13571341D02*
X17727206Y-13533246D01*
X17727206Y-13533246D02*
X17717682Y-13485627D01*
X17717682Y-13485627D02*
X17708158Y-13457055D01*
X17708158Y-13457055D02*
X17698634Y-13438008D01*
X17698634Y-13438008D02*
X17679587Y-13409436D01*
X17679587Y-13409436D02*
X17670063Y-13399912D01*
D12*
X12815000Y-13881000D02*
X12895000Y-13801000D01*
X12815000Y-13721000D01*
X12735000Y-13801000D01*
X12815000Y-13881000D01*
D11*
X13260539Y-13892484D02*
X13146253Y-13892484D01*
X13203396Y-13892484D02*
X13203396Y-13692484D01*
X13203396Y-13692484D02*
X13184348Y-13721055D01*
X13184348Y-13721055D02*
X13165301Y-13740103D01*
X13165301Y-13740103D02*
X13146253Y-13749627D01*
X13346253Y-13873436D02*
X13355777Y-13882960D01*
X13355777Y-13882960D02*
X13346253Y-13892484D01*
X13346253Y-13892484D02*
X13336729Y-13882960D01*
X13336729Y-13882960D02*
X13346253Y-13873436D01*
X13346253Y-13873436D02*
X13346253Y-13892484D01*
X13527205Y-13692484D02*
X13489110Y-13692484D01*
X13489110Y-13692484D02*
X13470062Y-13702008D01*
X13470062Y-13702008D02*
X13460539Y-13711531D01*
X13460539Y-13711531D02*
X13441491Y-13740103D01*
X13441491Y-13740103D02*
X13431967Y-13778198D01*
X13431967Y-13778198D02*
X13431967Y-13854388D01*
X13431967Y-13854388D02*
X13441491Y-13873436D01*
X13441491Y-13873436D02*
X13451015Y-13882960D01*
X13451015Y-13882960D02*
X13470062Y-13892484D01*
X13470062Y-13892484D02*
X13508158Y-13892484D01*
X13508158Y-13892484D02*
X13527205Y-13882960D01*
X13527205Y-13882960D02*
X13536729Y-13873436D01*
X13536729Y-13873436D02*
X13546253Y-13854388D01*
X13546253Y-13854388D02*
X13546253Y-13806769D01*
X13546253Y-13806769D02*
X13536729Y-13787722D01*
X13536729Y-13787722D02*
X13527205Y-13778198D01*
X13527205Y-13778198D02*
X13508158Y-13768674D01*
X13508158Y-13768674D02*
X13470062Y-13768674D01*
X13470062Y-13768674D02*
X13451015Y-13778198D01*
X13451015Y-13778198D02*
X13441491Y-13787722D01*
X13441491Y-13787722D02*
X13431967Y-13806769D01*
X13670062Y-13692484D02*
X13689110Y-13692484D01*
X13689110Y-13692484D02*
X13708158Y-13702008D01*
X13708158Y-13702008D02*
X13717682Y-13711531D01*
X13717682Y-13711531D02*
X13727205Y-13730579D01*
X13727205Y-13730579D02*
X13736729Y-13768674D01*
X13736729Y-13768674D02*
X13736729Y-13816293D01*
X13736729Y-13816293D02*
X13727205Y-13854388D01*
X13727205Y-13854388D02*
X13717682Y-13873436D01*
X13717682Y-13873436D02*
X13708158Y-13882960D01*
X13708158Y-13882960D02*
X13689110Y-13892484D01*
X13689110Y-13892484D02*
X13670062Y-13892484D01*
X13670062Y-13892484D02*
X13651015Y-13882960D01*
X13651015Y-13882960D02*
X13641491Y-13873436D01*
X13641491Y-13873436D02*
X13631967Y-13854388D01*
X13631967Y-13854388D02*
X13622443Y-13816293D01*
X13622443Y-13816293D02*
X13622443Y-13768674D01*
X13622443Y-13768674D02*
X13631967Y-13730579D01*
X13631967Y-13730579D02*
X13641491Y-13711531D01*
X13641491Y-13711531D02*
X13651015Y-13702008D01*
X13651015Y-13702008D02*
X13670062Y-13692484D01*
X13860539Y-13692484D02*
X13879586Y-13692484D01*
X13879586Y-13692484D02*
X13898634Y-13702008D01*
X13898634Y-13702008D02*
X13908158Y-13711531D01*
X13908158Y-13711531D02*
X13917682Y-13730579D01*
X13917682Y-13730579D02*
X13927205Y-13768674D01*
X13927205Y-13768674D02*
X13927205Y-13816293D01*
X13927205Y-13816293D02*
X13917682Y-13854388D01*
X13917682Y-13854388D02*
X13908158Y-13873436D01*
X13908158Y-13873436D02*
X13898634Y-13882960D01*
X13898634Y-13882960D02*
X13879586Y-13892484D01*
X13879586Y-13892484D02*
X13860539Y-13892484D01*
X13860539Y-13892484D02*
X13841491Y-13882960D01*
X13841491Y-13882960D02*
X13831967Y-13873436D01*
X13831967Y-13873436D02*
X13822443Y-13854388D01*
X13822443Y-13854388D02*
X13812920Y-13816293D01*
X13812920Y-13816293D02*
X13812920Y-13768674D01*
X13812920Y-13768674D02*
X13822443Y-13730579D01*
X13822443Y-13730579D02*
X13831967Y-13711531D01*
X13831967Y-13711531D02*
X13841491Y-13702008D01*
X13841491Y-13702008D02*
X13860539Y-13692484D01*
X14012920Y-13892484D02*
X14012920Y-13759150D01*
X14012920Y-13778198D02*
X14022443Y-13768674D01*
X14022443Y-13768674D02*
X14041491Y-13759150D01*
X14041491Y-13759150D02*
X14070063Y-13759150D01*
X14070063Y-13759150D02*
X14089110Y-13768674D01*
X14089110Y-13768674D02*
X14098634Y-13787722D01*
X14098634Y-13787722D02*
X14098634Y-13892484D01*
X14098634Y-13787722D02*
X14108158Y-13768674D01*
X14108158Y-13768674D02*
X14127205Y-13759150D01*
X14127205Y-13759150D02*
X14155777Y-13759150D01*
X14155777Y-13759150D02*
X14174824Y-13768674D01*
X14174824Y-13768674D02*
X14184348Y-13787722D01*
X14184348Y-13787722D02*
X14184348Y-13892484D01*
X14279586Y-13892484D02*
X14279586Y-13759150D01*
X14279586Y-13778198D02*
X14289110Y-13768674D01*
X14289110Y-13768674D02*
X14308158Y-13759150D01*
X14308158Y-13759150D02*
X14336729Y-13759150D01*
X14336729Y-13759150D02*
X14355777Y-13768674D01*
X14355777Y-13768674D02*
X14365301Y-13787722D01*
X14365301Y-13787722D02*
X14365301Y-13892484D01*
X14365301Y-13787722D02*
X14374824Y-13768674D01*
X14374824Y-13768674D02*
X14393872Y-13759150D01*
X14393872Y-13759150D02*
X14422443Y-13759150D01*
X14422443Y-13759150D02*
X14441491Y-13768674D01*
X14441491Y-13768674D02*
X14451015Y-13787722D01*
X14451015Y-13787722D02*
X14451015Y-13892484D01*
X14841491Y-13682960D02*
X14670063Y-13940103D01*
X15098634Y-13692484D02*
X15117682Y-13692484D01*
X15117682Y-13692484D02*
X15136729Y-13702008D01*
X15136729Y-13702008D02*
X15146253Y-13711531D01*
X15146253Y-13711531D02*
X15155777Y-13730579D01*
X15155777Y-13730579D02*
X15165301Y-13768674D01*
X15165301Y-13768674D02*
X15165301Y-13816293D01*
X15165301Y-13816293D02*
X15155777Y-13854388D01*
X15155777Y-13854388D02*
X15146253Y-13873436D01*
X15146253Y-13873436D02*
X15136729Y-13882960D01*
X15136729Y-13882960D02*
X15117682Y-13892484D01*
X15117682Y-13892484D02*
X15098634Y-13892484D01*
X15098634Y-13892484D02*
X15079586Y-13882960D01*
X15079586Y-13882960D02*
X15070063Y-13873436D01*
X15070063Y-13873436D02*
X15060539Y-13854388D01*
X15060539Y-13854388D02*
X15051015Y-13816293D01*
X15051015Y-13816293D02*
X15051015Y-13768674D01*
X15051015Y-13768674D02*
X15060539Y-13730579D01*
X15060539Y-13730579D02*
X15070063Y-13711531D01*
X15070063Y-13711531D02*
X15079586Y-13702008D01*
X15079586Y-13702008D02*
X15098634Y-13692484D01*
X15251015Y-13873436D02*
X15260539Y-13882960D01*
X15260539Y-13882960D02*
X15251015Y-13892484D01*
X15251015Y-13892484D02*
X15241491Y-13882960D01*
X15241491Y-13882960D02*
X15251015Y-13873436D01*
X15251015Y-13873436D02*
X15251015Y-13892484D01*
X15384348Y-13692484D02*
X15403396Y-13692484D01*
X15403396Y-13692484D02*
X15422444Y-13702008D01*
X15422444Y-13702008D02*
X15431967Y-13711531D01*
X15431967Y-13711531D02*
X15441491Y-13730579D01*
X15441491Y-13730579D02*
X15451015Y-13768674D01*
X15451015Y-13768674D02*
X15451015Y-13816293D01*
X15451015Y-13816293D02*
X15441491Y-13854388D01*
X15441491Y-13854388D02*
X15431967Y-13873436D01*
X15431967Y-13873436D02*
X15422444Y-13882960D01*
X15422444Y-13882960D02*
X15403396Y-13892484D01*
X15403396Y-13892484D02*
X15384348Y-13892484D01*
X15384348Y-13892484D02*
X15365301Y-13882960D01*
X15365301Y-13882960D02*
X15355777Y-13873436D01*
X15355777Y-13873436D02*
X15346253Y-13854388D01*
X15346253Y-13854388D02*
X15336729Y-13816293D01*
X15336729Y-13816293D02*
X15336729Y-13768674D01*
X15336729Y-13768674D02*
X15346253Y-13730579D01*
X15346253Y-13730579D02*
X15355777Y-13711531D01*
X15355777Y-13711531D02*
X15365301Y-13702008D01*
X15365301Y-13702008D02*
X15384348Y-13692484D01*
X15622444Y-13692484D02*
X15584348Y-13692484D01*
X15584348Y-13692484D02*
X15565301Y-13702008D01*
X15565301Y-13702008D02*
X15555777Y-13711531D01*
X15555777Y-13711531D02*
X15536729Y-13740103D01*
X15536729Y-13740103D02*
X15527206Y-13778198D01*
X15527206Y-13778198D02*
X15527206Y-13854388D01*
X15527206Y-13854388D02*
X15536729Y-13873436D01*
X15536729Y-13873436D02*
X15546253Y-13882960D01*
X15546253Y-13882960D02*
X15565301Y-13892484D01*
X15565301Y-13892484D02*
X15603396Y-13892484D01*
X15603396Y-13892484D02*
X15622444Y-13882960D01*
X15622444Y-13882960D02*
X15631967Y-13873436D01*
X15631967Y-13873436D02*
X15641491Y-13854388D01*
X15641491Y-13854388D02*
X15641491Y-13806769D01*
X15641491Y-13806769D02*
X15631967Y-13787722D01*
X15631967Y-13787722D02*
X15622444Y-13778198D01*
X15622444Y-13778198D02*
X15603396Y-13768674D01*
X15603396Y-13768674D02*
X15565301Y-13768674D01*
X15565301Y-13768674D02*
X15546253Y-13778198D01*
X15546253Y-13778198D02*
X15536729Y-13787722D01*
X15536729Y-13787722D02*
X15527206Y-13806769D01*
X15708158Y-13692484D02*
X15831967Y-13692484D01*
X15831967Y-13692484D02*
X15765301Y-13768674D01*
X15765301Y-13768674D02*
X15793872Y-13768674D01*
X15793872Y-13768674D02*
X15812920Y-13778198D01*
X15812920Y-13778198D02*
X15822444Y-13787722D01*
X15822444Y-13787722D02*
X15831967Y-13806769D01*
X15831967Y-13806769D02*
X15831967Y-13854388D01*
X15831967Y-13854388D02*
X15822444Y-13873436D01*
X15822444Y-13873436D02*
X15812920Y-13882960D01*
X15812920Y-13882960D02*
X15793872Y-13892484D01*
X15793872Y-13892484D02*
X15736729Y-13892484D01*
X15736729Y-13892484D02*
X15717682Y-13882960D01*
X15717682Y-13882960D02*
X15708158Y-13873436D01*
X15955777Y-13692484D02*
X15974825Y-13692484D01*
X15974825Y-13692484D02*
X15993872Y-13702008D01*
X15993872Y-13702008D02*
X16003396Y-13711531D01*
X16003396Y-13711531D02*
X16012920Y-13730579D01*
X16012920Y-13730579D02*
X16022444Y-13768674D01*
X16022444Y-13768674D02*
X16022444Y-13816293D01*
X16022444Y-13816293D02*
X16012920Y-13854388D01*
X16012920Y-13854388D02*
X16003396Y-13873436D01*
X16003396Y-13873436D02*
X15993872Y-13882960D01*
X15993872Y-13882960D02*
X15974825Y-13892484D01*
X15974825Y-13892484D02*
X15955777Y-13892484D01*
X15955777Y-13892484D02*
X15936729Y-13882960D01*
X15936729Y-13882960D02*
X15927206Y-13873436D01*
X15927206Y-13873436D02*
X15917682Y-13854388D01*
X15917682Y-13854388D02*
X15908158Y-13816293D01*
X15908158Y-13816293D02*
X15908158Y-13768674D01*
X15908158Y-13768674D02*
X15917682Y-13730579D01*
X15917682Y-13730579D02*
X15927206Y-13711531D01*
X15927206Y-13711531D02*
X15936729Y-13702008D01*
X15936729Y-13702008D02*
X15955777Y-13692484D01*
X16098634Y-13692484D02*
X16098634Y-13730579D01*
X16174825Y-13692484D02*
X16174825Y-13730579D01*
X16470063Y-13968674D02*
X16460539Y-13959150D01*
X16460539Y-13959150D02*
X16441491Y-13930579D01*
X16441491Y-13930579D02*
X16431968Y-13911531D01*
X16431968Y-13911531D02*
X16422444Y-13882960D01*
X16422444Y-13882960D02*
X16412920Y-13835341D01*
X16412920Y-13835341D02*
X16412920Y-13797246D01*
X16412920Y-13797246D02*
X16422444Y-13749627D01*
X16422444Y-13749627D02*
X16431968Y-13721055D01*
X16431968Y-13721055D02*
X16441491Y-13702008D01*
X16441491Y-13702008D02*
X16460539Y-13673436D01*
X16460539Y-13673436D02*
X16470063Y-13663912D01*
X16536729Y-13711531D02*
X16546253Y-13702008D01*
X16546253Y-13702008D02*
X16565301Y-13692484D01*
X16565301Y-13692484D02*
X16612920Y-13692484D01*
X16612920Y-13692484D02*
X16631968Y-13702008D01*
X16631968Y-13702008D02*
X16641491Y-13711531D01*
X16641491Y-13711531D02*
X16651015Y-13730579D01*
X16651015Y-13730579D02*
X16651015Y-13749627D01*
X16651015Y-13749627D02*
X16641491Y-13778198D01*
X16641491Y-13778198D02*
X16527206Y-13892484D01*
X16527206Y-13892484D02*
X16651015Y-13892484D01*
X16889111Y-13892484D02*
X16889111Y-13692484D01*
X16974825Y-13892484D02*
X16974825Y-13787722D01*
X16974825Y-13787722D02*
X16965301Y-13768674D01*
X16965301Y-13768674D02*
X16946253Y-13759150D01*
X16946253Y-13759150D02*
X16917682Y-13759150D01*
X16917682Y-13759150D02*
X16898634Y-13768674D01*
X16898634Y-13768674D02*
X16889111Y-13778198D01*
X17098634Y-13892484D02*
X17079587Y-13882960D01*
X17079587Y-13882960D02*
X17070063Y-13873436D01*
X17070063Y-13873436D02*
X17060539Y-13854388D01*
X17060539Y-13854388D02*
X17060539Y-13797246D01*
X17060539Y-13797246D02*
X17070063Y-13778198D01*
X17070063Y-13778198D02*
X17079587Y-13768674D01*
X17079587Y-13768674D02*
X17098634Y-13759150D01*
X17098634Y-13759150D02*
X17127206Y-13759150D01*
X17127206Y-13759150D02*
X17146253Y-13768674D01*
X17146253Y-13768674D02*
X17155777Y-13778198D01*
X17155777Y-13778198D02*
X17165301Y-13797246D01*
X17165301Y-13797246D02*
X17165301Y-13854388D01*
X17165301Y-13854388D02*
X17155777Y-13873436D01*
X17155777Y-13873436D02*
X17146253Y-13882960D01*
X17146253Y-13882960D02*
X17127206Y-13892484D01*
X17127206Y-13892484D02*
X17098634Y-13892484D01*
X17279587Y-13892484D02*
X17260539Y-13882960D01*
X17260539Y-13882960D02*
X17251015Y-13863912D01*
X17251015Y-13863912D02*
X17251015Y-13692484D01*
X17431968Y-13882960D02*
X17412920Y-13892484D01*
X17412920Y-13892484D02*
X17374825Y-13892484D01*
X17374825Y-13892484D02*
X17355777Y-13882960D01*
X17355777Y-13882960D02*
X17346253Y-13863912D01*
X17346253Y-13863912D02*
X17346253Y-13787722D01*
X17346253Y-13787722D02*
X17355777Y-13768674D01*
X17355777Y-13768674D02*
X17374825Y-13759150D01*
X17374825Y-13759150D02*
X17412920Y-13759150D01*
X17412920Y-13759150D02*
X17431968Y-13768674D01*
X17431968Y-13768674D02*
X17441492Y-13787722D01*
X17441492Y-13787722D02*
X17441492Y-13806769D01*
X17441492Y-13806769D02*
X17346253Y-13825817D01*
X17517682Y-13882960D02*
X17536730Y-13892484D01*
X17536730Y-13892484D02*
X17574825Y-13892484D01*
X17574825Y-13892484D02*
X17593873Y-13882960D01*
X17593873Y-13882960D02*
X17603396Y-13863912D01*
X17603396Y-13863912D02*
X17603396Y-13854388D01*
X17603396Y-13854388D02*
X17593873Y-13835341D01*
X17593873Y-13835341D02*
X17574825Y-13825817D01*
X17574825Y-13825817D02*
X17546253Y-13825817D01*
X17546253Y-13825817D02*
X17527206Y-13816293D01*
X17527206Y-13816293D02*
X17517682Y-13797246D01*
X17517682Y-13797246D02*
X17517682Y-13787722D01*
X17517682Y-13787722D02*
X17527206Y-13768674D01*
X17527206Y-13768674D02*
X17546253Y-13759150D01*
X17546253Y-13759150D02*
X17574825Y-13759150D01*
X17574825Y-13759150D02*
X17593873Y-13768674D01*
X17670063Y-13968674D02*
X17679587Y-13959150D01*
X17679587Y-13959150D02*
X17698634Y-13930579D01*
X17698634Y-13930579D02*
X17708158Y-13911531D01*
X17708158Y-13911531D02*
X17717682Y-13882960D01*
X17717682Y-13882960D02*
X17727206Y-13835341D01*
X17727206Y-13835341D02*
X17727206Y-13797246D01*
X17727206Y-13797246D02*
X17717682Y-13749627D01*
X17717682Y-13749627D02*
X17708158Y-13721055D01*
X17708158Y-13721055D02*
X17698634Y-13702008D01*
X17698634Y-13702008D02*
X17679587Y-13673436D01*
X17679587Y-13673436D02*
X17670063Y-13663912D01*
X12695000Y-13981000D02*
X12895000Y-14181000D01*
X12895000Y-13981000D02*
X12695000Y-14181000D01*
X12895000Y-14081000D02*
G75*
G02*
X12695000Y-14081000I-100000J0D01*
G01*
X12695000Y-14081000D02*
G75*
G02*
X12895000Y-14081000I100000J0D01*
G01*
X13136729Y-13972484D02*
X13260539Y-13972484D01*
X13260539Y-13972484D02*
X13193872Y-14048674D01*
X13193872Y-14048674D02*
X13222443Y-14048674D01*
X13222443Y-14048674D02*
X13241491Y-14058198D01*
X13241491Y-14058198D02*
X13251015Y-14067722D01*
X13251015Y-14067722D02*
X13260539Y-14086769D01*
X13260539Y-14086769D02*
X13260539Y-14134388D01*
X13260539Y-14134388D02*
X13251015Y-14153436D01*
X13251015Y-14153436D02*
X13241491Y-14162960D01*
X13241491Y-14162960D02*
X13222443Y-14172484D01*
X13222443Y-14172484D02*
X13165301Y-14172484D01*
X13165301Y-14172484D02*
X13146253Y-14162960D01*
X13146253Y-14162960D02*
X13136729Y-14153436D01*
X13346253Y-14153436D02*
X13355777Y-14162960D01*
X13355777Y-14162960D02*
X13346253Y-14172484D01*
X13346253Y-14172484D02*
X13336729Y-14162960D01*
X13336729Y-14162960D02*
X13346253Y-14153436D01*
X13346253Y-14153436D02*
X13346253Y-14172484D01*
X13431967Y-13991531D02*
X13441491Y-13982008D01*
X13441491Y-13982008D02*
X13460539Y-13972484D01*
X13460539Y-13972484D02*
X13508158Y-13972484D01*
X13508158Y-13972484D02*
X13527205Y-13982008D01*
X13527205Y-13982008D02*
X13536729Y-13991531D01*
X13536729Y-13991531D02*
X13546253Y-14010579D01*
X13546253Y-14010579D02*
X13546253Y-14029627D01*
X13546253Y-14029627D02*
X13536729Y-14058198D01*
X13536729Y-14058198D02*
X13422443Y-14172484D01*
X13422443Y-14172484D02*
X13546253Y-14172484D01*
X13670062Y-13972484D02*
X13689110Y-13972484D01*
X13689110Y-13972484D02*
X13708158Y-13982008D01*
X13708158Y-13982008D02*
X13717682Y-13991531D01*
X13717682Y-13991531D02*
X13727205Y-14010579D01*
X13727205Y-14010579D02*
X13736729Y-14048674D01*
X13736729Y-14048674D02*
X13736729Y-14096293D01*
X13736729Y-14096293D02*
X13727205Y-14134388D01*
X13727205Y-14134388D02*
X13717682Y-14153436D01*
X13717682Y-14153436D02*
X13708158Y-14162960D01*
X13708158Y-14162960D02*
X13689110Y-14172484D01*
X13689110Y-14172484D02*
X13670062Y-14172484D01*
X13670062Y-14172484D02*
X13651015Y-14162960D01*
X13651015Y-14162960D02*
X13641491Y-14153436D01*
X13641491Y-14153436D02*
X13631967Y-14134388D01*
X13631967Y-14134388D02*
X13622443Y-14096293D01*
X13622443Y-14096293D02*
X13622443Y-14048674D01*
X13622443Y-14048674D02*
X13631967Y-14010579D01*
X13631967Y-14010579D02*
X13641491Y-13991531D01*
X13641491Y-13991531D02*
X13651015Y-13982008D01*
X13651015Y-13982008D02*
X13670062Y-13972484D01*
X13860539Y-13972484D02*
X13879586Y-13972484D01*
X13879586Y-13972484D02*
X13898634Y-13982008D01*
X13898634Y-13982008D02*
X13908158Y-13991531D01*
X13908158Y-13991531D02*
X13917682Y-14010579D01*
X13917682Y-14010579D02*
X13927205Y-14048674D01*
X13927205Y-14048674D02*
X13927205Y-14096293D01*
X13927205Y-14096293D02*
X13917682Y-14134388D01*
X13917682Y-14134388D02*
X13908158Y-14153436D01*
X13908158Y-14153436D02*
X13898634Y-14162960D01*
X13898634Y-14162960D02*
X13879586Y-14172484D01*
X13879586Y-14172484D02*
X13860539Y-14172484D01*
X13860539Y-14172484D02*
X13841491Y-14162960D01*
X13841491Y-14162960D02*
X13831967Y-14153436D01*
X13831967Y-14153436D02*
X13822443Y-14134388D01*
X13822443Y-14134388D02*
X13812920Y-14096293D01*
X13812920Y-14096293D02*
X13812920Y-14048674D01*
X13812920Y-14048674D02*
X13822443Y-14010579D01*
X13822443Y-14010579D02*
X13831967Y-13991531D01*
X13831967Y-13991531D02*
X13841491Y-13982008D01*
X13841491Y-13982008D02*
X13860539Y-13972484D01*
X14012920Y-14172484D02*
X14012920Y-14039150D01*
X14012920Y-14058198D02*
X14022443Y-14048674D01*
X14022443Y-14048674D02*
X14041491Y-14039150D01*
X14041491Y-14039150D02*
X14070063Y-14039150D01*
X14070063Y-14039150D02*
X14089110Y-14048674D01*
X14089110Y-14048674D02*
X14098634Y-14067722D01*
X14098634Y-14067722D02*
X14098634Y-14172484D01*
X14098634Y-14067722D02*
X14108158Y-14048674D01*
X14108158Y-14048674D02*
X14127205Y-14039150D01*
X14127205Y-14039150D02*
X14155777Y-14039150D01*
X14155777Y-14039150D02*
X14174824Y-14048674D01*
X14174824Y-14048674D02*
X14184348Y-14067722D01*
X14184348Y-14067722D02*
X14184348Y-14172484D01*
X14279586Y-14172484D02*
X14279586Y-14039150D01*
X14279586Y-14058198D02*
X14289110Y-14048674D01*
X14289110Y-14048674D02*
X14308158Y-14039150D01*
X14308158Y-14039150D02*
X14336729Y-14039150D01*
X14336729Y-14039150D02*
X14355777Y-14048674D01*
X14355777Y-14048674D02*
X14365301Y-14067722D01*
X14365301Y-14067722D02*
X14365301Y-14172484D01*
X14365301Y-14067722D02*
X14374824Y-14048674D01*
X14374824Y-14048674D02*
X14393872Y-14039150D01*
X14393872Y-14039150D02*
X14422443Y-14039150D01*
X14422443Y-14039150D02*
X14441491Y-14048674D01*
X14441491Y-14048674D02*
X14451015Y-14067722D01*
X14451015Y-14067722D02*
X14451015Y-14172484D01*
X14841491Y-13962960D02*
X14670063Y-14220103D01*
X15098634Y-13972484D02*
X15117682Y-13972484D01*
X15117682Y-13972484D02*
X15136729Y-13982008D01*
X15136729Y-13982008D02*
X15146253Y-13991531D01*
X15146253Y-13991531D02*
X15155777Y-14010579D01*
X15155777Y-14010579D02*
X15165301Y-14048674D01*
X15165301Y-14048674D02*
X15165301Y-14096293D01*
X15165301Y-14096293D02*
X15155777Y-14134388D01*
X15155777Y-14134388D02*
X15146253Y-14153436D01*
X15146253Y-14153436D02*
X15136729Y-14162960D01*
X15136729Y-14162960D02*
X15117682Y-14172484D01*
X15117682Y-14172484D02*
X15098634Y-14172484D01*
X15098634Y-14172484D02*
X15079586Y-14162960D01*
X15079586Y-14162960D02*
X15070063Y-14153436D01*
X15070063Y-14153436D02*
X15060539Y-14134388D01*
X15060539Y-14134388D02*
X15051015Y-14096293D01*
X15051015Y-14096293D02*
X15051015Y-14048674D01*
X15051015Y-14048674D02*
X15060539Y-14010579D01*
X15060539Y-14010579D02*
X15070063Y-13991531D01*
X15070063Y-13991531D02*
X15079586Y-13982008D01*
X15079586Y-13982008D02*
X15098634Y-13972484D01*
X15251015Y-14153436D02*
X15260539Y-14162960D01*
X15260539Y-14162960D02*
X15251015Y-14172484D01*
X15251015Y-14172484D02*
X15241491Y-14162960D01*
X15241491Y-14162960D02*
X15251015Y-14153436D01*
X15251015Y-14153436D02*
X15251015Y-14172484D01*
X15451015Y-14172484D02*
X15336729Y-14172484D01*
X15393872Y-14172484D02*
X15393872Y-13972484D01*
X15393872Y-13972484D02*
X15374825Y-14001055D01*
X15374825Y-14001055D02*
X15355777Y-14020103D01*
X15355777Y-14020103D02*
X15336729Y-14029627D01*
X15527206Y-13991531D02*
X15536729Y-13982008D01*
X15536729Y-13982008D02*
X15555777Y-13972484D01*
X15555777Y-13972484D02*
X15603396Y-13972484D01*
X15603396Y-13972484D02*
X15622444Y-13982008D01*
X15622444Y-13982008D02*
X15631967Y-13991531D01*
X15631967Y-13991531D02*
X15641491Y-14010579D01*
X15641491Y-14010579D02*
X15641491Y-14029627D01*
X15641491Y-14029627D02*
X15631967Y-14058198D01*
X15631967Y-14058198D02*
X15517682Y-14172484D01*
X15517682Y-14172484D02*
X15641491Y-14172484D01*
X15812920Y-13972484D02*
X15774825Y-13972484D01*
X15774825Y-13972484D02*
X15755777Y-13982008D01*
X15755777Y-13982008D02*
X15746253Y-13991531D01*
X15746253Y-13991531D02*
X15727206Y-14020103D01*
X15727206Y-14020103D02*
X15717682Y-14058198D01*
X15717682Y-14058198D02*
X15717682Y-14134388D01*
X15717682Y-14134388D02*
X15727206Y-14153436D01*
X15727206Y-14153436D02*
X15736729Y-14162960D01*
X15736729Y-14162960D02*
X15755777Y-14172484D01*
X15755777Y-14172484D02*
X15793872Y-14172484D01*
X15793872Y-14172484D02*
X15812920Y-14162960D01*
X15812920Y-14162960D02*
X15822444Y-14153436D01*
X15822444Y-14153436D02*
X15831967Y-14134388D01*
X15831967Y-14134388D02*
X15831967Y-14086769D01*
X15831967Y-14086769D02*
X15822444Y-14067722D01*
X15822444Y-14067722D02*
X15812920Y-14058198D01*
X15812920Y-14058198D02*
X15793872Y-14048674D01*
X15793872Y-14048674D02*
X15755777Y-14048674D01*
X15755777Y-14048674D02*
X15736729Y-14058198D01*
X15736729Y-14058198D02*
X15727206Y-14067722D01*
X15727206Y-14067722D02*
X15717682Y-14086769D01*
X15955777Y-13972484D02*
X15974825Y-13972484D01*
X15974825Y-13972484D02*
X15993872Y-13982008D01*
X15993872Y-13982008D02*
X16003396Y-13991531D01*
X16003396Y-13991531D02*
X16012920Y-14010579D01*
X16012920Y-14010579D02*
X16022444Y-14048674D01*
X16022444Y-14048674D02*
X16022444Y-14096293D01*
X16022444Y-14096293D02*
X16012920Y-14134388D01*
X16012920Y-14134388D02*
X16003396Y-14153436D01*
X16003396Y-14153436D02*
X15993872Y-14162960D01*
X15993872Y-14162960D02*
X15974825Y-14172484D01*
X15974825Y-14172484D02*
X15955777Y-14172484D01*
X15955777Y-14172484D02*
X15936729Y-14162960D01*
X15936729Y-14162960D02*
X15927206Y-14153436D01*
X15927206Y-14153436D02*
X15917682Y-14134388D01*
X15917682Y-14134388D02*
X15908158Y-14096293D01*
X15908158Y-14096293D02*
X15908158Y-14048674D01*
X15908158Y-14048674D02*
X15917682Y-14010579D01*
X15917682Y-14010579D02*
X15927206Y-13991531D01*
X15927206Y-13991531D02*
X15936729Y-13982008D01*
X15936729Y-13982008D02*
X15955777Y-13972484D01*
X16098634Y-13972484D02*
X16098634Y-14010579D01*
X16174825Y-13972484D02*
X16174825Y-14010579D01*
X16470063Y-14248674D02*
X16460539Y-14239150D01*
X16460539Y-14239150D02*
X16441491Y-14210579D01*
X16441491Y-14210579D02*
X16431968Y-14191531D01*
X16431968Y-14191531D02*
X16422444Y-14162960D01*
X16422444Y-14162960D02*
X16412920Y-14115341D01*
X16412920Y-14115341D02*
X16412920Y-14077246D01*
X16412920Y-14077246D02*
X16422444Y-14029627D01*
X16422444Y-14029627D02*
X16431968Y-14001055D01*
X16431968Y-14001055D02*
X16441491Y-13982008D01*
X16441491Y-13982008D02*
X16460539Y-13953436D01*
X16460539Y-13953436D02*
X16470063Y-13943912D01*
X16631968Y-14039150D02*
X16631968Y-14172484D01*
X16584348Y-13962960D02*
X16536729Y-14105817D01*
X16536729Y-14105817D02*
X16660539Y-14105817D01*
X16889111Y-14172484D02*
X16889111Y-13972484D01*
X16974825Y-14172484D02*
X16974825Y-14067722D01*
X16974825Y-14067722D02*
X16965301Y-14048674D01*
X16965301Y-14048674D02*
X16946253Y-14039150D01*
X16946253Y-14039150D02*
X16917682Y-14039150D01*
X16917682Y-14039150D02*
X16898634Y-14048674D01*
X16898634Y-14048674D02*
X16889111Y-14058198D01*
X17098634Y-14172484D02*
X17079587Y-14162960D01*
X17079587Y-14162960D02*
X17070063Y-14153436D01*
X17070063Y-14153436D02*
X17060539Y-14134388D01*
X17060539Y-14134388D02*
X17060539Y-14077246D01*
X17060539Y-14077246D02*
X17070063Y-14058198D01*
X17070063Y-14058198D02*
X17079587Y-14048674D01*
X17079587Y-14048674D02*
X17098634Y-14039150D01*
X17098634Y-14039150D02*
X17127206Y-14039150D01*
X17127206Y-14039150D02*
X17146253Y-14048674D01*
X17146253Y-14048674D02*
X17155777Y-14058198D01*
X17155777Y-14058198D02*
X17165301Y-14077246D01*
X17165301Y-14077246D02*
X17165301Y-14134388D01*
X17165301Y-14134388D02*
X17155777Y-14153436D01*
X17155777Y-14153436D02*
X17146253Y-14162960D01*
X17146253Y-14162960D02*
X17127206Y-14172484D01*
X17127206Y-14172484D02*
X17098634Y-14172484D01*
X17279587Y-14172484D02*
X17260539Y-14162960D01*
X17260539Y-14162960D02*
X17251015Y-14143912D01*
X17251015Y-14143912D02*
X17251015Y-13972484D01*
X17431968Y-14162960D02*
X17412920Y-14172484D01*
X17412920Y-14172484D02*
X17374825Y-14172484D01*
X17374825Y-14172484D02*
X17355777Y-14162960D01*
X17355777Y-14162960D02*
X17346253Y-14143912D01*
X17346253Y-14143912D02*
X17346253Y-14067722D01*
X17346253Y-14067722D02*
X17355777Y-14048674D01*
X17355777Y-14048674D02*
X17374825Y-14039150D01*
X17374825Y-14039150D02*
X17412920Y-14039150D01*
X17412920Y-14039150D02*
X17431968Y-14048674D01*
X17431968Y-14048674D02*
X17441492Y-14067722D01*
X17441492Y-14067722D02*
X17441492Y-14086769D01*
X17441492Y-14086769D02*
X17346253Y-14105817D01*
X17517682Y-14162960D02*
X17536730Y-14172484D01*
X17536730Y-14172484D02*
X17574825Y-14172484D01*
X17574825Y-14172484D02*
X17593873Y-14162960D01*
X17593873Y-14162960D02*
X17603396Y-14143912D01*
X17603396Y-14143912D02*
X17603396Y-14134388D01*
X17603396Y-14134388D02*
X17593873Y-14115341D01*
X17593873Y-14115341D02*
X17574825Y-14105817D01*
X17574825Y-14105817D02*
X17546253Y-14105817D01*
X17546253Y-14105817D02*
X17527206Y-14096293D01*
X17527206Y-14096293D02*
X17517682Y-14077246D01*
X17517682Y-14077246D02*
X17517682Y-14067722D01*
X17517682Y-14067722D02*
X17527206Y-14048674D01*
X17527206Y-14048674D02*
X17546253Y-14039150D01*
X17546253Y-14039150D02*
X17574825Y-14039150D01*
X17574825Y-14039150D02*
X17593873Y-14048674D01*
X17670063Y-14248674D02*
X17679587Y-14239150D01*
X17679587Y-14239150D02*
X17698634Y-14210579D01*
X17698634Y-14210579D02*
X17708158Y-14191531D01*
X17708158Y-14191531D02*
X17717682Y-14162960D01*
X17717682Y-14162960D02*
X17727206Y-14115341D01*
X17727206Y-14115341D02*
X17727206Y-14077246D01*
X17727206Y-14077246D02*
X17717682Y-14029627D01*
X17717682Y-14029627D02*
X17708158Y-14001055D01*
X17708158Y-14001055D02*
X17698634Y-13982008D01*
X17698634Y-13982008D02*
X17679587Y-13953436D01*
X17679587Y-13953436D02*
X17670063Y-13943912D01*
M02*
