%TF.GenerationSoftware,KiCad,Pcbnew,8.0.3*%
%TF.CreationDate,2024-11-27T21:51:57-05:00*%
%TF.ProjectId,Ethernet HAT,45746865-726e-4657-9420-4841542e6b69,rev?*%
%TF.SameCoordinates,Original*%
%TF.FileFunction,Copper,L1,Top*%
%TF.FilePolarity,Positive*%
%FSLAX46Y46*%
G04 Gerber Fmt 4.6, Leading zero omitted, Abs format (unit mm)*
G04 Created by KiCad (PCBNEW 8.0.3) date 2024-11-27 21:51:57*
%MOMM*%
%LPD*%
G01*
G04 APERTURE LIST*
G04 Aperture macros list*
%AMRoundRect*
0 Rectangle with rounded corners*
0 $1 Rounding radius*
0 $2 $3 $4 $5 $6 $7 $8 $9 X,Y pos of 4 corners*
0 Add a 4 corners polygon primitive as box body*
4,1,4,$2,$3,$4,$5,$6,$7,$8,$9,$2,$3,0*
0 Add four circle primitives for the rounded corners*
1,1,$1+$1,$2,$3*
1,1,$1+$1,$4,$5*
1,1,$1+$1,$6,$7*
1,1,$1+$1,$8,$9*
0 Add four rect primitives between the rounded corners*
20,1,$1+$1,$2,$3,$4,$5,0*
20,1,$1+$1,$4,$5,$6,$7,0*
20,1,$1+$1,$6,$7,$8,$9,0*
20,1,$1+$1,$8,$9,$2,$3,0*%
G04 Aperture macros list end*
%TA.AperFunction,SMDPad,CuDef*%
%ADD10RoundRect,0.135000X-0.185000X0.135000X-0.185000X-0.135000X0.185000X-0.135000X0.185000X0.135000X0*%
%TD*%
%TA.AperFunction,SMDPad,CuDef*%
%ADD11RoundRect,0.135000X-0.135000X-0.185000X0.135000X-0.185000X0.135000X0.185000X-0.135000X0.185000X0*%
%TD*%
%TA.AperFunction,SMDPad,CuDef*%
%ADD12RoundRect,0.250000X-0.250000X-0.475000X0.250000X-0.475000X0.250000X0.475000X-0.250000X0.475000X0*%
%TD*%
%TA.AperFunction,SMDPad,CuDef*%
%ADD13RoundRect,0.140000X-0.170000X0.140000X-0.170000X-0.140000X0.170000X-0.140000X0.170000X0.140000X0*%
%TD*%
%TA.AperFunction,SMDPad,CuDef*%
%ADD14RoundRect,0.140000X0.140000X0.170000X-0.140000X0.170000X-0.140000X-0.170000X0.140000X-0.170000X0*%
%TD*%
%TA.AperFunction,SMDPad,CuDef*%
%ADD15RoundRect,0.218750X-0.256250X0.218750X-0.256250X-0.218750X0.256250X-0.218750X0.256250X0.218750X0*%
%TD*%
%TA.AperFunction,SMDPad,CuDef*%
%ADD16RoundRect,0.135000X0.185000X-0.135000X0.185000X0.135000X-0.185000X0.135000X-0.185000X-0.135000X0*%
%TD*%
%TA.AperFunction,SMDPad,CuDef*%
%ADD17RoundRect,0.140000X0.170000X-0.140000X0.170000X0.140000X-0.170000X0.140000X-0.170000X-0.140000X0*%
%TD*%
%TA.AperFunction,SMDPad,CuDef*%
%ADD18RoundRect,0.135000X0.135000X0.185000X-0.135000X0.185000X-0.135000X-0.185000X0.135000X-0.185000X0*%
%TD*%
%TA.AperFunction,SMDPad,CuDef*%
%ADD19R,1.400000X1.200000*%
%TD*%
%TA.AperFunction,ComponentPad*%
%ADD20C,5.500000*%
%TD*%
%TA.AperFunction,SMDPad,CuDef*%
%ADD21RoundRect,0.250000X-0.475000X0.250000X-0.475000X-0.250000X0.475000X-0.250000X0.475000X0.250000X0*%
%TD*%
%TA.AperFunction,SMDPad,CuDef*%
%ADD22RoundRect,0.075000X-0.662500X-0.075000X0.662500X-0.075000X0.662500X0.075000X-0.662500X0.075000X0*%
%TD*%
%TA.AperFunction,SMDPad,CuDef*%
%ADD23RoundRect,0.075000X-0.075000X-0.662500X0.075000X-0.662500X0.075000X0.662500X-0.075000X0.662500X0*%
%TD*%
%TA.AperFunction,SMDPad,CuDef*%
%ADD24RoundRect,0.218750X0.218750X0.256250X-0.218750X0.256250X-0.218750X-0.256250X0.218750X-0.256250X0*%
%TD*%
%TA.AperFunction,SMDPad,CuDef*%
%ADD25R,2.000000X0.610000*%
%TD*%
%TA.AperFunction,SMDPad,CuDef*%
%ADD26R,3.600000X2.680000*%
%TD*%
%TA.AperFunction,ComponentPad*%
%ADD27C,1.890000*%
%TD*%
%TA.AperFunction,ComponentPad*%
%ADD28R,1.900000X1.900000*%
%TD*%
%TA.AperFunction,ComponentPad*%
%ADD29C,1.900000*%
%TD*%
%TA.AperFunction,ComponentPad*%
%ADD30C,2.600000*%
%TD*%
%TA.AperFunction,ViaPad*%
%ADD31C,0.700000*%
%TD*%
%TA.AperFunction,ViaPad*%
%ADD32C,0.800000*%
%TD*%
%TA.AperFunction,Conductor*%
%ADD33C,0.200000*%
%TD*%
%TA.AperFunction,Conductor*%
%ADD34C,0.400000*%
%TD*%
G04 APERTURE END LIST*
D10*
%TO.P,R7,1*%
%TO.N,3V3A*%
X142200000Y-103690000D03*
%TO.P,R7,2*%
%TO.N,/TD+*%
X142200000Y-104710000D03*
%TD*%
D11*
%TO.P,R14,1*%
%TO.N,Net-(U1-SPDLED)*%
X140490000Y-84000000D03*
%TO.P,R14,2*%
%TO.N,Net-(D1-A)*%
X141510000Y-84000000D03*
%TD*%
D12*
%TO.P,C7,1*%
%TO.N,3V3A*%
X141850000Y-114900000D03*
%TO.P,C7,2*%
%TO.N,GND*%
X143750000Y-114900000D03*
%TD*%
D13*
%TO.P,C15,1*%
%TO.N,+3.3V*%
X155800000Y-111640000D03*
%TO.P,C15,2*%
%TO.N,GND*%
X155800000Y-112600000D03*
%TD*%
%TO.P,C11,1*%
%TO.N,3V3A*%
X142800000Y-112120000D03*
%TO.P,C11,2*%
%TO.N,GND*%
X142800000Y-113080000D03*
%TD*%
D14*
%TO.P,C10,1*%
%TO.N,3V3A*%
X145880000Y-105600000D03*
%TO.P,C10,2*%
%TO.N,GND*%
X144920000Y-105600000D03*
%TD*%
D15*
%TO.P,D2,1,K*%
%TO.N,GND*%
X139800000Y-80212500D03*
%TO.P,D2,2,A*%
%TO.N,Net-(D2-A)*%
X139800000Y-81787500D03*
%TD*%
D16*
%TO.P,R15,1*%
%TO.N,GND*%
X137900000Y-102610000D03*
%TO.P,R15,2*%
%TO.N,RCT*%
X137900000Y-101590000D03*
%TD*%
D11*
%TO.P,R10,1*%
%TO.N,Net-(U1-LINKLED)*%
X140490000Y-85300000D03*
%TO.P,R10,2*%
%TO.N,Net-(J1-LEDG_K)*%
X141510000Y-85300000D03*
%TD*%
D13*
%TO.P,C12,1*%
%TO.N,3V3A*%
X144000000Y-112120000D03*
%TO.P,C12,2*%
%TO.N,GND*%
X144000000Y-113080000D03*
%TD*%
D10*
%TO.P,R16,1*%
%TO.N,GND*%
X137900000Y-103700000D03*
%TO.P,R16,2*%
%TO.N,/RD+*%
X137900000Y-104720000D03*
%TD*%
D11*
%TO.P,R11,1*%
%TO.N,Net-(U1-ACTLED)*%
X140490000Y-87800000D03*
%TO.P,R11,2*%
%TO.N,Net-(J1-LEDY_K)*%
X141510000Y-87800000D03*
%TD*%
D17*
%TO.P,C1,1*%
%TO.N,GND*%
X157000000Y-111580000D03*
%TO.P,C1,2*%
%TO.N,Net-(U1-XI{slash}CLKIN)*%
X157000000Y-110620000D03*
%TD*%
D18*
%TO.P,R5,1*%
%TO.N,Net-(U1-RXN)*%
X143710000Y-109100000D03*
%TO.P,R5,2*%
%TO.N,/RD-*%
X142690000Y-109100000D03*
%TD*%
D13*
%TO.P,C3,1*%
%TO.N,RCT*%
X139100000Y-101620000D03*
%TO.P,C3,2*%
%TO.N,GND*%
X139100000Y-102580000D03*
%TD*%
D11*
%TO.P,R13,1*%
%TO.N,Net-(U1-DUPLED)*%
X140490000Y-86700000D03*
%TO.P,R13,2*%
%TO.N,Net-(D2-A)*%
X141510000Y-86700000D03*
%TD*%
D19*
%TO.P,Y1,1,1*%
%TO.N,Net-(U1-XO)*%
X161100000Y-109250000D03*
%TO.P,Y1,2,2*%
%TO.N,GND*%
X158900000Y-109250000D03*
%TO.P,Y1,3,3*%
%TO.N,Net-(U1-XI{slash}CLKIN)*%
X158900000Y-110950000D03*
%TO.P,Y1,4,4*%
%TO.N,GND*%
X161100000Y-110950000D03*
%TD*%
D13*
%TO.P,C8,1*%
%TO.N,3V3A*%
X147400000Y-116620000D03*
%TO.P,C8,2*%
%TO.N,GND*%
X147400000Y-117580000D03*
%TD*%
D17*
%TO.P,C2,1*%
%TO.N,Net-(U1-XO)*%
X157000000Y-109580000D03*
%TO.P,C2,2*%
%TO.N,GND*%
X157000000Y-108620000D03*
%TD*%
D20*
%TO.P,H2,1*%
%TO.N,N/C*%
X165500000Y-115500000D03*
%TD*%
D10*
%TO.P,R8,1*%
%TO.N,Net-(U1-EXRES1)*%
X146200000Y-116590000D03*
%TO.P,R8,2*%
%TO.N,GND*%
X146200000Y-117610000D03*
%TD*%
D18*
%TO.P,R3,1*%
%TO.N,Net-(U1-TXN)*%
X143710000Y-106600000D03*
%TO.P,R3,2*%
%TO.N,/TD-*%
X142690000Y-106600000D03*
%TD*%
D10*
%TO.P,R17,1*%
%TO.N,GND*%
X139100000Y-103690000D03*
%TO.P,R17,2*%
%TO.N,/RD-*%
X139100000Y-104710000D03*
%TD*%
D21*
%TO.P,C14,1*%
%TO.N,+3.3V*%
X157500000Y-113250000D03*
%TO.P,C14,2*%
%TO.N,GND*%
X157500000Y-115150000D03*
%TD*%
D18*
%TO.P,R4,1*%
%TO.N,Net-(U1-RXP)*%
X143710000Y-110200000D03*
%TO.P,R4,2*%
%TO.N,/RD+*%
X142690000Y-110200000D03*
%TD*%
D16*
%TO.P,R1,1*%
%TO.N,Net-(U1-XI{slash}CLKIN)*%
X155800000Y-110610000D03*
%TO.P,R1,2*%
%TO.N,Net-(U1-XO)*%
X155800000Y-109590000D03*
%TD*%
D22*
%TO.P,U1,1,TXN*%
%TO.N,Net-(U1-TXN)*%
X145837500Y-107250000D03*
%TO.P,U1,2,TXP*%
%TO.N,Net-(U1-TXP)*%
X145837500Y-107750000D03*
%TO.P,U1,3,AGND*%
%TO.N,GND*%
X145837500Y-108250000D03*
%TO.P,U1,4,AVDD*%
%TO.N,3V3A*%
X145837500Y-108750000D03*
%TO.P,U1,5,RXN*%
%TO.N,Net-(U1-RXN)*%
X145837500Y-109250000D03*
%TO.P,U1,6,RXP*%
%TO.N,Net-(U1-RXP)*%
X145837500Y-109750000D03*
%TO.P,U1,7,DNC*%
%TO.N,unconnected-(U1-DNC-Pad7)*%
X145837500Y-110250000D03*
%TO.P,U1,8,AVDD*%
%TO.N,3V3A*%
X145837500Y-110750000D03*
%TO.P,U1,9,AGND*%
%TO.N,GND*%
X145837500Y-111250000D03*
%TO.P,U1,10,EXRES1*%
%TO.N,Net-(U1-EXRES1)*%
X145837500Y-111750000D03*
%TO.P,U1,11,AVDD*%
%TO.N,3V3A*%
X145837500Y-112250000D03*
%TO.P,U1,12,NC*%
%TO.N,unconnected-(U1-NC-Pad12)*%
X145837500Y-112750000D03*
D23*
%TO.P,U1,13,NC*%
%TO.N,unconnected-(U1-NC-Pad13)*%
X147250000Y-114162500D03*
%TO.P,U1,14,AGND*%
%TO.N,GND*%
X147750000Y-114162500D03*
%TO.P,U1,15,AVDD*%
%TO.N,3V3A*%
X148250000Y-114162500D03*
%TO.P,U1,16,AGND*%
%TO.N,GND*%
X148750000Y-114162500D03*
%TO.P,U1,17,AVDD*%
%TO.N,3V3A*%
X149250000Y-114162500D03*
%TO.P,U1,18,VBG*%
%TO.N,unconnected-(U1-VBG-Pad18)*%
X149750000Y-114162500D03*
%TO.P,U1,19,AGND*%
%TO.N,GND*%
X150250000Y-114162500D03*
%TO.P,U1,20,TOCAP*%
%TO.N,Net-(U1-TOCAP)*%
X150750000Y-114162500D03*
%TO.P,U1,21,AVDD*%
%TO.N,3V3A*%
X151250000Y-114162500D03*
%TO.P,U1,22,1V2O*%
%TO.N,Net-(U1-1V2O)*%
X151750000Y-114162500D03*
%TO.P,U1,23,RSVD*%
%TO.N,unconnected-(U1-RSVD-Pad23)*%
X152250000Y-114162500D03*
%TO.P,U1,24,SPDLED*%
%TO.N,Net-(U1-SPDLED)*%
X152750000Y-114162500D03*
D22*
%TO.P,U1,25,LINKLED*%
%TO.N,Net-(U1-LINKLED)*%
X154162500Y-112750000D03*
%TO.P,U1,26,DUPLED*%
%TO.N,Net-(U1-DUPLED)*%
X154162500Y-112250000D03*
%TO.P,U1,27,ACTLED*%
%TO.N,Net-(U1-ACTLED)*%
X154162500Y-111750000D03*
%TO.P,U1,28,VDD*%
%TO.N,+3.3V*%
X154162500Y-111250000D03*
%TO.P,U1,29,GND*%
%TO.N,GND*%
X154162500Y-110750000D03*
%TO.P,U1,30,XI/CLKIN*%
%TO.N,Net-(U1-XI{slash}CLKIN)*%
X154162500Y-110250000D03*
%TO.P,U1,31,XO*%
%TO.N,Net-(U1-XO)*%
X154162500Y-109750000D03*
%TO.P,U1,32,~{SCS}*%
%TO.N,ETH_CS*%
X154162500Y-109250000D03*
%TO.P,U1,33,SCLK*%
%TO.N,SCK*%
X154162500Y-108750000D03*
%TO.P,U1,34,MISO*%
%TO.N,MISO*%
X154162500Y-108250000D03*
%TO.P,U1,35,MOSI*%
%TO.N,MOSI*%
X154162500Y-107750000D03*
%TO.P,U1,36,~{INT}*%
%TO.N,AUX4*%
X154162500Y-107250000D03*
D23*
%TO.P,U1,37,~{RST}*%
%TO.N,AUX6*%
X152750000Y-105837500D03*
%TO.P,U1,38,RSVD*%
%TO.N,unconnected-(U1-RSVD-Pad38)*%
X152250000Y-105837500D03*
%TO.P,U1,39,RSVD*%
%TO.N,unconnected-(U1-RSVD-Pad39)*%
X151750000Y-105837500D03*
%TO.P,U1,40,RSVD*%
%TO.N,unconnected-(U1-RSVD-Pad40)*%
X151250000Y-105837500D03*
%TO.P,U1,41,RSVD*%
%TO.N,unconnected-(U1-RSVD-Pad41)*%
X150750000Y-105837500D03*
%TO.P,U1,42,RSVD*%
%TO.N,unconnected-(U1-RSVD-Pad42)*%
X150250000Y-105837500D03*
%TO.P,U1,43,PMODE2*%
%TO.N,AUX5*%
X149750000Y-105837500D03*
%TO.P,U1,44,PMODE1*%
%TO.N,AUX1*%
X149250000Y-105837500D03*
%TO.P,U1,45,PMODE0*%
%TO.N,AUX2*%
X148750000Y-105837500D03*
%TO.P,U1,46,NC*%
%TO.N,unconnected-(U1-NC-Pad46)*%
X148250000Y-105837500D03*
%TO.P,U1,47,NC*%
%TO.N,unconnected-(U1-NC-Pad47)*%
X147750000Y-105837500D03*
%TO.P,U1,48,AGND*%
%TO.N,GND*%
X147250000Y-105837500D03*
%TD*%
D13*
%TO.P,C4,1*%
%TO.N,TCT*%
X142200000Y-101620000D03*
%TO.P,C4,2*%
%TO.N,GND*%
X142200000Y-102580000D03*
%TD*%
D20*
%TO.P,H4,1*%
%TO.N,N/C*%
X165500000Y-84500000D03*
%TD*%
D15*
%TO.P,D1,1,K*%
%TO.N,GND*%
X141990000Y-80200000D03*
%TO.P,D1,2,A*%
%TO.N,Net-(D1-A)*%
X141990000Y-81775000D03*
%TD*%
D20*
%TO.P,H1,1*%
%TO.N,N/C*%
X134500000Y-84500000D03*
%TD*%
D18*
%TO.P,R2,1*%
%TO.N,Net-(U1-TXP)*%
X143710000Y-107700000D03*
%TO.P,R2,2*%
%TO.N,/TD+*%
X142690000Y-107700000D03*
%TD*%
D24*
%TO.P,L1,1,1*%
%TO.N,+3.3V*%
X143387500Y-117100000D03*
%TO.P,L1,2,2*%
%TO.N,3V3A*%
X141812500Y-117100000D03*
%TD*%
D13*
%TO.P,C13,1*%
%TO.N,3V3A*%
X151500000Y-116620000D03*
%TO.P,C13,2*%
%TO.N,GND*%
X151500000Y-117580000D03*
%TD*%
D16*
%TO.P,R12,1*%
%TO.N,3V3A*%
X144100000Y-102610000D03*
%TO.P,R12,2*%
%TO.N,TCT*%
X144100000Y-101590000D03*
%TD*%
D20*
%TO.P,H3,1*%
%TO.N,N/C*%
X134500000Y-115500000D03*
%TD*%
D25*
%TO.P,J2,1,Pin_1*%
%TO.N,+3.3V*%
X164350000Y-106500000D03*
%TO.P,J2,2,Pin_2*%
%TO.N,SDA1*%
X164350000Y-105500000D03*
%TO.P,J2,3,Pin_3*%
%TO.N,SCL1*%
X164350000Y-104500000D03*
%TO.P,J2,4,Pin_4*%
%TO.N,AUX6*%
X164350000Y-103500000D03*
%TO.P,J2,5,Pin_5*%
%TO.N,AUX5*%
X164350000Y-102500000D03*
%TO.P,J2,6,Pin_6*%
%TO.N,AUX4*%
X164350000Y-101500000D03*
%TO.P,J2,7,Pin_7*%
%TO.N,AUX3*%
X164350000Y-100500000D03*
%TO.P,J2,8,Pin_8*%
%TO.N,SCK*%
X164350000Y-99500000D03*
%TO.P,J2,9,Pin_9*%
%TO.N,MOSI*%
X164350000Y-98500000D03*
%TO.P,J2,10,Pin_10*%
%TO.N,ETH_CS*%
X164350000Y-97500000D03*
%TO.P,J2,11,Pin_11*%
%TO.N,MISO*%
X164350000Y-96500000D03*
%TO.P,J2,12,Pin_12*%
%TO.N,AUX2*%
X164350000Y-95500000D03*
%TO.P,J2,13,Pin_13*%
%TO.N,AUX1*%
X164350000Y-94500000D03*
%TO.P,J2,14,Pin_14*%
%TO.N,GND*%
X164350000Y-93500000D03*
D26*
%TO.P,J2,MP*%
%TO.N,N/C*%
X167150000Y-109490000D03*
X167150000Y-90510000D03*
%TD*%
D10*
%TO.P,R6,1*%
%TO.N,3V3A*%
X144100000Y-103690000D03*
%TO.P,R6,2*%
%TO.N,/TD-*%
X144100000Y-104710000D03*
%TD*%
D13*
%TO.P,C6,1*%
%TO.N,Net-(U1-1V2O)*%
X152700000Y-116620000D03*
%TO.P,C6,2*%
%TO.N,GND*%
X152700000Y-117580000D03*
%TD*%
%TO.P,C9,1*%
%TO.N,3V3A*%
X149000000Y-116620000D03*
%TO.P,C9,2*%
%TO.N,GND*%
X149000000Y-117580000D03*
%TD*%
%TO.P,C5,1*%
%TO.N,Net-(U1-TOCAP)*%
X150200000Y-116620000D03*
%TO.P,C5,2*%
%TO.N,GND*%
X150200000Y-117580000D03*
%TD*%
D27*
%TO.P,J1,L1,LEDY_A*%
%TO.N,+3.3V*%
X146900000Y-86570000D03*
%TO.P,J1,L2,LEDY_K*%
%TO.N,Net-(J1-LEDY_K)*%
X149440000Y-85050000D03*
%TO.P,J1,L3,LEDG_K*%
%TO.N,Net-(J1-LEDG_K)*%
X157010000Y-86570000D03*
%TO.P,J1,L4,LEDG_A*%
%TO.N,+3.3V*%
X159550000Y-85050000D03*
D28*
%TO.P,J1,R1,TD+*%
%TO.N,/TD+*%
X157670000Y-96290000D03*
D29*
%TO.P,J1,R2,TD-*%
%TO.N,/TD-*%
X156400000Y-98830000D03*
%TO.P,J1,R3,RD+*%
%TO.N,/RD+*%
X155130000Y-96290000D03*
%TO.P,J1,R4,TCT*%
%TO.N,TCT*%
X153860000Y-98830000D03*
%TO.P,J1,R5,RCT*%
%TO.N,RCT*%
X152590000Y-96290000D03*
%TO.P,J1,R6,RD-*%
%TO.N,/RD-*%
X151320000Y-98830000D03*
%TO.P,J1,R7,NC*%
%TO.N,unconnected-(J1-NC-PadR7)*%
X150050000Y-96290000D03*
%TO.P,J1,R8,GND*%
%TO.N,GND*%
X148780000Y-98830000D03*
D30*
%TO.P,J1,SH,SHIELD*%
X161000000Y-93000000D03*
X145450000Y-93000000D03*
%TD*%
D31*
%TO.N,Net-(U1-ACTLED)*%
X140900000Y-112900000D03*
%TO.N,GND*%
X144900000Y-80200000D03*
X146000000Y-80200000D03*
%TO.N,Net-(D2-A)*%
X142600000Y-86100000D03*
X139800000Y-82900000D03*
%TO.N,Net-(U1-ACTLED)*%
X149200000Y-110900000D03*
%TO.N,Net-(U1-DUPLED)*%
X140197216Y-113550000D03*
X149975526Y-111563384D03*
%TO.N,Net-(U1-LINKLED)*%
X139500000Y-114200000D03*
X150765872Y-112211675D03*
%TO.N,Net-(U1-SPDLED)*%
X138898780Y-114869731D03*
X151638325Y-112861675D03*
%TO.N,GND*%
X146700000Y-97150000D03*
X164400000Y-92200000D03*
X143400000Y-95850000D03*
X157800000Y-107600000D03*
X137651901Y-100151902D03*
X143400000Y-99800000D03*
X139351901Y-98451901D03*
X137974235Y-108625765D03*
X140600000Y-105800000D03*
X146700000Y-102450000D03*
X164400000Y-91200000D03*
X136832319Y-99133005D03*
X147544546Y-111958556D03*
X150100000Y-115700000D03*
X143400000Y-98450000D03*
X148204011Y-115811059D03*
X145200000Y-101150000D03*
X159600000Y-112400000D03*
X152700000Y-110200000D03*
X151300000Y-93650000D03*
X143200000Y-103040000D03*
X151340380Y-101140380D03*
X159100000Y-115100000D03*
X148600000Y-101150000D03*
X146700000Y-99800000D03*
X135650000Y-102000000D03*
X138450000Y-105800000D03*
X140243474Y-109056525D03*
X146700000Y-98450000D03*
X140271140Y-99371141D03*
X144870245Y-113371679D03*
X137150000Y-105800000D03*
X146700000Y-95850000D03*
X139424235Y-110075765D03*
X141870001Y-107006094D03*
X151755380Y-102450000D03*
X141140380Y-100340380D03*
X140600000Y-102200000D03*
X138432660Y-97532664D03*
X145734620Y-103784620D03*
X141062714Y-108037286D03*
X143400000Y-97150000D03*
X142750000Y-105590380D03*
X151300000Y-95100000D03*
X148600000Y-102450000D03*
%TO.N,3V3A*%
X145500000Y-102450000D03*
D32*
X141800000Y-112000000D03*
D31*
%TO.N,+3.3V*%
X143400000Y-118500000D03*
X144500000Y-118500000D03*
X161400000Y-106500000D03*
X159000000Y-113300000D03*
X162300000Y-106500000D03*
%TO.N,AUX4*%
X162400000Y-102100000D03*
X154800000Y-106200000D03*
%TO.N,ETH_CS*%
X162600000Y-100150000D03*
X162765073Y-97850001D03*
%TO.N,AUX1*%
X166500000Y-95400000D03*
X162200000Y-96400000D03*
%TO.N,AUX5*%
X166611632Y-96293053D03*
X161100000Y-96650000D03*
%TO.N,AUX6*%
X159509620Y-104109620D03*
X153688298Y-105088298D03*
%TD*%
D33*
%TO.N,/RD+*%
X137800000Y-104820000D02*
X137900000Y-104720000D01*
X137800000Y-107532290D02*
X137800000Y-104820000D01*
X142690000Y-110200000D02*
X140467710Y-110200000D01*
%TO.N,Net-(U1-RXP)*%
X144750000Y-109750000D02*
X145837500Y-109750000D01*
X143710000Y-110200000D02*
X144300000Y-110200000D01*
%TO.N,/RD+*%
X140467710Y-110200000D02*
X137800000Y-107532290D01*
%TO.N,Net-(U1-RXP)*%
X144300000Y-110200000D02*
X144750000Y-109750000D01*
%TO.N,/RD-*%
X141206189Y-109100000D02*
X142690000Y-109100000D01*
%TO.N,Net-(U1-RXN)*%
X144400000Y-109100000D02*
X144550000Y-109250000D01*
%TO.N,/RD-*%
X139100000Y-104710000D02*
X139100000Y-106993811D01*
%TO.N,Net-(U1-RXN)*%
X143710000Y-109100000D02*
X144400000Y-109100000D01*
X144550000Y-109250000D02*
X145837500Y-109250000D01*
%TO.N,/RD-*%
X139100000Y-106993811D02*
X141206189Y-109100000D01*
%TO.N,GND*%
X141425428Y-108400000D02*
X141062714Y-108037286D01*
X144300000Y-108400000D02*
X141425428Y-108400000D01*
X144450000Y-108250000D02*
X144300000Y-108400000D01*
X145837500Y-108250000D02*
X144450000Y-108250000D01*
%TO.N,/TD+*%
X142100000Y-104810000D02*
X142200000Y-104710000D01*
X141220001Y-106479999D02*
X142100000Y-105600000D01*
X142100000Y-105600000D02*
X142100000Y-104810000D01*
X142690000Y-107700000D02*
X141644668Y-107700000D01*
%TO.N,Net-(U1-TXP)*%
X144500000Y-107700000D02*
X144550000Y-107750000D01*
X144550000Y-107750000D02*
X145837500Y-107750000D01*
X143710000Y-107700000D02*
X144500000Y-107700000D01*
%TO.N,/TD+*%
X141644668Y-107700000D02*
X141220001Y-107275333D01*
X141220001Y-107275333D02*
X141220001Y-106479999D01*
%TO.N,/TD-*%
X144100000Y-105159619D02*
X142690000Y-106569619D01*
X144100000Y-104710000D02*
X144100000Y-105159619D01*
%TO.N,Net-(U1-TXN)*%
X144550000Y-107250000D02*
X143900000Y-106600000D01*
X143900000Y-106600000D02*
X143710000Y-106600000D01*
X145837500Y-107250000D02*
X144550000Y-107250000D01*
%TO.N,/TD-*%
X142690000Y-106569619D02*
X142690000Y-106600000D01*
%TO.N,Net-(U1-SPDLED)*%
X138898780Y-114869731D02*
X138898780Y-114695838D01*
X133500000Y-92268628D02*
X139520000Y-86248628D01*
X138898780Y-114695838D02*
X133500000Y-109297058D01*
X133500000Y-109297058D02*
X133500000Y-92268628D01*
X139520000Y-84970000D02*
X140490000Y-84000000D01*
X139520000Y-86248628D02*
X139520000Y-84970000D01*
%TO.N,Net-(U1-LINKLED)*%
X133900000Y-92434314D02*
X139920000Y-86414314D01*
X133900000Y-109131372D02*
X133900000Y-92434314D01*
X139920000Y-86414314D02*
X139920000Y-85870000D01*
X139500000Y-114200000D02*
X138968628Y-114200000D01*
X139920000Y-85870000D02*
X140490000Y-85300000D01*
X138968628Y-114200000D02*
X133900000Y-109131372D01*
%TO.N,Net-(U1-DUPLED)*%
X140200000Y-86700000D02*
X140490000Y-86700000D01*
X134300000Y-108965686D02*
X134300000Y-92600000D01*
X138884314Y-113550000D02*
X134300000Y-108965686D01*
X140197216Y-113550000D02*
X138884314Y-113550000D01*
X134300000Y-92600000D02*
X140200000Y-86700000D01*
%TO.N,Net-(U1-ACTLED)*%
X139900000Y-87800000D02*
X140490000Y-87800000D01*
X134700000Y-93000000D02*
X139900000Y-87800000D01*
X138800000Y-112900000D02*
X134700000Y-108800000D01*
X140900000Y-112900000D02*
X138800000Y-112900000D01*
X134700000Y-108800000D02*
X134700000Y-93000000D01*
D34*
%TO.N,GND*%
X144900000Y-80200000D02*
X146000000Y-80200000D01*
X141990000Y-80200000D02*
X144900000Y-80200000D01*
X141977500Y-80212500D02*
X141990000Y-80200000D01*
X139800000Y-80212500D02*
X141977500Y-80212500D01*
D33*
%TO.N,Net-(D2-A)*%
X139800000Y-82900000D02*
X139800000Y-81787500D01*
X142000000Y-86700000D02*
X142600000Y-86100000D01*
X141510000Y-86700000D02*
X142000000Y-86700000D01*
%TO.N,Net-(D1-A)*%
X142000000Y-83510000D02*
X142000000Y-81785000D01*
X141510000Y-84000000D02*
X142000000Y-83510000D01*
X142000000Y-81785000D02*
X141990000Y-81775000D01*
%TO.N,Net-(J1-LEDG_K)*%
X143100000Y-85300000D02*
X141510000Y-85300000D01*
X144800000Y-83600000D02*
X143100000Y-85300000D01*
X154040000Y-83600000D02*
X144800000Y-83600000D01*
X157010000Y-86570000D02*
X154040000Y-83600000D01*
%TO.N,Net-(U1-ACTLED)*%
X152150611Y-110900000D02*
X149200000Y-110900000D01*
X153000611Y-111750000D02*
X152150611Y-110900000D01*
X154162500Y-111750000D02*
X153000611Y-111750000D01*
%TO.N,GND*%
X153250000Y-110750000D02*
X154162500Y-110750000D01*
X152700000Y-110200000D02*
X153250000Y-110750000D01*
%TO.N,Net-(U1-DUPLED)*%
X152934925Y-112250000D02*
X154162500Y-112250000D01*
X152246600Y-111561675D02*
X152934925Y-112250000D01*
X150494924Y-111563384D02*
X150496633Y-111561675D01*
X149975526Y-111563384D02*
X150494924Y-111563384D01*
X150496633Y-111561675D02*
X152246600Y-111561675D01*
%TO.N,Net-(U1-LINKLED)*%
X152869239Y-112750000D02*
X154162500Y-112750000D01*
X150765872Y-112211675D02*
X152330914Y-112211675D01*
X152330914Y-112211675D02*
X152869239Y-112750000D01*
%TO.N,Net-(U1-SPDLED)*%
X152750000Y-113392590D02*
X152750000Y-114162500D01*
X152219085Y-112861675D02*
X152750000Y-113392590D01*
X151638325Y-112861675D02*
X152219085Y-112861675D01*
D34*
%TO.N,GND*%
X144870245Y-113371679D02*
X144291679Y-113371679D01*
X144870245Y-113779755D02*
X143750000Y-114900000D01*
X144870245Y-113371679D02*
X144870245Y-113779755D01*
X144291679Y-113371679D02*
X144000000Y-113080000D01*
D33*
X155800000Y-113450000D02*
X157500000Y-115150000D01*
X148204011Y-117300000D02*
X148220000Y-117300000D01*
X148500000Y-117580000D02*
X151500000Y-117580000D01*
X143200000Y-103040000D02*
X142740000Y-102580000D01*
X160700000Y-110950000D02*
X161100000Y-110950000D01*
X147250000Y-105837500D02*
X147250000Y-105050000D01*
D34*
X142800000Y-113080000D02*
X144000000Y-113080000D01*
D33*
X150200000Y-115700000D02*
X150100000Y-115700000D01*
X157000000Y-108620000D02*
X157000000Y-108400000D01*
X159050000Y-115150000D02*
X159100000Y-115100000D01*
X159600000Y-112400000D02*
X159800000Y-112200000D01*
X148152005Y-117432005D02*
X148300000Y-117580000D01*
X147544546Y-112032998D02*
X147750000Y-112238452D01*
X148700000Y-115315070D02*
X148204011Y-115811059D01*
X147544546Y-111958556D02*
X147470104Y-111958556D01*
X148204011Y-117300000D02*
X148204011Y-115811059D01*
X159400000Y-112200000D02*
X159600000Y-112400000D01*
X151500000Y-117580000D02*
X152700000Y-117580000D01*
X142740000Y-102580000D02*
X142200000Y-102580000D01*
X146200000Y-117610000D02*
X147370000Y-117610000D01*
X158900000Y-109250000D02*
X159000000Y-109250000D01*
X148152005Y-117352005D02*
X148204011Y-117300000D01*
D34*
X164400000Y-93500000D02*
X164400000Y-92200000D01*
D33*
X145734620Y-103931066D02*
X145734620Y-103784620D01*
X147370000Y-117610000D02*
X147400000Y-117580000D01*
X157000000Y-108400000D02*
X157800000Y-107600000D01*
X157620000Y-112200000D02*
X159400000Y-112200000D01*
X159000000Y-109250000D02*
X160700000Y-110950000D01*
X146761548Y-111250000D02*
X145837500Y-111250000D01*
X147470104Y-111958556D02*
X146761548Y-111250000D01*
X147400000Y-117580000D02*
X147924011Y-117580000D01*
X159850000Y-112200000D02*
X161100000Y-110950000D01*
X147544546Y-111958556D02*
X147544546Y-112032998D01*
X147924011Y-117580000D02*
X148152005Y-117352005D01*
X148300000Y-117580000D02*
X148500000Y-117580000D01*
X148750000Y-114162500D02*
X148700000Y-114212500D01*
X157000000Y-111580000D02*
X157620000Y-112200000D01*
D34*
X164400000Y-92200000D02*
X164400000Y-91200000D01*
D33*
X150250000Y-115650000D02*
X150200000Y-115700000D01*
X155800000Y-112600000D02*
X155800000Y-113450000D01*
X147400000Y-117580000D02*
X148300000Y-117580000D01*
X148700000Y-114212500D02*
X148700000Y-115315070D01*
X147250000Y-105050000D02*
X145984620Y-103784620D01*
X150250000Y-114162500D02*
X150250000Y-115650000D01*
X159800000Y-112200000D02*
X159850000Y-112200000D01*
X157500000Y-115150000D02*
X159050000Y-115150000D01*
X145984620Y-103784620D02*
X145734620Y-103784620D01*
X144920000Y-104745686D02*
X145734620Y-103931066D01*
X150100000Y-115800000D02*
X150200000Y-115700000D01*
X150100000Y-115700000D02*
X150100000Y-115800000D01*
X148152005Y-117352005D02*
X148152005Y-117432005D01*
X148220000Y-117300000D02*
X148500000Y-117580000D01*
X144920000Y-105600000D02*
X144920000Y-104745686D01*
X147750000Y-112238452D02*
X147750000Y-114162500D01*
%TO.N,Net-(U1-XI{slash}CLKIN)*%
X157000000Y-110620000D02*
X158570000Y-110620000D01*
X156990000Y-110610000D02*
X157000000Y-110620000D01*
X155800000Y-110610000D02*
X156990000Y-110610000D01*
X155440000Y-110250000D02*
X155800000Y-110610000D01*
X158570000Y-110620000D02*
X158900000Y-110950000D01*
X154162500Y-110250000D02*
X155440000Y-110250000D01*
%TO.N,Net-(U1-XO)*%
X158050000Y-108350000D02*
X157610000Y-108790000D01*
X155810000Y-109580000D02*
X155800000Y-109590000D01*
X155800000Y-109590000D02*
X155640000Y-109750000D01*
X157610000Y-108970000D02*
X157000000Y-109580000D01*
X160200000Y-108350000D02*
X158050000Y-108350000D01*
X161100000Y-109250000D02*
X160200000Y-108350000D01*
X155640000Y-109750000D02*
X154162500Y-109750000D01*
X157000000Y-109580000D02*
X155810000Y-109580000D01*
X157610000Y-108790000D02*
X157610000Y-108970000D01*
%TO.N,RCT*%
X140923042Y-97800000D02*
X139100000Y-99623042D01*
X147760000Y-97540000D02*
X147500000Y-97800000D01*
X139100000Y-99623042D02*
X139100000Y-101620000D01*
X147500000Y-97800000D02*
X140923042Y-97800000D01*
X137930000Y-101620000D02*
X137900000Y-101590000D01*
X152590000Y-96290000D02*
X151340000Y-97540000D01*
X139100000Y-101620000D02*
X137930000Y-101620000D01*
X151340000Y-97540000D02*
X147760000Y-97540000D01*
%TO.N,TCT*%
X153860000Y-98830000D02*
X153860000Y-99540000D01*
X151600000Y-101800000D02*
X142480000Y-101800000D01*
X153860000Y-99540000D02*
X151600000Y-101800000D01*
X142480000Y-101800000D02*
X142300000Y-101620000D01*
%TO.N,Net-(U1-TOCAP)*%
X150265686Y-116620000D02*
X150750000Y-116135686D01*
X150200000Y-116620000D02*
X150265686Y-116620000D01*
X150750000Y-116135686D02*
X150750000Y-114162500D01*
%TO.N,Net-(U1-1V2O)*%
X151750000Y-114162500D02*
X151750000Y-114932410D01*
X151750000Y-114932410D02*
X152700000Y-115882410D01*
X152700000Y-115882410D02*
X152700000Y-116620000D01*
%TO.N,3V3A*%
X144100000Y-102610000D02*
X144100000Y-103690000D01*
X144600000Y-112000000D02*
X144850000Y-112250000D01*
D34*
X141812500Y-117100000D02*
X141812500Y-114937500D01*
D33*
X151250000Y-113392590D02*
X150982410Y-113125000D01*
X147982410Y-115200000D02*
X147700000Y-115200000D01*
X144600000Y-112120000D02*
X144000000Y-112120000D01*
X148800000Y-113125000D02*
X149400000Y-113125000D01*
X149250000Y-114162500D02*
X149250000Y-114932410D01*
X148250000Y-112392590D02*
X148250000Y-113000000D01*
X144600000Y-110950000D02*
X144800000Y-110750000D01*
X147250000Y-110750000D02*
X147808556Y-111308556D01*
X148250000Y-113000000D02*
X148392590Y-113000000D01*
X144800000Y-111017590D02*
X144800000Y-111000000D01*
X144600000Y-112120000D02*
X144720000Y-112120000D01*
X144600000Y-111800000D02*
X144600000Y-112000000D01*
X144600000Y-111520000D02*
X144600000Y-111400000D01*
X148250000Y-113200000D02*
X148250000Y-114162500D01*
D34*
X141850000Y-112050000D02*
X141800000Y-112000000D01*
D33*
X144800000Y-111000000D02*
X145050000Y-110750000D01*
X148228705Y-111723476D02*
X148228705Y-112371295D01*
X145050000Y-110750000D02*
X145837500Y-110750000D01*
X151250000Y-116370000D02*
X151500000Y-116620000D01*
X145837500Y-110750000D02*
X144800000Y-110750000D01*
X144600000Y-111217590D02*
X144800000Y-111017590D01*
X144600000Y-111600000D02*
X144520000Y-111600000D01*
X145340000Y-102610000D02*
X144100000Y-102610000D01*
X144720000Y-112120000D02*
X144850000Y-112250000D01*
X144800000Y-111017590D02*
X144720000Y-111097590D01*
X144600000Y-111200000D02*
X144600000Y-111600000D01*
X146600000Y-108750000D02*
X146625000Y-108750000D01*
X142200000Y-103690000D02*
X144100000Y-103690000D01*
X144600000Y-111200000D02*
X144800000Y-111000000D01*
D34*
X141920000Y-112120000D02*
X141800000Y-112000000D01*
D33*
X148982410Y-113125000D02*
X148800000Y-113125000D01*
X146725000Y-108750000D02*
X146875000Y-108600000D01*
X149250000Y-114162500D02*
X149250000Y-113392590D01*
X145837500Y-108750000D02*
X146607410Y-108750000D01*
X149128705Y-113271295D02*
X148982410Y-113125000D01*
D34*
X142800000Y-112120000D02*
X144000000Y-112120000D01*
D33*
X148250000Y-113200000D02*
X148442590Y-113200000D01*
X146600000Y-108750000D02*
X146725000Y-108750000D01*
X148392590Y-113000000D02*
X148392590Y-112535180D01*
X146875000Y-108200000D02*
X146875000Y-108600000D01*
X144600000Y-111400000D02*
X144600000Y-111200000D01*
X148250000Y-114932410D02*
X147982410Y-115200000D01*
X145837500Y-110750000D02*
X146607410Y-110750000D01*
X149275000Y-113125000D02*
X149128705Y-113271295D01*
X144850000Y-112250000D02*
X145837500Y-112250000D01*
X150017590Y-113125000D02*
X150000000Y-113142590D01*
X145800000Y-105657410D02*
X146875000Y-106732410D01*
X144600000Y-111200000D02*
X144600000Y-110950000D01*
X145500000Y-102450000D02*
X145340000Y-102610000D01*
X148517590Y-113125000D02*
X148392590Y-113000000D01*
X149250000Y-113392590D02*
X149128705Y-113271295D01*
X146875000Y-106732410D02*
X146875000Y-108200000D01*
X149100000Y-115082410D02*
X149100000Y-116520000D01*
X144720000Y-111097590D02*
X144720000Y-112120000D01*
D34*
X142800000Y-112120000D02*
X141920000Y-112120000D01*
D33*
X144600000Y-111600000D02*
X144600000Y-111800000D01*
X149250000Y-114932410D02*
X149100000Y-115082410D01*
X150000000Y-113142590D02*
X149982410Y-113125000D01*
X148250000Y-113392590D02*
X148517590Y-113125000D01*
X147700000Y-115200000D02*
X147400000Y-115500000D01*
X147808556Y-111308556D02*
X147813785Y-111308556D01*
X146625000Y-108750000D02*
X146875000Y-109000000D01*
X146875000Y-110482410D02*
X146607410Y-110750000D01*
X148442590Y-113200000D02*
X148517590Y-113125000D01*
X147400000Y-115500000D02*
X147400000Y-116620000D01*
X148250000Y-113000000D02*
X148250000Y-113200000D01*
X146607410Y-110750000D02*
X147250000Y-110750000D01*
X148392590Y-112535180D02*
X148228705Y-112371295D01*
X146875000Y-108600000D02*
X146875000Y-109000000D01*
X151250000Y-114162500D02*
X151250000Y-116370000D01*
X146875000Y-108482410D02*
X146875000Y-108200000D01*
X146875000Y-109000000D02*
X146875000Y-110482410D01*
X144520000Y-111600000D02*
X144260000Y-111860000D01*
X144000000Y-112120000D02*
X144280000Y-112120000D01*
X148517590Y-113125000D02*
X148800000Y-113125000D01*
X148250000Y-114162500D02*
X148250000Y-114932410D01*
X145837500Y-108750000D02*
X146600000Y-108750000D01*
X144260000Y-111860000D02*
X144000000Y-112120000D01*
X144280000Y-112120000D02*
X144600000Y-111800000D01*
D34*
X141812500Y-114937500D02*
X141850000Y-114900000D01*
D33*
X144600000Y-111400000D02*
X144600000Y-111217590D01*
X148228705Y-112371295D02*
X148250000Y-112392590D01*
X148250000Y-114162500D02*
X148250000Y-113392590D01*
X149982410Y-113125000D02*
X149400000Y-113125000D01*
X146607410Y-108750000D02*
X146875000Y-108482410D01*
X149100000Y-116520000D02*
X149000000Y-116620000D01*
X144260000Y-111860000D02*
X144600000Y-111520000D01*
X147813785Y-111308556D02*
X148228705Y-111723476D01*
X151250000Y-114162500D02*
X151250000Y-113392590D01*
X150982410Y-113125000D02*
X150017590Y-113125000D01*
D34*
X141850000Y-114900000D02*
X141850000Y-112050000D01*
D33*
X149400000Y-113125000D02*
X149275000Y-113125000D01*
D34*
%TO.N,+3.3V*%
X143387500Y-117800000D02*
X143387500Y-117887500D01*
D33*
X158950000Y-113250000D02*
X159000000Y-113300000D01*
D34*
X144000000Y-118500000D02*
X143400000Y-118500000D01*
X143387500Y-117100000D02*
X143387500Y-117800000D01*
X162300000Y-106500000D02*
X164350000Y-106500000D01*
D33*
X155890000Y-111640000D02*
X157500000Y-113250000D01*
D34*
X143387500Y-117387500D02*
X144500000Y-118500000D01*
D33*
X155410000Y-111250000D02*
X154162500Y-111250000D01*
D34*
X161400000Y-106500000D02*
X161500000Y-106500000D01*
X143387500Y-117100000D02*
X143387500Y-117387500D01*
D33*
X157500000Y-113250000D02*
X158950000Y-113250000D01*
X155800000Y-111640000D02*
X155890000Y-111640000D01*
D34*
X143387500Y-117800000D02*
X143387500Y-118487500D01*
X144500000Y-118500000D02*
X144000000Y-118500000D01*
X161400000Y-106500000D02*
X162300000Y-106500000D01*
D33*
X155800000Y-111640000D02*
X155410000Y-111250000D01*
D34*
X143387500Y-117887500D02*
X144000000Y-118500000D01*
X143387500Y-118487500D02*
X143400000Y-118500000D01*
D33*
%TO.N,Net-(D2-A)*%
X139800000Y-81787500D02*
X139800000Y-81890000D01*
%TO.N,/TD+*%
X141250000Y-101150000D02*
X141909620Y-100490380D01*
X141909620Y-100490380D02*
X151427387Y-100490380D01*
X156420000Y-97540000D02*
X157670000Y-96290000D01*
X151427387Y-100490380D02*
X152610000Y-99307767D01*
X152610000Y-99307767D02*
X152610000Y-98312233D01*
X141250000Y-104350000D02*
X141250000Y-101150000D01*
X153382233Y-97540000D02*
X156420000Y-97540000D01*
X152610000Y-98312233D02*
X153382233Y-97540000D01*
X142200000Y-104710000D02*
X141610000Y-104710000D01*
X141610000Y-104710000D02*
X141250000Y-104350000D01*
%TO.N,/RD+*%
X149800000Y-94300000D02*
X153140000Y-94300000D01*
X153140000Y-94300000D02*
X155130000Y-96290000D01*
X136300000Y-103120000D02*
X136300000Y-100584563D01*
X140384563Y-96500000D02*
X147600000Y-96500000D01*
X136300000Y-100584563D02*
X140384563Y-96500000D01*
X147600000Y-96500000D02*
X149800000Y-94300000D01*
X137900000Y-104720000D02*
X136300000Y-103120000D01*
%TO.N,/TD-*%
X145500001Y-103100000D02*
X145084620Y-103515381D01*
X145084620Y-104015380D02*
X144390000Y-104710000D01*
X145084620Y-103515381D02*
X145084620Y-104015380D01*
X144390000Y-104710000D02*
X144100000Y-104710000D01*
X156400000Y-98830000D02*
X152130000Y-103100000D01*
X152130000Y-103100000D02*
X145500001Y-103100000D01*
%TO.N,Net-(J1-LEDY_K)*%
X141510000Y-87800000D02*
X142000000Y-87800000D01*
X144750000Y-85050000D02*
X149440000Y-85050000D01*
X142000000Y-87800000D02*
X144750000Y-85050000D01*
%TO.N,/RD-*%
X147282233Y-99100000D02*
X148262233Y-100080000D01*
X139100000Y-104710000D02*
X139900000Y-103910000D01*
X139900000Y-100661521D02*
X141461521Y-99100000D01*
X148262233Y-100080000D02*
X150070000Y-100080000D01*
X150070000Y-100080000D02*
X151320000Y-98830000D01*
X139900000Y-103910000D02*
X139900000Y-100661521D01*
X141461521Y-99100000D02*
X147282233Y-99100000D01*
%TO.N,MISO*%
X153125000Y-108082410D02*
X153292590Y-108250000D01*
X153292590Y-108250000D02*
X154162500Y-108250000D01*
X153700000Y-106400000D02*
X153125000Y-106975000D01*
X164350000Y-96500000D02*
X163195835Y-96500000D01*
X153125000Y-106975000D02*
X153125000Y-108082410D01*
X153700000Y-105995835D02*
X153700000Y-106400000D01*
X163195835Y-96500000D02*
X153700000Y-105995835D01*
%TO.N,MOSI*%
X154932410Y-107750000D02*
X154162500Y-107750000D01*
X164350000Y-98500000D02*
X162200000Y-98500000D01*
X155600000Y-105100000D02*
X155600000Y-107082410D01*
X155600000Y-107082410D02*
X154932410Y-107750000D01*
X162200000Y-98500000D02*
X155600000Y-105100000D01*
%TO.N,AUX4*%
X163000000Y-101500000D02*
X164350000Y-101500000D01*
X162400000Y-102100000D02*
X163000000Y-101500000D01*
X154162500Y-107250000D02*
X154162500Y-106837500D01*
X154162500Y-106837500D02*
X154800000Y-106200000D01*
%TO.N,ETH_CS*%
X156700000Y-107679468D02*
X155129468Y-109250000D01*
X162550000Y-100150000D02*
X156700000Y-106000000D01*
X156700000Y-106000000D02*
X156700000Y-107679468D01*
X155129468Y-109250000D02*
X154162500Y-109250000D01*
X164350000Y-97500000D02*
X163115074Y-97500000D01*
X162600000Y-100150000D02*
X162550000Y-100150000D01*
X163115074Y-97500000D02*
X162765073Y-97850001D01*
%TO.N,AUX2*%
X148750000Y-105837500D02*
X148750000Y-104050000D01*
X159300000Y-96300000D02*
X160100000Y-95500000D01*
X149300000Y-103500000D02*
X153497767Y-103500000D01*
X153497767Y-103500000D02*
X159300000Y-97697767D01*
X160100000Y-95500000D02*
X164350000Y-95500000D01*
X159300000Y-97697767D02*
X159300000Y-96300000D01*
X148750000Y-104050000D02*
X149300000Y-103500000D01*
%TO.N,AUX1*%
X160400000Y-96000000D02*
X159700000Y-96700000D01*
X161800000Y-96000000D02*
X160400000Y-96000000D01*
X159700000Y-98100000D02*
X153900000Y-103900000D01*
X159700000Y-96700000D02*
X159700000Y-98100000D01*
X149465686Y-103900000D02*
X149250000Y-104115686D01*
X149250000Y-104115686D02*
X149250000Y-105837500D01*
X164350000Y-94500000D02*
X165600000Y-94500000D01*
X165600000Y-94500000D02*
X166500000Y-95400000D01*
X153900000Y-103900000D02*
X149465686Y-103900000D01*
X162200000Y-96400000D02*
X161800000Y-96000000D01*
%TO.N,SCK*%
X156100000Y-107713782D02*
X156100000Y-105600000D01*
X156100000Y-105600000D02*
X162200000Y-99500000D01*
X154162500Y-108750000D02*
X155063782Y-108750000D01*
X162200000Y-99500000D02*
X164350000Y-99500000D01*
X155063782Y-108750000D02*
X156100000Y-107713782D01*
%TO.N,AUX5*%
X166611632Y-96293053D02*
X167393053Y-96293053D01*
X160450000Y-96650000D02*
X160100000Y-97000000D01*
X167500000Y-102500000D02*
X164350000Y-102500000D01*
X160100000Y-97000000D02*
X160100000Y-98600000D01*
X168400000Y-97300000D02*
X168400000Y-101600000D01*
X149750000Y-104450000D02*
X149750000Y-105837500D01*
X168400000Y-101600000D02*
X167500000Y-102500000D01*
X149900000Y-104300000D02*
X149750000Y-104450000D01*
X160100000Y-98600000D02*
X154400000Y-104300000D01*
X167393053Y-96293053D02*
X168400000Y-97300000D01*
X161100000Y-96650000D02*
X160450000Y-96650000D01*
X154400000Y-104300000D02*
X149900000Y-104300000D01*
%TO.N,AUX6*%
X160119240Y-103500000D02*
X164350000Y-103500000D01*
X152939096Y-105837500D02*
X153688298Y-105088298D01*
X152750000Y-105837500D02*
X152939096Y-105837500D01*
X159509620Y-104109620D02*
X160119240Y-103500000D01*
%TO.N,Net-(U1-EXRES1)*%
X146900000Y-112042590D02*
X146900000Y-113242590D01*
X146607410Y-111750000D02*
X146900000Y-112042590D01*
X146900000Y-113242590D02*
X146200000Y-113942590D01*
X146200000Y-113942590D02*
X146200000Y-116590000D01*
X145837500Y-111750000D02*
X146607410Y-111750000D01*
%TD*%
%TA.AperFunction,Conductor*%
%TO.N,GND*%
G36*
X153803915Y-93219707D02*
G01*
X153858286Y-93258286D01*
X155300000Y-94700000D01*
X159001000Y-94700000D01*
X159087343Y-94719707D01*
X159156584Y-94774926D01*
X159195011Y-94854718D01*
X159200000Y-94899000D01*
X159200000Y-95207648D01*
X159180293Y-95293991D01*
X159125074Y-95363232D01*
X159045282Y-95401659D01*
X158956718Y-95401659D01*
X158876926Y-95363232D01*
X158821707Y-95293991D01*
X158816913Y-95279648D01*
X158816367Y-95279875D01*
X158808867Y-95261769D01*
X158764552Y-95195447D01*
X158698232Y-95151133D01*
X158639750Y-95139500D01*
X158639748Y-95139500D01*
X156700252Y-95139500D01*
X156700250Y-95139500D01*
X156641767Y-95151133D01*
X156575447Y-95195447D01*
X156531133Y-95261767D01*
X156519500Y-95320250D01*
X156519500Y-95653284D01*
X156499793Y-95739627D01*
X156444574Y-95808868D01*
X156364782Y-95847295D01*
X156276218Y-95847295D01*
X156196426Y-95808868D01*
X156142363Y-95741986D01*
X156112366Y-95681745D01*
X155983875Y-95511596D01*
X155983870Y-95511591D01*
X155826304Y-95367949D01*
X155826299Y-95367945D01*
X155645021Y-95255702D01*
X155645019Y-95255701D01*
X155446203Y-95178680D01*
X155446201Y-95178679D01*
X155320445Y-95155171D01*
X155236610Y-95139500D01*
X155023390Y-95139500D01*
X154953527Y-95152559D01*
X154813798Y-95178679D01*
X154813796Y-95178680D01*
X154667918Y-95235194D01*
X154580286Y-95248008D01*
X154495773Y-95221531D01*
X154455317Y-95190346D01*
X153324511Y-94059540D01*
X153324509Y-94059539D01*
X153255992Y-94019980D01*
X153255990Y-94019979D01*
X153179562Y-93999500D01*
X149760438Y-93999500D01*
X149760437Y-93999500D01*
X149684009Y-94019979D01*
X149684007Y-94019980D01*
X149615490Y-94059539D01*
X149615488Y-94059540D01*
X147533815Y-96141214D01*
X147458827Y-96188333D01*
X147393101Y-96199500D01*
X140345000Y-96199500D01*
X140268572Y-96219979D01*
X140268570Y-96219980D01*
X140215818Y-96250436D01*
X140215819Y-96250437D01*
X140200052Y-96259539D01*
X136059540Y-100400051D01*
X136059539Y-100400053D01*
X136019980Y-100468570D01*
X136019979Y-100468572D01*
X135999500Y-100545000D01*
X135999500Y-103159564D01*
X136019978Y-103235986D01*
X136019978Y-103235988D01*
X136043043Y-103275937D01*
X136059539Y-103304509D01*
X136059540Y-103304511D01*
X137321214Y-104566185D01*
X137368333Y-104641173D01*
X137379500Y-104706899D01*
X137379500Y-104894322D01*
X137385931Y-104943168D01*
X137385932Y-104943173D01*
X137407778Y-104990021D01*
X137435934Y-105050402D01*
X137435936Y-105050405D01*
X137441214Y-105055683D01*
X137488333Y-105130671D01*
X137499500Y-105196397D01*
X137499500Y-107571852D01*
X137519979Y-107648280D01*
X137519981Y-107648284D01*
X137526996Y-107660433D01*
X137526999Y-107660439D01*
X137559537Y-107716797D01*
X137559540Y-107716801D01*
X140283199Y-110440460D01*
X140283201Y-110440461D01*
X140286670Y-110443123D01*
X140290574Y-110447835D01*
X140292422Y-110449683D01*
X140292248Y-110449856D01*
X140343173Y-110511320D01*
X140364491Y-110597280D01*
X140346402Y-110683976D01*
X140292488Y-110754238D01*
X140213427Y-110794149D01*
X140165526Y-110800000D01*
X139482428Y-110800000D01*
X139396085Y-110780293D01*
X139341714Y-110741714D01*
X136758286Y-108158286D01*
X136711167Y-108083298D01*
X136700000Y-108017572D01*
X136700000Y-105400000D01*
X136699999Y-105399998D01*
X135263219Y-104059004D01*
X135213544Y-103985684D01*
X135200000Y-103913524D01*
X135200000Y-100083684D01*
X135219707Y-99997341D01*
X135259805Y-99941466D01*
X138530401Y-96740459D01*
X139841985Y-95456781D01*
X139917476Y-95410471D01*
X139981178Y-95400000D01*
X147399999Y-95400000D01*
X147400000Y-95400000D01*
X149541714Y-93258286D01*
X149616702Y-93211167D01*
X149682428Y-93200000D01*
X153717572Y-93200000D01*
X153803915Y-93219707D01*
G37*
%TD.AperFunction*%
%TA.AperFunction,Conductor*%
G36*
X138610874Y-105022399D02*
G01*
X138645714Y-105050183D01*
X138731907Y-105136376D01*
X138730339Y-105137943D01*
X138774060Y-105186252D01*
X138799113Y-105271198D01*
X138799500Y-105283606D01*
X138799500Y-107033375D01*
X138816357Y-107096283D01*
X138819979Y-107109800D01*
X138848584Y-107159345D01*
X138859539Y-107178321D01*
X138859543Y-107178326D01*
X139915229Y-108234011D01*
X140965729Y-109284511D01*
X141021678Y-109340460D01*
X141041895Y-109352132D01*
X141090196Y-109380019D01*
X141090198Y-109380020D01*
X141090200Y-109380021D01*
X141166627Y-109400500D01*
X141245751Y-109400500D01*
X141901000Y-109400500D01*
X141987343Y-109420207D01*
X142056584Y-109475426D01*
X142095011Y-109555218D01*
X142100000Y-109599500D01*
X142100000Y-109700500D01*
X142080293Y-109786843D01*
X142025074Y-109856084D01*
X141945282Y-109894511D01*
X141901000Y-109899500D01*
X140674609Y-109899500D01*
X140588266Y-109879793D01*
X140533895Y-109841214D01*
X138158786Y-107466105D01*
X138111667Y-107391117D01*
X138100500Y-107325391D01*
X138100500Y-105344732D01*
X138120207Y-105258389D01*
X138175426Y-105189148D01*
X138215395Y-105164379D01*
X138280404Y-105134065D01*
X138364065Y-105050404D01*
X138364065Y-105050403D01*
X138364286Y-105050183D01*
X138439274Y-105003064D01*
X138527281Y-104993148D01*
X138610874Y-105022399D01*
G37*
%TD.AperFunction*%
%TA.AperFunction,Conductor*%
G36*
X147161677Y-99420207D02*
G01*
X147216048Y-99458786D01*
X147607428Y-99850166D01*
X147654547Y-99925154D01*
X147664463Y-100013161D01*
X147635212Y-100096754D01*
X147572588Y-100159378D01*
X147488995Y-100188629D01*
X147466714Y-100189880D01*
X141949182Y-100189880D01*
X141870058Y-100189880D01*
X141839487Y-100198071D01*
X141793629Y-100210358D01*
X141725112Y-100249917D01*
X141725107Y-100249921D01*
X141009540Y-100965488D01*
X141009539Y-100965490D01*
X140969980Y-101034007D01*
X140969979Y-101034009D01*
X140949500Y-101110437D01*
X140949500Y-104389562D01*
X140969979Y-104465990D01*
X141004326Y-104525481D01*
X141009540Y-104534511D01*
X141009543Y-104534515D01*
X141285702Y-104810673D01*
X141369540Y-104894511D01*
X141425489Y-104950460D01*
X141443035Y-104960590D01*
X141494007Y-104990019D01*
X141494009Y-104990020D01*
X141494011Y-104990021D01*
X141570438Y-105010500D01*
X141600500Y-105010500D01*
X141686843Y-105030207D01*
X141756084Y-105085426D01*
X141794511Y-105165218D01*
X141799500Y-105209500D01*
X141799500Y-105393101D01*
X141779793Y-105479444D01*
X141741214Y-105533815D01*
X140979541Y-106295487D01*
X140979540Y-106295489D01*
X140939981Y-106364006D01*
X140939980Y-106364008D01*
X140921594Y-106432625D01*
X140919501Y-106440437D01*
X140919501Y-107314895D01*
X140939980Y-107391322D01*
X140973569Y-107449500D01*
X140979541Y-107459844D01*
X141404208Y-107884511D01*
X141460157Y-107940460D01*
X141504768Y-107966216D01*
X141528675Y-107980019D01*
X141528677Y-107980020D01*
X141528679Y-107980021D01*
X141605106Y-108000500D01*
X141684230Y-108000500D01*
X141901000Y-108000500D01*
X141987343Y-108020207D01*
X142056584Y-108075426D01*
X142095011Y-108155218D01*
X142100000Y-108199500D01*
X142100000Y-108600500D01*
X142080293Y-108686843D01*
X142025074Y-108756084D01*
X141945282Y-108794511D01*
X141901000Y-108799500D01*
X141413088Y-108799500D01*
X141326745Y-108779793D01*
X141272374Y-108741214D01*
X139458786Y-106927626D01*
X139411667Y-106852638D01*
X139400500Y-106786912D01*
X139400500Y-105283606D01*
X139420207Y-105197263D01*
X139468466Y-105136749D01*
X139468093Y-105136376D01*
X139471405Y-105133063D01*
X139475426Y-105128022D01*
X139479473Y-105124995D01*
X139480402Y-105124065D01*
X139480404Y-105124065D01*
X139564065Y-105040404D01*
X139614068Y-104933173D01*
X139620500Y-104884316D01*
X139620500Y-104696899D01*
X139640207Y-104610556D01*
X139678786Y-104556185D01*
X139894258Y-104340713D01*
X140140460Y-104094511D01*
X140160797Y-104059286D01*
X140166447Y-104049501D01*
X140166447Y-104049500D01*
X140180021Y-104025989D01*
X140200500Y-103949562D01*
X140200500Y-100868420D01*
X140220207Y-100782077D01*
X140258786Y-100727706D01*
X141527706Y-99458786D01*
X141602694Y-99411667D01*
X141668420Y-99400500D01*
X147075334Y-99400500D01*
X147161677Y-99420207D01*
G37*
%TD.AperFunction*%
%TA.AperFunction,Conductor*%
G36*
X142126374Y-106217401D02*
G01*
X142188998Y-106280025D01*
X142218249Y-106363618D01*
X142219500Y-106385899D01*
X142219500Y-106804412D01*
X142199793Y-106890755D01*
X142152710Y-106953145D01*
X142100000Y-106999999D01*
X142100000Y-107200500D01*
X142080293Y-107286843D01*
X142025074Y-107356084D01*
X141945282Y-107394511D01*
X141901000Y-107399500D01*
X141851567Y-107399500D01*
X141765224Y-107379793D01*
X141710853Y-107341214D01*
X141578787Y-107209148D01*
X141531668Y-107134160D01*
X141520501Y-107068434D01*
X141520501Y-106686898D01*
X141540208Y-106600555D01*
X141578787Y-106546184D01*
X141879786Y-106245185D01*
X141954774Y-106198066D01*
X142042781Y-106188150D01*
X142126374Y-106217401D01*
G37*
%TD.AperFunction*%
%TA.AperFunction,Conductor*%
G36*
X143609945Y-104010207D02*
G01*
X143664316Y-104048786D01*
X143674816Y-104059286D01*
X143721935Y-104134274D01*
X143731851Y-104222281D01*
X143702600Y-104305874D01*
X143674818Y-104340713D01*
X143635934Y-104379597D01*
X143585933Y-104486825D01*
X143585931Y-104486831D01*
X143579500Y-104535677D01*
X143579500Y-104884322D01*
X143585099Y-104926847D01*
X143585932Y-104933173D01*
X143627391Y-105022082D01*
X143646021Y-105108662D01*
X143625239Y-105194753D01*
X143587750Y-105246896D01*
X142813434Y-106021214D01*
X142738446Y-106068333D01*
X142672720Y-106079500D01*
X142514826Y-106079500D01*
X142428483Y-106059793D01*
X142359242Y-106004574D01*
X142320815Y-105924782D01*
X142320815Y-105836218D01*
X142342485Y-105781002D01*
X142380022Y-105715988D01*
X142400500Y-105639562D01*
X142400500Y-105560438D01*
X142400500Y-105334732D01*
X142420207Y-105248389D01*
X142475426Y-105179148D01*
X142515395Y-105154379D01*
X142580404Y-105124065D01*
X142664065Y-105040404D01*
X142714068Y-104933173D01*
X142720500Y-104884316D01*
X142720500Y-104535684D01*
X142714068Y-104486827D01*
X142664065Y-104379596D01*
X142625182Y-104340713D01*
X142578064Y-104265726D01*
X142568148Y-104177719D01*
X142597399Y-104094126D01*
X142625185Y-104059283D01*
X142635690Y-104048779D01*
X142710681Y-104001664D01*
X142776398Y-103990500D01*
X143523602Y-103990500D01*
X143609945Y-104010207D01*
G37*
%TD.AperFunction*%
%TA.AperFunction,Conductor*%
G36*
X148818803Y-95924971D02*
G01*
X148881427Y-95987595D01*
X148910678Y-96071188D01*
X148911080Y-96111830D01*
X148897393Y-96259540D01*
X148894571Y-96290000D01*
X148914244Y-96502310D01*
X148972595Y-96707389D01*
X149067634Y-96898255D01*
X149067635Y-96898256D01*
X149067636Y-96898258D01*
X149084489Y-96920575D01*
X149120796Y-97001354D01*
X149118458Y-97089886D01*
X149077940Y-97168637D01*
X149007265Y-97222009D01*
X148925684Y-97239500D01*
X147799562Y-97239500D01*
X147720438Y-97239500D01*
X147689867Y-97247691D01*
X147644009Y-97259978D01*
X147575492Y-97299537D01*
X147575487Y-97299541D01*
X147433815Y-97441214D01*
X147358827Y-97488333D01*
X147293101Y-97499500D01*
X140962604Y-97499500D01*
X140883480Y-97499500D01*
X140852909Y-97507691D01*
X140807051Y-97519978D01*
X140738534Y-97559537D01*
X140738529Y-97559541D01*
X138859540Y-99438530D01*
X138859539Y-99438532D01*
X138819980Y-99507049D01*
X138819979Y-99507051D01*
X138799500Y-99583479D01*
X138799500Y-101046531D01*
X138779793Y-101132874D01*
X138741215Y-101187244D01*
X138667247Y-101261213D01*
X138592259Y-101308332D01*
X138526532Y-101319500D01*
X138506397Y-101319500D01*
X138420054Y-101299793D01*
X138365683Y-101261214D01*
X138280405Y-101175936D01*
X138280404Y-101175935D01*
X138173173Y-101125932D01*
X138173169Y-101125931D01*
X138173168Y-101125931D01*
X138124322Y-101119500D01*
X138124316Y-101119500D01*
X137675684Y-101119500D01*
X137675677Y-101119500D01*
X137626831Y-101125931D01*
X137626828Y-101125931D01*
X137626827Y-101125932D01*
X137626825Y-101125933D01*
X137519597Y-101175934D01*
X137519594Y-101175936D01*
X137435936Y-101259594D01*
X137435934Y-101259597D01*
X137385933Y-101366825D01*
X137385931Y-101366831D01*
X137379500Y-101415677D01*
X137379500Y-101764314D01*
X137383927Y-101797944D01*
X137375657Y-101886121D01*
X137329948Y-101961977D01*
X137327344Y-101964631D01*
X137209262Y-102082713D01*
X137127594Y-102220805D01*
X137087155Y-102360000D01*
X138263730Y-102360000D01*
X138293702Y-102341167D01*
X138359428Y-102330000D01*
X139151000Y-102330000D01*
X139237343Y-102349707D01*
X139306584Y-102404926D01*
X139345011Y-102484718D01*
X139350000Y-102529000D01*
X139350000Y-103741000D01*
X139330293Y-103827343D01*
X139275074Y-103896584D01*
X139195282Y-103935011D01*
X139151000Y-103940000D01*
X138729429Y-103940000D01*
X138670572Y-103950000D01*
X137849000Y-103950000D01*
X137762657Y-103930293D01*
X137693416Y-103875074D01*
X137654989Y-103795282D01*
X137650000Y-103751000D01*
X137650000Y-102860000D01*
X138150000Y-102860000D01*
X138150000Y-103450000D01*
X138270571Y-103450000D01*
X138329428Y-103440000D01*
X138850000Y-103440000D01*
X138850000Y-102830000D01*
X138746270Y-102830000D01*
X138716298Y-102848833D01*
X138650572Y-102860000D01*
X138150000Y-102860000D01*
X137650000Y-102860000D01*
X137087155Y-102860000D01*
X137125703Y-102992687D01*
X137130866Y-103081100D01*
X137097158Y-103162997D01*
X137031254Y-103222159D01*
X136946207Y-103246866D01*
X136858862Y-103232227D01*
X136793890Y-103188919D01*
X136658786Y-103053815D01*
X136611667Y-102978827D01*
X136600500Y-102913101D01*
X136600500Y-100791462D01*
X136620207Y-100705119D01*
X136658786Y-100650748D01*
X140450748Y-96858786D01*
X140525736Y-96811667D01*
X140591462Y-96800500D01*
X147639559Y-96800500D01*
X147639562Y-96800500D01*
X147715989Y-96780021D01*
X147784511Y-96740460D01*
X147840460Y-96684511D01*
X148572217Y-95952753D01*
X148647203Y-95905636D01*
X148735210Y-95895720D01*
X148818803Y-95924971D01*
G37*
%TD.AperFunction*%
%TA.AperFunction,Conductor*%
G36*
X148580444Y-103420207D02*
G01*
X148649685Y-103475426D01*
X148688112Y-103555218D01*
X148688112Y-103643782D01*
X148649685Y-103723574D01*
X148634815Y-103740214D01*
X148633315Y-103741714D01*
X148558327Y-103788833D01*
X148492601Y-103800000D01*
X145705400Y-103800000D01*
X145619057Y-103780293D01*
X145549816Y-103725074D01*
X145511389Y-103645282D01*
X145511389Y-103556718D01*
X145549816Y-103476926D01*
X145564686Y-103460286D01*
X145566186Y-103458786D01*
X145641174Y-103411667D01*
X145706900Y-103400500D01*
X148494101Y-103400500D01*
X148580444Y-103420207D01*
G37*
%TD.AperFunction*%
%TA.AperFunction,Conductor*%
G36*
X143493424Y-102120207D02*
G01*
X143562665Y-102175426D01*
X143601092Y-102255218D01*
X143601092Y-102343782D01*
X143587438Y-102383597D01*
X143585933Y-102386823D01*
X143585931Y-102386831D01*
X143579500Y-102435677D01*
X143579500Y-102784322D01*
X143585514Y-102830000D01*
X143585932Y-102833173D01*
X143623203Y-102913101D01*
X143635934Y-102940402D01*
X143635936Y-102940405D01*
X143704816Y-103009285D01*
X143751935Y-103084273D01*
X143761851Y-103172280D01*
X143732600Y-103255873D01*
X143704818Y-103290712D01*
X143664318Y-103331213D01*
X143589330Y-103378332D01*
X143523602Y-103389500D01*
X143066488Y-103389500D01*
X142980145Y-103369793D01*
X142910904Y-103314574D01*
X142872477Y-103234782D01*
X142872477Y-103146218D01*
X142895201Y-103089200D01*
X142962032Y-102976195D01*
X143004504Y-102830000D01*
X142149000Y-102830000D01*
X142062657Y-102810293D01*
X141993416Y-102755074D01*
X141954989Y-102675282D01*
X141950000Y-102631000D01*
X141950000Y-102529000D01*
X141969707Y-102442657D01*
X142024926Y-102373416D01*
X142104718Y-102334989D01*
X142149000Y-102330000D01*
X143004504Y-102330000D01*
X143009893Y-102322822D01*
X143006609Y-102266607D01*
X143040317Y-102184709D01*
X143106221Y-102125547D01*
X143191268Y-102100839D01*
X143202872Y-102100500D01*
X143407081Y-102100500D01*
X143493424Y-102120207D01*
G37*
%TD.AperFunction*%
%TA.AperFunction,Conductor*%
G36*
X154573862Y-99829301D02*
G01*
X154648539Y-99876912D01*
X154695163Y-99952209D01*
X154704500Y-100040279D01*
X154674700Y-100123678D01*
X154647616Y-100157411D01*
X152063815Y-102741214D01*
X151988827Y-102788333D01*
X151923101Y-102799500D01*
X146236153Y-102799500D01*
X146149810Y-102779793D01*
X146080569Y-102724574D01*
X146042142Y-102644782D01*
X146038856Y-102574525D01*
X146055250Y-102450003D01*
X146055250Y-102449996D01*
X146038856Y-102325475D01*
X146047124Y-102237299D01*
X146092832Y-102161442D01*
X146166926Y-102112929D01*
X146236153Y-102100500D01*
X151639559Y-102100500D01*
X151639562Y-102100500D01*
X151715989Y-102080021D01*
X151784511Y-102040460D01*
X151840460Y-101984511D01*
X153786185Y-100038786D01*
X153861173Y-99991667D01*
X153926899Y-99980500D01*
X153966608Y-99980500D01*
X153966610Y-99980500D01*
X154176198Y-99941321D01*
X154375019Y-99864298D01*
X154402139Y-99847506D01*
X154485923Y-99818806D01*
X154573862Y-99829301D01*
G37*
%TD.AperFunction*%
%TA.AperFunction,Conductor*%
G36*
X152976175Y-99585366D02*
G01*
X153004367Y-99606801D01*
X153006126Y-99608404D01*
X153006128Y-99608407D01*
X153040690Y-99639914D01*
X153091220Y-99712646D01*
X153105190Y-99800101D01*
X153079831Y-99884956D01*
X153047337Y-99927690D01*
X151533815Y-101441214D01*
X151458827Y-101488333D01*
X151393101Y-101499500D01*
X144802016Y-101499500D01*
X144715673Y-101479793D01*
X144646432Y-101424574D01*
X144623028Y-101379446D01*
X144620502Y-101380625D01*
X144582809Y-101299793D01*
X144564065Y-101259596D01*
X144480404Y-101175935D01*
X144480403Y-101175934D01*
X144468180Y-101170235D01*
X144398255Y-101115884D01*
X144358837Y-101036577D01*
X144357733Y-100948020D01*
X144395162Y-100867755D01*
X144463710Y-100811678D01*
X144549800Y-100790895D01*
X144552281Y-100790880D01*
X151466946Y-100790880D01*
X151466949Y-100790880D01*
X151543376Y-100770401D01*
X151611898Y-100730840D01*
X151667847Y-100674891D01*
X152729589Y-99613148D01*
X152804575Y-99566031D01*
X152892582Y-99556115D01*
X152976175Y-99585366D01*
G37*
%TD.AperFunction*%
%TA.AperFunction,Conductor*%
G36*
X147299744Y-98120207D02*
G01*
X147368985Y-98175426D01*
X147407412Y-98255218D01*
X147407412Y-98343782D01*
X147405765Y-98349562D01*
X147405886Y-98349593D01*
X147344874Y-98590524D01*
X147344873Y-98590528D01*
X147342686Y-98616931D01*
X147315917Y-98701352D01*
X147255170Y-98765798D01*
X147172477Y-98797504D01*
X147144366Y-98799500D01*
X141421958Y-98799500D01*
X141345530Y-98819979D01*
X141345528Y-98819980D01*
X141277011Y-98859539D01*
X141277009Y-98859540D01*
X139740214Y-100396336D01*
X139665226Y-100443455D01*
X139577219Y-100453371D01*
X139493626Y-100424120D01*
X139431002Y-100361496D01*
X139401751Y-100277903D01*
X139400500Y-100255622D01*
X139400500Y-99829941D01*
X139420207Y-99743598D01*
X139458786Y-99689227D01*
X140989227Y-98158786D01*
X141064215Y-98111667D01*
X141129941Y-98100500D01*
X147213401Y-98100500D01*
X147299744Y-98120207D01*
G37*
%TD.AperFunction*%
%TA.AperFunction,Conductor*%
G36*
X153019444Y-94620207D02*
G01*
X153073815Y-94658786D01*
X153377618Y-94962589D01*
X153424737Y-95037577D01*
X153434653Y-95125584D01*
X153405402Y-95209177D01*
X153342778Y-95271801D01*
X153259185Y-95301052D01*
X153171178Y-95291136D01*
X153132145Y-95272497D01*
X153105019Y-95255701D01*
X152906203Y-95178680D01*
X152906201Y-95178679D01*
X152780445Y-95155171D01*
X152696610Y-95139500D01*
X152483390Y-95139500D01*
X152413527Y-95152559D01*
X152273798Y-95178679D01*
X152273796Y-95178680D01*
X152074980Y-95255701D01*
X152074978Y-95255702D01*
X151893700Y-95367945D01*
X151893695Y-95367949D01*
X151736129Y-95511591D01*
X151736124Y-95511596D01*
X151607636Y-95681741D01*
X151512595Y-95872609D01*
X151511402Y-95876805D01*
X151509933Y-95879483D01*
X151509276Y-95881180D01*
X151509050Y-95881092D01*
X151468816Y-95954457D01*
X151396755Y-96005943D01*
X151309493Y-96021063D01*
X151224311Y-95996825D01*
X151158081Y-95938027D01*
X151128598Y-95876805D01*
X151127404Y-95872609D01*
X151095665Y-95808868D01*
X151032366Y-95681745D01*
X150982708Y-95615988D01*
X150903875Y-95511596D01*
X150903870Y-95511591D01*
X150746304Y-95367949D01*
X150746299Y-95367945D01*
X150565021Y-95255702D01*
X150565019Y-95255701D01*
X150366203Y-95178680D01*
X150366201Y-95178679D01*
X150240445Y-95155171D01*
X150156610Y-95139500D01*
X149943390Y-95139500D01*
X149943388Y-95139500D01*
X149888886Y-95149688D01*
X149800392Y-95146181D01*
X149722184Y-95104625D01*
X149669751Y-95033251D01*
X149653478Y-94946196D01*
X149676589Y-94860701D01*
X149711602Y-94813368D01*
X149866187Y-94658783D01*
X149941174Y-94611667D01*
X150006899Y-94600500D01*
X152933101Y-94600500D01*
X153019444Y-94620207D01*
G37*
%TD.AperFunction*%
%TD*%
M02*
