%TF.GenerationSoftware,KiCad,Pcbnew,8.0.3*%
%TF.CreationDate,2024-11-27T21:51:57-05:00*%
%TF.ProjectId,Ethernet HAT,45746865-726e-4657-9420-4841542e6b69,rev?*%
%TF.SameCoordinates,Original*%
%TF.FileFunction,Copper,L3,Inr*%
%TF.FilePolarity,Positive*%
%FSLAX46Y46*%
G04 Gerber Fmt 4.6, Leading zero omitted, Abs format (unit mm)*
G04 Created by KiCad (PCBNEW 8.0.3) date 2024-11-27 21:51:57*
%MOMM*%
%LPD*%
G01*
G04 APERTURE LIST*
%TA.AperFunction,ComponentPad*%
%ADD10C,5.500000*%
%TD*%
%TA.AperFunction,ComponentPad*%
%ADD11C,1.890000*%
%TD*%
%TA.AperFunction,ComponentPad*%
%ADD12R,1.900000X1.900000*%
%TD*%
%TA.AperFunction,ComponentPad*%
%ADD13C,1.900000*%
%TD*%
%TA.AperFunction,ComponentPad*%
%ADD14C,2.600000*%
%TD*%
%TA.AperFunction,ViaPad*%
%ADD15C,0.700000*%
%TD*%
%TA.AperFunction,ViaPad*%
%ADD16C,0.800000*%
%TD*%
G04 APERTURE END LIST*
D10*
%TO.N,N/C*%
%TO.C,H2*%
X165500000Y-115500000D03*
%TD*%
%TO.N,N/C*%
%TO.C,H4*%
X165500000Y-84500000D03*
%TD*%
%TO.N,N/C*%
%TO.C,H1*%
X134500000Y-84500000D03*
%TD*%
%TO.N,N/C*%
%TO.C,H3*%
X134500000Y-115500000D03*
%TD*%
D11*
%TO.N,+3.3V*%
%TO.C,J1*%
X146900000Y-86570000D03*
%TO.N,Net-(J1-LEDY_K)*%
X149440000Y-85050000D03*
%TO.N,Net-(J1-LEDG_K)*%
X157010000Y-86570000D03*
%TO.N,+3.3V*%
X159550000Y-85050000D03*
D12*
%TO.N,/TD+*%
X157670000Y-96290000D03*
D13*
%TO.N,/TD-*%
X156400000Y-98830000D03*
%TO.N,/RD+*%
X155130000Y-96290000D03*
%TO.N,TCT*%
X153860000Y-98830000D03*
%TO.N,RCT*%
X152590000Y-96290000D03*
%TO.N,/RD-*%
X151320000Y-98830000D03*
%TO.N,unconnected-(J1-NC-PadR7)*%
X150050000Y-96290000D03*
%TO.N,GND*%
X148780000Y-98830000D03*
D14*
X161000000Y-93000000D03*
X145450000Y-93000000D03*
%TD*%
D15*
%TO.N,Net-(U1-ACTLED)*%
X140900000Y-112900000D03*
%TO.N,GND*%
X144900000Y-80200000D03*
X146000000Y-80200000D03*
%TO.N,Net-(D2-A)*%
X142600000Y-86100000D03*
X139800000Y-82900000D03*
%TO.N,Net-(U1-ACTLED)*%
X149200000Y-110900000D03*
%TO.N,Net-(U1-DUPLED)*%
X140197216Y-113550000D03*
X149975526Y-111563384D03*
%TO.N,Net-(U1-LINKLED)*%
X139500000Y-114200000D03*
X150765872Y-112211675D03*
%TO.N,Net-(U1-SPDLED)*%
X138898780Y-114869731D03*
X151638325Y-112861675D03*
%TO.N,GND*%
X146700000Y-97150000D03*
X164400000Y-92200000D03*
X143400000Y-95850000D03*
X157800000Y-107600000D03*
X137651901Y-100151902D03*
X143400000Y-99800000D03*
X139351901Y-98451901D03*
X137974235Y-108625765D03*
X140600000Y-105800000D03*
X146700000Y-102450000D03*
X164400000Y-91200000D03*
X136832319Y-99133005D03*
X147544546Y-111958556D03*
X150100000Y-115700000D03*
X143400000Y-98450000D03*
X148204011Y-115811059D03*
X145200000Y-101150000D03*
X159600000Y-112400000D03*
X152700000Y-110200000D03*
X151300000Y-93650000D03*
X143200000Y-103040000D03*
X151340380Y-101140380D03*
X159100000Y-115100000D03*
X148600000Y-101150000D03*
X146700000Y-99800000D03*
X135650000Y-102000000D03*
X138450000Y-105800000D03*
X140243474Y-109056525D03*
X146700000Y-98450000D03*
X140271140Y-99371141D03*
X144870245Y-113371679D03*
X137150000Y-105800000D03*
X146700000Y-95850000D03*
X139424235Y-110075765D03*
X141870001Y-107006094D03*
X151755380Y-102450000D03*
X141140380Y-100340380D03*
X140600000Y-102200000D03*
X138432660Y-97532664D03*
X145734620Y-103784620D03*
X141062714Y-108037286D03*
X143400000Y-97150000D03*
X142750000Y-105590380D03*
X151300000Y-95100000D03*
X148600000Y-102450000D03*
%TO.N,3V3A*%
X145500000Y-102450000D03*
D16*
X141800000Y-112000000D03*
D15*
%TO.N,+3.3V*%
X143400000Y-118500000D03*
X144500000Y-118500000D03*
X161400000Y-106500000D03*
X159000000Y-113300000D03*
X162300000Y-106500000D03*
%TO.N,AUX4*%
X162400000Y-102100000D03*
X154800000Y-106200000D03*
%TO.N,ETH_CS*%
X162600000Y-100150000D03*
X162765073Y-97850001D03*
%TO.N,AUX1*%
X166500000Y-95400000D03*
X162200000Y-96400000D03*
%TO.N,AUX5*%
X166611632Y-96293053D03*
X161100000Y-96650000D03*
%TO.N,AUX6*%
X159509620Y-104109620D03*
X153688298Y-105088298D03*
%TD*%
%TA.AperFunction,Conductor*%
%TO.N,+3.3V*%
G36*
X165501100Y-79000011D02*
G01*
X165732415Y-79002534D01*
X165747587Y-79003278D01*
X166209595Y-79043700D01*
X166226777Y-79045962D01*
X166682433Y-79126306D01*
X166699382Y-79130064D01*
X167146273Y-79249808D01*
X167162830Y-79255028D01*
X167597613Y-79413276D01*
X167613629Y-79419910D01*
X167968768Y-79585514D01*
X168032950Y-79615443D01*
X168048349Y-79623459D01*
X168449038Y-79854796D01*
X168463666Y-79864116D01*
X168546872Y-79922377D01*
X168842662Y-80129492D01*
X168856435Y-80140060D01*
X169210865Y-80437462D01*
X169223664Y-80449191D01*
X169550808Y-80776335D01*
X169562537Y-80789134D01*
X169859939Y-81143564D01*
X169870507Y-81157337D01*
X170135879Y-81536326D01*
X170145207Y-81550968D01*
X170376540Y-81951650D01*
X170384556Y-81967049D01*
X170580084Y-82386359D01*
X170586728Y-82402398D01*
X170744971Y-82837169D01*
X170750191Y-82853726D01*
X170869935Y-83300617D01*
X170873693Y-83317566D01*
X170954035Y-83773207D01*
X170956301Y-83790419D01*
X170996720Y-84252411D01*
X170997465Y-84267585D01*
X170999988Y-84498899D01*
X171000000Y-84501069D01*
X171000000Y-115498930D01*
X170999988Y-115501100D01*
X170997465Y-115732414D01*
X170996720Y-115747588D01*
X170956301Y-116209580D01*
X170954035Y-116226792D01*
X170873693Y-116682433D01*
X170869935Y-116699382D01*
X170750191Y-117146273D01*
X170744971Y-117162830D01*
X170586728Y-117597601D01*
X170580084Y-117613640D01*
X170384556Y-118032950D01*
X170376540Y-118048349D01*
X170145207Y-118449031D01*
X170135879Y-118463673D01*
X169870507Y-118842662D01*
X169859939Y-118856435D01*
X169562537Y-119210865D01*
X169550808Y-119223664D01*
X169223664Y-119550808D01*
X169210865Y-119562537D01*
X168856435Y-119859939D01*
X168842662Y-119870507D01*
X168463673Y-120135879D01*
X168449031Y-120145207D01*
X168048349Y-120376540D01*
X168032950Y-120384556D01*
X167613640Y-120580084D01*
X167597601Y-120586728D01*
X167162830Y-120744971D01*
X167146273Y-120750191D01*
X166699382Y-120869935D01*
X166682434Y-120873693D01*
X166468140Y-120911479D01*
X166436960Y-120916977D01*
X166402405Y-120920000D01*
X133597601Y-120920000D01*
X133563045Y-120916977D01*
X133317566Y-120873692D01*
X133300617Y-120869934D01*
X132853727Y-120750190D01*
X132837170Y-120744970D01*
X132402399Y-120586727D01*
X132386360Y-120580083D01*
X131967049Y-120384555D01*
X131951650Y-120376539D01*
X131550969Y-120145206D01*
X131536327Y-120135878D01*
X131157338Y-119870506D01*
X131143565Y-119859938D01*
X130789134Y-119562536D01*
X130776335Y-119550807D01*
X130449192Y-119223664D01*
X130437463Y-119210865D01*
X130140061Y-118856434D01*
X130129493Y-118842661D01*
X129864121Y-118463672D01*
X129854793Y-118449030D01*
X129623460Y-118048349D01*
X129615444Y-118032950D01*
X129587263Y-117972517D01*
X129419911Y-117613628D01*
X129413277Y-117597612D01*
X129255029Y-117162829D01*
X129249809Y-117146272D01*
X129130065Y-116699382D01*
X129126307Y-116682433D01*
X129045963Y-116226777D01*
X129043701Y-116209595D01*
X129003279Y-115747587D01*
X129002535Y-115732414D01*
X129000883Y-115580862D01*
X129000011Y-115500992D01*
X129000006Y-115499994D01*
X131544500Y-115499994D01*
X131544500Y-115500005D01*
X131564482Y-115843103D01*
X131624167Y-116181592D01*
X131722737Y-116510839D01*
X131858870Y-116826429D01*
X131858871Y-116826431D01*
X132030713Y-117124069D01*
X132030712Y-117124069D01*
X132047243Y-117146273D01*
X132235956Y-117399759D01*
X132471813Y-117649753D01*
X132735098Y-117870675D01*
X133022250Y-118059538D01*
X133329386Y-118213788D01*
X133652353Y-118331338D01*
X133652358Y-118331339D01*
X133652360Y-118331340D01*
X133760756Y-118357029D01*
X133986783Y-118410599D01*
X134095213Y-118423272D01*
X134328138Y-118450499D01*
X134328150Y-118450499D01*
X134328153Y-118450500D01*
X134328155Y-118450500D01*
X134671845Y-118450500D01*
X134671847Y-118450500D01*
X134671849Y-118450499D01*
X134671861Y-118450499D01*
X134849801Y-118429699D01*
X135013217Y-118410599D01*
X135347647Y-118331338D01*
X135670614Y-118213788D01*
X135977750Y-118059538D01*
X136264902Y-117870675D01*
X136528187Y-117649753D01*
X136764044Y-117399759D01*
X136969284Y-117124074D01*
X137141131Y-116826426D01*
X137277262Y-116510841D01*
X137375834Y-116181585D01*
X137435516Y-115843113D01*
X137437384Y-115811055D01*
X147648761Y-115811055D01*
X147648761Y-115811062D01*
X147667680Y-115954768D01*
X147667681Y-115954770D01*
X147723148Y-116088681D01*
X147723150Y-116088685D01*
X147811388Y-116203679D01*
X147811390Y-116203681D01*
X147926384Y-116291919D01*
X147926388Y-116291921D01*
X148060299Y-116347388D01*
X148060301Y-116347389D01*
X148204008Y-116366309D01*
X148204011Y-116366309D01*
X148204014Y-116366309D01*
X148347720Y-116347389D01*
X148347722Y-116347388D01*
X148481636Y-116291920D01*
X148566532Y-116226777D01*
X148596631Y-116203681D01*
X148596633Y-116203679D01*
X148684871Y-116088685D01*
X148684870Y-116088685D01*
X148684872Y-116088684D01*
X148740341Y-115954768D01*
X148759261Y-115811062D01*
X148759261Y-115811055D01*
X148744639Y-115699996D01*
X149544750Y-115699996D01*
X149544750Y-115700003D01*
X149563669Y-115843709D01*
X149563670Y-115843711D01*
X149619137Y-115977622D01*
X149619139Y-115977626D01*
X149707377Y-116092620D01*
X149707379Y-116092622D01*
X149822373Y-116180860D01*
X149822377Y-116180862D01*
X149956288Y-116236329D01*
X149956290Y-116236330D01*
X150099997Y-116255250D01*
X150100000Y-116255250D01*
X150100003Y-116255250D01*
X150243709Y-116236330D01*
X150243711Y-116236329D01*
X150266772Y-116226777D01*
X150377625Y-116180861D01*
X150492621Y-116092621D01*
X150495645Y-116088681D01*
X150580860Y-115977626D01*
X150580859Y-115977626D01*
X150580861Y-115977625D01*
X150636330Y-115843709D01*
X150655250Y-115700000D01*
X150655250Y-115699996D01*
X150636330Y-115556290D01*
X150636329Y-115556288D01*
X150580862Y-115422377D01*
X150580860Y-115422373D01*
X150492622Y-115307379D01*
X150492620Y-115307377D01*
X150377626Y-115219139D01*
X150377622Y-115219137D01*
X150243711Y-115163670D01*
X150243709Y-115163669D01*
X150100003Y-115144750D01*
X150099997Y-115144750D01*
X149956290Y-115163669D01*
X149956288Y-115163670D01*
X149822377Y-115219137D01*
X149822373Y-115219139D01*
X149707379Y-115307377D01*
X149707377Y-115307379D01*
X149619139Y-115422373D01*
X149619137Y-115422377D01*
X149563670Y-115556288D01*
X149563669Y-115556290D01*
X149544750Y-115699996D01*
X148744639Y-115699996D01*
X148740341Y-115667349D01*
X148740340Y-115667347D01*
X148684873Y-115533436D01*
X148684871Y-115533432D01*
X148596633Y-115418438D01*
X148596631Y-115418436D01*
X148481637Y-115330198D01*
X148481633Y-115330196D01*
X148347722Y-115274729D01*
X148347720Y-115274728D01*
X148204014Y-115255809D01*
X148204008Y-115255809D01*
X148060301Y-115274728D01*
X148060299Y-115274729D01*
X147926388Y-115330196D01*
X147926384Y-115330198D01*
X147811390Y-115418436D01*
X147811388Y-115418438D01*
X147723150Y-115533432D01*
X147723148Y-115533436D01*
X147667681Y-115667347D01*
X147667680Y-115667349D01*
X147648761Y-115811055D01*
X137437384Y-115811055D01*
X137455500Y-115500005D01*
X137455500Y-115499994D01*
X137435517Y-115156896D01*
X137435516Y-115156891D01*
X137435516Y-115156887D01*
X137384882Y-114869727D01*
X138343530Y-114869727D01*
X138343530Y-114869734D01*
X138362449Y-115013440D01*
X138362450Y-115013442D01*
X138417917Y-115147353D01*
X138417919Y-115147357D01*
X138506157Y-115262351D01*
X138506159Y-115262353D01*
X138621153Y-115350591D01*
X138621157Y-115350593D01*
X138755068Y-115406060D01*
X138755070Y-115406061D01*
X138898777Y-115424981D01*
X138898780Y-115424981D01*
X138898783Y-115424981D01*
X139042489Y-115406061D01*
X139042491Y-115406060D01*
X139111138Y-115377626D01*
X139176405Y-115350592D01*
X139275271Y-115274729D01*
X139291400Y-115262353D01*
X139291402Y-115262351D01*
X139367123Y-115163670D01*
X139379641Y-115147356D01*
X139399258Y-115099996D01*
X158544750Y-115099996D01*
X158544750Y-115100003D01*
X158563669Y-115243709D01*
X158563670Y-115243711D01*
X158619137Y-115377622D01*
X158619139Y-115377626D01*
X158707377Y-115492620D01*
X158707379Y-115492622D01*
X158822373Y-115580860D01*
X158822377Y-115580862D01*
X158956288Y-115636329D01*
X158956290Y-115636330D01*
X159099997Y-115655250D01*
X159100000Y-115655250D01*
X159100003Y-115655250D01*
X159243709Y-115636330D01*
X159243711Y-115636329D01*
X159377625Y-115580861D01*
X159483005Y-115500000D01*
X159483013Y-115499994D01*
X162544500Y-115499994D01*
X162544500Y-115500005D01*
X162564482Y-115843103D01*
X162624167Y-116181592D01*
X162722737Y-116510839D01*
X162858870Y-116826429D01*
X162858871Y-116826431D01*
X163030713Y-117124069D01*
X163030712Y-117124069D01*
X163047243Y-117146273D01*
X163235956Y-117399759D01*
X163471813Y-117649753D01*
X163735098Y-117870675D01*
X164022250Y-118059538D01*
X164329386Y-118213788D01*
X164652353Y-118331338D01*
X164652358Y-118331339D01*
X164652360Y-118331340D01*
X164760756Y-118357029D01*
X164986783Y-118410599D01*
X165095213Y-118423272D01*
X165328138Y-118450499D01*
X165328150Y-118450499D01*
X165328153Y-118450500D01*
X165328155Y-118450500D01*
X165671845Y-118450500D01*
X165671847Y-118450500D01*
X165671849Y-118450499D01*
X165671861Y-118450499D01*
X165849801Y-118429699D01*
X166013217Y-118410599D01*
X166347647Y-118331338D01*
X166670614Y-118213788D01*
X166977750Y-118059538D01*
X167264902Y-117870675D01*
X167528187Y-117649753D01*
X167764044Y-117399759D01*
X167969284Y-117124074D01*
X168141131Y-116826426D01*
X168277262Y-116510841D01*
X168375834Y-116181585D01*
X168435516Y-115843113D01*
X168437384Y-115811055D01*
X168455500Y-115500005D01*
X168455500Y-115499994D01*
X168435517Y-115156896D01*
X168435516Y-115156891D01*
X168435516Y-115156887D01*
X168375834Y-114818415D01*
X168277262Y-114489159D01*
X168141131Y-114173574D01*
X168100192Y-114102666D01*
X168007790Y-113942620D01*
X167969286Y-113875930D01*
X167969287Y-113875930D01*
X167764047Y-113600245D01*
X167764046Y-113600244D01*
X167764044Y-113600241D01*
X167528187Y-113350247D01*
X167264902Y-113129325D01*
X166977750Y-112940462D01*
X166820865Y-112861671D01*
X166670621Y-112786215D01*
X166670617Y-112786213D01*
X166670614Y-112786212D01*
X166347647Y-112668662D01*
X166347645Y-112668661D01*
X166347641Y-112668660D01*
X166347639Y-112668659D01*
X166013213Y-112589400D01*
X165671861Y-112549500D01*
X165671847Y-112549500D01*
X165328153Y-112549500D01*
X165328138Y-112549500D01*
X164986787Y-112589400D01*
X164986786Y-112589400D01*
X164652360Y-112668659D01*
X164652358Y-112668660D01*
X164586757Y-112692537D01*
X164329386Y-112786212D01*
X164329384Y-112786212D01*
X164329384Y-112786213D01*
X164329378Y-112786215D01*
X164022246Y-112940464D01*
X163735095Y-113129327D01*
X163677536Y-113177625D01*
X163481002Y-113342537D01*
X163471811Y-113350249D01*
X163235952Y-113600245D01*
X163030713Y-113875930D01*
X162858871Y-114173568D01*
X162858870Y-114173570D01*
X162722737Y-114489160D01*
X162624167Y-114818407D01*
X162564482Y-115156896D01*
X162544500Y-115499994D01*
X159483013Y-115499994D01*
X159492620Y-115492622D01*
X159492622Y-115492620D01*
X159580860Y-115377626D01*
X159580859Y-115377626D01*
X159580861Y-115377625D01*
X159636330Y-115243709D01*
X159646868Y-115163669D01*
X159655250Y-115100003D01*
X159655250Y-115099996D01*
X159636330Y-114956290D01*
X159636329Y-114956288D01*
X159580862Y-114822377D01*
X159580860Y-114822373D01*
X159492622Y-114707379D01*
X159492620Y-114707377D01*
X159377626Y-114619139D01*
X159377622Y-114619137D01*
X159243711Y-114563670D01*
X159243709Y-114563669D01*
X159100003Y-114544750D01*
X159099997Y-114544750D01*
X158956290Y-114563669D01*
X158956288Y-114563670D01*
X158822377Y-114619137D01*
X158822373Y-114619139D01*
X158707379Y-114707377D01*
X158707377Y-114707379D01*
X158619139Y-114822373D01*
X158619137Y-114822377D01*
X158563670Y-114956288D01*
X158563669Y-114956290D01*
X158544750Y-115099996D01*
X139399258Y-115099996D01*
X139435110Y-115013440D01*
X139442634Y-114956290D01*
X139448626Y-114910780D01*
X139479434Y-114827748D01*
X139543218Y-114766306D01*
X139619947Y-114739458D01*
X139643709Y-114736330D01*
X139643710Y-114736329D01*
X139643713Y-114736329D01*
X139741500Y-114695823D01*
X139777625Y-114680861D01*
X139892621Y-114592621D01*
X139980861Y-114477625D01*
X140036330Y-114343709D01*
X140045509Y-114273986D01*
X140076317Y-114190958D01*
X140140100Y-114129516D01*
X140216825Y-114102668D01*
X140340925Y-114086330D01*
X140474841Y-114030861D01*
X140589837Y-113942621D01*
X140605373Y-113922375D01*
X140678076Y-113827626D01*
X140678075Y-113827626D01*
X140678077Y-113827625D01*
X140733546Y-113693709D01*
X140742627Y-113624731D01*
X140773435Y-113541703D01*
X140837219Y-113480262D01*
X140913943Y-113453414D01*
X141043709Y-113436330D01*
X141177625Y-113380861D01*
X141189596Y-113371675D01*
X144314995Y-113371675D01*
X144314995Y-113371682D01*
X144333914Y-113515388D01*
X144333915Y-113515390D01*
X144389382Y-113649301D01*
X144389384Y-113649305D01*
X144477622Y-113764299D01*
X144477624Y-113764301D01*
X144592618Y-113852539D01*
X144592622Y-113852541D01*
X144726533Y-113908008D01*
X144726535Y-113908009D01*
X144870242Y-113926929D01*
X144870245Y-113926929D01*
X144870248Y-113926929D01*
X145013954Y-113908009D01*
X145013956Y-113908008D01*
X145147870Y-113852540D01*
X145262866Y-113764300D01*
X145351106Y-113649304D01*
X145406575Y-113515388D01*
X145411759Y-113476012D01*
X145425495Y-113371682D01*
X145425495Y-113371675D01*
X145406575Y-113227969D01*
X145406574Y-113227967D01*
X145351107Y-113094056D01*
X145351105Y-113094052D01*
X145262867Y-112979058D01*
X145262865Y-112979056D01*
X145147871Y-112890818D01*
X145147867Y-112890816D01*
X145013956Y-112835349D01*
X145013954Y-112835348D01*
X144870248Y-112816429D01*
X144870242Y-112816429D01*
X144726535Y-112835348D01*
X144726533Y-112835349D01*
X144592622Y-112890816D01*
X144592618Y-112890818D01*
X144477624Y-112979056D01*
X144477622Y-112979058D01*
X144389384Y-113094052D01*
X144389382Y-113094056D01*
X144333915Y-113227967D01*
X144333914Y-113227969D01*
X144314995Y-113371675D01*
X141189596Y-113371675D01*
X141292621Y-113292621D01*
X141308157Y-113272375D01*
X141380860Y-113177626D01*
X141380859Y-113177626D01*
X141380861Y-113177625D01*
X141436330Y-113043709D01*
X141440285Y-113013669D01*
X141455250Y-112900003D01*
X141455250Y-112899997D01*
X141443589Y-112811427D01*
X141451857Y-112723250D01*
X141497565Y-112647393D01*
X141571659Y-112598880D01*
X141659464Y-112587320D01*
X141666860Y-112588153D01*
X141800000Y-112605682D01*
X141956762Y-112585044D01*
X142102841Y-112524536D01*
X142102841Y-112524535D01*
X142102843Y-112524535D01*
X142148760Y-112489301D01*
X142228282Y-112428282D01*
X142321786Y-112306425D01*
X142324535Y-112302843D01*
X142324536Y-112302840D01*
X142331060Y-112287090D01*
X142385044Y-112156762D01*
X142405682Y-112000000D01*
X142400225Y-111958552D01*
X146989296Y-111958552D01*
X146989296Y-111958559D01*
X147008215Y-112102265D01*
X147008216Y-112102267D01*
X147063683Y-112236178D01*
X147063685Y-112236182D01*
X147151923Y-112351176D01*
X147151925Y-112351178D01*
X147266919Y-112439416D01*
X147266923Y-112439418D01*
X147400834Y-112494885D01*
X147400836Y-112494886D01*
X147544543Y-112513806D01*
X147544546Y-112513806D01*
X147544549Y-112513806D01*
X147688255Y-112494886D01*
X147688257Y-112494885D01*
X147822171Y-112439417D01*
X147920887Y-112363669D01*
X147937166Y-112351178D01*
X147937168Y-112351176D01*
X148025406Y-112236182D01*
X148025405Y-112236182D01*
X148025407Y-112236181D01*
X148080876Y-112102265D01*
X148085392Y-112067961D01*
X148099796Y-111958559D01*
X148099796Y-111958552D01*
X148080876Y-111814846D01*
X148080875Y-111814844D01*
X148025408Y-111680933D01*
X148025406Y-111680929D01*
X147937168Y-111565935D01*
X147937166Y-111565933D01*
X147822172Y-111477695D01*
X147822168Y-111477693D01*
X147688257Y-111422226D01*
X147688255Y-111422225D01*
X147544549Y-111403306D01*
X147544543Y-111403306D01*
X147400836Y-111422225D01*
X147400834Y-111422226D01*
X147266923Y-111477693D01*
X147266919Y-111477695D01*
X147151925Y-111565933D01*
X147151923Y-111565935D01*
X147063685Y-111680929D01*
X147063683Y-111680933D01*
X147008216Y-111814844D01*
X147008215Y-111814846D01*
X146989296Y-111958552D01*
X142400225Y-111958552D01*
X142385044Y-111843238D01*
X142324536Y-111697159D01*
X142324535Y-111697156D01*
X142236650Y-111582624D01*
X142228282Y-111571718D01*
X142186468Y-111539633D01*
X142102843Y-111475464D01*
X142102840Y-111475463D01*
X141974311Y-111422225D01*
X141956762Y-111414956D01*
X141800000Y-111394318D01*
X141643237Y-111414956D01*
X141643235Y-111414957D01*
X141497159Y-111475463D01*
X141497156Y-111475464D01*
X141371718Y-111571718D01*
X141275464Y-111697156D01*
X141275463Y-111697159D01*
X141214957Y-111843235D01*
X141214956Y-111843237D01*
X141194318Y-112000000D01*
X141211846Y-112133139D01*
X141203577Y-112221315D01*
X141157868Y-112297172D01*
X141083774Y-112345684D01*
X140995968Y-112357244D01*
X140988574Y-112356411D01*
X140958328Y-112352429D01*
X140900000Y-112344750D01*
X140899998Y-112344750D01*
X140899997Y-112344750D01*
X140756290Y-112363669D01*
X140756288Y-112363670D01*
X140622377Y-112419137D01*
X140622373Y-112419139D01*
X140507379Y-112507377D01*
X140507377Y-112507379D01*
X140419139Y-112622373D01*
X140419137Y-112622377D01*
X140363670Y-112756288D01*
X140363669Y-112756290D01*
X140354588Y-112825266D01*
X140323778Y-112908298D01*
X140259994Y-112969739D01*
X140183266Y-112996586D01*
X140053507Y-113013669D01*
X140053504Y-113013670D01*
X139919593Y-113069137D01*
X139919589Y-113069139D01*
X139804595Y-113157377D01*
X139804593Y-113157379D01*
X139716355Y-113272373D01*
X139716353Y-113272377D01*
X139660886Y-113406288D01*
X139660885Y-113406289D01*
X139651706Y-113476012D01*
X139620897Y-113559043D01*
X139557112Y-113620485D01*
X139480384Y-113647332D01*
X139356291Y-113663669D01*
X139356288Y-113663670D01*
X139222377Y-113719137D01*
X139222373Y-113719139D01*
X139107379Y-113807377D01*
X139107377Y-113807379D01*
X139019139Y-113922373D01*
X139019137Y-113922377D01*
X138963670Y-114056288D01*
X138963669Y-114056289D01*
X138950153Y-114158952D01*
X138919344Y-114241983D01*
X138855559Y-114303425D01*
X138778834Y-114330272D01*
X138755069Y-114333401D01*
X138755068Y-114333401D01*
X138621157Y-114388868D01*
X138621153Y-114388870D01*
X138506159Y-114477108D01*
X138506157Y-114477110D01*
X138417919Y-114592104D01*
X138417917Y-114592108D01*
X138362450Y-114726019D01*
X138362449Y-114726021D01*
X138343530Y-114869727D01*
X137384882Y-114869727D01*
X137375834Y-114818415D01*
X137277262Y-114489159D01*
X137141131Y-114173574D01*
X137100192Y-114102666D01*
X137007790Y-113942620D01*
X136969286Y-113875930D01*
X136969287Y-113875930D01*
X136764047Y-113600245D01*
X136764046Y-113600244D01*
X136764044Y-113600241D01*
X136528187Y-113350247D01*
X136264902Y-113129325D01*
X135977750Y-112940462D01*
X135820865Y-112861671D01*
X135670621Y-112786215D01*
X135670617Y-112786213D01*
X135670614Y-112786212D01*
X135347647Y-112668662D01*
X135347645Y-112668661D01*
X135347641Y-112668660D01*
X135347639Y-112668659D01*
X135013213Y-112589400D01*
X134671861Y-112549500D01*
X134671847Y-112549500D01*
X134328153Y-112549500D01*
X134328138Y-112549500D01*
X133986787Y-112589400D01*
X133986786Y-112589400D01*
X133652360Y-112668659D01*
X133652358Y-112668660D01*
X133586757Y-112692537D01*
X133329386Y-112786212D01*
X133329384Y-112786212D01*
X133329384Y-112786213D01*
X133329378Y-112786215D01*
X133022246Y-112940464D01*
X132735095Y-113129327D01*
X132677536Y-113177625D01*
X132481002Y-113342537D01*
X132471811Y-113350249D01*
X132235952Y-113600245D01*
X132030713Y-113875930D01*
X131858871Y-114173568D01*
X131858870Y-114173570D01*
X131722737Y-114489160D01*
X131624167Y-114818407D01*
X131564482Y-115156896D01*
X131544500Y-115499994D01*
X129000006Y-115499994D01*
X129000000Y-115498855D01*
X129000000Y-110899996D01*
X148644750Y-110899996D01*
X148644750Y-110900003D01*
X148663669Y-111043709D01*
X148663670Y-111043711D01*
X148719137Y-111177622D01*
X148719139Y-111177626D01*
X148807377Y-111292620D01*
X148807379Y-111292622D01*
X148922373Y-111380860D01*
X148922377Y-111380862D01*
X149056288Y-111436329D01*
X149056290Y-111436330D01*
X149199997Y-111455250D01*
X149199999Y-111455250D01*
X149199999Y-111455249D01*
X149200000Y-111455250D01*
X149205224Y-111454562D01*
X149212564Y-111455250D01*
X149213043Y-111455250D01*
X149213043Y-111455294D01*
X149293400Y-111462826D01*
X149369258Y-111508531D01*
X149417774Y-111582624D01*
X149428503Y-111625881D01*
X149439195Y-111707094D01*
X149439196Y-111707095D01*
X149494663Y-111841006D01*
X149494665Y-111841010D01*
X149582903Y-111956004D01*
X149582905Y-111956006D01*
X149697899Y-112044244D01*
X149697903Y-112044246D01*
X149831814Y-112099713D01*
X149831816Y-112099714D01*
X149975523Y-112118634D01*
X149975524Y-112118633D01*
X149975526Y-112118634D01*
X149997277Y-112115770D01*
X150085451Y-112124037D01*
X150161308Y-112169743D01*
X150209822Y-112243837D01*
X150220550Y-112287090D01*
X150229541Y-112355385D01*
X150229542Y-112355386D01*
X150285009Y-112489297D01*
X150285011Y-112489301D01*
X150373249Y-112604295D01*
X150373251Y-112604297D01*
X150488245Y-112692535D01*
X150488249Y-112692537D01*
X150622160Y-112748004D01*
X150622162Y-112748005D01*
X150765869Y-112766925D01*
X150765872Y-112766925D01*
X150765875Y-112766925D01*
X150868111Y-112753465D01*
X150956287Y-112761733D01*
X151032144Y-112807441D01*
X151080657Y-112881535D01*
X151091383Y-112924786D01*
X151101994Y-113005384D01*
X151101995Y-113005386D01*
X151157462Y-113139297D01*
X151157464Y-113139301D01*
X151245702Y-113254295D01*
X151245704Y-113254297D01*
X151360698Y-113342535D01*
X151360702Y-113342537D01*
X151494613Y-113398004D01*
X151494615Y-113398005D01*
X151638322Y-113416925D01*
X151638325Y-113416925D01*
X151638328Y-113416925D01*
X151782034Y-113398005D01*
X151782036Y-113398004D01*
X151823421Y-113380862D01*
X151915950Y-113342536D01*
X152030946Y-113254296D01*
X152119186Y-113139300D01*
X152174655Y-113005384D01*
X152179348Y-112969739D01*
X152193575Y-112861678D01*
X152193575Y-112861671D01*
X152174655Y-112717965D01*
X152174654Y-112717963D01*
X152119187Y-112584052D01*
X152119185Y-112584048D01*
X152030947Y-112469054D01*
X152030945Y-112469052D01*
X151940949Y-112399996D01*
X159044750Y-112399996D01*
X159044750Y-112400003D01*
X159063669Y-112543709D01*
X159063670Y-112543711D01*
X159119137Y-112677622D01*
X159119139Y-112677626D01*
X159207377Y-112792620D01*
X159207379Y-112792622D01*
X159322373Y-112880860D01*
X159322377Y-112880862D01*
X159456288Y-112936329D01*
X159456290Y-112936330D01*
X159599997Y-112955250D01*
X159600000Y-112955250D01*
X159600003Y-112955250D01*
X159743709Y-112936330D01*
X159743711Y-112936329D01*
X159831411Y-112900003D01*
X159877625Y-112880861D01*
X159936938Y-112835348D01*
X159992620Y-112792622D01*
X159992622Y-112792620D01*
X160036741Y-112735123D01*
X160080861Y-112677625D01*
X160136330Y-112543709D01*
X160147553Y-112458463D01*
X160155250Y-112400003D01*
X160155250Y-112399996D01*
X160136330Y-112256290D01*
X160136329Y-112256288D01*
X160080862Y-112122377D01*
X160080860Y-112122373D01*
X159992622Y-112007379D01*
X159992620Y-112007377D01*
X159877626Y-111919139D01*
X159877622Y-111919137D01*
X159743711Y-111863670D01*
X159743709Y-111863669D01*
X159600003Y-111844750D01*
X159599997Y-111844750D01*
X159456290Y-111863669D01*
X159456288Y-111863670D01*
X159322377Y-111919137D01*
X159322373Y-111919139D01*
X159207379Y-112007377D01*
X159207377Y-112007379D01*
X159119139Y-112122373D01*
X159119137Y-112122377D01*
X159063670Y-112256288D01*
X159063669Y-112256290D01*
X159044750Y-112399996D01*
X151940949Y-112399996D01*
X151915951Y-112380814D01*
X151915947Y-112380812D01*
X151782036Y-112325345D01*
X151782034Y-112325344D01*
X151638328Y-112306425D01*
X151638327Y-112306425D01*
X151638325Y-112306425D01*
X151604514Y-112310876D01*
X151536084Y-112319885D01*
X151447907Y-112311616D01*
X151372051Y-112265907D01*
X151323539Y-112191812D01*
X151312813Y-112148569D01*
X151302202Y-112067966D01*
X151292376Y-112044244D01*
X151246734Y-111934052D01*
X151246732Y-111934048D01*
X151158494Y-111819054D01*
X151158492Y-111819052D01*
X151043498Y-111730814D01*
X151043494Y-111730812D01*
X150909583Y-111675345D01*
X150909581Y-111675344D01*
X150765875Y-111656425D01*
X150765873Y-111656425D01*
X150765872Y-111656425D01*
X150755819Y-111657748D01*
X150744117Y-111659289D01*
X150655940Y-111651019D01*
X150580084Y-111605310D01*
X150531572Y-111531215D01*
X150520847Y-111487973D01*
X150511856Y-111419675D01*
X150456387Y-111285759D01*
X150456386Y-111285757D01*
X150368148Y-111170763D01*
X150368146Y-111170761D01*
X150253152Y-111082523D01*
X150253148Y-111082521D01*
X150119237Y-111027054D01*
X150119235Y-111027053D01*
X149975529Y-111008134D01*
X149975524Y-111008134D01*
X149970290Y-111008823D01*
X149962944Y-111008134D01*
X149962483Y-111008134D01*
X149962483Y-111008090D01*
X149882114Y-111000553D01*
X149806258Y-110954843D01*
X149757747Y-110880748D01*
X149747022Y-110837500D01*
X149736330Y-110756290D01*
X149736329Y-110756288D01*
X149680862Y-110622377D01*
X149680860Y-110622373D01*
X149592622Y-110507379D01*
X149592620Y-110507377D01*
X149477626Y-110419139D01*
X149477622Y-110419137D01*
X149343711Y-110363670D01*
X149343709Y-110363669D01*
X149200003Y-110344750D01*
X149199997Y-110344750D01*
X149056290Y-110363669D01*
X149056288Y-110363670D01*
X148922377Y-110419137D01*
X148922373Y-110419139D01*
X148807379Y-110507377D01*
X148807377Y-110507379D01*
X148719139Y-110622373D01*
X148719137Y-110622377D01*
X148663670Y-110756288D01*
X148663669Y-110756290D01*
X148644750Y-110899996D01*
X129000000Y-110899996D01*
X129000000Y-110075761D01*
X138868985Y-110075761D01*
X138868985Y-110075768D01*
X138887904Y-110219474D01*
X138887905Y-110219476D01*
X138943372Y-110353387D01*
X138943374Y-110353391D01*
X139031612Y-110468385D01*
X139031614Y-110468387D01*
X139146608Y-110556625D01*
X139146612Y-110556627D01*
X139280523Y-110612094D01*
X139280525Y-110612095D01*
X139424232Y-110631015D01*
X139424235Y-110631015D01*
X139424238Y-110631015D01*
X139567944Y-110612095D01*
X139567946Y-110612094D01*
X139701860Y-110556626D01*
X139766042Y-110507377D01*
X139816855Y-110468387D01*
X139816857Y-110468385D01*
X139897208Y-110363670D01*
X139905096Y-110353390D01*
X139960565Y-110219474D01*
X139963129Y-110199996D01*
X152144750Y-110199996D01*
X152144750Y-110200003D01*
X152163669Y-110343709D01*
X152163670Y-110343711D01*
X152219137Y-110477622D01*
X152219139Y-110477626D01*
X152307377Y-110592620D01*
X152307379Y-110592622D01*
X152422373Y-110680860D01*
X152422377Y-110680862D01*
X152556288Y-110736329D01*
X152556290Y-110736330D01*
X152699997Y-110755250D01*
X152700000Y-110755250D01*
X152700003Y-110755250D01*
X152843709Y-110736330D01*
X152843711Y-110736329D01*
X152977625Y-110680861D01*
X153042585Y-110631015D01*
X153092620Y-110592622D01*
X153092622Y-110592620D01*
X153180860Y-110477626D01*
X153180859Y-110477626D01*
X153180861Y-110477625D01*
X153236330Y-110343709D01*
X153255250Y-110200000D01*
X153255250Y-110199996D01*
X153236330Y-110056290D01*
X153236329Y-110056288D01*
X153180862Y-109922377D01*
X153180860Y-109922373D01*
X153092622Y-109807379D01*
X153092620Y-109807377D01*
X152977626Y-109719139D01*
X152977622Y-109719137D01*
X152843711Y-109663670D01*
X152843709Y-109663669D01*
X152700003Y-109644750D01*
X152699997Y-109644750D01*
X152556290Y-109663669D01*
X152556288Y-109663670D01*
X152422377Y-109719137D01*
X152422373Y-109719139D01*
X152307379Y-109807377D01*
X152307377Y-109807379D01*
X152219139Y-109922373D01*
X152219137Y-109922377D01*
X152163670Y-110056288D01*
X152163669Y-110056290D01*
X152144750Y-110199996D01*
X139963129Y-110199996D01*
X139979485Y-110075768D01*
X139979485Y-110075761D01*
X139960565Y-109932058D01*
X139960565Y-109932056D01*
X139935832Y-109872346D01*
X139920999Y-109785035D01*
X139945517Y-109699933D01*
X140004531Y-109633897D01*
X140086354Y-109600005D01*
X140145658Y-109598897D01*
X140227961Y-109609732D01*
X140243473Y-109611775D01*
X140243474Y-109611775D01*
X140243477Y-109611775D01*
X140387183Y-109592855D01*
X140387185Y-109592854D01*
X140516152Y-109539435D01*
X140521099Y-109537386D01*
X140636095Y-109449146D01*
X140724335Y-109334150D01*
X140779804Y-109200234D01*
X140798724Y-109056525D01*
X140798724Y-109056521D01*
X140779804Y-108912816D01*
X140755073Y-108853109D01*
X140740238Y-108765797D01*
X140764756Y-108680695D01*
X140823770Y-108614658D01*
X140905592Y-108580767D01*
X140964898Y-108579658D01*
X141025841Y-108587681D01*
X141062712Y-108592536D01*
X141062714Y-108592536D01*
X141062717Y-108592536D01*
X141206423Y-108573616D01*
X141206425Y-108573615D01*
X141340339Y-108518147D01*
X141455335Y-108429907D01*
X141468219Y-108413117D01*
X141543574Y-108314912D01*
X141543573Y-108314912D01*
X141543575Y-108314911D01*
X141599044Y-108180995D01*
X141599044Y-108180994D01*
X141617964Y-108037289D01*
X141617964Y-108037282D01*
X141599044Y-107893576D01*
X141599043Y-107893574D01*
X141569766Y-107822891D01*
X141554931Y-107735579D01*
X141579449Y-107650477D01*
X141624562Y-107599996D01*
X157244750Y-107599996D01*
X157244750Y-107600003D01*
X157263669Y-107743709D01*
X157263670Y-107743711D01*
X157319137Y-107877622D01*
X157319139Y-107877626D01*
X157407377Y-107992620D01*
X157407379Y-107992622D01*
X157522373Y-108080860D01*
X157522377Y-108080862D01*
X157656288Y-108136329D01*
X157656290Y-108136330D01*
X157799997Y-108155250D01*
X157800000Y-108155250D01*
X157800003Y-108155250D01*
X157943709Y-108136330D01*
X157943711Y-108136329D01*
X158056925Y-108089435D01*
X158077625Y-108080861D01*
X158192621Y-107992621D01*
X158280861Y-107877625D01*
X158336330Y-107743709D01*
X158337400Y-107735579D01*
X158355250Y-107600003D01*
X158355250Y-107599996D01*
X158336330Y-107456290D01*
X158336329Y-107456288D01*
X158280862Y-107322377D01*
X158280860Y-107322373D01*
X158192622Y-107207379D01*
X158192620Y-107207377D01*
X158077626Y-107119139D01*
X158077622Y-107119137D01*
X157943711Y-107063670D01*
X157943709Y-107063669D01*
X157800003Y-107044750D01*
X157799997Y-107044750D01*
X157656290Y-107063669D01*
X157656288Y-107063670D01*
X157522377Y-107119137D01*
X157522373Y-107119139D01*
X157407379Y-107207377D01*
X157407377Y-107207379D01*
X157319139Y-107322373D01*
X157319137Y-107322377D01*
X157263670Y-107456288D01*
X157263669Y-107456290D01*
X157244750Y-107599996D01*
X141624562Y-107599996D01*
X141638463Y-107584441D01*
X141720285Y-107550550D01*
X141779590Y-107549441D01*
X141853806Y-107559211D01*
X141870000Y-107561344D01*
X141870001Y-107561344D01*
X141870004Y-107561344D01*
X142013710Y-107542424D01*
X142013712Y-107542423D01*
X142113824Y-107500956D01*
X142147626Y-107486955D01*
X142262622Y-107398715D01*
X142350862Y-107283719D01*
X142406331Y-107149803D01*
X142425251Y-107006094D01*
X142425251Y-107006090D01*
X142406331Y-106862384D01*
X142406330Y-106862382D01*
X142350863Y-106728471D01*
X142350861Y-106728467D01*
X142262623Y-106613473D01*
X142262621Y-106613471D01*
X142147627Y-106525233D01*
X142147623Y-106525231D01*
X142013712Y-106469764D01*
X142013710Y-106469763D01*
X141870004Y-106450844D01*
X141869998Y-106450844D01*
X141726291Y-106469763D01*
X141726289Y-106469764D01*
X141592378Y-106525231D01*
X141592374Y-106525233D01*
X141477380Y-106613471D01*
X141477378Y-106613473D01*
X141389140Y-106728467D01*
X141389138Y-106728471D01*
X141333671Y-106862382D01*
X141333670Y-106862384D01*
X141314751Y-107006090D01*
X141314751Y-107006097D01*
X141333670Y-107149802D01*
X141362949Y-107220489D01*
X141377783Y-107307801D01*
X141353265Y-107392903D01*
X141294250Y-107458939D01*
X141212428Y-107492830D01*
X141153121Y-107493938D01*
X141062717Y-107482036D01*
X141062711Y-107482036D01*
X140919004Y-107500955D01*
X140919002Y-107500956D01*
X140785091Y-107556423D01*
X140785087Y-107556425D01*
X140670093Y-107644663D01*
X140670091Y-107644665D01*
X140581853Y-107759659D01*
X140581851Y-107759663D01*
X140526384Y-107893574D01*
X140526383Y-107893576D01*
X140507464Y-108037282D01*
X140507464Y-108037289D01*
X140526383Y-108180994D01*
X140551115Y-108240703D01*
X140565949Y-108328015D01*
X140541431Y-108413117D01*
X140482416Y-108479153D01*
X140400594Y-108513044D01*
X140341287Y-108514152D01*
X140243477Y-108501275D01*
X140243471Y-108501275D01*
X140099764Y-108520194D01*
X140099762Y-108520195D01*
X139965851Y-108575662D01*
X139965847Y-108575664D01*
X139850853Y-108663902D01*
X139850851Y-108663904D01*
X139762613Y-108778898D01*
X139762611Y-108778902D01*
X139707144Y-108912813D01*
X139707143Y-108912815D01*
X139688224Y-109056521D01*
X139688224Y-109056528D01*
X139707143Y-109200233D01*
X139731875Y-109259943D01*
X139746709Y-109347256D01*
X139722190Y-109432357D01*
X139663175Y-109498393D01*
X139581353Y-109532284D01*
X139522047Y-109533392D01*
X139424238Y-109520515D01*
X139424232Y-109520515D01*
X139280525Y-109539434D01*
X139280523Y-109539435D01*
X139146612Y-109594902D01*
X139146608Y-109594904D01*
X139031614Y-109683142D01*
X139031612Y-109683144D01*
X138943374Y-109798138D01*
X138943372Y-109798142D01*
X138887905Y-109932053D01*
X138887904Y-109932055D01*
X138868985Y-110075761D01*
X129000000Y-110075761D01*
X129000000Y-108625761D01*
X137418985Y-108625761D01*
X137418985Y-108625768D01*
X137437904Y-108769474D01*
X137437905Y-108769476D01*
X137493372Y-108903387D01*
X137493374Y-108903391D01*
X137581612Y-109018385D01*
X137581614Y-109018387D01*
X137696608Y-109106625D01*
X137696612Y-109106627D01*
X137830523Y-109162094D01*
X137830525Y-109162095D01*
X137974232Y-109181015D01*
X137974235Y-109181015D01*
X137974238Y-109181015D01*
X138117944Y-109162095D01*
X138117946Y-109162094D01*
X138251860Y-109106626D01*
X138366856Y-109018386D01*
X138455096Y-108903390D01*
X138510565Y-108769474D01*
X138529485Y-108625765D01*
X138529485Y-108625761D01*
X138510565Y-108482055D01*
X138510564Y-108482053D01*
X138455097Y-108348142D01*
X138455095Y-108348138D01*
X138366857Y-108233144D01*
X138366855Y-108233142D01*
X138251861Y-108144904D01*
X138251857Y-108144902D01*
X138117946Y-108089435D01*
X138117944Y-108089434D01*
X137974238Y-108070515D01*
X137974232Y-108070515D01*
X137830525Y-108089434D01*
X137830523Y-108089435D01*
X137696612Y-108144902D01*
X137696608Y-108144904D01*
X137581614Y-108233142D01*
X137581612Y-108233144D01*
X137493374Y-108348138D01*
X137493372Y-108348142D01*
X137437905Y-108482053D01*
X137437904Y-108482055D01*
X137418985Y-108625761D01*
X129000000Y-108625761D01*
X129000000Y-105799996D01*
X136594750Y-105799996D01*
X136594750Y-105800003D01*
X136613669Y-105943709D01*
X136613670Y-105943711D01*
X136669137Y-106077622D01*
X136669139Y-106077626D01*
X136757377Y-106192620D01*
X136757379Y-106192622D01*
X136872373Y-106280860D01*
X136872377Y-106280862D01*
X137006288Y-106336329D01*
X137006290Y-106336330D01*
X137149997Y-106355250D01*
X137150000Y-106355250D01*
X137150003Y-106355250D01*
X137293709Y-106336330D01*
X137293711Y-106336329D01*
X137427625Y-106280861D01*
X137542621Y-106192621D01*
X137593197Y-106126710D01*
X137638801Y-106067278D01*
X137640905Y-106068893D01*
X137687898Y-106018247D01*
X137770339Y-105985890D01*
X137858654Y-105992507D01*
X137935353Y-106036788D01*
X137960248Y-106068007D01*
X137961199Y-106067278D01*
X138057377Y-106192620D01*
X138057379Y-106192622D01*
X138172373Y-106280860D01*
X138172377Y-106280862D01*
X138306288Y-106336329D01*
X138306290Y-106336330D01*
X138449997Y-106355250D01*
X138450000Y-106355250D01*
X138450003Y-106355250D01*
X138593709Y-106336330D01*
X138593711Y-106336329D01*
X138727625Y-106280861D01*
X138842621Y-106192621D01*
X138930861Y-106077625D01*
X138986330Y-105943709D01*
X139005250Y-105800003D01*
X139005250Y-105799996D01*
X140044750Y-105799996D01*
X140044750Y-105800003D01*
X140063669Y-105943709D01*
X140063670Y-105943711D01*
X140119137Y-106077622D01*
X140119139Y-106077626D01*
X140207377Y-106192620D01*
X140207379Y-106192622D01*
X140322373Y-106280860D01*
X140322377Y-106280862D01*
X140456288Y-106336329D01*
X140456290Y-106336330D01*
X140599997Y-106355250D01*
X140600000Y-106355250D01*
X140600003Y-106355250D01*
X140743709Y-106336330D01*
X140743711Y-106336329D01*
X140877625Y-106280861D01*
X140983010Y-106199996D01*
X154244750Y-106199996D01*
X154244750Y-106200003D01*
X154263669Y-106343709D01*
X154263670Y-106343711D01*
X154319137Y-106477622D01*
X154319139Y-106477626D01*
X154407377Y-106592620D01*
X154407379Y-106592622D01*
X154522373Y-106680860D01*
X154522377Y-106680862D01*
X154656288Y-106736329D01*
X154656290Y-106736330D01*
X154799997Y-106755250D01*
X154800000Y-106755250D01*
X154800003Y-106755250D01*
X154943709Y-106736330D01*
X154943711Y-106736329D01*
X155077625Y-106680861D01*
X155192621Y-106592621D01*
X155280861Y-106477625D01*
X155336330Y-106343709D01*
X155355250Y-106200003D01*
X155355250Y-106199996D01*
X155336330Y-106056290D01*
X155336329Y-106056288D01*
X155280862Y-105922377D01*
X155280860Y-105922373D01*
X155192622Y-105807379D01*
X155192620Y-105807377D01*
X155077626Y-105719139D01*
X155077622Y-105719137D01*
X154943711Y-105663670D01*
X154943709Y-105663669D01*
X154800003Y-105644750D01*
X154799997Y-105644750D01*
X154656290Y-105663669D01*
X154656288Y-105663670D01*
X154522377Y-105719137D01*
X154522373Y-105719139D01*
X154407379Y-105807377D01*
X154407377Y-105807379D01*
X154319139Y-105922373D01*
X154319137Y-105922377D01*
X154263670Y-106056288D01*
X154263669Y-106056290D01*
X154244750Y-106199996D01*
X140983010Y-106199996D01*
X140992621Y-106192621D01*
X141080861Y-106077625D01*
X141136330Y-105943709D01*
X141155250Y-105800003D01*
X141155250Y-105799996D01*
X141136330Y-105656290D01*
X141136329Y-105656288D01*
X141109028Y-105590376D01*
X142194750Y-105590376D01*
X142194750Y-105590383D01*
X142213669Y-105734089D01*
X142213670Y-105734091D01*
X142269137Y-105868002D01*
X142269139Y-105868006D01*
X142357377Y-105983000D01*
X142357379Y-105983002D01*
X142472373Y-106071240D01*
X142472377Y-106071242D01*
X142606288Y-106126709D01*
X142606290Y-106126710D01*
X142749997Y-106145630D01*
X142750000Y-106145630D01*
X142750003Y-106145630D01*
X142893709Y-106126710D01*
X142893711Y-106126709D01*
X143027625Y-106071241D01*
X143142621Y-105983001D01*
X143172770Y-105943711D01*
X143230860Y-105868006D01*
X143230859Y-105868006D01*
X143230861Y-105868005D01*
X143286330Y-105734089D01*
X143295601Y-105663669D01*
X143305250Y-105590383D01*
X143305250Y-105590376D01*
X143286330Y-105446670D01*
X143286329Y-105446668D01*
X143230862Y-105312757D01*
X143230860Y-105312753D01*
X143142622Y-105197759D01*
X143142620Y-105197757D01*
X143027626Y-105109519D01*
X143027622Y-105109517D01*
X142976384Y-105088294D01*
X153133048Y-105088294D01*
X153133048Y-105088301D01*
X153151967Y-105232007D01*
X153151968Y-105232009D01*
X153207435Y-105365920D01*
X153207437Y-105365924D01*
X153295675Y-105480918D01*
X153295677Y-105480920D01*
X153410671Y-105569158D01*
X153410675Y-105569160D01*
X153544586Y-105624627D01*
X153544588Y-105624628D01*
X153688295Y-105643548D01*
X153688298Y-105643548D01*
X153688301Y-105643548D01*
X153832007Y-105624628D01*
X153832009Y-105624627D01*
X153965923Y-105569159D01*
X154080919Y-105480919D01*
X154169159Y-105365923D01*
X154224628Y-105232007D01*
X154240754Y-105109519D01*
X154243548Y-105088301D01*
X154243548Y-105088294D01*
X154224628Y-104944588D01*
X154224627Y-104944586D01*
X154169160Y-104810675D01*
X154169158Y-104810671D01*
X154080920Y-104695677D01*
X154080918Y-104695675D01*
X153965924Y-104607437D01*
X153965920Y-104607435D01*
X153832009Y-104551968D01*
X153832007Y-104551967D01*
X153688301Y-104533048D01*
X153688295Y-104533048D01*
X153544588Y-104551967D01*
X153544586Y-104551968D01*
X153410675Y-104607435D01*
X153410671Y-104607437D01*
X153295677Y-104695675D01*
X153295675Y-104695677D01*
X153207437Y-104810671D01*
X153207435Y-104810675D01*
X153151968Y-104944586D01*
X153151967Y-104944588D01*
X153133048Y-105088294D01*
X142976384Y-105088294D01*
X142893711Y-105054050D01*
X142893709Y-105054049D01*
X142750003Y-105035130D01*
X142749997Y-105035130D01*
X142606290Y-105054049D01*
X142606288Y-105054050D01*
X142472377Y-105109517D01*
X142472373Y-105109519D01*
X142357379Y-105197757D01*
X142357377Y-105197759D01*
X142269139Y-105312753D01*
X142269137Y-105312757D01*
X142213670Y-105446668D01*
X142213669Y-105446670D01*
X142194750Y-105590376D01*
X141109028Y-105590376D01*
X141080862Y-105522377D01*
X141080860Y-105522373D01*
X140992622Y-105407379D01*
X140992620Y-105407377D01*
X140877626Y-105319139D01*
X140877622Y-105319137D01*
X140743711Y-105263670D01*
X140743709Y-105263669D01*
X140600003Y-105244750D01*
X140599997Y-105244750D01*
X140456290Y-105263669D01*
X140456288Y-105263670D01*
X140322377Y-105319137D01*
X140322373Y-105319139D01*
X140207379Y-105407377D01*
X140207377Y-105407379D01*
X140119139Y-105522373D01*
X140119137Y-105522377D01*
X140063670Y-105656288D01*
X140063669Y-105656290D01*
X140044750Y-105799996D01*
X139005250Y-105799996D01*
X138986330Y-105656290D01*
X138986329Y-105656288D01*
X138930862Y-105522377D01*
X138930860Y-105522373D01*
X138842622Y-105407379D01*
X138842620Y-105407377D01*
X138727626Y-105319139D01*
X138727622Y-105319137D01*
X138593711Y-105263670D01*
X138593709Y-105263669D01*
X138450003Y-105244750D01*
X138449997Y-105244750D01*
X138306290Y-105263669D01*
X138306288Y-105263670D01*
X138172377Y-105319137D01*
X138172373Y-105319139D01*
X138057379Y-105407377D01*
X138057377Y-105407379D01*
X137961199Y-105532722D01*
X137959095Y-105531107D01*
X137912090Y-105581761D01*
X137829646Y-105614111D01*
X137741331Y-105607487D01*
X137664636Y-105563200D01*
X137639749Y-105531994D01*
X137638801Y-105532722D01*
X137542622Y-105407379D01*
X137542620Y-105407377D01*
X137427626Y-105319139D01*
X137427622Y-105319137D01*
X137293711Y-105263670D01*
X137293709Y-105263669D01*
X137150003Y-105244750D01*
X137149997Y-105244750D01*
X137006290Y-105263669D01*
X137006288Y-105263670D01*
X136872377Y-105319137D01*
X136872373Y-105319139D01*
X136757379Y-105407377D01*
X136757377Y-105407379D01*
X136669139Y-105522373D01*
X136669137Y-105522377D01*
X136613670Y-105656288D01*
X136613669Y-105656290D01*
X136594750Y-105799996D01*
X129000000Y-105799996D01*
X129000000Y-103039996D01*
X142644750Y-103039996D01*
X142644750Y-103040003D01*
X142663669Y-103183709D01*
X142663670Y-103183711D01*
X142719137Y-103317622D01*
X142719139Y-103317626D01*
X142807377Y-103432620D01*
X142807379Y-103432622D01*
X142922373Y-103520860D01*
X142922377Y-103520862D01*
X143056288Y-103576329D01*
X143056290Y-103576330D01*
X143199997Y-103595250D01*
X143200000Y-103595250D01*
X143200003Y-103595250D01*
X143343709Y-103576330D01*
X143343711Y-103576329D01*
X143351048Y-103573290D01*
X143477625Y-103520861D01*
X143592621Y-103432621D01*
X143680861Y-103317625D01*
X143736330Y-103183709D01*
X143736331Y-103183704D01*
X143755250Y-103040003D01*
X143755250Y-103039996D01*
X143736330Y-102896290D01*
X143736329Y-102896288D01*
X143680862Y-102762377D01*
X143680860Y-102762373D01*
X143592622Y-102647379D01*
X143592620Y-102647377D01*
X143477626Y-102559139D01*
X143477622Y-102559137D01*
X143343711Y-102503670D01*
X143343709Y-102503669D01*
X143200003Y-102484750D01*
X143199997Y-102484750D01*
X143056290Y-102503669D01*
X143056288Y-102503670D01*
X142922377Y-102559137D01*
X142922373Y-102559139D01*
X142807379Y-102647377D01*
X142807377Y-102647379D01*
X142719139Y-102762373D01*
X142719137Y-102762377D01*
X142663670Y-102896288D01*
X142663669Y-102896290D01*
X142644750Y-103039996D01*
X129000000Y-103039996D01*
X129000000Y-101999996D01*
X135094750Y-101999996D01*
X135094750Y-102000003D01*
X135113669Y-102143709D01*
X135113670Y-102143711D01*
X135169137Y-102277622D01*
X135169139Y-102277626D01*
X135257377Y-102392620D01*
X135257379Y-102392622D01*
X135372373Y-102480860D01*
X135372377Y-102480862D01*
X135506288Y-102536329D01*
X135506290Y-102536330D01*
X135649997Y-102555250D01*
X135650000Y-102555250D01*
X135650003Y-102555250D01*
X135793709Y-102536330D01*
X135793711Y-102536329D01*
X135872558Y-102503670D01*
X135927625Y-102480861D01*
X136042621Y-102392621D01*
X136130861Y-102277625D01*
X136163016Y-102199996D01*
X140044750Y-102199996D01*
X140044750Y-102200003D01*
X140063669Y-102343709D01*
X140063670Y-102343711D01*
X140119137Y-102477622D01*
X140119139Y-102477626D01*
X140207377Y-102592620D01*
X140207379Y-102592622D01*
X140322373Y-102680860D01*
X140322377Y-102680862D01*
X140456288Y-102736329D01*
X140456290Y-102736330D01*
X140599997Y-102755250D01*
X140600000Y-102755250D01*
X140600003Y-102755250D01*
X140743709Y-102736330D01*
X140743711Y-102736329D01*
X140877625Y-102680861D01*
X140935660Y-102636329D01*
X140992620Y-102592622D01*
X140992622Y-102592620D01*
X141078378Y-102480861D01*
X141080861Y-102477625D01*
X141136330Y-102343709D01*
X141145031Y-102277622D01*
X141155250Y-102200003D01*
X141155250Y-102199996D01*
X141136330Y-102056290D01*
X141136329Y-102056288D01*
X141080862Y-101922377D01*
X141080860Y-101922373D01*
X140992622Y-101807379D01*
X140992620Y-101807377D01*
X140877626Y-101719139D01*
X140877622Y-101719137D01*
X140743711Y-101663670D01*
X140743709Y-101663669D01*
X140600003Y-101644750D01*
X140599997Y-101644750D01*
X140456290Y-101663669D01*
X140456288Y-101663670D01*
X140322377Y-101719137D01*
X140322373Y-101719139D01*
X140207379Y-101807377D01*
X140207377Y-101807379D01*
X140119139Y-101922373D01*
X140119137Y-101922377D01*
X140063670Y-102056288D01*
X140063669Y-102056290D01*
X140044750Y-102199996D01*
X136163016Y-102199996D01*
X136186330Y-102143709D01*
X136197839Y-102056290D01*
X136205250Y-102000003D01*
X136205250Y-101999996D01*
X136186330Y-101856290D01*
X136186329Y-101856288D01*
X136130862Y-101722377D01*
X136130860Y-101722373D01*
X136042622Y-101607379D01*
X136042620Y-101607377D01*
X135927626Y-101519139D01*
X135927622Y-101519137D01*
X135793711Y-101463670D01*
X135793709Y-101463669D01*
X135650003Y-101444750D01*
X135649997Y-101444750D01*
X135506290Y-101463669D01*
X135506288Y-101463670D01*
X135372377Y-101519137D01*
X135372373Y-101519139D01*
X135257379Y-101607377D01*
X135257377Y-101607379D01*
X135169139Y-101722373D01*
X135169137Y-101722377D01*
X135113670Y-101856288D01*
X135113669Y-101856290D01*
X135094750Y-101999996D01*
X129000000Y-101999996D01*
X129000000Y-101149996D01*
X144644750Y-101149996D01*
X144644750Y-101150003D01*
X144663669Y-101293709D01*
X144663670Y-101293711D01*
X144719137Y-101427622D01*
X144719139Y-101427626D01*
X144807377Y-101542620D01*
X144807379Y-101542622D01*
X144922373Y-101630860D01*
X144922377Y-101630862D01*
X145056282Y-101686327D01*
X145056286Y-101686328D01*
X145056291Y-101686330D01*
X145056295Y-101686330D01*
X145062769Y-101688065D01*
X145141071Y-101729444D01*
X145193666Y-101800699D01*
X145210135Y-101887717D01*
X145187218Y-101973264D01*
X145132422Y-102038161D01*
X145107377Y-102057379D01*
X145019139Y-102172373D01*
X145019137Y-102172377D01*
X144963670Y-102306288D01*
X144963669Y-102306290D01*
X144944750Y-102449996D01*
X144944750Y-102450003D01*
X144963669Y-102593709D01*
X144963670Y-102593711D01*
X145019137Y-102727622D01*
X145019139Y-102727626D01*
X145107377Y-102842620D01*
X145107379Y-102842622D01*
X145222373Y-102930860D01*
X145222377Y-102930862D01*
X145368341Y-102991322D01*
X145367117Y-102994275D01*
X145426061Y-103025427D01*
X145478652Y-103096685D01*
X145495117Y-103183704D01*
X145472195Y-103269250D01*
X145417400Y-103334141D01*
X145341997Y-103392000D01*
X145253759Y-103506993D01*
X145253757Y-103506997D01*
X145198290Y-103640908D01*
X145198289Y-103640910D01*
X145179370Y-103784616D01*
X145179370Y-103784623D01*
X145198289Y-103928329D01*
X145198290Y-103928331D01*
X145253757Y-104062242D01*
X145253759Y-104062246D01*
X145341997Y-104177240D01*
X145341999Y-104177242D01*
X145456993Y-104265480D01*
X145456997Y-104265482D01*
X145590908Y-104320949D01*
X145590910Y-104320950D01*
X145734617Y-104339870D01*
X145734620Y-104339870D01*
X145734623Y-104339870D01*
X145878329Y-104320950D01*
X145878331Y-104320949D01*
X146012245Y-104265481D01*
X146127241Y-104177241D01*
X146179132Y-104109616D01*
X158954370Y-104109616D01*
X158954370Y-104109623D01*
X158973289Y-104253329D01*
X158973290Y-104253331D01*
X159028757Y-104387242D01*
X159028759Y-104387246D01*
X159116997Y-104502240D01*
X159116999Y-104502242D01*
X159231993Y-104590480D01*
X159231997Y-104590482D01*
X159365908Y-104645949D01*
X159365910Y-104645950D01*
X159509617Y-104664870D01*
X159509620Y-104664870D01*
X159509623Y-104664870D01*
X159653329Y-104645950D01*
X159653331Y-104645949D01*
X159787245Y-104590481D01*
X159902241Y-104502241D01*
X159990481Y-104387245D01*
X160045950Y-104253329D01*
X160055967Y-104177242D01*
X160064870Y-104109623D01*
X160064870Y-104109616D01*
X160045950Y-103965910D01*
X160045949Y-103965908D01*
X159990482Y-103831997D01*
X159990480Y-103831993D01*
X159902242Y-103716999D01*
X159902240Y-103716997D01*
X159787246Y-103628759D01*
X159787242Y-103628757D01*
X159653331Y-103573290D01*
X159653329Y-103573289D01*
X159509623Y-103554370D01*
X159509617Y-103554370D01*
X159365910Y-103573289D01*
X159365908Y-103573290D01*
X159231997Y-103628757D01*
X159231993Y-103628759D01*
X159116999Y-103716997D01*
X159116997Y-103716999D01*
X159028759Y-103831993D01*
X159028757Y-103831997D01*
X158973290Y-103965908D01*
X158973289Y-103965910D01*
X158954370Y-104109616D01*
X146179132Y-104109616D01*
X146215481Y-104062245D01*
X146270950Y-103928329D01*
X146289870Y-103784620D01*
X146289870Y-103784616D01*
X146270950Y-103640910D01*
X146270949Y-103640908D01*
X146215482Y-103506997D01*
X146215480Y-103506993D01*
X146127242Y-103391999D01*
X146127240Y-103391997D01*
X146012246Y-103303759D01*
X146012242Y-103303757D01*
X145866279Y-103243298D01*
X145867500Y-103240347D01*
X145808533Y-103209170D01*
X145755954Y-103137904D01*
X145739503Y-103050882D01*
X145762439Y-102965340D01*
X145817219Y-102900479D01*
X145892621Y-102842621D01*
X145892622Y-102842620D01*
X145942123Y-102778110D01*
X146010320Y-102721606D01*
X146096279Y-102700288D01*
X146182975Y-102718377D01*
X146253237Y-102772291D01*
X146257877Y-102778110D01*
X146307377Y-102842620D01*
X146307379Y-102842622D01*
X146422373Y-102930860D01*
X146422377Y-102930862D01*
X146556288Y-102986329D01*
X146556290Y-102986330D01*
X146699997Y-103005250D01*
X146700000Y-103005250D01*
X146700003Y-103005250D01*
X146843709Y-102986330D01*
X146843711Y-102986329D01*
X146894384Y-102965340D01*
X146977625Y-102930861D01*
X147092621Y-102842621D01*
X147180861Y-102727625D01*
X147236330Y-102593709D01*
X147243884Y-102536330D01*
X147255250Y-102450003D01*
X147255250Y-102449996D01*
X147236330Y-102306290D01*
X147236329Y-102306288D01*
X147180862Y-102172377D01*
X147180860Y-102172373D01*
X147092622Y-102057379D01*
X147092620Y-102057377D01*
X146977626Y-101969139D01*
X146977622Y-101969137D01*
X146843711Y-101913670D01*
X146843709Y-101913669D01*
X146700003Y-101894750D01*
X146699997Y-101894750D01*
X146556290Y-101913669D01*
X146556288Y-101913670D01*
X146422377Y-101969137D01*
X146422373Y-101969139D01*
X146307380Y-102057377D01*
X146257877Y-102121890D01*
X146189679Y-102178393D01*
X146103720Y-102199711D01*
X146017024Y-102181622D01*
X145946762Y-102127707D01*
X145942123Y-102121890D01*
X145892619Y-102057377D01*
X145777626Y-101969139D01*
X145777622Y-101969137D01*
X145643713Y-101913670D01*
X145637223Y-101911932D01*
X145558922Y-101870551D01*
X145506330Y-101799294D01*
X145489864Y-101712275D01*
X145512784Y-101626729D01*
X145567582Y-101561834D01*
X145589846Y-101544750D01*
X145592621Y-101542621D01*
X145600004Y-101533000D01*
X145680860Y-101427626D01*
X145680859Y-101427626D01*
X145680861Y-101427625D01*
X145736330Y-101293709D01*
X145755250Y-101150000D01*
X145755250Y-101149996D01*
X148044750Y-101149996D01*
X148044750Y-101150003D01*
X148063669Y-101293709D01*
X148063670Y-101293711D01*
X148119137Y-101427622D01*
X148119139Y-101427626D01*
X148207377Y-101542620D01*
X148207379Y-101542622D01*
X148332722Y-101638801D01*
X148331107Y-101640904D01*
X148381761Y-101687910D01*
X148414111Y-101770354D01*
X148407487Y-101858669D01*
X148363200Y-101935364D01*
X148331994Y-101960250D01*
X148332722Y-101961199D01*
X148207379Y-102057377D01*
X148207377Y-102057379D01*
X148119139Y-102172373D01*
X148119137Y-102172377D01*
X148063670Y-102306288D01*
X148063669Y-102306290D01*
X148044750Y-102449996D01*
X148044750Y-102450003D01*
X148063669Y-102593709D01*
X148063670Y-102593711D01*
X148119137Y-102727622D01*
X148119139Y-102727626D01*
X148207377Y-102842620D01*
X148207379Y-102842622D01*
X148322373Y-102930860D01*
X148322377Y-102930862D01*
X148456288Y-102986329D01*
X148456290Y-102986330D01*
X148599997Y-103005250D01*
X148600000Y-103005250D01*
X148600003Y-103005250D01*
X148743709Y-102986330D01*
X148743711Y-102986329D01*
X148794384Y-102965340D01*
X148877625Y-102930861D01*
X148992621Y-102842621D01*
X149080861Y-102727625D01*
X149136330Y-102593709D01*
X149143884Y-102536330D01*
X149155250Y-102450003D01*
X149155250Y-102449996D01*
X149136330Y-102306290D01*
X149136329Y-102306288D01*
X149080862Y-102172377D01*
X149080860Y-102172373D01*
X148992622Y-102057379D01*
X148992620Y-102057377D01*
X148867278Y-101961199D01*
X148868893Y-101959094D01*
X148818247Y-101912102D01*
X148785890Y-101829661D01*
X148792507Y-101741346D01*
X148836788Y-101664647D01*
X148868007Y-101639751D01*
X148867278Y-101638801D01*
X148992620Y-101542622D01*
X148992622Y-101542620D01*
X149036741Y-101485123D01*
X149080861Y-101427625D01*
X149136330Y-101293709D01*
X149155250Y-101150000D01*
X149155250Y-101149996D01*
X149153983Y-101140376D01*
X150785130Y-101140376D01*
X150785130Y-101140383D01*
X150804049Y-101284089D01*
X150804050Y-101284091D01*
X150859517Y-101418002D01*
X150859519Y-101418006D01*
X150947757Y-101533000D01*
X150947759Y-101533002D01*
X151062753Y-101621240D01*
X151062757Y-101621242D01*
X151165187Y-101663669D01*
X151196671Y-101676710D01*
X151285565Y-101688413D01*
X151368594Y-101719221D01*
X151430036Y-101783004D01*
X151457719Y-101867130D01*
X151446159Y-101954936D01*
X151397647Y-102029031D01*
X151380733Y-102043586D01*
X151362757Y-102057379D01*
X151274519Y-102172373D01*
X151274517Y-102172377D01*
X151219050Y-102306288D01*
X151219049Y-102306290D01*
X151200130Y-102449996D01*
X151200130Y-102450003D01*
X151219049Y-102593709D01*
X151219050Y-102593711D01*
X151274517Y-102727622D01*
X151274519Y-102727626D01*
X151362757Y-102842620D01*
X151362759Y-102842622D01*
X151477753Y-102930860D01*
X151477757Y-102930862D01*
X151611668Y-102986329D01*
X151611670Y-102986330D01*
X151755377Y-103005250D01*
X151755380Y-103005250D01*
X151755383Y-103005250D01*
X151899089Y-102986330D01*
X151899091Y-102986329D01*
X151949764Y-102965340D01*
X152033005Y-102930861D01*
X152148001Y-102842621D01*
X152236241Y-102727625D01*
X152291710Y-102593709D01*
X152299264Y-102536330D01*
X152310630Y-102450003D01*
X152310630Y-102449996D01*
X152291710Y-102306290D01*
X152291709Y-102306288D01*
X152236242Y-102172377D01*
X152236240Y-102172373D01*
X152180703Y-102099996D01*
X161844750Y-102099996D01*
X161844750Y-102100003D01*
X161863669Y-102243709D01*
X161863670Y-102243711D01*
X161919137Y-102377622D01*
X161919139Y-102377626D01*
X162007377Y-102492620D01*
X162007379Y-102492622D01*
X162122373Y-102580860D01*
X162122377Y-102580862D01*
X162256288Y-102636329D01*
X162256290Y-102636330D01*
X162399997Y-102655250D01*
X162400000Y-102655250D01*
X162400003Y-102655250D01*
X162543709Y-102636330D01*
X162543711Y-102636329D01*
X162677625Y-102580861D01*
X162792621Y-102492621D01*
X162825329Y-102449996D01*
X162880860Y-102377626D01*
X162880859Y-102377626D01*
X162880861Y-102377625D01*
X162936330Y-102243709D01*
X162945721Y-102172377D01*
X162955250Y-102100003D01*
X162955250Y-102099996D01*
X162936330Y-101956290D01*
X162936329Y-101956288D01*
X162880862Y-101822377D01*
X162880860Y-101822373D01*
X162792622Y-101707379D01*
X162792620Y-101707377D01*
X162677626Y-101619139D01*
X162677622Y-101619137D01*
X162543711Y-101563670D01*
X162543709Y-101563669D01*
X162400003Y-101544750D01*
X162399997Y-101544750D01*
X162256290Y-101563669D01*
X162256288Y-101563670D01*
X162122377Y-101619137D01*
X162122373Y-101619139D01*
X162007379Y-101707377D01*
X162007377Y-101707379D01*
X161919139Y-101822373D01*
X161919137Y-101822377D01*
X161863670Y-101956288D01*
X161863669Y-101956290D01*
X161844750Y-102099996D01*
X152180703Y-102099996D01*
X152148002Y-102057379D01*
X152148000Y-102057377D01*
X152033006Y-101969139D01*
X152033002Y-101969137D01*
X151899091Y-101913670D01*
X151899089Y-101913669D01*
X151810195Y-101901966D01*
X151727163Y-101871157D01*
X151665722Y-101807373D01*
X151638040Y-101723247D01*
X151649600Y-101635442D01*
X151698113Y-101561347D01*
X151715019Y-101546798D01*
X151733001Y-101533001D01*
X151733002Y-101532999D01*
X151733004Y-101532998D01*
X151800719Y-101444750D01*
X151821241Y-101418005D01*
X151876710Y-101284089D01*
X151894363Y-101150003D01*
X151895630Y-101140383D01*
X151895630Y-101140376D01*
X151876710Y-100996670D01*
X151876709Y-100996668D01*
X151821242Y-100862757D01*
X151821240Y-100862753D01*
X151733002Y-100747759D01*
X151733000Y-100747757D01*
X151618006Y-100659519D01*
X151618002Y-100659517D01*
X151484091Y-100604050D01*
X151484089Y-100604049D01*
X151340383Y-100585130D01*
X151340377Y-100585130D01*
X151196670Y-100604049D01*
X151196668Y-100604050D01*
X151062757Y-100659517D01*
X151062753Y-100659519D01*
X150947759Y-100747757D01*
X150947757Y-100747759D01*
X150859519Y-100862753D01*
X150859517Y-100862757D01*
X150804050Y-100996668D01*
X150804049Y-100996670D01*
X150785130Y-101140376D01*
X149153983Y-101140376D01*
X149136330Y-101006290D01*
X149136329Y-101006288D01*
X149080862Y-100872377D01*
X149080860Y-100872373D01*
X148992622Y-100757379D01*
X148992620Y-100757377D01*
X148877626Y-100669139D01*
X148877622Y-100669137D01*
X148743711Y-100613670D01*
X148743709Y-100613669D01*
X148600003Y-100594750D01*
X148599997Y-100594750D01*
X148456290Y-100613669D01*
X148456288Y-100613670D01*
X148322377Y-100669137D01*
X148322373Y-100669139D01*
X148207379Y-100757377D01*
X148207377Y-100757379D01*
X148119139Y-100872373D01*
X148119137Y-100872377D01*
X148063670Y-101006288D01*
X148063669Y-101006290D01*
X148044750Y-101149996D01*
X145755250Y-101149996D01*
X145736330Y-101006290D01*
X145736329Y-101006288D01*
X145680862Y-100872377D01*
X145680860Y-100872373D01*
X145592622Y-100757379D01*
X145592620Y-100757377D01*
X145477626Y-100669139D01*
X145477622Y-100669137D01*
X145343711Y-100613670D01*
X145343709Y-100613669D01*
X145200003Y-100594750D01*
X145199997Y-100594750D01*
X145056290Y-100613669D01*
X145056288Y-100613670D01*
X144922377Y-100669137D01*
X144922373Y-100669139D01*
X144807379Y-100757377D01*
X144807377Y-100757379D01*
X144719139Y-100872373D01*
X144719137Y-100872377D01*
X144663670Y-101006288D01*
X144663669Y-101006290D01*
X144644750Y-101149996D01*
X129000000Y-101149996D01*
X129000000Y-99133001D01*
X136277069Y-99133001D01*
X136277069Y-99133008D01*
X136295988Y-99276714D01*
X136295989Y-99276716D01*
X136351456Y-99410627D01*
X136351458Y-99410631D01*
X136439696Y-99525625D01*
X136439698Y-99525627D01*
X136554692Y-99613865D01*
X136554696Y-99613867D01*
X136688607Y-99669334D01*
X136688609Y-99669335D01*
X136832316Y-99688255D01*
X136832319Y-99688255D01*
X136930345Y-99675349D01*
X137018519Y-99683616D01*
X137094376Y-99729324D01*
X137142889Y-99803418D01*
X137154450Y-99891223D01*
X137140172Y-99948798D01*
X137115570Y-100008193D01*
X137096651Y-100151898D01*
X137096651Y-100151905D01*
X137115570Y-100295611D01*
X137115571Y-100295613D01*
X137171038Y-100429524D01*
X137171040Y-100429528D01*
X137259278Y-100544522D01*
X137259280Y-100544524D01*
X137374274Y-100632762D01*
X137374278Y-100632764D01*
X137508189Y-100688231D01*
X137508191Y-100688232D01*
X137651898Y-100707152D01*
X137651901Y-100707152D01*
X137651904Y-100707152D01*
X137795610Y-100688232D01*
X137795612Y-100688231D01*
X137929526Y-100632763D01*
X138044522Y-100544523D01*
X138045982Y-100542621D01*
X138132761Y-100429528D01*
X138132760Y-100429528D01*
X138132762Y-100429527D01*
X138188231Y-100295611D01*
X138201257Y-100196670D01*
X138207151Y-100151905D01*
X138207151Y-100151898D01*
X138188231Y-100008192D01*
X138188230Y-100008190D01*
X138132763Y-99874279D01*
X138132761Y-99874275D01*
X138044523Y-99759281D01*
X138044521Y-99759279D01*
X137929527Y-99671041D01*
X137929523Y-99671039D01*
X137795612Y-99615572D01*
X137795610Y-99615571D01*
X137651904Y-99596652D01*
X137651902Y-99596652D01*
X137651901Y-99596652D01*
X137553873Y-99609557D01*
X137465698Y-99601289D01*
X137389842Y-99555581D01*
X137341329Y-99481486D01*
X137329769Y-99393681D01*
X137344046Y-99336109D01*
X137368649Y-99276714D01*
X137381370Y-99180091D01*
X137387569Y-99133008D01*
X137387569Y-99133001D01*
X137368649Y-98989295D01*
X137368648Y-98989293D01*
X137313181Y-98855382D01*
X137313179Y-98855378D01*
X137224941Y-98740384D01*
X137224939Y-98740382D01*
X137109945Y-98652144D01*
X137109941Y-98652142D01*
X136976030Y-98596675D01*
X136976028Y-98596674D01*
X136832322Y-98577755D01*
X136832316Y-98577755D01*
X136688609Y-98596674D01*
X136688607Y-98596675D01*
X136554696Y-98652142D01*
X136554692Y-98652144D01*
X136439698Y-98740382D01*
X136439696Y-98740384D01*
X136351458Y-98855378D01*
X136351456Y-98855382D01*
X136295989Y-98989293D01*
X136295988Y-98989295D01*
X136277069Y-99133001D01*
X129000000Y-99133001D01*
X129000000Y-97532660D01*
X137877410Y-97532660D01*
X137877410Y-97532667D01*
X137896329Y-97676373D01*
X137896330Y-97676375D01*
X137951797Y-97810286D01*
X137951799Y-97810290D01*
X138040037Y-97925284D01*
X138040039Y-97925286D01*
X138155033Y-98013524D01*
X138155037Y-98013526D01*
X138288948Y-98068993D01*
X138288950Y-98068994D01*
X138432657Y-98087914D01*
X138432660Y-98087914D01*
X138432663Y-98087914D01*
X138589300Y-98067292D01*
X138589646Y-98069923D01*
X138658670Y-98067333D01*
X138739847Y-98102740D01*
X138797624Y-98169862D01*
X138820555Y-98255405D01*
X138816085Y-98295104D01*
X138817273Y-98295261D01*
X138796651Y-98451897D01*
X138796651Y-98451904D01*
X138815570Y-98595610D01*
X138815571Y-98595612D01*
X138871038Y-98729523D01*
X138871040Y-98729527D01*
X138959278Y-98844521D01*
X138959280Y-98844523D01*
X139074274Y-98932761D01*
X139074278Y-98932763D01*
X139208189Y-98988230D01*
X139208191Y-98988231D01*
X139351898Y-99007151D01*
X139351901Y-99007151D01*
X139351904Y-99007151D01*
X139508541Y-98986529D01*
X139508887Y-98989158D01*
X139577930Y-98986575D01*
X139659104Y-99021990D01*
X139716874Y-99089119D01*
X139739796Y-99174664D01*
X139735325Y-99214344D01*
X139736512Y-99214501D01*
X139715890Y-99371137D01*
X139715890Y-99371144D01*
X139734809Y-99514850D01*
X139734810Y-99514852D01*
X139790277Y-99648763D01*
X139790279Y-99648767D01*
X139878517Y-99763761D01*
X139878519Y-99763763D01*
X139993513Y-99852001D01*
X139993517Y-99852003D01*
X140127428Y-99907470D01*
X140127430Y-99907471D01*
X140271137Y-99926391D01*
X140271140Y-99926391D01*
X140271142Y-99926391D01*
X140399931Y-99909435D01*
X140488108Y-99917703D01*
X140563965Y-99963411D01*
X140612478Y-100037505D01*
X140624038Y-100125310D01*
X140609761Y-100182882D01*
X140604049Y-100196671D01*
X140585130Y-100340376D01*
X140585130Y-100340383D01*
X140604049Y-100484089D01*
X140604050Y-100484091D01*
X140659517Y-100618002D01*
X140659519Y-100618006D01*
X140747757Y-100733000D01*
X140747759Y-100733002D01*
X140862753Y-100821240D01*
X140862757Y-100821242D01*
X140996668Y-100876709D01*
X140996670Y-100876710D01*
X141140377Y-100895630D01*
X141140380Y-100895630D01*
X141140383Y-100895630D01*
X141284089Y-100876710D01*
X141284091Y-100876709D01*
X141294550Y-100872377D01*
X141418005Y-100821241D01*
X141533001Y-100733001D01*
X141621241Y-100618005D01*
X141676710Y-100484089D01*
X141683893Y-100429528D01*
X141695630Y-100340383D01*
X141695630Y-100340376D01*
X141676710Y-100196670D01*
X141676709Y-100196668D01*
X141621242Y-100062757D01*
X141621240Y-100062753D01*
X141533002Y-99947759D01*
X141533000Y-99947757D01*
X141418006Y-99859519D01*
X141418002Y-99859517D01*
X141284091Y-99804050D01*
X141284089Y-99804049D01*
X141140383Y-99785130D01*
X141140381Y-99785130D01*
X141140380Y-99785130D01*
X141074397Y-99793817D01*
X141011586Y-99802086D01*
X140923410Y-99793817D01*
X140847553Y-99748108D01*
X140799041Y-99674014D01*
X140787481Y-99586208D01*
X140801761Y-99528632D01*
X140807470Y-99514850D01*
X140821191Y-99410630D01*
X140826390Y-99371144D01*
X140826390Y-99371137D01*
X140807470Y-99227431D01*
X140807469Y-99227429D01*
X140752002Y-99093518D01*
X140752000Y-99093514D01*
X140663762Y-98978520D01*
X140663760Y-98978518D01*
X140548766Y-98890280D01*
X140548762Y-98890278D01*
X140414851Y-98834811D01*
X140414849Y-98834810D01*
X140271143Y-98815891D01*
X140271137Y-98815891D01*
X140114500Y-98836513D01*
X140114154Y-98833886D01*
X140045074Y-98836459D01*
X139963906Y-98801029D01*
X139906149Y-98733890D01*
X139883243Y-98648340D01*
X139887716Y-98608697D01*
X139886529Y-98608541D01*
X139907151Y-98451904D01*
X139907151Y-98451897D01*
X139888231Y-98308191D01*
X139888230Y-98308189D01*
X139832763Y-98174278D01*
X139832761Y-98174274D01*
X139744523Y-98059280D01*
X139744521Y-98059278D01*
X139629527Y-97971040D01*
X139629523Y-97971038D01*
X139495612Y-97915571D01*
X139495610Y-97915570D01*
X139351904Y-97896651D01*
X139351898Y-97896651D01*
X139195261Y-97917273D01*
X139194915Y-97914645D01*
X139125854Y-97917224D01*
X139044683Y-97881802D01*
X138986919Y-97814670D01*
X138964004Y-97729122D01*
X138968475Y-97689460D01*
X138967288Y-97689304D01*
X138987910Y-97532667D01*
X138987910Y-97532660D01*
X138968990Y-97388954D01*
X138968989Y-97388952D01*
X138913522Y-97255041D01*
X138913520Y-97255037D01*
X138825282Y-97140043D01*
X138825280Y-97140041D01*
X138710286Y-97051803D01*
X138710282Y-97051801D01*
X138576371Y-96996334D01*
X138576369Y-96996333D01*
X138432663Y-96977414D01*
X138432657Y-96977414D01*
X138288950Y-96996333D01*
X138288948Y-96996334D01*
X138155037Y-97051801D01*
X138155033Y-97051803D01*
X138040039Y-97140041D01*
X138040037Y-97140043D01*
X137951799Y-97255037D01*
X137951797Y-97255041D01*
X137896330Y-97388952D01*
X137896329Y-97388954D01*
X137877410Y-97532660D01*
X129000000Y-97532660D01*
X129000000Y-95849996D01*
X142844750Y-95849996D01*
X142844750Y-95850003D01*
X142863669Y-95993709D01*
X142863670Y-95993711D01*
X142919137Y-96127622D01*
X142919139Y-96127626D01*
X143007377Y-96242620D01*
X143007379Y-96242622D01*
X143132722Y-96338801D01*
X143131107Y-96340904D01*
X143181761Y-96387910D01*
X143214111Y-96470354D01*
X143207487Y-96558669D01*
X143163200Y-96635364D01*
X143131994Y-96660250D01*
X143132722Y-96661199D01*
X143007379Y-96757377D01*
X143007377Y-96757379D01*
X142919139Y-96872373D01*
X142919137Y-96872377D01*
X142863670Y-97006288D01*
X142863669Y-97006290D01*
X142844750Y-97149996D01*
X142844750Y-97150003D01*
X142863669Y-97293709D01*
X142863670Y-97293711D01*
X142919137Y-97427622D01*
X142919139Y-97427626D01*
X143007377Y-97542620D01*
X143007379Y-97542622D01*
X143132722Y-97638801D01*
X143131107Y-97640904D01*
X143181761Y-97687910D01*
X143214111Y-97770354D01*
X143207487Y-97858669D01*
X143163200Y-97935364D01*
X143131994Y-97960250D01*
X143132722Y-97961199D01*
X143007379Y-98057377D01*
X143007377Y-98057379D01*
X142919139Y-98172373D01*
X142919137Y-98172377D01*
X142863670Y-98306288D01*
X142863669Y-98306290D01*
X142844750Y-98449996D01*
X142844750Y-98450003D01*
X142863669Y-98593709D01*
X142863670Y-98593711D01*
X142919137Y-98727622D01*
X142919139Y-98727626D01*
X143007377Y-98842620D01*
X143007379Y-98842622D01*
X143122373Y-98930860D01*
X143122374Y-98930860D01*
X143122375Y-98930861D01*
X143126967Y-98932763D01*
X143147210Y-98941148D01*
X143219438Y-98992398D01*
X143262278Y-99069910D01*
X143267243Y-99158334D01*
X143233351Y-99240156D01*
X143167314Y-99299170D01*
X143147210Y-99308852D01*
X143122373Y-99319139D01*
X143007379Y-99407377D01*
X143007377Y-99407379D01*
X142919139Y-99522373D01*
X142919137Y-99522377D01*
X142863670Y-99656288D01*
X142863669Y-99656290D01*
X142844750Y-99799996D01*
X142844750Y-99800003D01*
X142863669Y-99943709D01*
X142863670Y-99943711D01*
X142919137Y-100077622D01*
X142919139Y-100077626D01*
X143007377Y-100192620D01*
X143007379Y-100192622D01*
X143122373Y-100280860D01*
X143122377Y-100280862D01*
X143256288Y-100336329D01*
X143256290Y-100336330D01*
X143399997Y-100355250D01*
X143400000Y-100355250D01*
X143400003Y-100355250D01*
X143543709Y-100336330D01*
X143543711Y-100336329D01*
X143677625Y-100280861D01*
X143787343Y-100196671D01*
X143792620Y-100192622D01*
X143792622Y-100192620D01*
X143880860Y-100077626D01*
X143880859Y-100077626D01*
X143880861Y-100077625D01*
X143936330Y-99943709D01*
X143945471Y-99874277D01*
X143955250Y-99800003D01*
X143955250Y-99799996D01*
X143936330Y-99656290D01*
X143936329Y-99656288D01*
X143880862Y-99522377D01*
X143880860Y-99522373D01*
X143792622Y-99407379D01*
X143792620Y-99407377D01*
X143677626Y-99319139D01*
X143677622Y-99319137D01*
X143652791Y-99308852D01*
X143580562Y-99257604D01*
X143537722Y-99180091D01*
X143532755Y-99091667D01*
X143566647Y-99009845D01*
X143632683Y-98950831D01*
X143652791Y-98941148D01*
X143673033Y-98932763D01*
X143677625Y-98930861D01*
X143775996Y-98855378D01*
X143792620Y-98842622D01*
X143792622Y-98842620D01*
X143836741Y-98785123D01*
X143880861Y-98727625D01*
X143936330Y-98593709D01*
X143951560Y-98478027D01*
X143955250Y-98450003D01*
X143955250Y-98449996D01*
X143936330Y-98306290D01*
X143936329Y-98306288D01*
X143880862Y-98172377D01*
X143880860Y-98172373D01*
X143792622Y-98057379D01*
X143792620Y-98057377D01*
X143667278Y-97961199D01*
X143668893Y-97959094D01*
X143618247Y-97912102D01*
X143585890Y-97829661D01*
X143592507Y-97741346D01*
X143636788Y-97664647D01*
X143668007Y-97639751D01*
X143667278Y-97638801D01*
X143792620Y-97542622D01*
X143792622Y-97542620D01*
X143858029Y-97457380D01*
X143880861Y-97427625D01*
X143936330Y-97293709D01*
X143941421Y-97255037D01*
X143955250Y-97150003D01*
X143955250Y-97149996D01*
X143936330Y-97006290D01*
X143936329Y-97006288D01*
X143880862Y-96872377D01*
X143880860Y-96872373D01*
X143792622Y-96757379D01*
X143792620Y-96757377D01*
X143667278Y-96661199D01*
X143668893Y-96659094D01*
X143618247Y-96612102D01*
X143585890Y-96529661D01*
X143592507Y-96441346D01*
X143636788Y-96364647D01*
X143668007Y-96339751D01*
X143667278Y-96338801D01*
X143792620Y-96242622D01*
X143792622Y-96242620D01*
X143849006Y-96169139D01*
X143880861Y-96127625D01*
X143936330Y-95993709D01*
X143946148Y-95919137D01*
X143955250Y-95850003D01*
X143955250Y-95849996D01*
X146144750Y-95849996D01*
X146144750Y-95850003D01*
X146163669Y-95993709D01*
X146163670Y-95993711D01*
X146219137Y-96127622D01*
X146219139Y-96127626D01*
X146307377Y-96242620D01*
X146307379Y-96242622D01*
X146432722Y-96338801D01*
X146431107Y-96340904D01*
X146481761Y-96387910D01*
X146514111Y-96470354D01*
X146507487Y-96558669D01*
X146463200Y-96635364D01*
X146431994Y-96660250D01*
X146432722Y-96661199D01*
X146307379Y-96757377D01*
X146307377Y-96757379D01*
X146219139Y-96872373D01*
X146219137Y-96872377D01*
X146163670Y-97006288D01*
X146163669Y-97006290D01*
X146144750Y-97149996D01*
X146144750Y-97150003D01*
X146163669Y-97293709D01*
X146163670Y-97293711D01*
X146219137Y-97427622D01*
X146219139Y-97427626D01*
X146307377Y-97542620D01*
X146307379Y-97542622D01*
X146432722Y-97638801D01*
X146431107Y-97640904D01*
X146481761Y-97687910D01*
X146514111Y-97770354D01*
X146507487Y-97858669D01*
X146463200Y-97935364D01*
X146431994Y-97960250D01*
X146432722Y-97961199D01*
X146307379Y-98057377D01*
X146307377Y-98057379D01*
X146219139Y-98172373D01*
X146219137Y-98172377D01*
X146163670Y-98306288D01*
X146163669Y-98306290D01*
X146144750Y-98449996D01*
X146144750Y-98450003D01*
X146163669Y-98593709D01*
X146163670Y-98593711D01*
X146219137Y-98727622D01*
X146219139Y-98727626D01*
X146307377Y-98842620D01*
X146307379Y-98842622D01*
X146422373Y-98930860D01*
X146422374Y-98930860D01*
X146422375Y-98930861D01*
X146426967Y-98932763D01*
X146447210Y-98941148D01*
X146519438Y-98992398D01*
X146562278Y-99069910D01*
X146567243Y-99158334D01*
X146533351Y-99240156D01*
X146467314Y-99299170D01*
X146447210Y-99308852D01*
X146422373Y-99319139D01*
X146307379Y-99407377D01*
X146307377Y-99407379D01*
X146219139Y-99522373D01*
X146219137Y-99522377D01*
X146163670Y-99656288D01*
X146163669Y-99656290D01*
X146144750Y-99799996D01*
X146144750Y-99800003D01*
X146163669Y-99943709D01*
X146163670Y-99943711D01*
X146219137Y-100077622D01*
X146219139Y-100077626D01*
X146307377Y-100192620D01*
X146307379Y-100192622D01*
X146422373Y-100280860D01*
X146422377Y-100280862D01*
X146556288Y-100336329D01*
X146556290Y-100336330D01*
X146699997Y-100355250D01*
X146700000Y-100355250D01*
X146700003Y-100355250D01*
X146843709Y-100336330D01*
X146843711Y-100336329D01*
X146977625Y-100280861D01*
X147087343Y-100196671D01*
X147092620Y-100192622D01*
X147092622Y-100192620D01*
X147125329Y-100149996D01*
X162044750Y-100149996D01*
X162044750Y-100150003D01*
X162063669Y-100293709D01*
X162063670Y-100293711D01*
X162119137Y-100427622D01*
X162119139Y-100427626D01*
X162207377Y-100542620D01*
X162207379Y-100542622D01*
X162322373Y-100630860D01*
X162322377Y-100630862D01*
X162456288Y-100686329D01*
X162456290Y-100686330D01*
X162599997Y-100705250D01*
X162600000Y-100705250D01*
X162600003Y-100705250D01*
X162743709Y-100686330D01*
X162743711Y-100686329D01*
X162808442Y-100659517D01*
X162877625Y-100630861D01*
X162990141Y-100544524D01*
X162992620Y-100542622D01*
X162992622Y-100542620D01*
X163079401Y-100429528D01*
X163080861Y-100427625D01*
X163136330Y-100293709D01*
X163150921Y-100182882D01*
X163155250Y-100150003D01*
X163155250Y-100149996D01*
X163136330Y-100006290D01*
X163136329Y-100006288D01*
X163080862Y-99872377D01*
X163080860Y-99872373D01*
X162992622Y-99757379D01*
X162992620Y-99757377D01*
X162877626Y-99669139D01*
X162877622Y-99669137D01*
X162743711Y-99613670D01*
X162743709Y-99613669D01*
X162600003Y-99594750D01*
X162599997Y-99594750D01*
X162456290Y-99613669D01*
X162456288Y-99613670D01*
X162322377Y-99669137D01*
X162322373Y-99669139D01*
X162207379Y-99757377D01*
X162207377Y-99757379D01*
X162119139Y-99872373D01*
X162119137Y-99872377D01*
X162063670Y-100006288D01*
X162063669Y-100006290D01*
X162044750Y-100149996D01*
X147125329Y-100149996D01*
X147180860Y-100077626D01*
X147180859Y-100077626D01*
X147180861Y-100077625D01*
X147236330Y-99943709D01*
X147245471Y-99874277D01*
X147255250Y-99800003D01*
X147255250Y-99799996D01*
X147236330Y-99656290D01*
X147236329Y-99656288D01*
X147180862Y-99522377D01*
X147180860Y-99522373D01*
X147092622Y-99407379D01*
X147092620Y-99407377D01*
X146977626Y-99319139D01*
X146977622Y-99319137D01*
X146952791Y-99308852D01*
X146880562Y-99257604D01*
X146837722Y-99180091D01*
X146832755Y-99091667D01*
X146866647Y-99009845D01*
X146932683Y-98950831D01*
X146952791Y-98941148D01*
X146973033Y-98932763D01*
X146977625Y-98930861D01*
X147075996Y-98855378D01*
X147092620Y-98842622D01*
X147092622Y-98842620D01*
X147102307Y-98829998D01*
X147624571Y-98829998D01*
X147624571Y-98830001D01*
X147626923Y-98855380D01*
X147644244Y-99042310D01*
X147702595Y-99247389D01*
X147797634Y-99438255D01*
X147797635Y-99438256D01*
X147797636Y-99438258D01*
X147926124Y-99608403D01*
X147926129Y-99608408D01*
X148083695Y-99752050D01*
X148083700Y-99752054D01*
X148264978Y-99864297D01*
X148264980Y-99864298D01*
X148463796Y-99941319D01*
X148463798Y-99941320D01*
X148463800Y-99941320D01*
X148463802Y-99941321D01*
X148673390Y-99980500D01*
X148673392Y-99980500D01*
X148886608Y-99980500D01*
X148886610Y-99980500D01*
X149096198Y-99941321D01*
X149295019Y-99864298D01*
X149302738Y-99859519D01*
X149476299Y-99752054D01*
X149476299Y-99752053D01*
X149476302Y-99752052D01*
X149633872Y-99608407D01*
X149762366Y-99438255D01*
X149857405Y-99247389D01*
X149858597Y-99243196D01*
X149860065Y-99240520D01*
X149860724Y-99238820D01*
X149860949Y-99238907D01*
X149901181Y-99165545D01*
X149973241Y-99114058D01*
X150060503Y-99098935D01*
X150145686Y-99123172D01*
X150211916Y-99181968D01*
X150241401Y-99243195D01*
X150242595Y-99247389D01*
X150337634Y-99438255D01*
X150337635Y-99438256D01*
X150337636Y-99438258D01*
X150466124Y-99608403D01*
X150466129Y-99608408D01*
X150623695Y-99752050D01*
X150623700Y-99752054D01*
X150804978Y-99864297D01*
X150804980Y-99864298D01*
X151003796Y-99941319D01*
X151003798Y-99941320D01*
X151003800Y-99941320D01*
X151003802Y-99941321D01*
X151213390Y-99980500D01*
X151213392Y-99980500D01*
X151426608Y-99980500D01*
X151426610Y-99980500D01*
X151636198Y-99941321D01*
X151835019Y-99864298D01*
X151842738Y-99859519D01*
X152016299Y-99752054D01*
X152016299Y-99752053D01*
X152016302Y-99752052D01*
X152173872Y-99608407D01*
X152302366Y-99438255D01*
X152397405Y-99247389D01*
X152398597Y-99243196D01*
X152400065Y-99240520D01*
X152400724Y-99238820D01*
X152400949Y-99238907D01*
X152441181Y-99165545D01*
X152513241Y-99114058D01*
X152600503Y-99098935D01*
X152685686Y-99123172D01*
X152751916Y-99181968D01*
X152781401Y-99243195D01*
X152782595Y-99247389D01*
X152877634Y-99438255D01*
X152877635Y-99438256D01*
X152877636Y-99438258D01*
X153006124Y-99608403D01*
X153006129Y-99608408D01*
X153163695Y-99752050D01*
X153163700Y-99752054D01*
X153344978Y-99864297D01*
X153344980Y-99864298D01*
X153543796Y-99941319D01*
X153543798Y-99941320D01*
X153543800Y-99941320D01*
X153543802Y-99941321D01*
X153753390Y-99980500D01*
X153753392Y-99980500D01*
X153966608Y-99980500D01*
X153966610Y-99980500D01*
X154176198Y-99941321D01*
X154375019Y-99864298D01*
X154382738Y-99859519D01*
X154556299Y-99752054D01*
X154556299Y-99752053D01*
X154556302Y-99752052D01*
X154713872Y-99608407D01*
X154842366Y-99438255D01*
X154937405Y-99247389D01*
X154938597Y-99243196D01*
X154940065Y-99240520D01*
X154940724Y-99238820D01*
X154940949Y-99238907D01*
X154981181Y-99165545D01*
X155053241Y-99114058D01*
X155140503Y-99098935D01*
X155225686Y-99123172D01*
X155291916Y-99181968D01*
X155321401Y-99243195D01*
X155322595Y-99247389D01*
X155417634Y-99438255D01*
X155417635Y-99438256D01*
X155417636Y-99438258D01*
X155546124Y-99608403D01*
X155546129Y-99608408D01*
X155703695Y-99752050D01*
X155703700Y-99752054D01*
X155884978Y-99864297D01*
X155884980Y-99864298D01*
X156083796Y-99941319D01*
X156083798Y-99941320D01*
X156083800Y-99941320D01*
X156083802Y-99941321D01*
X156293390Y-99980500D01*
X156293392Y-99980500D01*
X156506608Y-99980500D01*
X156506610Y-99980500D01*
X156716198Y-99941321D01*
X156915019Y-99864298D01*
X156922738Y-99859519D01*
X157096299Y-99752054D01*
X157096299Y-99752053D01*
X157096302Y-99752052D01*
X157253872Y-99608407D01*
X157382366Y-99438255D01*
X157477405Y-99247389D01*
X157535756Y-99042310D01*
X157554260Y-98842620D01*
X157555429Y-98830001D01*
X157555429Y-98829998D01*
X157546119Y-98729526D01*
X157535756Y-98617690D01*
X157477405Y-98412611D01*
X157382366Y-98221745D01*
X157345082Y-98172373D01*
X157253875Y-98051596D01*
X157253870Y-98051591D01*
X157096304Y-97907949D01*
X157096299Y-97907945D01*
X157002709Y-97849997D01*
X162209823Y-97849997D01*
X162209823Y-97850004D01*
X162228742Y-97993710D01*
X162228743Y-97993712D01*
X162284210Y-98127623D01*
X162284212Y-98127627D01*
X162372450Y-98242621D01*
X162372452Y-98242623D01*
X162487446Y-98330861D01*
X162487450Y-98330863D01*
X162621361Y-98386330D01*
X162621363Y-98386331D01*
X162765070Y-98405251D01*
X162765073Y-98405251D01*
X162765076Y-98405251D01*
X162908782Y-98386331D01*
X162908784Y-98386330D01*
X163042698Y-98330862D01*
X163157694Y-98242622D01*
X163245934Y-98127626D01*
X163301403Y-97993710D01*
X163309085Y-97935364D01*
X163320323Y-97850004D01*
X163320323Y-97849997D01*
X163301403Y-97706291D01*
X163301402Y-97706289D01*
X163245935Y-97572378D01*
X163245933Y-97572374D01*
X163157695Y-97457380D01*
X163157693Y-97457378D01*
X163042699Y-97369140D01*
X163042695Y-97369138D01*
X162908784Y-97313671D01*
X162908782Y-97313670D01*
X162765076Y-97294751D01*
X162765070Y-97294751D01*
X162621363Y-97313670D01*
X162621361Y-97313671D01*
X162487450Y-97369138D01*
X162487446Y-97369140D01*
X162372452Y-97457378D01*
X162372450Y-97457380D01*
X162284212Y-97572374D01*
X162284210Y-97572378D01*
X162228743Y-97706289D01*
X162228742Y-97706291D01*
X162209823Y-97849997D01*
X157002709Y-97849997D01*
X156936001Y-97808693D01*
X156872965Y-97746484D01*
X156843164Y-97663086D01*
X156852499Y-97575016D01*
X156899121Y-97499718D01*
X156973797Y-97452105D01*
X157040761Y-97440500D01*
X158639750Y-97440500D01*
X158659155Y-97436639D01*
X158698231Y-97428867D01*
X158764552Y-97384552D01*
X158808867Y-97318231D01*
X158820500Y-97259748D01*
X158820500Y-96649996D01*
X160544750Y-96649996D01*
X160544750Y-96650003D01*
X160563669Y-96793709D01*
X160563670Y-96793711D01*
X160619137Y-96927622D01*
X160619139Y-96927626D01*
X160707377Y-97042620D01*
X160707379Y-97042622D01*
X160822373Y-97130860D01*
X160822377Y-97130862D01*
X160956288Y-97186329D01*
X160956290Y-97186330D01*
X161099997Y-97205250D01*
X161100000Y-97205250D01*
X161100003Y-97205250D01*
X161243709Y-97186330D01*
X161243711Y-97186329D01*
X161331411Y-97150003D01*
X161377625Y-97130861D01*
X161459016Y-97068407D01*
X161492620Y-97042622D01*
X161492622Y-97042620D01*
X161580860Y-96927626D01*
X161587385Y-96916326D01*
X161589549Y-96917575D01*
X161629913Y-96860674D01*
X161707421Y-96817826D01*
X161795845Y-96812851D01*
X161877670Y-96846734D01*
X161883675Y-96851166D01*
X161922373Y-96880860D01*
X161922377Y-96880862D01*
X162056288Y-96936329D01*
X162056290Y-96936330D01*
X162199997Y-96955250D01*
X162200000Y-96955250D01*
X162200003Y-96955250D01*
X162343709Y-96936330D01*
X162343711Y-96936329D01*
X162477625Y-96880861D01*
X162544713Y-96829382D01*
X162592620Y-96792622D01*
X162592622Y-96792620D01*
X162674685Y-96685674D01*
X162680861Y-96677625D01*
X162736330Y-96543709D01*
X162755250Y-96400003D01*
X162755250Y-96399996D01*
X162736330Y-96256290D01*
X162736329Y-96256288D01*
X162680862Y-96122377D01*
X162680860Y-96122373D01*
X162592622Y-96007379D01*
X162592620Y-96007377D01*
X162477626Y-95919139D01*
X162477622Y-95919137D01*
X162343711Y-95863670D01*
X162343709Y-95863669D01*
X162200003Y-95844750D01*
X162199997Y-95844750D01*
X162056290Y-95863669D01*
X162056288Y-95863670D01*
X161922377Y-95919137D01*
X161922373Y-95919139D01*
X161807379Y-96007377D01*
X161807377Y-96007379D01*
X161719139Y-96122373D01*
X161712615Y-96133674D01*
X161710453Y-96132426D01*
X161670059Y-96189348D01*
X161592544Y-96232182D01*
X161504119Y-96237142D01*
X161422300Y-96203244D01*
X161416324Y-96198834D01*
X161377625Y-96169139D01*
X161377621Y-96169137D01*
X161243711Y-96113670D01*
X161243709Y-96113669D01*
X161100003Y-96094750D01*
X161099997Y-96094750D01*
X160956290Y-96113669D01*
X160956288Y-96113670D01*
X160822377Y-96169137D01*
X160822373Y-96169139D01*
X160707379Y-96257377D01*
X160707377Y-96257379D01*
X160619139Y-96372373D01*
X160619137Y-96372377D01*
X160563670Y-96506288D01*
X160563669Y-96506290D01*
X160544750Y-96649996D01*
X158820500Y-96649996D01*
X158820500Y-95399996D01*
X165944750Y-95399996D01*
X165944750Y-95400003D01*
X165963669Y-95543709D01*
X165963670Y-95543711D01*
X166019137Y-95677622D01*
X166019138Y-95677624D01*
X166019139Y-95677625D01*
X166054584Y-95723817D01*
X166113187Y-95800190D01*
X166150115Y-95880688D01*
X166148459Y-95969235D01*
X166134844Y-96002996D01*
X166135762Y-96003377D01*
X166075302Y-96149341D01*
X166075301Y-96149343D01*
X166056382Y-96293049D01*
X166056382Y-96293056D01*
X166075301Y-96436762D01*
X166075302Y-96436764D01*
X166130769Y-96570675D01*
X166130771Y-96570679D01*
X166219009Y-96685673D01*
X166219011Y-96685675D01*
X166334005Y-96773913D01*
X166334009Y-96773915D01*
X166467920Y-96829382D01*
X166467922Y-96829383D01*
X166611629Y-96848303D01*
X166611632Y-96848303D01*
X166611635Y-96848303D01*
X166755341Y-96829383D01*
X166755343Y-96829382D01*
X166841462Y-96793711D01*
X166889257Y-96773914D01*
X166975954Y-96707389D01*
X167004252Y-96685675D01*
X167004254Y-96685673D01*
X167092492Y-96570679D01*
X167092491Y-96570679D01*
X167092493Y-96570678D01*
X167147962Y-96436762D01*
X167152802Y-96400000D01*
X167166882Y-96293056D01*
X167166882Y-96293049D01*
X167147962Y-96149343D01*
X167147961Y-96149341D01*
X167092494Y-96015430D01*
X167092493Y-96015429D01*
X167092493Y-96015428D01*
X167004253Y-95900432D01*
X167004252Y-95900431D01*
X166998444Y-95892862D01*
X166961516Y-95812365D01*
X166963172Y-95723817D01*
X166976789Y-95690056D01*
X166975870Y-95689676D01*
X167023116Y-95575610D01*
X167036330Y-95543709D01*
X167040558Y-95511593D01*
X167055250Y-95400003D01*
X167055250Y-95399996D01*
X167036330Y-95256290D01*
X167036329Y-95256288D01*
X166980862Y-95122377D01*
X166980860Y-95122373D01*
X166892622Y-95007379D01*
X166892620Y-95007377D01*
X166777626Y-94919139D01*
X166777622Y-94919137D01*
X166643711Y-94863670D01*
X166643709Y-94863669D01*
X166500003Y-94844750D01*
X166499997Y-94844750D01*
X166356290Y-94863669D01*
X166356288Y-94863670D01*
X166222377Y-94919137D01*
X166222373Y-94919139D01*
X166107379Y-95007377D01*
X166107377Y-95007379D01*
X166019139Y-95122373D01*
X166019137Y-95122377D01*
X165963670Y-95256288D01*
X165963669Y-95256290D01*
X165944750Y-95399996D01*
X158820500Y-95399996D01*
X158820500Y-95320252D01*
X158808867Y-95261769D01*
X158804813Y-95255702D01*
X158764552Y-95195447D01*
X158698232Y-95151133D01*
X158639750Y-95139500D01*
X158639748Y-95139500D01*
X156700252Y-95139500D01*
X156700250Y-95139500D01*
X156641767Y-95151133D01*
X156575447Y-95195447D01*
X156531133Y-95261767D01*
X156519500Y-95320250D01*
X156519500Y-95653284D01*
X156499793Y-95739627D01*
X156444574Y-95808868D01*
X156364782Y-95847295D01*
X156276218Y-95847295D01*
X156196426Y-95808868D01*
X156142363Y-95741986D01*
X156112366Y-95681745D01*
X155983875Y-95511596D01*
X155983870Y-95511591D01*
X155826304Y-95367949D01*
X155826299Y-95367945D01*
X155645021Y-95255702D01*
X155645019Y-95255701D01*
X155446203Y-95178680D01*
X155446201Y-95178679D01*
X155320445Y-95155171D01*
X155236610Y-95139500D01*
X155023390Y-95139500D01*
X154953527Y-95152559D01*
X154813798Y-95178679D01*
X154813796Y-95178680D01*
X154614980Y-95255701D01*
X154614978Y-95255702D01*
X154433700Y-95367945D01*
X154433695Y-95367949D01*
X154276129Y-95511591D01*
X154276124Y-95511596D01*
X154147636Y-95681741D01*
X154052595Y-95872609D01*
X154051402Y-95876805D01*
X154049933Y-95879483D01*
X154049276Y-95881180D01*
X154049050Y-95881092D01*
X154008816Y-95954457D01*
X153936755Y-96005943D01*
X153849493Y-96021063D01*
X153764311Y-95996825D01*
X153698081Y-95938027D01*
X153668598Y-95876805D01*
X153667404Y-95872609D01*
X153627575Y-95792621D01*
X153572366Y-95681745D01*
X153538070Y-95636330D01*
X153443875Y-95511596D01*
X153443870Y-95511591D01*
X153286304Y-95367949D01*
X153286299Y-95367945D01*
X153105021Y-95255702D01*
X153105019Y-95255701D01*
X152906203Y-95178680D01*
X152906201Y-95178679D01*
X152780445Y-95155171D01*
X152696610Y-95139500D01*
X152483390Y-95139500D01*
X152378596Y-95159089D01*
X152273800Y-95178679D01*
X152121546Y-95237662D01*
X152033914Y-95250475D01*
X151949401Y-95223998D01*
X151884746Y-95163474D01*
X151852754Y-95080891D01*
X151852384Y-95078234D01*
X151836330Y-94956291D01*
X151780861Y-94822375D01*
X151780860Y-94822373D01*
X151692622Y-94707379D01*
X151692620Y-94707377D01*
X151577626Y-94619139D01*
X151577622Y-94619137D01*
X151432079Y-94558852D01*
X151359850Y-94507604D01*
X151317010Y-94430091D01*
X151312044Y-94341667D01*
X151345935Y-94259845D01*
X151411971Y-94200831D01*
X151432079Y-94191148D01*
X151542673Y-94145338D01*
X151577625Y-94130861D01*
X151692621Y-94042621D01*
X151780861Y-93927625D01*
X151836330Y-93793709D01*
X151855250Y-93650003D01*
X151855250Y-93649996D01*
X151836330Y-93506290D01*
X151836329Y-93506288D01*
X151780862Y-93372377D01*
X151780860Y-93372373D01*
X151692622Y-93257379D01*
X151692620Y-93257377D01*
X151577626Y-93169139D01*
X151577622Y-93169137D01*
X151443711Y-93113670D01*
X151443709Y-93113669D01*
X151300003Y-93094750D01*
X151299997Y-93094750D01*
X151156290Y-93113669D01*
X151156288Y-93113670D01*
X151022377Y-93169137D01*
X151022373Y-93169139D01*
X150907379Y-93257377D01*
X150907377Y-93257379D01*
X150819139Y-93372373D01*
X150819137Y-93372377D01*
X150763670Y-93506288D01*
X150763669Y-93506290D01*
X150744750Y-93649996D01*
X150744750Y-93650003D01*
X150763669Y-93793709D01*
X150763670Y-93793711D01*
X150819137Y-93927622D01*
X150819139Y-93927626D01*
X150907377Y-94042620D01*
X150907379Y-94042622D01*
X151022373Y-94130860D01*
X151022374Y-94130861D01*
X151167921Y-94191148D01*
X151240150Y-94242397D01*
X151282989Y-94319909D01*
X151287955Y-94408333D01*
X151254064Y-94490155D01*
X151188027Y-94549169D01*
X151167921Y-94558852D01*
X151022374Y-94619138D01*
X151022373Y-94619139D01*
X150907379Y-94707377D01*
X150907377Y-94707379D01*
X150819139Y-94822373D01*
X150819137Y-94822377D01*
X150763670Y-94956288D01*
X150763669Y-94956290D01*
X150749577Y-95063331D01*
X150718768Y-95146362D01*
X150654984Y-95207804D01*
X150570858Y-95235486D01*
X150483053Y-95223926D01*
X150480394Y-95222917D01*
X150366207Y-95178681D01*
X150366201Y-95178679D01*
X150240445Y-95155171D01*
X150156610Y-95139500D01*
X149943390Y-95139500D01*
X149873527Y-95152559D01*
X149733798Y-95178679D01*
X149733796Y-95178680D01*
X149534980Y-95255701D01*
X149534978Y-95255702D01*
X149353700Y-95367945D01*
X149353695Y-95367949D01*
X149196129Y-95511591D01*
X149196124Y-95511596D01*
X149067636Y-95681741D01*
X148972596Y-95872608D01*
X148914244Y-96077689D01*
X148914244Y-96077690D01*
X148894571Y-96289998D01*
X148894571Y-96290001D01*
X148904407Y-96396155D01*
X148914244Y-96502310D01*
X148972595Y-96707389D01*
X149067634Y-96898255D01*
X149067635Y-96898256D01*
X149067636Y-96898258D01*
X149196124Y-97068403D01*
X149196129Y-97068408D01*
X149353695Y-97212050D01*
X149353700Y-97212054D01*
X149534978Y-97324297D01*
X149534980Y-97324298D01*
X149733796Y-97401319D01*
X149733798Y-97401320D01*
X149733800Y-97401320D01*
X149733802Y-97401321D01*
X149943390Y-97440500D01*
X149943392Y-97440500D01*
X150156608Y-97440500D01*
X150156610Y-97440500D01*
X150366198Y-97401321D01*
X150565019Y-97324298D01*
X150574820Y-97318230D01*
X150746299Y-97212054D01*
X150746299Y-97212053D01*
X150746302Y-97212052D01*
X150903872Y-97068407D01*
X151032366Y-96898255D01*
X151127405Y-96707389D01*
X151128597Y-96703196D01*
X151130065Y-96700520D01*
X151130724Y-96698820D01*
X151130949Y-96698907D01*
X151171181Y-96625545D01*
X151243241Y-96574058D01*
X151330503Y-96558935D01*
X151415686Y-96583172D01*
X151481916Y-96641968D01*
X151511401Y-96703195D01*
X151512595Y-96707389D01*
X151607634Y-96898255D01*
X151607635Y-96898256D01*
X151607636Y-96898258D01*
X151736124Y-97068403D01*
X151736129Y-97068408D01*
X151893695Y-97212050D01*
X151893700Y-97212054D01*
X152074978Y-97324297D01*
X152074980Y-97324298D01*
X152273796Y-97401319D01*
X152273798Y-97401320D01*
X152273800Y-97401320D01*
X152273802Y-97401321D01*
X152483390Y-97440500D01*
X152483392Y-97440500D01*
X152696608Y-97440500D01*
X152696610Y-97440500D01*
X152906198Y-97401321D01*
X153105019Y-97324298D01*
X153114820Y-97318230D01*
X153286299Y-97212054D01*
X153286299Y-97212053D01*
X153286302Y-97212052D01*
X153443872Y-97068407D01*
X153572366Y-96898255D01*
X153667405Y-96707389D01*
X153668597Y-96703196D01*
X153670065Y-96700520D01*
X153670724Y-96698820D01*
X153670949Y-96698907D01*
X153711181Y-96625545D01*
X153783241Y-96574058D01*
X153870503Y-96558935D01*
X153955686Y-96583172D01*
X154021916Y-96641968D01*
X154051401Y-96703195D01*
X154052595Y-96707389D01*
X154147634Y-96898255D01*
X154147635Y-96898256D01*
X154147636Y-96898258D01*
X154276124Y-97068403D01*
X154276129Y-97068408D01*
X154433695Y-97212050D01*
X154433700Y-97212054D01*
X154614978Y-97324297D01*
X154614980Y-97324298D01*
X154813796Y-97401319D01*
X154813798Y-97401320D01*
X154813800Y-97401320D01*
X154813802Y-97401321D01*
X155023390Y-97440500D01*
X155023392Y-97440500D01*
X155236608Y-97440500D01*
X155236610Y-97440500D01*
X155446198Y-97401321D01*
X155645019Y-97324298D01*
X155654820Y-97318230D01*
X155826299Y-97212054D01*
X155826299Y-97212053D01*
X155826302Y-97212052D01*
X155983872Y-97068407D01*
X156112366Y-96898255D01*
X156142362Y-96838013D01*
X156198489Y-96769507D01*
X156278782Y-96732137D01*
X156367338Y-96733305D01*
X156446616Y-96772781D01*
X156500916Y-96842745D01*
X156519500Y-96926715D01*
X156519500Y-97259748D01*
X156531133Y-97318231D01*
X156565685Y-97369942D01*
X156597269Y-97452680D01*
X156589826Y-97540930D01*
X156544830Y-97617211D01*
X156471192Y-97666415D01*
X156400223Y-97679500D01*
X156293390Y-97679500D01*
X156248401Y-97687910D01*
X156083798Y-97718679D01*
X156083796Y-97718680D01*
X155884980Y-97795701D01*
X155884978Y-97795702D01*
X155703700Y-97907945D01*
X155703695Y-97907949D01*
X155546129Y-98051591D01*
X155546124Y-98051596D01*
X155417636Y-98221741D01*
X155322595Y-98412609D01*
X155321402Y-98416805D01*
X155319933Y-98419483D01*
X155319276Y-98421180D01*
X155319050Y-98421092D01*
X155278816Y-98494457D01*
X155206755Y-98545943D01*
X155119493Y-98561063D01*
X155034311Y-98536825D01*
X154968081Y-98478027D01*
X154938598Y-98416805D01*
X154937404Y-98412609D01*
X154924319Y-98386330D01*
X154842366Y-98221745D01*
X154805082Y-98172373D01*
X154713875Y-98051596D01*
X154713870Y-98051591D01*
X154556304Y-97907949D01*
X154556299Y-97907945D01*
X154375021Y-97795702D01*
X154375019Y-97795701D01*
X154176203Y-97718680D01*
X154176201Y-97718679D01*
X154050445Y-97695171D01*
X153966610Y-97679500D01*
X153753390Y-97679500D01*
X153708401Y-97687910D01*
X153543798Y-97718679D01*
X153543796Y-97718680D01*
X153344980Y-97795701D01*
X153344978Y-97795702D01*
X153163700Y-97907945D01*
X153163695Y-97907949D01*
X153006129Y-98051591D01*
X153006124Y-98051596D01*
X152877636Y-98221741D01*
X152782595Y-98412609D01*
X152781402Y-98416805D01*
X152779933Y-98419483D01*
X152779276Y-98421180D01*
X152779050Y-98421092D01*
X152738816Y-98494457D01*
X152666755Y-98545943D01*
X152579493Y-98561063D01*
X152494311Y-98536825D01*
X152428081Y-98478027D01*
X152398598Y-98416805D01*
X152397404Y-98412609D01*
X152384319Y-98386330D01*
X152302366Y-98221745D01*
X152265082Y-98172373D01*
X152173875Y-98051596D01*
X152173870Y-98051591D01*
X152016304Y-97907949D01*
X152016299Y-97907945D01*
X151835021Y-97795702D01*
X151835019Y-97795701D01*
X151636203Y-97718680D01*
X151636201Y-97718679D01*
X151510445Y-97695171D01*
X151426610Y-97679500D01*
X151213390Y-97679500D01*
X151168401Y-97687910D01*
X151003798Y-97718679D01*
X151003796Y-97718680D01*
X150804980Y-97795701D01*
X150804978Y-97795702D01*
X150623700Y-97907945D01*
X150623695Y-97907949D01*
X150466129Y-98051591D01*
X150466124Y-98051596D01*
X150337636Y-98221741D01*
X150242595Y-98412609D01*
X150241402Y-98416805D01*
X150239933Y-98419483D01*
X150239276Y-98421180D01*
X150239050Y-98421092D01*
X150198816Y-98494457D01*
X150126755Y-98545943D01*
X150039493Y-98561063D01*
X149954311Y-98536825D01*
X149888081Y-98478027D01*
X149858598Y-98416805D01*
X149857404Y-98412609D01*
X149844319Y-98386330D01*
X149762366Y-98221745D01*
X149725082Y-98172373D01*
X149633875Y-98051596D01*
X149633870Y-98051591D01*
X149476304Y-97907949D01*
X149476299Y-97907945D01*
X149295021Y-97795702D01*
X149295019Y-97795701D01*
X149096203Y-97718680D01*
X149096201Y-97718679D01*
X148970445Y-97695171D01*
X148886610Y-97679500D01*
X148673390Y-97679500D01*
X148628401Y-97687910D01*
X148463798Y-97718679D01*
X148463796Y-97718680D01*
X148264980Y-97795701D01*
X148264978Y-97795702D01*
X148083700Y-97907945D01*
X148083695Y-97907949D01*
X147926129Y-98051591D01*
X147926124Y-98051596D01*
X147797636Y-98221741D01*
X147702596Y-98412608D01*
X147644244Y-98617689D01*
X147644244Y-98617690D01*
X147624571Y-98829998D01*
X147102307Y-98829998D01*
X147136741Y-98785123D01*
X147180861Y-98727625D01*
X147236330Y-98593709D01*
X147251560Y-98478027D01*
X147255250Y-98450003D01*
X147255250Y-98449996D01*
X147236330Y-98306290D01*
X147236329Y-98306288D01*
X147180862Y-98172377D01*
X147180860Y-98172373D01*
X147092622Y-98057379D01*
X147092620Y-98057377D01*
X146967278Y-97961199D01*
X146968893Y-97959094D01*
X146918247Y-97912102D01*
X146885890Y-97829661D01*
X146892507Y-97741346D01*
X146936788Y-97664647D01*
X146968007Y-97639751D01*
X146967278Y-97638801D01*
X147092620Y-97542622D01*
X147092622Y-97542620D01*
X147158029Y-97457380D01*
X147180861Y-97427625D01*
X147236330Y-97293709D01*
X147241421Y-97255037D01*
X147255250Y-97150003D01*
X147255250Y-97149996D01*
X147236330Y-97006290D01*
X147236329Y-97006288D01*
X147180862Y-96872377D01*
X147180860Y-96872373D01*
X147092622Y-96757379D01*
X147092620Y-96757377D01*
X146967278Y-96661199D01*
X146968893Y-96659094D01*
X146918247Y-96612102D01*
X146885890Y-96529661D01*
X146892507Y-96441346D01*
X146936788Y-96364647D01*
X146968007Y-96339751D01*
X146967278Y-96338801D01*
X147092620Y-96242622D01*
X147092622Y-96242620D01*
X147149006Y-96169139D01*
X147180861Y-96127625D01*
X147236330Y-95993709D01*
X147246148Y-95919137D01*
X147255250Y-95850003D01*
X147255250Y-95849996D01*
X147236330Y-95706290D01*
X147236329Y-95706288D01*
X147180862Y-95572377D01*
X147180860Y-95572373D01*
X147092622Y-95457379D01*
X147092620Y-95457377D01*
X146977626Y-95369139D01*
X146977622Y-95369137D01*
X146843711Y-95313670D01*
X146843709Y-95313669D01*
X146700003Y-95294750D01*
X146699997Y-95294750D01*
X146556290Y-95313669D01*
X146556288Y-95313670D01*
X146422377Y-95369137D01*
X146422373Y-95369139D01*
X146307379Y-95457377D01*
X146307377Y-95457379D01*
X146219139Y-95572373D01*
X146219137Y-95572377D01*
X146163670Y-95706288D01*
X146163669Y-95706290D01*
X146144750Y-95849996D01*
X143955250Y-95849996D01*
X143936330Y-95706290D01*
X143936329Y-95706288D01*
X143880862Y-95572377D01*
X143880860Y-95572373D01*
X143792622Y-95457379D01*
X143792620Y-95457377D01*
X143677626Y-95369139D01*
X143677622Y-95369137D01*
X143543711Y-95313670D01*
X143543709Y-95313669D01*
X143400003Y-95294750D01*
X143399997Y-95294750D01*
X143256290Y-95313669D01*
X143256288Y-95313670D01*
X143122377Y-95369137D01*
X143122373Y-95369139D01*
X143007379Y-95457377D01*
X143007377Y-95457379D01*
X142919139Y-95572373D01*
X142919137Y-95572377D01*
X142863670Y-95706288D01*
X142863669Y-95706290D01*
X142844750Y-95849996D01*
X129000000Y-95849996D01*
X129000000Y-92999995D01*
X143944357Y-92999995D01*
X143944357Y-93000004D01*
X143964890Y-93247813D01*
X144025938Y-93488883D01*
X144125824Y-93716603D01*
X144125829Y-93716611D01*
X144261831Y-93924779D01*
X144261833Y-93924782D01*
X144430249Y-94107732D01*
X144430256Y-94107738D01*
X144626490Y-94260473D01*
X144626493Y-94260475D01*
X144845185Y-94378826D01*
X144845188Y-94378827D01*
X144845190Y-94378828D01*
X145080386Y-94459571D01*
X145325665Y-94500500D01*
X145325668Y-94500500D01*
X145574332Y-94500500D01*
X145574335Y-94500500D01*
X145819614Y-94459571D01*
X146054810Y-94378828D01*
X146273509Y-94260474D01*
X146469744Y-94107738D01*
X146529688Y-94042622D01*
X146534571Y-94037316D01*
X146638164Y-93924785D01*
X146774173Y-93716607D01*
X146874063Y-93488881D01*
X146935108Y-93247821D01*
X146955643Y-93000000D01*
X146955643Y-92999995D01*
X146935109Y-92752186D01*
X146935108Y-92752183D01*
X146935108Y-92752179D01*
X146874063Y-92511119D01*
X146800630Y-92343709D01*
X146774175Y-92283396D01*
X146774170Y-92283388D01*
X146638168Y-92075220D01*
X146638166Y-92075217D01*
X146576912Y-92008677D01*
X146532933Y-91931805D01*
X146526663Y-91843464D01*
X146559344Y-91761151D01*
X146624502Y-91701169D01*
X146709233Y-91675398D01*
X146796754Y-91688943D01*
X146799384Y-91690009D01*
X146904558Y-91733574D01*
X147142541Y-91797341D01*
X147364380Y-91826546D01*
X147386803Y-91829499D01*
X147386809Y-91829500D01*
X147386811Y-91829500D01*
X147633191Y-91829500D01*
X147633194Y-91829499D01*
X147877459Y-91797341D01*
X148115442Y-91733574D01*
X148343065Y-91639289D01*
X148441663Y-91582363D01*
X148556426Y-91516106D01*
X148556428Y-91516104D01*
X148556427Y-91516104D01*
X148556435Y-91516100D01*
X148751900Y-91366115D01*
X148926115Y-91191900D01*
X149076100Y-90996435D01*
X149076104Y-90996427D01*
X149076106Y-90996426D01*
X149185252Y-90807377D01*
X149199289Y-90783065D01*
X149293574Y-90555442D01*
X149357341Y-90317459D01*
X149389500Y-90073189D01*
X149389500Y-89826811D01*
X149389499Y-89826803D01*
X157060500Y-89826803D01*
X157060500Y-90073196D01*
X157092658Y-90317454D01*
X157156425Y-90555438D01*
X157156427Y-90555444D01*
X157250708Y-90783060D01*
X157250713Y-90783069D01*
X157373893Y-90996426D01*
X157373895Y-90996428D01*
X157523887Y-91191903D01*
X157698096Y-91366112D01*
X157698100Y-91366115D01*
X157893565Y-91516100D01*
X157893568Y-91516101D01*
X157893571Y-91516104D01*
X157893573Y-91516106D01*
X158106930Y-91639286D01*
X158106939Y-91639291D01*
X158155376Y-91659354D01*
X158334558Y-91733574D01*
X158572541Y-91797341D01*
X158794380Y-91826546D01*
X158816803Y-91829499D01*
X158816809Y-91829500D01*
X158816811Y-91829500D01*
X159063191Y-91829500D01*
X159063194Y-91829499D01*
X159307459Y-91797341D01*
X159545442Y-91733574D01*
X159650527Y-91690046D01*
X159737834Y-91675212D01*
X159822936Y-91699729D01*
X159888973Y-91758742D01*
X159922865Y-91840564D01*
X159917900Y-91928988D01*
X159875061Y-92006501D01*
X159873088Y-92008676D01*
X159811833Y-92075217D01*
X159811831Y-92075220D01*
X159675829Y-92283388D01*
X159675824Y-92283396D01*
X159575938Y-92511116D01*
X159514890Y-92752186D01*
X159494357Y-92999995D01*
X159494357Y-93000004D01*
X159514890Y-93247813D01*
X159575938Y-93488883D01*
X159675824Y-93716603D01*
X159675829Y-93716611D01*
X159811831Y-93924779D01*
X159811833Y-93924782D01*
X159980249Y-94107732D01*
X159980256Y-94107738D01*
X160176490Y-94260473D01*
X160176493Y-94260475D01*
X160395185Y-94378826D01*
X160395188Y-94378827D01*
X160395190Y-94378828D01*
X160630386Y-94459571D01*
X160875665Y-94500500D01*
X160875668Y-94500500D01*
X161124332Y-94500500D01*
X161124335Y-94500500D01*
X161369614Y-94459571D01*
X161604810Y-94378828D01*
X161823509Y-94260474D01*
X162019744Y-94107738D01*
X162079688Y-94042622D01*
X162084571Y-94037316D01*
X162188164Y-93924785D01*
X162324173Y-93716607D01*
X162424063Y-93488881D01*
X162485108Y-93247821D01*
X162505643Y-93000000D01*
X162505643Y-92999995D01*
X162485109Y-92752186D01*
X162485108Y-92752183D01*
X162485108Y-92752179D01*
X162424063Y-92511119D01*
X162350630Y-92343709D01*
X162324175Y-92283396D01*
X162324170Y-92283388D01*
X162188168Y-92075220D01*
X162188166Y-92075217D01*
X162019750Y-91892267D01*
X162019743Y-91892261D01*
X161823509Y-91739526D01*
X161823506Y-91739524D01*
X161604814Y-91621173D01*
X161504437Y-91586714D01*
X161369614Y-91540429D01*
X161299534Y-91528735D01*
X161124340Y-91499500D01*
X161124335Y-91499500D01*
X160875665Y-91499500D01*
X160875659Y-91499500D01*
X160630385Y-91540429D01*
X160495561Y-91586714D01*
X160407498Y-91596110D01*
X160324079Y-91566365D01*
X160261826Y-91503373D01*
X160233070Y-91419608D01*
X160243506Y-91331662D01*
X160290234Y-91257781D01*
X160348019Y-91199996D01*
X163844750Y-91199996D01*
X163844750Y-91200003D01*
X163863669Y-91343709D01*
X163863670Y-91343711D01*
X163895592Y-91420777D01*
X163919139Y-91477625D01*
X163973608Y-91548610D01*
X163996817Y-91578857D01*
X164033744Y-91659354D01*
X164032088Y-91747902D01*
X163996817Y-91821143D01*
X163919137Y-91922378D01*
X163863670Y-92056288D01*
X163863669Y-92056290D01*
X163844750Y-92199996D01*
X163844750Y-92200003D01*
X163863669Y-92343709D01*
X163863670Y-92343711D01*
X163919137Y-92477622D01*
X163919139Y-92477626D01*
X164007377Y-92592620D01*
X164007379Y-92592622D01*
X164122373Y-92680860D01*
X164122377Y-92680862D01*
X164256288Y-92736329D01*
X164256290Y-92736330D01*
X164399997Y-92755250D01*
X164400000Y-92755250D01*
X164400003Y-92755250D01*
X164543709Y-92736330D01*
X164543711Y-92736329D01*
X164677625Y-92680861D01*
X164792621Y-92592621D01*
X164880861Y-92477625D01*
X164936330Y-92343709D01*
X164955250Y-92200000D01*
X164955250Y-92199996D01*
X164936330Y-92056290D01*
X164936329Y-92056288D01*
X164880862Y-91922377D01*
X164880861Y-91922376D01*
X164880861Y-91922375D01*
X164803182Y-91821142D01*
X164766255Y-91740647D01*
X164767911Y-91652099D01*
X164803183Y-91578856D01*
X164812768Y-91566365D01*
X164880861Y-91477625D01*
X164936330Y-91343709D01*
X164955250Y-91200000D01*
X164955250Y-91199996D01*
X164936330Y-91056290D01*
X164936329Y-91056288D01*
X164880862Y-90922377D01*
X164880860Y-90922373D01*
X164792622Y-90807379D01*
X164792620Y-90807377D01*
X164677626Y-90719139D01*
X164677622Y-90719137D01*
X164543711Y-90663670D01*
X164543709Y-90663669D01*
X164400003Y-90644750D01*
X164399997Y-90644750D01*
X164256290Y-90663669D01*
X164256288Y-90663670D01*
X164122377Y-90719137D01*
X164122373Y-90719139D01*
X164007379Y-90807377D01*
X164007377Y-90807379D01*
X163919139Y-90922373D01*
X163919137Y-90922377D01*
X163863670Y-91056288D01*
X163863669Y-91056290D01*
X163844750Y-91199996D01*
X160348019Y-91199996D01*
X160356113Y-91191902D01*
X160356115Y-91191900D01*
X160506100Y-90996435D01*
X160506104Y-90996427D01*
X160506106Y-90996426D01*
X160615252Y-90807377D01*
X160629289Y-90783065D01*
X160723574Y-90555442D01*
X160787341Y-90317459D01*
X160819500Y-90073189D01*
X160819500Y-89826811D01*
X160787341Y-89582541D01*
X160723574Y-89344558D01*
X160629289Y-89116935D01*
X160619951Y-89100761D01*
X160506106Y-88903573D01*
X160506104Y-88903571D01*
X160506101Y-88903568D01*
X160506100Y-88903565D01*
X160356115Y-88708100D01*
X160356112Y-88708096D01*
X160181903Y-88533887D01*
X159986428Y-88383895D01*
X159986426Y-88383893D01*
X159773069Y-88260713D01*
X159773060Y-88260708D01*
X159545444Y-88166427D01*
X159545446Y-88166427D01*
X159545442Y-88166426D01*
X159307459Y-88102659D01*
X159307456Y-88102658D01*
X159307454Y-88102658D01*
X159063196Y-88070500D01*
X159063189Y-88070500D01*
X158816811Y-88070500D01*
X158816803Y-88070500D01*
X158572545Y-88102658D01*
X158334561Y-88166425D01*
X158334555Y-88166427D01*
X158106939Y-88260708D01*
X158106930Y-88260713D01*
X157893573Y-88383893D01*
X157893571Y-88383895D01*
X157698096Y-88533887D01*
X157523887Y-88708096D01*
X157373895Y-88903571D01*
X157373893Y-88903573D01*
X157250713Y-89116930D01*
X157250708Y-89116939D01*
X157156427Y-89344555D01*
X157156425Y-89344561D01*
X157092658Y-89582545D01*
X157060500Y-89826803D01*
X149389499Y-89826803D01*
X149357341Y-89582541D01*
X149293574Y-89344558D01*
X149199289Y-89116935D01*
X149189951Y-89100761D01*
X149076106Y-88903573D01*
X149076104Y-88903571D01*
X149076101Y-88903568D01*
X149076100Y-88903565D01*
X148926115Y-88708100D01*
X148926112Y-88708096D01*
X148751903Y-88533887D01*
X148556428Y-88383895D01*
X148556426Y-88383893D01*
X148343069Y-88260713D01*
X148343060Y-88260708D01*
X148115444Y-88166427D01*
X148115446Y-88166427D01*
X148115442Y-88166426D01*
X148083557Y-88157882D01*
X147877457Y-88102658D01*
X147841095Y-88097871D01*
X147758064Y-88067061D01*
X147696623Y-88003277D01*
X147668942Y-87919150D01*
X147680503Y-87831345D01*
X147729017Y-87757251D01*
X147730782Y-87755720D01*
X147730863Y-87754416D01*
X146984503Y-87008055D01*
X147071764Y-86984674D01*
X147173236Y-86926089D01*
X147256089Y-86843236D01*
X147314674Y-86741764D01*
X147338055Y-86654502D01*
X148083698Y-87400145D01*
X148083699Y-87400144D01*
X148175191Y-87260107D01*
X148175197Y-87260096D01*
X148271388Y-87040802D01*
X148330178Y-86808646D01*
X148349952Y-86570004D01*
X148349952Y-86570000D01*
X155859593Y-86570000D01*
X155879181Y-86781387D01*
X155904585Y-86870672D01*
X155937276Y-86985574D01*
X156031903Y-87175609D01*
X156031903Y-87175610D01*
X156149504Y-87331339D01*
X156159839Y-87345024D01*
X156316725Y-87488045D01*
X156422826Y-87553740D01*
X156497212Y-87599798D01*
X156497214Y-87599799D01*
X156497219Y-87599802D01*
X156695176Y-87676491D01*
X156903854Y-87715500D01*
X156903856Y-87715500D01*
X157116144Y-87715500D01*
X157116146Y-87715500D01*
X157324824Y-87676491D01*
X157522781Y-87599802D01*
X157703275Y-87488045D01*
X157860161Y-87345024D01*
X157988096Y-87175611D01*
X158082723Y-86985575D01*
X158140819Y-86781387D01*
X158160407Y-86570000D01*
X158140819Y-86358613D01*
X158082723Y-86154425D01*
X158082721Y-86154420D01*
X158079403Y-86145855D01*
X158081419Y-86145073D01*
X158063743Y-86072123D01*
X158082297Y-85985525D01*
X158136587Y-85915554D01*
X158215861Y-85876067D01*
X158283254Y-85871532D01*
X158366300Y-85880145D01*
X159111944Y-85134501D01*
X159135326Y-85221764D01*
X159193911Y-85323236D01*
X159276764Y-85406089D01*
X159378236Y-85464674D01*
X159465497Y-85488055D01*
X158719135Y-86234417D01*
X158719135Y-86234418D01*
X158756950Y-86263850D01*
X158756952Y-86263851D01*
X158967560Y-86377826D01*
X159194053Y-86455582D01*
X159194054Y-86455583D01*
X159430260Y-86494999D01*
X159430266Y-86495000D01*
X159669734Y-86495000D01*
X159669739Y-86494999D01*
X159905945Y-86455583D01*
X159905946Y-86455582D01*
X160132439Y-86377826D01*
X160343051Y-86263849D01*
X160380863Y-86234419D01*
X160380863Y-86234416D01*
X159634503Y-85488055D01*
X159721764Y-85464674D01*
X159823236Y-85406089D01*
X159906089Y-85323236D01*
X159964674Y-85221764D01*
X159988055Y-85134502D01*
X160733698Y-85880145D01*
X160733699Y-85880144D01*
X160825191Y-85740107D01*
X160825197Y-85740096D01*
X160921388Y-85520802D01*
X160980178Y-85288646D01*
X160999952Y-85050004D01*
X160999952Y-85049995D01*
X160980178Y-84811353D01*
X160921388Y-84579197D01*
X160886647Y-84499994D01*
X162544500Y-84499994D01*
X162544500Y-84500005D01*
X162564482Y-84843103D01*
X162624167Y-85181592D01*
X162722737Y-85510839D01*
X162858870Y-85826429D01*
X162858871Y-85826431D01*
X163030713Y-86124069D01*
X163030712Y-86124069D01*
X163219479Y-86377626D01*
X163235956Y-86399759D01*
X163471813Y-86649753D01*
X163735098Y-86870675D01*
X164022250Y-87059538D01*
X164329386Y-87213788D01*
X164652353Y-87331338D01*
X164652358Y-87331339D01*
X164652360Y-87331340D01*
X164760756Y-87357029D01*
X164986783Y-87410599D01*
X165095213Y-87423272D01*
X165328138Y-87450499D01*
X165328150Y-87450499D01*
X165328153Y-87450500D01*
X165328155Y-87450500D01*
X165671845Y-87450500D01*
X165671847Y-87450500D01*
X165671849Y-87450499D01*
X165671861Y-87450499D01*
X165849801Y-87429699D01*
X166013217Y-87410599D01*
X166347647Y-87331338D01*
X166670614Y-87213788D01*
X166977750Y-87059538D01*
X167264902Y-86870675D01*
X167528187Y-86649753D01*
X167764044Y-86399759D01*
X167969284Y-86124074D01*
X168141131Y-85826426D01*
X168277262Y-85510841D01*
X168375834Y-85181585D01*
X168435516Y-84843113D01*
X168435779Y-84838613D01*
X168455500Y-84500005D01*
X168455500Y-84499994D01*
X168435517Y-84156896D01*
X168435516Y-84156891D01*
X168435516Y-84156887D01*
X168375834Y-83818415D01*
X168367447Y-83790401D01*
X168277262Y-83489160D01*
X168254473Y-83436330D01*
X168141131Y-83173574D01*
X168066153Y-83043709D01*
X167969286Y-82875930D01*
X167969287Y-82875930D01*
X167764047Y-82600245D01*
X167764046Y-82600244D01*
X167764044Y-82600241D01*
X167528187Y-82350247D01*
X167264902Y-82129325D01*
X166977750Y-81940462D01*
X166827566Y-81865036D01*
X166670621Y-81786215D01*
X166670617Y-81786213D01*
X166670614Y-81786212D01*
X166347647Y-81668662D01*
X166347645Y-81668661D01*
X166347641Y-81668660D01*
X166347639Y-81668659D01*
X166013213Y-81589400D01*
X165671861Y-81549500D01*
X165671847Y-81549500D01*
X165328153Y-81549500D01*
X165328138Y-81549500D01*
X164986787Y-81589400D01*
X164986786Y-81589400D01*
X164652360Y-81668659D01*
X164652358Y-81668660D01*
X164652353Y-81668662D01*
X164329386Y-81786212D01*
X164329384Y-81786212D01*
X164329384Y-81786213D01*
X164329378Y-81786215D01*
X164022246Y-81940464D01*
X163735095Y-82129327D01*
X163471811Y-82350249D01*
X163235952Y-82600245D01*
X163030713Y-82875930D01*
X162858871Y-83173568D01*
X162858870Y-83173570D01*
X162722737Y-83489160D01*
X162624167Y-83818407D01*
X162564482Y-84156896D01*
X162544500Y-84499994D01*
X160886647Y-84499994D01*
X160825197Y-84359902D01*
X160825195Y-84359900D01*
X160733698Y-84219853D01*
X159988055Y-84965496D01*
X159964674Y-84878236D01*
X159906089Y-84776764D01*
X159823236Y-84693911D01*
X159721764Y-84635326D01*
X159634502Y-84611944D01*
X160380864Y-83865581D01*
X160343048Y-83836149D01*
X160343047Y-83836148D01*
X160132439Y-83722173D01*
X159905946Y-83644417D01*
X159905945Y-83644416D01*
X159669739Y-83605000D01*
X159430260Y-83605000D01*
X159194054Y-83644416D01*
X159194053Y-83644417D01*
X158967559Y-83722173D01*
X158967555Y-83722175D01*
X158756960Y-83836142D01*
X158756952Y-83836148D01*
X158719134Y-83865580D01*
X159465498Y-84611944D01*
X159378236Y-84635326D01*
X159276764Y-84693911D01*
X159193911Y-84776764D01*
X159135326Y-84878236D01*
X159111944Y-84965497D01*
X158366300Y-84219853D01*
X158274802Y-84359903D01*
X158178611Y-84579197D01*
X158119821Y-84811353D01*
X158100048Y-85049995D01*
X158100048Y-85050004D01*
X158119821Y-85288646D01*
X158178611Y-85520802D01*
X158225069Y-85626715D01*
X158241705Y-85713702D01*
X158218952Y-85799292D01*
X158161315Y-85866534D01*
X158080211Y-85902110D01*
X157991703Y-85898972D01*
X157913322Y-85857743D01*
X157884025Y-85826577D01*
X157863420Y-85799292D01*
X157860161Y-85794976D01*
X157703275Y-85651955D01*
X157650272Y-85619137D01*
X157522787Y-85540201D01*
X157522785Y-85540200D01*
X157522782Y-85540199D01*
X157522781Y-85540198D01*
X157324824Y-85463509D01*
X157116146Y-85424500D01*
X156903854Y-85424500D01*
X156695176Y-85463509D01*
X156497214Y-85540200D01*
X156497212Y-85540201D01*
X156316729Y-85651952D01*
X156316727Y-85651953D01*
X156316725Y-85651955D01*
X156312717Y-85655609D01*
X156159837Y-85794977D01*
X156031903Y-85964389D01*
X156031903Y-85964390D01*
X155937276Y-86154425D01*
X155911873Y-86243711D01*
X155879181Y-86358613D01*
X155859593Y-86570000D01*
X148349952Y-86570000D01*
X148349952Y-86569995D01*
X148330178Y-86331353D01*
X148271389Y-86099199D01*
X148224930Y-85993285D01*
X148208294Y-85906298D01*
X148231047Y-85820708D01*
X148288683Y-85753465D01*
X148369787Y-85717890D01*
X148458295Y-85721027D01*
X148536677Y-85762255D01*
X148565973Y-85793421D01*
X148589836Y-85825021D01*
X148589837Y-85825022D01*
X148589839Y-85825024D01*
X148746725Y-85968045D01*
X148852826Y-86033740D01*
X148927212Y-86079798D01*
X148927214Y-86079799D01*
X148927219Y-86079802D01*
X149125176Y-86156491D01*
X149333854Y-86195500D01*
X149333856Y-86195500D01*
X149546144Y-86195500D01*
X149546146Y-86195500D01*
X149754824Y-86156491D01*
X149952781Y-86079802D01*
X150133275Y-85968045D01*
X150290161Y-85825024D01*
X150418096Y-85655611D01*
X150512723Y-85465575D01*
X150570819Y-85261387D01*
X150590407Y-85050000D01*
X150570819Y-84838613D01*
X150512723Y-84634425D01*
X150418096Y-84444389D01*
X150290161Y-84274976D01*
X150133275Y-84131955D01*
X150111933Y-84118740D01*
X149952787Y-84020201D01*
X149952785Y-84020200D01*
X149952782Y-84020199D01*
X149952781Y-84020198D01*
X149754824Y-83943509D01*
X149546146Y-83904500D01*
X149333854Y-83904500D01*
X149125176Y-83943509D01*
X148927214Y-84020200D01*
X148927212Y-84020201D01*
X148746729Y-84131952D01*
X148746727Y-84131953D01*
X148746725Y-84131955D01*
X148677716Y-84194864D01*
X148589837Y-84274977D01*
X148461903Y-84444389D01*
X148461903Y-84444390D01*
X148367276Y-84634425D01*
X148326778Y-84776764D01*
X148309181Y-84838613D01*
X148289593Y-85050000D01*
X148309181Y-85261387D01*
X148336141Y-85356142D01*
X148367278Y-85465579D01*
X148370597Y-85474145D01*
X148368584Y-85474924D01*
X148386256Y-85547911D01*
X148367686Y-85634505D01*
X148313383Y-85704467D01*
X148234103Y-85743939D01*
X148166745Y-85748466D01*
X148083698Y-85739853D01*
X147338055Y-86485496D01*
X147314674Y-86398236D01*
X147256089Y-86296764D01*
X147173236Y-86213911D01*
X147071764Y-86155326D01*
X146984502Y-86131944D01*
X147730864Y-85385581D01*
X147693048Y-85356149D01*
X147693047Y-85356148D01*
X147482439Y-85242173D01*
X147255946Y-85164417D01*
X147255945Y-85164416D01*
X147019739Y-85125000D01*
X146780260Y-85125000D01*
X146544054Y-85164416D01*
X146544053Y-85164417D01*
X146317559Y-85242173D01*
X146317555Y-85242175D01*
X146106960Y-85356142D01*
X146106952Y-85356148D01*
X146069134Y-85385580D01*
X146815498Y-86131944D01*
X146728236Y-86155326D01*
X146626764Y-86213911D01*
X146543911Y-86296764D01*
X146485326Y-86398236D01*
X146461944Y-86485497D01*
X145716300Y-85739853D01*
X145624802Y-85879903D01*
X145528611Y-86099197D01*
X145469821Y-86331353D01*
X145450048Y-86569995D01*
X145450048Y-86570004D01*
X145469821Y-86808646D01*
X145528611Y-87040802D01*
X145624802Y-87260097D01*
X145624807Y-87260105D01*
X145716300Y-87400145D01*
X146461944Y-86654501D01*
X146485326Y-86741764D01*
X146543911Y-86843236D01*
X146626764Y-86926089D01*
X146728236Y-86984674D01*
X146815497Y-87008055D01*
X146069135Y-87754417D01*
X146069135Y-87754418D01*
X146106950Y-87783850D01*
X146106952Y-87783851D01*
X146317560Y-87897826D01*
X146523579Y-87968554D01*
X146598844Y-88015229D01*
X146646405Y-88089938D01*
X146656840Y-88177884D01*
X146628083Y-88261649D01*
X146565830Y-88324641D01*
X146558463Y-88329110D01*
X146463569Y-88383896D01*
X146268096Y-88533887D01*
X146093887Y-88708096D01*
X145943895Y-88903571D01*
X145943893Y-88903573D01*
X145820713Y-89116930D01*
X145820708Y-89116939D01*
X145726427Y-89344555D01*
X145726425Y-89344561D01*
X145662658Y-89582545D01*
X145630500Y-89826803D01*
X145630500Y-90073196D01*
X145662658Y-90317454D01*
X145726425Y-90555438D01*
X145726427Y-90555444D01*
X145820708Y-90783060D01*
X145820713Y-90783069D01*
X145943893Y-90996426D01*
X145943895Y-90996428D01*
X146093887Y-91191903D01*
X146159766Y-91257782D01*
X146206885Y-91332770D01*
X146216801Y-91420777D01*
X146187550Y-91504370D01*
X146124926Y-91566994D01*
X146041333Y-91596245D01*
X145954437Y-91586714D01*
X145819614Y-91540429D01*
X145749534Y-91528735D01*
X145574340Y-91499500D01*
X145574335Y-91499500D01*
X145325665Y-91499500D01*
X145325659Y-91499500D01*
X145115425Y-91534582D01*
X145080386Y-91540429D01*
X145004837Y-91566365D01*
X144845185Y-91621173D01*
X144626493Y-91739524D01*
X144626490Y-91739526D01*
X144430256Y-91892261D01*
X144430249Y-91892267D01*
X144261833Y-92075217D01*
X144261831Y-92075220D01*
X144125829Y-92283388D01*
X144125824Y-92283396D01*
X144025938Y-92511116D01*
X143964890Y-92752186D01*
X143944357Y-92999995D01*
X129000000Y-92999995D01*
X129000000Y-84501069D01*
X129000006Y-84499994D01*
X131544500Y-84499994D01*
X131544500Y-84500005D01*
X131564482Y-84843103D01*
X131624167Y-85181592D01*
X131722737Y-85510839D01*
X131858870Y-85826429D01*
X131858871Y-85826431D01*
X132030713Y-86124069D01*
X132030712Y-86124069D01*
X132219479Y-86377626D01*
X132235956Y-86399759D01*
X132471813Y-86649753D01*
X132735098Y-86870675D01*
X133022250Y-87059538D01*
X133329386Y-87213788D01*
X133652353Y-87331338D01*
X133652358Y-87331339D01*
X133652360Y-87331340D01*
X133760756Y-87357029D01*
X133986783Y-87410599D01*
X134095213Y-87423272D01*
X134328138Y-87450499D01*
X134328150Y-87450499D01*
X134328153Y-87450500D01*
X134328155Y-87450500D01*
X134671845Y-87450500D01*
X134671847Y-87450500D01*
X134671849Y-87450499D01*
X134671861Y-87450499D01*
X134849801Y-87429699D01*
X135013217Y-87410599D01*
X135347647Y-87331338D01*
X135670614Y-87213788D01*
X135977750Y-87059538D01*
X136264902Y-86870675D01*
X136528187Y-86649753D01*
X136764044Y-86399759D01*
X136969284Y-86124074D01*
X136983185Y-86099996D01*
X142044750Y-86099996D01*
X142044750Y-86100003D01*
X142063669Y-86243709D01*
X142063670Y-86243711D01*
X142119137Y-86377622D01*
X142119139Y-86377626D01*
X142207377Y-86492620D01*
X142207379Y-86492622D01*
X142322373Y-86580860D01*
X142322377Y-86580862D01*
X142456288Y-86636329D01*
X142456290Y-86636330D01*
X142599997Y-86655250D01*
X142600000Y-86655250D01*
X142600003Y-86655250D01*
X142743709Y-86636330D01*
X142743711Y-86636329D01*
X142762407Y-86628585D01*
X142877625Y-86580861D01*
X142992621Y-86492621D01*
X143080861Y-86377625D01*
X143136330Y-86243709D01*
X143148085Y-86154425D01*
X143155250Y-86100003D01*
X143155250Y-86099996D01*
X143136330Y-85956290D01*
X143136329Y-85956288D01*
X143080862Y-85822377D01*
X143080860Y-85822373D01*
X142992622Y-85707379D01*
X142992620Y-85707377D01*
X142877626Y-85619139D01*
X142877622Y-85619137D01*
X142743711Y-85563670D01*
X142743709Y-85563669D01*
X142600003Y-85544750D01*
X142599997Y-85544750D01*
X142456290Y-85563669D01*
X142456288Y-85563670D01*
X142322377Y-85619137D01*
X142322373Y-85619139D01*
X142207379Y-85707377D01*
X142207377Y-85707379D01*
X142119139Y-85822373D01*
X142119137Y-85822377D01*
X142063670Y-85956288D01*
X142063669Y-85956290D01*
X142044750Y-86099996D01*
X136983185Y-86099996D01*
X137141131Y-85826426D01*
X137277262Y-85510841D01*
X137375834Y-85181585D01*
X137435516Y-84843113D01*
X137435779Y-84838613D01*
X137455500Y-84500005D01*
X137455500Y-84499994D01*
X137435517Y-84156896D01*
X137435516Y-84156891D01*
X137435516Y-84156887D01*
X137375834Y-83818415D01*
X137367447Y-83790401D01*
X137277262Y-83489160D01*
X137254473Y-83436330D01*
X137141131Y-83173574D01*
X137066153Y-83043709D01*
X136983180Y-82899996D01*
X139244750Y-82899996D01*
X139244750Y-82900003D01*
X139263669Y-83043709D01*
X139263670Y-83043711D01*
X139319137Y-83177622D01*
X139319139Y-83177626D01*
X139407377Y-83292620D01*
X139407379Y-83292622D01*
X139522373Y-83380860D01*
X139522377Y-83380862D01*
X139656288Y-83436329D01*
X139656290Y-83436330D01*
X139799997Y-83455250D01*
X139800000Y-83455250D01*
X139800003Y-83455250D01*
X139943709Y-83436330D01*
X139943711Y-83436329D01*
X140077625Y-83380861D01*
X140160120Y-83317560D01*
X140192620Y-83292622D01*
X140192622Y-83292620D01*
X140280860Y-83177626D01*
X140280859Y-83177626D01*
X140280861Y-83177625D01*
X140336330Y-83043709D01*
X140355250Y-82900000D01*
X140355250Y-82899996D01*
X140336330Y-82756290D01*
X140336329Y-82756288D01*
X140280862Y-82622377D01*
X140280860Y-82622373D01*
X140192622Y-82507379D01*
X140192620Y-82507377D01*
X140077626Y-82419139D01*
X140077622Y-82419137D01*
X139943711Y-82363670D01*
X139943709Y-82363669D01*
X139800003Y-82344750D01*
X139799997Y-82344750D01*
X139656290Y-82363669D01*
X139656288Y-82363670D01*
X139522377Y-82419137D01*
X139522373Y-82419139D01*
X139407379Y-82507377D01*
X139407377Y-82507379D01*
X139319139Y-82622373D01*
X139319137Y-82622377D01*
X139263670Y-82756288D01*
X139263669Y-82756290D01*
X139244750Y-82899996D01*
X136983180Y-82899996D01*
X136969286Y-82875930D01*
X136969287Y-82875930D01*
X136764047Y-82600245D01*
X136764046Y-82600244D01*
X136764044Y-82600241D01*
X136528187Y-82350247D01*
X136264902Y-82129325D01*
X135977750Y-81940462D01*
X135827566Y-81865036D01*
X135670621Y-81786215D01*
X135670617Y-81786213D01*
X135670614Y-81786212D01*
X135347647Y-81668662D01*
X135347645Y-81668661D01*
X135347641Y-81668660D01*
X135347639Y-81668659D01*
X135013213Y-81589400D01*
X134671861Y-81549500D01*
X134671847Y-81549500D01*
X134328153Y-81549500D01*
X134328138Y-81549500D01*
X133986787Y-81589400D01*
X133986786Y-81589400D01*
X133652360Y-81668659D01*
X133652358Y-81668660D01*
X133652353Y-81668662D01*
X133329386Y-81786212D01*
X133329384Y-81786212D01*
X133329384Y-81786213D01*
X133329378Y-81786215D01*
X133022246Y-81940464D01*
X132735095Y-82129327D01*
X132471811Y-82350249D01*
X132235952Y-82600245D01*
X132030713Y-82875930D01*
X131858871Y-83173568D01*
X131858870Y-83173570D01*
X131722737Y-83489160D01*
X131624167Y-83818407D01*
X131564482Y-84156896D01*
X131544500Y-84499994D01*
X129000006Y-84499994D01*
X129000012Y-84498899D01*
X129000606Y-84444389D01*
X129002534Y-84267583D01*
X129003279Y-84252411D01*
X129043700Y-83790401D01*
X129045961Y-83773225D01*
X129126307Y-83317560D01*
X129130064Y-83300617D01*
X129132207Y-83292620D01*
X129249809Y-82853719D01*
X129255028Y-82837169D01*
X129413279Y-82402378D01*
X129419906Y-82386378D01*
X129615446Y-81967042D01*
X129623459Y-81951650D01*
X129854802Y-81550950D01*
X129864109Y-81536343D01*
X130129497Y-81157329D01*
X130140054Y-81143571D01*
X130437473Y-80789121D01*
X130449180Y-80776346D01*
X130776346Y-80449180D01*
X130789121Y-80437473D01*
X131072135Y-80199996D01*
X144344750Y-80199996D01*
X144344750Y-80200003D01*
X144363669Y-80343709D01*
X144363670Y-80343711D01*
X144419137Y-80477622D01*
X144419139Y-80477626D01*
X144507377Y-80592620D01*
X144507379Y-80592622D01*
X144622373Y-80680860D01*
X144622377Y-80680862D01*
X144756288Y-80736329D01*
X144756290Y-80736330D01*
X144899997Y-80755250D01*
X144900000Y-80755250D01*
X144900003Y-80755250D01*
X145043709Y-80736330D01*
X145043711Y-80736329D01*
X145177625Y-80680861D01*
X145292621Y-80592621D01*
X145292622Y-80592620D01*
X145301844Y-80583399D01*
X145302838Y-80584393D01*
X145360316Y-80536769D01*
X145446275Y-80515449D01*
X145532972Y-80533536D01*
X145598069Y-80583485D01*
X145598156Y-80583399D01*
X145598812Y-80584055D01*
X145603235Y-80587449D01*
X145607285Y-80592528D01*
X145607379Y-80592622D01*
X145722373Y-80680860D01*
X145722377Y-80680862D01*
X145856288Y-80736329D01*
X145856290Y-80736330D01*
X145999997Y-80755250D01*
X146000000Y-80755250D01*
X146000003Y-80755250D01*
X146143709Y-80736330D01*
X146143711Y-80736329D01*
X146277625Y-80680861D01*
X146392621Y-80592621D01*
X146392693Y-80592528D01*
X146480860Y-80477626D01*
X146480859Y-80477626D01*
X146480861Y-80477625D01*
X146536330Y-80343709D01*
X146555250Y-80200000D01*
X146555250Y-80199996D01*
X146536330Y-80056290D01*
X146536329Y-80056288D01*
X146480862Y-79922377D01*
X146480860Y-79922373D01*
X146392622Y-79807379D01*
X146392620Y-79807377D01*
X146277626Y-79719139D01*
X146277622Y-79719137D01*
X146143711Y-79663670D01*
X146143709Y-79663669D01*
X146000003Y-79644750D01*
X145999997Y-79644750D01*
X145856290Y-79663669D01*
X145856288Y-79663670D01*
X145722377Y-79719137D01*
X145722373Y-79719139D01*
X145607379Y-79807377D01*
X145598156Y-79816601D01*
X145597162Y-79815607D01*
X145539675Y-79863235D01*
X145453715Y-79884550D01*
X145367019Y-79866458D01*
X145301932Y-79816512D01*
X145301844Y-79816601D01*
X145301169Y-79815926D01*
X145296759Y-79812542D01*
X145292716Y-79807473D01*
X145292620Y-79807377D01*
X145177626Y-79719139D01*
X145177622Y-79719137D01*
X145043711Y-79663670D01*
X145043709Y-79663669D01*
X144900003Y-79644750D01*
X144899997Y-79644750D01*
X144756290Y-79663669D01*
X144756288Y-79663670D01*
X144622377Y-79719137D01*
X144622373Y-79719139D01*
X144507379Y-79807377D01*
X144507377Y-79807379D01*
X144419139Y-79922373D01*
X144419137Y-79922377D01*
X144363670Y-80056288D01*
X144363669Y-80056290D01*
X144344750Y-80199996D01*
X131072135Y-80199996D01*
X131143571Y-80140054D01*
X131157329Y-80129497D01*
X131536343Y-79864109D01*
X131550950Y-79854802D01*
X131951657Y-79623455D01*
X131967042Y-79615446D01*
X132386378Y-79419906D01*
X132402378Y-79413279D01*
X132837176Y-79255025D01*
X132853719Y-79249809D01*
X133300622Y-79130062D01*
X133317560Y-79126307D01*
X133773225Y-79045961D01*
X133790401Y-79043700D01*
X134252414Y-79003278D01*
X134267583Y-79002534D01*
X134498899Y-79000011D01*
X134501069Y-79000000D01*
X165498931Y-79000000D01*
X165501100Y-79000011D01*
G37*
%TD.AperFunction*%
%TD*%
M02*
