M48
; DRILL file {KiCad 7.0.6} date Sat Feb 24 16:47:02 2024
; FORMAT={-:-/ absolute / metric / decimal}
; #@! TF.CreationDate,2024-02-24T16:47:02-05:00
; #@! TF.GenerationSoftware,Kicad,Pcbnew,7.0.6
; #@! TF.FileFunction,Plated,1,4,PTH
FMAT,2
METRIC
; #@! TA.AperFunction,Plated,PTH,ViaDrill
T1C0.150
; #@! TA.AperFunction,Plated,PTH,ComponentDrill
T2C0.200
; #@! TA.AperFunction,Plated,PTH,ViaDrill
T3C0.350
; #@! TA.AperFunction,Plated,PTH,ComponentDrill
T4C0.600
; #@! TA.AperFunction,Plated,PTH,ComponentDrill
T5C0.650
; #@! TA.AperFunction,Plated,PTH,ComponentDrill
T6C0.750
%
G90
G05
T1
X143.25Y-96.75
X143.25Y-97.25
X143.25Y-102.75
X143.25Y-103.25
X143.75Y-97.0
X143.75Y-97.5
X143.75Y-102.5
X143.75Y-103.0
T2
X144.95Y-99.0
X144.95Y-100.0
X144.95Y-101.0
X145.95Y-99.0
X145.95Y-100.0
X145.95Y-101.0
X146.95Y-99.0
X146.95Y-100.0
X146.95Y-101.0
T3
X133.0Y-108.9
X133.3Y-93.0
X135.7Y-108.1
X136.9Y-95.2
X136.9Y-96.0
X136.918Y-103.971
X136.918Y-104.771
X137.2Y-96.7
X137.218Y-103.271
X137.7Y-111.0
X138.0Y-91.5
X138.0Y-96.7
X138.018Y-103.271
X138.2Y-111.7
X138.7Y-111.0
X138.8Y-96.7
X138.818Y-103.271
X139.2Y-111.7
X139.4Y-85.5
X139.5Y-88.8
X139.7Y-111.0
X140.2Y-111.7
X141.0Y-88.9
X141.1Y-93.4
X141.1Y-94.2
X141.8Y-92.9
X142.0Y-84.2
X142.3Y-105.6
X142.3Y-106.4
X142.3Y-107.2
X142.5Y-93.4
X142.5Y-94.2
X143.1Y-105.6
X143.1Y-106.4
X143.1Y-107.2
X145.4Y-94.8
X145.4Y-94.8
X145.6Y-90.0
X147.0Y-110.7
X147.2Y-115.4
X147.6Y-116.1
X147.7Y-104.5
X147.8Y-84.6
X148.0Y-115.4
X148.0Y-116.8
X148.1Y-97.8
X148.1Y-102.4
X148.31Y-94.61
X148.4Y-116.1
X148.7Y-97.0
X148.8Y-116.8
X149.5Y-83.15
X149.8Y-96.7
X149.8Y-102.6
X149.8Y-102.6
X150.0Y-115.1
X150.4Y-115.8
X150.8Y-115.1
X150.8Y-116.5
X150.9Y-105.1
X151.2Y-115.8
X151.5Y-88.6
X151.6Y-116.5
X152.035Y-85.628
X152.05Y-113.149
X152.475Y-99.224
X152.5Y-101.0
X152.6Y-103.1
X152.941Y-85.641
X153.4Y-99.6
X153.5Y-103.2
X154.2Y-97.1
X154.3Y-85.1
X154.694Y-97.894
X155.0Y-105.0
X155.1Y-107.1
X155.2Y-102.2
X155.4Y-85.0
X155.6Y-98.1
X156.3Y-97.2
X157.5Y-100.6
X157.7Y-98.5
X158.1Y-87.0
X158.15Y-86.058
X159.084Y-105.111
X159.091Y-97.4
X159.5Y-96.4
X159.9Y-93.9
X160.8Y-84.9
X161.291Y-92.191
X161.3Y-107.899
X161.6Y-88.4
X161.6Y-90.8
X162.1Y-105.3
X162.6Y-98.4
X162.9Y-103.0
X163.2Y-110.1
T5
X163.43Y-92.1
X163.43Y-93.37
X163.43Y-94.64
X163.43Y-95.91
X163.43Y-97.18
X164.7Y-92.1
X164.7Y-93.37
X164.7Y-94.64
X164.7Y-95.91
X164.7Y-97.18
T6
X134.45Y-97.0
X134.45Y-99.0
X134.45Y-101.0
X134.45Y-103.0
X140.2Y-115.5
X142.2Y-115.5
X153.5Y-115.5
X155.5Y-115.5
X157.5Y-115.5
X159.5Y-115.5
T4
G00X164.525Y-102.18
M15
G01X165.625Y-102.18
M16
G05
G00X164.525Y-110.82
M15
G01X165.625Y-110.82
M16
G05
G00X168.875Y-102.18
M15
G01X169.675Y-102.18
M16
G05
G00X168.875Y-110.82
M15
G01X169.675Y-110.82
M16
G05
T0
M30
